<?xml version="1.0" encoding="UTF-8" standalone="no"?>
<!DOCTYPE svg PUBLIC "-//W3C//DTD SVG 1.1//EN"
 "http://www.w3.org/Graphics/SVG/1.1/DTD/svg11.dtd">
<!-- Generated by graphviz version 2.42.4 (0)
 -->
<!-- Title: dependencies Pages: 1 -->
<svg width="1168pt" height="730pt"
 viewBox="0.00 0.00 1168.00 730.00" xmlns="http://www.w3.org/2000/svg" xmlns:xlink="http://www.w3.org/1999/xlink">
<g id="graph0" class="graph" transform="scale(1 1) rotate(0) translate(4 726)">
<title>dependencies</title>
<polygon fill="white" stroke="transparent" points="-4,4 -4,-726 1164,-726 1164,4 -4,4"/>
<!-- roo_backport -->
<g id="node1" class="node">
<title>roo_backport</title>
<polygon fill="#b1dbab" stroke="black" points="577.5,-209 467.5,-209 467.5,-171 577.5,-171 577.5,-209"/>
<text text-anchor="middle" x="522.5" y="-193.8" font-family="Times,serif" font-size="14.00">roo_backport</text>
<text text-anchor="middle" x="522.5" y="-178.8" font-family="Times,serif" font-size="14.00">1.2.2</text>
</g>
<!-- roo_blink -->
<g id="node2" class="node">
<title>roo_blink</title>
<polygon fill="#b1dbab" stroke="black" points="319.5,-530 237.5,-530 237.5,-492 319.5,-492 319.5,-530"/>
<text text-anchor="middle" x="278.5" y="-514.8" font-family="Times,serif" font-size="14.00">roo_blink</text>
<text text-anchor="middle" x="278.5" y="-499.8" font-family="Times,serif" font-size="14.00">1.0.6</text>
</g>
<!-- roo_logging -->
<g id="node14" class="node">
<title>roo_logging</title>
<polygon fill="khaki" stroke="red" points="489.5,-284 389.5,-284 389.5,-246 489.5,-246 489.5,-284"/>
<text text-anchor="middle" x="439.5" y="-268.8" font-family="Times,serif" font-size="14.00">roo_logging</text>
<text text-anchor="middle" x="439.5" y="-253.8" font-family="Times,serif" font-size="14.00">1.5.5</text>
</g>
<!-- roo_blink&#45;&gt;roo_logging -->
<g id="edge1" class="edge">
<title>roo_blink&#45;&gt;roo_logging</title>
<path fill="none" stroke="black" d="M237.3,-492.29C213.19,-481 186.21,-466.4 179.5,-455 170.94,-440.44 172.76,-432.48 179.5,-417 197.98,-374.58 315.56,-318.49 386.12,-288.01"/>
<polygon fill="black" stroke="black" points="387.51,-291.22 395.32,-284.07 384.75,-284.79 387.51,-291.22"/>
</g>
<!-- roo_scheduler -->
<g id="node20" class="node">
<title>roo_scheduler</title>
<polygon fill="#b1dbab" stroke="black" points="304.5,-455 188.5,-455 188.5,-417 304.5,-417 304.5,-455"/>
<text text-anchor="middle" x="246.5" y="-439.8" font-family="Times,serif" font-size="14.00">roo_scheduler</text>
<text text-anchor="middle" x="246.5" y="-424.8" font-family="Times,serif" font-size="14.00">2.1.9</text>
</g>
<!-- roo_blink&#45;&gt;roo_scheduler -->
<g id="edge2" class="edge">
<title>roo_blink&#45;&gt;roo_scheduler</title>
<path fill="none" stroke="black" d="M270.59,-491.96C266.94,-483.62 262.52,-473.54 258.47,-464.3"/>
<polygon fill="black" stroke="black" points="261.65,-462.84 254.43,-455.09 255.24,-465.65 261.65,-462.84"/>
</g>
<!-- roo_collections -->
<g id="node3" class="node">
<title>roo_collections</title>
<polygon fill="#b1dbab" stroke="black" points="477.5,-359 355.5,-359 355.5,-321 477.5,-321 477.5,-359"/>
<text text-anchor="middle" x="416.5" y="-343.8" font-family="Times,serif" font-size="14.00">roo_collections</text>
<text text-anchor="middle" x="416.5" y="-328.8" font-family="Times,serif" font-size="14.00">1.4.3</text>
</g>
<!-- roo_collections&#45;&gt;roo_backport -->
<g id="edge3" class="edge">
<title>roo_collections&#45;&gt;roo_backport</title>
<path fill="none" stroke="black" d="M455.04,-321C470.63,-311.93 487.5,-299.53 498.5,-284 512,-264.94 517.91,-238.9 520.5,-219.22"/>
<polygon fill="black" stroke="black" points="524,-219.35 521.62,-209.03 517.05,-218.58 524,-219.35"/>
</g>
<!-- roo_comms -->
<g id="node4" class="node">
<title>roo_comms</title>
<polygon fill="#b1dbab" stroke="red" points="354,-722 257,-722 257,-684 354,-684 354,-722"/>
<text text-anchor="middle" x="305.5" y="-706.8" font-family="Times,serif" font-size="14.00">roo_comms</text>
<text text-anchor="middle" x="305.5" y="-691.8" font-family="Times,serif" font-size="14.00">1.1.4</text>
</g>
<!-- roo_comms&#45;&gt;roo_blink -->
<g id="edge4" class="edge">
<title>roo_comms&#45;&gt;roo_blink</title>
<path fill="none" stroke="black" d="M302.91,-683.78C298.18,-650.52 288.12,-579.73 282.51,-540.2"/>
<polygon fill="black" stroke="black" points="285.95,-539.57 281.08,-530.16 279.02,-540.56 285.95,-539.57"/>
</g>
<!-- roo_control -->
<g id="node5" class="node">
<title>roo_control</title>
<polygon fill="#b1dbab" stroke="black" points="97,-530 0,-530 0,-492 97,-492 97,-530"/>
<text text-anchor="middle" x="48.5" y="-514.8" font-family="Times,serif" font-size="14.00">roo_control</text>
<text text-anchor="middle" x="48.5" y="-499.8" font-family="Times,serif" font-size="14.00">1.2.5</text>
</g>
<!-- roo_comms&#45;&gt;roo_control -->
<g id="edge5" class="edge">
<title>roo_comms&#45;&gt;roo_control</title>
<path fill="none" stroke="black" d="M280.86,-683.78C234.33,-649.38 133.52,-574.86 81.32,-536.26"/>
<polygon fill="black" stroke="black" points="83.19,-533.29 73.07,-530.16 79.03,-538.92 83.19,-533.29"/>
</g>
<!-- roo_io -->
<g id="node12" class="node">
<title>roo_io</title>
<polygon fill="#b1dbab" stroke="black" points="560,-359 501,-359 501,-321 560,-321 560,-359"/>
<text text-anchor="middle" x="530.5" y="-343.8" font-family="Times,serif" font-size="14.00">roo_io</text>
<text text-anchor="middle" x="530.5" y="-328.8" font-family="Times,serif" font-size="14.00">2.1.6</text>
</g>
<!-- roo_comms&#45;&gt;roo_io -->
<g id="edge6" class="edge">
<title>roo_comms&#45;&gt;roo_io</title>
<path fill="none" stroke="red" d="M309.56,-683.71C320.19,-637.45 350.12,-517.68 380.5,-492 452.2,-431.37 528.2,-526.97 588.5,-455 611.12,-428 583.45,-390.71 559.12,-366.23"/>
<polygon fill="red" stroke="red" points="561.36,-363.52 551.74,-359.07 556.48,-368.54 561.36,-363.52"/>
<text text-anchor="middle" x="413.5" y="-514" font-family="Times,serif" font-size="10.00" fill="red">2.1.5</text>
<text text-anchor="middle" x="413.5" y="-503" font-family="Times,serif" font-size="10.00" fill="red">(latest: 2.1.6)</text>
</g>
<!-- roo_transceivers -->
<g id="node25" class="node">
<title>roo_transceivers</title>
<polygon fill="#b1dbab" stroke="black" points="639,-626 504,-626 504,-588 639,-588 639,-626"/>
<text text-anchor="middle" x="571.5" y="-610.8" font-family="Times,serif" font-size="14.00">roo_transceivers</text>
<text text-anchor="middle" x="571.5" y="-595.8" font-family="Times,serif" font-size="14.00">1.1.6</text>
</g>
<!-- roo_comms&#45;&gt;roo_transceivers -->
<g id="edge7" class="edge">
<title>roo_comms&#45;&gt;roo_transceivers</title>
<path fill="none" stroke="red" d="M354.33,-687.85C360.09,-686.43 365.91,-685.1 371.5,-684 435.21,-671.42 458.54,-695.28 516.5,-666 520.6,-663.93 535.19,-648.47 548.31,-634.03"/>
<polygon fill="red" stroke="red" points="551.26,-635.98 555.37,-626.21 546.07,-631.29 551.26,-635.98"/>
<text text-anchor="middle" x="571.5" y="-658" font-family="Times,serif" font-size="10.00" fill="red">1.1.5</text>
<text text-anchor="middle" x="571.5" y="-647" font-family="Times,serif" font-size="10.00" fill="red">(latest: 1.1.6)</text>
</g>
<!-- roo_quantity -->
<g id="node19" class="node">
<title>roo_quantity</title>
<polygon fill="#b1dbab" stroke="black" points="132,-455 25,-455 25,-417 132,-417 132,-455"/>
<text text-anchor="middle" x="78.5" y="-439.8" font-family="Times,serif" font-size="14.00">roo_quantity</text>
<text text-anchor="middle" x="78.5" y="-424.8" font-family="Times,serif" font-size="14.00">1.1.8</text>
</g>
<!-- roo_control&#45;&gt;roo_quantity -->
<g id="edge8" class="edge">
<title>roo_control&#45;&gt;roo_quantity</title>
<path fill="none" stroke="black" d="M55.92,-491.96C59.31,-483.71 63.4,-473.75 67.16,-464.6"/>
<polygon fill="black" stroke="black" points="70.5,-465.67 71.07,-455.09 64.03,-463.01 70.5,-465.67"/>
</g>
<!-- roo_control&#45;&gt;roo_scheduler -->
<g id="edge9" class="edge">
<title>roo_control&#45;&gt;roo_scheduler</title>
<path fill="none" stroke="black" d="M97.19,-492.05C124.66,-481.92 159.16,-469.2 188.08,-458.54"/>
<polygon fill="black" stroke="black" points="189.48,-461.75 197.65,-455.01 187.06,-455.18 189.48,-461.75"/>
</g>
<!-- roo_dashboard -->
<g id="node6" class="node">
<title>roo_dashboard</title>
<polygon fill="khaki" stroke="red" points="886.5,-722 764.5,-722 764.5,-684 886.5,-684 886.5,-722"/>
<text text-anchor="middle" x="825.5" y="-706.8" font-family="Times,serif" font-size="14.00">roo_dashboard</text>
<text text-anchor="middle" x="825.5" y="-691.8" font-family="Times,serif" font-size="14.00">1.0.1</text>
</g>
<!-- roo_windows -->
<g id="node28" class="node">
<title>roo_windows</title>
<polygon fill="plum" stroke="red" points="833,-626 724,-626 724,-588 833,-588 833,-626"/>
<text text-anchor="middle" x="778.5" y="-610.8" font-family="Times,serif" font-size="14.00">roo_windows</text>
<text text-anchor="middle" x="778.5" y="-595.8" font-family="Times,serif" font-size="14.00">1.4.2</text>
</g>
<!-- roo_dashboard&#45;&gt;roo_windows -->
<g id="edge10" class="edge">
<title>roo_dashboard&#45;&gt;roo_windows</title>
<path fill="none" stroke="red" d="M816.44,-683.88C809.55,-670.09 799.95,-650.9 792.13,-635.26"/>
<polygon fill="red" stroke="red" points="795.14,-633.45 787.53,-626.07 788.88,-636.58 795.14,-633.45"/>
<text text-anchor="middle" x="838.5" y="-658" font-family="Times,serif" font-size="10.00" fill="red">1.4.1</text>
<text text-anchor="middle" x="838.5" y="-647" font-family="Times,serif" font-size="10.00" fill="red">(latest: 1.4.2)</text>
</g>
<!-- roo_display -->
<g id="node7" class="node">
<title>roo_display</title>
<polygon fill="khaki" stroke="red" points="824.5,-455 726.5,-455 726.5,-417 824.5,-417 824.5,-455"/>
<text text-anchor="middle" x="775.5" y="-439.8" font-family="Times,serif" font-size="14.00">roo_display</text>
<text text-anchor="middle" x="775.5" y="-424.8" font-family="Times,serif" font-size="14.00">3.0.2</text>
</g>
<!-- roo_display&#45;&gt;roo_collections -->
<g id="edge11" class="edge">
<title>roo_display&#45;&gt;roo_collections</title>
<path fill="none" stroke="black" d="M726.41,-423.45C697.56,-416.56 660.39,-407.52 627.5,-399 580.78,-386.9 528.48,-372.53 487.63,-361.12"/>
<polygon fill="black" stroke="black" points="488.34,-357.68 477.77,-358.36 486.46,-364.42 488.34,-357.68"/>
</g>
<!-- roo_display&#45;&gt;roo_io -->
<g id="edge12" class="edge">
<title>roo_display&#45;&gt;roo_io</title>
<path fill="none" stroke="red" d="M728.55,-416.99C682.53,-399.33 613.18,-372.72 569.93,-356.13"/>
<polygon fill="red" stroke="red" points="570.92,-352.76 560.33,-352.44 568.41,-359.29 570.92,-352.76"/>
<text text-anchor="middle" x="708.5" y="-391" font-family="Times,serif" font-size="10.00" fill="red">2.1.5</text>
<text text-anchor="middle" x="708.5" y="-380" font-family="Times,serif" font-size="10.00" fill="red">(latest: 2.1.6)</text>
</g>
<!-- roo_flags -->
<g id="node8" class="node">
<title>roo_flags</title>
<polygon fill="#b1dbab" stroke="black" points="449.5,-209 369.5,-209 369.5,-171 449.5,-171 449.5,-209"/>
<text text-anchor="middle" x="409.5" y="-193.8" font-family="Times,serif" font-size="14.00">roo_flags</text>
<text text-anchor="middle" x="409.5" y="-178.8" font-family="Times,serif" font-size="14.00">1.2.3</text>
</g>
<!-- roo_fonts_basic -->
<g id="node9" class="node">
<title>roo_fonts_basic</title>
<polygon fill="#b1dbab" stroke="black" points="1058.5,-530 932.5,-530 932.5,-492 1058.5,-492 1058.5,-530"/>
<text text-anchor="middle" x="995.5" y="-514.8" font-family="Times,serif" font-size="14.00">roo_fonts_basic</text>
<text text-anchor="middle" x="995.5" y="-499.8" font-family="Times,serif" font-size="14.00">1.0.2</text>
</g>
<!-- roo_fonts_basic&#45;&gt;roo_display -->
<g id="edge13" class="edge">
<title>roo_fonts_basic&#45;&gt;roo_display</title>
<path fill="none" stroke="black" d="M941.12,-491.96C908.69,-481.2 867.51,-467.53 834.33,-456.52"/>
<polygon fill="black" stroke="black" points="835.35,-453.17 824.75,-453.34 833.14,-459.81 835.35,-453.17"/>
</g>
<!-- roo_fonts_material -->
<g id="node10" class="node">
<title>roo_fonts_material</title>
<polygon fill="#b1dbab" stroke="black" points="809,-530 660,-530 660,-492 809,-492 809,-530"/>
<text text-anchor="middle" x="734.5" y="-514.8" font-family="Times,serif" font-size="14.00">roo_fonts_material</text>
<text text-anchor="middle" x="734.5" y="-499.8" font-family="Times,serif" font-size="14.00">1.0.0</text>
</g>
<!-- roo_fonts_material&#45;&gt;roo_display -->
<g id="edge14" class="edge">
<title>roo_fonts_material&#45;&gt;roo_display</title>
<path fill="none" stroke="black" d="M744.63,-491.96C749.37,-483.53 755.1,-473.33 760.33,-464.01"/>
<polygon fill="black" stroke="black" points="763.49,-465.52 765.34,-455.09 757.39,-462.1 763.49,-465.52"/>
</g>
<!-- roo_icons -->
<g id="node11" class="node">
<title>roo_icons</title>
<polygon fill="#b1dbab" stroke="black" points="1160,-530 1077,-530 1077,-492 1160,-492 1160,-530"/>
<text text-anchor="middle" x="1118.5" y="-514.8" font-family="Times,serif" font-size="14.00">roo_icons</text>
<text text-anchor="middle" x="1118.5" y="-499.8" font-family="Times,serif" font-size="14.00">1.2.2</text>
</g>
<!-- roo_icons&#45;&gt;roo_display -->
<g id="edge15" class="edge">
<title>roo_icons&#45;&gt;roo_display</title>
<path fill="none" stroke="black" d="M1076.91,-494.74C1073.75,-493.76 1070.58,-492.83 1067.5,-492 987.92,-470.6 893.94,-454.49 834.54,-445.4"/>
<polygon fill="black" stroke="black" points="834.99,-441.93 824.58,-443.89 833.94,-448.85 834.99,-441.93"/>
</g>
<!-- roo_io&#45;&gt;roo_logging -->
<g id="edge16" class="edge">
<title>roo_io&#45;&gt;roo_logging</title>
<path fill="none" stroke="black" d="M508.01,-320.96C496.52,-311.74 482.38,-300.4 469.94,-290.42"/>
<polygon fill="black" stroke="black" points="472.04,-287.62 462.05,-284.09 467.66,-293.08 472.04,-287.62"/>
</g>
<!-- roo_locale -->
<g id="node13" class="node">
<title>roo_locale</title>
<polygon fill="#b1dbab" stroke="black" points="914.5,-530 826.5,-530 826.5,-492 914.5,-492 914.5,-530"/>
<text text-anchor="middle" x="870.5" y="-514.8" font-family="Times,serif" font-size="14.00">roo_locale</text>
<text text-anchor="middle" x="870.5" y="-499.8" font-family="Times,serif" font-size="14.00">1.1.2</text>
</g>
<!-- roo_logging&#45;&gt;roo_backport -->
<g id="edge17" class="edge">
<title>roo_logging&#45;&gt;roo_backport</title>
<path fill="none" stroke="black" d="M460.02,-245.96C470.39,-236.83 483.14,-225.62 494.41,-215.7"/>
<polygon fill="black" stroke="black" points="496.73,-218.32 501.93,-209.09 492.11,-213.07 496.73,-218.32"/>
</g>
<!-- roo_logging&#45;&gt;roo_flags -->
<g id="edge18" class="edge">
<title>roo_logging&#45;&gt;roo_flags</title>
<path fill="none" stroke="black" d="M432.08,-245.96C428.69,-237.71 424.6,-227.75 420.84,-218.6"/>
<polygon fill="black" stroke="black" points="423.97,-217.01 416.93,-209.09 417.5,-219.67 423.97,-217.01"/>
</g>
<!-- roo_threads -->
<g id="node22" class="node">
<title>roo_threads</title>
<polygon fill="#b1dbab" stroke="red" points="351,-209 250,-209 250,-171 351,-171 351,-209"/>
<text text-anchor="middle" x="300.5" y="-193.8" font-family="Times,serif" font-size="14.00">roo_threads</text>
<text text-anchor="middle" x="300.5" y="-178.8" font-family="Times,serif" font-size="14.00">1.2.3</text>
</g>
<!-- roo_logging&#45;&gt;roo_threads -->
<g id="edge19" class="edge">
<title>roo_logging&#45;&gt;roo_threads</title>
<path fill="none" stroke="black" d="M405.14,-245.96C386.68,-236.26 363.73,-224.21 344.03,-213.86"/>
<polygon fill="black" stroke="black" points="345.43,-210.64 334.95,-209.09 342.17,-216.84 345.43,-210.64"/>
</g>
<!-- roo_monitoring -->
<g id="node15" class="node">
<title>roo_monitoring</title>
<polygon fill="#b1dbab" stroke="black" points="580,-455 455,-455 455,-417 580,-417 580,-455"/>
<text text-anchor="middle" x="517.5" y="-439.8" font-family="Times,serif" font-size="14.00">roo_monitoring</text>
<text text-anchor="middle" x="517.5" y="-424.8" font-family="Times,serif" font-size="14.00">1.1.1</text>
</g>
<!-- roo_monitoring&#45;&gt;roo_collections -->
<g id="edge20" class="edge">
<title>roo_monitoring&#45;&gt;roo_collections</title>
<path fill="none" stroke="black" d="M454.69,-417.58C445.59,-412.78 437.09,-406.7 430.5,-399 423.43,-390.74 419.8,-379.49 417.99,-369.11"/>
<polygon fill="black" stroke="black" points="421.45,-368.62 416.71,-359.15 414.51,-369.51 421.45,-368.62"/>
</g>
<!-- roo_monitoring&#45;&gt;roo_io -->
<g id="edge21" class="edge">
<title>roo_monitoring&#45;&gt;roo_io</title>
<path fill="none" stroke="black" d="M520.01,-416.88C521.88,-403.35 524.47,-384.62 526.61,-369.15"/>
<polygon fill="black" stroke="black" points="530.1,-369.45 528,-359.07 523.16,-368.49 530.1,-369.45"/>
</g>
<!-- roo_onewire -->
<g id="node16" class="node">
<title>roo_onewire</title>
<polygon fill="#b1dbab" stroke="black" points="219.5,-530 115.5,-530 115.5,-492 219.5,-492 219.5,-530"/>
<text text-anchor="middle" x="167.5" y="-514.8" font-family="Times,serif" font-size="14.00">roo_onewire</text>
<text text-anchor="middle" x="167.5" y="-499.8" font-family="Times,serif" font-size="14.00">2.0.9</text>
</g>
<!-- roo_onewire&#45;&gt;roo_quantity -->
<g id="edge23" class="edge">
<title>roo_onewire&#45;&gt;roo_quantity</title>
<path fill="none" stroke="black" d="M145.5,-491.96C134.37,-482.83 120.7,-471.62 108.62,-461.7"/>
<polygon fill="black" stroke="black" points="110.51,-458.73 100.56,-455.09 106.07,-464.14 110.51,-458.73"/>
</g>
<!-- roo_onewire&#45;&gt;roo_scheduler -->
<g id="edge22" class="edge">
<title>roo_onewire&#45;&gt;roo_scheduler</title>
<path fill="none" stroke="black" d="M187.03,-491.96C196.81,-482.92 208.81,-471.83 219.46,-461.99"/>
<polygon fill="black" stroke="black" points="221.95,-464.45 226.92,-455.09 217.2,-459.31 221.95,-464.45"/>
</g>
<!-- roo_powersafefs -->
<g id="node17" class="node">
<title>roo_powersafefs</title>
<polygon fill="khaki" stroke="black" points="371,-284 238,-284 238,-246 371,-246 371,-284"/>
<text text-anchor="middle" x="304.5" y="-268.8" font-family="Times,serif" font-size="14.00">roo_powersafefs</text>
<text text-anchor="middle" x="304.5" y="-253.8" font-family="Times,serif" font-size="14.00">1.0.1</text>
</g>
<!-- roo_powersafefs&#45;&gt;roo_threads -->
<g id="edge24" class="edge">
<title>roo_powersafefs&#45;&gt;roo_threads</title>
<path fill="none" stroke="black" d="M303.51,-245.96C303.07,-237.88 302.54,-228.18 302.04,-219.18"/>
<polygon fill="black" stroke="black" points="305.53,-218.88 301.49,-209.09 298.54,-219.27 305.53,-218.88"/>
</g>
<!-- roo_prefs -->
<g id="node18" class="node">
<title>roo_prefs</title>
<polygon fill="#b1dbab" stroke="black" points="539,-530 456,-530 456,-492 539,-492 539,-530"/>
<text text-anchor="middle" x="497.5" y="-514.8" font-family="Times,serif" font-size="14.00">roo_prefs</text>
<text text-anchor="middle" x="497.5" y="-499.8" font-family="Times,serif" font-size="14.00">1.2.10</text>
</g>
<!-- roo_prefs&#45;&gt;roo_logging -->
<g id="edge25" class="edge">
<title>roo_prefs&#45;&gt;roo_logging</title>
<path fill="none" stroke="black" d="M539.17,-493.34C569.62,-480.86 608.02,-464.37 622.5,-455 659.67,-430.93 708.04,-414.51 684.5,-377 644.61,-313.44 558.25,-285.94 499.49,-274.27"/>
<polygon fill="black" stroke="black" points="500.06,-270.82 489.58,-272.4 498.76,-277.69 500.06,-270.82"/>
</g>
<!-- roo_prefs&#45;&gt;roo_scheduler -->
<g id="edge26" class="edge">
<title>roo_prefs&#45;&gt;roo_scheduler</title>
<path fill="none" stroke="black" d="M455.96,-496.46C451.09,-494.93 446.19,-493.42 441.5,-492 399.46,-479.32 352.04,-465.93 314.5,-455.53"/>
<polygon fill="black" stroke="black" points="315.25,-452.11 304.68,-452.82 313.39,-458.86 315.25,-452.11"/>
</g>
<!-- roo_quantity&#45;&gt;roo_logging -->
<g id="edge27" class="edge">
<title>roo_quantity&#45;&gt;roo_logging</title>
<path fill="none" stroke="black" d="M81.97,-416.6C88.65,-386.83 106.36,-328.74 146.5,-302 187.44,-274.73 314.08,-291.51 379.03,-283.5"/>
<polygon fill="black" stroke="black" points="379.93,-286.9 389.28,-281.92 378.86,-279.98 379.93,-286.9"/>
</g>
<!-- roo_scheduler&#45;&gt;roo_collections -->
<g id="edge28" class="edge">
<title>roo_scheduler&#45;&gt;roo_collections</title>
<path fill="none" stroke="black" d="M279.28,-416.88C306.56,-401.79 345.56,-380.23 375.01,-363.94"/>
<polygon fill="black" stroke="black" points="376.77,-366.97 383.82,-359.07 373.38,-360.84 376.77,-366.97"/>
</g>
<!-- roo_scheduler&#45;&gt;roo_threads -->
<g id="edge29" class="edge">
<title>roo_scheduler&#45;&gt;roo_threads</title>
<path fill="none" stroke="black" d="M238.75,-416.93C224.98,-381.9 200.23,-303.17 228.5,-246 234.61,-233.64 244.98,-223.3 255.97,-215.04"/>
<polygon fill="black" stroke="black" points="258.24,-217.72 264.44,-209.13 254.24,-211.98 258.24,-217.72"/>
</g>
<!-- roo_testing -->
<g id="node21" class="node">
<title>roo_testing</title>
<polygon fill="#b1dbab" stroke="black" points="531,-38 434,-38 434,0 531,0 531,-38"/>
<text text-anchor="middle" x="482.5" y="-22.8" font-family="Times,serif" font-size="14.00">roo_testing</text>
<text text-anchor="middle" x="482.5" y="-7.8" font-family="Times,serif" font-size="14.00">1.3.4</text>
</g>
<!-- roo_time -->
<g id="node23" class="node">
<title>roo_time</title>
<polygon fill="#b1dbab" stroke="red" points="522,-134 443,-134 443,-96 522,-96 522,-134"/>
<text text-anchor="middle" x="482.5" y="-118.8" font-family="Times,serif" font-size="14.00">roo_time</text>
<text text-anchor="middle" x="482.5" y="-103.8" font-family="Times,serif" font-size="14.00">1.4.3</text>
</g>
<!-- roo_threads&#45;&gt;roo_time -->
<g id="edge30" class="edge">
<title>roo_threads&#45;&gt;roo_time</title>
<path fill="none" stroke="black" d="M345.49,-170.96C372.23,-160.23 406.17,-146.62 433.57,-135.62"/>
<polygon fill="black" stroke="black" points="435,-138.83 442.97,-131.85 432.39,-132.33 435,-138.83"/>
</g>
<!-- roo_time&#45;&gt;roo_testing -->
<g id="edge31" class="edge">
<title>roo_time&#45;&gt;roo_testing</title>
<path fill="none" stroke="red" d="M482.5,-95.88C482.5,-82.35 482.5,-63.62 482.5,-48.15"/>
<polygon fill="red" stroke="red" points="486,-48.07 482.5,-38.07 479,-48.07 486,-48.07"/>
<text text-anchor="middle" x="515.5" y="-70" font-family="Times,serif" font-size="10.00" fill="red">1.3.2</text>
<text text-anchor="middle" x="515.5" y="-59" font-family="Times,serif" font-size="10.00" fill="red">(latest: 1.3.4)</text>
</g>
<!-- roo_time_ds3231 -->
<g id="node24" class="node">
<title>roo_time_ds3231</title>
<polygon fill="#b1dbab" stroke="black" points="733.5,-209 595.5,-209 595.5,-171 733.5,-171 733.5,-209"/>
<text text-anchor="middle" x="664.5" y="-193.8" font-family="Times,serif" font-size="14.00">roo_time_ds3231</text>
<text text-anchor="middle" x="664.5" y="-178.8" font-family="Times,serif" font-size="14.00">1.1.6</text>
</g>
<!-- roo_time_ds3231&#45;&gt;roo_time -->
<g id="edge32" class="edge">
<title>roo_time_ds3231&#45;&gt;roo_time</title>
<path fill="none" stroke="black" d="M619.51,-170.96C592.77,-160.23 558.83,-146.62 531.43,-135.62"/>
<polygon fill="black" stroke="black" points="532.61,-132.33 522.03,-131.85 530,-138.83 532.61,-132.33"/>
</g>
<!-- roo_transceivers&#45;&gt;roo_prefs -->
<g id="edge33" class="edge">
<title>roo_transceivers&#45;&gt;roo_prefs</title>
<path fill="none" stroke="black" d="M560.93,-587.83C553.76,-576.05 543.75,-560.61 533.5,-548 530.66,-544.51 527.53,-540.99 524.34,-537.58"/>
<polygon fill="black" stroke="black" points="526.8,-535.1 517.32,-530.37 521.78,-539.98 526.8,-535.1"/>
</g>
<!-- roo_transport -->
<g id="node26" class="node">
<title>roo_transport</title>
<polygon fill="#b1dbab" stroke="red" points="436.5,-455 322.5,-455 322.5,-417 436.5,-417 436.5,-455"/>
<text text-anchor="middle" x="379.5" y="-439.8" font-family="Times,serif" font-size="14.00">roo_transport</text>
<text text-anchor="middle" x="379.5" y="-424.8" font-family="Times,serif" font-size="14.00">1.1.2</text>
</g>
<!-- roo_transport&#45;&gt;roo_collections -->
<g id="edge34" class="edge">
<title>roo_transport&#45;&gt;roo_collections</title>
<path fill="none" stroke="black" d="M386.63,-416.88C392.01,-403.22 399.47,-384.26 405.59,-368.71"/>
<polygon fill="black" stroke="black" points="408.98,-369.66 409.39,-359.07 402.47,-367.09 408.98,-369.66"/>
</g>
<!-- roo_transport&#45;&gt;roo_io -->
<g id="edge35" class="edge">
<title>roo_transport&#45;&gt;roo_io</title>
<path fill="none" stroke="red" d="M399.94,-416.91C414.3,-404.73 434.31,-388.79 453.5,-377 465.42,-369.67 479.08,-362.83 491.55,-357.13"/>
<polygon fill="red" stroke="red" points="493.1,-360.27 500.8,-353 490.24,-353.88 493.1,-360.27"/>
<text text-anchor="middle" x="486.5" y="-391" font-family="Times,serif" font-size="10.00" fill="red">2.1.5</text>
<text text-anchor="middle" x="486.5" y="-380" font-family="Times,serif" font-size="10.00" fill="red">(latest: 2.1.6)</text>
</g>
<!-- roo_wifi -->
<g id="node27" class="node">
<title>roo_wifi</title>
<polygon fill="khaki" stroke="red" points="485.5,-626 413.5,-626 413.5,-588 485.5,-588 485.5,-626"/>
<text text-anchor="middle" x="449.5" y="-610.8" font-family="Times,serif" font-size="14.00">roo_wifi</text>
<text text-anchor="middle" x="449.5" y="-595.8" font-family="Times,serif" font-size="14.00">1.1.4</text>
</g>
<!-- roo_wifi&#45;&gt;roo_prefs -->
<g id="edge36" class="edge">
<title>roo_wifi&#45;&gt;roo_prefs</title>
<path fill="none" stroke="red" d="M450.56,-587.83C451.89,-575.91 454.86,-560.31 461.5,-548 463.43,-544.43 465.82,-540.98 468.46,-537.72"/>
<polygon fill="red" stroke="red" points="471.26,-539.84 475.36,-530.07 466.06,-535.15 471.26,-539.84"/>
<text text-anchor="middle" x="497.5" y="-562" font-family="Times,serif" font-size="10.00" fill="red">1.2.9</text>
<text text-anchor="middle" x="497.5" y="-551" font-family="Times,serif" font-size="10.00" fill="red">(latest: 1.2.10)</text>
</g>
<!-- roo_windows&#45;&gt;roo_icons -->
<g id="edge38" class="edge">
<title>roo_windows&#45;&gt;roo_icons</title>
<path fill="none" stroke="red" d="M833.21,-593.03C889.5,-579.38 979.85,-556.57 1067.05,-530.02"/>
<polygon fill="red" stroke="red" points="1068.31,-533.29 1076.84,-527.02 1066.26,-526.6 1068.31,-533.29"/>
<text text-anchor="middle" x="1037.5" y="-562" font-family="Times,serif" font-size="10.00" fill="red">1.2.1</text>
<text text-anchor="middle" x="1037.5" y="-551" font-family="Times,serif" font-size="10.00" fill="red">(latest: 1.2.2)</text>
</g>
<!-- roo_windows&#45;&gt;roo_locale -->
<g id="edge37" class="edge">
<title>roo_windows&#45;&gt;roo_locale</title>
<path fill="none" stroke="red" d="M796.24,-587.88C810.24,-573.57 829.94,-553.44 845.53,-537.51"/>
<polygon fill="red" stroke="red" points="848.32,-539.66 852.82,-530.07 843.32,-534.77 848.32,-539.66"/>
<text text-anchor="middle" x="865.5" y="-562" font-family="Times,serif" font-size="10.00" fill="red">1.1.1</text>
<text text-anchor="middle" x="865.5" y="-551" font-family="Times,serif" font-size="10.00" fill="red">(latest: 1.1.2)</text>
</g>
<!-- roo_windows&#45;&gt;roo_scheduler -->
<g id="edge39" class="edge">
<title>roo_windows&#45;&gt;roo_scheduler</title>
<path fill="none" stroke="red" d="M723.64,-591.02C683.36,-578.5 628.42,-558.13 585.5,-530 565.53,-516.91 568.78,-502.84 547.5,-492 456.52,-445.66 418.79,-475.01 314.48,-455.01"/>
<polygon fill="red" stroke="red" points="315.01,-451.54 304.51,-452.99 313.62,-458.41 315.01,-451.54"/>
<text text-anchor="middle" x="618.5" y="-514" font-family="Times,serif" font-size="10.00" fill="red">2.1.6</text>
<text text-anchor="middle" x="618.5" y="-503" font-family="Times,serif" font-size="10.00" fill="red">(latest: 2.1.9)</text>
</g>
<!-- roo_windows_transceivers -->
<g id="node29" class="node">
<title>roo_windows_transceivers</title>
<polygon fill="khaki" stroke="black" points="746.5,-722 542.5,-722 542.5,-684 746.5,-684 746.5,-722"/>
<text text-anchor="middle" x="644.5" y="-706.8" font-family="Times,serif" font-size="14.00">roo_windows_transceivers</text>
<text text-anchor="middle" x="644.5" y="-691.8" font-family="Times,serif" font-size="14.00">1.0.0</text>
</g>
<!-- roo_windows_transceivers&#45;&gt;roo_transceivers -->
<g id="edge40" class="edge">
<title>roo_windows_transceivers&#45;&gt;roo_transceivers</title>
<path fill="none" stroke="black" d="M634.84,-683.99C628.13,-672.14 618.6,-656.56 608.5,-644 605.64,-640.45 602.46,-636.88 599.19,-633.46"/>
<polygon fill="black" stroke="black" points="601.54,-630.85 592,-626.22 596.57,-635.78 601.54,-630.85"/>
</g>
<!-- roo_windows_transceivers&#45;&gt;roo_windows -->
<g id="edge41" class="edge">
<title>roo_windows_transceivers&#45;&gt;roo_windows</title>
<path fill="none" stroke="black" d="M670.34,-683.88C691.38,-669.12 721.26,-648.15 744.29,-632"/>
<polygon fill="black" stroke="black" points="746.57,-634.68 752.74,-626.07 742.55,-628.95 746.57,-634.68"/>
</g>
<!-- roo_windows_wifi -->
<g id="node30" class="node">
<title>roo_windows_wifi</title>
<polygon fill="khaki" stroke="red" points="522,-722 381,-722 381,-684 522,-684 522,-722"/>
<text text-anchor="middle" x="451.5" y="-706.8" font-family="Times,serif" font-size="14.00">roo_windows_wifi</text>
<text text-anchor="middle" x="451.5" y="-691.8" font-family="Times,serif" font-size="14.00">1.1.3</text>
</g>
<!-- roo_windows_wifi&#45;&gt;roo_wifi -->
<g id="edge42" class="edge">
<title>roo_windows_wifi&#45;&gt;roo_wifi</title>
<path fill="none" stroke="red" d="M450.95,-683.69C450.8,-678.02 450.63,-671.75 450.5,-666 450.28,-656.27 450.08,-645.62 449.93,-636.13"/>
<polygon fill="red" stroke="red" points="453.42,-635.97 449.76,-626.03 446.42,-636.08 453.42,-635.97"/>
<text text-anchor="middle" x="483.5" y="-658" font-family="Times,serif" font-size="10.00" fill="red">1.1.3</text>
<text text-anchor="middle" x="483.5" y="-647" font-family="Times,serif" font-size="10.00" fill="red">(latest: 1.1.4)</text>
</g>
<!-- roo_windows_wifi&#45;&gt;roo_windows -->
<g id="edge43" class="edge">
<title>roo_windows_wifi&#45;&gt;roo_windows</title>
<path fill="none" stroke="black" d="M522.29,-686.12C554.82,-678.69 589.65,-670.5 605.5,-666 643.78,-655.14 686.14,-640.97 719.36,-629.36"/>
<polygon fill="black" stroke="black" points="720.65,-632.62 728.92,-626 718.33,-626.01 720.65,-632.62"/>
</g>
</g>
</svg>
