<?xml version="1.0" encoding="UTF-8" standalone="no"?>
<!DOCTYPE svg PUBLIC "-//W3C//DTD SVG 1.1//EN"
 "http://www.w3.org/Graphics/SVG/1.1/DTD/svg11.dtd">
<!-- Generated by graphviz version 2.42.4 (0)
 -->
<!-- Title: dependencies Pages: 1 -->
<svg width="1610pt" height="730pt"
 viewBox="0.00 0.00 1609.50 730.00" xmlns="http://www.w3.org/2000/svg" xmlns:xlink="http://www.w3.org/1999/xlink">
<g id="graph0" class="graph" transform="scale(1 1) rotate(0) translate(4 726)">
<title>dependencies</title>
<polygon fill="white" stroke="transparent" points="-4,4 -4,-726 1605.5,-726 1605.5,4 -4,4"/>
<!-- roo_backport -->
<g id="node1" class="node">
<title>roo_backport</title>
<polygon fill="#b1dbab" stroke="black" points="784,-38 674,-38 674,0 784,0 784,-38"/>
<text text-anchor="middle" x="729" y="-22.8" font-family="Times,serif" font-size="14.00">roo_backport</text>
<text text-anchor="middle" x="729" y="-7.8" font-family="Times,serif" font-size="14.00">1.2.4</text>
</g>
<!-- roo_blink -->
<g id="node2" class="node">
<title>roo_blink</title>
<polygon fill="khaki" stroke="red" points="82,-530 0,-530 0,-492 82,-492 82,-530"/>
<text text-anchor="middle" x="41" y="-514.8" font-family="Times,serif" font-size="14.00">roo_blink</text>
<text text-anchor="middle" x="41" y="-499.8" font-family="Times,serif" font-size="14.00">1.0.7</text>
</g>
<!-- roo_logging -->
<g id="node15" class="node">
<title>roo_logging</title>
<polygon fill="#b1dbab" stroke="black" points="534,-263 434,-263 434,-225 534,-225 534,-263"/>
<text text-anchor="middle" x="484" y="-247.8" font-family="Times,serif" font-size="14.00">roo_logging</text>
<text text-anchor="middle" x="484" y="-232.8" font-family="Times,serif" font-size="14.00">1.5.10</text>
</g>
<!-- roo_blink&#45;&gt;roo_logging -->
<g id="edge1" class="edge">
<title>roo_blink&#45;&gt;roo_logging</title>
<path fill="none" stroke="red" d="M32.86,-491.56C20.35,-460.1 0.93,-395.62 32,-356 80.05,-294.72 311.94,-262.8 423.63,-250.76"/>
<polygon fill="red" stroke="red" points="424.15,-254.22 433.73,-249.69 423.42,-247.26 424.15,-254.22"/>
<text text-anchor="middle" x="68" y="-370" font-family="Times,serif" font-size="10.00" fill="red">1.5.8</text>
<text text-anchor="middle" x="68" y="-359" font-family="Times,serif" font-size="10.00" fill="red">(latest: 1.5.10)</text>
</g>
<!-- roo_scheduler -->
<g id="node21" class="node">
<title>roo_scheduler</title>
<polygon fill="#b1dbab" stroke="black" points="819,-434 703,-434 703,-396 819,-396 819,-434"/>
<text text-anchor="middle" x="761" y="-418.8" font-family="Times,serif" font-size="14.00">roo_scheduler</text>
<text text-anchor="middle" x="761" y="-403.8" font-family="Times,serif" font-size="14.00">2.2.0</text>
</g>
<!-- roo_blink&#45;&gt;roo_scheduler -->
<g id="edge2" class="edge">
<title>roo_blink&#45;&gt;roo_scheduler</title>
<path fill="none" stroke="red" d="M82.22,-495.63C86.84,-494.29 91.5,-493.04 96,-492 222.34,-462.83 255.95,-464.67 385,-452 518.7,-438.87 556.44,-455.16 692.7,-434.01"/>
<polygon fill="red" stroke="red" points="693.36,-437.45 702.69,-432.42 692.26,-430.53 693.36,-437.45"/>
<text text-anchor="middle" x="418" y="-466" font-family="Times,serif" font-size="10.00" fill="red">2.1.10</text>
<text text-anchor="middle" x="418" y="-455" font-family="Times,serif" font-size="10.00" fill="red">(latest: 2.2.0)</text>
</g>
<!-- roo_collections -->
<g id="node3" class="node">
<title>roo_collections</title>
<polygon fill="#b1dbab" stroke="black" points="853,-338 731,-338 731,-300 853,-300 853,-338"/>
<text text-anchor="middle" x="792" y="-322.8" font-family="Times,serif" font-size="14.00">roo_collections</text>
<text text-anchor="middle" x="792" y="-307.8" font-family="Times,serif" font-size="14.00">1.4.7</text>
</g>
<!-- roo_collections&#45;&gt;roo_backport -->
<g id="edge4" class="edge">
<title>roo_collections&#45;&gt;roo_backport</title>
<path fill="none" stroke="black" d="M789.66,-299.73C787.98,-284.99 786,-263.69 786,-245 786,-245 786,-245 786,-93 786,-74.45 774.43,-57.8 761.71,-45.09"/>
<polygon fill="black" stroke="black" points="763.88,-42.33 754.17,-38.09 759.11,-47.46 763.88,-42.33"/>
</g>
<!-- roo_testing -->
<g id="node22" class="node">
<title>roo_testing</title>
<polygon fill="#b1dbab" stroke="black" points="905.5,-38 808.5,-38 808.5,0 905.5,0 905.5,-38"/>
<text text-anchor="middle" x="857" y="-22.8" font-family="Times,serif" font-size="14.00">roo_testing</text>
<text text-anchor="middle" x="857" y="-7.8" font-family="Times,serif" font-size="14.00">2.1.2</text>
</g>
<!-- roo_collections&#45;&gt;roo_testing -->
<g id="edge3" class="edge">
<title>roo_collections&#45;&gt;roo_testing</title>
<path fill="none" stroke="black" d="M812.62,-299.77C833.27,-279.41 862,-244.36 862,-207 862,-207 862,-207 862,-93 862,-78.27 860.97,-61.9 859.85,-48.4"/>
<polygon fill="black" stroke="black" points="863.32,-47.93 858.95,-38.28 856.35,-48.55 863.32,-47.93"/>
</g>
<!-- roo_comms -->
<g id="node4" class="node">
<title>roo_comms</title>
<polygon fill="khaki" stroke="red" points="232.5,-722 135.5,-722 135.5,-684 232.5,-684 232.5,-722"/>
<text text-anchor="middle" x="184" y="-706.8" font-family="Times,serif" font-size="14.00">roo_comms</text>
<text text-anchor="middle" x="184" y="-691.8" font-family="Times,serif" font-size="14.00">1.1.5</text>
</g>
<!-- roo_comms&#45;&gt;roo_blink -->
<g id="edge5" class="edge">
<title>roo_comms&#45;&gt;roo_blink</title>
<path fill="none" stroke="black" d="M135.39,-687.16C124,-681.9 112.68,-674.98 104,-666 69.77,-630.57 53.19,-574 45.93,-540.18"/>
<polygon fill="black" stroke="black" points="49.3,-539.17 43.89,-530.06 42.44,-540.55 49.3,-539.17"/>
</g>
<!-- roo_control -->
<g id="node5" class="node">
<title>roo_control</title>
<polygon fill="khaki" stroke="red" points="299.5,-530 202.5,-530 202.5,-492 299.5,-492 299.5,-530"/>
<text text-anchor="middle" x="251" y="-514.8" font-family="Times,serif" font-size="14.00">roo_control</text>
<text text-anchor="middle" x="251" y="-499.8" font-family="Times,serif" font-size="14.00">1.2.6</text>
</g>
<!-- roo_comms&#45;&gt;roo_control -->
<g id="edge6" class="edge">
<title>roo_comms&#45;&gt;roo_control</title>
<path fill="none" stroke="black" d="M190.42,-683.78C202.21,-650.37 227.33,-579.13 241.24,-539.69"/>
<polygon fill="black" stroke="black" points="244.57,-540.76 244.6,-530.16 237.97,-538.43 244.57,-540.76"/>
</g>
<!-- roo_io -->
<g id="node13" class="node">
<title>roo_io</title>
<polygon fill="#b1dbab" stroke="black" points="513.5,-338 454.5,-338 454.5,-300 513.5,-300 513.5,-338"/>
<text text-anchor="middle" x="484" y="-322.8" font-family="Times,serif" font-size="14.00">roo_io</text>
<text text-anchor="middle" x="484" y="-307.8" font-family="Times,serif" font-size="14.00">2.3.0</text>
</g>
<!-- roo_comms&#45;&gt;roo_io -->
<g id="edge7" class="edge">
<title>roo_comms&#45;&gt;roo_io</title>
<path fill="none" stroke="red" d="M160.92,-683.75C141.88,-666.49 118,-638.71 118,-608 118,-608 118,-608 118,-414 118,-402.37 126.63,-401.28 137,-396 259.73,-333.49 313.02,-381.27 444.84,-339.12"/>
<polygon fill="red" stroke="red" points="446.08,-342.4 454.47,-335.93 443.88,-335.75 446.08,-342.4"/>
<text text-anchor="middle" x="151" y="-514" font-family="Times,serif" font-size="10.00" fill="red">2.2.7</text>
<text text-anchor="middle" x="151" y="-503" font-family="Times,serif" font-size="10.00" fill="red">(latest: 2.3.0)</text>
</g>
<!-- roo_transceivers -->
<g id="node26" class="node">
<title>roo_transceivers</title>
<polygon fill="khaki" stroke="red" points="757.5,-626 622.5,-626 622.5,-588 757.5,-588 757.5,-626"/>
<text text-anchor="middle" x="690" y="-610.8" font-family="Times,serif" font-size="14.00">roo_transceivers</text>
<text text-anchor="middle" x="690" y="-595.8" font-family="Times,serif" font-size="14.00">1.1.7</text>
</g>
<!-- roo_comms&#45;&gt;roo_transceivers -->
<g id="edge8" class="edge">
<title>roo_comms&#45;&gt;roo_transceivers</title>
<path fill="none" stroke="black" d="M232.52,-692.99C320.34,-676.67 506.35,-642.12 612.14,-622.46"/>
<polygon fill="black" stroke="black" points="612.93,-625.88 622.13,-620.61 611.65,-618.99 612.93,-625.88"/>
</g>
<!-- roo_quantity -->
<g id="node20" class="node">
<title>roo_quantity</title>
<polygon fill="khaki" stroke="red" points="253.5,-434 146.5,-434 146.5,-396 253.5,-396 253.5,-434"/>
<text text-anchor="middle" x="200" y="-418.8" font-family="Times,serif" font-size="14.00">roo_quantity</text>
<text text-anchor="middle" x="200" y="-403.8" font-family="Times,serif" font-size="14.00">1.1.9</text>
</g>
<!-- roo_control&#45;&gt;roo_quantity -->
<g id="edge9" class="edge">
<title>roo_control&#45;&gt;roo_quantity</title>
<path fill="none" stroke="black" d="M241.17,-491.88C233.69,-478.09 223.27,-458.9 214.79,-443.26"/>
<polygon fill="black" stroke="black" points="217.65,-441.19 209.8,-434.07 211.5,-444.53 217.65,-441.19"/>
</g>
<!-- roo_control&#45;&gt;roo_scheduler -->
<g id="edge10" class="edge">
<title>roo_control&#45;&gt;roo_scheduler</title>
<path fill="none" stroke="red" d="M299.76,-501.23C364.28,-489.69 481.6,-468.86 582,-452 628.81,-444.14 643.05,-444.48 693.19,-434.06"/>
<polygon fill="red" stroke="red" points="693.93,-437.48 702.98,-431.98 692.48,-430.63 693.93,-437.48"/>
<text text-anchor="middle" x="615" y="-466" font-family="Times,serif" font-size="10.00" fill="red">2.1.10</text>
<text text-anchor="middle" x="615" y="-455" font-family="Times,serif" font-size="10.00" fill="red">(latest: 2.2.0)</text>
</g>
<!-- roo_dashboard -->
<g id="node6" class="node">
<title>roo_dashboard</title>
<polygon fill="khaki" stroke="red" points="1088,-722 966,-722 966,-684 1088,-684 1088,-722"/>
<text text-anchor="middle" x="1027" y="-706.8" font-family="Times,serif" font-size="14.00">roo_dashboard</text>
<text text-anchor="middle" x="1027" y="-691.8" font-family="Times,serif" font-size="14.00">1.0.1</text>
</g>
<!-- roo_windows -->
<g id="node29" class="node">
<title>roo_windows</title>
<polygon fill="khaki" stroke="red" points="1065.5,-626 956.5,-626 956.5,-588 1065.5,-588 1065.5,-626"/>
<text text-anchor="middle" x="1011" y="-610.8" font-family="Times,serif" font-size="14.00">roo_windows</text>
<text text-anchor="middle" x="1011" y="-595.8" font-family="Times,serif" font-size="14.00">1.6.1</text>
</g>
<!-- roo_dashboard&#45;&gt;roo_windows -->
<g id="edge11" class="edge">
<title>roo_dashboard&#45;&gt;roo_windows</title>
<path fill="none" stroke="red" d="M1023.92,-683.88C1021.61,-670.35 1018.42,-651.62 1015.79,-636.15"/>
<polygon fill="red" stroke="red" points="1019.2,-635.34 1014.08,-626.07 1012.3,-636.51 1019.2,-635.34"/>
<text text-anchor="middle" x="1053" y="-658" font-family="Times,serif" font-size="10.00" fill="red">1.4.1</text>
<text text-anchor="middle" x="1053" y="-647" font-family="Times,serif" font-size="10.00" fill="red">(latest: 1.6.1)</text>
</g>
<!-- roo_display -->
<g id="node7" class="node">
<title>roo_display</title>
<polygon fill="#b1dbab" stroke="black" points="1226,-434 1128,-434 1128,-396 1226,-396 1226,-434"/>
<text text-anchor="middle" x="1177" y="-418.8" font-family="Times,serif" font-size="14.00">roo_display</text>
<text text-anchor="middle" x="1177" y="-403.8" font-family="Times,serif" font-size="14.00">3.3.0</text>
</g>
<!-- roo_display&#45;&gt;roo_collections -->
<g id="edge12" class="edge">
<title>roo_display&#45;&gt;roo_collections</title>
<path fill="none" stroke="black" d="M1127.85,-402C1060.82,-385.63 940.29,-356.21 863.33,-337.41"/>
<polygon fill="black" stroke="black" points="863.77,-333.92 853.23,-334.95 862.11,-340.72 863.77,-333.92"/>
</g>
<!-- roo_display&#45;&gt;roo_io -->
<g id="edge13" class="edge">
<title>roo_display&#45;&gt;roo_io</title>
<path fill="none" stroke="black" d="M1127.85,-411.32C990.25,-403.78 610.36,-382.59 598,-378 582.83,-372.37 583,-364.11 569,-356 554.55,-347.63 537.79,-340.12 522.98,-334.14"/>
<polygon fill="black" stroke="black" points="524.17,-330.85 513.58,-330.44 521.61,-337.36 524.17,-330.85"/>
</g>
<!-- roo_display_lvgl -->
<g id="node8" class="node">
<title>roo_display_lvgl</title>
<polygon fill="khaki" stroke="red" points="1188.5,-530 1057.5,-530 1057.5,-492 1188.5,-492 1188.5,-530"/>
<text text-anchor="middle" x="1123" y="-514.8" font-family="Times,serif" font-size="14.00">roo_display_lvgl</text>
<text text-anchor="middle" x="1123" y="-499.8" font-family="Times,serif" font-size="14.00">1.0.0</text>
</g>
<!-- roo_display_lvgl&#45;&gt;roo_display -->
<g id="edge14" class="edge">
<title>roo_display_lvgl&#45;&gt;roo_display</title>
<path fill="none" stroke="red" d="M1126.69,-491.84C1129.65,-479.93 1134.54,-464.33 1142,-452 1144.18,-448.39 1146.79,-444.86 1149.58,-441.51"/>
<polygon fill="red" stroke="red" points="1152.21,-443.82 1156.33,-434.06 1147.02,-439.12 1152.21,-443.82"/>
<text text-anchor="middle" x="1175" y="-466" font-family="Times,serif" font-size="10.00" fill="red">3.0.3</text>
<text text-anchor="middle" x="1175" y="-455" font-family="Times,serif" font-size="10.00" fill="red">(latest: 3.3.0)</text>
</g>
<!-- roo_flags -->
<g id="node9" class="node">
<title>roo_flags</title>
<polygon fill="#b1dbab" stroke="black" points="524,-188 444,-188 444,-150 524,-150 524,-188"/>
<text text-anchor="middle" x="484" y="-172.8" font-family="Times,serif" font-size="14.00">roo_flags</text>
<text text-anchor="middle" x="484" y="-157.8" font-family="Times,serif" font-size="14.00">1.2.5</text>
</g>
<!-- roo_fonts_basic -->
<g id="node10" class="node">
<title>roo_fonts_basic</title>
<polygon fill="khaki" stroke="red" points="1434,-530 1308,-530 1308,-492 1434,-492 1434,-530"/>
<text text-anchor="middle" x="1371" y="-514.8" font-family="Times,serif" font-size="14.00">roo_fonts_basic</text>
<text text-anchor="middle" x="1371" y="-499.8" font-family="Times,serif" font-size="14.00">1.0.4</text>
</g>
<!-- roo_fonts_basic&#45;&gt;roo_display -->
<g id="edge15" class="edge">
<title>roo_fonts_basic&#45;&gt;roo_display</title>
<path fill="none" stroke="red" d="M1350.76,-491.93C1335.72,-479.28 1314.21,-462.78 1293,-452 1275.15,-442.93 1254.58,-435.64 1235.77,-430.05"/>
<polygon fill="red" stroke="red" points="1236.7,-426.67 1226.12,-427.28 1234.77,-433.4 1236.7,-426.67"/>
<text text-anchor="middle" x="1359" y="-466" font-family="Times,serif" font-size="10.00" fill="red">3.2.2</text>
<text text-anchor="middle" x="1359" y="-455" font-family="Times,serif" font-size="10.00" fill="red">(latest: 3.3.0)</text>
</g>
<!-- roo_fonts_material -->
<g id="node11" class="node">
<title>roo_fonts_material</title>
<polygon fill="khaki" stroke="red" points="1601.5,-530 1452.5,-530 1452.5,-492 1601.5,-492 1601.5,-530"/>
<text text-anchor="middle" x="1527" y="-514.8" font-family="Times,serif" font-size="14.00">roo_fonts_material</text>
<text text-anchor="middle" x="1527" y="-499.8" font-family="Times,serif" font-size="14.00">1.1.1</text>
</g>
<!-- roo_fonts_material&#45;&gt;roo_display -->
<g id="edge16" class="edge">
<title>roo_fonts_material&#45;&gt;roo_display</title>
<path fill="none" stroke="red" d="M1492.61,-491.88C1466.71,-478.95 1429.96,-462.13 1396,-452 1343.08,-436.21 1280.76,-426.82 1236.16,-421.61"/>
<polygon fill="red" stroke="red" points="1236.41,-418.11 1226.08,-420.47 1235.62,-425.07 1236.41,-418.11"/>
<text text-anchor="middle" x="1484" y="-466" font-family="Times,serif" font-size="10.00" fill="red">3.2.2</text>
<text text-anchor="middle" x="1484" y="-455" font-family="Times,serif" font-size="10.00" fill="red">(latest: 3.3.0)</text>
</g>
<!-- roo_icons -->
<g id="node12" class="node">
<title>roo_icons</title>
<polygon fill="khaki" stroke="red" points="1289.5,-530 1206.5,-530 1206.5,-492 1289.5,-492 1289.5,-530"/>
<text text-anchor="middle" x="1248" y="-514.8" font-family="Times,serif" font-size="14.00">roo_icons</text>
<text text-anchor="middle" x="1248" y="-499.8" font-family="Times,serif" font-size="14.00">1.2.4</text>
</g>
<!-- roo_icons&#45;&gt;roo_display -->
<g id="edge17" class="edge">
<title>roo_icons&#45;&gt;roo_display</title>
<path fill="none" stroke="red" d="M1236.23,-491.88C1228.5,-480.26 1218.01,-464.98 1208,-452 1205.52,-448.79 1202.85,-445.48 1200.15,-442.23"/>
<polygon fill="red" stroke="red" points="1202.62,-439.73 1193.48,-434.37 1197.28,-444.26 1202.62,-439.73"/>
<text text-anchor="middle" x="1256" y="-466" font-family="Times,serif" font-size="10.00" fill="red">3.2.2</text>
<text text-anchor="middle" x="1256" y="-455" font-family="Times,serif" font-size="10.00" fill="red">(latest: 3.3.0)</text>
</g>
<!-- roo_io&#45;&gt;roo_logging -->
<g id="edge18" class="edge">
<title>roo_io&#45;&gt;roo_logging</title>
<path fill="none" stroke="black" d="M484,-299.96C484,-291.88 484,-282.18 484,-273.18"/>
<polygon fill="black" stroke="black" points="487.5,-273.09 484,-263.09 480.5,-273.09 487.5,-273.09"/>
</g>
<!-- roo_locale -->
<g id="node14" class="node">
<title>roo_locale</title>
<polygon fill="#b1dbab" stroke="black" points="1039,-530 951,-530 951,-492 1039,-492 1039,-530"/>
<text text-anchor="middle" x="995" y="-514.8" font-family="Times,serif" font-size="14.00">roo_locale</text>
<text text-anchor="middle" x="995" y="-499.8" font-family="Times,serif" font-size="14.00">1.1.4</text>
</g>
<!-- roo_logging&#45;&gt;roo_flags -->
<g id="edge19" class="edge">
<title>roo_logging&#45;&gt;roo_flags</title>
<path fill="none" stroke="black" d="M484,-224.96C484,-216.88 484,-207.18 484,-198.18"/>
<polygon fill="black" stroke="black" points="487.5,-198.09 484,-188.09 480.5,-198.09 487.5,-198.09"/>
</g>
<!-- roo_threads -->
<g id="node23" class="node">
<title>roo_threads</title>
<polygon fill="#b1dbab" stroke="black" points="749.5,-188 648.5,-188 648.5,-150 749.5,-150 749.5,-188"/>
<text text-anchor="middle" x="699" y="-172.8" font-family="Times,serif" font-size="14.00">roo_threads</text>
<text text-anchor="middle" x="699" y="-157.8" font-family="Times,serif" font-size="14.00">1.2.8</text>
</g>
<!-- roo_logging&#45;&gt;roo_threads -->
<g id="edge20" class="edge">
<title>roo_logging&#45;&gt;roo_threads</title>
<path fill="none" stroke="black" d="M534.14,-225.98C565.42,-215.36 605.87,-201.62 638.87,-190.42"/>
<polygon fill="black" stroke="black" points="640.07,-193.71 648.41,-187.18 637.82,-187.08 640.07,-193.71"/>
</g>
<!-- roo_monitoring -->
<g id="node16" class="node">
<title>roo_monitoring</title>
<polygon fill="khaki" stroke="red" points="396.5,-434 271.5,-434 271.5,-396 396.5,-396 396.5,-434"/>
<text text-anchor="middle" x="334" y="-418.8" font-family="Times,serif" font-size="14.00">roo_monitoring</text>
<text text-anchor="middle" x="334" y="-403.8" font-family="Times,serif" font-size="14.00">1.1.3</text>
</g>
<!-- roo_monitoring&#45;&gt;roo_collections -->
<g id="edge21" class="edge">
<title>roo_monitoring&#45;&gt;roo_collections</title>
<path fill="none" stroke="red" d="M396.78,-398.11C399.9,-397.38 402.98,-396.67 406,-396 515.41,-371.57 643.19,-347.23 720.82,-332.9"/>
<polygon fill="red" stroke="red" points="721.76,-336.28 730.96,-331.03 720.49,-329.4 721.76,-336.28"/>
<text text-anchor="middle" x="629" y="-370" font-family="Times,serif" font-size="10.00" fill="red">1.4.6</text>
<text text-anchor="middle" x="629" y="-359" font-family="Times,serif" font-size="10.00" fill="red">(latest: 1.4.7)</text>
</g>
<!-- roo_monitoring&#45;&gt;roo_io -->
<g id="edge22" class="edge">
<title>roo_monitoring&#45;&gt;roo_io</title>
<path fill="none" stroke="red" d="M357.15,-395.77C372.79,-383.82 394.12,-368.22 414,-356 423.8,-349.97 434.73,-344.02 444.99,-338.73"/>
<polygon fill="red" stroke="red" points="446.82,-341.73 454.16,-334.09 443.66,-335.48 446.82,-341.73"/>
<text text-anchor="middle" x="447" y="-370" font-family="Times,serif" font-size="10.00" fill="red">2.2.7</text>
<text text-anchor="middle" x="447" y="-359" font-family="Times,serif" font-size="10.00" fill="red">(latest: 2.3.0)</text>
</g>
<!-- roo_onewire -->
<g id="node17" class="node">
<title>roo_onewire</title>
<polygon fill="khaki" stroke="red" points="646,-530 542,-530 542,-492 646,-492 646,-530"/>
<text text-anchor="middle" x="594" y="-514.8" font-family="Times,serif" font-size="14.00">roo_onewire</text>
<text text-anchor="middle" x="594" y="-499.8" font-family="Times,serif" font-size="14.00">2.0.10</text>
</g>
<!-- roo_onewire&#45;&gt;roo_quantity -->
<g id="edge24" class="edge">
<title>roo_onewire&#45;&gt;roo_quantity</title>
<path fill="none" stroke="black" d="M584.74,-491.88C576.74,-478.32 563.82,-460.68 547,-452 493.14,-424.2 339.22,-443.04 263.71,-433.83"/>
<polygon fill="black" stroke="black" points="264,-430.34 253.6,-432.34 262.98,-437.26 264,-430.34"/>
</g>
<!-- roo_onewire&#45;&gt;roo_scheduler -->
<g id="edge23" class="edge">
<title>roo_onewire&#45;&gt;roo_scheduler</title>
<path fill="none" stroke="red" d="M622.31,-491.85C641.01,-480.08 666.18,-464.64 689,-452 697.08,-447.52 705.79,-442.96 714.26,-438.65"/>
<polygon fill="red" stroke="red" points="715.96,-441.71 723.32,-434.09 712.81,-435.46 715.96,-441.71"/>
<text text-anchor="middle" x="722" y="-466" font-family="Times,serif" font-size="10.00" fill="red">2.1.10</text>
<text text-anchor="middle" x="722" y="-455" font-family="Times,serif" font-size="10.00" fill="red">(latest: 2.2.0)</text>
</g>
<!-- roo_powersafefs -->
<g id="node18" class="node">
<title>roo_powersafefs</title>
<polygon fill="#b1dbab" stroke="black" points="757.5,-263 624.5,-263 624.5,-225 757.5,-225 757.5,-263"/>
<text text-anchor="middle" x="691" y="-247.8" font-family="Times,serif" font-size="14.00">roo_powersafefs</text>
<text text-anchor="middle" x="691" y="-232.8" font-family="Times,serif" font-size="14.00">1.0.2</text>
</g>
<!-- roo_powersafefs&#45;&gt;roo_threads -->
<g id="edge25" class="edge">
<title>roo_powersafefs&#45;&gt;roo_threads</title>
<path fill="none" stroke="black" d="M692.98,-224.96C693.86,-216.88 694.93,-207.18 695.91,-198.18"/>
<polygon fill="black" stroke="black" points="699.41,-198.41 697.02,-188.09 692.45,-197.65 699.41,-198.41"/>
</g>
<!-- roo_prefs -->
<g id="node19" class="node">
<title>roo_prefs</title>
<polygon fill="khaki" stroke="red" points="816.5,-530 733.5,-530 733.5,-492 816.5,-492 816.5,-530"/>
<text text-anchor="middle" x="775" y="-514.8" font-family="Times,serif" font-size="14.00">roo_prefs</text>
<text text-anchor="middle" x="775" y="-499.8" font-family="Times,serif" font-size="14.00">1.3.1</text>
</g>
<!-- roo_prefs&#45;&gt;roo_logging -->
<g id="edge26" class="edge">
<title>roo_prefs&#45;&gt;roo_logging</title>
<path fill="none" stroke="red" d="M811.97,-491.91C818.42,-487.02 824.25,-481.08 828,-474 844.23,-443.36 846.96,-425.02 828,-396 811.36,-370.52 636.13,-301.93 542.4,-266.63"/>
<polygon fill="red" stroke="red" points="543.36,-263.25 532.77,-263.01 540.9,-269.81 543.36,-263.25"/>
<text text-anchor="middle" x="839" y="-370" font-family="Times,serif" font-size="10.00" fill="red">1.5.8</text>
<text text-anchor="middle" x="839" y="-359" font-family="Times,serif" font-size="10.00" fill="red">(latest: 1.5.10)</text>
</g>
<!-- roo_prefs&#45;&gt;roo_scheduler -->
<g id="edge27" class="edge">
<title>roo_prefs&#45;&gt;roo_scheduler</title>
<path fill="none" stroke="red" d="M767.06,-491.64C765.01,-486.08 763.08,-479.88 762,-474 760.24,-464.43 759.67,-453.82 759.63,-444.32"/>
<polygon fill="red" stroke="red" points="763.14,-444.23 759.79,-434.18 756.14,-444.12 763.14,-444.23"/>
<text text-anchor="middle" x="795" y="-466" font-family="Times,serif" font-size="10.00" fill="red">2.1.10</text>
<text text-anchor="middle" x="795" y="-455" font-family="Times,serif" font-size="10.00" fill="red">(latest: 2.2.0)</text>
</g>
<!-- roo_quantity&#45;&gt;roo_logging -->
<g id="edge28" class="edge">
<title>roo_quantity&#45;&gt;roo_logging</title>
<path fill="none" stroke="red" d="M225.17,-396C258.31,-372.63 318.73,-331.17 373,-300 393.04,-288.49 415.82,-276.95 435.51,-267.43"/>
<polygon fill="red" stroke="red" points="437.1,-270.55 444.6,-263.07 434.07,-264.24 437.1,-270.55"/>
<text text-anchor="middle" x="409" y="-322" font-family="Times,serif" font-size="10.00" fill="red">1.5.8</text>
<text text-anchor="middle" x="409" y="-311" font-family="Times,serif" font-size="10.00" fill="red">(latest: 1.5.10)</text>
</g>
<!-- roo_scheduler&#45;&gt;roo_collections -->
<g id="edge29" class="edge">
<title>roo_scheduler&#45;&gt;roo_collections</title>
<path fill="none" stroke="black" d="M764.36,-395.96C766.76,-384.37 770.38,-369.09 775,-356 776.02,-353.1 777.21,-350.11 778.46,-347.16"/>
<polygon fill="black" stroke="black" points="781.67,-348.56 782.61,-338.01 775.29,-345.67 781.67,-348.56"/>
</g>
<!-- roo_scheduler&#45;&gt;roo_threads -->
<g id="edge30" class="edge">
<title>roo_scheduler&#45;&gt;roo_threads</title>
<path fill="none" stroke="black" d="M819.06,-407.64C837.4,-402.57 855.79,-393.64 867,-378 875.22,-366.52 875.48,-325.08 862,-300 835.98,-251.6 783.49,-214.88 745.08,-193.01"/>
<polygon fill="black" stroke="black" points="746.57,-189.84 736.13,-188.04 743.17,-195.96 746.57,-189.84"/>
</g>
<!-- roo_time -->
<g id="node24" class="node">
<title>roo_time</title>
<polygon fill="#b1dbab" stroke="black" points="757.5,-113 678.5,-113 678.5,-75 757.5,-75 757.5,-113"/>
<text text-anchor="middle" x="718" y="-97.8" font-family="Times,serif" font-size="14.00">roo_time</text>
<text text-anchor="middle" x="718" y="-82.8" font-family="Times,serif" font-size="14.00">2.0.0</text>
</g>
<!-- roo_threads&#45;&gt;roo_time -->
<g id="edge31" class="edge">
<title>roo_threads&#45;&gt;roo_time</title>
<path fill="none" stroke="black" d="M703.7,-149.96C705.82,-141.8 708.38,-131.97 710.74,-122.89"/>
<polygon fill="black" stroke="black" points="714.16,-123.65 713.29,-113.09 707.39,-121.89 714.16,-123.65"/>
</g>
<!-- roo_time&#45;&gt;roo_backport -->
<g id="edge33" class="edge">
<title>roo_time&#45;&gt;roo_backport</title>
<path fill="none" stroke="black" d="M720.72,-74.96C721.94,-66.88 723.4,-57.18 724.75,-48.18"/>
<polygon fill="black" stroke="black" points="728.24,-48.5 726.27,-38.09 721.32,-47.46 728.24,-48.5"/>
</g>
<!-- roo_time&#45;&gt;roo_testing -->
<g id="edge32" class="edge">
<title>roo_time&#45;&gt;roo_testing</title>
<path fill="none" stroke="black" d="M752.36,-74.96C770.82,-65.26 793.77,-53.21 813.47,-42.86"/>
<polygon fill="black" stroke="black" points="815.33,-45.84 822.55,-38.09 812.07,-39.64 815.33,-45.84"/>
</g>
<!-- roo_time_ds3231 -->
<g id="node25" class="node">
<title>roo_time_ds3231</title>
<polygon fill="#b1dbab" stroke="black" points="553,-434 415,-434 415,-396 553,-396 553,-434"/>
<text text-anchor="middle" x="484" y="-418.8" font-family="Times,serif" font-size="14.00">roo_time_ds3231</text>
<text text-anchor="middle" x="484" y="-403.8" font-family="Times,serif" font-size="14.00">2.0.0</text>
</g>
<!-- roo_time_ds3231&#45;&gt;roo_io -->
<g id="edge34" class="edge">
<title>roo_time_ds3231&#45;&gt;roo_io</title>
<path fill="none" stroke="black" d="M484,-395.88C484,-382.35 484,-363.62 484,-348.15"/>
<polygon fill="black" stroke="black" points="487.5,-348.07 484,-338.07 480.5,-348.07 487.5,-348.07"/>
</g>
<!-- roo_transceivers&#45;&gt;roo_prefs -->
<g id="edge35" class="edge">
<title>roo_transceivers&#45;&gt;roo_prefs</title>
<path fill="none" stroke="black" d="M706.39,-587.88C719.32,-573.57 737.53,-553.44 751.93,-537.51"/>
<polygon fill="black" stroke="black" points="754.55,-539.83 758.66,-530.07 749.36,-535.14 754.55,-539.83"/>
</g>
<!-- roo_transport -->
<g id="node27" class="node">
<title>roo_transport</title>
<polygon fill="#b1dbab" stroke="black" points="685,-434 571,-434 571,-396 685,-396 685,-434"/>
<text text-anchor="middle" x="628" y="-418.8" font-family="Times,serif" font-size="14.00">roo_transport</text>
<text text-anchor="middle" x="628" y="-403.8" font-family="Times,serif" font-size="14.00">1.2.0</text>
</g>
<!-- roo_transport&#45;&gt;roo_collections -->
<g id="edge36" class="edge">
<title>roo_transport&#45;&gt;roo_collections</title>
<path fill="none" stroke="black" d="M672.89,-395.88C684.85,-390.56 697.61,-384.43 709,-378 726.66,-368.03 745.26,-355.27 760.36,-344.25"/>
<polygon fill="black" stroke="black" points="762.85,-346.76 768.82,-338.01 758.69,-341.13 762.85,-346.76"/>
</g>
<!-- roo_transport&#45;&gt;roo_io -->
<g id="edge37" class="edge">
<title>roo_transport&#45;&gt;roo_io</title>
<path fill="none" stroke="black" d="M598.36,-395.9C589.22,-390.24 579.15,-383.92 570,-378 552.91,-366.94 534.14,-354.33 518.51,-343.71"/>
<polygon fill="black" stroke="black" points="520.41,-340.77 510.18,-338.03 516.47,-346.55 520.41,-340.77"/>
</g>
<!-- roo_wifi -->
<g id="node28" class="node">
<title>roo_wifi</title>
<polygon fill="khaki" stroke="red" points="853,-626 781,-626 781,-588 853,-588 853,-626"/>
<text text-anchor="middle" x="817" y="-610.8" font-family="Times,serif" font-size="14.00">roo_wifi</text>
<text text-anchor="middle" x="817" y="-595.8" font-family="Times,serif" font-size="14.00">1.1.5</text>
</g>
<!-- roo_wifi&#45;&gt;roo_prefs -->
<g id="edge38" class="edge">
<title>roo_wifi&#45;&gt;roo_prefs</title>
<path fill="none" stroke="black" d="M808.9,-587.88C802.74,-574.09 794.17,-554.9 787.18,-539.26"/>
<polygon fill="black" stroke="black" points="790.35,-537.77 783.07,-530.07 783.96,-540.63 790.35,-537.77"/>
</g>
<!-- roo_windows&#45;&gt;roo_fonts_basic -->
<g id="edge39" class="edge">
<title>roo_windows&#45;&gt;roo_fonts_basic</title>
<path fill="none" stroke="black" d="M1065.68,-591.72C1127.73,-575.52 1229.24,-549.02 1298.01,-531.06"/>
<polygon fill="black" stroke="black" points="1299.12,-534.38 1307.92,-528.47 1297.36,-527.61 1299.12,-534.38"/>
</g>
<!-- roo_windows&#45;&gt;roo_fonts_material -->
<g id="edge40" class="edge">
<title>roo_windows&#45;&gt;roo_fonts_material</title>
<path fill="none" stroke="black" d="M1065.68,-597.05C1145.85,-583.77 1300.26,-557.65 1442.18,-530.12"/>
<polygon fill="black" stroke="black" points="1443.23,-533.49 1452.37,-528.14 1441.89,-526.62 1443.23,-533.49"/>
</g>
<!-- roo_windows&#45;&gt;roo_icons -->
<g id="edge42" class="edge">
<title>roo_windows&#45;&gt;roo_icons</title>
<path fill="none" stroke="black" d="M1056.42,-587.99C1096.57,-572.06 1155.09,-548.85 1196.87,-532.28"/>
<polygon fill="black" stroke="black" points="1198.31,-535.47 1206.31,-528.53 1195.73,-528.97 1198.31,-535.47"/>
</g>
<!-- roo_windows&#45;&gt;roo_locale -->
<g id="edge41" class="edge">
<title>roo_windows&#45;&gt;roo_locale</title>
<path fill="none" stroke="red" d="M1007.92,-587.88C1005.61,-574.35 1002.42,-555.62 999.79,-540.15"/>
<polygon fill="red" stroke="red" points="1003.2,-539.34 998.08,-530.07 996.3,-540.51 1003.2,-539.34"/>
<text text-anchor="middle" x="1037" y="-562" font-family="Times,serif" font-size="10.00" fill="red">1.1.3</text>
<text text-anchor="middle" x="1037" y="-551" font-family="Times,serif" font-size="10.00" fill="red">(latest: 1.1.4)</text>
</g>
<!-- roo_windows&#45;&gt;roo_scheduler -->
<g id="edge43" class="edge">
<title>roo_windows&#45;&gt;roo_scheduler</title>
<path fill="none" stroke="red" d="M965.3,-587.88C937.02,-574.96 901.4,-555.38 876,-530 847.84,-501.87 860.76,-479.51 832,-452 827.1,-447.31 821.47,-443.1 815.58,-439.36"/>
<polygon fill="red" stroke="red" points="817.19,-436.24 806.8,-434.2 813.65,-442.28 817.19,-436.24"/>
<text text-anchor="middle" x="909" y="-514" font-family="Times,serif" font-size="10.00" fill="red">2.1.10</text>
<text text-anchor="middle" x="909" y="-503" font-family="Times,serif" font-size="10.00" fill="red">(latest: 2.2.0)</text>
</g>
<!-- roo_windows_transceivers -->
<g id="node30" class="node">
<title>roo_windows_transceivers</title>
<polygon fill="khaki" stroke="red" points="788,-722 584,-722 584,-684 788,-684 788,-722"/>
<text text-anchor="middle" x="686" y="-706.8" font-family="Times,serif" font-size="14.00">roo_windows_transceivers</text>
<text text-anchor="middle" x="686" y="-691.8" font-family="Times,serif" font-size="14.00">1.0.0</text>
</g>
<!-- roo_windows_transceivers&#45;&gt;roo_onewire -->
<g id="edge44" class="edge">
<title>roo_windows_transceivers&#45;&gt;roo_onewire</title>
<path fill="none" stroke="black" d="M662.05,-683.73C645.54,-669.77 624.57,-649.05 613,-626 599.5,-599.1 595.29,-564.58 594.13,-540.6"/>
<polygon fill="black" stroke="black" points="597.62,-540.27 593.79,-530.4 590.62,-540.51 597.62,-540.27"/>
</g>
<!-- roo_windows_transceivers&#45;&gt;roo_transceivers -->
<g id="edge45" class="edge">
<title>roo_windows_transceivers&#45;&gt;roo_transceivers</title>
<path fill="none" stroke="black" d="M686.77,-683.88C687.35,-670.35 688.14,-651.62 688.8,-636.15"/>
<polygon fill="black" stroke="black" points="692.3,-636.21 689.23,-626.07 685.31,-635.91 692.3,-636.21"/>
</g>
<!-- roo_windows_transceivers&#45;&gt;roo_windows -->
<g id="edge46" class="edge">
<title>roo_windows_transceivers&#45;&gt;roo_windows</title>
<path fill="none" stroke="black" d="M723,-683.97C750.36,-671.25 788.8,-654.66 824,-644 863.91,-631.91 909.9,-623 946.27,-617.06"/>
<polygon fill="black" stroke="black" points="946.94,-620.5 956.27,-615.47 945.84,-613.59 946.94,-620.5"/>
</g>
<!-- roo_windows_wifi -->
<g id="node31" class="node">
<title>roo_windows_wifi</title>
<polygon fill="khaki" stroke="red" points="947.5,-722 806.5,-722 806.5,-684 947.5,-684 947.5,-722"/>
<text text-anchor="middle" x="877" y="-706.8" font-family="Times,serif" font-size="14.00">roo_windows_wifi</text>
<text text-anchor="middle" x="877" y="-691.8" font-family="Times,serif" font-size="14.00">1.1.3</text>
</g>
<!-- roo_windows_wifi&#45;&gt;roo_wifi -->
<g id="edge47" class="edge">
<title>roo_windows_wifi&#45;&gt;roo_wifi</title>
<path fill="none" stroke="red" d="M855.38,-683.94C849.86,-678.58 844.28,-672.41 840,-666 833.87,-656.81 828.97,-645.73 825.3,-635.74"/>
<polygon fill="red" stroke="red" points="828.59,-634.53 822.03,-626.21 821.96,-636.8 828.59,-634.53"/>
<text text-anchor="middle" x="873" y="-658" font-family="Times,serif" font-size="10.00" fill="red">1.1.3</text>
<text text-anchor="middle" x="873" y="-647" font-family="Times,serif" font-size="10.00" fill="red">(latest: 1.1.5)</text>
</g>
<!-- roo_windows_wifi&#45;&gt;roo_windows -->
<g id="edge48" class="edge">
<title>roo_windows_wifi&#45;&gt;roo_windows</title>
<path fill="none" stroke="red" d="M896.76,-683.99C910.39,-672 929.18,-656.25 947,-644 953.43,-639.58 960.44,-635.22 967.38,-631.14"/>
<polygon fill="red" stroke="red" points="969.17,-634.15 976.1,-626.14 965.69,-628.08 969.17,-634.15"/>
<text text-anchor="middle" x="980" y="-658" font-family="Times,serif" font-size="10.00" fill="red">1.4.2</text>
<text text-anchor="middle" x="980" y="-647" font-family="Times,serif" font-size="10.00" fill="red">(latest: 1.6.1)</text>
</g>
</g>
</svg>
