<?xml version="1.0" encoding="UTF-8" standalone="no"?>
<!DOCTYPE svg PUBLIC "-//W3C//DTD SVG 1.1//EN"
 "http://www.w3.org/Graphics/SVG/1.1/DTD/svg11.dtd">
<!-- Generated by graphviz version 2.42.4 (0)
 -->
<!-- Title: dependencies Pages: 1 -->
<svg width="2060pt" height="751pt"
 viewBox="0.00 0.00 2060.00 751.00" xmlns="http://www.w3.org/2000/svg" xmlns:xlink="http://www.w3.org/1999/xlink">
<g id="graph0" class="graph" transform="scale(1 1) rotate(0) translate(4 747)">
<title>dependencies</title>
<polygon fill="white" stroke="transparent" points="-4,4 -4,-747 2056,-747 2056,4 -4,4"/>
<!-- roo_backport -->
<g id="node1" class="node">
<title>roo_backport</title>
<polygon fill="#b1dbab" stroke="black" points="1471,-113 1361,-113 1361,-75 1471,-75 1471,-113"/>
<text text-anchor="middle" x="1416" y="-97.8" font-family="Times,serif" font-size="14.00">roo_backport</text>
<text text-anchor="middle" x="1416" y="-82.8" font-family="Times,serif" font-size="14.00">1.2.0</text>
</g>
<!-- roo_blink -->
<g id="node2" class="node">
<title>roo_blink</title>
<polygon fill="#b1dbab" stroke="black" points="840,-380 758,-380 758,-342 840,-342 840,-380"/>
<text text-anchor="middle" x="799" y="-364.8" font-family="Times,serif" font-size="14.00">roo_blink</text>
<text text-anchor="middle" x="799" y="-349.8" font-family="Times,serif" font-size="14.00">1.0.4</text>
</g>
<!-- roo_logging -->
<g id="node12" class="node">
<title>roo_logging</title>
<polygon fill="#b1dbab" stroke="black" points="1089,-284 989,-284 989,-246 1089,-246 1089,-284"/>
<text text-anchor="middle" x="1039" y="-268.8" font-family="Times,serif" font-size="14.00">roo_logging</text>
<text text-anchor="middle" x="1039" y="-253.8" font-family="Times,serif" font-size="14.00">1.5.1</text>
</g>
<!-- roo_blink&#45;&gt;roo_logging -->
<g id="edge1" class="edge">
<title>roo_blink&#45;&gt;roo_logging</title>
<path fill="none" stroke="black" d="M812.2,-341.95C822.82,-328.8 838.91,-311.66 857,-302 894.53,-281.97 941.78,-273.02 978.73,-269.06"/>
<polygon fill="black" stroke="black" points="979.25,-272.52 988.86,-268.07 978.57,-265.56 979.25,-272.52"/>
</g>
<!-- roo_scheduler -->
<g id="node16" class="node">
<title>roo_scheduler</title>
<polygon fill="#b1dbab" stroke="black" points="656,-284 540,-284 540,-246 656,-246 656,-284"/>
<text text-anchor="middle" x="598" y="-268.8" font-family="Times,serif" font-size="14.00">roo_scheduler</text>
<text text-anchor="middle" x="598" y="-253.8" font-family="Times,serif" font-size="14.00">2.1.6</text>
</g>
<!-- roo_blink&#45;&gt;roo_scheduler -->
<g id="edge2" class="edge">
<title>roo_blink&#45;&gt;roo_scheduler</title>
<path fill="none" stroke="black" d="M771.18,-341.77C751.75,-329.52 724.93,-313.58 700,-302 688.78,-296.79 676.58,-291.88 664.64,-287.45"/>
<polygon fill="black" stroke="black" points="665.75,-284.13 655.15,-284.02 663.36,-290.71 665.75,-284.13"/>
</g>
<!-- roo_collections -->
<g id="node3" class="node">
<title>roo_collections</title>
<polygon fill="#b1dbab" stroke="black" points="1477,-188 1355,-188 1355,-150 1477,-150 1477,-188"/>
<text text-anchor="middle" x="1416" y="-172.8" font-family="Times,serif" font-size="14.00">roo_collections</text>
<text text-anchor="middle" x="1416" y="-157.8" font-family="Times,serif" font-size="14.00">1.4.0</text>
</g>
<!-- roo_collections&#45;&gt;roo_backport -->
<g id="edge3" class="edge">
<title>roo_collections&#45;&gt;roo_backport</title>
<path fill="none" stroke="black" d="M1416,-149.96C1416,-141.88 1416,-132.18 1416,-123.18"/>
<polygon fill="black" stroke="black" points="1419.5,-123.09 1416,-113.09 1412.5,-123.09 1419.5,-123.09"/>
</g>
<!-- roo_comms -->
<g id="node4" class="node">
<title>roo_comms</title>
<polygon fill="plum" stroke="black" points="752.5,-572 655.5,-572 655.5,-534 752.5,-534 752.5,-572"/>
<text text-anchor="middle" x="704" y="-556.8" font-family="Times,serif" font-size="14.00">roo_comms</text>
<text text-anchor="middle" x="704" y="-541.8" font-family="Times,serif" font-size="14.00">1.1.2</text>
</g>
<!-- roo_comms&#45;&gt;roo_blink -->
<g id="edge5" class="edge">
<title>roo_comms&#45;&gt;roo_blink</title>
<path fill="none" stroke="red" d="M713.11,-533.78C729.85,-500.3 765.59,-428.82 785.28,-389.44"/>
<polygon fill="red" stroke="red" points="788.58,-390.67 789.92,-380.16 782.32,-387.54 788.58,-390.67"/>
<text text-anchor="middle" x="794" y="-460" font-family="Times,serif" font-size="10.00" fill="red">1.0.2</text>
<text text-anchor="middle" x="794" y="-449" font-family="Times,serif" font-size="10.00" fill="red">(latest: 1.0.4)</text>
</g>
<!-- roo_comms&#45;&gt;roo_collections -->
<g id="edge6" class="edge">
<title>roo_comms&#45;&gt;roo_collections</title>
<path fill="none" stroke="red" d="M752.5,-551.24C917.39,-548.14 1448.74,-533.71 1496,-476 1565.17,-391.55 1478.67,-253.73 1436.56,-196.36"/>
<polygon fill="red" stroke="red" points="1439.24,-194.1 1430.45,-188.18 1433.63,-198.28 1439.24,-194.1"/>
<text text-anchor="middle" x="1553" y="-364" font-family="Times,serif" font-size="10.00" fill="red">1.3.2</text>
<text text-anchor="middle" x="1553" y="-353" font-family="Times,serif" font-size="10.00" fill="red">(latest: 1.4.0)</text>
</g>
<!-- roo_control -->
<g id="node5" class="node">
<title>roo_control</title>
<polygon fill="plum" stroke="black" points="936.5,-476 839.5,-476 839.5,-438 936.5,-438 936.5,-476"/>
<text text-anchor="middle" x="888" y="-460.8" font-family="Times,serif" font-size="14.00">roo_control</text>
<text text-anchor="middle" x="888" y="-445.8" font-family="Times,serif" font-size="14.00">1.2.2</text>
</g>
<!-- roo_comms&#45;&gt;roo_control -->
<g id="edge7" class="edge">
<title>roo_comms&#45;&gt;roo_control</title>
<path fill="none" stroke="black" d="M739.48,-533.88C769.13,-518.73 811.58,-497.04 843.51,-480.73"/>
<polygon fill="black" stroke="black" points="845.32,-483.73 852.63,-476.07 842.13,-477.5 845.32,-483.73"/>
</g>
<!-- roo_io -->
<g id="node10" class="node">
<title>roo_io</title>
<polygon fill="#b1dbab" stroke="black" points="1475.5,-380 1416.5,-380 1416.5,-342 1475.5,-342 1475.5,-380"/>
<text text-anchor="middle" x="1446" y="-364.8" font-family="Times,serif" font-size="14.00">roo_io</text>
<text text-anchor="middle" x="1446" y="-349.8" font-family="Times,serif" font-size="14.00">2.1.1</text>
</g>
<!-- roo_comms&#45;&gt;roo_io -->
<g id="edge8" class="edge">
<title>roo_comms&#45;&gt;roo_io</title>
<path fill="none" stroke="red" d="M752.96,-550.87C890.35,-547.03 1276.77,-531.46 1389,-476 1391.03,-475 1447.11,-422.08 1448,-420 1451.94,-410.82 1452.53,-400.05 1451.77,-390.3"/>
<polygon fill="red" stroke="red" points="1455.23,-389.74 1450.52,-380.25 1448.28,-390.6 1455.23,-389.74"/>
<text text-anchor="middle" x="1463" y="-460" font-family="Times,serif" font-size="10.00" fill="red">2.0.3</text>
<text text-anchor="middle" x="1463" y="-449" font-family="Times,serif" font-size="10.00" fill="red">(latest: 2.1.1)</text>
</g>
<!-- roo_comms&#45;&gt;roo_logging -->
<g id="edge9" class="edge">
<title>roo_comms&#45;&gt;roo_logging</title>
<path fill="none" stroke="red" d="M752.81,-549.75C846.33,-544.31 1045.22,-526.89 1087,-476 1131.09,-422.3 1085.91,-335.94 1057.8,-292.61"/>
<polygon fill="red" stroke="red" points="1060.56,-290.43 1052.1,-284.04 1054.73,-294.31 1060.56,-290.43"/>
<text text-anchor="middle" x="1139" y="-412" font-family="Times,serif" font-size="10.00" fill="red">1.4.3</text>
<text text-anchor="middle" x="1139" y="-401" font-family="Times,serif" font-size="10.00" fill="red">(latest: 1.5.1)</text>
</g>
<!-- roo_prefs -->
<g id="node14" class="node">
<title>roo_prefs</title>
<polygon fill="#b1dbab" stroke="black" points="561.5,-380 478.5,-380 478.5,-342 561.5,-342 561.5,-380"/>
<text text-anchor="middle" x="520" y="-364.8" font-family="Times,serif" font-size="14.00">roo_prefs</text>
<text text-anchor="middle" x="520" y="-349.8" font-family="Times,serif" font-size="14.00">1.2.7</text>
</g>
<!-- roo_comms&#45;&gt;roo_prefs -->
<g id="edge10" class="edge">
<title>roo_comms&#45;&gt;roo_prefs</title>
<path fill="none" stroke="red" d="M693.9,-533.62C680.28,-509.84 654.32,-467.93 625,-438 605.43,-418.03 580.13,-399.54 559.26,-385.8"/>
<polygon fill="red" stroke="red" points="560.92,-382.7 550.62,-380.21 557.11,-388.58 560.92,-382.7"/>
<text text-anchor="middle" x="690" y="-460" font-family="Times,serif" font-size="10.00" fill="red">1.2.3</text>
<text text-anchor="middle" x="690" y="-449" font-family="Times,serif" font-size="10.00" fill="red">(latest: 1.2.7)</text>
</g>
<!-- roo_comms&#45;&gt;roo_scheduler -->
<g id="edge11" class="edge">
<title>roo_comms&#45;&gt;roo_scheduler</title>
<path fill="none" stroke="red" d="M655.29,-536.22C652.49,-535.44 649.72,-534.69 647,-534 567.6,-513.76 521.54,-541.27 472,-476 435.99,-428.55 436.29,-391.78 469,-342 484.82,-317.92 511.13,-300.45 535.87,-288.37"/>
<polygon fill="red" stroke="red" points="537.66,-291.4 545.25,-284 534.71,-285.05 537.66,-291.4"/>
<text text-anchor="middle" x="479" y="-412" font-family="Times,serif" font-size="10.00" fill="red">2.1.5</text>
<text text-anchor="middle" x="479" y="-401" font-family="Times,serif" font-size="10.00" fill="red">(latest: 2.1.6)</text>
</g>
<!-- roo_testing -->
<g id="node17" class="node">
<title>roo_testing</title>
<polygon fill="#b1dbab" stroke="black" points="1214.5,-38 1117.5,-38 1117.5,0 1214.5,0 1214.5,-38"/>
<text text-anchor="middle" x="1166" y="-22.8" font-family="Times,serif" font-size="14.00">roo_testing</text>
<text text-anchor="middle" x="1166" y="-7.8" font-family="Times,serif" font-size="14.00">1.2.0</text>
</g>
<!-- roo_comms&#45;&gt;roo_testing -->
<g id="edge4" class="edge">
<title>roo_comms&#45;&gt;roo_testing</title>
<path fill="none" stroke="red" d="M655.38,-535.77C652.56,-535.1 649.76,-534.51 647,-534 577.6,-521.28 395.73,-541.65 330,-516 279.11,-496.14 280.88,-467.66 235,-438 186.26,-406.49 156.69,-423.26 118,-380 97.19,-356.73 94,-345.21 94,-314 94,-314 94,-314 94,-93 94,-41.81 882.22,-24.73 1106.89,-20.91"/>
<polygon fill="red" stroke="red" points="1107.21,-24.4 1117.15,-20.73 1107.1,-17.4 1107.21,-24.4"/>
<text text-anchor="middle" x="127" y="-268" font-family="Times,serif" font-size="10.00" fill="red">1.1.8</text>
<text text-anchor="middle" x="127" y="-257" font-family="Times,serif" font-size="10.00" fill="red">(latest: 1.2.0)</text>
</g>
<!-- roo_threads -->
<g id="node18" class="node">
<title>roo_threads</title>
<polygon fill="#b1dbab" stroke="black" points="648.5,-188 547.5,-188 547.5,-150 648.5,-150 648.5,-188"/>
<text text-anchor="middle" x="598" y="-172.8" font-family="Times,serif" font-size="14.00">roo_threads</text>
<text text-anchor="middle" x="598" y="-157.8" font-family="Times,serif" font-size="14.00">1.2.0</text>
</g>
<!-- roo_comms&#45;&gt;roo_threads -->
<g id="edge12" class="edge">
<title>roo_comms&#45;&gt;roo_threads</title>
<path fill="none" stroke="red" d="M655.35,-535.95C652.54,-535.24 649.74,-534.58 647,-534 579.92,-519.85 385.28,-530.73 344,-476 261.51,-366.65 459.43,-243.01 552.67,-192.9"/>
<polygon fill="red" stroke="red" points="554.44,-195.92 561.63,-188.14 551.15,-189.74 554.44,-195.92"/>
<text text-anchor="middle" x="389" y="-364" font-family="Times,serif" font-size="10.00" fill="red">1.1.6</text>
<text text-anchor="middle" x="389" y="-353" font-family="Times,serif" font-size="10.00" fill="red">(latest: 1.2.0)</text>
</g>
<!-- roo_time -->
<g id="node19" class="node">
<title>roo_time</title>
<polygon fill="#b1dbab" stroke="black" points="471.5,-113 392.5,-113 392.5,-75 471.5,-75 471.5,-113"/>
<text text-anchor="middle" x="432" y="-97.8" font-family="Times,serif" font-size="14.00">roo_time</text>
<text text-anchor="middle" x="432" y="-82.8" font-family="Times,serif" font-size="14.00">1.4.0</text>
</g>
<!-- roo_comms&#45;&gt;roo_time -->
<g id="edge13" class="edge">
<title>roo_comms&#45;&gt;roo_time</title>
<path fill="none" stroke="red" d="M655.38,-535.79C652.56,-535.12 649.75,-534.51 647,-534 585.06,-522.43 421.58,-541.6 364,-516 340.74,-505.66 334.47,-498.73 323,-476 257.41,-346.08 266.72,-266.47 354,-150 363.2,-137.72 375.96,-127.12 388.49,-118.6"/>
<polygon fill="red" stroke="red" points="390.59,-121.41 397.08,-113.04 386.79,-115.54 390.59,-121.41"/>
<text text-anchor="middle" x="315" y="-316" font-family="Times,serif" font-size="10.00" fill="red">1.3.3</text>
<text text-anchor="middle" x="315" y="-305" font-family="Times,serif" font-size="10.00" fill="red">(latest: 1.4.0)</text>
</g>
<!-- roo_transceivers -->
<g id="node21" class="node">
<title>roo_transceivers</title>
<polygon fill="#b1dbab" stroke="black" points="616.5,-476 481.5,-476 481.5,-438 616.5,-438 616.5,-476"/>
<text text-anchor="middle" x="549" y="-460.8" font-family="Times,serif" font-size="14.00">roo_transceivers</text>
<text text-anchor="middle" x="549" y="-445.8" font-family="Times,serif" font-size="14.00">1.1.4</text>
</g>
<!-- roo_comms&#45;&gt;roo_transceivers -->
<g id="edge14" class="edge">
<title>roo_comms&#45;&gt;roo_transceivers</title>
<path fill="none" stroke="red" d="M655.25,-536.37C652.46,-535.55 649.7,-534.75 647,-534 614.4,-524.9 598.7,-538.03 573,-516 564.1,-508.37 558.44,-496.91 554.87,-486.18"/>
<polygon fill="red" stroke="red" points="558.15,-484.93 552.05,-476.27 551.42,-486.85 558.15,-484.93"/>
<text text-anchor="middle" x="606" y="-508" font-family="Times,serif" font-size="10.00" fill="red">1.1.3</text>
<text text-anchor="middle" x="606" y="-497" font-family="Times,serif" font-size="10.00" fill="red">(latest: 1.1.4)</text>
</g>
<!-- roo_control&#45;&gt;roo_logging -->
<g id="edge16" class="edge">
<title>roo_control&#45;&gt;roo_logging</title>
<path fill="none" stroke="red" d="M881.19,-437.74C873.38,-413.33 864.14,-369.91 885,-342 901.92,-319.36 920.22,-335.59 946,-324 966.69,-314.7 988.28,-301.49 1005.44,-290.02"/>
<polygon fill="red" stroke="red" points="1007.69,-292.73 1013.99,-284.21 1003.75,-286.94 1007.69,-292.73"/>
<text text-anchor="middle" x="918" y="-364" font-family="Times,serif" font-size="10.00" fill="red">1.4.3</text>
<text text-anchor="middle" x="918" y="-353" font-family="Times,serif" font-size="10.00" fill="red">(latest: 1.5.1)</text>
</g>
<!-- roo_quantity -->
<g id="node15" class="node">
<title>roo_quantity</title>
<polygon fill="#b1dbab" stroke="black" points="1067.5,-380 960.5,-380 960.5,-342 1067.5,-342 1067.5,-380"/>
<text text-anchor="middle" x="1014" y="-364.8" font-family="Times,serif" font-size="14.00">roo_quantity</text>
<text text-anchor="middle" x="1014" y="-349.8" font-family="Times,serif" font-size="14.00">1.1.5</text>
</g>
<!-- roo_control&#45;&gt;roo_quantity -->
<g id="edge17" class="edge">
<title>roo_control&#45;&gt;roo_quantity</title>
<path fill="none" stroke="red" d="M904.57,-438C916.29,-425.85 932.74,-409.93 949,-398 955.08,-393.54 961.77,-389.24 968.47,-385.26"/>
<polygon fill="red" stroke="red" points="970.64,-388.06 977.57,-380.05 967.16,-381.98 970.64,-388.06"/>
<text text-anchor="middle" x="982" y="-412" font-family="Times,serif" font-size="10.00" fill="red">1.1.3</text>
<text text-anchor="middle" x="982" y="-401" font-family="Times,serif" font-size="10.00" fill="red">(latest: 1.1.5)</text>
</g>
<!-- roo_control&#45;&gt;roo_scheduler -->
<g id="edge18" class="edge">
<title>roo_control&#45;&gt;roo_scheduler</title>
<path fill="none" stroke="red" d="M839.32,-440.1C836.51,-439.35 833.73,-438.64 831,-438 732.98,-414.99 673.97,-459.36 612,-380 593.1,-355.8 591.87,-319.46 593.9,-294.34"/>
<polygon fill="red" stroke="red" points="597.38,-294.64 594.92,-284.34 590.42,-293.93 597.38,-294.64"/>
<text text-anchor="middle" x="645" y="-364" font-family="Times,serif" font-size="10.00" fill="red">2.1.5</text>
<text text-anchor="middle" x="645" y="-353" font-family="Times,serif" font-size="10.00" fill="red">(latest: 2.1.6)</text>
</g>
<!-- roo_control&#45;&gt;roo_testing -->
<g id="edge15" class="edge">
<title>roo_control&#45;&gt;roo_testing</title>
<path fill="none" stroke="red" d="M845.37,-437.95C809.03,-421.66 760.86,-397.63 749,-380 720.54,-337.68 736,-317 736,-266 736,-266 736,-266 736,-93 736,-55.84 988.89,-32.74 1106.8,-23.99"/>
<polygon fill="red" stroke="red" points="1107.37,-27.46 1117.09,-23.24 1106.86,-20.48 1107.37,-27.46"/>
<text text-anchor="middle" x="769" y="-220" font-family="Times,serif" font-size="10.00" fill="red">1.1.8</text>
<text text-anchor="middle" x="769" y="-209" font-family="Times,serif" font-size="10.00" fill="red">(latest: 1.2.0)</text>
</g>
<!-- roo_dashboard -->
<g id="node6" class="node">
<title>roo_dashboard</title>
<polygon fill="plum" stroke="black" points="130,-743 8,-743 8,-705 130,-705 130,-743"/>
<text text-anchor="middle" x="69" y="-727.8" font-family="Times,serif" font-size="14.00">roo_dashboard</text>
<text text-anchor="middle" x="69" y="-712.8" font-family="Times,serif" font-size="14.00">1.0.1</text>
</g>
<!-- roo_dashboard&#45;&gt;roo_testing -->
<g id="edge19" class="edge">
<title>roo_dashboard&#45;&gt;roo_testing</title>
<path fill="none" stroke="red" d="M36.92,-704.99C18.91,-692.27 0,-673.37 0,-650 0,-650 0,-650 0,-93 0,-36.92 870.63,-23.25 1107.26,-20.57"/>
<polygon fill="red" stroke="red" points="1107.42,-24.07 1117.38,-20.46 1107.34,-17.07 1107.42,-24.07"/>
<text text-anchor="middle" x="33" y="-364" font-family="Times,serif" font-size="10.00" fill="red">1.1.7</text>
<text text-anchor="middle" x="33" y="-353" font-family="Times,serif" font-size="10.00" fill="red">(latest: 1.2.0)</text>
</g>
<!-- roo_windows -->
<g id="node24" class="node">
<title>roo_windows</title>
<polygon fill="plum" stroke="black" points="1236.5,-668 1127.5,-668 1127.5,-630 1236.5,-630 1236.5,-668"/>
<text text-anchor="middle" x="1182" y="-652.8" font-family="Times,serif" font-size="14.00">roo_windows</text>
<text text-anchor="middle" x="1182" y="-637.8" font-family="Times,serif" font-size="14.00">1.4.1</text>
</g>
<!-- roo_dashboard&#45;&gt;roo_windows -->
<g id="edge20" class="edge">
<title>roo_dashboard&#45;&gt;roo_windows</title>
<path fill="none" stroke="black" d="M130.03,-719C322.99,-706.34 918.87,-667.26 1117.11,-654.26"/>
<polygon fill="black" stroke="black" points="1117.61,-657.73 1127.36,-653.58 1117.16,-650.75 1117.61,-657.73"/>
</g>
<!-- roo_display -->
<g id="node7" class="node">
<title>roo_display</title>
<polygon fill="plum" stroke="black" points="1774,-476 1676,-476 1676,-438 1774,-438 1774,-476"/>
<text text-anchor="middle" x="1725" y="-460.8" font-family="Times,serif" font-size="14.00">roo_display</text>
<text text-anchor="middle" x="1725" y="-445.8" font-family="Times,serif" font-size="14.00">2.3.1</text>
</g>
<!-- roo_display&#45;&gt;roo_backport -->
<g id="edge22" class="edge">
<title>roo_display&#45;&gt;roo_backport</title>
<path fill="none" stroke="red" d="M1724.04,-437.9C1723.29,-426.43 1722.02,-411.29 1720,-398 1713.44,-354.82 1717.53,-341.55 1699,-302 1694.7,-292.82 1689.88,-292.88 1685,-284 1667.25,-251.73 1681.89,-233.15 1657,-206 1610.12,-154.85 1534.97,-125.46 1481.05,-109.94"/>
<polygon fill="red" stroke="red" points="1481.82,-106.52 1471.24,-107.2 1479.93,-113.26 1481.82,-106.52"/>
<text text-anchor="middle" x="1718" y="-268" font-family="Times,serif" font-size="10.00" fill="red">1.1.1</text>
<text text-anchor="middle" x="1718" y="-257" font-family="Times,serif" font-size="10.00" fill="red">(latest: 1.2.0)</text>
</g>
<!-- roo_display&#45;&gt;roo_collections -->
<g id="edge23" class="edge">
<title>roo_display&#45;&gt;roo_collections</title>
<path fill="none" stroke="red" d="M1719.38,-437.95C1715.24,-426.08 1708.97,-410.5 1701,-398 1676.98,-360.34 1662.56,-357.49 1633,-324 1587.51,-272.46 1590.38,-243.85 1533,-206 1519.19,-196.89 1502.96,-189.99 1487.06,-184.8"/>
<polygon fill="red" stroke="red" points="1487.81,-181.37 1477.23,-181.79 1485.76,-188.07 1487.81,-181.37"/>
<text text-anchor="middle" x="1666" y="-316" font-family="Times,serif" font-size="10.00" fill="red">1.3.2</text>
<text text-anchor="middle" x="1666" y="-305" font-family="Times,serif" font-size="10.00" fill="red">(latest: 1.4.0)</text>
</g>
<!-- roo_display&#45;&gt;roo_io -->
<g id="edge24" class="edge">
<title>roo_display&#45;&gt;roo_io</title>
<path fill="none" stroke="red" d="M1675.68,-440.19C1661.98,-434.77 1647.45,-428.01 1635,-420 1623.1,-412.34 1624.71,-404.21 1612,-398 1562.76,-373.92 1542.86,-394.48 1490,-380 1488.56,-379.6 1487.1,-379.18 1485.63,-378.72"/>
<polygon fill="red" stroke="red" points="1486.56,-375.33 1475.96,-375.38 1484.27,-381.95 1486.56,-375.33"/>
<text text-anchor="middle" x="1668" y="-412" font-family="Times,serif" font-size="10.00" fill="red">2.0.2</text>
<text text-anchor="middle" x="1668" y="-401" font-family="Times,serif" font-size="10.00" fill="red">(latest: 2.1.1)</text>
</g>
<!-- roo_display&#45;&gt;roo_testing -->
<g id="edge21" class="edge">
<title>roo_display&#45;&gt;roo_testing</title>
<path fill="none" stroke="red" d="M1733.77,-437.71C1750.63,-399.77 1783.16,-310.63 1751,-246 1747.06,-238.08 1631.23,-155.1 1624,-150 1574.45,-115.03 1564.42,-101.78 1510,-75 1486.8,-63.58 1480.19,-61.85 1455,-56 1376.48,-37.76 1283.68,-28.28 1224.83,-23.72"/>
<polygon fill="red" stroke="red" points="1224.84,-20.21 1214.61,-22.95 1224.32,-27.19 1224.84,-20.21"/>
<text text-anchor="middle" x="1762" y="-220" font-family="Times,serif" font-size="10.00" fill="red">1.1.7</text>
<text text-anchor="middle" x="1762" y="-209" font-family="Times,serif" font-size="10.00" fill="red">(latest: 1.2.0)</text>
</g>
<!-- roo_flags -->
<g id="node8" class="node">
<title>roo_flags</title>
<polygon fill="#b1dbab" stroke="black" points="1079,-188 999,-188 999,-150 1079,-150 1079,-188"/>
<text text-anchor="middle" x="1039" y="-172.8" font-family="Times,serif" font-size="14.00">roo_flags</text>
<text text-anchor="middle" x="1039" y="-157.8" font-family="Times,serif" font-size="14.00">1.2.0</text>
</g>
<!-- roo_icons -->
<g id="node9" class="node">
<title>roo_icons</title>
<polygon fill="plum" stroke="black" points="1766.5,-572 1683.5,-572 1683.5,-534 1766.5,-534 1766.5,-572"/>
<text text-anchor="middle" x="1725" y="-556.8" font-family="Times,serif" font-size="14.00">roo_icons</text>
<text text-anchor="middle" x="1725" y="-541.8" font-family="Times,serif" font-size="14.00">1.2.1</text>
</g>
<!-- roo_icons&#45;&gt;roo_display -->
<g id="edge26" class="edge">
<title>roo_icons&#45;&gt;roo_display</title>
<path fill="none" stroke="black" d="M1725,-533.88C1725,-520.35 1725,-501.62 1725,-486.15"/>
<polygon fill="black" stroke="black" points="1728.5,-486.07 1725,-476.07 1721.5,-486.07 1728.5,-486.07"/>
</g>
<!-- roo_icons&#45;&gt;roo_testing -->
<g id="edge25" class="edge">
<title>roo_icons&#45;&gt;roo_testing</title>
<path fill="none" stroke="red" d="M1757.51,-533.74C1781.87,-517.39 1811,-490.96 1811,-458 1811,-458 1811,-458 1811,-93 1811,-34.31 1383.96,-22.8 1224.83,-20.55"/>
<polygon fill="red" stroke="red" points="1224.79,-17.05 1214.74,-20.41 1224.7,-24.05 1224.79,-17.05"/>
<text text-anchor="middle" x="1844" y="-268" font-family="Times,serif" font-size="10.00" fill="red">1.1.7</text>
<text text-anchor="middle" x="1844" y="-257" font-family="Times,serif" font-size="10.00" fill="red">(latest: 1.2.0)</text>
</g>
<!-- roo_io&#45;&gt;roo_logging -->
<g id="edge27" class="edge">
<title>roo_io&#45;&gt;roo_logging</title>
<path fill="none" stroke="black" d="M1416.24,-351.52C1392.28,-344.54 1357.79,-334.18 1328,-324 1301.91,-315.08 1296.65,-309.05 1270,-302 1212.97,-286.92 1146.24,-277.36 1099.21,-271.91"/>
<polygon fill="black" stroke="black" points="1099.51,-268.42 1089.19,-270.78 1098.73,-275.38 1099.51,-268.42"/>
</g>
<!-- roo_locale -->
<g id="node11" class="node">
<title>roo_locale</title>
<polygon fill="#b1dbab" stroke="black" points="638,-572 550,-572 550,-534 638,-534 638,-572"/>
<text text-anchor="middle" x="594" y="-556.8" font-family="Times,serif" font-size="14.00">roo_locale</text>
<text text-anchor="middle" x="594" y="-541.8" font-family="Times,serif" font-size="14.00">1.1.1</text>
</g>
<!-- roo_logging&#45;&gt;roo_backport -->
<g id="edge28" class="edge">
<title>roo_logging&#45;&gt;roo_backport</title>
<path fill="none" stroke="black" d="M1076.23,-245.91C1100.31,-234.3 1132.4,-219.02 1161,-206 1230.91,-174.17 1312.42,-139.04 1364.1,-116.99"/>
<polygon fill="black" stroke="black" points="1365.57,-120.17 1373.4,-113.03 1362.82,-113.73 1365.57,-120.17"/>
</g>
<!-- roo_logging&#45;&gt;roo_flags -->
<g id="edge29" class="edge">
<title>roo_logging&#45;&gt;roo_flags</title>
<path fill="none" stroke="black" d="M1039,-245.88C1039,-232.35 1039,-213.62 1039,-198.15"/>
<polygon fill="black" stroke="black" points="1042.5,-198.07 1039,-188.07 1035.5,-198.07 1042.5,-198.07"/>
</g>
<!-- roo_logging&#45;&gt;roo_threads -->
<g id="edge30" class="edge">
<title>roo_logging&#45;&gt;roo_threads</title>
<path fill="none" stroke="black" d="M1001.47,-245.98C972.49,-232.85 931.06,-215.71 893,-206 813.49,-185.71 718.9,-176.74 658.67,-172.85"/>
<polygon fill="black" stroke="black" points="658.77,-169.35 648.57,-172.23 658.34,-176.34 658.77,-169.35"/>
</g>
<!-- roo_onewire -->
<g id="node13" class="node">
<title>roo_onewire</title>
<polygon fill="#b1dbab" stroke="black" points="1078,-476 974,-476 974,-438 1078,-438 1078,-476"/>
<text text-anchor="middle" x="1026" y="-460.8" font-family="Times,serif" font-size="14.00">roo_onewire</text>
<text text-anchor="middle" x="1026" y="-445.8" font-family="Times,serif" font-size="14.00">2.0.7</text>
</g>
<!-- roo_onewire&#45;&gt;roo_quantity -->
<g id="edge32" class="edge">
<title>roo_onewire&#45;&gt;roo_quantity</title>
<path fill="none" stroke="black" d="M1023.69,-437.88C1021.96,-424.35 1019.57,-405.62 1017.59,-390.15"/>
<polygon fill="black" stroke="black" points="1021.04,-389.54 1016.31,-380.07 1014.1,-390.43 1021.04,-389.54"/>
</g>
<!-- roo_onewire&#45;&gt;roo_scheduler -->
<g id="edge31" class="edge">
<title>roo_onewire&#45;&gt;roo_scheduler</title>
<path fill="none" stroke="black" d="M973.88,-444.18C905.2,-428.19 788.49,-399.43 749,-380 701.05,-356.41 653.05,-316.75 624.44,-290.99"/>
<polygon fill="black" stroke="black" points="626.65,-288.26 616.9,-284.11 621.93,-293.44 626.65,-288.26"/>
</g>
<!-- roo_prefs&#45;&gt;roo_logging -->
<g id="edge33" class="edge">
<title>roo_prefs&#45;&gt;roo_logging</title>
<path fill="none" stroke="black" d="M561.7,-345.85C566.49,-344.45 571.33,-343.13 576,-342 718.62,-307.57 889.75,-283.97 978.67,-273"/>
<polygon fill="black" stroke="black" points="979.34,-276.44 988.84,-271.76 978.49,-269.5 979.34,-276.44"/>
</g>
<!-- roo_prefs&#45;&gt;roo_scheduler -->
<g id="edge34" class="edge">
<title>roo_prefs&#45;&gt;roo_scheduler</title>
<path fill="none" stroke="black" d="M535.04,-341.88C546.8,-327.7 563.31,-307.81 576.47,-291.94"/>
<polygon fill="black" stroke="black" points="579.31,-294 583.01,-284.07 573.93,-289.53 579.31,-294"/>
</g>
<!-- roo_quantity&#45;&gt;roo_logging -->
<g id="edge35" class="edge">
<title>roo_quantity&#45;&gt;roo_logging</title>
<path fill="none" stroke="black" d="M1018.82,-341.88C1022.42,-328.35 1027.4,-309.62 1031.51,-294.15"/>
<polygon fill="black" stroke="black" points="1035.01,-294.63 1034.19,-284.07 1028.24,-292.83 1035.01,-294.63"/>
</g>
<!-- roo_scheduler&#45;&gt;roo_collections -->
<g id="edge36" class="edge">
<title>roo_scheduler&#45;&gt;roo_collections</title>
<path fill="none" stroke="black" d="M656.17,-257.32C802.43,-240.51 1185.15,-196.53 1344.63,-178.2"/>
<polygon fill="black" stroke="black" points="1345.27,-181.65 1354.81,-177.03 1344.47,-174.7 1345.27,-181.65"/>
</g>
<!-- roo_scheduler&#45;&gt;roo_threads -->
<g id="edge37" class="edge">
<title>roo_scheduler&#45;&gt;roo_threads</title>
<path fill="none" stroke="black" d="M598,-245.88C598,-232.35 598,-213.62 598,-198.15"/>
<polygon fill="black" stroke="black" points="601.5,-198.07 598,-188.07 594.5,-198.07 601.5,-198.07"/>
</g>
<!-- roo_threads&#45;&gt;roo_time -->
<g id="edge38" class="edge">
<title>roo_threads&#45;&gt;roo_time</title>
<path fill="none" stroke="black" d="M556.97,-149.96C534,-139.85 505.21,-127.19 481.05,-116.57"/>
<polygon fill="black" stroke="black" points="482.27,-113.28 471.7,-112.46 479.45,-119.69 482.27,-113.28"/>
</g>
<!-- roo_time&#45;&gt;roo_testing -->
<g id="edge39" class="edge">
<title>roo_time&#45;&gt;roo_testing</title>
<path fill="none" stroke="black" d="M471.81,-87.33C527.63,-79.52 632.4,-65.34 722,-56 859.85,-41.63 1022.29,-29.73 1107.33,-23.89"/>
<polygon fill="black" stroke="black" points="1107.58,-27.39 1117.31,-23.21 1107.1,-20.4 1107.58,-27.39"/>
</g>
<!-- roo_time_ds3231 -->
<g id="node20" class="node">
<title>roo_time_ds3231</title>
<polygon fill="#b1dbab" stroke="black" points="501,-188 363,-188 363,-150 501,-150 501,-188"/>
<text text-anchor="middle" x="432" y="-172.8" font-family="Times,serif" font-size="14.00">roo_time_ds3231</text>
<text text-anchor="middle" x="432" y="-157.8" font-family="Times,serif" font-size="14.00">1.1.4</text>
</g>
<!-- roo_time_ds3231&#45;&gt;roo_time -->
<g id="edge40" class="edge">
<title>roo_time_ds3231&#45;&gt;roo_time</title>
<path fill="none" stroke="black" d="M432,-149.96C432,-141.88 432,-132.18 432,-123.18"/>
<polygon fill="black" stroke="black" points="435.5,-123.09 432,-113.09 428.5,-123.09 435.5,-123.09"/>
</g>
<!-- roo_transceivers&#45;&gt;roo_prefs -->
<g id="edge41" class="edge">
<title>roo_transceivers&#45;&gt;roo_prefs</title>
<path fill="none" stroke="black" d="M543.41,-437.88C539.2,-424.22 533.35,-405.26 528.55,-389.71"/>
<polygon fill="black" stroke="black" points="531.87,-388.59 525.57,-380.07 525.18,-390.66 531.87,-388.59"/>
</g>
<!-- roo_transport -->
<g id="node22" class="node">
<title>roo_transport</title>
<polygon fill="plum" stroke="black" points="1380,-476 1266,-476 1266,-438 1380,-438 1380,-476"/>
<text text-anchor="middle" x="1323" y="-460.8" font-family="Times,serif" font-size="14.00">roo_transport</text>
<text text-anchor="middle" x="1323" y="-445.8" font-family="Times,serif" font-size="14.00">1.0.2</text>
</g>
<!-- roo_transport&#45;&gt;roo_collections -->
<g id="edge43" class="edge">
<title>roo_transport&#45;&gt;roo_collections</title>
<path fill="none" stroke="red" d="M1326.91,-437.85C1329.5,-426.36 1333.12,-411.22 1337,-398 1358.5,-324.68 1389.46,-240.11 1405.49,-197.53"/>
<polygon fill="red" stroke="red" points="1408.78,-198.72 1409.05,-188.13 1402.24,-196.25 1408.78,-198.72"/>
<text text-anchor="middle" x="1401" y="-316" font-family="Times,serif" font-size="10.00" fill="red">1.3.2</text>
<text text-anchor="middle" x="1401" y="-305" font-family="Times,serif" font-size="10.00" fill="red">(latest: 1.4.0)</text>
</g>
<!-- roo_transport&#45;&gt;roo_io -->
<g id="edge44" class="edge">
<title>roo_transport&#45;&gt;roo_io</title>
<path fill="none" stroke="red" d="M1341.32,-437.76C1357.79,-421.4 1379.73,-399.7 1382,-398 1389.87,-392.09 1398.81,-386.47 1407.46,-381.5"/>
<polygon fill="red" stroke="red" points="1409.27,-384.5 1416.31,-376.58 1405.87,-378.38 1409.27,-384.5"/>
<text text-anchor="middle" x="1415" y="-412" font-family="Times,serif" font-size="10.00" fill="red">2.0.3</text>
<text text-anchor="middle" x="1415" y="-401" font-family="Times,serif" font-size="10.00" fill="red">(latest: 2.1.1)</text>
</g>
<!-- roo_transport&#45;&gt;roo_logging -->
<g id="edge45" class="edge">
<title>roo_transport&#45;&gt;roo_logging</title>
<path fill="none" stroke="red" d="M1308.26,-437.82C1296.72,-422.95 1280.85,-401.01 1270,-380 1253.1,-347.28 1270.15,-325.75 1242,-302 1220.84,-284.15 1151.13,-274.73 1099.27,-270.06"/>
<polygon fill="red" stroke="red" points="1099.42,-266.56 1089.16,-269.19 1098.82,-273.54 1099.42,-266.56"/>
<text text-anchor="middle" x="1303" y="-364" font-family="Times,serif" font-size="10.00" fill="red">1.4.3</text>
<text text-anchor="middle" x="1303" y="-353" font-family="Times,serif" font-size="10.00" fill="red">(latest: 1.5.1)</text>
</g>
<!-- roo_transport&#45;&gt;roo_testing -->
<g id="edge42" class="edge">
<title>roo_transport&#45;&gt;roo_testing</title>
<path fill="none" stroke="red" d="M1334.56,-437.96C1342.13,-426.37 1352.36,-411.1 1362,-398 1380.93,-372.28 1382.79,-362.81 1407,-342 1419.08,-331.62 1425.4,-333.75 1438,-324 1491.26,-282.81 1545.86,-272.09 1533,-206 1521,-144.35 1528.84,-114.49 1480,-75 1441.69,-44.03 1304.84,-29.54 1225.01,-23.58"/>
<polygon fill="red" stroke="red" points="1224.84,-20.06 1214.61,-22.83 1224.34,-27.04 1224.84,-20.06"/>
<text text-anchor="middle" x="1567" y="-220" font-family="Times,serif" font-size="10.00" fill="red">1.1.8</text>
<text text-anchor="middle" x="1567" y="-209" font-family="Times,serif" font-size="10.00" fill="red">(latest: 1.2.0)</text>
</g>
<!-- roo_transport&#45;&gt;roo_threads -->
<g id="edge46" class="edge">
<title>roo_transport&#45;&gt;roo_threads</title>
<path fill="none" stroke="red" d="M1286.89,-437.82C1177.85,-383 856.31,-222.16 806,-206 757.65,-190.46 700.7,-181.2 658.62,-175.97"/>
<polygon fill="red" stroke="red" points="658.88,-172.47 648.53,-174.76 658.04,-179.42 658.88,-172.47"/>
<text text-anchor="middle" x="1087" y="-316" font-family="Times,serif" font-size="10.00" fill="red">1.1.6</text>
<text text-anchor="middle" x="1087" y="-305" font-family="Times,serif" font-size="10.00" fill="red">(latest: 1.2.0)</text>
</g>
<!-- roo_wifi -->
<g id="node23" class="node">
<title>roo_wifi</title>
<polygon fill="plum" stroke="black" points="425,-476 353,-476 353,-438 425,-438 425,-476"/>
<text text-anchor="middle" x="389" y="-460.8" font-family="Times,serif" font-size="14.00">roo_wifi</text>
<text text-anchor="middle" x="389" y="-445.8" font-family="Times,serif" font-size="14.00">1.1.2</text>
</g>
<!-- roo_wifi&#45;&gt;roo_collections -->
<g id="edge48" class="edge">
<title>roo_wifi&#45;&gt;roo_collections</title>
<path fill="none" stroke="red" d="M425.12,-446.68C439.59,-443.34 456.49,-439.92 472,-438 592.7,-423.05 902.72,-455.64 1019,-420 1173.65,-372.6 1327.26,-248.3 1388.39,-194.93"/>
<polygon fill="red" stroke="red" points="1390.86,-197.42 1396.05,-188.19 1386.23,-192.16 1390.86,-197.42"/>
<text text-anchor="middle" x="1282" y="-316" font-family="Times,serif" font-size="10.00" fill="red">1.3.2</text>
<text text-anchor="middle" x="1282" y="-305" font-family="Times,serif" font-size="10.00" fill="red">(latest: 1.4.0)</text>
</g>
<!-- roo_wifi&#45;&gt;roo_prefs -->
<g id="edge49" class="edge">
<title>roo_wifi&#45;&gt;roo_prefs</title>
<path fill="none" stroke="red" d="M372.44,-437.9C363.35,-425.71 355.65,-409.78 365,-398 368.33,-393.81 424.4,-381.51 468.15,-372.44"/>
<polygon fill="red" stroke="red" points="469.04,-375.84 478.12,-370.39 467.62,-368.98 469.04,-375.84"/>
<text text-anchor="middle" x="398" y="-412" font-family="Times,serif" font-size="10.00" fill="red">1.2.3</text>
<text text-anchor="middle" x="398" y="-401" font-family="Times,serif" font-size="10.00" fill="red">(latest: 1.2.7)</text>
</g>
<!-- roo_wifi&#45;&gt;roo_testing -->
<g id="edge47" class="edge">
<title>roo_wifi&#45;&gt;roo_testing</title>
<path fill="none" stroke="red" d="M369.11,-437.75C332.04,-401.95 254.44,-318.14 236,-228 217.1,-135.61 296.11,-111.64 383,-75 513.55,-19.96 948.6,-18.04 1107.36,-19.27"/>
<polygon fill="red" stroke="red" points="1107.39,-22.77 1117.42,-19.35 1107.45,-15.77 1107.39,-22.77"/>
<text text-anchor="middle" x="269" y="-220" font-family="Times,serif" font-size="10.00" fill="red">1.1.8</text>
<text text-anchor="middle" x="269" y="-209" font-family="Times,serif" font-size="10.00" fill="red">(latest: 1.2.0)</text>
</g>
<!-- roo_windows&#45;&gt;roo_collections -->
<g id="edge51" class="edge">
<title>roo_windows&#45;&gt;roo_collections</title>
<path fill="none" stroke="red" d="M1236.83,-648.1C1323.41,-644.86 1488.94,-624.03 1557,-516 1585.18,-471.27 1511.89,-441.45 1542,-398 1554.98,-379.27 1577.02,-398.73 1590,-380 1599.62,-366.12 1596.16,-357.72 1590,-342 1564.04,-275.78 1497.58,-222.59 1454.72,-193.73"/>
<polygon fill="red" stroke="red" points="1456.5,-190.7 1446.22,-188.11 1452.64,-196.54 1456.5,-190.7"/>
<text text-anchor="middle" x="1575" y="-412" font-family="Times,serif" font-size="10.00" fill="red">1.3.2</text>
<text text-anchor="middle" x="1575" y="-401" font-family="Times,serif" font-size="10.00" fill="red">(latest: 1.4.0)</text>
</g>
<!-- roo_windows&#45;&gt;roo_icons -->
<g id="edge54" class="edge">
<title>roo_windows&#45;&gt;roo_icons</title>
<path fill="none" stroke="black" d="M1236.88,-647.12C1341.45,-644.86 1565.3,-637.18 1638,-612 1659.33,-604.61 1680.46,-590.72 1696.55,-578.39"/>
<polygon fill="black" stroke="black" points="1698.81,-581.06 1704.49,-572.12 1694.47,-575.57 1698.81,-581.06"/>
</g>
<!-- roo_windows&#45;&gt;roo_io -->
<g id="edge55" class="edge">
<title>roo_windows&#45;&gt;roo_io</title>
<path fill="none" stroke="red" d="M1236.64,-636.56C1311.4,-617.64 1442.8,-571.97 1500,-476 1517.33,-446.93 1494.06,-411.42 1472.89,-387.83"/>
<polygon fill="red" stroke="red" points="1475.25,-385.22 1465.86,-380.32 1470.14,-390.01 1475.25,-385.22"/>
<text text-anchor="middle" x="1520" y="-508" font-family="Times,serif" font-size="10.00" fill="red">2.0.2</text>
<text text-anchor="middle" x="1520" y="-497" font-family="Times,serif" font-size="10.00" fill="red">(latest: 2.1.1)</text>
</g>
<!-- roo_windows&#45;&gt;roo_locale -->
<g id="edge52" class="edge">
<title>roo_windows&#45;&gt;roo_locale</title>
<path fill="none" stroke="black" d="M1127.33,-643.75C1031.41,-635.52 826.69,-614.6 647.92,-572.26"/>
<polygon fill="black" stroke="black" points="648.62,-568.83 638.08,-569.91 646.99,-575.64 648.62,-568.83"/>
</g>
<!-- roo_windows&#45;&gt;roo_logging -->
<g id="edge53" class="edge">
<title>roo_windows&#45;&gt;roo_logging</title>
<path fill="none" stroke="red" d="M1183.25,-629.69C1186.43,-579.34 1193.38,-439.79 1176,-398 1156.5,-351.11 1111,-312.93 1077.77,-289.91"/>
<polygon fill="red" stroke="red" points="1079.43,-286.8 1069.18,-284.1 1075.51,-292.6 1079.43,-286.8"/>
<text text-anchor="middle" x="1220" y="-460" font-family="Times,serif" font-size="10.00" fill="red">1.4.2</text>
<text text-anchor="middle" x="1220" y="-449" font-family="Times,serif" font-size="10.00" fill="red">(latest: 1.5.1)</text>
</g>
<!-- roo_windows&#45;&gt;roo_scheduler -->
<g id="edge56" class="edge">
<title>roo_windows&#45;&gt;roo_scheduler</title>
<path fill="none" stroke="red" d="M1127.17,-647.09C999.04,-644.57 683.11,-636.05 580,-612 428.31,-576.62 343.16,-605.76 257,-476 183.38,-365.13 410.52,-302.65 529.79,-278.18"/>
<polygon fill="red" stroke="red" points="530.83,-281.54 539.94,-276.14 529.44,-274.68 530.83,-281.54"/>
<text text-anchor="middle" x="290" y="-460" font-family="Times,serif" font-size="10.00" fill="red">2.1.4</text>
<text text-anchor="middle" x="290" y="-449" font-family="Times,serif" font-size="10.00" fill="red">(latest: 2.1.6)</text>
</g>
<!-- roo_windows&#45;&gt;roo_testing -->
<g id="edge50" class="edge">
<title>roo_windows&#45;&gt;roo_testing</title>
<path fill="none" stroke="red" d="M1236.64,-646.63C1405.07,-641.69 1905,-621.36 1905,-554 1905,-554 1905,-554 1905,-93 1905,-24.78 1399.83,-19.47 1224.83,-19.67"/>
<polygon fill="red" stroke="red" points="1224.77,-16.17 1214.77,-19.69 1224.78,-23.17 1224.77,-16.17"/>
<text text-anchor="middle" x="1938" y="-316" font-family="Times,serif" font-size="10.00" fill="red">1.1.7</text>
<text text-anchor="middle" x="1938" y="-305" font-family="Times,serif" font-size="10.00" fill="red">(latest: 1.2.0)</text>
</g>
<!-- roo_windows&#45;&gt;roo_time -->
<g id="edge57" class="edge">
<title>roo_windows&#45;&gt;roo_time</title>
<path fill="none" stroke="red" d="M1127.4,-646.93C980.15,-643.77 577.15,-633.4 446,-612 381.29,-601.44 357.17,-610.37 304,-572 169.42,-474.89 137.88,-344.04 230,-206 265.36,-153.02 334.84,-123.01 382.34,-107.89"/>
<polygon fill="red" stroke="red" points="383.6,-111.16 392.13,-104.88 381.54,-104.47 383.6,-111.16"/>
<text text-anchor="middle" x="212" y="-364" font-family="Times,serif" font-size="10.00" fill="red">1.3.2</text>
<text text-anchor="middle" x="212" y="-353" font-family="Times,serif" font-size="10.00" fill="red">(latest: 1.4.0)</text>
</g>
<!-- roo_windows_wifi -->
<g id="node25" class="node">
<title>roo_windows_wifi</title>
<polygon fill="plum" stroke="black" points="1252.5,-743 1111.5,-743 1111.5,-705 1252.5,-705 1252.5,-743"/>
<text text-anchor="middle" x="1182" y="-727.8" font-family="Times,serif" font-size="14.00">roo_windows_wifi</text>
<text text-anchor="middle" x="1182" y="-712.8" font-family="Times,serif" font-size="14.00">1.1.2</text>
</g>
<!-- roo_windows_wifi&#45;&gt;roo_testing -->
<g id="edge58" class="edge">
<title>roo_windows_wifi&#45;&gt;roo_testing</title>
<path fill="none" stroke="red" d="M1252.64,-720.25C1448.84,-712.16 1986,-686.66 1986,-650 1986,-650 1986,-650 1986,-93 1986,-32.5 1914.69,-65.86 1855,-56 1734.52,-36.09 1368.88,-25.06 1225.03,-21.39"/>
<polygon fill="red" stroke="red" points="1224.74,-17.88 1214.66,-21.13 1224.56,-24.88 1224.74,-17.88"/>
<text text-anchor="middle" x="2019" y="-364" font-family="Times,serif" font-size="10.00" fill="red">1.1.7</text>
<text text-anchor="middle" x="2019" y="-353" font-family="Times,serif" font-size="10.00" fill="red">(latest: 1.2.0)</text>
</g>
<!-- roo_windows_wifi&#45;&gt;roo_wifi -->
<g id="edge59" class="edge">
<title>roo_windows_wifi&#45;&gt;roo_wifi</title>
<path fill="none" stroke="red" d="M1111.19,-717.76C988.65,-706.27 731.89,-671.42 541,-572 493.67,-547.35 445.45,-508.32 416.37,-482.94"/>
<polygon fill="red" stroke="red" points="418.51,-480.16 408.7,-476.16 413.88,-485.4 418.51,-480.16"/>
<text text-anchor="middle" x="662" y="-604" font-family="Times,serif" font-size="10.00" fill="red">1.1.1</text>
<text text-anchor="middle" x="662" y="-593" font-family="Times,serif" font-size="10.00" fill="red">(latest: 1.1.2)</text>
</g>
<!-- roo_windows_wifi&#45;&gt;roo_windows -->
<g id="edge60" class="edge">
<title>roo_windows_wifi&#45;&gt;roo_windows</title>
<path fill="none" stroke="black" d="M1182,-704.96C1182,-696.88 1182,-687.18 1182,-678.18"/>
<polygon fill="black" stroke="black" points="1185.5,-678.09 1182,-668.09 1178.5,-678.09 1185.5,-678.09"/>
</g>
</g>
</svg>
