<?xml version="1.0" encoding="UTF-8" standalone="no"?>
<!DOCTYPE svg PUBLIC "-//W3C//DTD SVG 1.1//EN"
 "http://www.w3.org/Graphics/SVG/1.1/DTD/svg11.dtd">
<!-- Generated by graphviz version 2.42.4 (0)
 -->
<!-- Title: dependencies Pages: 1 -->
<svg width="1518pt" height="751pt"
 viewBox="0.00 0.00 1517.50 751.00" xmlns="http://www.w3.org/2000/svg" xmlns:xlink="http://www.w3.org/1999/xlink">
<g id="graph0" class="graph" transform="scale(1 1) rotate(0) translate(4 747)">
<title>dependencies</title>
<polygon fill="white" stroke="transparent" points="-4,4 -4,-747 1513.5,-747 1513.5,4 -4,4"/>
<!-- roo_backport -->
<g id="node1" class="node">
<title>roo_backport</title>
<polygon fill="#b1dbab" stroke="black" points="833,-38 723,-38 723,0 833,0 833,-38"/>
<text text-anchor="middle" x="778" y="-22.8" font-family="Times,serif" font-size="14.00">roo_backport</text>
<text text-anchor="middle" x="778" y="-7.8" font-family="Times,serif" font-size="14.00">1.2.4</text>
</g>
<!-- roo_blink -->
<g id="node2" class="node">
<title>roo_blink</title>
<polygon fill="khaki" stroke="red" points="82,-551 0,-551 0,-513 82,-513 82,-551"/>
<text text-anchor="middle" x="41" y="-535.8" font-family="Times,serif" font-size="14.00">roo_blink</text>
<text text-anchor="middle" x="41" y="-520.8" font-family="Times,serif" font-size="14.00">1.0.7</text>
</g>
<!-- roo_logging -->
<g id="node15" class="node">
<title>roo_logging</title>
<polygon fill="#b1dbab" stroke="black" points="419,-263 319,-263 319,-225 419,-225 419,-263"/>
<text text-anchor="middle" x="369" y="-247.8" font-family="Times,serif" font-size="14.00">roo_logging</text>
<text text-anchor="middle" x="369" y="-232.8" font-family="Times,serif" font-size="14.00">1.5.10</text>
</g>
<!-- roo_blink&#45;&gt;roo_logging -->
<g id="edge1" class="edge">
<title>roo_blink&#45;&gt;roo_logging</title>
<path fill="none" stroke="red" d="M33.45,-513C21.84,-482.19 3.74,-418.67 32,-377 93.93,-285.67 229.48,-257.53 308.5,-248.86"/>
<polygon fill="red" stroke="red" points="309.2,-252.3 318.79,-247.8 308.49,-245.34 309.2,-252.3"/>
<text text-anchor="middle" x="68" y="-391" font-family="Times,serif" font-size="10.00" fill="red">1.5.8</text>
<text text-anchor="middle" x="68" y="-380" font-family="Times,serif" font-size="10.00" fill="red">(latest: 1.5.10)</text>
</g>
<!-- roo_scheduler -->
<g id="node21" class="node">
<title>roo_scheduler</title>
<polygon fill="khaki" stroke="red" points="819,-455 703,-455 703,-417 819,-417 819,-455"/>
<text text-anchor="middle" x="761" y="-439.8" font-family="Times,serif" font-size="14.00">roo_scheduler</text>
<text text-anchor="middle" x="761" y="-424.8" font-family="Times,serif" font-size="14.00">2.1.10</text>
</g>
<!-- roo_blink&#45;&gt;roo_scheduler -->
<g id="edge2" class="edge">
<title>roo_blink&#45;&gt;roo_scheduler</title>
<path fill="none" stroke="black" d="M82.18,-516.47C86.81,-515.16 91.48,-513.96 96,-513 266,-476.88 311.97,-489.35 485,-473 574.65,-464.53 600.43,-470.7 692.63,-455.06"/>
<polygon fill="black" stroke="black" points="693.42,-458.48 702.67,-453.32 692.22,-451.58 693.42,-458.48"/>
</g>
<!-- roo_collections -->
<g id="node3" class="node">
<title>roo_collections</title>
<polygon fill="#b1dbab" stroke="black" points="906,-359 784,-359 784,-321 906,-321 906,-359"/>
<text text-anchor="middle" x="845" y="-343.8" font-family="Times,serif" font-size="14.00">roo_collections</text>
<text text-anchor="middle" x="845" y="-328.8" font-family="Times,serif" font-size="14.00">1.4.7</text>
</g>
<!-- roo_collections&#45;&gt;roo_backport -->
<g id="edge4" class="edge">
<title>roo_collections&#45;&gt;roo_backport</title>
<path fill="none" stroke="black" d="M841.89,-320.69C838.96,-301.79 835,-271.42 835,-245 835,-245 835,-245 835,-93 835,-74.45 823.43,-57.8 810.71,-45.09"/>
<polygon fill="black" stroke="black" points="812.88,-42.33 803.17,-38.09 808.11,-47.46 812.88,-42.33"/>
</g>
<!-- roo_testing -->
<g id="node22" class="node">
<title>roo_testing</title>
<polygon fill="#b1dbab" stroke="black" points="954.5,-38 857.5,-38 857.5,0 954.5,0 954.5,-38"/>
<text text-anchor="middle" x="906" y="-22.8" font-family="Times,serif" font-size="14.00">roo_testing</text>
<text text-anchor="middle" x="906" y="-7.8" font-family="Times,serif" font-size="14.00">2.1.2</text>
</g>
<!-- roo_collections&#45;&gt;roo_testing -->
<g id="edge3" class="edge">
<title>roo_collections&#45;&gt;roo_testing</title>
<path fill="none" stroke="black" d="M860.98,-320.77C880.51,-296.54 911,-251.58 911,-207 911,-207 911,-207 911,-93 911,-78.27 909.97,-61.9 908.85,-48.4"/>
<polygon fill="black" stroke="black" points="912.32,-47.93 907.95,-38.28 905.35,-48.55 912.32,-47.93"/>
</g>
<!-- roo_comms -->
<g id="node4" class="node">
<title>roo_comms</title>
<polygon fill="khaki" stroke="red" points="232.5,-743 135.5,-743 135.5,-705 232.5,-705 232.5,-743"/>
<text text-anchor="middle" x="184" y="-727.8" font-family="Times,serif" font-size="14.00">roo_comms</text>
<text text-anchor="middle" x="184" y="-712.8" font-family="Times,serif" font-size="14.00">1.1.5</text>
</g>
<!-- roo_comms&#45;&gt;roo_blink -->
<g id="edge5" class="edge">
<title>roo_comms&#45;&gt;roo_blink</title>
<path fill="none" stroke="black" d="M135.39,-708.16C124,-702.9 112.68,-695.98 104,-687 69.77,-651.57 53.19,-595 45.93,-561.18"/>
<polygon fill="black" stroke="black" points="49.3,-560.17 43.89,-551.06 42.44,-561.55 49.3,-560.17"/>
</g>
<!-- roo_control -->
<g id="node5" class="node">
<title>roo_control</title>
<polygon fill="khaki" stroke="red" points="299.5,-551 202.5,-551 202.5,-513 299.5,-513 299.5,-551"/>
<text text-anchor="middle" x="251" y="-535.8" font-family="Times,serif" font-size="14.00">roo_control</text>
<text text-anchor="middle" x="251" y="-520.8" font-family="Times,serif" font-size="14.00">1.2.6</text>
</g>
<!-- roo_comms&#45;&gt;roo_control -->
<g id="edge6" class="edge">
<title>roo_comms&#45;&gt;roo_control</title>
<path fill="none" stroke="black" d="M190.42,-704.78C202.21,-671.37 227.33,-600.13 241.24,-560.69"/>
<polygon fill="black" stroke="black" points="244.57,-561.76 244.6,-551.16 237.97,-559.43 244.57,-561.76"/>
</g>
<!-- roo_io -->
<g id="node13" class="node">
<title>roo_io</title>
<polygon fill="#b1dbab" stroke="black" points="398.5,-359 339.5,-359 339.5,-321 398.5,-321 398.5,-359"/>
<text text-anchor="middle" x="369" y="-343.8" font-family="Times,serif" font-size="14.00">roo_io</text>
<text text-anchor="middle" x="369" y="-328.8" font-family="Times,serif" font-size="14.00">2.3.0</text>
</g>
<!-- roo_comms&#45;&gt;roo_io -->
<g id="edge7" class="edge">
<title>roo_comms&#45;&gt;roo_io</title>
<path fill="none" stroke="red" d="M160.92,-704.75C141.88,-687.49 118,-659.71 118,-629 118,-629 118,-629 118,-435 118,-423.37 126.92,-422.8 137,-417 213.24,-373.11 246.81,-391.45 329.84,-360.41"/>
<polygon fill="red" stroke="red" points="331.33,-363.59 339.39,-356.71 328.8,-357.06 331.33,-363.59"/>
<text text-anchor="middle" x="151" y="-535" font-family="Times,serif" font-size="10.00" fill="red">2.2.7</text>
<text text-anchor="middle" x="151" y="-524" font-family="Times,serif" font-size="10.00" fill="red">(latest: 2.3.0)</text>
</g>
<!-- roo_transceivers -->
<g id="node26" class="node">
<title>roo_transceivers</title>
<polygon fill="khaki" stroke="red" points="747.5,-647 612.5,-647 612.5,-609 747.5,-609 747.5,-647"/>
<text text-anchor="middle" x="680" y="-631.8" font-family="Times,serif" font-size="14.00">roo_transceivers</text>
<text text-anchor="middle" x="680" y="-616.8" font-family="Times,serif" font-size="14.00">1.1.7</text>
</g>
<!-- roo_comms&#45;&gt;roo_transceivers -->
<g id="edge8" class="edge">
<title>roo_comms&#45;&gt;roo_transceivers</title>
<path fill="none" stroke="black" d="M232.92,-713.73C319.13,-697.39 498.77,-663.35 602.17,-643.75"/>
<polygon fill="black" stroke="black" points="603.07,-647.14 612.24,-641.84 601.77,-640.26 603.07,-647.14"/>
</g>
<!-- roo_quantity -->
<g id="node20" class="node">
<title>roo_quantity</title>
<polygon fill="khaki" stroke="red" points="253.5,-455 146.5,-455 146.5,-417 253.5,-417 253.5,-455"/>
<text text-anchor="middle" x="200" y="-439.8" font-family="Times,serif" font-size="14.00">roo_quantity</text>
<text text-anchor="middle" x="200" y="-424.8" font-family="Times,serif" font-size="14.00">1.1.9</text>
</g>
<!-- roo_control&#45;&gt;roo_quantity -->
<g id="edge9" class="edge">
<title>roo_control&#45;&gt;roo_quantity</title>
<path fill="none" stroke="black" d="M241.17,-512.88C233.69,-499.09 223.27,-479.9 214.79,-464.26"/>
<polygon fill="black" stroke="black" points="217.65,-462.19 209.8,-455.07 211.5,-465.53 217.65,-462.19"/>
</g>
<!-- roo_control&#45;&gt;roo_scheduler -->
<g id="edge10" class="edge">
<title>roo_control&#45;&gt;roo_scheduler</title>
<path fill="none" stroke="black" d="M299.79,-524.14C379.86,-512.55 544.26,-487.38 692.77,-455.17"/>
<polygon fill="black" stroke="black" points="693.95,-458.5 702.98,-452.94 692.46,-451.66 693.95,-458.5"/>
</g>
<!-- roo_dashboard -->
<g id="node6" class="node">
<title>roo_dashboard</title>
<polygon fill="khaki" stroke="red" points="1074,-743 952,-743 952,-705 1074,-705 1074,-743"/>
<text text-anchor="middle" x="1013" y="-727.8" font-family="Times,serif" font-size="14.00">roo_dashboard</text>
<text text-anchor="middle" x="1013" y="-712.8" font-family="Times,serif" font-size="14.00">1.0.1</text>
</g>
<!-- roo_windows -->
<g id="node29" class="node">
<title>roo_windows</title>
<polygon fill="khaki" stroke="red" points="990.5,-647 881.5,-647 881.5,-609 990.5,-609 990.5,-647"/>
<text text-anchor="middle" x="936" y="-631.8" font-family="Times,serif" font-size="14.00">roo_windows</text>
<text text-anchor="middle" x="936" y="-616.8" font-family="Times,serif" font-size="14.00">1.6.1</text>
</g>
<!-- roo_dashboard&#45;&gt;roo_windows -->
<g id="edge11" class="edge">
<title>roo_dashboard&#45;&gt;roo_windows</title>
<path fill="none" stroke="red" d="M1003.55,-704.82C996.93,-692.9 987.42,-677.3 977,-665 973.87,-661.31 970.36,-657.66 966.75,-654.18"/>
<polygon fill="red" stroke="red" points="969,-651.5 959.26,-647.32 964.27,-656.66 969,-651.5"/>
<text text-anchor="middle" x="1025" y="-679" font-family="Times,serif" font-size="10.00" fill="red">1.4.1</text>
<text text-anchor="middle" x="1025" y="-668" font-family="Times,serif" font-size="10.00" fill="red">(latest: 1.6.1)</text>
</g>
<!-- roo_display -->
<g id="node7" class="node">
<title>roo_display</title>
<polygon fill="lightblue" stroke="red" points="1136,-455 1038,-455 1038,-417 1136,-417 1136,-455"/>
<text text-anchor="middle" x="1087" y="-439.8" font-family="Times,serif" font-size="14.00">roo_display</text>
<text text-anchor="middle" x="1087" y="-424.8" font-family="Times,serif" font-size="14.00">3.2.2</text>
</g>
<!-- roo_display&#45;&gt;roo_collections -->
<g id="edge12" class="edge">
<title>roo_display&#45;&gt;roo_collections</title>
<path fill="none" stroke="red" d="M1040.63,-416.99C1000.82,-401.52 943.33,-379.19 900.97,-362.74"/>
<polygon fill="red" stroke="red" points="902.22,-359.47 891.63,-359.11 899.68,-366 902.22,-359.47"/>
<text text-anchor="middle" x="1020" y="-391" font-family="Times,serif" font-size="10.00" fill="red">1.4.6</text>
<text text-anchor="middle" x="1020" y="-380" font-family="Times,serif" font-size="10.00" fill="red">(latest: 1.4.7)</text>
</g>
<!-- roo_display&#45;&gt;roo_io -->
<g id="edge13" class="edge">
<title>roo_display&#45;&gt;roo_io</title>
<path fill="none" stroke="red" d="M1037.85,-431.34C985.76,-427.52 901.11,-421.48 828,-417 790.24,-414.69 521.97,-415.65 488,-399 476.4,-393.31 479.65,-384.32 469,-377 450.87,-364.54 427.94,-355.88 408.61,-350.18"/>
<polygon fill="red" stroke="red" points="409.45,-346.78 398.87,-347.47 407.57,-353.52 409.45,-346.78"/>
<text text-anchor="middle" x="521" y="-391" font-family="Times,serif" font-size="10.00" fill="red">2.2.7</text>
<text text-anchor="middle" x="521" y="-380" font-family="Times,serif" font-size="10.00" fill="red">(latest: 2.3.0)</text>
</g>
<!-- roo_display_lvgl -->
<g id="node8" class="node">
<title>roo_display_lvgl</title>
<polygon fill="khaki" stroke="red" points="1096.5,-551 965.5,-551 965.5,-513 1096.5,-513 1096.5,-551"/>
<text text-anchor="middle" x="1031" y="-535.8" font-family="Times,serif" font-size="14.00">roo_display_lvgl</text>
<text text-anchor="middle" x="1031" y="-520.8" font-family="Times,serif" font-size="14.00">1.0.0</text>
</g>
<!-- roo_display_lvgl&#45;&gt;roo_display -->
<g id="edge14" class="edge">
<title>roo_display_lvgl&#45;&gt;roo_display</title>
<path fill="none" stroke="red" d="M1036.27,-512.94C1040.18,-501.07 1046.18,-485.48 1054,-473 1056.12,-469.62 1058.57,-466.27 1061.16,-463.05"/>
<polygon fill="red" stroke="red" points="1063.91,-465.22 1067.79,-455.37 1058.61,-460.65 1063.91,-465.22"/>
<text text-anchor="middle" x="1087" y="-487" font-family="Times,serif" font-size="10.00" fill="red">3.0.3</text>
<text text-anchor="middle" x="1087" y="-476" font-family="Times,serif" font-size="10.00" fill="red">(latest: 3.2.2)</text>
</g>
<!-- roo_flags -->
<g id="node9" class="node">
<title>roo_flags</title>
<polygon fill="#b1dbab" stroke="black" points="409,-188 329,-188 329,-150 409,-150 409,-188"/>
<text text-anchor="middle" x="369" y="-172.8" font-family="Times,serif" font-size="14.00">roo_flags</text>
<text text-anchor="middle" x="369" y="-157.8" font-family="Times,serif" font-size="14.00">1.2.5</text>
</g>
<!-- roo_fonts_basic -->
<g id="node10" class="node">
<title>roo_fonts_basic</title>
<polygon fill="khaki" stroke="red" points="1342,-551 1216,-551 1216,-513 1342,-513 1342,-551"/>
<text text-anchor="middle" x="1279" y="-535.8" font-family="Times,serif" font-size="14.00">roo_fonts_basic</text>
<text text-anchor="middle" x="1279" y="-520.8" font-family="Times,serif" font-size="14.00">1.0.4</text>
</g>
<!-- roo_fonts_basic&#45;&gt;roo_display -->
<g id="edge15" class="edge">
<title>roo_fonts_basic&#45;&gt;roo_display</title>
<path fill="none" stroke="black" d="M1241.98,-512.88C1210.9,-497.66 1166.36,-475.85 1133,-459.52"/>
<polygon fill="black" stroke="black" points="1134.43,-456.32 1123.91,-455.07 1131.35,-462.61 1134.43,-456.32"/>
</g>
<!-- roo_fonts_material -->
<g id="node11" class="node">
<title>roo_fonts_material</title>
<polygon fill="khaki" stroke="red" points="1509.5,-551 1360.5,-551 1360.5,-513 1509.5,-513 1509.5,-551"/>
<text text-anchor="middle" x="1435" y="-535.8" font-family="Times,serif" font-size="14.00">roo_fonts_material</text>
<text text-anchor="middle" x="1435" y="-520.8" font-family="Times,serif" font-size="14.00">1.1.1</text>
</g>
<!-- roo_fonts_material&#45;&gt;roo_display -->
<g id="edge16" class="edge">
<title>roo_fonts_material&#45;&gt;roo_display</title>
<path fill="none" stroke="black" d="M1368.31,-512.99C1304,-495.62 1207.6,-469.58 1146.01,-452.94"/>
<polygon fill="black" stroke="black" points="1146.63,-449.48 1136.06,-450.25 1144.8,-456.24 1146.63,-449.48"/>
</g>
<!-- roo_icons -->
<g id="node12" class="node">
<title>roo_icons</title>
<polygon fill="khaki" stroke="red" points="1197.5,-551 1114.5,-551 1114.5,-513 1197.5,-513 1197.5,-551"/>
<text text-anchor="middle" x="1156" y="-535.8" font-family="Times,serif" font-size="14.00">roo_icons</text>
<text text-anchor="middle" x="1156" y="-520.8" font-family="Times,serif" font-size="14.00">1.2.4</text>
</g>
<!-- roo_icons&#45;&gt;roo_display -->
<g id="edge17" class="edge">
<title>roo_icons&#45;&gt;roo_display</title>
<path fill="none" stroke="black" d="M1145.95,-512.92C1139.15,-501.18 1129.67,-485.75 1120,-473 1117.41,-469.58 1114.55,-466.1 1111.63,-462.73"/>
<polygon fill="black" stroke="black" points="1114.09,-460.23 1104.82,-455.11 1108.87,-464.9 1114.09,-460.23"/>
</g>
<!-- roo_io&#45;&gt;roo_logging -->
<g id="edge18" class="edge">
<title>roo_io&#45;&gt;roo_logging</title>
<path fill="none" stroke="black" d="M369,-320.88C369,-307.35 369,-288.62 369,-273.15"/>
<polygon fill="black" stroke="black" points="372.5,-273.07 369,-263.07 365.5,-273.07 372.5,-273.07"/>
</g>
<!-- roo_locale -->
<g id="node14" class="node">
<title>roo_locale</title>
<polygon fill="#b1dbab" stroke="black" points="947,-551 859,-551 859,-513 947,-513 947,-551"/>
<text text-anchor="middle" x="903" y="-535.8" font-family="Times,serif" font-size="14.00">roo_locale</text>
<text text-anchor="middle" x="903" y="-520.8" font-family="Times,serif" font-size="14.00">1.1.4</text>
</g>
<!-- roo_logging&#45;&gt;roo_flags -->
<g id="edge19" class="edge">
<title>roo_logging&#45;&gt;roo_flags</title>
<path fill="none" stroke="black" d="M369,-224.96C369,-216.88 369,-207.18 369,-198.18"/>
<polygon fill="black" stroke="black" points="372.5,-198.09 369,-188.09 365.5,-198.09 372.5,-198.09"/>
</g>
<!-- roo_threads -->
<g id="node23" class="node">
<title>roo_threads</title>
<polygon fill="#b1dbab" stroke="black" points="798.5,-188 697.5,-188 697.5,-150 798.5,-150 798.5,-188"/>
<text text-anchor="middle" x="748" y="-172.8" font-family="Times,serif" font-size="14.00">roo_threads</text>
<text text-anchor="middle" x="748" y="-157.8" font-family="Times,serif" font-size="14.00">1.2.8</text>
</g>
<!-- roo_logging&#45;&gt;roo_threads -->
<g id="edge20" class="edge">
<title>roo_logging&#45;&gt;roo_threads</title>
<path fill="none" stroke="black" d="M419.33,-233.31C488.56,-219.97 613.03,-196 687.32,-181.69"/>
<polygon fill="black" stroke="black" points="688.31,-185.06 697.46,-179.73 686.98,-178.19 688.31,-185.06"/>
</g>
<!-- roo_monitoring -->
<g id="node16" class="node">
<title>roo_monitoring</title>
<polygon fill="khaki" stroke="red" points="396.5,-455 271.5,-455 271.5,-417 396.5,-417 396.5,-455"/>
<text text-anchor="middle" x="334" y="-439.8" font-family="Times,serif" font-size="14.00">roo_monitoring</text>
<text text-anchor="middle" x="334" y="-424.8" font-family="Times,serif" font-size="14.00">1.1.3</text>
</g>
<!-- roo_monitoring&#45;&gt;roo_collections -->
<g id="edge21" class="edge">
<title>roo_monitoring&#45;&gt;roo_collections</title>
<path fill="none" stroke="red" d="M396.73,-418.82C399.85,-418.17 402.96,-417.56 406,-417 472.91,-404.73 495.13,-424.98 558,-399 572.63,-392.95 571.44,-383.19 586,-377 646.05,-351.47 720.32,-343.26 773.91,-340.97"/>
<polygon fill="red" stroke="red" points="774.13,-344.46 784,-340.59 773.88,-337.47 774.13,-344.46"/>
<text text-anchor="middle" x="619" y="-391" font-family="Times,serif" font-size="10.00" fill="red">1.4.6</text>
<text text-anchor="middle" x="619" y="-380" font-family="Times,serif" font-size="10.00" fill="red">(latest: 1.4.7)</text>
</g>
<!-- roo_monitoring&#45;&gt;roo_io -->
<g id="edge22" class="edge">
<title>roo_monitoring&#45;&gt;roo_io</title>
<path fill="none" stroke="red" d="M303.43,-416.8C297.6,-411.81 292.29,-405.85 289,-399 284.76,-390.19 283.69,-385.21 289,-377 298.09,-362.94 314.12,-354.32 329.46,-349.06"/>
<polygon fill="red" stroke="red" points="330.8,-352.31 339.36,-346.06 328.78,-345.61 330.8,-352.31"/>
<text text-anchor="middle" x="322" y="-391" font-family="Times,serif" font-size="10.00" fill="red">2.2.7</text>
<text text-anchor="middle" x="322" y="-380" font-family="Times,serif" font-size="10.00" fill="red">(latest: 2.3.0)</text>
</g>
<!-- roo_onewire -->
<g id="node17" class="node">
<title>roo_onewire</title>
<polygon fill="khaki" stroke="red" points="636,-551 532,-551 532,-513 636,-513 636,-551"/>
<text text-anchor="middle" x="584" y="-535.8" font-family="Times,serif" font-size="14.00">roo_onewire</text>
<text text-anchor="middle" x="584" y="-520.8" font-family="Times,serif" font-size="14.00">2.0.10</text>
</g>
<!-- roo_onewire&#45;&gt;roo_quantity -->
<g id="edge24" class="edge">
<title>roo_onewire&#45;&gt;roo_quantity</title>
<path fill="none" stroke="black" d="M531.93,-519.57C470.09,-505.79 363.63,-481.49 263.4,-455.32"/>
<polygon fill="black" stroke="black" points="264.28,-451.93 253.72,-452.78 262.51,-458.7 264.28,-451.93"/>
</g>
<!-- roo_onewire&#45;&gt;roo_scheduler -->
<g id="edge23" class="edge">
<title>roo_onewire&#45;&gt;roo_scheduler</title>
<path fill="none" stroke="black" d="M618.13,-512.88C646.53,-497.79 687.14,-476.23 717.8,-459.94"/>
<polygon fill="black" stroke="black" points="719.79,-462.85 726.98,-455.07 716.5,-456.67 719.79,-462.85"/>
</g>
<!-- roo_powersafefs -->
<g id="node18" class="node">
<title>roo_powersafefs</title>
<polygon fill="#b1dbab" stroke="black" points="806.5,-263 673.5,-263 673.5,-225 806.5,-225 806.5,-263"/>
<text text-anchor="middle" x="740" y="-247.8" font-family="Times,serif" font-size="14.00">roo_powersafefs</text>
<text text-anchor="middle" x="740" y="-232.8" font-family="Times,serif" font-size="14.00">1.0.2</text>
</g>
<!-- roo_powersafefs&#45;&gt;roo_threads -->
<g id="edge25" class="edge">
<title>roo_powersafefs&#45;&gt;roo_threads</title>
<path fill="none" stroke="black" d="M741.98,-224.96C742.86,-216.88 743.93,-207.18 744.91,-198.18"/>
<polygon fill="black" stroke="black" points="748.41,-198.41 746.02,-188.09 741.45,-197.65 748.41,-198.41"/>
</g>
<!-- roo_prefs -->
<g id="node19" class="node">
<title>roo_prefs</title>
<polygon fill="khaki" stroke="red" points="802.5,-551 719.5,-551 719.5,-513 802.5,-513 802.5,-551"/>
<text text-anchor="middle" x="761" y="-535.8" font-family="Times,serif" font-size="14.00">roo_prefs</text>
<text text-anchor="middle" x="761" y="-520.8" font-family="Times,serif" font-size="14.00">1.3.1</text>
</g>
<!-- roo_prefs&#45;&gt;roo_logging -->
<g id="edge26" class="edge">
<title>roo_prefs&#45;&gt;roo_logging</title>
<path fill="none" stroke="red" d="M784.11,-512.81C799.8,-498.9 819.23,-478.2 828,-455 840.26,-422.55 846.87,-403.93 825,-377 818.6,-369.11 551.46,-295.05 429.09,-261.44"/>
<polygon fill="red" stroke="red" points="429.7,-257.98 419.13,-258.71 427.84,-264.73 429.7,-257.98"/>
<text text-anchor="middle" x="873" y="-391" font-family="Times,serif" font-size="10.00" fill="red">1.5.8</text>
<text text-anchor="middle" x="873" y="-380" font-family="Times,serif" font-size="10.00" fill="red">(latest: 1.5.10)</text>
</g>
<!-- roo_prefs&#45;&gt;roo_scheduler -->
<g id="edge27" class="edge">
<title>roo_prefs&#45;&gt;roo_scheduler</title>
<path fill="none" stroke="black" d="M761,-512.88C761,-499.35 761,-480.62 761,-465.15"/>
<polygon fill="black" stroke="black" points="764.5,-465.07 761,-455.07 757.5,-465.07 764.5,-465.07"/>
</g>
<!-- roo_quantity&#45;&gt;roo_logging -->
<g id="edge28" class="edge">
<title>roo_quantity&#45;&gt;roo_logging</title>
<path fill="none" stroke="red" d="M206.04,-416.75C214.67,-392.75 232.36,-350.2 258,-321 276.69,-299.71 302.59,-281.54 324.66,-268.3"/>
<polygon fill="red" stroke="red" points="326.67,-271.18 333.54,-263.12 323.14,-265.14 326.67,-271.18"/>
<text text-anchor="middle" x="294" y="-343" font-family="Times,serif" font-size="10.00" fill="red">1.5.8</text>
<text text-anchor="middle" x="294" y="-332" font-family="Times,serif" font-size="10.00" fill="red">(latest: 1.5.10)</text>
</g>
<!-- roo_scheduler&#45;&gt;roo_collections -->
<g id="edge29" class="edge">
<title>roo_scheduler&#45;&gt;roo_collections</title>
<path fill="none" stroke="red" d="M755.21,-416.77C752.48,-404.53 751.3,-388.58 759,-377 763.19,-370.7 768.72,-365.5 774.96,-361.21"/>
<polygon fill="red" stroke="red" points="777.05,-364.04 783.85,-355.9 773.47,-358.03 777.05,-364.04"/>
<text text-anchor="middle" x="792" y="-391" font-family="Times,serif" font-size="10.00" fill="red">1.4.6</text>
<text text-anchor="middle" x="792" y="-380" font-family="Times,serif" font-size="10.00" fill="red">(latest: 1.4.7)</text>
</g>
<!-- roo_scheduler&#45;&gt;roo_threads -->
<g id="edge30" class="edge">
<title>roo_scheduler&#45;&gt;roo_threads</title>
<path fill="none" stroke="red" d="M819.21,-429.39C859.24,-424.19 907.37,-414.81 920,-399 978.81,-325.39 856.32,-235.28 788.7,-193.43"/>
<polygon fill="red" stroke="red" points="790.31,-190.31 779.95,-188.09 786.66,-196.29 790.31,-190.31"/>
<text text-anchor="middle" x="947" y="-295" font-family="Times,serif" font-size="10.00" fill="red">1.2.7</text>
<text text-anchor="middle" x="947" y="-284" font-family="Times,serif" font-size="10.00" fill="red">(latest: 1.2.8)</text>
</g>
<!-- roo_time -->
<g id="node24" class="node">
<title>roo_time</title>
<polygon fill="#b1dbab" stroke="black" points="806.5,-113 727.5,-113 727.5,-75 806.5,-75 806.5,-113"/>
<text text-anchor="middle" x="767" y="-97.8" font-family="Times,serif" font-size="14.00">roo_time</text>
<text text-anchor="middle" x="767" y="-82.8" font-family="Times,serif" font-size="14.00">2.0.0</text>
</g>
<!-- roo_threads&#45;&gt;roo_time -->
<g id="edge31" class="edge">
<title>roo_threads&#45;&gt;roo_time</title>
<path fill="none" stroke="black" d="M752.7,-149.96C754.82,-141.8 757.38,-131.97 759.74,-122.89"/>
<polygon fill="black" stroke="black" points="763.16,-123.65 762.29,-113.09 756.39,-121.89 763.16,-123.65"/>
</g>
<!-- roo_time&#45;&gt;roo_backport -->
<g id="edge33" class="edge">
<title>roo_time&#45;&gt;roo_backport</title>
<path fill="none" stroke="black" d="M769.72,-74.96C770.94,-66.88 772.4,-57.18 773.75,-48.18"/>
<polygon fill="black" stroke="black" points="777.24,-48.5 775.27,-38.09 770.32,-47.46 777.24,-48.5"/>
</g>
<!-- roo_time&#45;&gt;roo_testing -->
<g id="edge32" class="edge">
<title>roo_time&#45;&gt;roo_testing</title>
<path fill="none" stroke="black" d="M801.36,-74.96C819.82,-65.26 842.77,-53.21 862.47,-42.86"/>
<polygon fill="black" stroke="black" points="864.33,-45.84 871.55,-38.09 861.07,-39.64 864.33,-45.84"/>
</g>
<!-- roo_time_ds3231 -->
<g id="node25" class="node">
<title>roo_time_ds3231</title>
<polygon fill="#b1dbab" stroke="black" points="553,-455 415,-455 415,-417 553,-417 553,-455"/>
<text text-anchor="middle" x="484" y="-439.8" font-family="Times,serif" font-size="14.00">roo_time_ds3231</text>
<text text-anchor="middle" x="484" y="-424.8" font-family="Times,serif" font-size="14.00">2.0.0</text>
</g>
<!-- roo_time_ds3231&#45;&gt;roo_io -->
<g id="edge34" class="edge">
<title>roo_time_ds3231&#45;&gt;roo_io</title>
<path fill="none" stroke="black" d="M414.81,-420.72C402.89,-415.57 391.59,-408.55 383,-399 375.67,-390.86 372.01,-379.54 370.24,-369.07"/>
<polygon fill="black" stroke="black" points="373.7,-368.53 369.02,-359.02 366.75,-369.37 373.7,-368.53"/>
</g>
<!-- roo_transceivers&#45;&gt;roo_prefs -->
<g id="edge35" class="edge">
<title>roo_transceivers&#45;&gt;roo_prefs</title>
<path fill="none" stroke="black" d="M695.62,-608.88C707.83,-594.7 724.98,-574.81 738.64,-558.94"/>
<polygon fill="black" stroke="black" points="741.55,-560.93 745.43,-551.07 736.25,-556.36 741.55,-560.93"/>
</g>
<!-- roo_transport -->
<g id="node27" class="node">
<title>roo_transport</title>
<polygon fill="khaki" stroke="red" points="685,-455 571,-455 571,-417 685,-417 685,-455"/>
<text text-anchor="middle" x="628" y="-439.8" font-family="Times,serif" font-size="14.00">roo_transport</text>
<text text-anchor="middle" x="628" y="-424.8" font-family="Times,serif" font-size="14.00">1.1.5</text>
</g>
<!-- roo_transport&#45;&gt;roo_collections -->
<g id="edge36" class="edge">
<title>roo_transport&#45;&gt;roo_collections</title>
<path fill="none" stroke="red" d="M640.6,-416.79C650.59,-403.73 665.73,-386.78 683,-377 710.47,-361.44 744.11,-352.61 773.6,-347.59"/>
<polygon fill="red" stroke="red" points="774.51,-350.99 783.84,-345.97 773.41,-344.08 774.51,-350.99"/>
<text text-anchor="middle" x="716" y="-391" font-family="Times,serif" font-size="10.00" fill="red">1.4.6</text>
<text text-anchor="middle" x="716" y="-380" font-family="Times,serif" font-size="10.00" fill="red">(latest: 1.4.7)</text>
</g>
<!-- roo_transport&#45;&gt;roo_io -->
<g id="edge37" class="edge">
<title>roo_transport&#45;&gt;roo_io</title>
<path fill="none" stroke="red" d="M570.89,-418.85C567.89,-418.18 564.92,-417.56 562,-417 527.08,-410.3 432.81,-418.39 403,-399 391.92,-391.79 383.98,-379.6 378.58,-368.26"/>
<polygon fill="red" stroke="red" points="381.79,-366.86 374.63,-359.05 375.36,-369.62 381.79,-366.86"/>
<text text-anchor="middle" x="436" y="-391" font-family="Times,serif" font-size="10.00" fill="red">2.2.7</text>
<text text-anchor="middle" x="436" y="-380" font-family="Times,serif" font-size="10.00" fill="red">(latest: 2.3.0)</text>
</g>
<!-- roo_wifi -->
<g id="node28" class="node">
<title>roo_wifi</title>
<polygon fill="khaki" stroke="red" points="840,-647 768,-647 768,-609 840,-609 840,-647"/>
<text text-anchor="middle" x="804" y="-631.8" font-family="Times,serif" font-size="14.00">roo_wifi</text>
<text text-anchor="middle" x="804" y="-616.8" font-family="Times,serif" font-size="14.00">1.1.5</text>
</g>
<!-- roo_wifi&#45;&gt;roo_prefs -->
<g id="edge38" class="edge">
<title>roo_wifi&#45;&gt;roo_prefs</title>
<path fill="none" stroke="black" d="M795.71,-608.88C789.4,-595.09 780.62,-575.9 773.47,-560.26"/>
<polygon fill="black" stroke="black" points="776.61,-558.71 769.27,-551.07 770.24,-561.62 776.61,-558.71"/>
</g>
<!-- roo_windows&#45;&gt;roo_fonts_basic -->
<g id="edge39" class="edge">
<title>roo_windows&#45;&gt;roo_fonts_basic</title>
<path fill="none" stroke="black" d="M990.73,-612C1049.02,-596.03 1141.58,-570.66 1206.03,-553"/>
<polygon fill="black" stroke="black" points="1207.01,-556.36 1215.73,-550.34 1205.16,-549.61 1207.01,-556.36"/>
</g>
<!-- roo_windows&#45;&gt;roo_fonts_material -->
<g id="edge40" class="edge">
<title>roo_windows&#45;&gt;roo_fonts_material</title>
<path fill="none" stroke="black" d="M990.81,-617.5C1068.38,-603.94 1214.85,-577.89 1350.23,-551.12"/>
<polygon fill="black" stroke="black" points="1351.24,-554.49 1360.37,-549.11 1349.88,-547.63 1351.24,-554.49"/>
</g>
<!-- roo_windows&#45;&gt;roo_icons -->
<g id="edge42" class="edge">
<title>roo_windows&#45;&gt;roo_icons</title>
<path fill="none" stroke="black" d="M978.16,-608.99C1014.27,-593.56 1066.4,-571.28 1104.89,-554.84"/>
<polygon fill="black" stroke="black" points="1106.54,-557.94 1114.36,-550.79 1103.79,-551.5 1106.54,-557.94"/>
</g>
<!-- roo_windows&#45;&gt;roo_locale -->
<g id="edge41" class="edge">
<title>roo_windows&#45;&gt;roo_locale</title>
<path fill="none" stroke="red" d="M929.64,-608.88C924.84,-595.22 918.19,-576.26 912.73,-560.71"/>
<polygon fill="red" stroke="red" points="915.96,-559.34 909.34,-551.07 909.35,-561.66 915.96,-559.34"/>
<text text-anchor="middle" x="955" y="-583" font-family="Times,serif" font-size="10.00" fill="red">1.1.3</text>
<text text-anchor="middle" x="955" y="-572" font-family="Times,serif" font-size="10.00" fill="red">(latest: 1.1.4)</text>
</g>
<!-- roo_windows&#45;&gt;roo_scheduler -->
<g id="edge43" class="edge">
<title>roo_windows&#45;&gt;roo_scheduler</title>
<path fill="none" stroke="black" d="M913.05,-608.7C895.1,-593.93 869.93,-572.19 850,-551 823.49,-522.82 796.65,-487.27 779.48,-463.42"/>
<polygon fill="black" stroke="black" points="782.27,-461.31 773.61,-455.2 776.58,-465.38 782.27,-461.31"/>
</g>
<!-- roo_windows_transceivers -->
<g id="node30" class="node">
<title>roo_windows_transceivers</title>
<polygon fill="khaki" stroke="red" points="774,-743 570,-743 570,-705 774,-705 774,-743"/>
<text text-anchor="middle" x="672" y="-727.8" font-family="Times,serif" font-size="14.00">roo_windows_transceivers</text>
<text text-anchor="middle" x="672" y="-712.8" font-family="Times,serif" font-size="14.00">1.0.0</text>
</g>
<!-- roo_windows_transceivers&#45;&gt;roo_onewire -->
<g id="edge44" class="edge">
<title>roo_windows_transceivers&#45;&gt;roo_onewire</title>
<path fill="none" stroke="black" d="M649.7,-704.76C634.06,-690.67 614.03,-669.77 603,-647 589.88,-619.91 585.61,-585.42 584.32,-561.51"/>
<polygon fill="black" stroke="black" points="587.81,-561.18 583.92,-551.33 580.82,-561.46 587.81,-561.18"/>
</g>
<!-- roo_windows_transceivers&#45;&gt;roo_transceivers -->
<g id="edge45" class="edge">
<title>roo_windows_transceivers&#45;&gt;roo_transceivers</title>
<path fill="none" stroke="black" d="M673.54,-704.88C674.69,-691.35 676.29,-672.62 677.6,-657.15"/>
<polygon fill="black" stroke="black" points="681.1,-657.33 678.46,-647.07 674.13,-656.74 681.1,-657.33"/>
</g>
<!-- roo_windows_transceivers&#45;&gt;roo_windows -->
<g id="edge46" class="edge">
<title>roo_windows_transceivers&#45;&gt;roo_windows</title>
<path fill="none" stroke="black" d="M711.97,-704.88C739.5,-692.77 777.08,-676.92 811,-665 830.5,-658.15 852.04,-651.59 871.66,-646"/>
<polygon fill="black" stroke="black" points="872.75,-649.33 881.43,-643.25 870.85,-642.59 872.75,-649.33"/>
</g>
<!-- roo_windows_wifi -->
<g id="node31" class="node">
<title>roo_windows_wifi</title>
<polygon fill="khaki" stroke="red" points="933.5,-743 792.5,-743 792.5,-705 933.5,-705 933.5,-743"/>
<text text-anchor="middle" x="863" y="-727.8" font-family="Times,serif" font-size="14.00">roo_windows_wifi</text>
<text text-anchor="middle" x="863" y="-712.8" font-family="Times,serif" font-size="14.00">1.1.3</text>
</g>
<!-- roo_windows_wifi&#45;&gt;roo_wifi -->
<g id="edge47" class="edge">
<title>roo_windows_wifi&#45;&gt;roo_wifi</title>
<path fill="none" stroke="red" d="M841.32,-704.98C835.79,-699.62 830.23,-693.44 826,-687 819.97,-677.82 815.26,-666.74 811.76,-656.74"/>
<polygon fill="red" stroke="red" points="815.09,-655.65 808.67,-647.21 808.43,-657.81 815.09,-655.65"/>
<text text-anchor="middle" x="859" y="-679" font-family="Times,serif" font-size="10.00" fill="red">1.1.3</text>
<text text-anchor="middle" x="859" y="-668" font-family="Times,serif" font-size="10.00" fill="red">(latest: 1.1.5)</text>
</g>
<!-- roo_windows_wifi&#45;&gt;roo_windows -->
<g id="edge48" class="edge">
<title>roo_windows_wifi&#45;&gt;roo_windows</title>
<path fill="none" stroke="red" d="M877.86,-704.77C882.43,-699.1 887.45,-692.82 892,-687 900.09,-676.65 908.86,-665.15 916.43,-655.14"/>
<polygon fill="red" stroke="red" points="919.24,-657.22 922.46,-647.13 913.65,-653.01 919.24,-657.22"/>
<text text-anchor="middle" x="940" y="-679" font-family="Times,serif" font-size="10.00" fill="red">1.4.2</text>
<text text-anchor="middle" x="940" y="-668" font-family="Times,serif" font-size="10.00" fill="red">(latest: 1.6.1)</text>
</g>
</g>
</svg>
