<?xml version="1.0" encoding="UTF-8" standalone="no"?>
<!DOCTYPE svg PUBLIC "-//W3C//DTD SVG 1.1//EN"
 "http://www.w3.org/Graphics/SVG/1.1/DTD/svg11.dtd">
<!-- Generated by graphviz version 2.42.4 (0)
 -->
<!-- Title: dependencies Pages: 1 -->
<svg width="2108pt" height="772pt"
 viewBox="0.00 0.00 2107.50 772.00" xmlns="http://www.w3.org/2000/svg" xmlns:xlink="http://www.w3.org/1999/xlink">
<g id="graph0" class="graph" transform="scale(1 1) rotate(0) translate(4 768)">
<title>dependencies</title>
<polygon fill="white" stroke="transparent" points="-4,4 -4,-768 2103.5,-768 2103.5,4 -4,4"/>
<!-- roo_backport -->
<g id="node1" class="node">
<title>roo_backport</title>
<polygon fill="khaki" stroke="black" points="1725.5,-113 1615.5,-113 1615.5,-75 1725.5,-75 1725.5,-113"/>
<text text-anchor="middle" x="1670.5" y="-97.8" font-family="Times,serif" font-size="14.00">roo_backport</text>
<text text-anchor="middle" x="1670.5" y="-82.8" font-family="Times,serif" font-size="14.00">1.1.1</text>
</g>
<!-- roo_blink -->
<g id="node2" class="node">
<title>roo_blink</title>
<polygon fill="plum" stroke="black" points="1267.5,-401 1185.5,-401 1185.5,-363 1267.5,-363 1267.5,-401"/>
<text text-anchor="middle" x="1226.5" y="-385.8" font-family="Times,serif" font-size="14.00">roo_blink</text>
<text text-anchor="middle" x="1226.5" y="-370.8" font-family="Times,serif" font-size="14.00">1.0.2</text>
</g>
<!-- roo_logging -->
<g id="node12" class="node">
<title>roo_logging</title>
<polygon fill="plum" stroke="black" points="760.5,-305 660.5,-305 660.5,-267 760.5,-267 760.5,-305"/>
<text text-anchor="middle" x="710.5" y="-289.8" font-family="Times,serif" font-size="14.00">roo_logging</text>
<text text-anchor="middle" x="710.5" y="-274.8" font-family="Times,serif" font-size="14.00">1.4.3</text>
</g>
<!-- roo_blink&#45;&gt;roo_logging -->
<g id="edge2" class="edge">
<title>roo_blink&#45;&gt;roo_logging</title>
<path fill="none" stroke="black" d="M1185.34,-366.36C1180.71,-365.06 1176.03,-363.9 1171.5,-363 1070.08,-342.77 1041.55,-361.76 939.5,-345 881.44,-335.47 816.53,-318.4 770.68,-305.24"/>
<polygon fill="black" stroke="black" points="771.49,-301.83 760.91,-302.41 769.54,-308.55 771.49,-301.83"/>
</g>
<!-- roo_scheduler -->
<g id="node16" class="node">
<title>roo_scheduler</title>
<polygon fill="plum" stroke="black" points="1035.5,-305 919.5,-305 919.5,-267 1035.5,-267 1035.5,-305"/>
<text text-anchor="middle" x="977.5" y="-289.8" font-family="Times,serif" font-size="14.00">roo_scheduler</text>
<text text-anchor="middle" x="977.5" y="-274.8" font-family="Times,serif" font-size="14.00">2.1.5</text>
</g>
<!-- roo_blink&#45;&gt;roo_scheduler -->
<g id="edge3" class="edge">
<title>roo_blink&#45;&gt;roo_scheduler</title>
<path fill="none" stroke="black" d="M1185.38,-365.48C1144.37,-350 1081.03,-326.08 1035.04,-308.72"/>
<polygon fill="black" stroke="black" points="1036.09,-305.38 1025.5,-305.12 1033.62,-311.93 1036.09,-305.38"/>
</g>
<!-- roo_testing -->
<g id="node17" class="node">
<title>roo_testing</title>
<polygon fill="#b1dbab" stroke="black" points="778,-38 681,-38 681,0 778,0 778,-38"/>
<text text-anchor="middle" x="729.5" y="-22.8" font-family="Times,serif" font-size="14.00">roo_testing</text>
<text text-anchor="middle" x="729.5" y="-7.8" font-family="Times,serif" font-size="14.00">1.2.0</text>
</g>
<!-- roo_blink&#45;&gt;roo_testing -->
<g id="edge1" class="edge">
<title>roo_blink&#45;&gt;roo_testing</title>
<path fill="none" stroke="red" d="M1247.23,-362.92C1296.59,-319.82 1417.16,-214.21 1419.5,-209 1444.68,-152.83 1433.41,-112.37 1384.5,-75 1337.69,-39.23 940.19,-25.38 788.24,-21.36"/>
<polygon fill="red" stroke="red" points="788.24,-17.86 778.16,-21.1 788.06,-24.86 788.24,-17.86"/>
<text text-anchor="middle" x="1463.5" y="-193" font-family="Times,serif" font-size="10.00" fill="red">1.1.8</text>
<text text-anchor="middle" x="1463.5" y="-182" font-family="Times,serif" font-size="10.00" fill="red">(latest: 1.2.0)</text>
</g>
<!-- roo_threads -->
<g id="node18" class="node">
<title>roo_threads</title>
<polygon fill="#b1dbab" stroke="black" points="1140,-209 1039,-209 1039,-171 1140,-171 1140,-209"/>
<text text-anchor="middle" x="1089.5" y="-193.8" font-family="Times,serif" font-size="14.00">roo_threads</text>
<text text-anchor="middle" x="1089.5" y="-178.8" font-family="Times,serif" font-size="14.00">1.2.0</text>
</g>
<!-- roo_blink&#45;&gt;roo_threads -->
<g id="edge4" class="edge">
<title>roo_blink&#45;&gt;roo_threads</title>
<path fill="none" stroke="red" d="M1209.2,-362.73C1195.48,-347.81 1176.23,-325.84 1161.5,-305 1138.4,-272.32 1138.55,-260.4 1116.5,-227 1114.4,-223.81 1112.11,-220.53 1109.79,-217.31"/>
<polygon fill="red" stroke="red" points="1112.42,-214.98 1103.67,-209.01 1106.79,-219.13 1112.42,-214.98"/>
<text text-anchor="middle" x="1194.5" y="-289" font-family="Times,serif" font-size="10.00" fill="red">1.1.6</text>
<text text-anchor="middle" x="1194.5" y="-278" font-family="Times,serif" font-size="10.00" fill="red">(latest: 1.2.0)</text>
</g>
<!-- roo_time -->
<g id="node19" class="node">
<title>roo_time</title>
<polygon fill="#b1dbab" stroke="black" points="1028,-113 949,-113 949,-75 1028,-75 1028,-113"/>
<text text-anchor="middle" x="988.5" y="-97.8" font-family="Times,serif" font-size="14.00">roo_time</text>
<text text-anchor="middle" x="988.5" y="-82.8" font-family="Times,serif" font-size="14.00">1.4.0</text>
</g>
<!-- roo_blink&#45;&gt;roo_time -->
<g id="edge5" class="edge">
<title>roo_blink&#45;&gt;roo_time</title>
<path fill="none" stroke="red" d="M1230.36,-363C1234.47,-339.99 1238.96,-299.27 1227.5,-267 1218.3,-241.1 1171.13,-187.96 1149.5,-171 1115.84,-144.62 1071.55,-124.56 1037.94,-111.69"/>
<polygon fill="red" stroke="red" points="1038.91,-108.32 1028.32,-108.09 1036.46,-114.87 1038.91,-108.32"/>
<text text-anchor="middle" x="1250.5" y="-241" font-family="Times,serif" font-size="10.00" fill="red">1.3.3</text>
<text text-anchor="middle" x="1250.5" y="-230" font-family="Times,serif" font-size="10.00" fill="red">(latest: 1.4.0)</text>
</g>
<!-- roo_collections -->
<g id="node3" class="node">
<title>roo_collections</title>
<polygon fill="khaki" stroke="black" points="1792.5,-209 1670.5,-209 1670.5,-171 1792.5,-171 1792.5,-209"/>
<text text-anchor="middle" x="1731.5" y="-193.8" font-family="Times,serif" font-size="14.00">roo_collections</text>
<text text-anchor="middle" x="1731.5" y="-178.8" font-family="Times,serif" font-size="14.00">1.3.2</text>
</g>
<!-- roo_collections&#45;&gt;roo_backport -->
<g id="edge6" class="edge">
<title>roo_collections&#45;&gt;roo_backport</title>
<path fill="none" stroke="black" d="M1719.74,-170.88C1710.71,-156.96 1698.1,-137.53 1687.91,-121.82"/>
<polygon fill="black" stroke="black" points="1690.6,-119.55 1682.23,-113.07 1684.73,-123.36 1690.6,-119.55"/>
</g>
<!-- roo_comms -->
<g id="node4" class="node">
<title>roo_comms</title>
<polygon fill="plum" stroke="black" points="1185,-593 1088,-593 1088,-555 1185,-555 1185,-593"/>
<text text-anchor="middle" x="1136.5" y="-577.8" font-family="Times,serif" font-size="14.00">roo_comms</text>
<text text-anchor="middle" x="1136.5" y="-562.8" font-family="Times,serif" font-size="14.00">1.1.2</text>
</g>
<!-- roo_comms&#45;&gt;roo_blink -->
<g id="edge8" class="edge">
<title>roo_comms&#45;&gt;roo_blink</title>
<path fill="none" stroke="black" d="M1145.13,-554.78C1160.99,-521.3 1194.85,-449.82 1213.5,-410.44"/>
<polygon fill="black" stroke="black" points="1216.78,-411.7 1217.9,-401.16 1210.45,-408.7 1216.78,-411.7"/>
</g>
<!-- roo_control -->
<g id="node5" class="node">
<title>roo_control</title>
<polygon fill="plum" stroke="black" points="685,-497 588,-497 588,-459 685,-459 685,-497"/>
<text text-anchor="middle" x="636.5" y="-481.8" font-family="Times,serif" font-size="14.00">roo_control</text>
<text text-anchor="middle" x="636.5" y="-466.8" font-family="Times,serif" font-size="14.00">1.2.2</text>
</g>
<!-- roo_comms&#45;&gt;roo_control -->
<g id="edge9" class="edge">
<title>roo_comms&#45;&gt;roo_control</title>
<path fill="none" stroke="black" d="M1087.74,-564.99C986.89,-548.36 760.05,-510.69 695.01,-496.82"/>
<polygon fill="black" stroke="black" points="695.63,-493.37 685.11,-494.59 694.09,-500.2 695.63,-493.37"/>
</g>
<!-- roo_io -->
<g id="node10" class="node">
<title>roo_io</title>
<polygon fill="plum" stroke="black" points="1577,-401 1518,-401 1518,-363 1577,-363 1577,-401"/>
<text text-anchor="middle" x="1547.5" y="-385.8" font-family="Times,serif" font-size="14.00">roo_io</text>
<text text-anchor="middle" x="1547.5" y="-370.8" font-family="Times,serif" font-size="14.00">2.0.3</text>
</g>
<!-- roo_comms&#45;&gt;roo_io -->
<g id="edge10" class="edge">
<title>roo_comms&#45;&gt;roo_io</title>
<path fill="none" stroke="black" d="M1185.32,-572.26C1226.13,-569.75 1284.69,-561.62 1329.5,-537 1392.34,-502.47 1379.18,-457.76 1439.5,-419 1460.31,-405.63 1486.59,-396.72 1508.02,-391.12"/>
<polygon fill="black" stroke="black" points="1508.93,-394.5 1517.79,-388.7 1507.24,-387.7 1508.93,-394.5"/>
</g>
<!-- roo_comms&#45;&gt;roo_testing -->
<g id="edge7" class="edge">
<title>roo_comms&#45;&gt;roo_testing</title>
<path fill="none" stroke="red" d="M1087.95,-564.4C1068.03,-561.1 1044.71,-557.52 1023.5,-555 922.56,-543 896.28,-550.27 795.5,-537 605.23,-511.94 537.38,-542.49 374.5,-441 306.08,-398.37 283.01,-380.4 254.5,-305 244.13,-277.56 254.5,-268.33 254.5,-239 254.5,-239 254.5,-239 254.5,-93 254.5,-51.36 543.37,-30.27 670.56,-23"/>
<polygon fill="red" stroke="red" points="671.11,-26.48 680.9,-22.42 670.72,-19.49 671.11,-26.48"/>
<text text-anchor="middle" x="287.5" y="-289" font-family="Times,serif" font-size="10.00" fill="red">1.1.8</text>
<text text-anchor="middle" x="287.5" y="-278" font-family="Times,serif" font-size="10.00" fill="red">(latest: 1.2.0)</text>
</g>
<!-- roo_comms&#45;&gt;roo_threads -->
<g id="edge11" class="edge">
<title>roo_comms&#45;&gt;roo_threads</title>
<path fill="none" stroke="red" d="M1133.47,-554.96C1128.28,-523.69 1117.57,-457.33 1110.5,-401 1102.35,-336.06 1095.35,-259.51 1091.86,-219.16"/>
<polygon fill="red" stroke="red" points="1095.33,-218.68 1090.99,-209.01 1088.36,-219.27 1095.33,-218.68"/>
<text text-anchor="middle" x="1143.5" y="-385" font-family="Times,serif" font-size="10.00" fill="red">1.1.6</text>
<text text-anchor="middle" x="1143.5" y="-374" font-family="Times,serif" font-size="10.00" fill="red">(latest: 1.2.0)</text>
</g>
<!-- roo_comms&#45;&gt;roo_time -->
<g id="edge12" class="edge">
<title>roo_comms&#45;&gt;roo_time</title>
<path fill="none" stroke="red" d="M1156.84,-554.64C1214.4,-500.49 1369.05,-338.28 1287.5,-227 1271.8,-205.57 1254.03,-221.33 1230.5,-209 1206.09,-196.21 1204.1,-186.77 1181.5,-171 1153.99,-151.81 1148.19,-144.54 1117.5,-131 1092.16,-119.83 1062.48,-111.26 1037.98,-105.29"/>
<polygon fill="red" stroke="red" points="1038.71,-101.86 1028.18,-102.97 1037.1,-108.68 1038.71,-101.86"/>
<text text-anchor="middle" x="1341.5" y="-337" font-family="Times,serif" font-size="10.00" fill="red">1.3.3</text>
<text text-anchor="middle" x="1341.5" y="-326" font-family="Times,serif" font-size="10.00" fill="red">(latest: 1.4.0)</text>
</g>
<!-- roo_transceivers -->
<g id="node21" class="node">
<title>roo_transceivers</title>
<polygon fill="plum" stroke="black" points="961,-497 826,-497 826,-459 961,-459 961,-497"/>
<text text-anchor="middle" x="893.5" y="-481.8" font-family="Times,serif" font-size="14.00">roo_transceivers</text>
<text text-anchor="middle" x="893.5" y="-466.8" font-family="Times,serif" font-size="14.00">1.1.3</text>
</g>
<!-- roo_comms&#45;&gt;roo_transceivers -->
<g id="edge13" class="edge">
<title>roo_comms&#45;&gt;roo_transceivers</title>
<path fill="none" stroke="black" d="M1089.93,-554.99C1049.96,-539.52 992.23,-517.19 949.7,-500.74"/>
<polygon fill="black" stroke="black" points="950.91,-497.46 940.32,-497.11 948.39,-503.98 950.91,-497.46"/>
</g>
<!-- roo_quantity -->
<g id="node15" class="node">
<title>roo_quantity</title>
<polygon fill="plum" stroke="black" points="786,-401 679,-401 679,-363 786,-363 786,-401"/>
<text text-anchor="middle" x="732.5" y="-385.8" font-family="Times,serif" font-size="14.00">roo_quantity</text>
<text text-anchor="middle" x="732.5" y="-370.8" font-family="Times,serif" font-size="14.00">1.1.3</text>
</g>
<!-- roo_control&#45;&gt;roo_quantity -->
<g id="edge15" class="edge">
<title>roo_control&#45;&gt;roo_quantity</title>
<path fill="none" stroke="black" d="M655.01,-458.88C669.75,-444.44 690.55,-424.07 706.89,-408.07"/>
<polygon fill="black" stroke="black" points="709.35,-410.57 714.05,-401.07 704.45,-405.56 709.35,-410.57"/>
</g>
<!-- roo_control&#45;&gt;roo_scheduler -->
<g id="edge16" class="edge">
<title>roo_control&#45;&gt;roo_scheduler</title>
<path fill="none" stroke="black" d="M677.66,-458.88C710.15,-444.22 756.36,-422.52 795.5,-401 823.68,-385.51 896.52,-339.13 941.04,-310.53"/>
<polygon fill="black" stroke="black" points="943.02,-313.41 949.54,-305.06 939.24,-307.52 943.02,-313.41"/>
</g>
<!-- roo_control&#45;&gt;roo_testing -->
<g id="edge14" class="edge">
<title>roo_control&#45;&gt;roo_testing</title>
<path fill="none" stroke="red" d="M587.95,-475.09C527.35,-471.8 428.16,-463.12 399.5,-441 332.83,-389.55 382.34,-328.21 324.5,-267 312.21,-254 297.9,-264.22 288.5,-249 283.36,-240.68 286.52,-236.57 288.5,-227 305.29,-145.91 295.59,-104.79 362.5,-56 386.8,-38.28 573.15,-27.18 670.57,-22.53"/>
<polygon fill="red" stroke="red" points="671.03,-26.01 680.85,-22.04 670.7,-19.02 671.03,-26.01"/>
<text text-anchor="middle" x="321.5" y="-241" font-family="Times,serif" font-size="10.00" fill="red">1.1.8</text>
<text text-anchor="middle" x="321.5" y="-230" font-family="Times,serif" font-size="10.00" fill="red">(latest: 1.2.0)</text>
</g>
<!-- roo_dashboard -->
<g id="node6" class="node">
<title>roo_dashboard</title>
<polygon fill="plum" stroke="black" points="1835.5,-764 1713.5,-764 1713.5,-726 1835.5,-726 1835.5,-764"/>
<text text-anchor="middle" x="1774.5" y="-748.8" font-family="Times,serif" font-size="14.00">roo_dashboard</text>
<text text-anchor="middle" x="1774.5" y="-733.8" font-family="Times,serif" font-size="14.00">1.0.1</text>
</g>
<!-- roo_dashboard&#45;&gt;roo_testing -->
<g id="edge17" class="edge">
<title>roo_dashboard&#45;&gt;roo_testing</title>
<path fill="none" stroke="red" d="M1835.55,-739.01C1912.12,-731.04 2033.5,-711.94 2033.5,-671 2033.5,-671 2033.5,-671 2033.5,-93 2033.5,-29.75 1042.63,-21.3 788.38,-20.17"/>
<polygon fill="red" stroke="red" points="788.25,-16.67 778.24,-20.13 788.22,-23.67 788.25,-16.67"/>
<text text-anchor="middle" x="2066.5" y="-385" font-family="Times,serif" font-size="10.00" fill="red">1.1.7</text>
<text text-anchor="middle" x="2066.5" y="-374" font-family="Times,serif" font-size="10.00" fill="red">(latest: 1.2.0)</text>
</g>
<!-- roo_windows -->
<g id="node24" class="node">
<title>roo_windows</title>
<polygon fill="plum" stroke="black" points="1097,-689 988,-689 988,-651 1097,-651 1097,-689"/>
<text text-anchor="middle" x="1042.5" y="-673.8" font-family="Times,serif" font-size="14.00">roo_windows</text>
<text text-anchor="middle" x="1042.5" y="-658.8" font-family="Times,serif" font-size="14.00">1.4.1</text>
</g>
<!-- roo_dashboard&#45;&gt;roo_windows -->
<g id="edge18" class="edge">
<title>roo_dashboard&#45;&gt;roo_windows</title>
<path fill="none" stroke="black" d="M1713.35,-737.9C1576.75,-724.28 1247.82,-691.48 1107.6,-677.49"/>
<polygon fill="black" stroke="black" points="1107.73,-673.99 1097.43,-676.48 1107.03,-680.95 1107.73,-673.99"/>
</g>
<!-- roo_display -->
<g id="node7" class="node">
<title>roo_display</title>
<polygon fill="plum" stroke="black" points="1856.5,-497 1758.5,-497 1758.5,-459 1856.5,-459 1856.5,-497"/>
<text text-anchor="middle" x="1807.5" y="-481.8" font-family="Times,serif" font-size="14.00">roo_display</text>
<text text-anchor="middle" x="1807.5" y="-466.8" font-family="Times,serif" font-size="14.00">2.3.1</text>
</g>
<!-- roo_display&#45;&gt;roo_collections -->
<g id="edge20" class="edge">
<title>roo_display&#45;&gt;roo_collections</title>
<path fill="none" stroke="black" d="M1802.63,-458.67C1789.71,-410.04 1754.48,-277.47 1738.98,-219.16"/>
<polygon fill="black" stroke="black" points="1742.28,-217.94 1736.33,-209.17 1735.51,-219.74 1742.28,-217.94"/>
</g>
<!-- roo_display&#45;&gt;roo_io -->
<g id="edge21" class="edge">
<title>roo_display&#45;&gt;roo_io</title>
<path fill="none" stroke="red" d="M1758.29,-459.21C1708.5,-441.21 1632.52,-413.74 1586.67,-397.16"/>
<polygon fill="red" stroke="red" points="1587.68,-393.81 1577.09,-393.7 1585.3,-400.39 1587.68,-393.81"/>
<text text-anchor="middle" x="1733.5" y="-433" font-family="Times,serif" font-size="10.00" fill="red">2.0.2</text>
<text text-anchor="middle" x="1733.5" y="-422" font-family="Times,serif" font-size="10.00" fill="red">(latest: 2.0.3)</text>
</g>
<!-- roo_display&#45;&gt;roo_testing -->
<g id="edge19" class="edge">
<title>roo_display&#45;&gt;roo_testing</title>
<path fill="none" stroke="red" d="M1824.48,-458.78C1839.32,-440.9 1858.5,-412.15 1858.5,-383 1858.5,-383 1858.5,-383 1858.5,-93 1858.5,-38.84 1020.08,-23.81 788.27,-20.69"/>
<polygon fill="red" stroke="red" points="788.06,-17.19 778.01,-20.56 787.96,-24.19 788.06,-17.19"/>
<text text-anchor="middle" x="1891.5" y="-241" font-family="Times,serif" font-size="10.00" fill="red">1.1.7</text>
<text text-anchor="middle" x="1891.5" y="-230" font-family="Times,serif" font-size="10.00" fill="red">(latest: 1.2.0)</text>
</g>
<!-- roo_flags -->
<g id="node8" class="node">
<title>roo_flags</title>
<polygon fill="khaki" stroke="black" points="650.5,-209 570.5,-209 570.5,-171 650.5,-171 650.5,-209"/>
<text text-anchor="middle" x="610.5" y="-193.8" font-family="Times,serif" font-size="14.00">roo_flags</text>
<text text-anchor="middle" x="610.5" y="-178.8" font-family="Times,serif" font-size="14.00">1.2.0</text>
</g>
<!-- roo_icons -->
<g id="node9" class="node">
<title>roo_icons</title>
<polygon fill="plum" stroke="black" points="1849,-593 1766,-593 1766,-555 1849,-555 1849,-593"/>
<text text-anchor="middle" x="1807.5" y="-577.8" font-family="Times,serif" font-size="14.00">roo_icons</text>
<text text-anchor="middle" x="1807.5" y="-562.8" font-family="Times,serif" font-size="14.00">1.2.1</text>
</g>
<!-- roo_icons&#45;&gt;roo_display -->
<g id="edge23" class="edge">
<title>roo_icons&#45;&gt;roo_display</title>
<path fill="none" stroke="black" d="M1807.5,-554.88C1807.5,-541.35 1807.5,-522.62 1807.5,-507.15"/>
<polygon fill="black" stroke="black" points="1811,-507.07 1807.5,-497.07 1804,-507.07 1811,-507.07"/>
</g>
<!-- roo_icons&#45;&gt;roo_testing -->
<g id="edge22" class="edge">
<title>roo_icons&#45;&gt;roo_testing</title>
<path fill="none" stroke="red" d="M1849.27,-562.25C1887.94,-549.48 1939.5,-524.01 1939.5,-479 1939.5,-479 1939.5,-479 1939.5,-93 1939.5,-34.62 1030.08,-22.6 788.07,-20.43"/>
<polygon fill="red" stroke="red" points="788.09,-16.93 778.06,-20.35 788.02,-23.93 788.09,-16.93"/>
<text text-anchor="middle" x="1972.5" y="-289" font-family="Times,serif" font-size="10.00" fill="red">1.1.7</text>
<text text-anchor="middle" x="1972.5" y="-278" font-family="Times,serif" font-size="10.00" fill="red">(latest: 1.2.0)</text>
</g>
<!-- roo_io&#45;&gt;roo_backport -->
<g id="edge25" class="edge">
<title>roo_io&#45;&gt;roo_backport</title>
<path fill="none" stroke="black" d="M1555.38,-362.67C1576.38,-313.84 1633.79,-180.37 1658.7,-122.44"/>
<polygon fill="black" stroke="black" points="1661.95,-123.74 1662.68,-113.17 1655.52,-120.98 1661.95,-123.74"/>
</g>
<!-- roo_io&#45;&gt;roo_logging -->
<g id="edge26" class="edge">
<title>roo_io&#45;&gt;roo_logging</title>
<path fill="none" stroke="black" d="M1517.7,-373.62C1501.96,-369.96 1482.28,-365.74 1464.5,-363 1416.75,-355.64 1079.63,-327.21 1031.5,-323 934.65,-314.53 909.93,-317.38 813.5,-305 799.59,-303.21 784.7,-300.87 770.68,-298.46"/>
<polygon fill="black" stroke="black" points="771.11,-294.98 760.65,-296.7 769.9,-301.88 771.11,-294.98"/>
</g>
<!-- roo_io&#45;&gt;roo_testing -->
<g id="edge24" class="edge">
<title>roo_io&#45;&gt;roo_testing</title>
<path fill="none" stroke="red" d="M1547.81,-362.98C1548.1,-344.06 1548.5,-313.44 1548.5,-287 1548.5,-287 1548.5,-287 1548.5,-93 1548.5,-54.82 976.43,-29.47 788.52,-22.17"/>
<polygon fill="red" stroke="red" points="788.41,-18.66 778.28,-21.78 788.14,-25.66 788.41,-18.66"/>
<text text-anchor="middle" x="1581.5" y="-193" font-family="Times,serif" font-size="10.00" fill="red">1.1.8</text>
<text text-anchor="middle" x="1581.5" y="-182" font-family="Times,serif" font-size="10.00" fill="red">(latest: 1.2.0)</text>
</g>
<!-- roo_io&#45;&gt;roo_threads -->
<g id="edge27" class="edge">
<title>roo_io&#45;&gt;roo_threads</title>
<path fill="none" stroke="red" d="M1534.9,-362.9C1525.47,-350.4 1511.64,-334.1 1496.5,-323 1453.8,-291.71 1329.05,-242.7 1278.5,-227 1236.66,-214 1188.08,-204.87 1150.65,-199.06"/>
<polygon fill="red" stroke="red" points="1150.81,-195.55 1140.4,-197.51 1149.76,-202.47 1150.81,-195.55"/>
<text text-anchor="middle" x="1499.5" y="-289" font-family="Times,serif" font-size="10.00" fill="red">1.1.6</text>
<text text-anchor="middle" x="1499.5" y="-278" font-family="Times,serif" font-size="10.00" fill="red">(latest: 1.2.0)</text>
</g>
<!-- roo_locale -->
<g id="node11" class="node">
<title>roo_locale</title>
<polygon fill="#b1dbab" stroke="black" points="1014.5,-593 926.5,-593 926.5,-555 1014.5,-555 1014.5,-593"/>
<text text-anchor="middle" x="970.5" y="-577.8" font-family="Times,serif" font-size="14.00">roo_locale</text>
<text text-anchor="middle" x="970.5" y="-562.8" font-family="Times,serif" font-size="14.00">1.1.1</text>
</g>
<!-- roo_logging&#45;&gt;roo_flags -->
<g id="edge29" class="edge">
<title>roo_logging&#45;&gt;roo_flags</title>
<path fill="none" stroke="red" d="M660.39,-270.67C635.13,-262.95 609.07,-254 605.5,-249 599.38,-240.43 599.07,-229.22 600.86,-218.94"/>
<polygon fill="red" stroke="red" points="604.29,-219.65 603.2,-209.11 597.48,-218.02 604.29,-219.65"/>
<text text-anchor="middle" x="638.5" y="-241" font-family="Times,serif" font-size="10.00" fill="red">1.1.1</text>
<text text-anchor="middle" x="638.5" y="-230" font-family="Times,serif" font-size="10.00" fill="red">(latest: 1.2.0)</text>
</g>
<!-- roo_logging&#45;&gt;roo_testing -->
<g id="edge28" class="edge">
<title>roo_logging&#45;&gt;roo_testing</title>
<path fill="none" stroke="red" d="M703.7,-266.92C693.75,-238.09 677.35,-179.94 686.5,-131 692.06,-101.27 705.31,-69.26 715.65,-47.29"/>
<polygon fill="red" stroke="red" points="718.82,-48.76 720.01,-38.23 712.52,-45.72 718.82,-48.76"/>
<text text-anchor="middle" x="719.5" y="-145" font-family="Times,serif" font-size="10.00" fill="red">1.1.8</text>
<text text-anchor="middle" x="719.5" y="-134" font-family="Times,serif" font-size="10.00" fill="red">(latest: 1.2.0)</text>
</g>
<!-- roo_logging&#45;&gt;roo_threads -->
<g id="edge31" class="edge">
<title>roo_logging&#45;&gt;roo_threads</title>
<path fill="none" stroke="red" d="M716.01,-266.75C721.1,-253.31 730.09,-235.88 744.5,-227 797.58,-194.28 963.02,-219.38 1024.5,-209 1025.98,-208.75 1027.47,-208.48 1028.98,-208.19"/>
<polygon fill="red" stroke="red" points="1029.93,-211.57 1038.98,-206.07 1028.48,-204.72 1029.93,-211.57"/>
<text text-anchor="middle" x="777.5" y="-241" font-family="Times,serif" font-size="10.00" fill="red">1.1.6</text>
<text text-anchor="middle" x="777.5" y="-230" font-family="Times,serif" font-size="10.00" fill="red">(latest: 1.2.0)</text>
</g>
<!-- roo_logging&#45;&gt;roo_time -->
<g id="edge30" class="edge">
<title>roo_logging&#45;&gt;roo_time</title>
<path fill="none" stroke="red" d="M711.44,-266.93C713.84,-241.06 722.35,-194.08 752.5,-171 784.55,-146.47 804.86,-169.92 841.5,-153 855.87,-146.36 855.46,-138.31 869.5,-131 891.17,-119.72 916.93,-111.38 938.94,-105.58"/>
<polygon fill="red" stroke="red" points="939.92,-108.94 948.76,-103.1 938.2,-102.16 939.92,-108.94"/>
<text text-anchor="middle" x="785.5" y="-193" font-family="Times,serif" font-size="10.00" fill="red">1.3.3</text>
<text text-anchor="middle" x="785.5" y="-182" font-family="Times,serif" font-size="10.00" fill="red">(latest: 1.4.0)</text>
</g>
<!-- roo_onewire -->
<g id="node13" class="node">
<title>roo_onewire</title>
<polygon fill="plum" stroke="black" points="807.5,-497 703.5,-497 703.5,-459 807.5,-459 807.5,-497"/>
<text text-anchor="middle" x="755.5" y="-481.8" font-family="Times,serif" font-size="14.00">roo_onewire</text>
<text text-anchor="middle" x="755.5" y="-466.8" font-family="Times,serif" font-size="14.00">2.0.5</text>
</g>
<!-- roo_onewire&#45;&gt;roo_quantity -->
<g id="edge34" class="edge">
<title>roo_onewire&#45;&gt;roo_quantity</title>
<path fill="none" stroke="black" d="M751.07,-458.88C747.76,-445.35 743.17,-426.62 739.39,-411.15"/>
<polygon fill="black" stroke="black" points="742.7,-409.95 736.92,-401.07 735.9,-411.61 742.7,-409.95"/>
</g>
<!-- roo_onewire&#45;&gt;roo_scheduler -->
<g id="edge33" class="edge">
<title>roo_onewire&#45;&gt;roo_scheduler</title>
<path fill="none" stroke="black" d="M807.56,-461.76C810.92,-460.81 814.26,-459.89 817.5,-459 848.48,-450.52 863.01,-461.79 887.5,-441 931.2,-403.92 906.49,-369.85 939.5,-323 942.1,-319.31 945.13,-315.69 948.31,-312.26"/>
<polygon fill="black" stroke="black" points="950.87,-314.65 955.44,-305.09 945.91,-309.71 950.87,-314.65"/>
</g>
<!-- roo_onewire&#45;&gt;roo_testing -->
<g id="edge32" class="edge">
<title>roo_onewire&#45;&gt;roo_testing</title>
<path fill="none" stroke="red" d="M703.44,-460.82C700.43,-460.14 697.43,-459.52 694.5,-459 665.12,-453.74 446.88,-462.8 426.5,-441 404.47,-417.44 359.89,-455.01 511.5,-227 517.59,-217.84 521.11,-217.16 528.5,-209 543.52,-192.42 545.82,-186.95 561.5,-171 607.7,-124.01 665.63,-73.65 699.98,-44.59"/>
<polygon fill="red" stroke="red" points="702.38,-47.15 707.78,-38.03 697.87,-41.79 702.38,-47.15"/>
<text text-anchor="middle" x="544.5" y="-241" font-family="Times,serif" font-size="10.00" fill="red">1.1.8</text>
<text text-anchor="middle" x="544.5" y="-230" font-family="Times,serif" font-size="10.00" fill="red">(latest: 1.2.0)</text>
</g>
<!-- roo_prefs -->
<g id="node14" class="node">
<title>roo_prefs</title>
<polygon fill="plum" stroke="black" points="661,-401 578,-401 578,-363 661,-363 661,-401"/>
<text text-anchor="middle" x="619.5" y="-385.8" font-family="Times,serif" font-size="14.00">roo_prefs</text>
<text text-anchor="middle" x="619.5" y="-370.8" font-family="Times,serif" font-size="14.00">1.2.3</text>
</g>
<!-- roo_prefs&#45;&gt;roo_logging -->
<g id="edge36" class="edge">
<title>roo_prefs&#45;&gt;roo_logging</title>
<path fill="none" stroke="black" d="M637.05,-362.88C650.89,-348.57 670.38,-328.44 685.81,-312.51"/>
<polygon fill="black" stroke="black" points="688.57,-314.69 693.01,-305.07 683.54,-309.82 688.57,-314.69"/>
</g>
<!-- roo_prefs&#45;&gt;roo_scheduler -->
<g id="edge37" class="edge">
<title>roo_prefs&#45;&gt;roo_scheduler</title>
<path fill="none" stroke="black" d="M661.14,-365.93C664.3,-364.9 667.44,-363.91 670.5,-363 773.57,-332.17 801.09,-330.93 905.5,-305 906.77,-304.69 908.04,-304.37 909.33,-304.05"/>
<polygon fill="black" stroke="black" points="910.49,-307.37 919.34,-301.55 908.8,-300.57 910.49,-307.37"/>
</g>
<!-- roo_prefs&#45;&gt;roo_testing -->
<g id="edge35" class="edge">
<title>roo_prefs&#45;&gt;roo_testing</title>
<path fill="none" stroke="red" d="M589.76,-362.8C555.73,-340.37 500.92,-299 471.5,-249 453.8,-218.92 453.51,-204.72 462.5,-171 477.68,-114.06 480.32,-89.93 528.5,-56 550.94,-40.2 619.76,-30.34 670.65,-25.02"/>
<polygon fill="red" stroke="red" points="671.3,-28.47 680.89,-23.98 670.59,-21.51 671.3,-28.47"/>
<text text-anchor="middle" x="495.5" y="-193" font-family="Times,serif" font-size="10.00" fill="red">1.1.8</text>
<text text-anchor="middle" x="495.5" y="-182" font-family="Times,serif" font-size="10.00" fill="red">(latest: 1.2.0)</text>
</g>
<!-- roo_quantity&#45;&gt;roo_flags -->
<g id="edge38" class="edge">
<title>roo_quantity&#45;&gt;roo_flags</title>
<path fill="none" stroke="red" d="M685.43,-362.95C646.88,-347.1 596.89,-323.71 585.5,-305 569.32,-278.41 581.56,-242.69 593.93,-218.36"/>
<polygon fill="red" stroke="red" points="597.14,-219.79 598.81,-209.33 590.98,-216.47 597.14,-219.79"/>
<text text-anchor="middle" x="618.5" y="-289" font-family="Times,serif" font-size="10.00" fill="red">1.1.1</text>
<text text-anchor="middle" x="618.5" y="-278" font-family="Times,serif" font-size="10.00" fill="red">(latest: 1.2.0)</text>
</g>
<!-- roo_quantity&#45;&gt;roo_logging -->
<g id="edge39" class="edge">
<title>roo_quantity&#45;&gt;roo_logging</title>
<path fill="none" stroke="black" d="M728.26,-362.88C725.09,-349.35 720.71,-330.62 717.09,-315.15"/>
<polygon fill="black" stroke="black" points="720.42,-314.01 714.73,-305.07 713.6,-315.6 720.42,-314.01"/>
</g>
<!-- roo_quantity&#45;&gt;roo_time -->
<g id="edge40" class="edge">
<title>roo_quantity&#45;&gt;roo_time</title>
<path fill="none" stroke="red" d="M743.32,-362.91C776.08,-308.38 873.2,-148.25 894.5,-131 907.31,-120.62 923.44,-113.01 938.71,-107.52"/>
<polygon fill="red" stroke="red" points="940.21,-110.71 948.58,-104.22 937.98,-104.08 940.21,-110.71"/>
<text text-anchor="middle" x="858.5" y="-241" font-family="Times,serif" font-size="10.00" fill="red">1.3.3</text>
<text text-anchor="middle" x="858.5" y="-230" font-family="Times,serif" font-size="10.00" fill="red">(latest: 1.4.0)</text>
</g>
<!-- roo_scheduler&#45;&gt;roo_collections -->
<g id="edge42" class="edge">
<title>roo_scheduler&#45;&gt;roo_collections</title>
<path fill="none" stroke="black" d="M1035.83,-277.82C1063.07,-274.49 1095.94,-270.5 1125.5,-267 1344.59,-241.04 1399.98,-239.36 1618.5,-209 1632.04,-207.12 1646.46,-204.95 1660.31,-202.78"/>
<polygon fill="black" stroke="black" points="1660.95,-206.22 1670.28,-201.21 1659.86,-199.31 1660.95,-206.22"/>
</g>
<!-- roo_scheduler&#45;&gt;roo_testing -->
<g id="edge41" class="edge">
<title>roo_scheduler&#45;&gt;roo_testing</title>
<path fill="none" stroke="red" d="M960.45,-266.79C917.27,-220.64 803.47,-99.04 753.55,-45.7"/>
<polygon fill="red" stroke="red" points="756.05,-43.25 746.67,-38.34 750.94,-48.03 756.05,-43.25"/>
<text text-anchor="middle" x="886.5" y="-145" font-family="Times,serif" font-size="10.00" fill="red">1.1.8</text>
<text text-anchor="middle" x="886.5" y="-134" font-family="Times,serif" font-size="10.00" fill="red">(latest: 1.2.0)</text>
</g>
<!-- roo_scheduler&#45;&gt;roo_threads -->
<g id="edge43" class="edge">
<title>roo_scheduler&#45;&gt;roo_threads</title>
<path fill="none" stroke="red" d="M979.69,-266.96C982.09,-254.33 987.1,-237.83 997.5,-227 1002.71,-221.57 1015.17,-215.63 1029.28,-210.17"/>
<polygon fill="red" stroke="red" points="1030.58,-213.42 1038.74,-206.66 1028.15,-206.86 1030.58,-213.42"/>
<text text-anchor="middle" x="1030.5" y="-241" font-family="Times,serif" font-size="10.00" fill="red">1.1.6</text>
<text text-anchor="middle" x="1030.5" y="-230" font-family="Times,serif" font-size="10.00" fill="red">(latest: 1.2.0)</text>
</g>
<!-- roo_scheduler&#45;&gt;roo_time -->
<g id="edge44" class="edge">
<title>roo_scheduler&#45;&gt;roo_time</title>
<path fill="none" stroke="red" d="M972.44,-266.78C966.85,-244.22 959.31,-204.67 964.5,-171 967.03,-154.6 972.45,-136.89 977.51,-122.7"/>
<polygon fill="red" stroke="red" points="980.89,-123.65 981.07,-113.05 974.32,-121.22 980.89,-123.65"/>
<text text-anchor="middle" x="997.5" y="-193" font-family="Times,serif" font-size="10.00" fill="red">1.3.3</text>
<text text-anchor="middle" x="997.5" y="-182" font-family="Times,serif" font-size="10.00" fill="red">(latest: 1.4.0)</text>
</g>
<!-- roo_threads&#45;&gt;roo_time -->
<g id="edge45" class="edge">
<title>roo_threads&#45;&gt;roo_time</title>
<path fill="none" stroke="black" d="M1070.03,-170.88C1054.52,-156.44 1032.63,-136.07 1015.44,-120.07"/>
<polygon fill="black" stroke="black" points="1017.62,-117.32 1007.91,-113.07 1012.85,-122.44 1017.62,-117.32"/>
</g>
<!-- roo_time&#45;&gt;roo_testing -->
<g id="edge46" class="edge">
<title>roo_time&#45;&gt;roo_testing</title>
<path fill="none" stroke="black" d="M948.88,-81.83C906.06,-69.76 837.37,-50.4 788.26,-36.56"/>
<polygon fill="black" stroke="black" points="788.98,-33.13 778.4,-33.78 787.08,-39.86 788.98,-33.13"/>
</g>
<!-- roo_time_ds3231 -->
<g id="node20" class="node">
<title>roo_time_ds3231</title>
<polygon fill="plum" stroke="black" points="1410.5,-209 1272.5,-209 1272.5,-171 1410.5,-171 1410.5,-209"/>
<text text-anchor="middle" x="1341.5" y="-193.8" font-family="Times,serif" font-size="14.00">roo_time_ds3231</text>
<text text-anchor="middle" x="1341.5" y="-178.8" font-family="Times,serif" font-size="14.00">1.1.3</text>
</g>
<!-- roo_time_ds3231&#45;&gt;roo_testing -->
<g id="edge47" class="edge">
<title>roo_time_ds3231&#45;&gt;roo_testing</title>
<path fill="none" stroke="red" d="M1345.9,-170.88C1347.83,-158.2 1347.87,-141.7 1338.5,-131 1266.75,-49.07 926.88,-27.29 788.42,-21.78"/>
<polygon fill="red" stroke="red" points="788.54,-18.28 778.41,-21.39 788.27,-25.27 788.54,-18.28"/>
<text text-anchor="middle" x="1347.5" y="-97" font-family="Times,serif" font-size="10.00" fill="red">1.1.8</text>
<text text-anchor="middle" x="1347.5" y="-86" font-family="Times,serif" font-size="10.00" fill="red">(latest: 1.2.0)</text>
</g>
<!-- roo_time_ds3231&#45;&gt;roo_time -->
<g id="edge48" class="edge">
<title>roo_time_ds3231&#45;&gt;roo_time</title>
<path fill="none" stroke="red" d="M1302.04,-170.85C1292.07,-165.62 1281.61,-159.53 1272.5,-153 1261,-144.76 1262.24,-137.15 1249.5,-131 1213.19,-113.46 1103.09,-103 1038.06,-98.19"/>
<polygon fill="red" stroke="red" points="1038.26,-94.7 1028.03,-97.47 1037.76,-101.68 1038.26,-94.7"/>
<text text-anchor="middle" x="1305.5" y="-145" font-family="Times,serif" font-size="10.00" fill="red">1.3.3</text>
<text text-anchor="middle" x="1305.5" y="-134" font-family="Times,serif" font-size="10.00" fill="red">(latest: 1.4.0)</text>
</g>
<!-- roo_transceivers&#45;&gt;roo_prefs -->
<g id="edge50" class="edge">
<title>roo_transceivers&#45;&gt;roo_prefs</title>
<path fill="none" stroke="black" d="M839.82,-458.89C796.83,-444.34 734.7,-423.22 671.05,-401.17"/>
<polygon fill="black" stroke="black" points="671.83,-397.74 661.24,-397.77 669.54,-404.35 671.83,-397.74"/>
</g>
<!-- roo_transceivers&#45;&gt;roo_testing -->
<g id="edge49" class="edge">
<title>roo_transceivers&#45;&gt;roo_testing</title>
<path fill="none" stroke="red" d="M825.93,-461.03C822.75,-460.33 819.59,-459.65 816.5,-459 774.02,-450.06 762.85,-450.53 720.5,-441 555.33,-403.83 462.17,-402.84 391.5,-249 360.99,-182.59 353.1,-182.99 476.5,-75 504.96,-50.1 605.29,-34.17 670.73,-26.18"/>
<polygon fill="red" stroke="red" points="671.4,-29.62 680.92,-24.96 670.57,-22.67 671.4,-29.62"/>
<text text-anchor="middle" x="424.5" y="-241" font-family="Times,serif" font-size="10.00" fill="red">1.1.8</text>
<text text-anchor="middle" x="424.5" y="-230" font-family="Times,serif" font-size="10.00" fill="red">(latest: 1.2.0)</text>
</g>
<!-- roo_transceivers&#45;&gt;roo_threads -->
<g id="edge51" class="edge">
<title>roo_transceivers&#45;&gt;roo_threads</title>
<path fill="none" stroke="red" d="M906.57,-458.86C928.56,-428.93 975.11,-368.05 1021.5,-323 1030.81,-313.96 1036.73,-315.4 1044.5,-305 1063.99,-278.89 1076.27,-243.23 1082.98,-218.78"/>
<polygon fill="red" stroke="red" points="1086.38,-219.62 1085.53,-209.06 1079.61,-217.85 1086.38,-219.62"/>
<text text-anchor="middle" x="1054.5" y="-337" font-family="Times,serif" font-size="10.00" fill="red">1.1.6</text>
<text text-anchor="middle" x="1054.5" y="-326" font-family="Times,serif" font-size="10.00" fill="red">(latest: 1.2.0)</text>
</g>
<!-- roo_transceivers&#45;&gt;roo_time -->
<g id="edge52" class="edge">
<title>roo_transceivers&#45;&gt;roo_time</title>
<path fill="none" stroke="red" d="M880.5,-458.86C854.41,-420.04 801.69,-327.51 844.5,-267 858.38,-247.38 877.02,-264.37 895.5,-249 942.04,-210.3 931.1,-182.13 963.5,-131 965.49,-127.86 967.63,-124.6 969.8,-121.4"/>
<polygon fill="red" stroke="red" points="972.71,-123.34 975.48,-113.11 966.94,-119.38 972.71,-123.34"/>
<text text-anchor="middle" x="877.5" y="-289" font-family="Times,serif" font-size="10.00" fill="red">1.3.3</text>
<text text-anchor="middle" x="877.5" y="-278" font-family="Times,serif" font-size="10.00" fill="red">(latest: 1.4.0)</text>
</g>
<!-- roo_transport -->
<g id="node22" class="node">
<title>roo_transport</title>
<polygon fill="plum" stroke="black" points="1658.5,-497 1544.5,-497 1544.5,-459 1658.5,-459 1658.5,-497"/>
<text text-anchor="middle" x="1601.5" y="-481.8" font-family="Times,serif" font-size="14.00">roo_transport</text>
<text text-anchor="middle" x="1601.5" y="-466.8" font-family="Times,serif" font-size="14.00">1.0.2</text>
</g>
<!-- roo_transport&#45;&gt;roo_collections -->
<g id="edge54" class="edge">
<title>roo_transport&#45;&gt;roo_collections</title>
<path fill="none" stroke="black" d="M1609.83,-458.67C1632.03,-409.84 1692.7,-276.37 1719.03,-218.44"/>
<polygon fill="black" stroke="black" points="1722.29,-219.73 1723.24,-209.17 1715.92,-216.83 1722.29,-219.73"/>
</g>
<!-- roo_transport&#45;&gt;roo_io -->
<g id="edge55" class="edge">
<title>roo_transport&#45;&gt;roo_io</title>
<path fill="none" stroke="black" d="M1591.09,-458.88C1583.09,-444.96 1571.93,-425.53 1562.91,-409.82"/>
<polygon fill="black" stroke="black" points="1565.9,-408 1557.88,-401.07 1559.83,-411.48 1565.9,-408"/>
</g>
<!-- roo_transport&#45;&gt;roo_testing -->
<g id="edge53" class="edge">
<title>roo_transport&#45;&gt;roo_testing</title>
<path fill="none" stroke="red" d="M1658.8,-470.71C1697.18,-465.23 1742.9,-455.79 1755.5,-441 1817.33,-368.42 1720.07,-307.91 1770.5,-227 1778.93,-213.48 1793.55,-222.81 1801.5,-209 1809.93,-194.36 1806.57,-187.11 1801.5,-171 1785.89,-121.37 1779.96,-100.31 1734.5,-75 1651.92,-29.02 991.05,-21.47 788.38,-20.24"/>
<polygon fill="red" stroke="red" points="788.25,-16.74 778.23,-20.18 788.21,-23.74 788.25,-16.74"/>
<text text-anchor="middle" x="1803.5" y="-241" font-family="Times,serif" font-size="10.00" fill="red">1.1.8</text>
<text text-anchor="middle" x="1803.5" y="-230" font-family="Times,serif" font-size="10.00" fill="red">(latest: 1.2.0)</text>
</g>
<!-- roo_transport&#45;&gt;roo_threads -->
<g id="edge56" class="edge">
<title>roo_transport&#45;&gt;roo_threads</title>
<path fill="none" stroke="red" d="M1579.51,-458.95C1560.84,-443.59 1533.35,-420.92 1509.5,-401 1489.41,-384.22 1486.51,-377.17 1464.5,-363 1448.79,-352.89 1443.18,-353.42 1426.5,-345 1408.04,-335.68 1404.26,-331.71 1385.5,-323 1304.43,-285.36 1279.64,-286.5 1198.5,-249 1175.55,-238.39 1150.61,-225.25 1130.39,-214.16"/>
<polygon fill="red" stroke="red" points="1131.9,-210.99 1121.45,-209.22 1128.51,-217.12 1131.9,-210.99"/>
<text text-anchor="middle" x="1459.5" y="-337" font-family="Times,serif" font-size="10.00" fill="red">1.1.6</text>
<text text-anchor="middle" x="1459.5" y="-326" font-family="Times,serif" font-size="10.00" fill="red">(latest: 1.2.0)</text>
</g>
<!-- roo_wifi -->
<g id="node23" class="node">
<title>roo_wifi</title>
<polygon fill="plum" stroke="black" points="244.5,-497 172.5,-497 172.5,-459 244.5,-459 244.5,-497"/>
<text text-anchor="middle" x="208.5" y="-481.8" font-family="Times,serif" font-size="14.00">roo_wifi</text>
<text text-anchor="middle" x="208.5" y="-466.8" font-family="Times,serif" font-size="14.00">1.1.2</text>
</g>
<!-- roo_wifi&#45;&gt;roo_prefs -->
<g id="edge58" class="edge">
<title>roo_wifi&#45;&gt;roo_prefs</title>
<path fill="none" stroke="black" d="M244.63,-463.33C249.27,-461.77 253.97,-460.28 258.5,-459 367.14,-428.17 497.39,-403.75 567.94,-391.54"/>
<polygon fill="black" stroke="black" points="568.64,-394.97 577.9,-389.83 567.45,-388.07 568.64,-394.97"/>
</g>
<!-- roo_wifi&#45;&gt;roo_testing -->
<g id="edge57" class="edge">
<title>roo_wifi&#45;&gt;roo_testing</title>
<path fill="none" stroke="red" d="M208.55,-458.81C208.32,-429.82 206.64,-371.47 197.5,-323 189.37,-279.89 166.47,-270.13 174.5,-227 189.42,-146.91 175.06,-104.52 240.5,-56 274.3,-30.94 547.63,-23.11 670.3,-20.85"/>
<polygon fill="red" stroke="red" points="670.69,-24.34 680.63,-20.67 670.57,-17.35 670.69,-24.34"/>
<text text-anchor="middle" x="207.5" y="-241" font-family="Times,serif" font-size="10.00" fill="red">1.1.8</text>
<text text-anchor="middle" x="207.5" y="-230" font-family="Times,serif" font-size="10.00" fill="red">(latest: 1.2.0)</text>
</g>
<!-- roo_windows&#45;&gt;roo_icons -->
<g id="edge62" class="edge">
<title>roo_windows&#45;&gt;roo_icons</title>
<path fill="none" stroke="black" d="M1097.33,-665.84C1178.45,-660.83 1335.1,-649.87 1467.5,-633 1570.12,-619.92 1689.07,-598.08 1755.58,-585.26"/>
<polygon fill="black" stroke="black" points="1756.64,-588.62 1765.8,-583.28 1755.31,-581.75 1756.64,-588.62"/>
</g>
<!-- roo_windows&#45;&gt;roo_io -->
<g id="edge63" class="edge">
<title>roo_windows&#45;&gt;roo_io</title>
<path fill="none" stroke="red" d="M1097.06,-669.7C1186.3,-669.86 1358.59,-665.75 1408.5,-633 1488.88,-580.26 1527.18,-464.32 1541.08,-410.92"/>
<polygon fill="red" stroke="red" points="1544.5,-411.67 1543.54,-401.12 1537.71,-409.96 1544.5,-411.67"/>
<text text-anchor="middle" x="1534.5" y="-529" font-family="Times,serif" font-size="10.00" fill="red">2.0.2</text>
<text text-anchor="middle" x="1534.5" y="-518" font-family="Times,serif" font-size="10.00" fill="red">(latest: 2.0.3)</text>
</g>
<!-- roo_windows&#45;&gt;roo_locale -->
<g id="edge60" class="edge">
<title>roo_windows&#45;&gt;roo_locale</title>
<path fill="none" stroke="black" d="M1028.62,-650.88C1017.86,-636.83 1002.8,-617.17 990.71,-601.38"/>
<polygon fill="black" stroke="black" points="993.2,-598.88 984.34,-593.07 987.64,-603.14 993.2,-598.88"/>
</g>
<!-- roo_windows&#45;&gt;roo_logging -->
<g id="edge61" class="edge">
<title>roo_windows&#45;&gt;roo_logging</title>
<path fill="none" stroke="red" d="M987.7,-668C812.98,-664.09 280.5,-646.31 280.5,-575 280.5,-575 280.5,-575 280.5,-429 280.5,-428.4 532.53,-345.49 650.69,-306.65"/>
<polygon fill="red" stroke="red" points="651.92,-309.93 660.33,-303.48 649.74,-303.28 651.92,-309.93"/>
<text text-anchor="middle" x="313.5" y="-481" font-family="Times,serif" font-size="10.00" fill="red">1.4.2</text>
<text text-anchor="middle" x="313.5" y="-470" font-family="Times,serif" font-size="10.00" fill="red">(latest: 1.4.3)</text>
</g>
<!-- roo_windows&#45;&gt;roo_scheduler -->
<g id="edge64" class="edge">
<title>roo_windows&#45;&gt;roo_scheduler</title>
<path fill="none" stroke="red" d="M1042.5,-650.98C1042.5,-632.06 1042.5,-601.44 1042.5,-575 1042.5,-575 1042.5,-575 1042.5,-381 1042.5,-354.48 1043.4,-344.94 1028.5,-323 1025.72,-318.9 1022.3,-315.12 1018.57,-311.67"/>
<polygon fill="red" stroke="red" points="1020.5,-308.72 1010.56,-305.06 1016.05,-314.13 1020.5,-308.72"/>
<text text-anchor="middle" x="1075.5" y="-481" font-family="Times,serif" font-size="10.00" fill="red">2.1.4</text>
<text text-anchor="middle" x="1075.5" y="-470" font-family="Times,serif" font-size="10.00" fill="red">(latest: 2.1.5)</text>
</g>
<!-- roo_windows&#45;&gt;roo_testing -->
<g id="edge59" class="edge">
<title>roo_windows&#45;&gt;roo_testing</title>
<path fill="none" stroke="red" d="M987.84,-669.62C844.88,-670.7 462.67,-669.93 342.5,-633 246.99,-603.65 215.69,-582.2 163.5,-497 127.24,-437.8 135.55,-413.96 127.5,-345 124.51,-319.36 130.5,-312.81 130.5,-287 130.5,-287 130.5,-287 130.5,-93 130.5,-38.92 520.27,-24.59 670.99,-21.07"/>
<polygon fill="red" stroke="red" points="671.07,-24.57 680.99,-20.84 670.91,-17.57 671.07,-24.57"/>
<text text-anchor="middle" x="160.5" y="-337" font-family="Times,serif" font-size="10.00" fill="red">1.1.7</text>
<text text-anchor="middle" x="160.5" y="-326" font-family="Times,serif" font-size="10.00" fill="red">(latest: 1.2.0)</text>
</g>
<!-- roo_windows&#45;&gt;roo_time -->
<g id="edge65" class="edge">
<title>roo_windows&#45;&gt;roo_time</title>
<path fill="none" stroke="red" d="M1097.11,-665.73C1195.98,-658.29 1394.5,-635.8 1394.5,-575 1394.5,-575 1394.5,-575 1394.5,-429 1394.5,-381.36 1378.51,-358.31 1410.5,-323 1432.36,-298.88 1461.51,-330.69 1481.5,-305 1491.87,-291.67 1491.79,-280.39 1481.5,-267 1420.4,-187.51 1352.14,-255.85 1263.5,-209 1240.66,-196.93 1240.55,-185.99 1219.5,-171 1190.63,-150.44 1183.52,-143.88 1150.5,-131 1114.17,-116.83 1070.97,-107.58 1038.32,-102.01"/>
<polygon fill="red" stroke="red" points="1038.55,-98.5 1028.12,-100.33 1037.41,-105.4 1038.55,-98.5"/>
<text text-anchor="middle" x="1425.5" y="-385" font-family="Times,serif" font-size="10.00" fill="red">1.3.2</text>
<text text-anchor="middle" x="1425.5" y="-374" font-family="Times,serif" font-size="10.00" fill="red">(latest: 1.4.0)</text>
</g>
<!-- roo_windows_wifi -->
<g id="node25" class="node">
<title>roo_windows_wifi</title>
<polygon fill="plum" stroke="black" points="141,-764 0,-764 0,-726 141,-726 141,-764"/>
<text text-anchor="middle" x="70.5" y="-748.8" font-family="Times,serif" font-size="14.00">roo_windows_wifi</text>
<text text-anchor="middle" x="70.5" y="-733.8" font-family="Times,serif" font-size="14.00">1.1.2</text>
</g>
<!-- roo_windows_wifi&#45;&gt;roo_testing -->
<g id="edge66" class="edge">
<title>roo_windows_wifi&#45;&gt;roo_testing</title>
<path fill="none" stroke="red" d="M54.82,-725.83C44.36,-711.82 32.5,-691.43 32.5,-671 32.5,-671 32.5,-671 32.5,-93 32.5,-29.06 502.52,-20.9 670.61,-20.03"/>
<polygon fill="red" stroke="red" points="670.78,-23.53 680.77,-19.99 670.75,-16.53 670.78,-23.53"/>
<text text-anchor="middle" x="65.5" y="-385" font-family="Times,serif" font-size="10.00" fill="red">1.1.7</text>
<text text-anchor="middle" x="65.5" y="-374" font-family="Times,serif" font-size="10.00" fill="red">(latest: 1.2.0)</text>
</g>
<!-- roo_windows_wifi&#45;&gt;roo_wifi -->
<g id="edge67" class="edge">
<title>roo_windows_wifi&#45;&gt;roo_wifi</title>
<path fill="none" stroke="red" d="M66.37,-725.89C61.26,-699.43 55.09,-649.19 71.5,-611 91.55,-564.34 136.93,-526.11 169.99,-503.02"/>
<polygon fill="red" stroke="red" points="172.24,-505.72 178.53,-497.19 168.3,-499.94 172.24,-505.72"/>
<text text-anchor="middle" x="104.5" y="-625" font-family="Times,serif" font-size="10.00" fill="red">1.1.1</text>
<text text-anchor="middle" x="104.5" y="-614" font-family="Times,serif" font-size="10.00" fill="red">(latest: 1.1.2)</text>
</g>
<!-- roo_windows_wifi&#45;&gt;roo_windows -->
<g id="edge68" class="edge">
<title>roo_windows_wifi&#45;&gt;roo_windows</title>
<path fill="none" stroke="black" d="M141.19,-738.69C322.69,-725.06 803.13,-688.98 977.83,-675.86"/>
<polygon fill="black" stroke="black" points="978.19,-679.34 987.9,-675.1 977.66,-672.36 978.19,-679.34"/>
</g>
</g>
</svg>
