<?xml version="1.0" encoding="UTF-8" standalone="no"?>
<!DOCTYPE svg PUBLIC "-//W3C//DTD SVG 1.1//EN"
 "http://www.w3.org/Graphics/SVG/1.1/DTD/svg11.dtd">
<!-- Generated by graphviz version 2.42.4 (0)
 -->
<!-- Title: dependencies Pages: 1 -->
<svg width="832pt" height="772pt"
 viewBox="0.00 0.00 831.50 772.00" xmlns="http://www.w3.org/2000/svg" xmlns:xlink="http://www.w3.org/1999/xlink">
<g id="graph0" class="graph" transform="scale(1 1) rotate(0) translate(4 768)">
<title>dependencies</title>
<polygon fill="white" stroke="transparent" points="-4,4 -4,-768 827.5,-768 827.5,4 -4,4"/>
<!-- roo_backport -->
<g id="node1" class="node">
<title>roo_backport</title>
<polygon fill="#b1dbab" stroke="black" points="461.5,-209 372.5,-209 372.5,-171 461.5,-171 461.5,-209"/>
<text text-anchor="middle" x="417" y="-193.8" font-family="Times,serif" font-size="14.00">roo_backport</text>
<text text-anchor="middle" x="417" y="-178.8" font-family="Times,serif" font-size="14.00">1.2.1</text>
</g>
<!-- roo_blink -->
<g id="node2" class="node">
<title>roo_blink</title>
<polygon fill="#b1dbab" stroke="red" points="167.5,-593 98.5,-593 98.5,-555 167.5,-555 167.5,-593"/>
<text text-anchor="middle" x="133" y="-577.8" font-family="Times,serif" font-size="14.00">roo_blink</text>
<text text-anchor="middle" x="133" y="-562.8" font-family="Times,serif" font-size="14.00">1.0.4</text>
</g>
<!-- roo_logging -->
<g id="node13" class="node">
<title>roo_logging</title>
<polygon fill="#b1dbab" stroke="black" points="330.5,-305 247.5,-305 247.5,-267 330.5,-267 330.5,-305"/>
<text text-anchor="middle" x="289" y="-289.8" font-family="Times,serif" font-size="14.00">roo_logging</text>
<text text-anchor="middle" x="289" y="-274.8" font-family="Times,serif" font-size="14.00">1.5.3</text>
</g>
<!-- roo_blink&#45;&gt;roo_logging -->
<g id="edge1" class="edge">
<title>roo_blink&#45;&gt;roo_logging</title>
<path fill="none" stroke="red" d="M139.61,-554.82C148.15,-531.97 163.96,-491.77 181,-459 208.81,-405.53 247.63,-346.78 270.36,-313.64"/>
<polygon fill="red" stroke="red" points="273.53,-315.22 276.32,-305 267.76,-311.25 273.53,-315.22"/>
<text text-anchor="middle" x="230" y="-433" font-family="Times,serif" font-size="10.00" fill="red">1.5.1</text>
<text text-anchor="middle" x="230" y="-422" font-family="Times,serif" font-size="10.00" fill="red">(latest: 1.5.3)</text>
</g>
<!-- roo_scheduler -->
<g id="node19" class="node">
<title>roo_scheduler</title>
<polygon fill="#b1dbab" stroke="red" points="283.5,-497 190.5,-497 190.5,-459 283.5,-459 283.5,-497"/>
<text text-anchor="middle" x="237" y="-481.8" font-family="Times,serif" font-size="14.00">roo_scheduler</text>
<text text-anchor="middle" x="237" y="-466.8" font-family="Times,serif" font-size="14.00">2.1.6</text>
</g>
<!-- roo_blink&#45;&gt;roo_scheduler -->
<g id="edge2" class="edge">
<title>roo_blink&#45;&gt;roo_scheduler</title>
<path fill="none" stroke="black" d="M151.4,-554.92C163.36,-543.32 179.39,-528.04 194,-515 198.18,-511.27 202.65,-507.4 207.07,-503.64"/>
<polygon fill="black" stroke="black" points="209.5,-506.17 214.9,-497.05 204.99,-500.81 209.5,-506.17"/>
</g>
<!-- roo_collections -->
<g id="node3" class="node">
<title>roo_collections</title>
<polygon fill="#b1dbab" stroke="red" points="561,-401 461,-401 461,-363 561,-363 561,-401"/>
<text text-anchor="middle" x="511" y="-385.8" font-family="Times,serif" font-size="14.00">roo_collections</text>
<text text-anchor="middle" x="511" y="-370.8" font-family="Times,serif" font-size="14.00">1.4.0</text>
</g>
<!-- roo_collections&#45;&gt;roo_backport -->
<g id="edge3" class="edge">
<title>roo_collections&#45;&gt;roo_backport</title>
<path fill="none" stroke="red" d="M501.99,-362.78C485.42,-329.3 450.06,-257.82 430.58,-218.44"/>
<polygon fill="red" stroke="red" points="433.56,-216.57 425.99,-209.16 427.28,-219.68 433.56,-216.57"/>
<text text-anchor="middle" x="500" y="-289" font-family="Times,serif" font-size="10.00" fill="red">1.2.0</text>
<text text-anchor="middle" x="500" y="-278" font-family="Times,serif" font-size="10.00" fill="red">(latest: 1.2.1)</text>
</g>
<!-- roo_comms -->
<g id="node4" class="node">
<title>roo_comms</title>
<polygon fill="#b1dbab" stroke="red" points="260,-764 178,-764 178,-726 260,-726 260,-764"/>
<text text-anchor="middle" x="219" y="-748.8" font-family="Times,serif" font-size="14.00">roo_comms</text>
<text text-anchor="middle" x="219" y="-733.8" font-family="Times,serif" font-size="14.00">1.1.3</text>
</g>
<!-- roo_comms&#45;&gt;roo_blink -->
<g id="edge4" class="edge">
<title>roo_comms&#45;&gt;roo_blink</title>
<path fill="none" stroke="black" d="M209.8,-725.91C194.71,-696.26 164.61,-637.12 146.91,-602.33"/>
<polygon fill="black" stroke="black" points="149.92,-600.54 142.27,-593.21 143.68,-603.71 149.92,-600.54"/>
</g>
<!-- roo_control -->
<g id="node5" class="node">
<title>roo_control</title>
<polygon fill="#b1dbab" stroke="red" points="80,-593 0,-593 0,-555 80,-555 80,-593"/>
<text text-anchor="middle" x="40" y="-577.8" font-family="Times,serif" font-size="14.00">roo_control</text>
<text text-anchor="middle" x="40" y="-562.8" font-family="Times,serif" font-size="14.00">1.2.3</text>
</g>
<!-- roo_comms&#45;&gt;roo_control -->
<g id="edge5" class="edge">
<title>roo_comms&#45;&gt;roo_control</title>
<path fill="none" stroke="black" d="M199.84,-725.91C167.76,-695.63 103.11,-634.58 66.62,-600.14"/>
<polygon fill="black" stroke="black" points="68.96,-597.53 59.29,-593.21 64.16,-602.62 68.96,-597.53"/>
</g>
<!-- roo_io -->
<g id="node10" class="node">
<title>roo_io</title>
<polygon fill="khaki" stroke="red" points="411,-401 357,-401 357,-363 411,-363 411,-401"/>
<text text-anchor="middle" x="384" y="-385.8" font-family="Times,serif" font-size="14.00">roo_io</text>
<text text-anchor="middle" x="384" y="-370.8" font-family="Times,serif" font-size="14.00">2.1.2</text>
</g>
<!-- roo_comms&#45;&gt;roo_io -->
<g id="edge6" class="edge">
<title>roo_comms&#45;&gt;roo_io</title>
<path fill="none" stroke="red" d="M227.41,-725.6C254.44,-666.46 339.23,-480.96 371.42,-410.51"/>
<polygon fill="red" stroke="red" points="374.63,-411.91 375.61,-401.36 368.27,-409 374.63,-411.91"/>
<text text-anchor="middle" x="333" y="-577" font-family="Times,serif" font-size="10.00" fill="red">2.1.1</text>
<text text-anchor="middle" x="333" y="-566" font-family="Times,serif" font-size="10.00" fill="red">(latest: 2.1.2)</text>
</g>
<!-- roo_transceivers -->
<g id="node24" class="node">
<title>roo_transceivers</title>
<polygon fill="#b1dbab" stroke="red" points="441,-668 335,-668 335,-630 441,-630 441,-668"/>
<text text-anchor="middle" x="388" y="-652.8" font-family="Times,serif" font-size="14.00">roo_transceivers</text>
<text text-anchor="middle" x="388" y="-637.8" font-family="Times,serif" font-size="14.00">1.1.4</text>
</g>
<!-- roo_comms&#45;&gt;roo_transceivers -->
<g id="edge7" class="edge">
<title>roo_comms&#45;&gt;roo_transceivers</title>
<path fill="none" stroke="black" d="M260.25,-733.3C279.46,-727.36 302.17,-718.94 321,-708 336.28,-699.12 351.33,-686.54 363.29,-675.36"/>
<polygon fill="black" stroke="black" points="365.88,-677.72 370.67,-668.27 361.03,-672.67 365.88,-677.72"/>
</g>
<!-- roo_quantity -->
<g id="node18" class="node">
<title>roo_quantity</title>
<polygon fill="#b1dbab" stroke="red" points="102,-497 16,-497 16,-459 102,-459 102,-497"/>
<text text-anchor="middle" x="59" y="-481.8" font-family="Times,serif" font-size="14.00">roo_quantity</text>
<text text-anchor="middle" x="59" y="-466.8" font-family="Times,serif" font-size="14.00">1.1.6</text>
</g>
<!-- roo_control&#45;&gt;roo_quantity -->
<g id="edge8" class="edge">
<title>roo_control&#45;&gt;roo_quantity</title>
<path fill="none" stroke="red" d="M43.66,-554.88C46.4,-541.35 50.18,-522.62 53.31,-507.15"/>
<polygon fill="red" stroke="red" points="56.8,-507.56 55.35,-497.07 49.94,-506.18 56.8,-507.56"/>
<text text-anchor="middle" x="79" y="-529" font-family="Times,serif" font-size="10.00" fill="red">1.1.5</text>
<text text-anchor="middle" x="79" y="-518" font-family="Times,serif" font-size="10.00" fill="red">(latest: 1.1.6)</text>
</g>
<!-- roo_control&#45;&gt;roo_scheduler -->
<g id="edge9" class="edge">
<title>roo_control&#45;&gt;roo_scheduler</title>
<path fill="none" stroke="black" d="M77.98,-554.88C109.87,-539.66 155.57,-517.85 189.8,-501.52"/>
<polygon fill="black" stroke="black" points="191.62,-504.53 199.13,-497.07 188.6,-498.22 191.62,-504.53"/>
</g>
<!-- roo_dashboard -->
<g id="node6" class="node">
<title>roo_dashboard</title>
<polygon fill="plum" stroke="red" points="720.5,-764 623.5,-764 623.5,-726 720.5,-726 720.5,-764"/>
<text text-anchor="middle" x="672" y="-748.8" font-family="Times,serif" font-size="14.00">roo_dashboard</text>
<text text-anchor="middle" x="672" y="-733.8" font-family="Times,serif" font-size="14.00">1.0.1</text>
</g>
<!-- roo_windows -->
<g id="node27" class="node">
<title>roo_windows</title>
<polygon fill="#b1dbab" stroke="red" points="633,-668 543,-668 543,-630 633,-630 633,-668"/>
<text text-anchor="middle" x="588" y="-652.8" font-family="Times,serif" font-size="14.00">roo_windows</text>
<text text-anchor="middle" x="588" y="-637.8" font-family="Times,serif" font-size="14.00">1.4.2</text>
</g>
<!-- roo_dashboard&#45;&gt;roo_windows -->
<g id="edge10" class="edge">
<title>roo_dashboard&#45;&gt;roo_windows</title>
<path fill="none" stroke="red" d="M655.8,-725.88C643.14,-711.7 625.36,-691.81 611.18,-675.94"/>
<polygon fill="red" stroke="red" points="613.42,-673.19 604.15,-668.07 608.2,-677.86 613.42,-673.19"/>
<text text-anchor="middle" x="664" y="-700" font-family="Times,serif" font-size="10.00" fill="red">1.4.1</text>
<text text-anchor="middle" x="664" y="-689" font-family="Times,serif" font-size="10.00" fill="red">(latest: 1.4.2)</text>
</g>
<!-- roo_display -->
<g id="node7" class="node">
<title>roo_display</title>
<polygon fill="khaki" stroke="red" points="566,-497 486,-497 486,-459 566,-459 566,-497"/>
<text text-anchor="middle" x="526" y="-481.8" font-family="Times,serif" font-size="14.00">roo_display</text>
<text text-anchor="middle" x="526" y="-466.8" font-family="Times,serif" font-size="14.00">2.3.2</text>
</g>
<!-- roo_display&#45;&gt;roo_collections -->
<g id="edge11" class="edge">
<title>roo_display&#45;&gt;roo_collections</title>
<path fill="none" stroke="black" d="M525.81,-458.84C525.42,-447.34 524.44,-432.2 522,-419 521.51,-416.32 520.88,-413.56 520.18,-410.81"/>
<polygon fill="black" stroke="black" points="523.52,-409.77 517.41,-401.11 516.79,-411.69 523.52,-409.77"/>
</g>
<!-- roo_display&#45;&gt;roo_io -->
<g id="edge12" class="edge">
<title>roo_display&#45;&gt;roo_io</title>
<path fill="none" stroke="black" d="M485.91,-462.49C482.56,-461.3 479.22,-460.13 476,-459 452.52,-450.79 442.76,-456.12 423,-441 412.31,-432.82 403.56,-420.84 397.08,-409.88"/>
<polygon fill="black" stroke="black" points="400.08,-408.08 392.17,-401.03 393.96,-411.48 400.08,-408.08"/>
</g>
<!-- roo_flags -->
<g id="node8" class="node">
<title>roo_flags</title>
<polygon fill="#b1dbab" stroke="black" points="323,-209 255,-209 255,-171 323,-171 323,-209"/>
<text text-anchor="middle" x="289" y="-193.8" font-family="Times,serif" font-size="14.00">roo_flags</text>
<text text-anchor="middle" x="289" y="-178.8" font-family="Times,serif" font-size="14.00">1.2.1</text>
</g>
<!-- roo_icons -->
<g id="node9" class="node">
<title>roo_icons</title>
<polygon fill="#b1dbab" stroke="red" points="573,-593 503,-593 503,-555 573,-555 573,-593"/>
<text text-anchor="middle" x="538" y="-577.8" font-family="Times,serif" font-size="14.00">roo_icons</text>
<text text-anchor="middle" x="538" y="-562.8" font-family="Times,serif" font-size="14.00">1.2.1</text>
</g>
<!-- roo_icons&#45;&gt;roo_display -->
<g id="edge13" class="edge">
<title>roo_icons&#45;&gt;roo_display</title>
<path fill="none" stroke="red" d="M535.69,-554.88C533.96,-541.35 531.57,-522.62 529.59,-507.15"/>
<polygon fill="red" stroke="red" points="533.04,-506.54 528.31,-497.07 526.1,-507.43 533.04,-506.54"/>
<text text-anchor="middle" x="560" y="-529" font-family="Times,serif" font-size="10.00" fill="red">2.3.1</text>
<text text-anchor="middle" x="560" y="-518" font-family="Times,serif" font-size="10.00" fill="red">(latest: 2.3.2)</text>
</g>
<!-- roo_io&#45;&gt;roo_logging -->
<g id="edge14" class="edge">
<title>roo_io&#45;&gt;roo_logging</title>
<path fill="none" stroke="red" d="M365.68,-362.88C351.23,-348.57 330.88,-328.44 314.78,-312.51"/>
<polygon fill="red" stroke="red" points="316.83,-309.61 307.26,-305.07 311.91,-314.59 316.83,-309.61"/>
<text text-anchor="middle" x="373" y="-337" font-family="Times,serif" font-size="10.00" fill="red">1.5.2</text>
<text text-anchor="middle" x="373" y="-326" font-family="Times,serif" font-size="10.00" fill="red">(latest: 1.5.3)</text>
</g>
<!-- roo_io_sdfat -->
<g id="node11" class="node">
<title>roo_io_sdfat</title>
<polygon fill="plum" stroke="black" points="823.5,-764 738.5,-764 738.5,-726 823.5,-726 823.5,-764"/>
<text text-anchor="middle" x="781" y="-748.8" font-family="Times,serif" font-size="14.00">roo_io_sdfat</text>
<text text-anchor="middle" x="781" y="-733.8" font-family="Times,serif" font-size="14.00">1.0.0</text>
</g>
<!-- roo_locale -->
<g id="node12" class="node">
<title>roo_locale</title>
<polygon fill="#b1dbab" stroke="black" points="665,-593 591,-593 591,-555 665,-555 665,-593"/>
<text text-anchor="middle" x="628" y="-577.8" font-family="Times,serif" font-size="14.00">roo_locale</text>
<text text-anchor="middle" x="628" y="-562.8" font-family="Times,serif" font-size="14.00">1.1.1</text>
</g>
<!-- roo_logging&#45;&gt;roo_backport -->
<g id="edge15" class="edge">
<title>roo_logging&#45;&gt;roo_backport</title>
<path fill="none" stroke="black" d="M313.68,-266.88C333.78,-252.12 362.32,-231.15 384.32,-215"/>
<polygon fill="black" stroke="black" points="386.41,-217.81 392.4,-209.07 382.26,-212.17 386.41,-217.81"/>
</g>
<!-- roo_logging&#45;&gt;roo_flags -->
<g id="edge16" class="edge">
<title>roo_logging&#45;&gt;roo_flags</title>
<path fill="none" stroke="black" d="M289,-266.88C289,-253.35 289,-234.62 289,-219.15"/>
<polygon fill="black" stroke="black" points="292.5,-219.07 289,-209.07 285.5,-219.07 292.5,-219.07"/>
</g>
<!-- roo_threads -->
<g id="node21" class="node">
<title>roo_threads</title>
<polygon fill="#b1dbab" stroke="black" points="216,-209 136,-209 136,-171 216,-171 216,-209"/>
<text text-anchor="middle" x="176" y="-193.8" font-family="Times,serif" font-size="14.00">roo_threads</text>
<text text-anchor="middle" x="176" y="-178.8" font-family="Times,serif" font-size="14.00">1.2.1</text>
</g>
<!-- roo_logging&#45;&gt;roo_threads -->
<g id="edge17" class="edge">
<title>roo_logging&#45;&gt;roo_threads</title>
<path fill="none" stroke="black" d="M273.95,-266.84C263.45,-254.78 248.74,-239.01 234,-227 228.69,-222.67 222.82,-218.47 216.92,-214.55"/>
<polygon fill="black" stroke="black" points="218.62,-211.47 208.31,-209.02 214.84,-217.37 218.62,-211.47"/>
</g>
<!-- roo_monitoring -->
<g id="node14" class="node">
<title>roo_monitoring</title>
<polygon fill="khaki" stroke="red" points="686,-497 584,-497 584,-459 686,-459 686,-497"/>
<text text-anchor="middle" x="635" y="-481.8" font-family="Times,serif" font-size="14.00">roo_monitoring</text>
<text text-anchor="middle" x="635" y="-466.8" font-family="Times,serif" font-size="14.00">1.0.0</text>
</g>
<!-- roo_monitoring&#45;&gt;roo_collections -->
<g id="edge18" class="edge">
<title>roo_monitoring&#45;&gt;roo_collections</title>
<path fill="none" stroke="red" d="M611.09,-458.88C591.71,-444.18 564.21,-423.34 542.94,-407.21"/>
<polygon fill="red" stroke="red" points="544.92,-404.32 534.84,-401.07 540.69,-409.9 544.92,-404.32"/>
<text text-anchor="middle" x="611" y="-433" font-family="Times,serif" font-size="10.00" fill="red">1.3.2</text>
<text text-anchor="middle" x="611" y="-422" font-family="Times,serif" font-size="10.00" fill="red">(latest: 1.4.0)</text>
</g>
<!-- roo_monitoring&#45;&gt;roo_io -->
<g id="edge19" class="edge">
<title>roo_monitoring&#45;&gt;roo_io</title>
<path fill="none" stroke="red" d="M583.98,-461.52C580.95,-460.65 577.94,-459.81 575,-459 543.19,-450.26 533.99,-452.29 503,-441 474.34,-430.56 443.41,-415.36 420.27,-403.14"/>
<polygon fill="red" stroke="red" points="421.65,-399.9 411.18,-398.27 418.35,-406.08 421.65,-399.9"/>
<text text-anchor="middle" x="530" y="-433" font-family="Times,serif" font-size="10.00" fill="red">2.0.3</text>
<text text-anchor="middle" x="530" y="-422" font-family="Times,serif" font-size="10.00" fill="red">(latest: 2.1.2)</text>
</g>
<!-- roo_onewire -->
<g id="node15" class="node">
<title>roo_onewire</title>
<polygon fill="#b1dbab" stroke="red" points="270.5,-593 185.5,-593 185.5,-555 270.5,-555 270.5,-593"/>
<text text-anchor="middle" x="228" y="-577.8" font-family="Times,serif" font-size="14.00">roo_onewire</text>
<text text-anchor="middle" x="228" y="-562.8" font-family="Times,serif" font-size="14.00">2.0.7</text>
</g>
<!-- roo_onewire&#45;&gt;roo_quantity -->
<g id="edge21" class="edge">
<title>roo_onewire&#45;&gt;roo_quantity</title>
<path fill="none" stroke="red" d="M195.42,-554.88C168.29,-539.79 129.53,-518.23 100.24,-501.94"/>
<polygon fill="red" stroke="red" points="101.93,-498.87 91.48,-497.07 98.52,-504.99 101.93,-498.87"/>
<text text-anchor="middle" x="186" y="-529" font-family="Times,serif" font-size="10.00" fill="red">1.1.5</text>
<text text-anchor="middle" x="186" y="-518" font-family="Times,serif" font-size="10.00" fill="red">(latest: 1.1.6)</text>
</g>
<!-- roo_onewire&#45;&gt;roo_scheduler -->
<g id="edge20" class="edge">
<title>roo_onewire&#45;&gt;roo_scheduler</title>
<path fill="none" stroke="black" d="M254.82,-554.64C260.16,-549.6 265.04,-543.66 268,-537 271.98,-528.07 271.4,-524.17 268,-515 266.76,-511.65 265.05,-508.4 263.06,-505.32"/>
<polygon fill="black" stroke="black" points="265.71,-503.02 256.91,-497.12 260.11,-507.22 265.71,-503.02"/>
</g>
<!-- roo_powersafefs -->
<g id="node16" class="node">
<title>roo_powersafefs</title>
<polygon fill="plum" stroke="red" points="229.5,-305 122.5,-305 122.5,-267 229.5,-267 229.5,-305"/>
<text text-anchor="middle" x="176" y="-289.8" font-family="Times,serif" font-size="14.00">roo_powersafefs</text>
<text text-anchor="middle" x="176" y="-274.8" font-family="Times,serif" font-size="14.00">1.0.0</text>
</g>
<!-- roo_powersafefs&#45;&gt;roo_threads -->
<g id="edge22" class="edge">
<title>roo_powersafefs&#45;&gt;roo_threads</title>
<path fill="none" stroke="red" d="M176,-266.88C176,-253.35 176,-234.62 176,-219.15"/>
<polygon fill="red" stroke="red" points="179.5,-219.07 176,-209.07 172.5,-219.07 179.5,-219.07"/>
<text text-anchor="middle" x="203" y="-241" font-family="Times,serif" font-size="10.00" fill="red">1.1.6</text>
<text text-anchor="middle" x="203" y="-230" font-family="Times,serif" font-size="10.00" fill="red">(latest: 1.2.1)</text>
</g>
<!-- roo_prefs -->
<g id="node17" class="node">
<title>roo_prefs</title>
<polygon fill="#b1dbab" stroke="red" points="447,-593 379,-593 379,-555 447,-555 447,-593"/>
<text text-anchor="middle" x="413" y="-577.8" font-family="Times,serif" font-size="14.00">roo_prefs</text>
<text text-anchor="middle" x="413" y="-562.8" font-family="Times,serif" font-size="14.00">1.2.7</text>
</g>
<!-- roo_prefs&#45;&gt;roo_logging -->
<g id="edge23" class="edge">
<title>roo_prefs&#45;&gt;roo_logging</title>
<path fill="none" stroke="red" d="M399.68,-554.63C382.26,-529.88 351.76,-483.98 333,-441 314.51,-398.64 301.48,-346.37 294.62,-314.91"/>
<polygon fill="red" stroke="red" points="298.03,-314.14 292.53,-305.09 291.19,-315.6 298.03,-314.14"/>
<text text-anchor="middle" x="360" y="-433" font-family="Times,serif" font-size="10.00" fill="red">1.5.1</text>
<text text-anchor="middle" x="360" y="-422" font-family="Times,serif" font-size="10.00" fill="red">(latest: 1.5.3)</text>
</g>
<!-- roo_prefs&#45;&gt;roo_scheduler -->
<g id="edge24" class="edge">
<title>roo_prefs&#45;&gt;roo_scheduler</title>
<path fill="none" stroke="black" d="M379.07,-554.88C350.82,-539.79 310.45,-518.23 279.95,-501.94"/>
<polygon fill="black" stroke="black" points="281.3,-498.69 270.83,-497.07 278,-504.87 281.3,-498.69"/>
</g>
<!-- roo_quantity&#45;&gt;roo_logging -->
<g id="edge25" class="edge">
<title>roo_quantity&#45;&gt;roo_logging</title>
<path fill="none" stroke="red" d="M70.04,-458.73C84.84,-435.07 112.79,-393.29 143,-363 164.09,-341.85 170.86,-337.46 197,-323 204.65,-318.77 220.81,-312.19 237.48,-305.82"/>
<polygon fill="red" stroke="red" points="239.18,-308.91 247.29,-302.1 236.7,-302.37 239.18,-308.91"/>
<text text-anchor="middle" x="170" y="-385" font-family="Times,serif" font-size="10.00" fill="red">1.5.2</text>
<text text-anchor="middle" x="170" y="-374" font-family="Times,serif" font-size="10.00" fill="red">(latest: 1.5.3)</text>
</g>
<!-- roo_scheduler&#45;&gt;roo_collections -->
<g id="edge26" class="edge">
<title>roo_scheduler&#45;&gt;roo_collections</title>
<path fill="none" stroke="black" d="M283.79,-460.95C329.93,-445.12 400.65,-420.86 450.92,-403.61"/>
<polygon fill="black" stroke="black" points="452.37,-406.82 460.69,-400.26 450.09,-400.19 452.37,-406.82"/>
</g>
<!-- roo_scheduler&#45;&gt;roo_threads -->
<g id="edge27" class="edge">
<title>roo_scheduler&#45;&gt;roo_threads</title>
<path fill="none" stroke="red" d="M225.22,-458.96C210.27,-436.25 183.48,-396.2 159,-363 139.48,-336.52 123.82,-336.07 113,-305 107.44,-289.05 107.27,-282.89 113,-267 119.97,-247.68 134.21,-229.8 147.4,-216.24"/>
<polygon fill="red" stroke="red" points="149.9,-218.69 154.56,-209.17 144.98,-213.7 149.9,-218.69"/>
<text text-anchor="middle" x="170" y="-337" font-family="Times,serif" font-size="10.00" fill="red">1.2.0</text>
<text text-anchor="middle" x="170" y="-326" font-family="Times,serif" font-size="10.00" fill="red">(latest: 1.2.1)</text>
</g>
<!-- roo_testing -->
<g id="node20" class="node">
<title>roo_testing</title>
<polygon fill="#b1dbab" stroke="black" points="134.5,-38 57.5,-38 57.5,0 134.5,0 134.5,-38"/>
<text text-anchor="middle" x="96" y="-22.8" font-family="Times,serif" font-size="14.00">roo_testing</text>
<text text-anchor="middle" x="96" y="-7.8" font-family="Times,serif" font-size="14.00">1.2.1</text>
</g>
<!-- roo_time -->
<g id="node22" class="node">
<title>roo_time</title>
<polygon fill="#b1dbab" stroke="black" points="129,-113 63,-113 63,-75 129,-75 129,-113"/>
<text text-anchor="middle" x="96" y="-97.8" font-family="Times,serif" font-size="14.00">roo_time</text>
<text text-anchor="middle" x="96" y="-82.8" font-family="Times,serif" font-size="14.00">1.4.1</text>
</g>
<!-- roo_threads&#45;&gt;roo_time -->
<g id="edge28" class="edge">
<title>roo_threads&#45;&gt;roo_time</title>
<path fill="none" stroke="black" d="M166.3,-170.76C159.49,-158.81 149.72,-143.2 139,-131 135.63,-127.17 131.84,-123.39 127.94,-119.82"/>
<polygon fill="black" stroke="black" points="130.22,-117.16 120.39,-113.22 125.62,-122.44 130.22,-117.16"/>
</g>
<!-- roo_time&#45;&gt;roo_testing -->
<g id="edge29" class="edge">
<title>roo_time&#45;&gt;roo_testing</title>
<path fill="none" stroke="black" d="M96,-74.96C96,-66.88 96,-57.18 96,-48.18"/>
<polygon fill="black" stroke="black" points="99.5,-48.09 96,-38.09 92.5,-48.09 99.5,-48.09"/>
</g>
<!-- roo_time_ds3231 -->
<g id="node23" class="node">
<title>roo_time_ds3231</title>
<polygon fill="#b1dbab" stroke="red" points="118,-209 6,-209 6,-171 118,-171 118,-209"/>
<text text-anchor="middle" x="62" y="-193.8" font-family="Times,serif" font-size="14.00">roo_time_ds3231</text>
<text text-anchor="middle" x="62" y="-178.8" font-family="Times,serif" font-size="14.00">1.1.4</text>
</g>
<!-- roo_time_ds3231&#45;&gt;roo_time -->
<g id="edge30" class="edge">
<title>roo_time_ds3231&#45;&gt;roo_time</title>
<path fill="none" stroke="red" d="M68.56,-170.88C73.49,-157.22 80.35,-138.26 85.98,-122.71"/>
<polygon fill="red" stroke="red" points="89.35,-123.66 89.46,-113.07 82.77,-121.28 89.35,-123.66"/>
<text text-anchor="middle" x="110" y="-145" font-family="Times,serif" font-size="10.00" fill="red">1.4.0</text>
<text text-anchor="middle" x="110" y="-134" font-family="Times,serif" font-size="10.00" fill="red">(latest: 1.4.1)</text>
</g>
<!-- roo_transceivers&#45;&gt;roo_prefs -->
<g id="edge31" class="edge">
<title>roo_transceivers&#45;&gt;roo_prefs</title>
<path fill="none" stroke="black" d="M394.18,-629.96C397,-621.71 400.41,-611.75 403.55,-602.6"/>
<polygon fill="black" stroke="black" points="406.88,-603.68 406.8,-593.09 400.25,-601.42 406.88,-603.68"/>
</g>
<!-- roo_transport -->
<g id="node25" class="node">
<title>roo_transport</title>
<polygon fill="khaki" stroke="red" points="467.5,-497 378.5,-497 378.5,-459 467.5,-459 467.5,-497"/>
<text text-anchor="middle" x="423" y="-481.8" font-family="Times,serif" font-size="14.00">roo_transport</text>
<text text-anchor="middle" x="423" y="-466.8" font-family="Times,serif" font-size="14.00">1.1.0</text>
</g>
<!-- roo_transport&#45;&gt;roo_collections -->
<g id="edge32" class="edge">
<title>roo_transport&#45;&gt;roo_collections</title>
<path fill="none" stroke="black" d="M467.75,-462.94C478.67,-457.61 489.39,-450.46 497,-441 503.7,-432.67 507.27,-421.64 509.15,-411.43"/>
<polygon fill="black" stroke="black" points="512.66,-411.63 510.56,-401.24 505.72,-410.67 512.66,-411.63"/>
</g>
<!-- roo_transport&#45;&gt;roo_io -->
<g id="edge33" class="edge">
<title>roo_transport&#45;&gt;roo_io</title>
<path fill="none" stroke="black" d="M408.37,-458.73C404.55,-453.27 400.74,-447.11 398,-441 393.79,-431.63 390.75,-420.82 388.59,-411.09"/>
<polygon fill="black" stroke="black" points="391.98,-410.19 386.59,-401.07 385.12,-411.57 391.98,-410.19"/>
</g>
<!-- roo_wifi -->
<g id="node26" class="node">
<title>roo_wifi</title>
<polygon fill="#b1dbab" stroke="red" points="522.5,-668 459.5,-668 459.5,-630 522.5,-630 522.5,-668"/>
<text text-anchor="middle" x="491" y="-652.8" font-family="Times,serif" font-size="14.00">roo_wifi</text>
<text text-anchor="middle" x="491" y="-637.8" font-family="Times,serif" font-size="14.00">1.1.3</text>
</g>
<!-- roo_wifi&#45;&gt;roo_prefs -->
<g id="edge34" class="edge">
<title>roo_wifi&#45;&gt;roo_prefs</title>
<path fill="none" stroke="black" d="M471.72,-629.96C462.06,-620.92 450.22,-609.83 439.7,-599.99"/>
<polygon fill="black" stroke="black" points="442.02,-597.37 432.33,-593.09 437.24,-602.48 442.02,-597.37"/>
</g>
<!-- roo_windows&#45;&gt;roo_icons -->
<g id="edge36" class="edge">
<title>roo_windows&#45;&gt;roo_icons</title>
<path fill="none" stroke="black" d="M575.64,-629.96C569.75,-621.36 562.59,-610.9 556.1,-601.43"/>
<polygon fill="black" stroke="black" points="558.93,-599.36 550.39,-593.09 553.15,-603.32 558.93,-599.36"/>
</g>
<!-- roo_windows&#45;&gt;roo_locale -->
<g id="edge35" class="edge">
<title>roo_windows&#45;&gt;roo_locale</title>
<path fill="none" stroke="black" d="M597.89,-629.96C602.5,-621.53 608.09,-611.33 613.2,-602.01"/>
<polygon fill="black" stroke="black" points="616.35,-603.54 618.09,-593.09 610.21,-600.18 616.35,-603.54"/>
</g>
<!-- roo_windows&#45;&gt;roo_scheduler -->
<g id="edge37" class="edge">
<title>roo_windows&#45;&gt;roo_scheduler</title>
<path fill="none" stroke="black" d="M552.26,-629.91C534.1,-620.03 512.11,-606.98 494,-593 475.09,-578.41 476.24,-567.68 456,-555 405.32,-523.25 339.69,-502.75 293.54,-491.14"/>
<polygon fill="black" stroke="black" points="294.25,-487.71 283.71,-488.73 292.58,-494.51 294.25,-487.71"/>
</g>
<!-- roo_windows_transceivers -->
<g id="node28" class="node">
<title>roo_windows_transceivers</title>
<polygon fill="khaki" stroke="red" points="468.5,-764 307.5,-764 307.5,-726 468.5,-726 468.5,-764"/>
<text text-anchor="middle" x="388" y="-748.8" font-family="Times,serif" font-size="14.00">roo_windows_transceivers</text>
<text text-anchor="middle" x="388" y="-733.8" font-family="Times,serif" font-size="14.00">1.0.0</text>
</g>
<!-- roo_windows_transceivers&#45;&gt;roo_transceivers -->
<g id="edge38" class="edge">
<title>roo_windows_transceivers&#45;&gt;roo_transceivers</title>
<path fill="none" stroke="red" d="M388,-725.88C388,-712.35 388,-693.62 388,-678.15"/>
<polygon fill="red" stroke="red" points="391.5,-678.07 388,-668.07 384.5,-678.07 391.5,-678.07"/>
<text text-anchor="middle" x="415" y="-700" font-family="Times,serif" font-size="10.00" fill="red">1.1.3</text>
<text text-anchor="middle" x="415" y="-689" font-family="Times,serif" font-size="10.00" fill="red">(latest: 1.1.4)</text>
</g>
<!-- roo_windows_transceivers&#45;&gt;roo_windows -->
<g id="edge39" class="edge">
<title>roo_windows_transceivers&#45;&gt;roo_windows</title>
<path fill="none" stroke="red" d="M426.56,-725.88C458.93,-710.66 505.33,-688.85 540.08,-672.52"/>
<polygon fill="red" stroke="red" points="541.99,-675.49 549.56,-668.07 539.02,-669.15 541.99,-675.49"/>
<text text-anchor="middle" x="532" y="-700" font-family="Times,serif" font-size="10.00" fill="red">1.4.1</text>
<text text-anchor="middle" x="532" y="-689" font-family="Times,serif" font-size="10.00" fill="red">(latest: 1.4.2)</text>
</g>
<!-- roo_windows_wifi -->
<g id="node29" class="node">
<title>roo_windows_wifi</title>
<polygon fill="plum" stroke="red" points="605.5,-764 486.5,-764 486.5,-726 605.5,-726 605.5,-764"/>
<text text-anchor="middle" x="546" y="-748.8" font-family="Times,serif" font-size="14.00">roo_windows_wifi</text>
<text text-anchor="middle" x="546" y="-733.8" font-family="Times,serif" font-size="14.00">1.1.3</text>
</g>
<!-- roo_windows_wifi&#45;&gt;roo_wifi -->
<g id="edge40" class="edge">
<title>roo_windows_wifi&#45;&gt;roo_wifi</title>
<path fill="none" stroke="black" d="M517.93,-725.97C511.84,-720.85 506.03,-714.79 502,-708 496.73,-699.14 493.91,-688.28 492.42,-678.37"/>
<polygon fill="black" stroke="black" points="495.86,-677.67 491.27,-668.12 488.9,-678.45 495.86,-677.67"/>
</g>
<!-- roo_windows_wifi&#45;&gt;roo_windows -->
<g id="edge41" class="edge">
<title>roo_windows_wifi&#45;&gt;roo_windows</title>
<path fill="none" stroke="black" d="M564.1,-725.8C568.58,-720.43 572.96,-714.3 576,-708 580.43,-698.82 583.23,-688.05 584.99,-678.3"/>
<polygon fill="black" stroke="black" points="588.48,-678.66 586.53,-668.24 581.56,-677.6 588.48,-678.66"/>
</g>
</g>
</svg>
