<?xml version="1.0" encoding="UTF-8" standalone="no"?>
<!DOCTYPE svg PUBLIC "-//W3C//DTD SVG 1.1//EN"
 "http://www.w3.org/Graphics/SVG/1.1/DTD/svg11.dtd">
<!-- Generated by graphviz version 2.42.4 (0)
 -->
<!-- Title: dependencies Pages: 1 -->
<svg width="1103pt" height="751pt"
 viewBox="0.00 0.00 1102.50 751.00" xmlns="http://www.w3.org/2000/svg" xmlns:xlink="http://www.w3.org/1999/xlink">
<g id="graph0" class="graph" transform="scale(1 1) rotate(0) translate(4 747)">
<title>dependencies</title>
<polygon fill="white" stroke="transparent" points="-4,4 -4,-747 1098.5,-747 1098.5,4 -4,4"/>
<!-- roo_backport -->
<g id="node1" class="node">
<title>roo_backport</title>
<polygon fill="lightblue" stroke="black" points="792.5,-134 703.5,-134 703.5,-96 792.5,-96 792.5,-134"/>
<text text-anchor="middle" x="748" y="-118.8" font-family="Times,serif" font-size="14.00">roo_backport</text>
<text text-anchor="middle" x="748" y="-103.8" font-family="Times,serif" font-size="14.00">1.1.0</text>
</g>
<!-- roo_blink -->
<g id="node2" class="node">
<title>roo_blink</title>
<polygon fill="lightyellow" stroke="black" points="390.5,-422 321.5,-422 321.5,-384 390.5,-384 390.5,-422"/>
<text text-anchor="middle" x="356" y="-406.8" font-family="Times,serif" font-size="14.00">roo_blink</text>
<text text-anchor="middle" x="356" y="-391.8" font-family="Times,serif" font-size="14.00">1.0.0</text>
</g>
<!-- roo_logging -->
<g id="node13" class="node">
<title>roo_logging</title>
<polygon fill="lightblue" stroke="black" points="416.5,-326 333.5,-326 333.5,-288 416.5,-288 416.5,-326"/>
<text text-anchor="middle" x="375" y="-310.8" font-family="Times,serif" font-size="14.00">roo_logging</text>
<text text-anchor="middle" x="375" y="-295.8" font-family="Times,serif" font-size="14.00">1.4.0</text>
</g>
<!-- roo_blink&#45;&gt;roo_logging -->
<g id="edge2" class="edge">
<title>roo_blink&#45;&gt;roo_logging</title>
<path fill="none" stroke="red" d="M339.91,-383.83C331.75,-372.32 324.75,-357.18 331,-344 332.76,-340.29 335.1,-336.84 337.8,-333.66"/>
<polygon fill="red" stroke="red" points="340.53,-335.87 345.1,-326.31 335.57,-330.94 340.53,-335.87"/>
<text text-anchor="middle" x="358" y="-358" font-family="Times,serif" font-size="10.00" fill="red">1.2.0</text>
<text text-anchor="middle" x="358" y="-347" font-family="Times,serif" font-size="10.00" fill="red">(latest: 1.4.0)</text>
</g>
<!-- roo_scheduler -->
<g id="node17" class="node">
<title>roo_scheduler</title>
<polygon fill="lightyellow" stroke="black" points="626.5,-326 533.5,-326 533.5,-288 626.5,-288 626.5,-326"/>
<text text-anchor="middle" x="580" y="-310.8" font-family="Times,serif" font-size="14.00">roo_scheduler</text>
<text text-anchor="middle" x="580" y="-295.8" font-family="Times,serif" font-size="14.00">2.1.3</text>
</g>
<!-- roo_blink&#45;&gt;roo_scheduler -->
<g id="edge3" class="edge">
<title>roo_blink&#45;&gt;roo_scheduler</title>
<path fill="none" stroke="red" d="M390.62,-386.24C404.43,-379.95 420.47,-372.64 435,-366 456.34,-356.25 461.32,-352.98 483,-344 496.09,-338.58 510.32,-333.08 523.74,-328.07"/>
<polygon fill="red" stroke="red" points="525.18,-331.27 533.35,-324.52 522.75,-324.71 525.18,-331.27"/>
<text text-anchor="middle" x="510" y="-358" font-family="Times,serif" font-size="10.00" fill="red">2.1.1</text>
<text text-anchor="middle" x="510" y="-347" font-family="Times,serif" font-size="10.00" fill="red">(latest: 2.1.3)</text>
</g>
<!-- roo_testing -->
<g id="node18" class="node">
<title>roo_testing</title>
<polygon fill="lightblue" stroke="black" points="456.5,-38 379.5,-38 379.5,0 456.5,0 456.5,-38"/>
<text text-anchor="middle" x="418" y="-22.8" font-family="Times,serif" font-size="14.00">roo_testing</text>
<text text-anchor="middle" x="418" y="-7.8" font-family="Times,serif" font-size="14.00">1.1.4</text>
</g>
<!-- roo_blink&#45;&gt;roo_testing -->
<g id="edge1" class="edge">
<title>roo_blink&#45;&gt;roo_testing</title>
<path fill="none" stroke="red" d="M376.47,-383.72C391.6,-369.29 411.78,-347.99 425,-326 461.23,-265.72 463.4,-244.11 469,-174 473.22,-121.18 477.99,-102.18 452,-56 450.02,-52.48 447.62,-49.03 445.02,-45.76"/>
<polygon fill="red" stroke="red" points="447.48,-43.26 438.27,-38.02 442.2,-47.86 447.48,-43.26"/>
<text text-anchor="middle" x="495" y="-214" font-family="Times,serif" font-size="10.00" fill="red">1.1.2</text>
<text text-anchor="middle" x="495" y="-203" font-family="Times,serif" font-size="10.00" fill="red">(latest: 1.1.4)</text>
</g>
<!-- roo_threads -->
<g id="node19" class="node">
<title>roo_threads</title>
<polygon fill="lightyellow" stroke="black" points="301,-230 221,-230 221,-192 301,-192 301,-230"/>
<text text-anchor="middle" x="261" y="-214.8" font-family="Times,serif" font-size="14.00">roo_threads</text>
<text text-anchor="middle" x="261" y="-199.8" font-family="Times,serif" font-size="14.00">1.1.3</text>
</g>
<!-- roo_blink&#45;&gt;roo_threads -->
<g id="edge4" class="edge">
<title>roo_blink&#45;&gt;roo_threads</title>
<path fill="none" stroke="red" d="M325.43,-383.83C305.96,-370.47 282.19,-350.42 270,-326 256.62,-299.2 255.89,-264.38 257.54,-240.32"/>
<polygon fill="red" stroke="red" points="261.05,-240.35 258.43,-230.08 254.08,-239.74 261.05,-240.35"/>
<text text-anchor="middle" x="297" y="-310" font-family="Times,serif" font-size="10.00" fill="red">1.1.2</text>
<text text-anchor="middle" x="297" y="-299" font-family="Times,serif" font-size="10.00" fill="red">(latest: 1.1.3)</text>
</g>
<!-- roo_time -->
<g id="node20" class="node">
<title>roo_time</title>
<polygon fill="lightblue" stroke="black" points="251,-134 185,-134 185,-96 251,-96 251,-134"/>
<text text-anchor="middle" x="218" y="-118.8" font-family="Times,serif" font-size="14.00">roo_time</text>
<text text-anchor="middle" x="218" y="-103.8" font-family="Times,serif" font-size="14.00">1.3.0</text>
</g>
<!-- roo_blink&#45;&gt;roo_time -->
<g id="edge5" class="edge">
<title>roo_blink&#45;&gt;roo_time</title>
<path fill="none" stroke="red" d="M321.46,-389.07C267.07,-366.5 163.79,-314.15 126,-230 119.08,-214.59 118.8,-207.28 126,-192 136.49,-169.73 157.06,-151.77 176.09,-138.9"/>
<polygon fill="red" stroke="red" points="178.18,-141.72 184.68,-133.35 174.38,-135.84 178.18,-141.72"/>
<text text-anchor="middle" x="176" y="-262" font-family="Times,serif" font-size="10.00" fill="red">1.2.1</text>
<text text-anchor="middle" x="176" y="-251" font-family="Times,serif" font-size="10.00" fill="red">(latest: 1.3.0)</text>
</g>
<!-- roo_collections -->
<g id="node3" class="node">
<title>roo_collections</title>
<polygon fill="lightyellow" stroke="black" points="850,-230 750,-230 750,-192 850,-192 850,-230"/>
<text text-anchor="middle" x="800" y="-214.8" font-family="Times,serif" font-size="14.00">roo_collections</text>
<text text-anchor="middle" x="800" y="-199.8" font-family="Times,serif" font-size="14.00">1.3.1</text>
</g>
<!-- roo_collections&#45;&gt;roo_backport -->
<g id="edge6" class="edge">
<title>roo_collections&#45;&gt;roo_backport</title>
<path fill="none" stroke="black" d="M789.97,-191.88C782.28,-177.96 771.53,-158.53 762.84,-142.82"/>
<polygon fill="black" stroke="black" points="765.9,-141.12 758,-134.07 759.77,-144.51 765.9,-141.12"/>
</g>
<!-- roo_comms -->
<g id="node4" class="node">
<title>roo_comms</title>
<polygon fill="lightyellow" stroke="black" points="483,-593 401,-593 401,-555 483,-555 483,-593"/>
<text text-anchor="middle" x="442" y="-577.8" font-family="Times,serif" font-size="14.00">roo_comms</text>
<text text-anchor="middle" x="442" y="-562.8" font-family="Times,serif" font-size="14.00">1.0.0</text>
</g>
<!-- roo_comms&#45;&gt;roo_blink -->
<g id="edge7" class="edge">
<title>roo_comms&#45;&gt;roo_blink</title>
<path fill="none" stroke="black" d="M414.49,-554.84C402.13,-545.3 388.46,-532.56 380,-518 364.67,-491.61 359.07,-456.73 357.06,-432.53"/>
<polygon fill="black" stroke="black" points="360.53,-431.97 356.37,-422.23 353.55,-432.44 360.53,-431.97"/>
</g>
<!-- roo_control -->
<g id="node5" class="node">
<title>roo_control</title>
<polygon fill="lightblue" stroke="black" points="333,-518 253,-518 253,-480 333,-480 333,-518"/>
<text text-anchor="middle" x="293" y="-502.8" font-family="Times,serif" font-size="14.00">roo_control</text>
<text text-anchor="middle" x="293" y="-487.8" font-family="Times,serif" font-size="14.00">1.2.0</text>
</g>
<!-- roo_comms&#45;&gt;roo_control -->
<g id="edge8" class="edge">
<title>roo_comms&#45;&gt;roo_control</title>
<path fill="none" stroke="black" d="M400.86,-559.83C383.79,-553.75 364.04,-545.9 347,-537 339.71,-533.19 332.22,-528.57 325.23,-523.91"/>
<polygon fill="black" stroke="black" points="326.91,-520.83 316.69,-518.04 322.95,-526.59 326.91,-520.83"/>
</g>
<!-- roo_io -->
<g id="node10" class="node">
<title>roo_io</title>
<polygon fill="lightblue" stroke="black" points="750,-422 696,-422 696,-384 750,-384 750,-422"/>
<text text-anchor="middle" x="723" y="-406.8" font-family="Times,serif" font-size="14.00">roo_io</text>
<text text-anchor="middle" x="723" y="-391.8" font-family="Times,serif" font-size="14.00">2.0.1</text>
</g>
<!-- roo_comms&#45;&gt;roo_io -->
<g id="edge9" class="edge">
<title>roo_comms&#45;&gt;roo_io</title>
<path fill="none" stroke="black" d="M483.03,-564.79C516.37,-556.74 563.51,-542.09 599,-518 617.51,-505.44 613.47,-492.53 632,-480 652.26,-466.3 664.62,-476.92 684,-462 694.67,-453.79 703.41,-441.8 709.9,-430.85"/>
<polygon fill="black" stroke="black" points="713.02,-432.45 714.81,-422.01 706.9,-429.05 713.02,-432.45"/>
</g>
<!-- roo_prefs -->
<g id="node15" class="node">
<title>roo_prefs</title>
<polygon fill="lightblue" stroke="black" points="605,-422 537,-422 537,-384 605,-384 605,-422"/>
<text text-anchor="middle" x="571" y="-406.8" font-family="Times,serif" font-size="14.00">roo_prefs</text>
<text text-anchor="middle" x="571" y="-391.8" font-family="Times,serif" font-size="14.00">1.2.1</text>
</g>
<!-- roo_comms&#45;&gt;roo_prefs -->
<g id="edge10" class="edge">
<title>roo_comms&#45;&gt;roo_prefs</title>
<path fill="none" stroke="red" d="M463.74,-554.84C493.65,-529.4 545.15,-483.83 557,-462 561.94,-452.91 565.15,-442.08 567.24,-432.26"/>
<polygon fill="red" stroke="red" points="570.74,-432.59 569.09,-422.12 563.85,-431.33 570.74,-432.59"/>
<text text-anchor="middle" x="570" y="-502" font-family="Times,serif" font-size="10.00" fill="red">1.2.0</text>
<text text-anchor="middle" x="570" y="-491" font-family="Times,serif" font-size="10.00" fill="red">(latest: 1.2.1)</text>
</g>
<!-- roo_transceivers -->
<g id="node22" class="node">
<title>roo_transceivers</title>
<polygon fill="lightblue" stroke="black" points="495,-518 389,-518 389,-480 495,-480 495,-518"/>
<text text-anchor="middle" x="442" y="-502.8" font-family="Times,serif" font-size="14.00">roo_transceivers</text>
<text text-anchor="middle" x="442" y="-487.8" font-family="Times,serif" font-size="14.00">1.1.1</text>
</g>
<!-- roo_comms&#45;&gt;roo_transceivers -->
<g id="edge11" class="edge">
<title>roo_comms&#45;&gt;roo_transceivers</title>
<path fill="none" stroke="black" d="M442,-554.96C442,-546.88 442,-537.18 442,-528.18"/>
<polygon fill="black" stroke="black" points="445.5,-528.09 442,-518.09 438.5,-528.09 445.5,-528.09"/>
</g>
<!-- roo_control&#45;&gt;roo_logging -->
<g id="edge12" class="edge">
<title>roo_control&#45;&gt;roo_logging</title>
<path fill="none" stroke="black" d="M292.17,-479.95C291.66,-449.08 294.73,-385.47 325,-344 328.04,-339.84 331.7,-335.97 335.64,-332.43"/>
<polygon fill="black" stroke="black" points="337.95,-335.07 343.49,-326.04 333.53,-329.64 337.95,-335.07"/>
</g>
<!-- roo_quantity -->
<g id="node16" class="node">
<title>roo_quantity</title>
<polygon fill="lightblue" stroke="black" points="175,-422 89,-422 89,-384 175,-384 175,-422"/>
<text text-anchor="middle" x="132" y="-406.8" font-family="Times,serif" font-size="14.00">roo_quantity</text>
<text text-anchor="middle" x="132" y="-391.8" font-family="Times,serif" font-size="14.00">1.1.1</text>
</g>
<!-- roo_control&#45;&gt;roo_quantity -->
<g id="edge13" class="edge">
<title>roo_control&#45;&gt;roo_quantity</title>
<path fill="none" stroke="black" d="M261.96,-479.88C236.23,-464.86 199.5,-443.41 171.65,-427.15"/>
<polygon fill="black" stroke="black" points="173.35,-424.09 162.95,-422.07 169.82,-430.13 173.35,-424.09"/>
</g>
<!-- roo_control&#45;&gt;roo_scheduler -->
<g id="edge14" class="edge">
<title>roo_control&#45;&gt;roo_scheduler</title>
<path fill="none" stroke="black" d="M333.36,-489.65C379.58,-480 449.67,-465.04 455,-462 496.24,-438.47 490.28,-412.84 528,-384 541.58,-373.62 551.08,-379.16 562,-366 569.02,-357.54 573.3,-346.35 575.92,-336.06"/>
<polygon fill="black" stroke="black" points="579.36,-336.71 578.02,-326.2 572.51,-335.25 579.36,-336.71"/>
</g>
<!-- roo_dashboard -->
<g id="node6" class="node">
<title>roo_dashboard</title>
<polygon fill="lightblue" stroke="black" points="957.5,-743 860.5,-743 860.5,-705 957.5,-705 957.5,-743"/>
<text text-anchor="middle" x="909" y="-727.8" font-family="Times,serif" font-size="14.00">roo_dashboard</text>
<text text-anchor="middle" x="909" y="-712.8" font-family="Times,serif" font-size="14.00">1.0.0</text>
</g>
<!-- roo_windows -->
<g id="node25" class="node">
<title>roo_windows</title>
<polygon fill="lightblue" stroke="black" points="956,-668 866,-668 866,-630 956,-630 956,-668"/>
<text text-anchor="middle" x="911" y="-652.8" font-family="Times,serif" font-size="14.00">roo_windows</text>
<text text-anchor="middle" x="911" y="-637.8" font-family="Times,serif" font-size="14.00">1.4.0</text>
</g>
<!-- roo_dashboard&#45;&gt;roo_windows -->
<g id="edge15" class="edge">
<title>roo_dashboard&#45;&gt;roo_windows</title>
<path fill="none" stroke="black" d="M909.49,-704.96C909.72,-696.88 909.98,-687.18 910.23,-678.18"/>
<polygon fill="black" stroke="black" points="913.73,-678.18 910.5,-668.09 906.73,-677.99 913.73,-678.18"/>
</g>
<!-- roo_display -->
<g id="node7" class="node">
<title>roo_display</title>
<polygon fill="lightyellow" stroke="black" points="839,-518 759,-518 759,-480 839,-480 839,-518"/>
<text text-anchor="middle" x="799" y="-502.8" font-family="Times,serif" font-size="14.00">roo_display</text>
<text text-anchor="middle" x="799" y="-487.8" font-family="Times,serif" font-size="14.00">2.2.2</text>
</g>
<!-- roo_display&#45;&gt;roo_collections -->
<g id="edge16" class="edge">
<title>roo_display&#45;&gt;roo_collections</title>
<path fill="none" stroke="black" d="M799.06,-479.67C799.23,-431.14 799.7,-299.02 799.9,-240.52"/>
<polygon fill="black" stroke="black" points="803.4,-240.19 799.94,-230.17 796.4,-240.16 803.4,-240.19"/>
</g>
<!-- roo_display&#45;&gt;roo_io -->
<g id="edge17" class="edge">
<title>roo_display&#45;&gt;roo_io</title>
<path fill="none" stroke="black" d="M778.64,-479.66C773.01,-474.2 767.05,-468.05 762,-462 753.88,-452.27 745.9,-440.83 739.29,-430.69"/>
<polygon fill="black" stroke="black" points="742.2,-428.74 733.87,-422.19 736.29,-432.51 742.2,-428.74"/>
</g>
<!-- roo_flags -->
<g id="node8" class="node">
<title>roo_flags</title>
<polygon fill="lightblue" stroke="black" points="203,-230 135,-230 135,-192 203,-192 203,-230"/>
<text text-anchor="middle" x="169" y="-214.8" font-family="Times,serif" font-size="14.00">roo_flags</text>
<text text-anchor="middle" x="169" y="-199.8" font-family="Times,serif" font-size="14.00">1.1.0</text>
</g>
<!-- roo_icons -->
<g id="node9" class="node">
<title>roo_icons</title>
<polygon fill="lightblue" stroke="black" points="946,-593 876,-593 876,-555 946,-555 946,-593"/>
<text text-anchor="middle" x="911" y="-577.8" font-family="Times,serif" font-size="14.00">roo_icons</text>
<text text-anchor="middle" x="911" y="-562.8" font-family="Times,serif" font-size="14.00">1.2.0</text>
</g>
<!-- roo_icons&#45;&gt;roo_display -->
<g id="edge18" class="edge">
<title>roo_icons&#45;&gt;roo_display</title>
<path fill="none" stroke="black" d="M883.31,-554.96C868.78,-545.48 850.78,-533.75 835.16,-523.57"/>
<polygon fill="black" stroke="black" points="837.04,-520.62 826.76,-518.09 833.22,-526.48 837.04,-520.62"/>
</g>
<!-- roo_io&#45;&gt;roo_backport -->
<g id="edge19" class="edge">
<title>roo_io&#45;&gt;roo_backport</title>
<path fill="none" stroke="black" d="M724.53,-383.74C727.58,-347.28 734.7,-262.89 741,-192 742.4,-176.22 744.02,-158.61 745.35,-144.32"/>
<polygon fill="black" stroke="black" points="748.86,-144.4 746.3,-134.12 741.89,-143.75 748.86,-144.4"/>
</g>
<!-- roo_io&#45;&gt;roo_logging -->
<g id="edge20" class="edge">
<title>roo_io&#45;&gt;roo_logging</title>
<path fill="none" stroke="black" d="M695.95,-392.56C660.44,-380.38 596.03,-358.96 540,-344 502.42,-333.97 459.49,-324.67 426.84,-318.03"/>
<polygon fill="black" stroke="black" points="427.11,-314.52 416.62,-315.98 425.73,-321.38 427.11,-314.52"/>
</g>
<!-- roo_io_arduino -->
<g id="node11" class="node">
<title>roo_io_arduino</title>
<polygon fill="lightblue" stroke="black" points="741,-518 641,-518 641,-480 741,-480 741,-518"/>
<text text-anchor="middle" x="691" y="-502.8" font-family="Times,serif" font-size="14.00">roo_io_arduino</text>
<text text-anchor="middle" x="691" y="-487.8" font-family="Times,serif" font-size="14.00">1.2.4</text>
</g>
<!-- roo_io_arduino&#45;&gt;roo_io -->
<g id="edge21" class="edge">
<title>roo_io_arduino&#45;&gt;roo_io</title>
<path fill="none" stroke="black" d="M701.17,-479.67C703.98,-474.11 706.84,-467.91 709,-462 712.5,-452.43 715.38,-441.64 717.59,-431.99"/>
<polygon fill="black" stroke="black" points="721.04,-432.59 719.74,-422.08 714.2,-431.11 721.04,-432.59"/>
</g>
<!-- roo_locale -->
<g id="node12" class="node">
<title>roo_locale</title>
<polygon fill="lightblue" stroke="black" points="858,-593 784,-593 784,-555 858,-555 858,-593"/>
<text text-anchor="middle" x="821" y="-577.8" font-family="Times,serif" font-size="14.00">roo_locale</text>
<text text-anchor="middle" x="821" y="-562.8" font-family="Times,serif" font-size="14.00">1.1.0</text>
</g>
<!-- roo_logging&#45;&gt;roo_flags -->
<g id="edge23" class="edge">
<title>roo_logging&#45;&gt;roo_flags</title>
<path fill="none" stroke="black" d="M335.28,-287.88C300.08,-271.81 248.77,-248.4 212.48,-231.84"/>
<polygon fill="black" stroke="black" points="213.68,-228.54 203.13,-227.57 210.78,-234.91 213.68,-228.54"/>
</g>
<!-- roo_logging&#45;&gt;roo_testing -->
<g id="edge22" class="edge">
<title>roo_logging&#45;&gt;roo_testing</title>
<path fill="none" stroke="black" d="M396.75,-287.83C411.86,-273.78 430.86,-252.9 440,-230 462.09,-174.65 455.12,-154.73 445,-96 442.17,-79.57 436.13,-61.97 430.48,-47.86"/>
<polygon fill="black" stroke="black" points="433.56,-46.15 426.48,-38.26 427.09,-48.84 433.56,-46.15"/>
</g>
<!-- roo_logging&#45;&gt;roo_threads -->
<g id="edge24" class="edge">
<title>roo_logging&#45;&gt;roo_threads</title>
<path fill="none" stroke="black" d="M358.29,-287.79C346.91,-275.86 331.21,-260.26 316,-248 310.75,-243.77 304.98,-239.57 299.23,-235.62"/>
<polygon fill="black" stroke="black" points="301.13,-232.67 290.87,-230.02 297.23,-238.49 301.13,-232.67"/>
</g>
<!-- roo_onewire -->
<g id="node14" class="node">
<title>roo_onewire</title>
<polygon fill="lightblue" stroke="black" points="204.5,-518 119.5,-518 119.5,-480 204.5,-480 204.5,-518"/>
<text text-anchor="middle" x="162" y="-502.8" font-family="Times,serif" font-size="14.00">roo_onewire</text>
<text text-anchor="middle" x="162" y="-487.8" font-family="Times,serif" font-size="14.00">2.0.3</text>
</g>
<!-- roo_onewire&#45;&gt;roo_logging -->
<g id="edge26" class="edge">
<title>roo_onewire&#45;&gt;roo_logging</title>
<path fill="none" stroke="red" d="M170.81,-479.91C183.29,-455.69 208.1,-412.5 239,-384 263.81,-361.12 296.75,-342.49 324,-329.4"/>
<polygon fill="red" stroke="red" points="325.8,-332.42 333.37,-325 322.83,-326.08 325.8,-332.42"/>
<text text-anchor="middle" x="266" y="-406" font-family="Times,serif" font-size="10.00" fill="red">1.3.0</text>
<text text-anchor="middle" x="266" y="-395" font-family="Times,serif" font-size="10.00" fill="red">(latest: 1.4.0)</text>
</g>
<!-- roo_onewire&#45;&gt;roo_quantity -->
<g id="edge28" class="edge">
<title>roo_onewire&#45;&gt;roo_quantity</title>
<path fill="none" stroke="black" d="M156.22,-479.88C151.86,-466.22 145.81,-447.26 140.84,-431.71"/>
<polygon fill="black" stroke="black" points="144.14,-430.53 137.77,-422.07 137.47,-432.66 144.14,-430.53"/>
</g>
<!-- roo_onewire&#45;&gt;roo_scheduler -->
<g id="edge27" class="edge">
<title>roo_onewire&#45;&gt;roo_scheduler</title>
<path fill="none" stroke="black" d="M204.72,-485.39C252.44,-471.06 331.8,-446.46 399,-422 440.96,-406.73 450.6,-400.74 492,-384 511.97,-375.93 519.94,-379.15 537,-366 547.94,-357.57 557.42,-345.66 564.68,-334.82"/>
<polygon fill="black" stroke="black" points="567.83,-336.38 570.24,-326.07 561.92,-332.63 567.83,-336.38"/>
</g>
<!-- roo_onewire&#45;&gt;roo_testing -->
<g id="edge25" class="edge">
<title>roo_onewire&#45;&gt;roo_testing</title>
<path fill="none" stroke="red" d="M119.44,-492.02C71.44,-482.59 0,-459.28 0,-404 0,-404 0,-404 0,-114 0,-39.06 258.97,-23.86 369.23,-20.78"/>
<polygon fill="red" stroke="red" points="369.52,-24.27 379.42,-20.52 369.34,-17.27 369.52,-24.27"/>
<text text-anchor="middle" x="27" y="-262" font-family="Times,serif" font-size="10.00" fill="red">1.1.3</text>
<text text-anchor="middle" x="27" y="-251" font-family="Times,serif" font-size="10.00" fill="red">(latest: 1.1.4)</text>
</g>
<!-- roo_prefs&#45;&gt;roo_logging -->
<g id="edge29" class="edge">
<title>roo_prefs&#45;&gt;roo_logging</title>
<path fill="none" stroke="black" d="M556.87,-383.74C545.95,-370.82 529.73,-354.08 512,-344 485.84,-329.13 453.39,-320.25 426.63,-315.03"/>
<polygon fill="black" stroke="black" points="427.15,-311.57 416.68,-313.2 425.89,-318.45 427.15,-311.57"/>
</g>
<!-- roo_prefs&#45;&gt;roo_scheduler -->
<g id="edge30" class="edge">
<title>roo_prefs&#45;&gt;roo_scheduler</title>
<path fill="none" stroke="black" d="M582.88,-383.64C585.79,-378.18 588.5,-372.04 590,-366 592.4,-356.31 591.51,-345.57 589.5,-336"/>
<polygon fill="black" stroke="black" points="592.85,-334.98 586.97,-326.17 586.07,-336.72 592.85,-334.98"/>
</g>
<!-- roo_quantity&#45;&gt;roo_flags -->
<g id="edge31" class="edge">
<title>roo_quantity&#45;&gt;roo_flags</title>
<path fill="none" stroke="black" d="M128.13,-383.78C126.32,-372.26 125.13,-357.11 128,-344 135.73,-308.64 152.16,-304.83 162,-270 164.69,-260.5 166.34,-249.83 167.36,-240.27"/>
<polygon fill="black" stroke="black" points="170.87,-240.32 168.26,-230.05 163.9,-239.7 170.87,-240.32"/>
</g>
<!-- roo_quantity&#45;&gt;roo_logging -->
<g id="edge32" class="edge">
<title>roo_quantity&#45;&gt;roo_logging</title>
<path fill="none" stroke="red" d="M130.23,-383.87C130.04,-370.85 132.2,-353.91 143,-344 171.96,-317.41 280.52,-334.06 319,-326 320.47,-325.69 321.95,-325.36 323.45,-325.01"/>
<polygon fill="red" stroke="red" points="324.56,-328.34 333.36,-322.44 322.8,-321.56 324.56,-328.34"/>
<text text-anchor="middle" x="170" y="-358" font-family="Times,serif" font-size="10.00" fill="red">1.3.0</text>
<text text-anchor="middle" x="170" y="-347" font-family="Times,serif" font-size="10.00" fill="red">(latest: 1.4.0)</text>
</g>
<!-- roo_quantity&#45;&gt;roo_time -->
<g id="edge33" class="edge">
<title>roo_quantity&#45;&gt;roo_time</title>
<path fill="none" stroke="black" d="M120.79,-383.82C94.68,-338.9 36.18,-221.3 93,-152 112.55,-128.15 146.81,-119.5 174.53,-116.62"/>
<polygon fill="black" stroke="black" points="175.1,-120.09 184.78,-115.78 174.53,-113.11 175.1,-120.09"/>
</g>
<!-- roo_scheduler&#45;&gt;roo_collections -->
<g id="edge35" class="edge">
<title>roo_scheduler&#45;&gt;roo_collections</title>
<path fill="none" stroke="black" d="M622.16,-287.99C658.04,-272.65 709.73,-250.57 748.15,-234.15"/>
<polygon fill="black" stroke="black" points="749.79,-237.26 757.61,-230.11 747.04,-230.82 749.79,-237.26"/>
</g>
<!-- roo_scheduler&#45;&gt;roo_testing -->
<g id="edge34" class="edge">
<title>roo_scheduler&#45;&gt;roo_testing</title>
<path fill="none" stroke="red" d="M581.31,-287.68C583.53,-241.9 582.64,-121.55 519,-56 505.04,-41.62 484.96,-32.97 466.38,-27.77"/>
<polygon fill="red" stroke="red" points="467.1,-24.34 456.55,-25.29 465.39,-31.13 467.1,-24.34"/>
<text text-anchor="middle" x="601" y="-166" font-family="Times,serif" font-size="10.00" fill="red">1.1.3</text>
<text text-anchor="middle" x="601" y="-155" font-family="Times,serif" font-size="10.00" fill="red">(latest: 1.1.4)</text>
</g>
<!-- roo_scheduler&#45;&gt;roo_threads -->
<g id="edge36" class="edge">
<title>roo_scheduler&#45;&gt;roo_threads</title>
<path fill="none" stroke="black" d="M533.33,-294.04C481.25,-280.44 394.35,-256.96 310.68,-230.11"/>
<polygon fill="black" stroke="black" points="311.61,-226.73 301.02,-226.99 309.46,-233.39 311.61,-226.73"/>
</g>
<!-- roo_threads&#45;&gt;roo_testing -->
<g id="edge37" class="edge">
<title>roo_threads&#45;&gt;roo_testing</title>
<path fill="none" stroke="red" d="M268.88,-191.74C279.63,-168.1 300.48,-126.34 326,-96 342.54,-76.34 364.64,-57.89 383.04,-44.1"/>
<polygon fill="red" stroke="red" points="385.21,-46.84 391.2,-38.1 381.07,-41.2 385.21,-46.84"/>
<text text-anchor="middle" x="353" y="-118" font-family="Times,serif" font-size="10.00" fill="red">1.1.3</text>
<text text-anchor="middle" x="353" y="-107" font-family="Times,serif" font-size="10.00" fill="red">(latest: 1.1.4)</text>
</g>
<!-- roo_threads&#45;&gt;roo_time -->
<g id="edge38" class="edge">
<title>roo_threads&#45;&gt;roo_time</title>
<path fill="none" stroke="black" d="M251.64,-191.78C248.8,-186.12 245.71,-179.83 243,-174 238.39,-164.08 233.57,-153.09 229.42,-143.36"/>
<polygon fill="black" stroke="black" points="232.63,-141.98 225.51,-134.14 226.19,-144.72 232.63,-141.98"/>
</g>
<!-- roo_time&#45;&gt;roo_testing -->
<g id="edge39" class="edge">
<title>roo_time&#45;&gt;roo_testing</title>
<path fill="none" stroke="red" d="M212.86,-95.95C210.43,-83.32 209.8,-66.82 219,-56 237.97,-33.68 316.77,-25.16 369.33,-21.94"/>
<polygon fill="red" stroke="red" points="369.69,-25.42 379.47,-21.36 369.29,-18.43 369.69,-25.42"/>
<text text-anchor="middle" x="246" y="-70" font-family="Times,serif" font-size="10.00" fill="red">1.1.3</text>
<text text-anchor="middle" x="246" y="-59" font-family="Times,serif" font-size="10.00" fill="red">(latest: 1.1.4)</text>
</g>
<!-- roo_time_ds3231 -->
<g id="node21" class="node">
<title>roo_time_ds3231</title>
<polygon fill="lightblue" stroke="black" points="431,-230 319,-230 319,-192 431,-192 431,-230"/>
<text text-anchor="middle" x="375" y="-214.8" font-family="Times,serif" font-size="14.00">roo_time_ds3231</text>
<text text-anchor="middle" x="375" y="-199.8" font-family="Times,serif" font-size="14.00">1.1.0</text>
</g>
<!-- roo_time_ds3231&#45;&gt;roo_testing -->
<g id="edge40" class="edge">
<title>roo_time_ds3231&#45;&gt;roo_testing</title>
<path fill="none" stroke="red" d="M376.43,-191.62C378.46,-168.91 382.86,-129.19 391,-96 395,-79.69 401.17,-61.99 406.61,-47.78"/>
<polygon fill="red" stroke="red" points="410.01,-48.7 410.4,-38.11 403.49,-46.15 410.01,-48.7"/>
<text text-anchor="middle" x="418" y="-118" font-family="Times,serif" font-size="10.00" fill="red">1.1.3</text>
<text text-anchor="middle" x="418" y="-107" font-family="Times,serif" font-size="10.00" fill="red">(latest: 1.1.4)</text>
</g>
<!-- roo_time_ds3231&#45;&gt;roo_time -->
<g id="edge41" class="edge">
<title>roo_time_ds3231&#45;&gt;roo_time</title>
<path fill="none" stroke="black" d="M344.73,-191.88C319.75,-176.92 284.14,-155.6 257.02,-139.36"/>
<polygon fill="black" stroke="black" points="258.56,-136.2 248.18,-134.07 254.96,-142.21 258.56,-136.2"/>
</g>
<!-- roo_transceivers&#45;&gt;roo_collections -->
<g id="edge42" class="edge">
<title>roo_transceivers&#45;&gt;roo_collections</title>
<path fill="none" stroke="black" d="M495.05,-482.06C526.4,-472.62 560.18,-462.42 561,-462 665.5,-408.9 749.6,-291.42 783.65,-238.62"/>
<polygon fill="black" stroke="black" points="786.63,-240.44 789.05,-230.13 780.73,-236.68 786.63,-240.44"/>
</g>
<!-- roo_transceivers&#45;&gt;roo_logging -->
<g id="edge43" class="edge">
<title>roo_transceivers&#45;&gt;roo_logging</title>
<path fill="none" stroke="black" d="M435.58,-479.78C423.79,-446.37 398.67,-375.13 384.76,-335.69"/>
<polygon fill="black" stroke="black" points="388.03,-334.43 381.4,-326.16 381.43,-336.76 388.03,-334.43"/>
</g>
<!-- roo_transceivers&#45;&gt;roo_prefs -->
<g id="edge44" class="edge">
<title>roo_transceivers&#45;&gt;roo_prefs</title>
<path fill="none" stroke="red" d="M461.35,-479.7C467.33,-474.04 473.94,-467.76 480,-462 490.25,-452.25 491.53,-448.28 503,-440 510.64,-434.49 519.22,-429.28 527.66,-424.63"/>
<polygon fill="red" stroke="red" points="529.52,-427.61 536.7,-419.82 526.23,-421.43 529.52,-427.61"/>
<text text-anchor="middle" x="530" y="-454" font-family="Times,serif" font-size="10.00" fill="red">1.2.0</text>
<text text-anchor="middle" x="530" y="-443" font-family="Times,serif" font-size="10.00" fill="red">(latest: 1.2.1)</text>
</g>
<!-- roo_transport -->
<g id="node23" class="node">
<title>roo_transport</title>
<polygon fill="lightyellow" stroke="black" points="946.5,-518 857.5,-518 857.5,-480 946.5,-480 946.5,-518"/>
<text text-anchor="middle" x="902" y="-502.8" font-family="Times,serif" font-size="14.00">roo_transport</text>
<text text-anchor="middle" x="902" y="-487.8" font-family="Times,serif" font-size="14.00">1.0.0</text>
</g>
<!-- roo_transport&#45;&gt;roo_collections -->
<g id="edge45" class="edge">
<title>roo_transport&#45;&gt;roo_collections</title>
<path fill="none" stroke="black" d="M895.55,-479.8C880.93,-438.53 844.1,-334.74 813,-248 812.07,-245.39 811.09,-242.68 810.11,-239.96"/>
<polygon fill="black" stroke="black" points="813.31,-238.53 806.63,-230.31 806.73,-240.9 813.31,-238.53"/>
</g>
<!-- roo_transport&#45;&gt;roo_io -->
<g id="edge46" class="edge">
<title>roo_transport&#45;&gt;roo_io</title>
<path fill="none" stroke="black" d="M867.49,-479.88C836.33,-463.51 790.65,-439.52 759.03,-422.92"/>
<polygon fill="black" stroke="black" points="760.58,-419.78 750.1,-418.23 757.33,-425.98 760.58,-419.78"/>
</g>
<!-- roo_wifi -->
<g id="node24" class="node">
<title>roo_wifi</title>
<polygon fill="lightyellow" stroke="black" points="1066.5,-518 1003.5,-518 1003.5,-480 1066.5,-480 1066.5,-518"/>
<text text-anchor="middle" x="1035" y="-502.8" font-family="Times,serif" font-size="14.00">roo_wifi</text>
<text text-anchor="middle" x="1035" y="-487.8" font-family="Times,serif" font-size="14.00">1.1.0</text>
</g>
<!-- roo_wifi&#45;&gt;roo_collections -->
<g id="edge48" class="edge">
<title>roo_wifi&#45;&gt;roo_collections</title>
<path fill="none" stroke="black" d="M1020.13,-479.77C986.41,-438.44 901.52,-334.52 830,-248 827.32,-244.75 824.49,-241.35 821.7,-237.98"/>
<polygon fill="black" stroke="black" points="824.38,-235.74 815.29,-230.29 819,-240.22 824.38,-235.74"/>
</g>
<!-- roo_wifi&#45;&gt;roo_prefs -->
<g id="edge49" class="edge">
<title>roo_wifi&#45;&gt;roo_prefs</title>
<path fill="none" stroke="red" d="M1003.14,-490.52C988.76,-487.2 971.55,-483.31 956,-480 832.78,-453.81 686.7,-425.8 615.08,-412.27"/>
<polygon fill="red" stroke="red" points="615.53,-408.79 605.06,-410.38 614.24,-415.67 615.53,-408.79"/>
<text text-anchor="middle" x="888" y="-454" font-family="Times,serif" font-size="10.00" fill="red">1.2.0</text>
<text text-anchor="middle" x="888" y="-443" font-family="Times,serif" font-size="10.00" fill="red">(latest: 1.2.1)</text>
</g>
<!-- roo_wifi&#45;&gt;roo_testing -->
<g id="edge47" class="edge">
<title>roo_wifi&#45;&gt;roo_testing</title>
<path fill="none" stroke="black" d="M1034.08,-479.99C1033.2,-461.07 1032,-430.45 1032,-404 1032,-404 1032,-404 1032,-114 1032,-56.99 613.07,-30.03 467.29,-22.37"/>
<polygon fill="black" stroke="black" points="467.04,-18.85 456.87,-21.83 466.68,-25.84 467.04,-18.85"/>
</g>
<!-- roo_windows&#45;&gt;roo_icons -->
<g id="edge51" class="edge">
<title>roo_windows&#45;&gt;roo_icons</title>
<path fill="none" stroke="black" d="M911,-629.96C911,-621.88 911,-612.18 911,-603.18"/>
<polygon fill="black" stroke="black" points="914.5,-603.09 911,-593.09 907.5,-603.09 914.5,-603.09"/>
</g>
<!-- roo_windows&#45;&gt;roo_locale -->
<g id="edge50" class="edge">
<title>roo_windows&#45;&gt;roo_locale</title>
<path fill="none" stroke="black" d="M888.75,-629.96C877.39,-620.74 863.41,-609.4 851.1,-599.42"/>
<polygon fill="black" stroke="black" points="853.27,-596.67 843.3,-593.09 848.86,-602.11 853.27,-596.67"/>
</g>
<!-- roo_windows&#45;&gt;roo_scheduler -->
<g id="edge52" class="edge">
<title>roo_windows&#45;&gt;roo_scheduler</title>
<path fill="none" stroke="black" d="M930.87,-629.62C940.07,-619.76 950.05,-606.81 955,-593 971.94,-545.72 982.62,-522.59 956,-480 886.18,-368.31 723.29,-328.37 636.61,-314.7"/>
<polygon fill="black" stroke="black" points="637.09,-311.23 626.68,-313.2 636.05,-318.15 637.09,-311.23"/>
</g>
<!-- roo_windows_wifi -->
<g id="node26" class="node">
<title>roo_windows_wifi</title>
<polygon fill="lightyellow" stroke="black" points="1094.5,-743 975.5,-743 975.5,-705 1094.5,-705 1094.5,-743"/>
<text text-anchor="middle" x="1035" y="-727.8" font-family="Times,serif" font-size="14.00">roo_windows_wifi</text>
<text text-anchor="middle" x="1035" y="-712.8" font-family="Times,serif" font-size="14.00">1.1.1</text>
</g>
<!-- roo_windows_wifi&#45;&gt;roo_wifi -->
<g id="edge53" class="edge">
<title>roo_windows_wifi&#45;&gt;roo_wifi</title>
<path fill="none" stroke="black" d="M1035,-704.75C1035,-665.94 1035,-574.97 1035,-528.47"/>
<polygon fill="black" stroke="black" points="1038.5,-528.19 1035,-518.19 1031.5,-528.19 1038.5,-528.19"/>
</g>
<!-- roo_windows_wifi&#45;&gt;roo_windows -->
<g id="edge54" class="edge">
<title>roo_windows_wifi&#45;&gt;roo_windows</title>
<path fill="none" stroke="black" d="M1004.35,-704.96C988.1,-695.39 967.96,-683.53 950.55,-673.28"/>
<polygon fill="black" stroke="black" points="952.12,-670.15 941.73,-668.09 948.57,-676.18 952.12,-670.15"/>
</g>
</g>
</svg>
