<?xml version="1.0" encoding="UTF-8" standalone="no"?>
<!DOCTYPE svg PUBLIC "-//W3C//DTD SVG 1.1//EN"
 "http://www.w3.org/Graphics/SVG/1.1/DTD/svg11.dtd">
<!-- Generated by graphviz version 2.42.4 (0)
 -->
<!-- Title: dependencies Pages: 1 -->
<svg width="2019pt" height="772pt"
 viewBox="0.00 0.00 2019.00 772.00" xmlns="http://www.w3.org/2000/svg" xmlns:xlink="http://www.w3.org/1999/xlink">
<g id="graph0" class="graph" transform="scale(1 1) rotate(0) translate(4 768)">
<title>dependencies</title>
<polygon fill="white" stroke="transparent" points="-4,4 -4,-768 2015,-768 2015,4 -4,4"/>
<!-- roo_backport -->
<g id="node1" class="node">
<title>roo_backport</title>
<polygon fill="khaki" stroke="black" points="1569,-113 1459,-113 1459,-75 1569,-75 1569,-113"/>
<text text-anchor="middle" x="1514" y="-97.8" font-family="Times,serif" font-size="14.00">roo_backport</text>
<text text-anchor="middle" x="1514" y="-82.8" font-family="Times,serif" font-size="14.00">1.1.1</text>
</g>
<!-- roo_blink -->
<g id="node2" class="node">
<title>roo_blink</title>
<polygon fill="plum" stroke="black" points="549,-401 467,-401 467,-363 549,-363 549,-401"/>
<text text-anchor="middle" x="508" y="-385.8" font-family="Times,serif" font-size="14.00">roo_blink</text>
<text text-anchor="middle" x="508" y="-370.8" font-family="Times,serif" font-size="14.00">1.0.2</text>
</g>
<!-- roo_logging -->
<g id="node12" class="node">
<title>roo_logging</title>
<polygon fill="plum" stroke="black" points="1223,-305 1123,-305 1123,-267 1223,-267 1223,-305"/>
<text text-anchor="middle" x="1173" y="-289.8" font-family="Times,serif" font-size="14.00">roo_logging</text>
<text text-anchor="middle" x="1173" y="-274.8" font-family="Times,serif" font-size="14.00">1.4.3</text>
</g>
<!-- roo_blink&#45;&gt;roo_logging -->
<g id="edge2" class="edge">
<title>roo_blink&#45;&gt;roo_logging</title>
<path fill="none" stroke="black" d="M549.25,-372.79C611.88,-360.55 734.79,-337.43 840,-323 919.65,-312.07 940.07,-313.7 1020,-305 1050.55,-301.68 1084.49,-297.71 1112.63,-294.35"/>
<polygon fill="black" stroke="black" points="1113.21,-297.8 1122.72,-293.14 1112.38,-290.85 1113.21,-297.8"/>
</g>
<!-- roo_scheduler -->
<g id="node16" class="node">
<title>roo_scheduler</title>
<polygon fill="plum" stroke="black" points="1011,-305 895,-305 895,-267 1011,-267 1011,-305"/>
<text text-anchor="middle" x="953" y="-289.8" font-family="Times,serif" font-size="14.00">roo_scheduler</text>
<text text-anchor="middle" x="953" y="-274.8" font-family="Times,serif" font-size="14.00">2.1.5</text>
</g>
<!-- roo_blink&#45;&gt;roo_scheduler -->
<g id="edge3" class="edge">
<title>roo_blink&#45;&gt;roo_scheduler</title>
<path fill="none" stroke="black" d="M525.82,-362.99C540.39,-349.49 562.23,-331.87 585,-323 637.91,-302.38 793.47,-293.07 884.51,-289.28"/>
<polygon fill="black" stroke="black" points="884.89,-292.77 894.74,-288.87 884.61,-285.77 884.89,-292.77"/>
</g>
<!-- roo_testing -->
<g id="node17" class="node">
<title>roo_testing</title>
<polygon fill="#b1dbab" stroke="black" points="1064.5,-38 967.5,-38 967.5,0 1064.5,0 1064.5,-38"/>
<text text-anchor="middle" x="1016" y="-22.8" font-family="Times,serif" font-size="14.00">roo_testing</text>
<text text-anchor="middle" x="1016" y="-7.8" font-family="Times,serif" font-size="14.00">1.2.0</text>
</g>
<!-- roo_blink&#45;&gt;roo_testing -->
<g id="edge1" class="edge">
<title>roo_blink&#45;&gt;roo_testing</title>
<path fill="none" stroke="red" d="M483.85,-362.75C467.24,-350.64 444.41,-334.87 423,-323 405.6,-313.35 395.48,-319.64 382,-305 340.46,-259.88 317.5,-223.63 349,-171 395.36,-93.54 441.82,-101.87 528,-75 677.65,-28.34 864.06,-20.33 957.23,-19.52"/>
<polygon fill="red" stroke="red" points="957.33,-23.02 967.31,-19.46 957.29,-16.02 957.33,-23.02"/>
<text text-anchor="middle" x="382" y="-193" font-family="Times,serif" font-size="10.00" fill="red">1.1.8</text>
<text text-anchor="middle" x="382" y="-182" font-family="Times,serif" font-size="10.00" fill="red">(latest: 1.2.0)</text>
</g>
<!-- roo_time -->
<g id="node19" class="node">
<title>roo_time</title>
<polygon fill="#b1dbab" stroke="black" points="616.5,-113 537.5,-113 537.5,-75 616.5,-75 616.5,-113"/>
<text text-anchor="middle" x="577" y="-97.8" font-family="Times,serif" font-size="14.00">roo_time</text>
<text text-anchor="middle" x="577" y="-82.8" font-family="Times,serif" font-size="14.00">1.4.0</text>
</g>
<!-- roo_blink&#45;&gt;roo_time -->
<g id="edge4" class="edge">
<title>roo_blink&#45;&gt;roo_time</title>
<path fill="none" stroke="red" d="M508.19,-362.84C507.61,-338.93 503.59,-296.48 484,-267 476.22,-255.29 464.52,-261.45 458,-249 453.46,-240.34 455.92,-236.55 458,-227 468.01,-181.14 469.11,-164.48 502,-131 509.36,-123.5 518.6,-117.36 528.05,-112.41"/>
<polygon fill="red" stroke="red" points="529.64,-115.53 537.12,-108.02 526.59,-109.22 529.64,-115.53"/>
<text text-anchor="middle" x="491" y="-241" font-family="Times,serif" font-size="10.00" fill="red">1.3.3</text>
<text text-anchor="middle" x="491" y="-230" font-family="Times,serif" font-size="10.00" fill="red">(latest: 1.4.0)</text>
</g>
<!-- roo_collections -->
<g id="node3" class="node">
<title>roo_collections</title>
<polygon fill="khaki" stroke="black" points="1536,-209 1414,-209 1414,-171 1536,-171 1536,-209"/>
<text text-anchor="middle" x="1475" y="-193.8" font-family="Times,serif" font-size="14.00">roo_collections</text>
<text text-anchor="middle" x="1475" y="-178.8" font-family="Times,serif" font-size="14.00">1.3.2</text>
</g>
<!-- roo_collections&#45;&gt;roo_backport -->
<g id="edge5" class="edge">
<title>roo_collections&#45;&gt;roo_backport</title>
<path fill="none" stroke="black" d="M1482.52,-170.88C1488.18,-157.22 1496.05,-138.26 1502.5,-122.71"/>
<polygon fill="black" stroke="black" points="1505.9,-123.65 1506.5,-113.07 1499.44,-120.96 1505.9,-123.65"/>
</g>
<!-- roo_comms -->
<g id="node4" class="node">
<title>roo_comms</title>
<polygon fill="plum" stroke="black" points="446.5,-593 349.5,-593 349.5,-555 446.5,-555 446.5,-593"/>
<text text-anchor="middle" x="398" y="-577.8" font-family="Times,serif" font-size="14.00">roo_comms</text>
<text text-anchor="middle" x="398" y="-562.8" font-family="Times,serif" font-size="14.00">1.1.2</text>
</g>
<!-- roo_comms&#45;&gt;roo_blink -->
<g id="edge7" class="edge">
<title>roo_comms&#45;&gt;roo_blink</title>
<path fill="none" stroke="black" d="M408.55,-554.78C428.01,-521.16 469.66,-449.22 492.4,-409.94"/>
<polygon fill="black" stroke="black" points="495.5,-411.57 497.48,-401.16 489.45,-408.06 495.5,-411.57"/>
</g>
<!-- roo_control -->
<g id="node5" class="node">
<title>roo_control</title>
<polygon fill="plum" stroke="black" points="613.5,-497 516.5,-497 516.5,-459 613.5,-459 613.5,-497"/>
<text text-anchor="middle" x="565" y="-481.8" font-family="Times,serif" font-size="14.00">roo_control</text>
<text text-anchor="middle" x="565" y="-466.8" font-family="Times,serif" font-size="14.00">1.2.2</text>
</g>
<!-- roo_comms&#45;&gt;roo_control -->
<g id="edge8" class="edge">
<title>roo_comms&#45;&gt;roo_control</title>
<path fill="none" stroke="black" d="M430.2,-554.88C456.88,-539.86 494.98,-518.41 523.87,-502.15"/>
<polygon fill="black" stroke="black" points="525.9,-505.02 532.9,-497.07 522.47,-498.92 525.9,-505.02"/>
</g>
<!-- roo_io -->
<g id="node10" class="node">
<title>roo_io</title>
<polygon fill="plum" stroke="black" points="1552.5,-401 1493.5,-401 1493.5,-363 1552.5,-363 1552.5,-401"/>
<text text-anchor="middle" x="1523" y="-385.8" font-family="Times,serif" font-size="14.00">roo_io</text>
<text text-anchor="middle" x="1523" y="-370.8" font-family="Times,serif" font-size="14.00">2.0.3</text>
</g>
<!-- roo_comms&#45;&gt;roo_io -->
<g id="edge9" class="edge">
<title>roo_comms&#45;&gt;roo_io</title>
<path fill="none" stroke="black" d="M446.63,-572.11C642.51,-568.15 1367.33,-550.04 1454,-497 1470.56,-486.87 1495.06,-441.02 1509.98,-410.64"/>
<polygon fill="black" stroke="black" points="1513.25,-411.92 1514.46,-401.39 1506.95,-408.86 1513.25,-411.92"/>
</g>
<!-- roo_comms&#45;&gt;roo_testing -->
<g id="edge6" class="edge">
<title>roo_comms&#45;&gt;roo_testing</title>
<path fill="none" stroke="red" d="M349.45,-570.59C321.68,-566.81 287.91,-557.85 265,-537 250.96,-524.22 256,-515.02 250,-497 190.71,-318.86 102.39,-161.54 269,-75 329.47,-43.59 791.72,-26.74 957.26,-21.67"/>
<polygon fill="red" stroke="red" points="957.37,-25.17 967.26,-21.37 957.16,-18.17 957.37,-25.17"/>
<text text-anchor="middle" x="218" y="-289" font-family="Times,serif" font-size="10.00" fill="red">1.1.8</text>
<text text-anchor="middle" x="218" y="-278" font-family="Times,serif" font-size="10.00" fill="red">(latest: 1.2.0)</text>
</g>
<!-- roo_comms&#45;&gt;roo_time -->
<g id="edge10" class="edge">
<title>roo_comms&#45;&gt;roo_time</title>
<path fill="none" stroke="red" d="M349.25,-562.5C307.47,-550.29 254,-525.57 254,-479 254,-479 254,-479 254,-333 254,-282.95 310.56,-295.53 329,-249 341.77,-216.76 310.2,-198.75 331,-171 354.67,-139.43 462.7,-115.26 527.47,-103.29"/>
<polygon fill="red" stroke="red" points="528.26,-106.71 537.47,-101.48 527.01,-99.82 528.26,-106.71"/>
<text text-anchor="middle" x="287" y="-337" font-family="Times,serif" font-size="10.00" fill="red">1.3.3</text>
<text text-anchor="middle" x="287" y="-326" font-family="Times,serif" font-size="10.00" fill="red">(latest: 1.4.0)</text>
</g>
<!-- roo_transceivers -->
<g id="node21" class="node">
<title>roo_transceivers</title>
<polygon fill="plum" stroke="black" points="417.5,-497 282.5,-497 282.5,-459 417.5,-459 417.5,-497"/>
<text text-anchor="middle" x="350" y="-481.8" font-family="Times,serif" font-size="14.00">roo_transceivers</text>
<text text-anchor="middle" x="350" y="-466.8" font-family="Times,serif" font-size="14.00">1.1.3</text>
</g>
<!-- roo_comms&#45;&gt;roo_transceivers -->
<g id="edge11" class="edge">
<title>roo_comms&#45;&gt;roo_transceivers</title>
<path fill="none" stroke="black" d="M388.75,-554.88C381.71,-541.09 371.9,-521.9 363.92,-506.26"/>
<polygon fill="black" stroke="black" points="366.89,-504.38 359.23,-497.07 360.66,-507.57 366.89,-504.38"/>
</g>
<!-- roo_quantity -->
<g id="node15" class="node">
<title>roo_quantity</title>
<polygon fill="#b1dbab" stroke="black" points="737.5,-401 630.5,-401 630.5,-363 737.5,-363 737.5,-401"/>
<text text-anchor="middle" x="684" y="-385.8" font-family="Times,serif" font-size="14.00">roo_quantity</text>
<text text-anchor="middle" x="684" y="-370.8" font-family="Times,serif" font-size="14.00">1.1.3</text>
</g>
<!-- roo_control&#45;&gt;roo_quantity -->
<g id="edge13" class="edge">
<title>roo_control&#45;&gt;roo_quantity</title>
<path fill="none" stroke="black" d="M591.54,-458.95C599.52,-453.35 608.21,-447.05 616,-441 629.57,-430.46 644.12,-418.18 656.27,-407.65"/>
<polygon fill="black" stroke="black" points="658.64,-410.22 663.87,-401.01 654.04,-404.95 658.64,-410.22"/>
</g>
<!-- roo_control&#45;&gt;roo_scheduler -->
<g id="edge14" class="edge">
<title>roo_control&#45;&gt;roo_scheduler</title>
<path fill="none" stroke="black" d="M568.75,-458.91C575,-433.47 590.05,-387.5 621,-363 661.26,-331.13 799.72,-307.52 884.59,-295.63"/>
<polygon fill="black" stroke="black" points="885.24,-299.08 894.67,-294.24 884.28,-292.14 885.24,-299.08"/>
</g>
<!-- roo_control&#45;&gt;roo_testing -->
<g id="edge12" class="edge">
<title>roo_control&#45;&gt;roo_testing</title>
<path fill="none" stroke="red" d="M538.08,-458.98C516.11,-444.02 484.48,-421.88 458,-401 407.04,-360.83 396.51,-348.1 348,-305 329.18,-288.28 327.13,-280.68 306,-267 289.29,-256.18 275.88,-265.66 265,-249 259.65,-240.81 261.49,-236.13 265,-227 297.61,-142.1 320.84,-116.04 402,-75 498.11,-26.4 822.58,-20.22 956.96,-19.8"/>
<polygon fill="red" stroke="red" points="957.08,-23.3 967.07,-19.78 957.06,-16.3 957.08,-23.3"/>
<text text-anchor="middle" x="298" y="-241" font-family="Times,serif" font-size="10.00" fill="red">1.1.8</text>
<text text-anchor="middle" x="298" y="-230" font-family="Times,serif" font-size="10.00" fill="red">(latest: 1.2.0)</text>
</g>
<!-- roo_dashboard -->
<g id="node6" class="node">
<title>roo_dashboard</title>
<polygon fill="plum" stroke="black" points="604,-764 482,-764 482,-726 604,-726 604,-764"/>
<text text-anchor="middle" x="543" y="-748.8" font-family="Times,serif" font-size="14.00">roo_dashboard</text>
<text text-anchor="middle" x="543" y="-733.8" font-family="Times,serif" font-size="14.00">1.0.1</text>
</g>
<!-- roo_dashboard&#45;&gt;roo_testing -->
<g id="edge15" class="edge">
<title>roo_dashboard&#45;&gt;roo_testing</title>
<path fill="none" stroke="red" d="M481.77,-742.08C339.76,-736.8 0,-719.15 0,-671 0,-671 0,-671 0,-93 0,-44.69 740.46,-25.66 957.12,-21.13"/>
<polygon fill="red" stroke="red" points="957.41,-24.62 967.34,-20.92 957.27,-17.62 957.41,-24.62"/>
<text text-anchor="middle" x="33" y="-385" font-family="Times,serif" font-size="10.00" fill="red">1.1.7</text>
<text text-anchor="middle" x="33" y="-374" font-family="Times,serif" font-size="10.00" fill="red">(latest: 1.2.0)</text>
</g>
<!-- roo_windows -->
<g id="node24" class="node">
<title>roo_windows</title>
<polygon fill="plum" stroke="black" points="1265.5,-689 1156.5,-689 1156.5,-651 1265.5,-651 1265.5,-689"/>
<text text-anchor="middle" x="1211" y="-673.8" font-family="Times,serif" font-size="14.00">roo_windows</text>
<text text-anchor="middle" x="1211" y="-658.8" font-family="Times,serif" font-size="14.00">1.4.1</text>
</g>
<!-- roo_dashboard&#45;&gt;roo_windows -->
<g id="edge16" class="edge">
<title>roo_dashboard&#45;&gt;roo_windows</title>
<path fill="none" stroke="black" d="M604.05,-737.33C729.96,-723.57 1017.42,-692.16 1146.34,-678.07"/>
<polygon fill="black" stroke="black" points="1146.9,-681.53 1156.46,-676.96 1146.14,-674.57 1146.9,-681.53"/>
</g>
<!-- roo_display -->
<g id="node7" class="node">
<title>roo_display</title>
<polygon fill="plum" stroke="black" points="1751,-497 1653,-497 1653,-459 1751,-459 1751,-497"/>
<text text-anchor="middle" x="1702" y="-481.8" font-family="Times,serif" font-size="14.00">roo_display</text>
<text text-anchor="middle" x="1702" y="-466.8" font-family="Times,serif" font-size="14.00">2.3.1</text>
</g>
<!-- roo_display&#45;&gt;roo_collections -->
<g id="edge18" class="edge">
<title>roo_display&#45;&gt;roo_collections</title>
<path fill="none" stroke="black" d="M1694.56,-458.75C1681.8,-428.67 1653.71,-367.57 1619,-323 1585.91,-280.5 1538.46,-239.94 1507.2,-215.26"/>
<polygon fill="black" stroke="black" points="1509.26,-212.43 1499.23,-209.03 1504.95,-217.94 1509.26,-212.43"/>
</g>
<!-- roo_display&#45;&gt;roo_io -->
<g id="edge19" class="edge">
<title>roo_display&#45;&gt;roo_io</title>
<path fill="none" stroke="red" d="M1652.72,-461.4C1649.78,-460.57 1646.85,-459.76 1644,-459 1608.36,-449.53 1593.58,-461.61 1563,-441 1551.67,-433.36 1542.61,-421.35 1536,-410.23"/>
<polygon fill="red" stroke="red" points="1538.92,-408.28 1531.02,-401.21 1532.79,-411.66 1538.92,-408.28"/>
<text text-anchor="middle" x="1596" y="-433" font-family="Times,serif" font-size="10.00" fill="red">2.0.2</text>
<text text-anchor="middle" x="1596" y="-422" font-family="Times,serif" font-size="10.00" fill="red">(latest: 2.0.3)</text>
</g>
<!-- roo_display&#45;&gt;roo_testing -->
<g id="edge17" class="edge">
<title>roo_display&#45;&gt;roo_testing</title>
<path fill="none" stroke="red" d="M1725.78,-458.9C1745.39,-441.73 1770,-414.02 1770,-383 1770,-383 1770,-383 1770,-93 1770,-23.25 1252.19,-18.97 1074.79,-19.55"/>
<polygon fill="red" stroke="red" points="1074.59,-16.05 1064.6,-19.59 1074.62,-23.05 1074.59,-16.05"/>
<text text-anchor="middle" x="1803" y="-241" font-family="Times,serif" font-size="10.00" fill="red">1.1.7</text>
<text text-anchor="middle" x="1803" y="-230" font-family="Times,serif" font-size="10.00" fill="red">(latest: 1.2.0)</text>
</g>
<!-- roo_flags -->
<g id="node8" class="node">
<title>roo_flags</title>
<polygon fill="khaki" stroke="black" points="1218,-209 1138,-209 1138,-171 1218,-171 1218,-209"/>
<text text-anchor="middle" x="1178" y="-193.8" font-family="Times,serif" font-size="14.00">roo_flags</text>
<text text-anchor="middle" x="1178" y="-178.8" font-family="Times,serif" font-size="14.00">1.1.1</text>
</g>
<!-- roo_icons -->
<g id="node9" class="node">
<title>roo_icons</title>
<polygon fill="plum" stroke="black" points="1743.5,-593 1660.5,-593 1660.5,-555 1743.5,-555 1743.5,-593"/>
<text text-anchor="middle" x="1702" y="-577.8" font-family="Times,serif" font-size="14.00">roo_icons</text>
<text text-anchor="middle" x="1702" y="-562.8" font-family="Times,serif" font-size="14.00">1.2.1</text>
</g>
<!-- roo_icons&#45;&gt;roo_display -->
<g id="edge21" class="edge">
<title>roo_icons&#45;&gt;roo_display</title>
<path fill="none" stroke="black" d="M1702,-554.88C1702,-541.35 1702,-522.62 1702,-507.15"/>
<polygon fill="black" stroke="black" points="1705.5,-507.07 1702,-497.07 1698.5,-507.07 1705.5,-507.07"/>
</g>
<!-- roo_icons&#45;&gt;roo_testing -->
<g id="edge20" class="edge">
<title>roo_icons&#45;&gt;roo_testing</title>
<path fill="none" stroke="red" d="M1743.5,-565.34C1787.59,-554.52 1851,-530.08 1851,-479 1851,-479 1851,-479 1851,-93 1851,-32.5 1779.7,-65.83 1720,-56 1596.47,-35.66 1220.75,-24.84 1074.83,-21.31"/>
<polygon fill="red" stroke="red" points="1074.8,-17.81 1064.72,-21.07 1074.64,-24.81 1074.8,-17.81"/>
<text text-anchor="middle" x="1884" y="-289" font-family="Times,serif" font-size="10.00" fill="red">1.1.7</text>
<text text-anchor="middle" x="1884" y="-278" font-family="Times,serif" font-size="10.00" fill="red">(latest: 1.2.0)</text>
</g>
<!-- roo_io&#45;&gt;roo_backport -->
<g id="edge23" class="edge">
<title>roo_io&#45;&gt;roo_backport</title>
<path fill="none" stroke="black" d="M1528.5,-362.86C1538.79,-326.27 1558.76,-241.15 1545,-171 1541.7,-154.18 1534.66,-136.4 1528.12,-122.26"/>
<polygon fill="black" stroke="black" points="1531.22,-120.61 1523.73,-113.12 1524.91,-123.65 1531.22,-120.61"/>
</g>
<!-- roo_io&#45;&gt;roo_logging -->
<g id="edge24" class="edge">
<title>roo_io&#45;&gt;roo_logging</title>
<path fill="none" stroke="black" d="M1493.46,-373.07C1436.13,-357.67 1308.76,-323.46 1233,-303.11"/>
<polygon fill="black" stroke="black" points="1233.68,-299.67 1223.12,-300.46 1231.87,-306.43 1233.68,-299.67"/>
</g>
<!-- roo_io&#45;&gt;roo_testing -->
<g id="edge22" class="edge">
<title>roo_io&#45;&gt;roo_testing</title>
<path fill="none" stroke="red" d="M1538.9,-362.9C1543.03,-357.45 1547.12,-351.24 1550,-345 1557.64,-328.45 1556.1,-322.99 1559,-305 1575.34,-203.74 1646.57,-151.28 1578,-75 1544.82,-38.1 1212.57,-25.16 1075.08,-21.37"/>
<polygon fill="red" stroke="red" points="1074.83,-17.86 1064.74,-21.09 1074.64,-24.86 1074.83,-17.86"/>
<text text-anchor="middle" x="1636" y="-193" font-family="Times,serif" font-size="10.00" fill="red">1.1.8</text>
<text text-anchor="middle" x="1636" y="-182" font-family="Times,serif" font-size="10.00" fill="red">(latest: 1.2.0)</text>
</g>
<!-- roo_locale -->
<g id="node11" class="node">
<title>roo_locale</title>
<polygon fill="#b1dbab" stroke="black" points="1219,-593 1131,-593 1131,-555 1219,-555 1219,-593"/>
<text text-anchor="middle" x="1175" y="-577.8" font-family="Times,serif" font-size="14.00">roo_locale</text>
<text text-anchor="middle" x="1175" y="-562.8" font-family="Times,serif" font-size="14.00">1.1.1</text>
</g>
<!-- roo_logging&#45;&gt;roo_flags -->
<g id="edge26" class="edge">
<title>roo_logging&#45;&gt;roo_flags</title>
<path fill="none" stroke="black" d="M1178.46,-266.85C1179.91,-261.19 1181.28,-254.88 1182,-249 1183.19,-239.32 1182.91,-228.68 1182.11,-219.19"/>
<polygon fill="black" stroke="black" points="1185.57,-218.64 1181.02,-209.07 1178.61,-219.39 1185.57,-218.64"/>
</g>
<!-- roo_logging&#45;&gt;roo_testing -->
<g id="edge25" class="edge">
<title>roo_logging&#45;&gt;roo_testing</title>
<path fill="none" stroke="red" d="M1191.69,-266.82C1212.12,-244.64 1240.3,-205.77 1227,-171 1225.47,-166.99 1127.58,-58.35 1124,-56 1109.09,-46.21 1091.26,-38.84 1074.43,-33.41"/>
<polygon fill="red" stroke="red" points="1075.25,-30 1064.66,-30.44 1073.21,-36.7 1075.25,-30"/>
<text text-anchor="middle" x="1245" y="-145" font-family="Times,serif" font-size="10.00" fill="red">1.1.8</text>
<text text-anchor="middle" x="1245" y="-134" font-family="Times,serif" font-size="10.00" fill="red">(latest: 1.2.0)</text>
</g>
<!-- roo_threads -->
<g id="node18" class="node">
<title>roo_threads</title>
<polygon fill="plum" stroke="black" points="1081.5,-209 980.5,-209 980.5,-171 1081.5,-171 1081.5,-209"/>
<text text-anchor="middle" x="1031" y="-193.8" font-family="Times,serif" font-size="14.00">roo_threads</text>
<text text-anchor="middle" x="1031" y="-178.8" font-family="Times,serif" font-size="14.00">1.1.6</text>
</g>
<!-- roo_logging&#45;&gt;roo_threads -->
<g id="edge28" class="edge">
<title>roo_logging&#45;&gt;roo_threads</title>
<path fill="none" stroke="black" d="M1172.49,-266.74C1171.17,-253.99 1167.37,-237.46 1157,-227 1147.37,-217.28 1119,-208.75 1091.6,-202.44"/>
<polygon fill="black" stroke="black" points="1092.11,-198.97 1081.59,-200.21 1090.6,-205.8 1092.11,-198.97"/>
</g>
<!-- roo_logging&#45;&gt;roo_time -->
<g id="edge27" class="edge">
<title>roo_logging&#45;&gt;roo_time</title>
<path fill="none" stroke="red" d="M1159.43,-266.98C1147.95,-253.28 1130.17,-235.4 1110,-227 1028.06,-192.88 790.3,-248.86 711,-209 691.53,-199.21 695.78,-186.03 680,-171 659.73,-151.69 634.46,-132.97 614.02,-118.95"/>
<polygon fill="red" stroke="red" points="615.83,-115.95 605.59,-113.24 611.91,-121.74 615.83,-115.95"/>
<text text-anchor="middle" x="744" y="-193" font-family="Times,serif" font-size="10.00" fill="red">1.3.3</text>
<text text-anchor="middle" x="744" y="-182" font-family="Times,serif" font-size="10.00" fill="red">(latest: 1.4.0)</text>
</g>
<!-- roo_onewire -->
<g id="node13" class="node">
<title>roo_onewire</title>
<polygon fill="plum" stroke="black" points="1005,-497 901,-497 901,-459 1005,-459 1005,-497"/>
<text text-anchor="middle" x="953" y="-481.8" font-family="Times,serif" font-size="14.00">roo_onewire</text>
<text text-anchor="middle" x="953" y="-466.8" font-family="Times,serif" font-size="14.00">2.0.5</text>
</g>
<!-- roo_onewire&#45;&gt;roo_quantity -->
<g id="edge31" class="edge">
<title>roo_onewire&#45;&gt;roo_quantity</title>
<path fill="none" stroke="black" d="M901.45,-458.99C856.92,-443.43 792.49,-420.91 745.32,-404.43"/>
<polygon fill="black" stroke="black" points="746.43,-401.11 735.83,-401.11 744.12,-407.71 746.43,-401.11"/>
</g>
<!-- roo_onewire&#45;&gt;roo_scheduler -->
<g id="edge30" class="edge">
<title>roo_onewire&#45;&gt;roo_scheduler</title>
<path fill="none" stroke="black" d="M953,-458.78C953,-425.52 953,-354.73 953,-315.2"/>
<polygon fill="black" stroke="black" points="956.5,-315.16 953,-305.16 949.5,-315.16 956.5,-315.16"/>
</g>
<!-- roo_onewire&#45;&gt;roo_testing -->
<g id="edge29" class="edge">
<title>roo_onewire&#45;&gt;roo_testing</title>
<path fill="none" stroke="red" d="M965.69,-458.94C994.18,-417.27 1062.83,-310.19 1090,-209 1105.45,-151.44 1122.59,-127.83 1095,-75 1088.34,-62.25 1077.22,-51.85 1065.4,-43.67"/>
<polygon fill="red" stroke="red" points="1067.03,-40.55 1056.72,-38.1 1063.25,-46.44 1067.03,-40.55"/>
<text text-anchor="middle" x="1118" y="-241" font-family="Times,serif" font-size="10.00" fill="red">1.1.8</text>
<text text-anchor="middle" x="1118" y="-230" font-family="Times,serif" font-size="10.00" fill="red">(latest: 1.2.0)</text>
</g>
<!-- roo_prefs -->
<g id="node14" class="node">
<title>roo_prefs</title>
<polygon fill="plum" stroke="black" points="1214.5,-401 1131.5,-401 1131.5,-363 1214.5,-363 1214.5,-401"/>
<text text-anchor="middle" x="1173" y="-385.8" font-family="Times,serif" font-size="14.00">roo_prefs</text>
<text text-anchor="middle" x="1173" y="-370.8" font-family="Times,serif" font-size="14.00">1.2.3</text>
</g>
<!-- roo_prefs&#45;&gt;roo_logging -->
<g id="edge33" class="edge">
<title>roo_prefs&#45;&gt;roo_logging</title>
<path fill="none" stroke="black" d="M1173,-362.88C1173,-349.35 1173,-330.62 1173,-315.15"/>
<polygon fill="black" stroke="black" points="1176.5,-315.07 1173,-305.07 1169.5,-315.07 1176.5,-315.07"/>
</g>
<!-- roo_prefs&#45;&gt;roo_scheduler -->
<g id="edge34" class="edge">
<title>roo_prefs&#45;&gt;roo_scheduler</title>
<path fill="none" stroke="black" d="M1131.36,-363.21C1095.42,-347.85 1043.34,-325.6 1004.73,-309.1"/>
<polygon fill="black" stroke="black" points="1005.79,-305.75 995.22,-305.04 1003.04,-312.19 1005.79,-305.75"/>
</g>
<!-- roo_prefs&#45;&gt;roo_testing -->
<g id="edge32" class="edge">
<title>roo_prefs&#45;&gt;roo_testing</title>
<path fill="none" stroke="red" d="M1191.86,-362.91C1233.64,-320.57 1326.61,-212.46 1278,-131 1235.98,-60.58 1138.28,-34.81 1074.79,-25.4"/>
<polygon fill="red" stroke="red" points="1074.9,-21.88 1064.52,-23.97 1073.94,-28.82 1074.9,-21.88"/>
<text text-anchor="middle" x="1325" y="-193" font-family="Times,serif" font-size="10.00" fill="red">1.1.8</text>
<text text-anchor="middle" x="1325" y="-182" font-family="Times,serif" font-size="10.00" fill="red">(latest: 1.2.0)</text>
</g>
<!-- roo_quantity&#45;&gt;roo_logging -->
<g id="edge35" class="edge">
<title>roo_quantity&#45;&gt;roo_logging</title>
<path fill="none" stroke="black" d="M737.72,-366.35C742.54,-365.17 747.35,-364.03 752,-363 879.72,-334.62 1031,-309.31 1112.95,-296.28"/>
<polygon fill="black" stroke="black" points="1113.51,-299.74 1122.84,-294.72 1112.41,-292.83 1113.51,-299.74"/>
</g>
<!-- roo_quantity&#45;&gt;roo_time -->
<g id="edge36" class="edge">
<title>roo_quantity&#45;&gt;roo_time</title>
<path fill="none" stroke="red" d="M656.65,-362.9C624.82,-340.27 573.28,-298.43 547,-249 522.34,-202.61 519.56,-179.4 540,-131 541.48,-127.49 543.49,-124.15 545.81,-121.03"/>
<polygon fill="red" stroke="red" points="548.62,-123.13 552.54,-113.28 543.34,-118.54 548.62,-123.13"/>
<text text-anchor="middle" x="580" y="-241" font-family="Times,serif" font-size="10.00" fill="red">1.3.3</text>
<text text-anchor="middle" x="580" y="-230" font-family="Times,serif" font-size="10.00" fill="red">(latest: 1.4.0)</text>
</g>
<!-- roo_scheduler&#45;&gt;roo_collections -->
<g id="edge38" class="edge">
<title>roo_scheduler&#45;&gt;roo_collections</title>
<path fill="none" stroke="black" d="M1011.11,-274.54C1107.29,-257.22 1299.32,-222.64 1403.61,-203.86"/>
<polygon fill="black" stroke="black" points="1404.51,-207.25 1413.73,-202.03 1403.26,-200.36 1404.51,-207.25"/>
</g>
<!-- roo_scheduler&#45;&gt;roo_testing -->
<g id="edge37" class="edge">
<title>roo_scheduler&#45;&gt;roo_testing</title>
<path fill="none" stroke="red" d="M950.6,-266.6C947.4,-237.32 943.47,-178.58 956,-131 964.19,-99.91 982.71,-67.98 997.03,-46.4"/>
<polygon fill="red" stroke="red" points="999.94,-48.33 1002.66,-38.09 994.15,-44.4 999.94,-48.33"/>
<text text-anchor="middle" x="989" y="-145" font-family="Times,serif" font-size="10.00" fill="red">1.1.8</text>
<text text-anchor="middle" x="989" y="-134" font-family="Times,serif" font-size="10.00" fill="red">(latest: 1.2.0)</text>
</g>
<!-- roo_scheduler&#45;&gt;roo_threads -->
<g id="edge39" class="edge">
<title>roo_scheduler&#45;&gt;roo_threads</title>
<path fill="none" stroke="black" d="M968.04,-266.88C979.8,-252.7 996.31,-232.81 1009.47,-216.94"/>
<polygon fill="black" stroke="black" points="1012.31,-219 1016.01,-209.07 1006.93,-214.53 1012.31,-219"/>
</g>
<!-- roo_scheduler&#45;&gt;roo_time -->
<g id="edge40" class="edge">
<title>roo_scheduler&#45;&gt;roo_time</title>
<path fill="none" stroke="red" d="M894.92,-278.93C809.22,-268.84 654.63,-246.01 614,-209 589.93,-187.08 581.46,-149.38 578.52,-123.37"/>
<polygon fill="red" stroke="red" points="582,-122.99 577.59,-113.35 575.03,-123.64 582,-122.99"/>
<text text-anchor="middle" x="647" y="-193" font-family="Times,serif" font-size="10.00" fill="red">1.3.3</text>
<text text-anchor="middle" x="647" y="-182" font-family="Times,serif" font-size="10.00" fill="red">(latest: 1.4.0)</text>
</g>
<!-- roo_threads&#45;&gt;roo_testing -->
<g id="edge41" class="edge">
<title>roo_threads&#45;&gt;roo_testing</title>
<path fill="none" stroke="red" d="M1029.39,-170.91C1026.79,-141.51 1021.6,-83.13 1018.51,-48.23"/>
<polygon fill="red" stroke="red" points="1021.99,-47.86 1017.62,-38.21 1015.01,-48.48 1021.99,-47.86"/>
<text text-anchor="middle" x="1058" y="-97" font-family="Times,serif" font-size="10.00" fill="red">1.1.8</text>
<text text-anchor="middle" x="1058" y="-86" font-family="Times,serif" font-size="10.00" fill="red">(latest: 1.2.0)</text>
</g>
<!-- roo_threads&#45;&gt;roo_time -->
<g id="edge42" class="edge">
<title>roo_threads&#45;&gt;roo_time</title>
<path fill="none" stroke="red" d="M980.19,-178.11C947.1,-170.99 902.98,-161.49 864,-153 819.53,-143.32 808.57,-140.19 764,-131 717.68,-121.45 664.74,-111.33 627.03,-104.26"/>
<polygon fill="red" stroke="red" points="627.3,-100.75 616.82,-102.35 626.01,-107.63 627.3,-100.75"/>
<text text-anchor="middle" x="897" y="-145" font-family="Times,serif" font-size="10.00" fill="red">1.3.3</text>
<text text-anchor="middle" x="897" y="-134" font-family="Times,serif" font-size="10.00" fill="red">(latest: 1.4.0)</text>
</g>
<!-- roo_time&#45;&gt;roo_testing -->
<g id="edge43" class="edge">
<title>roo_time&#45;&gt;roo_testing</title>
<path fill="none" stroke="black" d="M616.73,-86.39C694.37,-73.48 866.52,-44.86 957.32,-29.76"/>
<polygon fill="black" stroke="black" points="958.15,-33.17 967.44,-28.07 957.01,-26.26 958.15,-33.17"/>
</g>
<!-- roo_time_ds3231 -->
<g id="node20" class="node">
<title>roo_time_ds3231</title>
<polygon fill="plum" stroke="black" points="924,-209 786,-209 786,-171 924,-171 924,-209"/>
<text text-anchor="middle" x="855" y="-193.8" font-family="Times,serif" font-size="14.00">roo_time_ds3231</text>
<text text-anchor="middle" x="855" y="-178.8" font-family="Times,serif" font-size="14.00">1.1.3</text>
</g>
<!-- roo_time_ds3231&#45;&gt;roo_testing -->
<g id="edge44" class="edge">
<title>roo_time_ds3231&#45;&gt;roo_testing</title>
<path fill="none" stroke="red" d="M854.25,-170.96C854.22,-146.4 857.74,-102.39 881,-75 900.33,-52.24 930.53,-38.77 957.46,-30.87"/>
<polygon fill="red" stroke="red" points="958.49,-34.22 967.21,-28.21 956.64,-27.47 958.49,-34.22"/>
<text text-anchor="middle" x="914" y="-97" font-family="Times,serif" font-size="10.00" fill="red">1.1.8</text>
<text text-anchor="middle" x="914" y="-86" font-family="Times,serif" font-size="10.00" fill="red">(latest: 1.2.0)</text>
</g>
<!-- roo_time_ds3231&#45;&gt;roo_time -->
<g id="edge45" class="edge">
<title>roo_time_ds3231&#45;&gt;roo_time</title>
<path fill="none" stroke="red" d="M785.72,-173.98C745.59,-165.13 702.15,-155.24 698,-153 685.55,-146.29 687,-138.49 675,-131 660.23,-121.79 642.74,-114.42 626.66,-108.81"/>
<polygon fill="red" stroke="red" points="627.46,-105.39 616.86,-105.54 625.24,-112.03 627.46,-105.39"/>
<text text-anchor="middle" x="731" y="-145" font-family="Times,serif" font-size="10.00" fill="red">1.3.3</text>
<text text-anchor="middle" x="731" y="-134" font-family="Times,serif" font-size="10.00" fill="red">(latest: 1.4.0)</text>
</g>
<!-- roo_transceivers&#45;&gt;roo_prefs -->
<g id="edge47" class="edge">
<title>roo_transceivers&#45;&gt;roo_prefs</title>
<path fill="none" stroke="black" d="M417.62,-469.24C445.32,-466.06 477.7,-462.35 507,-459 736.01,-432.81 1009.32,-401.65 1121.3,-388.89"/>
<polygon fill="black" stroke="black" points="1121.77,-392.36 1131.31,-387.75 1120.98,-385.4 1121.77,-392.36"/>
</g>
<!-- roo_transceivers&#45;&gt;roo_testing -->
<g id="edge46" class="edge">
<title>roo_transceivers&#45;&gt;roo_testing</title>
<path fill="none" stroke="red" d="M348.48,-458.9C345.18,-423.07 336.38,-344.7 321,-323 292.21,-282.39 267.25,-291.65 224,-267 209.82,-258.92 200.24,-263.09 192,-249 167.12,-206.45 198.55,-147.62 336,-75 390.23,-46.35 801.81,-28.06 957.02,-22.12"/>
<polygon fill="red" stroke="red" points="957.44,-25.6 967.3,-21.73 957.18,-18.61 957.44,-25.6"/>
<text text-anchor="middle" x="225" y="-241" font-family="Times,serif" font-size="10.00" fill="red">1.1.8</text>
<text text-anchor="middle" x="225" y="-230" font-family="Times,serif" font-size="10.00" fill="red">(latest: 1.2.0)</text>
</g>
<!-- roo_transceivers&#45;&gt;roo_time -->
<g id="edge48" class="edge">
<title>roo_transceivers&#45;&gt;roo_time</title>
<path fill="none" stroke="red" d="M350.98,-458.96C355.13,-401.36 376.25,-220.48 480,-131 493.53,-119.33 511.19,-111.29 527.73,-105.83"/>
<polygon fill="red" stroke="red" points="528.76,-109.17 537.3,-102.9 526.71,-102.48 528.76,-109.17"/>
<text text-anchor="middle" x="424" y="-289" font-family="Times,serif" font-size="10.00" fill="red">1.3.3</text>
<text text-anchor="middle" x="424" y="-278" font-family="Times,serif" font-size="10.00" fill="red">(latest: 1.4.0)</text>
</g>
<!-- roo_transport -->
<g id="node22" class="node">
<title>roo_transport</title>
<polygon fill="plum" stroke="black" points="1445,-497 1331,-497 1331,-459 1445,-459 1445,-497"/>
<text text-anchor="middle" x="1388" y="-481.8" font-family="Times,serif" font-size="14.00">roo_transport</text>
<text text-anchor="middle" x="1388" y="-466.8" font-family="Times,serif" font-size="14.00">1.0.2</text>
</g>
<!-- roo_transport&#45;&gt;roo_collections -->
<g id="edge50" class="edge">
<title>roo_transport&#45;&gt;roo_collections</title>
<path fill="none" stroke="black" d="M1394.21,-458.72C1396.11,-453.05 1398.17,-446.78 1400,-441 1425.43,-360.67 1453.48,-265.15 1466.94,-218.88"/>
<polygon fill="black" stroke="black" points="1470.3,-219.83 1469.73,-209.25 1463.58,-217.88 1470.3,-219.83"/>
</g>
<!-- roo_transport&#45;&gt;roo_io -->
<g id="edge51" class="edge">
<title>roo_transport&#45;&gt;roo_io</title>
<path fill="none" stroke="black" d="M1411.41,-458.69C1418.65,-453.03 1426.66,-446.76 1434,-441 1446.45,-431.23 1448.93,-427.93 1462,-419 1469.15,-414.11 1476.98,-409.19 1484.58,-404.62"/>
<polygon fill="black" stroke="black" points="1486.52,-407.54 1493.34,-399.44 1482.95,-401.52 1486.52,-407.54"/>
</g>
<!-- roo_transport&#45;&gt;roo_testing -->
<g id="edge49" class="edge">
<title>roo_transport&#45;&gt;roo_testing</title>
<path fill="none" stroke="red" d="M1387.39,-458.98C1386.8,-440.06 1386,-409.44 1386,-383 1386,-383 1386,-383 1386,-93 1386,-30.35 1179.22,-20.57 1074.83,-19.63"/>
<polygon fill="red" stroke="red" points="1074.77,-16.13 1064.75,-19.56 1074.73,-23.13 1074.77,-16.13"/>
<text text-anchor="middle" x="1419" y="-241" font-family="Times,serif" font-size="10.00" fill="red">1.1.8</text>
<text text-anchor="middle" x="1419" y="-230" font-family="Times,serif" font-size="10.00" fill="red">(latest: 1.2.0)</text>
</g>
<!-- roo_wifi -->
<g id="node23" class="node">
<title>roo_wifi</title>
<polygon fill="plum" stroke="black" points="1635,-497 1563,-497 1563,-459 1635,-459 1635,-497"/>
<text text-anchor="middle" x="1599" y="-481.8" font-family="Times,serif" font-size="14.00">roo_wifi</text>
<text text-anchor="middle" x="1599" y="-466.8" font-family="Times,serif" font-size="14.00">1.1.2</text>
</g>
<!-- roo_wifi&#45;&gt;roo_prefs -->
<g id="edge53" class="edge">
<title>roo_wifi&#45;&gt;roo_prefs</title>
<path fill="none" stroke="black" d="M1562.68,-468.99C1486.91,-452.27 1311.78,-413.62 1224.45,-394.35"/>
<polygon fill="black" stroke="black" points="1225.02,-390.9 1214.5,-392.16 1223.51,-397.73 1225.02,-390.9"/>
</g>
<!-- roo_wifi&#45;&gt;roo_testing -->
<g id="edge52" class="edge">
<title>roo_wifi&#45;&gt;roo_testing</title>
<path fill="none" stroke="red" d="M1620.05,-458.83C1625,-453.55 1629.77,-447.46 1633,-441 1660.13,-386.75 1691.6,-228.73 1673,-171 1656.89,-120.99 1646.47,-105.94 1604,-75 1581.73,-58.78 1572.05,-61.2 1545,-56 1376.49,-23.64 1172.91,-19.32 1074.67,-19.36"/>
<polygon fill="red" stroke="red" points="1074.64,-15.86 1064.64,-19.38 1074.65,-22.86 1074.64,-15.86"/>
<text text-anchor="middle" x="1712" y="-241" font-family="Times,serif" font-size="10.00" fill="red">1.1.8</text>
<text text-anchor="middle" x="1712" y="-230" font-family="Times,serif" font-size="10.00" fill="red">(latest: 1.2.0)</text>
</g>
<!-- roo_windows&#45;&gt;roo_icons -->
<g id="edge57" class="edge">
<title>roo_windows&#45;&gt;roo_icons</title>
<path fill="none" stroke="black" d="M1265.58,-667.78C1380.79,-664.78 1640.96,-655.57 1674,-633 1684.35,-625.93 1691.01,-613.92 1695.22,-602.66"/>
<polygon fill="black" stroke="black" points="1698.57,-603.69 1698.32,-593.1 1691.91,-601.53 1698.57,-603.69"/>
</g>
<!-- roo_windows&#45;&gt;roo_io -->
<g id="edge58" class="edge">
<title>roo_windows&#45;&gt;roo_io</title>
<path fill="none" stroke="red" d="M1254.57,-650.97C1313.28,-624.77 1417.92,-571.09 1483,-497 1504.32,-472.73 1514.46,-436.41 1519.16,-411.31"/>
<polygon fill="red" stroke="red" points="1522.64,-411.76 1520.86,-401.32 1515.74,-410.59 1522.64,-411.76"/>
<text text-anchor="middle" x="1498" y="-529" font-family="Times,serif" font-size="10.00" fill="red">2.0.2</text>
<text text-anchor="middle" x="1498" y="-518" font-family="Times,serif" font-size="10.00" fill="red">(latest: 2.0.3)</text>
</g>
<!-- roo_windows&#45;&gt;roo_locale -->
<g id="edge55" class="edge">
<title>roo_windows&#45;&gt;roo_locale</title>
<path fill="none" stroke="black" d="M1204.06,-650.88C1198.83,-637.22 1191.57,-618.26 1185.61,-602.71"/>
<polygon fill="black" stroke="black" points="1188.76,-601.16 1181.92,-593.07 1182.23,-603.66 1188.76,-601.16"/>
</g>
<!-- roo_windows&#45;&gt;roo_logging -->
<g id="edge56" class="edge">
<title>roo_windows&#45;&gt;roo_logging</title>
<path fill="none" stroke="red" d="M1222.59,-650.71C1233.11,-632.32 1247,-602.79 1247,-575 1247,-575 1247,-575 1247,-381 1247,-353.25 1226.85,-328.87 1207.58,-311.89"/>
<polygon fill="red" stroke="red" points="1209.63,-309.04 1199.72,-305.31 1205.13,-314.41 1209.63,-309.04"/>
<text text-anchor="middle" x="1280" y="-481" font-family="Times,serif" font-size="10.00" fill="red">1.4.2</text>
<text text-anchor="middle" x="1280" y="-470" font-family="Times,serif" font-size="10.00" fill="red">(latest: 1.4.3)</text>
</g>
<!-- roo_windows&#45;&gt;roo_scheduler -->
<g id="edge59" class="edge">
<title>roo_windows&#45;&gt;roo_scheduler</title>
<path fill="none" stroke="red" d="M1185.02,-650.81C1165.99,-636.59 1140.37,-615.51 1122,-593 1046.9,-500.95 987.84,-370.76 964.2,-314.58"/>
<polygon fill="red" stroke="red" points="967.4,-313.17 960.33,-305.28 960.94,-315.86 967.4,-313.17"/>
<text text-anchor="middle" x="1088" y="-481" font-family="Times,serif" font-size="10.00" fill="red">2.1.4</text>
<text text-anchor="middle" x="1088" y="-470" font-family="Times,serif" font-size="10.00" fill="red">(latest: 2.1.5)</text>
</g>
<!-- roo_windows&#45;&gt;roo_testing -->
<g id="edge54" class="edge">
<title>roo_windows&#45;&gt;roo_testing</title>
<path fill="none" stroke="red" d="M1265.57,-667.74C1435.68,-663.1 1945,-643.49 1945,-575 1945,-575 1945,-575 1945,-93 1945,-20.45 1857.87,-65.96 1786,-56 1648.89,-37 1230.55,-25.2 1075.04,-21.37"/>
<polygon fill="red" stroke="red" points="1074.83,-17.86 1064.74,-21.12 1074.66,-24.86 1074.83,-17.86"/>
<text text-anchor="middle" x="1978" y="-337" font-family="Times,serif" font-size="10.00" fill="red">1.1.7</text>
<text text-anchor="middle" x="1978" y="-326" font-family="Times,serif" font-size="10.00" fill="red">(latest: 1.2.0)</text>
</g>
<!-- roo_windows&#45;&gt;roo_time -->
<g id="edge60" class="edge">
<title>roo_windows&#45;&gt;roo_time</title>
<path fill="none" stroke="red" d="M1156.1,-668.59C1038.73,-666.22 774,-652.31 774,-575 774,-575 774,-575 774,-429 774,-397.14 763.67,-389.52 746,-363 699.12,-292.64 678.08,-280.96 613,-227 601.9,-217.79 593.9,-221.07 586,-209 569.42,-183.68 569.4,-148.09 572.09,-123.44"/>
<polygon fill="red" stroke="red" points="575.59,-123.66 573.42,-113.29 568.65,-122.75 575.59,-123.66"/>
<text text-anchor="middle" x="803" y="-385" font-family="Times,serif" font-size="10.00" fill="red">1.3.2</text>
<text text-anchor="middle" x="803" y="-374" font-family="Times,serif" font-size="10.00" fill="red">(latest: 1.4.0)</text>
</g>
<!-- roo_windows_wifi -->
<g id="node25" class="node">
<title>roo_windows_wifi</title>
<polygon fill="plum" stroke="black" points="1281.5,-764 1140.5,-764 1140.5,-726 1281.5,-726 1281.5,-764"/>
<text text-anchor="middle" x="1211" y="-748.8" font-family="Times,serif" font-size="14.00">roo_windows_wifi</text>
<text text-anchor="middle" x="1211" y="-733.8" font-family="Times,serif" font-size="14.00">1.1.2</text>
</g>
<!-- roo_windows_wifi&#45;&gt;roo_testing -->
<g id="edge61" class="edge">
<title>roo_windows_wifi&#45;&gt;roo_testing</title>
<path fill="none" stroke="red" d="M1140.36,-741.2C896.09,-731.31 102,-697.12 102,-671 102,-671 102,-671 102,-93 102,-49.95 754.88,-27.52 957.05,-21.61"/>
<polygon fill="red" stroke="red" points="957.29,-25.11 967.18,-21.32 957.09,-18.11 957.29,-25.11"/>
<text text-anchor="middle" x="135" y="-385" font-family="Times,serif" font-size="10.00" fill="red">1.1.7</text>
<text text-anchor="middle" x="135" y="-374" font-family="Times,serif" font-size="10.00" fill="red">(latest: 1.2.0)</text>
</g>
<!-- roo_windows_wifi&#45;&gt;roo_wifi -->
<g id="edge62" class="edge">
<title>roo_windows_wifi&#45;&gt;roo_wifi</title>
<path fill="none" stroke="red" d="M1242.99,-725.98C1302.51,-691.94 1433.42,-614.6 1535,-537 1548.17,-526.94 1561.89,-514.76 1573.24,-504.16"/>
<polygon fill="red" stroke="red" points="1575.82,-506.54 1580.68,-497.12 1571.01,-501.45 1575.82,-506.54"/>
<text text-anchor="middle" x="1462" y="-625" font-family="Times,serif" font-size="10.00" fill="red">1.1.1</text>
<text text-anchor="middle" x="1462" y="-614" font-family="Times,serif" font-size="10.00" fill="red">(latest: 1.1.2)</text>
</g>
<!-- roo_windows_wifi&#45;&gt;roo_windows -->
<g id="edge63" class="edge">
<title>roo_windows_wifi&#45;&gt;roo_windows</title>
<path fill="none" stroke="black" d="M1211,-725.96C1211,-717.88 1211,-708.18 1211,-699.18"/>
<polygon fill="black" stroke="black" points="1214.5,-699.09 1211,-689.09 1207.5,-699.09 1214.5,-699.09"/>
</g>
</g>
</svg>
