<?xml version="1.0" encoding="UTF-8" standalone="no"?>
<!DOCTYPE svg PUBLIC "-//W3C//DTD SVG 1.1//EN"
 "http://www.w3.org/Graphics/SVG/1.1/DTD/svg11.dtd">
<!-- Generated by graphviz version 2.42.4 (0)
 -->
<!-- Title: dependencies Pages: 1 -->
<svg width="2344pt" height="730pt"
 viewBox="0.00 0.00 2343.50 730.00" xmlns="http://www.w3.org/2000/svg" xmlns:xlink="http://www.w3.org/1999/xlink">
<g id="graph0" class="graph" transform="scale(1 1) rotate(0) translate(4 726)">
<title>dependencies</title>
<polygon fill="white" stroke="transparent" points="-4,4 -4,-726 2339.5,-726 2339.5,4 -4,4"/>
<!-- roo_backport -->
<g id="node1" class="node">
<title>roo_backport</title>
<polygon fill="#b1dbab" stroke="black" points="468.5,-113 379.5,-113 379.5,-75 468.5,-75 468.5,-113"/>
<text text-anchor="middle" x="424" y="-97.8" font-family="Times,serif" font-size="14.00">roo_backport</text>
<text text-anchor="middle" x="424" y="-82.8" font-family="Times,serif" font-size="14.00">1.1.1</text>
</g>
<!-- roo_blink -->
<g id="node2" class="node">
<title>roo_blink</title>
<polygon fill="#b1dbab" stroke="black" points="1187.5,-380 1118.5,-380 1118.5,-342 1187.5,-342 1187.5,-380"/>
<text text-anchor="middle" x="1153" y="-364.8" font-family="Times,serif" font-size="14.00">roo_blink</text>
<text text-anchor="middle" x="1153" y="-349.8" font-family="Times,serif" font-size="14.00">1.0.2</text>
</g>
<!-- roo_logging -->
<g id="node13" class="node">
<title>roo_logging</title>
<polygon fill="#b1dbab" stroke="black" points="1364.5,-284 1281.5,-284 1281.5,-246 1364.5,-246 1364.5,-284"/>
<text text-anchor="middle" x="1323" y="-268.8" font-family="Times,serif" font-size="14.00">roo_logging</text>
<text text-anchor="middle" x="1323" y="-253.8" font-family="Times,serif" font-size="14.00">1.4.3</text>
</g>
<!-- roo_blink&#45;&gt;roo_logging -->
<g id="edge1" class="edge">
<title>roo_blink&#45;&gt;roo_logging</title>
<path fill="none" stroke="black" d="M1185.78,-341.88C1213.06,-326.79 1252.06,-305.23 1281.51,-288.94"/>
<polygon fill="black" stroke="black" points="1283.27,-291.97 1290.32,-284.07 1279.88,-285.84 1283.27,-291.97"/>
</g>
<!-- roo_scheduler -->
<g id="node19" class="node">
<title>roo_scheduler</title>
<polygon fill="#b1dbab" stroke="black" points="940.5,-284 847.5,-284 847.5,-246 940.5,-246 940.5,-284"/>
<text text-anchor="middle" x="894" y="-268.8" font-family="Times,serif" font-size="14.00">roo_scheduler</text>
<text text-anchor="middle" x="894" y="-253.8" font-family="Times,serif" font-size="14.00">2.1.5</text>
</g>
<!-- roo_blink&#45;&gt;roo_scheduler -->
<g id="edge2" class="edge">
<title>roo_blink&#45;&gt;roo_scheduler</title>
<path fill="none" stroke="black" d="M1118.47,-347.29C1113.62,-345.51 1108.68,-343.71 1104,-342 1051.96,-323.02 992.6,-301.56 950.29,-286.29"/>
<polygon fill="black" stroke="black" points="951.33,-282.94 940.73,-282.84 948.95,-289.53 951.33,-282.94"/>
</g>
<!-- roo_collections -->
<g id="node3" class="node">
<title>roo_collections</title>
<polygon fill="#b1dbab" stroke="black" points="566,-188 466,-188 466,-150 566,-150 566,-188"/>
<text text-anchor="middle" x="516" y="-172.8" font-family="Times,serif" font-size="14.00">roo_collections</text>
<text text-anchor="middle" x="516" y="-157.8" font-family="Times,serif" font-size="14.00">1.3.2</text>
</g>
<!-- roo_collections&#45;&gt;roo_backport -->
<g id="edge3" class="edge">
<title>roo_collections&#45;&gt;roo_backport</title>
<path fill="none" stroke="black" d="M493.26,-149.96C481.65,-140.74 467.35,-129.4 454.77,-119.42"/>
<polygon fill="black" stroke="black" points="456.81,-116.56 446.8,-113.09 452.46,-122.05 456.81,-116.56"/>
</g>
<!-- roo_comms -->
<g id="node4" class="node">
<title>roo_comms</title>
<polygon fill="plum" stroke="black" points="1194,-572 1112,-572 1112,-534 1194,-534 1194,-572"/>
<text text-anchor="middle" x="1153" y="-556.8" font-family="Times,serif" font-size="14.00">roo_comms</text>
<text text-anchor="middle" x="1153" y="-541.8" font-family="Times,serif" font-size="14.00">1.1.1</text>
</g>
<!-- roo_comms&#45;&gt;roo_blink -->
<g id="edge5" class="edge">
<title>roo_comms&#45;&gt;roo_blink</title>
<path fill="none" stroke="red" d="M1153,-533.78C1153,-500.52 1153,-429.73 1153,-390.2"/>
<polygon fill="red" stroke="red" points="1156.5,-390.16 1153,-380.16 1149.5,-390.16 1156.5,-390.16"/>
<text text-anchor="middle" x="1180" y="-460" font-family="Times,serif" font-size="10.00" fill="red">1.0.1</text>
<text text-anchor="middle" x="1180" y="-449" font-family="Times,serif" font-size="10.00" fill="red">(latest: 1.0.2)</text>
</g>
<!-- roo_control -->
<g id="node5" class="node">
<title>roo_control</title>
<polygon fill="plum" stroke="black" points="1086,-476 1006,-476 1006,-438 1086,-438 1086,-476"/>
<text text-anchor="middle" x="1046" y="-460.8" font-family="Times,serif" font-size="14.00">roo_control</text>
<text text-anchor="middle" x="1046" y="-445.8" font-family="Times,serif" font-size="14.00">1.2.1</text>
</g>
<!-- roo_comms&#45;&gt;roo_control -->
<g id="edge6" class="edge">
<title>roo_comms&#45;&gt;roo_control</title>
<path fill="none" stroke="black" d="M1132.37,-533.88C1115.94,-519.44 1092.75,-499.07 1074.54,-483.07"/>
<polygon fill="black" stroke="black" points="1076.39,-480.04 1066.57,-476.07 1071.77,-485.3 1076.39,-480.04"/>
</g>
<!-- roo_io -->
<g id="node10" class="node">
<title>roo_io</title>
<polygon fill="#b1dbab" stroke="black" points="544,-380 490,-380 490,-342 544,-342 544,-380"/>
<text text-anchor="middle" x="517" y="-364.8" font-family="Times,serif" font-size="14.00">roo_io</text>
<text text-anchor="middle" x="517" y="-349.8" font-family="Times,serif" font-size="14.00">2.0.3</text>
</g>
<!-- roo_comms&#45;&gt;roo_io -->
<g id="edge7" class="edge">
<title>roo_comms&#45;&gt;roo_io</title>
<path fill="none" stroke="red" d="M1111.61,-551.33C1001.84,-548.73 706.68,-536.18 634,-476 604.87,-451.88 626.76,-424.72 600,-398 592.95,-390.96 572.5,-382.06 553.66,-374.86"/>
<polygon fill="red" stroke="red" points="554.63,-371.49 544.04,-371.28 552.19,-378.05 554.63,-371.49"/>
<text text-anchor="middle" x="661" y="-460" font-family="Times,serif" font-size="10.00" fill="red">2.0.2</text>
<text text-anchor="middle" x="661" y="-449" font-family="Times,serif" font-size="10.00" fill="red">(latest: 2.0.3)</text>
</g>
<!-- roo_comms&#45;&gt;roo_logging -->
<g id="edge8" class="edge">
<title>roo_comms&#45;&gt;roo_logging</title>
<path fill="none" stroke="red" d="M1169.78,-533.9C1182.61,-519.24 1199.91,-497.55 1211,-476 1227.59,-443.75 1209.45,-423.74 1235,-398 1253.72,-379.15 1273.6,-399.16 1292,-380 1314,-357.09 1320.73,-320.18 1322.61,-294.59"/>
<polygon fill="red" stroke="red" points="1326.12,-294.56 1323.15,-284.39 1319.13,-294.19 1326.12,-294.56"/>
<text text-anchor="middle" x="1262" y="-412" font-family="Times,serif" font-size="10.00" fill="red">1.4.2</text>
<text text-anchor="middle" x="1262" y="-401" font-family="Times,serif" font-size="10.00" fill="red">(latest: 1.4.3)</text>
</g>
<!-- roo_prefs -->
<g id="node17" class="node">
<title>roo_prefs</title>
<polygon fill="#b1dbab" stroke="black" points="882,-380 814,-380 814,-342 882,-342 882,-380"/>
<text text-anchor="middle" x="848" y="-364.8" font-family="Times,serif" font-size="14.00">roo_prefs</text>
<text text-anchor="middle" x="848" y="-349.8" font-family="Times,serif" font-size="14.00">1.2.3</text>
</g>
<!-- roo_comms&#45;&gt;roo_prefs -->
<g id="edge9" class="edge">
<title>roo_comms&#45;&gt;roo_prefs</title>
<path fill="none" stroke="red" d="M1111.65,-543.93C1066.94,-533.7 995.08,-512.82 943,-476 906.39,-450.11 907.85,-432.33 879,-398 876.25,-394.73 873.35,-391.32 870.47,-387.94"/>
<polygon fill="red" stroke="red" points="873.03,-385.55 863.86,-380.24 867.71,-390.11 873.03,-385.55"/>
<text text-anchor="middle" x="970" y="-460" font-family="Times,serif" font-size="10.00" fill="red">1.2.2</text>
<text text-anchor="middle" x="970" y="-449" font-family="Times,serif" font-size="10.00" fill="red">(latest: 1.2.3)</text>
</g>
<!-- roo_comms&#45;&gt;roo_scheduler -->
<g id="edge10" class="edge">
<title>roo_comms&#45;&gt;roo_scheduler</title>
<path fill="none" stroke="red" d="M1111.75,-548.4C1040.36,-539.81 894.36,-511.45 821,-420 798.86,-392.4 790.18,-374.14 805,-342 814.87,-320.59 834.07,-302.98 852.12,-290.12"/>
<polygon fill="red" stroke="red" points="854.54,-292.71 860.84,-284.19 850.61,-286.92 854.54,-292.71"/>
<text text-anchor="middle" x="848" y="-412" font-family="Times,serif" font-size="10.00" fill="red">2.1.4</text>
<text text-anchor="middle" x="848" y="-401" font-family="Times,serif" font-size="10.00" fill="red">(latest: 2.1.5)</text>
</g>
<!-- roo_testing -->
<g id="node20" class="node">
<title>roo_testing</title>
<polygon fill="#b1dbab" stroke="black" points="1038.5,-38 961.5,-38 961.5,0 1038.5,0 1038.5,-38"/>
<text text-anchor="middle" x="1000" y="-22.8" font-family="Times,serif" font-size="14.00">roo_testing</text>
<text text-anchor="middle" x="1000" y="-7.8" font-family="Times,serif" font-size="14.00">1.1.8</text>
</g>
<!-- roo_comms&#45;&gt;roo_testing -->
<g id="edge4" class="edge">
<title>roo_comms&#45;&gt;roo_testing</title>
<path fill="none" stroke="red" d="M1194.19,-536.04C1197.14,-535.25 1200.1,-534.55 1203,-534 1330.98,-509.63 1659.8,-532.76 1789,-516 1867.26,-505.85 1890.57,-509.55 1962,-476 2025.72,-446.07 2055.59,-442.5 2088,-380 2121.17,-316.04 2094,-290.05 2094,-218 2094,-218 2094,-218 2094,-93 2094,-39.85 1261.23,-23.88 1048.83,-20.67"/>
<polygon fill="red" stroke="red" points="1048.67,-17.16 1038.61,-20.51 1048.56,-24.16 1048.67,-17.16"/>
<text text-anchor="middle" x="2127" y="-268" font-family="Times,serif" font-size="10.00" fill="red">1.1.7</text>
<text text-anchor="middle" x="2127" y="-257" font-family="Times,serif" font-size="10.00" fill="red">(latest: 1.1.8)</text>
</g>
<!-- roo_threads -->
<g id="node21" class="node">
<title>roo_threads</title>
<polygon fill="#b1dbab" stroke="black" points="1682,-188 1602,-188 1602,-150 1682,-150 1682,-188"/>
<text text-anchor="middle" x="1642" y="-172.8" font-family="Times,serif" font-size="14.00">roo_threads</text>
<text text-anchor="middle" x="1642" y="-157.8" font-family="Times,serif" font-size="14.00">1.1.6</text>
</g>
<!-- roo_comms&#45;&gt;roo_threads -->
<g id="edge11" class="edge">
<title>roo_comms&#45;&gt;roo_threads</title>
<path fill="none" stroke="red" d="M1194.04,-536.65C1197.05,-535.7 1200.06,-534.8 1203,-534 1406.51,-478.39 1552.45,-566 1652,-380 1668.41,-349.34 1654.85,-248.01 1646.85,-198.17"/>
<polygon fill="red" stroke="red" points="1650.27,-197.38 1645.19,-188.08 1643.36,-198.52 1650.27,-197.38"/>
<text text-anchor="middle" x="1686" y="-364" font-family="Times,serif" font-size="10.00" fill="red">1.1.5</text>
<text text-anchor="middle" x="1686" y="-353" font-family="Times,serif" font-size="10.00" fill="red">(latest: 1.1.6)</text>
</g>
<!-- roo_time -->
<g id="node22" class="node">
<title>roo_time</title>
<polygon fill="#b1dbab" stroke="black" points="1793,-113 1727,-113 1727,-75 1793,-75 1793,-113"/>
<text text-anchor="middle" x="1760" y="-97.8" font-family="Times,serif" font-size="14.00">roo_time</text>
<text text-anchor="middle" x="1760" y="-82.8" font-family="Times,serif" font-size="14.00">1.3.3</text>
</g>
<!-- roo_comms&#45;&gt;roo_time -->
<g id="edge12" class="edge">
<title>roo_comms&#45;&gt;roo_time</title>
<path fill="none" stroke="red" d="M1194.19,-536.06C1197.15,-535.26 1200.1,-534.56 1203,-534 1414.77,-492.98 1473.84,-541.76 1688,-516 1775.84,-505.43 1824.21,-542.11 1883,-476 1934.54,-418.05 1917.93,-376.38 1896,-302 1881.64,-253.28 1874.22,-237.01 1834,-206 1813.63,-190.3 1796.11,-207.2 1779,-188 1763.38,-170.48 1759.26,-143.68 1758.68,-123.34"/>
<polygon fill="red" stroke="red" points="1762.18,-123.08 1758.66,-113.09 1755.18,-123.09 1762.18,-123.08"/>
<text text-anchor="middle" x="1929" y="-316" font-family="Times,serif" font-size="10.00" fill="red">1.3.2</text>
<text text-anchor="middle" x="1929" y="-305" font-family="Times,serif" font-size="10.00" fill="red">(latest: 1.3.3)</text>
</g>
<!-- roo_transceivers -->
<g id="node24" class="node">
<title>roo_transceivers</title>
<polygon fill="plum" stroke="black" points="1874,-476 1768,-476 1768,-438 1874,-438 1874,-476"/>
<text text-anchor="middle" x="1821" y="-460.8" font-family="Times,serif" font-size="14.00">roo_transceivers</text>
<text text-anchor="middle" x="1821" y="-445.8" font-family="Times,serif" font-size="14.00">1.1.2</text>
</g>
<!-- roo_comms&#45;&gt;roo_transceivers -->
<g id="edge13" class="edge">
<title>roo_comms&#45;&gt;roo_transceivers</title>
<path fill="none" stroke="black" d="M1194.2,-536.08C1197.15,-535.28 1200.1,-534.57 1203,-534 1390.26,-497.26 1443.91,-548.26 1632,-516 1677.49,-508.2 1727.35,-492.59 1764.42,-479.53"/>
<polygon fill="black" stroke="black" points="1765.8,-482.75 1774.05,-476.09 1763.45,-476.16 1765.8,-482.75"/>
</g>
<!-- roo_control&#45;&gt;roo_logging -->
<g id="edge15" class="edge">
<title>roo_control&#45;&gt;roo_logging</title>
<path fill="none" stroke="red" d="M1041.87,-437.88C1037.4,-413.23 1033.6,-369.11 1056,-342 1083.32,-308.93 1201.73,-285.11 1271.35,-273.66"/>
<polygon fill="red" stroke="red" points="1271.94,-277.11 1281.25,-272.06 1270.82,-270.2 1271.94,-277.11"/>
<text text-anchor="middle" x="1083" y="-364" font-family="Times,serif" font-size="10.00" fill="red">1.4.2</text>
<text text-anchor="middle" x="1083" y="-353" font-family="Times,serif" font-size="10.00" fill="red">(latest: 1.4.3)</text>
</g>
<!-- roo_quantity -->
<g id="node18" class="node">
<title>roo_quantity</title>
<polygon fill="plum" stroke="black" points="1420,-380 1334,-380 1334,-342 1420,-342 1420,-380"/>
<text text-anchor="middle" x="1377" y="-364.8" font-family="Times,serif" font-size="14.00">roo_quantity</text>
<text text-anchor="middle" x="1377" y="-349.8" font-family="Times,serif" font-size="14.00">1.1.2</text>
</g>
<!-- roo_control&#45;&gt;roo_quantity -->
<g id="edge16" class="edge">
<title>roo_control&#45;&gt;roo_quantity</title>
<path fill="none" stroke="black" d="M1086.06,-446.69C1100.21,-443.62 1116.26,-440.39 1131,-438 1201.2,-426.62 1224.2,-447 1290,-420 1304.64,-413.99 1305,-407.03 1318,-398 1324.1,-393.77 1330.7,-389.47 1337.19,-385.4"/>
<polygon fill="black" stroke="black" points="1339.26,-388.24 1345.94,-380.01 1335.59,-382.28 1339.26,-388.24"/>
</g>
<!-- roo_control&#45;&gt;roo_scheduler -->
<g id="edge17" class="edge">
<title>roo_control&#45;&gt;roo_scheduler</title>
<path fill="none" stroke="red" d="M1005.76,-438.25C981.07,-425.42 950.71,-405.8 932,-380 913.33,-354.26 903.42,-318.75 898.46,-294.23"/>
<polygon fill="red" stroke="red" points="901.85,-293.33 896.57,-284.14 894.97,-294.61 901.85,-293.33"/>
<text text-anchor="middle" x="959" y="-364" font-family="Times,serif" font-size="10.00" fill="red">2.1.4</text>
<text text-anchor="middle" x="959" y="-353" font-family="Times,serif" font-size="10.00" fill="red">(latest: 2.1.5)</text>
</g>
<!-- roo_control&#45;&gt;roo_testing -->
<g id="edge14" class="edge">
<title>roo_control&#45;&gt;roo_testing</title>
<path fill="none" stroke="red" d="M1030.94,-437.84C1017.52,-419.78 1000,-390.71 1000,-362 1000,-362 1000,-362 1000,-93 1000,-78.3 1000,-61.93 1000,-48.43"/>
<polygon fill="red" stroke="red" points="1003.5,-48.3 1000,-38.3 996.5,-48.3 1003.5,-48.3"/>
<text text-anchor="middle" x="1027" y="-220" font-family="Times,serif" font-size="10.00" fill="red">1.1.7</text>
<text text-anchor="middle" x="1027" y="-209" font-family="Times,serif" font-size="10.00" fill="red">(latest: 1.1.8)</text>
</g>
<!-- roo_dashboard -->
<g id="node6" class="node">
<title>roo_dashboard</title>
<polygon fill="plum" stroke="black" points="2232.5,-722 2135.5,-722 2135.5,-684 2232.5,-684 2232.5,-722"/>
<text text-anchor="middle" x="2184" y="-706.8" font-family="Times,serif" font-size="14.00">roo_dashboard</text>
<text text-anchor="middle" x="2184" y="-691.8" font-family="Times,serif" font-size="14.00">1.0.1</text>
</g>
<!-- roo_dashboard&#45;&gt;roo_testing -->
<g id="edge18" class="edge">
<title>roo_dashboard&#45;&gt;roo_testing</title>
<path fill="none" stroke="red" d="M2199.68,-683.83C2210.14,-669.82 2222,-649.43 2222,-629 2222,-629 2222,-629 2222,-93 2222,-33.18 1276.56,-22.12 1048.88,-20.32"/>
<polygon fill="red" stroke="red" points="1048.62,-16.82 1038.59,-20.24 1048.56,-23.82 1048.62,-16.82"/>
<text text-anchor="middle" x="2249" y="-364" font-family="Times,serif" font-size="10.00" fill="red">1.1.7</text>
<text text-anchor="middle" x="2249" y="-353" font-family="Times,serif" font-size="10.00" fill="red">(latest: 1.1.8)</text>
</g>
<!-- roo_windows -->
<g id="node27" class="node">
<title>roo_windows</title>
<polygon fill="plum" stroke="black" points="801,-647 711,-647 711,-609 801,-609 801,-647"/>
<text text-anchor="middle" x="756" y="-631.8" font-family="Times,serif" font-size="14.00">roo_windows</text>
<text text-anchor="middle" x="756" y="-616.8" font-family="Times,serif" font-size="14.00">1.4.1</text>
</g>
<!-- roo_dashboard&#45;&gt;roo_windows -->
<g id="edge19" class="edge">
<title>roo_dashboard&#45;&gt;roo_windows</title>
<path fill="none" stroke="black" d="M2135.46,-690.5C2122.99,-687.95 2109.55,-685.55 2097,-684 1842.02,-652.61 1031.32,-634.49 811.46,-630.07"/>
<polygon fill="black" stroke="black" points="811.21,-626.56 801.14,-629.86 811.07,-633.56 811.21,-626.56"/>
</g>
<!-- roo_display -->
<g id="node7" class="node">
<title>roo_display</title>
<polygon fill="plum" stroke="black" points="335,-476 255,-476 255,-438 335,-438 335,-476"/>
<text text-anchor="middle" x="295" y="-460.8" font-family="Times,serif" font-size="14.00">roo_display</text>
<text text-anchor="middle" x="295" y="-445.8" font-family="Times,serif" font-size="14.00">2.3.1</text>
</g>
<!-- roo_display&#45;&gt;roo_collections -->
<g id="edge21" class="edge">
<title>roo_display&#45;&gt;roo_collections</title>
<path fill="none" stroke="black" d="M309.16,-437.67C347.13,-388.54 451.31,-253.71 495.62,-196.37"/>
<polygon fill="black" stroke="black" points="498.61,-198.23 501.96,-188.17 493.07,-193.95 498.61,-198.23"/>
</g>
<!-- roo_display&#45;&gt;roo_io -->
<g id="edge22" class="edge">
<title>roo_display&#45;&gt;roo_io</title>
<path fill="none" stroke="red" d="M335.2,-438.98C376.53,-421.48 440.32,-394.47 480.31,-377.53"/>
<polygon fill="red" stroke="red" points="481.85,-380.68 489.69,-373.56 479.12,-374.24 481.85,-380.68"/>
<text text-anchor="middle" x="453" y="-412" font-family="Times,serif" font-size="10.00" fill="red">2.0.2</text>
<text text-anchor="middle" x="453" y="-401" font-family="Times,serif" font-size="10.00" fill="red">(latest: 2.0.3)</text>
</g>
<!-- roo_display&#45;&gt;roo_testing -->
<g id="edge20" class="edge">
<title>roo_display&#45;&gt;roo_testing</title>
<path fill="none" stroke="red" d="M299.66,-437.77C304.07,-418.93 310,-388.61 310,-362 310,-362 310,-362 310,-93 310,-28.46 793.63,-20.82 951.1,-20.04"/>
<polygon fill="red" stroke="red" points="951.44,-23.54 961.42,-20 951.41,-16.54 951.44,-23.54"/>
<text text-anchor="middle" x="337" y="-220" font-family="Times,serif" font-size="10.00" fill="red">1.1.7</text>
<text text-anchor="middle" x="337" y="-209" font-family="Times,serif" font-size="10.00" fill="red">(latest: 1.1.8)</text>
</g>
<!-- roo_flags -->
<g id="node8" class="node">
<title>roo_flags</title>
<polygon fill="#b1dbab" stroke="black" points="1433,-188 1365,-188 1365,-150 1433,-150 1433,-188"/>
<text text-anchor="middle" x="1399" y="-172.8" font-family="Times,serif" font-size="14.00">roo_flags</text>
<text text-anchor="middle" x="1399" y="-157.8" font-family="Times,serif" font-size="14.00">1.1.1</text>
</g>
<!-- roo_icons -->
<g id="node9" class="node">
<title>roo_icons</title>
<polygon fill="plum" stroke="black" points="330,-572 260,-572 260,-534 330,-534 330,-572"/>
<text text-anchor="middle" x="295" y="-556.8" font-family="Times,serif" font-size="14.00">roo_icons</text>
<text text-anchor="middle" x="295" y="-541.8" font-family="Times,serif" font-size="14.00">1.2.1</text>
</g>
<!-- roo_icons&#45;&gt;roo_display -->
<g id="edge24" class="edge">
<title>roo_icons&#45;&gt;roo_display</title>
<path fill="none" stroke="black" d="M295,-533.88C295,-520.35 295,-501.62 295,-486.15"/>
<polygon fill="black" stroke="black" points="298.5,-486.07 295,-476.07 291.5,-486.07 298.5,-486.07"/>
</g>
<!-- roo_icons&#45;&gt;roo_testing -->
<g id="edge23" class="edge">
<title>roo_icons&#45;&gt;roo_testing</title>
<path fill="none" stroke="red" d="M259.92,-542.03C228.93,-531.22 185.42,-510.67 164,-476 114.85,-396.45 151,-359.51 151,-266 151,-266 151,-266 151,-93 151,-92.02 287.61,-56.68 292,-56 419.45,-36.38 812.6,-24.76 951.1,-21.19"/>
<polygon fill="red" stroke="red" points="951.49,-24.68 961.4,-20.93 951.31,-17.68 951.49,-24.68"/>
<text text-anchor="middle" x="178" y="-268" font-family="Times,serif" font-size="10.00" fill="red">1.1.7</text>
<text text-anchor="middle" x="178" y="-257" font-family="Times,serif" font-size="10.00" fill="red">(latest: 1.1.8)</text>
</g>
<!-- roo_io&#45;&gt;roo_backport -->
<g id="edge25" class="edge">
<title>roo_io&#45;&gt;roo_backport</title>
<path fill="none" stroke="black" d="M510.61,-341.79C494.65,-296.31 452.96,-177.52 433.84,-123.04"/>
<polygon fill="black" stroke="black" points="437.05,-121.62 430.44,-113.34 430.45,-123.94 437.05,-121.62"/>
</g>
<!-- roo_io&#45;&gt;roo_logging -->
<g id="edge26" class="edge">
<title>roo_io&#45;&gt;roo_logging</title>
<path fill="none" stroke="black" d="M544.22,-356.28C573.61,-351.56 621.27,-341.79 659,-324 673.96,-316.95 673.44,-307.59 689,-302 702.65,-297.1 1122.31,-275.93 1271.22,-268.55"/>
<polygon fill="black" stroke="black" points="1271.65,-272.03 1281.47,-268.04 1271.31,-265.04 1271.65,-272.03"/>
</g>
<!-- roo_io_sdfat -->
<g id="node11" class="node">
<title>roo_io_sdfat</title>
<polygon fill="plum" stroke="black" points="2335.5,-722 2250.5,-722 2250.5,-684 2335.5,-684 2335.5,-722"/>
<text text-anchor="middle" x="2293" y="-706.8" font-family="Times,serif" font-size="14.00">roo_io_sdfat</text>
<text text-anchor="middle" x="2293" y="-691.8" font-family="Times,serif" font-size="14.00">1.0.0</text>
</g>
<!-- roo_locale -->
<g id="node12" class="node">
<title>roo_locale</title>
<polygon fill="#b1dbab" stroke="black" points="1286,-572 1212,-572 1212,-534 1286,-534 1286,-572"/>
<text text-anchor="middle" x="1249" y="-556.8" font-family="Times,serif" font-size="14.00">roo_locale</text>
<text text-anchor="middle" x="1249" y="-541.8" font-family="Times,serif" font-size="14.00">1.1.1</text>
</g>
<!-- roo_logging&#45;&gt;roo_flags -->
<g id="edge27" class="edge">
<title>roo_logging&#45;&gt;roo_flags</title>
<path fill="none" stroke="black" d="M1337.65,-245.88C1349.11,-231.7 1365.2,-211.81 1378.02,-195.94"/>
<polygon fill="black" stroke="black" points="1380.83,-198.05 1384.39,-188.07 1375.38,-193.64 1380.83,-198.05"/>
</g>
<!-- roo_logging&#45;&gt;roo_threads -->
<g id="edge28" class="edge">
<title>roo_logging&#45;&gt;roo_threads</title>
<path fill="none" stroke="black" d="M1364.75,-260.58C1400.45,-256.42 1452.49,-247.38 1494,-228 1508.34,-221.31 1507.95,-213.29 1522,-206 1543.85,-194.66 1569.83,-186.31 1592.02,-180.53"/>
<polygon fill="black" stroke="black" points="1593.07,-183.87 1601.92,-178.05 1591.37,-177.08 1593.07,-183.87"/>
</g>
<!-- roo_monitoring -->
<g id="node14" class="node">
<title>roo_monitoring</title>
<polygon fill="plum" stroke="black" points="545,-476 443,-476 443,-438 545,-438 545,-476"/>
<text text-anchor="middle" x="494" y="-460.8" font-family="Times,serif" font-size="14.00">roo_monitoring</text>
<text text-anchor="middle" x="494" y="-445.8" font-family="Times,serif" font-size="14.00">1.0.0</text>
</g>
<!-- roo_monitoring&#45;&gt;roo_collections -->
<g id="edge29" class="edge">
<title>roo_monitoring&#45;&gt;roo_collections</title>
<path fill="none" stroke="black" d="M490.03,-437.99C486.87,-422.66 482.7,-400.01 481,-380 475.4,-314.1 494.73,-237.74 506.87,-197.73"/>
<polygon fill="black" stroke="black" points="510.23,-198.72 509.86,-188.13 503.54,-196.64 510.23,-198.72"/>
</g>
<!-- roo_monitoring&#45;&gt;roo_io -->
<g id="edge30" class="edge">
<title>roo_monitoring&#45;&gt;roo_io</title>
<path fill="none" stroke="black" d="M494.79,-437.96C495.64,-426.38 497.39,-411.1 501,-398 501.77,-395.22 502.72,-392.38 503.77,-389.57"/>
<polygon fill="black" stroke="black" points="507.01,-390.87 507.61,-380.3 500.55,-388.19 507.01,-390.87"/>
</g>
<!-- roo_onewire -->
<g id="node15" class="node">
<title>roo_onewire</title>
<polygon fill="plum" stroke="black" points="1498.5,-476 1413.5,-476 1413.5,-438 1498.5,-438 1498.5,-476"/>
<text text-anchor="middle" x="1456" y="-460.8" font-family="Times,serif" font-size="14.00">roo_onewire</text>
<text text-anchor="middle" x="1456" y="-445.8" font-family="Times,serif" font-size="14.00">2.0.4</text>
</g>
<!-- roo_onewire&#45;&gt;roo_collections -->
<g id="edge32" class="edge">
<title>roo_onewire&#45;&gt;roo_collections</title>
<path fill="none" stroke="black" d="M1472.62,-437.82C1491.39,-414.96 1517.31,-374.76 1501,-342 1469.48,-278.65 1439.53,-272.68 1374,-246 1228.85,-186.91 746.25,-173.63 576.05,-170.76"/>
<polygon fill="black" stroke="black" points="576.07,-167.26 566.02,-170.6 575.96,-174.26 576.07,-167.26"/>
</g>
<!-- roo_onewire&#45;&gt;roo_logging -->
<g id="edge33" class="edge">
<title>roo_onewire&#45;&gt;roo_logging</title>
<path fill="none" stroke="red" d="M1454.41,-437.68C1451.78,-414.34 1445.11,-373.28 1429,-342 1418.18,-321 1412.65,-316.49 1394,-302 1387.78,-297.17 1380.82,-292.71 1373.75,-288.69"/>
<polygon fill="red" stroke="red" points="1375.24,-285.52 1364.78,-283.84 1371.91,-291.67 1375.24,-285.52"/>
<text text-anchor="middle" x="1470" y="-364" font-family="Times,serif" font-size="10.00" fill="red">1.4.2</text>
<text text-anchor="middle" x="1470" y="-353" font-family="Times,serif" font-size="10.00" fill="red">(latest: 1.4.3)</text>
</g>
<!-- roo_onewire&#45;&gt;roo_quantity -->
<g id="edge35" class="edge">
<title>roo_onewire&#45;&gt;roo_quantity</title>
<path fill="none" stroke="black" d="M1445.46,-437.93C1438.15,-426.05 1427.82,-410.46 1417,-398 1413.8,-394.31 1410.24,-390.63 1406.6,-387.11"/>
<polygon fill="black" stroke="black" points="1408.81,-384.39 1399.11,-380.14 1404.05,-389.51 1408.81,-384.39"/>
</g>
<!-- roo_onewire&#45;&gt;roo_scheduler -->
<g id="edge34" class="edge">
<title>roo_onewire&#45;&gt;roo_scheduler</title>
<path fill="none" stroke="red" d="M1438.29,-437.77C1423.2,-422.67 1402.37,-402.91 1392,-398 1342.85,-374.75 1322.76,-396.64 1271,-380 1235.8,-368.68 1231.6,-355.03 1197,-342 1113.58,-310.59 1012.39,-288.19 950.62,-276.17"/>
<polygon fill="red" stroke="red" points="951.17,-272.71 940.69,-274.26 949.85,-279.59 951.17,-272.71"/>
<text text-anchor="middle" x="1298" y="-364" font-family="Times,serif" font-size="10.00" fill="red">2.1.4</text>
<text text-anchor="middle" x="1298" y="-353" font-family="Times,serif" font-size="10.00" fill="red">(latest: 2.1.5)</text>
</g>
<!-- roo_onewire&#45;&gt;roo_testing -->
<g id="edge31" class="edge">
<title>roo_onewire&#45;&gt;roo_testing</title>
<path fill="none" stroke="red" d="M1498.74,-449.27C1599.58,-431.18 1840,-373.95 1787,-246 1775.45,-218.13 1717.68,-164.08 1691,-150 1471.99,-34.39 1166.13,-20.38 1048.62,-19.54"/>
<polygon fill="red" stroke="red" points="1048.52,-16.04 1038.51,-19.49 1048.49,-23.04 1048.52,-16.04"/>
<text text-anchor="middle" x="1803" y="-220" font-family="Times,serif" font-size="10.00" fill="red">1.1.7</text>
<text text-anchor="middle" x="1803" y="-209" font-family="Times,serif" font-size="10.00" fill="red">(latest: 1.1.8)</text>
</g>
<!-- roo_powersafefs -->
<g id="node16" class="node">
<title>roo_powersafefs</title>
<polygon fill="plum" stroke="black" points="1777.5,-284 1670.5,-284 1670.5,-246 1777.5,-246 1777.5,-284"/>
<text text-anchor="middle" x="1724" y="-268.8" font-family="Times,serif" font-size="14.00">roo_powersafefs</text>
<text text-anchor="middle" x="1724" y="-253.8" font-family="Times,serif" font-size="14.00">1.0.0</text>
</g>
<!-- roo_powersafefs&#45;&gt;roo_threads -->
<g id="edge36" class="edge">
<title>roo_powersafefs&#45;&gt;roo_threads</title>
<path fill="none" stroke="black" d="M1708.19,-245.88C1695.82,-231.7 1678.47,-211.81 1664.63,-195.94"/>
<polygon fill="black" stroke="black" points="1666.97,-193.3 1657.76,-188.07 1661.7,-197.91 1666.97,-193.3"/>
</g>
<!-- roo_prefs&#45;&gt;roo_logging -->
<g id="edge37" class="edge">
<title>roo_prefs&#45;&gt;roo_logging</title>
<path fill="none" stroke="black" d="M882.1,-346.35C886.73,-344.75 891.45,-343.25 896,-342 1029.02,-305.55 1190.28,-282.35 1271.28,-272.1"/>
<polygon fill="black" stroke="black" points="1271.73,-275.57 1281.22,-270.86 1270.86,-268.63 1271.73,-275.57"/>
</g>
<!-- roo_prefs&#45;&gt;roo_scheduler -->
<g id="edge38" class="edge">
<title>roo_prefs&#45;&gt;roo_scheduler</title>
<path fill="none" stroke="black" d="M856.87,-341.88C863.61,-328.09 873.01,-308.9 880.66,-293.26"/>
<polygon fill="black" stroke="black" points="883.91,-294.59 885.16,-284.07 877.62,-291.51 883.91,-294.59"/>
</g>
<!-- roo_quantity&#45;&gt;roo_flags -->
<g id="edge39" class="edge">
<title>roo_quantity&#45;&gt;roo_flags</title>
<path fill="none" stroke="black" d="M1390.09,-341.77C1393.31,-336.31 1396.32,-330.14 1398,-324 1409.62,-281.56 1406.71,-230.03 1403.15,-198.65"/>
<polygon fill="black" stroke="black" points="1406.59,-197.93 1401.89,-188.43 1399.64,-198.79 1406.59,-197.93"/>
</g>
<!-- roo_quantity&#45;&gt;roo_logging -->
<g id="edge40" class="edge">
<title>roo_quantity&#45;&gt;roo_logging</title>
<path fill="none" stroke="red" d="M1354.6,-341.82C1349.2,-336.54 1343.88,-330.45 1340,-324 1334.54,-314.93 1330.74,-303.99 1328.14,-294.07"/>
<polygon fill="red" stroke="red" points="1331.53,-293.17 1325.85,-284.23 1324.71,-294.76 1331.53,-293.17"/>
<text text-anchor="middle" x="1367" y="-316" font-family="Times,serif" font-size="10.00" fill="red">1.4.2</text>
<text text-anchor="middle" x="1367" y="-305" font-family="Times,serif" font-size="10.00" fill="red">(latest: 1.4.3)</text>
</g>
<!-- roo_quantity&#45;&gt;roo_time -->
<g id="edge41" class="edge">
<title>roo_quantity&#45;&gt;roo_time</title>
<path fill="none" stroke="red" d="M1395.72,-341.78C1448.08,-290.8 1592.27,-150.44 1593,-150 1631.73,-126.53 1681.66,-111.79 1716.79,-103.55"/>
<polygon fill="red" stroke="red" points="1717.76,-106.92 1726.74,-101.29 1716.22,-100.09 1717.76,-106.92"/>
<text text-anchor="middle" x="1562" y="-220" font-family="Times,serif" font-size="10.00" fill="red">1.3.2</text>
<text text-anchor="middle" x="1562" y="-209" font-family="Times,serif" font-size="10.00" fill="red">(latest: 1.3.3)</text>
</g>
<!-- roo_scheduler&#45;&gt;roo_collections -->
<g id="edge42" class="edge">
<title>roo_scheduler&#45;&gt;roo_collections</title>
<path fill="none" stroke="black" d="M847.13,-251.06C802.88,-238.97 734.59,-220.63 675,-206 642.4,-198 605.88,-189.68 576.07,-183.06"/>
<polygon fill="black" stroke="black" points="576.76,-179.63 566.24,-180.89 575.24,-186.46 576.76,-179.63"/>
</g>
<!-- roo_scheduler&#45;&gt;roo_threads -->
<g id="edge43" class="edge">
<title>roo_scheduler&#45;&gt;roo_threads</title>
<path fill="none" stroke="black" d="M940.51,-258.16C1073.34,-241.46 1453.68,-193.67 1591.42,-176.36"/>
<polygon fill="black" stroke="black" points="1592.2,-179.79 1601.69,-175.07 1591.33,-172.84 1592.2,-179.79"/>
</g>
<!-- roo_threads&#45;&gt;roo_time -->
<g id="edge44" class="edge">
<title>roo_threads&#45;&gt;roo_time</title>
<path fill="none" stroke="black" d="M1671.17,-149.96C1686.49,-140.48 1705.44,-128.75 1721.91,-118.57"/>
<polygon fill="black" stroke="black" points="1724.1,-121.33 1730.76,-113.09 1720.41,-115.37 1724.1,-121.33"/>
</g>
<!-- roo_time&#45;&gt;roo_testing -->
<g id="edge45" class="edge">
<title>roo_time&#45;&gt;roo_testing</title>
<path fill="none" stroke="black" d="M1726.9,-83.64C1694.76,-74.95 1644.44,-62.43 1600,-56 1396.8,-26.62 1151.55,-21.14 1048.9,-20.17"/>
<polygon fill="black" stroke="black" points="1048.86,-16.67 1038.83,-20.09 1048.81,-23.67 1048.86,-16.67"/>
</g>
<!-- roo_time_ds3231 -->
<g id="node23" class="node">
<title>roo_time_ds3231</title>
<polygon fill="#b1dbab" stroke="black" points="1900,-188 1788,-188 1788,-150 1900,-150 1900,-188"/>
<text text-anchor="middle" x="1844" y="-172.8" font-family="Times,serif" font-size="14.00">roo_time_ds3231</text>
<text text-anchor="middle" x="1844" y="-157.8" font-family="Times,serif" font-size="14.00">1.1.3</text>
</g>
<!-- roo_time_ds3231&#45;&gt;roo_time -->
<g id="edge46" class="edge">
<title>roo_time_ds3231&#45;&gt;roo_time</title>
<path fill="none" stroke="black" d="M1823.24,-149.96C1812.74,-140.83 1799.83,-129.62 1788.43,-119.7"/>
<polygon fill="black" stroke="black" points="1790.66,-117.01 1780.82,-113.09 1786.07,-122.29 1790.66,-117.01"/>
</g>
<!-- roo_transceivers&#45;&gt;roo_collections -->
<g id="edge48" class="edge">
<title>roo_transceivers&#45;&gt;roo_collections</title>
<path fill="none" stroke="black" d="M1808.54,-437.65C1792.27,-414.27 1762.27,-373.16 1732,-342 1703.85,-313.02 1691.03,-312.1 1662,-284 1628.75,-251.81 1634.88,-225.71 1593,-206 1569.87,-195.11 800.56,-176.56 576.6,-171.38"/>
<polygon fill="black" stroke="black" points="576.43,-167.87 566.35,-171.14 576.27,-174.87 576.43,-167.87"/>
</g>
<!-- roo_transceivers&#45;&gt;roo_logging -->
<g id="edge49" class="edge">
<title>roo_transceivers&#45;&gt;roo_logging</title>
<path fill="none" stroke="red" d="M1767.83,-439.28C1722.36,-424.65 1655.38,-402.3 1598,-380 1517.49,-348.71 1500.08,-334.37 1420,-302 1405.25,-296.04 1389.09,-289.89 1374.26,-284.4"/>
<polygon fill="red" stroke="red" points="1375.33,-281.06 1364.74,-280.89 1372.92,-287.63 1375.33,-281.06"/>
<text text-anchor="middle" x="1625" y="-364" font-family="Times,serif" font-size="10.00" fill="red">1.4.2</text>
<text text-anchor="middle" x="1625" y="-353" font-family="Times,serif" font-size="10.00" fill="red">(latest: 1.4.3)</text>
</g>
<!-- roo_transceivers&#45;&gt;roo_prefs -->
<g id="edge50" class="edge">
<title>roo_transceivers&#45;&gt;roo_prefs</title>
<path fill="none" stroke="red" d="M1767.89,-449.03C1672.83,-436.8 1467.23,-411.51 1293,-398 1116.9,-384.35 1069.03,-415.44 896,-380 894.72,-379.74 893.44,-379.45 892.15,-379.13"/>
<polygon fill="red" stroke="red" points="892.8,-375.68 882.23,-376.3 890.88,-382.41 892.8,-375.68"/>
<text text-anchor="middle" x="1537" y="-412" font-family="Times,serif" font-size="10.00" fill="red">1.2.2</text>
<text text-anchor="middle" x="1537" y="-401" font-family="Times,serif" font-size="10.00" fill="red">(latest: 1.2.3)</text>
</g>
<!-- roo_transceivers&#45;&gt;roo_testing -->
<g id="edge47" class="edge">
<title>roo_transceivers&#45;&gt;roo_testing</title>
<path fill="none" stroke="red" d="M1855.7,-437.92C1864.37,-432.68 1873.36,-426.58 1881,-420 1936.85,-371.87 1962.06,-356.4 1976,-284 1990.18,-210.39 1967.12,-172.97 1905,-131 1861.83,-101.83 1851.78,-90.39 1802,-75 1660.23,-31.16 1200.62,-22.2 1049.01,-20.43"/>
<polygon fill="red" stroke="red" points="1048.68,-16.92 1038.64,-20.31 1048.6,-23.92 1048.68,-16.92"/>
<text text-anchor="middle" x="2005" y="-220" font-family="Times,serif" font-size="10.00" fill="red">1.1.7</text>
<text text-anchor="middle" x="2005" y="-209" font-family="Times,serif" font-size="10.00" fill="red">(latest: 1.1.8)</text>
</g>
<!-- roo_transceivers&#45;&gt;roo_threads -->
<g id="edge51" class="edge">
<title>roo_transceivers&#45;&gt;roo_threads</title>
<path fill="none" stroke="red" d="M1836.84,-437.72C1840.58,-432.36 1844.04,-426.24 1846,-420 1856.36,-386.92 1855.43,-375.36 1846,-342 1839.19,-317.9 1805.3,-263.09 1787,-246 1759.54,-220.36 1721.78,-200.93 1691.67,-188.14"/>
<polygon fill="red" stroke="red" points="1692.77,-184.81 1682.19,-184.22 1690.09,-191.27 1692.77,-184.81"/>
<text text-anchor="middle" x="1865" y="-316" font-family="Times,serif" font-size="10.00" fill="red">1.1.5</text>
<text text-anchor="middle" x="1865" y="-305" font-family="Times,serif" font-size="10.00" fill="red">(latest: 1.1.6)</text>
</g>
<!-- roo_transceivers&#45;&gt;roo_time -->
<g id="edge52" class="edge">
<title>roo_transceivers&#45;&gt;roo_time</title>
<path fill="none" stroke="red" d="M1846.12,-437.68C1851.95,-432.49 1857.7,-426.47 1862,-420 1895.68,-369.26 1943.82,-199.97 1909,-150 1885.33,-116.03 1838.15,-102.98 1803.2,-98.01"/>
<polygon fill="red" stroke="red" points="1803.59,-94.53 1793.24,-96.76 1802.72,-101.48 1803.59,-94.53"/>
<text text-anchor="middle" x="1945" y="-268" font-family="Times,serif" font-size="10.00" fill="red">1.3.2</text>
<text text-anchor="middle" x="1945" y="-257" font-family="Times,serif" font-size="10.00" fill="red">(latest: 1.3.3)</text>
</g>
<!-- roo_transport -->
<g id="node25" class="node">
<title>roo_transport</title>
<polygon fill="plum" stroke="black" points="785.5,-476 696.5,-476 696.5,-438 785.5,-438 785.5,-476"/>
<text text-anchor="middle" x="741" y="-460.8" font-family="Times,serif" font-size="14.00">roo_transport</text>
<text text-anchor="middle" x="741" y="-445.8" font-family="Times,serif" font-size="14.00">1.0.1</text>
</g>
<!-- roo_transport&#45;&gt;roo_collections -->
<g id="edge54" class="edge">
<title>roo_transport&#45;&gt;roo_collections</title>
<path fill="none" stroke="black" d="M733.52,-437.93C727.11,-424.76 716.6,-407.61 702,-398 665.74,-374.13 639.87,-407.15 606,-380 548.4,-333.84 526.99,-243.83 519.58,-198.11"/>
<polygon fill="black" stroke="black" points="523.01,-197.38 518.06,-188.01 516.09,-198.42 523.01,-197.38"/>
</g>
<!-- roo_transport&#45;&gt;roo_io -->
<g id="edge55" class="edge">
<title>roo_transport&#45;&gt;roo_io</title>
<path fill="none" stroke="red" d="M696.23,-442.71C680.35,-436.96 662.76,-429.38 648,-420 636.06,-412.41 637.17,-405.21 625,-398 602.14,-384.47 593.2,-388.42 568,-380 563.4,-378.46 558.58,-376.81 553.82,-375.16"/>
<polygon fill="red" stroke="red" points="554.8,-371.79 544.2,-371.79 552.48,-378.4 554.8,-371.79"/>
<text text-anchor="middle" x="675" y="-412" font-family="Times,serif" font-size="10.00" fill="red">2.0.2</text>
<text text-anchor="middle" x="675" y="-401" font-family="Times,serif" font-size="10.00" fill="red">(latest: 2.0.3)</text>
</g>
<!-- roo_transport&#45;&gt;roo_logging -->
<g id="edge56" class="edge">
<title>roo_transport&#45;&gt;roo_logging</title>
<path fill="none" stroke="red" d="M764.44,-437.99C769.54,-432.8 774.23,-426.7 777,-420 780.74,-410.97 781.54,-406.66 777,-398 770.48,-385.55 757.52,-392.45 751,-380 743.16,-365.04 740.17,-354.96 751,-342 784.17,-302.28 1136.4,-277.17 1271.06,-268.96"/>
<polygon fill="red" stroke="red" points="1271.36,-272.45 1281.13,-268.35 1270.94,-265.46 1271.36,-272.45"/>
<text text-anchor="middle" x="778" y="-364" font-family="Times,serif" font-size="10.00" fill="red">1.4.2</text>
<text text-anchor="middle" x="778" y="-353" font-family="Times,serif" font-size="10.00" fill="red">(latest: 1.4.3)</text>
</g>
<!-- roo_transport&#45;&gt;roo_testing -->
<g id="edge53" class="edge">
<title>roo_transport&#45;&gt;roo_testing</title>
<path fill="none" stroke="red" d="M739.33,-437.8C737.52,-425.71 733.77,-409.94 726,-398 693.22,-347.62 620,-374.11 620,-314 620,-314 620,-314 620,-93 620,-26.27 848.87,-19.15 951.37,-19.3"/>
<polygon fill="red" stroke="red" points="951.46,-22.8 961.47,-19.34 951.49,-15.8 951.46,-22.8"/>
<text text-anchor="middle" x="647" y="-220" font-family="Times,serif" font-size="10.00" fill="red">1.1.7</text>
<text text-anchor="middle" x="647" y="-209" font-family="Times,serif" font-size="10.00" fill="red">(latest: 1.1.8)</text>
</g>
<!-- roo_transport&#45;&gt;roo_threads -->
<g id="edge57" class="edge">
<title>roo_transport&#45;&gt;roo_threads</title>
<path fill="none" stroke="red" d="M747.67,-437.93C749.44,-432.27 751.11,-425.95 752,-420 753.44,-410.33 755.01,-407.3 752,-398 748.96,-388.61 742.04,-389.39 739,-380 733.8,-363.93 735.29,-358.48 739,-342 752.55,-281.9 783.33,-272.38 839,-246 897.09,-218.47 914.53,-216.21 978,-206 1181.76,-173.22 1236.05,-201.25 1442,-188 1493.05,-184.71 1551.28,-179.28 1591.69,-175.24"/>
<polygon fill="red" stroke="red" points="1592.22,-178.71 1601.82,-174.22 1591.52,-171.74 1592.22,-178.71"/>
<text text-anchor="middle" x="781" y="-316" font-family="Times,serif" font-size="10.00" fill="red">1.1.5</text>
<text text-anchor="middle" x="781" y="-305" font-family="Times,serif" font-size="10.00" fill="red">(latest: 1.1.6)</text>
</g>
<!-- roo_wifi -->
<g id="node26" class="node">
<title>roo_wifi</title>
<polygon fill="plum" stroke="black" points="236.5,-476 173.5,-476 173.5,-438 236.5,-438 236.5,-476"/>
<text text-anchor="middle" x="205" y="-460.8" font-family="Times,serif" font-size="14.00">roo_wifi</text>
<text text-anchor="middle" x="205" y="-445.8" font-family="Times,serif" font-size="14.00">1.1.1</text>
</g>
<!-- roo_wifi&#45;&gt;roo_collections -->
<g id="edge59" class="edge">
<title>roo_wifi&#45;&gt;roo_collections</title>
<path fill="none" stroke="black" d="M226.6,-437.95C233.23,-432.29 240.48,-425.97 247,-420 328.6,-345.29 344.5,-321.89 425,-246 444.23,-227.87 448.71,-222.94 469,-206 473.55,-202.2 478.43,-198.29 483.27,-194.5"/>
<polygon fill="black" stroke="black" points="485.53,-197.18 491.3,-188.3 481.25,-191.64 485.53,-197.18"/>
</g>
<!-- roo_wifi&#45;&gt;roo_prefs -->
<g id="edge60" class="edge">
<title>roo_wifi&#45;&gt;roo_prefs</title>
<path fill="none" stroke="red" d="M236.87,-440.79C239.91,-439.71 242.98,-438.75 246,-438 348.92,-412.31 379.4,-437.66 484,-420 521.63,-413.65 529.42,-404.67 567,-398 652.7,-382.8 675.93,-392.94 762,-380 775.7,-377.94 790.51,-375.08 803.91,-372.24"/>
<polygon fill="red" stroke="red" points="804.81,-375.62 813.85,-370.08 803.33,-368.78 804.81,-375.62"/>
<text text-anchor="middle" x="594" y="-412" font-family="Times,serif" font-size="10.00" fill="red">1.2.2</text>
<text text-anchor="middle" x="594" y="-401" font-family="Times,serif" font-size="10.00" fill="red">(latest: 1.2.3)</text>
</g>
<!-- roo_wifi&#45;&gt;roo_testing -->
<g id="edge58" class="edge">
<title>roo_wifi&#45;&gt;roo_testing</title>
<path fill="none" stroke="red" d="M213.86,-437.75C222.06,-419.15 233,-389.24 233,-362 233,-362 233,-362 233,-93 233,-20.53 782.65,-18.44 951.35,-19.51"/>
<polygon fill="red" stroke="red" points="951.41,-23.01 961.44,-19.58 951.46,-16.01 951.41,-23.01"/>
<text text-anchor="middle" x="260" y="-220" font-family="Times,serif" font-size="10.00" fill="red">1.1.7</text>
<text text-anchor="middle" x="260" y="-209" font-family="Times,serif" font-size="10.00" fill="red">(latest: 1.1.8)</text>
</g>
<!-- roo_windows&#45;&gt;roo_icons -->
<g id="edge64" class="edge">
<title>roo_windows&#45;&gt;roo_icons</title>
<path fill="none" stroke="black" d="M710.86,-625.45C620.77,-621.95 421.75,-612.03 357,-591 347.07,-587.78 337.05,-582.74 328.04,-577.4"/>
<polygon fill="black" stroke="black" points="329.74,-574.34 319.4,-572.03 326.04,-580.28 329.74,-574.34"/>
</g>
<!-- roo_windows&#45;&gt;roo_io -->
<g id="edge65" class="edge">
<title>roo_windows&#45;&gt;roo_io</title>
<path fill="none" stroke="red" d="M725.98,-608.92C694.14,-588.81 643.47,-554.09 607,-516 578.01,-485.73 584.01,-467.26 554,-438 543.41,-427.67 534.07,-432.4 526,-420 520.31,-411.25 517.73,-400.22 516.69,-390.13"/>
<polygon fill="red" stroke="red" points="520.18,-389.87 516.09,-380.1 513.19,-390.29 520.18,-389.87"/>
<text text-anchor="middle" x="634" y="-508" font-family="Times,serif" font-size="10.00" fill="red">2.0.2</text>
<text text-anchor="middle" x="634" y="-497" font-family="Times,serif" font-size="10.00" fill="red">(latest: 2.0.3)</text>
</g>
<!-- roo_windows&#45;&gt;roo_locale -->
<g id="edge62" class="edge">
<title>roo_windows&#45;&gt;roo_locale</title>
<path fill="none" stroke="black" d="M801.09,-625.18C880.76,-621.17 1051.44,-608.96 1201.97,-571.91"/>
<polygon fill="black" stroke="black" points="1203,-575.26 1211.85,-569.44 1201.3,-568.47 1203,-575.26"/>
</g>
<!-- roo_windows&#45;&gt;roo_logging -->
<g id="edge63" class="edge">
<title>roo_windows&#45;&gt;roo_logging</title>
<path fill="none" stroke="red" d="M801.15,-624.53C1002.67,-613.03 1813.12,-561.66 1883,-476 2023.32,-303.97 1538.64,-272.81 1375.06,-267.21"/>
<polygon fill="red" stroke="red" points="1374.87,-263.71 1364.76,-266.88 1374.64,-270.7 1374.87,-263.71"/>
<text text-anchor="middle" x="1931" y="-460" font-family="Times,serif" font-size="10.00" fill="red">1.4.2</text>
<text text-anchor="middle" x="1931" y="-449" font-family="Times,serif" font-size="10.00" fill="red">(latest: 1.4.3)</text>
</g>
<!-- roo_windows&#45;&gt;roo_scheduler -->
<g id="edge66" class="edge">
<title>roo_windows&#45;&gt;roo_scheduler</title>
<path fill="none" stroke="red" d="M710.58,-619.58C594.01,-598.47 299.12,-530.83 383,-398 431.78,-320.76 714.57,-283.76 837.25,-271.18"/>
<polygon fill="red" stroke="red" points="837.61,-274.66 847.21,-270.17 836.91,-267.7 837.61,-274.66"/>
<text text-anchor="middle" x="404" y="-460" font-family="Times,serif" font-size="10.00" fill="red">2.1.4</text>
<text text-anchor="middle" x="404" y="-449" font-family="Times,serif" font-size="10.00" fill="red">(latest: 2.1.5)</text>
</g>
<!-- roo_windows&#45;&gt;roo_testing -->
<g id="edge61" class="edge">
<title>roo_windows&#45;&gt;roo_testing</title>
<path fill="none" stroke="red" d="M710.77,-627.18C621.21,-626.44 415.68,-619.2 251,-572 173.49,-549.78 82,-586.64 82,-506 82,-506 82,-506 82,-93 82,-48.99 761.27,-26.68 951.19,-21.3"/>
<polygon fill="red" stroke="red" points="951.53,-24.79 961.43,-21.01 951.34,-17.8 951.53,-24.79"/>
<text text-anchor="middle" x="109" y="-316" font-family="Times,serif" font-size="10.00" fill="red">1.1.7</text>
<text text-anchor="middle" x="109" y="-305" font-family="Times,serif" font-size="10.00" fill="red">(latest: 1.1.8)</text>
</g>
<!-- roo_windows&#45;&gt;roo_time -->
<g id="edge67" class="edge">
<title>roo_windows&#45;&gt;roo_time</title>
<path fill="none" stroke="red" d="M801.17,-626.52C927.16,-624.66 1292.89,-615.6 1593,-572 1704.39,-555.82 1731.51,-546.01 1840,-516 1895,-500.79 1922.2,-516.89 1962,-476 2005.4,-431.42 2067.2,-259.82 2036,-206 2002.35,-147.96 1968.17,-153.58 1905,-131 1862.61,-115.85 1846.21,-125.9 1803.01,-114.25"/>
<polygon fill="red" stroke="red" points="1803.95,-110.88 1793.37,-111.42 1801.97,-117.59 1803.95,-110.88"/>
<text text-anchor="middle" x="2054" y="-364" font-family="Times,serif" font-size="10.00" fill="red">1.3.2</text>
<text text-anchor="middle" x="2054" y="-353" font-family="Times,serif" font-size="10.00" fill="red">(latest: 1.3.3)</text>
</g>
<!-- roo_windows_transceivers -->
<g id="node28" class="node">
<title>roo_windows_transceivers</title>
<polygon fill="plum" stroke="black" points="2087.5,-722 1926.5,-722 1926.5,-684 2087.5,-684 2087.5,-722"/>
<text text-anchor="middle" x="2007" y="-706.8" font-family="Times,serif" font-size="14.00">roo_windows_transceivers</text>
<text text-anchor="middle" x="2007" y="-691.8" font-family="Times,serif" font-size="14.00">1.0.0</text>
</g>
<!-- roo_windows_transceivers&#45;&gt;roo_testing -->
<g id="edge68" class="edge">
<title>roo_windows_transceivers&#45;&gt;roo_testing</title>
<path fill="none" stroke="black" d="M2081.13,-683.97C2126.53,-670.68 2176,-651.13 2176,-629 2176,-629 2176,-629 2176,-93 2176,-35.58 1271.11,-22.73 1048.85,-20.43"/>
<polygon fill="black" stroke="black" points="1048.83,-16.93 1038.79,-20.33 1048.76,-23.93 1048.83,-16.93"/>
</g>
<!-- roo_windows_transceivers&#45;&gt;roo_transceivers -->
<g id="edge69" class="edge">
<title>roo_windows_transceivers&#45;&gt;roo_transceivers</title>
<path fill="none" stroke="black" d="M1993.02,-683.66C1960.36,-640.81 1878.93,-534 1841.01,-484.26"/>
<polygon fill="black" stroke="black" points="1843.73,-482.05 1834.89,-476.22 1838.17,-486.29 1843.73,-482.05"/>
</g>
<!-- roo_windows_transceivers&#45;&gt;roo_windows -->
<g id="edge70" class="edge">
<title>roo_windows_transceivers&#45;&gt;roo_windows</title>
<path fill="none" stroke="black" d="M1926.36,-697.29C1691.32,-683.58 1010.95,-643.88 811.55,-632.24"/>
<polygon fill="black" stroke="black" points="811.5,-628.73 801.31,-631.64 811.09,-635.72 811.5,-628.73"/>
</g>
<!-- roo_windows_wifi -->
<g id="node29" class="node">
<title>roo_windows_wifi</title>
<polygon fill="plum" stroke="black" points="179.5,-722 60.5,-722 60.5,-684 179.5,-684 179.5,-722"/>
<text text-anchor="middle" x="120" y="-706.8" font-family="Times,serif" font-size="14.00">roo_windows_wifi</text>
<text text-anchor="middle" x="120" y="-691.8" font-family="Times,serif" font-size="14.00">1.1.2</text>
</g>
<!-- roo_windows_wifi&#45;&gt;roo_testing -->
<g id="edge71" class="edge">
<title>roo_windows_wifi&#45;&gt;roo_testing</title>
<path fill="none" stroke="red" d="M60.35,-689.03C30.23,-678.61 0,-660.34 0,-629 0,-629 0,-629 0,-93 0,-44.74 750.54,-25.31 951.18,-20.98"/>
<polygon fill="red" stroke="red" points="951.49,-24.47 961.41,-20.76 951.34,-17.47 951.49,-24.47"/>
<text text-anchor="middle" x="27" y="-364" font-family="Times,serif" font-size="10.00" fill="red">1.1.7</text>
<text text-anchor="middle" x="27" y="-353" font-family="Times,serif" font-size="10.00" fill="red">(latest: 1.1.8)</text>
</g>
<!-- roo_windows_wifi&#45;&gt;roo_wifi -->
<g id="edge72" class="edge">
<title>roo_windows_wifi&#45;&gt;roo_wifi</title>
<path fill="none" stroke="black" d="M126.39,-683.66C141.16,-641.25 177.76,-536.2 195.31,-485.82"/>
<polygon fill="black" stroke="black" points="198.67,-486.81 198.65,-476.22 192.06,-484.51 198.67,-486.81"/>
</g>
<!-- roo_windows_wifi&#45;&gt;roo_windows -->
<g id="edge73" class="edge">
<title>roo_windows_wifi&#45;&gt;roo_windows</title>
<path fill="none" stroke="black" d="M179.55,-695.17C302.27,-681.08 581.79,-649 700.75,-635.34"/>
<polygon fill="black" stroke="black" points="701.2,-638.81 710.73,-634.2 700.4,-631.86 701.2,-638.81"/>
</g>
</g>
</svg>
