<?xml version="1.0" encoding="UTF-8" standalone="no"?>
<!DOCTYPE svg PUBLIC "-//W3C//DTD SVG 1.1//EN"
 "http://www.w3.org/Graphics/SVG/1.1/DTD/svg11.dtd">
<!-- Generated by graphviz version 2.42.4 (0)
 -->
<!-- Title: dependencies Pages: 1 -->
<svg width="865pt" height="793pt"
 viewBox="0.00 0.00 865.00 793.00" xmlns="http://www.w3.org/2000/svg" xmlns:xlink="http://www.w3.org/1999/xlink">
<g id="graph0" class="graph" transform="scale(1 1) rotate(0) translate(4 789)">
<title>dependencies</title>
<polygon fill="white" stroke="transparent" points="-4,4 -4,-789 861,-789 861,4 -4,4"/>
<!-- roo_backport -->
<g id="node1" class="node">
<title>roo_backport</title>
<polygon fill="plum" stroke="black" points="607,-209 497,-209 497,-171 607,-171 607,-209"/>
<text text-anchor="middle" x="552" y="-193.8" font-family="Times,serif" font-size="14.00">roo_backport</text>
<text text-anchor="middle" x="552" y="-178.8" font-family="Times,serif" font-size="14.00">1.2.1</text>
</g>
<!-- roo_blink -->
<g id="node2" class="node">
<title>roo_blink</title>
<polygon fill="plum" stroke="red" points="201,-593 119,-593 119,-555 201,-555 201,-593"/>
<text text-anchor="middle" x="160" y="-577.8" font-family="Times,serif" font-size="14.00">roo_blink</text>
<text text-anchor="middle" x="160" y="-562.8" font-family="Times,serif" font-size="14.00">1.0.5</text>
</g>
<!-- roo_logging -->
<g id="node12" class="node">
<title>roo_logging</title>
<polygon fill="plum" stroke="red" points="392,-305 292,-305 292,-267 392,-267 392,-305"/>
<text text-anchor="middle" x="342" y="-289.8" font-family="Times,serif" font-size="14.00">roo_logging</text>
<text text-anchor="middle" x="342" y="-274.8" font-family="Times,serif" font-size="14.00">1.5.3</text>
</g>
<!-- roo_blink&#45;&gt;roo_logging -->
<g id="edge1" class="edge">
<title>roo_blink&#45;&gt;roo_logging</title>
<path fill="none" stroke="black" d="M165.31,-554.87C172.5,-531.72 186.57,-490.87 205,-459 237.59,-402.64 287.56,-345.03 317.29,-312.86"/>
<polygon fill="black" stroke="black" points="320.13,-314.94 324.39,-305.24 315.01,-310.17 320.13,-314.94"/>
</g>
<!-- roo_scheduler -->
<g id="node18" class="node">
<title>roo_scheduler</title>
<polygon fill="plum" stroke="red" points="330,-497 214,-497 214,-459 330,-459 330,-497"/>
<text text-anchor="middle" x="272" y="-481.8" font-family="Times,serif" font-size="14.00">roo_scheduler</text>
<text text-anchor="middle" x="272" y="-466.8" font-family="Times,serif" font-size="14.00">2.1.7</text>
</g>
<!-- roo_blink&#45;&gt;roo_scheduler -->
<g id="edge2" class="edge">
<title>roo_blink&#45;&gt;roo_scheduler</title>
<path fill="none" stroke="black" d="M185.25,-554.75C192.69,-549.19 200.77,-542.97 208,-537 220.59,-526.61 234.05,-514.57 245.36,-504.16"/>
<polygon fill="black" stroke="black" points="247.85,-506.61 252.81,-497.25 243.1,-501.48 247.85,-506.61"/>
</g>
<!-- roo_collections -->
<g id="node3" class="node">
<title>roo_collections</title>
<polygon fill="plum" stroke="black" points="675,-401 553,-401 553,-363 675,-363 675,-401"/>
<text text-anchor="middle" x="614" y="-385.8" font-family="Times,serif" font-size="14.00">roo_collections</text>
<text text-anchor="middle" x="614" y="-370.8" font-family="Times,serif" font-size="14.00">1.4.1</text>
</g>
<!-- roo_collections&#45;&gt;roo_backport -->
<g id="edge3" class="edge">
<title>roo_collections&#45;&gt;roo_backport</title>
<path fill="none" stroke="black" d="M608.06,-362.78C597.15,-329.37 573.9,-258.13 561.04,-218.69"/>
<polygon fill="black" stroke="black" points="564.36,-217.58 557.93,-209.16 557.7,-219.76 564.36,-217.58"/>
</g>
<!-- roo_comms -->
<g id="node4" class="node">
<title>roo_comms</title>
<polygon fill="plum" stroke="red" points="324.5,-785 227.5,-785 227.5,-747 324.5,-747 324.5,-785"/>
<text text-anchor="middle" x="276" y="-769.8" font-family="Times,serif" font-size="14.00">roo_comms</text>
<text text-anchor="middle" x="276" y="-754.8" font-family="Times,serif" font-size="14.00">1.1.3</text>
</g>
<!-- roo_comms&#45;&gt;roo_blink -->
<g id="edge4" class="edge">
<title>roo_comms&#45;&gt;roo_blink</title>
<path fill="none" stroke="red" d="M264.88,-746.78C244.35,-713.16 200.43,-641.22 176.45,-601.94"/>
<polygon fill="red" stroke="red" points="179.29,-599.87 171.09,-593.16 173.31,-603.52 179.29,-599.87"/>
<text text-anchor="middle" x="263" y="-673" font-family="Times,serif" font-size="10.00" fill="red">1.0.4</text>
<text text-anchor="middle" x="263" y="-662" font-family="Times,serif" font-size="10.00" fill="red">(latest: 1.0.5)</text>
</g>
<!-- roo_control -->
<g id="node5" class="node">
<title>roo_control</title>
<polygon fill="plum" stroke="red" points="100.5,-593 3.5,-593 3.5,-555 100.5,-555 100.5,-593"/>
<text text-anchor="middle" x="52" y="-577.8" font-family="Times,serif" font-size="14.00">roo_control</text>
<text text-anchor="middle" x="52" y="-562.8" font-family="Times,serif" font-size="14.00">1.2.4</text>
</g>
<!-- roo_comms&#45;&gt;roo_control -->
<g id="edge5" class="edge">
<title>roo_comms&#45;&gt;roo_control</title>
<path fill="none" stroke="red" d="M231.94,-746.87C202.98,-733.59 165.34,-713.62 137,-689 107.79,-663.62 82.48,-626.58 67.25,-601.68"/>
<polygon fill="red" stroke="red" points="70.25,-599.87 62.1,-593.09 64.24,-603.47 70.25,-599.87"/>
<text text-anchor="middle" x="170" y="-673" font-family="Times,serif" font-size="10.00" fill="red">1.2.3</text>
<text text-anchor="middle" x="170" y="-662" font-family="Times,serif" font-size="10.00" fill="red">(latest: 1.2.4)</text>
</g>
<!-- roo_io -->
<g id="node10" class="node">
<title>roo_io</title>
<polygon fill="plum" stroke="red" points="448.5,-401 389.5,-401 389.5,-363 448.5,-363 448.5,-401"/>
<text text-anchor="middle" x="419" y="-385.8" font-family="Times,serif" font-size="14.00">roo_io</text>
<text text-anchor="middle" x="419" y="-370.8" font-family="Times,serif" font-size="14.00">2.1.4</text>
</g>
<!-- roo_comms&#45;&gt;roo_io -->
<g id="edge6" class="edge">
<title>roo_comms&#45;&gt;roo_io</title>
<path fill="none" stroke="red" d="M306.91,-746.79C330.5,-730.32 359,-703.66 359,-671 359,-671 359,-671 359,-525 359,-482.2 382.41,-437.46 399.99,-409.9"/>
<polygon fill="red" stroke="red" points="403.11,-411.53 405.68,-401.25 397.26,-407.68 403.11,-411.53"/>
<text text-anchor="middle" x="392" y="-577" font-family="Times,serif" font-size="10.00" fill="red">2.1.1</text>
<text text-anchor="middle" x="392" y="-566" font-family="Times,serif" font-size="10.00" fill="red">(latest: 2.1.4)</text>
</g>
<!-- roo_transceivers -->
<g id="node23" class="node">
<title>roo_transceivers</title>
<polygon fill="plum" stroke="red" points="522.5,-689 387.5,-689 387.5,-651 522.5,-651 522.5,-689"/>
<text text-anchor="middle" x="455" y="-673.8" font-family="Times,serif" font-size="14.00">roo_transceivers</text>
<text text-anchor="middle" x="455" y="-658.8" font-family="Times,serif" font-size="14.00">1.1.4</text>
</g>
<!-- roo_comms&#45;&gt;roo_transceivers -->
<g id="edge7" class="edge">
<title>roo_comms&#45;&gt;roo_transceivers</title>
<path fill="none" stroke="black" d="M324.93,-749.64C340.66,-743.97 357.91,-736.96 373,-729 390.92,-719.55 409.47,-706.72 424.38,-695.54"/>
<polygon fill="black" stroke="black" points="426.88,-698.03 432.71,-689.18 422.63,-692.47 426.88,-698.03"/>
</g>
<!-- roo_quantity -->
<g id="node17" class="node">
<title>roo_quantity</title>
<polygon fill="plum" stroke="red" points="143.5,-497 36.5,-497 36.5,-459 143.5,-459 143.5,-497"/>
<text text-anchor="middle" x="90" y="-481.8" font-family="Times,serif" font-size="14.00">roo_quantity</text>
<text text-anchor="middle" x="90" y="-466.8" font-family="Times,serif" font-size="14.00">1.1.7</text>
</g>
<!-- roo_control&#45;&gt;roo_quantity -->
<g id="edge8" class="edge">
<title>roo_control&#45;&gt;roo_quantity</title>
<path fill="none" stroke="black" d="M59.33,-554.88C64.85,-541.22 72.51,-522.26 78.8,-506.71"/>
<polygon fill="black" stroke="black" points="82.19,-507.65 82.7,-497.07 75.7,-505.03 82.19,-507.65"/>
</g>
<!-- roo_control&#45;&gt;roo_scheduler -->
<g id="edge9" class="edge">
<title>roo_control&#45;&gt;roo_scheduler</title>
<path fill="none" stroke="black" d="M94.16,-554.99C130.04,-539.65 181.73,-517.57 220.15,-501.15"/>
<polygon fill="black" stroke="black" points="221.79,-504.26 229.61,-497.11 219.04,-497.82 221.79,-504.26"/>
</g>
<!-- roo_dashboard -->
<g id="node6" class="node">
<title>roo_dashboard</title>
<polygon fill="khaki" stroke="red" points="857,-785 735,-785 735,-747 857,-747 857,-785"/>
<text text-anchor="middle" x="796" y="-769.8" font-family="Times,serif" font-size="14.00">roo_dashboard</text>
<text text-anchor="middle" x="796" y="-754.8" font-family="Times,serif" font-size="14.00">1.0.1</text>
</g>
<!-- roo_windows -->
<g id="node26" class="node">
<title>roo_windows</title>
<polygon fill="plum" stroke="red" points="746.5,-689 637.5,-689 637.5,-651 746.5,-651 746.5,-689"/>
<text text-anchor="middle" x="692" y="-673.8" font-family="Times,serif" font-size="14.00">roo_windows</text>
<text text-anchor="middle" x="692" y="-658.8" font-family="Times,serif" font-size="14.00">1.4.2</text>
</g>
<!-- roo_dashboard&#45;&gt;roo_windows -->
<g id="edge10" class="edge">
<title>roo_dashboard&#45;&gt;roo_windows</title>
<path fill="none" stroke="red" d="M775.95,-746.88C759.98,-732.44 737.44,-712.07 719.74,-696.07"/>
<polygon fill="red" stroke="red" points="721.76,-693.18 711.99,-689.07 717.06,-698.37 721.76,-693.18"/>
<text text-anchor="middle" x="786" y="-721" font-family="Times,serif" font-size="10.00" fill="red">1.4.1</text>
<text text-anchor="middle" x="786" y="-710" font-family="Times,serif" font-size="10.00" fill="red">(latest: 1.4.2)</text>
</g>
<!-- roo_display -->
<g id="node7" class="node">
<title>roo_display</title>
<polygon fill="plum" stroke="red" points="655,-497 557,-497 557,-459 655,-459 655,-497"/>
<text text-anchor="middle" x="606" y="-481.8" font-family="Times,serif" font-size="14.00">roo_display</text>
<text text-anchor="middle" x="606" y="-466.8" font-family="Times,serif" font-size="14.00">2.3.2</text>
</g>
<!-- roo_display&#45;&gt;roo_collections -->
<g id="edge11" class="edge">
<title>roo_display&#45;&gt;roo_collections</title>
<path fill="none" stroke="red" d="M617.88,-458.64C620.79,-453.18 623.5,-447.04 625,-441 627.41,-431.28 626.38,-420.54 624.18,-410.96"/>
<polygon fill="red" stroke="red" points="627.5,-409.84 621.45,-401.14 620.75,-411.71 627.5,-409.84"/>
<text text-anchor="middle" x="659" y="-433" font-family="Times,serif" font-size="10.00" fill="red">1.4.0</text>
<text text-anchor="middle" x="659" y="-422" font-family="Times,serif" font-size="10.00" fill="red">(latest: 1.4.1)</text>
</g>
<!-- roo_display&#45;&gt;roo_io -->
<g id="edge12" class="edge">
<title>roo_display&#45;&gt;roo_io</title>
<path fill="none" stroke="red" d="M556.81,-460.8C537.33,-453.96 517.56,-446.36 509,-441 497.01,-433.49 497.45,-427.31 486,-419 477.26,-412.65 467.25,-406.68 457.69,-401.5"/>
<polygon fill="red" stroke="red" points="459.2,-398.33 448.72,-396.78 455.94,-404.53 459.2,-398.33"/>
<text text-anchor="middle" x="542" y="-433" font-family="Times,serif" font-size="10.00" fill="red">2.1.2</text>
<text text-anchor="middle" x="542" y="-422" font-family="Times,serif" font-size="10.00" fill="red">(latest: 2.1.4)</text>
</g>
<!-- roo_flags -->
<g id="node8" class="node">
<title>roo_flags</title>
<polygon fill="plum" stroke="black" points="417,-209 337,-209 337,-171 417,-171 417,-209"/>
<text text-anchor="middle" x="377" y="-193.8" font-family="Times,serif" font-size="14.00">roo_flags</text>
<text text-anchor="middle" x="377" y="-178.8" font-family="Times,serif" font-size="14.00">1.2.1</text>
</g>
<!-- roo_icons -->
<g id="node9" class="node">
<title>roo_icons</title>
<polygon fill="plum" stroke="red" points="733.5,-593 650.5,-593 650.5,-555 733.5,-555 733.5,-593"/>
<text text-anchor="middle" x="692" y="-577.8" font-family="Times,serif" font-size="14.00">roo_icons</text>
<text text-anchor="middle" x="692" y="-562.8" font-family="Times,serif" font-size="14.00">1.2.1</text>
</g>
<!-- roo_icons&#45;&gt;roo_display -->
<g id="edge13" class="edge">
<title>roo_icons&#45;&gt;roo_display</title>
<path fill="none" stroke="red" d="M675.42,-554.88C662.33,-540.57 643.91,-520.44 629.34,-504.51"/>
<polygon fill="red" stroke="red" points="631.86,-502.08 622.53,-497.07 626.7,-506.81 631.86,-502.08"/>
<text text-anchor="middle" x="689" y="-529" font-family="Times,serif" font-size="10.00" fill="red">2.3.1</text>
<text text-anchor="middle" x="689" y="-518" font-family="Times,serif" font-size="10.00" fill="red">(latest: 2.3.2)</text>
</g>
<!-- roo_io&#45;&gt;roo_logging -->
<g id="edge14" class="edge">
<title>roo_io&#45;&gt;roo_logging</title>
<path fill="none" stroke="black" d="M404.15,-362.88C392.54,-348.7 376.25,-328.81 363.25,-312.94"/>
<polygon fill="black" stroke="black" points="365.85,-310.59 356.8,-305.07 360.43,-315.02 365.85,-310.59"/>
</g>
<!-- roo_locale -->
<g id="node11" class="node">
<title>roo_locale</title>
<polygon fill="plum" stroke="black" points="840,-593 752,-593 752,-555 840,-555 840,-593"/>
<text text-anchor="middle" x="796" y="-577.8" font-family="Times,serif" font-size="14.00">roo_locale</text>
<text text-anchor="middle" x="796" y="-562.8" font-family="Times,serif" font-size="14.00">1.1.1</text>
</g>
<!-- roo_logging&#45;&gt;roo_backport -->
<g id="edge15" class="edge">
<title>roo_logging&#45;&gt;roo_backport</title>
<path fill="none" stroke="black" d="M382.49,-266.88C416.63,-251.6 465.61,-229.67 502.16,-213.31"/>
<polygon fill="black" stroke="black" points="503.94,-216.35 511.63,-209.07 501.08,-209.96 503.94,-216.35"/>
</g>
<!-- roo_logging&#45;&gt;roo_flags -->
<g id="edge16" class="edge">
<title>roo_logging&#45;&gt;roo_flags</title>
<path fill="none" stroke="black" d="M353.97,-266.84C357.25,-261.28 360.57,-255.04 363,-249 366.8,-239.54 369.75,-228.79 371.94,-219.13"/>
<polygon fill="black" stroke="black" points="375.4,-219.69 374.02,-209.19 368.55,-218.26 375.4,-219.69"/>
</g>
<!-- roo_threads -->
<g id="node20" class="node">
<title>roo_threads</title>
<polygon fill="#b1dbab" stroke="black" points="257.5,-209 156.5,-209 156.5,-171 257.5,-171 257.5,-209"/>
<text text-anchor="middle" x="207" y="-193.8" font-family="Times,serif" font-size="14.00">roo_threads</text>
<text text-anchor="middle" x="207" y="-178.8" font-family="Times,serif" font-size="14.00">1.2.2</text>
</g>
<!-- roo_logging&#45;&gt;roo_threads -->
<g id="edge17" class="edge">
<title>roo_logging&#45;&gt;roo_threads</title>
<path fill="none" stroke="red" d="M315.2,-266.98C307.74,-261.53 299.82,-255.3 293,-249 283.51,-240.23 284.08,-235.08 274,-227 268.26,-222.4 261.85,-218.1 255.33,-214.18"/>
<polygon fill="red" stroke="red" points="256.84,-211.02 246.42,-209.09 253.37,-217.09 256.84,-211.02"/>
<text text-anchor="middle" x="326" y="-241" font-family="Times,serif" font-size="10.00" fill="red">1.2.1</text>
<text text-anchor="middle" x="326" y="-230" font-family="Times,serif" font-size="10.00" fill="red">(latest: 1.2.2)</text>
</g>
<!-- roo_monitoring -->
<g id="node13" class="node">
<title>roo_monitoring</title>
<polygon fill="plum" stroke="red" points="798.5,-497 673.5,-497 673.5,-459 798.5,-459 798.5,-497"/>
<text text-anchor="middle" x="736" y="-481.8" font-family="Times,serif" font-size="14.00">roo_monitoring</text>
<text text-anchor="middle" x="736" y="-466.8" font-family="Times,serif" font-size="14.00">1.0.0</text>
</g>
<!-- roo_monitoring&#45;&gt;roo_collections -->
<g id="edge18" class="edge">
<title>roo_monitoring&#45;&gt;roo_collections</title>
<path fill="none" stroke="black" d="M726.94,-458.78C719.93,-446.23 709.2,-429.91 696,-419 689.93,-413.99 683.06,-409.55 675.93,-405.66"/>
<polygon fill="black" stroke="black" points="677.31,-402.43 666.81,-401.01 674.13,-408.67 677.31,-402.43"/>
</g>
<!-- roo_monitoring&#45;&gt;roo_io -->
<g id="edge19" class="edge">
<title>roo_monitoring&#45;&gt;roo_io</title>
<path fill="none" stroke="black" d="M673.37,-459.17C656.22,-453.81 637.74,-447.59 621,-441 599.91,-432.7 596.39,-426.48 575,-419 536.29,-405.46 490.39,-395.57 458.44,-389.62"/>
<polygon fill="black" stroke="black" points="459.05,-386.17 448.58,-387.83 457.79,-393.06 459.05,-386.17"/>
</g>
<!-- roo_onewire -->
<g id="node14" class="node">
<title>roo_onewire</title>
<polygon fill="plum" stroke="red" points="323,-593 219,-593 219,-555 323,-555 323,-593"/>
<text text-anchor="middle" x="271" y="-577.8" font-family="Times,serif" font-size="14.00">roo_onewire</text>
<text text-anchor="middle" x="271" y="-562.8" font-family="Times,serif" font-size="14.00">2.0.8</text>
</g>
<!-- roo_onewire&#45;&gt;roo_quantity -->
<g id="edge21" class="edge">
<title>roo_onewire&#45;&gt;roo_quantity</title>
<path fill="none" stroke="black" d="M236.1,-554.88C206.93,-539.73 165.17,-518.04 133.77,-501.73"/>
<polygon fill="black" stroke="black" points="135.28,-498.57 124.79,-497.07 132.05,-504.78 135.28,-498.57"/>
</g>
<!-- roo_onewire&#45;&gt;roo_scheduler -->
<g id="edge20" class="edge">
<title>roo_onewire&#45;&gt;roo_scheduler</title>
<path fill="none" stroke="black" d="M271.19,-554.88C271.34,-541.35 271.54,-522.62 271.7,-507.15"/>
<polygon fill="black" stroke="black" points="275.2,-507.11 271.81,-497.07 268.2,-507.03 275.2,-507.11"/>
</g>
<!-- roo_powersafefs -->
<g id="node15" class="node">
<title>roo_powersafefs</title>
<polygon fill="plum" stroke="red" points="273.5,-305 140.5,-305 140.5,-267 273.5,-267 273.5,-305"/>
<text text-anchor="middle" x="207" y="-289.8" font-family="Times,serif" font-size="14.00">roo_powersafefs</text>
<text text-anchor="middle" x="207" y="-274.8" font-family="Times,serif" font-size="14.00">1.0.0</text>
</g>
<!-- roo_powersafefs&#45;&gt;roo_threads -->
<g id="edge22" class="edge">
<title>roo_powersafefs&#45;&gt;roo_threads</title>
<path fill="none" stroke="red" d="M207,-266.88C207,-253.35 207,-234.62 207,-219.15"/>
<polygon fill="red" stroke="red" points="210.5,-219.07 207,-209.07 203.5,-219.07 210.5,-219.07"/>
<text text-anchor="middle" x="240" y="-241" font-family="Times,serif" font-size="10.00" fill="red">1.2.1</text>
<text text-anchor="middle" x="240" y="-230" font-family="Times,serif" font-size="10.00" fill="red">(latest: 1.2.2)</text>
</g>
<!-- roo_prefs -->
<g id="node16" class="node">
<title>roo_prefs</title>
<polygon fill="plum" stroke="red" points="526.5,-593 443.5,-593 443.5,-555 526.5,-555 526.5,-593"/>
<text text-anchor="middle" x="485" y="-577.8" font-family="Times,serif" font-size="14.00">roo_prefs</text>
<text text-anchor="middle" x="485" y="-562.8" font-family="Times,serif" font-size="14.00">1.2.8</text>
</g>
<!-- roo_prefs&#45;&gt;roo_logging -->
<g id="edge23" class="edge">
<title>roo_prefs&#45;&gt;roo_logging</title>
<path fill="none" stroke="black" d="M464.93,-554.97C449.81,-540.51 429.46,-519.06 416,-497 379.52,-437.23 357.61,-356.9 347.92,-315.03"/>
<polygon fill="black" stroke="black" points="351.33,-314.24 345.72,-305.25 344.5,-315.78 351.33,-314.24"/>
</g>
<!-- roo_prefs&#45;&gt;roo_scheduler -->
<g id="edge24" class="edge">
<title>roo_prefs&#45;&gt;roo_scheduler</title>
<path fill="none" stroke="black" d="M443.26,-556.12C428.87,-550.19 412.68,-543.41 398,-537 371.8,-525.55 342.8,-512.25 319.23,-501.27"/>
<polygon fill="black" stroke="black" points="320.69,-498.09 310.15,-497.03 317.73,-504.43 320.69,-498.09"/>
</g>
<!-- roo_quantity&#45;&gt;roo_logging -->
<g id="edge25" class="edge">
<title>roo_quantity&#45;&gt;roo_logging</title>
<path fill="none" stroke="black" d="M98.54,-458.78C114.8,-426.17 153.44,-357.96 207,-323 235.71,-304.26 248.9,-313.93 282,-305 282.1,-304.97 282.2,-304.95 282.31,-304.92"/>
<polygon fill="black" stroke="black" points="283.27,-308.28 291.97,-302.24 281.4,-301.54 283.27,-308.28"/>
</g>
<!-- roo_scheduler&#45;&gt;roo_collections -->
<g id="edge26" class="edge">
<title>roo_scheduler&#45;&gt;roo_collections</title>
<path fill="none" stroke="black" d="M308.95,-458.96C336.5,-446.16 375.37,-429.45 411,-419 453.97,-406.39 503.42,-397.51 542.76,-391.72"/>
<polygon fill="black" stroke="black" points="543.39,-395.17 552.79,-390.28 542.4,-388.24 543.39,-395.17"/>
</g>
<!-- roo_scheduler&#45;&gt;roo_threads -->
<g id="edge27" class="edge">
<title>roo_scheduler&#45;&gt;roo_threads</title>
<path fill="none" stroke="red" d="M249.4,-458.78C215.94,-430.19 154.66,-371.17 131,-305 125.31,-289.1 124.54,-282.6 131,-267 139.45,-246.59 156.34,-228.81 172.05,-215.59"/>
<polygon fill="red" stroke="red" points="174.51,-218.1 180.11,-209.1 170.12,-212.64 174.51,-218.1"/>
<text text-anchor="middle" x="183" y="-337" font-family="Times,serif" font-size="10.00" fill="red">1.2.1</text>
<text text-anchor="middle" x="183" y="-326" font-family="Times,serif" font-size="10.00" fill="red">(latest: 1.2.2)</text>
</g>
<!-- roo_testing -->
<g id="node19" class="node">
<title>roo_testing</title>
<polygon fill="#b1dbab" stroke="black" points="157.5,-38 60.5,-38 60.5,0 157.5,0 157.5,-38"/>
<text text-anchor="middle" x="109" y="-22.8" font-family="Times,serif" font-size="14.00">roo_testing</text>
<text text-anchor="middle" x="109" y="-7.8" font-family="Times,serif" font-size="14.00">1.3.1</text>
</g>
<!-- roo_time -->
<g id="node21" class="node">
<title>roo_time</title>
<polygon fill="#b1dbab" stroke="black" points="148.5,-113 69.5,-113 69.5,-75 148.5,-75 148.5,-113"/>
<text text-anchor="middle" x="109" y="-97.8" font-family="Times,serif" font-size="14.00">roo_time</text>
<text text-anchor="middle" x="109" y="-82.8" font-family="Times,serif" font-size="14.00">1.4.2</text>
</g>
<!-- roo_threads&#45;&gt;roo_time -->
<g id="edge28" class="edge">
<title>roo_threads&#45;&gt;roo_time</title>
<path fill="none" stroke="black" d="M195.49,-170.74C187.33,-158.64 175.61,-142.86 163,-131 158.58,-126.85 153.64,-122.85 148.58,-119.12"/>
<polygon fill="black" stroke="black" points="150.24,-116.01 140.04,-113.13 146.22,-121.74 150.24,-116.01"/>
</g>
<!-- roo_time&#45;&gt;roo_testing -->
<g id="edge29" class="edge">
<title>roo_time&#45;&gt;roo_testing</title>
<path fill="none" stroke="black" d="M109,-74.96C109,-66.88 109,-57.18 109,-48.18"/>
<polygon fill="black" stroke="black" points="112.5,-48.09 109,-38.09 105.5,-48.09 112.5,-48.09"/>
</g>
<!-- roo_time_ds3231 -->
<g id="node22" class="node">
<title>roo_time_ds3231</title>
<polygon fill="plum" stroke="red" points="138,-209 0,-209 0,-171 138,-171 138,-209"/>
<text text-anchor="middle" x="69" y="-193.8" font-family="Times,serif" font-size="14.00">roo_time_ds3231</text>
<text text-anchor="middle" x="69" y="-178.8" font-family="Times,serif" font-size="14.00">1.1.5</text>
</g>
<!-- roo_time_ds3231&#45;&gt;roo_time -->
<g id="edge30" class="edge">
<title>roo_time_ds3231&#45;&gt;roo_time</title>
<path fill="none" stroke="red" d="M76.71,-170.88C82.52,-157.22 90.59,-138.26 97.21,-122.71"/>
<polygon fill="red" stroke="red" points="100.62,-123.64 101.31,-113.07 94.18,-120.9 100.62,-123.64"/>
<text text-anchor="middle" x="126" y="-145" font-family="Times,serif" font-size="10.00" fill="red">1.4.1</text>
<text text-anchor="middle" x="126" y="-134" font-family="Times,serif" font-size="10.00" fill="red">(latest: 1.4.2)</text>
</g>
<!-- roo_transceivers&#45;&gt;roo_prefs -->
<g id="edge31" class="edge">
<title>roo_transceivers&#45;&gt;roo_prefs</title>
<path fill="none" stroke="red" d="M413.73,-650.88C407.02,-646.06 400.98,-640.15 397,-633 392.25,-624.46 391.55,-619.12 397,-611 399.51,-607.27 415.83,-600.18 433.76,-593.28"/>
<polygon fill="red" stroke="red" points="435.09,-596.52 443.21,-589.71 432.62,-589.97 435.09,-596.52"/>
<text text-anchor="middle" x="430" y="-625" font-family="Times,serif" font-size="10.00" fill="red">1.2.7</text>
<text text-anchor="middle" x="430" y="-614" font-family="Times,serif" font-size="10.00" fill="red">(latest: 1.2.8)</text>
</g>
<!-- roo_transport -->
<g id="node24" class="node">
<title>roo_transport</title>
<polygon fill="plum" stroke="red" points="539,-497 425,-497 425,-459 539,-459 539,-497"/>
<text text-anchor="middle" x="482" y="-481.8" font-family="Times,serif" font-size="14.00">roo_transport</text>
<text text-anchor="middle" x="482" y="-466.8" font-family="Times,serif" font-size="14.00">1.1.1</text>
</g>
<!-- roo_transport&#45;&gt;roo_collections -->
<g id="edge32" class="edge">
<title>roo_transport&#45;&gt;roo_collections</title>
<path fill="none" stroke="black" d="M539.12,-462.54C552.81,-457.28 566.72,-450.26 578,-441 587.99,-432.8 596,-421.06 601.91,-410.29"/>
<polygon fill="black" stroke="black" points="605.13,-411.68 606.55,-401.18 598.89,-408.5 605.13,-411.68"/>
</g>
<!-- roo_transport&#45;&gt;roo_io -->
<g id="edge33" class="edge">
<title>roo_transport&#45;&gt;roo_io</title>
<path fill="none" stroke="red" d="M437.42,-458.87C430.48,-454.08 424.22,-448.19 420,-441 414.81,-432.17 413.59,-421.2 414,-411.19"/>
<polygon fill="red" stroke="red" points="417.48,-411.51 414.92,-401.23 410.51,-410.87 417.48,-411.51"/>
<text text-anchor="middle" x="453" y="-433" font-family="Times,serif" font-size="10.00" fill="red">2.1.3</text>
<text text-anchor="middle" x="453" y="-422" font-family="Times,serif" font-size="10.00" fill="red">(latest: 2.1.4)</text>
</g>
<!-- roo_wifi -->
<g id="node25" class="node">
<title>roo_wifi</title>
<polygon fill="plum" stroke="red" points="614,-689 542,-689 542,-651 614,-651 614,-689"/>
<text text-anchor="middle" x="578" y="-673.8" font-family="Times,serif" font-size="14.00">roo_wifi</text>
<text text-anchor="middle" x="578" y="-658.8" font-family="Times,serif" font-size="14.00">1.1.3</text>
</g>
<!-- roo_wifi&#45;&gt;roo_prefs -->
<g id="edge34" class="edge">
<title>roo_wifi&#45;&gt;roo_prefs</title>
<path fill="none" stroke="red" d="M541.9,-654.88C516.13,-644.79 486,-633 486,-633 480.07,-624.47 478.76,-613.4 479.3,-603.21"/>
<polygon fill="red" stroke="red" points="482.8,-603.39 480.43,-593.07 475.85,-602.62 482.8,-603.39"/>
<text text-anchor="middle" x="519" y="-625" font-family="Times,serif" font-size="10.00" fill="red">1.2.7</text>
<text text-anchor="middle" x="519" y="-614" font-family="Times,serif" font-size="10.00" fill="red">(latest: 1.2.8)</text>
</g>
<!-- roo_windows&#45;&gt;roo_icons -->
<g id="edge36" class="edge">
<title>roo_windows&#45;&gt;roo_icons</title>
<path fill="none" stroke="black" d="M692,-650.88C692,-637.35 692,-618.62 692,-603.15"/>
<polygon fill="black" stroke="black" points="695.5,-603.07 692,-593.07 688.5,-603.07 695.5,-603.07"/>
</g>
<!-- roo_windows&#45;&gt;roo_locale -->
<g id="edge35" class="edge">
<title>roo_windows&#45;&gt;roo_locale</title>
<path fill="none" stroke="black" d="M712.05,-650.88C728.02,-636.44 750.56,-616.07 768.26,-600.07"/>
<polygon fill="black" stroke="black" points="770.94,-602.37 776.01,-593.07 766.24,-597.18 770.94,-602.37"/>
</g>
<!-- roo_windows&#45;&gt;roo_scheduler -->
<g id="edge37" class="edge">
<title>roo_windows&#45;&gt;roo_scheduler</title>
<path fill="none" stroke="red" d="M660.92,-650.75C636.95,-636.18 603.37,-614.68 576,-593 556.78,-577.77 557.28,-567.18 536,-555 474.63,-519.86 395.79,-499.93 340.3,-489.38"/>
<polygon fill="red" stroke="red" points="340.69,-485.89 330.22,-487.52 339.42,-492.78 340.69,-485.89"/>
<text text-anchor="middle" x="609" y="-577" font-family="Times,serif" font-size="10.00" fill="red">2.1.6</text>
<text text-anchor="middle" x="609" y="-566" font-family="Times,serif" font-size="10.00" fill="red">(latest: 2.1.7)</text>
</g>
<!-- roo_windows_transceivers -->
<g id="node27" class="node">
<title>roo_windows_transceivers</title>
<polygon fill="plum" stroke="red" points="557,-785 353,-785 353,-747 557,-747 557,-785"/>
<text text-anchor="middle" x="455" y="-769.8" font-family="Times,serif" font-size="14.00">roo_windows_transceivers</text>
<text text-anchor="middle" x="455" y="-754.8" font-family="Times,serif" font-size="14.00">1.0.0</text>
</g>
<!-- roo_windows_transceivers&#45;&gt;roo_transceivers -->
<g id="edge38" class="edge">
<title>roo_windows_transceivers&#45;&gt;roo_transceivers</title>
<path fill="none" stroke="red" d="M455,-746.88C455,-733.35 455,-714.62 455,-699.15"/>
<polygon fill="red" stroke="red" points="458.5,-699.07 455,-689.07 451.5,-699.07 458.5,-699.07"/>
<text text-anchor="middle" x="488" y="-721" font-family="Times,serif" font-size="10.00" fill="red">1.1.3</text>
<text text-anchor="middle" x="488" y="-710" font-family="Times,serif" font-size="10.00" fill="red">(latest: 1.1.4)</text>
</g>
<!-- roo_windows_transceivers&#45;&gt;roo_windows -->
<g id="edge39" class="edge">
<title>roo_windows_transceivers&#45;&gt;roo_windows</title>
<path fill="none" stroke="red" d="M500.42,-746.99C539.32,-731.56 595.47,-709.29 636.93,-692.84"/>
<polygon fill="red" stroke="red" points="638.33,-696.05 646.33,-689.11 635.75,-689.55 638.33,-696.05"/>
<text text-anchor="middle" x="627" y="-721" font-family="Times,serif" font-size="10.00" fill="red">1.4.1</text>
<text text-anchor="middle" x="627" y="-710" font-family="Times,serif" font-size="10.00" fill="red">(latest: 1.4.2)</text>
</g>
<!-- roo_windows_wifi -->
<g id="node28" class="node">
<title>roo_windows_wifi</title>
<polygon fill="plum" stroke="red" points="716.5,-785 575.5,-785 575.5,-747 716.5,-747 716.5,-785"/>
<text text-anchor="middle" x="646" y="-769.8" font-family="Times,serif" font-size="14.00">roo_windows_wifi</text>
<text text-anchor="middle" x="646" y="-754.8" font-family="Times,serif" font-size="14.00">1.1.3</text>
</g>
<!-- roo_windows_wifi&#45;&gt;roo_wifi -->
<g id="edge40" class="edge">
<title>roo_windows_wifi&#45;&gt;roo_wifi</title>
<path fill="none" stroke="black" d="M610.45,-746.85C603.48,-741.89 596.84,-735.93 592,-729 585.92,-720.3 582.47,-709.28 580.51,-699.19"/>
<polygon fill="black" stroke="black" points="583.94,-698.49 578.96,-689.14 577.03,-699.56 583.94,-698.49"/>
</g>
<!-- roo_windows_wifi&#45;&gt;roo_windows -->
<g id="edge41" class="edge">
<title>roo_windows_wifi&#45;&gt;roo_windows</title>
<path fill="none" stroke="black" d="M665.18,-746.89C669.96,-741.53 674.67,-735.37 678,-729 682.79,-719.83 685.98,-708.99 688.08,-699.17"/>
<polygon fill="black" stroke="black" points="691.57,-699.53 689.96,-689.06 684.69,-698.25 691.57,-699.53"/>
</g>
</g>
</svg>
