<?xml version="1.0" encoding="UTF-8" standalone="no"?>
<!DOCTYPE svg PUBLIC "-//W3C//DTD SVG 1.1//EN"
 "http://www.w3.org/Graphics/SVG/1.1/DTD/svg11.dtd">
<!-- Generated by graphviz version 2.42.4 (0)
 -->
<!-- Title: dependencies Pages: 1 -->
<svg width="2405pt" height="751pt"
 viewBox="0.00 0.00 2405.00 751.00" xmlns="http://www.w3.org/2000/svg" xmlns:xlink="http://www.w3.org/1999/xlink">
<g id="graph0" class="graph" transform="scale(1 1) rotate(0) translate(4 747)">
<title>dependencies</title>
<polygon fill="white" stroke="transparent" points="-4,4 -4,-747 2401,-747 2401,4 -4,4"/>
<!-- roo_backport -->
<g id="node1" class="node">
<title>roo_backport</title>
<polygon fill="#b1dbab" stroke="black" points="1831,-113 1721,-113 1721,-75 1831,-75 1831,-113"/>
<text text-anchor="middle" x="1776" y="-97.8" font-family="Times,serif" font-size="14.00">roo_backport</text>
<text text-anchor="middle" x="1776" y="-82.8" font-family="Times,serif" font-size="14.00">1.2.0</text>
</g>
<!-- roo_blink -->
<g id="node2" class="node">
<title>roo_blink</title>
<polygon fill="#b1dbab" stroke="black" points="862,-380 780,-380 780,-342 862,-342 862,-380"/>
<text text-anchor="middle" x="821" y="-364.8" font-family="Times,serif" font-size="14.00">roo_blink</text>
<text text-anchor="middle" x="821" y="-349.8" font-family="Times,serif" font-size="14.00">1.0.4</text>
</g>
<!-- roo_logging -->
<g id="node12" class="node">
<title>roo_logging</title>
<polygon fill="#b1dbab" stroke="black" points="1423,-284 1323,-284 1323,-246 1423,-246 1423,-284"/>
<text text-anchor="middle" x="1373" y="-268.8" font-family="Times,serif" font-size="14.00">roo_logging</text>
<text text-anchor="middle" x="1373" y="-253.8" font-family="Times,serif" font-size="14.00">1.5.1</text>
</g>
<!-- roo_blink&#45;&gt;roo_logging -->
<g id="edge1" class="edge">
<title>roo_blink&#45;&gt;roo_logging</title>
<path fill="none" stroke="black" d="M862.18,-351.88C878.33,-348.74 897.02,-345.15 914,-342 1014.3,-323.42 1039.37,-318.68 1140,-302 1198.69,-292.27 1265.84,-281.99 1312.92,-274.91"/>
<polygon fill="black" stroke="black" points="1313.58,-278.35 1322.95,-273.41 1312.54,-271.43 1313.58,-278.35"/>
</g>
<!-- roo_scheduler -->
<g id="node16" class="node">
<title>roo_scheduler</title>
<polygon fill="#b1dbab" stroke="black" points="898,-284 782,-284 782,-246 898,-246 898,-284"/>
<text text-anchor="middle" x="840" y="-268.8" font-family="Times,serif" font-size="14.00">roo_scheduler</text>
<text text-anchor="middle" x="840" y="-253.8" font-family="Times,serif" font-size="14.00">2.1.6</text>
</g>
<!-- roo_blink&#45;&gt;roo_scheduler -->
<g id="edge2" class="edge">
<title>roo_blink&#45;&gt;roo_scheduler</title>
<path fill="none" stroke="black" d="M824.66,-341.88C827.4,-328.35 831.18,-309.62 834.31,-294.15"/>
<polygon fill="black" stroke="black" points="837.8,-294.56 836.35,-284.07 830.94,-293.18 837.8,-294.56"/>
</g>
<!-- roo_collections -->
<g id="node3" class="node">
<title>roo_collections</title>
<polygon fill="#b1dbab" stroke="black" points="1837,-188 1715,-188 1715,-150 1837,-150 1837,-188"/>
<text text-anchor="middle" x="1776" y="-172.8" font-family="Times,serif" font-size="14.00">roo_collections</text>
<text text-anchor="middle" x="1776" y="-157.8" font-family="Times,serif" font-size="14.00">1.4.0</text>
</g>
<!-- roo_collections&#45;&gt;roo_backport -->
<g id="edge3" class="edge">
<title>roo_collections&#45;&gt;roo_backport</title>
<path fill="none" stroke="black" d="M1776,-149.96C1776,-141.88 1776,-132.18 1776,-123.18"/>
<polygon fill="black" stroke="black" points="1779.5,-123.09 1776,-113.09 1772.5,-123.09 1779.5,-123.09"/>
</g>
<!-- roo_comms -->
<g id="node4" class="node">
<title>roo_comms</title>
<polygon fill="plum" stroke="black" points="1195.5,-572 1098.5,-572 1098.5,-534 1195.5,-534 1195.5,-572"/>
<text text-anchor="middle" x="1147" y="-556.8" font-family="Times,serif" font-size="14.00">roo_comms</text>
<text text-anchor="middle" x="1147" y="-541.8" font-family="Times,serif" font-size="14.00">1.1.2</text>
</g>
<!-- roo_comms&#45;&gt;roo_blink -->
<g id="edge5" class="edge">
<title>roo_comms&#45;&gt;roo_blink</title>
<path fill="none" stroke="red" d="M1098.07,-548.65C1042.49,-542.52 951.76,-525.15 892,-476 861.75,-451.12 872.77,-430.56 851,-398 848.77,-394.67 846.3,-391.29 843.74,-388"/>
<polygon fill="red" stroke="red" points="846.36,-385.67 837.35,-380.1 840.92,-390.08 846.36,-385.67"/>
<text text-anchor="middle" x="925" y="-460" font-family="Times,serif" font-size="10.00" fill="red">1.0.2</text>
<text text-anchor="middle" x="925" y="-449" font-family="Times,serif" font-size="10.00" fill="red">(latest: 1.0.4)</text>
</g>
<!-- roo_comms&#45;&gt;roo_collections -->
<g id="edge6" class="edge">
<title>roo_comms&#45;&gt;roo_collections</title>
<path fill="none" stroke="red" d="M1195.86,-550.8C1305.84,-547.74 1569.91,-538.26 1656,-516 1696.81,-505.45 1717.4,-510.23 1742,-476 1773.61,-432 1776.48,-265.81 1776.3,-198.53"/>
<polygon fill="red" stroke="red" points="1779.8,-198.24 1776.25,-188.26 1772.8,-198.27 1779.8,-198.24"/>
<text text-anchor="middle" x="1805" y="-364" font-family="Times,serif" font-size="10.00" fill="red">1.3.2</text>
<text text-anchor="middle" x="1805" y="-353" font-family="Times,serif" font-size="10.00" fill="red">(latest: 1.4.0)</text>
</g>
<!-- roo_control -->
<g id="node5" class="node">
<title>roo_control</title>
<polygon fill="plum" stroke="black" points="1195.5,-476 1098.5,-476 1098.5,-438 1195.5,-438 1195.5,-476"/>
<text text-anchor="middle" x="1147" y="-460.8" font-family="Times,serif" font-size="14.00">roo_control</text>
<text text-anchor="middle" x="1147" y="-445.8" font-family="Times,serif" font-size="14.00">1.2.2</text>
</g>
<!-- roo_comms&#45;&gt;roo_control -->
<g id="edge7" class="edge">
<title>roo_comms&#45;&gt;roo_control</title>
<path fill="none" stroke="black" d="M1147,-533.88C1147,-520.35 1147,-501.62 1147,-486.15"/>
<polygon fill="black" stroke="black" points="1150.5,-486.07 1147,-476.07 1143.5,-486.07 1150.5,-486.07"/>
</g>
<!-- roo_io -->
<g id="node10" class="node">
<title>roo_io</title>
<polygon fill="#b1dbab" stroke="black" points="1739.5,-380 1680.5,-380 1680.5,-342 1739.5,-342 1739.5,-380"/>
<text text-anchor="middle" x="1710" y="-364.8" font-family="Times,serif" font-size="14.00">roo_io</text>
<text text-anchor="middle" x="1710" y="-349.8" font-family="Times,serif" font-size="14.00">2.1.1</text>
</g>
<!-- roo_comms&#45;&gt;roo_io -->
<g id="edge8" class="edge">
<title>roo_comms&#45;&gt;roo_io</title>
<path fill="none" stroke="red" d="M1195.87,-550.91C1311.28,-547.97 1593.76,-538.53 1630,-516 1664.18,-494.75 1655.28,-472.51 1676,-438 1680.83,-429.96 1682.81,-428.39 1687,-420 1691.81,-410.36 1696.36,-399.46 1700.11,-389.73"/>
<polygon fill="red" stroke="red" points="1703.49,-390.71 1703.73,-380.11 1696.93,-388.25 1703.49,-390.71"/>
<text text-anchor="middle" x="1709" y="-460" font-family="Times,serif" font-size="10.00" fill="red">2.0.3</text>
<text text-anchor="middle" x="1709" y="-449" font-family="Times,serif" font-size="10.00" fill="red">(latest: 2.1.1)</text>
</g>
<!-- roo_comms&#45;&gt;roo_logging -->
<g id="edge9" class="edge">
<title>roo_comms&#45;&gt;roo_logging</title>
<path fill="none" stroke="red" d="M1195.56,-540.89C1234.62,-529.9 1288.91,-509.73 1326,-476 1361.9,-443.35 1366.08,-427.04 1378,-380 1382.15,-363.63 1378.55,-358.88 1378,-342 1377.48,-326.2 1376.36,-308.59 1375.31,-294.3"/>
<polygon fill="red" stroke="red" points="1378.78,-293.81 1374.53,-284.1 1371.8,-294.34 1378.78,-293.81"/>
<text text-anchor="middle" x="1407" y="-412" font-family="Times,serif" font-size="10.00" fill="red">1.4.3</text>
<text text-anchor="middle" x="1407" y="-401" font-family="Times,serif" font-size="10.00" fill="red">(latest: 1.5.1)</text>
</g>
<!-- roo_prefs -->
<g id="node14" class="node">
<title>roo_prefs</title>
<polygon fill="#b1dbab" stroke="black" points="1369.5,-380 1286.5,-380 1286.5,-342 1369.5,-342 1369.5,-380"/>
<text text-anchor="middle" x="1328" y="-364.8" font-family="Times,serif" font-size="14.00">roo_prefs</text>
<text text-anchor="middle" x="1328" y="-349.8" font-family="Times,serif" font-size="14.00">1.2.7</text>
</g>
<!-- roo_comms&#45;&gt;roo_prefs -->
<g id="edge10" class="edge">
<title>roo_comms&#45;&gt;roo_prefs</title>
<path fill="none" stroke="red" d="M1164.36,-533.78C1196.79,-499.74 1266.66,-426.39 1303.74,-387.47"/>
<polygon fill="red" stroke="red" points="1306.33,-389.82 1310.7,-380.16 1301.27,-384.99 1306.33,-389.82"/>
<text text-anchor="middle" x="1289" y="-460" font-family="Times,serif" font-size="10.00" fill="red">1.2.3</text>
<text text-anchor="middle" x="1289" y="-449" font-family="Times,serif" font-size="10.00" fill="red">(latest: 1.2.7)</text>
</g>
<!-- roo_comms&#45;&gt;roo_scheduler -->
<g id="edge11" class="edge">
<title>roo_comms&#45;&gt;roo_scheduler</title>
<path fill="none" stroke="red" d="M1098.12,-552.85C994.34,-551.59 754.17,-531.69 664,-380 655.37,-365.48 653.31,-355.07 664,-342 689.55,-310.76 715.73,-339.48 753,-324 773.23,-315.6 793.71,-302.23 809.72,-290.45"/>
<polygon fill="red" stroke="red" points="812.25,-292.92 818.12,-284.1 808.03,-287.33 812.25,-292.92"/>
<text text-anchor="middle" x="725" y="-412" font-family="Times,serif" font-size="10.00" fill="red">2.1.5</text>
<text text-anchor="middle" x="725" y="-401" font-family="Times,serif" font-size="10.00" fill="red">(latest: 2.1.6)</text>
</g>
<!-- roo_testing -->
<g id="node17" class="node">
<title>roo_testing</title>
<polygon fill="#b1dbab" stroke="black" points="1612.5,-38 1515.5,-38 1515.5,0 1612.5,0 1612.5,-38"/>
<text text-anchor="middle" x="1564" y="-22.8" font-family="Times,serif" font-size="14.00">roo_testing</text>
<text text-anchor="middle" x="1564" y="-7.8" font-family="Times,serif" font-size="14.00">1.2.0</text>
</g>
<!-- roo_comms&#45;&gt;roo_testing -->
<g id="edge4" class="edge">
<title>roo_comms&#45;&gt;roo_testing</title>
<path fill="none" stroke="red" d="M1195.82,-552.19C1281.26,-550.73 1461.65,-539.6 1597,-476 1631.51,-459.78 1646.11,-454.66 1662,-420 1678.17,-384.72 1637.15,-398.62 1614,-284 1610.66,-267.45 1607.76,-261.69 1614,-246 1618.07,-235.77 1626.93,-238.23 1631,-228 1634.61,-218.91 1632.65,-215.64 1631,-206 1620.95,-147.4 1593.83,-82.95 1577.34,-47.39"/>
<polygon fill="red" stroke="red" points="1580.41,-45.71 1572.99,-38.15 1574.08,-48.69 1580.41,-45.71"/>
<text text-anchor="middle" x="1647" y="-268" font-family="Times,serif" font-size="10.00" fill="red">1.1.8</text>
<text text-anchor="middle" x="1647" y="-257" font-family="Times,serif" font-size="10.00" fill="red">(latest: 1.2.0)</text>
</g>
<!-- roo_threads -->
<g id="node18" class="node">
<title>roo_threads</title>
<polygon fill="#b1dbab" stroke="black" points="683.5,-188 582.5,-188 582.5,-150 683.5,-150 683.5,-188"/>
<text text-anchor="middle" x="633" y="-172.8" font-family="Times,serif" font-size="14.00">roo_threads</text>
<text text-anchor="middle" x="633" y="-157.8" font-family="Times,serif" font-size="14.00">1.2.0</text>
</g>
<!-- roo_comms&#45;&gt;roo_threads -->
<g id="edge12" class="edge">
<title>roo_comms&#45;&gt;roo_threads</title>
<path fill="none" stroke="red" d="M1098.46,-552.7C1007.41,-553.11 805.15,-549.7 639,-516 585.14,-505.08 558.78,-516.83 522,-476 481.6,-431.16 481.19,-399.35 500,-342 523.39,-270.71 552.36,-263.96 600,-206 602.73,-202.68 605.66,-199.27 608.62,-195.93"/>
<polygon fill="red" stroke="red" points="611.37,-198.11 615.48,-188.34 606.18,-193.42 611.37,-198.11"/>
<text text-anchor="middle" x="533" y="-364" font-family="Times,serif" font-size="10.00" fill="red">1.1.6</text>
<text text-anchor="middle" x="533" y="-353" font-family="Times,serif" font-size="10.00" fill="red">(latest: 1.2.0)</text>
</g>
<!-- roo_time -->
<g id="node19" class="node">
<title>roo_time</title>
<polygon fill="#b1dbab" stroke="black" points="446.5,-113 367.5,-113 367.5,-75 446.5,-75 446.5,-113"/>
<text text-anchor="middle" x="407" y="-97.8" font-family="Times,serif" font-size="14.00">roo_time</text>
<text text-anchor="middle" x="407" y="-82.8" font-family="Times,serif" font-size="14.00">1.4.0</text>
</g>
<!-- roo_comms&#45;&gt;roo_time -->
<g id="edge13" class="edge">
<title>roo_comms&#45;&gt;roo_time</title>
<path fill="none" stroke="red" d="M1098.23,-552.06C994.64,-551.54 745.28,-546.86 539,-516 464.37,-504.84 434.49,-521.11 374,-476 318.76,-434.81 338.05,-396.6 296,-342 289.1,-333.04 282.33,-334.45 278,-324 274.26,-314.97 276.01,-311.57 278,-302 292.98,-229.89 300.53,-209.45 344,-150 352.19,-138.79 363.06,-128.28 373.45,-119.52"/>
<polygon fill="red" stroke="red" points="375.71,-122.19 381.26,-113.17 371.29,-116.76 375.71,-122.19"/>
<text text-anchor="middle" x="311" y="-316" font-family="Times,serif" font-size="10.00" fill="red">1.3.3</text>
<text text-anchor="middle" x="311" y="-305" font-family="Times,serif" font-size="10.00" fill="red">(latest: 1.4.0)</text>
</g>
<!-- roo_transceivers -->
<g id="node21" class="node">
<title>roo_transceivers</title>
<polygon fill="plum" stroke="black" points="666.5,-476 531.5,-476 531.5,-438 666.5,-438 666.5,-476"/>
<text text-anchor="middle" x="599" y="-460.8" font-family="Times,serif" font-size="14.00">roo_transceivers</text>
<text text-anchor="middle" x="599" y="-445.8" font-family="Times,serif" font-size="14.00">1.1.3</text>
</g>
<!-- roo_comms&#45;&gt;roo_transceivers -->
<g id="edge14" class="edge">
<title>roo_comms&#45;&gt;roo_transceivers</title>
<path fill="none" stroke="black" d="M1098.5,-551.51C995.2,-549.93 756.75,-543.34 681,-516 660.8,-508.71 641.05,-495 626,-482.75"/>
<polygon fill="black" stroke="black" points="628.05,-479.9 618.14,-476.14 623.54,-485.25 628.05,-479.9"/>
</g>
<!-- roo_control&#45;&gt;roo_logging -->
<g id="edge16" class="edge">
<title>roo_control&#45;&gt;roo_logging</title>
<path fill="none" stroke="red" d="M1159,-437.87C1162.64,-432.21 1166.57,-425.9 1170,-420 1189.67,-386.13 1182.69,-369.06 1211,-342 1239.62,-314.65 1279.88,-295.7 1313.11,-283.56"/>
<polygon fill="red" stroke="red" points="1314.46,-286.79 1322.72,-280.16 1312.13,-280.19 1314.46,-286.79"/>
<text text-anchor="middle" x="1244" y="-364" font-family="Times,serif" font-size="10.00" fill="red">1.4.3</text>
<text text-anchor="middle" x="1244" y="-353" font-family="Times,serif" font-size="10.00" fill="red">(latest: 1.5.1)</text>
</g>
<!-- roo_quantity -->
<g id="node15" class="node">
<title>roo_quantity</title>
<polygon fill="#b1dbab" stroke="black" points="1127.5,-380 1020.5,-380 1020.5,-342 1127.5,-342 1127.5,-380"/>
<text text-anchor="middle" x="1074" y="-364.8" font-family="Times,serif" font-size="14.00">roo_quantity</text>
<text text-anchor="middle" x="1074" y="-349.8" font-family="Times,serif" font-size="14.00">1.1.5</text>
</g>
<!-- roo_control&#45;&gt;roo_quantity -->
<g id="edge17" class="edge">
<title>roo_control&#45;&gt;roo_quantity</title>
<path fill="none" stroke="red" d="M1098.35,-440.15C1089.53,-435.09 1081.43,-428.5 1076,-420 1070.45,-411.3 1069.02,-400.28 1069.3,-390.18"/>
<polygon fill="red" stroke="red" points="1072.8,-390.39 1070.12,-380.14 1065.82,-389.82 1072.8,-390.39"/>
<text text-anchor="middle" x="1109" y="-412" font-family="Times,serif" font-size="10.00" fill="red">1.1.3</text>
<text text-anchor="middle" x="1109" y="-401" font-family="Times,serif" font-size="10.00" fill="red">(latest: 1.1.5)</text>
</g>
<!-- roo_control&#45;&gt;roo_scheduler -->
<g id="edge18" class="edge">
<title>roo_control&#45;&gt;roo_scheduler</title>
<path fill="none" stroke="red" d="M1098.25,-440.63C1047.06,-423.97 970.52,-397.44 945,-380 906.55,-353.71 906.8,-336.04 875,-302 871.84,-298.61 868.47,-295.08 865.14,-291.6"/>
<polygon fill="red" stroke="red" points="867.42,-288.93 857.95,-284.18 862.39,-293.8 867.42,-288.93"/>
<text text-anchor="middle" x="978" y="-364" font-family="Times,serif" font-size="10.00" fill="red">2.1.5</text>
<text text-anchor="middle" x="978" y="-353" font-family="Times,serif" font-size="10.00" fill="red">(latest: 2.1.6)</text>
</g>
<!-- roo_control&#45;&gt;roo_testing -->
<g id="edge15" class="edge">
<title>roo_control&#45;&gt;roo_testing</title>
<path fill="none" stroke="red" d="M1149.8,-437.68C1152.44,-418.77 1156,-388.39 1156,-362 1156,-362 1156,-362 1156,-93 1156,-57.98 1391.93,-34.01 1504.97,-24.53"/>
<polygon fill="red" stroke="red" points="1505.51,-28 1515.19,-23.69 1504.94,-21.02 1505.51,-28"/>
<text text-anchor="middle" x="1189" y="-220" font-family="Times,serif" font-size="10.00" fill="red">1.1.8</text>
<text text-anchor="middle" x="1189" y="-209" font-family="Times,serif" font-size="10.00" fill="red">(latest: 1.2.0)</text>
</g>
<!-- roo_dashboard -->
<g id="node6" class="node">
<title>roo_dashboard</title>
<polygon fill="plum" stroke="black" points="122,-743 0,-743 0,-705 122,-705 122,-743"/>
<text text-anchor="middle" x="61" y="-727.8" font-family="Times,serif" font-size="14.00">roo_dashboard</text>
<text text-anchor="middle" x="61" y="-712.8" font-family="Times,serif" font-size="14.00">1.0.1</text>
</g>
<!-- roo_dashboard&#45;&gt;roo_testing -->
<g id="edge19" class="edge">
<title>roo_dashboard&#45;&gt;roo_testing</title>
<path fill="none" stroke="red" d="M44.91,-704.9C34.17,-690.92 22,-670.55 22,-650 22,-650 22,-650 22,-93 22,-17.3 1223.32,-18.36 1505.28,-19.65"/>
<polygon fill="red" stroke="red" points="1505.29,-23.15 1515.3,-19.7 1505.32,-16.15 1505.29,-23.15"/>
<text text-anchor="middle" x="55" y="-364" font-family="Times,serif" font-size="10.00" fill="red">1.1.7</text>
<text text-anchor="middle" x="55" y="-353" font-family="Times,serif" font-size="10.00" fill="red">(latest: 1.2.0)</text>
</g>
<!-- roo_windows -->
<g id="node24" class="node">
<title>roo_windows</title>
<polygon fill="plum" stroke="black" points="1929.5,-668 1820.5,-668 1820.5,-630 1929.5,-630 1929.5,-668"/>
<text text-anchor="middle" x="1875" y="-652.8" font-family="Times,serif" font-size="14.00">roo_windows</text>
<text text-anchor="middle" x="1875" y="-637.8" font-family="Times,serif" font-size="14.00">1.4.1</text>
</g>
<!-- roo_dashboard&#45;&gt;roo_windows -->
<g id="edge20" class="edge">
<title>roo_dashboard&#45;&gt;roo_windows</title>
<path fill="none" stroke="black" d="M122.13,-720.54C398.15,-709.43 1526.94,-664.01 1810.26,-652.61"/>
<polygon fill="black" stroke="black" points="1810.52,-656.1 1820.37,-652.2 1810.24,-649.1 1810.52,-656.1"/>
</g>
<!-- roo_display -->
<g id="node7" class="node">
<title>roo_display</title>
<polygon fill="plum" stroke="black" points="2121,-476 2023,-476 2023,-438 2121,-438 2121,-476"/>
<text text-anchor="middle" x="2072" y="-460.8" font-family="Times,serif" font-size="14.00">roo_display</text>
<text text-anchor="middle" x="2072" y="-445.8" font-family="Times,serif" font-size="14.00">2.3.1</text>
</g>
<!-- roo_display&#45;&gt;roo_backport -->
<g id="edge22" class="edge">
<title>roo_display&#45;&gt;roo_backport</title>
<path fill="none" stroke="red" d="M2083.14,-437.74C2099.93,-407.64 2127.31,-346.52 2103,-302 2095.91,-289.02 2087.17,-292.42 2075,-284 2027.19,-250.93 2018.65,-237.83 1970,-206 1919.69,-173.09 1859.22,-139.36 1819.31,-117.85"/>
<polygon fill="red" stroke="red" points="1820.84,-114.7 1810.38,-113.06 1817.53,-120.87 1820.84,-114.7"/>
<text text-anchor="middle" x="2108" y="-268" font-family="Times,serif" font-size="10.00" fill="red">1.1.1</text>
<text text-anchor="middle" x="2108" y="-257" font-family="Times,serif" font-size="10.00" fill="red">(latest: 1.2.0)</text>
</g>
<!-- roo_display&#45;&gt;roo_collections -->
<g id="edge23" class="edge">
<title>roo_display&#45;&gt;roo_collections</title>
<path fill="none" stroke="red" d="M2071.4,-437.87C2070.21,-425.68 2067.06,-409.74 2059,-398 2025.44,-349.12 1981.47,-372.94 1948,-324 1917.68,-279.67 1959.5,-244.44 1922,-206 1911.14,-194.87 1878.78,-186.3 1847.28,-180.33"/>
<polygon fill="red" stroke="red" points="1847.58,-176.82 1837.11,-178.47 1846.32,-183.71 1847.58,-176.82"/>
<text text-anchor="middle" x="1981" y="-316" font-family="Times,serif" font-size="10.00" fill="red">1.3.2</text>
<text text-anchor="middle" x="1981" y="-305" font-family="Times,serif" font-size="10.00" fill="red">(latest: 1.4.0)</text>
</g>
<!-- roo_display&#45;&gt;roo_io -->
<g id="edge24" class="edge">
<title>roo_display&#45;&gt;roo_io</title>
<path fill="none" stroke="red" d="M2025.48,-437.94C2014.44,-432.81 2002.98,-426.76 1993,-420 1981.29,-412.07 1982.9,-403.81 1970,-398 1882.16,-358.44 1847.67,-402.5 1754,-380 1752.55,-379.65 1751.08,-379.26 1749.6,-378.84"/>
<polygon fill="red" stroke="red" points="1750.49,-375.44 1739.89,-375.64 1748.3,-382.09 1750.49,-375.44"/>
<text text-anchor="middle" x="2026" y="-412" font-family="Times,serif" font-size="10.00" fill="red">2.0.2</text>
<text text-anchor="middle" x="2026" y="-401" font-family="Times,serif" font-size="10.00" fill="red">(latest: 2.1.1)</text>
</g>
<!-- roo_display&#45;&gt;roo_testing -->
<g id="edge21" class="edge">
<title>roo_display&#45;&gt;roo_testing</title>
<path fill="none" stroke="red" d="M2094.79,-437.76C2100.33,-432.49 2105.85,-426.41 2110,-420 2152.69,-354.06 2182.3,-312.82 2141,-246 2131.6,-230.78 2120.75,-236.48 2105,-228 1985.24,-163.56 1967.27,-122.93 1840,-75 1767.9,-47.85 1679.91,-33.28 1622.95,-26.09"/>
<polygon fill="red" stroke="red" points="1623.04,-22.58 1612.69,-24.83 1622.19,-29.52 1623.04,-22.58"/>
<text text-anchor="middle" x="2138" y="-220" font-family="Times,serif" font-size="10.00" fill="red">1.1.7</text>
<text text-anchor="middle" x="2138" y="-209" font-family="Times,serif" font-size="10.00" fill="red">(latest: 1.2.0)</text>
</g>
<!-- roo_flags -->
<g id="node8" class="node">
<title>roo_flags</title>
<polygon fill="#b1dbab" stroke="black" points="1536,-188 1456,-188 1456,-150 1536,-150 1536,-188"/>
<text text-anchor="middle" x="1496" y="-172.8" font-family="Times,serif" font-size="14.00">roo_flags</text>
<text text-anchor="middle" x="1496" y="-157.8" font-family="Times,serif" font-size="14.00">1.2.0</text>
</g>
<!-- roo_icons -->
<g id="node9" class="node">
<title>roo_icons</title>
<polygon fill="plum" stroke="black" points="2078.5,-572 1995.5,-572 1995.5,-534 2078.5,-534 2078.5,-572"/>
<text text-anchor="middle" x="2037" y="-556.8" font-family="Times,serif" font-size="14.00">roo_icons</text>
<text text-anchor="middle" x="2037" y="-541.8" font-family="Times,serif" font-size="14.00">1.2.1</text>
</g>
<!-- roo_icons&#45;&gt;roo_display -->
<g id="edge26" class="edge">
<title>roo_icons&#45;&gt;roo_display</title>
<path fill="none" stroke="black" d="M2043.75,-533.88C2048.83,-520.22 2055.89,-501.26 2061.68,-485.71"/>
<polygon fill="black" stroke="black" points="2065.06,-486.66 2065.27,-476.07 2058.5,-484.22 2065.06,-486.66"/>
</g>
<!-- roo_icons&#45;&gt;roo_testing -->
<g id="edge25" class="edge">
<title>roo_icons&#45;&gt;roo_testing</title>
<path fill="none" stroke="red" d="M2078.85,-537.03C2138.02,-515.25 2239,-475.5 2239,-458 2239,-458 2239,-458 2239,-312 2239,-282.01 2244.43,-274.73 2253,-246 2255.45,-237.77 2258.42,-236.44 2260,-228 2261.8,-218.39 2261.87,-215.6 2260,-206 2248,-144.35 2254.33,-116.28 2207,-75 2163.53,-37.09 1773.91,-24.58 1623.18,-21.14"/>
<polygon fill="red" stroke="red" points="1622.82,-17.63 1612.74,-20.91 1622.66,-24.63 1622.82,-17.63"/>
<text text-anchor="middle" x="2286" y="-268" font-family="Times,serif" font-size="10.00" fill="red">1.1.7</text>
<text text-anchor="middle" x="2286" y="-257" font-family="Times,serif" font-size="10.00" fill="red">(latest: 1.2.0)</text>
</g>
<!-- roo_io&#45;&gt;roo_logging -->
<g id="edge27" class="edge">
<title>roo_io&#45;&gt;roo_logging</title>
<path fill="none" stroke="black" d="M1680.35,-347.76C1648.55,-334.99 1596.36,-315.04 1550,-302 1511.54,-291.18 1467.51,-282.21 1432.99,-275.93"/>
<polygon fill="black" stroke="black" points="1433.52,-272.47 1423.06,-274.15 1432.29,-279.36 1433.52,-272.47"/>
</g>
<!-- roo_locale -->
<g id="node11" class="node">
<title>roo_locale</title>
<polygon fill="#b1dbab" stroke="black" points="2185,-572 2097,-572 2097,-534 2185,-534 2185,-572"/>
<text text-anchor="middle" x="2141" y="-556.8" font-family="Times,serif" font-size="14.00">roo_locale</text>
<text text-anchor="middle" x="2141" y="-541.8" font-family="Times,serif" font-size="14.00">1.1.1</text>
</g>
<!-- roo_logging&#45;&gt;roo_backport -->
<g id="edge28" class="edge">
<title>roo_logging&#45;&gt;roo_backport</title>
<path fill="none" stroke="black" d="M1416.13,-245.91C1490.57,-214.7 1642.9,-150.81 1723.42,-117.05"/>
<polygon fill="black" stroke="black" points="1725.01,-120.18 1732.88,-113.08 1722.3,-113.72 1725.01,-120.18"/>
</g>
<!-- roo_logging&#45;&gt;roo_flags -->
<g id="edge29" class="edge">
<title>roo_logging&#45;&gt;roo_flags</title>
<path fill="none" stroke="black" d="M1396.72,-245.88C1415.94,-231.18 1443.22,-210.34 1464.32,-194.21"/>
<polygon fill="black" stroke="black" points="1466.54,-196.92 1472.36,-188.07 1462.29,-191.36 1466.54,-196.92"/>
</g>
<!-- roo_logging&#45;&gt;roo_threads -->
<g id="edge30" class="edge">
<title>roo_logging&#45;&gt;roo_threads</title>
<path fill="none" stroke="black" d="M1336.56,-245.88C1307.42,-232.32 1265.11,-214.67 1226,-206 1126,-183.82 824.21,-174.39 693.95,-171.27"/>
<polygon fill="black" stroke="black" points="693.83,-167.77 683.75,-171.03 693.66,-174.77 693.83,-167.77"/>
</g>
<!-- roo_onewire -->
<g id="node13" class="node">
<title>roo_onewire</title>
<polygon fill="#b1dbab" stroke="black" points="1071,-476 967,-476 967,-438 1071,-438 1071,-476"/>
<text text-anchor="middle" x="1019" y="-460.8" font-family="Times,serif" font-size="14.00">roo_onewire</text>
<text text-anchor="middle" x="1019" y="-445.8" font-family="Times,serif" font-size="14.00">2.0.7</text>
</g>
<!-- roo_onewire&#45;&gt;roo_quantity -->
<g id="edge32" class="edge">
<title>roo_onewire&#45;&gt;roo_quantity</title>
<path fill="none" stroke="black" d="M1029.6,-437.88C1037.75,-423.96 1049.11,-404.53 1058.31,-388.82"/>
<polygon fill="black" stroke="black" points="1061.4,-390.47 1063.43,-380.07 1055.36,-386.93 1061.4,-390.47"/>
</g>
<!-- roo_onewire&#45;&gt;roo_scheduler -->
<g id="edge31" class="edge">
<title>roo_onewire&#45;&gt;roo_scheduler</title>
<path fill="none" stroke="black" d="M966.9,-444.35C951.17,-438.92 934.71,-431.11 922,-420 901.4,-401.99 869.03,-332.68 851.77,-293.47"/>
<polygon fill="black" stroke="black" points="854.93,-291.96 847.72,-284.19 848.51,-294.76 854.93,-291.96"/>
</g>
<!-- roo_prefs&#45;&gt;roo_logging -->
<g id="edge33" class="edge">
<title>roo_prefs&#45;&gt;roo_logging</title>
<path fill="none" stroke="black" d="M1336.68,-341.88C1343.28,-328.09 1352.46,-308.9 1359.95,-293.26"/>
<polygon fill="black" stroke="black" points="1363.19,-294.6 1364.35,-284.07 1356.88,-291.58 1363.19,-294.6"/>
</g>
<!-- roo_prefs&#45;&gt;roo_scheduler -->
<g id="edge34" class="edge">
<title>roo_prefs&#45;&gt;roo_scheduler</title>
<path fill="none" stroke="black" d="M1286.29,-345.9C1281.5,-344.49 1276.66,-343.15 1272,-342 1145.03,-310.58 993.96,-287.11 908.29,-275.06"/>
<polygon fill="black" stroke="black" points="908.56,-271.57 898.17,-273.65 907.59,-278.5 908.56,-271.57"/>
</g>
<!-- roo_quantity&#45;&gt;roo_logging -->
<g id="edge35" class="edge">
<title>roo_quantity&#45;&gt;roo_logging</title>
<path fill="none" stroke="black" d="M1105.95,-341.99C1129.84,-329.2 1163.63,-312.51 1195,-302 1233.23,-289.19 1277.68,-280.2 1312.6,-274.4"/>
<polygon fill="black" stroke="black" points="1313.33,-277.83 1322.65,-272.78 1312.22,-270.92 1313.33,-277.83"/>
</g>
<!-- roo_scheduler&#45;&gt;roo_collections -->
<g id="edge36" class="edge">
<title>roo_scheduler&#45;&gt;roo_collections</title>
<path fill="none" stroke="black" d="M898.22,-258.79C973.81,-251.98 1109.8,-239.55 1226,-228 1397.99,-210.91 1600.04,-189.18 1704.84,-177.78"/>
<polygon fill="black" stroke="black" points="1705.42,-181.24 1714.98,-176.68 1704.66,-174.28 1705.42,-181.24"/>
</g>
<!-- roo_scheduler&#45;&gt;roo_threads -->
<g id="edge37" class="edge">
<title>roo_scheduler&#45;&gt;roo_threads</title>
<path fill="none" stroke="black" d="M800.09,-245.88C766.44,-230.6 718.15,-208.67 682.13,-192.31"/>
<polygon fill="black" stroke="black" points="683.34,-189.02 672.79,-188.07 680.45,-195.39 683.34,-189.02"/>
</g>
<!-- roo_threads&#45;&gt;roo_time -->
<g id="edge38" class="edge">
<title>roo_threads&#45;&gt;roo_time</title>
<path fill="none" stroke="black" d="M582.28,-151.62C544.65,-139.46 493.62,-122.98 456.32,-110.93"/>
<polygon fill="black" stroke="black" points="457.26,-107.56 446.67,-107.81 455.11,-114.22 457.26,-107.56"/>
</g>
<!-- roo_time&#45;&gt;roo_testing -->
<g id="edge39" class="edge">
<title>roo_time&#45;&gt;roo_testing</title>
<path fill="none" stroke="black" d="M446.58,-79.13C472.29,-70.8 506.71,-60.89 538,-56 726.37,-26.53 1316.45,-21.18 1505.27,-20.21"/>
<polygon fill="black" stroke="black" points="1505.29,-23.71 1515.27,-20.16 1505.26,-16.71 1505.29,-23.71"/>
</g>
<!-- roo_time_ds3231 -->
<g id="node20" class="node">
<title>roo_time_ds3231</title>
<polygon fill="#b1dbab" stroke="black" points="524,-188 386,-188 386,-150 524,-150 524,-188"/>
<text text-anchor="middle" x="455" y="-172.8" font-family="Times,serif" font-size="14.00">roo_time_ds3231</text>
<text text-anchor="middle" x="455" y="-157.8" font-family="Times,serif" font-size="14.00">1.1.4</text>
</g>
<!-- roo_time_ds3231&#45;&gt;roo_time -->
<g id="edge40" class="edge">
<title>roo_time_ds3231&#45;&gt;roo_time</title>
<path fill="none" stroke="black" d="M443.13,-149.96C437.54,-141.44 430.75,-131.12 424.57,-121.72"/>
<polygon fill="black" stroke="black" points="427.31,-119.52 418.9,-113.09 421.46,-123.37 427.31,-119.52"/>
</g>
<!-- roo_transceivers&#45;&gt;roo_collections -->
<g id="edge42" class="edge">
<title>roo_transceivers&#45;&gt;roo_collections</title>
<path fill="none" stroke="red" d="M607.33,-437.94C612.63,-426.48 619.67,-411.35 626,-398 647.25,-353.16 646.42,-335.53 683,-302 717.73,-270.17 728.48,-261.42 773,-246 935.56,-189.69 1373.28,-198.45 1545,-188 1598.57,-184.74 1659.04,-179.99 1704.67,-176.19"/>
<polygon fill="red" stroke="red" points="1705.09,-179.67 1714.76,-175.34 1704.5,-172.69 1705.09,-179.67"/>
<text text-anchor="middle" x="716" y="-316" font-family="Times,serif" font-size="10.00" fill="red">1.3.2</text>
<text text-anchor="middle" x="716" y="-305" font-family="Times,serif" font-size="10.00" fill="red">(latest: 1.4.0)</text>
</g>
<!-- roo_transceivers&#45;&gt;roo_logging -->
<g id="edge43" class="edge">
<title>roo_transceivers&#45;&gt;roo_logging</title>
<path fill="none" stroke="red" d="M613.43,-437.67C636.82,-408.47 682.66,-353.51 705,-342 758.44,-314.47 1158.48,-282.03 1312.66,-270.41"/>
<polygon fill="red" stroke="red" points="1313.18,-273.88 1322.89,-269.64 1312.66,-266.9 1313.18,-273.88"/>
<text text-anchor="middle" x="738" y="-364" font-family="Times,serif" font-size="10.00" fill="red">1.4.3</text>
<text text-anchor="middle" x="738" y="-353" font-family="Times,serif" font-size="10.00" fill="red">(latest: 1.5.1)</text>
</g>
<!-- roo_transceivers&#45;&gt;roo_prefs -->
<g id="edge44" class="edge">
<title>roo_transceivers&#45;&gt;roo_prefs</title>
<path fill="none" stroke="red" d="M666.56,-444.59C746.1,-431.55 882.3,-410.39 1000,-398 1120.49,-385.32 1152.99,-402.71 1272,-380 1273.47,-379.72 1274.96,-379.41 1276.46,-379.08"/>
<polygon fill="red" stroke="red" points="1277.54,-382.42 1286.4,-376.6 1275.85,-375.63 1277.54,-382.42"/>
<text text-anchor="middle" x="1033" y="-412" font-family="Times,serif" font-size="10.00" fill="red">1.2.3</text>
<text text-anchor="middle" x="1033" y="-401" font-family="Times,serif" font-size="10.00" fill="red">(latest: 1.2.7)</text>
</g>
<!-- roo_transceivers&#45;&gt;roo_testing -->
<g id="edge41" class="edge">
<title>roo_transceivers&#45;&gt;roo_testing</title>
<path fill="none" stroke="red" d="M584.94,-437.68C581.27,-432.22 577.61,-426.07 575,-420 540.37,-339.59 540.84,-314.99 531,-228 526.57,-188.88 539.1,-170.02 573,-150 732.74,-55.64 1317.04,-28.22 1505.2,-21.74"/>
<polygon fill="red" stroke="red" points="1505.56,-25.23 1515.44,-21.39 1505.33,-18.23 1505.56,-25.23"/>
<text text-anchor="middle" x="564" y="-220" font-family="Times,serif" font-size="10.00" fill="red">1.1.8</text>
<text text-anchor="middle" x="564" y="-209" font-family="Times,serif" font-size="10.00" fill="red">(latest: 1.2.0)</text>
</g>
<!-- roo_transceivers&#45;&gt;roo_threads -->
<g id="edge45" class="edge">
<title>roo_transceivers&#45;&gt;roo_threads</title>
<path fill="none" stroke="red" d="M591.48,-437.88C580.49,-408.98 562.44,-350.76 573,-302 581.31,-263.65 601.74,-223.07 616.45,-197.19"/>
<polygon fill="red" stroke="red" points="619.59,-198.76 621.58,-188.35 613.54,-195.24 619.59,-198.76"/>
<text text-anchor="middle" x="606" y="-316" font-family="Times,serif" font-size="10.00" fill="red">1.1.6</text>
<text text-anchor="middle" x="606" y="-305" font-family="Times,serif" font-size="10.00" fill="red">(latest: 1.2.0)</text>
</g>
<!-- roo_transceivers&#45;&gt;roo_time -->
<g id="edge46" class="edge">
<title>roo_transceivers&#45;&gt;roo_time</title>
<path fill="none" stroke="red" d="M531.23,-443.27C459.94,-427.91 358,-399.39 358,-362 358,-362 358,-362 358,-168 358,-150.3 368.05,-133.66 379.05,-120.75"/>
<polygon fill="red" stroke="red" points="381.77,-122.96 385.94,-113.22 376.6,-118.24 381.77,-122.96"/>
<text text-anchor="middle" x="391" y="-268" font-family="Times,serif" font-size="10.00" fill="red">1.3.3</text>
<text text-anchor="middle" x="391" y="-257" font-family="Times,serif" font-size="10.00" fill="red">(latest: 1.4.0)</text>
</g>
<!-- roo_transport -->
<g id="node22" class="node">
<title>roo_transport</title>
<polygon fill="plum" stroke="black" points="1588,-476 1474,-476 1474,-438 1588,-438 1588,-476"/>
<text text-anchor="middle" x="1531" y="-460.8" font-family="Times,serif" font-size="14.00">roo_transport</text>
<text text-anchor="middle" x="1531" y="-445.8" font-family="Times,serif" font-size="14.00">1.0.2</text>
</g>
<!-- roo_transport&#45;&gt;roo_collections -->
<g id="edge48" class="edge">
<title>roo_transport&#45;&gt;roo_collections</title>
<path fill="none" stroke="red" d="M1546.81,-437.94C1556.86,-426.48 1570.17,-411.34 1582,-398 1627.11,-347.14 1639.97,-335.8 1684,-284 1709.23,-254.31 1737.21,-219.34 1755.61,-196.03"/>
<polygon fill="red" stroke="red" points="1758.5,-198.02 1761.93,-188 1753,-193.69 1758.5,-198.02"/>
<text text-anchor="middle" x="1702" y="-316" font-family="Times,serif" font-size="10.00" fill="red">1.3.2</text>
<text text-anchor="middle" x="1702" y="-305" font-family="Times,serif" font-size="10.00" fill="red">(latest: 1.4.0)</text>
</g>
<!-- roo_transport&#45;&gt;roo_io -->
<g id="edge49" class="edge">
<title>roo_transport&#45;&gt;roo_io</title>
<path fill="none" stroke="red" d="M1556.21,-437.89C1573.83,-425.7 1598.21,-409.77 1621,-398 1640.14,-388.12 1646.03,-388.08 1666,-380 1667.58,-379.36 1669.19,-378.71 1670.81,-378.05"/>
<polygon fill="red" stroke="red" points="1672.25,-381.24 1680.19,-374.23 1669.61,-374.76 1672.25,-381.24"/>
<text text-anchor="middle" x="1654" y="-412" font-family="Times,serif" font-size="10.00" fill="red">2.0.3</text>
<text text-anchor="middle" x="1654" y="-401" font-family="Times,serif" font-size="10.00" fill="red">(latest: 2.1.1)</text>
</g>
<!-- roo_transport&#45;&gt;roo_logging -->
<g id="edge50" class="edge">
<title>roo_transport&#45;&gt;roo_logging</title>
<path fill="none" stroke="red" d="M1511.09,-437.75C1495.62,-423.01 1474.15,-401.28 1458,-380 1433.67,-347.94 1437.28,-333.32 1412,-302 1408.98,-298.25 1405.56,-294.54 1402.04,-290.99"/>
<polygon fill="red" stroke="red" points="1404.4,-288.41 1394.76,-284.01 1399.56,-293.46 1404.4,-288.41"/>
<text text-anchor="middle" x="1491" y="-364" font-family="Times,serif" font-size="10.00" fill="red">1.4.3</text>
<text text-anchor="middle" x="1491" y="-353" font-family="Times,serif" font-size="10.00" fill="red">(latest: 1.5.1)</text>
</g>
<!-- roo_transport&#45;&gt;roo_testing -->
<g id="edge47" class="edge">
<title>roo_transport&#45;&gt;roo_testing</title>
<path fill="none" stroke="red" d="M1536.3,-437.84C1545.63,-404.24 1564,-329.95 1564,-266 1564,-266 1564,-266 1564,-93 1564,-78.3 1564,-61.93 1564,-48.43"/>
<polygon fill="red" stroke="red" points="1567.5,-48.3 1564,-38.3 1560.5,-48.3 1567.5,-48.3"/>
<text text-anchor="middle" x="1597" y="-220" font-family="Times,serif" font-size="10.00" fill="red">1.1.8</text>
<text text-anchor="middle" x="1597" y="-209" font-family="Times,serif" font-size="10.00" fill="red">(latest: 1.2.0)</text>
</g>
<!-- roo_transport&#45;&gt;roo_threads -->
<g id="edge51" class="edge">
<title>roo_transport&#45;&gt;roo_threads</title>
<path fill="none" stroke="red" d="M1528.06,-437.73C1527.25,-432.06 1526.47,-425.79 1526,-420 1525.65,-415.68 1526.4,-345.61 1524,-342 1513.21,-325.77 1498.87,-336.6 1484,-324 1452.21,-297.07 1466.04,-270.03 1432,-246 1372.47,-203.98 1345.04,-216.98 1273,-206 1062.03,-173.83 808.01,-169.66 693.82,-169.59"/>
<polygon fill="red" stroke="red" points="693.53,-166.09 683.54,-169.59 693.54,-173.09 693.53,-166.09"/>
<text text-anchor="middle" x="1517" y="-316" font-family="Times,serif" font-size="10.00" fill="red">1.1.6</text>
<text text-anchor="middle" x="1517" y="-305" font-family="Times,serif" font-size="10.00" fill="red">(latest: 1.2.0)</text>
</g>
<!-- roo_wifi -->
<g id="node23" class="node">
<title>roo_wifi</title>
<polygon fill="plum" stroke="black" points="2211,-476 2139,-476 2139,-438 2211,-438 2211,-476"/>
<text text-anchor="middle" x="2175" y="-460.8" font-family="Times,serif" font-size="14.00">roo_wifi</text>
<text text-anchor="middle" x="2175" y="-445.8" font-family="Times,serif" font-size="14.00">1.1.2</text>
</g>
<!-- roo_wifi&#45;&gt;roo_collections -->
<g id="edge53" class="edge">
<title>roo_wifi&#45;&gt;roo_collections</title>
<path fill="none" stroke="red" d="M2154.55,-437.98C2126.89,-413.25 2076.46,-366.98 2037,-324 1991.47,-274.4 1999.28,-241.38 1942,-206 1913.82,-188.6 1878.42,-179.54 1847.56,-174.85"/>
<polygon fill="red" stroke="red" points="1847.67,-171.33 1837.28,-173.42 1846.7,-178.26 1847.67,-171.33"/>
<text text-anchor="middle" x="2070" y="-316" font-family="Times,serif" font-size="10.00" fill="red">1.3.2</text>
<text text-anchor="middle" x="2070" y="-305" font-family="Times,serif" font-size="10.00" fill="red">(latest: 1.4.0)</text>
</g>
<!-- roo_wifi&#45;&gt;roo_prefs -->
<g id="edge54" class="edge">
<title>roo_wifi&#45;&gt;roo_prefs</title>
<path fill="none" stroke="red" d="M2138.97,-440.42C2135.97,-439.49 2132.96,-438.66 2130,-438 1993.11,-407.56 1954.28,-436.28 1815,-420 1759.41,-413.5 1746.56,-404.77 1691,-398 1572.06,-383.51 1540.84,-395.3 1422,-380 1408.34,-378.24 1393.68,-375.74 1380.09,-373.15"/>
<polygon fill="red" stroke="red" points="1380.42,-369.65 1369.94,-371.17 1379.08,-376.52 1380.42,-369.65"/>
<text text-anchor="middle" x="1848" y="-412" font-family="Times,serif" font-size="10.00" fill="red">1.2.3</text>
<text text-anchor="middle" x="1848" y="-401" font-family="Times,serif" font-size="10.00" fill="red">(latest: 1.2.7)</text>
</g>
<!-- roo_wifi&#45;&gt;roo_testing -->
<g id="edge52" class="edge">
<title>roo_wifi&#45;&gt;roo_testing</title>
<path fill="none" stroke="red" d="M2180.6,-437.83C2185.88,-419.03 2193,-388.75 2193,-362 2193,-362 2193,-362 2193,-93 2193,-35.94 1779.34,-23.42 1622.94,-20.72"/>
<polygon fill="red" stroke="red" points="1622.63,-17.22 1612.57,-20.55 1622.51,-24.22 1622.63,-17.22"/>
<text text-anchor="middle" x="2226" y="-220" font-family="Times,serif" font-size="10.00" fill="red">1.1.8</text>
<text text-anchor="middle" x="2226" y="-209" font-family="Times,serif" font-size="10.00" fill="red">(latest: 1.2.0)</text>
</g>
<!-- roo_windows&#45;&gt;roo_collections -->
<g id="edge56" class="edge">
<title>roo_windows&#45;&gt;roo_collections</title>
<path fill="none" stroke="red" d="M1890.96,-629.96C1922.78,-591.71 1987.55,-500.85 1945,-438 1932.92,-420.16 1915.3,-435.16 1900,-420 1873.39,-393.62 1883.97,-375.9 1868,-342 1843.27,-289.49 1810.42,-230.2 1791.4,-196.74"/>
<polygon fill="red" stroke="red" points="1794.42,-194.97 1786.42,-188.02 1788.34,-198.44 1794.42,-194.97"/>
<text text-anchor="middle" x="1933" y="-412" font-family="Times,serif" font-size="10.00" fill="red">1.3.2</text>
<text text-anchor="middle" x="1933" y="-401" font-family="Times,serif" font-size="10.00" fill="red">(latest: 1.4.0)</text>
</g>
<!-- roo_windows&#45;&gt;roo_icons -->
<g id="edge59" class="edge">
<title>roo_windows&#45;&gt;roo_icons</title>
<path fill="none" stroke="black" d="M1929.7,-633.85C1945.93,-628.37 1963.28,-621.16 1978,-612 1991.97,-603.31 2005.25,-590.78 2015.67,-579.59"/>
<polygon fill="black" stroke="black" points="2018.3,-581.89 2022.39,-572.12 2013.1,-577.21 2018.3,-581.89"/>
</g>
<!-- roo_windows&#45;&gt;roo_io -->
<g id="edge60" class="edge">
<title>roo_windows&#45;&gt;roo_io</title>
<path fill="none" stroke="red" d="M1863.63,-629.78C1847.91,-604.44 1818.76,-557.05 1795,-516 1769.49,-471.93 1741.15,-419.93 1724.49,-389.03"/>
<polygon fill="red" stroke="red" points="1727.53,-387.3 1719.71,-380.15 1721.37,-390.62 1727.53,-387.3"/>
<text text-anchor="middle" x="1828" y="-508" font-family="Times,serif" font-size="10.00" fill="red">2.0.2</text>
<text text-anchor="middle" x="1828" y="-497" font-family="Times,serif" font-size="10.00" fill="red">(latest: 2.1.1)</text>
</g>
<!-- roo_windows&#45;&gt;roo_locale -->
<g id="edge57" class="edge">
<title>roo_windows&#45;&gt;roo_locale</title>
<path fill="none" stroke="black" d="M1929.58,-634.62C1953.01,-628.42 1980.57,-620.55 2005,-612 2034.89,-601.54 2067.55,-587.7 2093.37,-576.16"/>
<polygon fill="black" stroke="black" points="2094.87,-579.32 2102.56,-572.02 2092,-572.93 2094.87,-579.32"/>
</g>
<!-- roo_windows&#45;&gt;roo_logging -->
<g id="edge58" class="edge">
<title>roo_windows&#45;&gt;roo_logging</title>
<path fill="none" stroke="red" d="M1875.86,-629.94C1878.28,-571.05 1882.78,-385.85 1846,-342 1812.84,-302.46 1787.3,-313.52 1737,-302 1708.22,-295.41 1529.16,-279.4 1433.35,-271.13"/>
<polygon fill="red" stroke="red" points="1433.48,-267.63 1423.22,-270.26 1432.88,-274.6 1433.48,-267.63"/>
<text text-anchor="middle" x="1908" y="-460" font-family="Times,serif" font-size="10.00" fill="red">1.4.2</text>
<text text-anchor="middle" x="1908" y="-449" font-family="Times,serif" font-size="10.00" fill="red">(latest: 1.5.1)</text>
</g>
<!-- roo_windows&#45;&gt;roo_scheduler -->
<g id="edge61" class="edge">
<title>roo_windows&#45;&gt;roo_scheduler</title>
<path fill="none" stroke="red" d="M1820.16,-647.44C1552.5,-644.35 396,-626.8 396,-554 396,-554 396,-554 396,-408 396,-283.67 651.39,-353.74 728,-324 742.75,-318.27 742.39,-310.07 756,-302 764.3,-297.07 773.41,-292.45 782.46,-288.28"/>
<polygon fill="red" stroke="red" points="784.14,-291.36 791.84,-284.09 781.28,-284.97 784.14,-291.36"/>
<text text-anchor="middle" x="429" y="-460" font-family="Times,serif" font-size="10.00" fill="red">2.1.4</text>
<text text-anchor="middle" x="429" y="-449" font-family="Times,serif" font-size="10.00" fill="red">(latest: 2.1.6)</text>
</g>
<!-- roo_windows&#45;&gt;roo_testing -->
<g id="edge55" class="edge">
<title>roo_windows&#45;&gt;roo_testing</title>
<path fill="none" stroke="red" d="M1929.63,-648.66C1998.52,-646.69 2117.2,-633.66 2194,-572 2325.81,-466.18 2333,-387.03 2333,-218 2333,-218 2333,-218 2333,-93 2333,-21.71 1802.53,-18.49 1622.75,-19.44"/>
<polygon fill="red" stroke="red" points="1622.67,-15.94 1612.69,-19.5 1622.71,-22.94 1622.67,-15.94"/>
<text text-anchor="middle" x="2364" y="-316" font-family="Times,serif" font-size="10.00" fill="red">1.1.7</text>
<text text-anchor="middle" x="2364" y="-305" font-family="Times,serif" font-size="10.00" fill="red">(latest: 1.2.0)</text>
</g>
<!-- roo_windows&#45;&gt;roo_time -->
<g id="edge62" class="edge">
<title>roo_windows&#45;&gt;roo_time</title>
<path fill="none" stroke="red" d="M1820.39,-647.78C1600.28,-646.71 777.63,-640.82 519,-612 387.07,-597.3 226,-686.75 226,-554 226,-554 226,-554 226,-168 226,-111.18 303.66,-97.48 357.25,-94.78"/>
<polygon fill="red" stroke="red" points="357.42,-98.28 367.28,-94.39 357.15,-91.28 357.42,-98.28"/>
<text text-anchor="middle" x="259" y="-364" font-family="Times,serif" font-size="10.00" fill="red">1.3.2</text>
<text text-anchor="middle" x="259" y="-353" font-family="Times,serif" font-size="10.00" fill="red">(latest: 1.4.0)</text>
</g>
<!-- roo_windows_wifi -->
<g id="node25" class="node">
<title>roo_windows_wifi</title>
<polygon fill="plum" stroke="black" points="1945.5,-743 1804.5,-743 1804.5,-705 1945.5,-705 1945.5,-743"/>
<text text-anchor="middle" x="1875" y="-727.8" font-family="Times,serif" font-size="14.00">roo_windows_wifi</text>
<text text-anchor="middle" x="1875" y="-712.8" font-family="Times,serif" font-size="14.00">1.1.2</text>
</g>
<!-- roo_windows_wifi&#45;&gt;roo_testing -->
<g id="edge63" class="edge">
<title>roo_windows_wifi&#45;&gt;roo_testing</title>
<path fill="none" stroke="red" d="M1804.46,-721.93C1477.36,-716.77 124,-692.8 124,-650 124,-650 124,-650 124,-93 124,-22.64 1234.97,-19.56 1505.26,-19.85"/>
<polygon fill="red" stroke="red" points="1505.26,-23.35 1515.26,-19.87 1505.27,-16.35 1505.26,-23.35"/>
<text text-anchor="middle" x="157" y="-364" font-family="Times,serif" font-size="10.00" fill="red">1.1.7</text>
<text text-anchor="middle" x="157" y="-353" font-family="Times,serif" font-size="10.00" fill="red">(latest: 1.2.0)</text>
</g>
<!-- roo_windows_wifi&#45;&gt;roo_wifi -->
<g id="edge64" class="edge">
<title>roo_windows_wifi&#45;&gt;roo_wifi</title>
<path fill="none" stroke="red" d="M1945.73,-711.93C2021.97,-695.8 2139.68,-657.81 2194,-572 2210.58,-545.81 2200.23,-509.71 2189.41,-485.2"/>
<polygon fill="red" stroke="red" points="2192.56,-483.67 2185.14,-476.11 2186.22,-486.65 2192.56,-483.67"/>
<text text-anchor="middle" x="2212" y="-604" font-family="Times,serif" font-size="10.00" fill="red">1.1.1</text>
<text text-anchor="middle" x="2212" y="-593" font-family="Times,serif" font-size="10.00" fill="red">(latest: 1.1.2)</text>
</g>
<!-- roo_windows_wifi&#45;&gt;roo_windows -->
<g id="edge65" class="edge">
<title>roo_windows_wifi&#45;&gt;roo_windows</title>
<path fill="none" stroke="black" d="M1875,-704.96C1875,-696.88 1875,-687.18 1875,-678.18"/>
<polygon fill="black" stroke="black" points="1878.5,-678.09 1875,-668.09 1871.5,-678.09 1878.5,-678.09"/>
</g>
</g>
</svg>
