<?xml version="1.0" encoding="UTF-8" standalone="no"?>
<!DOCTYPE svg PUBLIC "-//W3C//DTD SVG 1.1//EN"
 "http://www.w3.org/Graphics/SVG/1.1/DTD/svg11.dtd">
<!-- Generated by graphviz version 2.42.4 (0)
 -->
<!-- Title: dependencies Pages: 1 -->
<svg width="1581pt" height="788pt"
 viewBox="0.00 0.00 1581.00 788.00" xmlns="http://www.w3.org/2000/svg" xmlns:xlink="http://www.w3.org/1999/xlink">
<g id="graph0" class="graph" transform="scale(1 1) rotate(0) translate(4 784)">
<title>dependencies</title>
<polygon fill="white" stroke="transparent" points="-4,4 -4,-784 1577,-784 1577,4 -4,4"/>
<!-- roo_backport -->
<g id="node1" class="node">
<title>roo_backport</title>
<polygon fill="#b1dbab" stroke="black" points="654.5,-188 565.5,-188 565.5,-150 654.5,-150 654.5,-188"/>
<text text-anchor="middle" x="610" y="-172.8" font-family="Times,serif" font-size="14.00">roo_backport</text>
<text text-anchor="middle" x="610" y="-157.8" font-family="Times,serif" font-size="14.00">1.1.1</text>
</g>
<!-- roo_blink -->
<g id="node2" class="node">
<title>roo_blink</title>
<polygon fill="#b1dbab" stroke="black" points="1174.5,-476 1105.5,-476 1105.5,-438 1174.5,-438 1174.5,-476"/>
<text text-anchor="middle" x="1140" y="-460.8" font-family="Times,serif" font-size="14.00">roo_blink</text>
<text text-anchor="middle" x="1140" y="-445.8" font-family="Times,serif" font-size="14.00">1.0.2</text>
</g>
<!-- roo_logging -->
<g id="node13" class="node">
<title>roo_logging</title>
<polygon fill="#b1dbab" stroke="black" points="1063.5,-284 980.5,-284 980.5,-246 1063.5,-246 1063.5,-284"/>
<text text-anchor="middle" x="1022" y="-268.8" font-family="Times,serif" font-size="14.00">roo_logging</text>
<text text-anchor="middle" x="1022" y="-253.8" font-family="Times,serif" font-size="14.00">1.4.3</text>
</g>
<!-- roo_blink&#45;&gt;roo_logging -->
<g id="edge1" class="edge">
<title>roo_blink&#45;&gt;roo_logging</title>
<path fill="none" stroke="black" d="M1146.38,-437.67C1153.44,-413.95 1161.79,-372.11 1145,-342 1129.58,-314.35 1099.5,-295.5 1072.94,-283.48"/>
<polygon fill="black" stroke="black" points="1074.3,-280.26 1063.73,-279.52 1071.53,-286.69 1074.3,-280.26"/>
</g>
<!-- roo_scheduler -->
<g id="node19" class="node">
<title>roo_scheduler</title>
<polygon fill="#b1dbab" stroke="black" points="993.5,-380 900.5,-380 900.5,-342 993.5,-342 993.5,-380"/>
<text text-anchor="middle" x="947" y="-364.8" font-family="Times,serif" font-size="14.00">roo_scheduler</text>
<text text-anchor="middle" x="947" y="-349.8" font-family="Times,serif" font-size="14.00">2.1.5</text>
</g>
<!-- roo_blink&#45;&gt;roo_scheduler -->
<g id="edge2" class="edge">
<title>roo_blink&#45;&gt;roo_scheduler</title>
<path fill="none" stroke="black" d="M1105.5,-439.19C1074.28,-423.99 1028.05,-401.47 993.56,-384.68"/>
<polygon fill="black" stroke="black" points="994.69,-381.33 984.17,-380.1 991.63,-387.63 994.69,-381.33"/>
</g>
<!-- roo_collections -->
<g id="node3" class="node">
<title>roo_collections</title>
<polygon fill="#b1dbab" stroke="black" points="653,-284 553,-284 553,-246 653,-246 653,-284"/>
<text text-anchor="middle" x="603" y="-268.8" font-family="Times,serif" font-size="14.00">roo_collections</text>
<text text-anchor="middle" x="603" y="-253.8" font-family="Times,serif" font-size="14.00">1.3.2</text>
</g>
<!-- roo_collections&#45;&gt;roo_backport -->
<g id="edge3" class="edge">
<title>roo_collections&#45;&gt;roo_backport</title>
<path fill="none" stroke="black" d="M604.35,-245.88C605.36,-232.35 606.75,-213.62 607.9,-198.15"/>
<polygon fill="black" stroke="black" points="611.4,-198.3 608.65,-188.07 604.42,-197.78 611.4,-198.3"/>
</g>
<!-- roo_comms -->
<g id="node4" class="node">
<title>roo_comms</title>
<polygon fill="plum" stroke="black" points="1083,-684 1001,-684 1001,-646 1083,-646 1083,-684"/>
<text text-anchor="middle" x="1042" y="-668.8" font-family="Times,serif" font-size="14.00">roo_comms</text>
<text text-anchor="middle" x="1042" y="-653.8" font-family="Times,serif" font-size="14.00">1.1.1</text>
</g>
<!-- roo_comms&#45;&gt;roo_blink -->
<g id="edge5" class="edge">
<title>roo_comms&#45;&gt;roo_blink</title>
<path fill="none" stroke="red" d="M1051.36,-645.77C1060.79,-627.27 1075.68,-597.78 1088,-572 1102.03,-542.63 1117.43,-508.65 1127.8,-485.48"/>
<polygon fill="red" stroke="red" points="1131.03,-486.82 1131.91,-476.26 1124.64,-483.96 1131.03,-486.82"/>
<text text-anchor="middle" x="1133" y="-556" font-family="Times,serif" font-size="10.00" fill="red">1.0.1</text>
<text text-anchor="middle" x="1133" y="-545" font-family="Times,serif" font-size="10.00" fill="red">(latest: 1.0.2)</text>
</g>
<!-- roo_comms&#45;&gt;roo_collections -->
<g id="edge6" class="edge">
<title>roo_comms&#45;&gt;roo_collections</title>
<path fill="none" stroke="black" d="M1000.99,-663.64C969.29,-661.25 926.21,-653.08 898,-628 830.51,-568 879.79,-510.54 826,-438 776.79,-371.63 695.38,-317.94 645.72,-289.1"/>
<polygon fill="black" stroke="black" points="647.25,-285.95 636.84,-284.01 643.77,-292.02 647.25,-285.95"/>
</g>
<!-- roo_control -->
<g id="node5" class="node">
<title>roo_control</title>
<polygon fill="#b1dbab" stroke="black" points="1273,-476 1193,-476 1193,-438 1273,-438 1273,-476"/>
<text text-anchor="middle" x="1233" y="-460.8" font-family="Times,serif" font-size="14.00">roo_control</text>
<text text-anchor="middle" x="1233" y="-445.8" font-family="Times,serif" font-size="14.00">1.2.2</text>
</g>
<!-- roo_comms&#45;&gt;roo_control -->
<g id="edge7" class="edge">
<title>roo_comms&#45;&gt;roo_control</title>
<path fill="none" stroke="red" d="M1072.15,-645.93C1098.53,-629.1 1136.8,-602.12 1164,-572 1187.82,-545.63 1207.89,-509.86 1220.15,-485.46"/>
<polygon fill="red" stroke="red" points="1223.33,-486.92 1224.6,-476.4 1217.05,-483.83 1223.33,-486.92"/>
<text text-anchor="middle" x="1220" y="-556" font-family="Times,serif" font-size="10.00" fill="red">1.2.1</text>
<text text-anchor="middle" x="1220" y="-545" font-family="Times,serif" font-size="10.00" fill="red">(latest: 1.2.2)</text>
</g>
<!-- roo_io -->
<g id="node10" class="node">
<title>roo_io</title>
<polygon fill="#b1dbab" stroke="black" points="578,-380 524,-380 524,-342 578,-342 578,-380"/>
<text text-anchor="middle" x="551" y="-364.8" font-family="Times,serif" font-size="14.00">roo_io</text>
<text text-anchor="middle" x="551" y="-349.8" font-family="Times,serif" font-size="14.00">2.0.3</text>
</g>
<!-- roo_comms&#45;&gt;roo_io -->
<g id="edge8" class="edge">
<title>roo_comms&#45;&gt;roo_io</title>
<path fill="none" stroke="red" d="M1000.79,-663.33C912.76,-659.52 705.91,-637.38 602,-516 585.64,-496.88 567.27,-429.42 557.67,-390.42"/>
<polygon fill="red" stroke="red" points="560.96,-389.13 555.2,-380.23 554.15,-390.78 560.96,-389.13"/>
<text text-anchor="middle" x="629" y="-508" font-family="Times,serif" font-size="10.00" fill="red">2.0.2</text>
<text text-anchor="middle" x="629" y="-497" font-family="Times,serif" font-size="10.00" fill="red">(latest: 2.0.3)</text>
</g>
<!-- roo_comms&#45;&gt;roo_logging -->
<g id="edge9" class="edge">
<title>roo_comms&#45;&gt;roo_logging</title>
<path fill="none" stroke="red" d="M1083.12,-661.79C1158.38,-657.32 1312.07,-646.06 1328,-628 1362.57,-588.81 1360.23,-562.11 1282,-438 1234.19,-362.15 1210.51,-347.07 1133,-302 1114.65,-291.33 1092.72,-283.36 1073.22,-277.67"/>
<polygon fill="red" stroke="red" points="1074.14,-274.3 1063.57,-274.98 1072.26,-281.04 1074.14,-274.3"/>
<text text-anchor="middle" x="1332" y="-460" font-family="Times,serif" font-size="10.00" fill="red">1.4.2</text>
<text text-anchor="middle" x="1332" y="-449" font-family="Times,serif" font-size="10.00" fill="red">(latest: 1.4.3)</text>
</g>
<!-- roo_prefs -->
<g id="node17" class="node">
<title>roo_prefs</title>
<polygon fill="#b1dbab" stroke="black" points="984,-476 916,-476 916,-438 984,-438 984,-476"/>
<text text-anchor="middle" x="950" y="-460.8" font-family="Times,serif" font-size="14.00">roo_prefs</text>
<text text-anchor="middle" x="950" y="-445.8" font-family="Times,serif" font-size="14.00">1.2.3</text>
</g>
<!-- roo_comms&#45;&gt;roo_prefs -->
<g id="edge10" class="edge">
<title>roo_comms&#45;&gt;roo_prefs</title>
<path fill="none" stroke="red" d="M1041.19,-645.79C1039.39,-619.71 1033.61,-570.83 1015,-534 1005.49,-515.17 990.36,-497.1 977.1,-483.3"/>
<polygon fill="red" stroke="red" points="979.49,-480.74 969.96,-476.1 974.51,-485.67 979.49,-480.74"/>
<text text-anchor="middle" x="1057" y="-556" font-family="Times,serif" font-size="10.00" fill="red">1.2.2</text>
<text text-anchor="middle" x="1057" y="-545" font-family="Times,serif" font-size="10.00" fill="red">(latest: 1.2.3)</text>
</g>
<!-- roo_comms&#45;&gt;roo_scheduler -->
<g id="edge11" class="edge">
<title>roo_comms&#45;&gt;roo_scheduler</title>
<path fill="none" stroke="red" d="M1000.94,-653.21C963.4,-640.76 910.81,-616.11 891,-572 862.83,-509.28 903.14,-429.45 928.71,-388.65"/>
<polygon fill="red" stroke="red" points="931.75,-390.38 934.22,-380.08 925.87,-386.6 931.75,-390.38"/>
<text text-anchor="middle" x="912" y="-508" font-family="Times,serif" font-size="10.00" fill="red">2.1.4</text>
<text text-anchor="middle" x="912" y="-497" font-family="Times,serif" font-size="10.00" fill="red">(latest: 2.1.5)</text>
</g>
<!-- roo_testing -->
<g id="node20" class="node">
<title>roo_testing</title>
<polygon fill="#b1dbab" stroke="black" points="330.5,-38 253.5,-38 253.5,0 330.5,0 330.5,-38"/>
<text text-anchor="middle" x="292" y="-22.8" font-family="Times,serif" font-size="14.00">roo_testing</text>
<text text-anchor="middle" x="292" y="-7.8" font-family="Times,serif" font-size="14.00">1.1.8</text>
</g>
<!-- roo_comms&#45;&gt;roo_testing -->
<g id="edge4" class="edge">
<title>roo_comms&#45;&gt;roo_testing</title>
<path fill="none" stroke="red" d="M1000.93,-663.21C935.53,-661.18 804.06,-653.93 696,-628 513.09,-584.11 420.68,-621.12 301,-476 247.26,-410.83 276.84,-137.57 288.19,-48.33"/>
<polygon fill="red" stroke="red" points="291.7,-48.51 289.51,-38.15 284.75,-47.62 291.7,-48.51"/>
<text text-anchor="middle" x="298" y="-316" font-family="Times,serif" font-size="10.00" fill="red">1.1.7</text>
<text text-anchor="middle" x="298" y="-305" font-family="Times,serif" font-size="10.00" fill="red">(latest: 1.1.8)</text>
</g>
<!-- roo_threads -->
<g id="node21" class="node">
<title>roo_threads</title>
<polygon fill="#b1dbab" stroke="black" points="866,-188 786,-188 786,-150 866,-150 866,-188"/>
<text text-anchor="middle" x="826" y="-172.8" font-family="Times,serif" font-size="14.00">roo_threads</text>
<text text-anchor="middle" x="826" y="-157.8" font-family="Times,serif" font-size="14.00">1.1.6</text>
</g>
<!-- roo_comms&#45;&gt;roo_threads -->
<g id="edge12" class="edge">
<title>roo_comms&#45;&gt;roo_threads</title>
<path fill="none" stroke="red" d="M1083.13,-662.12C1163.38,-658.04 1334.66,-647.17 1353,-628 1411.47,-566.91 1400.96,-513.56 1363,-438 1268.89,-250.65 990.96,-192.24 876.32,-175.83"/>
<polygon fill="red" stroke="red" points="876.45,-172.31 866.07,-174.41 875.5,-179.25 876.45,-172.31"/>
<text text-anchor="middle" x="1380" y="-412" font-family="Times,serif" font-size="10.00" fill="red">1.1.5</text>
<text text-anchor="middle" x="1380" y="-401" font-family="Times,serif" font-size="10.00" fill="red">(latest: 1.1.6)</text>
</g>
<!-- roo_time -->
<g id="node22" class="node">
<title>roo_time</title>
<polygon fill="#b1dbab" stroke="black" points="524,-113 458,-113 458,-75 524,-75 524,-113"/>
<text text-anchor="middle" x="491" y="-97.8" font-family="Times,serif" font-size="14.00">roo_time</text>
<text text-anchor="middle" x="491" y="-82.8" font-family="Times,serif" font-size="14.00">1.3.3</text>
</g>
<!-- roo_comms&#45;&gt;roo_time -->
<g id="edge13" class="edge">
<title>roo_comms&#45;&gt;roo_time</title>
<path fill="none" stroke="red" d="M1083.25,-664.03C1162.61,-663.39 1333.01,-658.39 1382,-628 1415.11,-607.46 1429,-592.96 1429,-554 1429,-554 1429,-554 1429,-168 1429,-156.37 1420.67,-154.63 1410,-150 1329.11,-114.93 705.05,-99.46 534.15,-95.85"/>
<polygon fill="red" stroke="red" points="534.09,-92.35 524.02,-95.64 533.94,-99.35 534.09,-92.35"/>
<text text-anchor="middle" x="1456" y="-364" font-family="Times,serif" font-size="10.00" fill="red">1.3.2</text>
<text text-anchor="middle" x="1456" y="-353" font-family="Times,serif" font-size="10.00" fill="red">(latest: 1.3.3)</text>
</g>
<!-- roo_transceivers -->
<g id="node24" class="node">
<title>roo_transceivers</title>
<polygon fill="#b1dbab" stroke="black" points="1006,-572 900,-572 900,-534 1006,-534 1006,-572"/>
<text text-anchor="middle" x="953" y="-556.8" font-family="Times,serif" font-size="14.00">roo_transceivers</text>
<text text-anchor="middle" x="953" y="-541.8" font-family="Times,serif" font-size="14.00">1.1.3</text>
</g>
<!-- roo_comms&#45;&gt;roo_transceivers -->
<g id="edge14" class="edge">
<title>roo_comms&#45;&gt;roo_transceivers</title>
<path fill="none" stroke="red" d="M1000.72,-648.9C990.8,-643.6 981.06,-636.72 974,-628 963.59,-615.13 958.34,-597.38 955.69,-582.49"/>
<polygon fill="red" stroke="red" points="959.1,-581.65 954.18,-572.27 952.18,-582.67 959.1,-581.65"/>
<text text-anchor="middle" x="1001" y="-612" font-family="Times,serif" font-size="10.00" fill="red">1.1.2</text>
<text text-anchor="middle" x="1001" y="-601" font-family="Times,serif" font-size="10.00" fill="red">(latest: 1.1.3)</text>
</g>
<!-- roo_quantity -->
<g id="node18" class="node">
<title>roo_quantity</title>
<polygon fill="#b1dbab" stroke="black" points="1136,-380 1050,-380 1050,-342 1136,-342 1136,-380"/>
<text text-anchor="middle" x="1093" y="-364.8" font-family="Times,serif" font-size="14.00">roo_quantity</text>
<text text-anchor="middle" x="1093" y="-349.8" font-family="Times,serif" font-size="14.00">1.1.3</text>
</g>
<!-- roo_control&#45;&gt;roo_quantity -->
<g id="edge15" class="edge">
<title>roo_control&#45;&gt;roo_quantity</title>
<path fill="none" stroke="black" d="M1206.01,-437.88C1183.93,-423.05 1152.53,-401.97 1128.43,-385.79"/>
<polygon fill="black" stroke="black" points="1130.16,-382.74 1119.91,-380.07 1126.26,-388.55 1130.16,-382.74"/>
</g>
<!-- roo_control&#45;&gt;roo_scheduler -->
<g id="edge16" class="edge">
<title>roo_control&#45;&gt;roo_scheduler</title>
<path fill="none" stroke="black" d="M1192.93,-441.44C1189.57,-440.26 1186.23,-439.1 1183,-438 1121.82,-417.14 1051.22,-394.61 1003.3,-379.54"/>
<polygon fill="black" stroke="black" points="1004.31,-376.19 993.72,-376.53 1002.22,-382.87 1004.31,-376.19"/>
</g>
<!-- roo_dashboard -->
<g id="node6" class="node">
<title>roo_dashboard</title>
<polygon fill="plum" stroke="black" points="115.5,-780 18.5,-780 18.5,-742 115.5,-742 115.5,-780"/>
<text text-anchor="middle" x="67" y="-764.8" font-family="Times,serif" font-size="14.00">roo_dashboard</text>
<text text-anchor="middle" x="67" y="-749.8" font-family="Times,serif" font-size="14.00">1.0.1</text>
</g>
<!-- roo_dashboard&#45;&gt;roo_testing -->
<g id="edge17" class="edge">
<title>roo_dashboard&#45;&gt;roo_testing</title>
<path fill="none" stroke="red" d="M43.57,-741.82C24.25,-724.61 0,-696.86 0,-666 0,-666 0,-666 0,-93 0,-43.52 159.83,-27.29 242.99,-22.2"/>
<polygon fill="red" stroke="red" points="243.44,-25.68 253.22,-21.61 243.04,-18.7 243.44,-25.68"/>
<text text-anchor="middle" x="27" y="-364" font-family="Times,serif" font-size="10.00" fill="red">1.1.7</text>
<text text-anchor="middle" x="27" y="-353" font-family="Times,serif" font-size="10.00" fill="red">(latest: 1.1.8)</text>
</g>
<!-- roo_windows -->
<g id="node27" class="node">
<title>roo_windows</title>
<polygon fill="plum" stroke="black" points="425,-684 335,-684 335,-646 425,-646 425,-684"/>
<text text-anchor="middle" x="380" y="-668.8" font-family="Times,serif" font-size="14.00">roo_windows</text>
<text text-anchor="middle" x="380" y="-653.8" font-family="Times,serif" font-size="14.00">1.4.1</text>
</g>
<!-- roo_dashboard&#45;&gt;roo_windows -->
<g id="edge18" class="edge">
<title>roo_dashboard&#45;&gt;roo_windows</title>
<path fill="none" stroke="black" d="M115.56,-745.42C172.21,-728.4 265.65,-700.34 324.95,-682.53"/>
<polygon fill="black" stroke="black" points="326.31,-685.78 334.88,-679.55 324.3,-679.07 326.31,-685.78"/>
</g>
<!-- roo_display -->
<g id="node7" class="node">
<title>roo_display</title>
<polygon fill="plum" stroke="black" points="390,-476 310,-476 310,-438 390,-438 390,-476"/>
<text text-anchor="middle" x="350" y="-460.8" font-family="Times,serif" font-size="14.00">roo_display</text>
<text text-anchor="middle" x="350" y="-445.8" font-family="Times,serif" font-size="14.00">2.3.1</text>
</g>
<!-- roo_display&#45;&gt;roo_collections -->
<g id="edge20" class="edge">
<title>roo_display&#45;&gt;roo_collections</title>
<path fill="none" stroke="black" d="M358.54,-437.86C370.4,-413.97 393.62,-371.55 422,-342 454.32,-308.35 503.83,-288.95 542.91,-278.19"/>
<polygon fill="black" stroke="black" points="543.82,-281.57 552.6,-275.64 542.04,-274.8 543.82,-281.57"/>
</g>
<!-- roo_display&#45;&gt;roo_io -->
<g id="edge21" class="edge">
<title>roo_display&#45;&gt;roo_io</title>
<path fill="none" stroke="red" d="M379.85,-437.74C400.3,-425.64 428.28,-409.86 454,-398 473.5,-389.01 495.93,-380.57 514.31,-374.12"/>
<polygon fill="red" stroke="red" points="515.48,-377.42 523.79,-370.85 513.19,-370.8 515.48,-377.42"/>
<text text-anchor="middle" x="481" y="-412" font-family="Times,serif" font-size="10.00" fill="red">2.0.2</text>
<text text-anchor="middle" x="481" y="-401" font-family="Times,serif" font-size="10.00" fill="red">(latest: 2.0.3)</text>
</g>
<!-- roo_display&#45;&gt;roo_testing -->
<g id="edge19" class="edge">
<title>roo_display&#45;&gt;roo_testing</title>
<path fill="none" stroke="red" d="M346.83,-437.99C341.19,-404.33 330,-329.52 330,-266 330,-266 330,-266 330,-93 330,-76.4 322.17,-59.83 313.62,-46.68"/>
<polygon fill="red" stroke="red" points="316.27,-44.36 307.68,-38.17 310.53,-48.37 316.27,-44.36"/>
<text text-anchor="middle" x="357" y="-220" font-family="Times,serif" font-size="10.00" fill="red">1.1.7</text>
<text text-anchor="middle" x="357" y="-209" font-family="Times,serif" font-size="10.00" fill="red">(latest: 1.1.8)</text>
</g>
<!-- roo_flags -->
<g id="node8" class="node">
<title>roo_flags</title>
<polygon fill="#b1dbab" stroke="black" points="1401,-188 1333,-188 1333,-150 1401,-150 1401,-188"/>
<text text-anchor="middle" x="1367" y="-172.8" font-family="Times,serif" font-size="14.00">roo_flags</text>
<text text-anchor="middle" x="1367" y="-157.8" font-family="Times,serif" font-size="14.00">1.1.1</text>
</g>
<!-- roo_icons -->
<g id="node9" class="node">
<title>roo_icons</title>
<polygon fill="plum" stroke="black" points="186,-572 116,-572 116,-534 186,-534 186,-572"/>
<text text-anchor="middle" x="151" y="-556.8" font-family="Times,serif" font-size="14.00">roo_icons</text>
<text text-anchor="middle" x="151" y="-541.8" font-family="Times,serif" font-size="14.00">1.2.1</text>
</g>
<!-- roo_icons&#45;&gt;roo_display -->
<g id="edge23" class="edge">
<title>roo_icons&#45;&gt;roo_display</title>
<path fill="none" stroke="black" d="M186.12,-535.41C218.49,-520.12 266.78,-497.31 302.57,-480.41"/>
<polygon fill="black" stroke="black" points="304.29,-483.46 311.84,-476.03 301.3,-477.13 304.29,-483.46"/>
</g>
<!-- roo_icons&#45;&gt;roo_testing -->
<g id="edge22" class="edge">
<title>roo_icons&#45;&gt;roo_testing</title>
<path fill="none" stroke="red" d="M150.08,-533.9C147.6,-483.74 141,-338.67 141,-218 141,-218 141,-218 141,-93 141,-46.81 198.99,-29.83 243.09,-23.6"/>
<polygon fill="red" stroke="red" points="243.63,-27.06 253.11,-22.33 242.75,-20.12 243.63,-27.06"/>
<text text-anchor="middle" x="169" y="-268" font-family="Times,serif" font-size="10.00" fill="red">1.1.7</text>
<text text-anchor="middle" x="169" y="-257" font-family="Times,serif" font-size="10.00" fill="red">(latest: 1.1.8)</text>
</g>
<!-- roo_io&#45;&gt;roo_backport -->
<g id="edge24" class="edge">
<title>roo_io&#45;&gt;roo_backport</title>
<path fill="none" stroke="black" d="M545.48,-341.95C539.41,-318.9 531.99,-278.13 544,-246 551.28,-226.52 566.04,-208.74 579.77,-195.27"/>
<polygon fill="black" stroke="black" points="582.34,-197.66 587.23,-188.26 577.55,-192.56 582.34,-197.66"/>
</g>
<!-- roo_io&#45;&gt;roo_logging -->
<g id="edge25" class="edge">
<title>roo_io&#45;&gt;roo_logging</title>
<path fill="none" stroke="black" d="M578.31,-358.6C625.53,-355.64 725.16,-347.02 806,-324 829.35,-317.35 832.91,-309.5 856,-302 893.62,-289.78 937.38,-280.48 970.53,-274.4"/>
<polygon fill="black" stroke="black" points="971.24,-277.83 980.46,-272.62 970,-270.94 971.24,-277.83"/>
</g>
<!-- roo_io_sdfat -->
<g id="node11" class="node">
<title>roo_io_sdfat</title>
<polygon fill="plum" stroke="black" points="1457.5,-780 1372.5,-780 1372.5,-742 1457.5,-742 1457.5,-780"/>
<text text-anchor="middle" x="1415" y="-764.8" font-family="Times,serif" font-size="14.00">roo_io_sdfat</text>
<text text-anchor="middle" x="1415" y="-749.8" font-family="Times,serif" font-size="14.00">1.0.0</text>
</g>
<!-- roo_locale -->
<g id="node12" class="node">
<title>roo_locale</title>
<polygon fill="#b1dbab" stroke="black" points="278,-572 204,-572 204,-534 278,-534 278,-572"/>
<text text-anchor="middle" x="241" y="-556.8" font-family="Times,serif" font-size="14.00">roo_locale</text>
<text text-anchor="middle" x="241" y="-541.8" font-family="Times,serif" font-size="14.00">1.1.1</text>
</g>
<!-- roo_logging&#45;&gt;roo_flags -->
<g id="edge26" class="edge">
<title>roo_logging&#45;&gt;roo_flags</title>
<path fill="none" stroke="black" d="M1063.62,-252.66C1129.24,-234.78 1256.19,-200.19 1323.17,-181.94"/>
<polygon fill="black" stroke="black" points="1324.27,-185.27 1333,-179.26 1322.43,-178.52 1324.27,-185.27"/>
</g>
<!-- roo_logging&#45;&gt;roo_threads -->
<g id="edge27" class="edge">
<title>roo_logging&#45;&gt;roo_threads</title>
<path fill="none" stroke="black" d="M984.21,-245.88C952.48,-230.66 907.02,-208.85 872.96,-192.52"/>
<polygon fill="black" stroke="black" points="874.2,-189.24 863.67,-188.07 871.18,-195.55 874.2,-189.24"/>
</g>
<!-- roo_monitoring -->
<g id="node14" class="node">
<title>roo_monitoring</title>
<polygon fill="plum" stroke="black" points="510,-476 408,-476 408,-438 510,-438 510,-476"/>
<text text-anchor="middle" x="459" y="-460.8" font-family="Times,serif" font-size="14.00">roo_monitoring</text>
<text text-anchor="middle" x="459" y="-445.8" font-family="Times,serif" font-size="14.00">1.0.0</text>
</g>
<!-- roo_monitoring&#45;&gt;roo_collections -->
<g id="edge28" class="edge">
<title>roo_monitoring&#45;&gt;roo_collections</title>
<path fill="none" stroke="black" d="M427.76,-437.91C421.8,-432.92 416.38,-426.93 413,-420 408.72,-411.21 408.47,-406.66 413,-398 440.63,-345.17 500.1,-309.22 545.19,-288.34"/>
<polygon fill="black" stroke="black" points="546.9,-291.41 554.58,-284.12 544.03,-285.03 546.9,-291.41"/>
</g>
<!-- roo_monitoring&#45;&gt;roo_io -->
<g id="edge29" class="edge">
<title>roo_monitoring&#45;&gt;roo_io</title>
<path fill="none" stroke="black" d="M489.98,-437.86C497.63,-432.63 505.49,-426.54 512,-420 521.14,-410.82 529.43,-399.21 536,-388.8"/>
<polygon fill="black" stroke="black" points="539.12,-390.41 541.31,-380.04 533.13,-386.78 539.12,-390.41"/>
</g>
<!-- roo_onewire -->
<g id="node15" class="node">
<title>roo_onewire</title>
<polygon fill="#b1dbab" stroke="black" points="1087.5,-476 1002.5,-476 1002.5,-438 1087.5,-438 1087.5,-476"/>
<text text-anchor="middle" x="1045" y="-460.8" font-family="Times,serif" font-size="14.00">roo_onewire</text>
<text text-anchor="middle" x="1045" y="-445.8" font-family="Times,serif" font-size="14.00">2.0.5</text>
</g>
<!-- roo_onewire&#45;&gt;roo_quantity -->
<g id="edge31" class="edge">
<title>roo_onewire&#45;&gt;roo_quantity</title>
<path fill="none" stroke="black" d="M1054.25,-437.88C1061.29,-424.09 1071.1,-404.9 1079.08,-389.26"/>
<polygon fill="black" stroke="black" points="1082.34,-390.57 1083.77,-380.07 1076.11,-387.38 1082.34,-390.57"/>
</g>
<!-- roo_onewire&#45;&gt;roo_scheduler -->
<g id="edge30" class="edge">
<title>roo_onewire&#45;&gt;roo_scheduler</title>
<path fill="none" stroke="black" d="M1026.1,-437.88C1011.06,-423.44 989.82,-403.07 973.14,-387.07"/>
<polygon fill="black" stroke="black" points="975.48,-384.46 965.84,-380.07 970.63,-389.52 975.48,-384.46"/>
</g>
<!-- roo_powersafefs -->
<g id="node16" class="node">
<title>roo_powersafefs</title>
<polygon fill="plum" stroke="black" points="778.5,-284 671.5,-284 671.5,-246 778.5,-246 778.5,-284"/>
<text text-anchor="middle" x="725" y="-268.8" font-family="Times,serif" font-size="14.00">roo_powersafefs</text>
<text text-anchor="middle" x="725" y="-253.8" font-family="Times,serif" font-size="14.00">1.0.0</text>
</g>
<!-- roo_powersafefs&#45;&gt;roo_threads -->
<g id="edge32" class="edge">
<title>roo_powersafefs&#45;&gt;roo_threads</title>
<path fill="none" stroke="black" d="M744.47,-245.88C759.98,-231.44 781.87,-211.07 799.06,-195.07"/>
<polygon fill="black" stroke="black" points="801.65,-197.44 806.59,-188.07 796.88,-192.32 801.65,-197.44"/>
</g>
<!-- roo_prefs&#45;&gt;roo_logging -->
<g id="edge33" class="edge">
<title>roo_prefs&#45;&gt;roo_logging</title>
<path fill="none" stroke="black" d="M965.67,-437.94C977.52,-423.3 993.19,-401.62 1002,-380 1013.37,-352.08 1018.29,-317.73 1020.4,-294.08"/>
<polygon fill="black" stroke="black" points="1023.9,-294.27 1021.19,-284.03 1016.92,-293.72 1023.9,-294.27"/>
</g>
<!-- roo_prefs&#45;&gt;roo_scheduler -->
<g id="edge34" class="edge">
<title>roo_prefs&#45;&gt;roo_scheduler</title>
<path fill="none" stroke="black" d="M949.42,-437.88C948.99,-424.35 948.39,-405.62 947.9,-390.15"/>
<polygon fill="black" stroke="black" points="951.39,-389.95 947.58,-380.07 944.4,-390.18 951.39,-389.95"/>
</g>
<!-- roo_quantity&#45;&gt;roo_logging -->
<g id="edge35" class="edge">
<title>roo_quantity&#45;&gt;roo_logging</title>
<path fill="none" stroke="black" d="M1079.31,-341.88C1068.7,-327.83 1053.85,-308.17 1041.93,-292.38"/>
<polygon fill="black" stroke="black" points="1044.47,-289.94 1035.65,-284.07 1038.88,-294.16 1044.47,-289.94"/>
</g>
<!-- roo_scheduler&#45;&gt;roo_collections -->
<g id="edge36" class="edge">
<title>roo_scheduler&#45;&gt;roo_collections</title>
<path fill="none" stroke="black" d="M900.46,-351.28C883.91,-348.25 865.14,-344.89 848,-342 796.55,-333.33 779.85,-344.79 732,-324 717.49,-317.69 717.86,-309.65 704,-302 696.16,-297.67 679.95,-291.52 662.77,-285.52"/>
<polygon fill="black" stroke="black" points="663.77,-282.16 653.18,-282.21 661.49,-288.78 663.77,-282.16"/>
</g>
<!-- roo_scheduler&#45;&gt;roo_threads -->
<g id="edge37" class="edge">
<title>roo_scheduler&#45;&gt;roo_threads</title>
<path fill="none" stroke="black" d="M935.4,-341.78C913.99,-308.16 868.17,-236.22 843.16,-196.94"/>
<polygon fill="black" stroke="black" points="845.89,-194.72 837.57,-188.16 839.99,-198.48 845.89,-194.72"/>
</g>
<!-- roo_threads&#45;&gt;roo_time -->
<g id="edge38" class="edge">
<title>roo_threads&#45;&gt;roo_time</title>
<path fill="none" stroke="black" d="M785.92,-159.27C722.46,-145.44 599.34,-118.61 534.06,-104.38"/>
<polygon fill="black" stroke="black" points="534.61,-100.92 524.09,-102.21 533.12,-107.76 534.61,-100.92"/>
</g>
<!-- roo_time&#45;&gt;roo_testing -->
<g id="edge39" class="edge">
<title>roo_time&#45;&gt;roo_testing</title>
<path fill="none" stroke="black" d="M460.32,-74.95C448.32,-68.39 434.28,-61.29 421,-56 394.99,-45.64 364.91,-37.06 340.34,-30.88"/>
<polygon fill="black" stroke="black" points="341.07,-27.45 330.53,-28.46 339.4,-34.25 341.07,-27.45"/>
</g>
<!-- roo_time_ds3231 -->
<g id="node23" class="node">
<title>roo_time_ds3231</title>
<polygon fill="#b1dbab" stroke="black" points="547,-188 435,-188 435,-150 547,-150 547,-188"/>
<text text-anchor="middle" x="491" y="-172.8" font-family="Times,serif" font-size="14.00">roo_time_ds3231</text>
<text text-anchor="middle" x="491" y="-157.8" font-family="Times,serif" font-size="14.00">1.1.3</text>
</g>
<!-- roo_time_ds3231&#45;&gt;roo_time -->
<g id="edge40" class="edge">
<title>roo_time_ds3231&#45;&gt;roo_time</title>
<path fill="none" stroke="black" d="M491,-149.96C491,-141.88 491,-132.18 491,-123.18"/>
<polygon fill="black" stroke="black" points="494.5,-123.09 491,-113.09 487.5,-123.09 494.5,-123.09"/>
</g>
<!-- roo_transceivers&#45;&gt;roo_prefs -->
<g id="edge41" class="edge">
<title>roo_transceivers&#45;&gt;roo_prefs</title>
<path fill="none" stroke="black" d="M952.42,-533.88C951.99,-520.35 951.39,-501.62 950.9,-486.15"/>
<polygon fill="black" stroke="black" points="954.39,-485.95 950.58,-476.07 947.4,-486.18 954.39,-485.95"/>
</g>
<!-- roo_transport -->
<g id="node25" class="node">
<title>roo_transport</title>
<polygon fill="plum" stroke="black" points="693.5,-476 604.5,-476 604.5,-438 693.5,-438 693.5,-476"/>
<text text-anchor="middle" x="649" y="-460.8" font-family="Times,serif" font-size="14.00">roo_transport</text>
<text text-anchor="middle" x="649" y="-445.8" font-family="Times,serif" font-size="14.00">1.0.1</text>
</g>
<!-- roo_transport&#45;&gt;roo_collections -->
<g id="edge43" class="edge">
<title>roo_transport&#45;&gt;roo_collections</title>
<path fill="none" stroke="black" d="M658.23,-437.76C660.6,-432.2 662.8,-425.98 664,-420 665.92,-410.41 666.1,-407.55 664,-398 655.55,-359.57 634.78,-319.01 619.82,-293.15"/>
<polygon fill="black" stroke="black" points="622.71,-291.15 614.61,-284.32 616.68,-294.71 622.71,-291.15"/>
</g>
<!-- roo_transport&#45;&gt;roo_io -->
<g id="edge44" class="edge">
<title>roo_transport&#45;&gt;roo_io</title>
<path fill="none" stroke="red" d="M629.05,-437.81C622.9,-432.14 616.14,-425.85 610,-420 598.87,-409.4 586.73,-397.52 576.38,-387.29"/>
<polygon fill="red" stroke="red" points="578.76,-384.73 569.19,-380.18 573.84,-389.7 578.76,-384.73"/>
<text text-anchor="middle" x="637" y="-412" font-family="Times,serif" font-size="10.00" fill="red">2.0.2</text>
<text text-anchor="middle" x="637" y="-401" font-family="Times,serif" font-size="10.00" fill="red">(latest: 2.0.3)</text>
</g>
<!-- roo_transport&#45;&gt;roo_logging -->
<g id="edge45" class="edge">
<title>roo_transport&#45;&gt;roo_logging</title>
<path fill="none" stroke="red" d="M693.77,-441.86C722.25,-432.73 754.3,-422.16 757,-420 788.6,-394.7 773.6,-368.72 804,-342 818.95,-328.86 827.2,-332.9 845,-324 862.8,-315.1 865.55,-309.46 884,-302 911.78,-290.76 944.14,-282.1 970.54,-276.1"/>
<polygon fill="red" stroke="red" points="971.34,-279.5 980.34,-273.92 969.82,-272.67 971.34,-279.5"/>
<text text-anchor="middle" x="831" y="-364" font-family="Times,serif" font-size="10.00" fill="red">1.4.2</text>
<text text-anchor="middle" x="831" y="-353" font-family="Times,serif" font-size="10.00" fill="red">(latest: 1.4.3)</text>
</g>
<!-- roo_transport&#45;&gt;roo_testing -->
<g id="edge42" class="edge">
<title>roo_transport&#45;&gt;roo_testing</title>
<path fill="none" stroke="red" d="M604.33,-449.69C544.19,-441 443.95,-425.78 438,-420 387.91,-371.37 407,-335.82 407,-266 407,-266 407,-266 407,-93 407,-59.46 371.7,-40.68 340.22,-30.59"/>
<polygon fill="red" stroke="red" points="341.2,-27.23 330.61,-27.74 339.2,-33.94 341.2,-27.23"/>
<text text-anchor="middle" x="434" y="-220" font-family="Times,serif" font-size="10.00" fill="red">1.1.7</text>
<text text-anchor="middle" x="434" y="-209" font-family="Times,serif" font-size="10.00" fill="red">(latest: 1.1.8)</text>
</g>
<!-- roo_transport&#45;&gt;roo_threads -->
<g id="edge46" class="edge">
<title>roo_transport&#45;&gt;roo_threads</title>
<path fill="none" stroke="red" d="M667.12,-437.99C696.08,-408.29 753.02,-346.14 787,-284 802.12,-256.34 812.96,-221.74 819.31,-197.96"/>
<polygon fill="red" stroke="red" points="822.73,-198.72 821.83,-188.17 815.95,-196.98 822.73,-198.72"/>
<text text-anchor="middle" x="803" y="-316" font-family="Times,serif" font-size="10.00" fill="red">1.1.5</text>
<text text-anchor="middle" x="803" y="-305" font-family="Times,serif" font-size="10.00" fill="red">(latest: 1.1.6)</text>
</g>
<!-- roo_wifi -->
<g id="node26" class="node">
<title>roo_wifi</title>
<polygon fill="#b1dbab" stroke="black" points="1326.5,-628 1263.5,-628 1263.5,-590 1326.5,-590 1326.5,-628"/>
<text text-anchor="middle" x="1295" y="-612.8" font-family="Times,serif" font-size="14.00">roo_wifi</text>
<text text-anchor="middle" x="1295" y="-597.8" font-family="Times,serif" font-size="14.00">1.1.2</text>
</g>
<!-- roo_wifi&#45;&gt;roo_prefs -->
<g id="edge47" class="edge">
<title>roo_wifi&#45;&gt;roo_prefs</title>
<path fill="none" stroke="black" d="M1265.02,-589.9C1256.19,-584.35 1246.59,-578.09 1238,-572 1215.8,-556.27 1214.14,-546.56 1190,-534 1111.8,-493.3 1081.23,-505.3 993.64,-475.98"/>
<polygon fill="black" stroke="black" points="994.72,-472.65 984.13,-472.71 992.45,-479.27 994.72,-472.65"/>
</g>
<!-- roo_windows&#45;&gt;roo_icons -->
<g id="edge51" class="edge">
<title>roo_windows&#45;&gt;roo_icons</title>
<path fill="none" stroke="black" d="M334.88,-654.53C311.04,-648.61 281.68,-639.83 257,-628 229.25,-614.7 200.82,-594.42 180.4,-578.45"/>
<polygon fill="black" stroke="black" points="182.44,-575.6 172.43,-572.12 178.09,-581.08 182.44,-575.6"/>
</g>
<!-- roo_windows&#45;&gt;roo_io -->
<g id="edge52" class="edge">
<title>roo_windows&#45;&gt;roo_io</title>
<path fill="none" stroke="red" d="M396.85,-646C425.82,-614.13 485.2,-544.65 519,-476 532.62,-448.33 541.27,-413.94 546.09,-390.21"/>
<polygon fill="red" stroke="red" points="549.58,-390.6 548.04,-380.12 542.71,-389.27 549.58,-390.6"/>
<text text-anchor="middle" x="536" y="-508" font-family="Times,serif" font-size="10.00" fill="red">2.0.2</text>
<text text-anchor="middle" x="536" y="-497" font-family="Times,serif" font-size="10.00" fill="red">(latest: 2.0.3)</text>
</g>
<!-- roo_windows&#45;&gt;roo_locale -->
<g id="edge49" class="edge">
<title>roo_windows&#45;&gt;roo_locale</title>
<path fill="none" stroke="black" d="M334.76,-651.21C320.13,-645.64 304.47,-638.04 292,-628 276.3,-615.36 263.46,-596.63 254.59,-581.18"/>
<polygon fill="black" stroke="black" points="257.47,-579.15 249.59,-572.07 251.33,-582.52 257.47,-579.15"/>
</g>
<!-- roo_windows&#45;&gt;roo_logging -->
<g id="edge50" class="edge">
<title>roo_windows&#45;&gt;roo_logging</title>
<path fill="none" stroke="red" d="M425.18,-653.67C450.49,-647.35 482.41,-638.46 510,-628 615.93,-587.82 649.04,-584.87 739,-516 802.77,-467.17 805.22,-440.54 858,-380 872.7,-363.14 873.76,-356.25 891,-342 916.47,-320.95 948.51,-302.25 974.52,-288.67"/>
<polygon fill="red" stroke="red" points="976.16,-291.76 983.45,-284.08 972.96,-285.53 976.16,-291.76"/>
<text text-anchor="middle" x="840" y="-460" font-family="Times,serif" font-size="10.00" fill="red">1.4.2</text>
<text text-anchor="middle" x="840" y="-449" font-family="Times,serif" font-size="10.00" fill="red">(latest: 1.4.3)</text>
</g>
<!-- roo_windows&#45;&gt;roo_scheduler -->
<g id="edge53" class="edge">
<title>roo_windows&#45;&gt;roo_scheduler</title>
<path fill="none" stroke="red" d="M420.45,-645.79C475.72,-620.16 576.97,-570.44 656,-516 658.72,-514.12 743.16,-439.69 746,-438 771.01,-423.09 840.25,-398.1 890.48,-380.88"/>
<polygon fill="red" stroke="red" points="891.92,-384.08 900.26,-377.54 889.66,-377.46 891.92,-384.08"/>
<text text-anchor="middle" x="708" y="-508" font-family="Times,serif" font-size="10.00" fill="red">2.1.4</text>
<text text-anchor="middle" x="708" y="-497" font-family="Times,serif" font-size="10.00" fill="red">(latest: 2.1.5)</text>
</g>
<!-- roo_windows&#45;&gt;roo_testing -->
<g id="edge48" class="edge">
<title>roo_windows&#45;&gt;roo_testing</title>
<path fill="none" stroke="red" d="M334.68,-660.09C296.15,-655.63 239.94,-646.43 194,-628 151.32,-610.88 145.01,-597.89 107,-572 95.68,-564.29 82,-567.69 82,-554 82,-554 82,-554 82,-93 82,-59 181.47,-37.22 243.5,-26.95"/>
<polygon fill="red" stroke="red" points="244.17,-30.38 253.48,-25.34 243.05,-23.47 244.17,-30.38"/>
<text text-anchor="middle" x="109" y="-316" font-family="Times,serif" font-size="10.00" fill="red">1.1.7</text>
<text text-anchor="middle" x="109" y="-305" font-family="Times,serif" font-size="10.00" fill="red">(latest: 1.1.8)</text>
</g>
<!-- roo_windows&#45;&gt;roo_time -->
<g id="edge54" class="edge">
<title>roo_windows&#45;&gt;roo_time</title>
<path fill="none" stroke="red" d="M366.23,-645.94C345.78,-618.67 306.8,-564.96 279,-516 238.4,-444.48 194.78,-421.46 216,-342 246.95,-226.08 379.36,-147.74 448.53,-113.91"/>
<polygon fill="red" stroke="red" points="450.36,-116.92 457.86,-109.44 447.33,-110.61 450.36,-116.92"/>
<text text-anchor="middle" x="243" y="-364" font-family="Times,serif" font-size="10.00" fill="red">1.3.2</text>
<text text-anchor="middle" x="243" y="-353" font-family="Times,serif" font-size="10.00" fill="red">(latest: 1.3.3)</text>
</g>
<!-- roo_windows_transceivers -->
<g id="node28" class="node">
<title>roo_windows_transceivers</title>
<polygon fill="plum" stroke="black" points="670.5,-780 509.5,-780 509.5,-742 670.5,-742 670.5,-780"/>
<text text-anchor="middle" x="590" y="-764.8" font-family="Times,serif" font-size="14.00">roo_windows_transceivers</text>
<text text-anchor="middle" x="590" y="-749.8" font-family="Times,serif" font-size="14.00">1.0.0</text>
</g>
<!-- roo_windows_transceivers&#45;&gt;roo_transceivers -->
<g id="edge55" class="edge">
<title>roo_windows_transceivers&#45;&gt;roo_transceivers</title>
<path fill="none" stroke="black" d="M621.9,-741.9C687.84,-704.47 839.13,-618.62 912.12,-577.2"/>
<polygon fill="black" stroke="black" points="914.08,-580.11 921.05,-572.13 910.62,-574.02 914.08,-580.11"/>
</g>
<!-- roo_windows_transceivers&#45;&gt;roo_windows -->
<g id="edge56" class="edge">
<title>roo_windows_transceivers&#45;&gt;roo_windows</title>
<path fill="none" stroke="black" d="M549.51,-741.88C515.37,-726.6 466.39,-704.67 429.84,-688.31"/>
<polygon fill="black" stroke="black" points="430.92,-684.96 420.37,-684.07 428.06,-691.35 430.92,-684.96"/>
</g>
<!-- roo_windows_wifi -->
<g id="node29" class="node">
<title>roo_windows_wifi</title>
<polygon fill="plum" stroke="black" points="1354.5,-780 1235.5,-780 1235.5,-742 1354.5,-742 1354.5,-780"/>
<text text-anchor="middle" x="1295" y="-764.8" font-family="Times,serif" font-size="14.00">roo_windows_wifi</text>
<text text-anchor="middle" x="1295" y="-749.8" font-family="Times,serif" font-size="14.00">1.1.2</text>
</g>
<!-- roo_windows_wifi&#45;&gt;roo_testing -->
<g id="edge57" class="edge">
<title>roo_windows_wifi&#45;&gt;roo_testing</title>
<path fill="none" stroke="red" d="M1352.1,-741.95C1418.47,-720.12 1519,-684.08 1519,-666 1519,-666 1519,-666 1519,-93 1519,-32.94 569.69,-22.06 341.08,-20.31"/>
<polygon fill="red" stroke="red" points="340.77,-16.81 330.75,-20.23 340.72,-23.81 340.77,-16.81"/>
<text text-anchor="middle" x="1546" y="-364" font-family="Times,serif" font-size="10.00" fill="red">1.1.7</text>
<text text-anchor="middle" x="1546" y="-353" font-family="Times,serif" font-size="10.00" fill="red">(latest: 1.1.8)</text>
</g>
<!-- roo_windows_wifi&#45;&gt;roo_wifi -->
<g id="edge58" class="edge">
<title>roo_windows_wifi&#45;&gt;roo_wifi</title>
<path fill="none" stroke="red" d="M1295,-741.91C1295,-716.23 1295,-668.96 1295,-638.54"/>
<polygon fill="red" stroke="red" points="1298.5,-638.16 1295,-628.16 1291.5,-638.16 1298.5,-638.16"/>
<text text-anchor="middle" x="1322" y="-716" font-family="Times,serif" font-size="10.00" fill="red">1.1.1</text>
<text text-anchor="middle" x="1322" y="-705" font-family="Times,serif" font-size="10.00" fill="red">(latest: 1.1.2)</text>
</g>
<!-- roo_windows_wifi&#45;&gt;roo_windows -->
<g id="edge59" class="edge">
<title>roo_windows_wifi&#45;&gt;roo_windows</title>
<path fill="none" stroke="black" d="M1235.32,-753.87C1068.16,-736.7 597.08,-688.3 435.33,-671.68"/>
<polygon fill="black" stroke="black" points="435.44,-668.18 425.13,-670.64 434.72,-675.14 435.44,-668.18"/>
</g>
</g>
</svg>
