<?xml version="1.0" encoding="UTF-8" standalone="no"?>
<!DOCTYPE svg PUBLIC "-//W3C//DTD SVG 1.1//EN"
 "http://www.w3.org/Graphics/SVG/1.1/DTD/svg11.dtd">
<!-- Generated by graphviz version 2.42.4 (0)
 -->
<!-- Title: dependencies Pages: 1 -->
<svg width="950pt" height="772pt"
 viewBox="0.00 0.00 949.50 772.00" xmlns="http://www.w3.org/2000/svg" xmlns:xlink="http://www.w3.org/1999/xlink">
<g id="graph0" class="graph" transform="scale(1 1) rotate(0) translate(4 768)">
<title>dependencies</title>
<polygon fill="white" stroke="transparent" points="-4,4 -4,-768 945.5,-768 945.5,4 -4,4"/>
<!-- roo_backport -->
<g id="node1" class="node">
<title>roo_backport</title>
<polygon fill="#b1dbab" stroke="black" points="584.5,-209 495.5,-209 495.5,-171 584.5,-171 584.5,-209"/>
<text text-anchor="middle" x="540" y="-193.8" font-family="Times,serif" font-size="14.00">roo_backport</text>
<text text-anchor="middle" x="540" y="-178.8" font-family="Times,serif" font-size="14.00">1.2.1</text>
</g>
<!-- roo_blink -->
<g id="node2" class="node">
<title>roo_blink</title>
<polygon fill="#b1dbab" stroke="red" points="252.5,-593 183.5,-593 183.5,-555 252.5,-555 252.5,-593"/>
<text text-anchor="middle" x="218" y="-577.8" font-family="Times,serif" font-size="14.00">roo_blink</text>
<text text-anchor="middle" x="218" y="-562.8" font-family="Times,serif" font-size="14.00">1.0.4</text>
</g>
<!-- roo_logging -->
<g id="node13" class="node">
<title>roo_logging</title>
<polygon fill="#b1dbab" stroke="black" points="398.5,-305 315.5,-305 315.5,-267 398.5,-267 398.5,-305"/>
<text text-anchor="middle" x="357" y="-289.8" font-family="Times,serif" font-size="14.00">roo_logging</text>
<text text-anchor="middle" x="357" y="-274.8" font-family="Times,serif" font-size="14.00">1.5.3</text>
</g>
<!-- roo_blink&#45;&gt;roo_logging -->
<g id="edge1" class="edge">
<title>roo_blink&#45;&gt;roo_logging</title>
<path fill="none" stroke="red" d="M183.23,-558.74C159.09,-548.82 131.21,-537.31 131,-537 125.57,-528.87 127.28,-524.04 131,-515 169.18,-422.24 265.38,-347.21 319.15,-310.84"/>
<polygon fill="red" stroke="red" points="321.34,-313.58 327.72,-305.12 317.46,-307.76 321.34,-313.58"/>
<text text-anchor="middle" x="220" y="-433" font-family="Times,serif" font-size="10.00" fill="red">1.5.1</text>
<text text-anchor="middle" x="220" y="-422" font-family="Times,serif" font-size="10.00" fill="red">(latest: 1.5.3)</text>
</g>
<!-- roo_scheduler -->
<g id="node19" class="node">
<title>roo_scheduler</title>
<polygon fill="#b1dbab" stroke="black" points="406.5,-497 313.5,-497 313.5,-459 406.5,-459 406.5,-497"/>
<text text-anchor="middle" x="360" y="-481.8" font-family="Times,serif" font-size="14.00">roo_scheduler</text>
<text text-anchor="middle" x="360" y="-466.8" font-family="Times,serif" font-size="14.00">2.1.7</text>
</g>
<!-- roo_blink&#45;&gt;roo_scheduler -->
<g id="edge2" class="edge">
<title>roo_blink&#45;&gt;roo_scheduler</title>
<path fill="none" stroke="red" d="M210.47,-554.92C206.58,-542.43 204.27,-526.13 213,-515 224.3,-500.59 266.88,-491.2 303.32,-485.64"/>
<polygon fill="red" stroke="red" points="304.02,-489.07 313.41,-484.17 303.01,-482.14 304.02,-489.07"/>
<text text-anchor="middle" x="240" y="-529" font-family="Times,serif" font-size="10.00" fill="red">2.1.6</text>
<text text-anchor="middle" x="240" y="-518" font-family="Times,serif" font-size="10.00" fill="red">(latest: 2.1.7)</text>
</g>
<!-- roo_collections -->
<g id="node3" class="node">
<title>roo_collections</title>
<polygon fill="#b1dbab" stroke="black" points="670,-401 570,-401 570,-363 670,-363 670,-401"/>
<text text-anchor="middle" x="620" y="-385.8" font-family="Times,serif" font-size="14.00">roo_collections</text>
<text text-anchor="middle" x="620" y="-370.8" font-family="Times,serif" font-size="14.00">1.4.1</text>
</g>
<!-- roo_collections&#45;&gt;roo_backport -->
<g id="edge3" class="edge">
<title>roo_collections&#45;&gt;roo_backport</title>
<path fill="none" stroke="black" d="M612.33,-362.78C598.23,-329.3 568.14,-257.82 551.55,-218.44"/>
<polygon fill="black" stroke="black" points="554.75,-217.02 547.65,-209.16 548.3,-219.74 554.75,-217.02"/>
</g>
<!-- roo_comms -->
<g id="node4" class="node">
<title>roo_comms</title>
<polygon fill="#b1dbab" stroke="red" points="378,-764 296,-764 296,-726 378,-726 378,-764"/>
<text text-anchor="middle" x="337" y="-748.8" font-family="Times,serif" font-size="14.00">roo_comms</text>
<text text-anchor="middle" x="337" y="-733.8" font-family="Times,serif" font-size="14.00">1.1.3</text>
</g>
<!-- roo_comms&#45;&gt;roo_blink -->
<g id="edge4" class="edge">
<title>roo_comms&#45;&gt;roo_blink</title>
<path fill="none" stroke="black" d="M324.26,-725.91C303.21,-696.01 261.03,-636.11 236.62,-601.45"/>
<polygon fill="black" stroke="black" points="239.44,-599.37 230.82,-593.21 233.72,-603.4 239.44,-599.37"/>
</g>
<!-- roo_control -->
<g id="node5" class="node">
<title>roo_control</title>
<polygon fill="#b1dbab" stroke="red" points="165,-593 85,-593 85,-555 165,-555 165,-593"/>
<text text-anchor="middle" x="125" y="-577.8" font-family="Times,serif" font-size="14.00">roo_control</text>
<text text-anchor="middle" x="125" y="-562.8" font-family="Times,serif" font-size="14.00">1.2.3</text>
</g>
<!-- roo_comms&#45;&gt;roo_control -->
<g id="edge5" class="edge">
<title>roo_comms&#45;&gt;roo_control</title>
<path fill="none" stroke="black" d="M314.31,-725.91C276.08,-695.44 198.78,-633.82 155.72,-599.49"/>
<polygon fill="black" stroke="black" points="157.85,-596.71 147.85,-593.21 153.48,-602.18 157.85,-596.71"/>
</g>
<!-- roo_io -->
<g id="node10" class="node">
<title>roo_io</title>
<polygon fill="plum" stroke="red" points="512,-401 458,-401 458,-363 512,-363 512,-401"/>
<text text-anchor="middle" x="485" y="-385.8" font-family="Times,serif" font-size="14.00">roo_io</text>
<text text-anchor="middle" x="485" y="-370.8" font-family="Times,serif" font-size="14.00">2.1.2</text>
</g>
<!-- roo_comms&#45;&gt;roo_io -->
<g id="edge6" class="edge">
<title>roo_comms&#45;&gt;roo_io</title>
<path fill="none" stroke="red" d="M344.54,-725.6C368.74,-666.58 444.53,-481.72 473.54,-410.95"/>
<polygon fill="red" stroke="red" points="476.92,-411.94 477.47,-401.36 470.44,-409.29 476.92,-411.94"/>
<text text-anchor="middle" x="442" y="-577" font-family="Times,serif" font-size="10.00" fill="red">2.1.1</text>
<text text-anchor="middle" x="442" y="-566" font-family="Times,serif" font-size="10.00" fill="red">(latest: 2.1.2)</text>
</g>
<!-- roo_transceivers -->
<g id="node24" class="node">
<title>roo_transceivers</title>
<polygon fill="#b1dbab" stroke="red" points="559,-668 453,-668 453,-630 559,-630 559,-668"/>
<text text-anchor="middle" x="506" y="-652.8" font-family="Times,serif" font-size="14.00">roo_transceivers</text>
<text text-anchor="middle" x="506" y="-637.8" font-family="Times,serif" font-size="14.00">1.1.4</text>
</g>
<!-- roo_comms&#45;&gt;roo_transceivers -->
<g id="edge7" class="edge">
<title>roo_comms&#45;&gt;roo_transceivers</title>
<path fill="none" stroke="black" d="M378.25,-733.3C397.46,-727.36 420.17,-718.94 439,-708 454.28,-699.12 469.33,-686.54 481.29,-675.36"/>
<polygon fill="black" stroke="black" points="483.88,-677.72 488.67,-668.27 479.03,-672.67 483.88,-677.72"/>
</g>
<!-- roo_quantity -->
<g id="node18" class="node">
<title>roo_quantity</title>
<polygon fill="#b1dbab" stroke="black" points="86,-497 0,-497 0,-459 86,-459 86,-497"/>
<text text-anchor="middle" x="43" y="-481.8" font-family="Times,serif" font-size="14.00">roo_quantity</text>
<text text-anchor="middle" x="43" y="-466.8" font-family="Times,serif" font-size="14.00">1.1.7</text>
</g>
<!-- roo_control&#45;&gt;roo_quantity -->
<g id="edge8" class="edge">
<title>roo_control&#45;&gt;roo_quantity</title>
<path fill="none" stroke="red" d="M84.94,-567.59C66.17,-562.82 45.46,-553.86 34,-537 28.07,-528.28 28.41,-517.13 30.91,-506.94"/>
<polygon fill="red" stroke="red" points="34.31,-507.79 33.99,-497.2 27.64,-505.68 34.31,-507.79"/>
<text text-anchor="middle" x="61" y="-529" font-family="Times,serif" font-size="10.00" fill="red">1.1.5</text>
<text text-anchor="middle" x="61" y="-518" font-family="Times,serif" font-size="10.00" fill="red">(latest: 1.1.7)</text>
</g>
<!-- roo_control&#45;&gt;roo_scheduler -->
<g id="edge9" class="edge">
<title>roo_control&#45;&gt;roo_scheduler</title>
<path fill="none" stroke="red" d="M128.11,-554.74C131.32,-541.66 137.68,-524.7 150,-515 173.21,-496.73 249.19,-487.25 303.07,-482.69"/>
<polygon fill="red" stroke="red" points="303.5,-486.17 313.19,-481.87 302.94,-479.19 303.5,-486.17"/>
<text text-anchor="middle" x="177" y="-529" font-family="Times,serif" font-size="10.00" fill="red">2.1.6</text>
<text text-anchor="middle" x="177" y="-518" font-family="Times,serif" font-size="10.00" fill="red">(latest: 2.1.7)</text>
</g>
<!-- roo_dashboard -->
<g id="node6" class="node">
<title>roo_dashboard</title>
<polygon fill="plum" stroke="red" points="838.5,-764 741.5,-764 741.5,-726 838.5,-726 838.5,-764"/>
<text text-anchor="middle" x="790" y="-748.8" font-family="Times,serif" font-size="14.00">roo_dashboard</text>
<text text-anchor="middle" x="790" y="-733.8" font-family="Times,serif" font-size="14.00">1.0.1</text>
</g>
<!-- roo_windows -->
<g id="node27" class="node">
<title>roo_windows</title>
<polygon fill="#b1dbab" stroke="red" points="755,-668 665,-668 665,-630 755,-630 755,-668"/>
<text text-anchor="middle" x="710" y="-652.8" font-family="Times,serif" font-size="14.00">roo_windows</text>
<text text-anchor="middle" x="710" y="-637.8" font-family="Times,serif" font-size="14.00">1.4.2</text>
</g>
<!-- roo_dashboard&#45;&gt;roo_windows -->
<g id="edge10" class="edge">
<title>roo_dashboard&#45;&gt;roo_windows</title>
<path fill="none" stroke="red" d="M774.58,-725.88C762.51,-711.7 745.58,-691.81 732.08,-675.94"/>
<polygon fill="red" stroke="red" points="734.52,-673.42 725.38,-668.07 729.19,-677.95 734.52,-673.42"/>
<text text-anchor="middle" x="784" y="-700" font-family="Times,serif" font-size="10.00" fill="red">1.4.1</text>
<text text-anchor="middle" x="784" y="-689" font-family="Times,serif" font-size="10.00" fill="red">(latest: 1.4.2)</text>
</g>
<!-- roo_display -->
<g id="node7" class="node">
<title>roo_display</title>
<polygon fill="khaki" stroke="red" points="705,-497 625,-497 625,-459 705,-459 705,-497"/>
<text text-anchor="middle" x="665" y="-481.8" font-family="Times,serif" font-size="14.00">roo_display</text>
<text text-anchor="middle" x="665" y="-466.8" font-family="Times,serif" font-size="14.00">2.3.2</text>
</g>
<!-- roo_display&#45;&gt;roo_collections -->
<g id="edge11" class="edge">
<title>roo_display&#45;&gt;roo_collections</title>
<path fill="none" stroke="red" d="M673.89,-458.77C678.37,-446.83 681.61,-431.22 675,-419 672.77,-414.88 669.84,-411.15 666.5,-407.8"/>
<polygon fill="red" stroke="red" points="668.49,-404.9 658.62,-401.06 663.94,-410.22 668.49,-404.9"/>
<text text-anchor="middle" x="705" y="-433" font-family="Times,serif" font-size="10.00" fill="red">1.4.0</text>
<text text-anchor="middle" x="705" y="-422" font-family="Times,serif" font-size="10.00" fill="red">(latest: 1.4.1)</text>
</g>
<!-- roo_display&#45;&gt;roo_io -->
<g id="edge12" class="edge">
<title>roo_display&#45;&gt;roo_io</title>
<path fill="none" stroke="black" d="M624.76,-463.01C620.14,-461.58 615.49,-460.21 611,-459 572.87,-448.74 556.78,-463.01 524,-441 512.75,-433.44 503.89,-421.43 497.48,-410.3"/>
<polygon fill="black" stroke="black" points="500.46,-408.45 492.67,-401.27 494.28,-411.74 500.46,-408.45"/>
</g>
<!-- roo_flags -->
<g id="node8" class="node">
<title>roo_flags</title>
<polygon fill="#b1dbab" stroke="black" points="391,-209 323,-209 323,-171 391,-171 391,-209"/>
<text text-anchor="middle" x="357" y="-193.8" font-family="Times,serif" font-size="14.00">roo_flags</text>
<text text-anchor="middle" x="357" y="-178.8" font-family="Times,serif" font-size="14.00">1.2.1</text>
</g>
<!-- roo_icons -->
<g id="node9" class="node">
<title>roo_icons</title>
<polygon fill="#b1dbab" stroke="red" points="743,-593 673,-593 673,-555 743,-555 743,-593"/>
<text text-anchor="middle" x="708" y="-577.8" font-family="Times,serif" font-size="14.00">roo_icons</text>
<text text-anchor="middle" x="708" y="-562.8" font-family="Times,serif" font-size="14.00">1.2.1</text>
</g>
<!-- roo_icons&#45;&gt;roo_display -->
<g id="edge13" class="edge">
<title>roo_icons&#45;&gt;roo_display</title>
<path fill="none" stroke="red" d="M699.71,-554.88C693.4,-541.09 684.62,-521.9 677.47,-506.26"/>
<polygon fill="red" stroke="red" points="680.61,-504.71 673.27,-497.07 674.24,-507.62 680.61,-504.71"/>
<text text-anchor="middle" x="717" y="-529" font-family="Times,serif" font-size="10.00" fill="red">2.3.1</text>
<text text-anchor="middle" x="717" y="-518" font-family="Times,serif" font-size="10.00" fill="red">(latest: 2.3.2)</text>
</g>
<!-- roo_io&#45;&gt;roo_logging -->
<g id="edge14" class="edge">
<title>roo_io&#45;&gt;roo_logging</title>
<path fill="none" stroke="red" d="M460.32,-362.88C440.22,-348.12 411.68,-327.15 389.68,-311"/>
<polygon fill="red" stroke="red" points="391.74,-308.17 381.6,-305.07 387.59,-313.81 391.74,-308.17"/>
<text text-anchor="middle" x="460" y="-337" font-family="Times,serif" font-size="10.00" fill="red">1.5.2</text>
<text text-anchor="middle" x="460" y="-326" font-family="Times,serif" font-size="10.00" fill="red">(latest: 1.5.3)</text>
</g>
<!-- roo_io_sdfat -->
<g id="node11" class="node">
<title>roo_io_sdfat</title>
<polygon fill="plum" stroke="black" points="941.5,-764 856.5,-764 856.5,-726 941.5,-726 941.5,-764"/>
<text text-anchor="middle" x="899" y="-748.8" font-family="Times,serif" font-size="14.00">roo_io_sdfat</text>
<text text-anchor="middle" x="899" y="-733.8" font-family="Times,serif" font-size="14.00">1.0.0</text>
</g>
<!-- roo_locale -->
<g id="node12" class="node">
<title>roo_locale</title>
<polygon fill="#b1dbab" stroke="black" points="835,-593 761,-593 761,-555 835,-555 835,-593"/>
<text text-anchor="middle" x="798" y="-577.8" font-family="Times,serif" font-size="14.00">roo_locale</text>
<text text-anchor="middle" x="798" y="-562.8" font-family="Times,serif" font-size="14.00">1.1.1</text>
</g>
<!-- roo_logging&#45;&gt;roo_backport -->
<g id="edge15" class="edge">
<title>roo_logging&#45;&gt;roo_backport</title>
<path fill="none" stroke="black" d="M392.28,-266.88C421.78,-251.73 463.99,-230.04 495.75,-213.73"/>
<polygon fill="black" stroke="black" points="497.53,-216.75 504.82,-209.07 494.33,-210.52 497.53,-216.75"/>
</g>
<!-- roo_logging&#45;&gt;roo_flags -->
<g id="edge16" class="edge">
<title>roo_logging&#45;&gt;roo_flags</title>
<path fill="none" stroke="black" d="M357,-266.88C357,-253.35 357,-234.62 357,-219.15"/>
<polygon fill="black" stroke="black" points="360.5,-219.07 357,-209.07 353.5,-219.07 360.5,-219.07"/>
</g>
<!-- roo_threads -->
<g id="node21" class="node">
<title>roo_threads</title>
<polygon fill="#b1dbab" stroke="black" points="266,-209 186,-209 186,-171 266,-171 266,-209"/>
<text text-anchor="middle" x="226" y="-193.8" font-family="Times,serif" font-size="14.00">roo_threads</text>
<text text-anchor="middle" x="226" y="-178.8" font-family="Times,serif" font-size="14.00">1.2.1</text>
</g>
<!-- roo_logging&#45;&gt;roo_threads -->
<g id="edge17" class="edge">
<title>roo_logging&#45;&gt;roo_threads</title>
<path fill="none" stroke="black" d="M335.47,-266.81C321.19,-255.02 301.87,-239.58 284,-227 278,-222.78 271.52,-218.49 265.13,-214.43"/>
<polygon fill="black" stroke="black" points="266.86,-211.38 256.53,-209.03 263.15,-217.31 266.86,-211.38"/>
</g>
<!-- roo_monitoring -->
<g id="node14" class="node">
<title>roo_monitoring</title>
<polygon fill="khaki" stroke="red" points="825,-497 723,-497 723,-459 825,-459 825,-497"/>
<text text-anchor="middle" x="774" y="-481.8" font-family="Times,serif" font-size="14.00">roo_monitoring</text>
<text text-anchor="middle" x="774" y="-466.8" font-family="Times,serif" font-size="14.00">1.0.0</text>
</g>
<!-- roo_monitoring&#45;&gt;roo_collections -->
<g id="edge18" class="edge">
<title>roo_monitoring&#45;&gt;roo_collections</title>
<path fill="none" stroke="red" d="M766.23,-458.86C759.85,-446.01 749.65,-429.29 736,-419 719.72,-406.73 699.2,-398.6 679.96,-393.22"/>
<polygon fill="red" stroke="red" points="680.61,-389.77 670.05,-390.66 678.85,-396.55 680.61,-389.77"/>
<text text-anchor="middle" x="782" y="-433" font-family="Times,serif" font-size="10.00" fill="red">1.3.2</text>
<text text-anchor="middle" x="782" y="-422" font-family="Times,serif" font-size="10.00" fill="red">(latest: 1.4.1)</text>
</g>
<!-- roo_monitoring&#45;&gt;roo_io -->
<g id="edge19" class="edge">
<title>roo_monitoring&#45;&gt;roo_io</title>
<path fill="none" stroke="red" d="M722.77,-460.94C719.82,-460.23 716.88,-459.58 714,-459 637.76,-443.76 608.93,-476.95 540,-441 528.55,-435.03 529.8,-428.46 521,-419 517.71,-415.46 514.19,-411.8 510.68,-408.22"/>
<polygon fill="red" stroke="red" points="513.11,-405.69 503.58,-401.06 508.14,-410.62 513.11,-405.69"/>
<text text-anchor="middle" x="567" y="-433" font-family="Times,serif" font-size="10.00" fill="red">2.0.3</text>
<text text-anchor="middle" x="567" y="-422" font-family="Times,serif" font-size="10.00" fill="red">(latest: 2.1.2)</text>
</g>
<!-- roo_onewire -->
<g id="node15" class="node">
<title>roo_onewire</title>
<polygon fill="#b1dbab" stroke="red" points="377.5,-593 292.5,-593 292.5,-555 377.5,-555 377.5,-593"/>
<text text-anchor="middle" x="335" y="-577.8" font-family="Times,serif" font-size="14.00">roo_onewire</text>
<text text-anchor="middle" x="335" y="-562.8" font-family="Times,serif" font-size="14.00">2.0.7</text>
</g>
<!-- roo_onewire&#45;&gt;roo_quantity -->
<g id="edge21" class="edge">
<title>roo_onewire&#45;&gt;roo_quantity</title>
<path fill="none" stroke="red" d="M309.54,-554.64C302.39,-549.18 294.73,-543.04 288,-537 277.94,-527.97 278.96,-521.29 267,-515 238.2,-499.86 153.27,-489.27 96.66,-483.66"/>
<polygon fill="red" stroke="red" points="96.73,-480.15 86.44,-482.67 96.06,-487.12 96.73,-480.15"/>
<text text-anchor="middle" x="315" y="-529" font-family="Times,serif" font-size="10.00" fill="red">1.1.5</text>
<text text-anchor="middle" x="315" y="-518" font-family="Times,serif" font-size="10.00" fill="red">(latest: 1.1.7)</text>
</g>
<!-- roo_onewire&#45;&gt;roo_scheduler -->
<g id="edge20" class="edge">
<title>roo_onewire&#45;&gt;roo_scheduler</title>
<path fill="none" stroke="red" d="M339.82,-554.88C343.42,-541.35 348.4,-522.62 352.51,-507.15"/>
<polygon fill="red" stroke="red" points="356.01,-507.63 355.19,-497.07 349.24,-505.83 356.01,-507.63"/>
<text text-anchor="middle" x="377" y="-529" font-family="Times,serif" font-size="10.00" fill="red">2.1.6</text>
<text text-anchor="middle" x="377" y="-518" font-family="Times,serif" font-size="10.00" fill="red">(latest: 2.1.7)</text>
</g>
<!-- roo_powersafefs -->
<g id="node16" class="node">
<title>roo_powersafefs</title>
<polygon fill="plum" stroke="red" points="279.5,-305 172.5,-305 172.5,-267 279.5,-267 279.5,-305"/>
<text text-anchor="middle" x="226" y="-289.8" font-family="Times,serif" font-size="14.00">roo_powersafefs</text>
<text text-anchor="middle" x="226" y="-274.8" font-family="Times,serif" font-size="14.00">1.0.0</text>
</g>
<!-- roo_powersafefs&#45;&gt;roo_threads -->
<g id="edge22" class="edge">
<title>roo_powersafefs&#45;&gt;roo_threads</title>
<path fill="none" stroke="red" d="M226,-266.88C226,-253.35 226,-234.62 226,-219.15"/>
<polygon fill="red" stroke="red" points="229.5,-219.07 226,-209.07 222.5,-219.07 229.5,-219.07"/>
<text text-anchor="middle" x="253" y="-241" font-family="Times,serif" font-size="10.00" fill="red">1.1.6</text>
<text text-anchor="middle" x="253" y="-230" font-family="Times,serif" font-size="10.00" fill="red">(latest: 1.2.1)</text>
</g>
<!-- roo_prefs -->
<g id="node17" class="node">
<title>roo_prefs</title>
<polygon fill="#b1dbab" stroke="red" points="565,-593 497,-593 497,-555 565,-555 565,-593"/>
<text text-anchor="middle" x="531" y="-577.8" font-family="Times,serif" font-size="14.00">roo_prefs</text>
<text text-anchor="middle" x="531" y="-562.8" font-family="Times,serif" font-size="14.00">1.2.7</text>
</g>
<!-- roo_prefs&#45;&gt;roo_logging -->
<g id="edge23" class="edge">
<title>roo_prefs&#45;&gt;roo_logging</title>
<path fill="none" stroke="red" d="M530.29,-554.91C529.11,-542.88 526.18,-527.12 519,-515 506.06,-493.17 447.55,-461.06 432,-441 401.41,-401.56 378.7,-347.64 366.68,-315.18"/>
<polygon fill="red" stroke="red" points="369.85,-313.65 363.15,-305.44 363.26,-316.04 369.85,-313.65"/>
<text text-anchor="middle" x="459" y="-433" font-family="Times,serif" font-size="10.00" fill="red">1.5.1</text>
<text text-anchor="middle" x="459" y="-422" font-family="Times,serif" font-size="10.00" fill="red">(latest: 1.5.3)</text>
</g>
<!-- roo_prefs&#45;&gt;roo_scheduler -->
<g id="edge24" class="edge">
<title>roo_prefs&#45;&gt;roo_scheduler</title>
<path fill="none" stroke="red" d="M498.03,-554.88C470.59,-539.79 431.36,-518.23 401.73,-501.94"/>
<polygon fill="red" stroke="red" points="403.32,-498.82 392.87,-497.07 399.95,-504.95 403.32,-498.82"/>
<text text-anchor="middle" x="488" y="-529" font-family="Times,serif" font-size="10.00" fill="red">2.1.6</text>
<text text-anchor="middle" x="488" y="-518" font-family="Times,serif" font-size="10.00" fill="red">(latest: 2.1.7)</text>
</g>
<!-- roo_quantity&#45;&gt;roo_logging -->
<g id="edge25" class="edge">
<title>roo_quantity&#45;&gt;roo_logging</title>
<path fill="none" stroke="black" d="M49.34,-458.77C61.96,-425.5 93.61,-355.39 146,-323 200.11,-289.55 225.54,-317.05 288,-305 293.68,-303.9 299.6,-302.61 305.46,-301.22"/>
<polygon fill="black" stroke="black" points="306.36,-304.6 315.24,-298.82 304.69,-297.8 306.36,-304.6"/>
</g>
<!-- roo_scheduler&#45;&gt;roo_collections -->
<g id="edge26" class="edge">
<title>roo_scheduler&#45;&gt;roo_collections</title>
<path fill="none" stroke="black" d="M406.78,-460.09C449.78,-444.54 513.73,-421.42 560.37,-404.56"/>
<polygon fill="black" stroke="black" points="561.83,-407.75 570.05,-401.06 559.45,-401.17 561.83,-407.75"/>
</g>
<!-- roo_scheduler&#45;&gt;roo_threads -->
<g id="edge27" class="edge">
<title>roo_scheduler&#45;&gt;roo_threads</title>
<path fill="none" stroke="black" d="M324.8,-458.87C277.69,-432.38 196.25,-378.16 163,-305 148.65,-273.42 174.12,-238.75 196.84,-216.04"/>
<polygon fill="black" stroke="black" points="199.27,-218.55 204.06,-209.1 194.43,-213.5 199.27,-218.55"/>
</g>
<!-- roo_testing -->
<g id="node20" class="node">
<title>roo_testing</title>
<polygon fill="#b1dbab" stroke="black" points="184.5,-38 107.5,-38 107.5,0 184.5,0 184.5,-38"/>
<text text-anchor="middle" x="146" y="-22.8" font-family="Times,serif" font-size="14.00">roo_testing</text>
<text text-anchor="middle" x="146" y="-7.8" font-family="Times,serif" font-size="14.00">1.2.1</text>
</g>
<!-- roo_time -->
<g id="node22" class="node">
<title>roo_time</title>
<polygon fill="#b1dbab" stroke="black" points="179,-113 113,-113 113,-75 179,-75 179,-113"/>
<text text-anchor="middle" x="146" y="-97.8" font-family="Times,serif" font-size="14.00">roo_time</text>
<text text-anchor="middle" x="146" y="-82.8" font-family="Times,serif" font-size="14.00">1.4.1</text>
</g>
<!-- roo_threads&#45;&gt;roo_time -->
<g id="edge28" class="edge">
<title>roo_threads&#45;&gt;roo_time</title>
<path fill="none" stroke="black" d="M216.3,-170.76C209.49,-158.81 199.72,-143.2 189,-131 185.63,-127.17 181.84,-123.39 177.94,-119.82"/>
<polygon fill="black" stroke="black" points="180.22,-117.16 170.39,-113.22 175.62,-122.44 180.22,-117.16"/>
</g>
<!-- roo_time&#45;&gt;roo_testing -->
<g id="edge29" class="edge">
<title>roo_time&#45;&gt;roo_testing</title>
<path fill="none" stroke="black" d="M146,-74.96C146,-66.88 146,-57.18 146,-48.18"/>
<polygon fill="black" stroke="black" points="149.5,-48.09 146,-38.09 142.5,-48.09 149.5,-48.09"/>
</g>
<!-- roo_time_ds3231 -->
<g id="node23" class="node">
<title>roo_time_ds3231</title>
<polygon fill="#b1dbab" stroke="red" points="168,-209 56,-209 56,-171 168,-171 168,-209"/>
<text text-anchor="middle" x="112" y="-193.8" font-family="Times,serif" font-size="14.00">roo_time_ds3231</text>
<text text-anchor="middle" x="112" y="-178.8" font-family="Times,serif" font-size="14.00">1.1.4</text>
</g>
<!-- roo_time_ds3231&#45;&gt;roo_time -->
<g id="edge30" class="edge">
<title>roo_time_ds3231&#45;&gt;roo_time</title>
<path fill="none" stroke="red" d="M118.56,-170.88C123.49,-157.22 130.35,-138.26 135.98,-122.71"/>
<polygon fill="red" stroke="red" points="139.35,-123.66 139.46,-113.07 132.77,-121.28 139.35,-123.66"/>
<text text-anchor="middle" x="160" y="-145" font-family="Times,serif" font-size="10.00" fill="red">1.4.0</text>
<text text-anchor="middle" x="160" y="-134" font-family="Times,serif" font-size="10.00" fill="red">(latest: 1.4.1)</text>
</g>
<!-- roo_transceivers&#45;&gt;roo_prefs -->
<g id="edge31" class="edge">
<title>roo_transceivers&#45;&gt;roo_prefs</title>
<path fill="none" stroke="black" d="M512.18,-629.96C515,-621.71 518.41,-611.75 521.55,-602.6"/>
<polygon fill="black" stroke="black" points="524.88,-603.68 524.8,-593.09 518.25,-601.42 524.88,-603.68"/>
</g>
<!-- roo_transport -->
<g id="node25" class="node">
<title>roo_transport</title>
<polygon fill="khaki" stroke="red" points="602.5,-497 513.5,-497 513.5,-459 602.5,-459 602.5,-497"/>
<text text-anchor="middle" x="558" y="-481.8" font-family="Times,serif" font-size="14.00">roo_transport</text>
<text text-anchor="middle" x="558" y="-466.8" font-family="Times,serif" font-size="14.00">1.1.0</text>
</g>
<!-- roo_transport&#45;&gt;roo_collections -->
<g id="edge32" class="edge">
<title>roo_transport&#45;&gt;roo_collections</title>
<path fill="none" stroke="red" d="M581.9,-458.85C587.74,-453.58 593.57,-447.48 598,-441 604.25,-431.87 609.03,-420.72 612.51,-410.65"/>
<polygon fill="red" stroke="red" points="615.86,-411.64 615.56,-401.05 609.19,-409.52 615.86,-411.64"/>
<text text-anchor="middle" x="636" y="-433" font-family="Times,serif" font-size="10.00" fill="red">1.4.0</text>
<text text-anchor="middle" x="636" y="-422" font-family="Times,serif" font-size="10.00" fill="red">(latest: 1.4.1)</text>
</g>
<!-- roo_transport&#45;&gt;roo_io -->
<g id="edge33" class="edge">
<title>roo_transport&#45;&gt;roo_io</title>
<path fill="none" stroke="black" d="M518.57,-458.96C511.17,-454.05 504.16,-448.08 499,-441 492.75,-432.43 489.26,-421.43 487.32,-411.32"/>
<polygon fill="black" stroke="black" points="490.76,-410.62 485.81,-401.25 483.83,-411.65 490.76,-410.62"/>
</g>
<!-- roo_wifi -->
<g id="node26" class="node">
<title>roo_wifi</title>
<polygon fill="#b1dbab" stroke="red" points="640.5,-668 577.5,-668 577.5,-630 640.5,-630 640.5,-668"/>
<text text-anchor="middle" x="609" y="-652.8" font-family="Times,serif" font-size="14.00">roo_wifi</text>
<text text-anchor="middle" x="609" y="-637.8" font-family="Times,serif" font-size="14.00">1.1.3</text>
</g>
<!-- roo_wifi&#45;&gt;roo_prefs -->
<g id="edge34" class="edge">
<title>roo_wifi&#45;&gt;roo_prefs</title>
<path fill="none" stroke="black" d="M589.72,-629.96C580.06,-620.92 568.22,-609.83 557.7,-599.99"/>
<polygon fill="black" stroke="black" points="560.02,-597.37 550.33,-593.09 555.24,-602.48 560.02,-597.37"/>
</g>
<!-- roo_windows&#45;&gt;roo_icons -->
<g id="edge36" class="edge">
<title>roo_windows&#45;&gt;roo_icons</title>
<path fill="none" stroke="black" d="M709.51,-629.96C709.28,-621.88 709.02,-612.18 708.77,-603.18"/>
<polygon fill="black" stroke="black" points="712.27,-602.99 708.5,-593.09 705.27,-603.18 712.27,-602.99"/>
</g>
<!-- roo_windows&#45;&gt;roo_locale -->
<g id="edge35" class="edge">
<title>roo_windows&#45;&gt;roo_locale</title>
<path fill="none" stroke="black" d="M731.75,-629.96C742.75,-620.83 756.27,-609.62 768.22,-599.7"/>
<polygon fill="black" stroke="black" points="770.73,-602.17 776.19,-593.09 766.26,-596.78 770.73,-602.17"/>
</g>
<!-- roo_windows&#45;&gt;roo_scheduler -->
<g id="edge37" class="edge">
<title>roo_windows&#45;&gt;roo_scheduler</title>
<path fill="none" stroke="red" d="M670.77,-629.99C651.58,-620.31 628.66,-607.41 610,-593 591.59,-578.78 591.48,-570.35 574,-555 551.29,-535.06 546.53,-527.48 519,-515 486.81,-500.4 448.19,-491.48 417.07,-486.17"/>
<polygon fill="red" stroke="red" points="417.26,-482.65 406.83,-484.5 416.13,-489.56 417.26,-482.65"/>
<text text-anchor="middle" x="637" y="-577" font-family="Times,serif" font-size="10.00" fill="red">2.1.6</text>
<text text-anchor="middle" x="637" y="-566" font-family="Times,serif" font-size="10.00" fill="red">(latest: 2.1.7)</text>
</g>
<!-- roo_windows_transceivers -->
<g id="node28" class="node">
<title>roo_windows_transceivers</title>
<polygon fill="khaki" stroke="red" points="586.5,-764 425.5,-764 425.5,-726 586.5,-726 586.5,-764"/>
<text text-anchor="middle" x="506" y="-748.8" font-family="Times,serif" font-size="14.00">roo_windows_transceivers</text>
<text text-anchor="middle" x="506" y="-733.8" font-family="Times,serif" font-size="14.00">1.0.0</text>
</g>
<!-- roo_windows_transceivers&#45;&gt;roo_transceivers -->
<g id="edge38" class="edge">
<title>roo_windows_transceivers&#45;&gt;roo_transceivers</title>
<path fill="none" stroke="red" d="M506,-725.88C506,-712.35 506,-693.62 506,-678.15"/>
<polygon fill="red" stroke="red" points="509.5,-678.07 506,-668.07 502.5,-678.07 509.5,-678.07"/>
<text text-anchor="middle" x="533" y="-700" font-family="Times,serif" font-size="10.00" fill="red">1.1.3</text>
<text text-anchor="middle" x="533" y="-689" font-family="Times,serif" font-size="10.00" fill="red">(latest: 1.1.4)</text>
</g>
<!-- roo_windows_transceivers&#45;&gt;roo_windows -->
<g id="edge39" class="edge">
<title>roo_windows_transceivers&#45;&gt;roo_windows</title>
<path fill="none" stroke="red" d="M545.33,-725.88C578.49,-710.6 626.08,-688.67 661.58,-672.31"/>
<polygon fill="red" stroke="red" points="663.17,-675.43 670.79,-668.07 660.24,-669.07 663.17,-675.43"/>
<text text-anchor="middle" x="653" y="-700" font-family="Times,serif" font-size="10.00" fill="red">1.4.1</text>
<text text-anchor="middle" x="653" y="-689" font-family="Times,serif" font-size="10.00" fill="red">(latest: 1.4.2)</text>
</g>
<!-- roo_windows_wifi -->
<g id="node29" class="node">
<title>roo_windows_wifi</title>
<polygon fill="plum" stroke="red" points="723.5,-764 604.5,-764 604.5,-726 723.5,-726 723.5,-764"/>
<text text-anchor="middle" x="664" y="-748.8" font-family="Times,serif" font-size="14.00">roo_windows_wifi</text>
<text text-anchor="middle" x="664" y="-733.8" font-family="Times,serif" font-size="14.00">1.1.3</text>
</g>
<!-- roo_windows_wifi&#45;&gt;roo_wifi -->
<g id="edge40" class="edge">
<title>roo_windows_wifi&#45;&gt;roo_wifi</title>
<path fill="none" stroke="black" d="M638.49,-725.93C632.67,-720.73 627.02,-714.65 623,-708 617.55,-698.99 614.22,-687.98 612.19,-677.99"/>
<polygon fill="black" stroke="black" points="615.63,-677.35 610.51,-668.07 608.73,-678.52 615.63,-677.35"/>
</g>
<!-- roo_windows_wifi&#45;&gt;roo_windows -->
<g id="edge41" class="edge">
<title>roo_windows_wifi&#45;&gt;roo_windows</title>
<path fill="none" stroke="black" d="M684.21,-725.63C689.02,-720.36 693.7,-714.31 697,-708 701.77,-698.86 704.8,-688.03 706.71,-678.21"/>
<polygon fill="black" stroke="black" points="710.21,-678.52 708.39,-668.08 703.3,-677.38 710.21,-678.52"/>
</g>
</g>
</svg>
