<?xml version="1.0" encoding="UTF-8" standalone="no"?>
<!DOCTYPE svg PUBLIC "-//W3C//DTD SVG 1.1//EN"
 "http://www.w3.org/Graphics/SVG/1.1/DTD/svg11.dtd">
<!-- Generated by graphviz version 2.42.4 (0)
 -->
<!-- Title: dependencies Pages: 1 -->
<svg width="868pt" height="772pt"
 viewBox="0.00 0.00 867.50 772.00" xmlns="http://www.w3.org/2000/svg" xmlns:xlink="http://www.w3.org/1999/xlink">
<g id="graph0" class="graph" transform="scale(1 1) rotate(0) translate(4 768)">
<title>dependencies</title>
<polygon fill="white" stroke="transparent" points="-4,4 -4,-768 863.5,-768 863.5,4 -4,4"/>
<!-- roo_backport -->
<g id="node1" class="node">
<title>roo_backport</title>
<polygon fill="#b1dbab" stroke="black" points="480.5,-209 391.5,-209 391.5,-171 480.5,-171 480.5,-209"/>
<text text-anchor="middle" x="436" y="-193.8" font-family="Times,serif" font-size="14.00">roo_backport</text>
<text text-anchor="middle" x="436" y="-178.8" font-family="Times,serif" font-size="14.00">1.2.1</text>
</g>
<!-- roo_blink -->
<g id="node2" class="node">
<title>roo_blink</title>
<polygon fill="#b1dbab" stroke="red" points="203.5,-593 134.5,-593 134.5,-555 203.5,-555 203.5,-593"/>
<text text-anchor="middle" x="169" y="-577.8" font-family="Times,serif" font-size="14.00">roo_blink</text>
<text text-anchor="middle" x="169" y="-562.8" font-family="Times,serif" font-size="14.00">1.0.4</text>
</g>
<!-- roo_logging -->
<g id="node13" class="node">
<title>roo_logging</title>
<polygon fill="#b1dbab" stroke="black" points="324.5,-305 241.5,-305 241.5,-267 324.5,-267 324.5,-305"/>
<text text-anchor="middle" x="283" y="-289.8" font-family="Times,serif" font-size="14.00">roo_logging</text>
<text text-anchor="middle" x="283" y="-274.8" font-family="Times,serif" font-size="14.00">1.5.3</text>
</g>
<!-- roo_blink&#45;&gt;roo_logging -->
<g id="edge1" class="edge">
<title>roo_blink&#45;&gt;roo_logging</title>
<path fill="none" stroke="red" d="M170.16,-554.82C172.52,-525.36 179.37,-465.76 198,-419 213.77,-379.42 241.98,-338.95 261.55,-313.45"/>
<polygon fill="red" stroke="red" points="264.44,-315.43 267.83,-305.39 258.92,-311.13 264.44,-315.43"/>
<text text-anchor="middle" x="225" y="-433" font-family="Times,serif" font-size="10.00" fill="red">1.5.1</text>
<text text-anchor="middle" x="225" y="-422" font-family="Times,serif" font-size="10.00" fill="red">(latest: 1.5.3)</text>
</g>
<!-- roo_scheduler -->
<g id="node19" class="node">
<title>roo_scheduler</title>
<polygon fill="#b1dbab" stroke="red" points="314.5,-497 221.5,-497 221.5,-459 314.5,-459 314.5,-497"/>
<text text-anchor="middle" x="268" y="-481.8" font-family="Times,serif" font-size="14.00">roo_scheduler</text>
<text text-anchor="middle" x="268" y="-466.8" font-family="Times,serif" font-size="14.00">2.1.6</text>
</g>
<!-- roo_blink&#45;&gt;roo_scheduler -->
<g id="edge2" class="edge">
<title>roo_blink&#45;&gt;roo_scheduler</title>
<path fill="none" stroke="black" d="M187.95,-554.96C199.99,-543.51 215.9,-528.38 230,-515 233.6,-511.58 237.39,-507.98 241.14,-504.44"/>
<polygon fill="black" stroke="black" points="243.81,-506.73 248.66,-497.31 239,-501.64 243.81,-506.73"/>
</g>
<!-- roo_collections -->
<g id="node3" class="node">
<title>roo_collections</title>
<polygon fill="#b1dbab" stroke="black" points="630,-401 530,-401 530,-363 630,-363 630,-401"/>
<text text-anchor="middle" x="580" y="-385.8" font-family="Times,serif" font-size="14.00">roo_collections</text>
<text text-anchor="middle" x="580" y="-370.8" font-family="Times,serif" font-size="14.00">1.4.1</text>
</g>
<!-- roo_collections&#45;&gt;roo_backport -->
<g id="edge3" class="edge">
<title>roo_collections&#45;&gt;roo_backport</title>
<path fill="none" stroke="black" d="M566.19,-362.78C540.6,-329.02 485.72,-256.61 456.04,-217.45"/>
<polygon fill="black" stroke="black" points="458.6,-215.02 449.77,-209.16 453.02,-219.25 458.6,-215.02"/>
</g>
<!-- roo_comms -->
<g id="node4" class="node">
<title>roo_comms</title>
<polygon fill="#b1dbab" stroke="red" points="296,-764 214,-764 214,-726 296,-726 296,-764"/>
<text text-anchor="middle" x="255" y="-748.8" font-family="Times,serif" font-size="14.00">roo_comms</text>
<text text-anchor="middle" x="255" y="-733.8" font-family="Times,serif" font-size="14.00">1.1.3</text>
</g>
<!-- roo_comms&#45;&gt;roo_blink -->
<g id="edge4" class="edge">
<title>roo_comms&#45;&gt;roo_blink</title>
<path fill="none" stroke="black" d="M245.8,-725.91C230.71,-696.26 200.61,-637.12 182.91,-602.33"/>
<polygon fill="black" stroke="black" points="185.92,-600.54 178.27,-593.21 179.68,-603.71 185.92,-600.54"/>
</g>
<!-- roo_control -->
<g id="node5" class="node">
<title>roo_control</title>
<polygon fill="#b1dbab" stroke="red" points="116,-593 36,-593 36,-555 116,-555 116,-593"/>
<text text-anchor="middle" x="76" y="-577.8" font-family="Times,serif" font-size="14.00">roo_control</text>
<text text-anchor="middle" x="76" y="-562.8" font-family="Times,serif" font-size="14.00">1.2.3</text>
</g>
<!-- roo_comms&#45;&gt;roo_control -->
<g id="edge5" class="edge">
<title>roo_comms&#45;&gt;roo_control</title>
<path fill="none" stroke="black" d="M235.84,-725.91C203.76,-695.63 139.11,-634.58 102.62,-600.14"/>
<polygon fill="black" stroke="black" points="104.96,-597.53 95.29,-593.21 100.16,-602.62 104.96,-597.53"/>
</g>
<!-- roo_io -->
<g id="node10" class="node">
<title>roo_io</title>
<polygon fill="plum" stroke="red" points="472,-401 418,-401 418,-363 472,-363 472,-401"/>
<text text-anchor="middle" x="445" y="-385.8" font-family="Times,serif" font-size="14.00">roo_io</text>
<text text-anchor="middle" x="445" y="-370.8" font-family="Times,serif" font-size="14.00">2.1.2</text>
</g>
<!-- roo_comms&#45;&gt;roo_io -->
<g id="edge6" class="edge">
<title>roo_comms&#45;&gt;roo_io</title>
<path fill="none" stroke="red" d="M288.27,-725.92C313.19,-709.69 343,-683.31 343,-650 343,-650 343,-650 343,-477 343,-450.48 339.72,-439.12 357,-419 369.86,-404.03 389.89,-395.19 407.6,-390.02"/>
<polygon fill="red" stroke="red" points="408.9,-393.3 417.69,-387.38 407.13,-386.53 408.9,-393.3"/>
<text text-anchor="middle" x="370" y="-577" font-family="Times,serif" font-size="10.00" fill="red">2.1.1</text>
<text text-anchor="middle" x="370" y="-566" font-family="Times,serif" font-size="10.00" fill="red">(latest: 2.1.2)</text>
</g>
<!-- roo_transceivers -->
<g id="node24" class="node">
<title>roo_transceivers</title>
<polygon fill="#b1dbab" stroke="red" points="477,-668 371,-668 371,-630 477,-630 477,-668"/>
<text text-anchor="middle" x="424" y="-652.8" font-family="Times,serif" font-size="14.00">roo_transceivers</text>
<text text-anchor="middle" x="424" y="-637.8" font-family="Times,serif" font-size="14.00">1.1.4</text>
</g>
<!-- roo_comms&#45;&gt;roo_transceivers -->
<g id="edge7" class="edge">
<title>roo_comms&#45;&gt;roo_transceivers</title>
<path fill="none" stroke="black" d="M296.25,-733.3C315.46,-727.36 338.17,-718.94 357,-708 372.28,-699.12 387.33,-686.54 399.29,-675.36"/>
<polygon fill="black" stroke="black" points="401.88,-677.72 406.67,-668.27 397.03,-672.67 401.88,-677.72"/>
</g>
<!-- roo_quantity -->
<g id="node18" class="node">
<title>roo_quantity</title>
<polygon fill="#b1dbab" stroke="black" points="138,-497 52,-497 52,-459 138,-459 138,-497"/>
<text text-anchor="middle" x="95" y="-481.8" font-family="Times,serif" font-size="14.00">roo_quantity</text>
<text text-anchor="middle" x="95" y="-466.8" font-family="Times,serif" font-size="14.00">1.1.7</text>
</g>
<!-- roo_control&#45;&gt;roo_quantity -->
<g id="edge8" class="edge">
<title>roo_control&#45;&gt;roo_quantity</title>
<path fill="none" stroke="red" d="M79.66,-554.88C82.4,-541.35 86.18,-522.62 89.31,-507.15"/>
<polygon fill="red" stroke="red" points="92.8,-507.56 91.35,-497.07 85.94,-506.18 92.8,-507.56"/>
<text text-anchor="middle" x="115" y="-529" font-family="Times,serif" font-size="10.00" fill="red">1.1.5</text>
<text text-anchor="middle" x="115" y="-518" font-family="Times,serif" font-size="10.00" fill="red">(latest: 1.1.7)</text>
</g>
<!-- roo_control&#45;&gt;roo_scheduler -->
<g id="edge9" class="edge">
<title>roo_control&#45;&gt;roo_scheduler</title>
<path fill="none" stroke="black" d="M113.02,-554.88C144.1,-539.66 188.64,-517.85 222,-501.52"/>
<polygon fill="black" stroke="black" points="223.65,-504.61 231.09,-497.07 220.57,-498.32 223.65,-504.61"/>
</g>
<!-- roo_dashboard -->
<g id="node6" class="node">
<title>roo_dashboard</title>
<polygon fill="plum" stroke="red" points="756.5,-764 659.5,-764 659.5,-726 756.5,-726 756.5,-764"/>
<text text-anchor="middle" x="708" y="-748.8" font-family="Times,serif" font-size="14.00">roo_dashboard</text>
<text text-anchor="middle" x="708" y="-733.8" font-family="Times,serif" font-size="14.00">1.0.1</text>
</g>
<!-- roo_windows -->
<g id="node27" class="node">
<title>roo_windows</title>
<polygon fill="#b1dbab" stroke="red" points="669,-668 579,-668 579,-630 669,-630 669,-668"/>
<text text-anchor="middle" x="624" y="-652.8" font-family="Times,serif" font-size="14.00">roo_windows</text>
<text text-anchor="middle" x="624" y="-637.8" font-family="Times,serif" font-size="14.00">1.4.2</text>
</g>
<!-- roo_dashboard&#45;&gt;roo_windows -->
<g id="edge10" class="edge">
<title>roo_dashboard&#45;&gt;roo_windows</title>
<path fill="none" stroke="red" d="M691.8,-725.88C679.14,-711.7 661.36,-691.81 647.18,-675.94"/>
<polygon fill="red" stroke="red" points="649.42,-673.19 640.15,-668.07 644.2,-677.86 649.42,-673.19"/>
<text text-anchor="middle" x="700" y="-700" font-family="Times,serif" font-size="10.00" fill="red">1.4.1</text>
<text text-anchor="middle" x="700" y="-689" font-family="Times,serif" font-size="10.00" fill="red">(latest: 1.4.2)</text>
</g>
<!-- roo_display -->
<g id="node7" class="node">
<title>roo_display</title>
<polygon fill="khaki" stroke="red" points="651,-497 571,-497 571,-459 651,-459 651,-497"/>
<text text-anchor="middle" x="611" y="-481.8" font-family="Times,serif" font-size="14.00">roo_display</text>
<text text-anchor="middle" x="611" y="-466.8" font-family="Times,serif" font-size="14.00">2.3.2</text>
</g>
<!-- roo_display&#45;&gt;roo_collections -->
<g id="edge11" class="edge">
<title>roo_display&#45;&gt;roo_collections</title>
<path fill="none" stroke="red" d="M626.89,-458.79C635.04,-447.13 641.94,-431.85 635,-419 632.77,-414.88 629.84,-411.15 626.5,-407.8"/>
<polygon fill="red" stroke="red" points="628.49,-404.9 618.62,-401.06 623.94,-410.22 628.49,-404.9"/>
<text text-anchor="middle" x="664" y="-433" font-family="Times,serif" font-size="10.00" fill="red">1.4.0</text>
<text text-anchor="middle" x="664" y="-422" font-family="Times,serif" font-size="10.00" fill="red">(latest: 1.4.1)</text>
</g>
<!-- roo_display&#45;&gt;roo_io -->
<g id="edge12" class="edge">
<title>roo_display&#45;&gt;roo_io</title>
<path fill="none" stroke="black" d="M570.98,-467.13C536.52,-458.39 491.21,-446.23 484,-441 473.1,-433.1 464.33,-421.15 457.88,-410.15"/>
<polygon fill="black" stroke="black" points="460.88,-408.34 453.02,-401.24 454.74,-411.7 460.88,-408.34"/>
</g>
<!-- roo_flags -->
<g id="node8" class="node">
<title>roo_flags</title>
<polygon fill="#b1dbab" stroke="black" points="317,-209 249,-209 249,-171 317,-171 317,-209"/>
<text text-anchor="middle" x="283" y="-193.8" font-family="Times,serif" font-size="14.00">roo_flags</text>
<text text-anchor="middle" x="283" y="-178.8" font-family="Times,serif" font-size="14.00">1.2.1</text>
</g>
<!-- roo_icons -->
<g id="node9" class="node">
<title>roo_icons</title>
<polygon fill="#b1dbab" stroke="red" points="646,-593 576,-593 576,-555 646,-555 646,-593"/>
<text text-anchor="middle" x="611" y="-577.8" font-family="Times,serif" font-size="14.00">roo_icons</text>
<text text-anchor="middle" x="611" y="-562.8" font-family="Times,serif" font-size="14.00">1.2.1</text>
</g>
<!-- roo_icons&#45;&gt;roo_display -->
<g id="edge13" class="edge">
<title>roo_icons&#45;&gt;roo_display</title>
<path fill="none" stroke="red" d="M611,-554.88C611,-541.35 611,-522.62 611,-507.15"/>
<polygon fill="red" stroke="red" points="614.5,-507.07 611,-497.07 607.5,-507.07 614.5,-507.07"/>
<text text-anchor="middle" x="638" y="-529" font-family="Times,serif" font-size="10.00" fill="red">2.3.1</text>
<text text-anchor="middle" x="638" y="-518" font-family="Times,serif" font-size="10.00" fill="red">(latest: 2.3.2)</text>
</g>
<!-- roo_io&#45;&gt;roo_logging -->
<g id="edge14" class="edge">
<title>roo_io&#45;&gt;roo_logging</title>
<path fill="none" stroke="red" d="M417.88,-365.27C391.93,-350.2 352.46,-327.3 322.91,-310.16"/>
<polygon fill="red" stroke="red" points="324.49,-307.03 314.08,-305.04 320.98,-313.08 324.49,-307.03"/>
<text text-anchor="middle" x="406" y="-337" font-family="Times,serif" font-size="10.00" fill="red">1.5.2</text>
<text text-anchor="middle" x="406" y="-326" font-family="Times,serif" font-size="10.00" fill="red">(latest: 1.5.3)</text>
</g>
<!-- roo_io_sdfat -->
<g id="node11" class="node">
<title>roo_io_sdfat</title>
<polygon fill="plum" stroke="black" points="859.5,-764 774.5,-764 774.5,-726 859.5,-726 859.5,-764"/>
<text text-anchor="middle" x="817" y="-748.8" font-family="Times,serif" font-size="14.00">roo_io_sdfat</text>
<text text-anchor="middle" x="817" y="-733.8" font-family="Times,serif" font-size="14.00">1.0.0</text>
</g>
<!-- roo_locale -->
<g id="node12" class="node">
<title>roo_locale</title>
<polygon fill="#b1dbab" stroke="black" points="738,-593 664,-593 664,-555 738,-555 738,-593"/>
<text text-anchor="middle" x="701" y="-577.8" font-family="Times,serif" font-size="14.00">roo_locale</text>
<text text-anchor="middle" x="701" y="-562.8" font-family="Times,serif" font-size="14.00">1.1.1</text>
</g>
<!-- roo_logging&#45;&gt;roo_backport -->
<g id="edge15" class="edge">
<title>roo_logging&#45;&gt;roo_backport</title>
<path fill="none" stroke="black" d="M312.5,-266.88C336.84,-251.92 371.55,-230.6 397.97,-214.36"/>
<polygon fill="black" stroke="black" points="399.9,-217.29 406.59,-209.07 396.24,-211.32 399.9,-217.29"/>
</g>
<!-- roo_logging&#45;&gt;roo_flags -->
<g id="edge16" class="edge">
<title>roo_logging&#45;&gt;roo_flags</title>
<path fill="none" stroke="black" d="M283,-266.88C283,-253.35 283,-234.62 283,-219.15"/>
<polygon fill="black" stroke="black" points="286.5,-219.07 283,-209.07 279.5,-219.07 286.5,-219.07"/>
</g>
<!-- roo_threads -->
<g id="node21" class="node">
<title>roo_threads</title>
<polygon fill="#b1dbab" stroke="black" points="210,-209 130,-209 130,-171 210,-171 210,-209"/>
<text text-anchor="middle" x="170" y="-193.8" font-family="Times,serif" font-size="14.00">roo_threads</text>
<text text-anchor="middle" x="170" y="-178.8" font-family="Times,serif" font-size="14.00">1.2.1</text>
</g>
<!-- roo_logging&#45;&gt;roo_threads -->
<g id="edge17" class="edge">
<title>roo_logging&#45;&gt;roo_threads</title>
<path fill="none" stroke="black" d="M267.95,-266.84C257.45,-254.78 242.74,-239.01 228,-227 222.69,-222.67 216.82,-218.47 210.92,-214.55"/>
<polygon fill="black" stroke="black" points="212.62,-211.47 202.31,-209.02 208.84,-217.37 212.62,-211.47"/>
</g>
<!-- roo_monitoring -->
<g id="node14" class="node">
<title>roo_monitoring</title>
<polygon fill="khaki" stroke="red" points="778,-497 676,-497 676,-459 778,-459 778,-497"/>
<text text-anchor="middle" x="727" y="-481.8" font-family="Times,serif" font-size="14.00">roo_monitoring</text>
<text text-anchor="middle" x="727" y="-466.8" font-family="Times,serif" font-size="14.00">1.0.0</text>
</g>
<!-- roo_monitoring&#45;&gt;roo_collections -->
<g id="edge18" class="edge">
<title>roo_monitoring&#45;&gt;roo_collections</title>
<path fill="none" stroke="red" d="M721.14,-458.89C716.11,-446.05 707.65,-429.33 695,-419 679.34,-406.21 659.11,-397.94 640,-392.61"/>
<polygon fill="red" stroke="red" points="640.69,-389.17 630.14,-390.08 638.95,-395.96 640.69,-389.17"/>
<text text-anchor="middle" x="738" y="-433" font-family="Times,serif" font-size="10.00" fill="red">1.3.2</text>
<text text-anchor="middle" x="738" y="-422" font-family="Times,serif" font-size="10.00" fill="red">(latest: 1.4.1)</text>
</g>
<!-- roo_monitoring&#45;&gt;roo_io -->
<g id="edge19" class="edge">
<title>roo_monitoring&#45;&gt;roo_io</title>
<path fill="none" stroke="red" d="M675.97,-462.44C670.6,-461.17 665.21,-459.99 660,-459 589.69,-445.68 563.3,-474.38 500,-441 488.57,-434.97 489.8,-428.46 481,-419 477.71,-415.46 474.19,-411.8 470.68,-408.22"/>
<polygon fill="red" stroke="red" points="473.11,-405.69 463.58,-401.06 468.14,-410.62 473.11,-405.69"/>
<text text-anchor="middle" x="527" y="-433" font-family="Times,serif" font-size="10.00" fill="red">2.0.3</text>
<text text-anchor="middle" x="527" y="-422" font-family="Times,serif" font-size="10.00" fill="red">(latest: 2.1.2)</text>
</g>
<!-- roo_onewire -->
<g id="node15" class="node">
<title>roo_onewire</title>
<polygon fill="#b1dbab" stroke="red" points="306.5,-593 221.5,-593 221.5,-555 306.5,-555 306.5,-593"/>
<text text-anchor="middle" x="264" y="-577.8" font-family="Times,serif" font-size="14.00">roo_onewire</text>
<text text-anchor="middle" x="264" y="-562.8" font-family="Times,serif" font-size="14.00">2.0.7</text>
</g>
<!-- roo_onewire&#45;&gt;roo_quantity -->
<g id="edge21" class="edge">
<title>roo_onewire&#45;&gt;roo_quantity</title>
<path fill="none" stroke="red" d="M231.42,-554.88C204.29,-539.79 165.53,-518.23 136.24,-501.94"/>
<polygon fill="red" stroke="red" points="137.93,-498.87 127.48,-497.07 134.52,-504.99 137.93,-498.87"/>
<text text-anchor="middle" x="222" y="-529" font-family="Times,serif" font-size="10.00" fill="red">1.1.5</text>
<text text-anchor="middle" x="222" y="-518" font-family="Times,serif" font-size="10.00" fill="red">(latest: 1.1.7)</text>
</g>
<!-- roo_onewire&#45;&gt;roo_scheduler -->
<g id="edge20" class="edge">
<title>roo_onewire&#45;&gt;roo_scheduler</title>
<path fill="none" stroke="black" d="M290.82,-554.64C296.16,-549.6 301.04,-543.66 304,-537 307.98,-528.07 307.74,-524.03 304,-515 302.48,-511.34 300.39,-507.85 297.98,-504.6"/>
<polygon fill="black" stroke="black" points="300.62,-502.3 291.44,-497.01 295.31,-506.87 300.62,-502.3"/>
</g>
<!-- roo_powersafefs -->
<g id="node16" class="node">
<title>roo_powersafefs</title>
<polygon fill="plum" stroke="red" points="223.5,-305 116.5,-305 116.5,-267 223.5,-267 223.5,-305"/>
<text text-anchor="middle" x="170" y="-289.8" font-family="Times,serif" font-size="14.00">roo_powersafefs</text>
<text text-anchor="middle" x="170" y="-274.8" font-family="Times,serif" font-size="14.00">1.0.0</text>
</g>
<!-- roo_powersafefs&#45;&gt;roo_threads -->
<g id="edge22" class="edge">
<title>roo_powersafefs&#45;&gt;roo_threads</title>
<path fill="none" stroke="red" d="M170,-266.88C170,-253.35 170,-234.62 170,-219.15"/>
<polygon fill="red" stroke="red" points="173.5,-219.07 170,-209.07 166.5,-219.07 173.5,-219.07"/>
<text text-anchor="middle" x="197" y="-241" font-family="Times,serif" font-size="10.00" fill="red">1.1.6</text>
<text text-anchor="middle" x="197" y="-230" font-family="Times,serif" font-size="10.00" fill="red">(latest: 1.2.1)</text>
</g>
<!-- roo_prefs -->
<g id="node17" class="node">
<title>roo_prefs</title>
<polygon fill="#b1dbab" stroke="red" points="483,-593 415,-593 415,-555 483,-555 483,-593"/>
<text text-anchor="middle" x="449" y="-577.8" font-family="Times,serif" font-size="14.00">roo_prefs</text>
<text text-anchor="middle" x="449" y="-562.8" font-family="Times,serif" font-size="14.00">1.2.7</text>
</g>
<!-- roo_prefs&#45;&gt;roo_logging -->
<g id="edge23" class="edge">
<title>roo_prefs&#45;&gt;roo_logging</title>
<path fill="none" stroke="red" d="M429.63,-554.92C405.12,-532.18 361.46,-492.1 323,-459 313.42,-450.76 307.06,-452.08 301,-441 279.41,-401.54 278.33,-347.98 280.19,-315.53"/>
<polygon fill="red" stroke="red" points="283.7,-315.62 280.91,-305.39 276.71,-315.12 283.7,-315.62"/>
<text text-anchor="middle" x="328" y="-433" font-family="Times,serif" font-size="10.00" fill="red">1.5.1</text>
<text text-anchor="middle" x="328" y="-422" font-family="Times,serif" font-size="10.00" fill="red">(latest: 1.5.3)</text>
</g>
<!-- roo_prefs&#45;&gt;roo_scheduler -->
<g id="edge24" class="edge">
<title>roo_prefs&#45;&gt;roo_scheduler</title>
<path fill="none" stroke="black" d="M414.96,-555.32C385.78,-540.17 343.58,-518.25 311.88,-501.79"/>
<polygon fill="black" stroke="black" points="313.3,-498.58 302.82,-497.08 310.08,-504.8 313.3,-498.58"/>
</g>
<!-- roo_quantity&#45;&gt;roo_logging -->
<g id="edge25" class="edge">
<title>roo_quantity&#45;&gt;roo_logging</title>
<path fill="none" stroke="black" d="M99.76,-458.95C109.11,-426.92 132.94,-360.03 177,-323 194.69,-308.13 205.33,-312.13 231.7,-304.78"/>
<polygon fill="black" stroke="black" points="232.76,-308.12 241.28,-301.81 230.69,-301.43 232.76,-308.12"/>
</g>
<!-- roo_scheduler&#45;&gt;roo_collections -->
<g id="edge26" class="edge">
<title>roo_scheduler&#45;&gt;roo_collections</title>
<path fill="none" stroke="red" d="M311.57,-458.93C342.34,-446.6 384.75,-430.49 423,-419 454.5,-409.54 490.21,-401.17 519.59,-394.89"/>
<polygon fill="red" stroke="red" points="520.65,-398.25 529.71,-392.76 519.2,-391.4 520.65,-398.25"/>
<text text-anchor="middle" x="450" y="-433" font-family="Times,serif" font-size="10.00" fill="red">1.4.0</text>
<text text-anchor="middle" x="450" y="-422" font-family="Times,serif" font-size="10.00" fill="red">(latest: 1.4.1)</text>
</g>
<!-- roo_scheduler&#45;&gt;roo_threads -->
<g id="edge27" class="edge">
<title>roo_scheduler&#45;&gt;roo_threads</title>
<path fill="none" stroke="red" d="M254.07,-458.83C244.96,-447.19 232.62,-431.9 221,-419 173.05,-365.76 134.42,-371.2 107,-305 93.86,-273.28 118.47,-239.08 140.67,-216.51"/>
<polygon fill="red" stroke="red" points="143.33,-218.8 148.05,-209.32 138.45,-213.79 143.33,-218.8"/>
<text text-anchor="middle" x="158" y="-337" font-family="Times,serif" font-size="10.00" fill="red">1.2.0</text>
<text text-anchor="middle" x="158" y="-326" font-family="Times,serif" font-size="10.00" fill="red">(latest: 1.2.1)</text>
</g>
<!-- roo_testing -->
<g id="node20" class="node">
<title>roo_testing</title>
<polygon fill="#b1dbab" stroke="black" points="128.5,-38 51.5,-38 51.5,0 128.5,0 128.5,-38"/>
<text text-anchor="middle" x="90" y="-22.8" font-family="Times,serif" font-size="14.00">roo_testing</text>
<text text-anchor="middle" x="90" y="-7.8" font-family="Times,serif" font-size="14.00">1.2.1</text>
</g>
<!-- roo_time -->
<g id="node22" class="node">
<title>roo_time</title>
<polygon fill="#b1dbab" stroke="black" points="123,-113 57,-113 57,-75 123,-75 123,-113"/>
<text text-anchor="middle" x="90" y="-97.8" font-family="Times,serif" font-size="14.00">roo_time</text>
<text text-anchor="middle" x="90" y="-82.8" font-family="Times,serif" font-size="14.00">1.4.1</text>
</g>
<!-- roo_threads&#45;&gt;roo_time -->
<g id="edge28" class="edge">
<title>roo_threads&#45;&gt;roo_time</title>
<path fill="none" stroke="black" d="M160.3,-170.76C153.49,-158.81 143.72,-143.2 133,-131 129.63,-127.17 125.84,-123.39 121.94,-119.82"/>
<polygon fill="black" stroke="black" points="124.22,-117.16 114.39,-113.22 119.62,-122.44 124.22,-117.16"/>
</g>
<!-- roo_time&#45;&gt;roo_testing -->
<g id="edge29" class="edge">
<title>roo_time&#45;&gt;roo_testing</title>
<path fill="none" stroke="black" d="M90,-74.96C90,-66.88 90,-57.18 90,-48.18"/>
<polygon fill="black" stroke="black" points="93.5,-48.09 90,-38.09 86.5,-48.09 93.5,-48.09"/>
</g>
<!-- roo_time_ds3231 -->
<g id="node23" class="node">
<title>roo_time_ds3231</title>
<polygon fill="#b1dbab" stroke="red" points="112,-209 0,-209 0,-171 112,-171 112,-209"/>
<text text-anchor="middle" x="56" y="-193.8" font-family="Times,serif" font-size="14.00">roo_time_ds3231</text>
<text text-anchor="middle" x="56" y="-178.8" font-family="Times,serif" font-size="14.00">1.1.4</text>
</g>
<!-- roo_time_ds3231&#45;&gt;roo_time -->
<g id="edge30" class="edge">
<title>roo_time_ds3231&#45;&gt;roo_time</title>
<path fill="none" stroke="red" d="M62.56,-170.88C67.49,-157.22 74.35,-138.26 79.98,-122.71"/>
<polygon fill="red" stroke="red" points="83.35,-123.66 83.46,-113.07 76.77,-121.28 83.35,-123.66"/>
<text text-anchor="middle" x="104" y="-145" font-family="Times,serif" font-size="10.00" fill="red">1.4.0</text>
<text text-anchor="middle" x="104" y="-134" font-family="Times,serif" font-size="10.00" fill="red">(latest: 1.4.1)</text>
</g>
<!-- roo_transceivers&#45;&gt;roo_prefs -->
<g id="edge31" class="edge">
<title>roo_transceivers&#45;&gt;roo_prefs</title>
<path fill="none" stroke="black" d="M430.18,-629.96C433,-621.71 436.41,-611.75 439.55,-602.6"/>
<polygon fill="black" stroke="black" points="442.88,-603.68 442.8,-593.09 436.25,-601.42 442.88,-603.68"/>
</g>
<!-- roo_transport -->
<g id="node25" class="node">
<title>roo_transport</title>
<polygon fill="khaki" stroke="red" points="528.5,-497 439.5,-497 439.5,-459 528.5,-459 528.5,-497"/>
<text text-anchor="middle" x="484" y="-481.8" font-family="Times,serif" font-size="14.00">roo_transport</text>
<text text-anchor="middle" x="484" y="-466.8" font-family="Times,serif" font-size="14.00">1.1.0</text>
</g>
<!-- roo_transport&#45;&gt;roo_collections -->
<g id="edge32" class="edge">
<title>roo_transport&#45;&gt;roo_collections</title>
<path fill="none" stroke="red" d="M528.75,-461.89C539.41,-456.62 550,-449.75 558,-441 565.63,-432.65 570.7,-421.39 574.03,-411.02"/>
<polygon fill="red" stroke="red" points="577.49,-411.65 576.81,-401.08 570.74,-409.77 577.49,-411.65"/>
<text text-anchor="middle" x="598" y="-433" font-family="Times,serif" font-size="10.00" fill="red">1.4.0</text>
<text text-anchor="middle" x="598" y="-422" font-family="Times,serif" font-size="10.00" fill="red">(latest: 1.4.1)</text>
</g>
<!-- roo_transport&#45;&gt;roo_io -->
<g id="edge33" class="edge">
<title>roo_transport&#45;&gt;roo_io</title>
<path fill="none" stroke="black" d="M469.37,-458.73C465.55,-453.27 461.74,-447.11 459,-441 454.79,-431.63 451.75,-420.82 449.59,-411.09"/>
<polygon fill="black" stroke="black" points="452.98,-410.19 447.59,-401.07 446.12,-411.57 452.98,-410.19"/>
</g>
<!-- roo_wifi -->
<g id="node26" class="node">
<title>roo_wifi</title>
<polygon fill="#b1dbab" stroke="red" points="558.5,-668 495.5,-668 495.5,-630 558.5,-630 558.5,-668"/>
<text text-anchor="middle" x="527" y="-652.8" font-family="Times,serif" font-size="14.00">roo_wifi</text>
<text text-anchor="middle" x="527" y="-637.8" font-family="Times,serif" font-size="14.00">1.1.3</text>
</g>
<!-- roo_wifi&#45;&gt;roo_prefs -->
<g id="edge34" class="edge">
<title>roo_wifi&#45;&gt;roo_prefs</title>
<path fill="none" stroke="black" d="M507.72,-629.96C498.06,-620.92 486.22,-609.83 475.7,-599.99"/>
<polygon fill="black" stroke="black" points="478.02,-597.37 468.33,-593.09 473.24,-602.48 478.02,-597.37"/>
</g>
<!-- roo_windows&#45;&gt;roo_icons -->
<g id="edge36" class="edge">
<title>roo_windows&#45;&gt;roo_icons</title>
<path fill="none" stroke="black" d="M620.79,-629.96C619.35,-621.88 617.62,-612.18 616.02,-603.18"/>
<polygon fill="black" stroke="black" points="619.42,-602.32 614.22,-593.09 612.53,-603.55 619.42,-602.32"/>
</g>
<!-- roo_windows&#45;&gt;roo_locale -->
<g id="edge35" class="edge">
<title>roo_windows&#45;&gt;roo_locale</title>
<path fill="none" stroke="black" d="M643.03,-629.96C652.57,-620.92 664.26,-609.83 674.64,-599.99"/>
<polygon fill="black" stroke="black" points="677.07,-602.51 681.92,-593.09 672.25,-597.43 677.07,-602.51"/>
</g>
<!-- roo_windows&#45;&gt;roo_scheduler -->
<g id="edge37" class="edge">
<title>roo_windows&#45;&gt;roo_scheduler</title>
<path fill="none" stroke="black" d="M602.36,-629.79C577.19,-609.33 533.73,-576.22 492,-555 437.61,-527.34 370.89,-506.18 324.48,-493.3"/>
<polygon fill="black" stroke="black" points="325.17,-489.86 314.6,-490.6 323.32,-496.61 325.17,-489.86"/>
</g>
<!-- roo_windows_transceivers -->
<g id="node28" class="node">
<title>roo_windows_transceivers</title>
<polygon fill="khaki" stroke="red" points="504.5,-764 343.5,-764 343.5,-726 504.5,-726 504.5,-764"/>
<text text-anchor="middle" x="424" y="-748.8" font-family="Times,serif" font-size="14.00">roo_windows_transceivers</text>
<text text-anchor="middle" x="424" y="-733.8" font-family="Times,serif" font-size="14.00">1.0.0</text>
</g>
<!-- roo_windows_transceivers&#45;&gt;roo_transceivers -->
<g id="edge38" class="edge">
<title>roo_windows_transceivers&#45;&gt;roo_transceivers</title>
<path fill="none" stroke="red" d="M424,-725.88C424,-712.35 424,-693.62 424,-678.15"/>
<polygon fill="red" stroke="red" points="427.5,-678.07 424,-668.07 420.5,-678.07 427.5,-678.07"/>
<text text-anchor="middle" x="451" y="-700" font-family="Times,serif" font-size="10.00" fill="red">1.1.3</text>
<text text-anchor="middle" x="451" y="-689" font-family="Times,serif" font-size="10.00" fill="red">(latest: 1.1.4)</text>
</g>
<!-- roo_windows_transceivers&#45;&gt;roo_windows -->
<g id="edge39" class="edge">
<title>roo_windows_transceivers&#45;&gt;roo_windows</title>
<path fill="none" stroke="red" d="M462.56,-725.88C494.93,-710.66 541.33,-688.85 576.08,-672.52"/>
<polygon fill="red" stroke="red" points="577.99,-675.49 585.56,-668.07 575.02,-669.15 577.99,-675.49"/>
<text text-anchor="middle" x="569" y="-700" font-family="Times,serif" font-size="10.00" fill="red">1.4.1</text>
<text text-anchor="middle" x="569" y="-689" font-family="Times,serif" font-size="10.00" fill="red">(latest: 1.4.2)</text>
</g>
<!-- roo_windows_wifi -->
<g id="node29" class="node">
<title>roo_windows_wifi</title>
<polygon fill="plum" stroke="red" points="641.5,-764 522.5,-764 522.5,-726 641.5,-726 641.5,-764"/>
<text text-anchor="middle" x="582" y="-748.8" font-family="Times,serif" font-size="14.00">roo_windows_wifi</text>
<text text-anchor="middle" x="582" y="-733.8" font-family="Times,serif" font-size="14.00">1.1.3</text>
</g>
<!-- roo_windows_wifi&#45;&gt;roo_wifi -->
<g id="edge40" class="edge">
<title>roo_windows_wifi&#45;&gt;roo_wifi</title>
<path fill="none" stroke="black" d="M553.93,-725.97C547.84,-720.85 542.03,-714.79 538,-708 532.73,-699.14 529.91,-688.28 528.42,-678.37"/>
<polygon fill="black" stroke="black" points="531.86,-677.67 527.27,-668.12 524.9,-678.45 531.86,-677.67"/>
</g>
<!-- roo_windows_wifi&#45;&gt;roo_windows -->
<g id="edge41" class="edge">
<title>roo_windows_wifi&#45;&gt;roo_windows</title>
<path fill="none" stroke="black" d="M600.1,-725.8C604.58,-720.43 608.96,-714.3 612,-708 616.43,-698.82 619.23,-688.05 620.99,-678.3"/>
<polygon fill="black" stroke="black" points="624.48,-678.66 622.53,-668.24 617.56,-677.6 624.48,-678.66"/>
</g>
</g>
</svg>
