<?xml version="1.0" encoding="UTF-8" standalone="no"?>
<!DOCTYPE svg PUBLIC "-//W3C//DTD SVG 1.1//EN"
 "http://www.w3.org/Graphics/SVG/1.1/DTD/svg11.dtd">
<!-- Generated by graphviz version 2.42.4 (0)
 -->
<!-- Title: dependencies Pages: 1 -->
<svg width="1238pt" height="793pt"
 viewBox="0.00 0.00 1238.00 793.00" xmlns="http://www.w3.org/2000/svg" xmlns:xlink="http://www.w3.org/1999/xlink">
<g id="graph0" class="graph" transform="scale(1 1) rotate(0) translate(4 789)">
<title>dependencies</title>
<polygon fill="white" stroke="transparent" points="-4,4 -4,-789 1234,-789 1234,4 -4,4"/>
<!-- roo_backport -->
<g id="node1" class="node">
<title>roo_backport</title>
<polygon fill="#b1dbab" stroke="black" points="640,-209 530,-209 530,-171 640,-171 640,-209"/>
<text text-anchor="middle" x="585" y="-193.8" font-family="Times,serif" font-size="14.00">roo_backport</text>
<text text-anchor="middle" x="585" y="-178.8" font-family="Times,serif" font-size="14.00">1.2.2</text>
</g>
<!-- roo_blink -->
<g id="node2" class="node">
<title>roo_blink</title>
<polygon fill="#b1dbab" stroke="red" points="320,-593 238,-593 238,-555 320,-555 320,-593"/>
<text text-anchor="middle" x="279" y="-577.8" font-family="Times,serif" font-size="14.00">roo_blink</text>
<text text-anchor="middle" x="279" y="-562.8" font-family="Times,serif" font-size="14.00">1.0.6</text>
</g>
<!-- roo_logging -->
<g id="node15" class="node">
<title>roo_logging</title>
<polygon fill="#b1dbab" stroke="black" points="488,-305 388,-305 388,-267 488,-267 488,-305"/>
<text text-anchor="middle" x="438" y="-289.8" font-family="Times,serif" font-size="14.00">roo_logging</text>
<text text-anchor="middle" x="438" y="-274.8" font-family="Times,serif" font-size="14.00">1.5.7</text>
</g>
<!-- roo_blink&#45;&gt;roo_logging -->
<g id="edge1" class="edge">
<title>roo_blink&#45;&gt;roo_logging</title>
<path fill="none" stroke="red" d="M273.22,-554.85C266.87,-531.69 259.15,-490.81 272,-459 286.26,-423.68 365.43,-350.57 409.08,-312.03"/>
<polygon fill="red" stroke="red" points="411.59,-314.48 416.8,-305.25 406.97,-309.22 411.59,-314.48"/>
<text text-anchor="middle" x="332" y="-433" font-family="Times,serif" font-size="10.00" fill="red">1.5.5</text>
<text text-anchor="middle" x="332" y="-422" font-family="Times,serif" font-size="10.00" fill="red">(latest: 1.5.7)</text>
</g>
<!-- roo_scheduler -->
<g id="node21" class="node">
<title>roo_scheduler</title>
<polygon fill="#b1dbab" stroke="red" points="397,-497 281,-497 281,-459 397,-459 397,-497"/>
<text text-anchor="middle" x="339" y="-481.8" font-family="Times,serif" font-size="14.00">roo_scheduler</text>
<text text-anchor="middle" x="339" y="-466.8" font-family="Times,serif" font-size="14.00">2.1.9</text>
</g>
<!-- roo_blink&#45;&gt;roo_scheduler -->
<g id="edge2" class="edge">
<title>roo_blink&#45;&gt;roo_scheduler</title>
<path fill="none" stroke="black" d="M290.57,-554.88C299.45,-540.96 311.85,-521.53 321.88,-505.82"/>
<polygon fill="black" stroke="black" points="325.04,-507.38 327.47,-497.07 319.14,-503.61 325.04,-507.38"/>
</g>
<!-- roo_collections -->
<g id="node3" class="node">
<title>roo_collections</title>
<polygon fill="#b1dbab" stroke="black" points="755,-401 633,-401 633,-363 755,-363 755,-401"/>
<text text-anchor="middle" x="694" y="-385.8" font-family="Times,serif" font-size="14.00">roo_collections</text>
<text text-anchor="middle" x="694" y="-370.8" font-family="Times,serif" font-size="14.00">1.4.3</text>
</g>
<!-- roo_collections&#45;&gt;roo_backport -->
<g id="edge3" class="edge">
<title>roo_collections&#45;&gt;roo_backport</title>
<path fill="none" stroke="black" d="M683.55,-362.78C664.26,-329.16 622.99,-257.22 600.46,-217.94"/>
<polygon fill="black" stroke="black" points="603.43,-216.1 595.42,-209.16 597.36,-219.58 603.43,-216.1"/>
</g>
<!-- roo_comms -->
<g id="node4" class="node">
<title>roo_comms</title>
<polygon fill="#b1dbab" stroke="red" points="261.5,-785 164.5,-785 164.5,-747 261.5,-747 261.5,-785"/>
<text text-anchor="middle" x="213" y="-769.8" font-family="Times,serif" font-size="14.00">roo_comms</text>
<text text-anchor="middle" x="213" y="-754.8" font-family="Times,serif" font-size="14.00">1.1.4</text>
</g>
<!-- roo_comms&#45;&gt;roo_blink -->
<g id="edge4" class="edge">
<title>roo_comms&#45;&gt;roo_blink</title>
<path fill="none" stroke="black" d="M213.87,-746.67C215.46,-723.66 219.86,-683.31 232,-651 238.6,-633.44 249.45,-615.52 259.06,-601.49"/>
<polygon fill="black" stroke="black" points="261.94,-603.48 264.84,-593.29 256.22,-599.45 261.94,-603.48"/>
</g>
<!-- roo_control -->
<g id="node5" class="node">
<title>roo_control</title>
<polygon fill="#b1dbab" stroke="red" points="219.5,-593 122.5,-593 122.5,-555 219.5,-555 219.5,-593"/>
<text text-anchor="middle" x="171" y="-577.8" font-family="Times,serif" font-size="14.00">roo_control</text>
<text text-anchor="middle" x="171" y="-562.8" font-family="Times,serif" font-size="14.00">1.2.5</text>
</g>
<!-- roo_comms&#45;&gt;roo_control -->
<g id="edge5" class="edge">
<title>roo_comms&#45;&gt;roo_control</title>
<path fill="none" stroke="black" d="M205.19,-746.92C202.96,-741.26 200.68,-734.94 199,-729 186.84,-685.96 178.74,-634.6 174.51,-603.42"/>
<polygon fill="black" stroke="black" points="177.95,-602.73 173.17,-593.27 171.01,-603.65 177.95,-602.73"/>
</g>
<!-- roo_io -->
<g id="node13" class="node">
<title>roo_io</title>
<polygon fill="khaki" stroke="red" points="584.5,-401 525.5,-401 525.5,-363 584.5,-363 584.5,-401"/>
<text text-anchor="middle" x="555" y="-385.8" font-family="Times,serif" font-size="14.00">roo_io</text>
<text text-anchor="middle" x="555" y="-370.8" font-family="Times,serif" font-size="14.00">2.1.6</text>
</g>
<!-- roo_comms&#45;&gt;roo_io -->
<g id="edge6" class="edge">
<title>roo_comms&#45;&gt;roo_io</title>
<path fill="none" stroke="red" d="M261.54,-749.1C264.72,-748.32 267.9,-747.61 271,-747 317.19,-737.97 446.3,-759.66 482,-729 502.12,-711.72 496,-697.52 496,-671 496,-671 496,-671 496,-525 496,-482.31 519.02,-437.54 536.31,-409.95"/>
<polygon fill="red" stroke="red" points="539.42,-411.58 541.91,-401.28 533.54,-407.78 539.42,-411.58"/>
<text text-anchor="middle" x="529" y="-577" font-family="Times,serif" font-size="10.00" fill="red">2.1.5</text>
<text text-anchor="middle" x="529" y="-566" font-family="Times,serif" font-size="10.00" fill="red">(latest: 2.1.6)</text>
</g>
<!-- roo_transceivers -->
<g id="node26" class="node">
<title>roo_transceivers</title>
<polygon fill="#b1dbab" stroke="red" points="376.5,-689 241.5,-689 241.5,-651 376.5,-651 376.5,-689"/>
<text text-anchor="middle" x="309" y="-673.8" font-family="Times,serif" font-size="14.00">roo_transceivers</text>
<text text-anchor="middle" x="309" y="-658.8" font-family="Times,serif" font-size="14.00">1.1.6</text>
</g>
<!-- roo_comms&#45;&gt;roo_transceivers -->
<g id="edge7" class="edge">
<title>roo_comms&#45;&gt;roo_transceivers</title>
<path fill="none" stroke="red" d="M229.84,-746.91C240.8,-735.31 255.51,-720.03 269,-707 272.77,-703.36 276.8,-699.59 280.81,-695.92"/>
<polygon fill="red" stroke="red" points="283.34,-698.35 288.4,-689.04 278.64,-693.16 283.34,-698.35"/>
<text text-anchor="middle" x="302" y="-721" font-family="Times,serif" font-size="10.00" fill="red">1.1.5</text>
<text text-anchor="middle" x="302" y="-710" font-family="Times,serif" font-size="10.00" fill="red">(latest: 1.1.6)</text>
</g>
<!-- roo_quantity -->
<g id="node20" class="node">
<title>roo_quantity</title>
<polygon fill="#b1dbab" stroke="red" points="224.5,-497 117.5,-497 117.5,-459 224.5,-459 224.5,-497"/>
<text text-anchor="middle" x="171" y="-481.8" font-family="Times,serif" font-size="14.00">roo_quantity</text>
<text text-anchor="middle" x="171" y="-466.8" font-family="Times,serif" font-size="14.00">1.1.8</text>
</g>
<!-- roo_control&#45;&gt;roo_quantity -->
<g id="edge8" class="edge">
<title>roo_control&#45;&gt;roo_quantity</title>
<path fill="none" stroke="black" d="M171,-554.88C171,-541.35 171,-522.62 171,-507.15"/>
<polygon fill="black" stroke="black" points="174.5,-507.07 171,-497.07 167.5,-507.07 174.5,-507.07"/>
</g>
<!-- roo_control&#45;&gt;roo_scheduler -->
<g id="edge9" class="edge">
<title>roo_control&#45;&gt;roo_scheduler</title>
<path fill="none" stroke="black" d="M203.39,-554.88C230.24,-539.86 268.56,-518.41 297.62,-502.15"/>
<polygon fill="black" stroke="black" points="299.69,-505.01 306.71,-497.07 296.27,-498.9 299.69,-505.01"/>
</g>
<!-- roo_dashboard -->
<g id="node6" class="node">
<title>roo_dashboard</title>
<polygon fill="khaki" stroke="red" points="784,-785 662,-785 662,-747 784,-747 784,-785"/>
<text text-anchor="middle" x="723" y="-769.8" font-family="Times,serif" font-size="14.00">roo_dashboard</text>
<text text-anchor="middle" x="723" y="-754.8" font-family="Times,serif" font-size="14.00">1.0.1</text>
</g>
<!-- roo_windows -->
<g id="node29" class="node">
<title>roo_windows</title>
<polygon fill="#b1dbab" stroke="red" points="750.5,-689 641.5,-689 641.5,-651 750.5,-651 750.5,-689"/>
<text text-anchor="middle" x="696" y="-673.8" font-family="Times,serif" font-size="14.00">roo_windows</text>
<text text-anchor="middle" x="696" y="-658.8" font-family="Times,serif" font-size="14.00">1.5.0</text>
</g>
<!-- roo_dashboard&#45;&gt;roo_windows -->
<g id="edge10" class="edge">
<title>roo_dashboard&#45;&gt;roo_windows</title>
<path fill="none" stroke="red" d="M717.79,-746.88C713.87,-733.22 708.43,-714.26 703.96,-698.71"/>
<polygon fill="red" stroke="red" points="707.31,-697.71 701.19,-689.07 700.59,-699.65 707.31,-697.71"/>
<text text-anchor="middle" x="745" y="-721" font-family="Times,serif" font-size="10.00" fill="red">1.4.1</text>
<text text-anchor="middle" x="745" y="-710" font-family="Times,serif" font-size="10.00" fill="red">(latest: 1.5.0)</text>
</g>
<!-- roo_display -->
<g id="node7" class="node">
<title>roo_display</title>
<polygon fill="plum" stroke="black" points="768,-497 670,-497 670,-459 768,-459 768,-497"/>
<text text-anchor="middle" x="719" y="-481.8" font-family="Times,serif" font-size="14.00">roo_display</text>
<text text-anchor="middle" x="719" y="-466.8" font-family="Times,serif" font-size="14.00">3.0.4</text>
</g>
<!-- roo_display&#45;&gt;roo_collections -->
<g id="edge11" class="edge">
<title>roo_display&#45;&gt;roo_collections</title>
<path fill="none" stroke="black" d="M714.92,-458.9C712.27,-447.43 708.63,-432.29 705,-419 704.28,-416.37 703.51,-413.65 702.71,-410.92"/>
<polygon fill="black" stroke="black" points="706.04,-409.82 699.81,-401.25 699.33,-411.84 706.04,-409.82"/>
</g>
<!-- roo_display&#45;&gt;roo_io -->
<g id="edge12" class="edge">
<title>roo_display&#45;&gt;roo_io</title>
<path fill="none" stroke="black" d="M669.91,-462.18C666.22,-461.09 662.55,-460.02 659,-459 630.2,-450.69 618.32,-458.53 594,-441 583.08,-433.13 574.3,-421.19 567.86,-410.18"/>
<polygon fill="black" stroke="black" points="570.86,-408.37 563,-401.27 564.71,-411.72 570.86,-408.37"/>
</g>
<!-- roo_display_lvgl -->
<g id="node8" class="node">
<title>roo_display_lvgl</title>
<polygon fill="plum" stroke="red" points="1123.5,-593 992.5,-593 992.5,-555 1123.5,-555 1123.5,-593"/>
<text text-anchor="middle" x="1058" y="-577.8" font-family="Times,serif" font-size="14.00">roo_display_lvgl</text>
<text text-anchor="middle" x="1058" y="-562.8" font-family="Times,serif" font-size="14.00">1.0.0</text>
</g>
<!-- roo_display_lvgl&#45;&gt;roo_display -->
<g id="edge13" class="edge">
<title>roo_display_lvgl&#45;&gt;roo_display</title>
<path fill="none" stroke="red" d="M1032.15,-554.83C1011.68,-541.43 981.82,-524.02 953,-515 881.04,-492.48 856.09,-511.07 778.45,-496.99"/>
<polygon fill="red" stroke="red" points="778.67,-493.47 768.19,-495 777.34,-500.34 778.67,-493.47"/>
<text text-anchor="middle" x="1034" y="-529" font-family="Times,serif" font-size="10.00" fill="red">3.0.3</text>
<text text-anchor="middle" x="1034" y="-518" font-family="Times,serif" font-size="10.00" fill="red">(latest: 3.0.4)</text>
</g>
<!-- roo_flags -->
<g id="node9" class="node">
<title>roo_flags</title>
<polygon fill="#b1dbab" stroke="black" points="478,-209 398,-209 398,-171 478,-171 478,-209"/>
<text text-anchor="middle" x="438" y="-193.8" font-family="Times,serif" font-size="14.00">roo_flags</text>
<text text-anchor="middle" x="438" y="-178.8" font-family="Times,serif" font-size="14.00">1.2.3</text>
</g>
<!-- roo_fonts_basic -->
<g id="node10" class="node">
<title>roo_fonts_basic</title>
<polygon fill="#b1dbab" stroke="red" points="706,-593 580,-593 580,-555 706,-555 706,-593"/>
<text text-anchor="middle" x="643" y="-577.8" font-family="Times,serif" font-size="14.00">roo_fonts_basic</text>
<text text-anchor="middle" x="643" y="-562.8" font-family="Times,serif" font-size="14.00">1.0.2</text>
</g>
<!-- roo_fonts_basic&#45;&gt;roo_display -->
<g id="edge14" class="edge">
<title>roo_fonts_basic&#45;&gt;roo_display</title>
<path fill="none" stroke="red" d="M657.65,-554.88C669.11,-540.7 685.2,-520.81 698.02,-504.94"/>
<polygon fill="red" stroke="red" points="700.83,-507.05 704.39,-497.07 695.38,-502.64 700.83,-507.05"/>
<text text-anchor="middle" x="721" y="-529" font-family="Times,serif" font-size="10.00" fill="red">3.0.2</text>
<text text-anchor="middle" x="721" y="-518" font-family="Times,serif" font-size="10.00" fill="red">(latest: 3.0.4)</text>
</g>
<!-- roo_fonts_material -->
<g id="node11" class="node">
<title>roo_fonts_material</title>
<polygon fill="#b1dbab" stroke="red" points="873.5,-593 724.5,-593 724.5,-555 873.5,-555 873.5,-593"/>
<text text-anchor="middle" x="799" y="-577.8" font-family="Times,serif" font-size="14.00">roo_fonts_material</text>
<text text-anchor="middle" x="799" y="-562.8" font-family="Times,serif" font-size="14.00">1.0.0</text>
</g>
<!-- roo_fonts_material&#45;&gt;roo_display -->
<g id="edge15" class="edge">
<title>roo_fonts_material&#45;&gt;roo_display</title>
<path fill="none" stroke="red" d="M787.54,-554.76C779.78,-542.96 768.98,-527.51 758,-515 754.82,-511.38 751.32,-507.74 747.75,-504.24"/>
<polygon fill="red" stroke="red" points="750.1,-501.63 740.43,-497.29 745.28,-506.71 750.1,-501.63"/>
<text text-anchor="middle" x="808" y="-529" font-family="Times,serif" font-size="10.00" fill="red">3.0.2</text>
<text text-anchor="middle" x="808" y="-518" font-family="Times,serif" font-size="10.00" fill="red">(latest: 3.0.4)</text>
</g>
<!-- roo_icons -->
<g id="node12" class="node">
<title>roo_icons</title>
<polygon fill="#b1dbab" stroke="red" points="974.5,-593 891.5,-593 891.5,-555 974.5,-555 974.5,-593"/>
<text text-anchor="middle" x="933" y="-577.8" font-family="Times,serif" font-size="14.00">roo_icons</text>
<text text-anchor="middle" x="933" y="-562.8" font-family="Times,serif" font-size="14.00">1.2.2</text>
</g>
<!-- roo_icons&#45;&gt;roo_display -->
<g id="edge16" class="edge">
<title>roo_icons&#45;&gt;roo_display</title>
<path fill="none" stroke="red" d="M909.94,-554.78C892.85,-542.06 868.55,-525.54 845,-515 819.03,-503.38 808.89,-505.15 777.85,-497.07"/>
<polygon fill="red" stroke="red" points="778.57,-493.64 768,-494.37 776.72,-500.39 778.57,-493.64"/>
<text text-anchor="middle" x="916" y="-529" font-family="Times,serif" font-size="10.00" fill="red">3.0.2</text>
<text text-anchor="middle" x="916" y="-518" font-family="Times,serif" font-size="10.00" fill="red">(latest: 3.0.4)</text>
</g>
<!-- roo_io&#45;&gt;roo_logging -->
<g id="edge17" class="edge">
<title>roo_io&#45;&gt;roo_logging</title>
<path fill="none" stroke="red" d="M532.44,-362.88C514.23,-348.25 488.44,-327.52 468.41,-311.43"/>
<polygon fill="red" stroke="red" points="470.48,-308.6 460.49,-305.07 466.09,-314.06 470.48,-308.6"/>
<text text-anchor="middle" x="540" y="-337" font-family="Times,serif" font-size="10.00" fill="red">1.5.5</text>
<text text-anchor="middle" x="540" y="-326" font-family="Times,serif" font-size="10.00" fill="red">(latest: 1.5.7)</text>
</g>
<!-- roo_locale -->
<g id="node14" class="node">
<title>roo_locale</title>
<polygon fill="#b1dbab" stroke="black" points="1230,-593 1142,-593 1142,-555 1230,-555 1230,-593"/>
<text text-anchor="middle" x="1186" y="-577.8" font-family="Times,serif" font-size="14.00">roo_locale</text>
<text text-anchor="middle" x="1186" y="-562.8" font-family="Times,serif" font-size="14.00">1.1.2</text>
</g>
<!-- roo_logging&#45;&gt;roo_backport -->
<g id="edge18" class="edge">
<title>roo_logging&#45;&gt;roo_backport</title>
<path fill="none" stroke="black" d="M466.34,-266.88C489.63,-251.99 522.79,-230.78 548.13,-214.57"/>
<polygon fill="black" stroke="black" points="550.2,-217.4 556.74,-209.07 546.43,-211.51 550.2,-217.4"/>
</g>
<!-- roo_logging&#45;&gt;roo_flags -->
<g id="edge19" class="edge">
<title>roo_logging&#45;&gt;roo_flags</title>
<path fill="none" stroke="black" d="M438,-266.88C438,-253.35 438,-234.62 438,-219.15"/>
<polygon fill="black" stroke="black" points="441.5,-219.07 438,-209.07 434.5,-219.07 441.5,-219.07"/>
</g>
<!-- roo_threads -->
<g id="node23" class="node">
<title>roo_threads</title>
<polygon fill="#b1dbab" stroke="black" points="353.5,-209 252.5,-209 252.5,-171 353.5,-171 353.5,-209"/>
<text text-anchor="middle" x="303" y="-193.8" font-family="Times,serif" font-size="14.00">roo_threads</text>
<text text-anchor="middle" x="303" y="-178.8" font-family="Times,serif" font-size="14.00">1.2.5</text>
</g>
<!-- roo_logging&#45;&gt;roo_threads -->
<g id="edge20" class="edge">
<title>roo_logging&#45;&gt;roo_threads</title>
<path fill="none" stroke="black" d="M420.27,-266.92C407.75,-254.75 390.2,-238.82 373,-227 366.35,-222.43 359.04,-218.05 351.73,-214.02"/>
<polygon fill="black" stroke="black" points="352.99,-210.73 342.52,-209.12 349.7,-216.91 352.99,-210.73"/>
</g>
<!-- roo_monitoring -->
<g id="node16" class="node">
<title>roo_monitoring</title>
<polygon fill="#b1dbab" stroke="red" points="650.5,-497 525.5,-497 525.5,-459 650.5,-459 650.5,-497"/>
<text text-anchor="middle" x="588" y="-481.8" font-family="Times,serif" font-size="14.00">roo_monitoring</text>
<text text-anchor="middle" x="588" y="-466.8" font-family="Times,serif" font-size="14.00">1.1.1</text>
</g>
<!-- roo_monitoring&#45;&gt;roo_collections -->
<g id="edge21" class="edge">
<title>roo_monitoring&#45;&gt;roo_collections</title>
<path fill="none" stroke="black" d="M650.63,-461.93C661.65,-456.84 672.11,-450.05 680,-441 687.15,-432.8 690.79,-421.57 692.6,-411.18"/>
<polygon fill="black" stroke="black" points="696.08,-411.56 693.85,-401.2 689.13,-410.69 696.08,-411.56"/>
</g>
<!-- roo_monitoring&#45;&gt;roo_io -->
<g id="edge22" class="edge">
<title>roo_monitoring&#45;&gt;roo_io</title>
<path fill="none" stroke="black" d="M577.23,-458.73C574.26,-453.17 571.25,-446.95 569,-441 565.4,-431.46 562.5,-420.69 560.29,-411.04"/>
<polygon fill="black" stroke="black" points="563.68,-410.16 558.17,-401.12 556.84,-411.63 563.68,-410.16"/>
</g>
<!-- roo_onewire -->
<g id="node17" class="node">
<title>roo_onewire</title>
<polygon fill="#b1dbab" stroke="red" points="104,-593 0,-593 0,-555 104,-555 104,-593"/>
<text text-anchor="middle" x="52" y="-577.8" font-family="Times,serif" font-size="14.00">roo_onewire</text>
<text text-anchor="middle" x="52" y="-562.8" font-family="Times,serif" font-size="14.00">2.0.9</text>
</g>
<!-- roo_onewire&#45;&gt;roo_quantity -->
<g id="edge24" class="edge">
<title>roo_onewire&#45;&gt;roo_quantity</title>
<path fill="none" stroke="black" d="M63.33,-554.76C71.73,-542.36 84.1,-526.22 98,-515 103.82,-510.3 110.36,-506.01 117.06,-502.15"/>
<polygon fill="black" stroke="black" points="119.13,-505.01 126.26,-497.16 115.8,-498.85 119.13,-505.01"/>
</g>
<!-- roo_onewire&#45;&gt;roo_scheduler -->
<g id="edge23" class="edge">
<title>roo_onewire&#45;&gt;roo_scheduler</title>
<path fill="none" stroke="black" d="M104.31,-555.87C152,-540.25 222.64,-517.11 273.96,-500.3"/>
<polygon fill="black" stroke="black" points="275.21,-503.57 283.63,-497.14 273.03,-496.92 275.21,-503.57"/>
</g>
<!-- roo_powersafefs -->
<g id="node18" class="node">
<title>roo_powersafefs</title>
<polygon fill="khaki" stroke="red" points="369.5,-305 236.5,-305 236.5,-267 369.5,-267 369.5,-305"/>
<text text-anchor="middle" x="303" y="-289.8" font-family="Times,serif" font-size="14.00">roo_powersafefs</text>
<text text-anchor="middle" x="303" y="-274.8" font-family="Times,serif" font-size="14.00">1.0.1</text>
</g>
<!-- roo_powersafefs&#45;&gt;roo_threads -->
<g id="edge25" class="edge">
<title>roo_powersafefs&#45;&gt;roo_threads</title>
<path fill="none" stroke="red" d="M303,-266.88C303,-253.35 303,-234.62 303,-219.15"/>
<polygon fill="red" stroke="red" points="306.5,-219.07 303,-209.07 299.5,-219.07 306.5,-219.07"/>
<text text-anchor="middle" x="336" y="-241" font-family="Times,serif" font-size="10.00" fill="red">1.2.3</text>
<text text-anchor="middle" x="336" y="-230" font-family="Times,serif" font-size="10.00" fill="red">(latest: 1.2.5)</text>
</g>
<!-- roo_prefs -->
<g id="node19" class="node">
<title>roo_prefs</title>
<polygon fill="#b1dbab" stroke="red" points="421.5,-593 338.5,-593 338.5,-555 421.5,-555 421.5,-593"/>
<text text-anchor="middle" x="380" y="-577.8" font-family="Times,serif" font-size="14.00">roo_prefs</text>
<text text-anchor="middle" x="380" y="-562.8" font-family="Times,serif" font-size="14.00">1.2.11</text>
</g>
<!-- roo_prefs&#45;&gt;roo_logging -->
<g id="edge26" class="edge">
<title>roo_prefs&#45;&gt;roo_logging</title>
<path fill="none" stroke="red" d="M387.24,-554.84C393.06,-539.62 401.05,-517.18 406,-497 421.72,-432.88 431.1,-355.76 435.32,-315.16"/>
<polygon fill="red" stroke="red" points="438.81,-315.49 436.33,-305.19 431.84,-314.79 438.81,-315.49"/>
<text text-anchor="middle" x="455" y="-433" font-family="Times,serif" font-size="10.00" fill="red">1.5.6</text>
<text text-anchor="middle" x="455" y="-422" font-family="Times,serif" font-size="10.00" fill="red">(latest: 1.5.7)</text>
</g>
<!-- roo_prefs&#45;&gt;roo_scheduler -->
<g id="edge27" class="edge">
<title>roo_prefs&#45;&gt;roo_scheduler</title>
<path fill="none" stroke="black" d="M372.09,-554.88C366.08,-541.09 357.71,-521.9 350.89,-506.26"/>
<polygon fill="black" stroke="black" points="354.09,-504.84 346.88,-497.07 347.67,-507.63 354.09,-504.84"/>
</g>
<!-- roo_quantity&#45;&gt;roo_logging -->
<g id="edge28" class="edge">
<title>roo_quantity&#45;&gt;roo_logging</title>
<path fill="none" stroke="red" d="M180.16,-458.64C192.86,-434.51 217.73,-391.82 248,-363 254.21,-357.09 306.13,-326.41 314,-323 341.1,-311.24 349.63,-313.25 378,-305 378.1,-304.97 378.2,-304.94 378.3,-304.91"/>
<polygon fill="red" stroke="red" points="379.32,-308.26 387.93,-302.09 377.35,-301.54 379.32,-308.26"/>
<text text-anchor="middle" x="281" y="-385" font-family="Times,serif" font-size="10.00" fill="red">1.5.5</text>
<text text-anchor="middle" x="281" y="-374" font-family="Times,serif" font-size="10.00" fill="red">(latest: 1.5.7)</text>
</g>
<!-- roo_scheduler&#45;&gt;roo_collections -->
<g id="edge29" class="edge">
<title>roo_scheduler&#45;&gt;roo_collections</title>
<path fill="none" stroke="black" d="M397.33,-464.24C426.46,-457.66 462.19,-449.3 494,-441 537.67,-429.6 586.31,-415.53 624.69,-404.1"/>
<polygon fill="black" stroke="black" points="626.14,-407.32 634.72,-401.1 624.14,-400.61 626.14,-407.32"/>
</g>
<!-- roo_scheduler&#45;&gt;roo_threads -->
<g id="edge30" class="edge">
<title>roo_scheduler&#45;&gt;roo_threads</title>
<path fill="none" stroke="red" d="M334.8,-458.83C331.66,-447.05 326.75,-431.61 320,-419 305.07,-391.09 295.99,-387.54 276,-363 254.68,-336.84 238.59,-336.69 227,-305 221.2,-289.14 220.54,-282.6 227,-267 235.45,-246.59 252.34,-228.81 268.05,-215.59"/>
<polygon fill="red" stroke="red" points="270.51,-218.1 276.11,-209.1 266.12,-212.64 270.51,-218.1"/>
<text text-anchor="middle" x="292" y="-337" font-family="Times,serif" font-size="10.00" fill="red">1.2.3</text>
<text text-anchor="middle" x="292" y="-326" font-family="Times,serif" font-size="10.00" fill="red">(latest: 1.2.5)</text>
</g>
<!-- roo_testing -->
<g id="node22" class="node">
<title>roo_testing</title>
<polygon fill="#b1dbab" stroke="black" points="253.5,-38 156.5,-38 156.5,0 253.5,0 253.5,-38"/>
<text text-anchor="middle" x="205" y="-22.8" font-family="Times,serif" font-size="14.00">roo_testing</text>
<text text-anchor="middle" x="205" y="-7.8" font-family="Times,serif" font-size="14.00">1.3.5</text>
</g>
<!-- roo_time -->
<g id="node24" class="node">
<title>roo_time</title>
<polygon fill="#b1dbab" stroke="black" points="244.5,-113 165.5,-113 165.5,-75 244.5,-75 244.5,-113"/>
<text text-anchor="middle" x="205" y="-97.8" font-family="Times,serif" font-size="14.00">roo_time</text>
<text text-anchor="middle" x="205" y="-82.8" font-family="Times,serif" font-size="14.00">1.4.4</text>
</g>
<!-- roo_threads&#45;&gt;roo_time -->
<g id="edge31" class="edge">
<title>roo_threads&#45;&gt;roo_time</title>
<path fill="none" stroke="black" d="M291.49,-170.74C283.33,-158.64 271.61,-142.86 259,-131 254.58,-126.85 249.64,-122.85 244.58,-119.12"/>
<polygon fill="black" stroke="black" points="246.24,-116.01 236.04,-113.13 242.22,-121.74 246.24,-116.01"/>
</g>
<!-- roo_time&#45;&gt;roo_testing -->
<g id="edge32" class="edge">
<title>roo_time&#45;&gt;roo_testing</title>
<path fill="none" stroke="black" d="M205,-74.96C205,-66.88 205,-57.18 205,-48.18"/>
<polygon fill="black" stroke="black" points="208.5,-48.09 205,-38.09 201.5,-48.09 208.5,-48.09"/>
</g>
<!-- roo_time_ds3231 -->
<g id="node25" class="node">
<title>roo_time_ds3231</title>
<polygon fill="#b1dbab" stroke="red" points="234,-209 96,-209 96,-171 234,-171 234,-209"/>
<text text-anchor="middle" x="165" y="-193.8" font-family="Times,serif" font-size="14.00">roo_time_ds3231</text>
<text text-anchor="middle" x="165" y="-178.8" font-family="Times,serif" font-size="14.00">1.1.6</text>
</g>
<!-- roo_time_ds3231&#45;&gt;roo_time -->
<g id="edge33" class="edge">
<title>roo_time_ds3231&#45;&gt;roo_time</title>
<path fill="none" stroke="red" d="M172.71,-170.88C178.52,-157.22 186.59,-138.26 193.21,-122.71"/>
<polygon fill="red" stroke="red" points="196.62,-123.64 197.31,-113.07 190.18,-120.9 196.62,-123.64"/>
<text text-anchor="middle" x="222" y="-145" font-family="Times,serif" font-size="10.00" fill="red">1.4.3</text>
<text text-anchor="middle" x="222" y="-134" font-family="Times,serif" font-size="10.00" fill="red">(latest: 1.4.4)</text>
</g>
<!-- roo_transceivers&#45;&gt;roo_prefs -->
<g id="edge34" class="edge">
<title>roo_transceivers&#45;&gt;roo_prefs</title>
<path fill="none" stroke="red" d="M309.87,-650.8C311.25,-638.56 314.67,-622.62 323,-611 326.08,-606.71 329.84,-602.82 333.95,-599.31"/>
<polygon fill="red" stroke="red" points="336.35,-601.88 342.19,-593.04 332.11,-596.31 336.35,-601.88"/>
<text text-anchor="middle" x="359" y="-625" font-family="Times,serif" font-size="10.00" fill="red">1.2.10</text>
<text text-anchor="middle" x="359" y="-614" font-family="Times,serif" font-size="10.00" fill="red">(latest: 1.2.11)</text>
</g>
<!-- roo_transport -->
<g id="node27" class="node">
<title>roo_transport</title>
<polygon fill="#b1dbab" stroke="red" points="900,-497 786,-497 786,-459 900,-459 900,-497"/>
<text text-anchor="middle" x="843" y="-481.8" font-family="Times,serif" font-size="14.00">roo_transport</text>
<text text-anchor="middle" x="843" y="-466.8" font-family="Times,serif" font-size="14.00">1.1.2</text>
</g>
<!-- roo_transport&#45;&gt;roo_collections -->
<g id="edge35" class="edge">
<title>roo_transport&#45;&gt;roo_collections</title>
<path fill="none" stroke="black" d="M814.27,-458.88C790.67,-443.99 757.06,-422.78 731.37,-406.57"/>
<polygon fill="black" stroke="black" points="732.97,-403.44 722.64,-401.07 729.23,-409.36 732.97,-403.44"/>
</g>
<!-- roo_transport&#45;&gt;roo_io -->
<g id="edge36" class="edge">
<title>roo_transport&#45;&gt;roo_io</title>
<path fill="none" stroke="red" d="M785.83,-461.14C782.85,-460.4 779.89,-459.68 777,-459 736.86,-449.57 725.31,-453.42 686,-441 654,-430.89 619.34,-415.32 593.71,-402.86"/>
<polygon fill="red" stroke="red" points="595.22,-399.7 584.7,-398.43 592.13,-405.98 595.22,-399.7"/>
<text text-anchor="middle" x="719" y="-433" font-family="Times,serif" font-size="10.00" fill="red">2.1.5</text>
<text text-anchor="middle" x="719" y="-422" font-family="Times,serif" font-size="10.00" fill="red">(latest: 2.1.6)</text>
</g>
<!-- roo_wifi -->
<g id="node28" class="node">
<title>roo_wifi</title>
<polygon fill="khaki" stroke="red" points="467,-689 395,-689 395,-651 467,-651 467,-689"/>
<text text-anchor="middle" x="431" y="-673.8" font-family="Times,serif" font-size="14.00">roo_wifi</text>
<text text-anchor="middle" x="431" y="-658.8" font-family="Times,serif" font-size="14.00">1.1.4</text>
</g>
<!-- roo_wifi&#45;&gt;roo_prefs -->
<g id="edge37" class="edge">
<title>roo_wifi&#45;&gt;roo_prefs</title>
<path fill="none" stroke="red" d="M420.14,-650.79C416.82,-645.12 413.21,-638.83 410,-633 404.49,-622.99 398.67,-611.87 393.64,-602.07"/>
<polygon fill="red" stroke="red" points="396.75,-600.47 389.09,-593.15 390.52,-603.65 396.75,-600.47"/>
<text text-anchor="middle" x="446" y="-625" font-family="Times,serif" font-size="10.00" fill="red">1.2.9</text>
<text text-anchor="middle" x="446" y="-614" font-family="Times,serif" font-size="10.00" fill="red">(latest: 1.2.11)</text>
</g>
<!-- roo_windows&#45;&gt;roo_fonts_basic -->
<g id="edge38" class="edge">
<title>roo_windows&#45;&gt;roo_fonts_basic</title>
<path fill="none" stroke="black" d="M685.78,-650.88C677.94,-636.96 666.98,-617.53 658.12,-601.82"/>
<polygon fill="black" stroke="black" points="661.15,-600.06 653.19,-593.07 655.05,-603.5 661.15,-600.06"/>
</g>
<!-- roo_windows&#45;&gt;roo_fonts_material -->
<g id="edge39" class="edge">
<title>roo_windows&#45;&gt;roo_fonts_material</title>
<path fill="none" stroke="black" d="M715.86,-650.88C731.68,-636.44 753.99,-616.07 771.52,-600.07"/>
<polygon fill="black" stroke="black" points="774.17,-602.39 779.2,-593.07 769.46,-597.22 774.17,-602.39"/>
</g>
<!-- roo_windows&#45;&gt;roo_icons -->
<g id="edge41" class="edge">
<title>roo_windows&#45;&gt;roo_icons</title>
<path fill="none" stroke="black" d="M741.42,-650.99C781.57,-635.06 840.09,-611.85 881.87,-595.28"/>
<polygon fill="black" stroke="black" points="883.31,-598.47 891.31,-591.53 880.73,-591.97 883.31,-598.47"/>
</g>
<!-- roo_windows&#45;&gt;roo_locale -->
<g id="edge40" class="edge">
<title>roo_windows&#45;&gt;roo_locale</title>
<path fill="none" stroke="black" d="M750.74,-662.26C832.19,-651.62 990.09,-628.66 1132.14,-593.02"/>
<polygon fill="black" stroke="black" points="1133.08,-596.4 1141.91,-590.55 1131.35,-589.61 1133.08,-596.4"/>
</g>
<!-- roo_windows&#45;&gt;roo_scheduler -->
<g id="edge42" class="edge">
<title>roo_windows&#45;&gt;roo_scheduler</title>
<path fill="none" stroke="black" d="M641.06,-656.47C594.55,-644.42 527.17,-623.52 474,-593 451.59,-580.14 449.69,-571.73 430,-555 409.59,-537.67 386.43,-518.33 368.58,-503.49"/>
<polygon fill="black" stroke="black" points="370.71,-500.71 360.78,-497.02 366.24,-506.1 370.71,-500.71"/>
</g>
<!-- roo_windows_transceivers -->
<g id="node30" class="node">
<title>roo_windows_transceivers</title>
<polygon fill="khaki" stroke="red" points="484,-785 280,-785 280,-747 484,-747 484,-785"/>
<text text-anchor="middle" x="382" y="-769.8" font-family="Times,serif" font-size="14.00">roo_windows_transceivers</text>
<text text-anchor="middle" x="382" y="-754.8" font-family="Times,serif" font-size="14.00">1.0.0</text>
</g>
<!-- roo_windows_transceivers&#45;&gt;roo_transceivers -->
<g id="edge43" class="edge">
<title>roo_windows_transceivers&#45;&gt;roo_transceivers</title>
<path fill="none" stroke="black" d="M367.92,-746.88C357.02,-732.83 341.75,-713.17 329.49,-697.38"/>
<polygon fill="black" stroke="black" points="331.93,-694.82 323.03,-689.07 326.4,-699.11 331.93,-694.82"/>
</g>
<!-- roo_windows_transceivers&#45;&gt;roo_windows -->
<g id="edge44" class="edge">
<title>roo_windows_transceivers&#45;&gt;roo_windows</title>
<path fill="none" stroke="red" d="M461.24,-746.91C477.7,-741.99 494.69,-736.04 510,-729 526.01,-721.63 526.83,-714.02 543,-707 570.87,-694.9 603.43,-686.52 631.34,-680.91"/>
<polygon fill="red" stroke="red" points="632.24,-684.3 641.39,-678.96 630.91,-677.43 632.24,-684.3"/>
<text text-anchor="middle" x="576" y="-721" font-family="Times,serif" font-size="10.00" fill="red">1.4.2</text>
<text text-anchor="middle" x="576" y="-710" font-family="Times,serif" font-size="10.00" fill="red">(latest: 1.5.0)</text>
</g>
<!-- roo_windows_wifi -->
<g id="node31" class="node">
<title>roo_windows_wifi</title>
<polygon fill="khaki" stroke="red" points="643.5,-785 502.5,-785 502.5,-747 643.5,-747 643.5,-785"/>
<text text-anchor="middle" x="573" y="-769.8" font-family="Times,serif" font-size="14.00">roo_windows_wifi</text>
<text text-anchor="middle" x="573" y="-754.8" font-family="Times,serif" font-size="14.00">1.1.3</text>
</g>
<!-- roo_windows_wifi&#45;&gt;roo_wifi -->
<g id="edge45" class="edge">
<title>roo_windows_wifi&#45;&gt;roo_wifi</title>
<path fill="none" stroke="red" d="M502.4,-748.34C475.22,-741.33 449.54,-733.72 445,-729 437.4,-721.11 433.69,-709.84 431.95,-699.33"/>
<polygon fill="red" stroke="red" points="435.41,-698.77 430.8,-689.23 428.46,-699.56 435.41,-698.77"/>
<text text-anchor="middle" x="478" y="-721" font-family="Times,serif" font-size="10.00" fill="red">1.1.3</text>
<text text-anchor="middle" x="478" y="-710" font-family="Times,serif" font-size="10.00" fill="red">(latest: 1.1.4)</text>
</g>
<!-- roo_windows_wifi&#45;&gt;roo_windows -->
<g id="edge46" class="edge">
<title>roo_windows_wifi&#45;&gt;roo_windows</title>
<path fill="none" stroke="red" d="M591.6,-746.83C604.21,-734.92 621.53,-719.32 638,-707 643.61,-702.8 649.73,-698.63 655.81,-694.68"/>
<polygon fill="red" stroke="red" points="658.06,-697.4 664.64,-689.09 654.32,-691.48 658.06,-697.4"/>
<text text-anchor="middle" x="671" y="-721" font-family="Times,serif" font-size="10.00" fill="red">1.4.2</text>
<text text-anchor="middle" x="671" y="-710" font-family="Times,serif" font-size="10.00" fill="red">(latest: 1.5.0)</text>
</g>
</g>
</svg>
