<?xml version="1.0" encoding="UTF-8" standalone="no"?>
<!DOCTYPE svg PUBLIC "-//W3C//DTD SVG 1.1//EN"
 "http://www.w3.org/Graphics/SVG/1.1/DTD/svg11.dtd">
<!-- Generated by graphviz version 2.42.4 (0)
 -->
<!-- Title: dependencies Pages: 1 -->
<svg width="1750pt" height="751pt"
 viewBox="0.00 0.00 1750.00 751.00" xmlns="http://www.w3.org/2000/svg" xmlns:xlink="http://www.w3.org/1999/xlink">
<g id="graph0" class="graph" transform="scale(1 1) rotate(0) translate(4 747)">
<title>dependencies</title>
<polygon fill="white" stroke="transparent" points="-4,4 -4,-747 1746,-747 1746,4 -4,4"/>
<!-- roo_backport -->
<g id="node1" class="node">
<title>roo_backport</title>
<polygon fill="#b1dbab" stroke="black" points="1283.5,-188 1194.5,-188 1194.5,-150 1283.5,-150 1283.5,-188"/>
<text text-anchor="middle" x="1239" y="-172.8" font-family="Times,serif" font-size="14.00">roo_backport</text>
<text text-anchor="middle" x="1239" y="-157.8" font-family="Times,serif" font-size="14.00">1.1.1</text>
</g>
<!-- roo_blink -->
<g id="node2" class="node">
<title>roo_blink</title>
<polygon fill="#b1dbab" stroke="black" points="475.5,-476 406.5,-476 406.5,-438 475.5,-438 475.5,-476"/>
<text text-anchor="middle" x="441" y="-460.8" font-family="Times,serif" font-size="14.00">roo_blink</text>
<text text-anchor="middle" x="441" y="-445.8" font-family="Times,serif" font-size="14.00">1.0.2</text>
</g>
<!-- roo_logging -->
<g id="node13" class="node">
<title>roo_logging</title>
<polygon fill="#b1dbab" stroke="black" points="620.5,-284 537.5,-284 537.5,-246 620.5,-246 620.5,-284"/>
<text text-anchor="middle" x="579" y="-268.8" font-family="Times,serif" font-size="14.00">roo_logging</text>
<text text-anchor="middle" x="579" y="-253.8" font-family="Times,serif" font-size="14.00">1.4.3</text>
</g>
<!-- roo_blink&#45;&gt;roo_logging -->
<g id="edge1" class="edge">
<title>roo_blink&#45;&gt;roo_logging</title>
<path fill="none" stroke="black" d="M436.81,-437.93C434.1,-426.47 430.46,-411.34 427,-398 424.91,-389.96 423.12,-388.23 422,-380 419.72,-363.27 417.8,-358.36 422,-342 427.05,-322.35 428.02,-314.51 444,-302 467.71,-283.44 500.17,-274.41 527.32,-270.04"/>
<polygon fill="black" stroke="black" points="528.04,-273.47 537.43,-268.58 527.04,-266.54 528.04,-273.47"/>
</g>
<!-- roo_scheduler -->
<g id="node19" class="node">
<title>roo_scheduler</title>
<polygon fill="#b1dbab" stroke="black" points="715.5,-380 622.5,-380 622.5,-342 715.5,-342 715.5,-380"/>
<text text-anchor="middle" x="669" y="-364.8" font-family="Times,serif" font-size="14.00">roo_scheduler</text>
<text text-anchor="middle" x="669" y="-349.8" font-family="Times,serif" font-size="14.00">2.1.5</text>
</g>
<!-- roo_blink&#45;&gt;roo_scheduler -->
<g id="edge2" class="edge">
<title>roo_blink&#45;&gt;roo_scheduler</title>
<path fill="none" stroke="black" d="M475.83,-440.99C478.9,-439.9 481.99,-438.88 485,-438 527.5,-425.55 542,-436.73 583,-420 603.12,-411.79 623.38,-398.43 639.17,-386.61"/>
<polygon fill="black" stroke="black" points="641.67,-389.11 647.46,-380.24 637.4,-383.56 641.67,-389.11"/>
</g>
<!-- roo_collections -->
<g id="node3" class="node">
<title>roo_collections</title>
<polygon fill="#b1dbab" stroke="black" points="1347,-284 1247,-284 1247,-246 1347,-246 1347,-284"/>
<text text-anchor="middle" x="1297" y="-268.8" font-family="Times,serif" font-size="14.00">roo_collections</text>
<text text-anchor="middle" x="1297" y="-253.8" font-family="Times,serif" font-size="14.00">1.3.2</text>
</g>
<!-- roo_collections&#45;&gt;roo_backport -->
<g id="edge3" class="edge">
<title>roo_collections&#45;&gt;roo_backport</title>
<path fill="none" stroke="black" d="M1285.82,-245.88C1277.23,-231.96 1265.24,-212.53 1255.55,-196.82"/>
<polygon fill="black" stroke="black" points="1258.38,-194.74 1250.15,-188.07 1252.42,-198.42 1258.38,-194.74"/>
</g>
<!-- roo_comms -->
<g id="node4" class="node">
<title>roo_comms</title>
<polygon fill="plum" stroke="black" points="451,-668 369,-668 369,-630 451,-630 451,-668"/>
<text text-anchor="middle" x="410" y="-652.8" font-family="Times,serif" font-size="14.00">roo_comms</text>
<text text-anchor="middle" x="410" y="-637.8" font-family="Times,serif" font-size="14.00">1.1.1</text>
</g>
<!-- roo_comms&#45;&gt;roo_blink -->
<g id="edge5" class="edge">
<title>roo_comms&#45;&gt;roo_blink</title>
<path fill="none" stroke="red" d="M383.24,-629.83C354.59,-607.96 315.56,-569.72 334,-534 347.33,-508.17 373.95,-489.21 397.3,-476.69"/>
<polygon fill="red" stroke="red" points="399.07,-479.71 406.38,-472.04 395.89,-473.48 399.07,-479.71"/>
<text text-anchor="middle" x="361" y="-556" font-family="Times,serif" font-size="10.00" fill="red">1.0.1</text>
<text text-anchor="middle" x="361" y="-545" font-family="Times,serif" font-size="10.00" fill="red">(latest: 1.0.2)</text>
</g>
<!-- roo_comms&#45;&gt;roo_collections -->
<g id="edge6" class="edge">
<title>roo_comms&#45;&gt;roo_collections</title>
<path fill="none" stroke="black" d="M451.01,-644.96C514.79,-639.93 641.46,-628.75 748,-612 874.08,-592.18 1200.68,-548.09 1306,-476 1309.53,-473.58 1357.42,-423.98 1359,-420 1362.62,-410.92 1361.13,-407.54 1359,-398 1350.41,-359.49 1329.29,-318.94 1314.09,-293.11"/>
<polygon fill="black" stroke="black" points="1316.95,-291.06 1308.79,-284.29 1310.95,-294.67 1316.95,-291.06"/>
</g>
<!-- roo_control -->
<g id="node5" class="node">
<title>roo_control</title>
<polygon fill="plum" stroke="black" points="388,-476 308,-476 308,-438 388,-438 388,-476"/>
<text text-anchor="middle" x="348" y="-460.8" font-family="Times,serif" font-size="14.00">roo_control</text>
<text text-anchor="middle" x="348" y="-445.8" font-family="Times,serif" font-size="14.00">1.2.1</text>
</g>
<!-- roo_comms&#45;&gt;roo_control -->
<g id="edge7" class="edge">
<title>roo_comms&#45;&gt;roo_control</title>
<path fill="none" stroke="black" d="M368.75,-633.66C357.9,-628.26 347.01,-621.15 339,-612 326.59,-597.83 328.16,-590.57 325,-572 319.96,-542.35 328.57,-508.61 336.66,-485.57"/>
<polygon fill="black" stroke="black" points="339.97,-486.69 340.16,-476.1 333.41,-484.26 339.97,-486.69"/>
</g>
<!-- roo_io -->
<g id="node10" class="node">
<title>roo_io</title>
<polygon fill="#b1dbab" stroke="black" points="1248,-380 1194,-380 1194,-342 1248,-342 1248,-380"/>
<text text-anchor="middle" x="1221" y="-364.8" font-family="Times,serif" font-size="14.00">roo_io</text>
<text text-anchor="middle" x="1221" y="-349.8" font-family="Times,serif" font-size="14.00">2.0.3</text>
</g>
<!-- roo_comms&#45;&gt;roo_io -->
<g id="edge8" class="edge">
<title>roo_comms&#45;&gt;roo_io</title>
<path fill="none" stroke="red" d="M451.09,-644.79C562.95,-634.65 879.97,-596.49 1110,-476 1134.1,-463.38 1136.45,-454.61 1158,-438 1168.56,-429.86 1172.82,-429.67 1182,-420 1190.85,-410.68 1199.06,-399.14 1205.64,-388.81"/>
<polygon fill="red" stroke="red" points="1208.72,-390.48 1210.97,-380.13 1202.75,-386.82 1208.72,-390.48"/>
<text text-anchor="middle" x="1096" y="-508" font-family="Times,serif" font-size="10.00" fill="red">2.0.2</text>
<text text-anchor="middle" x="1096" y="-497" font-family="Times,serif" font-size="10.00" fill="red">(latest: 2.0.3)</text>
</g>
<!-- roo_comms&#45;&gt;roo_logging -->
<g id="edge9" class="edge">
<title>roo_comms&#45;&gt;roo_logging</title>
<path fill="none" stroke="red" d="M368.8,-637.19C353.17,-631.58 336.01,-623.44 323,-612 259.35,-556.04 224.85,-520.32 245,-438 263.62,-361.94 283.91,-330.09 357,-302 412.74,-280.58 481.11,-271.91 527.13,-268.39"/>
<polygon fill="red" stroke="red" points="527.44,-271.88 537.17,-267.68 526.95,-264.9 527.44,-271.88"/>
<text text-anchor="middle" x="272" y="-460" font-family="Times,serif" font-size="10.00" fill="red">1.4.2</text>
<text text-anchor="middle" x="272" y="-449" font-family="Times,serif" font-size="10.00" fill="red">(latest: 1.4.3)</text>
</g>
<!-- roo_prefs -->
<g id="node17" class="node">
<title>roo_prefs</title>
<polygon fill="#b1dbab" stroke="black" points="562,-476 494,-476 494,-438 562,-438 562,-476"/>
<text text-anchor="middle" x="528" y="-460.8" font-family="Times,serif" font-size="14.00">roo_prefs</text>
<text text-anchor="middle" x="528" y="-445.8" font-family="Times,serif" font-size="14.00">1.2.3</text>
</g>
<!-- roo_comms&#45;&gt;roo_prefs -->
<g id="edge10" class="edge">
<title>roo_comms&#45;&gt;roo_prefs</title>
<path fill="none" stroke="red" d="M406.89,-629.63C403.84,-605.87 401.82,-563.97 419,-534 433.73,-508.29 461.12,-489.25 484.76,-476.65"/>
<polygon fill="red" stroke="red" points="486.61,-479.64 493.94,-471.98 483.44,-473.4 486.61,-479.64"/>
<text text-anchor="middle" x="446" y="-556" font-family="Times,serif" font-size="10.00" fill="red">1.2.2</text>
<text text-anchor="middle" x="446" y="-545" font-family="Times,serif" font-size="10.00" fill="red">(latest: 1.2.3)</text>
</g>
<!-- roo_comms&#45;&gt;roo_scheduler -->
<g id="edge11" class="edge">
<title>roo_comms&#45;&gt;roo_scheduler</title>
<path fill="none" stroke="red" d="M451.31,-648.76C497.41,-647.96 572.99,-641.61 630,-612 682.99,-584.47 701.44,-571.29 724,-516 733.55,-492.59 763.25,-472.28 723,-398 720.71,-393.77 717.67,-389.94 714.21,-386.51"/>
<polygon fill="red" stroke="red" points="716.47,-383.84 706.6,-380 711.93,-389.16 716.47,-383.84"/>
<text text-anchor="middle" x="762" y="-508" font-family="Times,serif" font-size="10.00" fill="red">2.1.4</text>
<text text-anchor="middle" x="762" y="-497" font-family="Times,serif" font-size="10.00" fill="red">(latest: 2.1.5)</text>
</g>
<!-- roo_testing -->
<g id="node20" class="node">
<title>roo_testing</title>
<polygon fill="#b1dbab" stroke="black" points="1154.5,-38 1077.5,-38 1077.5,0 1154.5,0 1154.5,-38"/>
<text text-anchor="middle" x="1116" y="-22.8" font-family="Times,serif" font-size="14.00">roo_testing</text>
<text text-anchor="middle" x="1116" y="-7.8" font-family="Times,serif" font-size="14.00">1.1.8</text>
</g>
<!-- roo_comms&#45;&gt;roo_testing -->
<g id="edge4" class="edge">
<title>roo_comms&#45;&gt;roo_testing</title>
<path fill="none" stroke="red" d="M368.8,-648.3C317.67,-647.29 228.71,-640.98 159,-612 119.44,-595.55 82,-596.84 82,-554 82,-554 82,-554 82,-93 82,-42.97 862.27,-24.78 1067.19,-20.86"/>
<polygon fill="red" stroke="red" points="1067.42,-24.35 1077.35,-20.67 1067.29,-17.36 1067.42,-24.35"/>
<text text-anchor="middle" x="109" y="-316" font-family="Times,serif" font-size="10.00" fill="red">1.1.7</text>
<text text-anchor="middle" x="109" y="-305" font-family="Times,serif" font-size="10.00" fill="red">(latest: 1.1.8)</text>
</g>
<!-- roo_threads -->
<g id="node21" class="node">
<title>roo_threads</title>
<polygon fill="#b1dbab" stroke="black" points="739,-188 659,-188 659,-150 739,-150 739,-188"/>
<text text-anchor="middle" x="699" y="-172.8" font-family="Times,serif" font-size="14.00">roo_threads</text>
<text text-anchor="middle" x="699" y="-157.8" font-family="Times,serif" font-size="14.00">1.1.6</text>
</g>
<!-- roo_comms&#45;&gt;roo_threads -->
<g id="edge12" class="edge">
<title>roo_comms&#45;&gt;roo_threads</title>
<path fill="none" stroke="red" d="M451.14,-645.83C497.52,-640.82 569.98,-624.5 597,-572 632.55,-502.91 561.49,-473.46 580,-398 590.26,-356.16 652.68,-247.83 682.79,-197.03"/>
<polygon fill="red" stroke="red" points="685.91,-198.63 688.01,-188.25 679.89,-195.05 685.91,-198.63"/>
<text text-anchor="middle" x="607" y="-412" font-family="Times,serif" font-size="10.00" fill="red">1.1.5</text>
<text text-anchor="middle" x="607" y="-401" font-family="Times,serif" font-size="10.00" fill="red">(latest: 1.1.6)</text>
</g>
<!-- roo_time -->
<g id="node22" class="node">
<title>roo_time</title>
<polygon fill="#b1dbab" stroke="black" points="732,-113 666,-113 666,-75 732,-75 732,-113"/>
<text text-anchor="middle" x="699" y="-97.8" font-family="Times,serif" font-size="14.00">roo_time</text>
<text text-anchor="middle" x="699" y="-82.8" font-family="Times,serif" font-size="14.00">1.3.3</text>
</g>
<!-- roo_comms&#45;&gt;roo_time -->
<g id="edge13" class="edge">
<title>roo_comms&#45;&gt;roo_time</title>
<path fill="none" stroke="red" d="M368.99,-643.02C290.78,-632.37 128,-604.19 128,-554 128,-554 128,-554 128,-408 128,-384.59 171.09,-222.2 188,-206 255.47,-141.35 544.86,-108.9 655.64,-98.67"/>
<polygon fill="red" stroke="red" points="656.14,-102.13 665.78,-97.75 655.51,-95.16 656.14,-102.13"/>
<text text-anchor="middle" x="169" y="-364" font-family="Times,serif" font-size="10.00" fill="red">1.3.2</text>
<text text-anchor="middle" x="169" y="-353" font-family="Times,serif" font-size="10.00" fill="red">(latest: 1.3.3)</text>
</g>
<!-- roo_transceivers -->
<g id="node24" class="node">
<title>roo_transceivers</title>
<polygon fill="#b1dbab" stroke="black" points="588,-572 482,-572 482,-534 588,-534 588,-572"/>
<text text-anchor="middle" x="535" y="-556.8" font-family="Times,serif" font-size="14.00">roo_transceivers</text>
<text text-anchor="middle" x="535" y="-541.8" font-family="Times,serif" font-size="14.00">1.1.3</text>
</g>
<!-- roo_comms&#45;&gt;roo_transceivers -->
<g id="edge14" class="edge">
<title>roo_comms&#45;&gt;roo_transceivers</title>
<path fill="none" stroke="red" d="M434.1,-629.88C453.64,-615.18 481.36,-594.34 502.8,-578.21"/>
<polygon fill="red" stroke="red" points="505.08,-580.88 510.97,-572.07 500.88,-575.28 505.08,-580.88"/>
<text text-anchor="middle" x="510" y="-604" font-family="Times,serif" font-size="10.00" fill="red">1.1.2</text>
<text text-anchor="middle" x="510" y="-593" font-family="Times,serif" font-size="10.00" fill="red">(latest: 1.1.3)</text>
</g>
<!-- roo_control&#45;&gt;roo_logging -->
<g id="edge16" class="edge">
<title>roo_control&#45;&gt;roo_logging</title>
<path fill="none" stroke="red" d="M307.75,-440.27C299.47,-435.09 291.82,-428.44 287,-420 282.15,-411.51 282.65,-406.75 287,-398 331.27,-308.98 456.03,-279.92 527.33,-270.49"/>
<polygon fill="red" stroke="red" points="527.95,-273.94 537.45,-269.23 527.09,-266.99 527.95,-273.94"/>
<text text-anchor="middle" x="357" y="-364" font-family="Times,serif" font-size="10.00" fill="red">1.4.2</text>
<text text-anchor="middle" x="357" y="-353" font-family="Times,serif" font-size="10.00" fill="red">(latest: 1.4.3)</text>
</g>
<!-- roo_quantity -->
<g id="node18" class="node">
<title>roo_quantity</title>
<polygon fill="#b1dbab" stroke="black" points="528,-380 442,-380 442,-342 528,-342 528,-380"/>
<text text-anchor="middle" x="485" y="-364.8" font-family="Times,serif" font-size="14.00">roo_quantity</text>
<text text-anchor="middle" x="485" y="-349.8" font-family="Times,serif" font-size="14.00">1.1.3</text>
</g>
<!-- roo_control&#45;&gt;roo_quantity -->
<g id="edge17" class="edge">
<title>roo_control&#45;&gt;roo_quantity</title>
<path fill="none" stroke="red" d="M314.84,-437.78C298.59,-426.52 284.71,-411.65 296,-398 304.68,-387.51 378.92,-375.79 431.72,-368.65"/>
<polygon fill="red" stroke="red" points="432.19,-372.12 441.64,-367.33 431.27,-365.18 432.19,-372.12"/>
<text text-anchor="middle" x="323" y="-412" font-family="Times,serif" font-size="10.00" fill="red">1.1.2</text>
<text text-anchor="middle" x="323" y="-401" font-family="Times,serif" font-size="10.00" fill="red">(latest: 1.1.3)</text>
</g>
<!-- roo_control&#45;&gt;roo_scheduler -->
<g id="edge18" class="edge">
<title>roo_control&#45;&gt;roo_scheduler</title>
<path fill="none" stroke="red" d="M373.74,-437.74C393.43,-424.65 421.76,-407.69 449,-398 464.15,-392.61 552.29,-379.06 612.31,-370.2"/>
<polygon fill="red" stroke="red" points="613.04,-373.63 622.42,-368.71 612.02,-366.71 613.04,-373.63"/>
<text text-anchor="middle" x="476" y="-412" font-family="Times,serif" font-size="10.00" fill="red">2.1.4</text>
<text text-anchor="middle" x="476" y="-401" font-family="Times,serif" font-size="10.00" fill="red">(latest: 2.1.5)</text>
</g>
<!-- roo_control&#45;&gt;roo_testing -->
<g id="edge15" class="edge">
<title>roo_control&#45;&gt;roo_testing</title>
<path fill="none" stroke="red" d="M308.08,-437.88C267.33,-418.05 210,-385.92 210,-362 210,-362 210,-362 210,-93 210,-49.61 878.9,-26.89 1067.2,-21.35"/>
<polygon fill="red" stroke="red" points="1067.47,-24.85 1077.36,-21.06 1067.26,-17.85 1067.47,-24.85"/>
<text text-anchor="middle" x="237" y="-220" font-family="Times,serif" font-size="10.00" fill="red">1.1.7</text>
<text text-anchor="middle" x="237" y="-209" font-family="Times,serif" font-size="10.00" fill="red">(latest: 1.1.8)</text>
</g>
<!-- roo_dashboard -->
<g id="node6" class="node">
<title>roo_dashboard</title>
<polygon fill="plum" stroke="black" points="438.5,-743 341.5,-743 341.5,-705 438.5,-705 438.5,-743"/>
<text text-anchor="middle" x="390" y="-727.8" font-family="Times,serif" font-size="14.00">roo_dashboard</text>
<text text-anchor="middle" x="390" y="-712.8" font-family="Times,serif" font-size="14.00">1.0.1</text>
</g>
<!-- roo_dashboard&#45;&gt;roo_testing -->
<g id="edge19" class="edge">
<title>roo_dashboard&#45;&gt;roo_testing</title>
<path fill="none" stroke="red" d="M341.39,-723.94C236.85,-724.66 0,-718.71 0,-650 0,-650 0,-650 0,-93 0,-38.7 852.24,-23.56 1067.22,-20.6"/>
<polygon fill="red" stroke="red" points="1067.31,-24.1 1077.26,-20.46 1067.21,-17.1 1067.31,-24.1"/>
<text text-anchor="middle" x="27" y="-364" font-family="Times,serif" font-size="10.00" fill="red">1.1.7</text>
<text text-anchor="middle" x="27" y="-353" font-family="Times,serif" font-size="10.00" fill="red">(latest: 1.1.8)</text>
</g>
<!-- roo_windows -->
<g id="node27" class="node">
<title>roo_windows</title>
<polygon fill="plum" stroke="black" points="1139,-668 1049,-668 1049,-630 1139,-630 1139,-668"/>
<text text-anchor="middle" x="1094" y="-652.8" font-family="Times,serif" font-size="14.00">roo_windows</text>
<text text-anchor="middle" x="1094" y="-637.8" font-family="Times,serif" font-size="14.00">1.4.1</text>
</g>
<!-- roo_dashboard&#45;&gt;roo_windows -->
<g id="edge20" class="edge">
<title>roo_dashboard&#45;&gt;roo_windows</title>
<path fill="none" stroke="black" d="M438.67,-717.95C565.46,-704.81 905.37,-669.56 1038.98,-655.7"/>
<polygon fill="black" stroke="black" points="1039.41,-659.18 1049,-654.67 1038.69,-652.22 1039.41,-659.18"/>
</g>
<!-- roo_display -->
<g id="node7" class="node">
<title>roo_display</title>
<polygon fill="plum" stroke="black" points="1433,-476 1353,-476 1353,-438 1433,-438 1433,-476"/>
<text text-anchor="middle" x="1393" y="-460.8" font-family="Times,serif" font-size="14.00">roo_display</text>
<text text-anchor="middle" x="1393" y="-445.8" font-family="Times,serif" font-size="14.00">2.3.1</text>
</g>
<!-- roo_display&#45;&gt;roo_collections -->
<g id="edge22" class="edge">
<title>roo_display&#45;&gt;roo_collections</title>
<path fill="none" stroke="black" d="M1393.67,-437.85C1393.88,-406.83 1390.14,-342.99 1359,-302 1355.66,-297.6 1351.61,-293.65 1347.21,-290.11"/>
<polygon fill="black" stroke="black" points="1349.13,-287.19 1338.96,-284.2 1345.05,-292.87 1349.13,-287.19"/>
</g>
<!-- roo_display&#45;&gt;roo_io -->
<g id="edge23" class="edge">
<title>roo_display&#45;&gt;roo_io</title>
<path fill="none" stroke="red" d="M1359.84,-437.88C1330.38,-421.78 1287.41,-398.29 1257.1,-381.73"/>
<polygon fill="red" stroke="red" points="1258.58,-378.55 1248.12,-376.82 1255.22,-384.69 1258.58,-378.55"/>
<text text-anchor="middle" x="1349" y="-412" font-family="Times,serif" font-size="10.00" fill="red">2.0.2</text>
<text text-anchor="middle" x="1349" y="-401" font-family="Times,serif" font-size="10.00" fill="red">(latest: 2.0.3)</text>
</g>
<!-- roo_display&#45;&gt;roo_testing -->
<g id="edge21" class="edge">
<title>roo_display&#45;&gt;roo_testing</title>
<path fill="none" stroke="red" d="M1401.01,-437.65C1403.06,-432.09 1404.97,-425.89 1406,-420 1412.01,-385.67 1407.54,-375.52 1398,-342 1371.39,-248.45 1359.94,-220.56 1293,-150 1251.58,-106.34 1193.95,-67.1 1155.84,-43.42"/>
<polygon fill="red" stroke="red" points="1157.42,-40.29 1147.07,-38.03 1153.76,-46.25 1157.42,-40.29"/>
<text text-anchor="middle" x="1381" y="-220" font-family="Times,serif" font-size="10.00" fill="red">1.1.7</text>
<text text-anchor="middle" x="1381" y="-209" font-family="Times,serif" font-size="10.00" fill="red">(latest: 1.1.8)</text>
</g>
<!-- roo_flags -->
<g id="node8" class="node">
<title>roo_flags</title>
<polygon fill="#b1dbab" stroke="black" points="618,-188 550,-188 550,-150 618,-150 618,-188"/>
<text text-anchor="middle" x="584" y="-172.8" font-family="Times,serif" font-size="14.00">roo_flags</text>
<text text-anchor="middle" x="584" y="-157.8" font-family="Times,serif" font-size="14.00">1.1.1</text>
</g>
<!-- roo_icons -->
<g id="node9" class="node">
<title>roo_icons</title>
<polygon fill="plum" stroke="black" points="1428,-572 1358,-572 1358,-534 1428,-534 1428,-572"/>
<text text-anchor="middle" x="1393" y="-556.8" font-family="Times,serif" font-size="14.00">roo_icons</text>
<text text-anchor="middle" x="1393" y="-541.8" font-family="Times,serif" font-size="14.00">1.2.1</text>
</g>
<!-- roo_icons&#45;&gt;roo_display -->
<g id="edge25" class="edge">
<title>roo_icons&#45;&gt;roo_display</title>
<path fill="none" stroke="black" d="M1393,-533.88C1393,-520.35 1393,-501.62 1393,-486.15"/>
<polygon fill="black" stroke="black" points="1396.5,-486.07 1393,-476.07 1389.5,-486.07 1396.5,-486.07"/>
</g>
<!-- roo_icons&#45;&gt;roo_testing -->
<g id="edge24" class="edge">
<title>roo_icons&#45;&gt;roo_testing</title>
<path fill="none" stroke="red" d="M1408.9,-533.81C1420.52,-519.26 1435.36,-497.77 1442,-476 1475.46,-366.3 1447,-332.69 1447,-218 1447,-218 1447,-218 1447,-93 1447,-35.91 1256.87,-23.43 1164.81,-20.73"/>
<polygon fill="red" stroke="red" points="1164.71,-17.22 1154.62,-20.46 1164.52,-24.22 1164.71,-17.22"/>
<text text-anchor="middle" x="1477" y="-268" font-family="Times,serif" font-size="10.00" fill="red">1.1.7</text>
<text text-anchor="middle" x="1477" y="-257" font-family="Times,serif" font-size="10.00" fill="red">(latest: 1.1.8)</text>
</g>
<!-- roo_io&#45;&gt;roo_backport -->
<g id="edge26" class="edge">
<title>roo_io&#45;&gt;roo_backport</title>
<path fill="none" stroke="black" d="M1222.73,-341.78C1225.88,-308.52 1232.58,-237.73 1236.33,-198.2"/>
<polygon fill="black" stroke="black" points="1239.82,-198.45 1237.28,-188.16 1232.85,-197.79 1239.82,-198.45"/>
</g>
<!-- roo_io&#45;&gt;roo_logging -->
<g id="edge27" class="edge">
<title>roo_io&#45;&gt;roo_logging</title>
<path fill="none" stroke="black" d="M1193.99,-353.08C1145.6,-340.93 1040.81,-315.76 951,-302 865.41,-288.88 843.19,-292.36 757,-284 714.51,-279.88 666.34,-275 630.84,-271.36"/>
<polygon fill="black" stroke="black" points="631.02,-267.86 620.71,-270.32 630.3,-274.82 631.02,-267.86"/>
</g>
<!-- roo_io_sdfat -->
<g id="node11" class="node">
<title>roo_io_sdfat</title>
<polygon fill="plum" stroke="black" points="1661.5,-743 1576.5,-743 1576.5,-705 1661.5,-705 1661.5,-743"/>
<text text-anchor="middle" x="1619" y="-727.8" font-family="Times,serif" font-size="14.00">roo_io_sdfat</text>
<text text-anchor="middle" x="1619" y="-712.8" font-family="Times,serif" font-size="14.00">1.0.0</text>
</g>
<!-- roo_locale -->
<g id="node12" class="node">
<title>roo_locale</title>
<polygon fill="#b1dbab" stroke="black" points="1269,-572 1195,-572 1195,-534 1269,-534 1269,-572"/>
<text text-anchor="middle" x="1232" y="-556.8" font-family="Times,serif" font-size="14.00">roo_locale</text>
<text text-anchor="middle" x="1232" y="-541.8" font-family="Times,serif" font-size="14.00">1.1.1</text>
</g>
<!-- roo_logging&#45;&gt;roo_flags -->
<g id="edge28" class="edge">
<title>roo_logging&#45;&gt;roo_flags</title>
<path fill="none" stroke="black" d="M579.96,-245.88C580.68,-232.35 581.68,-213.62 582.5,-198.15"/>
<polygon fill="black" stroke="black" points="586,-198.24 583.04,-188.07 579.01,-197.87 586,-198.24"/>
</g>
<!-- roo_logging&#45;&gt;roo_threads -->
<g id="edge29" class="edge">
<title>roo_logging&#45;&gt;roo_threads</title>
<path fill="none" stroke="black" d="M593.98,-245.92C604.63,-233.74 619.71,-217.81 635,-206 640.83,-201.5 647.28,-197.2 653.78,-193.23"/>
<polygon fill="black" stroke="black" points="655.77,-196.13 662.63,-188.05 652.23,-190.09 655.77,-196.13"/>
</g>
<!-- roo_monitoring -->
<g id="node14" class="node">
<title>roo_monitoring</title>
<polygon fill="plum" stroke="black" points="1297,-476 1195,-476 1195,-438 1297,-438 1297,-476"/>
<text text-anchor="middle" x="1246" y="-460.8" font-family="Times,serif" font-size="14.00">roo_monitoring</text>
<text text-anchor="middle" x="1246" y="-445.8" font-family="Times,serif" font-size="14.00">1.0.0</text>
</g>
<!-- roo_monitoring&#45;&gt;roo_collections -->
<g id="edge30" class="edge">
<title>roo_monitoring&#45;&gt;roo_collections</title>
<path fill="none" stroke="black" d="M1250.89,-437.78C1259.84,-404.44 1278.9,-333.43 1289.5,-293.94"/>
<polygon fill="black" stroke="black" points="1292.91,-294.73 1292.12,-284.16 1286.15,-292.91 1292.91,-294.73"/>
</g>
<!-- roo_monitoring&#45;&gt;roo_io -->
<g id="edge31" class="edge">
<title>roo_monitoring&#45;&gt;roo_io</title>
<path fill="none" stroke="black" d="M1241.92,-437.9C1239.27,-426.43 1235.63,-411.29 1232,-398 1231.28,-395.37 1230.51,-392.65 1229.71,-389.92"/>
<polygon fill="black" stroke="black" points="1233.04,-388.82 1226.81,-380.25 1226.33,-390.84 1233.04,-388.82"/>
</g>
<!-- roo_onewire -->
<g id="node15" class="node">
<title>roo_onewire</title>
<polygon fill="plum" stroke="black" points="915.5,-476 830.5,-476 830.5,-438 915.5,-438 915.5,-476"/>
<text text-anchor="middle" x="873" y="-460.8" font-family="Times,serif" font-size="14.00">roo_onewire</text>
<text text-anchor="middle" x="873" y="-445.8" font-family="Times,serif" font-size="14.00">2.0.4</text>
</g>
<!-- roo_onewire&#45;&gt;roo_collections -->
<g id="edge33" class="edge">
<title>roo_onewire&#45;&gt;roo_collections</title>
<path fill="none" stroke="black" d="M910.01,-437.93C970.98,-408.36 1096.61,-348.29 1205,-302 1216.09,-297.26 1228.03,-292.41 1239.51,-287.87"/>
<polygon fill="black" stroke="black" points="1241,-291.05 1249.02,-284.13 1238.44,-284.53 1241,-291.05"/>
</g>
<!-- roo_onewire&#45;&gt;roo_logging -->
<g id="edge34" class="edge">
<title>roo_onewire&#45;&gt;roo_logging</title>
<path fill="none" stroke="red" d="M873.47,-437.78C872.78,-424.89 869.64,-408.16 859,-398 828.56,-368.92 803.55,-399.04 766,-380 743.84,-368.76 746.7,-354.1 725,-342 698.82,-327.4 687.05,-336.92 660,-324 641.61,-315.21 622.98,-302.22 608.23,-290.76"/>
<polygon fill="red" stroke="red" points="610.03,-287.72 600.03,-284.23 605.68,-293.2 610.03,-287.72"/>
<text text-anchor="middle" x="793" y="-364" font-family="Times,serif" font-size="10.00" fill="red">1.4.2</text>
<text text-anchor="middle" x="793" y="-353" font-family="Times,serif" font-size="10.00" fill="red">(latest: 1.4.3)</text>
</g>
<!-- roo_onewire&#45;&gt;roo_quantity -->
<g id="edge36" class="edge">
<title>roo_onewire&#45;&gt;roo_quantity</title>
<path fill="none" stroke="red" d="M830.29,-445.69C800.5,-438.5 759.82,-428.67 724,-420 660.08,-404.52 586.54,-386.67 538.11,-374.91"/>
<polygon fill="red" stroke="red" points="538.72,-371.45 528.17,-372.49 537.06,-378.25 538.72,-371.45"/>
<text text-anchor="middle" x="751" y="-412" font-family="Times,serif" font-size="10.00" fill="red">1.1.2</text>
<text text-anchor="middle" x="751" y="-401" font-family="Times,serif" font-size="10.00" fill="red">(latest: 1.1.3)</text>
</g>
<!-- roo_onewire&#45;&gt;roo_scheduler -->
<g id="edge35" class="edge">
<title>roo_onewire&#45;&gt;roo_scheduler</title>
<path fill="none" stroke="red" d="M834.48,-437.98C824.55,-432.7 814.1,-426.57 805,-420 793.53,-411.72 794.16,-405.22 782,-398 776.62,-394.81 750.9,-386.54 725.36,-378.73"/>
<polygon fill="red" stroke="red" points="726.21,-375.33 715.62,-375.77 724.17,-382.03 726.21,-375.33"/>
<text text-anchor="middle" x="832" y="-412" font-family="Times,serif" font-size="10.00" fill="red">2.1.4</text>
<text text-anchor="middle" x="832" y="-401" font-family="Times,serif" font-size="10.00" fill="red">(latest: 2.1.5)</text>
</g>
<!-- roo_onewire&#45;&gt;roo_testing -->
<g id="edge32" class="edge">
<title>roo_onewire&#45;&gt;roo_testing</title>
<path fill="none" stroke="red" d="M879.66,-437.86C882.91,-425.81 884.82,-410.05 878,-398 870.34,-384.47 855.66,-393.53 848,-380 839.68,-365.3 846.13,-358.79 848,-342 850.01,-323.89 846.95,-317.2 857,-302 864.55,-290.58 874.12,-295.19 882,-284 899.57,-259.04 901,-248.52 901,-218 901,-218 901,-218 901,-93 901,-58.18 1003.39,-36.65 1066.85,-26.65"/>
<polygon fill="red" stroke="red" points="1067.71,-30.06 1077.07,-25.09 1066.65,-23.15 1067.71,-30.06"/>
<text text-anchor="middle" x="928" y="-220" font-family="Times,serif" font-size="10.00" fill="red">1.1.7</text>
<text text-anchor="middle" x="928" y="-209" font-family="Times,serif" font-size="10.00" fill="red">(latest: 1.1.8)</text>
</g>
<!-- roo_powersafefs -->
<g id="node16" class="node">
<title>roo_powersafefs</title>
<polygon fill="plum" stroke="black" points="872.5,-284 765.5,-284 765.5,-246 872.5,-246 872.5,-284"/>
<text text-anchor="middle" x="819" y="-268.8" font-family="Times,serif" font-size="14.00">roo_powersafefs</text>
<text text-anchor="middle" x="819" y="-253.8" font-family="Times,serif" font-size="14.00">1.0.0</text>
</g>
<!-- roo_powersafefs&#45;&gt;roo_threads -->
<g id="edge37" class="edge">
<title>roo_powersafefs&#45;&gt;roo_threads</title>
<path fill="none" stroke="black" d="M798.91,-245.94C785.6,-234.21 767.6,-218.77 751,-206 745.86,-202.05 740.32,-198 734.85,-194.11"/>
<polygon fill="black" stroke="black" points="736.56,-191.04 726.36,-188.18 732.55,-196.78 736.56,-191.04"/>
</g>
<!-- roo_prefs&#45;&gt;roo_logging -->
<g id="edge38" class="edge">
<title>roo_prefs&#45;&gt;roo_logging</title>
<path fill="none" stroke="black" d="M504.18,-437.77C476.69,-416.61 434.96,-384.07 433,-380 425.68,-364.78 424.24,-356.44 433,-342 453.51,-308.2 494.49,-288.74 527.83,-277.99"/>
<polygon fill="black" stroke="black" points="528.9,-281.32 537.45,-275.05 526.86,-274.62 528.9,-281.32"/>
</g>
<!-- roo_prefs&#45;&gt;roo_scheduler -->
<g id="edge39" class="edge">
<title>roo_prefs&#45;&gt;roo_scheduler</title>
<path fill="none" stroke="black" d="M562.29,-448.7C578.03,-445.38 596.95,-441.43 614,-438 634.64,-433.84 693.6,-436.24 707,-420 715.32,-409.91 709.74,-397.94 700.55,-387.5"/>
<polygon fill="black" stroke="black" points="702.89,-384.89 693.37,-380.22 697.9,-389.8 702.89,-384.89"/>
</g>
<!-- roo_quantity&#45;&gt;roo_logging -->
<g id="edge40" class="edge">
<title>roo_quantity&#45;&gt;roo_logging</title>
<path fill="none" stroke="black" d="M503.12,-341.88C517.43,-327.57 537.56,-307.44 553.49,-291.51"/>
<polygon fill="black" stroke="black" points="556.34,-293.61 560.93,-284.07 551.39,-288.66 556.34,-293.61"/>
</g>
<!-- roo_scheduler&#45;&gt;roo_collections -->
<g id="edge41" class="edge">
<title>roo_scheduler&#45;&gt;roo_collections</title>
<path fill="none" stroke="black" d="M715.72,-345.16C720.51,-343.95 725.33,-342.87 730,-342 826.88,-323.96 853.21,-336.16 951,-324 1051.61,-311.49 1167.67,-290.73 1236.54,-277.73"/>
<polygon fill="black" stroke="black" points="1237.6,-281.1 1246.77,-275.8 1236.29,-274.22 1237.6,-281.1"/>
</g>
<!-- roo_scheduler&#45;&gt;roo_threads -->
<g id="edge42" class="edge">
<title>roo_scheduler&#45;&gt;roo_threads</title>
<path fill="none" stroke="black" d="M671.88,-341.78C677.13,-308.52 688.31,-237.73 694.55,-198.2"/>
<polygon fill="black" stroke="black" points="698.03,-198.59 696.13,-188.16 691.12,-197.49 698.03,-198.59"/>
</g>
<!-- roo_threads&#45;&gt;roo_time -->
<g id="edge43" class="edge">
<title>roo_threads&#45;&gt;roo_time</title>
<path fill="none" stroke="black" d="M699,-149.96C699,-141.88 699,-132.18 699,-123.18"/>
<polygon fill="black" stroke="black" points="702.5,-123.09 699,-113.09 695.5,-123.09 702.5,-123.09"/>
</g>
<!-- roo_time&#45;&gt;roo_testing -->
<g id="edge44" class="edge">
<title>roo_time&#45;&gt;roo_testing</title>
<path fill="none" stroke="black" d="M732.21,-86.06C769.72,-78.32 832.62,-65.62 887,-56 949.08,-45.02 1020.93,-33.99 1067.35,-27.09"/>
<polygon fill="black" stroke="black" points="1068.05,-30.53 1077.43,-25.6 1067.03,-23.6 1068.05,-30.53"/>
</g>
<!-- roo_time_ds3231 -->
<g id="node23" class="node">
<title>roo_time_ds3231</title>
<polygon fill="#b1dbab" stroke="black" points="532,-188 420,-188 420,-150 532,-150 532,-188"/>
<text text-anchor="middle" x="476" y="-172.8" font-family="Times,serif" font-size="14.00">roo_time_ds3231</text>
<text text-anchor="middle" x="476" y="-157.8" font-family="Times,serif" font-size="14.00">1.1.3</text>
</g>
<!-- roo_time_ds3231&#45;&gt;roo_time -->
<g id="edge45" class="edge">
<title>roo_time_ds3231&#45;&gt;roo_time</title>
<path fill="none" stroke="black" d="M531.12,-149.96C569.79,-137.3 620.74,-120.62 656.32,-108.97"/>
<polygon fill="black" stroke="black" points="657.52,-112.26 665.93,-105.83 655.34,-105.61 657.52,-112.26"/>
</g>
<!-- roo_transceivers&#45;&gt;roo_prefs -->
<g id="edge46" class="edge">
<title>roo_transceivers&#45;&gt;roo_prefs</title>
<path fill="none" stroke="black" d="M533.65,-533.88C532.64,-520.35 531.25,-501.62 530.1,-486.15"/>
<polygon fill="black" stroke="black" points="533.58,-485.78 529.35,-476.07 526.6,-486.3 533.58,-485.78"/>
</g>
<!-- roo_transport -->
<g id="node25" class="node">
<title>roo_transport</title>
<polygon fill="plum" stroke="black" points="1100.5,-476 1011.5,-476 1011.5,-438 1100.5,-438 1100.5,-476"/>
<text text-anchor="middle" x="1056" y="-460.8" font-family="Times,serif" font-size="14.00">roo_transport</text>
<text text-anchor="middle" x="1056" y="-445.8" font-family="Times,serif" font-size="14.00">1.0.1</text>
</g>
<!-- roo_transport&#45;&gt;roo_collections -->
<g id="edge48" class="edge">
<title>roo_transport&#45;&gt;roo_collections</title>
<path fill="none" stroke="black" d="M1069.38,-437.98C1079.13,-425.68 1093.19,-409.58 1108,-398 1121.47,-387.47 1127.94,-389.73 1142,-380 1162.97,-365.49 1164.85,-357.64 1185,-342 1209.09,-323.3 1237.54,-304.03 1259.73,-289.57"/>
<polygon fill="black" stroke="black" points="1261.73,-292.45 1268.22,-284.08 1257.92,-286.58 1261.73,-292.45"/>
</g>
<!-- roo_transport&#45;&gt;roo_io -->
<g id="edge49" class="edge">
<title>roo_transport&#45;&gt;roo_io</title>
<path fill="none" stroke="red" d="M1081.91,-437.93C1089.51,-432.37 1097.72,-426.11 1105,-420 1115.83,-410.9 1115.93,-405.37 1128,-398 1148.87,-385.25 1157.23,-388.92 1180,-380 1181.4,-379.45 1182.83,-378.88 1184.26,-378.3"/>
<polygon fill="red" stroke="red" points="1185.91,-381.4 1193.78,-374.31 1183.21,-374.95 1185.91,-381.4"/>
<text text-anchor="middle" x="1155" y="-412" font-family="Times,serif" font-size="10.00" fill="red">2.0.2</text>
<text text-anchor="middle" x="1155" y="-401" font-family="Times,serif" font-size="10.00" fill="red">(latest: 2.0.3)</text>
</g>
<!-- roo_transport&#45;&gt;roo_logging -->
<g id="edge50" class="edge">
<title>roo_transport&#45;&gt;roo_logging</title>
<path fill="none" stroke="red" d="M1015.74,-437.91C982.77,-422.9 935.03,-400.74 894,-380 862.41,-364.03 856.62,-355.75 824,-342 759.12,-314.64 680.93,-292.09 630.62,-278.84"/>
<polygon fill="red" stroke="red" points="631.19,-275.37 620.63,-276.23 629.42,-282.14 631.19,-275.37"/>
<text text-anchor="middle" x="921" y="-364" font-family="Times,serif" font-size="10.00" fill="red">1.4.2</text>
<text text-anchor="middle" x="921" y="-353" font-family="Times,serif" font-size="10.00" fill="red">(latest: 1.4.3)</text>
</g>
<!-- roo_transport&#45;&gt;roo_testing -->
<g id="edge47" class="edge">
<title>roo_transport&#45;&gt;roo_testing</title>
<path fill="none" stroke="red" d="M1063.24,-437.97C1079.2,-397.58 1116,-300.68 1116,-266 1116,-266 1116,-266 1116,-93 1116,-78.3 1116,-61.93 1116,-48.43"/>
<polygon fill="red" stroke="red" points="1119.5,-48.3 1116,-38.3 1112.5,-48.3 1119.5,-48.3"/>
<text text-anchor="middle" x="1143" y="-220" font-family="Times,serif" font-size="10.00" fill="red">1.1.7</text>
<text text-anchor="middle" x="1143" y="-209" font-family="Times,serif" font-size="10.00" fill="red">(latest: 1.1.8)</text>
</g>
<!-- roo_transport&#45;&gt;roo_threads -->
<g id="edge51" class="edge">
<title>roo_transport&#45;&gt;roo_threads</title>
<path fill="none" stroke="red" d="M1057.04,-437.74C1057.4,-412.51 1054.03,-367.26 1028,-342 939.61,-256.22 854.64,-359.08 757,-284 729.18,-262.61 713.61,-224.19 705.76,-197.91"/>
<polygon fill="red" stroke="red" points="709.1,-196.85 703.03,-188.16 702.35,-198.73 709.1,-196.85"/>
<text text-anchor="middle" x="1030" y="-316" font-family="Times,serif" font-size="10.00" fill="red">1.1.5</text>
<text text-anchor="middle" x="1030" y="-305" font-family="Times,serif" font-size="10.00" fill="red">(latest: 1.1.6)</text>
</g>
<!-- roo_wifi -->
<g id="node26" class="node">
<title>roo_wifi</title>
<polygon fill="plum" stroke="black" points="1530.5,-572 1467.5,-572 1467.5,-534 1530.5,-534 1530.5,-572"/>
<text text-anchor="middle" x="1499" y="-556.8" font-family="Times,serif" font-size="14.00">roo_wifi</text>
<text text-anchor="middle" x="1499" y="-541.8" font-family="Times,serif" font-size="14.00">1.1.1</text>
</g>
<!-- roo_wifi&#45;&gt;roo_collections -->
<g id="edge53" class="edge">
<title>roo_wifi&#45;&gt;roo_collections</title>
<path fill="none" stroke="black" d="M1497.48,-533.94C1495.03,-510.86 1488.98,-470.08 1475,-438 1445.44,-370.18 1436.3,-348.8 1379,-302 1372.18,-296.43 1364.35,-291.56 1356.31,-287.35"/>
<polygon fill="black" stroke="black" points="1357.7,-284.13 1347.18,-282.88 1354.62,-290.42 1357.7,-284.13"/>
</g>
<!-- roo_wifi&#45;&gt;roo_prefs -->
<g id="edge54" class="edge">
<title>roo_wifi&#45;&gt;roo_prefs</title>
<path fill="none" stroke="red" d="M1467.5,-541.14C1457.83,-538.28 1447.08,-535.55 1437,-534 1268.5,-508.01 836.9,-550.81 670,-516 635.6,-508.83 598.94,-493.64 571.49,-480.61"/>
<polygon fill="red" stroke="red" points="572.71,-477.31 562.18,-476.1 569.66,-483.61 572.71,-477.31"/>
<text text-anchor="middle" x="697" y="-508" font-family="Times,serif" font-size="10.00" fill="red">1.2.2</text>
<text text-anchor="middle" x="697" y="-497" font-family="Times,serif" font-size="10.00" fill="red">(latest: 1.2.3)</text>
</g>
<!-- roo_wifi&#45;&gt;roo_testing -->
<g id="edge52" class="edge">
<title>roo_wifi&#45;&gt;roo_testing</title>
<path fill="none" stroke="red" d="M1511.23,-533.8C1522.34,-515.47 1537,-485.99 1537,-458 1537,-458 1537,-458 1537,-93 1537,-55.63 1276.17,-31.86 1165.12,-23.44"/>
<polygon fill="red" stroke="red" points="1165.09,-19.92 1154.85,-22.67 1164.56,-26.9 1165.09,-19.92"/>
<text text-anchor="middle" x="1564" y="-268" font-family="Times,serif" font-size="10.00" fill="red">1.1.7</text>
<text text-anchor="middle" x="1564" y="-257" font-family="Times,serif" font-size="10.00" fill="red">(latest: 1.1.8)</text>
</g>
<!-- roo_windows&#45;&gt;roo_icons -->
<g id="edge58" class="edge">
<title>roo_windows&#45;&gt;roo_icons</title>
<path fill="none" stroke="black" d="M1139.09,-633.83C1195.57,-616.07 1291.76,-585.83 1348.14,-568.1"/>
<polygon fill="black" stroke="black" points="1349.36,-571.39 1357.85,-565.05 1347.26,-564.71 1349.36,-571.39"/>
</g>
<!-- roo_windows&#45;&gt;roo_io -->
<g id="edge59" class="edge">
<title>roo_windows&#45;&gt;roo_io</title>
<path fill="none" stroke="red" d="M1098.97,-629.72C1110.01,-591.4 1139.33,-501.01 1186,-438 1193.32,-428.12 1200.58,-430.48 1207,-420 1212.5,-411.02 1215.84,-400.02 1217.87,-390.03"/>
<polygon fill="red" stroke="red" points="1221.33,-390.54 1219.54,-380.1 1214.43,-389.38 1221.33,-390.54"/>
<text text-anchor="middle" x="1177" y="-508" font-family="Times,serif" font-size="10.00" fill="red">2.0.2</text>
<text text-anchor="middle" x="1177" y="-497" font-family="Times,serif" font-size="10.00" fill="red">(latest: 2.0.3)</text>
</g>
<!-- roo_windows&#45;&gt;roo_locale -->
<g id="edge56" class="edge">
<title>roo_windows&#45;&gt;roo_locale</title>
<path fill="none" stroke="black" d="M1139.41,-633.74C1153.45,-628.17 1168.5,-620.94 1181,-612 1193.17,-603.3 1204.41,-591.16 1213.23,-580.24"/>
<polygon fill="black" stroke="black" points="1216.11,-582.25 1219.48,-572.21 1210.58,-577.96 1216.11,-582.25"/>
</g>
<!-- roo_windows&#45;&gt;roo_logging -->
<g id="edge57" class="edge">
<title>roo_windows&#45;&gt;roo_logging</title>
<path fill="none" stroke="red" d="M1048.75,-648.48C958.99,-646.86 757.81,-629.87 650,-516 590.9,-453.58 580.44,-345.6 578.96,-294.45"/>
<polygon fill="red" stroke="red" points="582.45,-294.08 578.76,-284.15 575.45,-294.21 582.45,-294.08"/>
<text text-anchor="middle" x="647" y="-460" font-family="Times,serif" font-size="10.00" fill="red">1.4.2</text>
<text text-anchor="middle" x="647" y="-449" font-family="Times,serif" font-size="10.00" fill="red">(latest: 1.4.3)</text>
</g>
<!-- roo_windows&#45;&gt;roo_scheduler -->
<g id="edge60" class="edge">
<title>roo_windows&#45;&gt;roo_scheduler</title>
<path fill="none" stroke="red" d="M1048.92,-641C1020.92,-635.54 984.72,-626.4 955,-612 940.44,-604.95 938.99,-599.64 926,-590 881.02,-556.63 863.2,-556 824,-516 779.3,-470.38 790.4,-439.67 742,-398 736.48,-393.25 730.22,-388.95 723.74,-385.11"/>
<polygon fill="red" stroke="red" points="725.27,-381.96 714.83,-380.17 721.88,-388.08 725.27,-381.96"/>
<text text-anchor="middle" x="851" y="-508" font-family="Times,serif" font-size="10.00" fill="red">2.1.4</text>
<text text-anchor="middle" x="851" y="-497" font-family="Times,serif" font-size="10.00" fill="red">(latest: 2.1.5)</text>
</g>
<!-- roo_windows&#45;&gt;roo_testing -->
<g id="edge55" class="edge">
<title>roo_windows&#45;&gt;roo_testing</title>
<path fill="none" stroke="red" d="M1139.22,-644.66C1266.56,-634.65 1619,-602.55 1619,-554 1619,-554 1619,-554 1619,-93 1619,-47.4 1291.11,-27.85 1164.8,-22.01"/>
<polygon fill="red" stroke="red" points="1164.78,-18.5 1154.63,-21.55 1164.47,-25.5 1164.78,-18.5"/>
<text text-anchor="middle" x="1646" y="-316" font-family="Times,serif" font-size="10.00" fill="red">1.1.7</text>
<text text-anchor="middle" x="1646" y="-305" font-family="Times,serif" font-size="10.00" fill="red">(latest: 1.1.8)</text>
</g>
<!-- roo_windows&#45;&gt;roo_time -->
<g id="edge61" class="edge">
<title>roo_windows&#45;&gt;roo_time</title>
<path fill="none" stroke="red" d="M1082.06,-629.72C1062.62,-599.15 1024.18,-535.16 1003,-476 978.23,-406.82 970,-387.48 970,-314 970,-314 970,-314 970,-168 970,-121.46 819.12,-103.73 742.52,-97.73"/>
<polygon fill="red" stroke="red" points="742.46,-94.21 732.23,-96.96 741.94,-101.19 742.46,-94.21"/>
<text text-anchor="middle" x="1000" y="-364" font-family="Times,serif" font-size="10.00" fill="red">1.3.2</text>
<text text-anchor="middle" x="1000" y="-353" font-family="Times,serif" font-size="10.00" fill="red">(latest: 1.3.3)</text>
</g>
<!-- roo_windows_transceivers -->
<g id="node28" class="node">
<title>roo_windows_transceivers</title>
<polygon fill="plum" stroke="black" points="864.5,-743 703.5,-743 703.5,-705 864.5,-705 864.5,-743"/>
<text text-anchor="middle" x="784" y="-727.8" font-family="Times,serif" font-size="14.00">roo_windows_transceivers</text>
<text text-anchor="middle" x="784" y="-712.8" font-family="Times,serif" font-size="14.00">1.0.0</text>
</g>
<!-- roo_windows_transceivers&#45;&gt;roo_transceivers -->
<g id="edge62" class="edge">
<title>roo_windows_transceivers&#45;&gt;roo_transceivers</title>
<path fill="none" stroke="black" d="M757.35,-704.91C712.17,-674.25 620.52,-612.05 570.14,-577.85"/>
<polygon fill="black" stroke="black" points="572.07,-574.93 561.83,-572.21 568.14,-580.72 572.07,-574.93"/>
</g>
<!-- roo_windows_transceivers&#45;&gt;roo_windows -->
<g id="edge63" class="edge">
<title>roo_windows_transceivers&#45;&gt;roo_windows</title>
<path fill="none" stroke="black" d="M860.63,-704.96C915.98,-691.92 989.43,-674.62 1039.03,-662.94"/>
<polygon fill="black" stroke="black" points="1040,-666.31 1048.93,-660.61 1038.39,-659.5 1040,-666.31"/>
</g>
<!-- roo_windows_wifi -->
<g id="node29" class="node">
<title>roo_windows_wifi</title>
<polygon fill="plum" stroke="black" points="1558.5,-743 1439.5,-743 1439.5,-705 1558.5,-705 1558.5,-743"/>
<text text-anchor="middle" x="1499" y="-727.8" font-family="Times,serif" font-size="14.00">roo_windows_wifi</text>
<text text-anchor="middle" x="1499" y="-712.8" font-family="Times,serif" font-size="14.00">1.1.2</text>
</g>
<!-- roo_windows_wifi&#45;&gt;roo_testing -->
<g id="edge64" class="edge">
<title>roo_windows_wifi&#45;&gt;roo_testing</title>
<path fill="none" stroke="red" d="M1558.54,-705.92C1613.94,-689.15 1688,-664.09 1688,-650 1688,-650 1688,-650 1688,-93 1688,-40.5 1303.88,-25.02 1165.19,-21.14"/>
<polygon fill="red" stroke="red" points="1164.96,-17.64 1154.87,-20.87 1164.77,-24.63 1164.96,-17.64"/>
<text text-anchor="middle" x="1715" y="-364" font-family="Times,serif" font-size="10.00" fill="red">1.1.7</text>
<text text-anchor="middle" x="1715" y="-353" font-family="Times,serif" font-size="10.00" fill="red">(latest: 1.1.8)</text>
</g>
<!-- roo_windows_wifi&#45;&gt;roo_wifi -->
<g id="edge65" class="edge">
<title>roo_windows_wifi&#45;&gt;roo_wifi</title>
<path fill="none" stroke="black" d="M1499,-704.91C1499,-675.51 1499,-617.13 1499,-582.23"/>
<polygon fill="black" stroke="black" points="1502.5,-582.21 1499,-572.21 1495.5,-582.21 1502.5,-582.21"/>
</g>
<!-- roo_windows_wifi&#45;&gt;roo_windows -->
<g id="edge66" class="edge">
<title>roo_windows_wifi&#45;&gt;roo_windows</title>
<path fill="none" stroke="black" d="M1439.24,-712.23C1361.01,-698.13 1224.95,-673.6 1149.1,-659.93"/>
<polygon fill="black" stroke="black" points="1149.72,-656.49 1139.26,-658.16 1148.48,-663.38 1149.72,-656.49"/>
</g>
</g>
</svg>
