<?xml version="1.0" encoding="UTF-8" standalone="no"?>
<!DOCTYPE svg PUBLIC "-//W3C//DTD SVG 1.1//EN"
 "http://www.w3.org/Graphics/SVG/1.1/DTD/svg11.dtd">
<!-- Generated by graphviz version 2.42.4 (0)
 -->
<!-- Title: dependencies Pages: 1 -->
<svg width="2455pt" height="751pt"
 viewBox="0.00 0.00 2455.00 751.00" xmlns="http://www.w3.org/2000/svg" xmlns:xlink="http://www.w3.org/1999/xlink">
<g id="graph0" class="graph" transform="scale(1 1) rotate(0) translate(4 747)">
<title>dependencies</title>
<polygon fill="white" stroke="transparent" points="-4,4 -4,-747 2451,-747 2451,4 -4,4"/>
<!-- roo_backport -->
<g id="node1" class="node">
<title>roo_backport</title>
<polygon fill="#b1dbab" stroke="black" points="1573,-113 1463,-113 1463,-75 1573,-75 1573,-113"/>
<text text-anchor="middle" x="1518" y="-97.8" font-family="Times,serif" font-size="14.00">roo_backport</text>
<text text-anchor="middle" x="1518" y="-82.8" font-family="Times,serif" font-size="14.00">1.2.0</text>
</g>
<!-- roo_blink -->
<g id="node2" class="node">
<title>roo_blink</title>
<polygon fill="plum" stroke="black" points="852,-380 770,-380 770,-342 852,-342 852,-380"/>
<text text-anchor="middle" x="811" y="-364.8" font-family="Times,serif" font-size="14.00">roo_blink</text>
<text text-anchor="middle" x="811" y="-349.8" font-family="Times,serif" font-size="14.00">1.0.3</text>
</g>
<!-- roo_logging -->
<g id="node12" class="node">
<title>roo_logging</title>
<polygon fill="#b1dbab" stroke="black" points="857,-284 757,-284 757,-246 857,-246 857,-284"/>
<text text-anchor="middle" x="807" y="-268.8" font-family="Times,serif" font-size="14.00">roo_logging</text>
<text text-anchor="middle" x="807" y="-253.8" font-family="Times,serif" font-size="14.00">1.5.1</text>
</g>
<!-- roo_blink&#45;&gt;roo_logging -->
<g id="edge1" class="edge">
<title>roo_blink&#45;&gt;roo_logging</title>
<path fill="none" stroke="red" d="M809.24,-341.7C808.76,-336.03 808.29,-329.76 808,-324 807.51,-314.28 807.25,-303.63 807.11,-294.15"/>
<polygon fill="red" stroke="red" points="810.61,-294 807.01,-284.04 803.61,-294.07 810.61,-294"/>
<text text-anchor="middle" x="841" y="-316" font-family="Times,serif" font-size="10.00" fill="red">1.5.0</text>
<text text-anchor="middle" x="841" y="-305" font-family="Times,serif" font-size="10.00" fill="red">(latest: 1.5.1)</text>
</g>
<!-- roo_scheduler -->
<g id="node16" class="node">
<title>roo_scheduler</title>
<polygon fill="#b1dbab" stroke="black" points="1360,-284 1244,-284 1244,-246 1360,-246 1360,-284"/>
<text text-anchor="middle" x="1302" y="-268.8" font-family="Times,serif" font-size="14.00">roo_scheduler</text>
<text text-anchor="middle" x="1302" y="-253.8" font-family="Times,serif" font-size="14.00">2.1.6</text>
</g>
<!-- roo_blink&#45;&gt;roo_scheduler -->
<g id="edge2" class="edge">
<title>roo_blink&#45;&gt;roo_scheduler</title>
<path fill="none" stroke="black" d="M852.17,-345.41C856.8,-344.11 861.47,-342.93 866,-342 954.73,-323.8 980.13,-341.5 1069,-324 1101.41,-317.62 1108.07,-310.48 1140,-302 1170.64,-293.86 1204.87,-286.07 1233.94,-279.83"/>
<polygon fill="black" stroke="black" points="1234.94,-283.2 1243.99,-277.69 1233.48,-276.35 1234.94,-283.2"/>
</g>
<!-- roo_collections -->
<g id="node3" class="node">
<title>roo_collections</title>
<polygon fill="#b1dbab" stroke="black" points="1807,-188 1685,-188 1685,-150 1807,-150 1807,-188"/>
<text text-anchor="middle" x="1746" y="-172.8" font-family="Times,serif" font-size="14.00">roo_collections</text>
<text text-anchor="middle" x="1746" y="-157.8" font-family="Times,serif" font-size="14.00">1.4.0</text>
</g>
<!-- roo_collections&#45;&gt;roo_backport -->
<g id="edge3" class="edge">
<title>roo_collections&#45;&gt;roo_backport</title>
<path fill="none" stroke="black" d="M1689.64,-149.96C1657.35,-139.62 1616.7,-126.6 1583.06,-115.83"/>
<polygon fill="black" stroke="black" points="1583.91,-112.43 1573.32,-112.71 1581.77,-119.09 1583.91,-112.43"/>
</g>
<!-- roo_comms -->
<g id="node4" class="node">
<title>roo_comms</title>
<polygon fill="plum" stroke="black" points="1076.5,-572 979.5,-572 979.5,-534 1076.5,-534 1076.5,-572"/>
<text text-anchor="middle" x="1028" y="-556.8" font-family="Times,serif" font-size="14.00">roo_comms</text>
<text text-anchor="middle" x="1028" y="-541.8" font-family="Times,serif" font-size="14.00">1.1.2</text>
</g>
<!-- roo_comms&#45;&gt;roo_blink -->
<g id="edge5" class="edge">
<title>roo_comms&#45;&gt;roo_blink</title>
<path fill="none" stroke="red" d="M1006.37,-533.87C976.38,-508.65 920.6,-461.4 874,-420 861.99,-409.33 848.89,-397.33 837.77,-387.03"/>
<polygon fill="red" stroke="red" points="840.13,-384.45 830.42,-380.21 835.36,-389.58 840.13,-384.45"/>
<text text-anchor="middle" x="969" y="-460" font-family="Times,serif" font-size="10.00" fill="red">1.0.2</text>
<text text-anchor="middle" x="969" y="-449" font-family="Times,serif" font-size="10.00" fill="red">(latest: 1.0.3)</text>
</g>
<!-- roo_comms&#45;&gt;roo_collections -->
<g id="edge6" class="edge">
<title>roo_comms&#45;&gt;roo_collections</title>
<path fill="none" stroke="red" d="M1076.67,-551.01C1239.61,-547.18 1758.41,-530.76 1807,-476 1830.16,-449.9 1815.24,-428.34 1798,-398 1792.25,-387.89 1783.87,-390.56 1779,-380 1764.47,-348.47 1779.63,-336.4 1775,-302 1770.11,-265.66 1760.39,-224.51 1753.55,-197.95"/>
<polygon fill="red" stroke="red" points="1756.91,-196.98 1751,-188.19 1750.14,-198.75 1756.91,-196.98"/>
<text text-anchor="middle" x="1812" y="-364" font-family="Times,serif" font-size="10.00" fill="red">1.3.2</text>
<text text-anchor="middle" x="1812" y="-353" font-family="Times,serif" font-size="10.00" fill="red">(latest: 1.4.0)</text>
</g>
<!-- roo_control -->
<g id="node5" class="node">
<title>roo_control</title>
<polygon fill="plum" stroke="black" points="492.5,-476 395.5,-476 395.5,-438 492.5,-438 492.5,-476"/>
<text text-anchor="middle" x="444" y="-460.8" font-family="Times,serif" font-size="14.00">roo_control</text>
<text text-anchor="middle" x="444" y="-445.8" font-family="Times,serif" font-size="14.00">1.2.2</text>
</g>
<!-- roo_comms&#45;&gt;roo_control -->
<g id="edge7" class="edge">
<title>roo_comms&#45;&gt;roo_control</title>
<path fill="none" stroke="black" d="M979.32,-551.56C901.37,-550.02 744.07,-543.42 614,-516 573.87,-507.54 530.1,-492.46 497.03,-479.8"/>
<polygon fill="black" stroke="black" points="498.15,-476.48 487.56,-476.13 495.62,-483.01 498.15,-476.48"/>
</g>
<!-- roo_io -->
<g id="node10" class="node">
<title>roo_io</title>
<polygon fill="plum" stroke="black" points="1133.5,-380 1074.5,-380 1074.5,-342 1133.5,-342 1133.5,-380"/>
<text text-anchor="middle" x="1104" y="-364.8" font-family="Times,serif" font-size="14.00">roo_io</text>
<text text-anchor="middle" x="1104" y="-349.8" font-family="Times,serif" font-size="14.00">2.1.0</text>
</g>
<!-- roo_comms&#45;&gt;roo_io -->
<g id="edge8" class="edge">
<title>roo_comms&#45;&gt;roo_io</title>
<path fill="none" stroke="red" d="M1026,-533.79C1024.2,-510.57 1023.6,-469.63 1037,-438 1045.22,-418.59 1060.42,-400.71 1074.27,-387.17"/>
<polygon fill="red" stroke="red" points="1076.88,-389.51 1081.77,-380.11 1072.09,-384.41 1076.88,-389.51"/>
<text text-anchor="middle" x="1070" y="-460" font-family="Times,serif" font-size="10.00" fill="red">2.0.3</text>
<text text-anchor="middle" x="1070" y="-449" font-family="Times,serif" font-size="10.00" fill="red">(latest: 2.1.0)</text>
</g>
<!-- roo_comms&#45;&gt;roo_logging -->
<g id="edge9" class="edge">
<title>roo_comms&#45;&gt;roo_logging</title>
<path fill="none" stroke="red" d="M979.27,-537.14C924.1,-518.08 834.69,-480.12 779,-420 754.82,-393.9 751.44,-376.27 761,-342 766.01,-324.04 776.55,-306.09 786.28,-292.15"/>
<polygon fill="red" stroke="red" points="789.13,-294.17 792.17,-284.02 783.47,-290.06 789.13,-294.17"/>
<text text-anchor="middle" x="812" y="-412" font-family="Times,serif" font-size="10.00" fill="red">1.4.3</text>
<text text-anchor="middle" x="812" y="-401" font-family="Times,serif" font-size="10.00" fill="red">(latest: 1.5.1)</text>
</g>
<!-- roo_prefs -->
<g id="node14" class="node">
<title>roo_prefs</title>
<polygon fill="#b1dbab" stroke="black" points="1527.5,-380 1444.5,-380 1444.5,-342 1527.5,-342 1527.5,-380"/>
<text text-anchor="middle" x="1486" y="-364.8" font-family="Times,serif" font-size="14.00">roo_prefs</text>
<text text-anchor="middle" x="1486" y="-349.8" font-family="Times,serif" font-size="14.00">1.2.7</text>
</g>
<!-- roo_comms&#45;&gt;roo_prefs -->
<g id="edge10" class="edge">
<title>roo_comms&#45;&gt;roo_prefs</title>
<path fill="none" stroke="red" d="M1076.89,-551.92C1126.86,-550.2 1205.73,-542.9 1268,-516 1345.87,-482.37 1346.9,-444.25 1418,-398 1424.85,-393.54 1432.31,-389.16 1439.69,-385.07"/>
<polygon fill="red" stroke="red" points="1441.83,-387.9 1448.96,-380.07 1438.5,-381.74 1441.83,-387.9"/>
<text text-anchor="middle" x="1400" y="-460" font-family="Times,serif" font-size="10.00" fill="red">1.2.3</text>
<text text-anchor="middle" x="1400" y="-449" font-family="Times,serif" font-size="10.00" fill="red">(latest: 1.2.7)</text>
</g>
<!-- roo_comms&#45;&gt;roo_scheduler -->
<g id="edge11" class="edge">
<title>roo_comms&#45;&gt;roo_scheduler</title>
<path fill="none" stroke="red" d="M1076.86,-542.86C1121.61,-532.58 1187.85,-512.34 1235,-476 1295.96,-429.01 1307.32,-400.23 1318,-324 1319.36,-314.32 1320.03,-311.56 1318,-302 1317.4,-299.18 1316.56,-296.31 1315.59,-293.48"/>
<polygon fill="red" stroke="red" points="1318.83,-292.16 1311.85,-284.18 1312.33,-294.77 1318.83,-292.16"/>
<text text-anchor="middle" x="1334" y="-412" font-family="Times,serif" font-size="10.00" fill="red">2.1.5</text>
<text text-anchor="middle" x="1334" y="-401" font-family="Times,serif" font-size="10.00" fill="red">(latest: 2.1.6)</text>
</g>
<!-- roo_testing -->
<g id="node17" class="node">
<title>roo_testing</title>
<polygon fill="#b1dbab" stroke="black" points="2033.5,-38 1936.5,-38 1936.5,0 2033.5,0 2033.5,-38"/>
<text text-anchor="middle" x="1985" y="-22.8" font-family="Times,serif" font-size="14.00">roo_testing</text>
<text text-anchor="middle" x="1985" y="-7.8" font-family="Times,serif" font-size="14.00">1.2.0</text>
</g>
<!-- roo_comms&#45;&gt;roo_testing -->
<g id="edge4" class="edge">
<title>roo_comms&#45;&gt;roo_testing</title>
<path fill="none" stroke="red" d="M1076.79,-550.41C1190.74,-546.5 1483.21,-535.3 1727,-516 1815,-509.03 2120,-546.28 2120,-458 2120,-458 2120,-458 2120,-312 2120,-282.01 2125.43,-274.73 2134,-246 2136.45,-237.77 2139.42,-236.44 2141,-228 2142.8,-218.39 2142.87,-215.6 2141,-206 2129,-144.35 2121.97,-127.83 2088,-75 2077.5,-58.67 2060.44,-46.86 2043.2,-38.48"/>
<polygon fill="red" stroke="red" points="2044.2,-35.09 2033.65,-34.16 2041.32,-41.47 2044.2,-35.09"/>
<text text-anchor="middle" x="2167" y="-268" font-family="Times,serif" font-size="10.00" fill="red">1.1.8</text>
<text text-anchor="middle" x="2167" y="-257" font-family="Times,serif" font-size="10.00" fill="red">(latest: 1.2.0)</text>
</g>
<!-- roo_threads -->
<g id="node18" class="node">
<title>roo_threads</title>
<polygon fill="#b1dbab" stroke="black" points="1129.5,-188 1028.5,-188 1028.5,-150 1129.5,-150 1129.5,-188"/>
<text text-anchor="middle" x="1079" y="-172.8" font-family="Times,serif" font-size="14.00">roo_threads</text>
<text text-anchor="middle" x="1079" y="-157.8" font-family="Times,serif" font-size="14.00">1.2.0</text>
</g>
<!-- roo_comms&#45;&gt;roo_threads -->
<g id="edge12" class="edge">
<title>roo_comms&#45;&gt;roo_threads</title>
<path fill="none" stroke="red" d="M979.33,-542.96C915.83,-531.25 801.23,-510.38 703,-494 651.54,-485.42 628.12,-508.12 587,-476 570.77,-463.32 510.31,-318.23 523,-302 583.82,-224.18 886.37,-187.56 1017.84,-175.13"/>
<polygon fill="red" stroke="red" points="1018.5,-178.58 1028.13,-174.17 1017.85,-171.61 1018.5,-178.58"/>
<text text-anchor="middle" x="573" y="-364" font-family="Times,serif" font-size="10.00" fill="red">1.1.6</text>
<text text-anchor="middle" x="573" y="-353" font-family="Times,serif" font-size="10.00" fill="red">(latest: 1.2.0)</text>
</g>
<!-- roo_time -->
<g id="node19" class="node">
<title>roo_time</title>
<polygon fill="#b1dbab" stroke="black" points="1118.5,-113 1039.5,-113 1039.5,-75 1118.5,-75 1118.5,-113"/>
<text text-anchor="middle" x="1079" y="-97.8" font-family="Times,serif" font-size="14.00">roo_time</text>
<text text-anchor="middle" x="1079" y="-82.8" font-family="Times,serif" font-size="14.00">1.4.0</text>
</g>
<!-- roo_comms&#45;&gt;roo_time -->
<g id="edge13" class="edge">
<title>roo_comms&#45;&gt;roo_time</title>
<path fill="none" stroke="red" d="M979.28,-552.67C832.68,-553.83 398.61,-550.71 283,-476 227.73,-440.28 192.18,-401.64 220,-342 248.08,-281.82 388.43,-177.23 449,-150 552.47,-103.48 899.42,-96.22 1029.33,-95.16"/>
<polygon fill="red" stroke="red" points="1029.43,-98.66 1039.4,-95.08 1029.37,-91.66 1029.43,-98.66"/>
<text text-anchor="middle" x="281" y="-316" font-family="Times,serif" font-size="10.00" fill="red">1.3.3</text>
<text text-anchor="middle" x="281" y="-305" font-family="Times,serif" font-size="10.00" fill="red">(latest: 1.4.0)</text>
</g>
<!-- roo_transceivers -->
<g id="node21" class="node">
<title>roo_transceivers</title>
<polygon fill="plum" stroke="black" points="1674.5,-476 1539.5,-476 1539.5,-438 1674.5,-438 1674.5,-476"/>
<text text-anchor="middle" x="1607" y="-460.8" font-family="Times,serif" font-size="14.00">roo_transceivers</text>
<text text-anchor="middle" x="1607" y="-445.8" font-family="Times,serif" font-size="14.00">1.1.3</text>
</g>
<!-- roo_comms&#45;&gt;roo_transceivers -->
<g id="edge14" class="edge">
<title>roo_comms&#45;&gt;roo_transceivers</title>
<path fill="none" stroke="black" d="M1076.79,-550.71C1151.09,-548.03 1296.76,-539.93 1418,-516 1462.51,-507.21 1511.45,-492.04 1548.37,-479.41"/>
<polygon fill="black" stroke="black" points="1549.66,-482.67 1557.97,-476.09 1547.38,-476.05 1549.66,-482.67"/>
</g>
<!-- roo_control&#45;&gt;roo_logging -->
<g id="edge16" class="edge">
<title>roo_control&#45;&gt;roo_logging</title>
<path fill="none" stroke="red" d="M440.1,-437.68C435.91,-412.38 432.86,-367.05 458,-342 481.94,-318.15 576.04,-331.46 609,-324 638.75,-317.27 644.82,-310.88 674,-302 697.72,-294.78 724.04,-287.51 746.96,-281.4"/>
<polygon fill="red" stroke="red" points="748.12,-284.72 756.9,-278.78 746.33,-277.95 748.12,-284.72"/>
<text text-anchor="middle" x="491" y="-364" font-family="Times,serif" font-size="10.00" fill="red">1.4.3</text>
<text text-anchor="middle" x="491" y="-353" font-family="Times,serif" font-size="10.00" fill="red">(latest: 1.5.1)</text>
</g>
<!-- roo_quantity -->
<g id="node15" class="node">
<title>roo_quantity</title>
<polygon fill="plum" stroke="black" points="407.5,-380 300.5,-380 300.5,-342 407.5,-342 407.5,-380"/>
<text text-anchor="middle" x="354" y="-364.8" font-family="Times,serif" font-size="14.00">roo_quantity</text>
<text text-anchor="middle" x="354" y="-349.8" font-family="Times,serif" font-size="14.00">1.1.4</text>
</g>
<!-- roo_control&#45;&gt;roo_quantity -->
<g id="edge17" class="edge">
<title>roo_control&#45;&gt;roo_quantity</title>
<path fill="none" stroke="red" d="M395.22,-442.97C383.41,-437.64 371.93,-430.23 364,-420 357.54,-411.67 354.67,-400.63 353.53,-390.43"/>
<polygon fill="red" stroke="red" points="357.01,-390 352.9,-380.24 350.03,-390.43 357.01,-390"/>
<text text-anchor="middle" x="397" y="-412" font-family="Times,serif" font-size="10.00" fill="red">1.1.3</text>
<text text-anchor="middle" x="397" y="-401" font-family="Times,serif" font-size="10.00" fill="red">(latest: 1.1.4)</text>
</g>
<!-- roo_control&#45;&gt;roo_scheduler -->
<g id="edge18" class="edge">
<title>roo_control&#45;&gt;roo_scheduler</title>
<path fill="none" stroke="red" d="M492.58,-449.33C520.23,-445.67 555.51,-441.24 587,-438 686.79,-427.73 712.18,-430.02 812,-420 830.43,-418.15 1125.59,-386.33 1143,-380 1170.75,-369.91 1234.14,-320.95 1271.96,-290.57"/>
<polygon fill="red" stroke="red" points="1274.49,-293.02 1280.08,-284.02 1270.1,-287.57 1274.49,-293.02"/>
<text text-anchor="middle" x="1237" y="-364" font-family="Times,serif" font-size="10.00" fill="red">2.1.5</text>
<text text-anchor="middle" x="1237" y="-353" font-family="Times,serif" font-size="10.00" fill="red">(latest: 2.1.6)</text>
</g>
<!-- roo_control&#45;&gt;roo_testing -->
<g id="edge15" class="edge">
<title>roo_control&#45;&gt;roo_testing</title>
<path fill="none" stroke="red" d="M395.22,-438.86C354.61,-423.4 301.74,-400.07 291,-380 232.48,-270.66 335.46,-199.89 449,-150 721.19,-30.4 1677.91,-20.48 1925.92,-19.95"/>
<polygon fill="red" stroke="red" points="1926.17,-23.44 1936.17,-19.93 1926.16,-16.44 1926.17,-23.44"/>
<text text-anchor="middle" x="379" y="-220" font-family="Times,serif" font-size="10.00" fill="red">1.1.8</text>
<text text-anchor="middle" x="379" y="-209" font-family="Times,serif" font-size="10.00" fill="red">(latest: 1.2.0)</text>
</g>
<!-- roo_dashboard -->
<g id="node6" class="node">
<title>roo_dashboard</title>
<polygon fill="plum" stroke="black" points="781,-743 659,-743 659,-705 781,-705 781,-743"/>
<text text-anchor="middle" x="720" y="-727.8" font-family="Times,serif" font-size="14.00">roo_dashboard</text>
<text text-anchor="middle" x="720" y="-712.8" font-family="Times,serif" font-size="14.00">1.0.1</text>
</g>
<!-- roo_dashboard&#45;&gt;roo_testing -->
<g id="edge19" class="edge">
<title>roo_dashboard&#45;&gt;roo_testing</title>
<path fill="none" stroke="red" d="M658.92,-723.17C485.07,-722.84 0,-716 0,-650 0,-650 0,-650 0,-93 0,-43.51 1597.14,-24.07 1926.16,-20.59"/>
<polygon fill="red" stroke="red" points="1926.46,-24.09 1936.43,-20.48 1926.39,-17.09 1926.46,-24.09"/>
<text text-anchor="middle" x="33" y="-364" font-family="Times,serif" font-size="10.00" fill="red">1.1.7</text>
<text text-anchor="middle" x="33" y="-353" font-family="Times,serif" font-size="10.00" fill="red">(latest: 1.2.0)</text>
</g>
<!-- roo_windows -->
<g id="node24" class="node">
<title>roo_windows</title>
<polygon fill="plum" stroke="black" points="1847.5,-668 1738.5,-668 1738.5,-630 1847.5,-630 1847.5,-668"/>
<text text-anchor="middle" x="1793" y="-652.8" font-family="Times,serif" font-size="14.00">roo_windows</text>
<text text-anchor="middle" x="1793" y="-637.8" font-family="Times,serif" font-size="14.00">1.4.1</text>
</g>
<!-- roo_dashboard&#45;&gt;roo_windows -->
<g id="edge20" class="edge">
<title>roo_dashboard&#45;&gt;roo_windows</title>
<path fill="none" stroke="black" d="M781.15,-718.84C968.87,-706.07 1535.74,-667.5 1728.23,-654.41"/>
<polygon fill="black" stroke="black" points="1728.73,-657.88 1738.47,-653.71 1728.26,-650.9 1728.73,-657.88"/>
</g>
<!-- roo_display -->
<g id="node7" class="node">
<title>roo_display</title>
<polygon fill="plum" stroke="black" points="2002,-476 1904,-476 1904,-438 2002,-438 2002,-476"/>
<text text-anchor="middle" x="1953" y="-460.8" font-family="Times,serif" font-size="14.00">roo_display</text>
<text text-anchor="middle" x="1953" y="-445.8" font-family="Times,serif" font-size="14.00">2.3.1</text>
</g>
<!-- roo_display&#45;&gt;roo_backport -->
<g id="edge22" class="edge">
<title>roo_display&#45;&gt;roo_backport</title>
<path fill="none" stroke="red" d="M1949.96,-437.96C1948.01,-426.51 1945.41,-411.38 1943,-398 1921.07,-276.12 1920.55,-216.37 1816,-150 1778.24,-126.03 1659.22,-109.64 1583.51,-101.34"/>
<polygon fill="red" stroke="red" points="1583.44,-97.81 1573.13,-100.22 1582.69,-104.77 1583.44,-97.81"/>
<text text-anchor="middle" x="1953" y="-268" font-family="Times,serif" font-size="10.00" fill="red">1.1.1</text>
<text text-anchor="middle" x="1953" y="-257" font-family="Times,serif" font-size="10.00" fill="red">(latest: 1.2.0)</text>
</g>
<!-- roo_display&#45;&gt;roo_collections -->
<g id="edge23" class="edge">
<title>roo_display&#45;&gt;roo_collections</title>
<path fill="none" stroke="red" d="M1944.98,-437.87C1939.45,-426.11 1931.58,-410.67 1923,-398 1916.91,-389 1863.83,-333.74 1859,-324 1835.16,-275.99 1868.36,-247.15 1834,-206 1828.94,-199.94 1822.7,-194.89 1815.9,-190.68"/>
<polygon fill="red" stroke="red" points="1817.48,-187.55 1807.03,-185.79 1814.1,-193.68 1817.48,-187.55"/>
<text text-anchor="middle" x="1892" y="-316" font-family="Times,serif" font-size="10.00" fill="red">1.3.2</text>
<text text-anchor="middle" x="1892" y="-305" font-family="Times,serif" font-size="10.00" fill="red">(latest: 1.4.0)</text>
</g>
<!-- roo_display&#45;&gt;roo_io -->
<g id="edge24" class="edge">
<title>roo_display&#45;&gt;roo_io</title>
<path fill="none" stroke="red" d="M1903.9,-449.51C1873.22,-445.66 1832.87,-440.96 1797,-438 1717.17,-431.41 1514.47,-440.34 1437,-420 1415.85,-414.45 1414.04,-403.94 1393,-398 1304.13,-372.91 1277.29,-393.93 1186,-380 1172.11,-377.88 1157.05,-374.8 1143.67,-371.79"/>
<polygon fill="red" stroke="red" points="1144.35,-368.36 1133.82,-369.52 1142.77,-375.18 1144.35,-368.36"/>
<text text-anchor="middle" x="1470" y="-412" font-family="Times,serif" font-size="10.00" fill="red">2.0.2</text>
<text text-anchor="middle" x="1470" y="-401" font-family="Times,serif" font-size="10.00" fill="red">(latest: 2.1.0)</text>
</g>
<!-- roo_display&#45;&gt;roo_testing -->
<g id="edge21" class="edge">
<title>roo_display&#45;&gt;roo_testing</title>
<path fill="none" stroke="red" d="M1970.01,-437.67C1990.99,-413.69 2025.53,-369.36 2039,-324 2052.88,-277.28 2001.01,-274.37 1986,-228 1966.03,-166.35 1973.57,-88.91 1979.86,-48.13"/>
<polygon fill="red" stroke="red" points="1983.34,-48.54 1981.5,-38.11 1976.43,-47.41 1983.34,-48.54"/>
<text text-anchor="middle" x="2019" y="-220" font-family="Times,serif" font-size="10.00" fill="red">1.1.7</text>
<text text-anchor="middle" x="2019" y="-209" font-family="Times,serif" font-size="10.00" fill="red">(latest: 1.2.0)</text>
</g>
<!-- roo_flags -->
<g id="node8" class="node">
<title>roo_flags</title>
<polygon fill="#b1dbab" stroke="black" points="605,-188 525,-188 525,-150 605,-150 605,-188"/>
<text text-anchor="middle" x="565" y="-172.8" font-family="Times,serif" font-size="14.00">roo_flags</text>
<text text-anchor="middle" x="565" y="-157.8" font-family="Times,serif" font-size="14.00">1.2.0</text>
</g>
<!-- roo_icons -->
<g id="node9" class="node">
<title>roo_icons</title>
<polygon fill="plum" stroke="black" points="2186.5,-572 2103.5,-572 2103.5,-534 2186.5,-534 2186.5,-572"/>
<text text-anchor="middle" x="2145" y="-556.8" font-family="Times,serif" font-size="14.00">roo_icons</text>
<text text-anchor="middle" x="2145" y="-541.8" font-family="Times,serif" font-size="14.00">1.2.1</text>
</g>
<!-- roo_icons&#45;&gt;roo_display -->
<g id="edge26" class="edge">
<title>roo_icons&#45;&gt;roo_display</title>
<path fill="none" stroke="black" d="M2107.98,-533.88C2076.9,-518.66 2032.36,-496.85 1999,-480.52"/>
<polygon fill="black" stroke="black" points="2000.43,-477.32 1989.91,-476.07 1997.35,-483.61 2000.43,-477.32"/>
</g>
<!-- roo_icons&#45;&gt;roo_testing -->
<g id="edge25" class="edge">
<title>roo_icons&#45;&gt;roo_testing</title>
<path fill="none" stroke="red" d="M2172.8,-533.94C2194.85,-517.19 2222,-490.07 2222,-458 2222,-458 2222,-458 2222,-93 2222,-55.76 2113.78,-35.52 2043.59,-26.3"/>
<polygon fill="red" stroke="red" points="2043.89,-22.81 2033.53,-25.02 2043.01,-29.76 2043.89,-22.81"/>
<text text-anchor="middle" x="2255" y="-268" font-family="Times,serif" font-size="10.00" fill="red">1.1.7</text>
<text text-anchor="middle" x="2255" y="-257" font-family="Times,serif" font-size="10.00" fill="red">(latest: 1.2.0)</text>
</g>
<!-- roo_io&#45;&gt;roo_backport -->
<g id="edge27" class="edge">
<title>roo_io&#45;&gt;roo_backport</title>
<path fill="none" stroke="black" d="M1113.5,-341.77C1120.51,-329.52 1130.89,-313.57 1143,-302 1177.6,-268.93 1189.39,-260.52 1235,-246 1289.76,-228.56 1450.07,-266.21 1493,-228 1522.04,-202.15 1523.98,-154.14 1521.73,-123.43"/>
<polygon fill="black" stroke="black" points="1525.2,-122.98 1520.79,-113.35 1518.23,-123.63 1525.2,-122.98"/>
</g>
<!-- roo_io&#45;&gt;roo_logging -->
<g id="edge28" class="edge">
<title>roo_io&#45;&gt;roo_logging</title>
<path fill="none" stroke="red" d="M1074.33,-347.39C1069.57,-345.5 1064.67,-343.64 1060,-342 1033.33,-332.64 1023.46,-338.17 999,-324 986.76,-316.91 988.5,-308.61 976,-302 942.48,-284.27 900.85,-275.27 867.3,-270.7"/>
<polygon fill="red" stroke="red" points="867.52,-267.2 857.16,-269.42 866.64,-274.15 867.52,-267.2"/>
<text text-anchor="middle" x="1032" y="-316" font-family="Times,serif" font-size="10.00" fill="red">1.5.0</text>
<text text-anchor="middle" x="1032" y="-305" font-family="Times,serif" font-size="10.00" fill="red">(latest: 1.5.1)</text>
</g>
<!-- roo_io&#45;&gt;roo_threads -->
<g id="edge29" class="edge">
<title>roo_io&#45;&gt;roo_threads</title>
<path fill="none" stroke="black" d="M1101.6,-341.78C1097.23,-308.52 1087.91,-237.73 1082.71,-198.2"/>
<polygon fill="black" stroke="black" points="1086.16,-197.62 1081.39,-188.16 1079.22,-198.53 1086.16,-197.62"/>
</g>
<!-- roo_locale -->
<g id="node11" class="node">
<title>roo_locale</title>
<polygon fill="#b1dbab" stroke="black" points="1975,-572 1887,-572 1887,-534 1975,-534 1975,-572"/>
<text text-anchor="middle" x="1931" y="-556.8" font-family="Times,serif" font-size="14.00">roo_locale</text>
<text text-anchor="middle" x="1931" y="-541.8" font-family="Times,serif" font-size="14.00">1.1.1</text>
</g>
<!-- roo_logging&#45;&gt;roo_backport -->
<g id="edge30" class="edge">
<title>roo_logging&#45;&gt;roo_backport</title>
<path fill="none" stroke="black" d="M857.02,-260.2C946.35,-252.55 1138.61,-232.09 1295,-188 1358.89,-169.99 1429,-138.71 1473.23,-117.45"/>
<polygon fill="black" stroke="black" points="1474.79,-120.58 1482.26,-113.07 1471.74,-114.28 1474.79,-120.58"/>
</g>
<!-- roo_logging&#45;&gt;roo_flags -->
<g id="edge31" class="edge">
<title>roo_logging&#45;&gt;roo_flags</title>
<path fill="none" stroke="black" d="M760.63,-245.99C718.78,-229.73 657.38,-205.88 614.57,-189.26"/>
<polygon fill="black" stroke="black" points="615.78,-185.97 605.19,-185.61 613.25,-192.5 615.78,-185.97"/>
</g>
<!-- roo_logging&#45;&gt;roo_threads -->
<g id="edge32" class="edge">
<title>roo_logging&#45;&gt;roo_threads</title>
<path fill="none" stroke="black" d="M857.21,-246.65C902.73,-230.92 969.93,-207.69 1018.42,-190.94"/>
<polygon fill="black" stroke="black" points="1019.86,-194.14 1028.16,-187.57 1017.57,-187.53 1019.86,-194.14"/>
</g>
<!-- roo_onewire -->
<g id="node13" class="node">
<title>roo_onewire</title>
<polygon fill="plum" stroke="black" points="700,-476 596,-476 596,-438 700,-438 700,-476"/>
<text text-anchor="middle" x="648" y="-460.8" font-family="Times,serif" font-size="14.00">roo_onewire</text>
<text text-anchor="middle" x="648" y="-445.8" font-family="Times,serif" font-size="14.00">2.0.6</text>
</g>
<!-- roo_onewire&#45;&gt;roo_logging -->
<g id="edge33" class="edge">
<title>roo_onewire&#45;&gt;roo_logging</title>
<path fill="none" stroke="red" d="M645.63,-437.78C643.47,-413.81 643.05,-371.3 662,-342 681.29,-312.17 716.3,-293.36 747.09,-281.91"/>
<polygon fill="red" stroke="red" points="748.64,-285.07 756.91,-278.44 746.32,-278.47 748.64,-285.07"/>
<text text-anchor="middle" x="695" y="-364" font-family="Times,serif" font-size="10.00" fill="red">1.5.0</text>
<text text-anchor="middle" x="695" y="-353" font-family="Times,serif" font-size="10.00" fill="red">(latest: 1.5.1)</text>
</g>
<!-- roo_onewire&#45;&gt;roo_quantity -->
<g id="edge35" class="edge">
<title>roo_onewire&#45;&gt;roo_quantity</title>
<path fill="none" stroke="black" d="M595.78,-439.3C545.91,-423.36 470.69,-399.31 417.41,-382.27"/>
<polygon fill="black" stroke="black" points="418.31,-378.89 407.72,-379.18 416.18,-385.56 418.31,-378.89"/>
</g>
<!-- roo_onewire&#45;&gt;roo_scheduler -->
<g id="edge34" class="edge">
<title>roo_onewire&#45;&gt;roo_scheduler</title>
<path fill="none" stroke="black" d="M700.32,-452.47C788.09,-446.3 961.24,-432.97 1021,-420 1050.39,-413.62 1055.6,-404.33 1085,-398 1127.11,-388.93 1245.85,-408.67 1278,-380 1301.75,-358.82 1305.37,-320.62 1304.64,-294.32"/>
<polygon fill="black" stroke="black" points="1308.13,-294.01 1304.13,-284.2 1301.14,-294.36 1308.13,-294.01"/>
</g>
<!-- roo_prefs&#45;&gt;roo_logging -->
<g id="edge36" class="edge">
<title>roo_prefs&#45;&gt;roo_logging</title>
<path fill="none" stroke="black" d="M1486.89,-341.89C1486.46,-328.7 1483.47,-311.54 1472,-302 1460.45,-292.39 1028.94,-274.64 867.3,-268.31"/>
<polygon fill="black" stroke="black" points="867.18,-264.81 857.05,-267.91 866.91,-271.8 867.18,-264.81"/>
</g>
<!-- roo_prefs&#45;&gt;roo_scheduler -->
<g id="edge37" class="edge">
<title>roo_prefs&#45;&gt;roo_scheduler</title>
<path fill="none" stroke="black" d="M1496.51,-341.75C1502.21,-329.18 1506.38,-312.86 1497,-302 1478.94,-281.1 1401.1,-289.36 1374,-284 1372.72,-283.75 1371.43,-283.49 1370.13,-283.22"/>
<polygon fill="black" stroke="black" points="1370.56,-279.73 1360.05,-281.04 1369.08,-286.57 1370.56,-279.73"/>
</g>
<!-- roo_quantity&#45;&gt;roo_flags -->
<g id="edge38" class="edge">
<title>roo_quantity&#45;&gt;roo_flags</title>
<path fill="none" stroke="black" d="M367.1,-341.93C390.18,-311.03 440.84,-247.36 495,-206 501.34,-201.16 508.42,-196.65 515.59,-192.58"/>
<polygon fill="black" stroke="black" points="517.53,-195.51 524.65,-187.67 514.19,-189.36 517.53,-195.51"/>
</g>
<!-- roo_quantity&#45;&gt;roo_logging -->
<g id="edge39" class="edge">
<title>roo_quantity&#45;&gt;roo_logging</title>
<path fill="none" stroke="red" d="M404.74,-341.97C442.46,-329.18 495.4,-312.48 543,-302 612.18,-286.77 693.06,-276.88 746.89,-271.39"/>
<polygon fill="red" stroke="red" points="747.34,-274.86 756.95,-270.38 746.65,-267.9 747.34,-274.86"/>
<text text-anchor="middle" x="576" y="-316" font-family="Times,serif" font-size="10.00" fill="red">1.5.0</text>
<text text-anchor="middle" x="576" y="-305" font-family="Times,serif" font-size="10.00" fill="red">(latest: 1.5.1)</text>
</g>
<!-- roo_quantity&#45;&gt;roo_time -->
<g id="edge40" class="edge">
<title>roo_quantity&#45;&gt;roo_time</title>
<path fill="none" stroke="black" d="M360.23,-341.86C364.46,-330.24 370.45,-314.95 377,-302 418.3,-220.3 432.46,-187.44 516,-150 607.22,-109.11 909.36,-98.47 1029.3,-95.83"/>
<polygon fill="black" stroke="black" points="1029.39,-99.33 1039.31,-95.62 1029.24,-92.33 1029.39,-99.33"/>
</g>
<!-- roo_scheduler&#45;&gt;roo_collections -->
<g id="edge41" class="edge">
<title>roo_scheduler&#45;&gt;roo_collections</title>
<path fill="none" stroke="black" d="M1360.2,-257.22C1404.66,-251.38 1467.23,-241.7 1521,-228 1549.74,-220.68 1555.48,-214.12 1584,-206 1613.5,-197.6 1646.47,-189.97 1674.94,-183.91"/>
<polygon fill="black" stroke="black" points="1675.74,-187.31 1684.8,-181.83 1674.3,-180.46 1675.74,-187.31"/>
</g>
<!-- roo_scheduler&#45;&gt;roo_threads -->
<g id="edge42" class="edge">
<title>roo_scheduler&#45;&gt;roo_threads</title>
<path fill="none" stroke="black" d="M1264.84,-245.99C1239.92,-234.14 1206.25,-218.55 1176,-206 1164.22,-201.11 1151.51,-196.16 1139.29,-191.57"/>
<polygon fill="black" stroke="black" points="1140.22,-188.18 1129.63,-187.96 1137.78,-194.74 1140.22,-188.18"/>
</g>
<!-- roo_threads&#45;&gt;roo_time -->
<g id="edge43" class="edge">
<title>roo_threads&#45;&gt;roo_time</title>
<path fill="none" stroke="black" d="M1079,-149.96C1079,-141.88 1079,-132.18 1079,-123.18"/>
<polygon fill="black" stroke="black" points="1082.5,-123.09 1079,-113.09 1075.5,-123.09 1082.5,-123.09"/>
</g>
<!-- roo_time&#45;&gt;roo_testing -->
<g id="edge44" class="edge">
<title>roo_time&#45;&gt;roo_testing</title>
<path fill="none" stroke="black" d="M1118.66,-87.97C1181.02,-80.2 1305.81,-65.23 1412,-56 1599.45,-39.71 1822.01,-27.87 1925.98,-22.77"/>
<polygon fill="black" stroke="black" points="1926.45,-26.26 1936.27,-22.27 1926.11,-19.26 1926.45,-26.26"/>
</g>
<!-- roo_time_ds3231 -->
<g id="node20" class="node">
<title>roo_time_ds3231</title>
<polygon fill="#b1dbab" stroke="black" points="1286,-188 1148,-188 1148,-150 1286,-150 1286,-188"/>
<text text-anchor="middle" x="1217" y="-172.8" font-family="Times,serif" font-size="14.00">roo_time_ds3231</text>
<text text-anchor="middle" x="1217" y="-157.8" font-family="Times,serif" font-size="14.00">1.1.4</text>
</g>
<!-- roo_time_ds3231&#45;&gt;roo_time -->
<g id="edge45" class="edge">
<title>roo_time_ds3231&#45;&gt;roo_time</title>
<path fill="none" stroke="black" d="M1182.89,-149.96C1164.56,-140.26 1141.77,-128.21 1122.22,-117.86"/>
<polygon fill="black" stroke="black" points="1123.67,-114.67 1113.2,-113.09 1120.4,-120.86 1123.67,-114.67"/>
</g>
<!-- roo_transceivers&#45;&gt;roo_collections -->
<g id="edge47" class="edge">
<title>roo_transceivers&#45;&gt;roo_collections</title>
<path fill="none" stroke="red" d="M1646.35,-437.96C1654.27,-432.99 1661.99,-427 1668,-420 1680.47,-405.47 1677.73,-398.09 1684,-380 1695.83,-345.88 1724.25,-246.74 1738.12,-197.88"/>
<polygon fill="red" stroke="red" points="1741.49,-198.84 1740.85,-188.26 1734.75,-196.93 1741.49,-198.84"/>
<text text-anchor="middle" x="1740" y="-316" font-family="Times,serif" font-size="10.00" fill="red">1.3.2</text>
<text text-anchor="middle" x="1740" y="-305" font-family="Times,serif" font-size="10.00" fill="red">(latest: 1.4.0)</text>
</g>
<!-- roo_transceivers&#45;&gt;roo_logging -->
<g id="edge48" class="edge">
<title>roo_transceivers&#45;&gt;roo_logging</title>
<path fill="none" stroke="red" d="M1539.13,-446.69C1496.85,-440.37 1441.47,-431.14 1393,-420 1359.15,-412.22 1352.23,-403.91 1318,-398 1248.25,-385.96 1063.3,-411.66 1000,-380 980.25,-370.12 985.16,-355.89 968,-342 938.64,-318.23 927.13,-318.2 893,-302 883.04,-297.27 872.28,-292.51 861.87,-288.07"/>
<polygon fill="red" stroke="red" points="863,-284.75 852.43,-284.09 860.28,-291.2 863,-284.75"/>
<text text-anchor="middle" x="1033" y="-364" font-family="Times,serif" font-size="10.00" fill="red">1.4.3</text>
<text text-anchor="middle" x="1033" y="-353" font-family="Times,serif" font-size="10.00" fill="red">(latest: 1.5.1)</text>
</g>
<!-- roo_transceivers&#45;&gt;roo_prefs -->
<g id="edge49" class="edge">
<title>roo_transceivers&#45;&gt;roo_prefs</title>
<path fill="none" stroke="red" d="M1555.96,-437.95C1545.77,-433.04 1535.58,-427.07 1527,-420 1516.59,-411.42 1507.59,-399.59 1500.7,-388.84"/>
<polygon fill="red" stroke="red" points="1503.61,-386.89 1495.42,-380.17 1497.63,-390.53 1503.61,-386.89"/>
<text text-anchor="middle" x="1560" y="-412" font-family="Times,serif" font-size="10.00" fill="red">1.2.3</text>
<text text-anchor="middle" x="1560" y="-401" font-family="Times,serif" font-size="10.00" fill="red">(latest: 1.2.7)</text>
</g>
<!-- roo_transceivers&#45;&gt;roo_testing -->
<g id="edge46" class="edge">
<title>roo_transceivers&#45;&gt;roo_testing</title>
<path fill="none" stroke="red" d="M1622.7,-438C1626.68,-432.55 1630.53,-426.32 1633,-420 1667.93,-330.78 1639.23,-299.75 1659,-206 1664.37,-180.55 1658.58,-169.32 1676,-150 1742.3,-76.46 1856.95,-43.25 1926.41,-29.24"/>
<polygon fill="red" stroke="red" points="1927.17,-32.66 1936.31,-27.31 1925.83,-25.79 1927.17,-32.66"/>
<text text-anchor="middle" x="1692" y="-220" font-family="Times,serif" font-size="10.00" fill="red">1.1.8</text>
<text text-anchor="middle" x="1692" y="-209" font-family="Times,serif" font-size="10.00" fill="red">(latest: 1.2.0)</text>
</g>
<!-- roo_transceivers&#45;&gt;roo_threads -->
<g id="edge50" class="edge">
<title>roo_transceivers&#45;&gt;roo_threads</title>
<path fill="none" stroke="red" d="M1604.78,-437.75C1602.83,-425.94 1599.28,-410.49 1593,-398 1568.06,-348.38 1558.09,-334.43 1513,-302 1399.69,-220.51 1349.43,-239.72 1214,-206 1183.46,-198.4 1173.68,-197.11 1139.47,-188.05"/>
<polygon fill="red" stroke="red" points="1140.25,-184.63 1129.68,-185.42 1138.43,-191.39 1140.25,-184.63"/>
<text text-anchor="middle" x="1573" y="-316" font-family="Times,serif" font-size="10.00" fill="red">1.1.6</text>
<text text-anchor="middle" x="1573" y="-305" font-family="Times,serif" font-size="10.00" fill="red">(latest: 1.2.0)</text>
</g>
<!-- roo_transceivers&#45;&gt;roo_time -->
<g id="edge51" class="edge">
<title>roo_transceivers&#45;&gt;roo_time</title>
<path fill="none" stroke="red" d="M1612.81,-437.59C1621.25,-407.28 1633.47,-345.85 1610,-302 1603.19,-289.28 1594.4,-292.84 1583,-284 1541.96,-252.18 1541.54,-230.96 1496,-206 1374.09,-139.19 1209.81,-110.91 1128.65,-100.41"/>
<polygon fill="red" stroke="red" points="1129.06,-96.94 1118.7,-99.16 1128.18,-103.88 1129.06,-96.94"/>
<text text-anchor="middle" x="1616" y="-268" font-family="Times,serif" font-size="10.00" fill="red">1.3.3</text>
<text text-anchor="middle" x="1616" y="-257" font-family="Times,serif" font-size="10.00" fill="red">(latest: 1.4.0)</text>
</g>
<!-- roo_transport -->
<g id="node22" class="node">
<title>roo_transport</title>
<polygon fill="plum" stroke="black" points="1226,-476 1112,-476 1112,-438 1226,-438 1226,-476"/>
<text text-anchor="middle" x="1169" y="-460.8" font-family="Times,serif" font-size="14.00">roo_transport</text>
<text text-anchor="middle" x="1169" y="-445.8" font-family="Times,serif" font-size="14.00">1.0.2</text>
</g>
<!-- roo_transport&#45;&gt;roo_collections -->
<g id="edge53" class="edge">
<title>roo_transport&#45;&gt;roo_collections</title>
<path fill="none" stroke="red" d="M1226.07,-450.47C1260.31,-445.59 1304.04,-436.56 1340,-420 1366.48,-407.8 1372.19,-401.39 1392,-380 1420.14,-349.61 1413.53,-331.11 1443,-302 1475.98,-269.42 1487.42,-261.8 1531,-246 1589.56,-224.77 1612.39,-251.7 1670,-228 1688.61,-220.35 1706.63,-206.94 1720.45,-194.94"/>
<polygon fill="red" stroke="red" points="1722.98,-197.38 1728.08,-188.09 1718.3,-192.17 1722.98,-197.38"/>
<text text-anchor="middle" x="1476" y="-316" font-family="Times,serif" font-size="10.00" fill="red">1.3.2</text>
<text text-anchor="middle" x="1476" y="-305" font-family="Times,serif" font-size="10.00" fill="red">(latest: 1.4.0)</text>
</g>
<!-- roo_transport&#45;&gt;roo_io -->
<g id="edge54" class="edge">
<title>roo_transport&#45;&gt;roo_io</title>
<path fill="none" stroke="red" d="M1112.54,-437.9C1105.19,-433.21 1098.62,-427.33 1094,-420 1088.37,-411.05 1088.92,-399.86 1091.59,-389.7"/>
<polygon fill="red" stroke="red" points="1094.97,-390.59 1094.8,-380 1088.33,-388.39 1094.97,-390.59"/>
<text text-anchor="middle" x="1127" y="-412" font-family="Times,serif" font-size="10.00" fill="red">2.0.3</text>
<text text-anchor="middle" x="1127" y="-401" font-family="Times,serif" font-size="10.00" fill="red">(latest: 2.1.0)</text>
</g>
<!-- roo_transport&#45;&gt;roo_logging -->
<g id="edge55" class="edge">
<title>roo_transport&#45;&gt;roo_logging</title>
<path fill="none" stroke="red" d="M1111.91,-439.41C1110.26,-438.93 1108.62,-438.46 1107,-438 1015.98,-411.91 971.22,-444.61 902,-380 875.07,-354.87 898.04,-329.9 874,-302 870.08,-297.45 865.44,-293.38 860.45,-289.76"/>
<polygon fill="red" stroke="red" points="862.09,-286.65 851.81,-284.1 858.26,-292.51 862.09,-286.65"/>
<text text-anchor="middle" x="935" y="-364" font-family="Times,serif" font-size="10.00" fill="red">1.4.3</text>
<text text-anchor="middle" x="935" y="-353" font-family="Times,serif" font-size="10.00" fill="red">(latest: 1.5.1)</text>
</g>
<!-- roo_transport&#45;&gt;roo_testing -->
<g id="edge52" class="edge">
<title>roo_transport&#45;&gt;roo_testing</title>
<path fill="none" stroke="red" d="M1226.01,-452.73C1255.12,-448.56 1289.64,-439.48 1315,-420 1355.62,-388.8 1426,-269.22 1426,-218 1426,-218 1426,-218 1426,-93 1426,-42.99 1782.31,-26.3 1925.99,-21.61"/>
<polygon fill="red" stroke="red" points="1926.49,-25.09 1936.37,-21.28 1926.26,-18.1 1926.49,-25.09"/>
<text text-anchor="middle" x="1459" y="-220" font-family="Times,serif" font-size="10.00" fill="red">1.1.8</text>
<text text-anchor="middle" x="1459" y="-209" font-family="Times,serif" font-size="10.00" fill="red">(latest: 1.2.0)</text>
</g>
<!-- roo_transport&#45;&gt;roo_threads -->
<g id="edge56" class="edge">
<title>roo_transport&#45;&gt;roo_threads</title>
<path fill="none" stroke="red" d="M1166.85,-437.85C1165.33,-426.35 1163.01,-411.21 1160,-398 1150.74,-357.42 1110.14,-231.64 1099,-206 1097.76,-203.14 1096.36,-200.21 1094.89,-197.32"/>
<polygon fill="red" stroke="red" points="1097.89,-195.5 1090.09,-188.34 1091.72,-198.8 1097.89,-195.5"/>
<text text-anchor="middle" x="1171" y="-316" font-family="Times,serif" font-size="10.00" fill="red">1.1.6</text>
<text text-anchor="middle" x="1171" y="-305" font-family="Times,serif" font-size="10.00" fill="red">(latest: 1.2.0)</text>
</g>
<!-- roo_wifi -->
<g id="node23" class="node">
<title>roo_wifi</title>
<polygon fill="plum" stroke="black" points="2092,-476 2020,-476 2020,-438 2092,-438 2092,-476"/>
<text text-anchor="middle" x="2056" y="-460.8" font-family="Times,serif" font-size="14.00">roo_wifi</text>
<text text-anchor="middle" x="2056" y="-445.8" font-family="Times,serif" font-size="14.00">1.1.2</text>
</g>
<!-- roo_wifi&#45;&gt;roo_collections -->
<g id="edge58" class="edge">
<title>roo_wifi&#45;&gt;roo_collections</title>
<path fill="none" stroke="red" d="M2047.25,-437.91C2035.26,-412.73 2013.45,-365.52 1998,-324 1985.35,-290.01 1999.35,-271.94 1974,-246 1932.74,-203.77 1867.43,-185 1817.27,-176.67"/>
<polygon fill="red" stroke="red" points="1817.55,-173.17 1807.13,-175.09 1816.47,-180.08 1817.55,-173.17"/>
<text text-anchor="middle" x="2031" y="-316" font-family="Times,serif" font-size="10.00" fill="red">1.3.2</text>
<text text-anchor="middle" x="2031" y="-305" font-family="Times,serif" font-size="10.00" fill="red">(latest: 1.4.0)</text>
</g>
<!-- roo_wifi&#45;&gt;roo_prefs -->
<g id="edge59" class="edge">
<title>roo_wifi&#45;&gt;roo_prefs</title>
<path fill="none" stroke="red" d="M2019.96,-440.48C2016.96,-439.53 2013.95,-438.68 2011,-438 1905.49,-413.6 1875.26,-434.94 1768,-420 1686.74,-408.68 1593.75,-388.03 1537.48,-374.67"/>
<polygon fill="red" stroke="red" points="1538.29,-371.27 1527.75,-372.35 1536.66,-378.08 1538.29,-371.27"/>
<text text-anchor="middle" x="1801" y="-412" font-family="Times,serif" font-size="10.00" fill="red">1.2.3</text>
<text text-anchor="middle" x="1801" y="-401" font-family="Times,serif" font-size="10.00" fill="red">(latest: 1.2.7)</text>
</g>
<!-- roo_wifi&#45;&gt;roo_testing -->
<g id="edge57" class="edge">
<title>roo_wifi&#45;&gt;roo_testing</title>
<path fill="none" stroke="red" d="M2058.32,-437.82C2063.18,-398.04 2074,-300.25 2074,-218 2074,-218 2074,-218 2074,-93 2074,-71.45 2058.2,-55.1 2039.92,-43.39"/>
<polygon fill="red" stroke="red" points="2041.2,-40.08 2030.8,-38.02 2037.64,-46.11 2041.2,-40.08"/>
<text text-anchor="middle" x="2107" y="-220" font-family="Times,serif" font-size="10.00" fill="red">1.1.8</text>
<text text-anchor="middle" x="2107" y="-209" font-family="Times,serif" font-size="10.00" fill="red">(latest: 1.2.0)</text>
</g>
<!-- roo_windows&#45;&gt;roo_collections -->
<g id="edge61" class="edge">
<title>roo_windows&#45;&gt;roo_collections</title>
<path fill="none" stroke="red" d="M1801.27,-629.86C1821.9,-582.19 1872.07,-449.66 1845,-342 1830.73,-285.25 1791.83,-228.1 1767.25,-196.06"/>
<polygon fill="red" stroke="red" points="1769.94,-193.82 1761.03,-188.09 1764.43,-198.12 1769.94,-193.82"/>
<text text-anchor="middle" x="1885" y="-412" font-family="Times,serif" font-size="10.00" fill="red">1.3.2</text>
<text text-anchor="middle" x="1885" y="-401" font-family="Times,serif" font-size="10.00" fill="red">(latest: 1.4.0)</text>
</g>
<!-- roo_windows&#45;&gt;roo_icons -->
<g id="edge64" class="edge">
<title>roo_windows&#45;&gt;roo_icons</title>
<path fill="none" stroke="black" d="M1847.61,-633.42C1914.84,-615.46 2028.13,-585.21 2093.77,-567.68"/>
<polygon fill="black" stroke="black" points="2094.73,-571.05 2103.49,-565.09 2092.92,-564.28 2094.73,-571.05"/>
</g>
<!-- roo_windows&#45;&gt;roo_io -->
<g id="edge65" class="edge">
<title>roo_windows&#45;&gt;roo_io</title>
<path fill="none" stroke="red" d="M1738.34,-646.48C1564.15,-641.14 1029.99,-620.92 971,-572 943.76,-549.41 942.17,-526.98 955,-494 975.98,-440.06 998.03,-434.44 1043,-398 1047.24,-394.56 1055.88,-389.18 1065.36,-383.61"/>
<polygon fill="red" stroke="red" points="1067.29,-386.53 1074.2,-378.5 1063.79,-380.48 1067.29,-386.53"/>
<text text-anchor="middle" x="988" y="-508" font-family="Times,serif" font-size="10.00" fill="red">2.0.2</text>
<text text-anchor="middle" x="988" y="-497" font-family="Times,serif" font-size="10.00" fill="red">(latest: 2.1.0)</text>
</g>
<!-- roo_windows&#45;&gt;roo_locale -->
<g id="edge62" class="edge">
<title>roo_windows&#45;&gt;roo_locale</title>
<path fill="none" stroke="black" d="M1840.65,-629.97C1851.69,-624.88 1863.1,-618.83 1873,-612 1886.11,-602.95 1898.83,-590.74 1909.01,-579.85"/>
<polygon fill="black" stroke="black" points="1911.81,-581.98 1915.94,-572.23 1906.62,-577.27 1911.81,-581.98"/>
</g>
<!-- roo_windows&#45;&gt;roo_logging -->
<g id="edge63" class="edge">
<title>roo_windows&#45;&gt;roo_logging</title>
<path fill="none" stroke="red" d="M1738.13,-648.21C1610.79,-648.11 1285.49,-644.4 1016,-612 703.07,-574.38 553.77,-687.4 320,-476 274.81,-435.13 253.17,-389.77 291,-342 346.43,-272.01 622.67,-264.75 746.62,-265.11"/>
<polygon fill="red" stroke="red" points="746.69,-268.61 756.71,-265.16 746.72,-261.61 746.69,-268.61"/>
<text text-anchor="middle" x="353" y="-460" font-family="Times,serif" font-size="10.00" fill="red">1.4.2</text>
<text text-anchor="middle" x="353" y="-449" font-family="Times,serif" font-size="10.00" fill="red">(latest: 1.5.1)</text>
</g>
<!-- roo_windows&#45;&gt;roo_scheduler -->
<g id="edge66" class="edge">
<title>roo_windows&#45;&gt;roo_scheduler</title>
<path fill="none" stroke="red" d="M1789.95,-629.73C1784.27,-593.25 1773.14,-508.83 1779,-438 1780.47,-420.23 1792.52,-412.39 1782,-398 1774.02,-387.08 1562.34,-329.55 1550,-324 1532.55,-316.15 1530.97,-308.57 1513,-302 1467.3,-285.28 1452.97,-292.19 1405,-284 1393.72,-282.07 1381.75,-280.01 1370.11,-277.98"/>
<polygon fill="red" stroke="red" points="1370.45,-274.49 1360,-276.22 1369.25,-281.38 1370.45,-274.49"/>
<text text-anchor="middle" x="1812" y="-460" font-family="Times,serif" font-size="10.00" fill="red">2.1.4</text>
<text text-anchor="middle" x="1812" y="-449" font-family="Times,serif" font-size="10.00" fill="red">(latest: 2.1.6)</text>
</g>
<!-- roo_windows&#45;&gt;roo_testing -->
<g id="edge60" class="edge">
<title>roo_windows&#45;&gt;roo_testing</title>
<path fill="none" stroke="red" d="M1847.74,-644.31C1978.84,-633.96 2300,-599.12 2300,-506 2300,-506 2300,-506 2300,-360 2300,-334.22 2298.5,-327.66 2301,-302 2304.67,-264.25 2316,-255.92 2316,-218 2316,-218 2316,-218 2316,-93 2316,-37.93 2139.04,-24.36 2043.9,-21.05"/>
<polygon fill="red" stroke="red" points="2043.95,-17.55 2033.84,-20.73 2043.72,-24.55 2043.95,-17.55"/>
<text text-anchor="middle" x="2334" y="-316" font-family="Times,serif" font-size="10.00" fill="red">1.1.7</text>
<text text-anchor="middle" x="2334" y="-305" font-family="Times,serif" font-size="10.00" fill="red">(latest: 1.2.0)</text>
</g>
<!-- roo_windows&#45;&gt;roo_time -->
<g id="edge67" class="edge">
<title>roo_windows&#45;&gt;roo_time</title>
<path fill="none" stroke="red" d="M1738.18,-647.88C1447.74,-646.92 102,-637.94 102,-554 102,-554 102,-554 102,-168 102,-121 830.41,-100.74 1029.33,-96.08"/>
<polygon fill="red" stroke="red" points="1029.57,-99.58 1039.49,-95.85 1029.41,-92.58 1029.57,-99.58"/>
<text text-anchor="middle" x="135" y="-364" font-family="Times,serif" font-size="10.00" fill="red">1.3.2</text>
<text text-anchor="middle" x="135" y="-353" font-family="Times,serif" font-size="10.00" fill="red">(latest: 1.4.0)</text>
</g>
<!-- roo_windows_wifi -->
<g id="node25" class="node">
<title>roo_windows_wifi</title>
<polygon fill="plum" stroke="black" points="2332.5,-743 2191.5,-743 2191.5,-705 2332.5,-705 2332.5,-743"/>
<text text-anchor="middle" x="2262" y="-727.8" font-family="Times,serif" font-size="14.00">roo_windows_wifi</text>
<text text-anchor="middle" x="2262" y="-712.8" font-family="Times,serif" font-size="14.00">1.1.2</text>
</g>
<!-- roo_windows_wifi&#45;&gt;roo_testing -->
<g id="edge68" class="edge">
<title>roo_windows_wifi&#45;&gt;roo_testing</title>
<path fill="none" stroke="red" d="M2332.6,-705.46C2358.22,-694.51 2381,-677.15 2381,-650 2381,-650 2381,-650 2381,-93 2381,-51.39 2335.2,-66.74 2295,-56 2209.46,-33.16 2106.82,-24.81 2043.76,-21.76"/>
<polygon fill="red" stroke="red" points="2043.76,-18.25 2033.61,-21.3 2043.44,-25.25 2043.76,-18.25"/>
<text text-anchor="middle" x="2414" y="-364" font-family="Times,serif" font-size="10.00" fill="red">1.1.7</text>
<text text-anchor="middle" x="2414" y="-353" font-family="Times,serif" font-size="10.00" fill="red">(latest: 1.2.0)</text>
</g>
<!-- roo_windows_wifi&#45;&gt;roo_wifi -->
<g id="edge69" class="edge">
<title>roo_windows_wifi&#45;&gt;roo_wifi</title>
<path fill="none" stroke="red" d="M2260.06,-704.99C2255.3,-668.69 2240.02,-585.76 2196,-534 2171.18,-504.82 2132.24,-484.97 2101.72,-472.89"/>
<polygon fill="red" stroke="red" points="2102.72,-469.53 2092.13,-469.24 2100.23,-476.07 2102.72,-469.53"/>
<text text-anchor="middle" x="2270" y="-604" font-family="Times,serif" font-size="10.00" fill="red">1.1.1</text>
<text text-anchor="middle" x="2270" y="-593" font-family="Times,serif" font-size="10.00" fill="red">(latest: 1.1.2)</text>
</g>
<!-- roo_windows_wifi&#45;&gt;roo_windows -->
<g id="edge70" class="edge">
<title>roo_windows_wifi&#45;&gt;roo_windows</title>
<path fill="none" stroke="black" d="M2191.28,-711.99C2100.82,-697.91 1945.41,-673.72 1857.86,-660.1"/>
<polygon fill="black" stroke="black" points="1858.21,-656.61 1847.79,-658.53 1857.14,-663.52 1858.21,-656.61"/>
</g>
</g>
</svg>
