<?xml version="1.0" encoding="UTF-8" standalone="no"?>
<!DOCTYPE svg PUBLIC "-//W3C//DTD SVG 1.1//EN"
 "http://www.w3.org/Graphics/SVG/1.1/DTD/svg11.dtd">
<!-- Generated by graphviz version 2.42.4 (0)
 -->
<!-- Title: dependencies Pages: 1 -->
<svg width="851pt" height="772pt"
 viewBox="0.00 0.00 850.50 772.00" xmlns="http://www.w3.org/2000/svg" xmlns:xlink="http://www.w3.org/1999/xlink">
<g id="graph0" class="graph" transform="scale(1 1) rotate(0) translate(4 768)">
<title>dependencies</title>
<polygon fill="white" stroke="transparent" points="-4,4 -4,-768 846.5,-768 846.5,4 -4,4"/>
<!-- roo_backport -->
<g id="node1" class="node">
<title>roo_backport</title>
<polygon fill="#b1dbab" stroke="black" points="465.5,-209 376.5,-209 376.5,-171 465.5,-171 465.5,-209"/>
<text text-anchor="middle" x="421" y="-193.8" font-family="Times,serif" font-size="14.00">roo_backport</text>
<text text-anchor="middle" x="421" y="-178.8" font-family="Times,serif" font-size="14.00">1.2.0</text>
</g>
<!-- roo_blink -->
<g id="node2" class="node">
<title>roo_blink</title>
<polygon fill="#b1dbab" stroke="red" points="186.5,-593 117.5,-593 117.5,-555 186.5,-555 186.5,-593"/>
<text text-anchor="middle" x="152" y="-577.8" font-family="Times,serif" font-size="14.00">roo_blink</text>
<text text-anchor="middle" x="152" y="-562.8" font-family="Times,serif" font-size="14.00">1.0.4</text>
</g>
<!-- roo_logging -->
<g id="node13" class="node">
<title>roo_logging</title>
<polygon fill="khaki" stroke="red" points="324.5,-305 241.5,-305 241.5,-267 324.5,-267 324.5,-305"/>
<text text-anchor="middle" x="283" y="-289.8" font-family="Times,serif" font-size="14.00">roo_logging</text>
<text text-anchor="middle" x="283" y="-274.8" font-family="Times,serif" font-size="14.00">1.5.2</text>
</g>
<!-- roo_blink&#45;&gt;roo_logging -->
<g id="edge1" class="edge">
<title>roo_blink&#45;&gt;roo_logging</title>
<path fill="none" stroke="red" d="M156.91,-554.99C165.16,-525.77 183.07,-466.49 205,-419 222.57,-380.95 248.03,-339.78 265.03,-313.71"/>
<polygon fill="red" stroke="red" points="268.09,-315.43 270.66,-305.15 262.24,-311.58 268.09,-315.43"/>
<text text-anchor="middle" x="232" y="-433" font-family="Times,serif" font-size="10.00" fill="red">1.5.1</text>
<text text-anchor="middle" x="232" y="-422" font-family="Times,serif" font-size="10.00" fill="red">(latest: 1.5.2)</text>
</g>
<!-- roo_scheduler -->
<g id="node19" class="node">
<title>roo_scheduler</title>
<polygon fill="#b1dbab" stroke="red" points="302.5,-497 209.5,-497 209.5,-459 302.5,-459 302.5,-497"/>
<text text-anchor="middle" x="256" y="-481.8" font-family="Times,serif" font-size="14.00">roo_scheduler</text>
<text text-anchor="middle" x="256" y="-466.8" font-family="Times,serif" font-size="14.00">2.1.6</text>
</g>
<!-- roo_blink&#45;&gt;roo_scheduler -->
<g id="edge2" class="edge">
<title>roo_blink&#45;&gt;roo_scheduler</title>
<path fill="none" stroke="black" d="M170.4,-554.92C182.36,-543.32 198.39,-528.04 213,-515 217.18,-511.27 221.65,-507.4 226.07,-503.64"/>
<polygon fill="black" stroke="black" points="228.5,-506.17 233.9,-497.05 223.99,-500.81 228.5,-506.17"/>
</g>
<!-- roo_collections -->
<g id="node3" class="node">
<title>roo_collections</title>
<polygon fill="#b1dbab" stroke="black" points="577,-401 477,-401 477,-363 577,-363 577,-401"/>
<text text-anchor="middle" x="527" y="-385.8" font-family="Times,serif" font-size="14.00">roo_collections</text>
<text text-anchor="middle" x="527" y="-370.8" font-family="Times,serif" font-size="14.00">1.4.0</text>
</g>
<!-- roo_collections&#45;&gt;roo_backport -->
<g id="edge3" class="edge">
<title>roo_collections&#45;&gt;roo_backport</title>
<path fill="none" stroke="black" d="M516.84,-362.78C498.08,-329.16 457.94,-257.22 436.03,-217.94"/>
<polygon fill="black" stroke="black" points="439.06,-216.19 431.13,-209.16 432.95,-219.6 439.06,-216.19"/>
</g>
<!-- roo_comms -->
<g id="node4" class="node">
<title>roo_comms</title>
<polygon fill="#b1dbab" stroke="red" points="279,-764 197,-764 197,-726 279,-726 279,-764"/>
<text text-anchor="middle" x="238" y="-748.8" font-family="Times,serif" font-size="14.00">roo_comms</text>
<text text-anchor="middle" x="238" y="-733.8" font-family="Times,serif" font-size="14.00">1.1.3</text>
</g>
<!-- roo_comms&#45;&gt;roo_blink -->
<g id="edge4" class="edge">
<title>roo_comms&#45;&gt;roo_blink</title>
<path fill="none" stroke="black" d="M228.8,-725.91C213.71,-696.26 183.61,-637.12 165.91,-602.33"/>
<polygon fill="black" stroke="black" points="168.92,-600.54 161.27,-593.21 162.68,-603.71 168.92,-600.54"/>
</g>
<!-- roo_control -->
<g id="node5" class="node">
<title>roo_control</title>
<polygon fill="#b1dbab" stroke="red" points="99,-593 19,-593 19,-555 99,-555 99,-593"/>
<text text-anchor="middle" x="59" y="-577.8" font-family="Times,serif" font-size="14.00">roo_control</text>
<text text-anchor="middle" x="59" y="-562.8" font-family="Times,serif" font-size="14.00">1.2.3</text>
</g>
<!-- roo_comms&#45;&gt;roo_control -->
<g id="edge5" class="edge">
<title>roo_comms&#45;&gt;roo_control</title>
<path fill="none" stroke="black" d="M218.84,-725.91C186.76,-695.63 122.11,-634.58 85.62,-600.14"/>
<polygon fill="black" stroke="black" points="87.96,-597.53 78.29,-593.21 83.16,-602.62 87.96,-597.53"/>
</g>
<!-- roo_io -->
<g id="node10" class="node">
<title>roo_io</title>
<polygon fill="khaki" stroke="red" points="427,-401 373,-401 373,-363 427,-363 427,-401"/>
<text text-anchor="middle" x="400" y="-385.8" font-family="Times,serif" font-size="14.00">roo_io</text>
<text text-anchor="middle" x="400" y="-370.8" font-family="Times,serif" font-size="14.00">2.1.2</text>
</g>
<!-- roo_comms&#45;&gt;roo_io -->
<g id="edge6" class="edge">
<title>roo_comms&#45;&gt;roo_io</title>
<path fill="none" stroke="red" d="M246.26,-725.6C272.8,-666.46 356.04,-480.96 387.65,-410.51"/>
<polygon fill="red" stroke="red" points="390.86,-411.92 391.76,-401.36 384.47,-409.05 390.86,-411.92"/>
<text text-anchor="middle" x="350" y="-577" font-family="Times,serif" font-size="10.00" fill="red">2.1.1</text>
<text text-anchor="middle" x="350" y="-566" font-family="Times,serif" font-size="10.00" fill="red">(latest: 2.1.2)</text>
</g>
<!-- roo_transceivers -->
<g id="node24" class="node">
<title>roo_transceivers</title>
<polygon fill="#b1dbab" stroke="red" points="460,-668 354,-668 354,-630 460,-630 460,-668"/>
<text text-anchor="middle" x="407" y="-652.8" font-family="Times,serif" font-size="14.00">roo_transceivers</text>
<text text-anchor="middle" x="407" y="-637.8" font-family="Times,serif" font-size="14.00">1.1.4</text>
</g>
<!-- roo_comms&#45;&gt;roo_transceivers -->
<g id="edge7" class="edge">
<title>roo_comms&#45;&gt;roo_transceivers</title>
<path fill="none" stroke="black" d="M279.25,-733.3C298.46,-727.36 321.17,-718.94 340,-708 355.28,-699.12 370.33,-686.54 382.29,-675.36"/>
<polygon fill="black" stroke="black" points="384.88,-677.72 389.67,-668.27 380.03,-672.67 384.88,-677.72"/>
</g>
<!-- roo_quantity -->
<g id="node18" class="node">
<title>roo_quantity</title>
<polygon fill="#b1dbab" stroke="red" points="121,-497 35,-497 35,-459 121,-459 121,-497"/>
<text text-anchor="middle" x="78" y="-481.8" font-family="Times,serif" font-size="14.00">roo_quantity</text>
<text text-anchor="middle" x="78" y="-466.8" font-family="Times,serif" font-size="14.00">1.1.6</text>
</g>
<!-- roo_control&#45;&gt;roo_quantity -->
<g id="edge8" class="edge">
<title>roo_control&#45;&gt;roo_quantity</title>
<path fill="none" stroke="red" d="M62.66,-554.88C65.4,-541.35 69.18,-522.62 72.31,-507.15"/>
<polygon fill="red" stroke="red" points="75.8,-507.56 74.35,-497.07 68.94,-506.18 75.8,-507.56"/>
<text text-anchor="middle" x="98" y="-529" font-family="Times,serif" font-size="10.00" fill="red">1.1.5</text>
<text text-anchor="middle" x="98" y="-518" font-family="Times,serif" font-size="10.00" fill="red">(latest: 1.1.6)</text>
</g>
<!-- roo_control&#45;&gt;roo_scheduler -->
<g id="edge9" class="edge">
<title>roo_control&#45;&gt;roo_scheduler</title>
<path fill="none" stroke="black" d="M96.98,-554.88C128.87,-539.66 174.57,-517.85 208.8,-501.52"/>
<polygon fill="black" stroke="black" points="210.62,-504.53 218.13,-497.07 207.6,-498.22 210.62,-504.53"/>
</g>
<!-- roo_dashboard -->
<g id="node6" class="node">
<title>roo_dashboard</title>
<polygon fill="plum" stroke="red" points="739.5,-764 642.5,-764 642.5,-726 739.5,-726 739.5,-764"/>
<text text-anchor="middle" x="691" y="-748.8" font-family="Times,serif" font-size="14.00">roo_dashboard</text>
<text text-anchor="middle" x="691" y="-733.8" font-family="Times,serif" font-size="14.00">1.0.1</text>
</g>
<!-- roo_windows -->
<g id="node27" class="node">
<title>roo_windows</title>
<polygon fill="#b1dbab" stroke="red" points="652,-668 562,-668 562,-630 652,-630 652,-668"/>
<text text-anchor="middle" x="607" y="-652.8" font-family="Times,serif" font-size="14.00">roo_windows</text>
<text text-anchor="middle" x="607" y="-637.8" font-family="Times,serif" font-size="14.00">1.4.2</text>
</g>
<!-- roo_dashboard&#45;&gt;roo_windows -->
<g id="edge10" class="edge">
<title>roo_dashboard&#45;&gt;roo_windows</title>
<path fill="none" stroke="red" d="M674.8,-725.88C662.14,-711.7 644.36,-691.81 630.18,-675.94"/>
<polygon fill="red" stroke="red" points="632.42,-673.19 623.15,-668.07 627.2,-677.86 632.42,-673.19"/>
<text text-anchor="middle" x="683" y="-700" font-family="Times,serif" font-size="10.00" fill="red">1.4.1</text>
<text text-anchor="middle" x="683" y="-689" font-family="Times,serif" font-size="10.00" fill="red">(latest: 1.4.2)</text>
</g>
<!-- roo_display -->
<g id="node7" class="node">
<title>roo_display</title>
<polygon fill="khaki" stroke="red" points="585,-497 505,-497 505,-459 585,-459 585,-497"/>
<text text-anchor="middle" x="545" y="-481.8" font-family="Times,serif" font-size="14.00">roo_display</text>
<text text-anchor="middle" x="545" y="-466.8" font-family="Times,serif" font-size="14.00">2.3.2</text>
</g>
<!-- roo_display&#45;&gt;roo_collections -->
<g id="edge11" class="edge">
<title>roo_display&#45;&gt;roo_collections</title>
<path fill="none" stroke="black" d="M543.64,-458.84C542.57,-447.34 540.79,-432.2 538,-419 537.44,-416.33 536.76,-413.58 536.04,-410.84"/>
<polygon fill="black" stroke="black" points="539.37,-409.78 533.23,-401.15 532.65,-411.73 539.37,-409.78"/>
</g>
<!-- roo_display&#45;&gt;roo_io -->
<g id="edge12" class="edge">
<title>roo_display&#45;&gt;roo_io</title>
<path fill="none" stroke="black" d="M504.93,-462.44C501.57,-461.26 498.23,-460.1 495,-459 470.25,-450.57 459.89,-456.72 439,-441 428.24,-432.91 419.48,-420.94 413.01,-409.97"/>
<polygon fill="black" stroke="black" points="416.02,-408.17 408.12,-401.1 409.89,-411.55 416.02,-408.17"/>
</g>
<!-- roo_flags -->
<g id="node8" class="node">
<title>roo_flags</title>
<polygon fill="#b1dbab" stroke="black" points="350,-209 282,-209 282,-171 350,-171 350,-209"/>
<text text-anchor="middle" x="316" y="-193.8" font-family="Times,serif" font-size="14.00">roo_flags</text>
<text text-anchor="middle" x="316" y="-178.8" font-family="Times,serif" font-size="14.00">1.2.0</text>
</g>
<!-- roo_icons -->
<g id="node9" class="node">
<title>roo_icons</title>
<polygon fill="#b1dbab" stroke="red" points="592,-593 522,-593 522,-555 592,-555 592,-593"/>
<text text-anchor="middle" x="557" y="-577.8" font-family="Times,serif" font-size="14.00">roo_icons</text>
<text text-anchor="middle" x="557" y="-562.8" font-family="Times,serif" font-size="14.00">1.2.1</text>
</g>
<!-- roo_icons&#45;&gt;roo_display -->
<g id="edge13" class="edge">
<title>roo_icons&#45;&gt;roo_display</title>
<path fill="none" stroke="red" d="M554.69,-554.88C552.96,-541.35 550.57,-522.62 548.59,-507.15"/>
<polygon fill="red" stroke="red" points="552.04,-506.54 547.31,-497.07 545.1,-507.43 552.04,-506.54"/>
<text text-anchor="middle" x="579" y="-529" font-family="Times,serif" font-size="10.00" fill="red">2.3.1</text>
<text text-anchor="middle" x="579" y="-518" font-family="Times,serif" font-size="10.00" fill="red">(latest: 2.3.2)</text>
</g>
<!-- roo_io&#45;&gt;roo_logging -->
<g id="edge14" class="edge">
<title>roo_io&#45;&gt;roo_logging</title>
<path fill="none" stroke="black" d="M377.44,-362.88C359.23,-348.25 333.44,-327.52 313.41,-311.43"/>
<polygon fill="black" stroke="black" points="315.48,-308.6 305.49,-305.07 311.09,-314.06 315.48,-308.6"/>
</g>
<!-- roo_io_sdfat -->
<g id="node11" class="node">
<title>roo_io_sdfat</title>
<polygon fill="plum" stroke="black" points="842.5,-764 757.5,-764 757.5,-726 842.5,-726 842.5,-764"/>
<text text-anchor="middle" x="800" y="-748.8" font-family="Times,serif" font-size="14.00">roo_io_sdfat</text>
<text text-anchor="middle" x="800" y="-733.8" font-family="Times,serif" font-size="14.00">1.0.0</text>
</g>
<!-- roo_locale -->
<g id="node12" class="node">
<title>roo_locale</title>
<polygon fill="#b1dbab" stroke="black" points="684,-593 610,-593 610,-555 684,-555 684,-593"/>
<text text-anchor="middle" x="647" y="-577.8" font-family="Times,serif" font-size="14.00">roo_locale</text>
<text text-anchor="middle" x="647" y="-562.8" font-family="Times,serif" font-size="14.00">1.1.1</text>
</g>
<!-- roo_logging&#45;&gt;roo_backport -->
<g id="edge15" class="edge">
<title>roo_logging&#45;&gt;roo_backport</title>
<path fill="none" stroke="black" d="M309.61,-266.88C331.37,-252.05 362.32,-230.97 386.08,-214.79"/>
<polygon fill="black" stroke="black" points="388.18,-217.59 394.47,-209.07 384.24,-211.81 388.18,-217.59"/>
</g>
<!-- roo_logging&#45;&gt;roo_flags -->
<g id="edge16" class="edge">
<title>roo_logging&#45;&gt;roo_flags</title>
<path fill="none" stroke="black" d="M293.77,-266.73C296.74,-261.17 299.75,-254.95 302,-249 305.6,-239.46 308.5,-228.69 310.71,-219.04"/>
<polygon fill="black" stroke="black" points="314.16,-219.63 312.83,-209.12 307.32,-218.16 314.16,-219.63"/>
</g>
<!-- roo_threads -->
<g id="node21" class="node">
<title>roo_threads</title>
<polygon fill="#b1dbab" stroke="black" points="210,-209 130,-209 130,-171 210,-171 210,-209"/>
<text text-anchor="middle" x="170" y="-193.8" font-family="Times,serif" font-size="14.00">roo_threads</text>
<text text-anchor="middle" x="170" y="-178.8" font-family="Times,serif" font-size="14.00">1.2.1</text>
</g>
<!-- roo_logging&#45;&gt;roo_threads -->
<g id="edge17" class="edge">
<title>roo_logging&#45;&gt;roo_threads</title>
<path fill="none" stroke="red" d="M262.35,-266.74C256.3,-261.18 249.77,-254.96 244,-249 235.02,-239.71 234.72,-235.51 225,-227 220.21,-222.81 214.9,-218.73 209.51,-214.92"/>
<polygon fill="red" stroke="red" points="211.3,-211.91 201.07,-209.18 207.37,-217.7 211.3,-211.91"/>
<text text-anchor="middle" x="271" y="-241" font-family="Times,serif" font-size="10.00" fill="red">1.2.0</text>
<text text-anchor="middle" x="271" y="-230" font-family="Times,serif" font-size="10.00" fill="red">(latest: 1.2.1)</text>
</g>
<!-- roo_monitoring -->
<g id="node14" class="node">
<title>roo_monitoring</title>
<polygon fill="khaki" stroke="red" points="705,-497 603,-497 603,-459 705,-459 705,-497"/>
<text text-anchor="middle" x="654" y="-481.8" font-family="Times,serif" font-size="14.00">roo_monitoring</text>
<text text-anchor="middle" x="654" y="-466.8" font-family="Times,serif" font-size="14.00">1.0.0</text>
</g>
<!-- roo_monitoring&#45;&gt;roo_collections -->
<g id="edge18" class="edge">
<title>roo_monitoring&#45;&gt;roo_collections</title>
<path fill="none" stroke="red" d="M629.51,-458.88C609.66,-444.18 581.5,-423.34 559.72,-407.21"/>
<polygon fill="red" stroke="red" points="561.53,-404.2 551.41,-401.07 557.37,-409.83 561.53,-404.2"/>
<text text-anchor="middle" x="628" y="-433" font-family="Times,serif" font-size="10.00" fill="red">1.3.2</text>
<text text-anchor="middle" x="628" y="-422" font-family="Times,serif" font-size="10.00" fill="red">(latest: 1.4.0)</text>
</g>
<!-- roo_monitoring&#45;&gt;roo_io -->
<g id="edge19" class="edge">
<title>roo_monitoring&#45;&gt;roo_io</title>
<path fill="none" stroke="red" d="M602.99,-461.51C599.95,-460.64 596.94,-459.8 594,-459 561.76,-450.2 552.45,-452.28 521,-441 491.58,-430.45 459.75,-415.02 436.13,-402.73"/>
<polygon fill="red" stroke="red" points="437.66,-399.58 427.18,-398.02 434.4,-405.78 437.66,-399.58"/>
<text text-anchor="middle" x="548" y="-433" font-family="Times,serif" font-size="10.00" fill="red">2.0.3</text>
<text text-anchor="middle" x="548" y="-422" font-family="Times,serif" font-size="10.00" fill="red">(latest: 2.1.2)</text>
</g>
<!-- roo_onewire -->
<g id="node15" class="node">
<title>roo_onewire</title>
<polygon fill="#b1dbab" stroke="red" points="289.5,-593 204.5,-593 204.5,-555 289.5,-555 289.5,-593"/>
<text text-anchor="middle" x="247" y="-577.8" font-family="Times,serif" font-size="14.00">roo_onewire</text>
<text text-anchor="middle" x="247" y="-562.8" font-family="Times,serif" font-size="14.00">2.0.7</text>
</g>
<!-- roo_onewire&#45;&gt;roo_quantity -->
<g id="edge21" class="edge">
<title>roo_onewire&#45;&gt;roo_quantity</title>
<path fill="none" stroke="red" d="M214.42,-554.88C187.29,-539.79 148.53,-518.23 119.24,-501.94"/>
<polygon fill="red" stroke="red" points="120.93,-498.87 110.48,-497.07 117.52,-504.99 120.93,-498.87"/>
<text text-anchor="middle" x="205" y="-529" font-family="Times,serif" font-size="10.00" fill="red">1.1.5</text>
<text text-anchor="middle" x="205" y="-518" font-family="Times,serif" font-size="10.00" fill="red">(latest: 1.1.6)</text>
</g>
<!-- roo_onewire&#45;&gt;roo_scheduler -->
<g id="edge20" class="edge">
<title>roo_onewire&#45;&gt;roo_scheduler</title>
<path fill="none" stroke="black" d="M273.82,-554.64C279.16,-549.6 284.04,-543.66 287,-537 290.98,-528.07 290.4,-524.17 287,-515 285.76,-511.65 284.05,-508.4 282.06,-505.32"/>
<polygon fill="black" stroke="black" points="284.71,-503.02 275.91,-497.12 279.11,-507.22 284.71,-503.02"/>
</g>
<!-- roo_powersafefs -->
<g id="node16" class="node">
<title>roo_powersafefs</title>
<polygon fill="plum" stroke="red" points="223.5,-305 116.5,-305 116.5,-267 223.5,-267 223.5,-305"/>
<text text-anchor="middle" x="170" y="-289.8" font-family="Times,serif" font-size="14.00">roo_powersafefs</text>
<text text-anchor="middle" x="170" y="-274.8" font-family="Times,serif" font-size="14.00">1.0.0</text>
</g>
<!-- roo_powersafefs&#45;&gt;roo_threads -->
<g id="edge22" class="edge">
<title>roo_powersafefs&#45;&gt;roo_threads</title>
<path fill="none" stroke="red" d="M170,-266.88C170,-253.35 170,-234.62 170,-219.15"/>
<polygon fill="red" stroke="red" points="173.5,-219.07 170,-209.07 166.5,-219.07 173.5,-219.07"/>
<text text-anchor="middle" x="197" y="-241" font-family="Times,serif" font-size="10.00" fill="red">1.1.6</text>
<text text-anchor="middle" x="197" y="-230" font-family="Times,serif" font-size="10.00" fill="red">(latest: 1.2.1)</text>
</g>
<!-- roo_prefs -->
<g id="node17" class="node">
<title>roo_prefs</title>
<polygon fill="#b1dbab" stroke="red" points="466,-593 398,-593 398,-555 466,-555 466,-593"/>
<text text-anchor="middle" x="432" y="-577.8" font-family="Times,serif" font-size="14.00">roo_prefs</text>
<text text-anchor="middle" x="432" y="-562.8" font-family="Times,serif" font-size="14.00">1.2.7</text>
</g>
<!-- roo_prefs&#45;&gt;roo_logging -->
<g id="edge23" class="edge">
<title>roo_prefs&#45;&gt;roo_logging</title>
<path fill="none" stroke="red" d="M419.23,-554.75C402.06,-529.76 371.13,-483.19 349,-441 326.57,-398.23 305.47,-346.16 293.41,-314.85"/>
<polygon fill="red" stroke="red" points="296.66,-313.54 289.83,-305.45 290.12,-316.04 296.66,-313.54"/>
<text text-anchor="middle" x="376" y="-433" font-family="Times,serif" font-size="10.00" fill="red">1.5.1</text>
<text text-anchor="middle" x="376" y="-422" font-family="Times,serif" font-size="10.00" fill="red">(latest: 1.5.2)</text>
</g>
<!-- roo_prefs&#45;&gt;roo_scheduler -->
<g id="edge24" class="edge">
<title>roo_prefs&#45;&gt;roo_scheduler</title>
<path fill="none" stroke="black" d="M398.07,-554.88C369.82,-539.79 329.45,-518.23 298.95,-501.94"/>
<polygon fill="black" stroke="black" points="300.3,-498.69 289.83,-497.07 297,-504.87 300.3,-498.69"/>
</g>
<!-- roo_quantity&#45;&gt;roo_logging -->
<g id="edge25" class="edge">
<title>roo_quantity&#45;&gt;roo_logging</title>
<path fill="none" stroke="black" d="M84.26,-458.84C96.3,-426.63 125.74,-359.46 173,-323 192.59,-307.89 203.66,-312.37 231.6,-304.8"/>
<polygon fill="black" stroke="black" points="232.73,-308.12 241.3,-301.88 230.72,-301.41 232.73,-308.12"/>
</g>
<!-- roo_scheduler&#45;&gt;roo_collections -->
<g id="edge26" class="edge">
<title>roo_scheduler&#45;&gt;roo_collections</title>
<path fill="none" stroke="black" d="M302.59,-460.84C348.13,-445.04 417.66,-420.93 467.25,-403.72"/>
<polygon fill="black" stroke="black" points="468.59,-406.96 476.89,-400.38 466.3,-400.35 468.59,-406.96"/>
</g>
<!-- roo_scheduler&#45;&gt;roo_threads -->
<g id="edge27" class="edge">
<title>roo_scheduler&#45;&gt;roo_threads</title>
<path fill="none" stroke="red" d="M239.66,-458.83C201.69,-416.54 110.49,-314.37 107,-305 101.1,-289.18 101.27,-282.89 107,-267 113.97,-247.68 128.21,-229.8 141.4,-216.24"/>
<polygon fill="red" stroke="red" points="143.9,-218.69 148.56,-209.17 138.98,-213.7 143.9,-218.69"/>
<text text-anchor="middle" x="166" y="-337" font-family="Times,serif" font-size="10.00" fill="red">1.2.0</text>
<text text-anchor="middle" x="166" y="-326" font-family="Times,serif" font-size="10.00" fill="red">(latest: 1.2.1)</text>
</g>
<!-- roo_testing -->
<g id="node20" class="node">
<title>roo_testing</title>
<polygon fill="#b1dbab" stroke="black" points="128.5,-38 51.5,-38 51.5,0 128.5,0 128.5,-38"/>
<text text-anchor="middle" x="90" y="-22.8" font-family="Times,serif" font-size="14.00">roo_testing</text>
<text text-anchor="middle" x="90" y="-7.8" font-family="Times,serif" font-size="14.00">1.2.1</text>
</g>
<!-- roo_time -->
<g id="node22" class="node">
<title>roo_time</title>
<polygon fill="#b1dbab" stroke="black" points="123,-113 57,-113 57,-75 123,-75 123,-113"/>
<text text-anchor="middle" x="90" y="-97.8" font-family="Times,serif" font-size="14.00">roo_time</text>
<text text-anchor="middle" x="90" y="-82.8" font-family="Times,serif" font-size="14.00">1.4.1</text>
</g>
<!-- roo_threads&#45;&gt;roo_time -->
<g id="edge28" class="edge">
<title>roo_threads&#45;&gt;roo_time</title>
<path fill="none" stroke="black" d="M160.3,-170.76C153.49,-158.81 143.72,-143.2 133,-131 129.63,-127.17 125.84,-123.39 121.94,-119.82"/>
<polygon fill="black" stroke="black" points="124.22,-117.16 114.39,-113.22 119.62,-122.44 124.22,-117.16"/>
</g>
<!-- roo_time&#45;&gt;roo_testing -->
<g id="edge29" class="edge">
<title>roo_time&#45;&gt;roo_testing</title>
<path fill="none" stroke="black" d="M90,-74.96C90,-66.88 90,-57.18 90,-48.18"/>
<polygon fill="black" stroke="black" points="93.5,-48.09 90,-38.09 86.5,-48.09 93.5,-48.09"/>
</g>
<!-- roo_time_ds3231 -->
<g id="node23" class="node">
<title>roo_time_ds3231</title>
<polygon fill="#b1dbab" stroke="red" points="112,-209 0,-209 0,-171 112,-171 112,-209"/>
<text text-anchor="middle" x="56" y="-193.8" font-family="Times,serif" font-size="14.00">roo_time_ds3231</text>
<text text-anchor="middle" x="56" y="-178.8" font-family="Times,serif" font-size="14.00">1.1.4</text>
</g>
<!-- roo_time_ds3231&#45;&gt;roo_time -->
<g id="edge30" class="edge">
<title>roo_time_ds3231&#45;&gt;roo_time</title>
<path fill="none" stroke="red" d="M62.56,-170.88C67.49,-157.22 74.35,-138.26 79.98,-122.71"/>
<polygon fill="red" stroke="red" points="83.35,-123.66 83.46,-113.07 76.77,-121.28 83.35,-123.66"/>
<text text-anchor="middle" x="104" y="-145" font-family="Times,serif" font-size="10.00" fill="red">1.4.0</text>
<text text-anchor="middle" x="104" y="-134" font-family="Times,serif" font-size="10.00" fill="red">(latest: 1.4.1)</text>
</g>
<!-- roo_transceivers&#45;&gt;roo_prefs -->
<g id="edge31" class="edge">
<title>roo_transceivers&#45;&gt;roo_prefs</title>
<path fill="none" stroke="black" d="M413.18,-629.96C416,-621.71 419.41,-611.75 422.55,-602.6"/>
<polygon fill="black" stroke="black" points="425.88,-603.68 425.8,-593.09 419.25,-601.42 425.88,-603.68"/>
</g>
<!-- roo_transport -->
<g id="node25" class="node">
<title>roo_transport</title>
<polygon fill="khaki" stroke="red" points="486.5,-497 397.5,-497 397.5,-459 486.5,-459 486.5,-497"/>
<text text-anchor="middle" x="442" y="-481.8" font-family="Times,serif" font-size="14.00">roo_transport</text>
<text text-anchor="middle" x="442" y="-466.8" font-family="Times,serif" font-size="14.00">1.1.0</text>
</g>
<!-- roo_transport&#45;&gt;roo_collections -->
<g id="edge32" class="edge">
<title>roo_transport&#45;&gt;roo_collections</title>
<path fill="none" stroke="black" d="M486.81,-461.65C496.64,-456.44 506.14,-449.67 513,-441 519.63,-432.62 523.19,-421.57 525.08,-411.37"/>
<polygon fill="black" stroke="black" points="528.58,-411.58 526.5,-401.19 521.65,-410.61 528.58,-411.58"/>
</g>
<!-- roo_transport&#45;&gt;roo_io -->
<g id="edge33" class="edge">
<title>roo_transport&#45;&gt;roo_io</title>
<path fill="none" stroke="black" d="M425.56,-458.95C421.28,-453.49 417.02,-447.28 414,-441 409.54,-431.75 406.44,-420.96 404.31,-411.22"/>
<polygon fill="black" stroke="black" points="407.7,-410.33 402.36,-401.18 400.83,-411.66 407.7,-410.33"/>
</g>
<!-- roo_wifi -->
<g id="node26" class="node">
<title>roo_wifi</title>
<polygon fill="#b1dbab" stroke="red" points="541.5,-668 478.5,-668 478.5,-630 541.5,-630 541.5,-668"/>
<text text-anchor="middle" x="510" y="-652.8" font-family="Times,serif" font-size="14.00">roo_wifi</text>
<text text-anchor="middle" x="510" y="-637.8" font-family="Times,serif" font-size="14.00">1.1.3</text>
</g>
<!-- roo_wifi&#45;&gt;roo_prefs -->
<g id="edge34" class="edge">
<title>roo_wifi&#45;&gt;roo_prefs</title>
<path fill="none" stroke="black" d="M490.72,-629.96C481.06,-620.92 469.22,-609.83 458.7,-599.99"/>
<polygon fill="black" stroke="black" points="461.02,-597.37 451.33,-593.09 456.24,-602.48 461.02,-597.37"/>
</g>
<!-- roo_windows&#45;&gt;roo_icons -->
<g id="edge36" class="edge">
<title>roo_windows&#45;&gt;roo_icons</title>
<path fill="none" stroke="black" d="M594.64,-629.96C588.75,-621.36 581.59,-610.9 575.1,-601.43"/>
<polygon fill="black" stroke="black" points="577.93,-599.36 569.39,-593.09 572.15,-603.32 577.93,-599.36"/>
</g>
<!-- roo_windows&#45;&gt;roo_locale -->
<g id="edge35" class="edge">
<title>roo_windows&#45;&gt;roo_locale</title>
<path fill="none" stroke="black" d="M616.89,-629.96C621.5,-621.53 627.09,-611.33 632.2,-602.01"/>
<polygon fill="black" stroke="black" points="635.35,-603.54 637.09,-593.09 629.21,-600.18 635.35,-603.54"/>
</g>
<!-- roo_windows&#45;&gt;roo_scheduler -->
<g id="edge37" class="edge">
<title>roo_windows&#45;&gt;roo_scheduler</title>
<path fill="none" stroke="black" d="M571.26,-629.91C553.1,-620.03 531.11,-606.98 513,-593 494.09,-578.41 495.24,-567.68 475,-555 424.32,-523.25 358.69,-502.75 312.54,-491.14"/>
<polygon fill="black" stroke="black" points="313.25,-487.71 302.71,-488.73 311.58,-494.51 313.25,-487.71"/>
</g>
<!-- roo_windows_transceivers -->
<g id="node28" class="node">
<title>roo_windows_transceivers</title>
<polygon fill="khaki" stroke="red" points="487.5,-764 326.5,-764 326.5,-726 487.5,-726 487.5,-764"/>
<text text-anchor="middle" x="407" y="-748.8" font-family="Times,serif" font-size="14.00">roo_windows_transceivers</text>
<text text-anchor="middle" x="407" y="-733.8" font-family="Times,serif" font-size="14.00">1.0.0</text>
</g>
<!-- roo_windows_transceivers&#45;&gt;roo_transceivers -->
<g id="edge38" class="edge">
<title>roo_windows_transceivers&#45;&gt;roo_transceivers</title>
<path fill="none" stroke="red" d="M407,-725.88C407,-712.35 407,-693.62 407,-678.15"/>
<polygon fill="red" stroke="red" points="410.5,-678.07 407,-668.07 403.5,-678.07 410.5,-678.07"/>
<text text-anchor="middle" x="434" y="-700" font-family="Times,serif" font-size="10.00" fill="red">1.1.3</text>
<text text-anchor="middle" x="434" y="-689" font-family="Times,serif" font-size="10.00" fill="red">(latest: 1.1.4)</text>
</g>
<!-- roo_windows_transceivers&#45;&gt;roo_windows -->
<g id="edge39" class="edge">
<title>roo_windows_transceivers&#45;&gt;roo_windows</title>
<path fill="none" stroke="red" d="M445.56,-725.88C477.93,-710.66 524.33,-688.85 559.08,-672.52"/>
<polygon fill="red" stroke="red" points="560.99,-675.49 568.56,-668.07 558.02,-669.15 560.99,-675.49"/>
<text text-anchor="middle" x="551" y="-700" font-family="Times,serif" font-size="10.00" fill="red">1.4.1</text>
<text text-anchor="middle" x="551" y="-689" font-family="Times,serif" font-size="10.00" fill="red">(latest: 1.4.2)</text>
</g>
<!-- roo_windows_wifi -->
<g id="node29" class="node">
<title>roo_windows_wifi</title>
<polygon fill="plum" stroke="red" points="624.5,-764 505.5,-764 505.5,-726 624.5,-726 624.5,-764"/>
<text text-anchor="middle" x="565" y="-748.8" font-family="Times,serif" font-size="14.00">roo_windows_wifi</text>
<text text-anchor="middle" x="565" y="-733.8" font-family="Times,serif" font-size="14.00">1.1.3</text>
</g>
<!-- roo_windows_wifi&#45;&gt;roo_wifi -->
<g id="edge40" class="edge">
<title>roo_windows_wifi&#45;&gt;roo_wifi</title>
<path fill="none" stroke="black" d="M536.93,-725.97C530.84,-720.85 525.03,-714.79 521,-708 515.73,-699.14 512.91,-688.28 511.42,-678.37"/>
<polygon fill="black" stroke="black" points="514.86,-677.67 510.27,-668.12 507.9,-678.45 514.86,-677.67"/>
</g>
<!-- roo_windows_wifi&#45;&gt;roo_windows -->
<g id="edge41" class="edge">
<title>roo_windows_wifi&#45;&gt;roo_windows</title>
<path fill="none" stroke="black" d="M583.1,-725.8C587.58,-720.43 591.96,-714.3 595,-708 599.43,-698.82 602.23,-688.05 603.99,-678.3"/>
<polygon fill="black" stroke="black" points="607.48,-678.66 605.53,-668.24 600.56,-677.6 607.48,-678.66"/>
</g>
</g>
</svg>
