<?xml version="1.0" encoding="UTF-8" standalone="no"?>
<!DOCTYPE svg PUBLIC "-//W3C//DTD SVG 1.1//EN"
 "http://www.w3.org/Graphics/SVG/1.1/DTD/svg11.dtd">
<!-- Generated by graphviz version 2.42.4 (0)
 -->
<!-- Title: dependencies Pages: 1 -->
<svg width="1060pt" height="793pt"
 viewBox="0.00 0.00 1059.50 793.00" xmlns="http://www.w3.org/2000/svg" xmlns:xlink="http://www.w3.org/1999/xlink">
<g id="graph0" class="graph" transform="scale(1 1) rotate(0) translate(4 789)">
<title>dependencies</title>
<polygon fill="white" stroke="transparent" points="-4,4 -4,-789 1055.5,-789 1055.5,4 -4,4"/>
<!-- roo_backport -->
<g id="node1" class="node">
<title>roo_backport</title>
<polygon fill="#b1dbab" stroke="black" points="549,-209 460,-209 460,-171 549,-171 549,-209"/>
<text text-anchor="middle" x="504.5" y="-193.8" font-family="Times,serif" font-size="14.00">roo_backport</text>
<text text-anchor="middle" x="504.5" y="-178.8" font-family="Times,serif" font-size="14.00">1.2.2</text>
</g>
<!-- roo_blink -->
<g id="node2" class="node">
<title>roo_blink</title>
<polygon fill="#b1dbab" stroke="red" points="271,-593 202,-593 202,-555 271,-555 271,-593"/>
<text text-anchor="middle" x="236.5" y="-577.8" font-family="Times,serif" font-size="14.00">roo_blink</text>
<text text-anchor="middle" x="236.5" y="-562.8" font-family="Times,serif" font-size="14.00">1.0.6</text>
</g>
<!-- roo_logging -->
<g id="node16" class="node">
<title>roo_logging</title>
<polygon fill="#b1dbab" stroke="black" points="415,-305 332,-305 332,-267 415,-267 415,-305"/>
<text text-anchor="middle" x="373.5" y="-289.8" font-family="Times,serif" font-size="14.00">roo_logging</text>
<text text-anchor="middle" x="373.5" y="-274.8" font-family="Times,serif" font-size="14.00">1.5.6</text>
</g>
<!-- roo_blink&#45;&gt;roo_logging -->
<g id="edge1" class="edge">
<title>roo_blink&#45;&gt;roo_logging</title>
<path fill="none" stroke="red" d="M232.14,-555C227.43,-531.99 222.03,-491.27 233.5,-459 245.35,-425.67 312.32,-351.57 349.17,-312.4"/>
<polygon fill="red" stroke="red" points="351.79,-314.73 356.12,-305.06 346.7,-309.92 351.79,-314.73"/>
<text text-anchor="middle" x="284.5" y="-433" font-family="Times,serif" font-size="10.00" fill="red">1.5.5</text>
<text text-anchor="middle" x="284.5" y="-422" font-family="Times,serif" font-size="10.00" fill="red">(latest: 1.5.6)</text>
</g>
<!-- roo_scheduler -->
<g id="node22" class="node">
<title>roo_scheduler</title>
<polygon fill="#b1dbab" stroke="red" points="336,-497 243,-497 243,-459 336,-459 336,-497"/>
<text text-anchor="middle" x="289.5" y="-481.8" font-family="Times,serif" font-size="14.00">roo_scheduler</text>
<text text-anchor="middle" x="289.5" y="-466.8" font-family="Times,serif" font-size="14.00">2.1.9</text>
</g>
<!-- roo_blink&#45;&gt;roo_scheduler -->
<g id="edge2" class="edge">
<title>roo_blink&#45;&gt;roo_scheduler</title>
<path fill="none" stroke="black" d="M249.16,-554.97C252.96,-549.31 257.03,-542.98 260.5,-537 266.18,-527.21 271.87,-516.17 276.68,-506.37"/>
<polygon fill="black" stroke="black" points="279.98,-507.6 281.18,-497.07 273.68,-504.55 279.98,-507.6"/>
</g>
<!-- roo_collections -->
<g id="node3" class="node">
<title>roo_collections</title>
<polygon fill="#b1dbab" stroke="black" points="659.5,-401 559.5,-401 559.5,-363 659.5,-363 659.5,-401"/>
<text text-anchor="middle" x="609.5" y="-385.8" font-family="Times,serif" font-size="14.00">roo_collections</text>
<text text-anchor="middle" x="609.5" y="-370.8" font-family="Times,serif" font-size="14.00">1.4.3</text>
</g>
<!-- roo_collections&#45;&gt;roo_backport -->
<g id="edge3" class="edge">
<title>roo_collections&#45;&gt;roo_backport</title>
<path fill="none" stroke="black" d="M599.43,-362.78C580.85,-329.16 541.09,-257.22 519.39,-217.94"/>
<polygon fill="black" stroke="black" points="522.44,-216.22 514.54,-209.16 516.31,-219.61 522.44,-216.22"/>
</g>
<!-- roo_comms -->
<g id="node4" class="node">
<title>roo_comms</title>
<polygon fill="#b1dbab" stroke="red" points="219.5,-785 137.5,-785 137.5,-747 219.5,-747 219.5,-785"/>
<text text-anchor="middle" x="178.5" y="-769.8" font-family="Times,serif" font-size="14.00">roo_comms</text>
<text text-anchor="middle" x="178.5" y="-754.8" font-family="Times,serif" font-size="14.00">1.1.4</text>
</g>
<!-- roo_comms&#45;&gt;roo_blink -->
<g id="edge4" class="edge">
<title>roo_comms&#45;&gt;roo_blink</title>
<path fill="none" stroke="black" d="M179.79,-746.82C181.81,-723.96 186.66,-683.76 197.5,-651 203.16,-633.91 212.22,-615.93 220.19,-601.76"/>
<polygon fill="black" stroke="black" points="223.25,-603.45 225.22,-593.04 217.19,-599.95 223.25,-603.45"/>
</g>
<!-- roo_control -->
<g id="node5" class="node">
<title>roo_control</title>
<polygon fill="#b1dbab" stroke="red" points="183.5,-593 103.5,-593 103.5,-555 183.5,-555 183.5,-593"/>
<text text-anchor="middle" x="143.5" y="-577.8" font-family="Times,serif" font-size="14.00">roo_control</text>
<text text-anchor="middle" x="143.5" y="-562.8" font-family="Times,serif" font-size="14.00">1.2.5</text>
</g>
<!-- roo_comms&#45;&gt;roo_control -->
<g id="edge5" class="edge">
<title>roo_comms&#45;&gt;roo_control</title>
<path fill="none" stroke="black" d="M168.49,-746.76C165.82,-741.21 163.21,-734.98 161.5,-729 149.31,-686.4 145.35,-634.92 144.08,-603.59"/>
<polygon fill="black" stroke="black" points="147.57,-603.27 143.74,-593.39 140.58,-603.51 147.57,-603.27"/>
</g>
<!-- roo_io -->
<g id="node13" class="node">
<title>roo_io</title>
<polygon fill="#b1dbab" stroke="red" points="509.5,-401 455.5,-401 455.5,-363 509.5,-363 509.5,-401"/>
<text text-anchor="middle" x="482.5" y="-385.8" font-family="Times,serif" font-size="14.00">roo_io</text>
<text text-anchor="middle" x="482.5" y="-370.8" font-family="Times,serif" font-size="14.00">2.1.6</text>
</g>
<!-- roo_comms&#45;&gt;roo_io -->
<g id="edge6" class="edge">
<title>roo_comms&#45;&gt;roo_io</title>
<path fill="none" stroke="red" d="M219.82,-751.28C225.71,-749.65 231.72,-748.16 237.5,-747 276.91,-739.1 388.63,-756.97 417.5,-729 473.53,-674.72 429.37,-632.21 440.5,-555 446.66,-512.26 444.89,-500.86 455.5,-459 459.62,-442.73 465.81,-425.02 471.22,-410.8"/>
<polygon fill="red" stroke="red" points="474.62,-411.72 474.98,-401.13 468.09,-409.18 474.62,-411.72"/>
<text text-anchor="middle" x="467.5" y="-577" font-family="Times,serif" font-size="10.00" fill="red">2.1.5</text>
<text text-anchor="middle" x="467.5" y="-566" font-family="Times,serif" font-size="10.00" fill="red">(latest: 2.1.6)</text>
</g>
<!-- roo_transceivers -->
<g id="node27" class="node">
<title>roo_transceivers</title>
<polygon fill="#b1dbab" stroke="red" points="312.5,-689 206.5,-689 206.5,-651 312.5,-651 312.5,-689"/>
<text text-anchor="middle" x="259.5" y="-673.8" font-family="Times,serif" font-size="14.00">roo_transceivers</text>
<text text-anchor="middle" x="259.5" y="-658.8" font-family="Times,serif" font-size="14.00">1.1.6</text>
</g>
<!-- roo_comms&#45;&gt;roo_transceivers -->
<g id="edge7" class="edge">
<title>roo_comms&#45;&gt;roo_transceivers</title>
<path fill="none" stroke="red" d="M188.55,-746.78C195.58,-734.84 205.62,-719.23 216.5,-707 219.89,-703.19 223.7,-699.43 227.6,-695.86"/>
<polygon fill="red" stroke="red" points="229.92,-698.48 235.16,-689.26 225.32,-693.2 229.92,-698.48"/>
<text text-anchor="middle" x="243.5" y="-721" font-family="Times,serif" font-size="10.00" fill="red">1.1.5</text>
<text text-anchor="middle" x="243.5" y="-710" font-family="Times,serif" font-size="10.00" fill="red">(latest: 1.1.6)</text>
</g>
<!-- roo_quantity -->
<g id="node21" class="node">
<title>roo_quantity</title>
<polygon fill="#b1dbab" stroke="red" points="186.5,-497 100.5,-497 100.5,-459 186.5,-459 186.5,-497"/>
<text text-anchor="middle" x="143.5" y="-481.8" font-family="Times,serif" font-size="14.00">roo_quantity</text>
<text text-anchor="middle" x="143.5" y="-466.8" font-family="Times,serif" font-size="14.00">1.1.8</text>
</g>
<!-- roo_control&#45;&gt;roo_quantity -->
<g id="edge8" class="edge">
<title>roo_control&#45;&gt;roo_quantity</title>
<path fill="none" stroke="black" d="M143.5,-554.88C143.5,-541.35 143.5,-522.62 143.5,-507.15"/>
<polygon fill="black" stroke="black" points="147,-507.07 143.5,-497.07 140,-507.07 147,-507.07"/>
</g>
<!-- roo_control&#45;&gt;roo_scheduler -->
<g id="edge9" class="edge">
<title>roo_control&#45;&gt;roo_scheduler</title>
<path fill="none" stroke="black" d="M171.65,-554.88C194.78,-539.99 227.71,-518.78 252.88,-502.57"/>
<polygon fill="black" stroke="black" points="254.92,-505.42 261.44,-497.07 251.13,-499.54 254.92,-505.42"/>
</g>
<!-- roo_dashboard -->
<g id="node6" class="node">
<title>roo_dashboard</title>
<polygon fill="khaki" stroke="red" points="667,-785 570,-785 570,-747 667,-747 667,-785"/>
<text text-anchor="middle" x="618.5" y="-769.8" font-family="Times,serif" font-size="14.00">roo_dashboard</text>
<text text-anchor="middle" x="618.5" y="-754.8" font-family="Times,serif" font-size="14.00">1.0.1</text>
</g>
<!-- roo_windows -->
<g id="node30" class="node">
<title>roo_windows</title>
<polygon fill="#b1dbab" stroke="red" points="644.5,-689 554.5,-689 554.5,-651 644.5,-651 644.5,-689"/>
<text text-anchor="middle" x="599.5" y="-673.8" font-family="Times,serif" font-size="14.00">roo_windows</text>
<text text-anchor="middle" x="599.5" y="-658.8" font-family="Times,serif" font-size="14.00">1.5.0</text>
</g>
<!-- roo_dashboard&#45;&gt;roo_windows -->
<g id="edge10" class="edge">
<title>roo_dashboard&#45;&gt;roo_windows</title>
<path fill="none" stroke="red" d="M614.84,-746.88C612.1,-733.35 608.32,-714.62 605.19,-699.15"/>
<polygon fill="red" stroke="red" points="608.56,-698.18 603.15,-689.07 601.7,-699.56 608.56,-698.18"/>
<text text-anchor="middle" x="638.5" y="-721" font-family="Times,serif" font-size="10.00" fill="red">1.4.1</text>
<text text-anchor="middle" x="638.5" y="-710" font-family="Times,serif" font-size="10.00" fill="red">(latest: 1.5.0)</text>
</g>
<!-- roo_display -->
<g id="node7" class="node">
<title>roo_display</title>
<polygon fill="plum" stroke="black" points="671.5,-497 591.5,-497 591.5,-459 671.5,-459 671.5,-497"/>
<text text-anchor="middle" x="631.5" y="-481.8" font-family="Times,serif" font-size="14.00">roo_display</text>
<text text-anchor="middle" x="631.5" y="-466.8" font-family="Times,serif" font-size="14.00">3.0.4</text>
</g>
<!-- roo_display&#45;&gt;roo_collections -->
<g id="edge11" class="edge">
<title>roo_display&#45;&gt;roo_collections</title>
<path fill="none" stroke="black" d="M628.58,-458.86C626.61,-447.37 623.77,-432.23 620.5,-419 619.85,-416.35 619.12,-413.62 618.35,-410.89"/>
<polygon fill="black" stroke="black" points="621.68,-409.8 615.49,-401.21 614.96,-411.79 621.68,-409.8"/>
</g>
<!-- roo_display&#45;&gt;roo_io -->
<g id="edge12" class="edge">
<title>roo_display&#45;&gt;roo_io</title>
<path fill="none" stroke="black" d="M591.24,-463.99C560.14,-453.91 522.25,-441.57 521.5,-441 510.76,-432.88 502.01,-420.91 495.53,-409.94"/>
<polygon fill="black" stroke="black" points="498.54,-408.14 490.64,-401.08 492.41,-411.52 498.54,-408.14"/>
</g>
<!-- roo_display_lvgl -->
<g id="node8" class="node">
<title>roo_display_lvgl</title>
<polygon fill="khaki" stroke="red" points="959.5,-593 851.5,-593 851.5,-555 959.5,-555 959.5,-593"/>
<text text-anchor="middle" x="905.5" y="-577.8" font-family="Times,serif" font-size="14.00">roo_display_lvgl</text>
<text text-anchor="middle" x="905.5" y="-562.8" font-family="Times,serif" font-size="14.00">1.0.0</text>
</g>
<!-- roo_display_lvgl&#45;&gt;roo_display -->
<g id="edge13" class="edge">
<title>roo_display_lvgl&#45;&gt;roo_display</title>
<path fill="none" stroke="red" d="M882.75,-554.74C864.97,-541.48 839.05,-524.29 813.5,-515 760.28,-495.66 740.42,-509.76 681.47,-496.85"/>
<polygon fill="red" stroke="red" points="682.2,-493.43 671.66,-494.54 680.59,-500.24 682.2,-493.43"/>
<text text-anchor="middle" x="883.5" y="-529" font-family="Times,serif" font-size="10.00" fill="red">3.0.3</text>
<text text-anchor="middle" x="883.5" y="-518" font-family="Times,serif" font-size="10.00" fill="red">(latest: 3.0.4)</text>
</g>
<!-- roo_flags -->
<g id="node9" class="node">
<title>roo_flags</title>
<polygon fill="#b1dbab" stroke="black" points="407.5,-209 339.5,-209 339.5,-171 407.5,-171 407.5,-209"/>
<text text-anchor="middle" x="373.5" y="-193.8" font-family="Times,serif" font-size="14.00">roo_flags</text>
<text text-anchor="middle" x="373.5" y="-178.8" font-family="Times,serif" font-size="14.00">1.2.3</text>
</g>
<!-- roo_fonts_basic -->
<g id="node10" class="node">
<title>roo_fonts_basic</title>
<polygon fill="#b1dbab" stroke="red" points="607,-593 504,-593 504,-555 607,-555 607,-593"/>
<text text-anchor="middle" x="555.5" y="-577.8" font-family="Times,serif" font-size="14.00">roo_fonts_basic</text>
<text text-anchor="middle" x="555.5" y="-562.8" font-family="Times,serif" font-size="14.00">1.0.2</text>
</g>
<!-- roo_fonts_basic&#45;&gt;roo_display -->
<g id="edge14" class="edge">
<title>roo_fonts_basic&#45;&gt;roo_display</title>
<path fill="none" stroke="red" d="M567.19,-554.96C575.04,-543.23 585.86,-527.8 596.5,-515 599.4,-511.51 602.56,-507.95 605.77,-504.5"/>
<polygon fill="red" stroke="red" points="608.39,-506.82 612.76,-497.17 603.33,-501.99 608.39,-506.82"/>
<text text-anchor="middle" x="623.5" y="-529" font-family="Times,serif" font-size="10.00" fill="red">3.0.2</text>
<text text-anchor="middle" x="623.5" y="-518" font-family="Times,serif" font-size="10.00" fill="red">(latest: 3.0.4)</text>
</g>
<!-- roo_fonts_material -->
<g id="node11" class="node">
<title>roo_fonts_material</title>
<polygon fill="#b1dbab" stroke="red" points="745.5,-593 625.5,-593 625.5,-555 745.5,-555 745.5,-593"/>
<text text-anchor="middle" x="685.5" y="-577.8" font-family="Times,serif" font-size="14.00">roo_fonts_material</text>
<text text-anchor="middle" x="685.5" y="-562.8" font-family="Times,serif" font-size="14.00">1.0.0</text>
</g>
<!-- roo_fonts_material&#45;&gt;roo_display -->
<g id="edge15" class="edge">
<title>roo_fonts_material&#45;&gt;roo_display</title>
<path fill="none" stroke="red" d="M675.09,-554.88C667.09,-540.96 655.93,-521.53 646.91,-505.82"/>
<polygon fill="red" stroke="red" points="649.9,-504 641.88,-497.07 643.83,-507.48 649.9,-504"/>
<text text-anchor="middle" x="690.5" y="-529" font-family="Times,serif" font-size="10.00" fill="red">3.0.2</text>
<text text-anchor="middle" x="690.5" y="-518" font-family="Times,serif" font-size="10.00" fill="red">(latest: 3.0.4)</text>
</g>
<!-- roo_icons -->
<g id="node12" class="node">
<title>roo_icons</title>
<polygon fill="#b1dbab" stroke="red" points="833.5,-593 763.5,-593 763.5,-555 833.5,-555 833.5,-593"/>
<text text-anchor="middle" x="798.5" y="-577.8" font-family="Times,serif" font-size="14.00">roo_icons</text>
<text text-anchor="middle" x="798.5" y="-562.8" font-family="Times,serif" font-size="14.00">1.2.2</text>
</g>
<!-- roo_icons&#45;&gt;roo_display -->
<g id="edge16" class="edge">
<title>roo_icons&#45;&gt;roo_display</title>
<path fill="none" stroke="red" d="M777.65,-554.88C762.73,-542.54 741.77,-526.42 721.5,-515 713.96,-510.75 697.96,-504.11 681.51,-497.68"/>
<polygon fill="red" stroke="red" points="682.42,-494.28 671.83,-493.94 679.9,-500.81 682.42,-494.28"/>
<text text-anchor="middle" x="782.5" y="-529" font-family="Times,serif" font-size="10.00" fill="red">3.0.2</text>
<text text-anchor="middle" x="782.5" y="-518" font-family="Times,serif" font-size="10.00" fill="red">(latest: 3.0.4)</text>
</g>
<!-- roo_io&#45;&gt;roo_logging -->
<g id="edge17" class="edge">
<title>roo_io&#45;&gt;roo_logging</title>
<path fill="none" stroke="red" d="M461.48,-362.88C444.59,-348.31 420.7,-327.71 402.08,-311.64"/>
<polygon fill="red" stroke="red" points="404.31,-308.95 394.45,-305.07 399.74,-314.25 404.31,-308.95"/>
<text text-anchor="middle" x="465.5" y="-337" font-family="Times,serif" font-size="10.00" fill="red">1.5.5</text>
<text text-anchor="middle" x="465.5" y="-326" font-family="Times,serif" font-size="10.00" fill="red">(latest: 1.5.6)</text>
</g>
<!-- roo_io_sdfat -->
<g id="node14" class="node">
<title>roo_io_sdfat</title>
<polygon fill="plum" stroke="black" points="770,-785 685,-785 685,-747 770,-747 770,-785"/>
<text text-anchor="middle" x="727.5" y="-769.8" font-family="Times,serif" font-size="14.00">roo_io_sdfat</text>
<text text-anchor="middle" x="727.5" y="-754.8" font-family="Times,serif" font-size="14.00">1.0.0</text>
</g>
<!-- roo_locale -->
<g id="node15" class="node">
<title>roo_locale</title>
<polygon fill="#b1dbab" stroke="black" points="1051.5,-593 977.5,-593 977.5,-555 1051.5,-555 1051.5,-593"/>
<text text-anchor="middle" x="1014.5" y="-577.8" font-family="Times,serif" font-size="14.00">roo_locale</text>
<text text-anchor="middle" x="1014.5" y="-562.8" font-family="Times,serif" font-size="14.00">1.1.2</text>
</g>
<!-- roo_logging&#45;&gt;roo_backport -->
<g id="edge18" class="edge">
<title>roo_logging&#45;&gt;roo_backport</title>
<path fill="none" stroke="black" d="M398.76,-266.88C419.33,-252.12 448.54,-231.15 471.05,-215"/>
<polygon fill="black" stroke="black" points="473.24,-217.74 479.32,-209.07 469.15,-212.05 473.24,-217.74"/>
</g>
<!-- roo_logging&#45;&gt;roo_flags -->
<g id="edge19" class="edge">
<title>roo_logging&#45;&gt;roo_flags</title>
<path fill="none" stroke="black" d="M373.5,-266.88C373.5,-253.35 373.5,-234.62 373.5,-219.15"/>
<polygon fill="black" stroke="black" points="377,-219.07 373.5,-209.07 370,-219.07 377,-219.07"/>
</g>
<!-- roo_threads -->
<g id="node24" class="node">
<title>roo_threads</title>
<polygon fill="#b1dbab" stroke="black" points="300.5,-209 220.5,-209 220.5,-171 300.5,-171 300.5,-209"/>
<text text-anchor="middle" x="260.5" y="-193.8" font-family="Times,serif" font-size="14.00">roo_threads</text>
<text text-anchor="middle" x="260.5" y="-178.8" font-family="Times,serif" font-size="14.00">1.2.4</text>
</g>
<!-- roo_logging&#45;&gt;roo_threads -->
<g id="edge20" class="edge">
<title>roo_logging&#45;&gt;roo_threads</title>
<path fill="none" stroke="black" d="M358.45,-266.84C347.95,-254.78 333.24,-239.01 318.5,-227 313.19,-222.67 307.32,-218.47 301.42,-214.55"/>
<polygon fill="black" stroke="black" points="303.12,-211.47 292.81,-209.02 299.34,-217.37 303.12,-211.47"/>
</g>
<!-- roo_monitoring -->
<g id="node17" class="node">
<title>roo_monitoring</title>
<polygon fill="#b1dbab" stroke="red" points="566.5,-497 464.5,-497 464.5,-459 566.5,-459 566.5,-497"/>
<text text-anchor="middle" x="515.5" y="-481.8" font-family="Times,serif" font-size="14.00">roo_monitoring</text>
<text text-anchor="middle" x="515.5" y="-466.8" font-family="Times,serif" font-size="14.00">1.1.1</text>
</g>
<!-- roo_monitoring&#45;&gt;roo_collections -->
<g id="edge21" class="edge">
<title>roo_monitoring&#45;&gt;roo_collections</title>
<path fill="none" stroke="black" d="M566.75,-462.25C577.53,-457.06 587.92,-450.14 595.5,-441 602.44,-432.63 606.05,-421.37 607.88,-410.99"/>
<polygon fill="black" stroke="black" points="611.35,-411.43 609.18,-401.06 604.41,-410.52 611.35,-411.43"/>
</g>
<!-- roo_monitoring&#45;&gt;roo_io -->
<g id="edge22" class="edge">
<title>roo_monitoring&#45;&gt;roo_io</title>
<path fill="none" stroke="black" d="M504.73,-458.73C501.76,-453.17 498.75,-446.95 496.5,-441 492.9,-431.46 490,-420.69 487.79,-411.04"/>
<polygon fill="black" stroke="black" points="491.18,-410.16 485.67,-401.12 484.34,-411.63 491.18,-410.16"/>
</g>
<!-- roo_onewire -->
<g id="node18" class="node">
<title>roo_onewire</title>
<polygon fill="#b1dbab" stroke="red" points="85,-593 0,-593 0,-555 85,-555 85,-593"/>
<text text-anchor="middle" x="42.5" y="-577.8" font-family="Times,serif" font-size="14.00">roo_onewire</text>
<text text-anchor="middle" x="42.5" y="-562.8" font-family="Times,serif" font-size="14.00">2.0.9</text>
</g>
<!-- roo_onewire&#45;&gt;roo_quantity -->
<g id="edge24" class="edge">
<title>roo_onewire&#45;&gt;roo_quantity</title>
<path fill="none" stroke="black" d="M55.76,-554.92C65.04,-542.9 78.13,-527.14 91.5,-515 95.98,-510.93 100.94,-506.95 105.96,-503.2"/>
<polygon fill="black" stroke="black" points="108.32,-505.81 114.41,-497.14 104.24,-500.13 108.32,-505.81"/>
</g>
<!-- roo_onewire&#45;&gt;roo_scheduler -->
<g id="edge23" class="edge">
<title>roo_onewire&#45;&gt;roo_scheduler</title>
<path fill="none" stroke="black" d="M85.24,-556.73C126.15,-541.17 188.1,-517.59 233.05,-500.48"/>
<polygon fill="black" stroke="black" points="234.56,-503.65 242.66,-496.83 232.07,-497.11 234.56,-503.65"/>
</g>
<!-- roo_powersafefs -->
<g id="node19" class="node">
<title>roo_powersafefs</title>
<polygon fill="khaki" stroke="red" points="314,-305 207,-305 207,-267 314,-267 314,-305"/>
<text text-anchor="middle" x="260.5" y="-289.8" font-family="Times,serif" font-size="14.00">roo_powersafefs</text>
<text text-anchor="middle" x="260.5" y="-274.8" font-family="Times,serif" font-size="14.00">1.0.0</text>
</g>
<!-- roo_powersafefs&#45;&gt;roo_threads -->
<g id="edge25" class="edge">
<title>roo_powersafefs&#45;&gt;roo_threads</title>
<path fill="none" stroke="red" d="M260.5,-266.88C260.5,-253.35 260.5,-234.62 260.5,-219.15"/>
<polygon fill="red" stroke="red" points="264,-219.07 260.5,-209.07 257,-219.07 264,-219.07"/>
<text text-anchor="middle" x="287.5" y="-241" font-family="Times,serif" font-size="10.00" fill="red">1.2.1</text>
<text text-anchor="middle" x="287.5" y="-230" font-family="Times,serif" font-size="10.00" fill="red">(latest: 1.2.4)</text>
</g>
<!-- roo_prefs -->
<g id="node20" class="node">
<title>roo_prefs</title>
<polygon fill="khaki" stroke="red" points="357.5,-593 289.5,-593 289.5,-555 357.5,-555 357.5,-593"/>
<text text-anchor="middle" x="323.5" y="-577.8" font-family="Times,serif" font-size="14.00">roo_prefs</text>
<text text-anchor="middle" x="323.5" y="-562.8" font-family="Times,serif" font-size="14.00">1.2.10</text>
</g>
<!-- roo_prefs&#45;&gt;roo_logging -->
<g id="edge26" class="edge">
<title>roo_prefs&#45;&gt;roo_logging</title>
<path fill="none" stroke="red" d="M329.28,-554.74C333.94,-539.44 340.38,-516.98 344.5,-497 357.78,-432.61 366.65,-355.84 370.79,-315.31"/>
<polygon fill="red" stroke="red" points="374.3,-315.41 371.81,-305.12 367.34,-314.72 374.3,-315.41"/>
<text text-anchor="middle" x="385.5" y="-433" font-family="Times,serif" font-size="10.00" fill="red">1.5.5</text>
<text text-anchor="middle" x="385.5" y="-422" font-family="Times,serif" font-size="10.00" fill="red">(latest: 1.5.6)</text>
</g>
<!-- roo_prefs&#45;&gt;roo_scheduler -->
<g id="edge27" class="edge">
<title>roo_prefs&#45;&gt;roo_scheduler</title>
<path fill="none" stroke="black" d="M316.94,-554.88C312.01,-541.22 305.15,-522.26 299.52,-506.71"/>
<polygon fill="black" stroke="black" points="302.73,-505.28 296.04,-497.07 296.15,-507.66 302.73,-505.28"/>
</g>
<!-- roo_quantity&#45;&gt;roo_logging -->
<g id="edge28" class="edge">
<title>roo_quantity&#45;&gt;roo_logging</title>
<path fill="none" stroke="red" d="M152.02,-458.99C163.81,-435.25 186.83,-392.99 214.5,-363 224.63,-352.02 255.25,-329.89 268.5,-323 288.58,-312.56 296.8,-312.96 322.07,-304.99"/>
<polygon fill="red" stroke="red" points="323.37,-308.25 331.77,-301.79 321.18,-301.6 323.37,-308.25"/>
<text text-anchor="middle" x="241.5" y="-385" font-family="Times,serif" font-size="10.00" fill="red">1.5.5</text>
<text text-anchor="middle" x="241.5" y="-374" font-family="Times,serif" font-size="10.00" fill="red">(latest: 1.5.6)</text>
</g>
<!-- roo_scheduler&#45;&gt;roo_collections -->
<g id="edge29" class="edge">
<title>roo_scheduler&#45;&gt;roo_collections</title>
<path fill="none" stroke="black" d="M336.03,-464.71C361.36,-457.92 393.22,-449.22 421.5,-441 464.56,-428.49 512.89,-413.56 549.77,-401.98"/>
<polygon fill="black" stroke="black" points="550.88,-405.3 559.36,-398.96 548.78,-398.62 550.88,-405.3"/>
</g>
<!-- roo_scheduler&#45;&gt;roo_threads -->
<g id="edge30" class="edge">
<title>roo_scheduler&#45;&gt;roo_threads</title>
<path fill="none" stroke="red" d="M284.41,-458.8C280.87,-447.15 275.68,-431.87 269.5,-419 256.53,-391.99 205.83,-333.78 197.5,-305 192.81,-288.78 191.77,-282.89 197.5,-267 204.47,-247.68 218.71,-229.8 231.9,-216.24"/>
<polygon fill="red" stroke="red" points="234.4,-218.69 239.06,-209.17 229.48,-213.7 234.4,-218.69"/>
<text text-anchor="middle" x="246.5" y="-337" font-family="Times,serif" font-size="10.00" fill="red">1.2.3</text>
<text text-anchor="middle" x="246.5" y="-326" font-family="Times,serif" font-size="10.00" fill="red">(latest: 1.2.4)</text>
</g>
<!-- roo_testing -->
<g id="node23" class="node">
<title>roo_testing</title>
<polygon fill="#b1dbab" stroke="black" points="219,-38 142,-38 142,0 219,0 219,-38"/>
<text text-anchor="middle" x="180.5" y="-22.8" font-family="Times,serif" font-size="14.00">roo_testing</text>
<text text-anchor="middle" x="180.5" y="-7.8" font-family="Times,serif" font-size="14.00">1.3.5</text>
</g>
<!-- roo_time -->
<g id="node25" class="node">
<title>roo_time</title>
<polygon fill="#b1dbab" stroke="black" points="213.5,-113 147.5,-113 147.5,-75 213.5,-75 213.5,-113"/>
<text text-anchor="middle" x="180.5" y="-97.8" font-family="Times,serif" font-size="14.00">roo_time</text>
<text text-anchor="middle" x="180.5" y="-82.8" font-family="Times,serif" font-size="14.00">1.4.4</text>
</g>
<!-- roo_threads&#45;&gt;roo_time -->
<g id="edge31" class="edge">
<title>roo_threads&#45;&gt;roo_time</title>
<path fill="none" stroke="black" d="M250.8,-170.76C243.99,-158.81 234.22,-143.2 223.5,-131 220.13,-127.17 216.34,-123.39 212.44,-119.82"/>
<polygon fill="black" stroke="black" points="214.72,-117.16 204.89,-113.22 210.12,-122.44 214.72,-117.16"/>
</g>
<!-- roo_time&#45;&gt;roo_testing -->
<g id="edge32" class="edge">
<title>roo_time&#45;&gt;roo_testing</title>
<path fill="none" stroke="black" d="M180.5,-74.96C180.5,-66.88 180.5,-57.18 180.5,-48.18"/>
<polygon fill="black" stroke="black" points="184,-48.09 180.5,-38.09 177,-48.09 184,-48.09"/>
</g>
<!-- roo_time_ds3231 -->
<g id="node26" class="node">
<title>roo_time_ds3231</title>
<polygon fill="#b1dbab" stroke="red" points="202.5,-209 90.5,-209 90.5,-171 202.5,-171 202.5,-209"/>
<text text-anchor="middle" x="146.5" y="-193.8" font-family="Times,serif" font-size="14.00">roo_time_ds3231</text>
<text text-anchor="middle" x="146.5" y="-178.8" font-family="Times,serif" font-size="14.00">1.1.6</text>
</g>
<!-- roo_time_ds3231&#45;&gt;roo_time -->
<g id="edge33" class="edge">
<title>roo_time_ds3231&#45;&gt;roo_time</title>
<path fill="none" stroke="red" d="M153.06,-170.88C157.99,-157.22 164.85,-138.26 170.48,-122.71"/>
<polygon fill="red" stroke="red" points="173.85,-123.66 173.96,-113.07 167.27,-121.28 173.85,-123.66"/>
<text text-anchor="middle" x="194.5" y="-145" font-family="Times,serif" font-size="10.00" fill="red">1.4.3</text>
<text text-anchor="middle" x="194.5" y="-134" font-family="Times,serif" font-size="10.00" fill="red">(latest: 1.4.4)</text>
</g>
<!-- roo_transceivers&#45;&gt;roo_prefs -->
<g id="edge34" class="edge">
<title>roo_transceivers&#45;&gt;roo_prefs</title>
<path fill="none" stroke="black" d="M271.84,-650.88C281.4,-636.83 294.79,-617.17 305.54,-601.38"/>
<polygon fill="black" stroke="black" points="308.46,-603.3 311.2,-593.07 302.68,-599.36 308.46,-603.3"/>
</g>
<!-- roo_transport -->
<g id="node28" class="node">
<title>roo_transport</title>
<polygon fill="#b1dbab" stroke="red" points="779,-497 690,-497 690,-459 779,-459 779,-497"/>
<text text-anchor="middle" x="734.5" y="-481.8" font-family="Times,serif" font-size="14.00">roo_transport</text>
<text text-anchor="middle" x="734.5" y="-466.8" font-family="Times,serif" font-size="14.00">1.1.2</text>
</g>
<!-- roo_transport&#45;&gt;roo_collections -->
<g id="edge35" class="edge">
<title>roo_transport&#45;&gt;roo_collections</title>
<path fill="none" stroke="black" d="M710.4,-458.88C690.86,-444.18 663.14,-423.34 641.7,-407.21"/>
<polygon fill="black" stroke="black" points="643.62,-404.28 633.53,-401.07 639.42,-409.88 643.62,-404.28"/>
</g>
<!-- roo_transport&#45;&gt;roo_io -->
<g id="edge36" class="edge">
<title>roo_transport&#45;&gt;roo_io</title>
<path fill="none" stroke="red" d="M689.81,-461.75C686.67,-460.79 683.54,-459.86 680.5,-459 646.68,-449.43 636.65,-452.66 603.5,-441 574.01,-430.63 542.19,-415.19 518.59,-402.85"/>
<polygon fill="red" stroke="red" points="520.12,-399.7 509.65,-398.12 516.85,-405.89 520.12,-399.7"/>
<text text-anchor="middle" x="630.5" y="-433" font-family="Times,serif" font-size="10.00" fill="red">2.1.5</text>
<text text-anchor="middle" x="630.5" y="-422" font-family="Times,serif" font-size="10.00" fill="red">(latest: 2.1.6)</text>
</g>
<!-- roo_wifi -->
<g id="node29" class="node">
<title>roo_wifi</title>
<polygon fill="khaki" stroke="red" points="394,-689 331,-689 331,-651 394,-651 394,-689"/>
<text text-anchor="middle" x="362.5" y="-673.8" font-family="Times,serif" font-size="14.00">roo_wifi</text>
<text text-anchor="middle" x="362.5" y="-658.8" font-family="Times,serif" font-size="14.00">1.1.4</text>
</g>
<!-- roo_wifi&#45;&gt;roo_prefs -->
<g id="edge37" class="edge">
<title>roo_wifi&#45;&gt;roo_prefs</title>
<path fill="none" stroke="red" d="M354.98,-650.88C349.32,-637.22 341.45,-618.26 335,-602.71"/>
<polygon fill="red" stroke="red" points="338.06,-600.96 331,-593.07 331.6,-603.65 338.06,-600.96"/>
<text text-anchor="middle" x="376" y="-625" font-family="Times,serif" font-size="10.00" fill="red">1.2.9</text>
<text text-anchor="middle" x="376" y="-614" font-family="Times,serif" font-size="10.00" fill="red">(latest: 1.2.10)</text>
</g>
<!-- roo_windows&#45;&gt;roo_fonts_basic -->
<g id="edge38" class="edge">
<title>roo_windows&#45;&gt;roo_fonts_basic</title>
<path fill="none" stroke="black" d="M591.02,-650.88C584.56,-637.09 575.58,-617.9 568.26,-602.26"/>
<polygon fill="black" stroke="black" points="571.37,-600.64 563.96,-593.07 565.03,-603.61 571.37,-600.64"/>
</g>
<!-- roo_windows&#45;&gt;roo_fonts_material -->
<g id="edge39" class="edge">
<title>roo_windows&#45;&gt;roo_fonts_material</title>
<path fill="none" stroke="black" d="M616.08,-650.88C629.17,-636.57 647.59,-616.44 662.16,-600.51"/>
<polygon fill="black" stroke="black" points="664.8,-602.81 668.97,-593.07 659.64,-598.08 664.8,-602.81"/>
</g>
<!-- roo_windows&#45;&gt;roo_icons -->
<g id="edge41" class="edge">
<title>roo_windows&#45;&gt;roo_icons</title>
<path fill="none" stroke="black" d="M637.87,-650.88C671.01,-635.22 718.92,-612.59 753.79,-596.12"/>
<polygon fill="black" stroke="black" points="755.71,-599.09 763.25,-591.65 752.72,-592.76 755.71,-599.09"/>
</g>
<!-- roo_windows&#45;&gt;roo_locale -->
<g id="edge40" class="edge">
<title>roo_windows&#45;&gt;roo_locale</title>
<path fill="none" stroke="black" d="M644.69,-662.23C713.02,-651.45 846.61,-628.22 967.49,-593.06"/>
<polygon fill="black" stroke="black" points="968.67,-596.36 977.28,-590.18 966.7,-589.64 968.67,-596.36"/>
</g>
<!-- roo_windows&#45;&gt;roo_scheduler -->
<g id="edge42" class="edge">
<title>roo_windows&#45;&gt;roo_scheduler</title>
<path fill="none" stroke="black" d="M554.2,-656.24C514.19,-643.76 455.26,-622.34 409.5,-593 398.97,-586.25 347.29,-535.99 315.28,-504.49"/>
<polygon fill="black" stroke="black" points="317.58,-501.84 308,-497.31 312.66,-506.83 317.58,-501.84"/>
</g>
<!-- roo_windows_transceivers -->
<g id="node31" class="node">
<title>roo_windows_transceivers</title>
<polygon fill="khaki" stroke="red" points="408,-785 247,-785 247,-747 408,-747 408,-785"/>
<text text-anchor="middle" x="327.5" y="-769.8" font-family="Times,serif" font-size="14.00">roo_windows_transceivers</text>
<text text-anchor="middle" x="327.5" y="-754.8" font-family="Times,serif" font-size="14.00">1.0.0</text>
</g>
<!-- roo_windows_transceivers&#45;&gt;roo_transceivers -->
<g id="edge43" class="edge">
<title>roo_windows_transceivers&#45;&gt;roo_transceivers</title>
<path fill="none" stroke="red" d="M303.31,-746.71C297.32,-741.43 291.27,-735.37 286.5,-729 279.59,-719.77 273.84,-708.49 269.45,-698.34"/>
<polygon fill="red" stroke="red" points="272.68,-696.99 265.66,-689.05 266.2,-699.63 272.68,-696.99"/>
<text text-anchor="middle" x="313.5" y="-721" font-family="Times,serif" font-size="10.00" fill="red">1.1.3</text>
<text text-anchor="middle" x="313.5" y="-710" font-family="Times,serif" font-size="10.00" fill="red">(latest: 1.1.6)</text>
</g>
<!-- roo_windows_transceivers&#45;&gt;roo_windows -->
<g id="edge44" class="edge">
<title>roo_windows_transceivers&#45;&gt;roo_windows</title>
<path fill="none" stroke="red" d="M400.48,-746.99C414.84,-742.11 429.48,-736.16 442.5,-729 455.76,-721.71 455.11,-714.06 468.5,-707 491.96,-694.63 520.08,-686.18 544.25,-680.6"/>
<polygon fill="red" stroke="red" points="545.32,-683.94 554.33,-678.38 543.82,-677.11 545.32,-683.94"/>
<text text-anchor="middle" x="495.5" y="-721" font-family="Times,serif" font-size="10.00" fill="red">1.4.1</text>
<text text-anchor="middle" x="495.5" y="-710" font-family="Times,serif" font-size="10.00" fill="red">(latest: 1.5.0)</text>
</g>
<!-- roo_windows_wifi -->
<g id="node32" class="node">
<title>roo_windows_wifi</title>
<polygon fill="khaki" stroke="red" points="550,-785 431,-785 431,-747 550,-747 550,-785"/>
<text text-anchor="middle" x="490.5" y="-769.8" font-family="Times,serif" font-size="14.00">roo_windows_wifi</text>
<text text-anchor="middle" x="490.5" y="-754.8" font-family="Times,serif" font-size="14.00">1.1.3</text>
</g>
<!-- roo_windows_wifi&#45;&gt;roo_wifi -->
<g id="edge45" class="edge">
<title>roo_windows_wifi&#45;&gt;roo_wifi</title>
<path fill="none" stroke="red" d="M430.73,-748.27C412.48,-742.25 395.41,-735.36 388.5,-729 379.83,-721.01 373.86,-709.59 369.86,-698.99"/>
<polygon fill="red" stroke="red" points="373.09,-697.59 366.6,-689.22 366.45,-699.81 373.09,-697.59"/>
<text text-anchor="middle" x="415.5" y="-721" font-family="Times,serif" font-size="10.00" fill="red">1.1.3</text>
<text text-anchor="middle" x="415.5" y="-710" font-family="Times,serif" font-size="10.00" fill="red">(latest: 1.1.4)</text>
</g>
<!-- roo_windows_wifi&#45;&gt;roo_windows -->
<g id="edge46" class="edge">
<title>roo_windows_wifi&#45;&gt;roo_windows</title>
<path fill="none" stroke="red" d="M507.65,-746.75C519.08,-734.94 534.67,-719.5 549.5,-707 554.16,-703.07 559.23,-699.1 564.29,-695.31"/>
<polygon fill="red" stroke="red" points="566.72,-697.87 572.72,-689.14 562.58,-692.22 566.72,-697.87"/>
<text text-anchor="middle" x="576.5" y="-721" font-family="Times,serif" font-size="10.00" fill="red">1.4.2</text>
<text text-anchor="middle" x="576.5" y="-710" font-family="Times,serif" font-size="10.00" fill="red">(latest: 1.5.0)</text>
</g>
</g>
</svg>
