<?xml version="1.0" encoding="UTF-8" standalone="no"?>
<!DOCTYPE svg PUBLIC "-//W3C//DTD SVG 1.1//EN"
 "http://www.w3.org/Graphics/SVG/1.1/DTD/svg11.dtd">
<!-- Generated by graphviz version 2.42.4 (0)
 -->
<!-- Title: dependencies Pages: 1 -->
<svg width="1060pt" height="793pt"
 viewBox="0.00 0.00 1059.50 793.00" xmlns="http://www.w3.org/2000/svg" xmlns:xlink="http://www.w3.org/1999/xlink">
<g id="graph0" class="graph" transform="scale(1 1) rotate(0) translate(4 789)">
<title>dependencies</title>
<polygon fill="white" stroke="transparent" points="-4,4 -4,-789 1055.5,-789 1055.5,4 -4,4"/>
<!-- roo_backport -->
<g id="node1" class="node">
<title>roo_backport</title>
<polygon fill="#b1dbab" stroke="black" points="585,-209 496,-209 496,-171 585,-171 585,-209"/>
<text text-anchor="middle" x="540.5" y="-193.8" font-family="Times,serif" font-size="14.00">roo_backport</text>
<text text-anchor="middle" x="540.5" y="-178.8" font-family="Times,serif" font-size="14.00">1.2.2</text>
</g>
<!-- roo_blink -->
<g id="node2" class="node">
<title>roo_blink</title>
<polygon fill="#b1dbab" stroke="red" points="271,-593 202,-593 202,-555 271,-555 271,-593"/>
<text text-anchor="middle" x="236.5" y="-577.8" font-family="Times,serif" font-size="14.00">roo_blink</text>
<text text-anchor="middle" x="236.5" y="-562.8" font-family="Times,serif" font-size="14.00">1.0.6</text>
</g>
<!-- roo_logging -->
<g id="node16" class="node">
<title>roo_logging</title>
<polygon fill="#b1dbab" stroke="red" points="441,-305 358,-305 358,-267 441,-267 441,-305"/>
<text text-anchor="middle" x="399.5" y="-289.8" font-family="Times,serif" font-size="14.00">roo_logging</text>
<text text-anchor="middle" x="399.5" y="-274.8" font-family="Times,serif" font-size="14.00">1.5.6</text>
</g>
<!-- roo_blink&#45;&gt;roo_logging -->
<g id="edge1" class="edge">
<title>roo_blink&#45;&gt;roo_logging</title>
<path fill="none" stroke="red" d="M236.62,-554.77C237.42,-531.51 241,-490.54 255.5,-459 263.18,-442.3 337.82,-356.72 376.5,-312.91"/>
<polygon fill="red" stroke="red" points="379.28,-315.06 383.28,-305.25 374.03,-310.42 379.28,-315.06"/>
<text text-anchor="middle" x="311.5" y="-433" font-family="Times,serif" font-size="10.00" fill="red">1.5.5</text>
<text text-anchor="middle" x="311.5" y="-422" font-family="Times,serif" font-size="10.00" fill="red">(latest: 1.5.6)</text>
</g>
<!-- roo_scheduler -->
<g id="node22" class="node">
<title>roo_scheduler</title>
<polygon fill="#b1dbab" stroke="red" points="358,-497 265,-497 265,-459 358,-459 358,-497"/>
<text text-anchor="middle" x="311.5" y="-481.8" font-family="Times,serif" font-size="14.00">roo_scheduler</text>
<text text-anchor="middle" x="311.5" y="-466.8" font-family="Times,serif" font-size="14.00">2.1.9</text>
</g>
<!-- roo_blink&#45;&gt;roo_scheduler -->
<g id="edge2" class="edge">
<title>roo_blink&#45;&gt;roo_scheduler</title>
<path fill="none" stroke="black" d="M262.27,-554.76C268.69,-549.48 275.24,-543.4 280.5,-537 288.03,-527.84 294.55,-516.57 299.64,-506.41"/>
<polygon fill="black" stroke="black" points="302.93,-507.65 304.07,-497.11 296.61,-504.63 302.93,-507.65"/>
</g>
<!-- roo_collections -->
<g id="node3" class="node">
<title>roo_collections</title>
<polygon fill="#b1dbab" stroke="black" points="658.5,-401 558.5,-401 558.5,-363 658.5,-363 658.5,-401"/>
<text text-anchor="middle" x="608.5" y="-385.8" font-family="Times,serif" font-size="14.00">roo_collections</text>
<text text-anchor="middle" x="608.5" y="-370.8" font-family="Times,serif" font-size="14.00">1.4.3</text>
</g>
<!-- roo_collections&#45;&gt;roo_backport -->
<g id="edge3" class="edge">
<title>roo_collections&#45;&gt;roo_backport</title>
<path fill="none" stroke="black" d="M601.98,-362.78C590.02,-329.37 564.52,-258.13 550.41,-218.69"/>
<polygon fill="black" stroke="black" points="553.67,-217.4 547,-209.16 547.07,-219.76 553.67,-217.4"/>
</g>
<!-- roo_comms -->
<g id="node4" class="node">
<title>roo_comms</title>
<polygon fill="#b1dbab" stroke="red" points="219.5,-785 137.5,-785 137.5,-747 219.5,-747 219.5,-785"/>
<text text-anchor="middle" x="178.5" y="-769.8" font-family="Times,serif" font-size="14.00">roo_comms</text>
<text text-anchor="middle" x="178.5" y="-754.8" font-family="Times,serif" font-size="14.00">1.1.4</text>
</g>
<!-- roo_comms&#45;&gt;roo_blink -->
<g id="edge4" class="edge">
<title>roo_comms&#45;&gt;roo_blink</title>
<path fill="none" stroke="black" d="M179.79,-746.82C181.81,-723.96 186.66,-683.76 197.5,-651 203.16,-633.91 212.22,-615.93 220.19,-601.76"/>
<polygon fill="black" stroke="black" points="223.25,-603.45 225.22,-593.04 217.19,-599.95 223.25,-603.45"/>
</g>
<!-- roo_control -->
<g id="node5" class="node">
<title>roo_control</title>
<polygon fill="#b1dbab" stroke="red" points="183.5,-593 103.5,-593 103.5,-555 183.5,-555 183.5,-593"/>
<text text-anchor="middle" x="143.5" y="-577.8" font-family="Times,serif" font-size="14.00">roo_control</text>
<text text-anchor="middle" x="143.5" y="-562.8" font-family="Times,serif" font-size="14.00">1.2.5</text>
</g>
<!-- roo_comms&#45;&gt;roo_control -->
<g id="edge5" class="edge">
<title>roo_comms&#45;&gt;roo_control</title>
<path fill="none" stroke="black" d="M168.49,-746.76C165.82,-741.21 163.21,-734.98 161.5,-729 149.31,-686.4 145.35,-634.92 144.08,-603.59"/>
<polygon fill="black" stroke="black" points="147.57,-603.27 143.74,-593.39 140.58,-603.51 147.57,-603.27"/>
</g>
<!-- roo_io -->
<g id="node13" class="node">
<title>roo_io</title>
<polygon fill="#b1dbab" stroke="red" points="508.5,-401 454.5,-401 454.5,-363 508.5,-363 508.5,-401"/>
<text text-anchor="middle" x="481.5" y="-385.8" font-family="Times,serif" font-size="14.00">roo_io</text>
<text text-anchor="middle" x="481.5" y="-370.8" font-family="Times,serif" font-size="14.00">2.1.6</text>
</g>
<!-- roo_comms&#45;&gt;roo_io -->
<g id="edge6" class="edge">
<title>roo_comms&#45;&gt;roo_io</title>
<path fill="none" stroke="red" d="M219.82,-751.28C225.71,-749.65 231.72,-748.16 237.5,-747 276.91,-739.1 387.19,-755.41 417.5,-729 437.49,-711.58 431.5,-697.52 431.5,-671 431.5,-671 431.5,-671 431.5,-477 431.5,-452.06 445.39,-427.3 458.53,-409.45"/>
<polygon fill="red" stroke="red" points="461.5,-411.33 464.85,-401.28 455.96,-407.05 461.5,-411.33"/>
<text text-anchor="middle" x="458.5" y="-577" font-family="Times,serif" font-size="10.00" fill="red">2.1.5</text>
<text text-anchor="middle" x="458.5" y="-566" font-family="Times,serif" font-size="10.00" fill="red">(latest: 2.1.6)</text>
</g>
<!-- roo_transceivers -->
<g id="node27" class="node">
<title>roo_transceivers</title>
<polygon fill="#b1dbab" stroke="red" points="312.5,-689 206.5,-689 206.5,-651 312.5,-651 312.5,-689"/>
<text text-anchor="middle" x="259.5" y="-673.8" font-family="Times,serif" font-size="14.00">roo_transceivers</text>
<text text-anchor="middle" x="259.5" y="-658.8" font-family="Times,serif" font-size="14.00">1.1.6</text>
</g>
<!-- roo_comms&#45;&gt;roo_transceivers -->
<g id="edge7" class="edge">
<title>roo_comms&#45;&gt;roo_transceivers</title>
<path fill="none" stroke="red" d="M188.55,-746.78C195.58,-734.84 205.62,-719.23 216.5,-707 219.89,-703.19 223.7,-699.43 227.6,-695.86"/>
<polygon fill="red" stroke="red" points="229.92,-698.48 235.16,-689.26 225.32,-693.2 229.92,-698.48"/>
<text text-anchor="middle" x="243.5" y="-721" font-family="Times,serif" font-size="10.00" fill="red">1.1.5</text>
<text text-anchor="middle" x="243.5" y="-710" font-family="Times,serif" font-size="10.00" fill="red">(latest: 1.1.6)</text>
</g>
<!-- roo_quantity -->
<g id="node21" class="node">
<title>roo_quantity</title>
<polygon fill="#b1dbab" stroke="red" points="186.5,-497 100.5,-497 100.5,-459 186.5,-459 186.5,-497"/>
<text text-anchor="middle" x="143.5" y="-481.8" font-family="Times,serif" font-size="14.00">roo_quantity</text>
<text text-anchor="middle" x="143.5" y="-466.8" font-family="Times,serif" font-size="14.00">1.1.8</text>
</g>
<!-- roo_control&#45;&gt;roo_quantity -->
<g id="edge8" class="edge">
<title>roo_control&#45;&gt;roo_quantity</title>
<path fill="none" stroke="black" d="M143.5,-554.88C143.5,-541.35 143.5,-522.62 143.5,-507.15"/>
<polygon fill="black" stroke="black" points="147,-507.07 143.5,-497.07 140,-507.07 147,-507.07"/>
</g>
<!-- roo_control&#45;&gt;roo_scheduler -->
<g id="edge9" class="edge">
<title>roo_control&#45;&gt;roo_scheduler</title>
<path fill="none" stroke="black" d="M175.89,-554.88C202.74,-539.86 241.06,-518.41 270.12,-502.15"/>
<polygon fill="black" stroke="black" points="272.19,-505.01 279.21,-497.07 268.77,-498.9 272.19,-505.01"/>
</g>
<!-- roo_dashboard -->
<g id="node6" class="node">
<title>roo_dashboard</title>
<polygon fill="khaki" stroke="red" points="667,-785 570,-785 570,-747 667,-747 667,-785"/>
<text text-anchor="middle" x="618.5" y="-769.8" font-family="Times,serif" font-size="14.00">roo_dashboard</text>
<text text-anchor="middle" x="618.5" y="-754.8" font-family="Times,serif" font-size="14.00">1.0.1</text>
</g>
<!-- roo_windows -->
<g id="node30" class="node">
<title>roo_windows</title>
<polygon fill="#b1dbab" stroke="red" points="647.5,-689 557.5,-689 557.5,-651 647.5,-651 647.5,-689"/>
<text text-anchor="middle" x="602.5" y="-673.8" font-family="Times,serif" font-size="14.00">roo_windows</text>
<text text-anchor="middle" x="602.5" y="-658.8" font-family="Times,serif" font-size="14.00">1.5.0</text>
</g>
<!-- roo_dashboard&#45;&gt;roo_windows -->
<g id="edge10" class="edge">
<title>roo_dashboard&#45;&gt;roo_windows</title>
<path fill="none" stroke="red" d="M615.42,-746.88C613.11,-733.35 609.92,-714.62 607.29,-699.15"/>
<polygon fill="red" stroke="red" points="610.7,-698.34 605.58,-689.07 603.8,-699.51 610.7,-698.34"/>
<text text-anchor="middle" x="639.5" y="-721" font-family="Times,serif" font-size="10.00" fill="red">1.4.1</text>
<text text-anchor="middle" x="639.5" y="-710" font-family="Times,serif" font-size="10.00" fill="red">(latest: 1.5.0)</text>
</g>
<!-- roo_display -->
<g id="node7" class="node">
<title>roo_display</title>
<polygon fill="plum" stroke="black" points="670.5,-497 590.5,-497 590.5,-459 670.5,-459 670.5,-497"/>
<text text-anchor="middle" x="630.5" y="-481.8" font-family="Times,serif" font-size="14.00">roo_display</text>
<text text-anchor="middle" x="630.5" y="-466.8" font-family="Times,serif" font-size="14.00">3.0.4</text>
</g>
<!-- roo_display&#45;&gt;roo_collections -->
<g id="edge11" class="edge">
<title>roo_display&#45;&gt;roo_collections</title>
<path fill="none" stroke="black" d="M627.58,-458.86C625.61,-447.37 622.77,-432.23 619.5,-419 618.85,-416.35 618.12,-413.62 617.35,-410.89"/>
<polygon fill="black" stroke="black" points="620.68,-409.8 614.49,-401.21 613.96,-411.79 620.68,-409.8"/>
</g>
<!-- roo_display&#45;&gt;roo_io -->
<g id="edge12" class="edge">
<title>roo_display&#45;&gt;roo_io</title>
<path fill="none" stroke="black" d="M590.24,-463.99C559.14,-453.91 521.25,-441.57 520.5,-441 509.76,-432.88 501.01,-420.91 494.53,-409.94"/>
<polygon fill="black" stroke="black" points="497.54,-408.14 489.64,-401.08 491.41,-411.52 497.54,-408.14"/>
</g>
<!-- roo_display_lvgl -->
<g id="node8" class="node">
<title>roo_display_lvgl</title>
<polygon fill="khaki" stroke="red" points="959.5,-593 851.5,-593 851.5,-555 959.5,-555 959.5,-593"/>
<text text-anchor="middle" x="905.5" y="-577.8" font-family="Times,serif" font-size="14.00">roo_display_lvgl</text>
<text text-anchor="middle" x="905.5" y="-562.8" font-family="Times,serif" font-size="14.00">1.0.0</text>
</g>
<!-- roo_display_lvgl&#45;&gt;roo_display -->
<g id="edge13" class="edge">
<title>roo_display_lvgl&#45;&gt;roo_display</title>
<path fill="none" stroke="red" d="M882.76,-554.73C864.97,-541.46 839.06,-524.27 813.5,-515 759.88,-495.55 739.87,-509.82 680.53,-496.87"/>
<polygon fill="red" stroke="red" points="681.19,-493.43 670.66,-494.54 679.59,-500.24 681.19,-493.43"/>
<text text-anchor="middle" x="883.5" y="-529" font-family="Times,serif" font-size="10.00" fill="red">3.0.3</text>
<text text-anchor="middle" x="883.5" y="-518" font-family="Times,serif" font-size="10.00" fill="red">(latest: 3.0.4)</text>
</g>
<!-- roo_flags -->
<g id="node9" class="node">
<title>roo_flags</title>
<polygon fill="#b1dbab" stroke="black" points="466.5,-209 398.5,-209 398.5,-171 466.5,-171 466.5,-209"/>
<text text-anchor="middle" x="432.5" y="-193.8" font-family="Times,serif" font-size="14.00">roo_flags</text>
<text text-anchor="middle" x="432.5" y="-178.8" font-family="Times,serif" font-size="14.00">1.2.3</text>
</g>
<!-- roo_fonts_basic -->
<g id="node10" class="node">
<title>roo_fonts_basic</title>
<polygon fill="#b1dbab" stroke="red" points="607,-593 504,-593 504,-555 607,-555 607,-593"/>
<text text-anchor="middle" x="555.5" y="-577.8" font-family="Times,serif" font-size="14.00">roo_fonts_basic</text>
<text text-anchor="middle" x="555.5" y="-562.8" font-family="Times,serif" font-size="14.00">1.0.2</text>
</g>
<!-- roo_fonts_basic&#45;&gt;roo_display -->
<g id="edge14" class="edge">
<title>roo_fonts_basic&#45;&gt;roo_display</title>
<path fill="none" stroke="red" d="M566.84,-554.93C574.47,-543.19 585.02,-527.76 595.5,-515 598.38,-511.49 601.53,-507.93 604.73,-504.47"/>
<polygon fill="red" stroke="red" points="607.36,-506.79 611.72,-497.13 602.29,-501.96 607.36,-506.79"/>
<text text-anchor="middle" x="622.5" y="-529" font-family="Times,serif" font-size="10.00" fill="red">3.0.2</text>
<text text-anchor="middle" x="622.5" y="-518" font-family="Times,serif" font-size="10.00" fill="red">(latest: 3.0.4)</text>
</g>
<!-- roo_fonts_material -->
<g id="node11" class="node">
<title>roo_fonts_material</title>
<polygon fill="#b1dbab" stroke="red" points="745.5,-593 625.5,-593 625.5,-555 745.5,-555 745.5,-593"/>
<text text-anchor="middle" x="685.5" y="-577.8" font-family="Times,serif" font-size="14.00">roo_fonts_material</text>
<text text-anchor="middle" x="685.5" y="-562.8" font-family="Times,serif" font-size="14.00">1.0.0</text>
</g>
<!-- roo_fonts_material&#45;&gt;roo_display -->
<g id="edge15" class="edge">
<title>roo_fonts_material&#45;&gt;roo_display</title>
<path fill="none" stroke="red" d="M674.9,-554.88C666.75,-540.96 655.39,-521.53 646.19,-505.82"/>
<polygon fill="red" stroke="red" points="649.14,-503.93 641.07,-497.07 643.1,-507.47 649.14,-503.93"/>
<text text-anchor="middle" x="690.5" y="-529" font-family="Times,serif" font-size="10.00" fill="red">3.0.2</text>
<text text-anchor="middle" x="690.5" y="-518" font-family="Times,serif" font-size="10.00" fill="red">(latest: 3.0.4)</text>
</g>
<!-- roo_icons -->
<g id="node12" class="node">
<title>roo_icons</title>
<polygon fill="#b1dbab" stroke="red" points="833.5,-593 763.5,-593 763.5,-555 833.5,-555 833.5,-593"/>
<text text-anchor="middle" x="798.5" y="-577.8" font-family="Times,serif" font-size="14.00">roo_icons</text>
<text text-anchor="middle" x="798.5" y="-562.8" font-family="Times,serif" font-size="14.00">1.2.2</text>
</g>
<!-- roo_icons&#45;&gt;roo_display -->
<g id="edge16" class="edge">
<title>roo_icons&#45;&gt;roo_display</title>
<path fill="none" stroke="red" d="M777.66,-554.86C762.75,-542.5 741.79,-526.38 721.5,-515 713.75,-510.65 697.13,-503.85 680.19,-497.32"/>
<polygon fill="red" stroke="red" points="681.39,-494.03 670.8,-493.73 678.9,-500.57 681.39,-494.03"/>
<text text-anchor="middle" x="782.5" y="-529" font-family="Times,serif" font-size="10.00" fill="red">3.0.2</text>
<text text-anchor="middle" x="782.5" y="-518" font-family="Times,serif" font-size="10.00" fill="red">(latest: 3.0.4)</text>
</g>
<!-- roo_io&#45;&gt;roo_logging -->
<g id="edge17" class="edge">
<title>roo_io&#45;&gt;roo_logging</title>
<path fill="none" stroke="red" d="M465.69,-362.88C453.32,-348.7 435.97,-328.81 422.13,-312.94"/>
<polygon fill="red" stroke="red" points="424.47,-310.3 415.26,-305.07 419.2,-314.91 424.47,-310.3"/>
<text text-anchor="middle" x="475.5" y="-337" font-family="Times,serif" font-size="10.00" fill="red">1.5.5</text>
<text text-anchor="middle" x="475.5" y="-326" font-family="Times,serif" font-size="10.00" fill="red">(latest: 1.5.6)</text>
</g>
<!-- roo_io_sdfat -->
<g id="node14" class="node">
<title>roo_io_sdfat</title>
<polygon fill="plum" stroke="black" points="770,-785 685,-785 685,-747 770,-747 770,-785"/>
<text text-anchor="middle" x="727.5" y="-769.8" font-family="Times,serif" font-size="14.00">roo_io_sdfat</text>
<text text-anchor="middle" x="727.5" y="-754.8" font-family="Times,serif" font-size="14.00">1.0.0</text>
</g>
<!-- roo_locale -->
<g id="node15" class="node">
<title>roo_locale</title>
<polygon fill="#b1dbab" stroke="black" points="1051.5,-593 977.5,-593 977.5,-555 1051.5,-555 1051.5,-593"/>
<text text-anchor="middle" x="1014.5" y="-577.8" font-family="Times,serif" font-size="14.00">roo_locale</text>
<text text-anchor="middle" x="1014.5" y="-562.8" font-family="Times,serif" font-size="14.00">1.1.2</text>
</g>
<!-- roo_logging&#45;&gt;roo_backport -->
<g id="edge18" class="edge">
<title>roo_logging&#45;&gt;roo_backport</title>
<path fill="none" stroke="black" d="M426.69,-266.88C448.92,-252.05 480.55,-230.97 504.82,-214.79"/>
<polygon fill="black" stroke="black" points="507.02,-217.53 513.4,-209.07 503.14,-211.7 507.02,-217.53"/>
</g>
<!-- roo_logging&#45;&gt;roo_flags -->
<g id="edge19" class="edge">
<title>roo_logging&#45;&gt;roo_flags</title>
<path fill="none" stroke="black" d="M410.27,-266.73C413.24,-261.17 416.25,-254.95 418.5,-249 422.1,-239.46 425,-228.69 427.21,-219.04"/>
<polygon fill="black" stroke="black" points="430.66,-219.63 429.33,-209.12 423.82,-218.16 430.66,-219.63"/>
</g>
<!-- roo_threads -->
<g id="node24" class="node">
<title>roo_threads</title>
<polygon fill="#b1dbab" stroke="black" points="326.5,-209 246.5,-209 246.5,-171 326.5,-171 326.5,-209"/>
<text text-anchor="middle" x="286.5" y="-193.8" font-family="Times,serif" font-size="14.00">roo_threads</text>
<text text-anchor="middle" x="286.5" y="-178.8" font-family="Times,serif" font-size="14.00">1.2.5</text>
</g>
<!-- roo_logging&#45;&gt;roo_threads -->
<g id="edge20" class="edge">
<title>roo_logging&#45;&gt;roo_threads</title>
<path fill="none" stroke="red" d="M378.85,-266.74C372.8,-261.18 366.27,-254.96 360.5,-249 351.52,-239.71 351.22,-235.51 341.5,-227 336.71,-222.81 331.4,-218.73 326.01,-214.92"/>
<polygon fill="red" stroke="red" points="327.8,-211.91 317.57,-209.18 323.87,-217.7 327.8,-211.91"/>
<text text-anchor="middle" x="387.5" y="-241" font-family="Times,serif" font-size="10.00" fill="red">1.2.4</text>
<text text-anchor="middle" x="387.5" y="-230" font-family="Times,serif" font-size="10.00" fill="red">(latest: 1.2.5)</text>
</g>
<!-- roo_monitoring -->
<g id="node17" class="node">
<title>roo_monitoring</title>
<polygon fill="#b1dbab" stroke="red" points="565.5,-497 463.5,-497 463.5,-459 565.5,-459 565.5,-497"/>
<text text-anchor="middle" x="514.5" y="-481.8" font-family="Times,serif" font-size="14.00">roo_monitoring</text>
<text text-anchor="middle" x="514.5" y="-466.8" font-family="Times,serif" font-size="14.00">1.1.1</text>
</g>
<!-- roo_monitoring&#45;&gt;roo_collections -->
<g id="edge21" class="edge">
<title>roo_monitoring&#45;&gt;roo_collections</title>
<path fill="none" stroke="black" d="M565.75,-462.25C576.53,-457.06 586.92,-450.14 594.5,-441 601.44,-432.63 605.05,-421.37 606.88,-410.99"/>
<polygon fill="black" stroke="black" points="610.35,-411.43 608.18,-401.06 603.41,-410.52 610.35,-411.43"/>
</g>
<!-- roo_monitoring&#45;&gt;roo_io -->
<g id="edge22" class="edge">
<title>roo_monitoring&#45;&gt;roo_io</title>
<path fill="none" stroke="black" d="M503.73,-458.73C500.76,-453.17 497.75,-446.95 495.5,-441 491.9,-431.46 489,-420.69 486.79,-411.04"/>
<polygon fill="black" stroke="black" points="490.18,-410.16 484.67,-401.12 483.34,-411.63 490.18,-410.16"/>
</g>
<!-- roo_onewire -->
<g id="node18" class="node">
<title>roo_onewire</title>
<polygon fill="#b1dbab" stroke="red" points="85,-593 0,-593 0,-555 85,-555 85,-593"/>
<text text-anchor="middle" x="42.5" y="-577.8" font-family="Times,serif" font-size="14.00">roo_onewire</text>
<text text-anchor="middle" x="42.5" y="-562.8" font-family="Times,serif" font-size="14.00">2.0.9</text>
</g>
<!-- roo_onewire&#45;&gt;roo_quantity -->
<g id="edge24" class="edge">
<title>roo_onewire&#45;&gt;roo_quantity</title>
<path fill="none" stroke="black" d="M55.76,-554.92C65.04,-542.9 78.13,-527.14 91.5,-515 95.98,-510.93 100.94,-506.95 105.96,-503.2"/>
<polygon fill="black" stroke="black" points="108.32,-505.81 114.41,-497.14 104.24,-500.13 108.32,-505.81"/>
</g>
<!-- roo_onewire&#45;&gt;roo_scheduler -->
<g id="edge23" class="edge">
<title>roo_onewire&#45;&gt;roo_scheduler</title>
<path fill="none" stroke="black" d="M85.12,-558.11C131.05,-542.06 204.36,-516.44 255.05,-498.73"/>
<polygon fill="black" stroke="black" points="256.27,-502.01 264.55,-495.4 253.96,-495.4 256.27,-502.01"/>
</g>
<!-- roo_powersafefs -->
<g id="node19" class="node">
<title>roo_powersafefs</title>
<polygon fill="khaki" stroke="red" points="340,-305 233,-305 233,-267 340,-267 340,-305"/>
<text text-anchor="middle" x="286.5" y="-289.8" font-family="Times,serif" font-size="14.00">roo_powersafefs</text>
<text text-anchor="middle" x="286.5" y="-274.8" font-family="Times,serif" font-size="14.00">1.0.0</text>
</g>
<!-- roo_powersafefs&#45;&gt;roo_threads -->
<g id="edge25" class="edge">
<title>roo_powersafefs&#45;&gt;roo_threads</title>
<path fill="none" stroke="red" d="M286.5,-266.88C286.5,-253.35 286.5,-234.62 286.5,-219.15"/>
<polygon fill="red" stroke="red" points="290,-219.07 286.5,-209.07 283,-219.07 290,-219.07"/>
<text text-anchor="middle" x="313.5" y="-241" font-family="Times,serif" font-size="10.00" fill="red">1.2.1</text>
<text text-anchor="middle" x="313.5" y="-230" font-family="Times,serif" font-size="10.00" fill="red">(latest: 1.2.5)</text>
</g>
<!-- roo_prefs -->
<g id="node20" class="node">
<title>roo_prefs</title>
<polygon fill="#b1dbab" stroke="black" points="357.5,-593 289.5,-593 289.5,-555 357.5,-555 357.5,-593"/>
<text text-anchor="middle" x="323.5" y="-577.8" font-family="Times,serif" font-size="14.00">roo_prefs</text>
<text text-anchor="middle" x="323.5" y="-562.8" font-family="Times,serif" font-size="14.00">1.2.11</text>
</g>
<!-- roo_prefs&#45;&gt;roo_logging -->
<g id="edge26" class="edge">
<title>roo_prefs&#45;&gt;roo_logging</title>
<path fill="none" stroke="black" d="M336.26,-554.84C346.08,-539.98 359.17,-518.04 366.5,-497 388.3,-434.46 395.75,-356.4 398.26,-315.32"/>
<polygon fill="black" stroke="black" points="401.76,-315.41 398.82,-305.23 394.77,-315.02 401.76,-315.41"/>
</g>
<!-- roo_prefs&#45;&gt;roo_scheduler -->
<g id="edge27" class="edge">
<title>roo_prefs&#45;&gt;roo_scheduler</title>
<path fill="none" stroke="black" d="M321.19,-554.88C319.46,-541.35 317.07,-522.62 315.09,-507.15"/>
<polygon fill="black" stroke="black" points="318.54,-506.54 313.81,-497.07 311.6,-507.43 318.54,-506.54"/>
</g>
<!-- roo_quantity&#45;&gt;roo_logging -->
<g id="edge28" class="edge">
<title>roo_quantity&#45;&gt;roo_logging</title>
<path fill="none" stroke="red" d="M155.91,-458.81C179.39,-425.93 233.73,-356.89 297.5,-323 297.58,-322.96 322.78,-314.06 348.11,-305.13"/>
<polygon fill="red" stroke="red" points="349.51,-308.35 357.77,-301.72 347.18,-301.74 349.51,-308.35"/>
<text text-anchor="middle" x="266.5" y="-385" font-family="Times,serif" font-size="10.00" fill="red">1.5.5</text>
<text text-anchor="middle" x="266.5" y="-374" font-family="Times,serif" font-size="10.00" fill="red">(latest: 1.5.6)</text>
</g>
<!-- roo_scheduler&#45;&gt;roo_collections -->
<g id="edge29" class="edge">
<title>roo_scheduler&#45;&gt;roo_collections</title>
<path fill="none" stroke="black" d="M358.23,-462.21C409.63,-445.94 492.36,-419.76 548.51,-401.99"/>
<polygon fill="black" stroke="black" points="549.84,-405.24 558.32,-398.88 547.73,-398.56 549.84,-405.24"/>
</g>
<!-- roo_scheduler&#45;&gt;roo_threads -->
<g id="edge30" class="edge">
<title>roo_scheduler&#45;&gt;roo_threads</title>
<path fill="none" stroke="red" d="M306.22,-458.89C302.6,-447.28 297.39,-432 291.5,-419 279.66,-392.89 274.17,-387.63 259.5,-363 243.97,-336.94 231.82,-334.18 223.5,-305 218.87,-288.76 217.77,-282.89 223.5,-267 230.47,-247.68 244.71,-229.8 257.9,-216.24"/>
<polygon fill="red" stroke="red" points="260.4,-218.69 265.06,-209.17 255.48,-213.7 260.4,-218.69"/>
<text text-anchor="middle" x="274.5" y="-337" font-family="Times,serif" font-size="10.00" fill="red">1.2.3</text>
<text text-anchor="middle" x="274.5" y="-326" font-family="Times,serif" font-size="10.00" fill="red">(latest: 1.2.5)</text>
</g>
<!-- roo_testing -->
<g id="node23" class="node">
<title>roo_testing</title>
<polygon fill="#b1dbab" stroke="black" points="245,-38 168,-38 168,0 245,0 245,-38"/>
<text text-anchor="middle" x="206.5" y="-22.8" font-family="Times,serif" font-size="14.00">roo_testing</text>
<text text-anchor="middle" x="206.5" y="-7.8" font-family="Times,serif" font-size="14.00">1.3.5</text>
</g>
<!-- roo_time -->
<g id="node25" class="node">
<title>roo_time</title>
<polygon fill="#b1dbab" stroke="black" points="239.5,-113 173.5,-113 173.5,-75 239.5,-75 239.5,-113"/>
<text text-anchor="middle" x="206.5" y="-97.8" font-family="Times,serif" font-size="14.00">roo_time</text>
<text text-anchor="middle" x="206.5" y="-82.8" font-family="Times,serif" font-size="14.00">1.4.4</text>
</g>
<!-- roo_threads&#45;&gt;roo_time -->
<g id="edge31" class="edge">
<title>roo_threads&#45;&gt;roo_time</title>
<path fill="none" stroke="black" d="M276.8,-170.76C269.99,-158.81 260.22,-143.2 249.5,-131 246.13,-127.17 242.34,-123.39 238.44,-119.82"/>
<polygon fill="black" stroke="black" points="240.72,-117.16 230.89,-113.22 236.12,-122.44 240.72,-117.16"/>
</g>
<!-- roo_time&#45;&gt;roo_testing -->
<g id="edge32" class="edge">
<title>roo_time&#45;&gt;roo_testing</title>
<path fill="none" stroke="black" d="M206.5,-74.96C206.5,-66.88 206.5,-57.18 206.5,-48.18"/>
<polygon fill="black" stroke="black" points="210,-48.09 206.5,-38.09 203,-48.09 210,-48.09"/>
</g>
<!-- roo_time_ds3231 -->
<g id="node26" class="node">
<title>roo_time_ds3231</title>
<polygon fill="#b1dbab" stroke="red" points="228.5,-209 116.5,-209 116.5,-171 228.5,-171 228.5,-209"/>
<text text-anchor="middle" x="172.5" y="-193.8" font-family="Times,serif" font-size="14.00">roo_time_ds3231</text>
<text text-anchor="middle" x="172.5" y="-178.8" font-family="Times,serif" font-size="14.00">1.1.6</text>
</g>
<!-- roo_time_ds3231&#45;&gt;roo_time -->
<g id="edge33" class="edge">
<title>roo_time_ds3231&#45;&gt;roo_time</title>
<path fill="none" stroke="red" d="M179.06,-170.88C183.99,-157.22 190.85,-138.26 196.48,-122.71"/>
<polygon fill="red" stroke="red" points="199.85,-123.66 199.96,-113.07 193.27,-121.28 199.85,-123.66"/>
<text text-anchor="middle" x="220.5" y="-145" font-family="Times,serif" font-size="10.00" fill="red">1.4.3</text>
<text text-anchor="middle" x="220.5" y="-134" font-family="Times,serif" font-size="10.00" fill="red">(latest: 1.4.4)</text>
</g>
<!-- roo_transceivers&#45;&gt;roo_prefs -->
<g id="edge34" class="edge">
<title>roo_transceivers&#45;&gt;roo_prefs</title>
<path fill="none" stroke="red" d="M262.64,-650.79C265.37,-638.7 270.23,-622.93 278.5,-611 281.14,-607.2 284.29,-603.59 287.69,-600.24"/>
<polygon fill="red" stroke="red" points="290.29,-602.6 295.4,-593.32 285.62,-597.39 290.29,-602.6"/>
<text text-anchor="middle" x="307.5" y="-625" font-family="Times,serif" font-size="10.00" fill="red">1.2.10</text>
<text text-anchor="middle" x="307.5" y="-614" font-family="Times,serif" font-size="10.00" fill="red">(latest: 1.2.11)</text>
</g>
<!-- roo_transport -->
<g id="node28" class="node">
<title>roo_transport</title>
<polygon fill="#b1dbab" stroke="red" points="778,-497 689,-497 689,-459 778,-459 778,-497"/>
<text text-anchor="middle" x="733.5" y="-481.8" font-family="Times,serif" font-size="14.00">roo_transport</text>
<text text-anchor="middle" x="733.5" y="-466.8" font-family="Times,serif" font-size="14.00">1.1.2</text>
</g>
<!-- roo_transport&#45;&gt;roo_collections -->
<g id="edge35" class="edge">
<title>roo_transport&#45;&gt;roo_collections</title>
<path fill="none" stroke="black" d="M709.4,-458.88C689.86,-444.18 662.14,-423.34 640.7,-407.21"/>
<polygon fill="black" stroke="black" points="642.62,-404.28 632.53,-401.07 638.42,-409.88 642.62,-404.28"/>
</g>
<!-- roo_transport&#45;&gt;roo_io -->
<g id="edge36" class="edge">
<title>roo_transport&#45;&gt;roo_io</title>
<path fill="none" stroke="red" d="M688.81,-461.75C685.67,-460.79 682.54,-459.86 679.5,-459 645.68,-449.43 635.65,-452.66 602.5,-441 573.01,-430.63 541.19,-415.19 517.59,-402.85"/>
<polygon fill="red" stroke="red" points="519.12,-399.7 508.65,-398.12 515.85,-405.89 519.12,-399.7"/>
<text text-anchor="middle" x="629.5" y="-433" font-family="Times,serif" font-size="10.00" fill="red">2.1.5</text>
<text text-anchor="middle" x="629.5" y="-422" font-family="Times,serif" font-size="10.00" fill="red">(latest: 2.1.6)</text>
</g>
<!-- roo_wifi -->
<g id="node29" class="node">
<title>roo_wifi</title>
<polygon fill="khaki" stroke="red" points="394,-689 331,-689 331,-651 394,-651 394,-689"/>
<text text-anchor="middle" x="362.5" y="-673.8" font-family="Times,serif" font-size="14.00">roo_wifi</text>
<text text-anchor="middle" x="362.5" y="-658.8" font-family="Times,serif" font-size="14.00">1.1.4</text>
</g>
<!-- roo_wifi&#45;&gt;roo_prefs -->
<g id="edge37" class="edge">
<title>roo_wifi&#45;&gt;roo_prefs</title>
<path fill="none" stroke="red" d="M354.98,-650.88C349.32,-637.22 341.45,-618.26 335,-602.71"/>
<polygon fill="red" stroke="red" points="338.06,-600.96 331,-593.07 331.6,-603.65 338.06,-600.96"/>
<text text-anchor="middle" x="375.5" y="-625" font-family="Times,serif" font-size="10.00" fill="red">1.2.9</text>
<text text-anchor="middle" x="375.5" y="-614" font-family="Times,serif" font-size="10.00" fill="red">(latest: 1.2.11)</text>
</g>
<!-- roo_windows&#45;&gt;roo_fonts_basic -->
<g id="edge38" class="edge">
<title>roo_windows&#45;&gt;roo_fonts_basic</title>
<path fill="none" stroke="black" d="M593.44,-650.88C586.55,-637.09 576.95,-617.9 569.13,-602.26"/>
<polygon fill="black" stroke="black" points="572.14,-600.45 564.53,-593.07 565.88,-603.58 572.14,-600.45"/>
</g>
<!-- roo_windows&#45;&gt;roo_fonts_material -->
<g id="edge39" class="edge">
<title>roo_windows&#45;&gt;roo_fonts_material</title>
<path fill="none" stroke="black" d="M618.5,-650.88C631.02,-636.7 648.59,-616.81 662.59,-600.94"/>
<polygon fill="black" stroke="black" points="665.55,-602.88 669.55,-593.07 660.3,-598.25 665.55,-602.88"/>
</g>
<!-- roo_windows&#45;&gt;roo_icons -->
<g id="edge41" class="edge">
<title>roo_windows&#45;&gt;roo_icons</title>
<path fill="none" stroke="black" d="M640.29,-650.88C672.83,-635.27 719.82,-612.73 754.14,-596.27"/>
<polygon fill="black" stroke="black" points="755.96,-599.29 763.46,-591.81 752.93,-592.97 755.96,-599.29"/>
</g>
<!-- roo_windows&#45;&gt;roo_locale -->
<g id="edge40" class="edge">
<title>roo_windows&#45;&gt;roo_locale</title>
<path fill="none" stroke="black" d="M647.61,-662.15C715.47,-651.29 847.76,-628.01 967.57,-593.04"/>
<polygon fill="black" stroke="black" points="968.68,-596.36 977.28,-590.17 966.7,-589.65 968.68,-596.36"/>
</g>
<!-- roo_windows&#45;&gt;roo_scheduler -->
<g id="edge42" class="edge">
<title>roo_windows&#45;&gt;roo_scheduler</title>
<path fill="none" stroke="black" d="M557.33,-657.95C516.15,-646.38 455,-625.34 409.5,-593 375.82,-569.06 346.31,-531.12 328.7,-505.66"/>
<polygon fill="black" stroke="black" points="331.49,-503.54 322.98,-497.22 325.69,-507.46 331.49,-503.54"/>
</g>
<!-- roo_windows_transceivers -->
<g id="node31" class="node">
<title>roo_windows_transceivers</title>
<polygon fill="khaki" stroke="red" points="408,-785 247,-785 247,-747 408,-747 408,-785"/>
<text text-anchor="middle" x="327.5" y="-769.8" font-family="Times,serif" font-size="14.00">roo_windows_transceivers</text>
<text text-anchor="middle" x="327.5" y="-754.8" font-family="Times,serif" font-size="14.00">1.0.0</text>
</g>
<!-- roo_windows_transceivers&#45;&gt;roo_transceivers -->
<g id="edge43" class="edge">
<title>roo_windows_transceivers&#45;&gt;roo_transceivers</title>
<path fill="none" stroke="red" d="M303.31,-746.71C297.32,-741.43 291.27,-735.37 286.5,-729 279.59,-719.77 273.84,-708.49 269.45,-698.34"/>
<polygon fill="red" stroke="red" points="272.68,-696.99 265.66,-689.05 266.2,-699.63 272.68,-696.99"/>
<text text-anchor="middle" x="313.5" y="-721" font-family="Times,serif" font-size="10.00" fill="red">1.1.3</text>
<text text-anchor="middle" x="313.5" y="-710" font-family="Times,serif" font-size="10.00" fill="red">(latest: 1.1.6)</text>
</g>
<!-- roo_windows_transceivers&#45;&gt;roo_windows -->
<g id="edge44" class="edge">
<title>roo_windows_transceivers&#45;&gt;roo_windows</title>
<path fill="none" stroke="red" d="M400.07,-746.9C414.54,-742.02 429.33,-736.09 442.5,-729 456.13,-721.67 455.73,-714.07 469.5,-707 493.72,-694.57 522.7,-686.08 547.41,-680.48"/>
<polygon fill="red" stroke="red" points="548.33,-683.86 557.36,-678.33 546.84,-677.02 548.33,-683.86"/>
<text text-anchor="middle" x="496.5" y="-721" font-family="Times,serif" font-size="10.00" fill="red">1.4.1</text>
<text text-anchor="middle" x="496.5" y="-710" font-family="Times,serif" font-size="10.00" fill="red">(latest: 1.5.0)</text>
</g>
<!-- roo_windows_wifi -->
<g id="node32" class="node">
<title>roo_windows_wifi</title>
<polygon fill="khaki" stroke="red" points="550,-785 431,-785 431,-747 550,-747 550,-785"/>
<text text-anchor="middle" x="490.5" y="-769.8" font-family="Times,serif" font-size="14.00">roo_windows_wifi</text>
<text text-anchor="middle" x="490.5" y="-754.8" font-family="Times,serif" font-size="14.00">1.1.3</text>
</g>
<!-- roo_windows_wifi&#45;&gt;roo_wifi -->
<g id="edge45" class="edge">
<title>roo_windows_wifi&#45;&gt;roo_wifi</title>
<path fill="none" stroke="red" d="M430.73,-748.27C412.48,-742.25 395.41,-735.36 388.5,-729 379.83,-721.01 373.86,-709.59 369.86,-698.99"/>
<polygon fill="red" stroke="red" points="373.09,-697.59 366.6,-689.22 366.45,-699.81 373.09,-697.59"/>
<text text-anchor="middle" x="415.5" y="-721" font-family="Times,serif" font-size="10.00" fill="red">1.1.3</text>
<text text-anchor="middle" x="415.5" y="-710" font-family="Times,serif" font-size="10.00" fill="red">(latest: 1.1.4)</text>
</g>
<!-- roo_windows_wifi&#45;&gt;roo_windows -->
<g id="edge46" class="edge">
<title>roo_windows_wifi&#45;&gt;roo_windows</title>
<path fill="none" stroke="red" d="M508.28,-746.77C520.12,-734.96 536.25,-719.52 551.5,-707 556.39,-702.98 561.71,-698.93 567,-695.05"/>
<polygon fill="red" stroke="red" points="569.13,-697.83 575.22,-689.16 565.06,-692.14 569.13,-697.83"/>
<text text-anchor="middle" x="578.5" y="-721" font-family="Times,serif" font-size="10.00" fill="red">1.4.2</text>
<text text-anchor="middle" x="578.5" y="-710" font-family="Times,serif" font-size="10.00" fill="red">(latest: 1.5.0)</text>
</g>
</g>
</svg>
