<?xml version="1.0" encoding="UTF-8" standalone="no"?>
<!DOCTYPE svg PUBLIC "-//W3C//DTD SVG 1.1//EN"
 "http://www.w3.org/Graphics/SVG/1.1/DTD/svg11.dtd">
<!-- Generated by graphviz version 2.42.4 (0)
 -->
<!-- Title: dependencies Pages: 1 -->
<svg width="963pt" height="667pt"
 viewBox="0.00 0.00 962.50 667.00" xmlns="http://www.w3.org/2000/svg" xmlns:xlink="http://www.w3.org/1999/xlink">
<g id="graph0" class="graph" transform="scale(1 1) rotate(0) translate(4 663)">
<title>dependencies</title>
<polygon fill="white" stroke="transparent" points="-4,4 -4,-663 958.5,-663 958.5,4 -4,4"/>
<!-- roo_backport -->
<g id="node1" class="node">
<title>roo_backport</title>
<polygon fill="#b1dbab" stroke="black" points="645,-263 556,-263 556,-225 645,-225 645,-263"/>
<text text-anchor="middle" x="600.5" y="-247.8" font-family="Times,serif" font-size="14.00">roo_backport</text>
<text text-anchor="middle" x="600.5" y="-232.8" font-family="Times,serif" font-size="14.00">1.1.1</text>
</g>
<!-- roo_blink -->
<g id="node2" class="node">
<title>roo_blink</title>
<polygon fill="#b1dbab" stroke="black" points="662,-488 593,-488 593,-450 662,-450 662,-488"/>
<text text-anchor="middle" x="627.5" y="-472.8" font-family="Times,serif" font-size="14.00">roo_blink</text>
<text text-anchor="middle" x="627.5" y="-457.8" font-family="Times,serif" font-size="14.00">1.0.1</text>
</g>
<!-- roo_logging -->
<g id="node14" class="node">
<title>roo_logging</title>
<polygon fill="#b1dbab" stroke="black" points="538,-263 455,-263 455,-225 538,-225 538,-263"/>
<text text-anchor="middle" x="496.5" y="-247.8" font-family="Times,serif" font-size="14.00">roo_logging</text>
<text text-anchor="middle" x="496.5" y="-232.8" font-family="Times,serif" font-size="14.00">1.4.2</text>
</g>
<!-- roo_blink&#45;&gt;roo_logging -->
<g id="edge1" class="edge">
<title>roo_blink&#45;&gt;roo_logging</title>
<path fill="none" stroke="black" d="M592.96,-462.61C529.03,-452.29 397.53,-429.31 384.5,-413 345.67,-364.4 414.49,-302.45 460.37,-269.02"/>
<polygon fill="black" stroke="black" points="462.54,-271.77 468.64,-263.11 458.47,-266.07 462.54,-271.77"/>
</g>
<!-- roo_scheduler -->
<g id="node20" class="node">
<title>roo_scheduler</title>
<polygon fill="#b1dbab" stroke="black" points="850,-413 757,-413 757,-375 850,-375 850,-413"/>
<text text-anchor="middle" x="803.5" y="-397.8" font-family="Times,serif" font-size="14.00">roo_scheduler</text>
<text text-anchor="middle" x="803.5" y="-382.8" font-family="Times,serif" font-size="14.00">2.1.4</text>
</g>
<!-- roo_blink&#45;&gt;roo_scheduler -->
<g id="edge2" class="edge">
<title>roo_blink&#45;&gt;roo_scheduler</title>
<path fill="none" stroke="black" d="M662.27,-453.58C687.47,-443.12 722,-428.8 750.61,-416.94"/>
<polygon fill="black" stroke="black" points="752.17,-420.08 760.06,-413.02 749.49,-413.61 752.17,-420.08"/>
</g>
<!-- roo_collections -->
<g id="node3" class="node">
<title>roo_collections</title>
<polygon fill="#b1dbab" stroke="black" points="650.5,-338 550.5,-338 550.5,-300 650.5,-300 650.5,-338"/>
<text text-anchor="middle" x="600.5" y="-322.8" font-family="Times,serif" font-size="14.00">roo_collections</text>
<text text-anchor="middle" x="600.5" y="-307.8" font-family="Times,serif" font-size="14.00">1.3.2</text>
</g>
<!-- roo_collections&#45;&gt;roo_backport -->
<g id="edge3" class="edge">
<title>roo_collections&#45;&gt;roo_backport</title>
<path fill="none" stroke="black" d="M600.5,-299.96C600.5,-291.88 600.5,-282.18 600.5,-273.18"/>
<polygon fill="black" stroke="black" points="604,-273.09 600.5,-263.09 597,-273.09 604,-273.09"/>
</g>
<!-- roo_comms -->
<g id="node4" class="node">
<title>roo_comms</title>
<polygon fill="#b1dbab" stroke="black" points="641.5,-659 559.5,-659 559.5,-621 641.5,-621 641.5,-659"/>
<text text-anchor="middle" x="600.5" y="-643.8" font-family="Times,serif" font-size="14.00">roo_comms</text>
<text text-anchor="middle" x="600.5" y="-628.8" font-family="Times,serif" font-size="14.00">1.1.1</text>
</g>
<!-- roo_comms&#45;&gt;roo_blink -->
<g id="edge4" class="edge">
<title>roo_comms&#45;&gt;roo_blink</title>
<path fill="none" stroke="black" d="M603.39,-620.91C608.09,-591.51 617.41,-533.13 622.99,-498.23"/>
<polygon fill="black" stroke="black" points="626.47,-498.64 624.59,-488.21 619.56,-497.53 626.47,-498.64"/>
</g>
<!-- roo_control -->
<g id="node5" class="node">
<title>roo_control</title>
<polygon fill="#b1dbab" stroke="black" points="944.5,-488 864.5,-488 864.5,-450 944.5,-450 944.5,-488"/>
<text text-anchor="middle" x="904.5" y="-472.8" font-family="Times,serif" font-size="14.00">roo_control</text>
<text text-anchor="middle" x="904.5" y="-457.8" font-family="Times,serif" font-size="14.00">1.2.1</text>
</g>
<!-- roo_comms&#45;&gt;roo_control -->
<g id="edge5" class="edge">
<title>roo_comms&#45;&gt;roo_control</title>
<path fill="none" stroke="black" d="M633.03,-620.91C688.54,-590.06 801.47,-527.27 862.73,-493.22"/>
<polygon fill="black" stroke="black" points="864.7,-496.13 871.74,-488.21 861.3,-490.01 864.7,-496.13"/>
</g>
<!-- roo_io -->
<g id="node10" class="node">
<title>roo_io</title>
<polygon fill="#b1dbab" stroke="black" points="529.5,-338 475.5,-338 475.5,-300 529.5,-300 529.5,-338"/>
<text text-anchor="middle" x="502.5" y="-322.8" font-family="Times,serif" font-size="14.00">roo_io</text>
<text text-anchor="middle" x="502.5" y="-307.8" font-family="Times,serif" font-size="14.00">2.0.2</text>
</g>
<!-- roo_comms&#45;&gt;roo_io -->
<g id="edge6" class="edge">
<title>roo_comms&#45;&gt;roo_io</title>
<path fill="none" stroke="black" d="M593.02,-620.84C577.62,-582.84 541.98,-491.92 520.5,-413 514.62,-391.41 509.91,-366.5 506.78,-347.9"/>
<polygon fill="black" stroke="black" points="510.23,-347.32 505.17,-338.01 503.33,-348.44 510.23,-347.32"/>
</g>
<!-- roo_transceivers -->
<g id="node25" class="node">
<title>roo_transceivers</title>
<polygon fill="#b1dbab" stroke="black" points="428.5,-563 322.5,-563 322.5,-525 428.5,-525 428.5,-563"/>
<text text-anchor="middle" x="375.5" y="-547.8" font-family="Times,serif" font-size="14.00">roo_transceivers</text>
<text text-anchor="middle" x="375.5" y="-532.8" font-family="Times,serif" font-size="14.00">1.1.2</text>
</g>
<!-- roo_comms&#45;&gt;roo_transceivers -->
<g id="edge7" class="edge">
<title>roo_comms&#45;&gt;roo_transceivers</title>
<path fill="none" stroke="black" d="M559.49,-621.87C522.65,-606.47 468.33,-583.78 428.26,-567.04"/>
<polygon fill="black" stroke="black" points="429.49,-563.76 418.91,-563.14 426.79,-570.22 429.49,-563.76"/>
</g>
<!-- roo_quantity -->
<g id="node19" class="node">
<title>roo_quantity</title>
<polygon fill="#b1dbab" stroke="black" points="954.5,-413 868.5,-413 868.5,-375 954.5,-375 954.5,-413"/>
<text text-anchor="middle" x="911.5" y="-397.8" font-family="Times,serif" font-size="14.00">roo_quantity</text>
<text text-anchor="middle" x="911.5" y="-382.8" font-family="Times,serif" font-size="14.00">1.1.2</text>
</g>
<!-- roo_control&#45;&gt;roo_quantity -->
<g id="edge8" class="edge">
<title>roo_control&#45;&gt;roo_quantity</title>
<path fill="none" stroke="black" d="M906.23,-449.96C907,-441.88 907.94,-432.18 908.8,-423.18"/>
<polygon fill="black" stroke="black" points="912.29,-423.38 909.77,-413.09 905.33,-422.71 912.29,-423.38"/>
</g>
<!-- roo_control&#45;&gt;roo_scheduler -->
<g id="edge9" class="edge">
<title>roo_control&#45;&gt;roo_scheduler</title>
<path fill="none" stroke="black" d="M879.53,-449.96C866.67,-440.65 850.8,-429.18 836.89,-419.13"/>
<polygon fill="black" stroke="black" points="838.68,-416.11 828.53,-413.09 834.58,-421.78 838.68,-416.11"/>
</g>
<!-- roo_dashboard -->
<g id="node6" class="node">
<title>roo_dashboard</title>
<polygon fill="#b1dbab" stroke="black" points="540,-659 443,-659 443,-621 540,-621 540,-659"/>
<text text-anchor="middle" x="491.5" y="-643.8" font-family="Times,serif" font-size="14.00">roo_dashboard</text>
<text text-anchor="middle" x="491.5" y="-628.8" font-family="Times,serif" font-size="14.00">1.0.1</text>
</g>
<!-- roo_windows -->
<g id="node28" class="node">
<title>roo_windows</title>
<polygon fill="#b1dbab" stroke="black" points="536.5,-563 446.5,-563 446.5,-525 536.5,-525 536.5,-563"/>
<text text-anchor="middle" x="491.5" y="-547.8" font-family="Times,serif" font-size="14.00">roo_windows</text>
<text text-anchor="middle" x="491.5" y="-532.8" font-family="Times,serif" font-size="14.00">1.4.1</text>
</g>
<!-- roo_dashboard&#45;&gt;roo_windows -->
<g id="edge10" class="edge">
<title>roo_dashboard&#45;&gt;roo_windows</title>
<path fill="none" stroke="black" d="M491.5,-620.88C491.5,-607.35 491.5,-588.62 491.5,-573.15"/>
<polygon fill="black" stroke="black" points="495,-573.07 491.5,-563.07 488,-573.07 495,-573.07"/>
</g>
<!-- roo_display -->
<g id="node7" class="node">
<title>roo_display</title>
<polygon fill="#b1dbab" stroke="black" points="473.5,-413 393.5,-413 393.5,-375 473.5,-375 473.5,-413"/>
<text text-anchor="middle" x="433.5" y="-397.8" font-family="Times,serif" font-size="14.00">roo_display</text>
<text text-anchor="middle" x="433.5" y="-382.8" font-family="Times,serif" font-size="14.00">2.3.1</text>
</g>
<!-- roo_display&#45;&gt;roo_collections -->
<g id="edge11" class="edge">
<title>roo_display&#45;&gt;roo_collections</title>
<path fill="none" stroke="black" d="M473.5,-375.51C496.33,-365.54 525.18,-352.92 549.61,-342.25"/>
<polygon fill="black" stroke="black" points="551.32,-345.32 559.08,-338.11 548.52,-338.9 551.32,-345.32"/>
</g>
<!-- roo_display&#45;&gt;roo_io -->
<g id="edge12" class="edge">
<title>roo_display&#45;&gt;roo_io</title>
<path fill="none" stroke="black" d="M444.22,-374.91C448.32,-368.63 453.27,-361.73 458.5,-356 461.99,-352.18 465.89,-348.41 469.89,-344.84"/>
<polygon fill="black" stroke="black" points="472.29,-347.4 477.63,-338.25 467.75,-342.07 472.29,-347.4"/>
</g>
<!-- roo_flags -->
<g id="node8" class="node">
<title>roo_flags</title>
<polygon fill="#b1dbab" stroke="black" points="530.5,-188 462.5,-188 462.5,-150 530.5,-150 530.5,-188"/>
<text text-anchor="middle" x="496.5" y="-172.8" font-family="Times,serif" font-size="14.00">roo_flags</text>
<text text-anchor="middle" x="496.5" y="-157.8" font-family="Times,serif" font-size="14.00">1.1.1</text>
</g>
<!-- roo_icons -->
<g id="node9" class="node">
<title>roo_icons</title>
<polygon fill="#b1dbab" stroke="black" points="498.5,-488 428.5,-488 428.5,-450 498.5,-450 498.5,-488"/>
<text text-anchor="middle" x="463.5" y="-472.8" font-family="Times,serif" font-size="14.00">roo_icons</text>
<text text-anchor="middle" x="463.5" y="-457.8" font-family="Times,serif" font-size="14.00">1.2.1</text>
</g>
<!-- roo_icons&#45;&gt;roo_display -->
<g id="edge13" class="edge">
<title>roo_icons&#45;&gt;roo_display</title>
<path fill="none" stroke="black" d="M456.08,-449.96C452.69,-441.71 448.6,-431.75 444.84,-422.6"/>
<polygon fill="black" stroke="black" points="447.97,-421.01 440.93,-413.09 441.5,-423.67 447.97,-421.01"/>
</g>
<!-- roo_io&#45;&gt;roo_backport -->
<g id="edge14" class="edge">
<title>roo_io&#45;&gt;roo_backport</title>
<path fill="none" stroke="black" d="M526.72,-299.96C539.21,-290.65 554.61,-279.18 568.1,-269.13"/>
<polygon fill="black" stroke="black" points="570.29,-271.87 576.21,-263.09 566.1,-266.26 570.29,-271.87"/>
</g>
<!-- roo_io&#45;&gt;roo_logging -->
<g id="edge15" class="edge">
<title>roo_io&#45;&gt;roo_logging</title>
<path fill="none" stroke="black" d="M501.02,-299.96C500.35,-291.88 499.56,-282.18 498.82,-273.18"/>
<polygon fill="black" stroke="black" points="502.29,-272.77 497.99,-263.09 495.32,-273.34 502.29,-272.77"/>
</g>
<!-- roo_io_espressif -->
<g id="node11" class="node">
<title>roo_io_espressif</title>
<polygon fill="plum" stroke="black" points="765.5,-659 659.5,-659 659.5,-621 765.5,-621 765.5,-659"/>
<text text-anchor="middle" x="712.5" y="-643.8" font-family="Times,serif" font-size="14.00">roo_io_espressif</text>
<text text-anchor="middle" x="712.5" y="-628.8" font-family="Times,serif" font-size="14.00">1.0.0</text>
</g>
<!-- roo_io_sdfat -->
<g id="node12" class="node">
<title>roo_io_sdfat</title>
<polygon fill="plum" stroke="black" points="869,-659 784,-659 784,-621 869,-621 869,-659"/>
<text text-anchor="middle" x="826.5" y="-643.8" font-family="Times,serif" font-size="14.00">roo_io_sdfat</text>
<text text-anchor="middle" x="826.5" y="-628.8" font-family="Times,serif" font-size="14.00">1.0.0</text>
</g>
<!-- roo_locale -->
<g id="node13" class="node">
<title>roo_locale</title>
<polygon fill="#b1dbab" stroke="black" points="410.5,-488 336.5,-488 336.5,-450 410.5,-450 410.5,-488"/>
<text text-anchor="middle" x="373.5" y="-472.8" font-family="Times,serif" font-size="14.00">roo_locale</text>
<text text-anchor="middle" x="373.5" y="-457.8" font-family="Times,serif" font-size="14.00">1.1.1</text>
</g>
<!-- roo_logging&#45;&gt;roo_flags -->
<g id="edge16" class="edge">
<title>roo_logging&#45;&gt;roo_flags</title>
<path fill="none" stroke="black" d="M496.5,-224.96C496.5,-216.88 496.5,-207.18 496.5,-198.18"/>
<polygon fill="black" stroke="black" points="500,-198.09 496.5,-188.09 493,-198.09 500,-198.09"/>
</g>
<!-- roo_threads -->
<g id="node22" class="node">
<title>roo_threads</title>
<polygon fill="#b1dbab" stroke="black" points="674.5,-188 594.5,-188 594.5,-150 674.5,-150 674.5,-188"/>
<text text-anchor="middle" x="634.5" y="-172.8" font-family="Times,serif" font-size="14.00">roo_threads</text>
<text text-anchor="middle" x="634.5" y="-157.8" font-family="Times,serif" font-size="14.00">1.1.5</text>
</g>
<!-- roo_logging&#45;&gt;roo_threads -->
<g id="edge17" class="edge">
<title>roo_logging&#45;&gt;roo_threads</title>
<path fill="none" stroke="black" d="M530.61,-224.96C548.94,-215.26 571.73,-203.21 591.28,-192.86"/>
<polygon fill="black" stroke="black" points="593.1,-195.86 600.3,-188.09 589.83,-189.67 593.1,-195.86"/>
</g>
<!-- roo_monitoring -->
<g id="node15" class="node">
<title>roo_monitoring</title>
<polygon fill="plum" stroke="black" points="631.5,-413 529.5,-413 529.5,-375 631.5,-375 631.5,-413"/>
<text text-anchor="middle" x="580.5" y="-397.8" font-family="Times,serif" font-size="14.00">roo_monitoring</text>
<text text-anchor="middle" x="580.5" y="-382.8" font-family="Times,serif" font-size="14.00">1.0.0</text>
</g>
<!-- roo_monitoring&#45;&gt;roo_collections -->
<g id="edge18" class="edge">
<title>roo_monitoring&#45;&gt;roo_collections</title>
<path fill="none" stroke="black" d="M585.44,-374.96C587.68,-366.8 590.37,-356.97 592.86,-347.89"/>
<polygon fill="black" stroke="black" points="596.28,-348.66 595.54,-338.09 589.53,-346.81 596.28,-348.66"/>
</g>
<!-- roo_monitoring&#45;&gt;roo_io -->
<g id="edge19" class="edge">
<title>roo_monitoring&#45;&gt;roo_io</title>
<path fill="none" stroke="black" d="M561.22,-374.96C551.56,-365.92 539.72,-354.83 529.2,-344.99"/>
<polygon fill="black" stroke="black" points="531.52,-342.37 521.83,-338.09 526.74,-347.48 531.52,-342.37"/>
</g>
<!-- roo_onewire -->
<g id="node16" class="node">
<title>roo_onewire</title>
<polygon fill="#b1dbab" stroke="black" points="846,-488 761,-488 761,-450 846,-450 846,-488"/>
<text text-anchor="middle" x="803.5" y="-472.8" font-family="Times,serif" font-size="14.00">roo_onewire</text>
<text text-anchor="middle" x="803.5" y="-457.8" font-family="Times,serif" font-size="14.00">2.0.4</text>
</g>
<!-- roo_onewire&#45;&gt;roo_quantity -->
<g id="edge21" class="edge">
<title>roo_onewire&#45;&gt;roo_quantity</title>
<path fill="none" stroke="black" d="M830.2,-449.96C844.09,-440.57 861.25,-428.97 876.22,-418.85"/>
<polygon fill="black" stroke="black" points="878.41,-421.59 884.74,-413.09 874.49,-415.79 878.41,-421.59"/>
</g>
<!-- roo_onewire&#45;&gt;roo_scheduler -->
<g id="edge20" class="edge">
<title>roo_onewire&#45;&gt;roo_scheduler</title>
<path fill="none" stroke="black" d="M803.5,-449.96C803.5,-441.88 803.5,-432.18 803.5,-423.18"/>
<polygon fill="black" stroke="black" points="807,-423.09 803.5,-413.09 800,-423.09 807,-423.09"/>
</g>
<!-- roo_powersafefs -->
<g id="node17" class="node">
<title>roo_powersafefs</title>
<polygon fill="plum" stroke="black" points="816,-263 709,-263 709,-225 816,-225 816,-263"/>
<text text-anchor="middle" x="762.5" y="-247.8" font-family="Times,serif" font-size="14.00">roo_powersafefs</text>
<text text-anchor="middle" x="762.5" y="-232.8" font-family="Times,serif" font-size="14.00">1.0.0</text>
</g>
<!-- roo_powersafefs&#45;&gt;roo_threads -->
<g id="edge22" class="edge">
<title>roo_powersafefs&#45;&gt;roo_threads</title>
<path fill="none" stroke="black" d="M730.86,-224.96C714.09,-215.39 693.3,-203.53 675.33,-193.28"/>
<polygon fill="black" stroke="black" points="676.64,-190 666.22,-188.09 673.17,-196.08 676.64,-190"/>
</g>
<!-- roo_prefs -->
<g id="node18" class="node">
<title>roo_prefs</title>
<polygon fill="#b1dbab" stroke="black" points="318.5,-488 250.5,-488 250.5,-450 318.5,-450 318.5,-488"/>
<text text-anchor="middle" x="284.5" y="-472.8" font-family="Times,serif" font-size="14.00">roo_prefs</text>
<text text-anchor="middle" x="284.5" y="-457.8" font-family="Times,serif" font-size="14.00">1.2.2</text>
</g>
<!-- roo_prefs&#45;&gt;roo_logging -->
<g id="edge23" class="edge">
<title>roo_prefs&#45;&gt;roo_logging</title>
<path fill="none" stroke="black" d="M291.38,-449.79C304.84,-416.27 337.58,-344.17 385.5,-300 402.63,-284.21 425.14,-271.93 445.41,-263.02"/>
<polygon fill="black" stroke="black" points="446.99,-266.16 454.85,-259.04 444.27,-259.71 446.99,-266.16"/>
</g>
<!-- roo_prefs&#45;&gt;roo_scheduler -->
<g id="edge24" class="edge">
<title>roo_prefs&#45;&gt;roo_scheduler</title>
<path fill="none" stroke="black" d="M318.93,-452.56C321.8,-451.59 324.68,-450.72 327.5,-450 506.32,-404.46 562.31,-448.03 746.86,-413.05"/>
<polygon fill="black" stroke="black" points="747.75,-416.44 756.9,-411.1 746.41,-409.57 747.75,-416.44"/>
</g>
<!-- roo_quantity&#45;&gt;roo_logging -->
<g id="edge25" class="edge">
<title>roo_quantity&#45;&gt;roo_logging</title>
<path fill="none" stroke="black" d="M868.41,-376.58C818.36,-357.64 733.24,-325.78 659.5,-300 612.82,-283.68 598.69,-280.31 547.8,-263.06"/>
<polygon fill="black" stroke="black" points="548.82,-259.71 538.22,-259.8 546.56,-266.34 548.82,-259.71"/>
</g>
<!-- roo_scheduler&#45;&gt;roo_collections -->
<g id="edge26" class="edge">
<title>roo_scheduler&#45;&gt;roo_collections</title>
<path fill="none" stroke="black" d="M756.78,-377.39C753.99,-376.55 751.21,-375.75 748.5,-375 713.8,-365.39 703.23,-369.62 669.5,-357 659.27,-353.17 648.67,-348.1 638.94,-342.95"/>
<polygon fill="black" stroke="black" points="640.36,-339.74 629.91,-338.02 637.01,-345.89 640.36,-339.74"/>
</g>
<!-- roo_scheduler&#45;&gt;roo_threads -->
<g id="edge27" class="edge">
<title>roo_scheduler&#45;&gt;roo_threads</title>
<path fill="none" stroke="black" d="M788.52,-374.73C768.19,-349.78 730.91,-303.54 700.5,-263 683.88,-240.85 665.73,-215.15 652.67,-196.38"/>
<polygon fill="black" stroke="black" points="655.45,-194.25 646.88,-188.03 649.7,-198.24 655.45,-194.25"/>
</g>
<!-- roo_testing -->
<g id="node21" class="node">
<title>roo_testing</title>
<polygon fill="#b1dbab" stroke="black" points="251,-38 174,-38 174,0 251,0 251,-38"/>
<text text-anchor="middle" x="212.5" y="-22.8" font-family="Times,serif" font-size="14.00">roo_testing</text>
<text text-anchor="middle" x="212.5" y="-7.8" font-family="Times,serif" font-size="14.00">1.1.7</text>
</g>
<!-- roo_time -->
<g id="node23" class="node">
<title>roo_time</title>
<polygon fill="#b1dbab" stroke="black" points="667.5,-113 601.5,-113 601.5,-75 667.5,-75 667.5,-113"/>
<text text-anchor="middle" x="634.5" y="-97.8" font-family="Times,serif" font-size="14.00">roo_time</text>
<text text-anchor="middle" x="634.5" y="-82.8" font-family="Times,serif" font-size="14.00">1.3.2</text>
</g>
<!-- roo_threads&#45;&gt;roo_time -->
<g id="edge28" class="edge">
<title>roo_threads&#45;&gt;roo_time</title>
<path fill="none" stroke="black" d="M634.5,-149.96C634.5,-141.88 634.5,-132.18 634.5,-123.18"/>
<polygon fill="black" stroke="black" points="638,-123.09 634.5,-113.09 631,-123.09 638,-123.09"/>
</g>
<!-- roo_time&#45;&gt;roo_testing -->
<g id="edge29" class="edge">
<title>roo_time&#45;&gt;roo_testing</title>
<path fill="none" stroke="black" d="M601.39,-87.27C527.28,-74.45 347.78,-43.4 261.04,-28.4"/>
<polygon fill="black" stroke="black" points="261.63,-24.95 251.18,-26.69 260.44,-31.84 261.63,-24.95"/>
</g>
<!-- roo_time_ds3231 -->
<g id="node24" class="node">
<title>roo_time_ds3231</title>
<polygon fill="#b1dbab" stroke="black" points="804.5,-188 692.5,-188 692.5,-150 804.5,-150 804.5,-188"/>
<text text-anchor="middle" x="748.5" y="-172.8" font-family="Times,serif" font-size="14.00">roo_time_ds3231</text>
<text text-anchor="middle" x="748.5" y="-157.8" font-family="Times,serif" font-size="14.00">1.1.2</text>
</g>
<!-- roo_time_ds3231&#45;&gt;roo_time -->
<g id="edge30" class="edge">
<title>roo_time_ds3231&#45;&gt;roo_time</title>
<path fill="none" stroke="black" d="M720.32,-149.96C705.52,-140.48 687.21,-128.75 671.3,-118.57"/>
<polygon fill="black" stroke="black" points="673.06,-115.54 662.75,-113.09 669.28,-121.43 673.06,-115.54"/>
</g>
<!-- roo_transceivers&#45;&gt;roo_prefs -->
<g id="edge31" class="edge">
<title>roo_transceivers&#45;&gt;roo_prefs</title>
<path fill="none" stroke="black" d="M353.01,-524.96C341.52,-515.74 327.38,-504.4 314.94,-494.42"/>
<polygon fill="black" stroke="black" points="317.04,-491.62 307.05,-488.09 312.66,-497.08 317.04,-491.62"/>
</g>
<!-- roo_transport -->
<g id="node26" class="node">
<title>roo_transport</title>
<polygon fill="#b1dbab" stroke="black" points="739,-413 650,-413 650,-375 739,-375 739,-413"/>
<text text-anchor="middle" x="694.5" y="-397.8" font-family="Times,serif" font-size="14.00">roo_transport</text>
<text text-anchor="middle" x="694.5" y="-382.8" font-family="Times,serif" font-size="14.00">1.0.1</text>
</g>
<!-- roo_transport&#45;&gt;roo_collections -->
<g id="edge32" class="edge">
<title>roo_transport&#45;&gt;roo_collections</title>
<path fill="none" stroke="black" d="M668.53,-374.87C660.72,-369.26 652.18,-362.98 644.5,-357 639.44,-353.06 634.14,-348.76 629.05,-344.53"/>
<polygon fill="black" stroke="black" points="631.19,-341.76 621.27,-338.02 626.69,-347.12 631.19,-341.76"/>
</g>
<!-- roo_transport&#45;&gt;roo_io -->
<g id="edge33" class="edge">
<title>roo_transport&#45;&gt;roo_io</title>
<path fill="none" stroke="black" d="M649.92,-378.13C619.19,-367.59 577.55,-352.76 541.5,-338 540.65,-337.65 539.8,-337.3 538.94,-336.94"/>
<polygon fill="black" stroke="black" points="540.21,-333.67 529.64,-332.89 537.42,-340.09 540.21,-333.67"/>
</g>
<!-- roo_wifi -->
<g id="node27" class="node">
<title>roo_wifi</title>
<polygon fill="#b1dbab" stroke="black" points="304,-563 241,-563 241,-525 304,-525 304,-563"/>
<text text-anchor="middle" x="272.5" y="-547.8" font-family="Times,serif" font-size="14.00">roo_wifi</text>
<text text-anchor="middle" x="272.5" y="-532.8" font-family="Times,serif" font-size="14.00">1.1.1</text>
</g>
<!-- roo_wifi&#45;&gt;roo_prefs -->
<g id="edge34" class="edge">
<title>roo_wifi&#45;&gt;roo_prefs</title>
<path fill="none" stroke="black" d="M275.47,-524.96C276.79,-516.88 278.39,-507.18 279.87,-498.18"/>
<polygon fill="black" stroke="black" points="283.36,-498.53 281.53,-488.09 276.45,-497.39 283.36,-498.53"/>
</g>
<!-- roo_windows&#45;&gt;roo_icons -->
<g id="edge36" class="edge">
<title>roo_windows&#45;&gt;roo_icons</title>
<path fill="none" stroke="black" d="M484.58,-524.96C481.42,-516.71 477.6,-506.75 474.08,-497.6"/>
<polygon fill="black" stroke="black" points="477.29,-496.17 470.44,-488.09 470.75,-498.68 477.29,-496.17"/>
</g>
<!-- roo_windows&#45;&gt;roo_locale -->
<g id="edge35" class="edge">
<title>roo_windows&#45;&gt;roo_locale</title>
<path fill="none" stroke="black" d="M462.33,-524.96C447.01,-515.48 428.06,-503.75 411.59,-493.57"/>
<polygon fill="black" stroke="black" points="413.09,-490.37 402.74,-488.09 409.4,-496.33 413.09,-490.37"/>
</g>
<!-- roo_windows&#45;&gt;roo_scheduler -->
<g id="edge37" class="edge">
<title>roo_windows&#45;&gt;roo_scheduler</title>
<path fill="none" stroke="black" d="M504.42,-524.91C520.65,-503.6 550.5,-468.73 584.5,-450 647.13,-415.49 674.12,-431.34 746.72,-413.27"/>
<polygon fill="black" stroke="black" points="748,-416.55 756.78,-410.62 746.22,-409.78 748,-416.55"/>
</g>
<!-- roo_windows_transceivers -->
<g id="node29" class="node">
<title>roo_windows_transceivers</title>
<polygon fill="plum" stroke="black" points="161,-659 0,-659 0,-621 161,-621 161,-659"/>
<text text-anchor="middle" x="80.5" y="-643.8" font-family="Times,serif" font-size="14.00">roo_windows_transceivers</text>
<text text-anchor="middle" x="80.5" y="-628.8" font-family="Times,serif" font-size="14.00">1.0.0</text>
</g>
<!-- roo_windows_transceivers&#45;&gt;roo_testing -->
<g id="edge38" class="edge">
<title>roo_windows_transceivers&#45;&gt;roo_testing</title>
<path fill="none" stroke="red" d="M70.06,-620.93C60.39,-602.47 47.5,-572.67 47.5,-545 47.5,-545 47.5,-545 47.5,-93 47.5,-41.68 115.09,-26.15 163.75,-21.62"/>
<polygon fill="red" stroke="red" points="164.13,-25.1 173.81,-20.81 163.57,-18.12 164.13,-25.1"/>
<text text-anchor="middle" x="74.5" y="-322" font-family="Times,serif" font-size="10.00" fill="red">1.1.4</text>
<text text-anchor="middle" x="74.5" y="-311" font-family="Times,serif" font-size="10.00" fill="red">(latest: 1.1.7)</text>
</g>
<!-- roo_windows_transceivers&#45;&gt;roo_transceivers -->
<g id="edge39" class="edge">
<title>roo_windows_transceivers&#45;&gt;roo_transceivers</title>
<path fill="none" stroke="red" d="M75.09,-620.93C72.46,-608.12 71.7,-591.41 81.5,-581 99.14,-562.25 287.16,-567.56 312.5,-563 312.6,-562.98 312.7,-562.96 312.8,-562.94"/>
<polygon fill="red" stroke="red" points="313.31,-566.42 322.4,-560.98 311.9,-559.56 313.31,-566.42"/>
<text text-anchor="middle" x="108.5" y="-595" font-family="Times,serif" font-size="10.00" fill="red">1.1.1</text>
<text text-anchor="middle" x="108.5" y="-584" font-family="Times,serif" font-size="10.00" fill="red">(latest: 1.1.2)</text>
</g>
<!-- roo_windows_transceivers&#45;&gt;roo_windows -->
<g id="edge40" class="edge">
<title>roo_windows_transceivers&#45;&gt;roo_windows</title>
<path fill="none" stroke="red" d="M113.84,-620.9C140.32,-607.44 178.71,-589.93 214.5,-581 307.87,-557.7 338.13,-581.25 436.3,-562.91"/>
<polygon fill="red" stroke="red" points="437.21,-566.3 446.34,-560.93 435.86,-559.43 437.21,-566.3"/>
<text text-anchor="middle" x="241.5" y="-595" font-family="Times,serif" font-size="10.00" fill="red">1.4.0</text>
<text text-anchor="middle" x="241.5" y="-584" font-family="Times,serif" font-size="10.00" fill="red">(latest: 1.4.1)</text>
</g>
<!-- roo_windows_wifi -->
<g id="node30" class="node">
<title>roo_windows_wifi</title>
<polygon fill="khaki" stroke="black" points="332,-659 213,-659 213,-621 332,-621 332,-659"/>
<text text-anchor="middle" x="272.5" y="-643.8" font-family="Times,serif" font-size="14.00">roo_windows_wifi</text>
<text text-anchor="middle" x="272.5" y="-628.8" font-family="Times,serif" font-size="14.00">1.1.1</text>
</g>
<!-- roo_windows_wifi&#45;&gt;roo_testing -->
<g id="edge41" class="edge">
<title>roo_windows_wifi&#45;&gt;roo_testing</title>
<path fill="none" stroke="red" d="M258.28,-620.95C240.54,-596.56 212.5,-551.05 212.5,-507 212.5,-507 212.5,-507 212.5,-93 212.5,-78.3 212.5,-61.93 212.5,-48.43"/>
<polygon fill="red" stroke="red" points="216,-48.3 212.5,-38.3 209,-48.3 216,-48.3"/>
<text text-anchor="middle" x="239.5" y="-322" font-family="Times,serif" font-size="10.00" fill="red">1.1.4</text>
<text text-anchor="middle" x="239.5" y="-311" font-family="Times,serif" font-size="10.00" fill="red">(latest: 1.1.7)</text>
</g>
<!-- roo_windows_wifi&#45;&gt;roo_wifi -->
<g id="edge42" class="edge">
<title>roo_windows_wifi&#45;&gt;roo_wifi</title>
<path fill="none" stroke="red" d="M272.5,-620.88C272.5,-607.35 272.5,-588.62 272.5,-573.15"/>
<polygon fill="red" stroke="red" points="276,-573.07 272.5,-563.07 269,-573.07 276,-573.07"/>
<text text-anchor="middle" x="299.5" y="-595" font-family="Times,serif" font-size="10.00" fill="red">1.1.0</text>
<text text-anchor="middle" x="299.5" y="-584" font-family="Times,serif" font-size="10.00" fill="red">(latest: 1.1.1)</text>
</g>
<!-- roo_windows_wifi&#45;&gt;roo_windows -->
<g id="edge43" class="edge">
<title>roo_windows_wifi&#45;&gt;roo_windows</title>
<path fill="none" stroke="red" d="M314.47,-620.99C350.19,-605.65 401.65,-583.57 439.88,-567.15"/>
<polygon fill="red" stroke="red" points="441.49,-570.27 449.3,-563.11 438.73,-563.84 441.49,-570.27"/>
<text text-anchor="middle" x="429.5" y="-595" font-family="Times,serif" font-size="10.00" fill="red">1.4.0</text>
<text text-anchor="middle" x="429.5" y="-584" font-family="Times,serif" font-size="10.00" fill="red">(latest: 1.4.1)</text>
</g>
</g>
</svg>
