<?xml version="1.0" encoding="UTF-8" standalone="no"?>
<!DOCTYPE svg PUBLIC "-//W3C//DTD SVG 1.1//EN"
 "http://www.w3.org/Graphics/SVG/1.1/DTD/svg11.dtd">
<!-- Generated by graphviz version 2.42.4 (0)
 -->
<!-- Title: dependencies Pages: 1 -->
<svg width="1485pt" height="751pt"
 viewBox="0.00 0.00 1484.50 751.00" xmlns="http://www.w3.org/2000/svg" xmlns:xlink="http://www.w3.org/1999/xlink">
<g id="graph0" class="graph" transform="scale(1 1) rotate(0) translate(4 747)">
<title>dependencies</title>
<polygon fill="white" stroke="transparent" points="-4,4 -4,-747 1480.5,-747 1480.5,4 -4,4"/>
<!-- roo_backport -->
<g id="node1" class="node">
<title>roo_backport</title>
<polygon fill="#b1dbab" stroke="black" points="808.5,-284 719.5,-284 719.5,-246 808.5,-246 808.5,-284"/>
<text text-anchor="middle" x="764" y="-268.8" font-family="Times,serif" font-size="14.00">roo_backport</text>
<text text-anchor="middle" x="764" y="-253.8" font-family="Times,serif" font-size="14.00">1.1.1</text>
</g>
<!-- roo_blink -->
<g id="node2" class="node">
<title>roo_blink</title>
<polygon fill="#b1dbab" stroke="black" points="185.5,-572 116.5,-572 116.5,-534 185.5,-534 185.5,-572"/>
<text text-anchor="middle" x="151" y="-556.8" font-family="Times,serif" font-size="14.00">roo_blink</text>
<text text-anchor="middle" x="151" y="-541.8" font-family="Times,serif" font-size="14.00">1.0.1</text>
</g>
<!-- roo_logging -->
<g id="node15" class="node">
<title>roo_logging</title>
<polygon fill="#b1dbab" stroke="black" points="483.5,-284 400.5,-284 400.5,-246 483.5,-246 483.5,-284"/>
<text text-anchor="middle" x="442" y="-268.8" font-family="Times,serif" font-size="14.00">roo_logging</text>
<text text-anchor="middle" x="442" y="-253.8" font-family="Times,serif" font-size="14.00">1.4.2</text>
</g>
<!-- roo_blink&#45;&gt;roo_logging -->
<g id="edge1" class="edge">
<title>roo_blink&#45;&gt;roo_logging</title>
<path fill="none" stroke="black" d="M147.46,-533.8C143.74,-510.94 139.61,-470.73 149,-438 168.72,-369.26 174.21,-339.66 235,-302 291.67,-266.89 320.36,-296.76 390.32,-283.66"/>
<polygon fill="black" stroke="black" points="391.42,-287 400.48,-281.51 389.97,-280.15 391.42,-287"/>
</g>
<!-- roo_scheduler -->
<g id="node21" class="node">
<title>roo_scheduler</title>
<polygon fill="#b1dbab" stroke="black" points="393.5,-476 300.5,-476 300.5,-438 393.5,-438 393.5,-476"/>
<text text-anchor="middle" x="347" y="-460.8" font-family="Times,serif" font-size="14.00">roo_scheduler</text>
<text text-anchor="middle" x="347" y="-445.8" font-family="Times,serif" font-size="14.00">2.1.4</text>
</g>
<!-- roo_blink&#45;&gt;roo_scheduler -->
<g id="edge2" class="edge">
<title>roo_blink&#45;&gt;roo_scheduler</title>
<path fill="none" stroke="black" d="M185.59,-535.41C217.47,-520.12 265.04,-497.31 300.28,-480.41"/>
<polygon fill="black" stroke="black" points="301.91,-483.51 309.42,-476.03 298.89,-477.19 301.91,-483.51"/>
</g>
<!-- roo_collections -->
<g id="node3" class="node">
<title>roo_collections</title>
<polygon fill="#b1dbab" stroke="black" points="880,-380 780,-380 780,-342 880,-342 880,-380"/>
<text text-anchor="middle" x="830" y="-364.8" font-family="Times,serif" font-size="14.00">roo_collections</text>
<text text-anchor="middle" x="830" y="-349.8" font-family="Times,serif" font-size="14.00">1.3.2</text>
</g>
<!-- roo_collections&#45;&gt;roo_backport -->
<g id="edge3" class="edge">
<title>roo_collections&#45;&gt;roo_backport</title>
<path fill="none" stroke="black" d="M817.27,-341.88C807.41,-327.83 793.61,-308.17 782.52,-292.38"/>
<polygon fill="black" stroke="black" points="785.3,-290.24 776.69,-284.07 779.57,-294.26 785.3,-290.24"/>
</g>
<!-- roo_comms -->
<g id="node4" class="node">
<title>roo_comms</title>
<polygon fill="#b1dbab" stroke="black" points="125,-743 43,-743 43,-705 125,-705 125,-743"/>
<text text-anchor="middle" x="84" y="-727.8" font-family="Times,serif" font-size="14.00">roo_comms</text>
<text text-anchor="middle" x="84" y="-712.8" font-family="Times,serif" font-size="14.00">1.1.1</text>
</g>
<!-- roo_comms&#45;&gt;roo_blink -->
<g id="edge4" class="edge">
<title>roo_comms&#45;&gt;roo_blink</title>
<path fill="none" stroke="black" d="M42.86,-706.15C35.31,-701.13 28.43,-694.82 24,-687 2.76,-649.48 -2,-624.39 24,-590 34.07,-576.68 73.83,-566.86 106.21,-560.87"/>
<polygon fill="black" stroke="black" points="107.19,-564.25 116.42,-559.06 105.96,-557.36 107.19,-564.25"/>
</g>
<!-- roo_control -->
<g id="node5" class="node">
<title>roo_control</title>
<polygon fill="#b1dbab" stroke="black" points="284,-572 204,-572 204,-534 284,-534 284,-572"/>
<text text-anchor="middle" x="244" y="-556.8" font-family="Times,serif" font-size="14.00">roo_control</text>
<text text-anchor="middle" x="244" y="-541.8" font-family="Times,serif" font-size="14.00">1.2.1</text>
</g>
<!-- roo_comms&#45;&gt;roo_control -->
<g id="edge5" class="edge">
<title>roo_comms&#45;&gt;roo_control</title>
<path fill="none" stroke="black" d="M80.29,-704.68C76.45,-680.21 73.64,-636.72 95,-609 95.82,-607.93 151.43,-587.58 194.47,-571.94"/>
<polygon fill="black" stroke="black" points="195.78,-575.18 203.99,-568.48 193.39,-568.6 195.78,-575.18"/>
</g>
<!-- roo_io -->
<g id="node10" class="node">
<title>roo_io</title>
<polygon fill="#b1dbab" stroke="black" points="725,-380 671,-380 671,-342 725,-342 725,-380"/>
<text text-anchor="middle" x="698" y="-364.8" font-family="Times,serif" font-size="14.00">roo_io</text>
<text text-anchor="middle" x="698" y="-349.8" font-family="Times,serif" font-size="14.00">2.0.2</text>
</g>
<!-- roo_comms&#45;&gt;roo_io -->
<g id="edge6" class="edge">
<title>roo_comms&#45;&gt;roo_io</title>
<path fill="none" stroke="black" d="M125.06,-714.52C201.1,-697.37 366.64,-653.11 483,-572 501.35,-559.21 498.92,-548.44 516,-534 553.78,-502.06 574.25,-509.12 611,-476 639.82,-450.02 665.8,-413.42 681.71,-388.76"/>
<polygon fill="black" stroke="black" points="684.7,-390.58 687.1,-380.26 678.79,-386.83 684.7,-390.58"/>
</g>
<!-- roo_transceivers -->
<g id="node26" class="node">
<title>roo_transceivers</title>
<polygon fill="#b1dbab" stroke="black" points="210,-647 104,-647 104,-609 210,-609 210,-647"/>
<text text-anchor="middle" x="157" y="-631.8" font-family="Times,serif" font-size="14.00">roo_transceivers</text>
<text text-anchor="middle" x="157" y="-616.8" font-family="Times,serif" font-size="14.00">1.1.2</text>
</g>
<!-- roo_comms&#45;&gt;roo_transceivers -->
<g id="edge7" class="edge">
<title>roo_comms&#45;&gt;roo_transceivers</title>
<path fill="none" stroke="black" d="M98.08,-704.88C108.98,-690.83 124.25,-671.17 136.51,-655.38"/>
<polygon fill="black" stroke="black" points="139.6,-657.11 142.97,-647.07 134.07,-652.82 139.6,-657.11"/>
</g>
<!-- roo_quantity -->
<g id="node20" class="node">
<title>roo_quantity</title>
<polygon fill="#b1dbab" stroke="black" points="244,-476 158,-476 158,-438 244,-438 244,-476"/>
<text text-anchor="middle" x="201" y="-460.8" font-family="Times,serif" font-size="14.00">roo_quantity</text>
<text text-anchor="middle" x="201" y="-445.8" font-family="Times,serif" font-size="14.00">1.1.2</text>
</g>
<!-- roo_control&#45;&gt;roo_quantity -->
<g id="edge8" class="edge">
<title>roo_control&#45;&gt;roo_quantity</title>
<path fill="none" stroke="black" d="M235.71,-533.88C229.4,-520.09 220.62,-500.9 213.47,-485.26"/>
<polygon fill="black" stroke="black" points="216.61,-483.71 209.27,-476.07 210.24,-486.62 216.61,-483.71"/>
</g>
<!-- roo_control&#45;&gt;roo_scheduler -->
<g id="edge9" class="edge">
<title>roo_control&#45;&gt;roo_scheduler</title>
<path fill="none" stroke="black" d="M263.86,-533.88C279.68,-519.44 301.99,-499.07 319.52,-483.07"/>
<polygon fill="black" stroke="black" points="322.17,-485.39 327.2,-476.07 317.46,-480.22 322.17,-485.39"/>
</g>
<!-- roo_dashboard -->
<g id="node6" class="node">
<title>roo_dashboard</title>
<polygon fill="khaki" stroke="black" points="439.5,-743 342.5,-743 342.5,-705 439.5,-705 439.5,-743"/>
<text text-anchor="middle" x="391" y="-727.8" font-family="Times,serif" font-size="14.00">roo_dashboard</text>
<text text-anchor="middle" x="391" y="-712.8" font-family="Times,serif" font-size="14.00">1.0.0</text>
</g>
<!-- roo_testing -->
<g id="node22" class="node">
<title>roo_testing</title>
<polygon fill="#b1dbab" stroke="black" points="1063.5,-38 986.5,-38 986.5,0 1063.5,0 1063.5,-38"/>
<text text-anchor="middle" x="1025" y="-22.8" font-family="Times,serif" font-size="14.00">roo_testing</text>
<text text-anchor="middle" x="1025" y="-7.8" font-family="Times,serif" font-size="14.00">1.1.7</text>
</g>
<!-- roo_dashboard&#45;&gt;roo_testing -->
<g id="edge10" class="edge">
<title>roo_dashboard&#45;&gt;roo_testing</title>
<path fill="none" stroke="red" d="M342.26,-716.4C267.66,-705.34 130.1,-680.92 95,-647 63.25,-616.32 0,-566.64 0,-314 0,-314 0,-314 0,-93 0,-43.44 772.62,-24.91 976.28,-20.89"/>
<polygon fill="red" stroke="red" points="976.45,-24.38 986.38,-20.69 976.31,-17.39 976.45,-24.38"/>
<text text-anchor="middle" x="29" y="-364" font-family="Times,serif" font-size="10.00" fill="red">1.1.4</text>
<text text-anchor="middle" x="29" y="-353" font-family="Times,serif" font-size="10.00" fill="red">(latest: 1.1.7)</text>
</g>
<!-- roo_windows -->
<g id="node29" class="node">
<title>roo_windows</title>
<polygon fill="khaki" stroke="black" points="782,-647 692,-647 692,-609 782,-609 782,-647"/>
<text text-anchor="middle" x="737" y="-631.8" font-family="Times,serif" font-size="14.00">roo_windows</text>
<text text-anchor="middle" x="737" y="-616.8" font-family="Times,serif" font-size="14.00">1.4.0</text>
</g>
<!-- roo_dashboard&#45;&gt;roo_windows -->
<g id="edge11" class="edge">
<title>roo_dashboard&#45;&gt;roo_windows</title>
<path fill="none" stroke="black" d="M439.53,-721.78C513.65,-719.16 650.91,-711.11 693,-687 705.55,-679.81 715.67,-667.46 723.03,-656"/>
<polygon fill="black" stroke="black" points="726.21,-657.5 728.33,-647.12 720.2,-653.91 726.21,-657.5"/>
</g>
<!-- roo_display -->
<g id="node7" class="node">
<title>roo_display</title>
<polygon fill="#b1dbab" stroke="black" points="776,-476 696,-476 696,-438 776,-438 776,-476"/>
<text text-anchor="middle" x="736" y="-460.8" font-family="Times,serif" font-size="14.00">roo_display</text>
<text text-anchor="middle" x="736" y="-445.8" font-family="Times,serif" font-size="14.00">2.3.1</text>
</g>
<!-- roo_display&#45;&gt;roo_collections -->
<g id="edge12" class="edge">
<title>roo_display&#45;&gt;roo_collections</title>
<path fill="none" stroke="black" d="M754.12,-437.88C768.43,-423.57 788.56,-403.44 804.49,-387.51"/>
<polygon fill="black" stroke="black" points="807.34,-389.61 811.93,-380.07 802.39,-384.66 807.34,-389.61"/>
</g>
<!-- roo_display&#45;&gt;roo_io -->
<g id="edge13" class="edge">
<title>roo_display&#45;&gt;roo_io</title>
<path fill="none" stroke="black" d="M728.67,-437.88C723.15,-424.22 715.49,-405.26 709.2,-389.71"/>
<polygon fill="black" stroke="black" points="712.3,-388.03 705.3,-380.07 705.81,-390.65 712.3,-388.03"/>
</g>
<!-- roo_flags -->
<g id="node8" class="node">
<title>roo_flags</title>
<polygon fill="#b1dbab" stroke="black" points="476,-188 408,-188 408,-150 476,-150 476,-188"/>
<text text-anchor="middle" x="442" y="-172.8" font-family="Times,serif" font-size="14.00">roo_flags</text>
<text text-anchor="middle" x="442" y="-157.8" font-family="Times,serif" font-size="14.00">1.1.1</text>
</g>
<!-- roo_icons -->
<g id="node9" class="node">
<title>roo_icons</title>
<polygon fill="khaki" stroke="black" points="971,-572 901,-572 901,-534 971,-534 971,-572"/>
<text text-anchor="middle" x="936" y="-556.8" font-family="Times,serif" font-size="14.00">roo_icons</text>
<text text-anchor="middle" x="936" y="-541.8" font-family="Times,serif" font-size="14.00">1.2.0</text>
</g>
<!-- roo_icons&#45;&gt;roo_display -->
<g id="edge15" class="edge">
<title>roo_icons&#45;&gt;roo_display</title>
<path fill="none" stroke="red" d="M900.7,-535.41C868.17,-520.12 819.64,-497.31 783.67,-480.41"/>
<polygon fill="red" stroke="red" points="784.89,-477.11 774.35,-476.03 781.91,-483.45 784.89,-477.11"/>
<text text-anchor="middle" x="880" y="-508" font-family="Times,serif" font-size="10.00" fill="red">2.2.2</text>
<text text-anchor="middle" x="880" y="-497" font-family="Times,serif" font-size="10.00" fill="red">(latest: 2.3.1)</text>
</g>
<!-- roo_icons&#45;&gt;roo_testing -->
<g id="edge14" class="edge">
<title>roo_icons&#45;&gt;roo_testing</title>
<path fill="none" stroke="red" d="M962.52,-533.74C979.97,-520.07 1001.47,-499.71 1012,-476 1058.59,-371.07 1025,-332.81 1025,-218 1025,-218 1025,-218 1025,-93 1025,-78.3 1025,-61.93 1025,-48.43"/>
<polygon fill="red" stroke="red" points="1028.5,-48.3 1025,-38.3 1021.5,-48.3 1028.5,-48.3"/>
<text text-anchor="middle" x="1055" y="-268" font-family="Times,serif" font-size="10.00" fill="red">1.1.4</text>
<text text-anchor="middle" x="1055" y="-257" font-family="Times,serif" font-size="10.00" fill="red">(latest: 1.1.7)</text>
</g>
<!-- roo_io&#45;&gt;roo_backport -->
<g id="edge16" class="edge">
<title>roo_io&#45;&gt;roo_backport</title>
<path fill="none" stroke="black" d="M710.73,-341.88C720.59,-327.83 734.39,-308.17 745.48,-292.38"/>
<polygon fill="black" stroke="black" points="748.43,-294.26 751.31,-284.07 742.7,-290.24 748.43,-294.26"/>
</g>
<!-- roo_io&#45;&gt;roo_logging -->
<g id="edge17" class="edge">
<title>roo_io&#45;&gt;roo_logging</title>
<path fill="none" stroke="black" d="M670.6,-349.94C628.35,-334.42 546.57,-304.4 493.15,-284.78"/>
<polygon fill="black" stroke="black" points="494.12,-281.41 483.52,-281.25 491.7,-287.98 494.12,-281.41"/>
</g>
<!-- roo_io_arduino -->
<g id="node11" class="node">
<title>roo_io_arduino</title>
<polygon fill="#b1dbab" stroke="black" points="602,-476 502,-476 502,-438 602,-438 602,-476"/>
<text text-anchor="middle" x="552" y="-460.8" font-family="Times,serif" font-size="14.00">roo_io_arduino</text>
<text text-anchor="middle" x="552" y="-445.8" font-family="Times,serif" font-size="14.00">1.2.4</text>
</g>
<!-- roo_io_arduino&#45;&gt;roo_io -->
<g id="edge19" class="edge">
<title>roo_io_arduino&#45;&gt;roo_io</title>
<path fill="none" stroke="red" d="M554.86,-437.9C557.8,-425.07 563.63,-408.36 575,-398 598.45,-376.63 633.93,-367.9 660.77,-364.36"/>
<polygon fill="red" stroke="red" points="661.41,-367.81 670.95,-363.2 660.62,-360.85 661.41,-367.81"/>
<text text-anchor="middle" x="602" y="-412" font-family="Times,serif" font-size="10.00" fill="red">2.0.1</text>
<text text-anchor="middle" x="602" y="-401" font-family="Times,serif" font-size="10.00" fill="red">(latest: 2.0.2)</text>
</g>
<!-- roo_io_arduino&#45;&gt;roo_logging -->
<g id="edge20" class="edge">
<title>roo_io_arduino&#45;&gt;roo_logging</title>
<path fill="none" stroke="red" d="M534.59,-437.76C521.18,-423.03 502.81,-401.31 490,-380 473.25,-352.14 459.52,-317.37 451.1,-293.6"/>
<polygon fill="red" stroke="red" points="454.41,-292.44 447.83,-284.14 447.79,-294.73 454.41,-292.44"/>
<text text-anchor="middle" x="517" y="-364" font-family="Times,serif" font-size="10.00" fill="red">1.4.0</text>
<text text-anchor="middle" x="517" y="-353" font-family="Times,serif" font-size="10.00" fill="red">(latest: 1.4.2)</text>
</g>
<!-- roo_io_arduino&#45;&gt;roo_testing -->
<g id="edge18" class="edge">
<title>roo_io_arduino&#45;&gt;roo_testing</title>
<path fill="none" stroke="red" d="M553.27,-437.63C555.03,-410.57 558,-358.41 558,-314 558,-314 558,-314 558,-93 558,-50.99 856.83,-29.48 976.4,-22.55"/>
<polygon fill="red" stroke="red" points="976.6,-26.05 986.39,-21.98 976.2,-19.06 976.6,-26.05"/>
<text text-anchor="middle" x="585" y="-220" font-family="Times,serif" font-size="10.00" fill="red">1.1.4</text>
<text text-anchor="middle" x="585" y="-209" font-family="Times,serif" font-size="10.00" fill="red">(latest: 1.1.7)</text>
</g>
<!-- roo_io_espressif -->
<g id="node12" class="node">
<title>roo_io_espressif</title>
<polygon fill="plum" stroke="black" points="1373,-743 1267,-743 1267,-705 1373,-705 1373,-743"/>
<text text-anchor="middle" x="1320" y="-727.8" font-family="Times,serif" font-size="14.00">roo_io_espressif</text>
<text text-anchor="middle" x="1320" y="-712.8" font-family="Times,serif" font-size="14.00">1.0.0</text>
</g>
<!-- roo_io_sdfat -->
<g id="node13" class="node">
<title>roo_io_sdfat</title>
<polygon fill="plum" stroke="black" points="1476.5,-743 1391.5,-743 1391.5,-705 1476.5,-705 1476.5,-743"/>
<text text-anchor="middle" x="1434" y="-727.8" font-family="Times,serif" font-size="14.00">roo_io_sdfat</text>
<text text-anchor="middle" x="1434" y="-712.8" font-family="Times,serif" font-size="14.00">1.0.0</text>
</g>
<!-- roo_locale -->
<g id="node14" class="node">
<title>roo_locale</title>
<polygon fill="khaki" stroke="black" points="883,-572 809,-572 809,-534 883,-534 883,-572"/>
<text text-anchor="middle" x="846" y="-556.8" font-family="Times,serif" font-size="14.00">roo_locale</text>
<text text-anchor="middle" x="846" y="-541.8" font-family="Times,serif" font-size="14.00">1.1.0</text>
</g>
<!-- roo_logging&#45;&gt;roo_flags -->
<g id="edge21" class="edge">
<title>roo_logging&#45;&gt;roo_flags</title>
<path fill="none" stroke="black" d="M442,-245.88C442,-232.35 442,-213.62 442,-198.15"/>
<polygon fill="black" stroke="black" points="445.5,-198.07 442,-188.07 438.5,-198.07 445.5,-198.07"/>
</g>
<!-- roo_threads -->
<g id="node23" class="node">
<title>roo_threads</title>
<polygon fill="#b1dbab" stroke="black" points="328,-188 248,-188 248,-150 328,-150 328,-188"/>
<text text-anchor="middle" x="288" y="-172.8" font-family="Times,serif" font-size="14.00">roo_threads</text>
<text text-anchor="middle" x="288" y="-157.8" font-family="Times,serif" font-size="14.00">1.1.5</text>
</g>
<!-- roo_logging&#45;&gt;roo_threads -->
<g id="edge22" class="edge">
<title>roo_logging&#45;&gt;roo_threads</title>
<path fill="none" stroke="black" d="M412.31,-245.88C387.81,-230.92 352.87,-209.6 326.28,-193.36"/>
<polygon fill="black" stroke="black" points="327.96,-190.29 317.6,-188.07 324.31,-196.27 327.96,-190.29"/>
</g>
<!-- roo_monitoring -->
<g id="node16" class="node">
<title>roo_monitoring</title>
<polygon fill="plum" stroke="black" points="1003,-476 901,-476 901,-438 1003,-438 1003,-476"/>
<text text-anchor="middle" x="952" y="-460.8" font-family="Times,serif" font-size="14.00">roo_monitoring</text>
<text text-anchor="middle" x="952" y="-445.8" font-family="Times,serif" font-size="14.00">1.0.0</text>
</g>
<!-- roo_monitoring&#45;&gt;roo_collections -->
<g id="edge23" class="edge">
<title>roo_monitoring&#45;&gt;roo_collections</title>
<path fill="none" stroke="black" d="M928.48,-437.88C909.41,-423.18 882.35,-402.34 861.43,-386.21"/>
<polygon fill="black" stroke="black" points="863.51,-383.4 853.45,-380.07 859.24,-388.94 863.51,-383.4"/>
</g>
<!-- roo_monitoring&#45;&gt;roo_io -->
<g id="edge24" class="edge">
<title>roo_monitoring&#45;&gt;roo_io</title>
<path fill="none" stroke="black" d="M903.33,-437.99C854.04,-419.75 778.94,-391.96 734.53,-375.52"/>
<polygon fill="black" stroke="black" points="735.6,-372.18 725.01,-372 733.17,-378.75 735.6,-372.18"/>
</g>
<!-- roo_onewire -->
<g id="node17" class="node">
<title>roo_onewire</title>
<polygon fill="#b1dbab" stroke="black" points="387.5,-572 302.5,-572 302.5,-534 387.5,-534 387.5,-572"/>
<text text-anchor="middle" x="345" y="-556.8" font-family="Times,serif" font-size="14.00">roo_onewire</text>
<text text-anchor="middle" x="345" y="-541.8" font-family="Times,serif" font-size="14.00">2.0.4</text>
</g>
<!-- roo_onewire&#45;&gt;roo_quantity -->
<g id="edge26" class="edge">
<title>roo_onewire&#45;&gt;roo_quantity</title>
<path fill="none" stroke="black" d="M312.49,-533.86C302.89,-528.3 292.43,-522.05 283,-516 266.44,-505.37 248.55,-492.84 233.71,-482.15"/>
<polygon fill="black" stroke="black" points="235.52,-479.13 225.36,-476.1 231.41,-484.8 235.52,-479.13"/>
</g>
<!-- roo_onewire&#45;&gt;roo_scheduler -->
<g id="edge25" class="edge">
<title>roo_onewire&#45;&gt;roo_scheduler</title>
<path fill="none" stroke="black" d="M345.39,-533.88C345.67,-520.35 346.07,-501.62 346.4,-486.15"/>
<polygon fill="black" stroke="black" points="349.9,-486.14 346.62,-476.07 342.9,-485.99 349.9,-486.14"/>
</g>
<!-- roo_powersafefs -->
<g id="node18" class="node">
<title>roo_powersafefs</title>
<polygon fill="plum" stroke="black" points="382.5,-284 275.5,-284 275.5,-246 382.5,-246 382.5,-284"/>
<text text-anchor="middle" x="329" y="-268.8" font-family="Times,serif" font-size="14.00">roo_powersafefs</text>
<text text-anchor="middle" x="329" y="-253.8" font-family="Times,serif" font-size="14.00">1.0.0</text>
</g>
<!-- roo_powersafefs&#45;&gt;roo_threads -->
<g id="edge27" class="edge">
<title>roo_powersafefs&#45;&gt;roo_threads</title>
<path fill="none" stroke="black" d="M321.09,-245.88C315.08,-232.09 306.71,-212.9 299.89,-197.26"/>
<polygon fill="black" stroke="black" points="303.09,-195.84 295.88,-188.07 296.67,-198.63 303.09,-195.84"/>
</g>
<!-- roo_prefs -->
<g id="node19" class="node">
<title>roo_prefs</title>
<polygon fill="#b1dbab" stroke="black" points="474,-572 406,-572 406,-534 474,-534 474,-572"/>
<text text-anchor="middle" x="440" y="-556.8" font-family="Times,serif" font-size="14.00">roo_prefs</text>
<text text-anchor="middle" x="440" y="-541.8" font-family="Times,serif" font-size="14.00">1.2.2</text>
</g>
<!-- roo_prefs&#45;&gt;roo_logging -->
<g id="edge28" class="edge">
<title>roo_prefs&#45;&gt;roo_logging</title>
<path fill="none" stroke="black" d="M405.96,-536.92C364.06,-518.01 297.6,-486.77 291,-476 282.18,-461.6 285.05,-453.8 291,-438 314.63,-375.25 372.72,-320.5 409.57,-290.46"/>
<polygon fill="black" stroke="black" points="411.92,-293.06 417.54,-284.07 407.54,-287.59 411.92,-293.06"/>
</g>
<!-- roo_prefs&#45;&gt;roo_scheduler -->
<g id="edge29" class="edge">
<title>roo_prefs&#45;&gt;roo_scheduler</title>
<path fill="none" stroke="black" d="M422.07,-533.88C407.92,-519.57 388,-499.44 372.24,-483.51"/>
<polygon fill="black" stroke="black" points="374.4,-480.72 364.88,-476.07 369.42,-485.64 374.4,-480.72"/>
</g>
<!-- roo_quantity&#45;&gt;roo_logging -->
<g id="edge30" class="edge">
<title>roo_quantity&#45;&gt;roo_logging</title>
<path fill="none" stroke="black" d="M201.94,-437.84C204.69,-405.01 215.5,-336.04 258,-302 279.41,-284.85 349.45,-289.94 390.46,-283.43"/>
<polygon fill="black" stroke="black" points="391.34,-286.82 400.46,-281.44 389.97,-279.96 391.34,-286.82"/>
</g>
<!-- roo_scheduler&#45;&gt;roo_collections -->
<g id="edge31" class="edge">
<title>roo_scheduler&#45;&gt;roo_collections</title>
<path fill="none" stroke="black" d="M393.72,-441.15C398.51,-439.95 403.33,-438.87 408,-438 506.64,-419.71 534.36,-438.26 633,-420 679.86,-411.32 731.5,-395.89 770.14,-383.13"/>
<polygon fill="black" stroke="black" points="771.3,-386.43 779.68,-379.95 769.08,-379.79 771.3,-386.43"/>
</g>
<!-- roo_scheduler&#45;&gt;roo_threads -->
<g id="edge32" class="edge">
<title>roo_scheduler&#45;&gt;roo_threads</title>
<path fill="none" stroke="black" d="M335.15,-437.89C316.09,-407.56 279.4,-343.91 266,-284 259.45,-254.7 267.97,-220.9 276.24,-197.76"/>
<polygon fill="black" stroke="black" points="279.58,-198.82 279.85,-188.23 273.03,-196.35 279.58,-198.82"/>
</g>
<!-- roo_time -->
<g id="node24" class="node">
<title>roo_time</title>
<polygon fill="#b1dbab" stroke="black" points="237,-113 171,-113 171,-75 237,-75 237,-113"/>
<text text-anchor="middle" x="204" y="-97.8" font-family="Times,serif" font-size="14.00">roo_time</text>
<text text-anchor="middle" x="204" y="-82.8" font-family="Times,serif" font-size="14.00">1.3.2</text>
</g>
<!-- roo_threads&#45;&gt;roo_time -->
<g id="edge33" class="edge">
<title>roo_threads&#45;&gt;roo_time</title>
<path fill="none" stroke="black" d="M267.24,-149.96C256.74,-140.83 243.83,-129.62 232.43,-119.7"/>
<polygon fill="black" stroke="black" points="234.66,-117.01 224.82,-113.09 230.07,-122.29 234.66,-117.01"/>
</g>
<!-- roo_time&#45;&gt;roo_testing -->
<g id="edge34" class="edge">
<title>roo_time&#45;&gt;roo_testing</title>
<path fill="none" stroke="black" d="M237.26,-89C298.09,-81.78 431.36,-66.34 544,-56 701.86,-41.51 889.27,-28.76 976.21,-23.11"/>
<polygon fill="black" stroke="black" points="976.55,-26.59 986.31,-22.45 976.1,-19.61 976.55,-26.59"/>
</g>
<!-- roo_time_ds3231 -->
<g id="node25" class="node">
<title>roo_time_ds3231</title>
<polygon fill="#b1dbab" stroke="black" points="140,-188 28,-188 28,-150 140,-150 140,-188"/>
<text text-anchor="middle" x="84" y="-172.8" font-family="Times,serif" font-size="14.00">roo_time_ds3231</text>
<text text-anchor="middle" x="84" y="-157.8" font-family="Times,serif" font-size="14.00">1.1.2</text>
</g>
<!-- roo_time_ds3231&#45;&gt;roo_time -->
<g id="edge35" class="edge">
<title>roo_time_ds3231&#45;&gt;roo_time</title>
<path fill="none" stroke="black" d="M113.66,-149.96C129.24,-140.48 148.52,-128.75 165.26,-118.57"/>
<polygon fill="black" stroke="black" points="167.54,-121.28 174.26,-113.09 163.9,-115.3 167.54,-121.28"/>
</g>
<!-- roo_transceivers&#45;&gt;roo_prefs -->
<g id="edge36" class="edge">
<title>roo_transceivers&#45;&gt;roo_prefs</title>
<path fill="none" stroke="black" d="M210.35,-617.3C259.23,-607.81 333.3,-591.9 396,-572 396.1,-571.97 396.2,-571.94 396.3,-571.91"/>
<polygon fill="black" stroke="black" points="397.3,-575.26 405.61,-568.69 395.01,-568.65 397.3,-575.26"/>
</g>
<!-- roo_transport -->
<g id="node27" class="node">
<title>roo_transport</title>
<polygon fill="#b1dbab" stroke="black" points="883.5,-476 794.5,-476 794.5,-438 883.5,-438 883.5,-476"/>
<text text-anchor="middle" x="839" y="-460.8" font-family="Times,serif" font-size="14.00">roo_transport</text>
<text text-anchor="middle" x="839" y="-445.8" font-family="Times,serif" font-size="14.00">1.0.1</text>
</g>
<!-- roo_transport&#45;&gt;roo_collections -->
<g id="edge37" class="edge">
<title>roo_transport&#45;&gt;roo_collections</title>
<path fill="none" stroke="black" d="M837.26,-437.88C835.97,-424.35 834.18,-405.62 832.7,-390.15"/>
<polygon fill="black" stroke="black" points="836.17,-389.69 831.73,-380.07 829.2,-390.36 836.17,-389.69"/>
</g>
<!-- roo_transport&#45;&gt;roo_io -->
<g id="edge38" class="edge">
<title>roo_transport&#45;&gt;roo_io</title>
<path fill="none" stroke="black" d="M800.99,-437.88C790.7,-432.51 779.72,-426.36 770,-420 754.76,-410.03 738.89,-397.5 725.94,-386.65"/>
<polygon fill="black" stroke="black" points="728.17,-383.95 718.28,-380.14 723.64,-389.28 728.17,-383.95"/>
</g>
<!-- roo_wifi -->
<g id="node28" class="node">
<title>roo_wifi</title>
<polygon fill="#b1dbab" stroke="black" points="666.5,-647 603.5,-647 603.5,-609 666.5,-609 666.5,-647"/>
<text text-anchor="middle" x="635" y="-631.8" font-family="Times,serif" font-size="14.00">roo_wifi</text>
<text text-anchor="middle" x="635" y="-616.8" font-family="Times,serif" font-size="14.00">1.1.1</text>
</g>
<!-- roo_wifi&#45;&gt;roo_prefs -->
<g id="edge39" class="edge">
<title>roo_wifi&#45;&gt;roo_prefs</title>
<path fill="none" stroke="black" d="M603.4,-615.86C583.68,-608.85 557.81,-599.55 535,-591 518.25,-584.73 499.93,-577.64 483.88,-571.36"/>
<polygon fill="black" stroke="black" points="484.8,-567.97 474.22,-567.57 482.25,-574.48 484.8,-567.97"/>
</g>
<!-- roo_windows&#45;&gt;roo_collections -->
<g id="edge41" class="edge">
<title>roo_windows&#45;&gt;roo_collections</title>
<path fill="none" stroke="red" d="M782.2,-622.09C844.23,-614.47 951.34,-597.95 980,-572 1013.34,-541.81 1004.8,-520.39 1012,-476 1014.71,-459.33 1021.36,-452.06 1012,-438 985.02,-397.5 931.92,-378.55 890,-369.7"/>
<polygon fill="red" stroke="red" points="890.64,-366.26 880.15,-367.76 889.29,-373.12 890.64,-366.26"/>
<text text-anchor="middle" x="1036" y="-508" font-family="Times,serif" font-size="10.00" fill="red">1.3.1</text>
<text text-anchor="middle" x="1036" y="-497" font-family="Times,serif" font-size="10.00" fill="red">(latest: 1.3.2)</text>
</g>
<!-- roo_windows&#45;&gt;roo_display -->
<g id="edge42" class="edge">
<title>roo_windows&#45;&gt;roo_display</title>
<path fill="none" stroke="red" d="M736.89,-608.91C736.72,-579.51 736.37,-521.13 736.17,-486.23"/>
<polygon fill="red" stroke="red" points="739.67,-486.19 736.11,-476.21 732.67,-486.23 739.67,-486.19"/>
<text text-anchor="middle" x="764" y="-556" font-family="Times,serif" font-size="10.00" fill="red">2.2.2</text>
<text text-anchor="middle" x="764" y="-545" font-family="Times,serif" font-size="10.00" fill="red">(latest: 2.3.1)</text>
</g>
<!-- roo_windows&#45;&gt;roo_icons -->
<g id="edge45" class="edge">
<title>roo_windows&#45;&gt;roo_icons</title>
<path fill="none" stroke="black" d="M782.31,-611.56C811.15,-601.58 849.47,-588.07 891.42,-572.15"/>
<polygon fill="black" stroke="black" points="892.9,-575.33 900.99,-568.49 890.4,-568.79 892.9,-575.33"/>
</g>
<!-- roo_windows&#45;&gt;roo_io -->
<g id="edge46" class="edge">
<title>roo_windows&#45;&gt;roo_io</title>
<path fill="none" stroke="red" d="M723.98,-608.87C709.7,-587.76 687.66,-551.26 679,-516 668.38,-472.75 679.4,-421.14 688.54,-390"/>
<polygon fill="red" stroke="red" points="691.94,-390.86 691.53,-380.27 685.25,-388.8 691.94,-390.86"/>
<text text-anchor="middle" x="706" y="-508" font-family="Times,serif" font-size="10.00" fill="red">2.0.1</text>
<text text-anchor="middle" x="706" y="-497" font-family="Times,serif" font-size="10.00" fill="red">(latest: 2.0.2)</text>
</g>
<!-- roo_windows&#45;&gt;roo_locale -->
<g id="edge43" class="edge">
<title>roo_windows&#45;&gt;roo_locale</title>
<path fill="none" stroke="black" d="M763.94,-608.96C777.96,-599.57 795.28,-587.97 810.39,-577.85"/>
<polygon fill="black" stroke="black" points="812.63,-580.56 818.99,-572.09 808.73,-574.75 812.63,-580.56"/>
</g>
<!-- roo_windows&#45;&gt;roo_logging -->
<g id="edge44" class="edge">
<title>roo_windows&#45;&gt;roo_logging</title>
<path fill="none" stroke="red" d="M691.94,-613.95C639.8,-598.77 560.24,-575.36 554,-572 495.37,-540.44 467.21,-536.31 439,-476 411.01,-416.17 424.13,-335.86 434.2,-294.02"/>
<polygon fill="red" stroke="red" points="437.62,-294.79 436.67,-284.24 430.83,-293.08 437.62,-294.79"/>
<text text-anchor="middle" x="466" y="-460" font-family="Times,serif" font-size="10.00" fill="red">1.4.0</text>
<text text-anchor="middle" x="466" y="-449" font-family="Times,serif" font-size="10.00" fill="red">(latest: 1.4.2)</text>
</g>
<!-- roo_windows&#45;&gt;roo_scheduler -->
<g id="edge47" class="edge">
<title>roo_windows&#45;&gt;roo_scheduler</title>
<path fill="none" stroke="red" d="M691.76,-609.39C664.97,-598.82 630.42,-584.95 600,-572 528.02,-541.35 445.55,-503.71 394.87,-480.29"/>
<polygon fill="red" stroke="red" points="396.33,-477.11 385.79,-476.08 393.39,-483.46 396.33,-477.11"/>
<text text-anchor="middle" x="627" y="-556" font-family="Times,serif" font-size="10.00" fill="red">2.1.3</text>
<text text-anchor="middle" x="627" y="-545" font-family="Times,serif" font-size="10.00" fill="red">(latest: 2.1.4)</text>
</g>
<!-- roo_windows&#45;&gt;roo_testing -->
<g id="edge40" class="edge">
<title>roo_windows&#45;&gt;roo_testing</title>
<path fill="none" stroke="red" d="M782.37,-627.45C881.17,-627.2 1107,-619.47 1107,-554 1107,-554 1107,-554 1107,-93 1107,-71.21 1090.65,-54.33 1072.56,-42.31"/>
<polygon fill="red" stroke="red" points="1073.95,-39.06 1063.6,-36.81 1070.28,-45.03 1073.95,-39.06"/>
<text text-anchor="middle" x="1134" y="-316" font-family="Times,serif" font-size="10.00" fill="red">1.1.4</text>
<text text-anchor="middle" x="1134" y="-305" font-family="Times,serif" font-size="10.00" fill="red">(latest: 1.1.7)</text>
</g>
<!-- roo_windows&#45;&gt;roo_time -->
<g id="edge48" class="edge">
<title>roo_windows&#45;&gt;roo_time</title>
<path fill="none" stroke="red" d="M691.89,-612.67C686.25,-611.25 680.52,-609.97 675,-609 612.71,-598.06 150.24,-618.15 107,-572 93.52,-557.61 43.72,-683.63 109,-342 124.95,-258.54 167.43,-166.77 189.79,-122.24"/>
<polygon fill="red" stroke="red" points="192.96,-123.73 194.37,-113.23 186.72,-120.56 192.96,-123.73"/>
<text text-anchor="middle" x="136" y="-364" font-family="Times,serif" font-size="10.00" fill="red">1.3.0</text>
<text text-anchor="middle" x="136" y="-353" font-family="Times,serif" font-size="10.00" fill="red">(latest: 1.3.2)</text>
</g>
<!-- roo_windows_transceivers -->
<g id="node30" class="node">
<title>roo_windows_transceivers</title>
<polygon fill="plum" stroke="black" points="817.5,-743 656.5,-743 656.5,-705 817.5,-705 817.5,-743"/>
<text text-anchor="middle" x="737" y="-727.8" font-family="Times,serif" font-size="14.00">roo_windows_transceivers</text>
<text text-anchor="middle" x="737" y="-712.8" font-family="Times,serif" font-size="14.00">1.0.0</text>
</g>
<!-- roo_windows_transceivers&#45;&gt;roo_testing -->
<g id="edge49" class="edge">
<title>roo_windows_transceivers&#45;&gt;roo_testing</title>
<path fill="none" stroke="red" d="M817.57,-721.51C941.31,-717.01 1164,-699.17 1164,-629 1164,-629 1164,-629 1164,-408 1164,-344.66 1176,-329.34 1176,-266 1176,-266 1176,-266 1176,-93 1176,-46.81 1118.01,-29.83 1073.91,-23.6"/>
<polygon fill="red" stroke="red" points="1074.25,-20.12 1063.89,-22.33 1073.37,-27.06 1074.25,-20.12"/>
<text text-anchor="middle" x="1196" y="-364" font-family="Times,serif" font-size="10.00" fill="red">1.1.4</text>
<text text-anchor="middle" x="1196" y="-353" font-family="Times,serif" font-size="10.00" fill="red">(latest: 1.1.7)</text>
</g>
<!-- roo_windows_transceivers&#45;&gt;roo_transceivers -->
<g id="edge50" class="edge">
<title>roo_windows_transceivers&#45;&gt;roo_transceivers</title>
<path fill="none" stroke="red" d="M656.35,-709.93C539.66,-691.02 326.12,-656.41 220.13,-639.23"/>
<polygon fill="red" stroke="red" points="220.65,-635.77 210.22,-637.63 219.53,-642.68 220.65,-635.77"/>
<text text-anchor="middle" x="526" y="-679" font-family="Times,serif" font-size="10.00" fill="red">1.1.1</text>
<text text-anchor="middle" x="526" y="-668" font-family="Times,serif" font-size="10.00" fill="red">(latest: 1.1.2)</text>
</g>
<!-- roo_windows_transceivers&#45;&gt;roo_windows -->
<g id="edge51" class="edge">
<title>roo_windows_transceivers&#45;&gt;roo_windows</title>
<path fill="none" stroke="black" d="M737,-704.88C737,-691.35 737,-672.62 737,-657.15"/>
<polygon fill="black" stroke="black" points="740.5,-657.07 737,-647.07 733.5,-657.07 740.5,-657.07"/>
</g>
<!-- roo_windows_wifi -->
<g id="node31" class="node">
<title>roo_windows_wifi</title>
<polygon fill="khaki" stroke="black" points="1248.5,-743 1129.5,-743 1129.5,-705 1248.5,-705 1248.5,-743"/>
<text text-anchor="middle" x="1189" y="-727.8" font-family="Times,serif" font-size="14.00">roo_windows_wifi</text>
<text text-anchor="middle" x="1189" y="-712.8" font-family="Times,serif" font-size="14.00">1.1.1</text>
</g>
<!-- roo_windows_wifi&#45;&gt;roo_testing -->
<g id="edge52" class="edge">
<title>roo_windows_wifi&#45;&gt;roo_testing</title>
<path fill="none" stroke="red" d="M1211.73,-704.68C1230.48,-687.37 1254,-659.56 1254,-629 1254,-629 1254,-629 1254,-93 1254,-55.44 1140.77,-34.61 1073.55,-25.55"/>
<polygon fill="red" stroke="red" points="1073.96,-22.07 1063.59,-24.25 1073.05,-29.01 1073.96,-22.07"/>
<text text-anchor="middle" x="1281" y="-364" font-family="Times,serif" font-size="10.00" fill="red">1.1.4</text>
<text text-anchor="middle" x="1281" y="-353" font-family="Times,serif" font-size="10.00" fill="red">(latest: 1.1.7)</text>
</g>
<!-- roo_windows_wifi&#45;&gt;roo_wifi -->
<g id="edge53" class="edge">
<title>roo_windows_wifi&#45;&gt;roo_wifi</title>
<path fill="none" stroke="red" d="M1129.41,-719.43C1033.6,-712.49 840.14,-693.57 683,-647 680.73,-646.33 678.42,-645.6 676.09,-644.84"/>
<polygon fill="red" stroke="red" points="677.14,-641.5 666.54,-641.55 674.86,-648.12 677.14,-641.5"/>
<text text-anchor="middle" x="874" y="-679" font-family="Times,serif" font-size="10.00" fill="red">1.1.0</text>
<text text-anchor="middle" x="874" y="-668" font-family="Times,serif" font-size="10.00" fill="red">(latest: 1.1.1)</text>
</g>
<!-- roo_windows_wifi&#45;&gt;roo_windows -->
<g id="edge54" class="edge">
<title>roo_windows_wifi&#45;&gt;roo_windows</title>
<path fill="none" stroke="black" d="M1129.44,-710.61C1041.33,-692.29 877.48,-658.21 792.04,-640.45"/>
<polygon fill="black" stroke="black" points="792.52,-636.97 782.02,-638.36 791.1,-643.83 792.52,-636.97"/>
</g>
</g>
</svg>
