<?xml version="1.0" encoding="UTF-8" standalone="no"?>
<!DOCTYPE svg PUBLIC "-//W3C//DTD SVG 1.1//EN"
 "http://www.w3.org/Graphics/SVG/1.1/DTD/svg11.dtd">
<!-- Generated by graphviz version 2.42.4 (0)
 -->
<!-- Title: dependencies Pages: 1 -->
<svg width="2418pt" height="751pt"
 viewBox="0.00 0.00 2418.00 751.00" xmlns="http://www.w3.org/2000/svg" xmlns:xlink="http://www.w3.org/1999/xlink">
<g id="graph0" class="graph" transform="scale(1 1) rotate(0) translate(4 747)">
<title>dependencies</title>
<polygon fill="white" stroke="transparent" points="-4,4 -4,-747 2414,-747 2414,4 -4,4"/>
<!-- roo_backport -->
<g id="node1" class="node">
<title>roo_backport</title>
<polygon fill="#b1dbab" stroke="black" points="1844,-113 1734,-113 1734,-75 1844,-75 1844,-113"/>
<text text-anchor="middle" x="1789" y="-97.8" font-family="Times,serif" font-size="14.00">roo_backport</text>
<text text-anchor="middle" x="1789" y="-82.8" font-family="Times,serif" font-size="14.00">1.2.0</text>
</g>
<!-- roo_blink -->
<g id="node2" class="node">
<title>roo_blink</title>
<polygon fill="plum" stroke="black" points="875,-380 793,-380 793,-342 875,-342 875,-380"/>
<text text-anchor="middle" x="834" y="-364.8" font-family="Times,serif" font-size="14.00">roo_blink</text>
<text text-anchor="middle" x="834" y="-349.8" font-family="Times,serif" font-size="14.00">1.0.3</text>
</g>
<!-- roo_logging -->
<g id="node12" class="node">
<title>roo_logging</title>
<polygon fill="#b1dbab" stroke="black" points="1438,-284 1338,-284 1338,-246 1438,-246 1438,-284"/>
<text text-anchor="middle" x="1388" y="-268.8" font-family="Times,serif" font-size="14.00">roo_logging</text>
<text text-anchor="middle" x="1388" y="-253.8" font-family="Times,serif" font-size="14.00">1.5.1</text>
</g>
<!-- roo_blink&#45;&gt;roo_logging -->
<g id="edge1" class="edge">
<title>roo_blink&#45;&gt;roo_logging</title>
<path fill="none" stroke="red" d="M875.36,-349.09C925.23,-336.27 1011.75,-315.09 1087,-302 1169.96,-287.57 1266.79,-277.12 1327.75,-271.3"/>
<polygon fill="red" stroke="red" points="1328.34,-274.76 1337.96,-270.34 1327.68,-267.8 1328.34,-274.76"/>
<text text-anchor="middle" x="1120" y="-316" font-family="Times,serif" font-size="10.00" fill="red">1.5.0</text>
<text text-anchor="middle" x="1120" y="-305" font-family="Times,serif" font-size="10.00" fill="red">(latest: 1.5.1)</text>
</g>
<!-- roo_scheduler -->
<g id="node16" class="node">
<title>roo_scheduler</title>
<polygon fill="#b1dbab" stroke="black" points="892,-284 776,-284 776,-246 892,-246 892,-284"/>
<text text-anchor="middle" x="834" y="-268.8" font-family="Times,serif" font-size="14.00">roo_scheduler</text>
<text text-anchor="middle" x="834" y="-253.8" font-family="Times,serif" font-size="14.00">2.1.6</text>
</g>
<!-- roo_blink&#45;&gt;roo_scheduler -->
<g id="edge2" class="edge">
<title>roo_blink&#45;&gt;roo_scheduler</title>
<path fill="none" stroke="black" d="M811.84,-341.79C807.03,-336.6 802.6,-330.55 800,-324 796.39,-314.91 796.39,-311.09 800,-302 801.38,-298.52 803.28,-295.18 805.48,-292.04"/>
<polygon fill="black" stroke="black" points="808.25,-294.17 811.84,-284.21 802.82,-289.76 808.25,-294.17"/>
</g>
<!-- roo_collections -->
<g id="node3" class="node">
<title>roo_collections</title>
<polygon fill="#b1dbab" stroke="black" points="1850,-188 1728,-188 1728,-150 1850,-150 1850,-188"/>
<text text-anchor="middle" x="1789" y="-172.8" font-family="Times,serif" font-size="14.00">roo_collections</text>
<text text-anchor="middle" x="1789" y="-157.8" font-family="Times,serif" font-size="14.00">1.4.0</text>
</g>
<!-- roo_collections&#45;&gt;roo_backport -->
<g id="edge3" class="edge">
<title>roo_collections&#45;&gt;roo_backport</title>
<path fill="none" stroke="black" d="M1789,-149.96C1789,-141.88 1789,-132.18 1789,-123.18"/>
<polygon fill="black" stroke="black" points="1792.5,-123.09 1789,-113.09 1785.5,-123.09 1792.5,-123.09"/>
</g>
<!-- roo_comms -->
<g id="node4" class="node">
<title>roo_comms</title>
<polygon fill="plum" stroke="black" points="1207.5,-572 1110.5,-572 1110.5,-534 1207.5,-534 1207.5,-572"/>
<text text-anchor="middle" x="1159" y="-556.8" font-family="Times,serif" font-size="14.00">roo_comms</text>
<text text-anchor="middle" x="1159" y="-541.8" font-family="Times,serif" font-size="14.00">1.1.2</text>
</g>
<!-- roo_comms&#45;&gt;roo_blink -->
<g id="edge5" class="edge">
<title>roo_comms&#45;&gt;roo_blink</title>
<path fill="none" stroke="red" d="M1110.31,-549.93C1053.01,-545.03 958.06,-528.84 898,-476 869.61,-451.02 883.86,-430.18 864,-398 862,-394.76 859.73,-391.51 857.36,-388.35"/>
<polygon fill="red" stroke="red" points="859.91,-385.93 850.94,-380.29 854.44,-390.29 859.91,-385.93"/>
<text text-anchor="middle" x="931" y="-460" font-family="Times,serif" font-size="10.00" fill="red">1.0.2</text>
<text text-anchor="middle" x="931" y="-449" font-family="Times,serif" font-size="10.00" fill="red">(latest: 1.0.3)</text>
</g>
<!-- roo_comms&#45;&gt;roo_collections -->
<g id="edge6" class="edge">
<title>roo_comms&#45;&gt;roo_collections</title>
<path fill="none" stroke="red" d="M1207.55,-550.82C1317.49,-547.78 1582.63,-538.32 1669,-516 1709.81,-505.45 1730.4,-510.23 1755,-476 1786.61,-432 1789.48,-265.81 1789.3,-198.53"/>
<polygon fill="red" stroke="red" points="1792.8,-198.24 1789.25,-188.26 1785.8,-198.27 1792.8,-198.24"/>
<text text-anchor="middle" x="1818" y="-364" font-family="Times,serif" font-size="10.00" fill="red">1.3.2</text>
<text text-anchor="middle" x="1818" y="-353" font-family="Times,serif" font-size="10.00" fill="red">(latest: 1.4.0)</text>
</g>
<!-- roo_control -->
<g id="node5" class="node">
<title>roo_control</title>
<polygon fill="plum" stroke="black" points="1207.5,-476 1110.5,-476 1110.5,-438 1207.5,-438 1207.5,-476"/>
<text text-anchor="middle" x="1159" y="-460.8" font-family="Times,serif" font-size="14.00">roo_control</text>
<text text-anchor="middle" x="1159" y="-445.8" font-family="Times,serif" font-size="14.00">1.2.2</text>
</g>
<!-- roo_comms&#45;&gt;roo_control -->
<g id="edge7" class="edge">
<title>roo_comms&#45;&gt;roo_control</title>
<path fill="none" stroke="black" d="M1159,-533.88C1159,-520.35 1159,-501.62 1159,-486.15"/>
<polygon fill="black" stroke="black" points="1162.5,-486.07 1159,-476.07 1155.5,-486.07 1162.5,-486.07"/>
</g>
<!-- roo_io -->
<g id="node10" class="node">
<title>roo_io</title>
<polygon fill="#b1dbab" stroke="black" points="1752.5,-380 1693.5,-380 1693.5,-342 1752.5,-342 1752.5,-380"/>
<text text-anchor="middle" x="1723" y="-364.8" font-family="Times,serif" font-size="14.00">roo_io</text>
<text text-anchor="middle" x="1723" y="-349.8" font-family="Times,serif" font-size="14.00">2.1.1</text>
</g>
<!-- roo_comms&#45;&gt;roo_io -->
<g id="edge8" class="edge">
<title>roo_comms&#45;&gt;roo_io</title>
<path fill="none" stroke="red" d="M1207.55,-550.92C1322.93,-548.01 1606.64,-538.6 1643,-516 1677.18,-494.76 1668.28,-472.51 1689,-438 1693.83,-429.96 1695.81,-428.39 1700,-420 1704.81,-410.36 1709.36,-399.46 1713.11,-389.73"/>
<polygon fill="red" stroke="red" points="1716.49,-390.71 1716.73,-380.11 1709.93,-388.25 1716.49,-390.71"/>
<text text-anchor="middle" x="1722" y="-460" font-family="Times,serif" font-size="10.00" fill="red">2.0.3</text>
<text text-anchor="middle" x="1722" y="-449" font-family="Times,serif" font-size="10.00" fill="red">(latest: 2.1.1)</text>
</g>
<!-- roo_comms&#45;&gt;roo_logging -->
<g id="edge9" class="edge">
<title>roo_comms&#45;&gt;roo_logging</title>
<path fill="none" stroke="red" d="M1207.83,-540.96C1247.1,-530 1301.7,-509.85 1339,-476 1374.93,-443.39 1379.08,-427.04 1391,-380 1395.15,-363.63 1391.33,-358.89 1391,-342 1390.69,-326.22 1390.01,-308.61 1389.38,-294.31"/>
<polygon fill="red" stroke="red" points="1392.87,-293.94 1388.92,-284.11 1385.88,-294.26 1392.87,-293.94"/>
<text text-anchor="middle" x="1420" y="-412" font-family="Times,serif" font-size="10.00" fill="red">1.4.3</text>
<text text-anchor="middle" x="1420" y="-401" font-family="Times,serif" font-size="10.00" fill="red">(latest: 1.5.1)</text>
</g>
<!-- roo_prefs -->
<g id="node14" class="node">
<title>roo_prefs</title>
<polygon fill="#b1dbab" stroke="black" points="1382.5,-380 1299.5,-380 1299.5,-342 1382.5,-342 1382.5,-380"/>
<text text-anchor="middle" x="1341" y="-364.8" font-family="Times,serif" font-size="14.00">roo_prefs</text>
<text text-anchor="middle" x="1341" y="-349.8" font-family="Times,serif" font-size="14.00">1.2.7</text>
</g>
<!-- roo_comms&#45;&gt;roo_prefs -->
<g id="edge10" class="edge">
<title>roo_comms&#45;&gt;roo_prefs</title>
<path fill="none" stroke="red" d="M1176.45,-533.78C1209.06,-499.74 1279.32,-426.39 1316.61,-387.47"/>
<polygon fill="red" stroke="red" points="1319.21,-389.81 1323.6,-380.16 1314.16,-384.96 1319.21,-389.81"/>
<text text-anchor="middle" x="1302" y="-460" font-family="Times,serif" font-size="10.00" fill="red">1.2.3</text>
<text text-anchor="middle" x="1302" y="-449" font-family="Times,serif" font-size="10.00" fill="red">(latest: 1.2.7)</text>
</g>
<!-- roo_comms&#45;&gt;roo_scheduler -->
<g id="edge11" class="edge">
<title>roo_comms&#45;&gt;roo_scheduler</title>
<path fill="none" stroke="red" d="M1110.47,-552.89C1006.86,-551.76 766.2,-532.14 677,-380 668.46,-365.43 667.38,-355.88 677,-342 689.98,-323.27 704.23,-333.37 725,-324 748.21,-313.53 773.36,-300.28 793.64,-289.09"/>
<polygon fill="red" stroke="red" points="795.55,-292.04 802.59,-284.12 792.15,-285.92 795.55,-292.04"/>
<text text-anchor="middle" x="738" y="-412" font-family="Times,serif" font-size="10.00" fill="red">2.1.5</text>
<text text-anchor="middle" x="738" y="-401" font-family="Times,serif" font-size="10.00" fill="red">(latest: 2.1.6)</text>
</g>
<!-- roo_testing -->
<g id="node17" class="node">
<title>roo_testing</title>
<polygon fill="#b1dbab" stroke="black" points="1625.5,-38 1528.5,-38 1528.5,0 1625.5,0 1625.5,-38"/>
<text text-anchor="middle" x="1577" y="-22.8" font-family="Times,serif" font-size="14.00">roo_testing</text>
<text text-anchor="middle" x="1577" y="-7.8" font-family="Times,serif" font-size="14.00">1.2.0</text>
</g>
<!-- roo_comms&#45;&gt;roo_testing -->
<g id="edge4" class="edge">
<title>roo_comms&#45;&gt;roo_testing</title>
<path fill="none" stroke="red" d="M1207.59,-552.22C1293.08,-550.82 1474.16,-539.79 1610,-476 1644.52,-459.79 1659.11,-454.66 1675,-420 1691.17,-384.72 1650.15,-398.62 1627,-284 1623.66,-267.45 1620.76,-261.69 1627,-246 1631.07,-235.77 1639.93,-238.23 1644,-228 1647.61,-218.91 1645.65,-215.64 1644,-206 1633.95,-147.4 1606.83,-82.95 1590.34,-47.39"/>
<polygon fill="red" stroke="red" points="1593.41,-45.71 1585.99,-38.15 1587.08,-48.69 1593.41,-45.71"/>
<text text-anchor="middle" x="1660" y="-268" font-family="Times,serif" font-size="10.00" fill="red">1.1.8</text>
<text text-anchor="middle" x="1660" y="-257" font-family="Times,serif" font-size="10.00" fill="red">(latest: 1.2.0)</text>
</g>
<!-- roo_threads -->
<g id="node18" class="node">
<title>roo_threads</title>
<polygon fill="#b1dbab" stroke="black" points="674.5,-188 573.5,-188 573.5,-150 674.5,-150 674.5,-188"/>
<text text-anchor="middle" x="624" y="-172.8" font-family="Times,serif" font-size="14.00">roo_threads</text>
<text text-anchor="middle" x="624" y="-157.8" font-family="Times,serif" font-size="14.00">1.2.0</text>
</g>
<!-- roo_comms&#45;&gt;roo_threads -->
<g id="edge12" class="edge">
<title>roo_comms&#45;&gt;roo_threads</title>
<path fill="none" stroke="red" d="M1110.2,-552.69C1019.16,-553.07 817.61,-549.6 652,-516 598.14,-505.07 575.44,-513.21 535,-476 489.08,-433.74 473.46,-401.28 493,-342 512.91,-281.6 563.84,-225.82 596.01,-194.99"/>
<polygon fill="red" stroke="red" points="598.48,-197.47 603.36,-188.07 593.68,-192.38 598.48,-197.47"/>
<text text-anchor="middle" x="526" y="-364" font-family="Times,serif" font-size="10.00" fill="red">1.1.6</text>
<text text-anchor="middle" x="526" y="-353" font-family="Times,serif" font-size="10.00" fill="red">(latest: 1.2.0)</text>
</g>
<!-- roo_time -->
<g id="node19" class="node">
<title>roo_time</title>
<polygon fill="#b1dbab" stroke="black" points="439.5,-113 360.5,-113 360.5,-75 439.5,-75 439.5,-113"/>
<text text-anchor="middle" x="400" y="-97.8" font-family="Times,serif" font-size="14.00">roo_time</text>
<text text-anchor="middle" x="400" y="-82.8" font-family="Times,serif" font-size="14.00">1.4.0</text>
</g>
<!-- roo_comms&#45;&gt;roo_time -->
<g id="edge13" class="edge">
<title>roo_comms&#45;&gt;roo_time</title>
<path fill="none" stroke="red" d="M1110.16,-551.96C1007.04,-551.26 759.72,-546.24 555,-516 479.07,-504.79 446.37,-524.65 387,-476 322.53,-423.17 304.55,-384.42 317,-302 327.56,-232.08 338.36,-215.9 364,-150 367.39,-141.29 368.17,-139 373,-131 374.93,-127.8 377.08,-124.54 379.3,-121.36"/>
<polygon fill="red" stroke="red" points="382.19,-123.33 385.25,-113.19 376.53,-119.21 382.19,-123.33"/>
<text text-anchor="middle" x="350" y="-316" font-family="Times,serif" font-size="10.00" fill="red">1.3.3</text>
<text text-anchor="middle" x="350" y="-305" font-family="Times,serif" font-size="10.00" fill="red">(latest: 1.4.0)</text>
</g>
<!-- roo_transceivers -->
<g id="node21" class="node">
<title>roo_transceivers</title>
<polygon fill="plum" stroke="black" points="679.5,-476 544.5,-476 544.5,-438 679.5,-438 679.5,-476"/>
<text text-anchor="middle" x="612" y="-460.8" font-family="Times,serif" font-size="14.00">roo_transceivers</text>
<text text-anchor="middle" x="612" y="-445.8" font-family="Times,serif" font-size="14.00">1.1.3</text>
</g>
<!-- roo_comms&#45;&gt;roo_transceivers -->
<g id="edge14" class="edge">
<title>roo_comms&#45;&gt;roo_transceivers</title>
<path fill="none" stroke="black" d="M1110.21,-551.49C1006.93,-549.89 769.49,-543.25 694,-516 673.8,-508.71 654.05,-495 639,-482.75"/>
<polygon fill="black" stroke="black" points="641.05,-479.9 631.15,-476.13 636.54,-485.25 641.05,-479.9"/>
</g>
<!-- roo_control&#45;&gt;roo_logging -->
<g id="edge16" class="edge">
<title>roo_control&#45;&gt;roo_logging</title>
<path fill="none" stroke="red" d="M1171.58,-437.92C1175.38,-432.26 1179.47,-425.94 1183,-420 1203,-386.33 1195.62,-368.99 1224,-342 1253.18,-314.24 1294.32,-295.22 1328.09,-283.14"/>
<polygon fill="red" stroke="red" points="1329.55,-286.34 1337.86,-279.77 1327.26,-279.73 1329.55,-286.34"/>
<text text-anchor="middle" x="1257" y="-364" font-family="Times,serif" font-size="10.00" fill="red">1.4.3</text>
<text text-anchor="middle" x="1257" y="-353" font-family="Times,serif" font-size="10.00" fill="red">(latest: 1.5.1)</text>
</g>
<!-- roo_quantity -->
<g id="node15" class="node">
<title>roo_quantity</title>
<polygon fill="#b1dbab" stroke="black" points="1140.5,-380 1033.5,-380 1033.5,-342 1140.5,-342 1140.5,-380"/>
<text text-anchor="middle" x="1087" y="-364.8" font-family="Times,serif" font-size="14.00">roo_quantity</text>
<text text-anchor="middle" x="1087" y="-349.8" font-family="Times,serif" font-size="14.00">1.1.5</text>
</g>
<!-- roo_control&#45;&gt;roo_quantity -->
<g id="edge17" class="edge">
<title>roo_control&#45;&gt;roo_quantity</title>
<path fill="none" stroke="red" d="M1110.31,-439.61C1101.89,-434.61 1094.2,-428.19 1089,-420 1083.47,-411.29 1082.05,-400.26 1082.33,-390.17"/>
<polygon fill="red" stroke="red" points="1085.82,-390.37 1083.14,-380.12 1078.85,-389.81 1085.82,-390.37"/>
<text text-anchor="middle" x="1122" y="-412" font-family="Times,serif" font-size="10.00" fill="red">1.1.3</text>
<text text-anchor="middle" x="1122" y="-401" font-family="Times,serif" font-size="10.00" fill="red">(latest: 1.1.5)</text>
</g>
<!-- roo_control&#45;&gt;roo_scheduler -->
<g id="edge18" class="edge">
<title>roo_control&#45;&gt;roo_scheduler</title>
<path fill="none" stroke="red" d="M1110.33,-441.59C1058.84,-425.66 981.8,-399.66 958,-380 926.61,-354.08 940.31,-329.17 910,-302 904.62,-297.18 898.48,-292.87 892.07,-289.07"/>
<polygon fill="red" stroke="red" points="893.66,-285.95 883.21,-284.19 890.28,-292.08 893.66,-285.95"/>
<text text-anchor="middle" x="991" y="-364" font-family="Times,serif" font-size="10.00" fill="red">2.1.5</text>
<text text-anchor="middle" x="991" y="-353" font-family="Times,serif" font-size="10.00" fill="red">(latest: 2.1.6)</text>
</g>
<!-- roo_control&#45;&gt;roo_testing -->
<g id="edge15" class="edge">
<title>roo_control&#45;&gt;roo_testing</title>
<path fill="none" stroke="red" d="M1162.11,-437.69C1165.04,-418.79 1169,-388.42 1169,-362 1169,-362 1169,-362 1169,-93 1169,-57.98 1404.93,-34.01 1517.97,-24.53"/>
<polygon fill="red" stroke="red" points="1518.51,-28 1528.19,-23.69 1517.94,-21.02 1518.51,-28"/>
<text text-anchor="middle" x="1202" y="-220" font-family="Times,serif" font-size="10.00" fill="red">1.1.8</text>
<text text-anchor="middle" x="1202" y="-209" font-family="Times,serif" font-size="10.00" fill="red">(latest: 1.2.0)</text>
</g>
<!-- roo_dashboard -->
<g id="node6" class="node">
<title>roo_dashboard</title>
<polygon fill="plum" stroke="black" points="122,-743 0,-743 0,-705 122,-705 122,-743"/>
<text text-anchor="middle" x="61" y="-727.8" font-family="Times,serif" font-size="14.00">roo_dashboard</text>
<text text-anchor="middle" x="61" y="-712.8" font-family="Times,serif" font-size="14.00">1.0.1</text>
</g>
<!-- roo_dashboard&#45;&gt;roo_testing -->
<g id="edge19" class="edge">
<title>roo_dashboard&#45;&gt;roo_testing</title>
<path fill="none" stroke="red" d="M50.57,-704.73C43.34,-690.34 35,-669.51 35,-650 35,-650 35,-650 35,-93 35,-17.3 1236.32,-18.36 1518.28,-19.65"/>
<polygon fill="red" stroke="red" points="1518.29,-23.15 1528.3,-19.7 1518.32,-16.15 1518.29,-23.15"/>
<text text-anchor="middle" x="68" y="-364" font-family="Times,serif" font-size="10.00" fill="red">1.1.7</text>
<text text-anchor="middle" x="68" y="-353" font-family="Times,serif" font-size="10.00" fill="red">(latest: 1.2.0)</text>
</g>
<!-- roo_windows -->
<g id="node24" class="node">
<title>roo_windows</title>
<polygon fill="plum" stroke="black" points="1942.5,-668 1833.5,-668 1833.5,-630 1942.5,-630 1942.5,-668"/>
<text text-anchor="middle" x="1888" y="-652.8" font-family="Times,serif" font-size="14.00">roo_windows</text>
<text text-anchor="middle" x="1888" y="-637.8" font-family="Times,serif" font-size="14.00">1.4.1</text>
</g>
<!-- roo_dashboard&#45;&gt;roo_windows -->
<g id="edge20" class="edge">
<title>roo_dashboard&#45;&gt;roo_windows</title>
<path fill="none" stroke="black" d="M122.05,-720.56C399.27,-709.48 1538.35,-663.97 1823.2,-652.59"/>
<polygon fill="black" stroke="black" points="1823.51,-656.08 1833.37,-652.18 1823.23,-649.09 1823.51,-656.08"/>
</g>
<!-- roo_display -->
<g id="node7" class="node">
<title>roo_display</title>
<polygon fill="plum" stroke="black" points="2134,-476 2036,-476 2036,-438 2134,-438 2134,-476"/>
<text text-anchor="middle" x="2085" y="-460.8" font-family="Times,serif" font-size="14.00">roo_display</text>
<text text-anchor="middle" x="2085" y="-445.8" font-family="Times,serif" font-size="14.00">2.3.1</text>
</g>
<!-- roo_display&#45;&gt;roo_backport -->
<g id="edge22" class="edge">
<title>roo_display&#45;&gt;roo_backport</title>
<path fill="none" stroke="red" d="M2096.14,-437.74C2112.93,-407.64 2140.31,-346.52 2116,-302 2108.91,-289.02 2100.17,-292.42 2088,-284 2040.19,-250.93 2031.65,-237.83 1983,-206 1932.69,-173.09 1872.22,-139.36 1832.31,-117.85"/>
<polygon fill="red" stroke="red" points="1833.84,-114.7 1823.38,-113.06 1830.53,-120.87 1833.84,-114.7"/>
<text text-anchor="middle" x="2121" y="-268" font-family="Times,serif" font-size="10.00" fill="red">1.1.1</text>
<text text-anchor="middle" x="2121" y="-257" font-family="Times,serif" font-size="10.00" fill="red">(latest: 1.2.0)</text>
</g>
<!-- roo_display&#45;&gt;roo_collections -->
<g id="edge23" class="edge">
<title>roo_display&#45;&gt;roo_collections</title>
<path fill="none" stroke="red" d="M2084.4,-437.87C2083.21,-425.68 2080.06,-409.74 2072,-398 2038.44,-349.12 1994.47,-372.94 1961,-324 1930.68,-279.67 1972.5,-244.44 1935,-206 1924.14,-194.87 1891.78,-186.3 1860.28,-180.33"/>
<polygon fill="red" stroke="red" points="1860.58,-176.82 1850.11,-178.47 1859.32,-183.71 1860.58,-176.82"/>
<text text-anchor="middle" x="1994" y="-316" font-family="Times,serif" font-size="10.00" fill="red">1.3.2</text>
<text text-anchor="middle" x="1994" y="-305" font-family="Times,serif" font-size="10.00" fill="red">(latest: 1.4.0)</text>
</g>
<!-- roo_display&#45;&gt;roo_io -->
<g id="edge24" class="edge">
<title>roo_display&#45;&gt;roo_io</title>
<path fill="none" stroke="red" d="M2038.48,-437.94C2027.44,-432.81 2015.98,-426.76 2006,-420 1994.29,-412.07 1995.9,-403.81 1983,-398 1895.16,-358.44 1860.67,-402.5 1767,-380 1765.55,-379.65 1764.08,-379.26 1762.6,-378.84"/>
<polygon fill="red" stroke="red" points="1763.49,-375.44 1752.89,-375.64 1761.3,-382.09 1763.49,-375.44"/>
<text text-anchor="middle" x="2039" y="-412" font-family="Times,serif" font-size="10.00" fill="red">2.0.2</text>
<text text-anchor="middle" x="2039" y="-401" font-family="Times,serif" font-size="10.00" fill="red">(latest: 2.1.1)</text>
</g>
<!-- roo_display&#45;&gt;roo_testing -->
<g id="edge21" class="edge">
<title>roo_display&#45;&gt;roo_testing</title>
<path fill="none" stroke="red" d="M2107.79,-437.76C2113.33,-432.49 2118.85,-426.41 2123,-420 2165.69,-354.06 2195.3,-312.82 2154,-246 2144.6,-230.78 2133.75,-236.48 2118,-228 1998.24,-163.56 1980.27,-122.93 1853,-75 1780.9,-47.85 1692.91,-33.28 1635.95,-26.09"/>
<polygon fill="red" stroke="red" points="1636.04,-22.58 1625.69,-24.83 1635.19,-29.52 1636.04,-22.58"/>
<text text-anchor="middle" x="2151" y="-220" font-family="Times,serif" font-size="10.00" fill="red">1.1.7</text>
<text text-anchor="middle" x="2151" y="-209" font-family="Times,serif" font-size="10.00" fill="red">(latest: 1.2.0)</text>
</g>
<!-- roo_flags -->
<g id="node8" class="node">
<title>roo_flags</title>
<polygon fill="#b1dbab" stroke="black" points="1549,-188 1469,-188 1469,-150 1549,-150 1549,-188"/>
<text text-anchor="middle" x="1509" y="-172.8" font-family="Times,serif" font-size="14.00">roo_flags</text>
<text text-anchor="middle" x="1509" y="-157.8" font-family="Times,serif" font-size="14.00">1.2.0</text>
</g>
<!-- roo_icons -->
<g id="node9" class="node">
<title>roo_icons</title>
<polygon fill="plum" stroke="black" points="2091.5,-572 2008.5,-572 2008.5,-534 2091.5,-534 2091.5,-572"/>
<text text-anchor="middle" x="2050" y="-556.8" font-family="Times,serif" font-size="14.00">roo_icons</text>
<text text-anchor="middle" x="2050" y="-541.8" font-family="Times,serif" font-size="14.00">1.2.1</text>
</g>
<!-- roo_icons&#45;&gt;roo_display -->
<g id="edge26" class="edge">
<title>roo_icons&#45;&gt;roo_display</title>
<path fill="none" stroke="black" d="M2056.75,-533.88C2061.83,-520.22 2068.89,-501.26 2074.68,-485.71"/>
<polygon fill="black" stroke="black" points="2078.06,-486.66 2078.27,-476.07 2071.5,-484.22 2078.06,-486.66"/>
</g>
<!-- roo_icons&#45;&gt;roo_testing -->
<g id="edge25" class="edge">
<title>roo_icons&#45;&gt;roo_testing</title>
<path fill="none" stroke="red" d="M2091.85,-537.03C2151.02,-515.25 2252,-475.5 2252,-458 2252,-458 2252,-458 2252,-312 2252,-282.01 2257.43,-274.73 2266,-246 2268.45,-237.77 2271.42,-236.44 2273,-228 2274.8,-218.39 2274.87,-215.6 2273,-206 2261,-144.35 2267.33,-116.28 2220,-75 2176.53,-37.09 1786.91,-24.58 1636.18,-21.14"/>
<polygon fill="red" stroke="red" points="1635.82,-17.63 1625.74,-20.91 1635.66,-24.63 1635.82,-17.63"/>
<text text-anchor="middle" x="2299" y="-268" font-family="Times,serif" font-size="10.00" fill="red">1.1.7</text>
<text text-anchor="middle" x="2299" y="-257" font-family="Times,serif" font-size="10.00" fill="red">(latest: 1.2.0)</text>
</g>
<!-- roo_io&#45;&gt;roo_logging -->
<g id="edge27" class="edge">
<title>roo_io&#45;&gt;roo_logging</title>
<path fill="none" stroke="black" d="M1693.45,-347.62C1662.03,-334.83 1610.68,-314.95 1565,-302 1526.56,-291.1 1482.53,-282.13 1448.01,-275.87"/>
<polygon fill="black" stroke="black" points="1448.53,-272.41 1438.07,-274.1 1447.3,-279.3 1448.53,-272.41"/>
</g>
<!-- roo_locale -->
<g id="node11" class="node">
<title>roo_locale</title>
<polygon fill="#b1dbab" stroke="black" points="2198,-572 2110,-572 2110,-534 2198,-534 2198,-572"/>
<text text-anchor="middle" x="2154" y="-556.8" font-family="Times,serif" font-size="14.00">roo_locale</text>
<text text-anchor="middle" x="2154" y="-541.8" font-family="Times,serif" font-size="14.00">1.1.1</text>
</g>
<!-- roo_logging&#45;&gt;roo_backport -->
<g id="edge28" class="edge">
<title>roo_logging&#45;&gt;roo_backport</title>
<path fill="none" stroke="black" d="M1430.91,-245.91C1504.98,-214.7 1656.56,-150.81 1736.69,-117.05"/>
<polygon fill="black" stroke="black" points="1738.24,-120.19 1746.09,-113.08 1735.52,-113.74 1738.24,-120.19"/>
</g>
<!-- roo_logging&#45;&gt;roo_flags -->
<g id="edge29" class="edge">
<title>roo_logging&#45;&gt;roo_flags</title>
<path fill="none" stroke="black" d="M1411.33,-245.88C1430.25,-231.18 1457.08,-210.34 1477.83,-194.21"/>
<polygon fill="black" stroke="black" points="1479.99,-196.97 1485.74,-188.07 1475.7,-191.44 1479.99,-196.97"/>
</g>
<!-- roo_logging&#45;&gt;roo_threads -->
<g id="edge30" class="edge">
<title>roo_logging&#45;&gt;roo_threads</title>
<path fill="none" stroke="black" d="M1351.04,-245.86C1321.49,-232.29 1278.6,-214.64 1239,-206 1134.61,-183.22 818.57,-174.07 684.82,-171.15"/>
<polygon fill="black" stroke="black" points="684.82,-167.65 674.75,-170.93 684.67,-174.65 684.82,-167.65"/>
</g>
<!-- roo_onewire -->
<g id="node13" class="node">
<title>roo_onewire</title>
<polygon fill="#b1dbab" stroke="black" points="1077,-476 973,-476 973,-438 1077,-438 1077,-476"/>
<text text-anchor="middle" x="1025" y="-460.8" font-family="Times,serif" font-size="14.00">roo_onewire</text>
<text text-anchor="middle" x="1025" y="-445.8" font-family="Times,serif" font-size="14.00">2.0.7</text>
</g>
<!-- roo_onewire&#45;&gt;roo_quantity -->
<g id="edge32" class="edge">
<title>roo_onewire&#45;&gt;roo_quantity</title>
<path fill="none" stroke="black" d="M1036.95,-437.88C1046.13,-423.96 1058.95,-404.53 1069.31,-388.82"/>
<polygon fill="black" stroke="black" points="1072.5,-390.34 1075.08,-380.07 1066.65,-386.49 1072.5,-390.34"/>
</g>
<!-- roo_onewire&#45;&gt;roo_scheduler -->
<g id="edge31" class="edge">
<title>roo_onewire&#45;&gt;roo_scheduler</title>
<path fill="none" stroke="black" d="M972.59,-443.24C959,-437.89 945.31,-430.4 935,-420 895.37,-380.02 924.46,-345.72 889,-302 885.54,-297.73 881.44,-293.8 877.06,-290.22"/>
<polygon fill="black" stroke="black" points="879.06,-287.35 868.95,-284.18 874.87,-292.96 879.06,-287.35"/>
</g>
<!-- roo_prefs&#45;&gt;roo_logging -->
<g id="edge33" class="edge">
<title>roo_prefs&#45;&gt;roo_logging</title>
<path fill="none" stroke="black" d="M1350.06,-341.88C1356.95,-328.09 1366.55,-308.9 1374.37,-293.26"/>
<polygon fill="black" stroke="black" points="1377.62,-294.58 1378.97,-284.07 1371.36,-291.45 1377.62,-294.58"/>
</g>
<!-- roo_prefs&#45;&gt;roo_scheduler -->
<g id="edge34" class="edge">
<title>roo_prefs&#45;&gt;roo_scheduler</title>
<path fill="none" stroke="black" d="M1299.29,-345.87C1294.5,-344.46 1289.66,-343.14 1285,-342 1150.92,-309.33 991.02,-285.99 902.16,-274.37"/>
<polygon fill="black" stroke="black" points="902.58,-270.9 892.21,-273.08 901.68,-277.84 902.58,-270.9"/>
</g>
<!-- roo_quantity&#45;&gt;roo_logging -->
<g id="edge35" class="edge">
<title>roo_quantity&#45;&gt;roo_logging</title>
<path fill="none" stroke="black" d="M1118.95,-341.97C1142.83,-329.17 1176.62,-312.47 1208,-302 1246.93,-289 1292.25,-279.97 1327.67,-274.21"/>
<polygon fill="black" stroke="black" points="1328.53,-277.61 1337.86,-272.59 1327.43,-270.7 1328.53,-277.61"/>
</g>
<!-- roo_scheduler&#45;&gt;roo_collections -->
<g id="edge36" class="edge">
<title>roo_scheduler&#45;&gt;roo_collections</title>
<path fill="none" stroke="black" d="M892.04,-259.14C970.7,-252.49 1115.52,-240 1239,-228 1411.02,-211.29 1613.06,-189.4 1717.85,-177.88"/>
<polygon fill="black" stroke="black" points="1718.43,-181.34 1727.99,-176.76 1717.67,-174.38 1718.43,-181.34"/>
</g>
<!-- roo_scheduler&#45;&gt;roo_threads -->
<g id="edge37" class="edge">
<title>roo_scheduler&#45;&gt;roo_threads</title>
<path fill="none" stroke="black" d="M793.51,-245.88C759.37,-230.6 710.39,-208.67 673.84,-192.31"/>
<polygon fill="black" stroke="black" points="674.92,-188.96 664.37,-188.07 672.06,-195.35 674.92,-188.96"/>
</g>
<!-- roo_threads&#45;&gt;roo_time -->
<g id="edge38" class="edge">
<title>roo_threads&#45;&gt;roo_time</title>
<path fill="none" stroke="black" d="M573.45,-151.53C536.26,-139.41 485.97,-123.02 449.12,-111.01"/>
<polygon fill="black" stroke="black" points="450.17,-107.67 439.58,-107.9 448,-114.32 450.17,-107.67"/>
</g>
<!-- roo_time&#45;&gt;roo_testing -->
<g id="edge39" class="edge">
<title>roo_time&#45;&gt;roo_testing</title>
<path fill="none" stroke="black" d="M439.58,-79.13C465.29,-70.79 499.71,-60.88 531,-56 723.37,-25.97 1326.7,-20.99 1518.11,-20.16"/>
<polygon fill="black" stroke="black" points="1518.27,-23.66 1528.25,-20.12 1518.24,-16.66 1518.27,-23.66"/>
</g>
<!-- roo_time_ds3231 -->
<g id="node20" class="node">
<title>roo_time_ds3231</title>
<polygon fill="#b1dbab" stroke="black" points="517,-188 379,-188 379,-150 517,-150 517,-188"/>
<text text-anchor="middle" x="448" y="-172.8" font-family="Times,serif" font-size="14.00">roo_time_ds3231</text>
<text text-anchor="middle" x="448" y="-157.8" font-family="Times,serif" font-size="14.00">1.1.4</text>
</g>
<!-- roo_time_ds3231&#45;&gt;roo_time -->
<g id="edge40" class="edge">
<title>roo_time_ds3231&#45;&gt;roo_time</title>
<path fill="none" stroke="black" d="M436.13,-149.96C430.54,-141.44 423.75,-131.12 417.57,-121.72"/>
<polygon fill="black" stroke="black" points="420.31,-119.52 411.9,-113.09 414.46,-123.37 420.31,-119.52"/>
</g>
<!-- roo_transceivers&#45;&gt;roo_collections -->
<g id="edge42" class="edge">
<title>roo_transceivers&#45;&gt;roo_collections</title>
<path fill="none" stroke="red" d="M612.46,-437.7C614.17,-406.44 621.79,-342.26 655,-302 690.41,-259.07 713.58,-261.61 767,-246 936.18,-196.57 1382.08,-198.7 1558,-188 1611.57,-184.74 1672.04,-179.99 1717.67,-176.19"/>
<polygon fill="red" stroke="red" points="1718.09,-179.67 1727.76,-175.34 1717.5,-172.69 1718.09,-179.67"/>
<text text-anchor="middle" x="688" y="-316" font-family="Times,serif" font-size="10.00" fill="red">1.3.2</text>
<text text-anchor="middle" x="688" y="-305" font-family="Times,serif" font-size="10.00" fill="red">(latest: 1.4.0)</text>
</g>
<!-- roo_transceivers&#45;&gt;roo_logging -->
<g id="edge43" class="edge">
<title>roo_transceivers&#45;&gt;roo_logging</title>
<path fill="none" stroke="red" d="M626.46,-437.73C649.9,-408.61 695.79,-353.76 718,-342 823.08,-286.37 1183.22,-271.17 1327.51,-267.27"/>
<polygon fill="red" stroke="red" points="1327.61,-270.77 1337.52,-267.01 1327.43,-263.77 1327.61,-270.77"/>
<text text-anchor="middle" x="751" y="-364" font-family="Times,serif" font-size="10.00" fill="red">1.4.3</text>
<text text-anchor="middle" x="751" y="-353" font-family="Times,serif" font-size="10.00" fill="red">(latest: 1.5.1)</text>
</g>
<!-- roo_transceivers&#45;&gt;roo_prefs -->
<g id="edge44" class="edge">
<title>roo_transceivers&#45;&gt;roo_prefs</title>
<path fill="none" stroke="red" d="M679.56,-444.59C759.1,-431.55 895.3,-410.39 1013,-398 1133.49,-385.32 1165.99,-402.71 1285,-380 1286.47,-379.72 1287.96,-379.41 1289.46,-379.08"/>
<polygon fill="red" stroke="red" points="1290.54,-382.42 1299.4,-376.6 1288.85,-375.63 1290.54,-382.42"/>
<text text-anchor="middle" x="1046" y="-412" font-family="Times,serif" font-size="10.00" fill="red">1.2.3</text>
<text text-anchor="middle" x="1046" y="-401" font-family="Times,serif" font-size="10.00" fill="red">(latest: 1.2.7)</text>
</g>
<!-- roo_transceivers&#45;&gt;roo_testing -->
<g id="edge41" class="edge">
<title>roo_transceivers&#45;&gt;roo_testing</title>
<path fill="none" stroke="red" d="M597.86,-437.62C580.07,-413.23 550.46,-368.1 539,-324 519.34,-248.39 498.38,-192.41 564,-150 723.66,-46.81 1326.57,-25.28 1518.17,-21.01"/>
<polygon fill="red" stroke="red" points="1518.4,-24.5 1528.32,-20.79 1518.25,-17.5 1518.4,-24.5"/>
<text text-anchor="middle" x="555" y="-220" font-family="Times,serif" font-size="10.00" fill="red">1.1.8</text>
<text text-anchor="middle" x="555" y="-209" font-family="Times,serif" font-size="10.00" fill="red">(latest: 1.2.0)</text>
</g>
<!-- roo_transceivers&#45;&gt;roo_threads -->
<g id="edge45" class="edge">
<title>roo_transceivers&#45;&gt;roo_threads</title>
<path fill="none" stroke="red" d="M606.61,-437.95C599.11,-414.54 584.03,-373.03 563,-342 556.65,-332.63 549.33,-334.45 545,-324 541.26,-314.97 541.14,-310.98 545,-302 549.6,-291.31 556.97,-293.27 564,-284 584.66,-256.74 602.05,-221.37 612.7,-197.3"/>
<polygon fill="red" stroke="red" points="615.94,-198.62 616.71,-188.05 609.52,-195.83 615.94,-198.62"/>
<text text-anchor="middle" x="578" y="-316" font-family="Times,serif" font-size="10.00" fill="red">1.1.6</text>
<text text-anchor="middle" x="578" y="-305" font-family="Times,serif" font-size="10.00" fill="red">(latest: 1.2.0)</text>
</g>
<!-- roo_transceivers&#45;&gt;roo_time -->
<g id="edge46" class="edge">
<title>roo_transceivers&#45;&gt;roo_time</title>
<path fill="none" stroke="red" d="M544.43,-441.87C506.99,-430.82 462.24,-411.82 433,-380 372.23,-313.87 384.18,-276.68 370,-188 367.33,-171.32 365.83,-166.37 370,-150 372.45,-140.4 376.95,-130.67 381.73,-122.12"/>
<polygon fill="red" stroke="red" points="384.84,-123.75 386.96,-113.36 378.83,-120.16 384.84,-123.75"/>
<text text-anchor="middle" x="416" y="-268" font-family="Times,serif" font-size="10.00" fill="red">1.3.3</text>
<text text-anchor="middle" x="416" y="-257" font-family="Times,serif" font-size="10.00" fill="red">(latest: 1.4.0)</text>
</g>
<!-- roo_transport -->
<g id="node22" class="node">
<title>roo_transport</title>
<polygon fill="plum" stroke="black" points="1601,-476 1487,-476 1487,-438 1601,-438 1601,-476"/>
<text text-anchor="middle" x="1544" y="-460.8" font-family="Times,serif" font-size="14.00">roo_transport</text>
<text text-anchor="middle" x="1544" y="-445.8" font-family="Times,serif" font-size="14.00">1.0.2</text>
</g>
<!-- roo_transport&#45;&gt;roo_collections -->
<g id="edge48" class="edge">
<title>roo_transport&#45;&gt;roo_collections</title>
<path fill="none" stroke="red" d="M1559.81,-437.94C1569.86,-426.48 1583.17,-411.34 1595,-398 1640.11,-347.14 1652.97,-335.8 1697,-284 1722.23,-254.31 1750.21,-219.34 1768.61,-196.03"/>
<polygon fill="red" stroke="red" points="1771.5,-198.02 1774.93,-188 1766,-193.69 1771.5,-198.02"/>
<text text-anchor="middle" x="1715" y="-316" font-family="Times,serif" font-size="10.00" fill="red">1.3.2</text>
<text text-anchor="middle" x="1715" y="-305" font-family="Times,serif" font-size="10.00" fill="red">(latest: 1.4.0)</text>
</g>
<!-- roo_transport&#45;&gt;roo_io -->
<g id="edge49" class="edge">
<title>roo_transport&#45;&gt;roo_io</title>
<path fill="none" stroke="red" d="M1569.21,-437.89C1586.83,-425.7 1611.21,-409.77 1634,-398 1653.14,-388.12 1659.03,-388.08 1679,-380 1680.58,-379.36 1682.19,-378.71 1683.81,-378.05"/>
<polygon fill="red" stroke="red" points="1685.25,-381.24 1693.19,-374.23 1682.61,-374.76 1685.25,-381.24"/>
<text text-anchor="middle" x="1667" y="-412" font-family="Times,serif" font-size="10.00" fill="red">2.0.3</text>
<text text-anchor="middle" x="1667" y="-401" font-family="Times,serif" font-size="10.00" fill="red">(latest: 2.1.1)</text>
</g>
<!-- roo_transport&#45;&gt;roo_logging -->
<g id="edge50" class="edge">
<title>roo_transport&#45;&gt;roo_logging</title>
<path fill="none" stroke="red" d="M1524.09,-437.75C1508.62,-423.01 1487.15,-401.28 1471,-380 1446.67,-347.94 1449.86,-333.65 1425,-302 1422.18,-298.41 1419.02,-294.83 1415.77,-291.39"/>
<polygon fill="red" stroke="red" points="1418.12,-288.79 1408.59,-284.15 1413.15,-293.72 1418.12,-288.79"/>
<text text-anchor="middle" x="1504" y="-364" font-family="Times,serif" font-size="10.00" fill="red">1.4.3</text>
<text text-anchor="middle" x="1504" y="-353" font-family="Times,serif" font-size="10.00" fill="red">(latest: 1.5.1)</text>
</g>
<!-- roo_transport&#45;&gt;roo_testing -->
<g id="edge47" class="edge">
<title>roo_transport&#45;&gt;roo_testing</title>
<path fill="none" stroke="red" d="M1549.3,-437.84C1558.63,-404.24 1577,-329.95 1577,-266 1577,-266 1577,-266 1577,-93 1577,-78.3 1577,-61.93 1577,-48.43"/>
<polygon fill="red" stroke="red" points="1580.5,-48.3 1577,-38.3 1573.5,-48.3 1580.5,-48.3"/>
<text text-anchor="middle" x="1610" y="-220" font-family="Times,serif" font-size="10.00" fill="red">1.1.8</text>
<text text-anchor="middle" x="1610" y="-209" font-family="Times,serif" font-size="10.00" fill="red">(latest: 1.2.0)</text>
</g>
<!-- roo_transport&#45;&gt;roo_threads -->
<g id="edge51" class="edge">
<title>roo_transport&#45;&gt;roo_threads</title>
<path fill="none" stroke="red" d="M1541.06,-437.73C1540.25,-432.06 1539.47,-425.79 1539,-420 1538.65,-415.68 1539.4,-345.61 1537,-342 1526.21,-325.77 1511.76,-336.73 1497,-324 1465.82,-297.1 1480.44,-270.02 1447,-246 1387.47,-203.24 1359.48,-216.93 1287,-206 1067.09,-172.85 802.09,-169.22 684.86,-169.44"/>
<polygon fill="red" stroke="red" points="684.64,-165.94 674.65,-169.47 684.66,-172.94 684.64,-165.94"/>
<text text-anchor="middle" x="1530" y="-316" font-family="Times,serif" font-size="10.00" fill="red">1.1.6</text>
<text text-anchor="middle" x="1530" y="-305" font-family="Times,serif" font-size="10.00" fill="red">(latest: 1.2.0)</text>
</g>
<!-- roo_wifi -->
<g id="node23" class="node">
<title>roo_wifi</title>
<polygon fill="plum" stroke="black" points="2224,-476 2152,-476 2152,-438 2224,-438 2224,-476"/>
<text text-anchor="middle" x="2188" y="-460.8" font-family="Times,serif" font-size="14.00">roo_wifi</text>
<text text-anchor="middle" x="2188" y="-445.8" font-family="Times,serif" font-size="14.00">1.1.2</text>
</g>
<!-- roo_wifi&#45;&gt;roo_collections -->
<g id="edge53" class="edge">
<title>roo_wifi&#45;&gt;roo_collections</title>
<path fill="none" stroke="red" d="M2167.55,-437.98C2139.89,-413.25 2089.46,-366.98 2050,-324 2004.47,-274.4 2012.28,-241.38 1955,-206 1926.82,-188.6 1891.42,-179.54 1860.56,-174.85"/>
<polygon fill="red" stroke="red" points="1860.67,-171.33 1850.28,-173.42 1859.7,-178.26 1860.67,-171.33"/>
<text text-anchor="middle" x="2083" y="-316" font-family="Times,serif" font-size="10.00" fill="red">1.3.2</text>
<text text-anchor="middle" x="2083" y="-305" font-family="Times,serif" font-size="10.00" fill="red">(latest: 1.4.0)</text>
</g>
<!-- roo_wifi&#45;&gt;roo_prefs -->
<g id="edge54" class="edge">
<title>roo_wifi&#45;&gt;roo_prefs</title>
<path fill="none" stroke="red" d="M2151.97,-440.42C2148.97,-439.49 2145.96,-438.66 2143,-438 2006.11,-407.56 1967.28,-436.28 1828,-420 1772.41,-413.5 1759.56,-404.77 1704,-398 1585.06,-383.51 1553.84,-395.3 1435,-380 1421.34,-378.24 1406.68,-375.74 1393.09,-373.15"/>
<polygon fill="red" stroke="red" points="1393.42,-369.65 1382.94,-371.17 1392.08,-376.52 1393.42,-369.65"/>
<text text-anchor="middle" x="1861" y="-412" font-family="Times,serif" font-size="10.00" fill="red">1.2.3</text>
<text text-anchor="middle" x="1861" y="-401" font-family="Times,serif" font-size="10.00" fill="red">(latest: 1.2.7)</text>
</g>
<!-- roo_wifi&#45;&gt;roo_testing -->
<g id="edge52" class="edge">
<title>roo_wifi&#45;&gt;roo_testing</title>
<path fill="none" stroke="red" d="M2193.6,-437.83C2198.88,-419.03 2206,-388.75 2206,-362 2206,-362 2206,-362 2206,-93 2206,-35.94 1792.34,-23.42 1635.94,-20.72"/>
<polygon fill="red" stroke="red" points="1635.63,-17.22 1625.57,-20.55 1635.51,-24.22 1635.63,-17.22"/>
<text text-anchor="middle" x="2239" y="-220" font-family="Times,serif" font-size="10.00" fill="red">1.1.8</text>
<text text-anchor="middle" x="2239" y="-209" font-family="Times,serif" font-size="10.00" fill="red">(latest: 1.2.0)</text>
</g>
<!-- roo_windows&#45;&gt;roo_collections -->
<g id="edge56" class="edge">
<title>roo_windows&#45;&gt;roo_collections</title>
<path fill="none" stroke="red" d="M1903.96,-629.96C1935.78,-591.71 2000.55,-500.85 1958,-438 1945.92,-420.16 1928.3,-435.16 1913,-420 1886.39,-393.62 1896.97,-375.9 1881,-342 1856.27,-289.49 1823.42,-230.2 1804.4,-196.74"/>
<polygon fill="red" stroke="red" points="1807.42,-194.97 1799.42,-188.02 1801.34,-198.44 1807.42,-194.97"/>
<text text-anchor="middle" x="1946" y="-412" font-family="Times,serif" font-size="10.00" fill="red">1.3.2</text>
<text text-anchor="middle" x="1946" y="-401" font-family="Times,serif" font-size="10.00" fill="red">(latest: 1.4.0)</text>
</g>
<!-- roo_windows&#45;&gt;roo_icons -->
<g id="edge59" class="edge">
<title>roo_windows&#45;&gt;roo_icons</title>
<path fill="none" stroke="black" d="M1942.7,-633.85C1958.93,-628.37 1976.28,-621.16 1991,-612 2004.97,-603.31 2018.25,-590.78 2028.67,-579.59"/>
<polygon fill="black" stroke="black" points="2031.3,-581.89 2035.39,-572.12 2026.1,-577.21 2031.3,-581.89"/>
</g>
<!-- roo_windows&#45;&gt;roo_io -->
<g id="edge60" class="edge">
<title>roo_windows&#45;&gt;roo_io</title>
<path fill="none" stroke="red" d="M1876.63,-629.78C1860.91,-604.44 1831.76,-557.05 1808,-516 1782.49,-471.93 1754.15,-419.93 1737.49,-389.03"/>
<polygon fill="red" stroke="red" points="1740.53,-387.3 1732.71,-380.15 1734.37,-390.62 1740.53,-387.3"/>
<text text-anchor="middle" x="1841" y="-508" font-family="Times,serif" font-size="10.00" fill="red">2.0.2</text>
<text text-anchor="middle" x="1841" y="-497" font-family="Times,serif" font-size="10.00" fill="red">(latest: 2.1.1)</text>
</g>
<!-- roo_windows&#45;&gt;roo_locale -->
<g id="edge57" class="edge">
<title>roo_windows&#45;&gt;roo_locale</title>
<path fill="none" stroke="black" d="M1942.58,-634.62C1966.01,-628.42 1993.57,-620.55 2018,-612 2047.89,-601.54 2080.55,-587.7 2106.37,-576.16"/>
<polygon fill="black" stroke="black" points="2107.87,-579.32 2115.56,-572.02 2105,-572.93 2107.87,-579.32"/>
</g>
<!-- roo_windows&#45;&gt;roo_logging -->
<g id="edge58" class="edge">
<title>roo_windows&#45;&gt;roo_logging</title>
<path fill="none" stroke="red" d="M1888.86,-629.94C1891.28,-571.05 1895.78,-385.85 1859,-342 1825.84,-302.46 1800.3,-313.53 1750,-302 1721.42,-295.45 1543.76,-279.45 1448.39,-271.17"/>
<polygon fill="red" stroke="red" points="1448.57,-267.67 1438.3,-270.29 1447.96,-274.64 1448.57,-267.67"/>
<text text-anchor="middle" x="1921" y="-460" font-family="Times,serif" font-size="10.00" fill="red">1.4.2</text>
<text text-anchor="middle" x="1921" y="-449" font-family="Times,serif" font-size="10.00" fill="red">(latest: 1.5.1)</text>
</g>
<!-- roo_windows&#45;&gt;roo_scheduler -->
<g id="edge61" class="edge">
<title>roo_windows&#45;&gt;roo_scheduler</title>
<path fill="none" stroke="red" d="M1833.16,-647.44C1565.5,-644.35 409,-626.8 409,-554 409,-554 409,-554 409,-408 409,-364.59 441.22,-359.38 481,-342 570.49,-302.89 609.09,-359.68 700,-324 714.73,-318.22 714.09,-309.54 728,-302 739.96,-295.52 753.31,-289.89 766.39,-285.13"/>
<polygon fill="red" stroke="red" points="767.56,-288.43 775.84,-281.82 765.25,-281.82 767.56,-288.43"/>
<text text-anchor="middle" x="442" y="-460" font-family="Times,serif" font-size="10.00" fill="red">2.1.4</text>
<text text-anchor="middle" x="442" y="-449" font-family="Times,serif" font-size="10.00" fill="red">(latest: 2.1.6)</text>
</g>
<!-- roo_windows&#45;&gt;roo_testing -->
<g id="edge55" class="edge">
<title>roo_windows&#45;&gt;roo_testing</title>
<path fill="none" stroke="red" d="M1942.63,-648.66C2011.52,-646.69 2130.2,-633.66 2207,-572 2338.81,-466.18 2346,-387.03 2346,-218 2346,-218 2346,-218 2346,-93 2346,-21.71 1815.53,-18.49 1635.75,-19.44"/>
<polygon fill="red" stroke="red" points="1635.67,-15.94 1625.69,-19.5 1635.71,-22.94 1635.67,-15.94"/>
<text text-anchor="middle" x="2377" y="-316" font-family="Times,serif" font-size="10.00" fill="red">1.1.7</text>
<text text-anchor="middle" x="2377" y="-305" font-family="Times,serif" font-size="10.00" fill="red">(latest: 1.2.0)</text>
</g>
<!-- roo_windows&#45;&gt;roo_time -->
<g id="edge62" class="edge">
<title>roo_windows&#45;&gt;roo_time</title>
<path fill="none" stroke="red" d="M1833.39,-647.78C1613.28,-646.71 790.63,-640.82 532,-612 400.07,-597.3 239,-686.75 239,-554 239,-554 239,-554 239,-168 239,-118.54 302.82,-102.42 350.09,-97.27"/>
<polygon fill="red" stroke="red" points="350.58,-100.74 360.2,-96.3 349.91,-93.77 350.58,-100.74"/>
<text text-anchor="middle" x="272" y="-364" font-family="Times,serif" font-size="10.00" fill="red">1.3.2</text>
<text text-anchor="middle" x="272" y="-353" font-family="Times,serif" font-size="10.00" fill="red">(latest: 1.4.0)</text>
</g>
<!-- roo_windows_wifi -->
<g id="node25" class="node">
<title>roo_windows_wifi</title>
<polygon fill="plum" stroke="black" points="1958.5,-743 1817.5,-743 1817.5,-705 1958.5,-705 1958.5,-743"/>
<text text-anchor="middle" x="1888" y="-727.8" font-family="Times,serif" font-size="14.00">roo_windows_wifi</text>
<text text-anchor="middle" x="1888" y="-712.8" font-family="Times,serif" font-size="14.00">1.1.2</text>
</g>
<!-- roo_windows_wifi&#45;&gt;roo_testing -->
<g id="edge63" class="edge">
<title>roo_windows_wifi&#45;&gt;roo_testing</title>
<path fill="none" stroke="red" d="M1817.46,-721.93C1490.36,-716.77 137,-692.8 137,-650 137,-650 137,-650 137,-93 137,-22.64 1247.97,-19.56 1518.26,-19.85"/>
<polygon fill="red" stroke="red" points="1518.26,-23.35 1528.26,-19.87 1518.27,-16.35 1518.26,-23.35"/>
<text text-anchor="middle" x="170" y="-364" font-family="Times,serif" font-size="10.00" fill="red">1.1.7</text>
<text text-anchor="middle" x="170" y="-353" font-family="Times,serif" font-size="10.00" fill="red">(latest: 1.2.0)</text>
</g>
<!-- roo_windows_wifi&#45;&gt;roo_wifi -->
<g id="edge64" class="edge">
<title>roo_windows_wifi&#45;&gt;roo_wifi</title>
<path fill="none" stroke="red" d="M1958.73,-711.93C2034.97,-695.8 2152.68,-657.81 2207,-572 2223.58,-545.81 2213.23,-509.71 2202.41,-485.2"/>
<polygon fill="red" stroke="red" points="2205.56,-483.67 2198.14,-476.11 2199.22,-486.65 2205.56,-483.67"/>
<text text-anchor="middle" x="2225" y="-604" font-family="Times,serif" font-size="10.00" fill="red">1.1.1</text>
<text text-anchor="middle" x="2225" y="-593" font-family="Times,serif" font-size="10.00" fill="red">(latest: 1.1.2)</text>
</g>
<!-- roo_windows_wifi&#45;&gt;roo_windows -->
<g id="edge65" class="edge">
<title>roo_windows_wifi&#45;&gt;roo_windows</title>
<path fill="none" stroke="black" d="M1888,-704.96C1888,-696.88 1888,-687.18 1888,-678.18"/>
<polygon fill="black" stroke="black" points="1891.5,-678.09 1888,-668.09 1884.5,-678.09 1891.5,-678.09"/>
</g>
</g>
</svg>
