<?xml version="1.0" encoding="UTF-8" standalone="no"?>
<!DOCTYPE svg PUBLIC "-//W3C//DTD SVG 1.1//EN"
 "http://www.w3.org/Graphics/SVG/1.1/DTD/svg11.dtd">
<!-- Generated by graphviz version 2.42.4 (0)
 -->
<!-- Title: dependencies Pages: 1 -->
<svg width="831pt" height="751pt"
 viewBox="0.00 0.00 830.50 751.00" xmlns="http://www.w3.org/2000/svg" xmlns:xlink="http://www.w3.org/1999/xlink">
<g id="graph0" class="graph" transform="scale(1 1) rotate(0) translate(4 747)">
<title>dependencies</title>
<polygon fill="white" stroke="transparent" points="-4,4 -4,-747 826.5,-747 826.5,4 -4,4"/>
<!-- roo_backport -->
<g id="node1" class="node">
<title>roo_backport</title>
<polygon fill="#b1dbab" stroke="black" points="450.5,-188 361.5,-188 361.5,-150 450.5,-150 450.5,-188"/>
<text text-anchor="middle" x="406" y="-172.8" font-family="Times,serif" font-size="14.00">roo_backport</text>
<text text-anchor="middle" x="406" y="-157.8" font-family="Times,serif" font-size="14.00">1.2.1</text>
</g>
<!-- roo_blink -->
<g id="node2" class="node">
<title>roo_blink</title>
<polygon fill="#b1dbab" stroke="black" points="167.5,-551 98.5,-551 98.5,-513 167.5,-513 167.5,-551"/>
<text text-anchor="middle" x="133" y="-535.8" font-family="Times,serif" font-size="14.00">roo_blink</text>
<text text-anchor="middle" x="133" y="-520.8" font-family="Times,serif" font-size="14.00">1.0.5</text>
</g>
<!-- roo_logging -->
<g id="node13" class="node">
<title>roo_logging</title>
<polygon fill="#b1dbab" stroke="black" points="332.5,-263 249.5,-263 249.5,-225 332.5,-225 332.5,-263"/>
<text text-anchor="middle" x="291" y="-247.8" font-family="Times,serif" font-size="14.00">roo_logging</text>
<text text-anchor="middle" x="291" y="-232.8" font-family="Times,serif" font-size="14.00">1.5.3</text>
</g>
<!-- roo_blink&#45;&gt;roo_logging -->
<g id="edge1" class="edge">
<title>roo_blink&#45;&gt;roo_logging</title>
<path fill="none" stroke="black" d="M138.48,-512.68C145.67,-489.69 159.36,-449.35 176,-417 204.05,-362.46 245.84,-304.16 270.56,-271.38"/>
<polygon fill="black" stroke="black" points="273.5,-273.3 276.76,-263.22 267.92,-269.07 273.5,-273.3"/>
</g>
<!-- roo_scheduler -->
<g id="node19" class="node">
<title>roo_scheduler</title>
<polygon fill="#b1dbab" stroke="black" points="278.5,-455 185.5,-455 185.5,-417 278.5,-417 278.5,-455"/>
<text text-anchor="middle" x="232" y="-439.8" font-family="Times,serif" font-size="14.00">roo_scheduler</text>
<text text-anchor="middle" x="232" y="-424.8" font-family="Times,serif" font-size="14.00">2.1.7</text>
</g>
<!-- roo_blink&#45;&gt;roo_scheduler -->
<g id="edge2" class="edge">
<title>roo_blink&#45;&gt;roo_scheduler</title>
<path fill="none" stroke="black" d="M152.09,-512.88C167.29,-498.44 188.74,-478.07 205.59,-462.07"/>
<polygon fill="black" stroke="black" points="208.13,-464.49 212.97,-455.07 203.31,-459.42 208.13,-464.49"/>
</g>
<!-- roo_collections -->
<g id="node3" class="node">
<title>roo_collections</title>
<polygon fill="#b1dbab" stroke="black" points="542,-359 442,-359 442,-321 542,-321 542,-359"/>
<text text-anchor="middle" x="492" y="-343.8" font-family="Times,serif" font-size="14.00">roo_collections</text>
<text text-anchor="middle" x="492" y="-328.8" font-family="Times,serif" font-size="14.00">1.4.1</text>
</g>
<!-- roo_collections&#45;&gt;roo_backport -->
<g id="edge3" class="edge">
<title>roo_collections&#45;&gt;roo_backport</title>
<path fill="none" stroke="black" d="M482.8,-320.91C467.71,-291.26 437.61,-232.12 419.91,-197.33"/>
<polygon fill="black" stroke="black" points="422.92,-195.54 415.27,-188.21 416.68,-198.71 422.92,-195.54"/>
</g>
<!-- roo_comms -->
<g id="node4" class="node">
<title>roo_comms</title>
<polygon fill="#b1dbab" stroke="red" points="277,-743 195,-743 195,-705 277,-705 277,-743"/>
<text text-anchor="middle" x="236" y="-727.8" font-family="Times,serif" font-size="14.00">roo_comms</text>
<text text-anchor="middle" x="236" y="-712.8" font-family="Times,serif" font-size="14.00">1.1.3</text>
</g>
<!-- roo_comms&#45;&gt;roo_blink -->
<g id="edge4" class="edge">
<title>roo_comms&#45;&gt;roo_blink</title>
<path fill="none" stroke="red" d="M226.12,-704.78C207.97,-671.3 169.22,-599.82 147.88,-560.44"/>
<polygon fill="red" stroke="red" points="150.69,-558.29 142.85,-551.16 144.54,-561.62 150.69,-558.29"/>
<text text-anchor="middle" x="222" y="-631" font-family="Times,serif" font-size="10.00" fill="red">1.0.4</text>
<text text-anchor="middle" x="222" y="-620" font-family="Times,serif" font-size="10.00" fill="red">(latest: 1.0.5)</text>
</g>
<!-- roo_control -->
<g id="node5" class="node">
<title>roo_control</title>
<polygon fill="#b1dbab" stroke="black" points="80,-551 0,-551 0,-513 80,-513 80,-551"/>
<text text-anchor="middle" x="40" y="-535.8" font-family="Times,serif" font-size="14.00">roo_control</text>
<text text-anchor="middle" x="40" y="-520.8" font-family="Times,serif" font-size="14.00">1.2.4</text>
</g>
<!-- roo_comms&#45;&gt;roo_control -->
<g id="edge5" class="edge">
<title>roo_comms&#45;&gt;roo_control</title>
<path fill="none" stroke="red" d="M199.71,-704.94C174.62,-691.29 141.49,-670.87 117,-647 90.46,-621.13 67.8,-584.74 54.07,-560.08"/>
<polygon fill="red" stroke="red" points="57.12,-558.36 49.26,-551.25 50.97,-561.71 57.12,-558.36"/>
<text text-anchor="middle" x="144" y="-631" font-family="Times,serif" font-size="10.00" fill="red">1.2.3</text>
<text text-anchor="middle" x="144" y="-620" font-family="Times,serif" font-size="10.00" fill="red">(latest: 1.2.4)</text>
</g>
<!-- roo_io -->
<g id="node10" class="node">
<title>roo_io</title>
<polygon fill="khaki" stroke="red" points="384,-359 330,-359 330,-321 384,-321 384,-359"/>
<text text-anchor="middle" x="357" y="-343.8" font-family="Times,serif" font-size="14.00">roo_io</text>
<text text-anchor="middle" x="357" y="-328.8" font-family="Times,serif" font-size="14.00">2.1.2</text>
</g>
<!-- roo_comms&#45;&gt;roo_io -->
<g id="edge6" class="edge">
<title>roo_comms&#45;&gt;roo_io</title>
<path fill="none" stroke="red" d="M241.75,-704.83C261.22,-643.37 324.7,-442.96 348.17,-368.87"/>
<polygon fill="red" stroke="red" points="351.53,-369.87 351.21,-359.28 344.85,-367.76 351.53,-369.87"/>
<text text-anchor="middle" x="329" y="-535" font-family="Times,serif" font-size="10.00" fill="red">2.1.1</text>
<text text-anchor="middle" x="329" y="-524" font-family="Times,serif" font-size="10.00" fill="red">(latest: 2.1.2)</text>
</g>
<!-- roo_transceivers -->
<g id="node24" class="node">
<title>roo_transceivers</title>
<polygon fill="khaki" stroke="red" points="440,-647 334,-647 334,-609 440,-609 440,-647"/>
<text text-anchor="middle" x="387" y="-631.8" font-family="Times,serif" font-size="14.00">roo_transceivers</text>
<text text-anchor="middle" x="387" y="-616.8" font-family="Times,serif" font-size="14.00">1.1.4</text>
</g>
<!-- roo_comms&#45;&gt;roo_transceivers -->
<g id="edge7" class="edge">
<title>roo_comms&#45;&gt;roo_transceivers</title>
<path fill="none" stroke="black" d="M277.01,-708.39C291.11,-702.6 306.69,-695.33 320,-687 334.87,-677.69 349.79,-665.17 361.76,-654.14"/>
<polygon fill="black" stroke="black" points="364.29,-656.57 369.17,-647.16 359.49,-651.47 364.29,-656.57"/>
</g>
<!-- roo_quantity -->
<g id="node18" class="node">
<title>roo_quantity</title>
<polygon fill="#b1dbab" stroke="black" points="105,-455 19,-455 19,-417 105,-417 105,-455"/>
<text text-anchor="middle" x="62" y="-439.8" font-family="Times,serif" font-size="14.00">roo_quantity</text>
<text text-anchor="middle" x="62" y="-424.8" font-family="Times,serif" font-size="14.00">1.1.7</text>
</g>
<!-- roo_control&#45;&gt;roo_quantity -->
<g id="edge8" class="edge">
<title>roo_control&#45;&gt;roo_quantity</title>
<path fill="none" stroke="black" d="M44.24,-512.88C47.41,-499.35 51.79,-480.62 55.41,-465.15"/>
<polygon fill="black" stroke="black" points="58.9,-465.6 57.77,-455.07 52.08,-464.01 58.9,-465.6"/>
</g>
<!-- roo_control&#45;&gt;roo_scheduler -->
<g id="edge9" class="edge">
<title>roo_control&#45;&gt;roo_scheduler</title>
<path fill="none" stroke="black" d="M77.02,-512.88C108.1,-497.66 152.64,-475.85 186,-459.52"/>
<polygon fill="black" stroke="black" points="187.65,-462.61 195.09,-455.07 184.57,-456.32 187.65,-462.61"/>
</g>
<!-- roo_dashboard -->
<g id="node6" class="node">
<title>roo_dashboard</title>
<polygon fill="khaki" stroke="red" points="719.5,-743 622.5,-743 622.5,-705 719.5,-705 719.5,-743"/>
<text text-anchor="middle" x="671" y="-727.8" font-family="Times,serif" font-size="14.00">roo_dashboard</text>
<text text-anchor="middle" x="671" y="-712.8" font-family="Times,serif" font-size="14.00">1.0.1</text>
</g>
<!-- roo_windows -->
<g id="node27" class="node">
<title>roo_windows</title>
<polygon fill="#b1dbab" stroke="red" points="637,-647 547,-647 547,-609 637,-609 637,-647"/>
<text text-anchor="middle" x="592" y="-631.8" font-family="Times,serif" font-size="14.00">roo_windows</text>
<text text-anchor="middle" x="592" y="-616.8" font-family="Times,serif" font-size="14.00">1.4.2</text>
</g>
<!-- roo_dashboard&#45;&gt;roo_windows -->
<g id="edge10" class="edge">
<title>roo_dashboard&#45;&gt;roo_windows</title>
<path fill="none" stroke="red" d="M655.77,-704.88C643.86,-690.7 627.13,-670.81 613.8,-654.94"/>
<polygon fill="red" stroke="red" points="616.3,-652.47 607.19,-647.07 610.94,-656.98 616.3,-652.47"/>
<text text-anchor="middle" x="665" y="-679" font-family="Times,serif" font-size="10.00" fill="red">1.4.1</text>
<text text-anchor="middle" x="665" y="-668" font-family="Times,serif" font-size="10.00" fill="red">(latest: 1.4.2)</text>
</g>
<!-- roo_display -->
<g id="node7" class="node">
<title>roo_display</title>
<polygon fill="khaki" stroke="red" points="577,-455 497,-455 497,-417 577,-417 577,-455"/>
<text text-anchor="middle" x="537" y="-439.8" font-family="Times,serif" font-size="14.00">roo_display</text>
<text text-anchor="middle" x="537" y="-424.8" font-family="Times,serif" font-size="14.00">2.3.2</text>
</g>
<!-- roo_display&#45;&gt;roo_collections -->
<g id="edge11" class="edge">
<title>roo_display&#45;&gt;roo_collections</title>
<path fill="none" stroke="red" d="M545.89,-416.77C550.37,-404.83 553.61,-389.22 547,-377 544.77,-372.88 541.84,-369.15 538.5,-365.8"/>
<polygon fill="red" stroke="red" points="540.49,-362.9 530.62,-359.06 535.94,-368.22 540.49,-362.9"/>
<text text-anchor="middle" x="577" y="-391" font-family="Times,serif" font-size="10.00" fill="red">1.4.0</text>
<text text-anchor="middle" x="577" y="-380" font-family="Times,serif" font-size="10.00" fill="red">(latest: 1.4.1)</text>
</g>
<!-- roo_display&#45;&gt;roo_io -->
<g id="edge12" class="edge">
<title>roo_display&#45;&gt;roo_io</title>
<path fill="none" stroke="black" d="M496.8,-420.22C493.17,-419.06 489.53,-417.97 486,-417 446.67,-406.18 429.94,-421.63 396,-399 384.64,-391.43 375.74,-379.31 369.32,-368.1"/>
<polygon fill="black" stroke="black" points="372.29,-366.23 364.52,-359.02 366.1,-369.5 372.29,-366.23"/>
</g>
<!-- roo_flags -->
<g id="node8" class="node">
<title>roo_flags</title>
<polygon fill="#b1dbab" stroke="black" points="325,-188 257,-188 257,-150 325,-150 325,-188"/>
<text text-anchor="middle" x="291" y="-172.8" font-family="Times,serif" font-size="14.00">roo_flags</text>
<text text-anchor="middle" x="291" y="-157.8" font-family="Times,serif" font-size="14.00">1.2.1</text>
</g>
<!-- roo_icons -->
<g id="node9" class="node">
<title>roo_icons</title>
<polygon fill="#b1dbab" stroke="red" points="627,-551 557,-551 557,-513 627,-513 627,-551"/>
<text text-anchor="middle" x="592" y="-535.8" font-family="Times,serif" font-size="14.00">roo_icons</text>
<text text-anchor="middle" x="592" y="-520.8" font-family="Times,serif" font-size="14.00">1.2.1</text>
</g>
<!-- roo_icons&#45;&gt;roo_display -->
<g id="edge13" class="edge">
<title>roo_icons&#45;&gt;roo_display</title>
<path fill="none" stroke="red" d="M581.4,-512.88C573.25,-498.96 561.89,-479.53 552.69,-463.82"/>
<polygon fill="red" stroke="red" points="555.64,-461.93 547.57,-455.07 549.6,-465.47 555.64,-461.93"/>
<text text-anchor="middle" x="596" y="-487" font-family="Times,serif" font-size="10.00" fill="red">2.3.1</text>
<text text-anchor="middle" x="596" y="-476" font-family="Times,serif" font-size="10.00" fill="red">(latest: 2.3.2)</text>
</g>
<!-- roo_io&#45;&gt;roo_logging -->
<g id="edge14" class="edge">
<title>roo_io&#45;&gt;roo_logging</title>
<path fill="none" stroke="red" d="M344.27,-320.88C334.41,-306.83 320.61,-287.17 309.52,-271.38"/>
<polygon fill="red" stroke="red" points="312.3,-269.24 303.69,-263.07 306.57,-273.26 312.3,-269.24"/>
<text text-anchor="middle" x="357" y="-295" font-family="Times,serif" font-size="10.00" fill="red">1.5.2</text>
<text text-anchor="middle" x="357" y="-284" font-family="Times,serif" font-size="10.00" fill="red">(latest: 1.5.3)</text>
</g>
<!-- roo_io_sdfat -->
<g id="node11" class="node">
<title>roo_io_sdfat</title>
<polygon fill="plum" stroke="black" points="822.5,-743 737.5,-743 737.5,-705 822.5,-705 822.5,-743"/>
<text text-anchor="middle" x="780" y="-727.8" font-family="Times,serif" font-size="14.00">roo_io_sdfat</text>
<text text-anchor="middle" x="780" y="-712.8" font-family="Times,serif" font-size="14.00">1.0.0</text>
</g>
<!-- roo_locale -->
<g id="node12" class="node">
<title>roo_locale</title>
<polygon fill="#b1dbab" stroke="black" points="719,-551 645,-551 645,-513 719,-513 719,-551"/>
<text text-anchor="middle" x="682" y="-535.8" font-family="Times,serif" font-size="14.00">roo_locale</text>
<text text-anchor="middle" x="682" y="-520.8" font-family="Times,serif" font-size="14.00">1.1.1</text>
</g>
<!-- roo_logging&#45;&gt;roo_backport -->
<g id="edge15" class="edge">
<title>roo_logging&#45;&gt;roo_backport</title>
<path fill="none" stroke="black" d="M319.43,-224.96C334.36,-215.48 352.83,-203.75 368.88,-193.57"/>
<polygon fill="black" stroke="black" points="370.93,-196.4 377.5,-188.09 367.18,-190.49 370.93,-196.4"/>
</g>
<!-- roo_logging&#45;&gt;roo_flags -->
<g id="edge16" class="edge">
<title>roo_logging&#45;&gt;roo_flags</title>
<path fill="none" stroke="black" d="M291,-224.96C291,-216.88 291,-207.18 291,-198.18"/>
<polygon fill="black" stroke="black" points="294.5,-198.09 291,-188.09 287.5,-198.09 294.5,-198.09"/>
</g>
<!-- roo_threads -->
<g id="node21" class="node">
<title>roo_threads</title>
<polygon fill="#b1dbab" stroke="black" points="218,-188 138,-188 138,-150 218,-150 218,-188"/>
<text text-anchor="middle" x="178" y="-172.8" font-family="Times,serif" font-size="14.00">roo_threads</text>
<text text-anchor="middle" x="178" y="-157.8" font-family="Times,serif" font-size="14.00">1.2.1</text>
</g>
<!-- roo_logging&#45;&gt;roo_threads -->
<g id="edge17" class="edge">
<title>roo_logging&#45;&gt;roo_threads</title>
<path fill="none" stroke="black" d="M263.07,-224.96C248.4,-215.48 230.24,-203.75 214.48,-193.57"/>
<polygon fill="black" stroke="black" points="216.3,-190.58 206,-188.09 212.5,-196.46 216.3,-190.58"/>
</g>
<!-- roo_monitoring -->
<g id="node14" class="node">
<title>roo_monitoring</title>
<polygon fill="khaki" stroke="red" points="697,-455 595,-455 595,-417 697,-417 697,-455"/>
<text text-anchor="middle" x="646" y="-439.8" font-family="Times,serif" font-size="14.00">roo_monitoring</text>
<text text-anchor="middle" x="646" y="-424.8" font-family="Times,serif" font-size="14.00">1.0.0</text>
</g>
<!-- roo_monitoring&#45;&gt;roo_collections -->
<g id="edge18" class="edge">
<title>roo_monitoring&#45;&gt;roo_collections</title>
<path fill="none" stroke="red" d="M638.23,-416.86C631.85,-404.01 621.65,-387.29 608,-377 591.72,-364.73 571.2,-356.6 551.96,-351.22"/>
<polygon fill="red" stroke="red" points="552.61,-347.77 542.05,-348.66 550.85,-354.55 552.61,-347.77"/>
<text text-anchor="middle" x="654" y="-391" font-family="Times,serif" font-size="10.00" fill="red">1.3.2</text>
<text text-anchor="middle" x="654" y="-380" font-family="Times,serif" font-size="10.00" fill="red">(latest: 1.4.1)</text>
</g>
<!-- roo_monitoring&#45;&gt;roo_io -->
<g id="edge19" class="edge">
<title>roo_monitoring&#45;&gt;roo_io</title>
<path fill="none" stroke="red" d="M594.77,-418.94C591.82,-418.23 588.88,-417.58 586,-417 509.76,-401.76 480.93,-434.95 412,-399 400.55,-393.03 401.8,-386.46 393,-377 389.71,-373.46 386.19,-369.8 382.68,-366.22"/>
<polygon fill="red" stroke="red" points="385.11,-363.69 375.58,-359.06 380.14,-368.62 385.11,-363.69"/>
<text text-anchor="middle" x="439" y="-391" font-family="Times,serif" font-size="10.00" fill="red">2.0.3</text>
<text text-anchor="middle" x="439" y="-380" font-family="Times,serif" font-size="10.00" fill="red">(latest: 2.1.2)</text>
</g>
<!-- roo_onewire -->
<g id="node15" class="node">
<title>roo_onewire</title>
<polygon fill="#b1dbab" stroke="black" points="270.5,-551 185.5,-551 185.5,-513 270.5,-513 270.5,-551"/>
<text text-anchor="middle" x="228" y="-535.8" font-family="Times,serif" font-size="14.00">roo_onewire</text>
<text text-anchor="middle" x="228" y="-520.8" font-family="Times,serif" font-size="14.00">2.0.8</text>
</g>
<!-- roo_onewire&#45;&gt;roo_quantity -->
<g id="edge21" class="edge">
<title>roo_onewire&#45;&gt;roo_quantity</title>
<path fill="none" stroke="black" d="M195.99,-512.88C169.47,-497.86 131.6,-476.41 102.88,-460.15"/>
<polygon fill="black" stroke="black" points="104.33,-456.95 93.91,-455.07 100.89,-463.04 104.33,-456.95"/>
</g>
<!-- roo_onewire&#45;&gt;roo_scheduler -->
<g id="edge20" class="edge">
<title>roo_onewire&#45;&gt;roo_scheduler</title>
<path fill="none" stroke="black" d="M228.77,-512.88C229.35,-499.35 230.14,-480.62 230.8,-465.15"/>
<polygon fill="black" stroke="black" points="234.3,-465.21 231.23,-455.07 227.31,-464.91 234.3,-465.21"/>
</g>
<!-- roo_powersafefs -->
<g id="node16" class="node">
<title>roo_powersafefs</title>
<polygon fill="khaki" stroke="black" points="231.5,-263 124.5,-263 124.5,-225 231.5,-225 231.5,-263"/>
<text text-anchor="middle" x="178" y="-247.8" font-family="Times,serif" font-size="14.00">roo_powersafefs</text>
<text text-anchor="middle" x="178" y="-232.8" font-family="Times,serif" font-size="14.00">1.0.0</text>
</g>
<!-- roo_powersafefs&#45;&gt;roo_threads -->
<g id="edge22" class="edge">
<title>roo_powersafefs&#45;&gt;roo_threads</title>
<path fill="none" stroke="black" d="M178,-224.96C178,-216.88 178,-207.18 178,-198.18"/>
<polygon fill="black" stroke="black" points="181.5,-198.09 178,-188.09 174.5,-198.09 181.5,-198.09"/>
</g>
<!-- roo_prefs -->
<g id="node17" class="node">
<title>roo_prefs</title>
<polygon fill="#b1dbab" stroke="black" points="447,-551 379,-551 379,-513 447,-513 447,-551"/>
<text text-anchor="middle" x="413" y="-535.8" font-family="Times,serif" font-size="14.00">roo_prefs</text>
<text text-anchor="middle" x="413" y="-520.8" font-family="Times,serif" font-size="14.00">1.2.8</text>
</g>
<!-- roo_prefs&#45;&gt;roo_logging -->
<g id="edge23" class="edge">
<title>roo_prefs&#45;&gt;roo_logging</title>
<path fill="none" stroke="black" d="M401.29,-512.6C382.16,-481.86 344.03,-417.63 321,-359 309.84,-330.59 301.5,-296.58 296.48,-273.15"/>
<polygon fill="black" stroke="black" points="299.87,-272.26 294.41,-263.18 293.02,-273.69 299.87,-272.26"/>
</g>
<!-- roo_prefs&#45;&gt;roo_scheduler -->
<g id="edge24" class="edge">
<title>roo_prefs&#45;&gt;roo_scheduler</title>
<path fill="none" stroke="black" d="M378.96,-513.32C349.78,-498.17 307.58,-476.25 275.88,-459.79"/>
<polygon fill="black" stroke="black" points="277.3,-456.58 266.82,-455.08 274.08,-462.8 277.3,-456.58"/>
</g>
<!-- roo_quantity&#45;&gt;roo_logging -->
<g id="edge25" class="edge">
<title>roo_quantity&#45;&gt;roo_logging</title>
<path fill="none" stroke="black" d="M67.04,-416.91C77.14,-384.2 103.11,-315.42 151,-281 181.47,-259.1 198.59,-271.65 239.66,-262.65"/>
<polygon fill="black" stroke="black" points="240.55,-266.03 249.4,-260.21 238.85,-259.24 240.55,-266.03"/>
</g>
<!-- roo_scheduler&#45;&gt;roo_collections -->
<g id="edge26" class="edge">
<title>roo_scheduler&#45;&gt;roo_collections</title>
<path fill="none" stroke="black" d="M278.78,-418.09C321.78,-402.54 385.73,-379.42 432.37,-362.56"/>
<polygon fill="black" stroke="black" points="433.83,-365.75 442.05,-359.06 431.45,-359.17 433.83,-365.75"/>
</g>
<!-- roo_scheduler&#45;&gt;roo_threads -->
<g id="edge27" class="edge">
<title>roo_scheduler&#45;&gt;roo_threads</title>
<path fill="none" stroke="black" d="M214.08,-416.91C186.44,-387.58 134.55,-326.51 115,-263 110.03,-246.86 108.01,-240.38 115,-225 120.4,-213.11 129.79,-202.78 139.69,-194.39"/>
<polygon fill="black" stroke="black" points="142,-197.03 147.67,-188.08 137.66,-191.54 142,-197.03"/>
</g>
<!-- roo_testing -->
<g id="node20" class="node">
<title>roo_testing</title>
<polygon fill="#b1dbab" stroke="black" points="114.5,-38 37.5,-38 37.5,0 114.5,0 114.5,-38"/>
<text text-anchor="middle" x="76" y="-22.8" font-family="Times,serif" font-size="14.00">roo_testing</text>
<text text-anchor="middle" x="76" y="-7.8" font-family="Times,serif" font-size="14.00">1.2.1</text>
</g>
<!-- roo_time -->
<g id="node22" class="node">
<title>roo_time</title>
<polygon fill="#b1dbab" stroke="black" points="109,-113 43,-113 43,-75 109,-75 109,-113"/>
<text text-anchor="middle" x="76" y="-97.8" font-family="Times,serif" font-size="14.00">roo_time</text>
<text text-anchor="middle" x="76" y="-82.8" font-family="Times,serif" font-size="14.00">1.4.1</text>
</g>
<!-- roo_threads&#45;&gt;roo_time -->
<g id="edge28" class="edge">
<title>roo_threads&#45;&gt;roo_time</title>
<path fill="none" stroke="black" d="M152.79,-149.96C139.79,-140.65 123.76,-129.18 109.72,-119.13"/>
<polygon fill="black" stroke="black" points="111.45,-116.06 101.28,-113.09 107.37,-121.76 111.45,-116.06"/>
</g>
<!-- roo_time&#45;&gt;roo_testing -->
<g id="edge29" class="edge">
<title>roo_time&#45;&gt;roo_testing</title>
<path fill="none" stroke="black" d="M76,-74.96C76,-66.88 76,-57.18 76,-48.18"/>
<polygon fill="black" stroke="black" points="79.5,-48.09 76,-38.09 72.5,-48.09 79.5,-48.09"/>
</g>
<!-- roo_time_ds3231 -->
<g id="node23" class="node">
<title>roo_time_ds3231</title>
<polygon fill="#b1dbab" stroke="black" points="120,-188 8,-188 8,-150 120,-150 120,-188"/>
<text text-anchor="middle" x="64" y="-172.8" font-family="Times,serif" font-size="14.00">roo_time_ds3231</text>
<text text-anchor="middle" x="64" y="-157.8" font-family="Times,serif" font-size="14.00">1.1.5</text>
</g>
<!-- roo_time_ds3231&#45;&gt;roo_time -->
<g id="edge30" class="edge">
<title>roo_time_ds3231&#45;&gt;roo_time</title>
<path fill="none" stroke="black" d="M66.97,-149.96C68.29,-141.88 69.89,-132.18 71.37,-123.18"/>
<polygon fill="black" stroke="black" points="74.86,-123.53 73.03,-113.09 67.95,-122.39 74.86,-123.53"/>
</g>
<!-- roo_transceivers&#45;&gt;roo_prefs -->
<g id="edge31" class="edge">
<title>roo_transceivers&#45;&gt;roo_prefs</title>
<path fill="none" stroke="red" d="M354.62,-608.63C348.71,-603.71 343.37,-597.82 340,-591 335.67,-582.23 334.84,-577.3 340,-569 343.79,-562.91 356.06,-555.98 369.49,-549.84"/>
<polygon fill="red" stroke="red" points="371.12,-552.95 378.88,-545.74 368.32,-546.54 371.12,-552.95"/>
<text text-anchor="middle" x="367" y="-583" font-family="Times,serif" font-size="10.00" fill="red">1.2.7</text>
<text text-anchor="middle" x="367" y="-572" font-family="Times,serif" font-size="10.00" fill="red">(latest: 1.2.8)</text>
</g>
<!-- roo_transport -->
<g id="node25" class="node">
<title>roo_transport</title>
<polygon fill="khaki" stroke="red" points="476.5,-455 387.5,-455 387.5,-417 476.5,-417 476.5,-455"/>
<text text-anchor="middle" x="432" y="-439.8" font-family="Times,serif" font-size="14.00">roo_transport</text>
<text text-anchor="middle" x="432" y="-424.8" font-family="Times,serif" font-size="14.00">1.1.0</text>
</g>
<!-- roo_transport&#45;&gt;roo_collections -->
<g id="edge32" class="edge">
<title>roo_transport&#45;&gt;roo_collections</title>
<path fill="none" stroke="red" d="M454.68,-416.69C460.22,-411.41 465.77,-405.35 470,-399 476.09,-389.86 480.82,-378.79 484.3,-368.79"/>
<polygon fill="red" stroke="red" points="487.64,-369.84 487.38,-359.25 480.98,-367.69 487.64,-369.84"/>
<text text-anchor="middle" x="507" y="-391" font-family="Times,serif" font-size="10.00" fill="red">1.4.0</text>
<text text-anchor="middle" x="507" y="-380" font-family="Times,serif" font-size="10.00" fill="red">(latest: 1.4.1)</text>
</g>
<!-- roo_transport&#45;&gt;roo_io -->
<g id="edge33" class="edge">
<title>roo_transport&#45;&gt;roo_io</title>
<path fill="none" stroke="black" d="M390.93,-416.97C383.4,-412.08 376.27,-406.12 371,-399 364.64,-390.41 361.13,-379.33 359.21,-369.15"/>
<polygon fill="black" stroke="black" points="362.64,-368.41 357.73,-359.02 355.72,-369.42 362.64,-368.41"/>
</g>
<!-- roo_wifi -->
<g id="node26" class="node">
<title>roo_wifi</title>
<polygon fill="#b1dbab" stroke="red" points="521.5,-647 458.5,-647 458.5,-609 521.5,-609 521.5,-647"/>
<text text-anchor="middle" x="490" y="-631.8" font-family="Times,serif" font-size="14.00">roo_wifi</text>
<text text-anchor="middle" x="490" y="-616.8" font-family="Times,serif" font-size="14.00">1.1.3</text>
</g>
<!-- roo_wifi&#45;&gt;roo_prefs -->
<g id="edge34" class="edge">
<title>roo_wifi&#45;&gt;roo_prefs</title>
<path fill="none" stroke="red" d="M458.27,-613.13C439.81,-604.76 419.66,-594.96 417,-591 411.24,-582.41 409.45,-571.41 409.37,-561.31"/>
<polygon fill="red" stroke="red" points="412.87,-561.38 409.82,-551.24 405.88,-561.07 412.87,-561.38"/>
<text text-anchor="middle" x="444" y="-583" font-family="Times,serif" font-size="10.00" fill="red">1.2.7</text>
<text text-anchor="middle" x="444" y="-572" font-family="Times,serif" font-size="10.00" fill="red">(latest: 1.2.8)</text>
</g>
<!-- roo_windows&#45;&gt;roo_icons -->
<g id="edge36" class="edge">
<title>roo_windows&#45;&gt;roo_icons</title>
<path fill="none" stroke="black" d="M592,-608.88C592,-595.35 592,-576.62 592,-561.15"/>
<polygon fill="black" stroke="black" points="595.5,-561.07 592,-551.07 588.5,-561.07 595.5,-561.07"/>
</g>
<!-- roo_windows&#45;&gt;roo_locale -->
<g id="edge35" class="edge">
<title>roo_windows&#45;&gt;roo_locale</title>
<path fill="none" stroke="black" d="M609.35,-608.88C623.05,-594.57 642.32,-574.44 657.58,-558.51"/>
<polygon fill="black" stroke="black" points="660.31,-560.71 664.7,-551.07 655.26,-555.87 660.31,-560.71"/>
</g>
<!-- roo_windows&#45;&gt;roo_scheduler -->
<g id="edge37" class="edge">
<title>roo_windows&#45;&gt;roo_scheduler</title>
<path fill="none" stroke="red" d="M566.74,-608.78C546.53,-593.88 517.74,-571.93 494,-551 476.08,-535.21 476.28,-525.61 456,-513 403.74,-480.51 335.92,-460.02 288.65,-448.61"/>
<polygon fill="red" stroke="red" points="289.43,-445.19 278.89,-446.31 287.82,-452.01 289.43,-445.19"/>
<text text-anchor="middle" x="521" y="-535" font-family="Times,serif" font-size="10.00" fill="red">2.1.6</text>
<text text-anchor="middle" x="521" y="-524" font-family="Times,serif" font-size="10.00" fill="red">(latest: 2.1.7)</text>
</g>
<!-- roo_windows_transceivers -->
<g id="node28" class="node">
<title>roo_windows_transceivers</title>
<polygon fill="khaki" stroke="red" points="467.5,-743 306.5,-743 306.5,-705 467.5,-705 467.5,-743"/>
<text text-anchor="middle" x="387" y="-727.8" font-family="Times,serif" font-size="14.00">roo_windows_transceivers</text>
<text text-anchor="middle" x="387" y="-712.8" font-family="Times,serif" font-size="14.00">1.0.0</text>
</g>
<!-- roo_windows_transceivers&#45;&gt;roo_transceivers -->
<g id="edge38" class="edge">
<title>roo_windows_transceivers&#45;&gt;roo_transceivers</title>
<path fill="none" stroke="red" d="M387,-704.88C387,-691.35 387,-672.62 387,-657.15"/>
<polygon fill="red" stroke="red" points="390.5,-657.07 387,-647.07 383.5,-657.07 390.5,-657.07"/>
<text text-anchor="middle" x="414" y="-679" font-family="Times,serif" font-size="10.00" fill="red">1.1.3</text>
<text text-anchor="middle" x="414" y="-668" font-family="Times,serif" font-size="10.00" fill="red">(latest: 1.1.4)</text>
</g>
<!-- roo_windows_transceivers&#45;&gt;roo_windows -->
<g id="edge39" class="edge">
<title>roo_windows_transceivers&#45;&gt;roo_windows</title>
<path fill="none" stroke="red" d="M426.53,-704.88C459.85,-689.6 507.67,-667.67 543.34,-651.31"/>
<polygon fill="red" stroke="red" points="544.96,-654.42 552.6,-647.07 542.05,-648.06 544.96,-654.42"/>
<text text-anchor="middle" x="534" y="-679" font-family="Times,serif" font-size="10.00" fill="red">1.4.1</text>
<text text-anchor="middle" x="534" y="-668" font-family="Times,serif" font-size="10.00" fill="red">(latest: 1.4.2)</text>
</g>
<!-- roo_windows_wifi -->
<g id="node29" class="node">
<title>roo_windows_wifi</title>
<polygon fill="khaki" stroke="red" points="604.5,-743 485.5,-743 485.5,-705 604.5,-705 604.5,-743"/>
<text text-anchor="middle" x="545" y="-727.8" font-family="Times,serif" font-size="14.00">roo_windows_wifi</text>
<text text-anchor="middle" x="545" y="-712.8" font-family="Times,serif" font-size="14.00">1.1.3</text>
</g>
<!-- roo_windows_wifi&#45;&gt;roo_wifi -->
<g id="edge40" class="edge">
<title>roo_windows_wifi&#45;&gt;roo_wifi</title>
<path fill="none" stroke="black" d="M519.49,-704.93C513.67,-699.73 508.02,-693.65 504,-687 498.55,-677.99 495.22,-666.98 493.19,-656.99"/>
<polygon fill="black" stroke="black" points="496.63,-656.35 491.51,-647.07 489.73,-657.52 496.63,-656.35"/>
</g>
<!-- roo_windows_wifi&#45;&gt;roo_windows -->
<g id="edge41" class="edge">
<title>roo_windows_wifi&#45;&gt;roo_windows</title>
<path fill="none" stroke="black" d="M564.79,-704.97C569.72,-699.61 574.57,-693.44 578,-687 582.86,-677.87 586.06,-667.03 588.16,-657.22"/>
<polygon fill="black" stroke="black" points="591.65,-657.56 590.02,-647.09 584.77,-656.29 591.65,-657.56"/>
</g>
</g>
</svg>
