<?xml version="1.0" encoding="UTF-8" standalone="no"?>
<!DOCTYPE svg PUBLIC "-//W3C//DTD SVG 1.1//EN"
 "http://www.w3.org/Graphics/SVG/1.1/DTD/svg11.dtd">
<!-- Generated by graphviz version 2.42.4 (0)
 -->
<!-- Title: dependencies Pages: 1 -->
<svg width="849pt" height="772pt"
 viewBox="0.00 0.00 848.50 772.00" xmlns="http://www.w3.org/2000/svg" xmlns:xlink="http://www.w3.org/1999/xlink">
<g id="graph0" class="graph" transform="scale(1 1) rotate(0) translate(4 768)">
<title>dependencies</title>
<polygon fill="white" stroke="transparent" points="-4,4 -4,-768 844.5,-768 844.5,4 -4,4"/>
<!-- roo_backport -->
<g id="node1" class="node">
<title>roo_backport</title>
<polygon fill="#b1dbab" stroke="black" points="503.5,-209 414.5,-209 414.5,-171 503.5,-171 503.5,-209"/>
<text text-anchor="middle" x="459" y="-193.8" font-family="Times,serif" font-size="14.00">roo_backport</text>
<text text-anchor="middle" x="459" y="-178.8" font-family="Times,serif" font-size="14.00">1.2.1</text>
</g>
<!-- roo_blink -->
<g id="node2" class="node">
<title>roo_blink</title>
<polygon fill="#b1dbab" stroke="red" points="184.5,-593 115.5,-593 115.5,-555 184.5,-555 184.5,-593"/>
<text text-anchor="middle" x="150" y="-577.8" font-family="Times,serif" font-size="14.00">roo_blink</text>
<text text-anchor="middle" x="150" y="-562.8" font-family="Times,serif" font-size="14.00">1.0.4</text>
</g>
<!-- roo_logging -->
<g id="node13" class="node">
<title>roo_logging</title>
<polygon fill="khaki" stroke="red" points="324.5,-305 241.5,-305 241.5,-267 324.5,-267 324.5,-305"/>
<text text-anchor="middle" x="283" y="-289.8" font-family="Times,serif" font-size="14.00">roo_logging</text>
<text text-anchor="middle" x="283" y="-274.8" font-family="Times,serif" font-size="14.00">1.5.2</text>
</g>
<!-- roo_blink&#45;&gt;roo_logging -->
<g id="edge1" class="edge">
<title>roo_blink&#45;&gt;roo_logging</title>
<path fill="none" stroke="red" d="M153.52,-554.85C159.61,-525.42 173.57,-465.86 195,-419 216.12,-372.81 228.34,-364.94 257,-323 259.13,-319.89 261.39,-316.65 263.66,-313.45"/>
<polygon fill="red" stroke="red" points="266.6,-315.35 269.59,-305.18 260.92,-311.27 266.6,-315.35"/>
<text text-anchor="middle" x="222" y="-433" font-family="Times,serif" font-size="10.00" fill="red">1.5.1</text>
<text text-anchor="middle" x="222" y="-422" font-family="Times,serif" font-size="10.00" fill="red">(latest: 1.5.2)</text>
</g>
<!-- roo_scheduler -->
<g id="node19" class="node">
<title>roo_scheduler</title>
<polygon fill="#b1dbab" stroke="red" points="296.5,-497 203.5,-497 203.5,-459 296.5,-459 296.5,-497"/>
<text text-anchor="middle" x="250" y="-481.8" font-family="Times,serif" font-size="14.00">roo_scheduler</text>
<text text-anchor="middle" x="250" y="-466.8" font-family="Times,serif" font-size="14.00">2.1.6</text>
</g>
<!-- roo_blink&#45;&gt;roo_scheduler -->
<g id="edge2" class="edge">
<title>roo_blink&#45;&gt;roo_scheduler</title>
<path fill="none" stroke="black" d="M168.89,-554.9C180.91,-543.42 196.82,-528.29 211,-515 214.77,-511.47 218.76,-507.76 222.69,-504.11"/>
<polygon fill="black" stroke="black" points="225.14,-506.62 230.11,-497.26 220.39,-501.48 225.14,-506.62"/>
</g>
<!-- roo_collections -->
<g id="node3" class="node">
<title>roo_collections</title>
<polygon fill="#b1dbab" stroke="red" points="567,-401 467,-401 467,-363 567,-363 567,-401"/>
<text text-anchor="middle" x="517" y="-385.8" font-family="Times,serif" font-size="14.00">roo_collections</text>
<text text-anchor="middle" x="517" y="-370.8" font-family="Times,serif" font-size="14.00">1.4.0</text>
</g>
<!-- roo_collections&#45;&gt;roo_backport -->
<g id="edge3" class="edge">
<title>roo_collections&#45;&gt;roo_backport</title>
<path fill="none" stroke="red" d="M511.44,-362.78C501.26,-329.44 479.58,-258.43 467.53,-218.94"/>
<polygon fill="red" stroke="red" points="470.81,-217.71 464.54,-209.16 464.12,-219.75 470.81,-217.71"/>
<text text-anchor="middle" x="521" y="-289" font-family="Times,serif" font-size="10.00" fill="red">1.2.0</text>
<text text-anchor="middle" x="521" y="-278" font-family="Times,serif" font-size="10.00" fill="red">(latest: 1.2.1)</text>
</g>
<!-- roo_comms -->
<g id="node4" class="node">
<title>roo_comms</title>
<polygon fill="#b1dbab" stroke="red" points="277,-764 195,-764 195,-726 277,-726 277,-764"/>
<text text-anchor="middle" x="236" y="-748.8" font-family="Times,serif" font-size="14.00">roo_comms</text>
<text text-anchor="middle" x="236" y="-733.8" font-family="Times,serif" font-size="14.00">1.1.3</text>
</g>
<!-- roo_comms&#45;&gt;roo_blink -->
<g id="edge4" class="edge">
<title>roo_comms&#45;&gt;roo_blink</title>
<path fill="none" stroke="black" d="M226.8,-725.91C211.71,-696.26 181.61,-637.12 163.91,-602.33"/>
<polygon fill="black" stroke="black" points="166.92,-600.54 159.27,-593.21 160.68,-603.71 166.92,-600.54"/>
</g>
<!-- roo_control -->
<g id="node5" class="node">
<title>roo_control</title>
<polygon fill="#b1dbab" stroke="red" points="97,-593 17,-593 17,-555 97,-555 97,-593"/>
<text text-anchor="middle" x="57" y="-577.8" font-family="Times,serif" font-size="14.00">roo_control</text>
<text text-anchor="middle" x="57" y="-562.8" font-family="Times,serif" font-size="14.00">1.2.3</text>
</g>
<!-- roo_comms&#45;&gt;roo_control -->
<g id="edge5" class="edge">
<title>roo_comms&#45;&gt;roo_control</title>
<path fill="none" stroke="black" d="M216.84,-725.91C184.76,-695.63 120.11,-634.58 83.62,-600.14"/>
<polygon fill="black" stroke="black" points="85.96,-597.53 76.29,-593.21 81.16,-602.62 85.96,-597.53"/>
</g>
<!-- roo_io -->
<g id="node10" class="node">
<title>roo_io</title>
<polygon fill="khaki" stroke="red" points="417,-401 363,-401 363,-363 417,-363 417,-401"/>
<text text-anchor="middle" x="390" y="-385.8" font-family="Times,serif" font-size="14.00">roo_io</text>
<text text-anchor="middle" x="390" y="-370.8" font-family="Times,serif" font-size="14.00">2.1.2</text>
</g>
<!-- roo_comms&#45;&gt;roo_io -->
<g id="edge6" class="edge">
<title>roo_comms&#45;&gt;roo_io</title>
<path fill="none" stroke="red" d="M243.85,-725.6C269.03,-666.58 347.89,-481.72 378.08,-410.95"/>
<polygon fill="red" stroke="red" points="381.46,-411.93 382.17,-401.36 375.02,-409.19 381.46,-411.93"/>
<text text-anchor="middle" x="344" y="-577" font-family="Times,serif" font-size="10.00" fill="red">2.1.1</text>
<text text-anchor="middle" x="344" y="-566" font-family="Times,serif" font-size="10.00" fill="red">(latest: 2.1.2)</text>
</g>
<!-- roo_transceivers -->
<g id="node24" class="node">
<title>roo_transceivers</title>
<polygon fill="#b1dbab" stroke="red" points="458,-668 352,-668 352,-630 458,-630 458,-668"/>
<text text-anchor="middle" x="405" y="-652.8" font-family="Times,serif" font-size="14.00">roo_transceivers</text>
<text text-anchor="middle" x="405" y="-637.8" font-family="Times,serif" font-size="14.00">1.1.4</text>
</g>
<!-- roo_comms&#45;&gt;roo_transceivers -->
<g id="edge7" class="edge">
<title>roo_comms&#45;&gt;roo_transceivers</title>
<path fill="none" stroke="black" d="M277.25,-733.3C296.46,-727.36 319.17,-718.94 338,-708 353.28,-699.12 368.33,-686.54 380.29,-675.36"/>
<polygon fill="black" stroke="black" points="382.88,-677.72 387.67,-668.27 378.03,-672.67 382.88,-677.72"/>
</g>
<!-- roo_quantity -->
<g id="node18" class="node">
<title>roo_quantity</title>
<polygon fill="#b1dbab" stroke="red" points="119,-497 33,-497 33,-459 119,-459 119,-497"/>
<text text-anchor="middle" x="76" y="-481.8" font-family="Times,serif" font-size="14.00">roo_quantity</text>
<text text-anchor="middle" x="76" y="-466.8" font-family="Times,serif" font-size="14.00">1.1.6</text>
</g>
<!-- roo_control&#45;&gt;roo_quantity -->
<g id="edge8" class="edge">
<title>roo_control&#45;&gt;roo_quantity</title>
<path fill="none" stroke="red" d="M60.66,-554.88C63.4,-541.35 67.18,-522.62 70.31,-507.15"/>
<polygon fill="red" stroke="red" points="73.8,-507.56 72.35,-497.07 66.94,-506.18 73.8,-507.56"/>
<text text-anchor="middle" x="96" y="-529" font-family="Times,serif" font-size="10.00" fill="red">1.1.5</text>
<text text-anchor="middle" x="96" y="-518" font-family="Times,serif" font-size="10.00" fill="red">(latest: 1.1.6)</text>
</g>
<!-- roo_control&#45;&gt;roo_scheduler -->
<g id="edge9" class="edge">
<title>roo_control&#45;&gt;roo_scheduler</title>
<path fill="none" stroke="black" d="M94.21,-554.88C125.45,-539.66 170.22,-517.85 203.76,-501.52"/>
<polygon fill="black" stroke="black" points="205.44,-504.59 212.9,-497.07 202.38,-498.3 205.44,-504.59"/>
</g>
<!-- roo_dashboard -->
<g id="node6" class="node">
<title>roo_dashboard</title>
<polygon fill="plum" stroke="red" points="737.5,-764 640.5,-764 640.5,-726 737.5,-726 737.5,-764"/>
<text text-anchor="middle" x="689" y="-748.8" font-family="Times,serif" font-size="14.00">roo_dashboard</text>
<text text-anchor="middle" x="689" y="-733.8" font-family="Times,serif" font-size="14.00">1.0.1</text>
</g>
<!-- roo_windows -->
<g id="node27" class="node">
<title>roo_windows</title>
<polygon fill="#b1dbab" stroke="red" points="650,-668 560,-668 560,-630 650,-630 650,-668"/>
<text text-anchor="middle" x="605" y="-652.8" font-family="Times,serif" font-size="14.00">roo_windows</text>
<text text-anchor="middle" x="605" y="-637.8" font-family="Times,serif" font-size="14.00">1.4.2</text>
</g>
<!-- roo_dashboard&#45;&gt;roo_windows -->
<g id="edge10" class="edge">
<title>roo_dashboard&#45;&gt;roo_windows</title>
<path fill="none" stroke="red" d="M672.8,-725.88C660.14,-711.7 642.36,-691.81 628.18,-675.94"/>
<polygon fill="red" stroke="red" points="630.42,-673.19 621.15,-668.07 625.2,-677.86 630.42,-673.19"/>
<text text-anchor="middle" x="681" y="-700" font-family="Times,serif" font-size="10.00" fill="red">1.4.1</text>
<text text-anchor="middle" x="681" y="-689" font-family="Times,serif" font-size="10.00" fill="red">(latest: 1.4.2)</text>
</g>
<!-- roo_display -->
<g id="node7" class="node">
<title>roo_display</title>
<polygon fill="khaki" stroke="red" points="579,-497 499,-497 499,-459 579,-459 579,-497"/>
<text text-anchor="middle" x="539" y="-481.8" font-family="Times,serif" font-size="14.00">roo_display</text>
<text text-anchor="middle" x="539" y="-466.8" font-family="Times,serif" font-size="14.00">2.3.2</text>
</g>
<!-- roo_display&#45;&gt;roo_collections -->
<g id="edge11" class="edge">
<title>roo_display&#45;&gt;roo_collections</title>
<path fill="none" stroke="black" d="M536.08,-458.86C534.11,-447.37 531.27,-432.23 528,-419 527.35,-416.35 526.62,-413.62 525.85,-410.89"/>
<polygon fill="black" stroke="black" points="529.18,-409.8 522.99,-401.21 522.46,-411.79 529.18,-409.8"/>
</g>
<!-- roo_display&#45;&gt;roo_io -->
<g id="edge12" class="edge">
<title>roo_display&#45;&gt;roo_io</title>
<path fill="none" stroke="black" d="M498.95,-462.37C495.59,-461.2 492.24,-460.07 489,-459 462.56,-450.28 451.41,-457.52 429,-441 418.16,-433.01 409.4,-421.06 402.94,-410.07"/>
<polygon fill="black" stroke="black" points="405.94,-408.26 398.06,-401.18 399.8,-411.63 405.94,-408.26"/>
</g>
<!-- roo_flags -->
<g id="node8" class="node">
<title>roo_flags</title>
<polygon fill="#b1dbab" stroke="black" points="358,-209 290,-209 290,-171 358,-171 358,-209"/>
<text text-anchor="middle" x="324" y="-193.8" font-family="Times,serif" font-size="14.00">roo_flags</text>
<text text-anchor="middle" x="324" y="-178.8" font-family="Times,serif" font-size="14.00">1.2.1</text>
</g>
<!-- roo_icons -->
<g id="node9" class="node">
<title>roo_icons</title>
<polygon fill="#b1dbab" stroke="red" points="590,-593 520,-593 520,-555 590,-555 590,-593"/>
<text text-anchor="middle" x="555" y="-577.8" font-family="Times,serif" font-size="14.00">roo_icons</text>
<text text-anchor="middle" x="555" y="-562.8" font-family="Times,serif" font-size="14.00">1.2.1</text>
</g>
<!-- roo_icons&#45;&gt;roo_display -->
<g id="edge13" class="edge">
<title>roo_icons&#45;&gt;roo_display</title>
<path fill="none" stroke="red" d="M551.92,-554.88C549.61,-541.35 546.42,-522.62 543.79,-507.15"/>
<polygon fill="red" stroke="red" points="547.2,-506.34 542.08,-497.07 540.3,-507.51 547.2,-506.34"/>
<text text-anchor="middle" x="575" y="-529" font-family="Times,serif" font-size="10.00" fill="red">2.3.1</text>
<text text-anchor="middle" x="575" y="-518" font-family="Times,serif" font-size="10.00" fill="red">(latest: 2.3.2)</text>
</g>
<!-- roo_io&#45;&gt;roo_logging -->
<g id="edge14" class="edge">
<title>roo_io&#45;&gt;roo_logging</title>
<path fill="none" stroke="black" d="M369.37,-362.88C352.94,-348.44 329.75,-328.07 311.54,-312.07"/>
<polygon fill="black" stroke="black" points="313.39,-309.04 303.57,-305.07 308.77,-314.3 313.39,-309.04"/>
</g>
<!-- roo_io_sdfat -->
<g id="node11" class="node">
<title>roo_io_sdfat</title>
<polygon fill="plum" stroke="black" points="840.5,-764 755.5,-764 755.5,-726 840.5,-726 840.5,-764"/>
<text text-anchor="middle" x="798" y="-748.8" font-family="Times,serif" font-size="14.00">roo_io_sdfat</text>
<text text-anchor="middle" x="798" y="-733.8" font-family="Times,serif" font-size="14.00">1.0.0</text>
</g>
<!-- roo_locale -->
<g id="node12" class="node">
<title>roo_locale</title>
<polygon fill="#b1dbab" stroke="black" points="682,-593 608,-593 608,-555 682,-555 682,-593"/>
<text text-anchor="middle" x="645" y="-577.8" font-family="Times,serif" font-size="14.00">roo_locale</text>
<text text-anchor="middle" x="645" y="-562.8" font-family="Times,serif" font-size="14.00">1.1.1</text>
</g>
<!-- roo_logging&#45;&gt;roo_backport -->
<g id="edge15" class="edge">
<title>roo_logging&#45;&gt;roo_backport</title>
<path fill="none" stroke="red" d="M324.8,-269.23C339.07,-263.39 354.96,-256.39 369,-249 388.01,-238.99 408.21,-226.2 424.64,-215.17"/>
<polygon fill="red" stroke="red" points="427.04,-217.77 433.35,-209.26 423.11,-211.98 427.04,-217.77"/>
<text text-anchor="middle" x="432" y="-241" font-family="Times,serif" font-size="10.00" fill="red">1.2.0</text>
<text text-anchor="middle" x="432" y="-230" font-family="Times,serif" font-size="10.00" fill="red">(latest: 1.2.1)</text>
</g>
<!-- roo_logging&#45;&gt;roo_flags -->
<g id="edge16" class="edge">
<title>roo_logging&#45;&gt;roo_flags</title>
<path fill="none" stroke="red" d="M293.11,-266.9C296.12,-261.24 299.32,-254.93 302,-249 306.41,-239.24 310.71,-228.31 314.33,-218.59"/>
<polygon fill="red" stroke="red" points="317.68,-219.59 317.82,-209 311.11,-217.2 317.68,-219.59"/>
<text text-anchor="middle" x="338" y="-241" font-family="Times,serif" font-size="10.00" fill="red">1.2.0</text>
<text text-anchor="middle" x="338" y="-230" font-family="Times,serif" font-size="10.00" fill="red">(latest: 1.2.1)</text>
</g>
<!-- roo_threads -->
<g id="node21" class="node">
<title>roo_threads</title>
<polygon fill="#b1dbab" stroke="black" points="210,-209 130,-209 130,-171 210,-171 210,-209"/>
<text text-anchor="middle" x="170" y="-193.8" font-family="Times,serif" font-size="14.00">roo_threads</text>
<text text-anchor="middle" x="170" y="-178.8" font-family="Times,serif" font-size="14.00">1.2.1</text>
</g>
<!-- roo_logging&#45;&gt;roo_threads -->
<g id="edge17" class="edge">
<title>roo_logging&#45;&gt;roo_threads</title>
<path fill="none" stroke="red" d="M262.35,-266.74C256.3,-261.18 249.77,-254.96 244,-249 235.02,-239.71 234.72,-235.51 225,-227 220.21,-222.81 214.9,-218.73 209.51,-214.92"/>
<polygon fill="red" stroke="red" points="211.3,-211.91 201.07,-209.18 207.37,-217.7 211.3,-211.91"/>
<text text-anchor="middle" x="271" y="-241" font-family="Times,serif" font-size="10.00" fill="red">1.2.0</text>
<text text-anchor="middle" x="271" y="-230" font-family="Times,serif" font-size="10.00" fill="red">(latest: 1.2.1)</text>
</g>
<!-- roo_monitoring -->
<g id="node14" class="node">
<title>roo_monitoring</title>
<polygon fill="khaki" stroke="red" points="699,-497 597,-497 597,-459 699,-459 699,-497"/>
<text text-anchor="middle" x="648" y="-481.8" font-family="Times,serif" font-size="14.00">roo_monitoring</text>
<text text-anchor="middle" x="648" y="-466.8" font-family="Times,serif" font-size="14.00">1.0.0</text>
</g>
<!-- roo_monitoring&#45;&gt;roo_collections -->
<g id="edge18" class="edge">
<title>roo_monitoring&#45;&gt;roo_collections</title>
<path fill="none" stroke="red" d="M622.74,-458.88C602.17,-444.12 572.96,-423.15 550.45,-407"/>
<polygon fill="red" stroke="red" points="552.35,-404.05 542.18,-401.07 548.26,-409.74 552.35,-404.05"/>
<text text-anchor="middle" x="621" y="-433" font-family="Times,serif" font-size="10.00" fill="red">1.3.2</text>
<text text-anchor="middle" x="621" y="-422" font-family="Times,serif" font-size="10.00" fill="red">(latest: 1.4.0)</text>
</g>
<!-- roo_monitoring&#45;&gt;roo_io -->
<g id="edge19" class="edge">
<title>roo_monitoring&#45;&gt;roo_io</title>
<path fill="none" stroke="red" d="M597,-461.48C593.96,-460.62 590.94,-459.79 588,-459 554.47,-450.01 544.75,-452.52 512,-441 482.31,-430.56 450.23,-415.13 426.42,-402.81"/>
<polygon fill="red" stroke="red" points="427.88,-399.62 417.39,-398.08 424.63,-405.82 427.88,-399.62"/>
<text text-anchor="middle" x="539" y="-433" font-family="Times,serif" font-size="10.00" fill="red">2.0.3</text>
<text text-anchor="middle" x="539" y="-422" font-family="Times,serif" font-size="10.00" fill="red">(latest: 2.1.2)</text>
</g>
<!-- roo_onewire -->
<g id="node15" class="node">
<title>roo_onewire</title>
<polygon fill="#b1dbab" stroke="red" points="287.5,-593 202.5,-593 202.5,-555 287.5,-555 287.5,-593"/>
<text text-anchor="middle" x="245" y="-577.8" font-family="Times,serif" font-size="14.00">roo_onewire</text>
<text text-anchor="middle" x="245" y="-562.8" font-family="Times,serif" font-size="14.00">2.0.7</text>
</g>
<!-- roo_onewire&#45;&gt;roo_quantity -->
<g id="edge21" class="edge">
<title>roo_onewire&#45;&gt;roo_quantity</title>
<path fill="none" stroke="red" d="M212.42,-554.88C185.29,-539.79 146.53,-518.23 117.24,-501.94"/>
<polygon fill="red" stroke="red" points="118.93,-498.87 108.48,-497.07 115.52,-504.99 118.93,-498.87"/>
<text text-anchor="middle" x="203" y="-529" font-family="Times,serif" font-size="10.00" fill="red">1.1.5</text>
<text text-anchor="middle" x="203" y="-518" font-family="Times,serif" font-size="10.00" fill="red">(latest: 1.1.6)</text>
</g>
<!-- roo_onewire&#45;&gt;roo_scheduler -->
<g id="edge20" class="edge">
<title>roo_onewire&#45;&gt;roo_scheduler</title>
<path fill="none" stroke="black" d="M271.82,-554.64C277.16,-549.6 282.04,-543.66 285,-537 288.98,-528.07 288.68,-524.06 285,-515 283.57,-511.48 281.62,-508.12 279.35,-504.96"/>
<polygon fill="black" stroke="black" points="281.9,-502.54 272.8,-497.11 276.52,-507.03 281.9,-502.54"/>
</g>
<!-- roo_powersafefs -->
<g id="node16" class="node">
<title>roo_powersafefs</title>
<polygon fill="plum" stroke="red" points="223.5,-305 116.5,-305 116.5,-267 223.5,-267 223.5,-305"/>
<text text-anchor="middle" x="170" y="-289.8" font-family="Times,serif" font-size="14.00">roo_powersafefs</text>
<text text-anchor="middle" x="170" y="-274.8" font-family="Times,serif" font-size="14.00">1.0.0</text>
</g>
<!-- roo_powersafefs&#45;&gt;roo_threads -->
<g id="edge22" class="edge">
<title>roo_powersafefs&#45;&gt;roo_threads</title>
<path fill="none" stroke="red" d="M170,-266.88C170,-253.35 170,-234.62 170,-219.15"/>
<polygon fill="red" stroke="red" points="173.5,-219.07 170,-209.07 166.5,-219.07 173.5,-219.07"/>
<text text-anchor="middle" x="197" y="-241" font-family="Times,serif" font-size="10.00" fill="red">1.1.6</text>
<text text-anchor="middle" x="197" y="-230" font-family="Times,serif" font-size="10.00" fill="red">(latest: 1.2.1)</text>
</g>
<!-- roo_prefs -->
<g id="node17" class="node">
<title>roo_prefs</title>
<polygon fill="#b1dbab" stroke="red" points="464,-593 396,-593 396,-555 464,-555 464,-593"/>
<text text-anchor="middle" x="430" y="-577.8" font-family="Times,serif" font-size="14.00">roo_prefs</text>
<text text-anchor="middle" x="430" y="-562.8" font-family="Times,serif" font-size="14.00">1.2.7</text>
</g>
<!-- roo_prefs&#45;&gt;roo_logging -->
<g id="edge23" class="edge">
<title>roo_prefs&#45;&gt;roo_logging</title>
<path fill="none" stroke="red" d="M414.92,-554.77C395.16,-530.18 360.39,-484.45 338,-441 316.38,-399.06 299.65,-346.66 290.57,-315.06"/>
<polygon fill="red" stroke="red" points="293.87,-313.87 287.79,-305.19 287.14,-315.77 293.87,-313.87"/>
<text text-anchor="middle" x="365" y="-433" font-family="Times,serif" font-size="10.00" fill="red">1.5.1</text>
<text text-anchor="middle" x="365" y="-422" font-family="Times,serif" font-size="10.00" fill="red">(latest: 1.5.2)</text>
</g>
<!-- roo_prefs&#45;&gt;roo_scheduler -->
<g id="edge24" class="edge">
<title>roo_prefs&#45;&gt;roo_scheduler</title>
<path fill="none" stroke="black" d="M395.72,-555.1C366.75,-539.97 325.09,-518.22 293.73,-501.84"/>
<polygon fill="black" stroke="black" points="295.25,-498.68 284.77,-497.16 292.01,-504.89 295.25,-498.68"/>
</g>
<!-- roo_quantity&#45;&gt;roo_logging -->
<g id="edge25" class="edge">
<title>roo_quantity&#45;&gt;roo_logging</title>
<path fill="none" stroke="black" d="M82.64,-458.86C95.35,-426.68 126.16,-359.56 174,-323 193.35,-308.21 204.14,-312.37 231.72,-304.78"/>
<polygon fill="black" stroke="black" points="232.75,-308.13 241.3,-301.87 230.71,-301.43 232.75,-308.13"/>
</g>
<!-- roo_scheduler&#45;&gt;roo_collections -->
<g id="edge26" class="edge">
<title>roo_scheduler&#45;&gt;roo_collections</title>
<path fill="none" stroke="black" d="M296.51,-460.63C341.19,-444.9 408.9,-421.06 457.49,-403.95"/>
<polygon fill="black" stroke="black" points="458.68,-407.24 466.95,-400.62 456.35,-400.64 458.68,-407.24"/>
</g>
<!-- roo_scheduler&#45;&gt;roo_threads -->
<g id="edge27" class="edge">
<title>roo_scheduler&#45;&gt;roo_threads</title>
<path fill="none" stroke="red" d="M235.1,-458.96C225.63,-447.51 213.11,-432.37 202,-419 159.86,-368.26 129.45,-367.01 107,-305 101.25,-289.12 101.27,-282.89 107,-267 113.97,-247.68 128.21,-229.8 141.4,-216.24"/>
<polygon fill="red" stroke="red" points="143.9,-218.69 148.56,-209.17 138.98,-213.7 143.9,-218.69"/>
<text text-anchor="middle" x="155" y="-337" font-family="Times,serif" font-size="10.00" fill="red">1.2.0</text>
<text text-anchor="middle" x="155" y="-326" font-family="Times,serif" font-size="10.00" fill="red">(latest: 1.2.1)</text>
</g>
<!-- roo_testing -->
<g id="node20" class="node">
<title>roo_testing</title>
<polygon fill="#b1dbab" stroke="black" points="128.5,-38 51.5,-38 51.5,0 128.5,0 128.5,-38"/>
<text text-anchor="middle" x="90" y="-22.8" font-family="Times,serif" font-size="14.00">roo_testing</text>
<text text-anchor="middle" x="90" y="-7.8" font-family="Times,serif" font-size="14.00">1.2.1</text>
</g>
<!-- roo_time -->
<g id="node22" class="node">
<title>roo_time</title>
<polygon fill="#b1dbab" stroke="black" points="123,-113 57,-113 57,-75 123,-75 123,-113"/>
<text text-anchor="middle" x="90" y="-97.8" font-family="Times,serif" font-size="14.00">roo_time</text>
<text text-anchor="middle" x="90" y="-82.8" font-family="Times,serif" font-size="14.00">1.4.1</text>
</g>
<!-- roo_threads&#45;&gt;roo_time -->
<g id="edge28" class="edge">
<title>roo_threads&#45;&gt;roo_time</title>
<path fill="none" stroke="black" d="M160.3,-170.76C153.49,-158.81 143.72,-143.2 133,-131 129.63,-127.17 125.84,-123.39 121.94,-119.82"/>
<polygon fill="black" stroke="black" points="124.22,-117.16 114.39,-113.22 119.62,-122.44 124.22,-117.16"/>
</g>
<!-- roo_time&#45;&gt;roo_testing -->
<g id="edge29" class="edge">
<title>roo_time&#45;&gt;roo_testing</title>
<path fill="none" stroke="black" d="M90,-74.96C90,-66.88 90,-57.18 90,-48.18"/>
<polygon fill="black" stroke="black" points="93.5,-48.09 90,-38.09 86.5,-48.09 93.5,-48.09"/>
</g>
<!-- roo_time_ds3231 -->
<g id="node23" class="node">
<title>roo_time_ds3231</title>
<polygon fill="#b1dbab" stroke="red" points="112,-209 0,-209 0,-171 112,-171 112,-209"/>
<text text-anchor="middle" x="56" y="-193.8" font-family="Times,serif" font-size="14.00">roo_time_ds3231</text>
<text text-anchor="middle" x="56" y="-178.8" font-family="Times,serif" font-size="14.00">1.1.4</text>
</g>
<!-- roo_time_ds3231&#45;&gt;roo_time -->
<g id="edge30" class="edge">
<title>roo_time_ds3231&#45;&gt;roo_time</title>
<path fill="none" stroke="red" d="M62.56,-170.88C67.49,-157.22 74.35,-138.26 79.98,-122.71"/>
<polygon fill="red" stroke="red" points="83.35,-123.66 83.46,-113.07 76.77,-121.28 83.35,-123.66"/>
<text text-anchor="middle" x="104" y="-145" font-family="Times,serif" font-size="10.00" fill="red">1.4.0</text>
<text text-anchor="middle" x="104" y="-134" font-family="Times,serif" font-size="10.00" fill="red">(latest: 1.4.1)</text>
</g>
<!-- roo_transceivers&#45;&gt;roo_prefs -->
<g id="edge31" class="edge">
<title>roo_transceivers&#45;&gt;roo_prefs</title>
<path fill="none" stroke="black" d="M411.18,-629.96C414,-621.71 417.41,-611.75 420.55,-602.6"/>
<polygon fill="black" stroke="black" points="423.88,-603.68 423.8,-593.09 417.25,-601.42 423.88,-603.68"/>
</g>
<!-- roo_transport -->
<g id="node25" class="node">
<title>roo_transport</title>
<polygon fill="khaki" stroke="red" points="480.5,-497 391.5,-497 391.5,-459 480.5,-459 480.5,-497"/>
<text text-anchor="middle" x="436" y="-481.8" font-family="Times,serif" font-size="14.00">roo_transport</text>
<text text-anchor="middle" x="436" y="-466.8" font-family="Times,serif" font-size="14.00">1.1.0</text>
</g>
<!-- roo_transport&#45;&gt;roo_collections -->
<g id="edge32" class="edge">
<title>roo_transport&#45;&gt;roo_collections</title>
<path fill="none" stroke="black" d="M480.73,-459.81C489.13,-454.84 497.11,-448.63 503,-441 509.53,-432.54 513.07,-421.48 514.97,-411.29"/>
<polygon fill="black" stroke="black" points="518.47,-411.52 516.41,-401.13 511.54,-410.54 518.47,-411.52"/>
</g>
<!-- roo_transport&#45;&gt;roo_io -->
<g id="edge33" class="edge">
<title>roo_transport&#45;&gt;roo_io</title>
<path fill="none" stroke="black" d="M416.82,-458.89C412.04,-453.53 407.33,-447.37 404,-441 399.21,-431.83 396.02,-420.99 393.92,-411.17"/>
<polygon fill="black" stroke="black" points="397.31,-410.25 392.04,-401.06 390.43,-411.53 397.31,-410.25"/>
</g>
<!-- roo_wifi -->
<g id="node26" class="node">
<title>roo_wifi</title>
<polygon fill="#b1dbab" stroke="red" points="539.5,-668 476.5,-668 476.5,-630 539.5,-630 539.5,-668"/>
<text text-anchor="middle" x="508" y="-652.8" font-family="Times,serif" font-size="14.00">roo_wifi</text>
<text text-anchor="middle" x="508" y="-637.8" font-family="Times,serif" font-size="14.00">1.1.3</text>
</g>
<!-- roo_wifi&#45;&gt;roo_prefs -->
<g id="edge34" class="edge">
<title>roo_wifi&#45;&gt;roo_prefs</title>
<path fill="none" stroke="black" d="M488.72,-629.96C479.06,-620.92 467.22,-609.83 456.7,-599.99"/>
<polygon fill="black" stroke="black" points="459.02,-597.37 449.33,-593.09 454.24,-602.48 459.02,-597.37"/>
</g>
<!-- roo_windows&#45;&gt;roo_icons -->
<g id="edge36" class="edge">
<title>roo_windows&#45;&gt;roo_icons</title>
<path fill="none" stroke="black" d="M592.64,-629.96C586.75,-621.36 579.59,-610.9 573.1,-601.43"/>
<polygon fill="black" stroke="black" points="575.93,-599.36 567.39,-593.09 570.15,-603.32 575.93,-599.36"/>
</g>
<!-- roo_windows&#45;&gt;roo_locale -->
<g id="edge35" class="edge">
<title>roo_windows&#45;&gt;roo_locale</title>
<path fill="none" stroke="black" d="M614.89,-629.96C619.5,-621.53 625.09,-611.33 630.2,-602.01"/>
<polygon fill="black" stroke="black" points="633.35,-603.54 635.09,-593.09 627.21,-600.18 633.35,-603.54"/>
</g>
<!-- roo_windows&#45;&gt;roo_scheduler -->
<g id="edge37" class="edge">
<title>roo_windows&#45;&gt;roo_scheduler</title>
<path fill="none" stroke="black" d="M569.26,-629.91C551.1,-620.03 529.11,-606.98 511,-593 492.09,-578.41 493.28,-567.62 473,-555 421.08,-522.67 353.73,-502.18 306.69,-490.73"/>
<polygon fill="black" stroke="black" points="307.22,-487.26 296.68,-488.35 305.6,-494.07 307.22,-487.26"/>
</g>
<!-- roo_windows_transceivers -->
<g id="node28" class="node">
<title>roo_windows_transceivers</title>
<polygon fill="khaki" stroke="red" points="485.5,-764 324.5,-764 324.5,-726 485.5,-726 485.5,-764"/>
<text text-anchor="middle" x="405" y="-748.8" font-family="Times,serif" font-size="14.00">roo_windows_transceivers</text>
<text text-anchor="middle" x="405" y="-733.8" font-family="Times,serif" font-size="14.00">1.0.0</text>
</g>
<!-- roo_windows_transceivers&#45;&gt;roo_transceivers -->
<g id="edge38" class="edge">
<title>roo_windows_transceivers&#45;&gt;roo_transceivers</title>
<path fill="none" stroke="red" d="M405,-725.88C405,-712.35 405,-693.62 405,-678.15"/>
<polygon fill="red" stroke="red" points="408.5,-678.07 405,-668.07 401.5,-678.07 408.5,-678.07"/>
<text text-anchor="middle" x="432" y="-700" font-family="Times,serif" font-size="10.00" fill="red">1.1.3</text>
<text text-anchor="middle" x="432" y="-689" font-family="Times,serif" font-size="10.00" fill="red">(latest: 1.1.4)</text>
</g>
<!-- roo_windows_transceivers&#45;&gt;roo_windows -->
<g id="edge39" class="edge">
<title>roo_windows_transceivers&#45;&gt;roo_windows</title>
<path fill="none" stroke="red" d="M443.56,-725.88C475.93,-710.66 522.33,-688.85 557.08,-672.52"/>
<polygon fill="red" stroke="red" points="558.99,-675.49 566.56,-668.07 556.02,-669.15 558.99,-675.49"/>
<text text-anchor="middle" x="549" y="-700" font-family="Times,serif" font-size="10.00" fill="red">1.4.1</text>
<text text-anchor="middle" x="549" y="-689" font-family="Times,serif" font-size="10.00" fill="red">(latest: 1.4.2)</text>
</g>
<!-- roo_windows_wifi -->
<g id="node29" class="node">
<title>roo_windows_wifi</title>
<polygon fill="plum" stroke="red" points="622.5,-764 503.5,-764 503.5,-726 622.5,-726 622.5,-764"/>
<text text-anchor="middle" x="563" y="-748.8" font-family="Times,serif" font-size="14.00">roo_windows_wifi</text>
<text text-anchor="middle" x="563" y="-733.8" font-family="Times,serif" font-size="14.00">1.1.3</text>
</g>
<!-- roo_windows_wifi&#45;&gt;roo_wifi -->
<g id="edge40" class="edge">
<title>roo_windows_wifi&#45;&gt;roo_wifi</title>
<path fill="none" stroke="black" d="M534.93,-725.97C528.84,-720.85 523.03,-714.79 519,-708 513.73,-699.14 510.91,-688.28 509.42,-678.37"/>
<polygon fill="black" stroke="black" points="512.86,-677.67 508.27,-668.12 505.9,-678.45 512.86,-677.67"/>
</g>
<!-- roo_windows_wifi&#45;&gt;roo_windows -->
<g id="edge41" class="edge">
<title>roo_windows_wifi&#45;&gt;roo_windows</title>
<path fill="none" stroke="black" d="M581.1,-725.8C585.58,-720.43 589.96,-714.3 593,-708 597.43,-698.82 600.23,-688.05 601.99,-678.3"/>
<polygon fill="black" stroke="black" points="605.48,-678.66 603.53,-668.24 598.56,-677.6 605.48,-678.66"/>
</g>
</g>
</svg>
