<?xml version="1.0" encoding="UTF-8" standalone="no"?>
<!DOCTYPE svg PUBLIC "-//W3C//DTD SVG 1.1//EN"
 "http://www.w3.org/Graphics/SVG/1.1/DTD/svg11.dtd">
<!-- Generated by graphviz version 2.42.4 (0)
 -->
<!-- Title: dependencies Pages: 1 -->
<svg width="852pt" height="746pt"
 viewBox="0.00 0.00 852.00 746.00" xmlns="http://www.w3.org/2000/svg" xmlns:xlink="http://www.w3.org/1999/xlink">
<g id="graph0" class="graph" transform="scale(1 1) rotate(0) translate(4 742)">
<title>dependencies</title>
<polygon fill="white" stroke="transparent" points="-4,4 -4,-742 848,-742 848,4 -4,4"/>
<!-- roo_backport -->
<g id="node1" class="node">
<title>roo_backport</title>
<polygon fill="#b1dbab" stroke="black" points="523,-188 413,-188 413,-150 523,-150 523,-188"/>
<text text-anchor="middle" x="468" y="-172.8" font-family="Times,serif" font-size="14.00">roo_backport</text>
<text text-anchor="middle" x="468" y="-157.8" font-family="Times,serif" font-size="14.00">1.2.1</text>
</g>
<!-- roo_blink -->
<g id="node2" class="node">
<title>roo_blink</title>
<polygon fill="#b1dbab" stroke="black" points="149,-434 67,-434 67,-396 149,-396 149,-434"/>
<text text-anchor="middle" x="108" y="-418.8" font-family="Times,serif" font-size="14.00">roo_blink</text>
<text text-anchor="middle" x="108" y="-403.8" font-family="Times,serif" font-size="14.00">1.0.5</text>
</g>
<!-- roo_logging -->
<g id="node12" class="node">
<title>roo_logging</title>
<polygon fill="#b1dbab" stroke="black" points="405,-263 305,-263 305,-225 405,-225 405,-263"/>
<text text-anchor="middle" x="355" y="-247.8" font-family="Times,serif" font-size="14.00">roo_logging</text>
<text text-anchor="middle" x="355" y="-232.8" font-family="Times,serif" font-size="14.00">1.5.3</text>
</g>
<!-- roo_blink&#45;&gt;roo_logging -->
<g id="edge1" class="edge">
<title>roo_blink&#45;&gt;roo_logging</title>
<path fill="none" stroke="black" d="M122.82,-395.69C143.4,-371.22 182.77,-327.74 224,-300 241.67,-288.11 248.38,-289.29 268,-281 278.71,-276.47 290.19,-271.68 301.18,-267.12"/>
<polygon fill="black" stroke="black" points="302.79,-270.24 310.69,-263.18 300.11,-263.78 302.79,-270.24"/>
</g>
<!-- roo_scheduler -->
<g id="node16" class="node">
<title>roo_scheduler</title>
<polygon fill="#b1dbab" stroke="black" points="375,-338 259,-338 259,-300 375,-300 375,-338"/>
<text text-anchor="middle" x="317" y="-322.8" font-family="Times,serif" font-size="14.00">roo_scheduler</text>
<text text-anchor="middle" x="317" y="-307.8" font-family="Times,serif" font-size="14.00">2.1.7</text>
</g>
<!-- roo_blink&#45;&gt;roo_scheduler -->
<g id="edge2" class="edge">
<title>roo_blink&#45;&gt;roo_scheduler</title>
<path fill="none" stroke="black" d="M148.3,-395.88C182.27,-380.6 231.02,-358.67 267.39,-342.31"/>
<polygon fill="black" stroke="black" points="269.14,-345.36 276.83,-338.07 266.27,-338.98 269.14,-345.36"/>
</g>
<!-- roo_collections -->
<g id="node3" class="node">
<title>roo_collections</title>
<polygon fill="#b1dbab" stroke="black" points="663,-263 541,-263 541,-225 663,-225 663,-263"/>
<text text-anchor="middle" x="602" y="-247.8" font-family="Times,serif" font-size="14.00">roo_collections</text>
<text text-anchor="middle" x="602" y="-232.8" font-family="Times,serif" font-size="14.00">1.4.1</text>
</g>
<!-- roo_collections&#45;&gt;roo_backport -->
<g id="edge3" class="edge">
<title>roo_collections&#45;&gt;roo_backport</title>
<path fill="none" stroke="black" d="M568.88,-224.96C551.16,-215.3 529.15,-203.32 510.22,-193"/>
<polygon fill="black" stroke="black" points="511.66,-189.8 501.21,-188.09 508.31,-195.95 511.66,-189.8"/>
</g>
<!-- roo_comms -->
<g id="node4" class="node">
<title>roo_comms</title>
<polygon fill="#b1dbab" stroke="red" points="384.5,-642 287.5,-642 287.5,-604 384.5,-604 384.5,-642"/>
<text text-anchor="middle" x="336" y="-626.8" font-family="Times,serif" font-size="14.00">roo_comms</text>
<text text-anchor="middle" x="336" y="-611.8" font-family="Times,serif" font-size="14.00">1.1.3</text>
</g>
<!-- roo_comms&#45;&gt;roo_blink -->
<g id="edge4" class="edge">
<title>roo_comms&#45;&gt;roo_blink</title>
<path fill="none" stroke="red" d="M287.14,-615.41C236.88,-605.86 160.52,-583.08 121,-530 102.68,-505.39 101.7,-469.14 103.82,-444.15"/>
<polygon fill="red" stroke="red" points="107.3,-444.52 104.88,-434.2 100.34,-443.78 107.3,-444.52"/>
<text text-anchor="middle" x="154" y="-514" font-family="Times,serif" font-size="10.00" fill="red">1.0.4</text>
<text text-anchor="middle" x="154" y="-503" font-family="Times,serif" font-size="10.00" fill="red">(latest: 1.0.5)</text>
</g>
<!-- roo_control -->
<g id="node5" class="node">
<title>roo_control</title>
<polygon fill="#b1dbab" stroke="black" points="365.5,-434 268.5,-434 268.5,-396 365.5,-396 365.5,-434"/>
<text text-anchor="middle" x="317" y="-418.8" font-family="Times,serif" font-size="14.00">roo_control</text>
<text text-anchor="middle" x="317" y="-403.8" font-family="Times,serif" font-size="14.00">1.2.4</text>
</g>
<!-- roo_comms&#45;&gt;roo_control -->
<g id="edge5" class="edge">
<title>roo_comms&#45;&gt;roo_control</title>
<path fill="none" stroke="red" d="M338.58,-603.8C341.7,-578.55 345.85,-531.54 340,-492 337.58,-475.65 332.38,-457.94 327.54,-443.74"/>
<polygon fill="red" stroke="red" points="330.76,-442.34 324.12,-434.08 324.16,-444.68 330.76,-442.34"/>
<text text-anchor="middle" x="376" y="-514" font-family="Times,serif" font-size="10.00" fill="red">1.2.3</text>
<text text-anchor="middle" x="376" y="-503" font-family="Times,serif" font-size="10.00" fill="red">(latest: 1.2.4)</text>
</g>
<!-- roo_io -->
<g id="node10" class="node">
<title>roo_io</title>
<polygon fill="#b1dbab" stroke="black" points="578.5,-338 519.5,-338 519.5,-300 578.5,-300 578.5,-338"/>
<text text-anchor="middle" x="549" y="-322.8" font-family="Times,serif" font-size="14.00">roo_io</text>
<text text-anchor="middle" x="549" y="-307.8" font-family="Times,serif" font-size="14.00">2.1.3</text>
</g>
<!-- roo_comms&#45;&gt;roo_io -->
<g id="edge6" class="edge">
<title>roo_comms&#45;&gt;roo_io</title>
<path fill="none" stroke="red" d="M352.19,-603.77C368.17,-585.52 393.04,-556.43 413,-530 438.26,-496.55 435.33,-480.57 466,-452 477.66,-441.14 486.3,-445.8 497,-434 519.5,-409.18 533.75,-372.97 541.53,-348.05"/>
<polygon fill="red" stroke="red" points="544.98,-348.71 544.47,-338.13 538.27,-346.72 544.98,-348.71"/>
<text text-anchor="middle" x="499" y="-466" font-family="Times,serif" font-size="10.00" fill="red">2.1.1</text>
<text text-anchor="middle" x="499" y="-455" font-family="Times,serif" font-size="10.00" fill="red">(latest: 2.1.3)</text>
</g>
<!-- roo_transceivers -->
<g id="node21" class="node">
<title>roo_transceivers</title>
<polygon fill="khaki" stroke="red" points="331.5,-530 196.5,-530 196.5,-492 331.5,-492 331.5,-530"/>
<text text-anchor="middle" x="264" y="-514.8" font-family="Times,serif" font-size="14.00">roo_transceivers</text>
<text text-anchor="middle" x="264" y="-499.8" font-family="Times,serif" font-size="14.00">1.1.4</text>
</g>
<!-- roo_comms&#45;&gt;roo_transceivers -->
<g id="edge7" class="edge">
<title>roo_comms&#45;&gt;roo_transceivers</title>
<path fill="none" stroke="black" d="M324.11,-603.84C312.49,-586.08 294.67,-558.85 281.44,-538.65"/>
<polygon fill="black" stroke="black" points="284.31,-536.64 275.91,-530.19 278.46,-540.48 284.31,-536.64"/>
</g>
<!-- roo_quantity -->
<g id="node15" class="node">
<title>roo_quantity</title>
<polygon fill="#b1dbab" stroke="black" points="500.5,-338 393.5,-338 393.5,-300 500.5,-300 500.5,-338"/>
<text text-anchor="middle" x="447" y="-322.8" font-family="Times,serif" font-size="14.00">roo_quantity</text>
<text text-anchor="middle" x="447" y="-307.8" font-family="Times,serif" font-size="14.00">1.1.7</text>
</g>
<!-- roo_control&#45;&gt;roo_quantity -->
<g id="edge8" class="edge">
<title>roo_control&#45;&gt;roo_quantity</title>
<path fill="none" stroke="black" d="M342.07,-395.88C362.48,-381.12 391.47,-360.15 413.81,-344"/>
<polygon fill="black" stroke="black" points="415.96,-346.76 422.01,-338.07 411.86,-341.09 415.96,-346.76"/>
</g>
<!-- roo_control&#45;&gt;roo_scheduler -->
<g id="edge9" class="edge">
<title>roo_control&#45;&gt;roo_scheduler</title>
<path fill="none" stroke="black" d="M317,-395.88C317,-382.35 317,-363.62 317,-348.15"/>
<polygon fill="black" stroke="black" points="320.5,-348.07 317,-338.07 313.5,-348.07 320.5,-348.07"/>
</g>
<!-- roo_dashboard -->
<g id="node6" class="node">
<title>roo_dashboard</title>
<polygon fill="khaki" stroke="red" points="651,-738 529,-738 529,-700 651,-700 651,-738"/>
<text text-anchor="middle" x="590" y="-722.8" font-family="Times,serif" font-size="14.00">roo_dashboard</text>
<text text-anchor="middle" x="590" y="-707.8" font-family="Times,serif" font-size="14.00">1.0.1</text>
</g>
<!-- roo_windows -->
<g id="node24" class="node">
<title>roo_windows</title>
<polygon fill="#b1dbab" stroke="red" points="644.5,-642 535.5,-642 535.5,-604 644.5,-604 644.5,-642"/>
<text text-anchor="middle" x="590" y="-626.8" font-family="Times,serif" font-size="14.00">roo_windows</text>
<text text-anchor="middle" x="590" y="-611.8" font-family="Times,serif" font-size="14.00">1.4.2</text>
</g>
<!-- roo_dashboard&#45;&gt;roo_windows -->
<g id="edge10" class="edge">
<title>roo_dashboard&#45;&gt;roo_windows</title>
<path fill="none" stroke="red" d="M590,-699.88C590,-686.35 590,-667.62 590,-652.15"/>
<polygon fill="red" stroke="red" points="593.5,-652.07 590,-642.07 586.5,-652.07 593.5,-652.07"/>
<text text-anchor="middle" x="623" y="-674" font-family="Times,serif" font-size="10.00" fill="red">1.4.1</text>
<text text-anchor="middle" x="623" y="-663" font-family="Times,serif" font-size="10.00" fill="red">(latest: 1.4.2)</text>
</g>
<!-- roo_display -->
<g id="node7" class="node">
<title>roo_display</title>
<polygon fill="khaki" stroke="red" points="812,-434 714,-434 714,-396 812,-396 812,-434"/>
<text text-anchor="middle" x="763" y="-418.8" font-family="Times,serif" font-size="14.00">roo_display</text>
<text text-anchor="middle" x="763" y="-403.8" font-family="Times,serif" font-size="14.00">2.3.2</text>
</g>
<!-- roo_display&#45;&gt;roo_collections -->
<g id="edge11" class="edge">
<title>roo_display&#45;&gt;roo_collections</title>
<path fill="none" stroke="red" d="M769.66,-395.85C777.3,-371.56 786.35,-328.29 766,-300 744.77,-270.49 706.95,-256.59 672.97,-250.14"/>
<polygon fill="red" stroke="red" points="673.49,-246.67 663.04,-248.43 672.31,-253.57 673.49,-246.67"/>
<text text-anchor="middle" x="811" y="-322" font-family="Times,serif" font-size="10.00" fill="red">1.4.0</text>
<text text-anchor="middle" x="811" y="-311" font-family="Times,serif" font-size="10.00" fill="red">(latest: 1.4.1)</text>
</g>
<!-- roo_display&#45;&gt;roo_io -->
<g id="edge12" class="edge">
<title>roo_display&#45;&gt;roo_io</title>
<path fill="none" stroke="red" d="M721.99,-395.99C683.28,-378.98 625.66,-353.67 587.72,-337.01"/>
<polygon fill="red" stroke="red" points="589.08,-333.78 578.52,-332.97 586.27,-340.19 589.08,-333.78"/>
<text text-anchor="middle" x="708" y="-370" font-family="Times,serif" font-size="10.00" fill="red">2.1.2</text>
<text text-anchor="middle" x="708" y="-359" font-family="Times,serif" font-size="10.00" fill="red">(latest: 2.1.3)</text>
</g>
<!-- roo_flags -->
<g id="node8" class="node">
<title>roo_flags</title>
<polygon fill="#b1dbab" stroke="black" points="395,-188 315,-188 315,-150 395,-150 395,-188"/>
<text text-anchor="middle" x="355" y="-172.8" font-family="Times,serif" font-size="14.00">roo_flags</text>
<text text-anchor="middle" x="355" y="-157.8" font-family="Times,serif" font-size="14.00">1.2.1</text>
</g>
<!-- roo_icons -->
<g id="node9" class="node">
<title>roo_icons</title>
<polygon fill="#b1dbab" stroke="red" points="787.5,-530 704.5,-530 704.5,-492 787.5,-492 787.5,-530"/>
<text text-anchor="middle" x="746" y="-514.8" font-family="Times,serif" font-size="14.00">roo_icons</text>
<text text-anchor="middle" x="746" y="-499.8" font-family="Times,serif" font-size="14.00">1.2.1</text>
</g>
<!-- roo_icons&#45;&gt;roo_display -->
<g id="edge13" class="edge">
<title>roo_icons&#45;&gt;roo_display</title>
<path fill="none" stroke="red" d="M749.28,-491.88C751.72,-478.35 755.11,-459.62 757.91,-444.15"/>
<polygon fill="red" stroke="red" points="761.4,-444.53 759.73,-434.07 754.51,-443.29 761.4,-444.53"/>
<text text-anchor="middle" x="789" y="-466" font-family="Times,serif" font-size="10.00" fill="red">2.3.1</text>
<text text-anchor="middle" x="789" y="-455" font-family="Times,serif" font-size="10.00" fill="red">(latest: 2.3.2)</text>
</g>
<!-- roo_io&#45;&gt;roo_logging -->
<g id="edge14" class="edge">
<title>roo_io&#45;&gt;roo_logging</title>
<path fill="none" stroke="black" d="M519.41,-304.37C515.92,-302.85 512.39,-301.37 509,-300 478.24,-287.61 443.5,-275.08 414.8,-265.11"/>
<polygon fill="black" stroke="black" points="415.91,-261.79 405.32,-261.83 413.62,-268.41 415.91,-261.79"/>
</g>
<!-- roo_locale -->
<g id="node11" class="node">
<title>roo_locale</title>
<polygon fill="#b1dbab" stroke="black" points="670,-530 582,-530 582,-492 670,-492 670,-530"/>
<text text-anchor="middle" x="626" y="-514.8" font-family="Times,serif" font-size="14.00">roo_locale</text>
<text text-anchor="middle" x="626" y="-499.8" font-family="Times,serif" font-size="14.00">1.1.1</text>
</g>
<!-- roo_logging&#45;&gt;roo_backport -->
<g id="edge15" class="edge">
<title>roo_logging&#45;&gt;roo_backport</title>
<path fill="none" stroke="black" d="M382.93,-224.96C397.6,-215.48 415.76,-203.75 431.52,-193.57"/>
<polygon fill="black" stroke="black" points="433.5,-196.46 440,-188.09 429.7,-190.58 433.5,-196.46"/>
</g>
<!-- roo_logging&#45;&gt;roo_flags -->
<g id="edge16" class="edge">
<title>roo_logging&#45;&gt;roo_flags</title>
<path fill="none" stroke="black" d="M355,-224.96C355,-216.88 355,-207.18 355,-198.18"/>
<polygon fill="black" stroke="black" points="358.5,-198.09 355,-188.09 351.5,-198.09 358.5,-198.09"/>
</g>
<!-- roo_threads -->
<g id="node18" class="node">
<title>roo_threads</title>
<polygon fill="#b1dbab" stroke="black" points="296.5,-188 195.5,-188 195.5,-150 296.5,-150 296.5,-188"/>
<text text-anchor="middle" x="246" y="-172.8" font-family="Times,serif" font-size="14.00">roo_threads</text>
<text text-anchor="middle" x="246" y="-157.8" font-family="Times,serif" font-size="14.00">1.2.1</text>
</g>
<!-- roo_logging&#45;&gt;roo_threads -->
<g id="edge17" class="edge">
<title>roo_logging&#45;&gt;roo_threads</title>
<path fill="none" stroke="black" d="M328.06,-224.96C314.04,-215.57 296.72,-203.97 281.61,-193.85"/>
<polygon fill="black" stroke="black" points="283.27,-190.75 273.01,-188.09 279.37,-196.56 283.27,-190.75"/>
</g>
<!-- roo_onewire -->
<g id="node13" class="node">
<title>roo_onewire</title>
<polygon fill="#b1dbab" stroke="black" points="488,-434 384,-434 384,-396 488,-396 488,-434"/>
<text text-anchor="middle" x="436" y="-418.8" font-family="Times,serif" font-size="14.00">roo_onewire</text>
<text text-anchor="middle" x="436" y="-403.8" font-family="Times,serif" font-size="14.00">2.0.8</text>
</g>
<!-- roo_onewire&#45;&gt;roo_quantity -->
<g id="edge19" class="edge">
<title>roo_onewire&#45;&gt;roo_quantity</title>
<path fill="none" stroke="black" d="M438.12,-395.88C439.7,-382.35 441.9,-363.62 443.71,-348.15"/>
<polygon fill="black" stroke="black" points="447.2,-348.41 444.89,-338.07 440.25,-347.59 447.2,-348.41"/>
</g>
<!-- roo_onewire&#45;&gt;roo_scheduler -->
<g id="edge18" class="edge">
<title>roo_onewire&#45;&gt;roo_scheduler</title>
<path fill="none" stroke="black" d="M413.06,-395.88C394.54,-381.25 368.3,-360.52 347.93,-344.43"/>
<polygon fill="black" stroke="black" points="349.89,-341.52 339.87,-338.07 345.55,-347.01 349.89,-341.52"/>
</g>
<!-- roo_prefs -->
<g id="node14" class="node">
<title>roo_prefs</title>
<polygon fill="#b1dbab" stroke="black" points="250.5,-434 167.5,-434 167.5,-396 250.5,-396 250.5,-434"/>
<text text-anchor="middle" x="209" y="-418.8" font-family="Times,serif" font-size="14.00">roo_prefs</text>
<text text-anchor="middle" x="209" y="-403.8" font-family="Times,serif" font-size="14.00">1.2.8</text>
</g>
<!-- roo_prefs&#45;&gt;roo_logging -->
<g id="edge20" class="edge">
<title>roo_prefs&#45;&gt;roo_logging</title>
<path fill="none" stroke="black" d="M211.38,-395.74C215.42,-371.33 225.68,-327.91 250,-300 262.32,-285.86 279.17,-274.82 295.77,-266.46"/>
<polygon fill="black" stroke="black" points="297.42,-269.56 304.94,-262.09 294.4,-263.24 297.42,-269.56"/>
</g>
<!-- roo_prefs&#45;&gt;roo_scheduler -->
<g id="edge21" class="edge">
<title>roo_prefs&#45;&gt;roo_scheduler</title>
<path fill="none" stroke="black" d="M248.92,-395.94C258.01,-390.85 267.26,-384.81 275,-378 285.13,-369.08 294.23,-357.29 301.34,-346.67"/>
<polygon fill="black" stroke="black" points="304.38,-348.42 306.83,-338.12 298.48,-344.64 304.38,-348.42"/>
</g>
<!-- roo_quantity&#45;&gt;roo_logging -->
<g id="edge22" class="edge">
<title>roo_quantity&#45;&gt;roo_logging</title>
<path fill="none" stroke="black" d="M424.26,-299.96C412.65,-290.74 398.35,-279.4 385.77,-269.42"/>
<polygon fill="black" stroke="black" points="387.81,-266.56 377.8,-263.09 383.46,-272.05 387.81,-266.56"/>
</g>
<!-- roo_scheduler&#45;&gt;roo_collections -->
<g id="edge23" class="edge">
<title>roo_scheduler&#45;&gt;roo_collections</title>
<path fill="none" stroke="black" d="M375.09,-302.34C378.1,-301.54 381.09,-300.76 384,-300 433.06,-287.22 488.45,-273.25 531.13,-262.59"/>
<polygon fill="black" stroke="black" points="532,-265.98 540.86,-260.16 530.31,-259.19 532,-265.98"/>
</g>
<!-- roo_scheduler&#45;&gt;roo_threads -->
<g id="edge24" class="edge">
<title>roo_scheduler&#45;&gt;roo_threads</title>
<path fill="none" stroke="black" d="M308.29,-299.85C296,-274.22 273.45,-227.22 259.12,-197.34"/>
<polygon fill="black" stroke="black" points="262.26,-195.8 254.78,-188.3 255.95,-198.83 262.26,-195.8"/>
</g>
<!-- roo_testing -->
<g id="node17" class="node">
<title>roo_testing</title>
<polygon fill="#b1dbab" stroke="black" points="476.5,-38 379.5,-38 379.5,0 476.5,0 476.5,-38"/>
<text text-anchor="middle" x="428" y="-22.8" font-family="Times,serif" font-size="14.00">roo_testing</text>
<text text-anchor="middle" x="428" y="-7.8" font-family="Times,serif" font-size="14.00">1.2.1</text>
</g>
<!-- roo_time -->
<g id="node19" class="node">
<title>roo_time</title>
<polygon fill="#b1dbab" stroke="black" points="467.5,-113 388.5,-113 388.5,-75 467.5,-75 467.5,-113"/>
<text text-anchor="middle" x="428" y="-97.8" font-family="Times,serif" font-size="14.00">roo_time</text>
<text text-anchor="middle" x="428" y="-82.8" font-family="Times,serif" font-size="14.00">1.4.1</text>
</g>
<!-- roo_threads&#45;&gt;roo_time -->
<g id="edge25" class="edge">
<title>roo_threads&#45;&gt;roo_time</title>
<path fill="none" stroke="black" d="M290.99,-149.96C317.73,-139.23 351.67,-125.62 379.07,-114.62"/>
<polygon fill="black" stroke="black" points="380.5,-117.83 388.47,-110.85 377.89,-111.33 380.5,-117.83"/>
</g>
<!-- roo_time&#45;&gt;roo_testing -->
<g id="edge26" class="edge">
<title>roo_time&#45;&gt;roo_testing</title>
<path fill="none" stroke="black" d="M428,-74.96C428,-66.88 428,-57.18 428,-48.18"/>
<polygon fill="black" stroke="black" points="431.5,-48.09 428,-38.09 424.5,-48.09 431.5,-48.09"/>
</g>
<!-- roo_time_ds3231 -->
<g id="node20" class="node">
<title>roo_time_ds3231</title>
<polygon fill="#b1dbab" stroke="black" points="679,-188 541,-188 541,-150 679,-150 679,-188"/>
<text text-anchor="middle" x="610" y="-172.8" font-family="Times,serif" font-size="14.00">roo_time_ds3231</text>
<text text-anchor="middle" x="610" y="-157.8" font-family="Times,serif" font-size="14.00">1.1.5</text>
</g>
<!-- roo_time_ds3231&#45;&gt;roo_time -->
<g id="edge27" class="edge">
<title>roo_time_ds3231&#45;&gt;roo_time</title>
<path fill="none" stroke="black" d="M565.01,-149.96C538.27,-139.23 504.33,-125.62 476.93,-114.62"/>
<polygon fill="black" stroke="black" points="478.11,-111.33 467.53,-110.85 475.5,-117.83 478.11,-111.33"/>
</g>
<!-- roo_transceivers&#45;&gt;roo_prefs -->
<g id="edge28" class="edge">
<title>roo_transceivers&#45;&gt;roo_prefs</title>
<path fill="none" stroke="red" d="M253.4,-491.88C245.25,-477.96 233.89,-458.53 224.69,-442.82"/>
<polygon fill="red" stroke="red" points="227.64,-440.93 219.57,-434.07 221.6,-444.47 227.64,-440.93"/>
<text text-anchor="middle" x="275" y="-466" font-family="Times,serif" font-size="10.00" fill="red">1.2.7</text>
<text text-anchor="middle" x="275" y="-455" font-family="Times,serif" font-size="10.00" fill="red">(latest: 1.2.8)</text>
</g>
<!-- roo_transport -->
<g id="node22" class="node">
<title>roo_transport</title>
<polygon fill="khaki" stroke="red" points="696,-434 582,-434 582,-396 696,-396 696,-434"/>
<text text-anchor="middle" x="639" y="-418.8" font-family="Times,serif" font-size="14.00">roo_transport</text>
<text text-anchor="middle" x="639" y="-403.8" font-family="Times,serif" font-size="14.00">1.1.0</text>
</g>
<!-- roo_transport&#45;&gt;roo_collections -->
<g id="edge29" class="edge">
<title>roo_transport&#45;&gt;roo_collections</title>
<path fill="none" stroke="red" d="M687.16,-395.97C694.28,-391.21 700.67,-385.3 705,-378 709.99,-369.59 708.57,-365.1 705,-356 691.11,-320.6 660.03,-289.77 635.62,-269.64"/>
<polygon fill="red" stroke="red" points="637.63,-266.76 627.64,-263.24 633.25,-272.22 637.63,-266.76"/>
<text text-anchor="middle" x="729" y="-322" font-family="Times,serif" font-size="10.00" fill="red">1.4.0</text>
<text text-anchor="middle" x="729" y="-311" font-family="Times,serif" font-size="10.00" fill="red">(latest: 1.4.1)</text>
</g>
<!-- roo_transport&#45;&gt;roo_io -->
<g id="edge30" class="edge">
<title>roo_transport&#45;&gt;roo_io</title>
<path fill="none" stroke="red" d="M581.81,-402.13C569.36,-396.82 557.64,-389.13 550,-378 544.12,-369.44 542.81,-358.36 543.35,-348.18"/>
<polygon fill="red" stroke="red" points="546.85,-348.36 544.47,-338.04 539.9,-347.6 546.85,-348.36"/>
<text text-anchor="middle" x="583" y="-370" font-family="Times,serif" font-size="10.00" fill="red">2.1.2</text>
<text text-anchor="middle" x="583" y="-359" font-family="Times,serif" font-size="10.00" fill="red">(latest: 2.1.3)</text>
</g>
<!-- roo_wifi -->
<g id="node23" class="node">
<title>roo_wifi</title>
<polygon fill="#b1dbab" stroke="red" points="72,-586 0,-586 0,-548 72,-548 72,-586"/>
<text text-anchor="middle" x="36" y="-570.8" font-family="Times,serif" font-size="14.00">roo_wifi</text>
<text text-anchor="middle" x="36" y="-555.8" font-family="Times,serif" font-size="14.00">1.1.3</text>
</g>
<!-- roo_wifi&#45;&gt;roo_prefs -->
<g id="edge31" class="edge">
<title>roo_wifi&#45;&gt;roo_prefs</title>
<path fill="none" stroke="red" d="M26.35,-547.73C19.36,-531.74 12.91,-508.54 24,-492 28.01,-486.01 104.64,-455.82 158,-435.34"/>
<polygon fill="red" stroke="red" points="159.25,-438.61 167.34,-431.77 156.75,-432.08 159.25,-438.61"/>
<text text-anchor="middle" x="57" y="-514" font-family="Times,serif" font-size="10.00" fill="red">1.2.7</text>
<text text-anchor="middle" x="57" y="-503" font-family="Times,serif" font-size="10.00" fill="red">(latest: 1.2.8)</text>
</g>
<!-- roo_windows&#45;&gt;roo_icons -->
<g id="edge33" class="edge">
<title>roo_windows&#45;&gt;roo_icons</title>
<path fill="none" stroke="black" d="M615.76,-603.84C642.15,-585.23 683.29,-556.22 712.26,-535.79"/>
<polygon fill="black" stroke="black" points="714.31,-538.63 720.46,-530.01 710.27,-532.91 714.31,-538.63"/>
</g>
<!-- roo_windows&#45;&gt;roo_locale -->
<g id="edge32" class="edge">
<title>roo_windows&#45;&gt;roo_locale</title>
<path fill="none" stroke="black" d="M595.94,-603.84C601.65,-586.4 610.35,-559.82 616.92,-539.74"/>
<polygon fill="black" stroke="black" points="620.26,-540.78 620.05,-530.19 613.61,-538.61 620.26,-540.78"/>
</g>
<!-- roo_windows&#45;&gt;roo_scheduler -->
<g id="edge34" class="edge">
<title>roo_windows&#45;&gt;roo_scheduler</title>
<path fill="none" stroke="red" d="M588.08,-603.82C582.52,-560.7 562.39,-451.73 497,-396 478.3,-380.06 423.12,-357.82 378.74,-341.52"/>
<polygon fill="red" stroke="red" points="379.76,-338.17 369.16,-338.03 377.36,-344.74 379.76,-338.17"/>
<text text-anchor="middle" x="586" y="-466" font-family="Times,serif" font-size="10.00" fill="red">2.1.6</text>
<text text-anchor="middle" x="586" y="-455" font-family="Times,serif" font-size="10.00" fill="red">(latest: 2.1.7)</text>
</g>
<!-- roo_windows_wifi -->
<g id="node25" class="node">
<title>roo_windows_wifi</title>
<polygon fill="khaki" stroke="red" points="273.5,-738 132.5,-738 132.5,-700 273.5,-700 273.5,-738"/>
<text text-anchor="middle" x="203" y="-722.8" font-family="Times,serif" font-size="14.00">roo_windows_wifi</text>
<text text-anchor="middle" x="203" y="-707.8" font-family="Times,serif" font-size="14.00">1.1.3</text>
</g>
<!-- roo_windows_wifi&#45;&gt;roo_wifi -->
<g id="edge35" class="edge">
<title>roo_windows_wifi&#45;&gt;roo_wifi</title>
<path fill="none" stroke="black" d="M182.86,-699.91C153.14,-673.22 97.45,-623.2 63.85,-593.01"/>
<polygon fill="black" stroke="black" points="65.99,-590.24 56.22,-586.16 61.32,-595.44 65.99,-590.24"/>
</g>
<!-- roo_windows_wifi&#45;&gt;roo_windows -->
<g id="edge36" class="edge">
<title>roo_windows_wifi&#45;&gt;roo_windows</title>
<path fill="none" stroke="black" d="M273.53,-700.87C345.33,-683.43 455.68,-656.63 525.3,-639.72"/>
<polygon fill="black" stroke="black" points="526.37,-643.06 535.26,-637.3 524.72,-636.25 526.37,-643.06"/>
</g>
</g>
</svg>
