<?xml version="1.0" encoding="UTF-8" standalone="no"?>
<!DOCTYPE svg PUBLIC "-//W3C//DTD SVG 1.1//EN"
 "http://www.w3.org/Graphics/SVG/1.1/DTD/svg11.dtd">
<!-- Generated by graphviz version 2.42.4 (0)
 -->
<!-- Title: dependencies Pages: 1 -->
<svg width="1060pt" height="772pt"
 viewBox="0.00 0.00 1059.50 772.00" xmlns="http://www.w3.org/2000/svg" xmlns:xlink="http://www.w3.org/1999/xlink">
<g id="graph0" class="graph" transform="scale(1 1) rotate(0) translate(4 768)">
<title>dependencies</title>
<polygon fill="white" stroke="transparent" points="-4,4 -4,-768 1055.5,-768 1055.5,4 -4,4"/>
<!-- roo_backport -->
<g id="node1" class="node">
<title>roo_backport</title>
<polygon fill="#b1dbab" stroke="black" points="559,-209 470,-209 470,-171 559,-171 559,-209"/>
<text text-anchor="middle" x="514.5" y="-193.8" font-family="Times,serif" font-size="14.00">roo_backport</text>
<text text-anchor="middle" x="514.5" y="-178.8" font-family="Times,serif" font-size="14.00">1.2.2</text>
</g>
<!-- roo_blink -->
<g id="node2" class="node">
<title>roo_blink</title>
<polygon fill="#b1dbab" stroke="red" points="271,-572 202,-572 202,-534 271,-534 271,-572"/>
<text text-anchor="middle" x="236.5" y="-556.8" font-family="Times,serif" font-size="14.00">roo_blink</text>
<text text-anchor="middle" x="236.5" y="-541.8" font-family="Times,serif" font-size="14.00">1.0.6</text>
</g>
<!-- roo_logging -->
<g id="node16" class="node">
<title>roo_logging</title>
<polygon fill="khaki" stroke="red" points="440,-305 357,-305 357,-267 440,-267 440,-305"/>
<text text-anchor="middle" x="398.5" y="-289.8" font-family="Times,serif" font-size="14.00">roo_logging</text>
<text text-anchor="middle" x="398.5" y="-274.8" font-family="Times,serif" font-size="14.00">1.5.5</text>
</g>
<!-- roo_blink&#45;&gt;roo_logging -->
<g id="edge1" class="edge">
<title>roo_blink&#45;&gt;roo_logging</title>
<path fill="none" stroke="black" d="M236.32,-533.62C236.8,-510.21 240.04,-469.08 255.5,-438 281.67,-385.4 332.34,-338.67 365.8,-311.59"/>
<polygon fill="black" stroke="black" points="368.26,-314.1 373.91,-305.14 363.9,-308.62 368.26,-314.1"/>
</g>
<!-- roo_scheduler -->
<g id="node22" class="node">
<title>roo_scheduler</title>
<polygon fill="#b1dbab" stroke="red" points="358,-476 265,-476 265,-438 358,-438 358,-476"/>
<text text-anchor="middle" x="311.5" y="-460.8" font-family="Times,serif" font-size="14.00">roo_scheduler</text>
<text text-anchor="middle" x="311.5" y="-445.8" font-family="Times,serif" font-size="14.00">2.1.9</text>
</g>
<!-- roo_blink&#45;&gt;roo_scheduler -->
<g id="edge2" class="edge">
<title>roo_blink&#45;&gt;roo_scheduler</title>
<path fill="none" stroke="black" d="M259.87,-533.77C265.98,-528.41 272.31,-522.28 277.5,-516 285.24,-506.63 292.31,-495.29 297.97,-485.12"/>
<polygon fill="black" stroke="black" points="301.11,-486.68 302.75,-476.22 294.94,-483.37 301.11,-486.68"/>
</g>
<!-- roo_collections -->
<g id="node3" class="node">
<title>roo_collections</title>
<polygon fill="#b1dbab" stroke="black" points="658.5,-380 558.5,-380 558.5,-342 658.5,-342 658.5,-380"/>
<text text-anchor="middle" x="608.5" y="-364.8" font-family="Times,serif" font-size="14.00">roo_collections</text>
<text text-anchor="middle" x="608.5" y="-349.8" font-family="Times,serif" font-size="14.00">1.4.3</text>
</g>
<!-- roo_collections&#45;&gt;roo_backport -->
<g id="edge3" class="edge">
<title>roo_collections&#45;&gt;roo_backport</title>
<path fill="none" stroke="black" d="M598.44,-341.91C581.95,-312.26 549.05,-253.12 529.7,-218.33"/>
<polygon fill="black" stroke="black" points="532.55,-216.25 524.63,-209.21 526.43,-219.65 532.55,-216.25"/>
</g>
<!-- roo_comms -->
<g id="node4" class="node">
<title>roo_comms</title>
<polygon fill="#b1dbab" stroke="red" points="219.5,-764 137.5,-764 137.5,-726 219.5,-726 219.5,-764"/>
<text text-anchor="middle" x="178.5" y="-748.8" font-family="Times,serif" font-size="14.00">roo_comms</text>
<text text-anchor="middle" x="178.5" y="-733.8" font-family="Times,serif" font-size="14.00">1.1.4</text>
</g>
<!-- roo_comms&#45;&gt;roo_blink -->
<g id="edge4" class="edge">
<title>roo_comms&#45;&gt;roo_blink</title>
<path fill="none" stroke="black" d="M179.79,-725.82C181.81,-702.96 186.66,-662.76 197.5,-630 203.16,-612.91 212.22,-594.93 220.19,-580.76"/>
<polygon fill="black" stroke="black" points="223.25,-582.45 225.22,-572.04 217.19,-578.95 223.25,-582.45"/>
</g>
<!-- roo_control -->
<g id="node5" class="node">
<title>roo_control</title>
<polygon fill="#b1dbab" stroke="red" points="183.5,-572 103.5,-572 103.5,-534 183.5,-534 183.5,-572"/>
<text text-anchor="middle" x="143.5" y="-556.8" font-family="Times,serif" font-size="14.00">roo_control</text>
<text text-anchor="middle" x="143.5" y="-541.8" font-family="Times,serif" font-size="14.00">1.2.5</text>
</g>
<!-- roo_comms&#45;&gt;roo_control -->
<g id="edge5" class="edge">
<title>roo_comms&#45;&gt;roo_control</title>
<path fill="none" stroke="black" d="M168.49,-725.76C165.82,-720.21 163.21,-713.98 161.5,-708 149.31,-665.4 145.35,-613.92 144.08,-582.59"/>
<polygon fill="black" stroke="black" points="147.57,-582.27 143.74,-572.39 140.58,-582.51 147.57,-582.27"/>
</g>
<!-- roo_io -->
<g id="node13" class="node">
<title>roo_io</title>
<polygon fill="#b1dbab" stroke="red" points="508.5,-380 454.5,-380 454.5,-342 508.5,-342 508.5,-380"/>
<text text-anchor="middle" x="481.5" y="-364.8" font-family="Times,serif" font-size="14.00">roo_io</text>
<text text-anchor="middle" x="481.5" y="-349.8" font-family="Times,serif" font-size="14.00">2.1.6</text>
</g>
<!-- roo_comms&#45;&gt;roo_io -->
<g id="edge6" class="edge">
<title>roo_comms&#45;&gt;roo_io</title>
<path fill="none" stroke="red" d="M219.82,-730.28C225.71,-728.65 231.72,-727.16 237.5,-726 276.91,-718.1 387.19,-734.41 417.5,-708 437.49,-690.58 431.5,-676.52 431.5,-650 431.5,-650 431.5,-650 431.5,-456 431.5,-431.06 445.39,-406.3 458.53,-388.45"/>
<polygon fill="red" stroke="red" points="461.5,-390.33 464.85,-380.28 455.96,-386.05 461.5,-390.33"/>
<text text-anchor="middle" x="458.5" y="-556" font-family="Times,serif" font-size="10.00" fill="red">2.1.5</text>
<text text-anchor="middle" x="458.5" y="-545" font-family="Times,serif" font-size="10.00" fill="red">(latest: 2.1.6)</text>
</g>
<!-- roo_transceivers -->
<g id="node27" class="node">
<title>roo_transceivers</title>
<polygon fill="#b1dbab" stroke="red" points="312.5,-668 206.5,-668 206.5,-630 312.5,-630 312.5,-668"/>
<text text-anchor="middle" x="259.5" y="-652.8" font-family="Times,serif" font-size="14.00">roo_transceivers</text>
<text text-anchor="middle" x="259.5" y="-637.8" font-family="Times,serif" font-size="14.00">1.1.6</text>
</g>
<!-- roo_comms&#45;&gt;roo_transceivers -->
<g id="edge7" class="edge">
<title>roo_comms&#45;&gt;roo_transceivers</title>
<path fill="none" stroke="red" d="M188.55,-725.78C195.58,-713.84 205.62,-698.23 216.5,-686 219.89,-682.19 223.7,-678.43 227.6,-674.86"/>
<polygon fill="red" stroke="red" points="229.92,-677.48 235.16,-668.26 225.32,-672.2 229.92,-677.48"/>
<text text-anchor="middle" x="243.5" y="-700" font-family="Times,serif" font-size="10.00" fill="red">1.1.5</text>
<text text-anchor="middle" x="243.5" y="-689" font-family="Times,serif" font-size="10.00" fill="red">(latest: 1.1.6)</text>
</g>
<!-- roo_quantity -->
<g id="node21" class="node">
<title>roo_quantity</title>
<polygon fill="#b1dbab" stroke="black" points="186.5,-476 100.5,-476 100.5,-438 186.5,-438 186.5,-476"/>
<text text-anchor="middle" x="143.5" y="-460.8" font-family="Times,serif" font-size="14.00">roo_quantity</text>
<text text-anchor="middle" x="143.5" y="-445.8" font-family="Times,serif" font-size="14.00">1.1.8</text>
</g>
<!-- roo_control&#45;&gt;roo_quantity -->
<g id="edge8" class="edge">
<title>roo_control&#45;&gt;roo_quantity</title>
<path fill="none" stroke="black" d="M143.5,-533.88C143.5,-520.35 143.5,-501.62 143.5,-486.15"/>
<polygon fill="black" stroke="black" points="147,-486.07 143.5,-476.07 140,-486.07 147,-486.07"/>
</g>
<!-- roo_control&#45;&gt;roo_scheduler -->
<g id="edge9" class="edge">
<title>roo_control&#45;&gt;roo_scheduler</title>
<path fill="none" stroke="black" d="M175.89,-533.88C202.74,-518.86 241.06,-497.41 270.12,-481.15"/>
<polygon fill="black" stroke="black" points="272.19,-484.01 279.21,-476.07 268.77,-477.9 272.19,-484.01"/>
</g>
<!-- roo_dashboard -->
<g id="node6" class="node">
<title>roo_dashboard</title>
<polygon fill="khaki" stroke="red" points="667,-764 570,-764 570,-726 667,-726 667,-764"/>
<text text-anchor="middle" x="618.5" y="-748.8" font-family="Times,serif" font-size="14.00">roo_dashboard</text>
<text text-anchor="middle" x="618.5" y="-733.8" font-family="Times,serif" font-size="14.00">1.0.1</text>
</g>
<!-- roo_windows -->
<g id="node30" class="node">
<title>roo_windows</title>
<polygon fill="#b1dbab" stroke="red" points="647.5,-668 557.5,-668 557.5,-630 647.5,-630 647.5,-668"/>
<text text-anchor="middle" x="602.5" y="-652.8" font-family="Times,serif" font-size="14.00">roo_windows</text>
<text text-anchor="middle" x="602.5" y="-637.8" font-family="Times,serif" font-size="14.00">1.5.0</text>
</g>
<!-- roo_dashboard&#45;&gt;roo_windows -->
<g id="edge10" class="edge">
<title>roo_dashboard&#45;&gt;roo_windows</title>
<path fill="none" stroke="red" d="M615.42,-725.88C613.11,-712.35 609.92,-693.62 607.29,-678.15"/>
<polygon fill="red" stroke="red" points="610.7,-677.34 605.58,-668.07 603.8,-678.51 610.7,-677.34"/>
<text text-anchor="middle" x="639.5" y="-700" font-family="Times,serif" font-size="10.00" fill="red">1.4.1</text>
<text text-anchor="middle" x="639.5" y="-689" font-family="Times,serif" font-size="10.00" fill="red">(latest: 1.5.0)</text>
</g>
<!-- roo_display -->
<g id="node7" class="node">
<title>roo_display</title>
<polygon fill="#b1dbab" stroke="black" points="669.5,-476 589.5,-476 589.5,-438 669.5,-438 669.5,-476"/>
<text text-anchor="middle" x="629.5" y="-460.8" font-family="Times,serif" font-size="14.00">roo_display</text>
<text text-anchor="middle" x="629.5" y="-445.8" font-family="Times,serif" font-size="14.00">3.0.4</text>
</g>
<!-- roo_display&#45;&gt;roo_collections -->
<g id="edge11" class="edge">
<title>roo_display&#45;&gt;roo_collections</title>
<path fill="none" stroke="black" d="M626.97,-437.85C625.22,-426.36 622.65,-411.22 619.5,-398 618.87,-395.35 618.15,-392.61 617.39,-389.87"/>
<polygon fill="black" stroke="black" points="620.73,-388.8 614.55,-380.19 614.01,-390.77 620.73,-388.8"/>
</g>
<!-- roo_display&#45;&gt;roo_io -->
<g id="edge12" class="edge">
<title>roo_display&#45;&gt;roo_io</title>
<path fill="none" stroke="black" d="M589.23,-441.94C585.27,-440.59 581.31,-439.26 577.5,-438 552.28,-429.65 541.77,-435.92 520.5,-420 509.72,-411.94 500.96,-399.97 494.49,-389"/>
<polygon fill="black" stroke="black" points="497.5,-387.19 489.61,-380.12 491.36,-390.57 497.5,-387.19"/>
</g>
<!-- roo_display_lvgl -->
<g id="node8" class="node">
<title>roo_display_lvgl</title>
<polygon fill="#b1dbab" stroke="red" points="959.5,-572 851.5,-572 851.5,-534 959.5,-534 959.5,-572"/>
<text text-anchor="middle" x="905.5" y="-556.8" font-family="Times,serif" font-size="14.00">roo_display_lvgl</text>
<text text-anchor="middle" x="905.5" y="-541.8" font-family="Times,serif" font-size="14.00">1.0.0</text>
</g>
<!-- roo_display_lvgl&#45;&gt;roo_display -->
<g id="edge13" class="edge">
<title>roo_display_lvgl&#45;&gt;roo_display</title>
<path fill="none" stroke="red" d="M882.76,-533.73C864.98,-520.45 839.06,-503.26 813.5,-494 759.48,-474.43 739.32,-488.88 679.59,-475.88"/>
<polygon fill="red" stroke="red" points="680.19,-472.42 669.66,-473.55 678.59,-479.24 680.19,-472.42"/>
<text text-anchor="middle" x="883.5" y="-508" font-family="Times,serif" font-size="10.00" fill="red">3.0.3</text>
<text text-anchor="middle" x="883.5" y="-497" font-family="Times,serif" font-size="10.00" fill="red">(latest: 3.0.4)</text>
</g>
<!-- roo_flags -->
<g id="node9" class="node">
<title>roo_flags</title>
<polygon fill="#b1dbab" stroke="black" points="432.5,-209 364.5,-209 364.5,-171 432.5,-171 432.5,-209"/>
<text text-anchor="middle" x="398.5" y="-193.8" font-family="Times,serif" font-size="14.00">roo_flags</text>
<text text-anchor="middle" x="398.5" y="-178.8" font-family="Times,serif" font-size="14.00">1.2.3</text>
</g>
<!-- roo_fonts_basic -->
<g id="node10" class="node">
<title>roo_fonts_basic</title>
<polygon fill="#b1dbab" stroke="red" points="607,-572 504,-572 504,-534 607,-534 607,-572"/>
<text text-anchor="middle" x="555.5" y="-556.8" font-family="Times,serif" font-size="14.00">roo_fonts_basic</text>
<text text-anchor="middle" x="555.5" y="-541.8" font-family="Times,serif" font-size="14.00">1.0.2</text>
</g>
<!-- roo_fonts_basic&#45;&gt;roo_display -->
<g id="edge14" class="edge">
<title>roo_fonts_basic&#45;&gt;roo_display</title>
<path fill="none" stroke="red" d="M566.48,-533.9C573.9,-522.15 584.18,-506.72 594.5,-494 597.36,-490.48 600.5,-486.9 603.69,-483.44"/>
<polygon fill="red" stroke="red" points="606.32,-485.75 610.67,-476.1 601.24,-480.93 606.32,-485.75"/>
<text text-anchor="middle" x="621.5" y="-508" font-family="Times,serif" font-size="10.00" fill="red">3.0.2</text>
<text text-anchor="middle" x="621.5" y="-497" font-family="Times,serif" font-size="10.00" fill="red">(latest: 3.0.4)</text>
</g>
<!-- roo_fonts_material -->
<g id="node11" class="node">
<title>roo_fonts_material</title>
<polygon fill="#b1dbab" stroke="red" points="745.5,-572 625.5,-572 625.5,-534 745.5,-534 745.5,-572"/>
<text text-anchor="middle" x="685.5" y="-556.8" font-family="Times,serif" font-size="14.00">roo_fonts_material</text>
<text text-anchor="middle" x="685.5" y="-541.8" font-family="Times,serif" font-size="14.00">1.0.0</text>
</g>
<!-- roo_fonts_material&#45;&gt;roo_display -->
<g id="edge15" class="edge">
<title>roo_fonts_material&#45;&gt;roo_display</title>
<path fill="none" stroke="red" d="M674.7,-533.88C666.41,-519.96 654.84,-500.53 645.48,-484.82"/>
<polygon fill="red" stroke="red" points="648.39,-482.87 640.26,-476.07 642.38,-486.45 648.39,-482.87"/>
<text text-anchor="middle" x="690.5" y="-508" font-family="Times,serif" font-size="10.00" fill="red">3.0.2</text>
<text text-anchor="middle" x="690.5" y="-497" font-family="Times,serif" font-size="10.00" fill="red">(latest: 3.0.4)</text>
</g>
<!-- roo_icons -->
<g id="node12" class="node">
<title>roo_icons</title>
<polygon fill="#b1dbab" stroke="red" points="833.5,-572 763.5,-572 763.5,-534 833.5,-534 833.5,-572"/>
<text text-anchor="middle" x="798.5" y="-556.8" font-family="Times,serif" font-size="14.00">roo_icons</text>
<text text-anchor="middle" x="798.5" y="-541.8" font-family="Times,serif" font-size="14.00">1.2.2</text>
</g>
<!-- roo_icons&#45;&gt;roo_display -->
<g id="edge16" class="edge">
<title>roo_icons&#45;&gt;roo_display</title>
<path fill="none" stroke="red" d="M777.68,-533.84C762.77,-521.47 741.81,-505.34 721.5,-494 717.24,-491.62 698.57,-484.23 679.15,-476.77"/>
<polygon fill="red" stroke="red" points="680.2,-473.42 669.61,-473.12 677.7,-479.96 680.2,-473.42"/>
<text text-anchor="middle" x="782.5" y="-508" font-family="Times,serif" font-size="10.00" fill="red">3.0.2</text>
<text text-anchor="middle" x="782.5" y="-497" font-family="Times,serif" font-size="10.00" fill="red">(latest: 3.0.4)</text>
</g>
<!-- roo_io&#45;&gt;roo_logging -->
<g id="edge17" class="edge">
<title>roo_io&#45;&gt;roo_logging</title>
<path fill="none" stroke="black" d="M460.98,-341.96C450.61,-332.83 437.86,-321.62 426.59,-311.7"/>
<polygon fill="black" stroke="black" points="428.89,-309.07 419.07,-305.09 424.27,-314.32 428.89,-309.07"/>
</g>
<!-- roo_io_sdfat -->
<g id="node14" class="node">
<title>roo_io_sdfat</title>
<polygon fill="plum" stroke="black" points="770,-764 685,-764 685,-726 770,-726 770,-764"/>
<text text-anchor="middle" x="727.5" y="-748.8" font-family="Times,serif" font-size="14.00">roo_io_sdfat</text>
<text text-anchor="middle" x="727.5" y="-733.8" font-family="Times,serif" font-size="14.00">1.0.0</text>
</g>
<!-- roo_locale -->
<g id="node15" class="node">
<title>roo_locale</title>
<polygon fill="#b1dbab" stroke="black" points="1051.5,-572 977.5,-572 977.5,-534 1051.5,-534 1051.5,-572"/>
<text text-anchor="middle" x="1014.5" y="-556.8" font-family="Times,serif" font-size="14.00">roo_locale</text>
<text text-anchor="middle" x="1014.5" y="-541.8" font-family="Times,serif" font-size="14.00">1.1.2</text>
</g>
<!-- roo_logging&#45;&gt;roo_backport -->
<g id="edge18" class="edge">
<title>roo_logging&#45;&gt;roo_backport</title>
<path fill="none" stroke="black" d="M420.87,-266.88C438.92,-252.25 464.49,-231.52 484.35,-215.43"/>
<polygon fill="black" stroke="black" points="486.64,-218.08 492.2,-209.07 482.23,-212.65 486.64,-218.08"/>
</g>
<!-- roo_logging&#45;&gt;roo_flags -->
<g id="edge19" class="edge">
<title>roo_logging&#45;&gt;roo_flags</title>
<path fill="none" stroke="black" d="M398.5,-266.88C398.5,-253.35 398.5,-234.62 398.5,-219.15"/>
<polygon fill="black" stroke="black" points="402,-219.07 398.5,-209.07 395,-219.07 402,-219.07"/>
</g>
<!-- roo_threads -->
<g id="node24" class="node">
<title>roo_threads</title>
<polygon fill="#b1dbab" stroke="red" points="325.5,-209 245.5,-209 245.5,-171 325.5,-171 325.5,-209"/>
<text text-anchor="middle" x="285.5" y="-193.8" font-family="Times,serif" font-size="14.00">roo_threads</text>
<text text-anchor="middle" x="285.5" y="-178.8" font-family="Times,serif" font-size="14.00">1.2.3</text>
</g>
<!-- roo_logging&#45;&gt;roo_threads -->
<g id="edge20" class="edge">
<title>roo_logging&#45;&gt;roo_threads</title>
<path fill="none" stroke="black" d="M383.45,-266.84C372.95,-254.78 358.24,-239.01 343.5,-227 338.19,-222.67 332.32,-218.47 326.42,-214.55"/>
<polygon fill="black" stroke="black" points="328.12,-211.47 317.81,-209.02 324.34,-217.37 328.12,-211.47"/>
</g>
<!-- roo_monitoring -->
<g id="node17" class="node">
<title>roo_monitoring</title>
<polygon fill="#b1dbab" stroke="red" points="568.5,-476 466.5,-476 466.5,-438 568.5,-438 568.5,-476"/>
<text text-anchor="middle" x="517.5" y="-460.8" font-family="Times,serif" font-size="14.00">roo_monitoring</text>
<text text-anchor="middle" x="517.5" y="-445.8" font-family="Times,serif" font-size="14.00">1.1.1</text>
</g>
<!-- roo_monitoring&#45;&gt;roo_collections -->
<g id="edge21" class="edge">
<title>roo_monitoring&#45;&gt;roo_collections</title>
<path fill="none" stroke="black" d="M568.84,-439.9C578.49,-434.85 587.68,-428.34 594.5,-420 601.38,-411.58 604.97,-400.31 606.82,-389.94"/>
<polygon fill="black" stroke="black" points="610.29,-390.39 608.13,-380.02 603.35,-389.47 610.29,-390.39"/>
</g>
<!-- roo_monitoring&#45;&gt;roo_io -->
<g id="edge22" class="edge">
<title>roo_monitoring&#45;&gt;roo_io</title>
<path fill="none" stroke="black" d="M504.93,-437.9C501.49,-432.35 498.02,-426.09 495.5,-420 491.6,-410.58 488.63,-399.83 486.45,-390.17"/>
<polygon fill="black" stroke="black" points="489.84,-389.31 484.39,-380.23 482.99,-390.73 489.84,-389.31"/>
</g>
<!-- roo_onewire -->
<g id="node18" class="node">
<title>roo_onewire</title>
<polygon fill="#b1dbab" stroke="red" points="85,-572 0,-572 0,-534 85,-534 85,-572"/>
<text text-anchor="middle" x="42.5" y="-556.8" font-family="Times,serif" font-size="14.00">roo_onewire</text>
<text text-anchor="middle" x="42.5" y="-541.8" font-family="Times,serif" font-size="14.00">2.0.9</text>
</g>
<!-- roo_onewire&#45;&gt;roo_quantity -->
<g id="edge24" class="edge">
<title>roo_onewire&#45;&gt;roo_quantity</title>
<path fill="none" stroke="black" d="M55.76,-533.92C65.04,-521.9 78.13,-506.14 91.5,-494 95.98,-489.93 100.94,-485.95 105.96,-482.2"/>
<polygon fill="black" stroke="black" points="108.32,-484.81 114.41,-476.14 104.24,-479.13 108.32,-484.81"/>
</g>
<!-- roo_onewire&#45;&gt;roo_scheduler -->
<g id="edge23" class="edge">
<title>roo_onewire&#45;&gt;roo_scheduler</title>
<path fill="none" stroke="black" d="M85.12,-537.11C131.05,-521.06 204.36,-495.44 255.05,-477.73"/>
<polygon fill="black" stroke="black" points="256.27,-481.01 264.55,-474.4 253.96,-474.4 256.27,-481.01"/>
</g>
<!-- roo_powersafefs -->
<g id="node19" class="node">
<title>roo_powersafefs</title>
<polygon fill="khaki" stroke="red" points="339,-305 232,-305 232,-267 339,-267 339,-305"/>
<text text-anchor="middle" x="285.5" y="-289.8" font-family="Times,serif" font-size="14.00">roo_powersafefs</text>
<text text-anchor="middle" x="285.5" y="-274.8" font-family="Times,serif" font-size="14.00">1.0.0</text>
</g>
<!-- roo_powersafefs&#45;&gt;roo_threads -->
<g id="edge25" class="edge">
<title>roo_powersafefs&#45;&gt;roo_threads</title>
<path fill="none" stroke="red" d="M285.5,-266.88C285.5,-253.35 285.5,-234.62 285.5,-219.15"/>
<polygon fill="red" stroke="red" points="289,-219.07 285.5,-209.07 282,-219.07 289,-219.07"/>
<text text-anchor="middle" x="312.5" y="-241" font-family="Times,serif" font-size="10.00" fill="red">1.2.1</text>
<text text-anchor="middle" x="312.5" y="-230" font-family="Times,serif" font-size="10.00" fill="red">(latest: 1.2.3)</text>
</g>
<!-- roo_prefs -->
<g id="node20" class="node">
<title>roo_prefs</title>
<polygon fill="#b1dbab" stroke="red" points="357.5,-572 289.5,-572 289.5,-534 357.5,-534 357.5,-572"/>
<text text-anchor="middle" x="323.5" y="-556.8" font-family="Times,serif" font-size="14.00">roo_prefs</text>
<text text-anchor="middle" x="323.5" y="-541.8" font-family="Times,serif" font-size="14.00">1.2.10</text>
</g>
<!-- roo_prefs&#45;&gt;roo_logging -->
<g id="edge26" class="edge">
<title>roo_prefs&#45;&gt;roo_logging</title>
<path fill="none" stroke="black" d="M336.19,-533.82C345.97,-518.94 359.04,-497 366.5,-476 385.97,-421.2 393.77,-353.15 396.76,-315.47"/>
<polygon fill="black" stroke="black" points="400.27,-315.47 397.51,-305.24 393.29,-314.96 400.27,-315.47"/>
</g>
<!-- roo_prefs&#45;&gt;roo_scheduler -->
<g id="edge27" class="edge">
<title>roo_prefs&#45;&gt;roo_scheduler</title>
<path fill="none" stroke="black" d="M321.19,-533.88C319.46,-520.35 317.07,-501.62 315.09,-486.15"/>
<polygon fill="black" stroke="black" points="318.54,-485.54 313.81,-476.07 311.6,-486.43 318.54,-485.54"/>
</g>
<!-- roo_quantity&#45;&gt;roo_logging -->
<g id="edge28" class="edge">
<title>roo_quantity&#45;&gt;roo_logging</title>
<path fill="none" stroke="black" d="M153.05,-437.98C169.56,-408.76 206.33,-351.44 254.5,-323 288.28,-303.06 304.57,-314.23 347.11,-304.7"/>
<polygon fill="black" stroke="black" points="348.06,-308.07 356.91,-302.24 346.36,-301.28 348.06,-308.07"/>
</g>
<!-- roo_scheduler&#45;&gt;roo_collections -->
<g id="edge29" class="edge">
<title>roo_scheduler&#45;&gt;roo_collections</title>
<path fill="none" stroke="black" d="M358.23,-441.21C409.63,-424.94 492.36,-398.76 548.51,-380.99"/>
<polygon fill="black" stroke="black" points="549.84,-384.24 558.32,-377.88 547.73,-377.56 549.84,-384.24"/>
</g>
<!-- roo_scheduler&#45;&gt;roo_threads -->
<g id="edge30" class="edge">
<title>roo_scheduler&#45;&gt;roo_threads</title>
<path fill="none" stroke="black" d="M296.44,-437.95C275.06,-411.03 236.91,-357.84 222.5,-305 218.06,-288.71 216.77,-282.89 222.5,-267 229.47,-247.68 243.71,-229.8 256.9,-216.24"/>
<polygon fill="black" stroke="black" points="259.4,-218.69 264.06,-209.17 254.48,-213.7 259.4,-218.69"/>
</g>
<!-- roo_testing -->
<g id="node23" class="node">
<title>roo_testing</title>
<polygon fill="#b1dbab" stroke="black" points="222,-38 145,-38 145,0 222,0 222,-38"/>
<text text-anchor="middle" x="183.5" y="-22.8" font-family="Times,serif" font-size="14.00">roo_testing</text>
<text text-anchor="middle" x="183.5" y="-7.8" font-family="Times,serif" font-size="14.00">1.3.5</text>
</g>
<!-- roo_time -->
<g id="node25" class="node">
<title>roo_time</title>
<polygon fill="#b1dbab" stroke="red" points="216.5,-134 150.5,-134 150.5,-96 216.5,-96 216.5,-134"/>
<text text-anchor="middle" x="183.5" y="-118.8" font-family="Times,serif" font-size="14.00">roo_time</text>
<text text-anchor="middle" x="183.5" y="-103.8" font-family="Times,serif" font-size="14.00">1.4.3</text>
</g>
<!-- roo_threads&#45;&gt;roo_time -->
<g id="edge31" class="edge">
<title>roo_threads&#45;&gt;roo_time</title>
<path fill="none" stroke="black" d="M260.29,-170.96C247.29,-161.65 231.26,-150.18 217.22,-140.13"/>
<polygon fill="black" stroke="black" points="218.95,-137.06 208.78,-134.09 214.87,-142.76 218.95,-137.06"/>
</g>
<!-- roo_time&#45;&gt;roo_testing -->
<g id="edge32" class="edge">
<title>roo_time&#45;&gt;roo_testing</title>
<path fill="none" stroke="red" d="M183.5,-95.88C183.5,-82.35 183.5,-63.62 183.5,-48.15"/>
<polygon fill="red" stroke="red" points="187,-48.07 183.5,-38.07 180,-48.07 187,-48.07"/>
<text text-anchor="middle" x="210.5" y="-70" font-family="Times,serif" font-size="10.00" fill="red">1.3.2</text>
<text text-anchor="middle" x="210.5" y="-59" font-family="Times,serif" font-size="10.00" fill="red">(latest: 1.3.5)</text>
</g>
<!-- roo_time_ds3231 -->
<g id="node26" class="node">
<title>roo_time_ds3231</title>
<polygon fill="#b1dbab" stroke="red" points="227.5,-209 115.5,-209 115.5,-171 227.5,-171 227.5,-209"/>
<text text-anchor="middle" x="171.5" y="-193.8" font-family="Times,serif" font-size="14.00">roo_time_ds3231</text>
<text text-anchor="middle" x="171.5" y="-178.8" font-family="Times,serif" font-size="14.00">1.1.6</text>
</g>
<!-- roo_time_ds3231&#45;&gt;roo_time -->
<g id="edge33" class="edge">
<title>roo_time_ds3231&#45;&gt;roo_time</title>
<path fill="none" stroke="black" d="M174.47,-170.96C175.79,-162.88 177.39,-153.18 178.87,-144.18"/>
<polygon fill="black" stroke="black" points="182.36,-144.53 180.53,-134.09 175.45,-143.39 182.36,-144.53"/>
</g>
<!-- roo_transceivers&#45;&gt;roo_prefs -->
<g id="edge34" class="edge">
<title>roo_transceivers&#45;&gt;roo_prefs</title>
<path fill="none" stroke="black" d="M271.84,-629.88C281.4,-615.83 294.79,-596.17 305.54,-580.38"/>
<polygon fill="black" stroke="black" points="308.46,-582.3 311.2,-572.07 302.68,-578.36 308.46,-582.3"/>
</g>
<!-- roo_transport -->
<g id="node28" class="node">
<title>roo_transport</title>
<polygon fill="#b1dbab" stroke="red" points="777,-476 688,-476 688,-438 777,-438 777,-476"/>
<text text-anchor="middle" x="732.5" y="-460.8" font-family="Times,serif" font-size="14.00">roo_transport</text>
<text text-anchor="middle" x="732.5" y="-445.8" font-family="Times,serif" font-size="14.00">1.1.2</text>
</g>
<!-- roo_transport&#45;&gt;roo_collections -->
<g id="edge35" class="edge">
<title>roo_transport&#45;&gt;roo_collections</title>
<path fill="none" stroke="black" d="M708.59,-437.88C689.21,-423.18 661.71,-402.34 640.44,-386.21"/>
<polygon fill="black" stroke="black" points="642.42,-383.32 632.34,-380.07 638.19,-388.9 642.42,-383.32"/>
</g>
<!-- roo_transport&#45;&gt;roo_io -->
<g id="edge36" class="edge">
<title>roo_transport&#45;&gt;roo_io</title>
<path fill="none" stroke="red" d="M687.81,-440.75C684.67,-439.79 681.54,-438.86 678.5,-438 644.68,-428.43 634.63,-431.72 601.5,-420 572.42,-409.72 541.09,-394.41 517.73,-382.11"/>
<polygon fill="red" stroke="red" points="519.35,-379.01 508.88,-377.39 516.05,-385.18 519.35,-379.01"/>
<text text-anchor="middle" x="628.5" y="-412" font-family="Times,serif" font-size="10.00" fill="red">2.1.5</text>
<text text-anchor="middle" x="628.5" y="-401" font-family="Times,serif" font-size="10.00" fill="red">(latest: 2.1.6)</text>
</g>
<!-- roo_wifi -->
<g id="node29" class="node">
<title>roo_wifi</title>
<polygon fill="khaki" stroke="red" points="394,-668 331,-668 331,-630 394,-630 394,-668"/>
<text text-anchor="middle" x="362.5" y="-652.8" font-family="Times,serif" font-size="14.00">roo_wifi</text>
<text text-anchor="middle" x="362.5" y="-637.8" font-family="Times,serif" font-size="14.00">1.1.4</text>
</g>
<!-- roo_wifi&#45;&gt;roo_prefs -->
<g id="edge37" class="edge">
<title>roo_wifi&#45;&gt;roo_prefs</title>
<path fill="none" stroke="red" d="M354.98,-629.88C349.32,-616.22 341.45,-597.26 335,-581.71"/>
<polygon fill="red" stroke="red" points="338.06,-579.96 331,-572.07 331.6,-582.65 338.06,-579.96"/>
<text text-anchor="middle" x="376" y="-604" font-family="Times,serif" font-size="10.00" fill="red">1.2.9</text>
<text text-anchor="middle" x="376" y="-593" font-family="Times,serif" font-size="10.00" fill="red">(latest: 1.2.10)</text>
</g>
<!-- roo_windows&#45;&gt;roo_fonts_basic -->
<g id="edge38" class="edge">
<title>roo_windows&#45;&gt;roo_fonts_basic</title>
<path fill="none" stroke="black" d="M593.44,-629.88C586.55,-616.09 576.95,-596.9 569.13,-581.26"/>
<polygon fill="black" stroke="black" points="572.14,-579.45 564.53,-572.07 565.88,-582.58 572.14,-579.45"/>
</g>
<!-- roo_windows&#45;&gt;roo_fonts_material -->
<g id="edge39" class="edge">
<title>roo_windows&#45;&gt;roo_fonts_material</title>
<path fill="none" stroke="black" d="M618.5,-629.88C631.02,-615.7 648.59,-595.81 662.59,-579.94"/>
<polygon fill="black" stroke="black" points="665.55,-581.88 669.55,-572.07 660.3,-577.25 665.55,-581.88"/>
</g>
<!-- roo_windows&#45;&gt;roo_icons -->
<g id="edge41" class="edge">
<title>roo_windows&#45;&gt;roo_icons</title>
<path fill="none" stroke="black" d="M640.29,-629.88C672.83,-614.27 719.82,-591.73 754.14,-575.27"/>
<polygon fill="black" stroke="black" points="755.96,-578.29 763.46,-570.81 752.93,-571.97 755.96,-578.29"/>
</g>
<!-- roo_windows&#45;&gt;roo_locale -->
<g id="edge40" class="edge">
<title>roo_windows&#45;&gt;roo_locale</title>
<path fill="none" stroke="black" d="M647.61,-641.15C715.47,-630.29 847.76,-607.01 967.57,-572.04"/>
<polygon fill="black" stroke="black" points="968.68,-575.36 977.28,-569.17 966.7,-568.65 968.68,-575.36"/>
</g>
<!-- roo_windows&#45;&gt;roo_scheduler -->
<g id="edge42" class="edge">
<title>roo_windows&#45;&gt;roo_scheduler</title>
<path fill="none" stroke="black" d="M557.33,-636.95C516.15,-625.38 455,-604.34 409.5,-572 375.82,-548.06 346.31,-510.12 328.7,-484.66"/>
<polygon fill="black" stroke="black" points="331.49,-482.54 322.98,-476.22 325.69,-486.46 331.49,-482.54"/>
</g>
<!-- roo_windows_transceivers -->
<g id="node31" class="node">
<title>roo_windows_transceivers</title>
<polygon fill="khaki" stroke="red" points="408,-764 247,-764 247,-726 408,-726 408,-764"/>
<text text-anchor="middle" x="327.5" y="-748.8" font-family="Times,serif" font-size="14.00">roo_windows_transceivers</text>
<text text-anchor="middle" x="327.5" y="-733.8" font-family="Times,serif" font-size="14.00">1.0.0</text>
</g>
<!-- roo_windows_transceivers&#45;&gt;roo_transceivers -->
<g id="edge43" class="edge">
<title>roo_windows_transceivers&#45;&gt;roo_transceivers</title>
<path fill="none" stroke="red" d="M303.31,-725.71C297.32,-720.43 291.27,-714.37 286.5,-708 279.59,-698.77 273.84,-687.49 269.45,-677.34"/>
<polygon fill="red" stroke="red" points="272.68,-675.99 265.66,-668.05 266.2,-678.63 272.68,-675.99"/>
<text text-anchor="middle" x="313.5" y="-700" font-family="Times,serif" font-size="10.00" fill="red">1.1.3</text>
<text text-anchor="middle" x="313.5" y="-689" font-family="Times,serif" font-size="10.00" fill="red">(latest: 1.1.6)</text>
</g>
<!-- roo_windows_transceivers&#45;&gt;roo_windows -->
<g id="edge44" class="edge">
<title>roo_windows_transceivers&#45;&gt;roo_windows</title>
<path fill="none" stroke="red" d="M400.07,-725.9C414.54,-721.02 429.33,-715.09 442.5,-708 456.13,-700.67 455.73,-693.07 469.5,-686 493.72,-673.57 522.7,-665.08 547.41,-659.48"/>
<polygon fill="red" stroke="red" points="548.33,-662.86 557.36,-657.33 546.84,-656.02 548.33,-662.86"/>
<text text-anchor="middle" x="496.5" y="-700" font-family="Times,serif" font-size="10.00" fill="red">1.4.1</text>
<text text-anchor="middle" x="496.5" y="-689" font-family="Times,serif" font-size="10.00" fill="red">(latest: 1.5.0)</text>
</g>
<!-- roo_windows_wifi -->
<g id="node32" class="node">
<title>roo_windows_wifi</title>
<polygon fill="khaki" stroke="red" points="550,-764 431,-764 431,-726 550,-726 550,-764"/>
<text text-anchor="middle" x="490.5" y="-748.8" font-family="Times,serif" font-size="14.00">roo_windows_wifi</text>
<text text-anchor="middle" x="490.5" y="-733.8" font-family="Times,serif" font-size="14.00">1.1.3</text>
</g>
<!-- roo_windows_wifi&#45;&gt;roo_wifi -->
<g id="edge45" class="edge">
<title>roo_windows_wifi&#45;&gt;roo_wifi</title>
<path fill="none" stroke="red" d="M430.73,-727.27C412.48,-721.25 395.41,-714.36 388.5,-708 379.83,-700.01 373.86,-688.59 369.86,-677.99"/>
<polygon fill="red" stroke="red" points="373.09,-676.59 366.6,-668.22 366.45,-678.81 373.09,-676.59"/>
<text text-anchor="middle" x="415.5" y="-700" font-family="Times,serif" font-size="10.00" fill="red">1.1.3</text>
<text text-anchor="middle" x="415.5" y="-689" font-family="Times,serif" font-size="10.00" fill="red">(latest: 1.1.4)</text>
</g>
<!-- roo_windows_wifi&#45;&gt;roo_windows -->
<g id="edge46" class="edge">
<title>roo_windows_wifi&#45;&gt;roo_windows</title>
<path fill="none" stroke="red" d="M508.28,-725.77C520.12,-713.96 536.25,-698.52 551.5,-686 556.39,-681.98 561.71,-677.93 567,-674.05"/>
<polygon fill="red" stroke="red" points="569.13,-676.83 575.22,-668.16 565.06,-671.14 569.13,-676.83"/>
<text text-anchor="middle" x="578.5" y="-700" font-family="Times,serif" font-size="10.00" fill="red">1.4.2</text>
<text text-anchor="middle" x="578.5" y="-689" font-family="Times,serif" font-size="10.00" fill="red">(latest: 1.5.0)</text>
</g>
</g>
</svg>
