<?xml version="1.0" encoding="UTF-8" standalone="no"?>
<!DOCTYPE svg PUBLIC "-//W3C//DTD SVG 1.1//EN"
 "http://www.w3.org/Graphics/SVG/1.1/DTD/svg11.dtd">
<!-- Generated by graphviz version 2.42.4 (0)
 -->
<!-- Title: dependencies Pages: 1 -->
<svg width="2494pt" height="751pt"
 viewBox="0.00 0.00 2494.00 751.00" xmlns="http://www.w3.org/2000/svg" xmlns:xlink="http://www.w3.org/1999/xlink">
<g id="graph0" class="graph" transform="scale(1 1) rotate(0) translate(4 747)">
<title>dependencies</title>
<polygon fill="white" stroke="transparent" points="-4,4 -4,-747 2490,-747 2490,4 -4,4"/>
<!-- roo_backport -->
<g id="node1" class="node">
<title>roo_backport</title>
<polygon fill="#b1dbab" stroke="black" points="1613,-113 1503,-113 1503,-75 1613,-75 1613,-113"/>
<text text-anchor="middle" x="1558" y="-97.8" font-family="Times,serif" font-size="14.00">roo_backport</text>
<text text-anchor="middle" x="1558" y="-82.8" font-family="Times,serif" font-size="14.00">1.2.0</text>
</g>
<!-- roo_blink -->
<g id="node2" class="node">
<title>roo_blink</title>
<polygon fill="plum" stroke="black" points="852,-380 770,-380 770,-342 852,-342 852,-380"/>
<text text-anchor="middle" x="811" y="-364.8" font-family="Times,serif" font-size="14.00">roo_blink</text>
<text text-anchor="middle" x="811" y="-349.8" font-family="Times,serif" font-size="14.00">1.0.3</text>
</g>
<!-- roo_logging -->
<g id="node12" class="node">
<title>roo_logging</title>
<polygon fill="#b1dbab" stroke="black" points="857,-284 757,-284 757,-246 857,-246 857,-284"/>
<text text-anchor="middle" x="807" y="-268.8" font-family="Times,serif" font-size="14.00">roo_logging</text>
<text text-anchor="middle" x="807" y="-253.8" font-family="Times,serif" font-size="14.00">1.5.1</text>
</g>
<!-- roo_blink&#45;&gt;roo_logging -->
<g id="edge1" class="edge">
<title>roo_blink&#45;&gt;roo_logging</title>
<path fill="none" stroke="red" d="M809.24,-341.7C808.76,-336.03 808.29,-329.76 808,-324 807.51,-314.28 807.25,-303.63 807.11,-294.15"/>
<polygon fill="red" stroke="red" points="810.61,-294 807.01,-284.04 803.61,-294.07 810.61,-294"/>
<text text-anchor="middle" x="841" y="-316" font-family="Times,serif" font-size="10.00" fill="red">1.5.0</text>
<text text-anchor="middle" x="841" y="-305" font-family="Times,serif" font-size="10.00" fill="red">(latest: 1.5.1)</text>
</g>
<!-- roo_scheduler -->
<g id="node16" class="node">
<title>roo_scheduler</title>
<polygon fill="#b1dbab" stroke="black" points="1367,-284 1251,-284 1251,-246 1367,-246 1367,-284"/>
<text text-anchor="middle" x="1309" y="-268.8" font-family="Times,serif" font-size="14.00">roo_scheduler</text>
<text text-anchor="middle" x="1309" y="-253.8" font-family="Times,serif" font-size="14.00">2.1.6</text>
</g>
<!-- roo_blink&#45;&gt;roo_scheduler -->
<g id="edge2" class="edge">
<title>roo_blink&#45;&gt;roo_scheduler</title>
<path fill="none" stroke="black" d="M852.17,-345.41C856.8,-344.11 861.47,-342.93 866,-342 954.73,-323.8 980.13,-341.5 1069,-324 1101.41,-317.62 1108.03,-310.34 1140,-302 1173,-293.39 1210.03,-285.33 1240.99,-279.02"/>
<polygon fill="black" stroke="black" points="1241.7,-282.45 1250.81,-277.04 1240.32,-275.59 1241.7,-282.45"/>
</g>
<!-- roo_collections -->
<g id="node3" class="node">
<title>roo_collections</title>
<polygon fill="#b1dbab" stroke="black" points="1848,-188 1726,-188 1726,-150 1848,-150 1848,-188"/>
<text text-anchor="middle" x="1787" y="-172.8" font-family="Times,serif" font-size="14.00">roo_collections</text>
<text text-anchor="middle" x="1787" y="-157.8" font-family="Times,serif" font-size="14.00">1.4.0</text>
</g>
<!-- roo_collections&#45;&gt;roo_backport -->
<g id="edge3" class="edge">
<title>roo_collections&#45;&gt;roo_backport</title>
<path fill="none" stroke="black" d="M1730.39,-149.96C1697.85,-139.58 1656.83,-126.5 1622.97,-115.71"/>
<polygon fill="black" stroke="black" points="1623.76,-112.29 1613.17,-112.59 1621.63,-118.96 1623.76,-112.29"/>
</g>
<!-- roo_comms -->
<g id="node4" class="node">
<title>roo_comms</title>
<polygon fill="plum" stroke="black" points="1107.5,-572 1010.5,-572 1010.5,-534 1107.5,-534 1107.5,-572"/>
<text text-anchor="middle" x="1059" y="-556.8" font-family="Times,serif" font-size="14.00">roo_comms</text>
<text text-anchor="middle" x="1059" y="-541.8" font-family="Times,serif" font-size="14.00">1.1.2</text>
</g>
<!-- roo_comms&#45;&gt;roo_blink -->
<g id="edge5" class="edge">
<title>roo_comms&#45;&gt;roo_blink</title>
<path fill="none" stroke="red" d="M1031.57,-534C994.75,-509.48 927.76,-463.64 874,-420 861.34,-409.72 847.96,-397.6 836.81,-387.11"/>
<polygon fill="red" stroke="red" points="839.14,-384.49 829.48,-380.15 834.32,-389.57 839.14,-384.49"/>
<text text-anchor="middle" x="978" y="-460" font-family="Times,serif" font-size="10.00" fill="red">1.0.2</text>
<text text-anchor="middle" x="978" y="-449" font-family="Times,serif" font-size="10.00" fill="red">(latest: 1.0.3)</text>
</g>
<!-- roo_comms&#45;&gt;roo_collections -->
<g id="edge6" class="edge">
<title>roo_comms&#45;&gt;roo_collections</title>
<path fill="none" stroke="red" d="M1107.76,-551.04C1271.63,-547.33 1795.01,-531.21 1844,-476 1867.16,-449.9 1849.34,-429.82 1835,-398 1830.95,-389 1825.22,-389.33 1822,-380 1810.69,-347.2 1823.78,-336.36 1819,-302 1813.93,-265.5 1803.12,-224.38 1795.48,-197.88"/>
<polygon fill="red" stroke="red" points="1798.79,-196.75 1792.62,-188.14 1792.08,-198.72 1798.79,-196.75"/>
<text text-anchor="middle" x="1855" y="-364" font-family="Times,serif" font-size="10.00" fill="red">1.3.2</text>
<text text-anchor="middle" x="1855" y="-353" font-family="Times,serif" font-size="10.00" fill="red">(latest: 1.4.0)</text>
</g>
<!-- roo_control -->
<g id="node5" class="node">
<title>roo_control</title>
<polygon fill="plum" stroke="black" points="492.5,-476 395.5,-476 395.5,-438 492.5,-438 492.5,-476"/>
<text text-anchor="middle" x="444" y="-460.8" font-family="Times,serif" font-size="14.00">roo_control</text>
<text text-anchor="middle" x="444" y="-445.8" font-family="Times,serif" font-size="14.00">1.2.2</text>
</g>
<!-- roo_comms&#45;&gt;roo_control -->
<g id="edge7" class="edge">
<title>roo_comms&#45;&gt;roo_control</title>
<path fill="none" stroke="black" d="M1010.37,-551.99C927.95,-551.1 755.91,-545.47 614,-516 573.7,-507.63 529.78,-492.48 496.67,-479.76"/>
<polygon fill="black" stroke="black" points="497.78,-476.44 487.2,-476.07 495.25,-482.96 497.78,-476.44"/>
</g>
<!-- roo_io -->
<g id="node10" class="node">
<title>roo_io</title>
<polygon fill="plum" stroke="black" points="1133.5,-380 1074.5,-380 1074.5,-342 1133.5,-342 1133.5,-380"/>
<text text-anchor="middle" x="1104" y="-364.8" font-family="Times,serif" font-size="14.00">roo_io</text>
<text text-anchor="middle" x="1104" y="-349.8" font-family="Times,serif" font-size="14.00">2.1.0</text>
</g>
<!-- roo_comms&#45;&gt;roo_io -->
<g id="edge8" class="edge">
<title>roo_comms&#45;&gt;roo_io</title>
<path fill="none" stroke="red" d="M1058.43,-533.89C1058.16,-511.11 1059.2,-470.99 1068,-438 1072.52,-421.04 1080.74,-403.24 1088.18,-389.14"/>
<polygon fill="red" stroke="red" points="1091.44,-390.47 1093.16,-380.02 1085.3,-387.12 1091.44,-390.47"/>
<text text-anchor="middle" x="1101" y="-460" font-family="Times,serif" font-size="10.00" fill="red">2.0.3</text>
<text text-anchor="middle" x="1101" y="-449" font-family="Times,serif" font-size="10.00" fill="red">(latest: 2.1.0)</text>
</g>
<!-- roo_comms&#45;&gt;roo_logging -->
<g id="edge9" class="edge">
<title>roo_comms&#45;&gt;roo_logging</title>
<path fill="none" stroke="red" d="M1010.36,-540.59C948.93,-523.88 843.48,-487.17 779,-420 754.36,-394.33 751.44,-376.27 761,-342 766.01,-324.04 776.55,-306.09 786.28,-292.15"/>
<polygon fill="red" stroke="red" points="789.13,-294.17 792.17,-284.02 783.47,-290.06 789.13,-294.17"/>
<text text-anchor="middle" x="812" y="-412" font-family="Times,serif" font-size="10.00" fill="red">1.4.3</text>
<text text-anchor="middle" x="812" y="-401" font-family="Times,serif" font-size="10.00" fill="red">(latest: 1.5.1)</text>
</g>
<!-- roo_prefs -->
<g id="node14" class="node">
<title>roo_prefs</title>
<polygon fill="plum" stroke="black" points="1571.5,-380 1488.5,-380 1488.5,-342 1571.5,-342 1571.5,-380"/>
<text text-anchor="middle" x="1530" y="-364.8" font-family="Times,serif" font-size="14.00">roo_prefs</text>
<text text-anchor="middle" x="1530" y="-349.8" font-family="Times,serif" font-size="14.00">1.2.6</text>
</g>
<!-- roo_comms&#45;&gt;roo_prefs -->
<g id="edge10" class="edge">
<title>roo_comms&#45;&gt;roo_prefs</title>
<path fill="none" stroke="red" d="M1107.79,-551.67C1157.67,-549.76 1236.47,-542.31 1299,-516 1379.13,-482.29 1380.78,-443.26 1455,-398 1462.62,-393.36 1470.92,-388.86 1479.14,-384.71"/>
<polygon fill="red" stroke="red" points="1480.92,-387.73 1488.34,-380.17 1477.83,-381.45 1480.92,-387.73"/>
<text text-anchor="middle" x="1435" y="-460" font-family="Times,serif" font-size="10.00" fill="red">1.2.3</text>
<text text-anchor="middle" x="1435" y="-449" font-family="Times,serif" font-size="10.00" fill="red">(latest: 1.2.6)</text>
</g>
<!-- roo_comms&#45;&gt;roo_scheduler -->
<g id="edge11" class="edge">
<title>roo_comms&#45;&gt;roo_scheduler</title>
<path fill="none" stroke="red" d="M1107.83,-545.77C1154.14,-537.43 1222.89,-518.43 1266,-476 1316.4,-426.4 1306.76,-394.44 1313,-324 1313.86,-314.28 1313.5,-303.64 1312.72,-294.15"/>
<polygon fill="red" stroke="red" points="1316.19,-293.64 1311.7,-284.04 1309.22,-294.34 1316.19,-293.64"/>
<text text-anchor="middle" x="1340" y="-412" font-family="Times,serif" font-size="10.00" fill="red">2.1.5</text>
<text text-anchor="middle" x="1340" y="-401" font-family="Times,serif" font-size="10.00" fill="red">(latest: 2.1.6)</text>
</g>
<!-- roo_testing -->
<g id="node17" class="node">
<title>roo_testing</title>
<polygon fill="#b1dbab" stroke="black" points="2072.5,-38 1975.5,-38 1975.5,0 2072.5,0 2072.5,-38"/>
<text text-anchor="middle" x="2024" y="-22.8" font-family="Times,serif" font-size="14.00">roo_testing</text>
<text text-anchor="middle" x="2024" y="-7.8" font-family="Times,serif" font-size="14.00">1.2.0</text>
</g>
<!-- roo_comms&#45;&gt;roo_testing -->
<g id="edge4" class="edge">
<title>roo_comms&#45;&gt;roo_testing</title>
<path fill="none" stroke="red" d="M1107.78,-550.43C1222.4,-546.55 1517.81,-535.37 1764,-516 1852.45,-509.04 2159,-546.72 2159,-458 2159,-458 2159,-458 2159,-312 2159,-282.01 2164.43,-274.73 2173,-246 2175.45,-237.77 2178.42,-236.44 2180,-228 2181.8,-218.39 2181.87,-215.6 2180,-206 2168,-144.35 2160.97,-127.83 2127,-75 2116.5,-58.67 2099.44,-46.86 2082.2,-38.48"/>
<polygon fill="red" stroke="red" points="2083.2,-35.09 2072.65,-34.16 2080.32,-41.47 2083.2,-35.09"/>
<text text-anchor="middle" x="2206" y="-268" font-family="Times,serif" font-size="10.00" fill="red">1.1.8</text>
<text text-anchor="middle" x="2206" y="-257" font-family="Times,serif" font-size="10.00" fill="red">(latest: 1.2.0)</text>
</g>
<!-- roo_threads -->
<g id="node18" class="node">
<title>roo_threads</title>
<polygon fill="#b1dbab" stroke="black" points="1129.5,-188 1028.5,-188 1028.5,-150 1129.5,-150 1129.5,-188"/>
<text text-anchor="middle" x="1079" y="-172.8" font-family="Times,serif" font-size="14.00">roo_threads</text>
<text text-anchor="middle" x="1079" y="-157.8" font-family="Times,serif" font-size="14.00">1.2.0</text>
</g>
<!-- roo_comms&#45;&gt;roo_threads -->
<g id="edge12" class="edge">
<title>roo_comms&#45;&gt;roo_threads</title>
<path fill="none" stroke="red" d="M1010.36,-543.96C941.83,-532.65 812.93,-511.48 703,-494 677.24,-489.9 607.56,-492.06 587,-476 570.77,-463.32 510.31,-318.23 523,-302 583.82,-224.18 886.37,-187.56 1017.84,-175.13"/>
<polygon fill="red" stroke="red" points="1018.5,-178.58 1028.13,-174.17 1017.85,-171.61 1018.5,-178.58"/>
<text text-anchor="middle" x="573" y="-364" font-family="Times,serif" font-size="10.00" fill="red">1.1.6</text>
<text text-anchor="middle" x="573" y="-353" font-family="Times,serif" font-size="10.00" fill="red">(latest: 1.2.0)</text>
</g>
<!-- roo_time -->
<g id="node19" class="node">
<title>roo_time</title>
<polygon fill="#b1dbab" stroke="black" points="1118.5,-113 1039.5,-113 1039.5,-75 1118.5,-75 1118.5,-113"/>
<text text-anchor="middle" x="1079" y="-97.8" font-family="Times,serif" font-size="14.00">roo_time</text>
<text text-anchor="middle" x="1079" y="-82.8" font-family="Times,serif" font-size="14.00">1.4.0</text>
</g>
<!-- roo_comms&#45;&gt;roo_time -->
<g id="edge13" class="edge">
<title>roo_comms&#45;&gt;roo_time</title>
<path fill="none" stroke="red" d="M1010.36,-549.82C849.92,-542.26 344.11,-515.49 283,-476 240.14,-448.3 234.61,-428.9 220,-380 215.16,-363.82 214.61,-358 220,-342 224.28,-329.3 354.76,-157.29 366,-150 421.36,-114.08 876.57,-99.89 1029.28,-96.11"/>
<polygon fill="red" stroke="red" points="1029.4,-99.61 1039.31,-95.86 1029.23,-92.61 1029.4,-99.61"/>
<text text-anchor="middle" x="280" y="-316" font-family="Times,serif" font-size="10.00" fill="red">1.3.3</text>
<text text-anchor="middle" x="280" y="-305" font-family="Times,serif" font-size="10.00" fill="red">(latest: 1.4.0)</text>
</g>
<!-- roo_transceivers -->
<g id="node21" class="node">
<title>roo_transceivers</title>
<polygon fill="plum" stroke="black" points="1711.5,-476 1576.5,-476 1576.5,-438 1711.5,-438 1711.5,-476"/>
<text text-anchor="middle" x="1644" y="-460.8" font-family="Times,serif" font-size="14.00">roo_transceivers</text>
<text text-anchor="middle" x="1644" y="-445.8" font-family="Times,serif" font-size="14.00">1.1.3</text>
</g>
<!-- roo_comms&#45;&gt;roo_transceivers -->
<g id="edge14" class="edge">
<title>roo_comms&#45;&gt;roo_transceivers</title>
<path fill="none" stroke="black" d="M1107.61,-550.81C1182.76,-548.26 1331.38,-540.31 1455,-516 1499.52,-507.24 1548.45,-492.07 1585.37,-479.43"/>
<polygon fill="black" stroke="black" points="1586.67,-482.69 1594.97,-476.11 1584.38,-476.07 1586.67,-482.69"/>
</g>
<!-- roo_control&#45;&gt;roo_logging -->
<g id="edge16" class="edge">
<title>roo_control&#45;&gt;roo_logging</title>
<path fill="none" stroke="red" d="M440.1,-437.68C435.91,-412.38 432.86,-367.05 458,-342 481.94,-318.15 576.04,-331.46 609,-324 638.75,-317.27 644.82,-310.88 674,-302 697.72,-294.78 724.04,-287.51 746.96,-281.4"/>
<polygon fill="red" stroke="red" points="748.12,-284.72 756.9,-278.78 746.33,-277.95 748.12,-284.72"/>
<text text-anchor="middle" x="491" y="-364" font-family="Times,serif" font-size="10.00" fill="red">1.4.3</text>
<text text-anchor="middle" x="491" y="-353" font-family="Times,serif" font-size="10.00" fill="red">(latest: 1.5.1)</text>
</g>
<!-- roo_quantity -->
<g id="node15" class="node">
<title>roo_quantity</title>
<polygon fill="plum" stroke="black" points="407.5,-380 300.5,-380 300.5,-342 407.5,-342 407.5,-380"/>
<text text-anchor="middle" x="354" y="-364.8" font-family="Times,serif" font-size="14.00">roo_quantity</text>
<text text-anchor="middle" x="354" y="-349.8" font-family="Times,serif" font-size="14.00">1.1.4</text>
</g>
<!-- roo_control&#45;&gt;roo_quantity -->
<g id="edge17" class="edge">
<title>roo_control&#45;&gt;roo_quantity</title>
<path fill="none" stroke="red" d="M395.22,-442.97C383.41,-437.64 371.93,-430.23 364,-420 357.54,-411.67 354.67,-400.63 353.53,-390.43"/>
<polygon fill="red" stroke="red" points="357.01,-390 352.9,-380.24 350.03,-390.43 357.01,-390"/>
<text text-anchor="middle" x="397" y="-412" font-family="Times,serif" font-size="10.00" fill="red">1.1.3</text>
<text text-anchor="middle" x="397" y="-401" font-family="Times,serif" font-size="10.00" fill="red">(latest: 1.1.4)</text>
</g>
<!-- roo_control&#45;&gt;roo_scheduler -->
<g id="edge18" class="edge">
<title>roo_control&#45;&gt;roo_scheduler</title>
<path fill="none" stroke="red" d="M492.58,-449.33C520.23,-445.67 555.51,-441.24 587,-438 686.79,-427.73 712.18,-430.02 812,-420 848.86,-416.3 1108.18,-392.66 1143,-380 1171.6,-369.6 1238.09,-320.61 1277.69,-290.34"/>
<polygon fill="red" stroke="red" points="1279.91,-293.05 1285.71,-284.18 1275.65,-287.49 1279.91,-293.05"/>
<text text-anchor="middle" x="1237" y="-364" font-family="Times,serif" font-size="10.00" fill="red">2.1.5</text>
<text text-anchor="middle" x="1237" y="-353" font-family="Times,serif" font-size="10.00" fill="red">(latest: 2.1.6)</text>
</g>
<!-- roo_control&#45;&gt;roo_testing -->
<g id="edge15" class="edge">
<title>roo_control&#45;&gt;roo_testing</title>
<path fill="none" stroke="red" d="M395.38,-438.77C354.87,-423.25 302.07,-399.89 291,-380 253.38,-312.4 250.27,-274.62 286,-206 306.04,-167.5 326.84,-168.7 366,-150 393.55,-136.85 402.01,-136.67 432,-131 734.94,-73.76 1714.34,-32.15 1965.09,-22.26"/>
<polygon fill="red" stroke="red" points="1965.58,-25.74 1975.44,-21.85 1965.31,-18.75 1965.58,-25.74"/>
<text text-anchor="middle" x="319" y="-220" font-family="Times,serif" font-size="10.00" fill="red">1.1.8</text>
<text text-anchor="middle" x="319" y="-209" font-family="Times,serif" font-size="10.00" fill="red">(latest: 1.2.0)</text>
</g>
<!-- roo_dashboard -->
<g id="node6" class="node">
<title>roo_dashboard</title>
<polygon fill="plum" stroke="black" points="882,-743 760,-743 760,-705 882,-705 882,-743"/>
<text text-anchor="middle" x="821" y="-727.8" font-family="Times,serif" font-size="14.00">roo_dashboard</text>
<text text-anchor="middle" x="821" y="-712.8" font-family="Times,serif" font-size="14.00">1.0.1</text>
</g>
<!-- roo_dashboard&#45;&gt;roo_testing -->
<g id="edge19" class="edge">
<title>roo_dashboard&#45;&gt;roo_testing</title>
<path fill="none" stroke="red" d="M759.96,-720.76C569.69,-713.39 0,-688.14 0,-650 0,-650 0,-650 0,-93 0,-42.48 1632.03,-23.83 1965.08,-20.55"/>
<polygon fill="red" stroke="red" points="1965.5,-24.04 1975.47,-20.45 1965.44,-17.04 1965.5,-24.04"/>
<text text-anchor="middle" x="33" y="-364" font-family="Times,serif" font-size="10.00" fill="red">1.1.7</text>
<text text-anchor="middle" x="33" y="-353" font-family="Times,serif" font-size="10.00" fill="red">(latest: 1.2.0)</text>
</g>
<!-- roo_windows -->
<g id="node24" class="node">
<title>roo_windows</title>
<polygon fill="plum" stroke="black" points="1884.5,-668 1775.5,-668 1775.5,-630 1884.5,-630 1884.5,-668"/>
<text text-anchor="middle" x="1830" y="-652.8" font-family="Times,serif" font-size="14.00">roo_windows</text>
<text text-anchor="middle" x="1830" y="-637.8" font-family="Times,serif" font-size="14.00">1.4.1</text>
</g>
<!-- roo_dashboard&#45;&gt;roo_windows -->
<g id="edge20" class="edge">
<title>roo_dashboard&#45;&gt;roo_windows</title>
<path fill="none" stroke="black" d="M882.22,-718.57C1061.15,-705.63 1582.14,-667.93 1765.36,-654.68"/>
<polygon fill="black" stroke="black" points="1765.66,-658.16 1775.38,-653.95 1765.16,-651.18 1765.66,-658.16"/>
</g>
<!-- roo_display -->
<g id="node7" class="node">
<title>roo_display</title>
<polygon fill="plum" stroke="black" points="2041,-476 1943,-476 1943,-438 2041,-438 2041,-476"/>
<text text-anchor="middle" x="1992" y="-460.8" font-family="Times,serif" font-size="14.00">roo_display</text>
<text text-anchor="middle" x="1992" y="-445.8" font-family="Times,serif" font-size="14.00">2.3.1</text>
</g>
<!-- roo_display&#45;&gt;roo_backport -->
<g id="edge22" class="edge">
<title>roo_display&#45;&gt;roo_backport</title>
<path fill="none" stroke="red" d="M1991.21,-437.73C1989.39,-408.14 1983.42,-348.37 1964,-302 1932.09,-225.8 1926.57,-194.56 1857,-150 1819.09,-125.72 1698.93,-109.38 1622.98,-101.17"/>
<polygon fill="red" stroke="red" points="1623.34,-97.69 1613.03,-100.12 1622.6,-104.65 1623.34,-97.69"/>
<text text-anchor="middle" x="1989" y="-268" font-family="Times,serif" font-size="10.00" fill="red">1.1.1</text>
<text text-anchor="middle" x="1989" y="-257" font-family="Times,serif" font-size="10.00" fill="red">(latest: 1.2.0)</text>
</g>
<!-- roo_display&#45;&gt;roo_collections -->
<g id="edge23" class="edge">
<title>roo_display&#45;&gt;roo_collections</title>
<path fill="none" stroke="red" d="M1983.47,-438C1977.65,-426.29 1969.5,-410.86 1961,-398 1943.4,-371.36 1937.32,-365.77 1916,-342 1908.45,-333.58 1903.4,-333.94 1898,-324 1872.44,-276.88 1907.19,-247.29 1873,-206 1868.56,-200.64 1863.19,-196.06 1857.32,-192.16"/>
<polygon fill="red" stroke="red" points="1858.81,-188.97 1848.41,-186.91 1855.25,-195 1858.81,-188.97"/>
<text text-anchor="middle" x="1931" y="-316" font-family="Times,serif" font-size="10.00" fill="red">1.3.2</text>
<text text-anchor="middle" x="1931" y="-305" font-family="Times,serif" font-size="10.00" fill="red">(latest: 1.4.0)</text>
</g>
<!-- roo_display&#45;&gt;roo_io -->
<g id="edge24" class="edge">
<title>roo_display&#45;&gt;roo_io</title>
<path fill="none" stroke="red" d="M1942.97,-449.61C1911.81,-445.74 1870.6,-441 1834,-438 1754.61,-431.49 1553.22,-439.57 1476,-420 1454.03,-414.43 1451.9,-403.82 1430,-398 1324.91,-370.06 1293.6,-395.7 1186,-380 1172.09,-377.97 1157.03,-374.92 1143.65,-371.9"/>
<polygon fill="red" stroke="red" points="1144.33,-368.46 1133.8,-369.61 1142.75,-375.28 1144.33,-368.46"/>
<text text-anchor="middle" x="1509" y="-412" font-family="Times,serif" font-size="10.00" fill="red">2.0.2</text>
<text text-anchor="middle" x="1509" y="-401" font-family="Times,serif" font-size="10.00" fill="red">(latest: 2.1.0)</text>
</g>
<!-- roo_display&#45;&gt;roo_testing -->
<g id="edge21" class="edge">
<title>roo_display&#45;&gt;roo_testing</title>
<path fill="none" stroke="red" d="M2009.01,-437.67C2029.99,-413.69 2064.53,-369.36 2078,-324 2091.88,-277.28 2040.01,-274.37 2025,-228 2005.03,-166.35 2012.57,-88.91 2018.86,-48.13"/>
<polygon fill="red" stroke="red" points="2022.34,-48.54 2020.5,-38.11 2015.43,-47.41 2022.34,-48.54"/>
<text text-anchor="middle" x="2058" y="-220" font-family="Times,serif" font-size="10.00" fill="red">1.1.7</text>
<text text-anchor="middle" x="2058" y="-209" font-family="Times,serif" font-size="10.00" fill="red">(latest: 1.2.0)</text>
</g>
<!-- roo_flags -->
<g id="node8" class="node">
<title>roo_flags</title>
<polygon fill="#b1dbab" stroke="black" points="486,-188 406,-188 406,-150 486,-150 486,-188"/>
<text text-anchor="middle" x="446" y="-172.8" font-family="Times,serif" font-size="14.00">roo_flags</text>
<text text-anchor="middle" x="446" y="-157.8" font-family="Times,serif" font-size="14.00">1.2.0</text>
</g>
<!-- roo_icons -->
<g id="node9" class="node">
<title>roo_icons</title>
<polygon fill="plum" stroke="black" points="2225.5,-572 2142.5,-572 2142.5,-534 2225.5,-534 2225.5,-572"/>
<text text-anchor="middle" x="2184" y="-556.8" font-family="Times,serif" font-size="14.00">roo_icons</text>
<text text-anchor="middle" x="2184" y="-541.8" font-family="Times,serif" font-size="14.00">1.2.1</text>
</g>
<!-- roo_icons&#45;&gt;roo_display -->
<g id="edge26" class="edge">
<title>roo_icons&#45;&gt;roo_display</title>
<path fill="none" stroke="black" d="M2146.98,-533.88C2115.9,-518.66 2071.36,-496.85 2038,-480.52"/>
<polygon fill="black" stroke="black" points="2039.43,-477.32 2028.91,-476.07 2036.35,-483.61 2039.43,-477.32"/>
</g>
<!-- roo_icons&#45;&gt;roo_testing -->
<g id="edge25" class="edge">
<title>roo_icons&#45;&gt;roo_testing</title>
<path fill="none" stroke="red" d="M2211.8,-533.94C2233.85,-517.19 2261,-490.07 2261,-458 2261,-458 2261,-458 2261,-93 2261,-55.76 2152.78,-35.52 2082.59,-26.3"/>
<polygon fill="red" stroke="red" points="2082.89,-22.81 2072.53,-25.02 2082.01,-29.76 2082.89,-22.81"/>
<text text-anchor="middle" x="2294" y="-268" font-family="Times,serif" font-size="10.00" fill="red">1.1.7</text>
<text text-anchor="middle" x="2294" y="-257" font-family="Times,serif" font-size="10.00" fill="red">(latest: 1.2.0)</text>
</g>
<!-- roo_io&#45;&gt;roo_backport -->
<g id="edge27" class="edge">
<title>roo_io&#45;&gt;roo_backport</title>
<path fill="none" stroke="black" d="M1113.24,-341.91C1120.19,-329.57 1130.62,-313.46 1143,-302 1180.1,-267.66 1193.59,-260.54 1242,-246 1297.68,-229.27 1455.81,-261.96 1503,-228 1536.74,-203.72 1549.86,-154.82 1554.9,-123.56"/>
<polygon fill="black" stroke="black" points="1558.42,-123.7 1556.37,-113.31 1551.49,-122.71 1558.42,-123.7"/>
</g>
<!-- roo_io&#45;&gt;roo_logging -->
<g id="edge28" class="edge">
<title>roo_io&#45;&gt;roo_logging</title>
<path fill="none" stroke="red" d="M1074.33,-347.39C1069.57,-345.5 1064.67,-343.64 1060,-342 1033.33,-332.64 1023.46,-338.17 999,-324 986.76,-316.91 988.5,-308.61 976,-302 942.48,-284.27 900.85,-275.27 867.3,-270.7"/>
<polygon fill="red" stroke="red" points="867.52,-267.2 857.16,-269.42 866.64,-274.15 867.52,-267.2"/>
<text text-anchor="middle" x="1032" y="-316" font-family="Times,serif" font-size="10.00" fill="red">1.5.0</text>
<text text-anchor="middle" x="1032" y="-305" font-family="Times,serif" font-size="10.00" fill="red">(latest: 1.5.1)</text>
</g>
<!-- roo_io&#45;&gt;roo_threads -->
<g id="edge29" class="edge">
<title>roo_io&#45;&gt;roo_threads</title>
<path fill="none" stroke="black" d="M1101.6,-341.78C1097.23,-308.52 1087.91,-237.73 1082.71,-198.2"/>
<polygon fill="black" stroke="black" points="1086.16,-197.62 1081.39,-188.16 1079.22,-198.53 1086.16,-197.62"/>
</g>
<!-- roo_locale -->
<g id="node11" class="node">
<title>roo_locale</title>
<polygon fill="#b1dbab" stroke="black" points="2012,-572 1924,-572 1924,-534 2012,-534 2012,-572"/>
<text text-anchor="middle" x="1968" y="-556.8" font-family="Times,serif" font-size="14.00">roo_locale</text>
<text text-anchor="middle" x="1968" y="-541.8" font-family="Times,serif" font-size="14.00">1.1.1</text>
</g>
<!-- roo_logging&#45;&gt;roo_backport -->
<g id="edge30" class="edge">
<title>roo_logging&#45;&gt;roo_backport</title>
<path fill="none" stroke="black" d="M857.14,-259.29C946.26,-250.24 1137.66,-227.7 1295,-188 1369.49,-169.2 1452.64,-137.99 1505.13,-116.97"/>
<polygon fill="black" stroke="black" points="1506.59,-120.15 1514.56,-113.17 1503.98,-113.66 1506.59,-120.15"/>
</g>
<!-- roo_logging&#45;&gt;roo_flags -->
<g id="edge31" class="edge">
<title>roo_logging&#45;&gt;roo_flags</title>
<path fill="none" stroke="black" d="M756.8,-250.93C687.84,-232.97 564.52,-200.86 495.77,-182.96"/>
<polygon fill="black" stroke="black" points="496.6,-179.56 486.04,-180.43 494.84,-186.33 496.6,-179.56"/>
</g>
<!-- roo_logging&#45;&gt;roo_threads -->
<g id="edge32" class="edge">
<title>roo_logging&#45;&gt;roo_threads</title>
<path fill="none" stroke="black" d="M857.21,-246.65C902.73,-230.92 969.93,-207.69 1018.42,-190.94"/>
<polygon fill="black" stroke="black" points="1019.86,-194.14 1028.16,-187.57 1017.57,-187.53 1019.86,-194.14"/>
</g>
<!-- roo_onewire -->
<g id="node13" class="node">
<title>roo_onewire</title>
<polygon fill="plum" stroke="black" points="700,-476 596,-476 596,-438 700,-438 700,-476"/>
<text text-anchor="middle" x="648" y="-460.8" font-family="Times,serif" font-size="14.00">roo_onewire</text>
<text text-anchor="middle" x="648" y="-445.8" font-family="Times,serif" font-size="14.00">2.0.6</text>
</g>
<!-- roo_onewire&#45;&gt;roo_logging -->
<g id="edge33" class="edge">
<title>roo_onewire&#45;&gt;roo_logging</title>
<path fill="none" stroke="red" d="M645.63,-437.78C643.47,-413.81 643.05,-371.3 662,-342 681.29,-312.17 716.3,-293.36 747.09,-281.91"/>
<polygon fill="red" stroke="red" points="748.64,-285.07 756.91,-278.44 746.32,-278.47 748.64,-285.07"/>
<text text-anchor="middle" x="695" y="-364" font-family="Times,serif" font-size="10.00" fill="red">1.5.0</text>
<text text-anchor="middle" x="695" y="-353" font-family="Times,serif" font-size="10.00" fill="red">(latest: 1.5.1)</text>
</g>
<!-- roo_onewire&#45;&gt;roo_quantity -->
<g id="edge35" class="edge">
<title>roo_onewire&#45;&gt;roo_quantity</title>
<path fill="none" stroke="black" d="M595.78,-439.3C545.91,-423.36 470.69,-399.31 417.41,-382.27"/>
<polygon fill="black" stroke="black" points="418.31,-378.89 407.72,-379.18 416.18,-385.56 418.31,-378.89"/>
</g>
<!-- roo_onewire&#45;&gt;roo_scheduler -->
<g id="edge34" class="edge">
<title>roo_onewire&#45;&gt;roo_scheduler</title>
<path fill="none" stroke="black" d="M700.15,-451.99C799.23,-444.24 1007.68,-427.37 1040,-420 1067.29,-413.78 1071.74,-404.34 1099,-398 1137.94,-388.94 1247.49,-405.84 1278,-380 1302.62,-359.14 1308.69,-320.87 1309.71,-294.46"/>
<polygon fill="black" stroke="black" points="1313.21,-294.35 1309.88,-284.3 1306.21,-294.24 1313.21,-294.35"/>
</g>
<!-- roo_prefs&#45;&gt;roo_logging -->
<g id="edge36" class="edge">
<title>roo_prefs&#45;&gt;roo_logging</title>
<path fill="none" stroke="red" d="M1496.3,-341.91C1487.68,-336.63 1478.69,-330.52 1471,-324 1461.14,-315.65 1463.59,-307.7 1452,-302 1426.04,-289.23 1022.73,-273.65 867.37,-268.09"/>
<polygon fill="red" stroke="red" points="867.18,-264.58 857.06,-267.73 866.93,-271.58 867.18,-264.58"/>
<text text-anchor="middle" x="1504" y="-316" font-family="Times,serif" font-size="10.00" fill="red">1.5.0</text>
<text text-anchor="middle" x="1504" y="-305" font-family="Times,serif" font-size="10.00" fill="red">(latest: 1.5.1)</text>
</g>
<!-- roo_prefs&#45;&gt;roo_scheduler -->
<g id="edge37" class="edge">
<title>roo_prefs&#45;&gt;roo_scheduler</title>
<path fill="none" stroke="black" d="M1540.5,-341.93C1546.32,-329.28 1550.63,-312.77 1541,-302 1517.16,-275.32 1416.21,-290.35 1381,-284 1379.72,-283.77 1378.42,-283.53 1377.12,-283.28"/>
<polygon fill="black" stroke="black" points="1377.51,-279.79 1367.02,-281.21 1376.11,-286.64 1377.51,-279.79"/>
</g>
<!-- roo_quantity&#45;&gt;roo_flags -->
<g id="edge38" class="edge">
<title>roo_quantity&#45;&gt;roo_flags</title>
<path fill="none" stroke="black" d="M362.82,-341.78C379.03,-308.3 413.64,-236.82 432.71,-197.44"/>
<polygon fill="black" stroke="black" points="436,-198.69 437.21,-188.16 429.7,-195.64 436,-198.69"/>
</g>
<!-- roo_quantity&#45;&gt;roo_logging -->
<g id="edge39" class="edge">
<title>roo_quantity&#45;&gt;roo_logging</title>
<path fill="none" stroke="red" d="M404.74,-341.97C442.46,-329.18 495.4,-312.48 543,-302 612.18,-286.77 693.06,-276.88 746.89,-271.39"/>
<polygon fill="red" stroke="red" points="747.34,-274.86 756.95,-270.38 746.65,-267.9 747.34,-274.86"/>
<text text-anchor="middle" x="576" y="-316" font-family="Times,serif" font-size="10.00" fill="red">1.5.0</text>
<text text-anchor="middle" x="576" y="-305" font-family="Times,serif" font-size="10.00" fill="red">(latest: 1.5.1)</text>
</g>
<!-- roo_quantity&#45;&gt;roo_time -->
<g id="edge40" class="edge">
<title>roo_quantity&#45;&gt;roo_time</title>
<path fill="none" stroke="black" d="M351.35,-341.95C346.43,-300.76 340.99,-199.58 397,-150 444.06,-108.33 879.55,-97.97 1028.97,-95.63"/>
<polygon fill="black" stroke="black" points="1029.27,-99.12 1039.22,-95.47 1029.17,-92.12 1029.27,-99.12"/>
</g>
<!-- roo_scheduler&#45;&gt;roo_collections -->
<g id="edge41" class="edge">
<title>roo_scheduler&#45;&gt;roo_collections</title>
<path fill="none" stroke="black" d="M1367.3,-256.09C1413.09,-249.55 1478.35,-239.49 1535,-228 1574.93,-219.9 1584.33,-215.28 1624,-206 1654.04,-198.97 1687.28,-191.56 1715.87,-185.31"/>
<polygon fill="black" stroke="black" points="1716.75,-188.7 1725.77,-183.14 1715.25,-181.86 1716.75,-188.7"/>
</g>
<!-- roo_scheduler&#45;&gt;roo_threads -->
<g id="edge42" class="edge">
<title>roo_scheduler&#45;&gt;roo_threads</title>
<path fill="none" stroke="black" d="M1269.09,-245.9C1242.8,-234.15 1207.54,-218.72 1176,-206 1164.1,-201.2 1151.3,-196.28 1139.01,-191.68"/>
<polygon fill="black" stroke="black" points="1139.89,-188.27 1129.3,-188.06 1137.45,-194.83 1139.89,-188.27"/>
</g>
<!-- roo_threads&#45;&gt;roo_time -->
<g id="edge43" class="edge">
<title>roo_threads&#45;&gt;roo_time</title>
<path fill="none" stroke="black" d="M1079,-149.96C1079,-141.88 1079,-132.18 1079,-123.18"/>
<polygon fill="black" stroke="black" points="1082.5,-123.09 1079,-113.09 1075.5,-123.09 1082.5,-123.09"/>
</g>
<!-- roo_time&#45;&gt;roo_testing -->
<g id="edge44" class="edge">
<title>roo_time&#45;&gt;roo_testing</title>
<path fill="none" stroke="black" d="M1118.72,-88.04C1182.12,-80.27 1310.13,-65.16 1419,-56 1619.1,-39.17 1857.08,-27.43 1965.26,-22.54"/>
<polygon fill="black" stroke="black" points="1965.49,-26.03 1975.32,-22.09 1965.17,-19.04 1965.49,-26.03"/>
</g>
<!-- roo_time_ds3231 -->
<g id="node20" class="node">
<title>roo_time_ds3231</title>
<polygon fill="#b1dbab" stroke="black" points="1286,-188 1148,-188 1148,-150 1286,-150 1286,-188"/>
<text text-anchor="middle" x="1217" y="-172.8" font-family="Times,serif" font-size="14.00">roo_time_ds3231</text>
<text text-anchor="middle" x="1217" y="-157.8" font-family="Times,serif" font-size="14.00">1.1.4</text>
</g>
<!-- roo_time_ds3231&#45;&gt;roo_time -->
<g id="edge45" class="edge">
<title>roo_time_ds3231&#45;&gt;roo_time</title>
<path fill="none" stroke="black" d="M1182.89,-149.96C1164.56,-140.26 1141.77,-128.21 1122.22,-117.86"/>
<polygon fill="black" stroke="black" points="1123.67,-114.67 1113.2,-113.09 1120.4,-120.86 1123.67,-114.67"/>
</g>
<!-- roo_transceivers&#45;&gt;roo_collections -->
<g id="edge47" class="edge">
<title>roo_transceivers&#45;&gt;roo_collections</title>
<path fill="none" stroke="red" d="M1681.68,-437.88C1689.96,-432.83 1698.26,-426.82 1705,-420 1719.42,-405.42 1720.05,-398.91 1728,-380 1741.94,-346.82 1767.7,-247.16 1780.05,-198.02"/>
<polygon fill="red" stroke="red" points="1783.51,-198.62 1782.54,-188.07 1776.72,-196.92 1783.51,-198.62"/>
<text text-anchor="middle" x="1785" y="-316" font-family="Times,serif" font-size="10.00" fill="red">1.3.2</text>
<text text-anchor="middle" x="1785" y="-305" font-family="Times,serif" font-size="10.00" fill="red">(latest: 1.4.0)</text>
</g>
<!-- roo_transceivers&#45;&gt;roo_logging -->
<g id="edge48" class="edge">
<title>roo_transceivers&#45;&gt;roo_logging</title>
<path fill="none" stroke="red" d="M1576.13,-446.69C1533.85,-440.37 1478.47,-431.14 1430,-420 1396.15,-412.22 1389.25,-403.81 1355,-398 1277.12,-384.79 1070.75,-415.12 1000,-380 980.22,-370.18 985.16,-355.89 968,-342 938.64,-318.23 927.13,-318.2 893,-302 883.04,-297.27 872.28,-292.51 861.87,-288.07"/>
<polygon fill="red" stroke="red" points="863,-284.75 852.43,-284.09 860.28,-291.2 863,-284.75"/>
<text text-anchor="middle" x="1033" y="-364" font-family="Times,serif" font-size="10.00" fill="red">1.4.3</text>
<text text-anchor="middle" x="1033" y="-353" font-family="Times,serif" font-size="10.00" fill="red">(latest: 1.5.1)</text>
</g>
<!-- roo_transceivers&#45;&gt;roo_prefs -->
<g id="edge49" class="edge">
<title>roo_transceivers&#45;&gt;roo_prefs</title>
<path fill="none" stroke="red" d="M1591.24,-437.88C1581.51,-433.04 1571.93,-427.12 1564,-420 1554.6,-411.56 1547.07,-399.88 1541.5,-389.21"/>
<polygon fill="red" stroke="red" points="1544.65,-387.67 1537.13,-380.21 1538.35,-390.73 1544.65,-387.67"/>
<text text-anchor="middle" x="1597" y="-412" font-family="Times,serif" font-size="10.00" fill="red">1.2.3</text>
<text text-anchor="middle" x="1597" y="-401" font-family="Times,serif" font-size="10.00" fill="red">(latest: 1.2.6)</text>
</g>
<!-- roo_transceivers&#45;&gt;roo_testing -->
<g id="edge46" class="edge">
<title>roo_transceivers&#45;&gt;roo_testing</title>
<path fill="none" stroke="red" d="M1661.61,-437.77C1665.94,-432.41 1670.15,-426.29 1673,-420 1680.45,-403.56 1677.31,-397.85 1680,-380 1683.86,-354.4 1700.01,-169.53 1717,-150 1781.63,-75.71 1895.95,-42.74 1965.37,-28.99"/>
<polygon fill="red" stroke="red" points="1966.11,-32.41 1975.27,-27.1 1964.79,-25.54 1966.11,-32.41"/>
<text text-anchor="middle" x="1734" y="-220" font-family="Times,serif" font-size="10.00" fill="red">1.1.8</text>
<text text-anchor="middle" x="1734" y="-209" font-family="Times,serif" font-size="10.00" fill="red">(latest: 1.2.0)</text>
</g>
<!-- roo_transceivers&#45;&gt;roo_threads -->
<g id="edge50" class="edge">
<title>roo_transceivers&#45;&gt;roo_threads</title>
<path fill="none" stroke="red" d="M1641.6,-437.84C1639.57,-426.07 1636,-410.63 1630,-398 1607,-349.58 1600.92,-332.72 1557,-302 1427.63,-211.51 1368.42,-243.23 1215,-206 1184.03,-198.49 1174.13,-197.18 1139.57,-188.07"/>
<polygon fill="red" stroke="red" points="1140.24,-184.63 1129.68,-185.43 1138.44,-191.39 1140.24,-184.63"/>
<text text-anchor="middle" x="1617" y="-316" font-family="Times,serif" font-size="10.00" fill="red">1.1.6</text>
<text text-anchor="middle" x="1617" y="-305" font-family="Times,serif" font-size="10.00" fill="red">(latest: 1.2.0)</text>
</g>
<!-- roo_transceivers&#45;&gt;roo_time -->
<g id="edge51" class="edge">
<title>roo_transceivers&#45;&gt;roo_time</title>
<path fill="none" stroke="red" d="M1651.24,-437.93C1662.14,-407.58 1679,-345.42 1654,-302 1646.05,-288.19 1636.57,-292.34 1623,-284 1568.81,-250.69 1561.09,-231.92 1503,-206 1374.22,-148.54 1209.69,-116.1 1128.66,-102.57"/>
<polygon fill="red" stroke="red" points="1129.17,-99.11 1118.73,-100.94 1128.03,-106.01 1129.17,-99.11"/>
<text text-anchor="middle" x="1656" y="-268" font-family="Times,serif" font-size="10.00" fill="red">1.3.3</text>
<text text-anchor="middle" x="1656" y="-257" font-family="Times,serif" font-size="10.00" fill="red">(latest: 1.4.0)</text>
</g>
<!-- roo_transport -->
<g id="node22" class="node">
<title>roo_transport</title>
<polygon fill="plum" stroke="black" points="1257,-476 1143,-476 1143,-438 1257,-438 1257,-476"/>
<text text-anchor="middle" x="1200" y="-460.8" font-family="Times,serif" font-size="14.00">roo_transport</text>
<text text-anchor="middle" x="1200" y="-445.8" font-family="Times,serif" font-size="14.00">1.0.2</text>
</g>
<!-- roo_transport&#45;&gt;roo_collections -->
<g id="edge53" class="edge">
<title>roo_transport&#45;&gt;roo_collections</title>
<path fill="none" stroke="red" d="M1257.15,-450.39C1301.8,-444.94 1359.17,-435.21 1377,-420 1403.86,-397.09 1400.86,-376.17 1392,-342 1389.7,-333.14 1384.3,-332.86 1382,-324 1379.55,-314.53 1376.08,-309.78 1382,-302 1400.15,-278.14 1418.27,-292.56 1447,-284 1500.21,-268.14 1511.76,-257.87 1566,-246 1630.3,-231.93 1652.2,-253.23 1713,-228 1731.27,-220.42 1748.83,-207.01 1762.26,-195"/>
<polygon fill="red" stroke="red" points="1764.7,-197.51 1769.66,-188.14 1759.94,-192.37 1764.7,-197.51"/>
<text text-anchor="middle" x="1415" y="-316" font-family="Times,serif" font-size="10.00" fill="red">1.3.2</text>
<text text-anchor="middle" x="1415" y="-305" font-family="Times,serif" font-size="10.00" fill="red">(latest: 1.4.0)</text>
</g>
<!-- roo_transport&#45;&gt;roo_io -->
<g id="edge54" class="edge">
<title>roo_transport&#45;&gt;roo_io</title>
<path fill="none" stroke="red" d="M1142.84,-442.12C1131.46,-436.91 1120.68,-429.77 1113,-420 1106.46,-411.68 1103.74,-400.55 1102.83,-390.28"/>
<polygon fill="red" stroke="red" points="1106.31,-389.89 1102.44,-380.03 1099.32,-390.15 1106.31,-389.89"/>
<text text-anchor="middle" x="1146" y="-412" font-family="Times,serif" font-size="10.00" fill="red">2.0.3</text>
<text text-anchor="middle" x="1146" y="-401" font-family="Times,serif" font-size="10.00" fill="red">(latest: 2.1.0)</text>
</g>
<!-- roo_transport&#45;&gt;roo_logging -->
<g id="edge55" class="edge">
<title>roo_transport&#45;&gt;roo_logging</title>
<path fill="none" stroke="red" d="M1142.93,-439.33C1141.27,-438.88 1139.62,-438.44 1138,-438 1033.67,-410.05 982.23,-452.32 902,-380 874.64,-355.34 898.04,-329.9 874,-302 870.08,-297.45 865.44,-293.38 860.45,-289.76"/>
<polygon fill="red" stroke="red" points="862.09,-286.65 851.81,-284.1 858.26,-292.51 862.09,-286.65"/>
<text text-anchor="middle" x="935" y="-364" font-family="Times,serif" font-size="10.00" fill="red">1.4.3</text>
<text text-anchor="middle" x="935" y="-353" font-family="Times,serif" font-size="10.00" fill="red">(latest: 1.5.1)</text>
</g>
<!-- roo_transport&#45;&gt;roo_testing -->
<g id="edge52" class="edge">
<title>roo_transport&#45;&gt;roo_testing</title>
<path fill="none" stroke="red" d="M1257.28,-448.99C1294.67,-443.22 1338.9,-433.74 1352,-420 1388.8,-381.38 1353.31,-351.17 1374,-302 1391.7,-259.95 1433,-263.62 1433,-218 1433,-218 1433,-218 1433,-93 1433,-39.77 1815.44,-24.94 1965.03,-21.18"/>
<polygon fill="red" stroke="red" points="1965.47,-24.67 1975.38,-20.92 1965.3,-17.67 1965.47,-24.67"/>
<text text-anchor="middle" x="1466" y="-220" font-family="Times,serif" font-size="10.00" fill="red">1.1.8</text>
<text text-anchor="middle" x="1466" y="-209" font-family="Times,serif" font-size="10.00" fill="red">(latest: 1.2.0)</text>
</g>
<!-- roo_transport&#45;&gt;roo_threads -->
<g id="edge56" class="edge">
<title>roo_transport&#45;&gt;roo_threads</title>
<path fill="none" stroke="red" d="M1193.69,-437.89C1189.63,-426.41 1184.17,-411.27 1179,-398 1145.48,-311.85 1139.29,-289.2 1099,-206 1097.57,-203.04 1096,-199.98 1094.4,-196.95"/>
<polygon fill="red" stroke="red" points="1097.44,-195.21 1089.58,-188.1 1091.29,-198.56 1097.44,-195.21"/>
<text text-anchor="middle" x="1183" y="-316" font-family="Times,serif" font-size="10.00" fill="red">1.1.6</text>
<text text-anchor="middle" x="1183" y="-305" font-family="Times,serif" font-size="10.00" fill="red">(latest: 1.2.0)</text>
</g>
<!-- roo_wifi -->
<g id="node23" class="node">
<title>roo_wifi</title>
<polygon fill="plum" stroke="black" points="2131,-476 2059,-476 2059,-438 2131,-438 2131,-476"/>
<text text-anchor="middle" x="2095" y="-460.8" font-family="Times,serif" font-size="14.00">roo_wifi</text>
<text text-anchor="middle" x="2095" y="-445.8" font-family="Times,serif" font-size="14.00">1.1.2</text>
</g>
<!-- roo_wifi&#45;&gt;roo_collections -->
<g id="edge58" class="edge">
<title>roo_wifi&#45;&gt;roo_collections</title>
<path fill="none" stroke="red" d="M2086.25,-437.91C2074.26,-412.73 2052.45,-365.52 2037,-324 2024.35,-290.01 2038.31,-271.98 2013,-246 1972.26,-204.19 1907.81,-185.38 1858.15,-176.92"/>
<polygon fill="red" stroke="red" points="1858.53,-173.43 1848.11,-175.31 1857.43,-180.35 1858.53,-173.43"/>
<text text-anchor="middle" x="2070" y="-316" font-family="Times,serif" font-size="10.00" fill="red">1.3.2</text>
<text text-anchor="middle" x="2070" y="-305" font-family="Times,serif" font-size="10.00" fill="red">(latest: 1.4.0)</text>
</g>
<!-- roo_wifi&#45;&gt;roo_prefs -->
<g id="edge59" class="edge">
<title>roo_wifi&#45;&gt;roo_prefs</title>
<path fill="none" stroke="red" d="M2058.96,-440.48C2055.96,-439.53 2052.95,-438.68 2050,-438 1944.05,-413.52 1913.67,-435.22 1806,-420 1727.04,-408.84 1636.84,-388.41 1581.66,-375.01"/>
<polygon fill="red" stroke="red" points="1582.32,-371.57 1571.78,-372.6 1580.66,-378.37 1582.32,-371.57"/>
<text text-anchor="middle" x="1839" y="-412" font-family="Times,serif" font-size="10.00" fill="red">1.2.3</text>
<text text-anchor="middle" x="1839" y="-401" font-family="Times,serif" font-size="10.00" fill="red">(latest: 1.2.6)</text>
</g>
<!-- roo_wifi&#45;&gt;roo_testing -->
<g id="edge57" class="edge">
<title>roo_wifi&#45;&gt;roo_testing</title>
<path fill="none" stroke="red" d="M2097.32,-437.82C2102.18,-398.04 2113,-300.25 2113,-218 2113,-218 2113,-218 2113,-93 2113,-71.45 2097.2,-55.1 2078.92,-43.39"/>
<polygon fill="red" stroke="red" points="2080.2,-40.08 2069.8,-38.02 2076.64,-46.11 2080.2,-40.08"/>
<text text-anchor="middle" x="2146" y="-220" font-family="Times,serif" font-size="10.00" fill="red">1.1.8</text>
<text text-anchor="middle" x="2146" y="-209" font-family="Times,serif" font-size="10.00" fill="red">(latest: 1.2.0)</text>
</g>
<!-- roo_windows&#45;&gt;roo_collections -->
<g id="edge61" class="edge">
<title>roo_windows&#45;&gt;roo_collections</title>
<path fill="none" stroke="red" d="M1835.56,-629.72C1852.62,-572.58 1902.2,-397.81 1888,-342 1873.5,-285.01 1833.79,-227.94 1808.7,-195.97"/>
<polygon fill="red" stroke="red" points="1811.33,-193.66 1802.35,-188.03 1805.86,-198.02 1811.33,-193.66"/>
<text text-anchor="middle" x="1921" y="-412" font-family="Times,serif" font-size="10.00" fill="red">1.3.2</text>
<text text-anchor="middle" x="1921" y="-401" font-family="Times,serif" font-size="10.00" fill="red">(latest: 1.4.0)</text>
</g>
<!-- roo_windows&#45;&gt;roo_icons -->
<g id="edge64" class="edge">
<title>roo_windows&#45;&gt;roo_icons</title>
<path fill="none" stroke="black" d="M1884.54,-633.52C1952.15,-615.57 2066.52,-585.2 2132.63,-567.64"/>
<polygon fill="black" stroke="black" points="2133.65,-570.99 2142.41,-565.04 2131.85,-564.23 2133.65,-570.99"/>
</g>
<!-- roo_windows&#45;&gt;roo_io -->
<g id="edge65" class="edge">
<title>roo_windows&#45;&gt;roo_io</title>
<path fill="none" stroke="red" d="M1775.49,-646.6C1600.47,-641.62 1060.67,-622.29 1002,-572 975.26,-549.08 975.81,-527.04 988,-494 1004.34,-449.71 1043.3,-410.74 1071.57,-386.84"/>
<polygon fill="red" stroke="red" points="1074.12,-389.27 1079.6,-380.21 1069.66,-383.88 1074.12,-389.27"/>
<text text-anchor="middle" x="1021" y="-508" font-family="Times,serif" font-size="10.00" fill="red">2.0.2</text>
<text text-anchor="middle" x="1021" y="-497" font-family="Times,serif" font-size="10.00" fill="red">(latest: 2.1.0)</text>
</g>
<!-- roo_windows&#45;&gt;roo_locale -->
<g id="edge62" class="edge">
<title>roo_windows&#45;&gt;roo_locale</title>
<path fill="none" stroke="black" d="M1877.65,-629.97C1888.69,-624.88 1900.1,-618.83 1910,-612 1923.11,-602.95 1935.83,-590.74 1946.01,-579.85"/>
<polygon fill="black" stroke="black" points="1948.81,-581.98 1952.94,-572.23 1943.62,-577.27 1948.81,-581.98"/>
</g>
<!-- roo_windows&#45;&gt;roo_logging -->
<g id="edge63" class="edge">
<title>roo_windows&#45;&gt;roo_logging</title>
<path fill="none" stroke="red" d="M1775.21,-648.09C1647.26,-647.74 1319.04,-643.54 1047,-612 720.47,-574.14 564.69,-695.5 320,-476 274.64,-435.31 253.17,-389.77 291,-342 346.43,-272.01 622.67,-264.75 746.62,-265.11"/>
<polygon fill="red" stroke="red" points="746.69,-268.61 756.71,-265.16 746.72,-261.61 746.69,-268.61"/>
<text text-anchor="middle" x="353" y="-460" font-family="Times,serif" font-size="10.00" fill="red">1.4.2</text>
<text text-anchor="middle" x="353" y="-449" font-family="Times,serif" font-size="10.00" fill="red">(latest: 1.5.1)</text>
</g>
<!-- roo_windows&#45;&gt;roo_scheduler -->
<g id="edge66" class="edge">
<title>roo_windows&#45;&gt;roo_scheduler</title>
<path fill="none" stroke="red" d="M1826.95,-629.73C1821.27,-593.25 1810.14,-508.83 1816,-438 1817.47,-420.23 1829.45,-412.44 1819,-398 1803.57,-376.68 1617.95,-334.9 1594,-324 1576.59,-316.08 1575.03,-308.39 1557,-302 1548.53,-299 1447.8,-284.89 1377.36,-275.25"/>
<polygon fill="red" stroke="red" points="1377.58,-271.75 1367.2,-273.87 1376.64,-278.69 1377.58,-271.75"/>
<text text-anchor="middle" x="1849" y="-460" font-family="Times,serif" font-size="10.00" fill="red">2.1.4</text>
<text text-anchor="middle" x="1849" y="-449" font-family="Times,serif" font-size="10.00" fill="red">(latest: 2.1.6)</text>
</g>
<!-- roo_windows&#45;&gt;roo_testing -->
<g id="edge60" class="edge">
<title>roo_windows&#45;&gt;roo_testing</title>
<path fill="none" stroke="red" d="M1884.96,-644.35C2016.57,-634.1 2339,-599.46 2339,-506 2339,-506 2339,-506 2339,-360 2339,-334.22 2337.5,-327.66 2340,-302 2343.67,-264.25 2355,-255.92 2355,-218 2355,-218 2355,-218 2355,-93 2355,-37.93 2178.04,-24.36 2082.9,-21.05"/>
<polygon fill="red" stroke="red" points="2082.95,-17.55 2072.84,-20.73 2082.72,-24.55 2082.95,-17.55"/>
<text text-anchor="middle" x="2373" y="-316" font-family="Times,serif" font-size="10.00" fill="red">1.1.7</text>
<text text-anchor="middle" x="2373" y="-305" font-family="Times,serif" font-size="10.00" fill="red">(latest: 1.2.0)</text>
</g>
<!-- roo_windows&#45;&gt;roo_time -->
<g id="edge67" class="edge">
<title>roo_windows&#45;&gt;roo_time</title>
<path fill="none" stroke="red" d="M1775.43,-647.95C1481.7,-647.34 102,-639.91 102,-554 102,-554 102,-554 102,-168 102,-121 830.41,-100.74 1029.33,-96.08"/>
<polygon fill="red" stroke="red" points="1029.57,-99.58 1039.49,-95.85 1029.41,-92.58 1029.57,-99.58"/>
<text text-anchor="middle" x="135" y="-364" font-family="Times,serif" font-size="10.00" fill="red">1.3.2</text>
<text text-anchor="middle" x="135" y="-353" font-family="Times,serif" font-size="10.00" fill="red">(latest: 1.4.0)</text>
</g>
<!-- roo_windows_wifi -->
<g id="node25" class="node">
<title>roo_windows_wifi</title>
<polygon fill="plum" stroke="black" points="2371.5,-743 2230.5,-743 2230.5,-705 2371.5,-705 2371.5,-743"/>
<text text-anchor="middle" x="2301" y="-727.8" font-family="Times,serif" font-size="14.00">roo_windows_wifi</text>
<text text-anchor="middle" x="2301" y="-712.8" font-family="Times,serif" font-size="14.00">1.1.2</text>
</g>
<!-- roo_windows_wifi&#45;&gt;roo_testing -->
<g id="edge68" class="edge">
<title>roo_windows_wifi&#45;&gt;roo_testing</title>
<path fill="none" stroke="red" d="M2371.6,-705.46C2397.22,-694.51 2420,-677.15 2420,-650 2420,-650 2420,-650 2420,-93 2420,-51.39 2374.2,-66.74 2334,-56 2248.46,-33.16 2145.82,-24.81 2082.76,-21.76"/>
<polygon fill="red" stroke="red" points="2082.76,-18.25 2072.61,-21.3 2082.44,-25.25 2082.76,-18.25"/>
<text text-anchor="middle" x="2453" y="-364" font-family="Times,serif" font-size="10.00" fill="red">1.1.7</text>
<text text-anchor="middle" x="2453" y="-353" font-family="Times,serif" font-size="10.00" fill="red">(latest: 1.2.0)</text>
</g>
<!-- roo_windows_wifi&#45;&gt;roo_wifi -->
<g id="edge69" class="edge">
<title>roo_windows_wifi&#45;&gt;roo_wifi</title>
<path fill="none" stroke="red" d="M2299.06,-704.99C2294.3,-668.69 2279.02,-585.76 2235,-534 2210.18,-504.82 2171.24,-484.97 2140.72,-472.89"/>
<polygon fill="red" stroke="red" points="2141.72,-469.53 2131.13,-469.24 2139.23,-476.07 2141.72,-469.53"/>
<text text-anchor="middle" x="2309" y="-604" font-family="Times,serif" font-size="10.00" fill="red">1.1.1</text>
<text text-anchor="middle" x="2309" y="-593" font-family="Times,serif" font-size="10.00" fill="red">(latest: 1.1.2)</text>
</g>
<!-- roo_windows_wifi&#45;&gt;roo_windows -->
<g id="edge70" class="edge">
<title>roo_windows_wifi&#45;&gt;roo_windows</title>
<path fill="none" stroke="black" d="M2230.49,-712.07C2139.64,-697.99 1982.98,-673.71 1894.93,-660.06"/>
<polygon fill="black" stroke="black" points="1895.23,-656.57 1884.81,-658.49 1894.15,-663.48 1895.23,-656.57"/>
</g>
</g>
</svg>
