<?xml version="1.0" encoding="UTF-8" standalone="no"?>
<!DOCTYPE svg PUBLIC "-//W3C//DTD SVG 1.1//EN"
 "http://www.w3.org/Graphics/SVG/1.1/DTD/svg11.dtd">
<!-- Generated by graphviz version 2.42.4 (0)
 -->
<!-- Title: dependencies Pages: 1 -->
<svg width="1101pt" height="793pt"
 viewBox="0.00 0.00 1100.50 793.00" xmlns="http://www.w3.org/2000/svg" xmlns:xlink="http://www.w3.org/1999/xlink">
<g id="graph0" class="graph" transform="scale(1 1) rotate(0) translate(4 789)">
<title>dependencies</title>
<polygon fill="white" stroke="transparent" points="-4,4 -4,-789 1096.5,-789 1096.5,4 -4,4"/>
<!-- roo_backport -->
<g id="node1" class="node">
<title>roo_backport</title>
<polygon fill="#b1dbab" stroke="black" points="554,-230 444,-230 444,-192 554,-192 554,-230"/>
<text text-anchor="middle" x="499" y="-214.8" font-family="Times,serif" font-size="14.00">roo_backport</text>
<text text-anchor="middle" x="499" y="-199.8" font-family="Times,serif" font-size="14.00">1.2.2</text>
</g>
<!-- roo_blink -->
<g id="node2" class="node">
<title>roo_blink</title>
<polygon fill="plum" stroke="red" points="977,-593 895,-593 895,-555 977,-555 977,-593"/>
<text text-anchor="middle" x="936" y="-577.8" font-family="Times,serif" font-size="14.00">roo_blink</text>
<text text-anchor="middle" x="936" y="-562.8" font-family="Times,serif" font-size="14.00">1.0.5</text>
</g>
<!-- roo_logging -->
<g id="node13" class="node">
<title>roo_logging</title>
<polygon fill="#b1dbab" stroke="red" points="806,-326 706,-326 706,-288 806,-288 806,-326"/>
<text text-anchor="middle" x="756" y="-310.8" font-family="Times,serif" font-size="14.00">roo_logging</text>
<text text-anchor="middle" x="756" y="-295.8" font-family="Times,serif" font-size="14.00">1.5.5</text>
</g>
<!-- roo_blink&#45;&gt;roo_logging -->
<g id="edge1" class="edge">
<title>roo_blink&#45;&gt;roo_logging</title>
<path fill="none" stroke="red" d="M937.43,-554.83C939.53,-515.12 938.91,-419.66 891,-363 872.01,-340.54 842.43,-327.14 815.8,-319.2"/>
<polygon fill="red" stroke="red" points="816.72,-315.82 806.15,-316.51 814.84,-322.56 816.72,-315.82"/>
<text text-anchor="middle" x="960" y="-433" font-family="Times,serif" font-size="10.00" fill="red">1.5.3</text>
<text text-anchor="middle" x="960" y="-422" font-family="Times,serif" font-size="10.00" fill="red">(latest: 1.5.5)</text>
</g>
<!-- roo_scheduler -->
<g id="node19" class="node">
<title>roo_scheduler</title>
<polygon fill="#b1dbab" stroke="red" points="422,-497 306,-497 306,-459 422,-459 422,-497"/>
<text text-anchor="middle" x="364" y="-481.8" font-family="Times,serif" font-size="14.00">roo_scheduler</text>
<text text-anchor="middle" x="364" y="-466.8" font-family="Times,serif" font-size="14.00">2.1.8</text>
</g>
<!-- roo_blink&#45;&gt;roo_scheduler -->
<g id="edge2" class="edge">
<title>roo_blink&#45;&gt;roo_scheduler</title>
<path fill="none" stroke="red" d="M894.73,-557.4C891.8,-556.52 888.87,-555.71 886,-555 854.85,-547.3 631.85,-518.93 600,-515 525.47,-505.8 505.84,-510.65 432,-497 431.9,-496.98 431.8,-496.96 431.7,-496.94"/>
<polygon fill="red" stroke="red" points="432.6,-493.56 422.11,-495 431.21,-500.42 432.6,-493.56"/>
<text text-anchor="middle" x="799" y="-529" font-family="Times,serif" font-size="10.00" fill="red">2.1.7</text>
<text text-anchor="middle" x="799" y="-518" font-family="Times,serif" font-size="10.00" fill="red">(latest: 2.1.8)</text>
</g>
<!-- roo_collections -->
<g id="node3" class="node">
<title>roo_collections</title>
<polygon fill="#b1dbab" stroke="black" points="470,-401 348,-401 348,-363 470,-363 470,-401"/>
<text text-anchor="middle" x="409" y="-385.8" font-family="Times,serif" font-size="14.00">roo_collections</text>
<text text-anchor="middle" x="409" y="-370.8" font-family="Times,serif" font-size="14.00">1.4.3</text>
</g>
<!-- roo_collections&#45;&gt;roo_backport -->
<g id="edge3" class="edge">
<title>roo_collections&#45;&gt;roo_backport</title>
<path fill="none" stroke="black" d="M418.63,-362.91C434.42,-333.26 465.92,-274.12 484.44,-239.33"/>
<polygon fill="black" stroke="black" points="487.69,-240.68 489.3,-230.21 481.51,-237.39 487.69,-240.68"/>
</g>
<!-- roo_comms -->
<g id="node4" class="node">
<title>roo_comms</title>
<polygon fill="plum" stroke="red" points="895.5,-785 798.5,-785 798.5,-747 895.5,-747 895.5,-785"/>
<text text-anchor="middle" x="847" y="-769.8" font-family="Times,serif" font-size="14.00">roo_comms</text>
<text text-anchor="middle" x="847" y="-754.8" font-family="Times,serif" font-size="14.00">1.1.3</text>
</g>
<!-- roo_comms&#45;&gt;roo_blink -->
<g id="edge4" class="edge">
<title>roo_comms&#45;&gt;roo_blink</title>
<path fill="none" stroke="red" d="M855.53,-746.78C871.22,-713.3 904.7,-641.82 923.15,-602.44"/>
<polygon fill="red" stroke="red" points="926.42,-603.7 927.49,-593.16 920.08,-600.73 926.42,-603.7"/>
<text text-anchor="middle" x="933" y="-673" font-family="Times,serif" font-size="10.00" fill="red">1.0.4</text>
<text text-anchor="middle" x="933" y="-662" font-family="Times,serif" font-size="10.00" fill="red">(latest: 1.0.5)</text>
</g>
<!-- roo_control -->
<g id="node5" class="node">
<title>roo_control</title>
<polygon fill="plum" stroke="red" points="1092.5,-593 995.5,-593 995.5,-555 1092.5,-555 1092.5,-593"/>
<text text-anchor="middle" x="1044" y="-577.8" font-family="Times,serif" font-size="14.00">roo_control</text>
<text text-anchor="middle" x="1044" y="-562.8" font-family="Times,serif" font-size="14.00">1.2.4</text>
</g>
<!-- roo_comms&#45;&gt;roo_control -->
<g id="edge5" class="edge">
<title>roo_comms&#45;&gt;roo_control</title>
<path fill="none" stroke="red" d="M885.52,-746.88C911.43,-733.41 945.23,-713.22 970,-689 996.06,-663.51 1017.62,-627.27 1030.62,-602.53"/>
<polygon fill="red" stroke="red" points="1033.88,-603.84 1035.33,-593.35 1027.65,-600.65 1033.88,-603.84"/>
<text text-anchor="middle" x="1033" y="-673" font-family="Times,serif" font-size="10.00" fill="red">1.2.3</text>
<text text-anchor="middle" x="1033" y="-662" font-family="Times,serif" font-size="10.00" fill="red">(latest: 1.2.4)</text>
</g>
<!-- roo_io -->
<g id="node11" class="node">
<title>roo_io</title>
<polygon fill="#b1dbab" stroke="red" points="691.5,-401 632.5,-401 632.5,-363 691.5,-363 691.5,-401"/>
<text text-anchor="middle" x="662" y="-385.8" font-family="Times,serif" font-size="14.00">roo_io</text>
<text text-anchor="middle" x="662" y="-370.8" font-family="Times,serif" font-size="14.00">2.1.5</text>
</g>
<!-- roo_comms&#45;&gt;roo_io -->
<g id="edge6" class="edge">
<title>roo_comms&#45;&gt;roo_io</title>
<path fill="none" stroke="red" d="M822.85,-746.85C787.48,-718.56 723.05,-660.19 698,-593 677.14,-537.07 722.77,-516.57 707,-459 702.15,-441.29 691.99,-423.51 682.55,-409.61"/>
<polygon fill="red" stroke="red" points="685.14,-407.22 676.51,-401.08 679.43,-411.26 685.14,-407.22"/>
<text text-anchor="middle" x="731" y="-577" font-family="Times,serif" font-size="10.00" fill="red">2.1.1</text>
<text text-anchor="middle" x="731" y="-566" font-family="Times,serif" font-size="10.00" fill="red">(latest: 2.1.5)</text>
</g>
<!-- roo_transceivers -->
<g id="node24" class="node">
<title>roo_transceivers</title>
<polygon fill="plum" stroke="red" points="557.5,-689 422.5,-689 422.5,-651 557.5,-651 557.5,-689"/>
<text text-anchor="middle" x="490" y="-673.8" font-family="Times,serif" font-size="14.00">roo_transceivers</text>
<text text-anchor="middle" x="490" y="-658.8" font-family="Times,serif" font-size="14.00">1.1.4</text>
</g>
<!-- roo_comms&#45;&gt;roo_transceivers -->
<g id="edge7" class="edge">
<title>roo_comms&#45;&gt;roo_transceivers</title>
<path fill="none" stroke="black" d="M798.14,-756.09C763.56,-749.46 716.18,-739.74 675,-729 633.77,-718.25 588.07,-703.95 552.41,-692.24"/>
<polygon fill="black" stroke="black" points="553.23,-688.82 542.63,-689.01 551.03,-695.47 553.23,-688.82"/>
</g>
<!-- roo_quantity -->
<g id="node18" class="node">
<title>roo_quantity</title>
<polygon fill="plum" stroke="red" points="899.5,-497 792.5,-497 792.5,-459 899.5,-459 899.5,-497"/>
<text text-anchor="middle" x="846" y="-481.8" font-family="Times,serif" font-size="14.00">roo_quantity</text>
<text text-anchor="middle" x="846" y="-466.8" font-family="Times,serif" font-size="14.00">1.1.7</text>
</g>
<!-- roo_control&#45;&gt;roo_quantity -->
<g id="edge8" class="edge">
<title>roo_control&#45;&gt;roo_quantity</title>
<path fill="none" stroke="black" d="M1008.94,-554.9C986.04,-543.22 955.42,-527.86 928,-515 918.19,-510.4 907.65,-505.64 897.5,-501.14"/>
<polygon fill="black" stroke="black" points="898.88,-497.92 888.32,-497.1 896.06,-504.33 898.88,-497.92"/>
</g>
<!-- roo_control&#45;&gt;roo_scheduler -->
<g id="edge9" class="edge">
<title>roo_control&#45;&gt;roo_scheduler</title>
<path fill="none" stroke="red" d="M995.42,-557.3C992.25,-556.47 989.09,-555.69 986,-555 929.94,-542.45 909.41,-562.64 858,-537 845.63,-530.83 848.65,-520.57 836,-515 794.88,-496.88 476.42,-503.79 432,-497 431.9,-496.98 431.8,-496.97 431.69,-496.95"/>
<polygon fill="red" stroke="red" points="432.52,-493.55 422.07,-495.25 431.3,-500.44 432.52,-493.55"/>
<text text-anchor="middle" x="891" y="-529" font-family="Times,serif" font-size="10.00" fill="red">2.1.7</text>
<text text-anchor="middle" x="891" y="-518" font-family="Times,serif" font-size="10.00" fill="red">(latest: 2.1.8)</text>
</g>
<!-- roo_dashboard -->
<g id="node6" class="node">
<title>roo_dashboard</title>
<polygon fill="plum" stroke="red" points="301,-785 179,-785 179,-747 301,-747 301,-785"/>
<text text-anchor="middle" x="240" y="-769.8" font-family="Times,serif" font-size="14.00">roo_dashboard</text>
<text text-anchor="middle" x="240" y="-754.8" font-family="Times,serif" font-size="14.00">1.0.1</text>
</g>
<!-- roo_windows -->
<g id="node27" class="node">
<title>roo_windows</title>
<polygon fill="plum" stroke="red" points="393.5,-689 284.5,-689 284.5,-651 393.5,-651 393.5,-689"/>
<text text-anchor="middle" x="339" y="-673.8" font-family="Times,serif" font-size="14.00">roo_windows</text>
<text text-anchor="middle" x="339" y="-658.8" font-family="Times,serif" font-size="14.00">1.4.2</text>
</g>
<!-- roo_dashboard&#45;&gt;roo_windows -->
<g id="edge10" class="edge">
<title>roo_dashboard&#45;&gt;roo_windows</title>
<path fill="none" stroke="red" d="M255.27,-746.76C265.49,-734.96 279.49,-719.51 293,-707 297.09,-703.21 301.55,-699.39 306.02,-695.72"/>
<polygon fill="red" stroke="red" points="308.4,-698.3 314.03,-689.33 304.03,-692.83 308.4,-698.3"/>
<text text-anchor="middle" x="326" y="-721" font-family="Times,serif" font-size="10.00" fill="red">1.4.1</text>
<text text-anchor="middle" x="326" y="-710" font-family="Times,serif" font-size="10.00" fill="red">(latest: 1.4.2)</text>
</g>
<!-- roo_display -->
<g id="node7" class="node">
<title>roo_display</title>
<polygon fill="#b1dbab" stroke="black" points="288,-497 190,-497 190,-459 288,-459 288,-497"/>
<text text-anchor="middle" x="239" y="-481.8" font-family="Times,serif" font-size="14.00">roo_display</text>
<text text-anchor="middle" x="239" y="-466.8" font-family="Times,serif" font-size="14.00">3.0.1</text>
</g>
<!-- roo_display&#45;&gt;roo_collections -->
<g id="edge11" class="edge">
<title>roo_display&#45;&gt;roo_collections</title>
<path fill="none" stroke="black" d="M271.78,-458.88C299.06,-443.79 338.06,-422.23 367.51,-405.94"/>
<polygon fill="black" stroke="black" points="369.27,-408.97 376.32,-401.07 365.88,-402.84 369.27,-408.97"/>
</g>
<!-- roo_display&#45;&gt;roo_io -->
<g id="edge12" class="edge">
<title>roo_display&#45;&gt;roo_io</title>
<path fill="none" stroke="black" d="M288.18,-460.95C291.15,-460.22 294.1,-459.57 297,-459 389.81,-440.88 419.33,-471.01 509,-441 526.42,-435.17 527.29,-426.64 544,-419 569.11,-407.52 598.86,-398.48 622.2,-392.32"/>
<polygon fill="black" stroke="black" points="623.29,-395.66 632.11,-389.78 621.55,-388.87 623.29,-395.66"/>
</g>
<!-- roo_flags -->
<g id="node8" class="node">
<title>roo_flags</title>
<polygon fill="#b1dbab" stroke="black" points="795,-230 715,-230 715,-192 795,-192 795,-230"/>
<text text-anchor="middle" x="755" y="-214.8" font-family="Times,serif" font-size="14.00">roo_flags</text>
<text text-anchor="middle" x="755" y="-199.8" font-family="Times,serif" font-size="14.00">1.2.3</text>
</g>
<!-- roo_fonts_basic -->
<g id="node9" class="node">
<title>roo_fonts_basic</title>
<polygon fill="#b1dbab" stroke="black" points="126,-593 0,-593 0,-555 126,-555 126,-593"/>
<text text-anchor="middle" x="63" y="-577.8" font-family="Times,serif" font-size="14.00">roo_fonts_basic</text>
<text text-anchor="middle" x="63" y="-562.8" font-family="Times,serif" font-size="14.00">1.0.1</text>
</g>
<!-- roo_fonts_basic&#45;&gt;roo_display -->
<g id="edge13" class="edge">
<title>roo_fonts_basic&#45;&gt;roo_display</title>
<path fill="none" stroke="black" d="M96.93,-554.88C125.18,-539.79 165.55,-518.23 196.05,-501.94"/>
<polygon fill="black" stroke="black" points="198,-504.87 205.17,-497.07 194.7,-498.69 198,-504.87"/>
</g>
<!-- roo_icons -->
<g id="node10" class="node">
<title>roo_icons</title>
<polygon fill="plum" stroke="red" points="333.5,-593 250.5,-593 250.5,-555 333.5,-555 333.5,-593"/>
<text text-anchor="middle" x="292" y="-577.8" font-family="Times,serif" font-size="14.00">roo_icons</text>
<text text-anchor="middle" x="292" y="-562.8" font-family="Times,serif" font-size="14.00">1.2.1</text>
</g>
<!-- roo_icons&#45;&gt;roo_display -->
<g id="edge14" class="edge">
<title>roo_icons&#45;&gt;roo_display</title>
<path fill="none" stroke="red" d="M281.78,-554.88C273.94,-540.96 262.98,-521.53 254.12,-505.82"/>
<polygon fill="red" stroke="red" points="257.15,-504.06 249.19,-497.07 251.05,-507.5 257.15,-504.06"/>
<text text-anchor="middle" x="304" y="-529" font-family="Times,serif" font-size="10.00" fill="red">2.3.1</text>
<text text-anchor="middle" x="304" y="-518" font-family="Times,serif" font-size="10.00" fill="red">(latest: 3.0.1)</text>
</g>
<!-- roo_io&#45;&gt;roo_logging -->
<g id="edge15" class="edge">
<title>roo_io&#45;&gt;roo_logging</title>
<path fill="none" stroke="black" d="M685.24,-362.96C697.1,-353.74 711.7,-342.4 724.56,-332.42"/>
<polygon fill="black" stroke="black" points="726.95,-334.99 732.71,-326.09 722.66,-329.46 726.95,-334.99"/>
</g>
<!-- roo_locale -->
<g id="node12" class="node">
<title>roo_locale</title>
<polygon fill="plum" stroke="black" points="232,-593 144,-593 144,-555 232,-555 232,-593"/>
<text text-anchor="middle" x="188" y="-577.8" font-family="Times,serif" font-size="14.00">roo_locale</text>
<text text-anchor="middle" x="188" y="-562.8" font-family="Times,serif" font-size="14.00">1.1.1</text>
</g>
<!-- roo_logging&#45;&gt;roo_backport -->
<g id="edge16" class="edge">
<title>roo_logging&#45;&gt;roo_backport</title>
<path fill="none" stroke="black" d="M736.45,-287.83C719.01,-271.79 695.41,-250.55 690,-248 644.8,-226.67 628.07,-239.49 579,-230 574.27,-229.09 569.39,-228.1 564.49,-227.07"/>
<polygon fill="black" stroke="black" points="564.94,-223.59 554.43,-224.93 563.48,-230.44 564.94,-223.59"/>
</g>
<!-- roo_logging&#45;&gt;roo_flags -->
<g id="edge17" class="edge">
<title>roo_logging&#45;&gt;roo_flags</title>
<path fill="none" stroke="black" d="M755.81,-287.88C755.66,-274.35 755.46,-255.62 755.3,-240.15"/>
<polygon fill="black" stroke="black" points="758.8,-240.03 755.19,-230.07 751.8,-240.11 758.8,-240.03"/>
</g>
<!-- roo_threads -->
<g id="node21" class="node">
<title>roo_threads</title>
<polygon fill="#b1dbab" stroke="red" points="688.5,-230 587.5,-230 587.5,-192 688.5,-192 688.5,-230"/>
<text text-anchor="middle" x="638" y="-214.8" font-family="Times,serif" font-size="14.00">roo_threads</text>
<text text-anchor="middle" x="638" y="-199.8" font-family="Times,serif" font-size="14.00">1.2.3</text>
</g>
<!-- roo_logging&#45;&gt;roo_threads -->
<g id="edge18" class="edge">
<title>roo_logging&#45;&gt;roo_threads</title>
<path fill="none" stroke="black" d="M746.87,-287.86C739.84,-275.34 729.1,-259.03 716,-248 710.27,-243.18 703.79,-238.87 697.08,-235.04"/>
<polygon fill="black" stroke="black" points="698.3,-231.73 687.82,-230.14 695.02,-237.91 698.3,-231.73"/>
</g>
<!-- roo_monitoring -->
<g id="node14" class="node">
<title>roo_monitoring</title>
<polygon fill="plum" stroke="red" points="565.5,-497 440.5,-497 440.5,-459 565.5,-459 565.5,-497"/>
<text text-anchor="middle" x="503" y="-481.8" font-family="Times,serif" font-size="14.00">roo_monitoring</text>
<text text-anchor="middle" x="503" y="-466.8" font-family="Times,serif" font-size="14.00">1.0.0</text>
</g>
<!-- roo_monitoring&#45;&gt;roo_collections -->
<g id="edge19" class="edge">
<title>roo_monitoring&#45;&gt;roo_collections</title>
<path fill="none" stroke="red" d="M484.88,-458.88C470.57,-444.57 450.44,-424.44 434.51,-408.51"/>
<polygon fill="red" stroke="red" points="436.61,-405.66 427.07,-401.07 431.66,-410.61 436.61,-405.66"/>
<text text-anchor="middle" x="497" y="-433" font-family="Times,serif" font-size="10.00" fill="red">1.4.1</text>
<text text-anchor="middle" x="497" y="-422" font-family="Times,serif" font-size="10.00" fill="red">(latest: 1.4.3)</text>
</g>
<!-- roo_monitoring&#45;&gt;roo_io -->
<g id="edge20" class="edge">
<title>roo_monitoring&#45;&gt;roo_io</title>
<path fill="none" stroke="red" d="M523.96,-458.78C538.7,-446.54 559.24,-430.59 579,-419 592.76,-410.93 608.66,-403.59 622.85,-397.68"/>
<polygon fill="red" stroke="red" points="624.4,-400.83 632.34,-393.83 621.76,-394.35 624.4,-400.83"/>
<text text-anchor="middle" x="612" y="-433" font-family="Times,serif" font-size="10.00" fill="red">2.1.4</text>
<text text-anchor="middle" x="612" y="-422" font-family="Times,serif" font-size="10.00" fill="red">(latest: 2.1.5)</text>
</g>
<!-- roo_onewire -->
<g id="node15" class="node">
<title>roo_onewire</title>
<polygon fill="plum" stroke="red" points="877,-593 773,-593 773,-555 877,-555 877,-593"/>
<text text-anchor="middle" x="825" y="-577.8" font-family="Times,serif" font-size="14.00">roo_onewire</text>
<text text-anchor="middle" x="825" y="-562.8" font-family="Times,serif" font-size="14.00">2.0.8</text>
</g>
<!-- roo_onewire&#45;&gt;roo_quantity -->
<g id="edge22" class="edge">
<title>roo_onewire&#45;&gt;roo_quantity</title>
<path fill="none" stroke="black" d="M829.05,-554.88C832.07,-541.35 836.26,-522.62 839.71,-507.15"/>
<polygon fill="black" stroke="black" points="843.2,-507.59 841.96,-497.07 836.37,-506.06 843.2,-507.59"/>
</g>
<!-- roo_onewire&#45;&gt;roo_scheduler -->
<g id="edge21" class="edge">
<title>roo_onewire&#45;&gt;roo_scheduler</title>
<path fill="none" stroke="red" d="M772.96,-557.85C768.27,-556.77 763.56,-555.8 759,-555 660.18,-537.73 628.29,-571.26 534,-537 518.12,-531.23 518.34,-522.08 503,-515 473.45,-501.35 463.51,-505.17 432,-497 431.9,-496.97 431.8,-496.95 431.7,-496.92"/>
<polygon fill="red" stroke="red" points="432.79,-493.59 422.23,-494.46 431.02,-500.36 432.79,-493.59"/>
<text text-anchor="middle" x="567" y="-529" font-family="Times,serif" font-size="10.00" fill="red">2.1.7</text>
<text text-anchor="middle" x="567" y="-518" font-family="Times,serif" font-size="10.00" fill="red">(latest: 2.1.8)</text>
</g>
<!-- roo_powersafefs -->
<g id="node16" class="node">
<title>roo_powersafefs</title>
<polygon fill="plum" stroke="red" points="687.5,-326 554.5,-326 554.5,-288 687.5,-288 687.5,-326"/>
<text text-anchor="middle" x="621" y="-310.8" font-family="Times,serif" font-size="14.00">roo_powersafefs</text>
<text text-anchor="middle" x="621" y="-295.8" font-family="Times,serif" font-size="14.00">1.0.0</text>
</g>
<!-- roo_powersafefs&#45;&gt;roo_threads -->
<g id="edge23" class="edge">
<title>roo_powersafefs&#45;&gt;roo_threads</title>
<path fill="none" stroke="red" d="M624.28,-287.88C626.72,-274.35 630.11,-255.62 632.91,-240.15"/>
<polygon fill="red" stroke="red" points="636.4,-240.53 634.73,-230.07 629.51,-239.29 636.4,-240.53"/>
<text text-anchor="middle" x="664" y="-262" font-family="Times,serif" font-size="10.00" fill="red">1.2.1</text>
<text text-anchor="middle" x="664" y="-251" font-family="Times,serif" font-size="10.00" fill="red">(latest: 1.2.3)</text>
</g>
<!-- roo_prefs -->
<g id="node17" class="node">
<title>roo_prefs</title>
<polygon fill="plum" stroke="red" points="593.5,-593 510.5,-593 510.5,-555 593.5,-555 593.5,-593"/>
<text text-anchor="middle" x="552" y="-577.8" font-family="Times,serif" font-size="14.00">roo_prefs</text>
<text text-anchor="middle" x="552" y="-562.8" font-family="Times,serif" font-size="14.00">1.2.8</text>
</g>
<!-- roo_prefs&#45;&gt;roo_logging -->
<g id="edge24" class="edge">
<title>roo_prefs&#45;&gt;roo_logging</title>
<path fill="none" stroke="red" d="M593.79,-566.07C651.13,-556.48 747.45,-539.98 750,-537 762.73,-522.14 759.43,-394.77 757.23,-336.68"/>
<polygon fill="red" stroke="red" points="760.71,-336.21 756.82,-326.36 753.72,-336.49 760.71,-336.21"/>
<text text-anchor="middle" x="792" y="-433" font-family="Times,serif" font-size="10.00" fill="red">1.5.3</text>
<text text-anchor="middle" x="792" y="-422" font-family="Times,serif" font-size="10.00" fill="red">(latest: 1.5.5)</text>
</g>
<!-- roo_prefs&#45;&gt;roo_scheduler -->
<g id="edge25" class="edge">
<title>roo_prefs&#45;&gt;roo_scheduler</title>
<path fill="none" stroke="red" d="M510.36,-563.92C487.84,-558.05 460.01,-549.2 437,-537 420.3,-528.15 403.65,-515.31 390.47,-503.95"/>
<polygon fill="red" stroke="red" points="392.56,-501.13 382.75,-497.13 387.92,-506.37 392.56,-501.13"/>
<text text-anchor="middle" x="470" y="-529" font-family="Times,serif" font-size="10.00" fill="red">2.1.7</text>
<text text-anchor="middle" x="470" y="-518" font-family="Times,serif" font-size="10.00" fill="red">(latest: 2.1.8)</text>
</g>
<!-- roo_quantity&#45;&gt;roo_logging -->
<g id="edge26" class="edge">
<title>roo_quantity&#45;&gt;roo_logging</title>
<path fill="none" stroke="red" d="M842.98,-458.96C840.63,-447.23 836.77,-431.8 831,-419 816.9,-387.74 794.17,-355.67 777.42,-334.09"/>
<polygon fill="red" stroke="red" points="780.04,-331.77 771.1,-326.08 774.55,-336.1 780.04,-331.77"/>
<text text-anchor="middle" x="854" y="-385" font-family="Times,serif" font-size="10.00" fill="red">1.5.3</text>
<text text-anchor="middle" x="854" y="-374" font-family="Times,serif" font-size="10.00" fill="red">(latest: 1.5.5)</text>
</g>
<!-- roo_scheduler&#45;&gt;roo_collections -->
<g id="edge27" class="edge">
<title>roo_scheduler&#45;&gt;roo_collections</title>
<path fill="none" stroke="black" d="M372.26,-458.91C377.54,-447.44 384.58,-432.3 391,-419 392.35,-416.2 393.78,-413.28 395.22,-410.37"/>
<polygon fill="black" stroke="black" points="398.42,-411.78 399.74,-401.27 392.16,-408.66 398.42,-411.78"/>
</g>
<!-- roo_scheduler&#45;&gt;roo_threads -->
<g id="edge28" class="edge">
<title>roo_scheduler&#45;&gt;roo_threads</title>
<path fill="none" stroke="black" d="M422.07,-460.76C451.43,-452.34 481.43,-443.34 484,-441 538.25,-391.6 502.62,-347.17 546,-288 560.87,-267.72 582.33,-249.58 600.78,-236.11"/>
<polygon fill="black" stroke="black" points="602.89,-238.91 609.01,-230.26 598.83,-233.2 602.89,-238.91"/>
</g>
<!-- roo_testing -->
<g id="node20" class="node">
<title>roo_testing</title>
<polygon fill="#b1dbab" stroke="black" points="808.5,-38 711.5,-38 711.5,0 808.5,0 808.5,-38"/>
<text text-anchor="middle" x="760" y="-22.8" font-family="Times,serif" font-size="14.00">roo_testing</text>
<text text-anchor="middle" x="760" y="-7.8" font-family="Times,serif" font-size="14.00">1.3.4</text>
</g>
<!-- roo_time -->
<g id="node22" class="node">
<title>roo_time</title>
<polygon fill="#b1dbab" stroke="red" points="799.5,-134 720.5,-134 720.5,-96 799.5,-96 799.5,-134"/>
<text text-anchor="middle" x="760" y="-118.8" font-family="Times,serif" font-size="14.00">roo_time</text>
<text text-anchor="middle" x="760" y="-103.8" font-family="Times,serif" font-size="14.00">1.4.3</text>
</g>
<!-- roo_threads&#45;&gt;roo_time -->
<g id="edge29" class="edge">
<title>roo_threads&#45;&gt;roo_time</title>
<path fill="none" stroke="black" d="M661.52,-191.88C680.59,-177.18 707.65,-156.34 728.57,-140.21"/>
<polygon fill="black" stroke="black" points="730.76,-142.94 736.55,-134.07 726.49,-137.4 730.76,-142.94"/>
</g>
<!-- roo_time&#45;&gt;roo_testing -->
<g id="edge30" class="edge">
<title>roo_time&#45;&gt;roo_testing</title>
<path fill="none" stroke="red" d="M760,-95.88C760,-82.35 760,-63.62 760,-48.15"/>
<polygon fill="red" stroke="red" points="763.5,-48.07 760,-38.07 756.5,-48.07 763.5,-48.07"/>
<text text-anchor="middle" x="793" y="-70" font-family="Times,serif" font-size="10.00" fill="red">1.3.2</text>
<text text-anchor="middle" x="793" y="-59" font-family="Times,serif" font-size="10.00" fill="red">(latest: 1.3.4)</text>
</g>
<!-- roo_time_ds3231 -->
<g id="node23" class="node">
<title>roo_time_ds3231</title>
<polygon fill="plum" stroke="red" points="951,-230 813,-230 813,-192 951,-192 951,-230"/>
<text text-anchor="middle" x="882" y="-214.8" font-family="Times,serif" font-size="14.00">roo_time_ds3231</text>
<text text-anchor="middle" x="882" y="-199.8" font-family="Times,serif" font-size="14.00">1.1.5</text>
</g>
<!-- roo_time_ds3231&#45;&gt;roo_time -->
<g id="edge31" class="edge">
<title>roo_time_ds3231&#45;&gt;roo_time</title>
<path fill="none" stroke="red" d="M858.48,-191.88C839.41,-177.18 812.35,-156.34 791.43,-140.21"/>
<polygon fill="red" stroke="red" points="793.51,-137.4 783.45,-134.07 789.24,-142.94 793.51,-137.4"/>
<text text-anchor="middle" x="864" y="-166" font-family="Times,serif" font-size="10.00" fill="red">1.4.1</text>
<text text-anchor="middle" x="864" y="-155" font-family="Times,serif" font-size="10.00" fill="red">(latest: 1.4.3)</text>
</g>
<!-- roo_transceivers&#45;&gt;roo_prefs -->
<g id="edge32" class="edge">
<title>roo_transceivers&#45;&gt;roo_prefs</title>
<path fill="none" stroke="red" d="M492.01,-650.77C494.04,-638.68 498.06,-622.91 506,-611 508.67,-606.99 511.94,-603.23 515.48,-599.77"/>
<polygon fill="red" stroke="red" points="517.87,-602.32 523.05,-593.08 513.24,-597.08 517.87,-602.32"/>
<text text-anchor="middle" x="539" y="-625" font-family="Times,serif" font-size="10.00" fill="red">1.2.7</text>
<text text-anchor="middle" x="539" y="-614" font-family="Times,serif" font-size="10.00" fill="red">(latest: 1.2.8)</text>
</g>
<!-- roo_transport -->
<g id="node25" class="node">
<title>roo_transport</title>
<polygon fill="#b1dbab" stroke="black" points="698,-497 584,-497 584,-459 698,-459 698,-497"/>
<text text-anchor="middle" x="641" y="-481.8" font-family="Times,serif" font-size="14.00">roo_transport</text>
<text text-anchor="middle" x="641" y="-466.8" font-family="Times,serif" font-size="14.00">1.1.2</text>
</g>
<!-- roo_transport&#45;&gt;roo_collections -->
<g id="edge33" class="edge">
<title>roo_transport&#45;&gt;roo_collections</title>
<path fill="none" stroke="black" d="M640.21,-458.87C638.64,-445.86 634.35,-428.92 623,-419 602.05,-400.69 534.01,-391.52 480.21,-387.04"/>
<polygon fill="black" stroke="black" points="480.25,-383.54 470.01,-386.24 479.7,-390.51 480.25,-383.54"/>
</g>
<!-- roo_transport&#45;&gt;roo_io -->
<g id="edge34" class="edge">
<title>roo_transport&#45;&gt;roo_io</title>
<path fill="none" stroke="black" d="M645.05,-458.88C648.07,-445.35 652.26,-426.62 655.71,-411.15"/>
<polygon fill="black" stroke="black" points="659.2,-411.59 657.96,-401.07 652.37,-410.06 659.2,-411.59"/>
</g>
<!-- roo_wifi -->
<g id="node26" class="node">
<title>roo_wifi</title>
<polygon fill="plum" stroke="red" points="648,-689 576,-689 576,-651 648,-651 648,-689"/>
<text text-anchor="middle" x="612" y="-673.8" font-family="Times,serif" font-size="14.00">roo_wifi</text>
<text text-anchor="middle" x="612" y="-658.8" font-family="Times,serif" font-size="14.00">1.1.3</text>
</g>
<!-- roo_wifi&#45;&gt;roo_prefs -->
<g id="edge35" class="edge">
<title>roo_wifi&#45;&gt;roo_prefs</title>
<path fill="none" stroke="red" d="M600.43,-650.88C591.55,-636.96 579.15,-617.53 569.12,-601.82"/>
<polygon fill="red" stroke="red" points="571.86,-599.61 563.53,-593.07 565.96,-603.38 571.86,-599.61"/>
<text text-anchor="middle" x="620" y="-625" font-family="Times,serif" font-size="10.00" fill="red">1.2.7</text>
<text text-anchor="middle" x="620" y="-614" font-family="Times,serif" font-size="10.00" fill="red">(latest: 1.2.8)</text>
</g>
<!-- roo_windows&#45;&gt;roo_icons -->
<g id="edge37" class="edge">
<title>roo_windows&#45;&gt;roo_icons</title>
<path fill="none" stroke="black" d="M329.94,-650.88C323.05,-637.09 313.45,-617.9 305.63,-602.26"/>
<polygon fill="black" stroke="black" points="308.64,-600.45 301.03,-593.07 302.38,-603.58 308.64,-600.45"/>
</g>
<!-- roo_windows&#45;&gt;roo_locale -->
<g id="edge36" class="edge">
<title>roo_windows&#45;&gt;roo_locale</title>
<path fill="none" stroke="black" d="M309.89,-650.88C285.86,-635.92 251.61,-614.6 225.53,-598.36"/>
<polygon fill="black" stroke="black" points="227.36,-595.38 217.02,-593.07 223.66,-601.32 227.36,-595.38"/>
</g>
<!-- roo_windows&#45;&gt;roo_scheduler -->
<g id="edge38" class="edge">
<title>roo_windows&#45;&gt;roo_scheduler</title>
<path fill="none" stroke="red" d="M341.4,-650.78C345.77,-617.52 355.09,-546.73 360.29,-507.2"/>
<polygon fill="red" stroke="red" points="363.78,-507.53 361.61,-497.16 356.84,-506.62 363.78,-507.53"/>
<text text-anchor="middle" x="387" y="-577" font-family="Times,serif" font-size="10.00" fill="red">2.1.6</text>
<text text-anchor="middle" x="387" y="-566" font-family="Times,serif" font-size="10.00" fill="red">(latest: 2.1.8)</text>
</g>
<!-- roo_windows_transceivers -->
<g id="node28" class="node">
<title>roo_windows_transceivers</title>
<polygon fill="plum" stroke="red" points="523,-785 319,-785 319,-747 523,-747 523,-785"/>
<text text-anchor="middle" x="421" y="-769.8" font-family="Times,serif" font-size="14.00">roo_windows_transceivers</text>
<text text-anchor="middle" x="421" y="-754.8" font-family="Times,serif" font-size="14.00">1.0.0</text>
</g>
<!-- roo_windows_transceivers&#45;&gt;roo_transceivers -->
<g id="edge39" class="edge">
<title>roo_windows_transceivers&#45;&gt;roo_transceivers</title>
<path fill="none" stroke="red" d="M434.3,-746.88C444.61,-732.83 459.05,-713.17 470.63,-697.38"/>
<polygon fill="red" stroke="red" points="473.64,-699.2 476.74,-689.07 468,-695.06 473.64,-699.2"/>
<text text-anchor="middle" x="494" y="-721" font-family="Times,serif" font-size="10.00" fill="red">1.1.3</text>
<text text-anchor="middle" x="494" y="-710" font-family="Times,serif" font-size="10.00" fill="red">(latest: 1.1.4)</text>
</g>
<!-- roo_windows_transceivers&#45;&gt;roo_windows -->
<g id="edge40" class="edge">
<title>roo_windows_transceivers&#45;&gt;roo_windows</title>
<path fill="none" stroke="red" d="M397.78,-746.95C391.38,-741.5 384.65,-735.28 379,-729 370.39,-719.44 362.1,-707.94 355.33,-697.71"/>
<polygon fill="red" stroke="red" points="358.15,-695.64 349.79,-689.14 352.27,-699.44 358.15,-695.64"/>
<text text-anchor="middle" x="412" y="-721" font-family="Times,serif" font-size="10.00" fill="red">1.4.1</text>
<text text-anchor="middle" x="412" y="-710" font-family="Times,serif" font-size="10.00" fill="red">(latest: 1.4.2)</text>
</g>
<!-- roo_windows_wifi -->
<g id="node29" class="node">
<title>roo_windows_wifi</title>
<polygon fill="plum" stroke="red" points="682.5,-785 541.5,-785 541.5,-747 682.5,-747 682.5,-785"/>
<text text-anchor="middle" x="612" y="-769.8" font-family="Times,serif" font-size="14.00">roo_windows_wifi</text>
<text text-anchor="middle" x="612" y="-754.8" font-family="Times,serif" font-size="14.00">1.1.3</text>
</g>
<!-- roo_windows_wifi&#45;&gt;roo_wifi -->
<g id="edge41" class="edge">
<title>roo_windows_wifi&#45;&gt;roo_wifi</title>
<path fill="none" stroke="black" d="M612,-746.88C612,-733.35 612,-714.62 612,-699.15"/>
<polygon fill="black" stroke="black" points="615.5,-699.07 612,-689.07 608.5,-699.07 615.5,-699.07"/>
</g>
<!-- roo_windows_wifi&#45;&gt;roo_windows -->
<g id="edge42" class="edge">
<title>roo_windows_wifi&#45;&gt;roo_windows</title>
<path fill="none" stroke="black" d="M592.3,-746.81C576.81,-733.58 554.06,-716.4 531,-707 482.28,-687.14 465.62,-699.15 414,-689 410.61,-688.33 407.15,-687.62 403.65,-686.87"/>
<polygon fill="black" stroke="black" points="404.29,-683.43 393.77,-684.7 402.79,-690.27 404.29,-683.43"/>
</g>
</g>
</svg>
