<?xml version="1.0" encoding="UTF-8" standalone="no"?>
<!DOCTYPE svg PUBLIC "-//W3C//DTD SVG 1.1//EN"
 "http://www.w3.org/Graphics/SVG/1.1/DTD/svg11.dtd">
<!-- Generated by graphviz version 2.42.4 (0)
 -->
<!-- Title: dependencies Pages: 1 -->
<svg width="1091pt" height="793pt"
 viewBox="0.00 0.00 1090.50 793.00" xmlns="http://www.w3.org/2000/svg" xmlns:xlink="http://www.w3.org/1999/xlink">
<g id="graph0" class="graph" transform="scale(1 1) rotate(0) translate(4 789)">
<title>dependencies</title>
<polygon fill="white" stroke="transparent" points="-4,4 -4,-789 1086.5,-789 1086.5,4 -4,4"/>
<!-- roo_backport -->
<g id="node1" class="node">
<title>roo_backport</title>
<polygon fill="#b1dbab" stroke="black" points="535,-230 425,-230 425,-192 535,-192 535,-230"/>
<text text-anchor="middle" x="480" y="-214.8" font-family="Times,serif" font-size="14.00">roo_backport</text>
<text text-anchor="middle" x="480" y="-199.8" font-family="Times,serif" font-size="14.00">1.2.2</text>
</g>
<!-- roo_blink -->
<g id="node2" class="node">
<title>roo_blink</title>
<polygon fill="plum" stroke="red" points="967,-593 885,-593 885,-555 967,-555 967,-593"/>
<text text-anchor="middle" x="926" y="-577.8" font-family="Times,serif" font-size="14.00">roo_blink</text>
<text text-anchor="middle" x="926" y="-562.8" font-family="Times,serif" font-size="14.00">1.0.5</text>
</g>
<!-- roo_logging -->
<g id="node13" class="node">
<title>roo_logging</title>
<polygon fill="#b1dbab" stroke="red" points="787,-326 687,-326 687,-288 787,-288 787,-326"/>
<text text-anchor="middle" x="737" y="-310.8" font-family="Times,serif" font-size="14.00">roo_logging</text>
<text text-anchor="middle" x="737" y="-295.8" font-family="Times,serif" font-size="14.00">1.5.5</text>
</g>
<!-- roo_blink&#45;&gt;roo_logging -->
<g id="edge1" class="edge">
<title>roo_blink&#45;&gt;roo_logging</title>
<path fill="none" stroke="red" d="M926.83,-554.62C927.15,-531.21 925.18,-490.07 910,-459 881.96,-401.6 821.24,-356.9 779.74,-331.48"/>
<polygon fill="red" stroke="red" points="781.31,-328.35 770.93,-326.2 777.71,-334.35 781.31,-328.35"/>
<text text-anchor="middle" x="932" y="-433" font-family="Times,serif" font-size="10.00" fill="red">1.5.3</text>
<text text-anchor="middle" x="932" y="-422" font-family="Times,serif" font-size="10.00" fill="red">(latest: 1.5.5)</text>
</g>
<!-- roo_scheduler -->
<g id="node19" class="node">
<title>roo_scheduler</title>
<polygon fill="#b1dbab" stroke="black" points="423,-497 307,-497 307,-459 423,-459 423,-497"/>
<text text-anchor="middle" x="365" y="-481.8" font-family="Times,serif" font-size="14.00">roo_scheduler</text>
<text text-anchor="middle" x="365" y="-466.8" font-family="Times,serif" font-size="14.00">2.1.9</text>
</g>
<!-- roo_blink&#45;&gt;roo_scheduler -->
<g id="edge2" class="edge">
<title>roo_blink&#45;&gt;roo_scheduler</title>
<path fill="none" stroke="red" d="M884.74,-557.37C881.8,-556.5 878.87,-555.7 876,-555 827.76,-543.3 481.71,-506.59 433,-497 432.9,-496.98 432.8,-496.96 432.7,-496.94"/>
<polygon fill="red" stroke="red" points="433.63,-493.56 423.12,-494.91 432.18,-500.41 433.63,-493.56"/>
<text text-anchor="middle" x="779" y="-529" font-family="Times,serif" font-size="10.00" fill="red">2.1.7</text>
<text text-anchor="middle" x="779" y="-518" font-family="Times,serif" font-size="10.00" fill="red">(latest: 2.1.9)</text>
</g>
<!-- roo_collections -->
<g id="node3" class="node">
<title>roo_collections</title>
<polygon fill="#b1dbab" stroke="black" points="463,-401 341,-401 341,-363 463,-363 463,-401"/>
<text text-anchor="middle" x="402" y="-385.8" font-family="Times,serif" font-size="14.00">roo_collections</text>
<text text-anchor="middle" x="402" y="-370.8" font-family="Times,serif" font-size="14.00">1.4.3</text>
</g>
<!-- roo_collections&#45;&gt;roo_backport -->
<g id="edge3" class="edge">
<title>roo_collections&#45;&gt;roo_backport</title>
<path fill="none" stroke="black" d="M410.35,-362.91C424.03,-333.26 451.33,-274.12 467.38,-239.33"/>
<polygon fill="black" stroke="black" points="470.58,-240.76 471.59,-230.21 464.23,-237.82 470.58,-240.76"/>
</g>
<!-- roo_comms -->
<g id="node4" class="node">
<title>roo_comms</title>
<polygon fill="plum" stroke="red" points="777.5,-785 680.5,-785 680.5,-747 777.5,-747 777.5,-785"/>
<text text-anchor="middle" x="729" y="-769.8" font-family="Times,serif" font-size="14.00">roo_comms</text>
<text text-anchor="middle" x="729" y="-754.8" font-family="Times,serif" font-size="14.00">1.1.3</text>
</g>
<!-- roo_comms&#45;&gt;roo_blink -->
<g id="edge4" class="edge">
<title>roo_comms&#45;&gt;roo_blink</title>
<path fill="none" stroke="red" d="M747.89,-746.78C783.19,-712.74 859.24,-639.39 899.6,-600.47"/>
<polygon fill="red" stroke="red" points="902.4,-602.62 907.17,-593.16 897.54,-597.59 902.4,-602.62"/>
<text text-anchor="middle" x="880" y="-673" font-family="Times,serif" font-size="10.00" fill="red">1.0.4</text>
<text text-anchor="middle" x="880" y="-662" font-family="Times,serif" font-size="10.00" fill="red">(latest: 1.0.5)</text>
</g>
<!-- roo_control -->
<g id="node5" class="node">
<title>roo_control</title>
<polygon fill="plum" stroke="red" points="1082.5,-593 985.5,-593 985.5,-555 1082.5,-555 1082.5,-593"/>
<text text-anchor="middle" x="1034" y="-577.8" font-family="Times,serif" font-size="14.00">roo_control</text>
<text text-anchor="middle" x="1034" y="-562.8" font-family="Times,serif" font-size="14.00">1.2.4</text>
</g>
<!-- roo_comms&#45;&gt;roo_control -->
<g id="edge5" class="edge">
<title>roo_comms&#45;&gt;roo_control</title>
<path fill="none" stroke="red" d="M777.66,-750.72C816.67,-737.98 871.85,-717.02 915,-689 953.11,-664.26 989.73,-626.34 1012.05,-601.12"/>
<polygon fill="red" stroke="red" points="1014.84,-603.24 1018.77,-593.41 1009.56,-598.64 1014.84,-603.24"/>
<text text-anchor="middle" x="995" y="-673" font-family="Times,serif" font-size="10.00" fill="red">1.2.3</text>
<text text-anchor="middle" x="995" y="-662" font-family="Times,serif" font-size="10.00" fill="red">(latest: 1.2.4)</text>
</g>
<!-- roo_io -->
<g id="node11" class="node">
<title>roo_io</title>
<polygon fill="#b1dbab" stroke="red" points="684.5,-401 625.5,-401 625.5,-363 684.5,-363 684.5,-401"/>
<text text-anchor="middle" x="655" y="-385.8" font-family="Times,serif" font-size="14.00">roo_io</text>
<text text-anchor="middle" x="655" y="-370.8" font-family="Times,serif" font-size="14.00">2.1.5</text>
</g>
<!-- roo_comms&#45;&gt;roo_io -->
<g id="edge6" class="edge">
<title>roo_comms&#45;&gt;roo_io</title>
<path fill="none" stroke="red" d="M723.21,-746.92C713.59,-715.86 694.72,-650.16 688,-593 686.03,-576.23 685.21,-571.66 688,-555 695.2,-512.02 721.07,-500.58 708,-459 702.25,-440.7 690.36,-422.96 679.29,-409.22"/>
<polygon fill="red" stroke="red" points="681.68,-406.63 672.57,-401.22 676.32,-411.13 681.68,-406.63"/>
<text text-anchor="middle" x="721" y="-577" font-family="Times,serif" font-size="10.00" fill="red">2.1.1</text>
<text text-anchor="middle" x="721" y="-566" font-family="Times,serif" font-size="10.00" fill="red">(latest: 2.1.5)</text>
</g>
<!-- roo_transceivers -->
<g id="node24" class="node">
<title>roo_transceivers</title>
<polygon fill="plum" stroke="red" points="527.5,-689 392.5,-689 392.5,-651 527.5,-651 527.5,-689"/>
<text text-anchor="middle" x="460" y="-673.8" font-family="Times,serif" font-size="14.00">roo_transceivers</text>
<text text-anchor="middle" x="460" y="-658.8" font-family="Times,serif" font-size="14.00">1.1.4</text>
</g>
<!-- roo_comms&#45;&gt;roo_transceivers -->
<g id="edge7" class="edge">
<title>roo_comms&#45;&gt;roo_transceivers</title>
<path fill="none" stroke="black" d="M680.29,-747.98C635.67,-732.39 569.43,-709.24 521.25,-692.4"/>
<polygon fill="black" stroke="black" points="522.15,-689.01 511.56,-689.02 519.84,-695.62 522.15,-689.01"/>
</g>
<!-- roo_quantity -->
<g id="node18" class="node">
<title>roo_quantity</title>
<polygon fill="#b1dbab" stroke="black" points="900.5,-497 793.5,-497 793.5,-459 900.5,-459 900.5,-497"/>
<text text-anchor="middle" x="847" y="-481.8" font-family="Times,serif" font-size="14.00">roo_quantity</text>
<text text-anchor="middle" x="847" y="-466.8" font-family="Times,serif" font-size="14.00">1.1.8</text>
</g>
<!-- roo_control&#45;&gt;roo_quantity -->
<g id="edge8" class="edge">
<title>roo_control&#45;&gt;roo_quantity</title>
<path fill="none" stroke="red" d="M997.94,-554.88C967.81,-539.73 924.67,-518.04 892.22,-501.73"/>
<polygon fill="red" stroke="red" points="893.45,-498.43 882.94,-497.07 890.31,-504.69 893.45,-498.43"/>
<text text-anchor="middle" x="990" y="-529" font-family="Times,serif" font-size="10.00" fill="red">1.1.7</text>
<text text-anchor="middle" x="990" y="-518" font-family="Times,serif" font-size="10.00" fill="red">(latest: 1.1.8)</text>
</g>
<!-- roo_control&#45;&gt;roo_scheduler -->
<g id="edge9" class="edge">
<title>roo_control&#45;&gt;roo_scheduler</title>
<path fill="none" stroke="red" d="M985.41,-557.32C982.24,-556.48 979.08,-555.7 976,-555 922.12,-542.78 905.07,-555.47 853,-537 834.97,-530.6 834.32,-520.5 816,-515 734.39,-490.5 517.21,-509.97 433,-497 432.9,-496.98 432.8,-496.97 432.69,-496.95"/>
<polygon fill="red" stroke="red" points="433.53,-493.55 423.07,-495.24 432.3,-500.44 433.53,-493.55"/>
<text text-anchor="middle" x="886" y="-529" font-family="Times,serif" font-size="10.00" fill="red">2.1.7</text>
<text text-anchor="middle" x="886" y="-518" font-family="Times,serif" font-size="10.00" fill="red">(latest: 2.1.9)</text>
</g>
<!-- roo_dashboard -->
<g id="node6" class="node">
<title>roo_dashboard</title>
<polygon fill="plum" stroke="red" points="271,-785 149,-785 149,-747 271,-747 271,-785"/>
<text text-anchor="middle" x="210" y="-769.8" font-family="Times,serif" font-size="14.00">roo_dashboard</text>
<text text-anchor="middle" x="210" y="-754.8" font-family="Times,serif" font-size="14.00">1.0.1</text>
</g>
<!-- roo_windows -->
<g id="node27" class="node">
<title>roo_windows</title>
<polygon fill="plum" stroke="red" points="369.5,-689 260.5,-689 260.5,-651 369.5,-651 369.5,-689"/>
<text text-anchor="middle" x="315" y="-673.8" font-family="Times,serif" font-size="14.00">roo_windows</text>
<text text-anchor="middle" x="315" y="-658.8" font-family="Times,serif" font-size="14.00">1.4.2</text>
</g>
<!-- roo_dashboard&#45;&gt;roo_windows -->
<g id="edge10" class="edge">
<title>roo_dashboard&#45;&gt;roo_windows</title>
<path fill="none" stroke="red" d="M225.56,-746.9C236.15,-735.01 250.79,-719.42 265,-707 269.54,-703.03 274.51,-699.07 279.49,-695.29"/>
<polygon fill="red" stroke="red" points="281.84,-697.91 287.82,-689.16 277.69,-692.27 281.84,-697.91"/>
<text text-anchor="middle" x="298" y="-721" font-family="Times,serif" font-size="10.00" fill="red">1.4.1</text>
<text text-anchor="middle" x="298" y="-710" font-family="Times,serif" font-size="10.00" fill="red">(latest: 1.4.2)</text>
</g>
<!-- roo_display -->
<g id="node7" class="node">
<title>roo_display</title>
<polygon fill="#b1dbab" stroke="black" points="289,-497 191,-497 191,-459 289,-459 289,-497"/>
<text text-anchor="middle" x="240" y="-481.8" font-family="Times,serif" font-size="14.00">roo_display</text>
<text text-anchor="middle" x="240" y="-466.8" font-family="Times,serif" font-size="14.00">3.0.2</text>
</g>
<!-- roo_display&#45;&gt;roo_collections -->
<g id="edge11" class="edge">
<title>roo_display&#45;&gt;roo_collections</title>
<path fill="none" stroke="black" d="M271.24,-458.88C297.12,-443.86 334.08,-422.41 362.1,-406.15"/>
<polygon fill="black" stroke="black" points="363.97,-409.11 370.86,-401.07 360.45,-403.06 363.97,-409.11"/>
</g>
<!-- roo_display&#45;&gt;roo_io -->
<g id="edge12" class="edge">
<title>roo_display&#45;&gt;roo_io</title>
<path fill="none" stroke="black" d="M289.18,-460.96C292.15,-460.23 295.1,-459.57 298,-459 387.3,-441.41 414.79,-467.05 502,-441 521.81,-435.08 523.97,-427.09 543,-419 566.53,-409 593.83,-400.18 615.58,-393.76"/>
<polygon fill="black" stroke="black" points="616.83,-397.05 625.46,-390.9 614.89,-390.32 616.83,-397.05"/>
</g>
<!-- roo_flags -->
<g id="node8" class="node">
<title>roo_flags</title>
<polygon fill="#b1dbab" stroke="black" points="776,-230 696,-230 696,-192 776,-192 776,-230"/>
<text text-anchor="middle" x="736" y="-214.8" font-family="Times,serif" font-size="14.00">roo_flags</text>
<text text-anchor="middle" x="736" y="-199.8" font-family="Times,serif" font-size="14.00">1.2.3</text>
</g>
<!-- roo_fonts_basic -->
<g id="node9" class="node">
<title>roo_fonts_basic</title>
<polygon fill="#b1dbab" stroke="red" points="126,-593 0,-593 0,-555 126,-555 126,-593"/>
<text text-anchor="middle" x="63" y="-577.8" font-family="Times,serif" font-size="14.00">roo_fonts_basic</text>
<text text-anchor="middle" x="63" y="-562.8" font-family="Times,serif" font-size="14.00">1.0.1</text>
</g>
<!-- roo_fonts_basic&#45;&gt;roo_display -->
<g id="edge13" class="edge">
<title>roo_fonts_basic&#45;&gt;roo_display</title>
<path fill="none" stroke="red" d="M97.13,-554.88C125.53,-539.79 166.14,-518.23 196.8,-501.94"/>
<polygon fill="red" stroke="red" points="198.79,-504.85 205.98,-497.07 195.5,-498.67 198.79,-504.85"/>
<text text-anchor="middle" x="201" y="-529" font-family="Times,serif" font-size="10.00" fill="red">3.0.1</text>
<text text-anchor="middle" x="201" y="-518" font-family="Times,serif" font-size="10.00" fill="red">(latest: 3.0.2)</text>
</g>
<!-- roo_icons -->
<g id="node10" class="node">
<title>roo_icons</title>
<polygon fill="khaki" stroke="red" points="333.5,-593 250.5,-593 250.5,-555 333.5,-555 333.5,-593"/>
<text text-anchor="middle" x="292" y="-577.8" font-family="Times,serif" font-size="14.00">roo_icons</text>
<text text-anchor="middle" x="292" y="-562.8" font-family="Times,serif" font-size="14.00">1.2.1</text>
</g>
<!-- roo_icons&#45;&gt;roo_display -->
<g id="edge14" class="edge">
<title>roo_icons&#45;&gt;roo_display</title>
<path fill="none" stroke="red" d="M281.97,-554.88C274.28,-540.96 263.53,-521.53 254.84,-505.82"/>
<polygon fill="red" stroke="red" points="257.9,-504.12 250,-497.07 251.77,-507.51 257.9,-504.12"/>
<text text-anchor="middle" x="304" y="-529" font-family="Times,serif" font-size="10.00" fill="red">2.3.1</text>
<text text-anchor="middle" x="304" y="-518" font-family="Times,serif" font-size="10.00" fill="red">(latest: 3.0.2)</text>
</g>
<!-- roo_io&#45;&gt;roo_logging -->
<g id="edge15" class="edge">
<title>roo_io&#45;&gt;roo_logging</title>
<path fill="none" stroke="black" d="M675.27,-362.96C685.42,-353.92 697.87,-342.83 708.93,-332.99"/>
<polygon fill="black" stroke="black" points="711.54,-335.35 716.68,-326.09 706.88,-330.13 711.54,-335.35"/>
</g>
<!-- roo_locale -->
<g id="node12" class="node">
<title>roo_locale</title>
<polygon fill="khaki" stroke="black" points="232,-593 144,-593 144,-555 232,-555 232,-593"/>
<text text-anchor="middle" x="188" y="-577.8" font-family="Times,serif" font-size="14.00">roo_locale</text>
<text text-anchor="middle" x="188" y="-562.8" font-family="Times,serif" font-size="14.00">1.1.1</text>
</g>
<!-- roo_logging&#45;&gt;roo_backport -->
<g id="edge16" class="edge">
<title>roo_logging&#45;&gt;roo_backport</title>
<path fill="none" stroke="black" d="M717.45,-287.83C700.01,-271.79 676.41,-250.55 671,-248 625.8,-226.67 609.07,-239.49 560,-230 555.27,-229.09 550.39,-228.1 545.49,-227.07"/>
<polygon fill="black" stroke="black" points="545.94,-223.59 535.43,-224.93 544.48,-230.44 545.94,-223.59"/>
</g>
<!-- roo_logging&#45;&gt;roo_flags -->
<g id="edge17" class="edge">
<title>roo_logging&#45;&gt;roo_flags</title>
<path fill="none" stroke="black" d="M736.81,-287.88C736.66,-274.35 736.46,-255.62 736.3,-240.15"/>
<polygon fill="black" stroke="black" points="739.8,-240.03 736.19,-230.07 732.8,-240.11 739.8,-240.03"/>
</g>
<!-- roo_threads -->
<g id="node21" class="node">
<title>roo_threads</title>
<polygon fill="#b1dbab" stroke="red" points="669.5,-230 568.5,-230 568.5,-192 669.5,-192 669.5,-230"/>
<text text-anchor="middle" x="619" y="-214.8" font-family="Times,serif" font-size="14.00">roo_threads</text>
<text text-anchor="middle" x="619" y="-199.8" font-family="Times,serif" font-size="14.00">1.2.3</text>
</g>
<!-- roo_logging&#45;&gt;roo_threads -->
<g id="edge18" class="edge">
<title>roo_logging&#45;&gt;roo_threads</title>
<path fill="none" stroke="black" d="M727.87,-287.86C720.84,-275.34 710.1,-259.03 697,-248 691.27,-243.18 684.79,-238.87 678.08,-235.04"/>
<polygon fill="black" stroke="black" points="679.3,-231.73 668.82,-230.14 676.02,-237.91 679.3,-231.73"/>
</g>
<!-- roo_monitoring -->
<g id="node14" class="node">
<title>roo_monitoring</title>
<polygon fill="plum" stroke="red" points="566.5,-497 441.5,-497 441.5,-459 566.5,-459 566.5,-497"/>
<text text-anchor="middle" x="504" y="-481.8" font-family="Times,serif" font-size="14.00">roo_monitoring</text>
<text text-anchor="middle" x="504" y="-466.8" font-family="Times,serif" font-size="14.00">1.0.0</text>
</g>
<!-- roo_monitoring&#45;&gt;roo_collections -->
<g id="edge19" class="edge">
<title>roo_monitoring&#45;&gt;roo_collections</title>
<path fill="none" stroke="red" d="M481.39,-458.65C474.73,-453.09 467.49,-446.89 461,-441 449.53,-430.59 437.26,-418.66 426.89,-408.34"/>
<polygon fill="red" stroke="red" points="429.26,-405.76 419.72,-401.15 424.3,-410.7 429.26,-405.76"/>
<text text-anchor="middle" x="494" y="-433" font-family="Times,serif" font-size="10.00" fill="red">1.4.1</text>
<text text-anchor="middle" x="494" y="-422" font-family="Times,serif" font-size="10.00" fill="red">(latest: 1.4.3)</text>
</g>
<!-- roo_monitoring&#45;&gt;roo_io -->
<g id="edge20" class="edge">
<title>roo_monitoring&#45;&gt;roo_io</title>
<path fill="none" stroke="red" d="M524.11,-458.86C538.25,-446.65 557.98,-430.71 577,-419 589.14,-411.52 603.1,-404.61 615.82,-398.88"/>
<polygon fill="red" stroke="red" points="617.5,-401.96 625.25,-394.74 614.69,-395.55 617.5,-401.96"/>
<text text-anchor="middle" x="610" y="-433" font-family="Times,serif" font-size="10.00" fill="red">2.1.4</text>
<text text-anchor="middle" x="610" y="-422" font-family="Times,serif" font-size="10.00" fill="red">(latest: 2.1.5)</text>
</g>
<!-- roo_onewire -->
<g id="node15" class="node">
<title>roo_onewire</title>
<polygon fill="#b1dbab" stroke="black" points="867,-593 763,-593 763,-555 867,-555 867,-593"/>
<text text-anchor="middle" x="815" y="-577.8" font-family="Times,serif" font-size="14.00">roo_onewire</text>
<text text-anchor="middle" x="815" y="-562.8" font-family="Times,serif" font-size="14.00">2.0.9</text>
</g>
<!-- roo_onewire&#45;&gt;roo_quantity -->
<g id="edge22" class="edge">
<title>roo_onewire&#45;&gt;roo_quantity</title>
<path fill="none" stroke="black" d="M818.26,-554.92C820.62,-543.32 824.24,-528.04 829,-515 830.01,-512.23 831.18,-509.4 832.42,-506.59"/>
<polygon fill="black" stroke="black" points="835.69,-507.86 836.83,-497.33 829.37,-504.85 835.69,-507.86"/>
</g>
<!-- roo_onewire&#45;&gt;roo_scheduler -->
<g id="edge21" class="edge">
<title>roo_onewire&#45;&gt;roo_scheduler</title>
<path fill="none" stroke="black" d="M762.93,-558.04C758.24,-556.93 753.55,-555.89 749,-555 683.54,-542.19 665.65,-548.79 600,-537 524.88,-523.51 507.01,-515.66 433,-497 432.9,-496.97 432.8,-496.95 432.7,-496.92"/>
<polygon fill="black" stroke="black" points="433.77,-493.59 423.22,-494.51 432.04,-500.37 433.77,-493.59"/>
</g>
<!-- roo_powersafefs -->
<g id="node16" class="node">
<title>roo_powersafefs</title>
<polygon fill="plum" stroke="red" points="668.5,-326 535.5,-326 535.5,-288 668.5,-288 668.5,-326"/>
<text text-anchor="middle" x="602" y="-310.8" font-family="Times,serif" font-size="14.00">roo_powersafefs</text>
<text text-anchor="middle" x="602" y="-295.8" font-family="Times,serif" font-size="14.00">1.0.0</text>
</g>
<!-- roo_powersafefs&#45;&gt;roo_threads -->
<g id="edge23" class="edge">
<title>roo_powersafefs&#45;&gt;roo_threads</title>
<path fill="none" stroke="red" d="M605.28,-287.88C607.72,-274.35 611.11,-255.62 613.91,-240.15"/>
<polygon fill="red" stroke="red" points="617.4,-240.53 615.73,-230.07 610.51,-239.29 617.4,-240.53"/>
<text text-anchor="middle" x="645" y="-262" font-family="Times,serif" font-size="10.00" fill="red">1.2.1</text>
<text text-anchor="middle" x="645" y="-251" font-family="Times,serif" font-size="10.00" fill="red">(latest: 1.2.3)</text>
</g>
<!-- roo_prefs -->
<g id="node17" class="node">
<title>roo_prefs</title>
<polygon fill="#b1dbab" stroke="black" points="542.5,-593 459.5,-593 459.5,-555 542.5,-555 542.5,-593"/>
<text text-anchor="middle" x="501" y="-577.8" font-family="Times,serif" font-size="14.00">roo_prefs</text>
<text text-anchor="middle" x="501" y="-562.8" font-family="Times,serif" font-size="14.00">1.2.9</text>
</g>
<!-- roo_prefs&#45;&gt;roo_logging -->
<g id="edge24" class="edge">
<title>roo_prefs&#45;&gt;roo_logging</title>
<path fill="none" stroke="black" d="M542.57,-568.44C611.89,-560.64 744.23,-544.81 751,-537 800.18,-480.23 769.31,-382.83 749.63,-335.47"/>
<polygon fill="black" stroke="black" points="752.8,-333.96 745.64,-326.15 746.36,-336.72 752.8,-333.96"/>
</g>
<!-- roo_prefs&#45;&gt;roo_scheduler -->
<g id="edge25" class="edge">
<title>roo_prefs&#45;&gt;roo_scheduler</title>
<path fill="none" stroke="black" d="M474.78,-554.88C453.33,-540.05 422.83,-518.97 399.42,-502.79"/>
<polygon fill="black" stroke="black" points="401.36,-499.88 391.14,-497.07 397.38,-505.63 401.36,-499.88"/>
</g>
<!-- roo_quantity&#45;&gt;roo_logging -->
<g id="edge26" class="edge">
<title>roo_quantity&#45;&gt;roo_logging</title>
<path fill="none" stroke="black" d="M840.39,-458.94C830.02,-432.09 808.05,-380.87 779,-344 776.04,-340.24 772.63,-336.58 769.07,-333.12"/>
<polygon fill="black" stroke="black" points="771.39,-330.49 761.64,-326.33 766.67,-335.66 771.39,-330.49"/>
</g>
<!-- roo_scheduler&#45;&gt;roo_collections -->
<g id="edge27" class="edge">
<title>roo_scheduler&#45;&gt;roo_collections</title>
<path fill="none" stroke="black" d="M370.15,-458.98C373.65,-447.41 378.6,-432.13 384,-419 385.18,-416.12 386.5,-413.15 387.87,-410.21"/>
<polygon fill="black" stroke="black" points="391.09,-411.6 392.31,-401.07 384.79,-408.54 391.09,-411.6"/>
</g>
<!-- roo_scheduler&#45;&gt;roo_threads -->
<g id="edge28" class="edge">
<title>roo_scheduler&#45;&gt;roo_threads</title>
<path fill="none" stroke="black" d="M423.2,-460.79C448.19,-453.37 472.69,-445.29 477,-441 527.71,-390.54 486.72,-347.12 527,-288 541.06,-267.36 562.28,-249.31 580.79,-235.98"/>
<polygon fill="black" stroke="black" points="582.88,-238.8 589.08,-230.2 578.87,-233.06 582.88,-238.8"/>
</g>
<!-- roo_testing -->
<g id="node20" class="node">
<title>roo_testing</title>
<polygon fill="#b1dbab" stroke="black" points="789.5,-38 692.5,-38 692.5,0 789.5,0 789.5,-38"/>
<text text-anchor="middle" x="741" y="-22.8" font-family="Times,serif" font-size="14.00">roo_testing</text>
<text text-anchor="middle" x="741" y="-7.8" font-family="Times,serif" font-size="14.00">1.3.4</text>
</g>
<!-- roo_time -->
<g id="node22" class="node">
<title>roo_time</title>
<polygon fill="#b1dbab" stroke="red" points="780.5,-134 701.5,-134 701.5,-96 780.5,-96 780.5,-134"/>
<text text-anchor="middle" x="741" y="-118.8" font-family="Times,serif" font-size="14.00">roo_time</text>
<text text-anchor="middle" x="741" y="-103.8" font-family="Times,serif" font-size="14.00">1.4.3</text>
</g>
<!-- roo_threads&#45;&gt;roo_time -->
<g id="edge29" class="edge">
<title>roo_threads&#45;&gt;roo_time</title>
<path fill="none" stroke="black" d="M642.52,-191.88C661.59,-177.18 688.65,-156.34 709.57,-140.21"/>
<polygon fill="black" stroke="black" points="711.76,-142.94 717.55,-134.07 707.49,-137.4 711.76,-142.94"/>
</g>
<!-- roo_time&#45;&gt;roo_testing -->
<g id="edge30" class="edge">
<title>roo_time&#45;&gt;roo_testing</title>
<path fill="none" stroke="red" d="M741,-95.88C741,-82.35 741,-63.62 741,-48.15"/>
<polygon fill="red" stroke="red" points="744.5,-48.07 741,-38.07 737.5,-48.07 744.5,-48.07"/>
<text text-anchor="middle" x="774" y="-70" font-family="Times,serif" font-size="10.00" fill="red">1.3.2</text>
<text text-anchor="middle" x="774" y="-59" font-family="Times,serif" font-size="10.00" fill="red">(latest: 1.3.4)</text>
</g>
<!-- roo_time_ds3231 -->
<g id="node23" class="node">
<title>roo_time_ds3231</title>
<polygon fill="plum" stroke="red" points="932,-230 794,-230 794,-192 932,-192 932,-230"/>
<text text-anchor="middle" x="863" y="-214.8" font-family="Times,serif" font-size="14.00">roo_time_ds3231</text>
<text text-anchor="middle" x="863" y="-199.8" font-family="Times,serif" font-size="14.00">1.1.5</text>
</g>
<!-- roo_time_ds3231&#45;&gt;roo_time -->
<g id="edge31" class="edge">
<title>roo_time_ds3231&#45;&gt;roo_time</title>
<path fill="none" stroke="red" d="M839.48,-191.88C820.41,-177.18 793.35,-156.34 772.43,-140.21"/>
<polygon fill="red" stroke="red" points="774.51,-137.4 764.45,-134.07 770.24,-142.94 774.51,-137.4"/>
<text text-anchor="middle" x="845" y="-166" font-family="Times,serif" font-size="10.00" fill="red">1.4.1</text>
<text text-anchor="middle" x="845" y="-155" font-family="Times,serif" font-size="10.00" fill="red">(latest: 1.4.3)</text>
</g>
<!-- roo_transceivers&#45;&gt;roo_prefs -->
<g id="edge32" class="edge">
<title>roo_transceivers&#45;&gt;roo_prefs</title>
<path fill="none" stroke="red" d="M467.72,-650.95C472.63,-639.49 479.15,-624.36 485,-611 486.18,-608.3 487.42,-605.48 488.66,-602.67"/>
<polygon fill="red" stroke="red" points="491.97,-603.86 492.82,-593.3 485.57,-601.02 491.97,-603.86"/>
<text text-anchor="middle" x="518" y="-625" font-family="Times,serif" font-size="10.00" fill="red">1.2.7</text>
<text text-anchor="middle" x="518" y="-614" font-family="Times,serif" font-size="10.00" fill="red">(latest: 1.2.9)</text>
</g>
<!-- roo_transport -->
<g id="node25" class="node">
<title>roo_transport</title>
<polygon fill="#b1dbab" stroke="black" points="699,-497 585,-497 585,-459 699,-459 699,-497"/>
<text text-anchor="middle" x="642" y="-481.8" font-family="Times,serif" font-size="14.00">roo_transport</text>
<text text-anchor="middle" x="642" y="-466.8" font-family="Times,serif" font-size="14.00">1.1.2</text>
</g>
<!-- roo_transport&#45;&gt;roo_collections -->
<g id="edge33" class="edge">
<title>roo_transport&#45;&gt;roo_collections</title>
<path fill="none" stroke="black" d="M638.64,-458.99C635.23,-445.85 628.57,-428.72 616,-419 594.05,-402.04 526.54,-392.68 473.15,-387.79"/>
<polygon fill="black" stroke="black" points="473.29,-384.28 463.02,-386.89 472.68,-391.26 473.29,-384.28"/>
</g>
<!-- roo_transport&#45;&gt;roo_io -->
<g id="edge34" class="edge">
<title>roo_transport&#45;&gt;roo_io</title>
<path fill="none" stroke="black" d="M644.51,-458.88C646.38,-445.35 648.97,-426.62 651.11,-411.15"/>
<polygon fill="black" stroke="black" points="654.6,-411.45 652.5,-401.07 647.66,-410.49 654.6,-411.45"/>
</g>
<!-- roo_wifi -->
<g id="node26" class="node">
<title>roo_wifi</title>
<polygon fill="plum" stroke="red" points="618,-689 546,-689 546,-651 618,-651 618,-689"/>
<text text-anchor="middle" x="582" y="-673.8" font-family="Times,serif" font-size="14.00">roo_wifi</text>
<text text-anchor="middle" x="582" y="-658.8" font-family="Times,serif" font-size="14.00">1.1.3</text>
</g>
<!-- roo_wifi&#45;&gt;roo_prefs -->
<g id="edge35" class="edge">
<title>roo_wifi&#45;&gt;roo_prefs</title>
<path fill="none" stroke="red" d="M574.93,-650.95C569.57,-638.79 561.38,-622.86 551,-611 547.39,-606.87 543.22,-602.96 538.86,-599.33"/>
<polygon fill="red" stroke="red" points="540.94,-596.51 530.89,-593.14 536.64,-602.04 540.94,-596.51"/>
<text text-anchor="middle" x="598" y="-625" font-family="Times,serif" font-size="10.00" fill="red">1.2.7</text>
<text text-anchor="middle" x="598" y="-614" font-family="Times,serif" font-size="10.00" fill="red">(latest: 1.2.9)</text>
</g>
<!-- roo_windows&#45;&gt;roo_icons -->
<g id="edge37" class="edge">
<title>roo_windows&#45;&gt;roo_icons</title>
<path fill="none" stroke="black" d="M310.57,-650.88C307.26,-637.35 302.67,-618.62 298.89,-603.15"/>
<polygon fill="black" stroke="black" points="302.2,-601.95 296.42,-593.07 295.4,-603.61 302.2,-601.95"/>
</g>
<!-- roo_windows&#45;&gt;roo_locale -->
<g id="edge36" class="edge">
<title>roo_windows&#45;&gt;roo_locale</title>
<path fill="none" stroke="black" d="M290.51,-650.88C270.66,-636.18 242.5,-615.34 220.72,-599.21"/>
<polygon fill="black" stroke="black" points="222.53,-596.2 212.41,-593.07 218.37,-601.83 222.53,-596.2"/>
</g>
<!-- roo_windows&#45;&gt;roo_scheduler -->
<g id="edge38" class="edge">
<title>roo_windows&#45;&gt;roo_scheduler</title>
<path fill="none" stroke="red" d="M322.29,-650.81C328.2,-635.55 336.43,-613.11 342,-593 349.99,-564.15 356.44,-530.47 360.46,-507.24"/>
<polygon fill="red" stroke="red" points="363.91,-507.8 362.13,-497.35 357.01,-506.63 363.91,-507.8"/>
<text text-anchor="middle" x="385" y="-577" font-family="Times,serif" font-size="10.00" fill="red">2.1.6</text>
<text text-anchor="middle" x="385" y="-566" font-family="Times,serif" font-size="10.00" fill="red">(latest: 2.1.9)</text>
</g>
<!-- roo_windows_transceivers -->
<g id="node28" class="node">
<title>roo_windows_transceivers</title>
<polygon fill="plum" stroke="red" points="493,-785 289,-785 289,-747 493,-747 493,-785"/>
<text text-anchor="middle" x="391" y="-769.8" font-family="Times,serif" font-size="14.00">roo_windows_transceivers</text>
<text text-anchor="middle" x="391" y="-754.8" font-family="Times,serif" font-size="14.00">1.0.0</text>
</g>
<!-- roo_windows_transceivers&#45;&gt;roo_transceivers -->
<g id="edge39" class="edge">
<title>roo_windows_transceivers&#45;&gt;roo_transceivers</title>
<path fill="none" stroke="red" d="M404.3,-746.88C414.61,-732.83 429.05,-713.17 440.63,-697.38"/>
<polygon fill="red" stroke="red" points="443.64,-699.2 446.74,-689.07 438,-695.06 443.64,-699.2"/>
<text text-anchor="middle" x="464" y="-721" font-family="Times,serif" font-size="10.00" fill="red">1.1.3</text>
<text text-anchor="middle" x="464" y="-710" font-family="Times,serif" font-size="10.00" fill="red">(latest: 1.1.4)</text>
</g>
<!-- roo_windows_transceivers&#45;&gt;roo_windows -->
<g id="edge40" class="edge">
<title>roo_windows_transceivers&#45;&gt;roo_windows</title>
<path fill="none" stroke="red" d="M367.04,-746.84C360.77,-741.48 354.3,-735.34 349,-729 341.21,-719.67 334.13,-708.34 328.47,-698.17"/>
<polygon fill="red" stroke="red" points="331.5,-696.42 323.7,-689.26 325.33,-699.72 331.5,-696.42"/>
<text text-anchor="middle" x="382" y="-721" font-family="Times,serif" font-size="10.00" fill="red">1.4.1</text>
<text text-anchor="middle" x="382" y="-710" font-family="Times,serif" font-size="10.00" fill="red">(latest: 1.4.2)</text>
</g>
<!-- roo_windows_wifi -->
<g id="node29" class="node">
<title>roo_windows_wifi</title>
<polygon fill="plum" stroke="red" points="652.5,-785 511.5,-785 511.5,-747 652.5,-747 652.5,-785"/>
<text text-anchor="middle" x="582" y="-769.8" font-family="Times,serif" font-size="14.00">roo_windows_wifi</text>
<text text-anchor="middle" x="582" y="-754.8" font-family="Times,serif" font-size="14.00">1.1.3</text>
</g>
<!-- roo_windows_wifi&#45;&gt;roo_wifi -->
<g id="edge41" class="edge">
<title>roo_windows_wifi&#45;&gt;roo_wifi</title>
<path fill="none" stroke="black" d="M582,-746.88C582,-733.35 582,-714.62 582,-699.15"/>
<polygon fill="black" stroke="black" points="585.5,-699.07 582,-689.07 578.5,-699.07 585.5,-699.07"/>
</g>
<!-- roo_windows_wifi&#45;&gt;roo_windows -->
<g id="edge42" class="edge">
<title>roo_windows_wifi&#45;&gt;roo_windows</title>
<path fill="none" stroke="black" d="M562.3,-746.81C546.81,-733.58 524.06,-716.4 501,-707 452.28,-687.14 435.52,-699.65 384,-689 382.56,-688.7 381.11,-688.39 379.64,-688.08"/>
<polygon fill="black" stroke="black" points="380.39,-684.66 369.87,-685.86 378.84,-691.48 380.39,-684.66"/>
</g>
</g>
</svg>
