<?xml version="1.0" encoding="UTF-8" standalone="no"?>
<!DOCTYPE svg PUBLIC "-//W3C//DTD SVG 1.1//EN"
 "http://www.w3.org/Graphics/SVG/1.1/DTD/svg11.dtd">
<!-- Generated by graphviz version 2.42.4 (0)
 -->
<!-- Title: dependencies Pages: 1 -->
<svg width="999pt" height="767pt"
 viewBox="0.00 0.00 998.99 767.00" xmlns="http://www.w3.org/2000/svg" xmlns:xlink="http://www.w3.org/1999/xlink">
<g id="graph0" class="graph" transform="scale(1 1) rotate(0) translate(4 763)">
<title>dependencies</title>
<polygon fill="white" stroke="transparent" points="-4,4 -4,-763 994.99,-763 994.99,4 -4,4"/>
<!-- roo_backport -->
<g id="node1" class="node">
<title>roo_backport</title>
<polygon fill="#b1dbab" stroke="black" points="611.99,-209 501.99,-209 501.99,-171 611.99,-171 611.99,-209"/>
<text text-anchor="middle" x="556.99" y="-193.8" font-family="Times,serif" font-size="14.00">roo_backport</text>
<text text-anchor="middle" x="556.99" y="-178.8" font-family="Times,serif" font-size="14.00">1.2.1</text>
</g>
<!-- roo_blink -->
<g id="node2" class="node">
<title>roo_blink</title>
<polygon fill="#b1dbab" stroke="red" points="279.99,-455 197.99,-455 197.99,-417 279.99,-417 279.99,-455"/>
<text text-anchor="middle" x="238.99" y="-439.8" font-family="Times,serif" font-size="14.00">roo_blink</text>
<text text-anchor="middle" x="238.99" y="-424.8" font-family="Times,serif" font-size="14.00">1.0.5</text>
</g>
<!-- roo_logging -->
<g id="node12" class="node">
<title>roo_logging</title>
<polygon fill="khaki" stroke="red" points="449.99,-284 349.99,-284 349.99,-246 449.99,-246 449.99,-284"/>
<text text-anchor="middle" x="399.99" y="-268.8" font-family="Times,serif" font-size="14.00">roo_logging</text>
<text text-anchor="middle" x="399.99" y="-253.8" font-family="Times,serif" font-size="14.00">1.5.3</text>
</g>
<!-- roo_blink&#45;&gt;roo_logging -->
<g id="edge1" class="edge">
<title>roo_blink&#45;&gt;roo_logging</title>
<path fill="none" stroke="black" d="M241.48,-416.98C245.72,-392.44 256.53,-348.45 281.99,-321 297.72,-304.04 319.72,-291.85 340.48,-283.33"/>
<polygon fill="black" stroke="black" points="341.85,-286.55 349.9,-279.67 339.31,-280.03 341.85,-286.55"/>
</g>
<!-- roo_scheduler -->
<g id="node17" class="node">
<title>roo_scheduler</title>
<polygon fill="#b1dbab" stroke="red" points="406.99,-359 290.99,-359 290.99,-321 406.99,-321 406.99,-359"/>
<text text-anchor="middle" x="348.99" y="-343.8" font-family="Times,serif" font-size="14.00">roo_scheduler</text>
<text text-anchor="middle" x="348.99" y="-328.8" font-family="Times,serif" font-size="14.00">2.1.7</text>
</g>
<!-- roo_blink&#45;&gt;roo_scheduler -->
<g id="edge2" class="edge">
<title>roo_blink&#45;&gt;roo_scheduler</title>
<path fill="none" stroke="black" d="M279.47,-416.95C288.7,-411.86 298.1,-405.82 305.99,-399 316.29,-390.1 325.59,-378.31 332.88,-367.69"/>
<polygon fill="black" stroke="black" points="335.94,-369.41 338.51,-359.13 330.09,-365.56 335.94,-369.41"/>
</g>
<!-- roo_collections -->
<g id="node3" class="node">
<title>roo_collections</title>
<polygon fill="#b1dbab" stroke="black" points="701.99,-284 579.99,-284 579.99,-246 701.99,-246 701.99,-284"/>
<text text-anchor="middle" x="640.99" y="-268.8" font-family="Times,serif" font-size="14.00">roo_collections</text>
<text text-anchor="middle" x="640.99" y="-253.8" font-family="Times,serif" font-size="14.00">1.4.1</text>
</g>
<!-- roo_collections&#45;&gt;roo_backport -->
<g id="edge3" class="edge">
<title>roo_collections&#45;&gt;roo_backport</title>
<path fill="none" stroke="black" d="M620.23,-245.96C609.73,-236.83 596.82,-225.62 585.42,-215.7"/>
<polygon fill="black" stroke="black" points="587.65,-213.01 577.81,-209.09 583.06,-218.29 587.65,-213.01"/>
</g>
<!-- roo_comms -->
<g id="node4" class="node">
<title>roo_comms</title>
<polygon fill="plum" stroke="red" points="352.49,-663 255.49,-663 255.49,-625 352.49,-625 352.49,-663"/>
<text text-anchor="middle" x="303.99" y="-647.8" font-family="Times,serif" font-size="14.00">roo_comms</text>
<text text-anchor="middle" x="303.99" y="-632.8" font-family="Times,serif" font-size="14.00">1.1.3</text>
</g>
<!-- roo_comms&#45;&gt;roo_blink -->
<g id="edge4" class="edge">
<title>roo_comms&#45;&gt;roo_blink</title>
<path fill="none" stroke="red" d="M291.52,-624.88C279.84,-606.96 262.87,-578.32 253.99,-551 244.83,-522.81 241.25,-488.97 239.86,-465.52"/>
<polygon fill="red" stroke="red" points="243.34,-465.04 239.35,-455.22 236.35,-465.38 243.34,-465.04"/>
<text text-anchor="middle" x="286.99" y="-535" font-family="Times,serif" font-size="10.00" fill="red">1.0.4</text>
<text text-anchor="middle" x="286.99" y="-524" font-family="Times,serif" font-size="10.00" fill="red">(latest: 1.0.5)</text>
</g>
<!-- roo_control -->
<g id="node5" class="node">
<title>roo_control</title>
<polygon fill="#b1dbab" stroke="red" points="395.49,-455 298.49,-455 298.49,-417 395.49,-417 395.49,-455"/>
<text text-anchor="middle" x="346.99" y="-439.8" font-family="Times,serif" font-size="14.00">roo_control</text>
<text text-anchor="middle" x="346.99" y="-424.8" font-family="Times,serif" font-size="14.00">1.2.4</text>
</g>
<!-- roo_comms&#45;&gt;roo_control -->
<g id="edge5" class="edge">
<title>roo_comms&#45;&gt;roo_control</title>
<path fill="none" stroke="red" d="M307.81,-624.72C315.33,-588.68 332.12,-508.25 341.08,-465.3"/>
<polygon fill="red" stroke="red" points="344.57,-465.74 343.18,-455.24 337.71,-464.31 344.57,-465.74"/>
<text text-anchor="middle" x="363.99" y="-535" font-family="Times,serif" font-size="10.00" fill="red">1.2.3</text>
<text text-anchor="middle" x="363.99" y="-524" font-family="Times,serif" font-size="10.00" fill="red">(latest: 1.2.4)</text>
</g>
<!-- roo_io -->
<g id="node10" class="node">
<title>roo_io</title>
<polygon fill="khaki" stroke="red" points="612.49,-359 553.49,-359 553.49,-321 612.49,-321 612.49,-359"/>
<text text-anchor="middle" x="582.99" y="-343.8" font-family="Times,serif" font-size="14.00">roo_io</text>
<text text-anchor="middle" x="582.99" y="-328.8" font-family="Times,serif" font-size="14.00">2.1.4</text>
</g>
<!-- roo_comms&#45;&gt;roo_io -->
<g id="edge6" class="edge">
<title>roo_comms&#45;&gt;roo_io</title>
<path fill="none" stroke="red" d="M323.46,-624.82C343.15,-606.37 374.39,-576.91 400.99,-551 436.11,-516.79 437.77,-499.54 478.99,-473 498.15,-460.67 510.11,-470.3 526.99,-455 552.4,-431.96 567.61,-394.82 575.63,-369.23"/>
<polygon fill="red" stroke="red" points="579.06,-369.96 578.54,-359.38 572.35,-367.98 579.06,-369.96"/>
<text text-anchor="middle" x="511.99" y="-487" font-family="Times,serif" font-size="10.00" fill="red">2.1.1</text>
<text text-anchor="middle" x="511.99" y="-476" font-family="Times,serif" font-size="10.00" fill="red">(latest: 2.1.4)</text>
</g>
<!-- roo_transceivers -->
<g id="node22" class="node">
<title>roo_transceivers</title>
<polygon fill="plum" stroke="red" points="216.49,-551 81.49,-551 81.49,-513 216.49,-513 216.49,-551"/>
<text text-anchor="middle" x="148.99" y="-535.8" font-family="Times,serif" font-size="14.00">roo_transceivers</text>
<text text-anchor="middle" x="148.99" y="-520.8" font-family="Times,serif" font-size="14.00">1.1.4</text>
</g>
<!-- roo_comms&#45;&gt;roo_transceivers -->
<g id="edge7" class="edge">
<title>roo_comms&#45;&gt;roo_transceivers</title>
<path fill="none" stroke="black" d="M268.54,-624.9C258.75,-619.49 248.27,-613.31 238.99,-607 216.94,-592.01 193.74,-572.84 176.41,-557.77"/>
<polygon fill="black" stroke="black" points="178.71,-555.13 168.89,-551.16 174.09,-560.39 178.71,-555.13"/>
</g>
<!-- roo_quantity -->
<g id="node16" class="node">
<title>roo_quantity</title>
<polygon fill="#b1dbab" stroke="black" points="532.49,-359 425.49,-359 425.49,-321 532.49,-321 532.49,-359"/>
<text text-anchor="middle" x="478.99" y="-343.8" font-family="Times,serif" font-size="14.00">roo_quantity</text>
<text text-anchor="middle" x="478.99" y="-328.8" font-family="Times,serif" font-size="14.00">1.1.7</text>
</g>
<!-- roo_control&#45;&gt;roo_quantity -->
<g id="edge8" class="edge">
<title>roo_control&#45;&gt;roo_quantity</title>
<path fill="none" stroke="black" d="M372.44,-416.88C393.17,-402.12 422.61,-381.15 445.29,-365"/>
<polygon fill="black" stroke="black" points="447.5,-367.72 453.62,-359.07 443.44,-362.02 447.5,-367.72"/>
</g>
<!-- roo_control&#45;&gt;roo_scheduler -->
<g id="edge9" class="edge">
<title>roo_control&#45;&gt;roo_scheduler</title>
<path fill="none" stroke="black" d="M347.38,-416.88C347.66,-403.35 348.06,-384.62 348.39,-369.15"/>
<polygon fill="black" stroke="black" points="351.89,-369.14 348.61,-359.07 344.89,-368.99 351.89,-369.14"/>
</g>
<!-- roo_dashboard -->
<g id="node6" class="node">
<title>roo_dashboard</title>
<polygon fill="khaki" stroke="red" points="630.99,-759 508.99,-759 508.99,-721 630.99,-721 630.99,-759"/>
<text text-anchor="middle" x="569.99" y="-743.8" font-family="Times,serif" font-size="14.00">roo_dashboard</text>
<text text-anchor="middle" x="569.99" y="-728.8" font-family="Times,serif" font-size="14.00">1.0.1</text>
</g>
<!-- roo_windows -->
<g id="node25" class="node">
<title>roo_windows</title>
<polygon fill="plum" stroke="red" points="624.49,-663 515.49,-663 515.49,-625 624.49,-625 624.49,-663"/>
<text text-anchor="middle" x="569.99" y="-647.8" font-family="Times,serif" font-size="14.00">roo_windows</text>
<text text-anchor="middle" x="569.99" y="-632.8" font-family="Times,serif" font-size="14.00">1.4.2</text>
</g>
<!-- roo_dashboard&#45;&gt;roo_windows -->
<g id="edge10" class="edge">
<title>roo_dashboard&#45;&gt;roo_windows</title>
<path fill="none" stroke="red" d="M569.99,-720.88C569.99,-707.35 569.99,-688.62 569.99,-673.15"/>
<polygon fill="red" stroke="red" points="573.49,-673.07 569.99,-663.07 566.49,-673.07 573.49,-673.07"/>
<text text-anchor="middle" x="602.99" y="-695" font-family="Times,serif" font-size="10.00" fill="red">1.4.1</text>
<text text-anchor="middle" x="602.99" y="-684" font-family="Times,serif" font-size="10.00" fill="red">(latest: 1.4.2)</text>
</g>
<!-- roo_display -->
<g id="node7" class="node">
<title>roo_display</title>
<polygon fill="plum" stroke="red" points="853.99,-455 755.99,-455 755.99,-417 853.99,-417 853.99,-455"/>
<text text-anchor="middle" x="804.99" y="-439.8" font-family="Times,serif" font-size="14.00">roo_display</text>
<text text-anchor="middle" x="804.99" y="-424.8" font-family="Times,serif" font-size="14.00">2.3.2</text>
</g>
<!-- roo_display&#45;&gt;roo_collections -->
<g id="edge11" class="edge">
<title>roo_display&#45;&gt;roo_collections</title>
<path fill="none" stroke="red" d="M821.4,-416.99C829.99,-405.27 837.34,-389.85 829.99,-377 804.68,-332.79 754.16,-304.46 711.71,-287.5"/>
<polygon fill="red" stroke="red" points="712.82,-284.17 702.23,-283.84 710.3,-290.7 712.82,-284.17"/>
<text text-anchor="middle" x="849.99" y="-343" font-family="Times,serif" font-size="10.00" fill="red">1.4.0</text>
<text text-anchor="middle" x="849.99" y="-332" font-family="Times,serif" font-size="10.00" fill="red">(latest: 1.4.1)</text>
</g>
<!-- roo_display&#45;&gt;roo_io -->
<g id="edge12" class="edge">
<title>roo_display&#45;&gt;roo_io</title>
<path fill="none" stroke="red" d="M755.69,-419.49C752.75,-418.63 749.83,-417.8 746.99,-417 715.23,-408.11 705.32,-411.96 674.99,-399 654.14,-390.09 632.61,-376.78 615.63,-365.16"/>
<polygon fill="red" stroke="red" points="617.39,-362.12 607.19,-359.27 613.38,-367.86 617.39,-362.12"/>
<text text-anchor="middle" x="707.99" y="-391" font-family="Times,serif" font-size="10.00" fill="red">2.1.2</text>
<text text-anchor="middle" x="707.99" y="-380" font-family="Times,serif" font-size="10.00" fill="red">(latest: 2.1.4)</text>
</g>
<!-- roo_flags -->
<g id="node8" class="node">
<title>roo_flags</title>
<polygon fill="#b1dbab" stroke="black" points="439.99,-209 359.99,-209 359.99,-171 439.99,-171 439.99,-209"/>
<text text-anchor="middle" x="399.99" y="-193.8" font-family="Times,serif" font-size="14.00">roo_flags</text>
<text text-anchor="middle" x="399.99" y="-178.8" font-family="Times,serif" font-size="14.00">1.2.1</text>
</g>
<!-- roo_icons -->
<g id="node9" class="node">
<title>roo_icons</title>
<polygon fill="plum" stroke="red" points="657.49,-551 574.49,-551 574.49,-513 657.49,-513 657.49,-551"/>
<text text-anchor="middle" x="615.99" y="-535.8" font-family="Times,serif" font-size="14.00">roo_icons</text>
<text text-anchor="middle" x="615.99" y="-520.8" font-family="Times,serif" font-size="14.00">1.2.1</text>
</g>
<!-- roo_icons&#45;&gt;roo_display -->
<g id="edge13" class="edge">
<title>roo_icons&#45;&gt;roo_display</title>
<path fill="none" stroke="red" d="M652.43,-512.88C682.89,-497.73 726.49,-476.04 759.29,-459.73"/>
<polygon fill="red" stroke="red" points="761.27,-462.66 768.66,-455.07 758.15,-456.39 761.27,-462.66"/>
<text text-anchor="middle" x="759.99" y="-487" font-family="Times,serif" font-size="10.00" fill="red">2.3.1</text>
<text text-anchor="middle" x="759.99" y="-476" font-family="Times,serif" font-size="10.00" fill="red">(latest: 2.3.2)</text>
</g>
<!-- roo_io&#45;&gt;roo_logging -->
<g id="edge14" class="edge">
<title>roo_io&#45;&gt;roo_logging</title>
<path fill="none" stroke="black" d="M553.21,-326.1C549.12,-324.36 544.96,-322.62 540.99,-321 513.5,-309.75 482.79,-297.71 457.06,-287.77"/>
<polygon fill="black" stroke="black" points="458.06,-284.4 447.47,-284.07 455.54,-290.93 458.06,-284.4"/>
</g>
<!-- roo_locale -->
<g id="node11" class="node">
<title>roo_locale</title>
<polygon fill="#b1dbab" stroke="black" points="763.99,-551 675.99,-551 675.99,-513 763.99,-513 763.99,-551"/>
<text text-anchor="middle" x="719.99" y="-535.8" font-family="Times,serif" font-size="14.00">roo_locale</text>
<text text-anchor="middle" x="719.99" y="-520.8" font-family="Times,serif" font-size="14.00">1.1.1</text>
</g>
<!-- roo_logging&#45;&gt;roo_backport -->
<g id="edge15" class="edge">
<title>roo_logging&#45;&gt;roo_backport</title>
<path fill="none" stroke="black" d="M438.8,-245.96C459.93,-236.13 486.28,-223.88 508.73,-213.44"/>
<polygon fill="black" stroke="black" points="510.49,-216.48 518.08,-209.09 507.54,-210.13 510.49,-216.48"/>
</g>
<!-- roo_logging&#45;&gt;roo_flags -->
<g id="edge16" class="edge">
<title>roo_logging&#45;&gt;roo_flags</title>
<path fill="none" stroke="black" d="M399.99,-245.96C399.99,-237.88 399.99,-228.18 399.99,-219.18"/>
<polygon fill="black" stroke="black" points="403.49,-219.09 399.99,-209.09 396.49,-219.09 403.49,-219.09"/>
</g>
<!-- roo_threads -->
<g id="node19" class="node">
<title>roo_threads</title>
<polygon fill="#b1dbab" stroke="red" points="327.49,-209 226.49,-209 226.49,-171 327.49,-171 327.49,-209"/>
<text text-anchor="middle" x="276.99" y="-193.8" font-family="Times,serif" font-size="14.00">roo_threads</text>
<text text-anchor="middle" x="276.99" y="-178.8" font-family="Times,serif" font-size="14.00">1.2.1</text>
</g>
<!-- roo_logging&#45;&gt;roo_threads -->
<g id="edge17" class="edge">
<title>roo_logging&#45;&gt;roo_threads</title>
<path fill="none" stroke="black" d="M369.59,-245.96C353.47,-236.39 333.49,-224.53 316.22,-214.28"/>
<polygon fill="black" stroke="black" points="317.86,-211.18 307.47,-209.09 314.29,-217.2 317.86,-211.18"/>
</g>
<!-- roo_monitoring -->
<g id="node13" class="node">
<title>roo_monitoring</title>
<polygon fill="khaki" stroke="red" points="737.49,-455 612.49,-455 612.49,-417 737.49,-417 737.49,-455"/>
<text text-anchor="middle" x="674.99" y="-439.8" font-family="Times,serif" font-size="14.00">roo_monitoring</text>
<text text-anchor="middle" x="674.99" y="-424.8" font-family="Times,serif" font-size="14.00">1.0.0</text>
</g>
<!-- roo_monitoring&#45;&gt;roo_collections -->
<g id="edge18" class="edge">
<title>roo_monitoring&#45;&gt;roo_collections</title>
<path fill="none" stroke="black" d="M663.11,-416.96C659.98,-411.41 656.93,-405.14 654.99,-399 643.94,-364.01 641.2,-321.54 640.72,-294.16"/>
<polygon fill="black" stroke="black" points="644.22,-294.07 640.63,-284.1 637.22,-294.13 644.22,-294.07"/>
</g>
<!-- roo_monitoring&#45;&gt;roo_io -->
<g id="edge19" class="edge">
<title>roo_monitoring&#45;&gt;roo_io</title>
<path fill="none" stroke="black" d="M648.01,-416.82C640.84,-411.45 633.34,-405.32 626.99,-399 617.4,-389.46 608.14,-377.76 600.6,-367.37"/>
<polygon fill="black" stroke="black" points="603.34,-365.18 594.72,-359.03 597.62,-369.22 603.34,-365.18"/>
</g>
<!-- roo_onewire -->
<g id="node14" class="node">
<title>roo_onewire</title>
<polygon fill="#b1dbab" stroke="red" points="517.99,-455 413.99,-455 413.99,-417 517.99,-417 517.99,-455"/>
<text text-anchor="middle" x="465.99" y="-439.8" font-family="Times,serif" font-size="14.00">roo_onewire</text>
<text text-anchor="middle" x="465.99" y="-424.8" font-family="Times,serif" font-size="14.00">2.0.8</text>
</g>
<!-- roo_onewire&#45;&gt;roo_quantity -->
<g id="edge21" class="edge">
<title>roo_onewire&#45;&gt;roo_quantity</title>
<path fill="none" stroke="black" d="M468.5,-416.88C470.37,-403.35 472.96,-384.62 475.1,-369.15"/>
<polygon fill="black" stroke="black" points="478.59,-369.45 476.49,-359.07 471.66,-368.49 478.59,-369.45"/>
</g>
<!-- roo_onewire&#45;&gt;roo_scheduler -->
<g id="edge20" class="edge">
<title>roo_onewire&#45;&gt;roo_scheduler</title>
<path fill="none" stroke="black" d="M443.43,-416.88C425.22,-402.25 399.43,-381.52 379.4,-365.43"/>
<polygon fill="black" stroke="black" points="381.47,-362.6 371.48,-359.07 377.08,-368.06 381.47,-362.6"/>
</g>
<!-- roo_prefs -->
<g id="node15" class="node">
<title>roo_prefs</title>
<polygon fill="#b1dbab" stroke="red" points="179.49,-455 96.49,-455 96.49,-417 179.49,-417 179.49,-455"/>
<text text-anchor="middle" x="137.99" y="-439.8" font-family="Times,serif" font-size="14.00">roo_prefs</text>
<text text-anchor="middle" x="137.99" y="-424.8" font-family="Times,serif" font-size="14.00">1.2.8</text>
</g>
<!-- roo_prefs&#45;&gt;roo_logging -->
<g id="edge22" class="edge">
<title>roo_prefs&#45;&gt;roo_logging</title>
<path fill="none" stroke="black" d="M152.91,-416.6C173.63,-392.03 213.3,-348.44 254.99,-321 273.47,-308.84 280.37,-310 300.99,-302 313.63,-297.1 327.24,-292.01 340.21,-287.27"/>
<polygon fill="black" stroke="black" points="341.78,-290.42 349.98,-283.71 339.38,-283.85 341.78,-290.42"/>
</g>
<!-- roo_prefs&#45;&gt;roo_scheduler -->
<g id="edge23" class="edge">
<title>roo_prefs&#45;&gt;roo_scheduler</title>
<path fill="none" stroke="black" d="M178.67,-416.88C212.97,-401.6 262.19,-379.67 298.91,-363.31"/>
<polygon fill="black" stroke="black" points="300.72,-366.34 308.43,-359.07 297.87,-359.94 300.72,-366.34"/>
</g>
<!-- roo_quantity&#45;&gt;roo_logging -->
<g id="edge24" class="edge">
<title>roo_quantity&#45;&gt;roo_logging</title>
<path fill="none" stroke="black" d="M459.46,-320.96C449.68,-311.92 437.69,-300.83 427.03,-290.99"/>
<polygon fill="black" stroke="black" points="429.29,-288.31 419.57,-284.09 424.54,-293.45 429.29,-288.31"/>
</g>
<!-- roo_scheduler&#45;&gt;roo_collections -->
<g id="edge25" class="edge">
<title>roo_scheduler&#45;&gt;roo_collections</title>
<path fill="none" stroke="black" d="M407.07,-323.31C410.09,-322.52 413.07,-321.75 415.99,-321 467.41,-307.81 525.63,-293.6 569.97,-282.92"/>
<polygon fill="black" stroke="black" points="570.87,-286.31 579.78,-280.57 569.24,-279.5 570.87,-286.31"/>
</g>
<!-- roo_scheduler&#45;&gt;roo_threads -->
<g id="edge26" class="edge">
<title>roo_scheduler&#45;&gt;roo_threads</title>
<path fill="none" stroke="black" d="M340.16,-320.85C327.69,-295.22 304.83,-248.22 290.29,-218.34"/>
<polygon fill="black" stroke="black" points="293.41,-216.76 285.89,-209.3 287.12,-219.82 293.41,-216.76"/>
</g>
<!-- roo_testing -->
<g id="node18" class="node">
<title>roo_testing</title>
<polygon fill="#b1dbab" stroke="black" points="199.49,-38 102.49,-38 102.49,0 199.49,0 199.49,-38"/>
<text text-anchor="middle" x="150.99" y="-22.8" font-family="Times,serif" font-size="14.00">roo_testing</text>
<text text-anchor="middle" x="150.99" y="-7.8" font-family="Times,serif" font-size="14.00">1.3.0</text>
</g>
<!-- roo_time -->
<g id="node20" class="node">
<title>roo_time</title>
<polygon fill="#b1dbab" stroke="red" points="190.49,-134 111.49,-134 111.49,-96 190.49,-96 190.49,-134"/>
<text text-anchor="middle" x="150.99" y="-118.8" font-family="Times,serif" font-size="14.00">roo_time</text>
<text text-anchor="middle" x="150.99" y="-103.8" font-family="Times,serif" font-size="14.00">1.4.1</text>
</g>
<!-- roo_threads&#45;&gt;roo_time -->
<g id="edge27" class="edge">
<title>roo_threads&#45;&gt;roo_time</title>
<path fill="none" stroke="black" d="M245.84,-170.96C229.34,-161.39 208.87,-149.53 191.18,-139.28"/>
<polygon fill="black" stroke="black" points="192.62,-136.08 182.22,-134.09 189.11,-142.13 192.62,-136.08"/>
</g>
<!-- roo_time&#45;&gt;roo_testing -->
<g id="edge28" class="edge">
<title>roo_time&#45;&gt;roo_testing</title>
<path fill="none" stroke="red" d="M150.99,-95.88C150.99,-82.35 150.99,-63.62 150.99,-48.15"/>
<polygon fill="red" stroke="red" points="154.49,-48.07 150.99,-38.07 147.49,-48.07 154.49,-48.07"/>
<text text-anchor="middle" x="183.99" y="-70" font-family="Times,serif" font-size="10.00" fill="red">1.2.1</text>
<text text-anchor="middle" x="183.99" y="-59" font-family="Times,serif" font-size="10.00" fill="red">(latest: 1.3.0)</text>
</g>
<!-- roo_time_ds3231 -->
<g id="node21" class="node">
<title>roo_time_ds3231</title>
<polygon fill="#b1dbab" stroke="red" points="207.99,-209 69.99,-209 69.99,-171 207.99,-171 207.99,-209"/>
<text text-anchor="middle" x="138.99" y="-193.8" font-family="Times,serif" font-size="14.00">roo_time_ds3231</text>
<text text-anchor="middle" x="138.99" y="-178.8" font-family="Times,serif" font-size="14.00">1.1.5</text>
</g>
<!-- roo_time_ds3231&#45;&gt;roo_time -->
<g id="edge29" class="edge">
<title>roo_time_ds3231&#45;&gt;roo_time</title>
<path fill="none" stroke="black" d="M141.96,-170.96C143.28,-162.88 144.88,-153.18 146.36,-144.18"/>
<polygon fill="black" stroke="black" points="149.85,-144.53 148.02,-134.09 142.94,-143.39 149.85,-144.53"/>
</g>
<!-- roo_transceivers&#45;&gt;roo_prefs -->
<g id="edge30" class="edge">
<title>roo_transceivers&#45;&gt;roo_prefs</title>
<path fill="none" stroke="red" d="M146.87,-512.88C145.29,-499.35 143.1,-480.62 141.29,-465.15"/>
<polygon fill="red" stroke="red" points="144.74,-464.59 140.11,-455.07 137.79,-465.41 144.74,-464.59"/>
<text text-anchor="middle" x="177.99" y="-487" font-family="Times,serif" font-size="10.00" fill="red">1.2.7</text>
<text text-anchor="middle" x="177.99" y="-476" font-family="Times,serif" font-size="10.00" fill="red">(latest: 1.2.8)</text>
</g>
<!-- roo_transport -->
<g id="node23" class="node">
<title>roo_transport</title>
<polygon fill="plum" stroke="red" points="990.99,-455 876.99,-455 876.99,-417 990.99,-417 990.99,-455"/>
<text text-anchor="middle" x="933.99" y="-439.8" font-family="Times,serif" font-size="14.00">roo_transport</text>
<text text-anchor="middle" x="933.99" y="-424.8" font-family="Times,serif" font-size="14.00">1.1.1</text>
</g>
<!-- roo_transport&#45;&gt;roo_collections -->
<g id="edge31" class="edge">
<title>roo_transport&#45;&gt;roo_collections</title>
<path fill="none" stroke="black" d="M931.75,-416.96C927.6,-391.58 916.3,-345.68 886.99,-321 860.91,-299.04 775.43,-283.43 712.53,-274.59"/>
<polygon fill="black" stroke="black" points="712.64,-271.07 702.25,-273.17 711.68,-278 712.64,-271.07"/>
</g>
<!-- roo_transport&#45;&gt;roo_io -->
<g id="edge32" class="edge">
<title>roo_transport&#45;&gt;roo_io</title>
<path fill="none" stroke="red" d="M877.7,-416.98C839.35,-404.98 787.34,-389.23 740.99,-377 700.86,-366.41 654.51,-356.07 622.43,-349.21"/>
<polygon fill="red" stroke="red" points="623.06,-345.76 612.55,-347.11 621.6,-352.61 623.06,-345.76"/>
<text text-anchor="middle" x="847.99" y="-391" font-family="Times,serif" font-size="10.00" fill="red">2.1.3</text>
<text text-anchor="middle" x="847.99" y="-380" font-family="Times,serif" font-size="10.00" fill="red">(latest: 2.1.4)</text>
</g>
<!-- roo_wifi -->
<g id="node24" class="node">
<title>roo_wifi</title>
<polygon fill="khaki" stroke="red" points="83.99,-607 11.99,-607 11.99,-569 83.99,-569 83.99,-607"/>
<text text-anchor="middle" x="47.99" y="-591.8" font-family="Times,serif" font-size="14.00">roo_wifi</text>
<text text-anchor="middle" x="47.99" y="-576.8" font-family="Times,serif" font-size="14.00">1.1.3</text>
</g>
<!-- roo_wifi&#45;&gt;roo_prefs -->
<g id="edge33" class="edge">
<title>roo_wifi&#45;&gt;roo_prefs</title>
<path fill="none" stroke="red" d="M19.85,-568.86C14.24,-563.81 9.12,-557.81 5.99,-551 -1.07,-535.66 -2.46,-527.62 5.99,-513 23.29,-483.07 57.34,-463.89 86.53,-452.29"/>
<polygon fill="red" stroke="red" points="88.08,-455.44 96.21,-448.64 85.61,-448.89 88.08,-455.44"/>
<text text-anchor="middle" x="38.99" y="-535" font-family="Times,serif" font-size="10.00" fill="red">1.2.7</text>
<text text-anchor="middle" x="38.99" y="-524" font-family="Times,serif" font-size="10.00" fill="red">(latest: 1.2.8)</text>
</g>
<!-- roo_windows&#45;&gt;roo_icons -->
<g id="edge35" class="edge">
<title>roo_windows&#45;&gt;roo_icons</title>
<path fill="none" stroke="black" d="M577.59,-624.84C584.91,-607.32 596.09,-580.58 604.51,-560.47"/>
<polygon fill="black" stroke="black" points="607.75,-561.77 608.38,-551.19 601.3,-559.07 607.75,-561.77"/>
</g>
<!-- roo_windows&#45;&gt;roo_locale -->
<g id="edge34" class="edge">
<title>roo_windows&#45;&gt;roo_locale</title>
<path fill="none" stroke="black" d="M594.76,-624.84C620.02,-606.31 659.36,-577.46 687.19,-557.05"/>
<polygon fill="black" stroke="black" points="689.44,-559.74 695.43,-551.01 685.3,-554.1 689.44,-559.74"/>
</g>
<!-- roo_windows&#45;&gt;roo_scheduler -->
<g id="edge36" class="edge">
<title>roo_windows&#45;&gt;roo_scheduler</title>
<path fill="none" stroke="red" d="M568.72,-624.87C565.03,-577.09 552.91,-449.2 526.99,-417 512.22,-398.65 460.23,-377.6 416.23,-362.32"/>
<polygon fill="red" stroke="red" points="417.28,-358.98 406.69,-359.05 415.01,-365.6 417.28,-358.98"/>
<text text-anchor="middle" x="585.99" y="-487" font-family="Times,serif" font-size="10.00" fill="red">2.1.6</text>
<text text-anchor="middle" x="585.99" y="-476" font-family="Times,serif" font-size="10.00" fill="red">(latest: 2.1.7)</text>
</g>
<!-- roo_windows_wifi -->
<g id="node26" class="node">
<title>roo_windows_wifi</title>
<polygon fill="khaki" stroke="red" points="263.49,-759 122.49,-759 122.49,-721 263.49,-721 263.49,-759"/>
<text text-anchor="middle" x="192.99" y="-743.8" font-family="Times,serif" font-size="14.00">roo_windows_wifi</text>
<text text-anchor="middle" x="192.99" y="-728.8" font-family="Times,serif" font-size="14.00">1.1.3</text>
</g>
<!-- roo_windows_wifi&#45;&gt;roo_wifi -->
<g id="edge37" class="edge">
<title>roo_windows_wifi&#45;&gt;roo_wifi</title>
<path fill="none" stroke="black" d="M175.5,-720.91C149.81,-694.33 101.76,-644.62 72.54,-614.4"/>
<polygon fill="black" stroke="black" points="75.01,-611.91 65.54,-607.16 69.98,-616.78 75.01,-611.91"/>
</g>
<!-- roo_windows_wifi&#45;&gt;roo_windows -->
<g id="edge38" class="edge">
<title>roo_windows_wifi&#45;&gt;roo_windows</title>
<path fill="none" stroke="black" d="M263.9,-721.32C333.29,-704.02 438.06,-677.89 505.25,-661.14"/>
<polygon fill="black" stroke="black" points="506.44,-664.45 515.29,-658.64 504.74,-657.66 506.44,-664.45"/>
</g>
</g>
</svg>
