<?xml version="1.0" encoding="UTF-8" standalone="no"?>
<!DOCTYPE svg PUBLIC "-//W3C//DTD SVG 1.1//EN"
 "http://www.w3.org/Graphics/SVG/1.1/DTD/svg11.dtd">
<!-- Generated by graphviz version 2.42.4 (0)
 -->
<!-- Title: dependencies Pages: 1 -->
<svg width="1099pt" height="793pt"
 viewBox="0.00 0.00 1098.50 793.00" xmlns="http://www.w3.org/2000/svg" xmlns:xlink="http://www.w3.org/1999/xlink">
<g id="graph0" class="graph" transform="scale(1 1) rotate(0) translate(4 789)">
<title>dependencies</title>
<polygon fill="white" stroke="transparent" points="-4,4 -4,-789 1094.5,-789 1094.5,4 -4,4"/>
<!-- roo_backport -->
<g id="node1" class="node">
<title>roo_backport</title>
<polygon fill="#b1dbab" stroke="black" points="526,-230 416,-230 416,-192 526,-192 526,-230"/>
<text text-anchor="middle" x="471" y="-214.8" font-family="Times,serif" font-size="14.00">roo_backport</text>
<text text-anchor="middle" x="471" y="-199.8" font-family="Times,serif" font-size="14.00">1.2.2</text>
</g>
<!-- roo_blink -->
<g id="node2" class="node">
<title>roo_blink</title>
<polygon fill="plum" stroke="red" points="975,-593 893,-593 893,-555 975,-555 975,-593"/>
<text text-anchor="middle" x="934" y="-577.8" font-family="Times,serif" font-size="14.00">roo_blink</text>
<text text-anchor="middle" x="934" y="-562.8" font-family="Times,serif" font-size="14.00">1.0.5</text>
</g>
<!-- roo_logging -->
<g id="node13" class="node">
<title>roo_logging</title>
<polygon fill="#b1dbab" stroke="red" points="782,-326 682,-326 682,-288 782,-288 782,-326"/>
<text text-anchor="middle" x="732" y="-310.8" font-family="Times,serif" font-size="14.00">roo_logging</text>
<text text-anchor="middle" x="732" y="-295.8" font-family="Times,serif" font-size="14.00">1.5.5</text>
</g>
<!-- roo_blink&#45;&gt;roo_logging -->
<g id="edge1" class="edge">
<title>roo_blink&#45;&gt;roo_logging</title>
<path fill="none" stroke="red" d="M935.72,-554.96C938.47,-515.09 939.27,-418.63 890,-363 865.31,-335.12 825.71,-321.37 792.33,-314.59"/>
<polygon fill="red" stroke="red" points="792.67,-311.09 782.2,-312.7 791.39,-317.97 792.67,-311.09"/>
<text text-anchor="middle" x="960" y="-433" font-family="Times,serif" font-size="10.00" fill="red">1.5.3</text>
<text text-anchor="middle" x="960" y="-422" font-family="Times,serif" font-size="10.00" fill="red">(latest: 1.5.5)</text>
</g>
<!-- roo_scheduler -->
<g id="node19" class="node">
<title>roo_scheduler</title>
<polygon fill="#b1dbab" stroke="red" points="420,-497 304,-497 304,-459 420,-459 420,-497"/>
<text text-anchor="middle" x="362" y="-481.8" font-family="Times,serif" font-size="14.00">roo_scheduler</text>
<text text-anchor="middle" x="362" y="-466.8" font-family="Times,serif" font-size="14.00">2.1.8</text>
</g>
<!-- roo_blink&#45;&gt;roo_scheduler -->
<g id="edge2" class="edge">
<title>roo_blink&#45;&gt;roo_scheduler</title>
<path fill="none" stroke="red" d="M892.73,-557.42C889.79,-556.54 886.86,-555.72 884,-555 869.08,-551.26 625.27,-516.88 610,-515 530.2,-505.19 509.11,-511.33 430,-497 429.9,-496.98 429.8,-496.96 429.7,-496.94"/>
<polygon fill="red" stroke="red" points="430.59,-493.55 420.1,-495.03 429.22,-500.42 430.59,-493.55"/>
<text text-anchor="middle" x="795" y="-529" font-family="Times,serif" font-size="10.00" fill="red">2.1.7</text>
<text text-anchor="middle" x="795" y="-518" font-family="Times,serif" font-size="10.00" fill="red">(latest: 2.1.8)</text>
</g>
<!-- roo_collections -->
<g id="node3" class="node">
<title>roo_collections</title>
<polygon fill="#b1dbab" stroke="black" points="379,-401 257,-401 257,-363 379,-363 379,-401"/>
<text text-anchor="middle" x="318" y="-385.8" font-family="Times,serif" font-size="14.00">roo_collections</text>
<text text-anchor="middle" x="318" y="-370.8" font-family="Times,serif" font-size="14.00">1.4.3</text>
</g>
<!-- roo_collections&#45;&gt;roo_backport -->
<g id="edge3" class="edge">
<title>roo_collections&#45;&gt;roo_backport</title>
<path fill="none" stroke="black" d="M324.12,-362.75C334.34,-334.72 357.34,-280.88 393,-248 398.28,-243.13 404.33,-238.83 410.67,-235.04"/>
<polygon fill="black" stroke="black" points="412.4,-238.08 419.46,-230.19 409.01,-231.95 412.4,-238.08"/>
</g>
<!-- roo_comms -->
<g id="node4" class="node">
<title>roo_comms</title>
<polygon fill="plum" stroke="red" points="785.5,-785 688.5,-785 688.5,-747 785.5,-747 785.5,-785"/>
<text text-anchor="middle" x="737" y="-769.8" font-family="Times,serif" font-size="14.00">roo_comms</text>
<text text-anchor="middle" x="737" y="-754.8" font-family="Times,serif" font-size="14.00">1.1.3</text>
</g>
<!-- roo_comms&#45;&gt;roo_blink -->
<g id="edge4" class="edge">
<title>roo_comms&#45;&gt;roo_blink</title>
<path fill="none" stroke="red" d="M755.89,-746.78C791.19,-712.74 867.24,-639.39 907.6,-600.47"/>
<polygon fill="red" stroke="red" points="910.4,-602.62 915.17,-593.16 905.54,-597.59 910.4,-602.62"/>
<text text-anchor="middle" x="888" y="-673" font-family="Times,serif" font-size="10.00" fill="red">1.0.4</text>
<text text-anchor="middle" x="888" y="-662" font-family="Times,serif" font-size="10.00" fill="red">(latest: 1.0.5)</text>
</g>
<!-- roo_control -->
<g id="node5" class="node">
<title>roo_control</title>
<polygon fill="plum" stroke="red" points="1090.5,-593 993.5,-593 993.5,-555 1090.5,-555 1090.5,-593"/>
<text text-anchor="middle" x="1042" y="-577.8" font-family="Times,serif" font-size="14.00">roo_control</text>
<text text-anchor="middle" x="1042" y="-562.8" font-family="Times,serif" font-size="14.00">1.2.4</text>
</g>
<!-- roo_comms&#45;&gt;roo_control -->
<g id="edge5" class="edge">
<title>roo_comms&#45;&gt;roo_control</title>
<path fill="none" stroke="red" d="M785.66,-750.72C824.67,-737.98 879.85,-717.02 923,-689 961.11,-664.26 997.73,-626.34 1020.05,-601.12"/>
<polygon fill="red" stroke="red" points="1022.84,-603.24 1026.77,-593.41 1017.56,-598.64 1022.84,-603.24"/>
<text text-anchor="middle" x="1003" y="-673" font-family="Times,serif" font-size="10.00" fill="red">1.2.3</text>
<text text-anchor="middle" x="1003" y="-662" font-family="Times,serif" font-size="10.00" fill="red">(latest: 1.2.4)</text>
</g>
<!-- roo_io -->
<g id="node11" class="node">
<title>roo_io</title>
<polygon fill="#b1dbab" stroke="red" points="672.5,-401 613.5,-401 613.5,-363 672.5,-363 672.5,-401"/>
<text text-anchor="middle" x="643" y="-385.8" font-family="Times,serif" font-size="14.00">roo_io</text>
<text text-anchor="middle" x="643" y="-370.8" font-family="Times,serif" font-size="14.00">2.1.5</text>
</g>
<!-- roo_comms&#45;&gt;roo_io -->
<g id="edge6" class="edge">
<title>roo_comms&#45;&gt;roo_io</title>
<path fill="none" stroke="red" d="M731.21,-746.92C721.59,-715.86 702.72,-650.16 696,-593 694.03,-576.23 694.16,-571.79 696,-555 696.89,-546.85 698.6,-545.07 700,-537 707.32,-494.73 708.09,-483.86 710,-441 710.44,-431.23 715.02,-427.39 710,-419 703.65,-408.37 692.96,-400.7 681.97,-395.25"/>
<polygon fill="red" stroke="red" points="683.31,-392.02 672.75,-391.17 680.48,-398.42 683.31,-392.02"/>
<text text-anchor="middle" x="729" y="-577" font-family="Times,serif" font-size="10.00" fill="red">2.1.1</text>
<text text-anchor="middle" x="729" y="-566" font-family="Times,serif" font-size="10.00" fill="red">(latest: 2.1.5)</text>
</g>
<!-- roo_transceivers -->
<g id="node24" class="node">
<title>roo_transceivers</title>
<polygon fill="plum" stroke="red" points="533.5,-689 398.5,-689 398.5,-651 533.5,-651 533.5,-689"/>
<text text-anchor="middle" x="466" y="-673.8" font-family="Times,serif" font-size="14.00">roo_transceivers</text>
<text text-anchor="middle" x="466" y="-658.8" font-family="Times,serif" font-size="14.00">1.1.4</text>
</g>
<!-- roo_comms&#45;&gt;roo_transceivers -->
<g id="edge7" class="edge">
<title>roo_comms&#45;&gt;roo_transceivers</title>
<path fill="none" stroke="black" d="M688.24,-748.09C643.24,-732.48 576.21,-709.23 527.54,-692.35"/>
<polygon fill="black" stroke="black" points="528.66,-689.03 518.07,-689.06 526.37,-695.64 528.66,-689.03"/>
</g>
<!-- roo_quantity -->
<g id="node18" class="node">
<title>roo_quantity</title>
<polygon fill="plum" stroke="red" points="897.5,-497 790.5,-497 790.5,-459 897.5,-459 897.5,-497"/>
<text text-anchor="middle" x="844" y="-481.8" font-family="Times,serif" font-size="14.00">roo_quantity</text>
<text text-anchor="middle" x="844" y="-466.8" font-family="Times,serif" font-size="14.00">1.1.7</text>
</g>
<!-- roo_control&#45;&gt;roo_quantity -->
<g id="edge8" class="edge">
<title>roo_control&#45;&gt;roo_quantity</title>
<path fill="none" stroke="black" d="M1006.94,-554.9C984.04,-543.22 953.42,-527.86 926,-515 916.19,-510.4 905.65,-505.64 895.5,-501.14"/>
<polygon fill="black" stroke="black" points="896.88,-497.92 886.32,-497.1 894.06,-504.33 896.88,-497.92"/>
</g>
<!-- roo_control&#45;&gt;roo_scheduler -->
<g id="edge9" class="edge">
<title>roo_control&#45;&gt;roo_scheduler</title>
<path fill="none" stroke="red" d="M993.42,-557.3C990.25,-556.47 987.09,-555.69 984,-555 927.94,-542.45 907.96,-561.51 856,-537 842.91,-530.83 845.37,-520.55 832,-515 749.41,-480.73 518.4,-510.52 430,-497 429.9,-496.98 429.8,-496.97 429.69,-496.95"/>
<polygon fill="red" stroke="red" points="430.52,-493.55 420.07,-495.24 429.3,-500.44 430.52,-493.55"/>
<text text-anchor="middle" x="889" y="-529" font-family="Times,serif" font-size="10.00" fill="red">2.1.7</text>
<text text-anchor="middle" x="889" y="-518" font-family="Times,serif" font-size="10.00" fill="red">(latest: 2.1.8)</text>
</g>
<!-- roo_dashboard -->
<g id="node6" class="node">
<title>roo_dashboard</title>
<polygon fill="plum" stroke="red" points="277,-785 155,-785 155,-747 277,-747 277,-785"/>
<text text-anchor="middle" x="216" y="-769.8" font-family="Times,serif" font-size="14.00">roo_dashboard</text>
<text text-anchor="middle" x="216" y="-754.8" font-family="Times,serif" font-size="14.00">1.0.1</text>
</g>
<!-- roo_windows -->
<g id="node27" class="node">
<title>roo_windows</title>
<polygon fill="plum" stroke="red" points="374.5,-689 265.5,-689 265.5,-651 374.5,-651 374.5,-689"/>
<text text-anchor="middle" x="320" y="-673.8" font-family="Times,serif" font-size="14.00">roo_windows</text>
<text text-anchor="middle" x="320" y="-658.8" font-family="Times,serif" font-size="14.00">1.4.2</text>
</g>
<!-- roo_dashboard&#45;&gt;roo_windows -->
<g id="edge10" class="edge">
<title>roo_dashboard&#45;&gt;roo_windows</title>
<path fill="none" stroke="red" d="M231.6,-746.94C242.21,-735.07 256.85,-719.48 271,-707 275.51,-703.02 280.45,-699.03 285.39,-695.22"/>
<polygon fill="red" stroke="red" points="287.74,-697.84 293.64,-689.04 283.54,-692.23 287.74,-697.84"/>
<text text-anchor="middle" x="304" y="-721" font-family="Times,serif" font-size="10.00" fill="red">1.4.1</text>
<text text-anchor="middle" x="304" y="-710" font-family="Times,serif" font-size="10.00" fill="red">(latest: 1.4.2)</text>
</g>
<!-- roo_display -->
<g id="node7" class="node">
<title>roo_display</title>
<polygon fill="#b1dbab" stroke="black" points="286,-497 188,-497 188,-459 286,-459 286,-497"/>
<text text-anchor="middle" x="237" y="-481.8" font-family="Times,serif" font-size="14.00">roo_display</text>
<text text-anchor="middle" x="237" y="-466.8" font-family="Times,serif" font-size="14.00">3.0.1</text>
</g>
<!-- roo_display&#45;&gt;roo_collections -->
<g id="edge11" class="edge">
<title>roo_display&#45;&gt;roo_collections</title>
<path fill="none" stroke="black" d="M252.62,-458.88C264.83,-444.7 281.98,-424.81 295.64,-408.94"/>
<polygon fill="black" stroke="black" points="298.55,-410.93 302.43,-401.07 293.25,-406.36 298.55,-410.93"/>
</g>
<!-- roo_display&#45;&gt;roo_io -->
<g id="edge12" class="edge">
<title>roo_display&#45;&gt;roo_io</title>
<path fill="none" stroke="black" d="M286.22,-461.15C289.18,-460.38 292.12,-459.65 295,-459 348.88,-446.78 365.72,-458.87 418,-441 436.83,-434.56 438.32,-425.87 457,-419 505.53,-401.15 564.61,-391.65 602.97,-386.97"/>
<polygon fill="black" stroke="black" points="603.69,-390.41 613.21,-385.78 602.88,-383.46 603.69,-390.41"/>
</g>
<!-- roo_flags -->
<g id="node8" class="node">
<title>roo_flags</title>
<polygon fill="#b1dbab" stroke="black" points="771,-230 691,-230 691,-192 771,-192 771,-230"/>
<text text-anchor="middle" x="731" y="-214.8" font-family="Times,serif" font-size="14.00">roo_flags</text>
<text text-anchor="middle" x="731" y="-199.8" font-family="Times,serif" font-size="14.00">1.2.3</text>
</g>
<!-- roo_fonts_basic -->
<g id="node9" class="node">
<title>roo_fonts_basic</title>
<polygon fill="plum" stroke="red" points="126,-593 0,-593 0,-555 126,-555 126,-593"/>
<text text-anchor="middle" x="63" y="-577.8" font-family="Times,serif" font-size="14.00">roo_fonts_basic</text>
<text text-anchor="middle" x="63" y="-562.8" font-family="Times,serif" font-size="14.00">1.0.0</text>
</g>
<!-- roo_fonts_basic&#45;&gt;roo_display -->
<g id="edge13" class="edge">
<title>roo_fonts_basic&#45;&gt;roo_display</title>
<path fill="none" stroke="red" d="M96.55,-554.88C124.47,-539.79 164.39,-518.23 194.54,-501.94"/>
<polygon fill="red" stroke="red" points="196.42,-504.9 203.55,-497.07 193.09,-498.74 196.42,-504.9"/>
<text text-anchor="middle" x="199" y="-529" font-family="Times,serif" font-size="10.00" fill="red">3.0.0</text>
<text text-anchor="middle" x="199" y="-518" font-family="Times,serif" font-size="10.00" fill="red">(latest: 3.0.1)</text>
</g>
<!-- roo_icons -->
<g id="node10" class="node">
<title>roo_icons</title>
<polygon fill="plum" stroke="red" points="333.5,-593 250.5,-593 250.5,-555 333.5,-555 333.5,-593"/>
<text text-anchor="middle" x="292" y="-577.8" font-family="Times,serif" font-size="14.00">roo_icons</text>
<text text-anchor="middle" x="292" y="-562.8" font-family="Times,serif" font-size="14.00">1.2.1</text>
</g>
<!-- roo_icons&#45;&gt;roo_display -->
<g id="edge14" class="edge">
<title>roo_icons&#45;&gt;roo_display</title>
<path fill="none" stroke="red" d="M281.4,-554.88C273.25,-540.96 261.89,-521.53 252.69,-505.82"/>
<polygon fill="red" stroke="red" points="255.64,-503.93 247.57,-497.07 249.6,-507.47 255.64,-503.93"/>
<text text-anchor="middle" x="303" y="-529" font-family="Times,serif" font-size="10.00" fill="red">2.3.1</text>
<text text-anchor="middle" x="303" y="-518" font-family="Times,serif" font-size="10.00" fill="red">(latest: 3.0.1)</text>
</g>
<!-- roo_io&#45;&gt;roo_logging -->
<g id="edge15" class="edge">
<title>roo_io&#45;&gt;roo_logging</title>
<path fill="none" stroke="black" d="M665,-362.96C676.13,-353.83 689.8,-342.62 701.88,-332.7"/>
<polygon fill="black" stroke="black" points="704.43,-335.14 709.94,-326.09 699.99,-329.73 704.43,-335.14"/>
</g>
<!-- roo_locale -->
<g id="node12" class="node">
<title>roo_locale</title>
<polygon fill="plum" stroke="black" points="232,-593 144,-593 144,-555 232,-555 232,-593"/>
<text text-anchor="middle" x="188" y="-577.8" font-family="Times,serif" font-size="14.00">roo_locale</text>
<text text-anchor="middle" x="188" y="-562.8" font-family="Times,serif" font-size="14.00">1.1.1</text>
</g>
<!-- roo_logging&#45;&gt;roo_backport -->
<g id="edge16" class="edge">
<title>roo_logging&#45;&gt;roo_backport</title>
<path fill="none" stroke="black" d="M712.45,-287.83C695.01,-271.79 671.42,-250.55 666,-248 620.39,-226.52 603.54,-239.35 554,-230 548.25,-228.91 542.28,-227.73 536.3,-226.51"/>
<polygon fill="black" stroke="black" points="536.78,-223.03 526.28,-224.42 535.35,-229.89 536.78,-223.03"/>
</g>
<!-- roo_logging&#45;&gt;roo_flags -->
<g id="edge17" class="edge">
<title>roo_logging&#45;&gt;roo_flags</title>
<path fill="none" stroke="black" d="M731.81,-287.88C731.66,-274.35 731.46,-255.62 731.3,-240.15"/>
<polygon fill="black" stroke="black" points="734.8,-240.03 731.19,-230.07 727.8,-240.11 734.8,-240.03"/>
</g>
<!-- roo_threads -->
<g id="node21" class="node">
<title>roo_threads</title>
<polygon fill="#b1dbab" stroke="red" points="663.5,-230 562.5,-230 562.5,-192 663.5,-192 663.5,-230"/>
<text text-anchor="middle" x="613" y="-214.8" font-family="Times,serif" font-size="14.00">roo_threads</text>
<text text-anchor="middle" x="613" y="-199.8" font-family="Times,serif" font-size="14.00">1.2.3</text>
</g>
<!-- roo_logging&#45;&gt;roo_threads -->
<g id="edge18" class="edge">
<title>roo_logging&#45;&gt;roo_threads</title>
<path fill="none" stroke="black" d="M722.89,-287.84C715.86,-275.31 705.13,-259 692,-248 686.07,-243.03 679.34,-238.61 672.37,-234.71"/>
<polygon fill="black" stroke="black" points="673.95,-231.58 663.46,-230.06 670.7,-237.79 673.95,-231.58"/>
</g>
<!-- roo_monitoring -->
<g id="node14" class="node">
<title>roo_monitoring</title>
<polygon fill="plum" stroke="red" points="563.5,-497 438.5,-497 438.5,-459 563.5,-459 563.5,-497"/>
<text text-anchor="middle" x="501" y="-481.8" font-family="Times,serif" font-size="14.00">roo_monitoring</text>
<text text-anchor="middle" x="501" y="-466.8" font-family="Times,serif" font-size="14.00">1.0.0</text>
</g>
<!-- roo_monitoring&#45;&gt;roo_collections -->
<g id="edge19" class="edge">
<title>roo_monitoring&#45;&gt;roo_collections</title>
<path fill="none" stroke="red" d="M438.31,-460.73C422.41,-455.47 405.69,-448.91 391,-441 374.36,-432.04 357.71,-419.19 344.52,-407.86"/>
<polygon fill="red" stroke="red" points="346.61,-405.03 336.79,-401.05 341.98,-410.28 346.61,-405.03"/>
<text text-anchor="middle" x="424" y="-433" font-family="Times,serif" font-size="10.00" fill="red">1.4.1</text>
<text text-anchor="middle" x="424" y="-422" font-family="Times,serif" font-size="10.00" fill="red">(latest: 1.4.3)</text>
</g>
<!-- roo_monitoring&#45;&gt;roo_io -->
<g id="edge20" class="edge">
<title>roo_monitoring&#45;&gt;roo_io</title>
<path fill="none" stroke="red" d="M478.47,-458.88C466.39,-446.98 455.88,-431.39 466,-419 482.97,-398.23 556.29,-389.14 603.08,-385.4"/>
<polygon fill="red" stroke="red" points="603.49,-388.88 613.2,-384.64 602.97,-381.9 603.49,-388.88"/>
<text text-anchor="middle" x="499" y="-433" font-family="Times,serif" font-size="10.00" fill="red">2.1.4</text>
<text text-anchor="middle" x="499" y="-422" font-family="Times,serif" font-size="10.00" fill="red">(latest: 2.1.5)</text>
</g>
<!-- roo_onewire -->
<g id="node15" class="node">
<title>roo_onewire</title>
<polygon fill="plum" stroke="red" points="875,-593 771,-593 771,-555 875,-555 875,-593"/>
<text text-anchor="middle" x="823" y="-577.8" font-family="Times,serif" font-size="14.00">roo_onewire</text>
<text text-anchor="middle" x="823" y="-562.8" font-family="Times,serif" font-size="14.00">2.0.8</text>
</g>
<!-- roo_onewire&#45;&gt;roo_quantity -->
<g id="edge22" class="edge">
<title>roo_onewire&#45;&gt;roo_quantity</title>
<path fill="none" stroke="black" d="M827.05,-554.88C830.07,-541.35 834.26,-522.62 837.71,-507.15"/>
<polygon fill="black" stroke="black" points="841.2,-507.59 839.96,-497.07 834.37,-506.06 841.2,-507.59"/>
</g>
<!-- roo_onewire&#45;&gt;roo_scheduler -->
<g id="edge21" class="edge">
<title>roo_onewire&#45;&gt;roo_scheduler</title>
<path fill="none" stroke="red" d="M770.96,-557.87C766.26,-556.79 761.56,-555.81 757,-555 663.45,-538.43 637.1,-555.95 544,-537 513.29,-530.75 506.84,-524.57 477,-515 461.88,-510.15 445.63,-505.02 430.23,-500.19"/>
<polygon fill="red" stroke="red" points="430.85,-496.71 420.26,-497.06 428.76,-503.39 430.85,-496.71"/>
<text text-anchor="middle" x="577" y="-529" font-family="Times,serif" font-size="10.00" fill="red">2.1.7</text>
<text text-anchor="middle" x="577" y="-518" font-family="Times,serif" font-size="10.00" fill="red">(latest: 2.1.8)</text>
</g>
<!-- roo_powersafefs -->
<g id="node16" class="node">
<title>roo_powersafefs</title>
<polygon fill="plum" stroke="red" points="663.5,-326 530.5,-326 530.5,-288 663.5,-288 663.5,-326"/>
<text text-anchor="middle" x="597" y="-310.8" font-family="Times,serif" font-size="14.00">roo_powersafefs</text>
<text text-anchor="middle" x="597" y="-295.8" font-family="Times,serif" font-size="14.00">1.0.0</text>
</g>
<!-- roo_powersafefs&#45;&gt;roo_threads -->
<g id="edge23" class="edge">
<title>roo_powersafefs&#45;&gt;roo_threads</title>
<path fill="none" stroke="red" d="M600.08,-287.88C602.39,-274.35 605.58,-255.62 608.21,-240.15"/>
<polygon fill="red" stroke="red" points="611.7,-240.51 609.92,-230.07 604.8,-239.34 611.7,-240.51"/>
<text text-anchor="middle" x="639" y="-262" font-family="Times,serif" font-size="10.00" fill="red">1.2.1</text>
<text text-anchor="middle" x="639" y="-251" font-family="Times,serif" font-size="10.00" fill="red">(latest: 1.2.3)</text>
</g>
<!-- roo_prefs -->
<g id="node17" class="node">
<title>roo_prefs</title>
<polygon fill="plum" stroke="red" points="549.5,-593 466.5,-593 466.5,-555 549.5,-555 549.5,-593"/>
<text text-anchor="middle" x="508" y="-577.8" font-family="Times,serif" font-size="14.00">roo_prefs</text>
<text text-anchor="middle" x="508" y="-562.8" font-family="Times,serif" font-size="14.00">1.2.8</text>
</g>
<!-- roo_prefs&#45;&gt;roo_logging -->
<g id="edge24" class="edge">
<title>roo_prefs&#45;&gt;roo_logging</title>
<path fill="none" stroke="red" d="M549.51,-568.19C616.48,-560.23 741.57,-544.46 748,-537 773.3,-507.63 750.91,-390.66 738.7,-336.19"/>
<polygon fill="red" stroke="red" points="742.05,-335.14 736.41,-326.17 735.23,-336.7 742.05,-335.14"/>
<text text-anchor="middle" x="789" y="-433" font-family="Times,serif" font-size="10.00" fill="red">1.5.3</text>
<text text-anchor="middle" x="789" y="-422" font-family="Times,serif" font-size="10.00" fill="red">(latest: 1.5.5)</text>
</g>
<!-- roo_prefs&#45;&gt;roo_scheduler -->
<g id="edge25" class="edge">
<title>roo_prefs&#45;&gt;roo_scheduler</title>
<path fill="none" stroke="red" d="M466.08,-562.62C448.09,-556.9 427.46,-548.56 411,-537 398.88,-528.49 387.96,-516.27 379.52,-505.25"/>
<polygon fill="red" stroke="red" points="382.31,-503.13 373.57,-497.13 376.66,-507.26 382.31,-503.13"/>
<text text-anchor="middle" x="444" y="-529" font-family="Times,serif" font-size="10.00" fill="red">2.1.7</text>
<text text-anchor="middle" x="444" y="-518" font-family="Times,serif" font-size="10.00" fill="red">(latest: 2.1.8)</text>
</g>
<!-- roo_quantity&#45;&gt;roo_logging -->
<g id="edge26" class="edge">
<title>roo_quantity&#45;&gt;roo_logging</title>
<path fill="none" stroke="red" d="M841.07,-458.91C838.75,-447.17 834.91,-431.74 829,-419 811.83,-381.97 803.83,-373.86 776,-344 772.47,-340.22 768.55,-336.47 764.53,-332.91"/>
<polygon fill="red" stroke="red" points="766.67,-330.14 756.78,-326.33 762.14,-335.47 766.67,-330.14"/>
<text text-anchor="middle" x="853" y="-385" font-family="Times,serif" font-size="10.00" fill="red">1.5.3</text>
<text text-anchor="middle" x="853" y="-374" font-family="Times,serif" font-size="10.00" fill="red">(latest: 1.5.5)</text>
</g>
<!-- roo_scheduler&#45;&gt;roo_collections -->
<g id="edge27" class="edge">
<title>roo_scheduler&#45;&gt;roo_collections</title>
<path fill="none" stroke="black" d="M323.38,-458.94C316.8,-454.07 310.85,-448.13 307,-441 302.03,-431.8 302.76,-420.73 305.45,-410.73"/>
<polygon fill="black" stroke="black" points="308.78,-411.8 308.65,-401.2 302.15,-409.57 308.78,-411.8"/>
</g>
<!-- roo_scheduler&#45;&gt;roo_threads -->
<g id="edge28" class="edge">
<title>roo_scheduler&#45;&gt;roo_threads</title>
<path fill="none" stroke="black" d="M377.81,-458.72C382.69,-453.05 388.08,-446.78 393,-441 450.69,-373.3 458.96,-350.75 522,-288 540.47,-269.62 562.93,-250.83 580.91,-236.53"/>
<polygon fill="black" stroke="black" points="583.14,-239.23 588.83,-230.29 578.81,-233.73 583.14,-239.23"/>
</g>
<!-- roo_testing -->
<g id="node20" class="node">
<title>roo_testing</title>
<polygon fill="#b1dbab" stroke="black" points="783.5,-38 686.5,-38 686.5,0 783.5,0 783.5,-38"/>
<text text-anchor="middle" x="735" y="-22.8" font-family="Times,serif" font-size="14.00">roo_testing</text>
<text text-anchor="middle" x="735" y="-7.8" font-family="Times,serif" font-size="14.00">1.3.4</text>
</g>
<!-- roo_time -->
<g id="node22" class="node">
<title>roo_time</title>
<polygon fill="#b1dbab" stroke="red" points="774.5,-134 695.5,-134 695.5,-96 774.5,-96 774.5,-134"/>
<text text-anchor="middle" x="735" y="-118.8" font-family="Times,serif" font-size="14.00">roo_time</text>
<text text-anchor="middle" x="735" y="-103.8" font-family="Times,serif" font-size="14.00">1.4.3</text>
</g>
<!-- roo_threads&#45;&gt;roo_time -->
<g id="edge29" class="edge">
<title>roo_threads&#45;&gt;roo_time</title>
<path fill="none" stroke="black" d="M636.52,-191.88C655.59,-177.18 682.65,-156.34 703.57,-140.21"/>
<polygon fill="black" stroke="black" points="705.76,-142.94 711.55,-134.07 701.49,-137.4 705.76,-142.94"/>
</g>
<!-- roo_time&#45;&gt;roo_testing -->
<g id="edge30" class="edge">
<title>roo_time&#45;&gt;roo_testing</title>
<path fill="none" stroke="red" d="M735,-95.88C735,-82.35 735,-63.62 735,-48.15"/>
<polygon fill="red" stroke="red" points="738.5,-48.07 735,-38.07 731.5,-48.07 738.5,-48.07"/>
<text text-anchor="middle" x="768" y="-70" font-family="Times,serif" font-size="10.00" fill="red">1.3.2</text>
<text text-anchor="middle" x="768" y="-59" font-family="Times,serif" font-size="10.00" fill="red">(latest: 1.3.4)</text>
</g>
<!-- roo_time_ds3231 -->
<g id="node23" class="node">
<title>roo_time_ds3231</title>
<polygon fill="plum" stroke="red" points="927,-230 789,-230 789,-192 927,-192 927,-230"/>
<text text-anchor="middle" x="858" y="-214.8" font-family="Times,serif" font-size="14.00">roo_time_ds3231</text>
<text text-anchor="middle" x="858" y="-199.8" font-family="Times,serif" font-size="14.00">1.1.5</text>
</g>
<!-- roo_time_ds3231&#45;&gt;roo_time -->
<g id="edge31" class="edge">
<title>roo_time_ds3231&#45;&gt;roo_time</title>
<path fill="none" stroke="red" d="M834.28,-191.88C815.06,-177.18 787.78,-156.34 766.68,-140.21"/>
<polygon fill="red" stroke="red" points="768.71,-137.36 758.64,-134.07 764.46,-142.92 768.71,-137.36"/>
<text text-anchor="middle" x="840" y="-166" font-family="Times,serif" font-size="10.00" fill="red">1.4.1</text>
<text text-anchor="middle" x="840" y="-155" font-family="Times,serif" font-size="10.00" fill="red">(latest: 1.4.3)</text>
</g>
<!-- roo_transceivers&#45;&gt;roo_prefs -->
<g id="edge32" class="edge">
<title>roo_transceivers&#45;&gt;roo_prefs</title>
<path fill="none" stroke="red" d="M473.61,-650.9C478.49,-639.43 485,-624.29 491,-611 492.27,-608.19 493.61,-605.27 494.96,-602.36"/>
<polygon fill="red" stroke="red" points="498.15,-603.8 499.23,-593.26 491.81,-600.83 498.15,-603.8"/>
<text text-anchor="middle" x="524" y="-625" font-family="Times,serif" font-size="10.00" fill="red">1.2.7</text>
<text text-anchor="middle" x="524" y="-614" font-family="Times,serif" font-size="10.00" fill="red">(latest: 1.2.8)</text>
</g>
<!-- roo_transport -->
<g id="node25" class="node">
<title>roo_transport</title>
<polygon fill="plum" stroke="red" points="696,-497 582,-497 582,-459 696,-459 696,-497"/>
<text text-anchor="middle" x="639" y="-481.8" font-family="Times,serif" font-size="14.00">roo_transport</text>
<text text-anchor="middle" x="639" y="-466.8" font-family="Times,serif" font-size="14.00">1.1.1</text>
</g>
<!-- roo_transport&#45;&gt;roo_collections -->
<g id="edge33" class="edge">
<title>roo_transport&#45;&gt;roo_collections</title>
<path fill="none" stroke="red" d="M603.74,-458.98C592.87,-453.32 580.89,-446.99 570,-441 552.9,-431.6 550.36,-425.61 532,-419 486.06,-402.45 431.78,-393.43 389.39,-388.56"/>
<polygon fill="red" stroke="red" points="389.75,-385.08 379.43,-387.47 388.99,-392.04 389.75,-385.08"/>
<text text-anchor="middle" x="603" y="-433" font-family="Times,serif" font-size="10.00" fill="red">1.4.1</text>
<text text-anchor="middle" x="603" y="-422" font-family="Times,serif" font-size="10.00" fill="red">(latest: 1.4.3)</text>
</g>
<!-- roo_transport&#45;&gt;roo_io -->
<g id="edge34" class="edge">
<title>roo_transport&#45;&gt;roo_io</title>
<path fill="none" stroke="red" d="M639.77,-458.88C640.35,-445.35 641.14,-426.62 641.8,-411.15"/>
<polygon fill="red" stroke="red" points="645.3,-411.21 642.23,-401.07 638.31,-410.91 645.3,-411.21"/>
<text text-anchor="middle" x="674" y="-433" font-family="Times,serif" font-size="10.00" fill="red">2.1.3</text>
<text text-anchor="middle" x="674" y="-422" font-family="Times,serif" font-size="10.00" fill="red">(latest: 2.1.5)</text>
</g>
<!-- roo_wifi -->
<g id="node26" class="node">
<title>roo_wifi</title>
<polygon fill="plum" stroke="red" points="624,-689 552,-689 552,-651 624,-651 624,-689"/>
<text text-anchor="middle" x="588" y="-673.8" font-family="Times,serif" font-size="14.00">roo_wifi</text>
<text text-anchor="middle" x="588" y="-658.8" font-family="Times,serif" font-size="14.00">1.1.3</text>
</g>
<!-- roo_wifi&#45;&gt;roo_prefs -->
<g id="edge35" class="edge">
<title>roo_wifi&#45;&gt;roo_prefs</title>
<path fill="none" stroke="red" d="M580.89,-650.98C575.52,-638.83 567.32,-622.91 557,-611 553.41,-606.86 549.27,-602.92 544.94,-599.27"/>
<polygon fill="red" stroke="red" points="547.05,-596.47 537.03,-593.03 542.71,-601.97 547.05,-596.47"/>
<text text-anchor="middle" x="604" y="-625" font-family="Times,serif" font-size="10.00" fill="red">1.2.7</text>
<text text-anchor="middle" x="604" y="-614" font-family="Times,serif" font-size="10.00" fill="red">(latest: 1.2.8)</text>
</g>
<!-- roo_windows&#45;&gt;roo_icons -->
<g id="edge37" class="edge">
<title>roo_windows&#45;&gt;roo_icons</title>
<path fill="none" stroke="black" d="M314.6,-650.88C310.53,-637.22 304.89,-618.26 300.25,-602.71"/>
<polygon fill="black" stroke="black" points="303.59,-601.65 297.38,-593.07 296.88,-603.65 303.59,-601.65"/>
</g>
<!-- roo_windows&#45;&gt;roo_locale -->
<g id="edge36" class="edge">
<title>roo_windows&#45;&gt;roo_locale</title>
<path fill="none" stroke="black" d="M294.55,-650.88C273.82,-636.12 244.39,-615.15 221.7,-599"/>
<polygon fill="black" stroke="black" points="223.55,-596.02 213.37,-593.07 219.49,-601.72 223.55,-596.02"/>
</g>
<!-- roo_windows&#45;&gt;roo_scheduler -->
<g id="edge38" class="edge">
<title>roo_windows&#45;&gt;roo_scheduler</title>
<path fill="none" stroke="red" d="M325.9,-650.72C330.68,-635.41 337.38,-612.94 342,-593 348.7,-564.1 354.32,-530.63 357.88,-507.46"/>
<polygon fill="red" stroke="red" points="361.39,-507.7 359.42,-497.29 354.46,-506.65 361.39,-507.7"/>
<text text-anchor="middle" x="383" y="-577" font-family="Times,serif" font-size="10.00" fill="red">2.1.6</text>
<text text-anchor="middle" x="383" y="-566" font-family="Times,serif" font-size="10.00" fill="red">(latest: 2.1.8)</text>
</g>
<!-- roo_windows_transceivers -->
<g id="node28" class="node">
<title>roo_windows_transceivers</title>
<polygon fill="plum" stroke="red" points="499,-785 295,-785 295,-747 499,-747 499,-785"/>
<text text-anchor="middle" x="397" y="-769.8" font-family="Times,serif" font-size="14.00">roo_windows_transceivers</text>
<text text-anchor="middle" x="397" y="-754.8" font-family="Times,serif" font-size="14.00">1.0.0</text>
</g>
<!-- roo_windows_transceivers&#45;&gt;roo_transceivers -->
<g id="edge39" class="edge">
<title>roo_windows_transceivers&#45;&gt;roo_transceivers</title>
<path fill="none" stroke="red" d="M410.3,-746.88C420.61,-732.83 435.05,-713.17 446.63,-697.38"/>
<polygon fill="red" stroke="red" points="449.64,-699.2 452.74,-689.07 444,-695.06 449.64,-699.2"/>
<text text-anchor="middle" x="470" y="-721" font-family="Times,serif" font-size="10.00" fill="red">1.1.3</text>
<text text-anchor="middle" x="470" y="-710" font-family="Times,serif" font-size="10.00" fill="red">(latest: 1.1.4)</text>
</g>
<!-- roo_windows_transceivers&#45;&gt;roo_windows -->
<g id="edge40" class="edge">
<title>roo_windows_transceivers&#45;&gt;roo_windows</title>
<path fill="none" stroke="red" d="M373.74,-746.68C367.62,-741.32 361.27,-735.22 356,-729 348.02,-719.58 340.58,-708.23 334.56,-698.08"/>
<polygon fill="red" stroke="red" points="337.46,-696.11 329.45,-689.18 331.39,-699.59 337.46,-696.11"/>
<text text-anchor="middle" x="389" y="-721" font-family="Times,serif" font-size="10.00" fill="red">1.4.1</text>
<text text-anchor="middle" x="389" y="-710" font-family="Times,serif" font-size="10.00" fill="red">(latest: 1.4.2)</text>
</g>
<!-- roo_windows_wifi -->
<g id="node29" class="node">
<title>roo_windows_wifi</title>
<polygon fill="plum" stroke="red" points="658.5,-785 517.5,-785 517.5,-747 658.5,-747 658.5,-785"/>
<text text-anchor="middle" x="588" y="-769.8" font-family="Times,serif" font-size="14.00">roo_windows_wifi</text>
<text text-anchor="middle" x="588" y="-754.8" font-family="Times,serif" font-size="14.00">1.1.3</text>
</g>
<!-- roo_windows_wifi&#45;&gt;roo_wifi -->
<g id="edge41" class="edge">
<title>roo_windows_wifi&#45;&gt;roo_wifi</title>
<path fill="none" stroke="black" d="M588,-746.88C588,-733.35 588,-714.62 588,-699.15"/>
<polygon fill="black" stroke="black" points="591.5,-699.07 588,-689.07 584.5,-699.07 591.5,-699.07"/>
</g>
<!-- roo_windows_wifi&#45;&gt;roo_windows -->
<g id="edge42" class="edge">
<title>roo_windows_wifi&#45;&gt;roo_windows</title>
<path fill="none" stroke="black" d="M568.3,-746.8C552.82,-733.56 530.07,-716.39 507,-707 457.86,-687.01 440.96,-699.71 389,-689 387.56,-688.7 386.11,-688.4 384.64,-688.08"/>
<polygon fill="black" stroke="black" points="385.39,-684.66 374.87,-685.86 383.85,-691.49 385.39,-684.66"/>
</g>
</g>
</svg>
