<?xml version="1.0" encoding="UTF-8" standalone="no"?>
<!DOCTYPE svg PUBLIC "-//W3C//DTD SVG 1.1//EN"
 "http://www.w3.org/Graphics/SVG/1.1/DTD/svg11.dtd">
<!-- Generated by graphviz version 2.42.4 (0)
 -->
<!-- Title: dependencies Pages: 1 -->
<svg width="1100pt" height="793pt"
 viewBox="0.00 0.00 1099.50 793.00" xmlns="http://www.w3.org/2000/svg" xmlns:xlink="http://www.w3.org/1999/xlink">
<g id="graph0" class="graph" transform="scale(1 1) rotate(0) translate(4 789)">
<title>dependencies</title>
<polygon fill="white" stroke="transparent" points="-4,4 -4,-789 1095.5,-789 1095.5,4 -4,4"/>
<!-- roo_backport -->
<g id="node1" class="node">
<title>roo_backport</title>
<polygon fill="#b1dbab" stroke="black" points="521,-230 411,-230 411,-192 521,-192 521,-230"/>
<text text-anchor="middle" x="466" y="-214.8" font-family="Times,serif" font-size="14.00">roo_backport</text>
<text text-anchor="middle" x="466" y="-199.8" font-family="Times,serif" font-size="14.00">1.2.2</text>
</g>
<!-- roo_blink -->
<g id="node2" class="node">
<title>roo_blink</title>
<polygon fill="plum" stroke="red" points="976,-593 894,-593 894,-555 976,-555 976,-593"/>
<text text-anchor="middle" x="935" y="-577.8" font-family="Times,serif" font-size="14.00">roo_blink</text>
<text text-anchor="middle" x="935" y="-562.8" font-family="Times,serif" font-size="14.00">1.0.5</text>
</g>
<!-- roo_logging -->
<g id="node13" class="node">
<title>roo_logging</title>
<polygon fill="#b1dbab" stroke="red" points="777,-326 677,-326 677,-288 777,-288 777,-326"/>
<text text-anchor="middle" x="727" y="-310.8" font-family="Times,serif" font-size="14.00">roo_logging</text>
<text text-anchor="middle" x="727" y="-295.8" font-family="Times,serif" font-size="14.00">1.5.5</text>
</g>
<!-- roo_blink&#45;&gt;roo_logging -->
<g id="edge1" class="edge">
<title>roo_blink&#45;&gt;roo_logging</title>
<path fill="none" stroke="red" d="M936.76,-554.92C939.61,-514.97 940.59,-418.35 891,-363 864.74,-333.68 822.38,-319.97 787.29,-313.57"/>
<polygon fill="red" stroke="red" points="787.58,-310.06 777.14,-311.88 786.43,-316.97 787.58,-310.06"/>
<text text-anchor="middle" x="961" y="-433" font-family="Times,serif" font-size="10.00" fill="red">1.5.3</text>
<text text-anchor="middle" x="961" y="-422" font-family="Times,serif" font-size="10.00" fill="red">(latest: 1.5.5)</text>
</g>
<!-- roo_scheduler -->
<g id="node19" class="node">
<title>roo_scheduler</title>
<polygon fill="khaki" stroke="black" points="421,-497 305,-497 305,-459 421,-459 421,-497"/>
<text text-anchor="middle" x="363" y="-481.8" font-family="Times,serif" font-size="14.00">roo_scheduler</text>
<text text-anchor="middle" x="363" y="-466.8" font-family="Times,serif" font-size="14.00">2.1.8</text>
</g>
<!-- roo_blink&#45;&gt;roo_scheduler -->
<g id="edge2" class="edge">
<title>roo_blink&#45;&gt;roo_scheduler</title>
<path fill="none" stroke="red" d="M893.73,-557.4C890.8,-556.52 887.87,-555.71 885,-555 853.85,-547.3 630.85,-518.93 599,-515 524.47,-505.8 504.84,-510.65 431,-497 430.9,-496.98 430.8,-496.96 430.7,-496.94"/>
<polygon fill="red" stroke="red" points="431.6,-493.56 421.11,-495 430.21,-500.42 431.6,-493.56"/>
<text text-anchor="middle" x="798" y="-529" font-family="Times,serif" font-size="10.00" fill="red">2.1.7</text>
<text text-anchor="middle" x="798" y="-518" font-family="Times,serif" font-size="10.00" fill="red">(latest: 2.1.8)</text>
</g>
<!-- roo_collections -->
<g id="node3" class="node">
<title>roo_collections</title>
<polygon fill="#b1dbab" stroke="black" points="380,-401 258,-401 258,-363 380,-363 380,-401"/>
<text text-anchor="middle" x="319" y="-385.8" font-family="Times,serif" font-size="14.00">roo_collections</text>
<text text-anchor="middle" x="319" y="-370.8" font-family="Times,serif" font-size="14.00">1.4.3</text>
</g>
<!-- roo_collections&#45;&gt;roo_backport -->
<g id="edge3" class="edge">
<title>roo_collections&#45;&gt;roo_backport</title>
<path fill="none" stroke="black" d="M325.24,-362.88C335.63,-335.03 358.85,-281.44 394,-248 398.97,-243.28 404.67,-239.04 410.65,-235.28"/>
<polygon fill="black" stroke="black" points="412.67,-238.16 419.56,-230.11 409.15,-232.1 412.67,-238.16"/>
</g>
<!-- roo_comms -->
<g id="node4" class="node">
<title>roo_comms</title>
<polygon fill="plum" stroke="red" points="759.5,-785 662.5,-785 662.5,-747 759.5,-747 759.5,-785"/>
<text text-anchor="middle" x="711" y="-769.8" font-family="Times,serif" font-size="14.00">roo_comms</text>
<text text-anchor="middle" x="711" y="-754.8" font-family="Times,serif" font-size="14.00">1.1.3</text>
</g>
<!-- roo_comms&#45;&gt;roo_blink -->
<g id="edge4" class="edge">
<title>roo_comms&#45;&gt;roo_blink</title>
<path fill="none" stroke="red" d="M732.48,-746.78C772.87,-712.52 860.17,-638.47 905.83,-599.74"/>
<polygon fill="red" stroke="red" points="908.22,-602.3 913.59,-593.16 903.7,-596.96 908.22,-602.3"/>
<text text-anchor="middle" x="878" y="-673" font-family="Times,serif" font-size="10.00" fill="red">1.0.4</text>
<text text-anchor="middle" x="878" y="-662" font-family="Times,serif" font-size="10.00" fill="red">(latest: 1.0.5)</text>
</g>
<!-- roo_control -->
<g id="node5" class="node">
<title>roo_control</title>
<polygon fill="plum" stroke="red" points="1091.5,-593 994.5,-593 994.5,-555 1091.5,-555 1091.5,-593"/>
<text text-anchor="middle" x="1043" y="-577.8" font-family="Times,serif" font-size="14.00">roo_control</text>
<text text-anchor="middle" x="1043" y="-562.8" font-family="Times,serif" font-size="14.00">1.2.4</text>
</g>
<!-- roo_comms&#45;&gt;roo_control -->
<g id="edge5" class="edge">
<title>roo_comms&#45;&gt;roo_control</title>
<path fill="none" stroke="red" d="M759.86,-752.36C802.69,-740.02 865.63,-718.74 915,-689 955.89,-664.37 995.79,-625.85 1019.89,-600.51"/>
<polygon fill="red" stroke="red" points="1022.55,-602.79 1026.85,-593.1 1017.45,-598 1022.55,-602.79"/>
<text text-anchor="middle" x="998" y="-673" font-family="Times,serif" font-size="10.00" fill="red">1.2.3</text>
<text text-anchor="middle" x="998" y="-662" font-family="Times,serif" font-size="10.00" fill="red">(latest: 1.2.4)</text>
</g>
<!-- roo_io -->
<g id="node11" class="node">
<title>roo_io</title>
<polygon fill="#b1dbab" stroke="red" points="673.5,-401 614.5,-401 614.5,-363 673.5,-363 673.5,-401"/>
<text text-anchor="middle" x="644" y="-385.8" font-family="Times,serif" font-size="14.00">roo_io</text>
<text text-anchor="middle" x="644" y="-370.8" font-family="Times,serif" font-size="14.00">2.1.5</text>
</g>
<!-- roo_comms&#45;&gt;roo_io -->
<g id="edge6" class="edge">
<title>roo_comms&#45;&gt;roo_io</title>
<path fill="none" stroke="red" d="M709.05,-746.95C705.77,-715.66 699.29,-649.28 697,-593 696.31,-576.13 695.7,-571.84 697,-555 701.67,-494.42 742.18,-471.15 711,-419 704.65,-408.37 693.96,-400.7 682.97,-395.25"/>
<polygon fill="red" stroke="red" points="684.31,-392.02 673.75,-391.17 681.48,-398.42 684.31,-392.02"/>
<text text-anchor="middle" x="730" y="-577" font-family="Times,serif" font-size="10.00" fill="red">2.1.1</text>
<text text-anchor="middle" x="730" y="-566" font-family="Times,serif" font-size="10.00" fill="red">(latest: 2.1.5)</text>
</g>
<!-- roo_transceivers -->
<g id="node24" class="node">
<title>roo_transceivers</title>
<polygon fill="plum" stroke="red" points="518.5,-689 383.5,-689 383.5,-651 518.5,-651 518.5,-689"/>
<text text-anchor="middle" x="451" y="-673.8" font-family="Times,serif" font-size="14.00">roo_transceivers</text>
<text text-anchor="middle" x="451" y="-658.8" font-family="Times,serif" font-size="14.00">1.1.4</text>
</g>
<!-- roo_comms&#45;&gt;roo_transceivers -->
<g id="edge7" class="edge">
<title>roo_comms&#45;&gt;roo_transceivers</title>
<path fill="none" stroke="black" d="M662.63,-746.88C631.63,-735.33 590.51,-720.12 554,-707 540.73,-702.23 526.47,-697.19 512.92,-692.44"/>
<polygon fill="black" stroke="black" points="513.79,-689.04 503.2,-689.04 511.48,-695.65 513.79,-689.04"/>
</g>
<!-- roo_quantity -->
<g id="node18" class="node">
<title>roo_quantity</title>
<polygon fill="plum" stroke="red" points="898.5,-497 791.5,-497 791.5,-459 898.5,-459 898.5,-497"/>
<text text-anchor="middle" x="845" y="-481.8" font-family="Times,serif" font-size="14.00">roo_quantity</text>
<text text-anchor="middle" x="845" y="-466.8" font-family="Times,serif" font-size="14.00">1.1.7</text>
</g>
<!-- roo_control&#45;&gt;roo_quantity -->
<g id="edge8" class="edge">
<title>roo_control&#45;&gt;roo_quantity</title>
<path fill="none" stroke="black" d="M1007.94,-554.9C985.04,-543.22 954.42,-527.86 927,-515 917.19,-510.4 906.65,-505.64 896.5,-501.14"/>
<polygon fill="black" stroke="black" points="897.88,-497.92 887.32,-497.1 895.06,-504.33 897.88,-497.92"/>
</g>
<!-- roo_control&#45;&gt;roo_scheduler -->
<g id="edge9" class="edge">
<title>roo_control&#45;&gt;roo_scheduler</title>
<path fill="none" stroke="red" d="M994.42,-557.3C991.25,-556.47 988.09,-555.69 985,-555 928.94,-542.45 908.41,-562.64 857,-537 844.63,-530.83 847.65,-520.57 835,-515 793.88,-496.88 475.42,-503.79 431,-497 430.9,-496.98 430.8,-496.97 430.69,-496.95"/>
<polygon fill="red" stroke="red" points="431.52,-493.55 421.07,-495.25 430.3,-500.44 431.52,-493.55"/>
<text text-anchor="middle" x="890" y="-529" font-family="Times,serif" font-size="10.00" fill="red">2.1.7</text>
<text text-anchor="middle" x="890" y="-518" font-family="Times,serif" font-size="10.00" fill="red">(latest: 2.1.8)</text>
</g>
<!-- roo_dashboard -->
<g id="node6" class="node">
<title>roo_dashboard</title>
<polygon fill="plum" stroke="red" points="262,-785 140,-785 140,-747 262,-747 262,-785"/>
<text text-anchor="middle" x="201" y="-769.8" font-family="Times,serif" font-size="14.00">roo_dashboard</text>
<text text-anchor="middle" x="201" y="-754.8" font-family="Times,serif" font-size="14.00">1.0.1</text>
</g>
<!-- roo_windows -->
<g id="node27" class="node">
<title>roo_windows</title>
<polygon fill="plum" stroke="red" points="355.5,-689 246.5,-689 246.5,-651 355.5,-651 355.5,-689"/>
<text text-anchor="middle" x="301" y="-673.8" font-family="Times,serif" font-size="14.00">roo_windows</text>
<text text-anchor="middle" x="301" y="-658.8" font-family="Times,serif" font-size="14.00">1.4.2</text>
</g>
<!-- roo_dashboard&#45;&gt;roo_windows -->
<g id="edge10" class="edge">
<title>roo_dashboard&#45;&gt;roo_windows</title>
<path fill="none" stroke="red" d="M216.62,-746.79C227.05,-735 241.32,-719.56 255,-707 259.11,-703.23 263.58,-699.42 268.06,-695.75"/>
<polygon fill="red" stroke="red" points="270.43,-698.34 276.06,-689.37 266.06,-692.87 270.43,-698.34"/>
<text text-anchor="middle" x="288" y="-721" font-family="Times,serif" font-size="10.00" fill="red">1.4.1</text>
<text text-anchor="middle" x="288" y="-710" font-family="Times,serif" font-size="10.00" fill="red">(latest: 1.4.2)</text>
</g>
<!-- roo_display -->
<g id="node7" class="node">
<title>roo_display</title>
<polygon fill="#b1dbab" stroke="black" points="287,-497 189,-497 189,-459 287,-459 287,-497"/>
<text text-anchor="middle" x="238" y="-481.8" font-family="Times,serif" font-size="14.00">roo_display</text>
<text text-anchor="middle" x="238" y="-466.8" font-family="Times,serif" font-size="14.00">3.0.0</text>
</g>
<!-- roo_display&#45;&gt;roo_collections -->
<g id="edge11" class="edge">
<title>roo_display&#45;&gt;roo_collections</title>
<path fill="none" stroke="black" d="M253.62,-458.88C265.83,-444.7 282.98,-424.81 296.64,-408.94"/>
<polygon fill="black" stroke="black" points="299.55,-410.93 303.43,-401.07 294.25,-406.36 299.55,-410.93"/>
</g>
<!-- roo_display&#45;&gt;roo_io -->
<g id="edge12" class="edge">
<title>roo_display&#45;&gt;roo_io</title>
<path fill="none" stroke="black" d="M287.22,-461.15C290.18,-460.38 293.12,-459.65 296,-459 349.88,-446.78 366.72,-458.87 419,-441 437.83,-434.56 439.32,-425.87 458,-419 506.53,-401.15 565.61,-391.65 603.97,-386.97"/>
<polygon fill="black" stroke="black" points="604.69,-390.41 614.21,-385.78 603.88,-383.46 604.69,-390.41"/>
</g>
<!-- roo_flags -->
<g id="node8" class="node">
<title>roo_flags</title>
<polygon fill="#b1dbab" stroke="black" points="766,-230 686,-230 686,-192 766,-192 766,-230"/>
<text text-anchor="middle" x="726" y="-214.8" font-family="Times,serif" font-size="14.00">roo_flags</text>
<text text-anchor="middle" x="726" y="-199.8" font-family="Times,serif" font-size="14.00">1.2.3</text>
</g>
<!-- roo_fonts_basic -->
<g id="node9" class="node">
<title>roo_fonts_basic</title>
<polygon fill="khaki" stroke="black" points="126,-593 0,-593 0,-555 126,-555 126,-593"/>
<text text-anchor="middle" x="63" y="-577.8" font-family="Times,serif" font-size="14.00">roo_fonts_basic</text>
<text text-anchor="middle" x="63" y="-562.8" font-family="Times,serif" font-size="14.00">1.0.0</text>
</g>
<!-- roo_fonts_basic&#45;&gt;roo_display -->
<g id="edge13" class="edge">
<title>roo_fonts_basic&#45;&gt;roo_display</title>
<path fill="none" stroke="black" d="M96.74,-554.88C124.83,-539.79 164.97,-518.23 195.29,-501.94"/>
<polygon fill="black" stroke="black" points="197.21,-504.88 204.36,-497.07 193.9,-498.72 197.21,-504.88"/>
</g>
<!-- roo_icons -->
<g id="node10" class="node">
<title>roo_icons</title>
<polygon fill="plum" stroke="red" points="333.5,-593 250.5,-593 250.5,-555 333.5,-555 333.5,-593"/>
<text text-anchor="middle" x="292" y="-577.8" font-family="Times,serif" font-size="14.00">roo_icons</text>
<text text-anchor="middle" x="292" y="-562.8" font-family="Times,serif" font-size="14.00">1.2.1</text>
</g>
<!-- roo_icons&#45;&gt;roo_display -->
<g id="edge14" class="edge">
<title>roo_icons&#45;&gt;roo_display</title>
<path fill="none" stroke="red" d="M281.59,-554.88C273.59,-540.96 262.43,-521.53 253.41,-505.82"/>
<polygon fill="red" stroke="red" points="256.4,-504 248.38,-497.07 250.33,-507.48 256.4,-504"/>
<text text-anchor="middle" x="303" y="-529" font-family="Times,serif" font-size="10.00" fill="red">2.3.1</text>
<text text-anchor="middle" x="303" y="-518" font-family="Times,serif" font-size="10.00" fill="red">(latest: 3.0.0)</text>
</g>
<!-- roo_io&#45;&gt;roo_logging -->
<g id="edge15" class="edge">
<title>roo_io&#45;&gt;roo_logging</title>
<path fill="none" stroke="black" d="M664.52,-362.96C674.89,-353.83 687.64,-342.62 698.91,-332.7"/>
<polygon fill="black" stroke="black" points="701.23,-335.32 706.43,-326.09 696.61,-330.07 701.23,-335.32"/>
</g>
<!-- roo_locale -->
<g id="node12" class="node">
<title>roo_locale</title>
<polygon fill="plum" stroke="black" points="232,-593 144,-593 144,-555 232,-555 232,-593"/>
<text text-anchor="middle" x="188" y="-577.8" font-family="Times,serif" font-size="14.00">roo_locale</text>
<text text-anchor="middle" x="188" y="-562.8" font-family="Times,serif" font-size="14.00">1.1.1</text>
</g>
<!-- roo_logging&#45;&gt;roo_backport -->
<g id="edge16" class="edge">
<title>roo_logging&#45;&gt;roo_backport</title>
<path fill="none" stroke="black" d="M707.45,-287.83C690.01,-271.79 666.42,-250.55 661,-248 615.39,-226.52 598.54,-239.35 549,-230 543.25,-228.91 537.28,-227.73 531.3,-226.51"/>
<polygon fill="black" stroke="black" points="531.78,-223.03 521.28,-224.42 530.35,-229.89 531.78,-223.03"/>
</g>
<!-- roo_logging&#45;&gt;roo_flags -->
<g id="edge17" class="edge">
<title>roo_logging&#45;&gt;roo_flags</title>
<path fill="none" stroke="black" d="M726.81,-287.88C726.66,-274.35 726.46,-255.62 726.3,-240.15"/>
<polygon fill="black" stroke="black" points="729.8,-240.03 726.19,-230.07 722.8,-240.11 729.8,-240.03"/>
</g>
<!-- roo_threads -->
<g id="node21" class="node">
<title>roo_threads</title>
<polygon fill="#b1dbab" stroke="red" points="658.5,-230 557.5,-230 557.5,-192 658.5,-192 658.5,-230"/>
<text text-anchor="middle" x="608" y="-214.8" font-family="Times,serif" font-size="14.00">roo_threads</text>
<text text-anchor="middle" x="608" y="-199.8" font-family="Times,serif" font-size="14.00">1.2.3</text>
</g>
<!-- roo_logging&#45;&gt;roo_threads -->
<g id="edge18" class="edge">
<title>roo_logging&#45;&gt;roo_threads</title>
<path fill="none" stroke="black" d="M717.89,-287.84C710.86,-275.31 700.13,-259 687,-248 681.07,-243.03 674.34,-238.61 667.37,-234.71"/>
<polygon fill="black" stroke="black" points="668.95,-231.58 658.46,-230.06 665.7,-237.79 668.95,-231.58"/>
</g>
<!-- roo_monitoring -->
<g id="node14" class="node">
<title>roo_monitoring</title>
<polygon fill="plum" stroke="red" points="564.5,-497 439.5,-497 439.5,-459 564.5,-459 564.5,-497"/>
<text text-anchor="middle" x="502" y="-481.8" font-family="Times,serif" font-size="14.00">roo_monitoring</text>
<text text-anchor="middle" x="502" y="-466.8" font-family="Times,serif" font-size="14.00">1.0.0</text>
</g>
<!-- roo_monitoring&#45;&gt;roo_collections -->
<g id="edge19" class="edge">
<title>roo_monitoring&#45;&gt;roo_collections</title>
<path fill="none" stroke="red" d="M439.31,-460.73C423.41,-455.47 406.69,-448.91 392,-441 375.36,-432.04 358.71,-419.19 345.52,-407.86"/>
<polygon fill="red" stroke="red" points="347.61,-405.03 337.79,-401.05 342.98,-410.28 347.61,-405.03"/>
<text text-anchor="middle" x="425" y="-433" font-family="Times,serif" font-size="10.00" fill="red">1.4.1</text>
<text text-anchor="middle" x="425" y="-422" font-family="Times,serif" font-size="10.00" fill="red">(latest: 1.4.3)</text>
</g>
<!-- roo_monitoring&#45;&gt;roo_io -->
<g id="edge20" class="edge">
<title>roo_monitoring&#45;&gt;roo_io</title>
<path fill="none" stroke="red" d="M479.47,-458.88C467.39,-446.98 456.88,-431.39 467,-419 483.97,-398.23 557.29,-389.14 604.08,-385.4"/>
<polygon fill="red" stroke="red" points="604.49,-388.88 614.2,-384.64 603.97,-381.9 604.49,-388.88"/>
<text text-anchor="middle" x="500" y="-433" font-family="Times,serif" font-size="10.00" fill="red">2.1.4</text>
<text text-anchor="middle" x="500" y="-422" font-family="Times,serif" font-size="10.00" fill="red">(latest: 2.1.5)</text>
</g>
<!-- roo_onewire -->
<g id="node15" class="node">
<title>roo_onewire</title>
<polygon fill="plum" stroke="red" points="876,-593 772,-593 772,-555 876,-555 876,-593"/>
<text text-anchor="middle" x="824" y="-577.8" font-family="Times,serif" font-size="14.00">roo_onewire</text>
<text text-anchor="middle" x="824" y="-562.8" font-family="Times,serif" font-size="14.00">2.0.8</text>
</g>
<!-- roo_onewire&#45;&gt;roo_quantity -->
<g id="edge22" class="edge">
<title>roo_onewire&#45;&gt;roo_quantity</title>
<path fill="none" stroke="black" d="M828.05,-554.88C831.07,-541.35 835.26,-522.62 838.71,-507.15"/>
<polygon fill="black" stroke="black" points="842.2,-507.59 840.96,-497.07 835.37,-506.06 842.2,-507.59"/>
</g>
<!-- roo_onewire&#45;&gt;roo_scheduler -->
<g id="edge21" class="edge">
<title>roo_onewire&#45;&gt;roo_scheduler</title>
<path fill="none" stroke="red" d="M771.96,-557.85C767.27,-556.77 762.56,-555.8 758,-555 659.18,-537.73 627.29,-571.26 533,-537 517.12,-531.23 517.34,-522.08 502,-515 472.45,-501.35 462.51,-505.17 431,-497 430.9,-496.97 430.8,-496.95 430.7,-496.92"/>
<polygon fill="red" stroke="red" points="431.79,-493.59 421.23,-494.46 430.02,-500.36 431.79,-493.59"/>
<text text-anchor="middle" x="566" y="-529" font-family="Times,serif" font-size="10.00" fill="red">2.1.7</text>
<text text-anchor="middle" x="566" y="-518" font-family="Times,serif" font-size="10.00" fill="red">(latest: 2.1.8)</text>
</g>
<!-- roo_powersafefs -->
<g id="node16" class="node">
<title>roo_powersafefs</title>
<polygon fill="plum" stroke="red" points="658.5,-326 525.5,-326 525.5,-288 658.5,-288 658.5,-326"/>
<text text-anchor="middle" x="592" y="-310.8" font-family="Times,serif" font-size="14.00">roo_powersafefs</text>
<text text-anchor="middle" x="592" y="-295.8" font-family="Times,serif" font-size="14.00">1.0.0</text>
</g>
<!-- roo_powersafefs&#45;&gt;roo_threads -->
<g id="edge23" class="edge">
<title>roo_powersafefs&#45;&gt;roo_threads</title>
<path fill="none" stroke="red" d="M595.08,-287.88C597.39,-274.35 600.58,-255.62 603.21,-240.15"/>
<polygon fill="red" stroke="red" points="606.7,-240.51 604.92,-230.07 599.8,-239.34 606.7,-240.51"/>
<text text-anchor="middle" x="634" y="-262" font-family="Times,serif" font-size="10.00" fill="red">1.2.1</text>
<text text-anchor="middle" x="634" y="-251" font-family="Times,serif" font-size="10.00" fill="red">(latest: 1.2.3)</text>
</g>
<!-- roo_prefs -->
<g id="node17" class="node">
<title>roo_prefs</title>
<polygon fill="plum" stroke="red" points="568.5,-593 485.5,-593 485.5,-555 568.5,-555 568.5,-593"/>
<text text-anchor="middle" x="527" y="-577.8" font-family="Times,serif" font-size="14.00">roo_prefs</text>
<text text-anchor="middle" x="527" y="-562.8" font-family="Times,serif" font-size="14.00">1.2.8</text>
</g>
<!-- roo_prefs&#45;&gt;roo_logging -->
<g id="edge24" class="edge">
<title>roo_prefs&#45;&gt;roo_logging</title>
<path fill="none" stroke="red" d="M568.68,-567.65C631.35,-559.4 743.19,-543.83 749,-537 774.18,-507.41 748.39,-390.56 734.55,-336.15"/>
<polygon fill="red" stroke="red" points="737.86,-334.95 731.96,-326.15 731.08,-336.7 737.86,-334.95"/>
<text text-anchor="middle" x="788" y="-433" font-family="Times,serif" font-size="10.00" fill="red">1.5.3</text>
<text text-anchor="middle" x="788" y="-422" font-family="Times,serif" font-size="10.00" fill="red">(latest: 1.5.5)</text>
</g>
<!-- roo_prefs&#45;&gt;roo_scheduler -->
<g id="edge25" class="edge">
<title>roo_prefs&#45;&gt;roo_scheduler</title>
<path fill="none" stroke="red" d="M485.49,-559.52C469.53,-553.59 451.45,-545.93 436,-537 419.87,-527.68 403.48,-515.01 390.34,-503.89"/>
<polygon fill="red" stroke="red" points="392.46,-501.1 382.6,-497.22 387.88,-506.4 392.46,-501.1"/>
<text text-anchor="middle" x="469" y="-529" font-family="Times,serif" font-size="10.00" fill="red">2.1.7</text>
<text text-anchor="middle" x="469" y="-518" font-family="Times,serif" font-size="10.00" fill="red">(latest: 2.1.8)</text>
</g>
<!-- roo_quantity&#45;&gt;roo_logging -->
<g id="edge26" class="edge">
<title>roo_quantity&#45;&gt;roo_logging</title>
<path fill="none" stroke="red" d="M842.07,-458.91C839.75,-447.17 835.91,-431.74 830,-419 812.83,-381.97 805.73,-372.99 777,-344 772.9,-339.86 768.28,-335.86 763.55,-332.11"/>
<polygon fill="red" stroke="red" points="765.65,-329.31 755.56,-326.09 761.43,-334.9 765.65,-329.31"/>
<text text-anchor="middle" x="854" y="-385" font-family="Times,serif" font-size="10.00" fill="red">1.5.3</text>
<text text-anchor="middle" x="854" y="-374" font-family="Times,serif" font-size="10.00" fill="red">(latest: 1.5.5)</text>
</g>
<!-- roo_scheduler&#45;&gt;roo_collections -->
<g id="edge27" class="edge">
<title>roo_scheduler&#45;&gt;roo_collections</title>
<path fill="none" stroke="black" d="M324.38,-458.94C317.8,-454.07 311.85,-448.13 308,-441 303.03,-431.8 303.76,-420.73 306.45,-410.73"/>
<polygon fill="black" stroke="black" points="309.78,-411.8 309.65,-401.2 303.15,-409.57 309.78,-411.8"/>
</g>
<!-- roo_scheduler&#45;&gt;roo_threads -->
<g id="edge28" class="edge">
<title>roo_scheduler&#45;&gt;roo_threads</title>
<path fill="none" stroke="black" d="M378.89,-458.79C383.78,-453.12 389.15,-446.83 394,-441 449.81,-373.93 455.88,-350.27 517,-288 535.25,-269.4 557.71,-250.61 575.75,-236.37"/>
<polygon fill="black" stroke="black" points="577.97,-239.07 583.69,-230.16 573.66,-233.56 577.97,-239.07"/>
</g>
<!-- roo_testing -->
<g id="node20" class="node">
<title>roo_testing</title>
<polygon fill="#b1dbab" stroke="black" points="778.5,-38 681.5,-38 681.5,0 778.5,0 778.5,-38"/>
<text text-anchor="middle" x="730" y="-22.8" font-family="Times,serif" font-size="14.00">roo_testing</text>
<text text-anchor="middle" x="730" y="-7.8" font-family="Times,serif" font-size="14.00">1.3.3</text>
</g>
<!-- roo_time -->
<g id="node22" class="node">
<title>roo_time</title>
<polygon fill="#b1dbab" stroke="red" points="769.5,-134 690.5,-134 690.5,-96 769.5,-96 769.5,-134"/>
<text text-anchor="middle" x="730" y="-118.8" font-family="Times,serif" font-size="14.00">roo_time</text>
<text text-anchor="middle" x="730" y="-103.8" font-family="Times,serif" font-size="14.00">1.4.3</text>
</g>
<!-- roo_threads&#45;&gt;roo_time -->
<g id="edge29" class="edge">
<title>roo_threads&#45;&gt;roo_time</title>
<path fill="none" stroke="black" d="M631.52,-191.88C650.59,-177.18 677.65,-156.34 698.57,-140.21"/>
<polygon fill="black" stroke="black" points="700.76,-142.94 706.55,-134.07 696.49,-137.4 700.76,-142.94"/>
</g>
<!-- roo_time&#45;&gt;roo_testing -->
<g id="edge30" class="edge">
<title>roo_time&#45;&gt;roo_testing</title>
<path fill="none" stroke="red" d="M730,-95.88C730,-82.35 730,-63.62 730,-48.15"/>
<polygon fill="red" stroke="red" points="733.5,-48.07 730,-38.07 726.5,-48.07 733.5,-48.07"/>
<text text-anchor="middle" x="763" y="-70" font-family="Times,serif" font-size="10.00" fill="red">1.3.2</text>
<text text-anchor="middle" x="763" y="-59" font-family="Times,serif" font-size="10.00" fill="red">(latest: 1.3.3)</text>
</g>
<!-- roo_time_ds3231 -->
<g id="node23" class="node">
<title>roo_time_ds3231</title>
<polygon fill="plum" stroke="red" points="922,-230 784,-230 784,-192 922,-192 922,-230"/>
<text text-anchor="middle" x="853" y="-214.8" font-family="Times,serif" font-size="14.00">roo_time_ds3231</text>
<text text-anchor="middle" x="853" y="-199.8" font-family="Times,serif" font-size="14.00">1.1.5</text>
</g>
<!-- roo_time_ds3231&#45;&gt;roo_time -->
<g id="edge31" class="edge">
<title>roo_time_ds3231&#45;&gt;roo_time</title>
<path fill="none" stroke="red" d="M829.28,-191.88C810.06,-177.18 782.78,-156.34 761.68,-140.21"/>
<polygon fill="red" stroke="red" points="763.71,-137.36 753.64,-134.07 759.46,-142.92 763.71,-137.36"/>
<text text-anchor="middle" x="835" y="-166" font-family="Times,serif" font-size="10.00" fill="red">1.4.1</text>
<text text-anchor="middle" x="835" y="-155" font-family="Times,serif" font-size="10.00" fill="red">(latest: 1.4.3)</text>
</g>
<!-- roo_transceivers&#45;&gt;roo_prefs -->
<g id="edge32" class="edge">
<title>roo_transceivers&#45;&gt;roo_prefs</title>
<path fill="none" stroke="red" d="M455.58,-650.85C459.32,-638.64 465.56,-622.7 475,-611 478.32,-606.89 482.23,-603.05 486.39,-599.52"/>
<polygon fill="red" stroke="red" points="488.85,-602.04 494.61,-593.15 484.56,-596.51 488.85,-602.04"/>
<text text-anchor="middle" x="508" y="-625" font-family="Times,serif" font-size="10.00" fill="red">1.2.7</text>
<text text-anchor="middle" x="508" y="-614" font-family="Times,serif" font-size="10.00" fill="red">(latest: 1.2.8)</text>
</g>
<!-- roo_transport -->
<g id="node25" class="node">
<title>roo_transport</title>
<polygon fill="plum" stroke="red" points="697,-497 583,-497 583,-459 697,-459 697,-497"/>
<text text-anchor="middle" x="640" y="-481.8" font-family="Times,serif" font-size="14.00">roo_transport</text>
<text text-anchor="middle" x="640" y="-466.8" font-family="Times,serif" font-size="14.00">1.1.1</text>
</g>
<!-- roo_transport&#45;&gt;roo_collections -->
<g id="edge33" class="edge">
<title>roo_transport&#45;&gt;roo_collections</title>
<path fill="none" stroke="red" d="M604.74,-458.98C593.87,-453.32 581.89,-446.99 571,-441 553.9,-431.6 551.36,-425.61 533,-419 487.06,-402.45 432.78,-393.43 390.39,-388.56"/>
<polygon fill="red" stroke="red" points="390.75,-385.08 380.43,-387.47 389.99,-392.04 390.75,-385.08"/>
<text text-anchor="middle" x="604" y="-433" font-family="Times,serif" font-size="10.00" fill="red">1.4.1</text>
<text text-anchor="middle" x="604" y="-422" font-family="Times,serif" font-size="10.00" fill="red">(latest: 1.4.3)</text>
</g>
<!-- roo_transport&#45;&gt;roo_io -->
<g id="edge34" class="edge">
<title>roo_transport&#45;&gt;roo_io</title>
<path fill="none" stroke="red" d="M640.77,-458.88C641.35,-445.35 642.14,-426.62 642.8,-411.15"/>
<polygon fill="red" stroke="red" points="646.3,-411.21 643.23,-401.07 639.31,-410.91 646.3,-411.21"/>
<text text-anchor="middle" x="675" y="-433" font-family="Times,serif" font-size="10.00" fill="red">2.1.3</text>
<text text-anchor="middle" x="675" y="-422" font-family="Times,serif" font-size="10.00" fill="red">(latest: 2.1.5)</text>
</g>
<!-- roo_wifi -->
<g id="node26" class="node">
<title>roo_wifi</title>
<polygon fill="plum" stroke="red" points="609,-689 537,-689 537,-651 609,-651 609,-689"/>
<text text-anchor="middle" x="573" y="-673.8" font-family="Times,serif" font-size="14.00">roo_wifi</text>
<text text-anchor="middle" x="573" y="-658.8" font-family="Times,serif" font-size="14.00">1.1.3</text>
</g>
<!-- roo_wifi&#45;&gt;roo_prefs -->
<g id="edge35" class="edge">
<title>roo_wifi&#45;&gt;roo_prefs</title>
<path fill="none" stroke="red" d="M564.13,-650.88C557.39,-637.09 547.99,-617.9 540.34,-602.26"/>
<polygon fill="red" stroke="red" points="543.38,-600.51 535.84,-593.07 537.09,-603.59 543.38,-600.51"/>
<text text-anchor="middle" x="587" y="-625" font-family="Times,serif" font-size="10.00" fill="red">1.2.7</text>
<text text-anchor="middle" x="587" y="-614" font-family="Times,serif" font-size="10.00" fill="red">(latest: 1.2.8)</text>
</g>
<!-- roo_windows&#45;&gt;roo_icons -->
<g id="edge37" class="edge">
<title>roo_windows&#45;&gt;roo_icons</title>
<path fill="none" stroke="black" d="M299.26,-650.88C297.97,-637.35 296.18,-618.62 294.7,-603.15"/>
<polygon fill="black" stroke="black" points="298.17,-602.69 293.73,-593.07 291.2,-603.36 298.17,-602.69"/>
</g>
<!-- roo_windows&#45;&gt;roo_locale -->
<g id="edge36" class="edge">
<title>roo_windows&#45;&gt;roo_locale</title>
<path fill="none" stroke="black" d="M279.21,-650.88C261.7,-636.31 236.93,-615.71 217.62,-599.64"/>
<polygon fill="black" stroke="black" points="219.65,-596.77 209.72,-593.07 215.17,-602.15 219.65,-596.77"/>
</g>
<!-- roo_windows&#45;&gt;roo_scheduler -->
<g id="edge38" class="edge">
<title>roo_windows&#45;&gt;roo_scheduler</title>
<path fill="none" stroke="red" d="M312.99,-650.7C322.25,-635.76 334.68,-613.79 342,-593 351.97,-564.69 357.45,-530.67 360.29,-507.2"/>
<polygon fill="red" stroke="red" points="363.77,-507.55 361.41,-497.22 356.81,-506.77 363.77,-507.55"/>
<text text-anchor="middle" x="386" y="-577" font-family="Times,serif" font-size="10.00" fill="red">2.1.6</text>
<text text-anchor="middle" x="386" y="-566" font-family="Times,serif" font-size="10.00" fill="red">(latest: 2.1.8)</text>
</g>
<!-- roo_windows_transceivers -->
<g id="node28" class="node">
<title>roo_windows_transceivers</title>
<polygon fill="plum" stroke="red" points="484,-785 280,-785 280,-747 484,-747 484,-785"/>
<text text-anchor="middle" x="382" y="-769.8" font-family="Times,serif" font-size="14.00">roo_windows_transceivers</text>
<text text-anchor="middle" x="382" y="-754.8" font-family="Times,serif" font-size="14.00">1.0.0</text>
</g>
<!-- roo_windows_transceivers&#45;&gt;roo_transceivers -->
<g id="edge39" class="edge">
<title>roo_windows_transceivers&#45;&gt;roo_transceivers</title>
<path fill="none" stroke="red" d="M395.3,-746.88C405.61,-732.83 420.05,-713.17 431.63,-697.38"/>
<polygon fill="red" stroke="red" points="434.64,-699.2 437.74,-689.07 429,-695.06 434.64,-699.2"/>
<text text-anchor="middle" x="456" y="-721" font-family="Times,serif" font-size="10.00" fill="red">1.1.3</text>
<text text-anchor="middle" x="456" y="-710" font-family="Times,serif" font-size="10.00" fill="red">(latest: 1.1.4)</text>
</g>
<!-- roo_windows_transceivers&#45;&gt;roo_windows -->
<g id="edge40" class="edge">
<title>roo_windows_transceivers&#45;&gt;roo_windows</title>
<path fill="none" stroke="red" d="M359.36,-746.88C353.12,-741.43 346.54,-735.23 341,-729 332.45,-719.39 324.17,-707.88 317.39,-697.66"/>
<polygon fill="red" stroke="red" points="320.21,-695.58 311.84,-689.09 314.34,-699.39 320.21,-695.58"/>
<text text-anchor="middle" x="374" y="-721" font-family="Times,serif" font-size="10.00" fill="red">1.4.1</text>
<text text-anchor="middle" x="374" y="-710" font-family="Times,serif" font-size="10.00" fill="red">(latest: 1.4.2)</text>
</g>
<!-- roo_windows_wifi -->
<g id="node29" class="node">
<title>roo_windows_wifi</title>
<polygon fill="plum" stroke="red" points="643.5,-785 502.5,-785 502.5,-747 643.5,-747 643.5,-785"/>
<text text-anchor="middle" x="573" y="-769.8" font-family="Times,serif" font-size="14.00">roo_windows_wifi</text>
<text text-anchor="middle" x="573" y="-754.8" font-family="Times,serif" font-size="14.00">1.1.3</text>
</g>
<!-- roo_windows_wifi&#45;&gt;roo_wifi -->
<g id="edge41" class="edge">
<title>roo_windows_wifi&#45;&gt;roo_wifi</title>
<path fill="none" stroke="black" d="M573,-746.88C573,-733.35 573,-714.62 573,-699.15"/>
<polygon fill="black" stroke="black" points="576.5,-699.07 573,-689.07 569.5,-699.07 576.5,-699.07"/>
</g>
<!-- roo_windows_wifi&#45;&gt;roo_windows -->
<g id="edge42" class="edge">
<title>roo_windows_wifi&#45;&gt;roo_windows</title>
<path fill="none" stroke="black" d="M553.59,-746.79C538.32,-733.54 515.86,-716.36 493,-707 443.5,-686.73 426.47,-699.41 374,-689 371.33,-688.47 368.61,-687.91 365.87,-687.32"/>
<polygon fill="black" stroke="black" points="366.41,-683.85 355.89,-685.11 364.89,-690.69 366.41,-683.85"/>
</g>
</g>
</svg>
