<?xml version="1.0" encoding="UTF-8" standalone="no"?>
<!DOCTYPE svg PUBLIC "-//W3C//DTD SVG 1.1//EN"
 "http://www.w3.org/Graphics/SVG/1.1/DTD/svg11.dtd">
<!-- Generated by graphviz version 2.42.4 (0)
 -->
<!-- Title: dependencies Pages: 1 -->
<svg width="2386pt" height="751pt"
 viewBox="0.00 0.00 2386.00 751.00" xmlns="http://www.w3.org/2000/svg" xmlns:xlink="http://www.w3.org/1999/xlink">
<g id="graph0" class="graph" transform="scale(1 1) rotate(0) translate(4 747)">
<title>dependencies</title>
<polygon fill="white" stroke="transparent" points="-4,4 -4,-747 2382,-747 2382,4 -4,4"/>
<!-- roo_backport -->
<g id="node1" class="node">
<title>roo_backport</title>
<polygon fill="#b1dbab" stroke="black" points="1726,-113 1616,-113 1616,-75 1726,-75 1726,-113"/>
<text text-anchor="middle" x="1671" y="-97.8" font-family="Times,serif" font-size="14.00">roo_backport</text>
<text text-anchor="middle" x="1671" y="-82.8" font-family="Times,serif" font-size="14.00">1.2.0</text>
</g>
<!-- roo_blink -->
<g id="node2" class="node">
<title>roo_blink</title>
<polygon fill="plum" stroke="black" points="700,-380 618,-380 618,-342 700,-342 700,-380"/>
<text text-anchor="middle" x="659" y="-364.8" font-family="Times,serif" font-size="14.00">roo_blink</text>
<text text-anchor="middle" x="659" y="-349.8" font-family="Times,serif" font-size="14.00">1.0.3</text>
</g>
<!-- roo_logging -->
<g id="node12" class="node">
<title>roo_logging</title>
<polygon fill="#b1dbab" stroke="black" points="1481,-284 1381,-284 1381,-246 1481,-246 1481,-284"/>
<text text-anchor="middle" x="1431" y="-268.8" font-family="Times,serif" font-size="14.00">roo_logging</text>
<text text-anchor="middle" x="1431" y="-253.8" font-family="Times,serif" font-size="14.00">1.5.1</text>
</g>
<!-- roo_blink&#45;&gt;roo_logging -->
<g id="edge1" class="edge">
<title>roo_blink&#45;&gt;roo_logging</title>
<path fill="none" stroke="red" d="M700.12,-345.17C704.76,-343.91 709.45,-342.81 714,-342 936.87,-302.41 999.9,-362.28 1223,-324 1255.14,-318.48 1261.66,-311.01 1293,-302 1318.41,-294.7 1346.64,-287.22 1370.9,-280.99"/>
<polygon fill="red" stroke="red" points="1371.87,-284.36 1380.69,-278.49 1370.14,-277.57 1371.87,-284.36"/>
<text text-anchor="middle" x="1326" y="-316" font-family="Times,serif" font-size="10.00" fill="red">1.5.0</text>
<text text-anchor="middle" x="1326" y="-305" font-family="Times,serif" font-size="10.00" fill="red">(latest: 1.5.1)</text>
</g>
<!-- roo_scheduler -->
<g id="node16" class="node">
<title>roo_scheduler</title>
<polygon fill="#b1dbab" stroke="black" points="700,-284 584,-284 584,-246 700,-246 700,-284"/>
<text text-anchor="middle" x="642" y="-268.8" font-family="Times,serif" font-size="14.00">roo_scheduler</text>
<text text-anchor="middle" x="642" y="-253.8" font-family="Times,serif" font-size="14.00">2.1.6</text>
</g>
<!-- roo_blink&#45;&gt;roo_scheduler -->
<g id="edge2" class="edge">
<title>roo_blink&#45;&gt;roo_scheduler</title>
<path fill="none" stroke="black" d="M655.72,-341.88C653.28,-328.35 649.89,-309.62 647.09,-294.15"/>
<polygon fill="black" stroke="black" points="650.49,-293.29 645.27,-284.07 643.6,-294.53 650.49,-293.29"/>
</g>
<!-- roo_collections -->
<g id="node3" class="node">
<title>roo_collections</title>
<polygon fill="#b1dbab" stroke="black" points="1732,-188 1610,-188 1610,-150 1732,-150 1732,-188"/>
<text text-anchor="middle" x="1671" y="-172.8" font-family="Times,serif" font-size="14.00">roo_collections</text>
<text text-anchor="middle" x="1671" y="-157.8" font-family="Times,serif" font-size="14.00">1.4.0</text>
</g>
<!-- roo_collections&#45;&gt;roo_backport -->
<g id="edge3" class="edge">
<title>roo_collections&#45;&gt;roo_backport</title>
<path fill="none" stroke="black" d="M1671,-149.96C1671,-141.88 1671,-132.18 1671,-123.18"/>
<polygon fill="black" stroke="black" points="1674.5,-123.09 1671,-113.09 1667.5,-123.09 1674.5,-123.09"/>
</g>
<!-- roo_comms -->
<g id="node4" class="node">
<title>roo_comms</title>
<polygon fill="plum" stroke="black" points="805.5,-572 708.5,-572 708.5,-534 805.5,-534 805.5,-572"/>
<text text-anchor="middle" x="757" y="-556.8" font-family="Times,serif" font-size="14.00">roo_comms</text>
<text text-anchor="middle" x="757" y="-541.8" font-family="Times,serif" font-size="14.00">1.1.2</text>
</g>
<!-- roo_comms&#45;&gt;roo_blink -->
<g id="edge5" class="edge">
<title>roo_comms&#45;&gt;roo_blink</title>
<path fill="none" stroke="red" d="M758.02,-533.82C759.66,-497.86 761.33,-419.25 746,-398 743.42,-394.42 727.53,-387.45 710.02,-380.6"/>
<polygon fill="red" stroke="red" points="710.79,-377.14 700.2,-376.82 708.28,-383.68 710.79,-377.14"/>
<text text-anchor="middle" x="792" y="-460" font-family="Times,serif" font-size="10.00" fill="red">1.0.2</text>
<text text-anchor="middle" x="792" y="-449" font-family="Times,serif" font-size="10.00" fill="red">(latest: 1.0.3)</text>
</g>
<!-- roo_comms&#45;&gt;roo_collections -->
<g id="edge6" class="edge">
<title>roo_comms&#45;&gt;roo_collections</title>
<path fill="none" stroke="red" d="M805.74,-551.8C956.99,-550.85 1416.96,-545.55 1563,-516 1613.17,-505.85 1626.91,-502.01 1671,-476 1703.84,-456.63 1720.11,-454.66 1736,-420 1771.29,-343.02 1719.15,-243.58 1689.36,-196.7"/>
<polygon fill="red" stroke="red" points="1692.3,-194.79 1683.91,-188.31 1686.43,-198.61 1692.3,-194.79"/>
<text text-anchor="middle" x="1781" y="-364" font-family="Times,serif" font-size="10.00" fill="red">1.3.2</text>
<text text-anchor="middle" x="1781" y="-353" font-family="Times,serif" font-size="10.00" fill="red">(latest: 1.4.0)</text>
</g>
<!-- roo_control -->
<g id="node5" class="node">
<title>roo_control</title>
<polygon fill="plum" stroke="black" points="1091.5,-476 994.5,-476 994.5,-438 1091.5,-438 1091.5,-476"/>
<text text-anchor="middle" x="1043" y="-460.8" font-family="Times,serif" font-size="14.00">roo_control</text>
<text text-anchor="middle" x="1043" y="-445.8" font-family="Times,serif" font-size="14.00">1.2.2</text>
</g>
<!-- roo_comms&#45;&gt;roo_control -->
<g id="edge7" class="edge">
<title>roo_comms&#45;&gt;roo_control</title>
<path fill="none" stroke="black" d="M805.52,-536.05C855.03,-519.78 931.89,-494.52 984.68,-477.17"/>
<polygon fill="black" stroke="black" points="985.84,-480.47 994.25,-474.02 983.65,-473.82 985.84,-480.47"/>
</g>
<!-- roo_io -->
<g id="node10" class="node">
<title>roo_io</title>
<polygon fill="#b1dbab" stroke="black" points="1895.5,-380 1836.5,-380 1836.5,-342 1895.5,-342 1895.5,-380"/>
<text text-anchor="middle" x="1866" y="-364.8" font-family="Times,serif" font-size="14.00">roo_io</text>
<text text-anchor="middle" x="1866" y="-349.8" font-family="Times,serif" font-size="14.00">2.1.1</text>
</g>
<!-- roo_comms&#45;&gt;roo_io -->
<g id="edge8" class="edge">
<title>roo_comms&#45;&gt;roo_io</title>
<path fill="none" stroke="red" d="M805.61,-551.48C996.1,-549.27 1683.29,-539.67 1723,-516 1757.57,-495.39 1742.48,-468.27 1769,-438 1786.44,-418.1 1809.67,-399.68 1829.03,-385.97"/>
<polygon fill="red" stroke="red" points="1831.12,-388.78 1837.34,-380.2 1827.13,-383.03 1831.12,-388.78"/>
<text text-anchor="middle" x="1802" y="-460" font-family="Times,serif" font-size="10.00" fill="red">2.0.3</text>
<text text-anchor="middle" x="1802" y="-449" font-family="Times,serif" font-size="10.00" fill="red">(latest: 2.1.1)</text>
</g>
<!-- roo_comms&#45;&gt;roo_logging -->
<g id="edge9" class="edge">
<title>roo_comms&#45;&gt;roo_logging</title>
<path fill="none" stroke="red" d="M805.73,-551.35C983.08,-548.54 1586.97,-534.68 1648,-476 1669.55,-455.28 1677.5,-366.24 1660,-342 1649.75,-327.8 1555.24,-299.74 1490.88,-281.97"/>
<polygon fill="red" stroke="red" points="1491.8,-278.6 1481.23,-279.32 1489.94,-285.35 1491.8,-278.6"/>
<text text-anchor="middle" x="1703" y="-412" font-family="Times,serif" font-size="10.00" fill="red">1.4.3</text>
<text text-anchor="middle" x="1703" y="-401" font-family="Times,serif" font-size="10.00" fill="red">(latest: 1.5.1)</text>
</g>
<!-- roo_prefs -->
<g id="node14" class="node">
<title>roo_prefs</title>
<polygon fill="#b1dbab" stroke="black" points="561.5,-380 478.5,-380 478.5,-342 561.5,-342 561.5,-380"/>
<text text-anchor="middle" x="520" y="-364.8" font-family="Times,serif" font-size="14.00">roo_prefs</text>
<text text-anchor="middle" x="520" y="-349.8" font-family="Times,serif" font-size="14.00">1.2.7</text>
</g>
<!-- roo_comms&#45;&gt;roo_prefs -->
<g id="edge10" class="edge">
<title>roo_comms&#45;&gt;roo_prefs</title>
<path fill="none" stroke="red" d="M708.24,-545.86C674.25,-540.54 628.31,-531.24 590,-516 558.13,-503.32 541.35,-505.59 524,-476 508.73,-449.96 510.22,-414.51 513.94,-390.09"/>
<polygon fill="red" stroke="red" points="517.42,-390.49 515.68,-380.04 510.52,-389.29 517.42,-390.49"/>
<text text-anchor="middle" x="557" y="-460" font-family="Times,serif" font-size="10.00" fill="red">1.2.3</text>
<text text-anchor="middle" x="557" y="-449" font-family="Times,serif" font-size="10.00" fill="red">(latest: 1.2.7)</text>
</g>
<!-- roo_comms&#45;&gt;roo_scheduler -->
<g id="edge11" class="edge">
<title>roo_comms&#45;&gt;roo_scheduler</title>
<path fill="none" stroke="red" d="M718.12,-533.93C678.08,-512.91 617.98,-474.06 592,-420 571.41,-377.16 599.84,-323.72 621.51,-292.38"/>
<polygon fill="red" stroke="red" points="624.42,-294.32 627.4,-284.15 618.73,-290.25 624.42,-294.32"/>
<text text-anchor="middle" x="625" y="-412" font-family="Times,serif" font-size="10.00" fill="red">2.1.5</text>
<text text-anchor="middle" x="625" y="-401" font-family="Times,serif" font-size="10.00" fill="red">(latest: 2.1.6)</text>
</g>
<!-- roo_testing -->
<g id="node17" class="node">
<title>roo_testing</title>
<polygon fill="#b1dbab" stroke="black" points="1080.5,-38 983.5,-38 983.5,0 1080.5,0 1080.5,-38"/>
<text text-anchor="middle" x="1032" y="-22.8" font-family="Times,serif" font-size="14.00">roo_testing</text>
<text text-anchor="middle" x="1032" y="-7.8" font-family="Times,serif" font-size="14.00">1.2.0</text>
</g>
<!-- roo_comms&#45;&gt;roo_testing -->
<g id="edge4" class="edge">
<title>roo_comms&#45;&gt;roo_testing</title>
<path fill="none" stroke="red" d="M708.12,-551.68C602.77,-550.44 357.56,-544.49 280,-516 165.45,-473.92 94,-436.04 94,-314 94,-314 94,-314 94,-93 94,-48.7 767.74,-27.06 973.22,-21.48"/>
<polygon fill="red" stroke="red" points="973.32,-24.98 983.22,-21.22 973.13,-17.99 973.32,-24.98"/>
<text text-anchor="middle" x="127" y="-268" font-family="Times,serif" font-size="10.00" fill="red">1.1.8</text>
<text text-anchor="middle" x="127" y="-257" font-family="Times,serif" font-size="10.00" fill="red">(latest: 1.2.0)</text>
</g>
<!-- roo_threads -->
<g id="node18" class="node">
<title>roo_threads</title>
<polygon fill="#b1dbab" stroke="black" points="733.5,-188 632.5,-188 632.5,-150 733.5,-150 733.5,-188"/>
<text text-anchor="middle" x="683" y="-172.8" font-family="Times,serif" font-size="14.00">roo_threads</text>
<text text-anchor="middle" x="683" y="-157.8" font-family="Times,serif" font-size="14.00">1.2.0</text>
</g>
<!-- roo_comms&#45;&gt;roo_threads -->
<g id="edge12" class="edge">
<title>roo_comms&#45;&gt;roo_threads</title>
<path fill="none" stroke="red" d="M708.44,-548.09C652.28,-542.89 563.85,-532.4 535,-516 475.48,-482.18 488.97,-441.37 436,-398 423.07,-387.42 411.53,-394.37 403,-380 344.6,-281.62 523.57,-214.36 622.33,-185.66"/>
<polygon fill="red" stroke="red" points="623.56,-188.95 632.21,-182.84 621.63,-182.22 623.56,-188.95"/>
<text text-anchor="middle" x="436" y="-364" font-family="Times,serif" font-size="10.00" fill="red">1.1.6</text>
<text text-anchor="middle" x="436" y="-353" font-family="Times,serif" font-size="10.00" fill="red">(latest: 1.2.0)</text>
</g>
<!-- roo_time -->
<g id="node19" class="node">
<title>roo_time</title>
<polygon fill="#b1dbab" stroke="black" points="801.5,-113 722.5,-113 722.5,-75 801.5,-75 801.5,-113"/>
<text text-anchor="middle" x="762" y="-97.8" font-family="Times,serif" font-size="14.00">roo_time</text>
<text text-anchor="middle" x="762" y="-82.8" font-family="Times,serif" font-size="14.00">1.4.0</text>
</g>
<!-- roo_comms&#45;&gt;roo_time -->
<g id="edge13" class="edge">
<title>roo_comms&#45;&gt;roo_time</title>
<path fill="none" stroke="red" d="M708.24,-551.05C595.41,-547.88 320.81,-534.22 253,-476 205.55,-435.26 240.13,-396.81 210,-342 204.98,-332.87 198.55,-333.79 195,-324 191.67,-314.81 192.79,-311.53 195,-302 196.34,-296.21 237.32,-209.65 242,-206 315.54,-148.58 597.18,-112.63 712.41,-100.05"/>
<polygon fill="red" stroke="red" points="712.82,-103.52 722.38,-98.97 712.06,-96.56 712.82,-103.52"/>
<text text-anchor="middle" x="228" y="-316" font-family="Times,serif" font-size="10.00" fill="red">1.3.3</text>
<text text-anchor="middle" x="228" y="-305" font-family="Times,serif" font-size="10.00" fill="red">(latest: 1.4.0)</text>
</g>
<!-- roo_transceivers -->
<g id="node21" class="node">
<title>roo_transceivers</title>
<polygon fill="plum" stroke="black" points="976.5,-476 841.5,-476 841.5,-438 976.5,-438 976.5,-476"/>
<text text-anchor="middle" x="909" y="-460.8" font-family="Times,serif" font-size="14.00">roo_transceivers</text>
<text text-anchor="middle" x="909" y="-445.8" font-family="Times,serif" font-size="14.00">1.1.3</text>
</g>
<!-- roo_comms&#45;&gt;roo_transceivers -->
<g id="edge14" class="edge">
<title>roo_comms&#45;&gt;roo_transceivers</title>
<path fill="none" stroke="black" d="M786.31,-533.88C810.49,-518.92 844.97,-497.6 871.22,-481.36"/>
<polygon fill="black" stroke="black" points="873.12,-484.31 879.78,-476.07 869.44,-478.35 873.12,-484.31"/>
</g>
<!-- roo_control&#45;&gt;roo_logging -->
<g id="edge16" class="edge">
<title>roo_control&#45;&gt;roo_logging</title>
<path fill="none" stroke="red" d="M1063.18,-437.82C1093.61,-411.6 1154.16,-363.91 1215,-342 1286.07,-316.4 1317.64,-360.08 1384,-324 1397.16,-316.85 1408.01,-304.34 1415.96,-292.76"/>
<polygon fill="red" stroke="red" points="1419.01,-294.5 1421.47,-284.19 1413.12,-290.72 1419.01,-294.5"/>
<text text-anchor="middle" x="1248" y="-364" font-family="Times,serif" font-size="10.00" fill="red">1.4.3</text>
<text text-anchor="middle" x="1248" y="-353" font-family="Times,serif" font-size="10.00" fill="red">(latest: 1.5.1)</text>
</g>
<!-- roo_quantity -->
<g id="node15" class="node">
<title>roo_quantity</title>
<polygon fill="plum" stroke="black" points="1397.5,-380 1290.5,-380 1290.5,-342 1397.5,-342 1397.5,-380"/>
<text text-anchor="middle" x="1344" y="-364.8" font-family="Times,serif" font-size="14.00">roo_quantity</text>
<text text-anchor="middle" x="1344" y="-349.8" font-family="Times,serif" font-size="14.00">1.1.4</text>
</g>
<!-- roo_control&#45;&gt;roo_quantity -->
<g id="edge17" class="edge">
<title>roo_control&#45;&gt;roo_quantity</title>
<path fill="none" stroke="red" d="M1091.7,-440.79C1143.02,-424.76 1224.09,-399.45 1280.43,-381.85"/>
<polygon fill="red" stroke="red" points="1281.79,-385.09 1290.29,-378.77 1279.7,-378.41 1281.79,-385.09"/>
<text text-anchor="middle" x="1254" y="-412" font-family="Times,serif" font-size="10.00" fill="red">1.1.3</text>
<text text-anchor="middle" x="1254" y="-401" font-family="Times,serif" font-size="10.00" fill="red">(latest: 1.1.4)</text>
</g>
<!-- roo_control&#45;&gt;roo_scheduler -->
<g id="edge18" class="edge">
<title>roo_control&#45;&gt;roo_scheduler</title>
<path fill="none" stroke="red" d="M994.24,-440.68C965.15,-431.51 933.24,-421.37 930,-420 837.18,-380.79 734.44,-321.8 680.28,-289.39"/>
<polygon fill="red" stroke="red" points="681.76,-286.2 671.38,-284.04 678.15,-292.2 681.76,-286.2"/>
<text text-anchor="middle" x="873" y="-364" font-family="Times,serif" font-size="10.00" fill="red">2.1.5</text>
<text text-anchor="middle" x="873" y="-353" font-family="Times,serif" font-size="10.00" fill="red">(latest: 2.1.6)</text>
</g>
<!-- roo_control&#45;&gt;roo_testing -->
<g id="edge15" class="edge">
<title>roo_control&#45;&gt;roo_testing</title>
<path fill="none" stroke="red" d="M1026.92,-437.98C1006.7,-413.98 973.05,-369.26 960,-324 949.33,-286.98 965.74,-230.01 982,-206 989.88,-194.36 1000.61,-199.96 1008,-188 1034.67,-144.85 1036.32,-83.74 1034.54,-48.35"/>
<polygon fill="red" stroke="red" points="1038.03,-48.01 1033.91,-38.25 1031.04,-48.45 1038.03,-48.01"/>
<text text-anchor="middle" x="1015" y="-220" font-family="Times,serif" font-size="10.00" fill="red">1.1.8</text>
<text text-anchor="middle" x="1015" y="-209" font-family="Times,serif" font-size="10.00" fill="red">(latest: 1.2.0)</text>
</g>
<!-- roo_dashboard -->
<g id="node6" class="node">
<title>roo_dashboard</title>
<polygon fill="plum" stroke="black" points="2279,-743 2157,-743 2157,-705 2279,-705 2279,-743"/>
<text text-anchor="middle" x="2218" y="-727.8" font-family="Times,serif" font-size="14.00">roo_dashboard</text>
<text text-anchor="middle" x="2218" y="-712.8" font-family="Times,serif" font-size="14.00">1.0.1</text>
</g>
<!-- roo_dashboard&#45;&gt;roo_testing -->
<g id="edge19" class="edge">
<title>roo_dashboard&#45;&gt;roo_testing</title>
<path fill="none" stroke="red" d="M2267.75,-704.94C2290.3,-693.26 2312,-675.42 2312,-650 2312,-650 2312,-650 2312,-93 2312,-43.76 2344.77,-72.9 2129,-56 1733.52,-25.02 1255.81,-20.62 1091.14,-20.06"/>
<polygon fill="red" stroke="red" points="1090.76,-16.56 1080.75,-20.02 1090.74,-23.55 1090.76,-16.56"/>
<text text-anchor="middle" x="2345" y="-364" font-family="Times,serif" font-size="10.00" fill="red">1.1.7</text>
<text text-anchor="middle" x="2345" y="-353" font-family="Times,serif" font-size="10.00" fill="red">(latest: 1.2.0)</text>
</g>
<!-- roo_windows -->
<g id="node24" class="node">
<title>roo_windows</title>
<polygon fill="plum" stroke="black" points="2015.5,-668 1906.5,-668 1906.5,-630 2015.5,-630 2015.5,-668"/>
<text text-anchor="middle" x="1961" y="-652.8" font-family="Times,serif" font-size="14.00">roo_windows</text>
<text text-anchor="middle" x="1961" y="-637.8" font-family="Times,serif" font-size="14.00">1.4.1</text>
</g>
<!-- roo_dashboard&#45;&gt;roo_windows -->
<g id="edge20" class="edge">
<title>roo_dashboard&#45;&gt;roo_windows</title>
<path fill="none" stroke="black" d="M2156.77,-705.61C2117.13,-694.35 2065.6,-679.71 2025.35,-668.28"/>
<polygon fill="black" stroke="black" points="2026.22,-664.89 2015.64,-665.52 2024.31,-671.62 2026.22,-664.89"/>
</g>
<!-- roo_display -->
<g id="node7" class="node">
<title>roo_display</title>
<polygon fill="plum" stroke="black" points="2140,-476 2042,-476 2042,-438 2140,-438 2140,-476"/>
<text text-anchor="middle" x="2091" y="-460.8" font-family="Times,serif" font-size="14.00">roo_display</text>
<text text-anchor="middle" x="2091" y="-445.8" font-family="Times,serif" font-size="14.00">2.3.1</text>
</g>
<!-- roo_display&#45;&gt;roo_backport -->
<g id="edge22" class="edge">
<title>roo_display&#45;&gt;roo_backport</title>
<path fill="none" stroke="red" d="M2087.71,-437.95C2085.59,-426.49 2082.73,-411.36 2080,-398 2071.26,-355.21 2077.18,-341.71 2059,-302 2053.45,-289.88 1997.75,-213.88 1987,-206 1910.83,-150.17 1804.12,-120.5 1736.28,-106.27"/>
<polygon fill="red" stroke="red" points="1736.65,-102.78 1726.15,-104.2 1735.25,-109.63 1736.65,-102.78"/>
<text text-anchor="middle" x="2081" y="-268" font-family="Times,serif" font-size="10.00" fill="red">1.1.1</text>
<text text-anchor="middle" x="2081" y="-257" font-family="Times,serif" font-size="10.00" fill="red">(latest: 1.2.0)</text>
</g>
<!-- roo_display&#45;&gt;roo_collections -->
<g id="edge23" class="edge">
<title>roo_display&#45;&gt;roo_collections</title>
<path fill="none" stroke="red" d="M2082.33,-437.87C2076.38,-426.11 2067.97,-410.67 2059,-398 2033.53,-362.04 2013.53,-362.99 1993,-324 1967.84,-276.21 2004.39,-241.85 1964,-206 1932.18,-177.75 1818.37,-171 1742.32,-169.75"/>
<polygon fill="red" stroke="red" points="1742.36,-166.25 1732.32,-169.61 1742.27,-173.25 1742.36,-166.25"/>
<text text-anchor="middle" x="2026" y="-316" font-family="Times,serif" font-size="10.00" fill="red">1.3.2</text>
<text text-anchor="middle" x="2026" y="-305" font-family="Times,serif" font-size="10.00" fill="red">(latest: 1.4.0)</text>
</g>
<!-- roo_display&#45;&gt;roo_io -->
<g id="edge24" class="edge">
<title>roo_display&#45;&gt;roo_io</title>
<path fill="none" stroke="red" d="M2041.67,-448.54C1990.19,-440.43 1915.36,-427.62 1904,-420 1892.75,-412.46 1884.05,-400.35 1877.83,-389.13"/>
<polygon fill="red" stroke="red" points="1880.85,-387.36 1873.19,-380.05 1874.62,-390.55 1880.85,-387.36"/>
<text text-anchor="middle" x="1937" y="-412" font-family="Times,serif" font-size="10.00" fill="red">2.0.2</text>
<text text-anchor="middle" x="1937" y="-401" font-family="Times,serif" font-size="10.00" fill="red">(latest: 2.1.1)</text>
</g>
<!-- roo_display&#45;&gt;roo_testing -->
<g id="edge21" class="edge">
<title>roo_display&#45;&gt;roo_testing</title>
<path fill="none" stroke="red" d="M2099.88,-437.85C2117.31,-399.4 2151.2,-308.16 2114,-246 2102.41,-226.63 1955.56,-159.32 1935,-150 1848.53,-110.81 1827.68,-95.57 1735,-75 1500.71,-23 1213.01,-18.39 1091.08,-19.08"/>
<polygon fill="red" stroke="red" points="1090.82,-15.58 1080.85,-19.15 1090.87,-22.58 1090.82,-15.58"/>
<text text-anchor="middle" x="2124" y="-220" font-family="Times,serif" font-size="10.00" fill="red">1.1.7</text>
<text text-anchor="middle" x="2124" y="-209" font-family="Times,serif" font-size="10.00" fill="red">(latest: 1.2.0)</text>
</g>
<!-- roo_flags -->
<g id="node8" class="node">
<title>roo_flags</title>
<polygon fill="#b1dbab" stroke="black" points="1401,-188 1321,-188 1321,-150 1401,-150 1401,-188"/>
<text text-anchor="middle" x="1361" y="-172.8" font-family="Times,serif" font-size="14.00">roo_flags</text>
<text text-anchor="middle" x="1361" y="-157.8" font-family="Times,serif" font-size="14.00">1.2.0</text>
</g>
<!-- roo_icons -->
<g id="node9" class="node">
<title>roo_icons</title>
<polygon fill="plum" stroke="black" points="2132.5,-572 2049.5,-572 2049.5,-534 2132.5,-534 2132.5,-572"/>
<text text-anchor="middle" x="2091" y="-556.8" font-family="Times,serif" font-size="14.00">roo_icons</text>
<text text-anchor="middle" x="2091" y="-541.8" font-family="Times,serif" font-size="14.00">1.2.1</text>
</g>
<!-- roo_icons&#45;&gt;roo_display -->
<g id="edge26" class="edge">
<title>roo_icons&#45;&gt;roo_display</title>
<path fill="none" stroke="black" d="M2091,-533.88C2091,-520.35 2091,-501.62 2091,-486.15"/>
<polygon fill="black" stroke="black" points="2094.5,-486.07 2091,-476.07 2087.5,-486.07 2094.5,-486.07"/>
</g>
<!-- roo_icons&#45;&gt;roo_testing -->
<g id="edge25" class="edge">
<title>roo_icons&#45;&gt;roo_testing</title>
<path fill="none" stroke="red" d="M2121.91,-533.79C2145.5,-517.32 2174,-490.66 2174,-458 2174,-458 2174,-458 2174,-93 2174,-38.18 1324.98,-23.62 1091.05,-20.65"/>
<polygon fill="red" stroke="red" points="1090.75,-17.15 1080.7,-20.52 1090.66,-24.15 1090.75,-17.15"/>
<text text-anchor="middle" x="2207" y="-268" font-family="Times,serif" font-size="10.00" fill="red">1.1.7</text>
<text text-anchor="middle" x="2207" y="-257" font-family="Times,serif" font-size="10.00" fill="red">(latest: 1.2.0)</text>
</g>
<!-- roo_io&#45;&gt;roo_logging -->
<g id="edge27" class="edge">
<title>roo_io&#45;&gt;roo_logging</title>
<path fill="none" stroke="black" d="M1836.08,-346.45C1831.44,-344.73 1826.64,-343.17 1822,-342 1748.33,-323.43 1722.4,-352.59 1652,-324 1637.34,-318.05 1638.42,-308.53 1624,-302 1582.01,-282.99 1530.53,-274.02 1491.3,-269.78"/>
<polygon fill="black" stroke="black" points="1491.65,-266.3 1481.35,-268.78 1490.95,-273.26 1491.65,-266.3"/>
</g>
<!-- roo_locale -->
<g id="node11" class="node">
<title>roo_locale</title>
<polygon fill="#b1dbab" stroke="black" points="2284,-572 2196,-572 2196,-534 2284,-534 2284,-572"/>
<text text-anchor="middle" x="2240" y="-556.8" font-family="Times,serif" font-size="14.00">roo_locale</text>
<text text-anchor="middle" x="2240" y="-541.8" font-family="Times,serif" font-size="14.00">1.1.1</text>
</g>
<!-- roo_logging&#45;&gt;roo_backport -->
<g id="edge28" class="edge">
<title>roo_logging&#45;&gt;roo_backport</title>
<path fill="none" stroke="black" d="M1456.68,-245.91C1500.15,-215.31 1588.2,-153.3 1636.82,-119.07"/>
<polygon fill="black" stroke="black" points="1638.98,-121.83 1645.14,-113.21 1634.95,-116.11 1638.98,-121.83"/>
</g>
<!-- roo_logging&#45;&gt;roo_flags -->
<g id="edge29" class="edge">
<title>roo_logging&#45;&gt;roo_flags</title>
<path fill="none" stroke="black" d="M1417.5,-245.88C1407.04,-231.83 1392.4,-212.17 1380.65,-196.38"/>
<polygon fill="black" stroke="black" points="1383.24,-194 1374.46,-188.07 1377.62,-198.18 1383.24,-194"/>
</g>
<!-- roo_logging&#45;&gt;roo_threads -->
<g id="edge30" class="edge">
<title>roo_logging&#45;&gt;roo_threads</title>
<path fill="none" stroke="black" d="M1380.57,-264.7C1257.48,-265.81 944.67,-264.81 848,-228 833.21,-222.37 834.17,-213.05 820,-206 796.2,-194.16 768.06,-185.9 743.51,-180.31"/>
<polygon fill="black" stroke="black" points="744.1,-176.86 733.58,-178.15 742.61,-183.7 744.1,-176.86"/>
</g>
<!-- roo_onewire -->
<g id="node13" class="node">
<title>roo_onewire</title>
<polygon fill="plum" stroke="black" points="1639,-476 1535,-476 1535,-438 1639,-438 1639,-476"/>
<text text-anchor="middle" x="1587" y="-460.8" font-family="Times,serif" font-size="14.00">roo_onewire</text>
<text text-anchor="middle" x="1587" y="-445.8" font-family="Times,serif" font-size="14.00">2.0.6</text>
</g>
<!-- roo_onewire&#45;&gt;roo_logging -->
<g id="edge31" class="edge">
<title>roo_onewire&#45;&gt;roo_logging</title>
<path fill="none" stroke="red" d="M1595.46,-438C1599.75,-426.29 1603.09,-410.87 1598,-398 1576.49,-343.61 1555.34,-336.34 1508,-302 1501.22,-297.08 1493.65,-292.57 1485.99,-288.53"/>
<polygon fill="red" stroke="red" points="1487.5,-285.38 1476.99,-284.02 1484.36,-291.63 1487.5,-285.38"/>
<text text-anchor="middle" x="1623" y="-364" font-family="Times,serif" font-size="10.00" fill="red">1.5.0</text>
<text text-anchor="middle" x="1623" y="-353" font-family="Times,serif" font-size="10.00" fill="red">(latest: 1.5.1)</text>
</g>
<!-- roo_onewire&#45;&gt;roo_quantity -->
<g id="edge33" class="edge">
<title>roo_onewire&#45;&gt;roo_quantity</title>
<path fill="none" stroke="black" d="M1535.73,-437.98C1520.04,-432.35 1502.77,-426.03 1487,-420 1457.03,-408.53 1423.79,-395.1 1396.91,-384.05"/>
<polygon fill="black" stroke="black" points="1397.9,-380.67 1387.32,-380.09 1395.23,-387.14 1397.9,-380.67"/>
</g>
<!-- roo_onewire&#45;&gt;roo_scheduler -->
<g id="edge32" class="edge">
<title>roo_onewire&#45;&gt;roo_scheduler</title>
<path fill="none" stroke="black" d="M1585.3,-437.75C1583.56,-425.8 1580.05,-410.2 1573,-398 1568.48,-390.18 1522.28,-345.63 1514,-342 1405.49,-294.39 1358.61,-366.49 1248,-324 1233.23,-318.32 1234.85,-307.46 1220,-302 1171.16,-284.05 803.78,-289.21 752,-284 738.37,-282.63 723.86,-280.64 710,-278.48"/>
<polygon fill="black" stroke="black" points="710.48,-275.01 700.05,-276.88 709.37,-281.92 710.48,-275.01"/>
</g>
<!-- roo_prefs&#45;&gt;roo_logging -->
<g id="edge34" class="edge">
<title>roo_prefs&#45;&gt;roo_logging</title>
<path fill="none" stroke="black" d="M561.88,-350.1C576.69,-346.98 593.51,-343.87 609,-342 805.07,-318.35 857.81,-354.07 1053,-324 1089.87,-318.32 1097.39,-309.15 1134,-302 1215.32,-286.11 1310.62,-276.05 1370.89,-270.72"/>
<polygon fill="black" stroke="black" points="1371.34,-274.19 1381,-269.84 1370.73,-267.22 1371.34,-274.19"/>
</g>
<!-- roo_prefs&#45;&gt;roo_scheduler -->
<g id="edge35" class="edge">
<title>roo_prefs&#45;&gt;roo_scheduler</title>
<path fill="none" stroke="black" d="M534.93,-341.85C545.56,-329.65 560.64,-313.71 576,-302 581.92,-297.49 588.49,-293.2 595.11,-289.25"/>
<polygon fill="black" stroke="black" points="597.17,-292.1 604.12,-284.11 593.7,-286.03 597.17,-292.1"/>
</g>
<!-- roo_quantity&#45;&gt;roo_flags -->
<g id="edge36" class="edge">
<title>roo_quantity&#45;&gt;roo_flags</title>
<path fill="none" stroke="black" d="M1345.63,-341.78C1348.61,-308.52 1354.94,-237.73 1358.48,-198.2"/>
<polygon fill="black" stroke="black" points="1361.97,-198.43 1359.37,-188.16 1355,-197.81 1361.97,-198.43"/>
</g>
<!-- roo_quantity&#45;&gt;roo_logging -->
<g id="edge37" class="edge">
<title>roo_quantity&#45;&gt;roo_logging</title>
<path fill="none" stroke="red" d="M1387.04,-341.82C1395.12,-336.94 1402.92,-331.02 1409,-324 1416.35,-315.51 1421.36,-304.32 1424.72,-294.03"/>
<polygon fill="red" stroke="red" points="1428.16,-294.76 1427.56,-284.18 1421.43,-292.82 1428.16,-294.76"/>
<text text-anchor="middle" x="1455" y="-316" font-family="Times,serif" font-size="10.00" fill="red">1.5.0</text>
<text text-anchor="middle" x="1455" y="-305" font-family="Times,serif" font-size="10.00" fill="red">(latest: 1.5.1)</text>
</g>
<!-- roo_quantity&#45;&gt;roo_time -->
<g id="edge38" class="edge">
<title>roo_quantity&#45;&gt;roo_time</title>
<path fill="none" stroke="black" d="M1290.33,-345.08C1285.51,-343.95 1280.68,-342.9 1276,-342 1244.12,-335.83 1152.5,-348.33 1131,-324 1096.23,-284.65 1168.42,-248.07 1137,-206 1097.79,-153.5 904.53,-117.07 811.81,-102.32"/>
<polygon fill="black" stroke="black" points="812.24,-98.84 801.82,-100.75 811.16,-105.76 812.24,-98.84"/>
</g>
<!-- roo_scheduler&#45;&gt;roo_collections -->
<g id="edge39" class="edge">
<title>roo_scheduler&#45;&gt;roo_collections</title>
<path fill="none" stroke="black" d="M700.08,-253.43C716.8,-250.68 735.08,-247.94 752,-246 811.96,-239.12 966.65,-249.61 1023,-228 1037.78,-222.33 1036.18,-211.55 1051,-206 1125.81,-178.01 1330.26,-192.75 1410,-188 1474.18,-184.18 1547.19,-179.08 1599.64,-175.28"/>
<polygon fill="black" stroke="black" points="1600.13,-178.76 1609.85,-174.54 1599.62,-171.78 1600.13,-178.76"/>
</g>
<!-- roo_scheduler&#45;&gt;roo_threads -->
<g id="edge40" class="edge">
<title>roo_scheduler&#45;&gt;roo_threads</title>
<path fill="none" stroke="black" d="M649.91,-245.88C655.92,-232.09 664.29,-212.9 671.11,-197.26"/>
<polygon fill="black" stroke="black" points="674.33,-198.63 675.12,-188.07 667.91,-195.84 674.33,-198.63"/>
</g>
<!-- roo_threads&#45;&gt;roo_time -->
<g id="edge41" class="edge">
<title>roo_threads&#45;&gt;roo_time</title>
<path fill="none" stroke="black" d="M702.53,-149.96C712.31,-140.92 724.31,-129.83 734.96,-119.99"/>
<polygon fill="black" stroke="black" points="737.45,-122.45 742.42,-113.09 732.7,-117.31 737.45,-122.45"/>
</g>
<!-- roo_time&#45;&gt;roo_testing -->
<g id="edge42" class="edge">
<title>roo_time&#45;&gt;roo_testing</title>
<path fill="none" stroke="black" d="M801.55,-82.31C846.82,-70.07 921.42,-49.9 973.43,-35.84"/>
<polygon fill="black" stroke="black" points="974.45,-39.18 983.19,-33.2 972.63,-32.43 974.45,-39.18"/>
</g>
<!-- roo_time_ds3231 -->
<g id="node20" class="node">
<title>roo_time_ds3231</title>
<polygon fill="#b1dbab" stroke="black" points="928,-188 790,-188 790,-150 928,-150 928,-188"/>
<text text-anchor="middle" x="859" y="-172.8" font-family="Times,serif" font-size="14.00">roo_time_ds3231</text>
<text text-anchor="middle" x="859" y="-157.8" font-family="Times,serif" font-size="14.00">1.1.4</text>
</g>
<!-- roo_time_ds3231&#45;&gt;roo_time -->
<g id="edge43" class="edge">
<title>roo_time_ds3231&#45;&gt;roo_time</title>
<path fill="none" stroke="black" d="M835.02,-149.96C822.66,-140.65 807.42,-129.18 794.07,-119.13"/>
<polygon fill="black" stroke="black" points="796.13,-116.31 786.04,-113.09 791.92,-121.9 796.13,-116.31"/>
</g>
<!-- roo_transceivers&#45;&gt;roo_collections -->
<g id="edge45" class="edge">
<title>roo_transceivers&#45;&gt;roo_collections</title>
<path fill="none" stroke="red" d="M923.38,-437.97C944.19,-413.03 985.02,-368.12 1029,-342 1215.97,-230.96 1475.57,-190.2 1599.55,-176.41"/>
<polygon fill="red" stroke="red" points="1600.11,-179.87 1609.68,-175.31 1599.36,-172.91 1600.11,-179.87"/>
<text text-anchor="middle" x="1136" y="-316" font-family="Times,serif" font-size="10.00" fill="red">1.3.2</text>
<text text-anchor="middle" x="1136" y="-305" font-family="Times,serif" font-size="10.00" fill="red">(latest: 1.4.0)</text>
</g>
<!-- roo_transceivers&#45;&gt;roo_logging -->
<g id="edge46" class="edge">
<title>roo_transceivers&#45;&gt;roo_logging</title>
<path fill="none" stroke="red" d="M962.26,-437.92C973.84,-432.92 985.69,-426.93 996,-420 1036.42,-392.81 1028.67,-362.19 1073,-342 1130.95,-315.61 1299.64,-347.06 1359,-324 1360.31,-323.49 1381.72,-306.19 1400.85,-290.62"/>
<polygon fill="red" stroke="red" points="1403.31,-293.14 1408.85,-284.11 1398.89,-287.71 1403.31,-293.14"/>
<text text-anchor="middle" x="1106" y="-364" font-family="Times,serif" font-size="10.00" fill="red">1.4.3</text>
<text text-anchor="middle" x="1106" y="-353" font-family="Times,serif" font-size="10.00" fill="red">(latest: 1.5.1)</text>
</g>
<!-- roo_transceivers&#45;&gt;roo_prefs -->
<g id="edge47" class="edge">
<title>roo_transceivers&#45;&gt;roo_prefs</title>
<path fill="none" stroke="red" d="M841.22,-441.03C812.98,-434.7 779.87,-427.15 750,-420 688.62,-405.31 618.3,-387.43 571.75,-375.43"/>
<polygon fill="red" stroke="red" points="572.45,-372 561.89,-372.89 570.7,-378.78 572.45,-372"/>
<text text-anchor="middle" x="783" y="-412" font-family="Times,serif" font-size="10.00" fill="red">1.2.3</text>
<text text-anchor="middle" x="783" y="-401" font-family="Times,serif" font-size="10.00" fill="red">(latest: 1.2.7)</text>
</g>
<!-- roo_transceivers&#45;&gt;roo_testing -->
<g id="edge44" class="edge">
<title>roo_transceivers&#45;&gt;roo_testing</title>
<path fill="none" stroke="red" d="M907.26,-437.73C902.26,-383.43 888.93,-225.53 901,-206 910.4,-190.78 924.03,-200.32 937,-188 979.52,-147.6 1008.31,-83.9 1022.26,-47.66"/>
<polygon fill="red" stroke="red" points="1025.57,-48.79 1025.81,-38.2 1019.02,-46.34 1025.57,-48.79"/>
<text text-anchor="middle" x="934" y="-220" font-family="Times,serif" font-size="10.00" fill="red">1.1.8</text>
<text text-anchor="middle" x="934" y="-209" font-family="Times,serif" font-size="10.00" fill="red">(latest: 1.2.0)</text>
</g>
<!-- roo_transceivers&#45;&gt;roo_threads -->
<g id="edge48" class="edge">
<title>roo_transceivers&#45;&gt;roo_threads</title>
<path fill="none" stroke="red" d="M865.86,-437.91C857.79,-433.02 850.02,-427.07 844,-420 820.14,-391.94 839.95,-369.98 816,-342 805.13,-329.31 795.72,-334.83 783,-324 741.25,-288.45 710.46,-231.14 694.75,-197.37"/>
<polygon fill="red" stroke="red" points="697.86,-195.76 690.54,-188.1 691.48,-198.65 697.86,-195.76"/>
<text text-anchor="middle" x="816" y="-316" font-family="Times,serif" font-size="10.00" fill="red">1.1.6</text>
<text text-anchor="middle" x="816" y="-305" font-family="Times,serif" font-size="10.00" fill="red">(latest: 1.2.0)</text>
</g>
<!-- roo_transceivers&#45;&gt;roo_time -->
<g id="edge49" class="edge">
<title>roo_transceivers&#45;&gt;roo_time</title>
<path fill="none" stroke="red" d="M900.02,-437.83C897.33,-432.17 894.45,-425.87 892,-420 870.5,-368.49 881.8,-347.16 849,-302 841.37,-291.5 834.09,-294.15 826,-284 796.64,-247.14 795.82,-232.73 781,-188 773.95,-166.72 769.03,-141.79 765.96,-123.1"/>
<polygon fill="red" stroke="red" points="769.41,-122.5 764.41,-113.16 762.49,-123.58 769.41,-122.5"/>
<text text-anchor="middle" x="859" y="-268" font-family="Times,serif" font-size="10.00" fill="red">1.3.3</text>
<text text-anchor="middle" x="859" y="-257" font-family="Times,serif" font-size="10.00" fill="red">(latest: 1.4.0)</text>
</g>
<!-- roo_transport -->
<g id="node22" class="node">
<title>roo_transport</title>
<polygon fill="plum" stroke="black" points="1480,-476 1366,-476 1366,-438 1480,-438 1480,-476"/>
<text text-anchor="middle" x="1423" y="-460.8" font-family="Times,serif" font-size="14.00">roo_transport</text>
<text text-anchor="middle" x="1423" y="-445.8" font-family="Times,serif" font-size="14.00">1.0.2</text>
</g>
<!-- roo_transport&#45;&gt;roo_collections -->
<g id="edge51" class="edge">
<title>roo_transport&#45;&gt;roo_collections</title>
<path fill="none" stroke="red" d="M1446.35,-437.76C1462.72,-425.51 1485.45,-409.56 1507,-398 1525.98,-387.82 1535.78,-394.17 1552,-380 1567.45,-366.51 1628.85,-250.87 1656.89,-197.18"/>
<polygon fill="red" stroke="red" points="1660.05,-198.7 1661.57,-188.22 1653.84,-195.47 1660.05,-198.7"/>
<text text-anchor="middle" x="1634" y="-316" font-family="Times,serif" font-size="10.00" fill="red">1.3.2</text>
<text text-anchor="middle" x="1634" y="-305" font-family="Times,serif" font-size="10.00" fill="red">(latest: 1.4.0)</text>
</g>
<!-- roo_transport&#45;&gt;roo_io -->
<g id="edge52" class="edge">
<title>roo_transport&#45;&gt;roo_io</title>
<path fill="none" stroke="red" d="M1462.67,-437.94C1494.09,-424.5 1539.45,-407 1581,-398 1685.98,-375.28 1717.45,-404.64 1822,-380 1823.46,-379.66 1824.93,-379.27 1826.4,-378.85"/>
<polygon fill="red" stroke="red" points="1827.7,-382.11 1836.11,-375.68 1825.52,-375.46 1827.7,-382.11"/>
<text text-anchor="middle" x="1614" y="-412" font-family="Times,serif" font-size="10.00" fill="red">2.0.3</text>
<text text-anchor="middle" x="1614" y="-401" font-family="Times,serif" font-size="10.00" fill="red">(latest: 2.1.1)</text>
</g>
<!-- roo_transport&#45;&gt;roo_logging -->
<g id="edge53" class="edge">
<title>roo_transport&#45;&gt;roo_logging</title>
<path fill="none" stroke="red" d="M1425.45,-437.86C1427.5,-426.1 1431.07,-410.66 1437,-398 1454.38,-360.89 1479.13,-362.9 1492,-324 1495.07,-314.72 1496.85,-310.49 1492,-302 1489.57,-297.75 1486.43,-293.95 1482.85,-290.57"/>
<polygon fill="red" stroke="red" points="1484.95,-287.77 1474.97,-284.19 1480.54,-293.21 1484.95,-287.77"/>
<text text-anchor="middle" x="1517" y="-364" font-family="Times,serif" font-size="10.00" fill="red">1.4.3</text>
<text text-anchor="middle" x="1517" y="-353" font-family="Times,serif" font-size="10.00" fill="red">(latest: 1.5.1)</text>
</g>
<!-- roo_transport&#45;&gt;roo_testing -->
<g id="edge50" class="edge">
<title>roo_transport&#45;&gt;roo_testing</title>
<path fill="none" stroke="red" d="M1384.51,-437.87C1355.29,-423.52 1314.55,-402.26 1281,-380 1258.61,-365.15 1258.56,-352.88 1234,-342 1186.3,-320.87 1163.36,-349.77 1118,-324 1088.91,-307.47 1070,-299.46 1070,-266 1070,-266 1070,-266 1070,-93 1070,-76.4 1062.17,-59.83 1053.62,-46.68"/>
<polygon fill="red" stroke="red" points="1056.27,-44.36 1047.68,-38.17 1050.53,-48.37 1056.27,-44.36"/>
<text text-anchor="middle" x="1103" y="-220" font-family="Times,serif" font-size="10.00" fill="red">1.1.8</text>
<text text-anchor="middle" x="1103" y="-209" font-family="Times,serif" font-size="10.00" fill="red">(latest: 1.2.0)</text>
</g>
<!-- roo_transport&#45;&gt;roo_threads -->
<g id="edge54" class="edge">
<title>roo_transport&#45;&gt;roo_threads</title>
<path fill="none" stroke="red" d="M1365.96,-449.76C1322.16,-443.98 1266.19,-434.12 1248,-420 1217.54,-396.35 1241.84,-363.76 1210,-342 1169.5,-314.32 1037.06,-337.85 990,-324 919.42,-303.23 909.73,-279.05 844,-246 806.68,-227.23 763.89,-207.1 731.8,-192.27"/>
<polygon fill="red" stroke="red" points="733.18,-189.05 722.63,-188.04 730.25,-195.41 733.18,-189.05"/>
<text text-anchor="middle" x="1023" y="-316" font-family="Times,serif" font-size="10.00" fill="red">1.1.6</text>
<text text-anchor="middle" x="1023" y="-305" font-family="Times,serif" font-size="10.00" fill="red">(latest: 1.2.0)</text>
</g>
<!-- roo_wifi -->
<g id="node23" class="node">
<title>roo_wifi</title>
<polygon fill="plum" stroke="black" points="334,-476 262,-476 262,-438 334,-438 334,-476"/>
<text text-anchor="middle" x="298" y="-460.8" font-family="Times,serif" font-size="14.00">roo_wifi</text>
<text text-anchor="middle" x="298" y="-445.8" font-family="Times,serif" font-size="14.00">1.1.2</text>
</g>
<!-- roo_wifi&#45;&gt;roo_collections -->
<g id="edge56" class="edge">
<title>roo_wifi&#45;&gt;roo_collections</title>
<path fill="none" stroke="red" d="M293.79,-437.9C287.56,-406.08 279.97,-339.91 314,-302 393.25,-213.71 458.26,-267.15 575,-246 694.37,-224.38 724.18,-216.84 845,-206 1095.23,-183.55 1159.08,-200.65 1410,-188 1474.22,-184.76 1547.22,-179.6 1599.66,-175.63"/>
<polygon fill="red" stroke="red" points="1600.16,-179.11 1609.86,-174.86 1599.63,-172.13 1600.16,-179.11"/>
<text text-anchor="middle" x="347" y="-316" font-family="Times,serif" font-size="10.00" fill="red">1.3.2</text>
<text text-anchor="middle" x="347" y="-305" font-family="Times,serif" font-size="10.00" fill="red">(latest: 1.4.0)</text>
</g>
<!-- roo_wifi&#45;&gt;roo_prefs -->
<g id="edge57" class="edge">
<title>roo_wifi&#45;&gt;roo_prefs</title>
<path fill="none" stroke="red" d="M334.28,-439.67C360.72,-427.86 397.45,-411.65 430,-398 442.49,-392.76 456.02,-387.26 468.71,-382.17"/>
<polygon fill="red" stroke="red" points="470.22,-385.34 478.21,-378.38 467.63,-378.84 470.22,-385.34"/>
<text text-anchor="middle" x="463" y="-412" font-family="Times,serif" font-size="10.00" fill="red">1.2.3</text>
<text text-anchor="middle" x="463" y="-401" font-family="Times,serif" font-size="10.00" fill="red">(latest: 1.2.7)</text>
</g>
<!-- roo_wifi&#45;&gt;roo_testing -->
<g id="edge55" class="edge">
<title>roo_wifi&#45;&gt;roo_testing</title>
<path fill="none" stroke="red" d="M290.73,-437.97C288.79,-432.31 286.97,-425.98 286,-420 273.22,-341.26 270.51,-299.14 330,-246 520.82,-75.54 841.5,-33.49 973.02,-23.25"/>
<polygon fill="red" stroke="red" points="973.57,-26.72 983.28,-22.48 973.05,-19.74 973.57,-26.72"/>
<text text-anchor="middle" x="413" y="-220" font-family="Times,serif" font-size="10.00" fill="red">1.1.8</text>
<text text-anchor="middle" x="413" y="-209" font-family="Times,serif" font-size="10.00" fill="red">(latest: 1.2.0)</text>
</g>
<!-- roo_windows&#45;&gt;roo_collections -->
<g id="edge59" class="edge">
<title>roo_windows&#45;&gt;roo_collections</title>
<path fill="none" stroke="red" d="M1967.16,-629.85C1980.6,-586.93 2008.4,-476.88 1970,-398 1919.55,-294.36 1796.45,-225.22 1724.92,-192.29"/>
<polygon fill="red" stroke="red" points="1726.16,-189.02 1715.61,-188.08 1723.27,-195.39 1726.16,-189.02"/>
<text text-anchor="middle" x="2012" y="-412" font-family="Times,serif" font-size="10.00" fill="red">1.3.2</text>
<text text-anchor="middle" x="2012" y="-401" font-family="Times,serif" font-size="10.00" fill="red">(latest: 1.4.0)</text>
</g>
<!-- roo_windows&#45;&gt;roo_icons -->
<g id="edge62" class="edge">
<title>roo_windows&#45;&gt;roo_icons</title>
<path fill="none" stroke="black" d="M1986.07,-629.88C2006.48,-615.12 2035.47,-594.15 2057.81,-578"/>
<polygon fill="black" stroke="black" points="2059.96,-580.76 2066.01,-572.07 2055.86,-575.09 2059.96,-580.76"/>
</g>
<!-- roo_windows&#45;&gt;roo_io -->
<g id="edge63" class="edge">
<title>roo_windows&#45;&gt;roo_io</title>
<path fill="none" stroke="red" d="M1935.58,-629.79C1928.86,-624.43 1921.86,-618.3 1916,-612 1880.74,-574.09 1865.36,-565.45 1850,-516 1836.75,-473.33 1847.45,-421.15 1856.59,-389.8"/>
<polygon fill="red" stroke="red" points="1860,-390.59 1859.59,-380.01 1853.31,-388.54 1860,-390.59"/>
<text text-anchor="middle" x="1883" y="-508" font-family="Times,serif" font-size="10.00" fill="red">2.0.2</text>
<text text-anchor="middle" x="1883" y="-497" font-family="Times,serif" font-size="10.00" fill="red">(latest: 2.1.1)</text>
</g>
<!-- roo_windows&#45;&gt;roo_locale -->
<g id="edge60" class="edge">
<title>roo_windows&#45;&gt;roo_locale</title>
<path fill="none" stroke="black" d="M2015.67,-648.31C2062.26,-646.48 2129.76,-638.76 2182,-612 2196.83,-604.4 2210.22,-591.64 2220.39,-580.01"/>
<polygon fill="black" stroke="black" points="2223.17,-582.14 2226.89,-572.22 2217.79,-577.65 2223.17,-582.14"/>
</g>
<!-- roo_windows&#45;&gt;roo_logging -->
<g id="edge61" class="edge">
<title>roo_windows&#45;&gt;roo_logging</title>
<path fill="none" stroke="red" d="M1956.45,-629.75C1949.03,-600.68 1933.39,-542.21 1916,-494 1903.84,-460.29 1891.26,-455.09 1884,-420 1882.02,-410.43 1880.02,-406.93 1884,-398 1888.87,-387.08 1899.13,-390.92 1904,-380 1910.87,-364.57 1914.89,-354.91 1904,-342 1851.97,-280.27 1606.82,-268.46 1491.39,-266.36"/>
<polygon fill="red" stroke="red" points="1491.36,-262.85 1481.3,-266.19 1491.25,-269.85 1491.36,-262.85"/>
<text text-anchor="middle" x="1942" y="-460" font-family="Times,serif" font-size="10.00" fill="red">1.4.2</text>
<text text-anchor="middle" x="1942" y="-449" font-family="Times,serif" font-size="10.00" fill="red">(latest: 1.5.1)</text>
</g>
<!-- roo_windows&#45;&gt;roo_scheduler -->
<g id="edge64" class="edge">
<title>roo_windows&#45;&gt;roo_scheduler</title>
<path fill="none" stroke="red" d="M1906.19,-646.29C1695.36,-639.47 936.59,-612.59 699,-572 561.84,-548.57 482.32,-588.91 401,-476 380.71,-447.83 405.84,-431.57 397,-398 394.72,-389.35 390.05,-388.71 388,-380 384.12,-363.56 377.91,-355.55 388,-342 410.29,-312.06 506.27,-289.56 573.64,-277.08"/>
<polygon fill="red" stroke="red" points="574.56,-280.47 583.77,-275.24 573.3,-273.58 574.56,-280.47"/>
<text text-anchor="middle" x="434" y="-460" font-family="Times,serif" font-size="10.00" fill="red">2.1.4</text>
<text text-anchor="middle" x="434" y="-449" font-family="Times,serif" font-size="10.00" fill="red">(latest: 2.1.6)</text>
</g>
<!-- roo_windows&#45;&gt;roo_testing -->
<g id="edge58" class="edge">
<title>roo_windows&#45;&gt;roo_testing</title>
<path fill="none" stroke="red" d="M2015.53,-635.96C2054.54,-624.95 2106.1,-605.2 2141,-572 2232.74,-484.71 2180.3,-417.6 2232,-302 2235.93,-293.22 2239.66,-292.58 2244,-284 2258.09,-256.15 2268,-249.21 2268,-218 2268,-218 2268,-218 2268,-93 2268,-33.3 1336.97,-22.24 1091,-20.36"/>
<polygon fill="red" stroke="red" points="1090.86,-16.86 1080.83,-20.28 1090.81,-23.86 1090.86,-16.86"/>
<text text-anchor="middle" x="2265" y="-316" font-family="Times,serif" font-size="10.00" fill="red">1.1.7</text>
<text text-anchor="middle" x="2265" y="-305" font-family="Times,serif" font-size="10.00" fill="red">(latest: 1.2.0)</text>
</g>
<!-- roo_windows&#45;&gt;roo_time -->
<g id="edge65" class="edge">
<title>roo_windows&#45;&gt;roo_time</title>
<path fill="none" stroke="red" d="M1906.25,-647.62C1743.88,-646.19 1250.85,-639.72 843,-612 671.36,-600.34 627.62,-600.73 458,-572 351.29,-553.93 308.28,-580.01 221,-516 152.22,-465.55 116.27,-423.93 140,-342 154.37,-292.39 225.74,-174.89 271,-150 346.09,-108.71 603.06,-98.37 712.26,-95.82"/>
<polygon fill="red" stroke="red" points="712.44,-99.32 722.36,-95.6 712.28,-92.32 712.44,-99.32"/>
<text text-anchor="middle" x="173" y="-364" font-family="Times,serif" font-size="10.00" fill="red">1.3.2</text>
<text text-anchor="middle" x="173" y="-353" font-family="Times,serif" font-size="10.00" fill="red">(latest: 1.4.0)</text>
</g>
<!-- roo_windows_wifi -->
<g id="node25" class="node">
<title>roo_windows_wifi</title>
<polygon fill="plum" stroke="black" points="273.5,-743 132.5,-743 132.5,-705 273.5,-705 273.5,-743"/>
<text text-anchor="middle" x="203" y="-727.8" font-family="Times,serif" font-size="14.00">roo_windows_wifi</text>
<text text-anchor="middle" x="203" y="-712.8" font-family="Times,serif" font-size="14.00">1.1.2</text>
</g>
<!-- roo_windows_wifi&#45;&gt;roo_testing -->
<g id="edge66" class="edge">
<title>roo_windows_wifi&#45;&gt;roo_testing</title>
<path fill="none" stroke="red" d="M132.29,-711.26C73.7,-699.46 0,-678.89 0,-650 0,-650 0,-650 0,-93 0,-43.85 754.56,-25.38 973.26,-21.06"/>
<polygon fill="red" stroke="red" points="973.33,-24.56 983.26,-20.86 973.2,-17.56 973.33,-24.56"/>
<text text-anchor="middle" x="33" y="-364" font-family="Times,serif" font-size="10.00" fill="red">1.1.7</text>
<text text-anchor="middle" x="33" y="-353" font-family="Times,serif" font-size="10.00" fill="red">(latest: 1.2.0)</text>
</g>
<!-- roo_windows_wifi&#45;&gt;roo_wifi -->
<g id="edge67" class="edge">
<title>roo_windows_wifi&#45;&gt;roo_wifi</title>
<path fill="none" stroke="red" d="M209.53,-704.79C225.83,-659.31 268.42,-540.52 287.95,-486.04"/>
<polygon fill="red" stroke="red" points="291.34,-486.94 291.42,-476.34 284.76,-484.57 291.34,-486.94"/>
<text text-anchor="middle" x="284" y="-604" font-family="Times,serif" font-size="10.00" fill="red">1.1.1</text>
<text text-anchor="middle" x="284" y="-593" font-family="Times,serif" font-size="10.00" fill="red">(latest: 1.1.2)</text>
</g>
<!-- roo_windows_wifi&#45;&gt;roo_windows -->
<g id="edge68" class="edge">
<title>roo_windows_wifi&#45;&gt;roo_windows</title>
<path fill="none" stroke="black" d="M273.55,-720.07C558.42,-708.24 1621.8,-664.08 1896.11,-652.69"/>
<polygon fill="black" stroke="black" points="1896.45,-656.18 1906.3,-652.27 1896.16,-649.19 1896.45,-656.18"/>
</g>
</g>
</svg>
