<?xml version="1.0" encoding="UTF-8" standalone="no"?>
<!DOCTYPE svg PUBLIC "-//W3C//DTD SVG 1.1//EN"
 "http://www.w3.org/Graphics/SVG/1.1/DTD/svg11.dtd">
<!-- Generated by graphviz version 2.42.4 (0)
 -->
<!-- Title: dependencies Pages: 1 -->
<svg width="1086pt" height="793pt"
 viewBox="0.00 0.00 1085.50 793.00" xmlns="http://www.w3.org/2000/svg" xmlns:xlink="http://www.w3.org/1999/xlink">
<g id="graph0" class="graph" transform="scale(1 1) rotate(0) translate(4 789)">
<title>dependencies</title>
<polygon fill="white" stroke="transparent" points="-4,4 -4,-789 1081.5,-789 1081.5,4 -4,4"/>
<!-- roo_backport -->
<g id="node1" class="node">
<title>roo_backport</title>
<polygon fill="#b1dbab" stroke="black" points="543,-230 433,-230 433,-192 543,-192 543,-230"/>
<text text-anchor="middle" x="488" y="-214.8" font-family="Times,serif" font-size="14.00">roo_backport</text>
<text text-anchor="middle" x="488" y="-199.8" font-family="Times,serif" font-size="14.00">1.2.2</text>
</g>
<!-- roo_blink -->
<g id="node2" class="node">
<title>roo_blink</title>
<polygon fill="#b1dbab" stroke="black" points="962,-593 880,-593 880,-555 962,-555 962,-593"/>
<text text-anchor="middle" x="921" y="-577.8" font-family="Times,serif" font-size="14.00">roo_blink</text>
<text text-anchor="middle" x="921" y="-562.8" font-family="Times,serif" font-size="14.00">1.0.6</text>
</g>
<!-- roo_logging -->
<g id="node13" class="node">
<title>roo_logging</title>
<polygon fill="#b1dbab" stroke="red" points="795,-326 695,-326 695,-288 795,-288 795,-326"/>
<text text-anchor="middle" x="745" y="-310.8" font-family="Times,serif" font-size="14.00">roo_logging</text>
<text text-anchor="middle" x="745" y="-295.8" font-family="Times,serif" font-size="14.00">1.5.5</text>
</g>
<!-- roo_blink&#45;&gt;roo_logging -->
<g id="edge1" class="edge">
<title>roo_blink&#45;&gt;roo_logging</title>
<path fill="none" stroke="black" d="M923.43,-554.7C925.72,-531.39 926.99,-490.34 913,-459 887.39,-401.61 828.02,-356.91 787.18,-331.49"/>
<polygon fill="black" stroke="black" points="788.87,-328.42 778.51,-326.21 785.23,-334.4 788.87,-328.42"/>
</g>
<!-- roo_scheduler -->
<g id="node19" class="node">
<title>roo_scheduler</title>
<polygon fill="#b1dbab" stroke="black" points="426,-497 310,-497 310,-459 426,-459 426,-497"/>
<text text-anchor="middle" x="368" y="-481.8" font-family="Times,serif" font-size="14.00">roo_scheduler</text>
<text text-anchor="middle" x="368" y="-466.8" font-family="Times,serif" font-size="14.00">2.1.9</text>
</g>
<!-- roo_blink&#45;&gt;roo_scheduler -->
<g id="edge2" class="edge">
<title>roo_blink&#45;&gt;roo_scheduler</title>
<path fill="none" stroke="black" d="M879.73,-557.4C876.8,-556.52 873.87,-555.71 871,-555 745.1,-523.98 710.57,-531.82 582,-515 517.17,-506.52 500.19,-509.39 436,-497 435.9,-496.98 435.8,-496.96 435.7,-496.94"/>
<polygon fill="black" stroke="black" points="436.62,-493.56 426.12,-494.94 435.19,-500.41 436.62,-493.56"/>
</g>
<!-- roo_collections -->
<g id="node3" class="node">
<title>roo_collections</title>
<polygon fill="#b1dbab" stroke="black" points="472,-401 350,-401 350,-363 472,-363 472,-401"/>
<text text-anchor="middle" x="411" y="-385.8" font-family="Times,serif" font-size="14.00">roo_collections</text>
<text text-anchor="middle" x="411" y="-370.8" font-family="Times,serif" font-size="14.00">1.4.3</text>
</g>
<!-- roo_collections&#45;&gt;roo_backport -->
<g id="edge3" class="edge">
<title>roo_collections&#45;&gt;roo_backport</title>
<path fill="none" stroke="black" d="M419.24,-362.91C432.75,-333.26 459.69,-274.12 475.55,-239.33"/>
<polygon fill="black" stroke="black" points="478.74,-240.76 479.7,-230.21 472.37,-237.86 478.74,-240.76"/>
</g>
<!-- roo_comms -->
<g id="node4" class="node">
<title>roo_comms</title>
<polygon fill="#b1dbab" stroke="red" points="835.5,-785 738.5,-785 738.5,-747 835.5,-747 835.5,-785"/>
<text text-anchor="middle" x="787" y="-769.8" font-family="Times,serif" font-size="14.00">roo_comms</text>
<text text-anchor="middle" x="787" y="-754.8" font-family="Times,serif" font-size="14.00">1.1.4</text>
</g>
<!-- roo_comms&#45;&gt;roo_blink -->
<g id="edge4" class="edge">
<title>roo_comms&#45;&gt;roo_blink</title>
<path fill="none" stroke="black" d="M799.85,-746.78C823.66,-713.02 874.73,-640.61 902.35,-601.45"/>
<polygon fill="black" stroke="black" points="905.29,-603.35 908.19,-593.16 899.57,-599.32 905.29,-603.35"/>
</g>
<!-- roo_control -->
<g id="node5" class="node">
<title>roo_control</title>
<polygon fill="#b1dbab" stroke="black" points="1077.5,-593 980.5,-593 980.5,-555 1077.5,-555 1077.5,-593"/>
<text text-anchor="middle" x="1029" y="-577.8" font-family="Times,serif" font-size="14.00">roo_control</text>
<text text-anchor="middle" x="1029" y="-562.8" font-family="Times,serif" font-size="14.00">1.2.5</text>
</g>
<!-- roo_comms&#45;&gt;roo_control -->
<g id="edge5" class="edge">
<title>roo_comms&#45;&gt;roo_control</title>
<path fill="none" stroke="black" d="M810.96,-746.75C818.37,-741.09 826.54,-734.81 834,-729 892.25,-683.69 959.72,-630.17 998.08,-599.65"/>
<polygon fill="black" stroke="black" points="1000.63,-602.1 1006.27,-593.13 996.27,-596.62 1000.63,-602.1"/>
</g>
<!-- roo_io -->
<g id="node11" class="node">
<title>roo_io</title>
<polygon fill="#b1dbab" stroke="red" points="693.5,-401 634.5,-401 634.5,-363 693.5,-363 693.5,-401"/>
<text text-anchor="middle" x="664" y="-385.8" font-family="Times,serif" font-size="14.00">roo_io</text>
<text text-anchor="middle" x="664" y="-370.8" font-family="Times,serif" font-size="14.00">2.1.5</text>
</g>
<!-- roo_comms&#45;&gt;roo_io -->
<g id="edge6" class="edge">
<title>roo_comms&#45;&gt;roo_io</title>
<path fill="none" stroke="black" d="M767.7,-746.8C751.17,-729.17 730,-700.77 730,-671 730,-671 730,-671 730,-477 730,-450.13 711.71,-425.5 694.39,-408.2"/>
<polygon fill="black" stroke="black" points="696.74,-405.61 687.08,-401.25 691.92,-410.68 696.74,-405.61"/>
</g>
<!-- roo_transceivers -->
<g id="node24" class="node">
<title>roo_transceivers</title>
<polygon fill="#b1dbab" stroke="black" points="503.5,-689 368.5,-689 368.5,-651 503.5,-651 503.5,-689"/>
<text text-anchor="middle" x="436" y="-673.8" font-family="Times,serif" font-size="14.00">roo_transceivers</text>
<text text-anchor="middle" x="436" y="-658.8" font-family="Times,serif" font-size="14.00">1.1.6</text>
</g>
<!-- roo_comms&#45;&gt;roo_transceivers -->
<g id="edge7" class="edge">
<title>roo_comms&#45;&gt;roo_transceivers</title>
<path fill="none" stroke="red" d="M738.26,-758.12C711.08,-752.86 677.31,-743.9 650,-729 637.3,-722.07 639.03,-713.29 626,-707 582.89,-686.18 565.03,-697.29 513.56,-688.89"/>
<polygon fill="red" stroke="red" points="514.01,-685.41 503.55,-687.08 512.77,-692.3 514.01,-685.41"/>
<text text-anchor="middle" x="683" y="-721" font-family="Times,serif" font-size="10.00" fill="red">1.1.5</text>
<text text-anchor="middle" x="683" y="-710" font-family="Times,serif" font-size="10.00" fill="red">(latest: 1.1.6)</text>
</g>
<!-- roo_quantity -->
<g id="node18" class="node">
<title>roo_quantity</title>
<polygon fill="#b1dbab" stroke="black" points="903.5,-497 796.5,-497 796.5,-459 903.5,-459 903.5,-497"/>
<text text-anchor="middle" x="850" y="-481.8" font-family="Times,serif" font-size="14.00">roo_quantity</text>
<text text-anchor="middle" x="850" y="-466.8" font-family="Times,serif" font-size="14.00">1.1.8</text>
</g>
<!-- roo_control&#45;&gt;roo_quantity -->
<g id="edge8" class="edge">
<title>roo_control&#45;&gt;roo_quantity</title>
<path fill="none" stroke="black" d="M994.49,-554.88C965.64,-539.73 924.34,-518.04 893.28,-501.73"/>
<polygon fill="black" stroke="black" points="894.89,-498.62 884.41,-497.07 891.63,-504.82 894.89,-498.62"/>
</g>
<!-- roo_control&#45;&gt;roo_scheduler -->
<g id="edge9" class="edge">
<title>roo_control&#45;&gt;roo_scheduler</title>
<path fill="none" stroke="black" d="M980.42,-557.32C977.24,-556.48 974.08,-555.7 971,-555 850.54,-527.72 818.8,-528.16 696,-515 580.83,-502.65 550.28,-515.91 436,-497 435.9,-496.98 435.8,-496.97 435.69,-496.95"/>
<polygon fill="black" stroke="black" points="436.55,-493.55 426.08,-495.15 435.27,-500.43 436.55,-493.55"/>
</g>
<!-- roo_dashboard -->
<g id="node6" class="node">
<title>roo_dashboard</title>
<polygon fill="plum" stroke="red" points="247,-785 125,-785 125,-747 247,-747 247,-785"/>
<text text-anchor="middle" x="186" y="-769.8" font-family="Times,serif" font-size="14.00">roo_dashboard</text>
<text text-anchor="middle" x="186" y="-754.8" font-family="Times,serif" font-size="14.00">1.0.1</text>
</g>
<!-- roo_windows -->
<g id="node27" class="node">
<title>roo_windows</title>
<polygon fill="khaki" stroke="red" points="349.5,-689 240.5,-689 240.5,-651 349.5,-651 349.5,-689"/>
<text text-anchor="middle" x="295" y="-673.8" font-family="Times,serif" font-size="14.00">roo_windows</text>
<text text-anchor="middle" x="295" y="-658.8" font-family="Times,serif" font-size="14.00">1.4.2</text>
</g>
<!-- roo_dashboard&#45;&gt;roo_windows -->
<g id="edge10" class="edge">
<title>roo_dashboard&#45;&gt;roo_windows</title>
<path fill="none" stroke="red" d="M201.78,-746.8C212.54,-734.86 227.44,-719.26 242,-707 246.91,-702.86 252.31,-698.76 257.72,-694.89"/>
<polygon fill="red" stroke="red" points="259.94,-697.6 266.16,-689.02 255.95,-691.85 259.94,-697.6"/>
<text text-anchor="middle" x="275" y="-721" font-family="Times,serif" font-size="10.00" fill="red">1.4.1</text>
<text text-anchor="middle" x="275" y="-710" font-family="Times,serif" font-size="10.00" fill="red">(latest: 1.4.2)</text>
</g>
<!-- roo_display -->
<g id="node7" class="node">
<title>roo_display</title>
<polygon fill="khaki" stroke="black" points="292,-497 194,-497 194,-459 292,-459 292,-497"/>
<text text-anchor="middle" x="243" y="-481.8" font-family="Times,serif" font-size="14.00">roo_display</text>
<text text-anchor="middle" x="243" y="-466.8" font-family="Times,serif" font-size="14.00">3.0.2</text>
</g>
<!-- roo_display&#45;&gt;roo_collections -->
<g id="edge11" class="edge">
<title>roo_display&#45;&gt;roo_collections</title>
<path fill="none" stroke="black" d="M275.39,-458.88C302.24,-443.86 340.56,-422.41 369.62,-406.15"/>
<polygon fill="black" stroke="black" points="371.69,-409.01 378.71,-401.07 368.27,-402.9 371.69,-409.01"/>
</g>
<!-- roo_display&#45;&gt;roo_io -->
<g id="edge12" class="edge">
<title>roo_display&#45;&gt;roo_io</title>
<path fill="none" stroke="black" d="M292.18,-460.95C295.15,-460.23 298.1,-459.57 301,-459 392.93,-441.01 421.99,-470.2 511,-441 528.82,-435.15 529.91,-426.71 547,-419 571.98,-407.74 601.47,-398.69 624.6,-392.48"/>
<polygon fill="black" stroke="black" points="625.62,-395.83 634.41,-389.91 623.85,-389.06 625.62,-395.83"/>
</g>
<!-- roo_flags -->
<g id="node8" class="node">
<title>roo_flags</title>
<polygon fill="#b1dbab" stroke="black" points="784,-230 704,-230 704,-192 784,-192 784,-230"/>
<text text-anchor="middle" x="744" y="-214.8" font-family="Times,serif" font-size="14.00">roo_flags</text>
<text text-anchor="middle" x="744" y="-199.8" font-family="Times,serif" font-size="14.00">1.2.3</text>
</g>
<!-- roo_fonts_basic -->
<g id="node9" class="node">
<title>roo_fonts_basic</title>
<polygon fill="#b1dbab" stroke="red" points="126,-593 0,-593 0,-555 126,-555 126,-593"/>
<text text-anchor="middle" x="63" y="-577.8" font-family="Times,serif" font-size="14.00">roo_fonts_basic</text>
<text text-anchor="middle" x="63" y="-562.8" font-family="Times,serif" font-size="14.00">1.0.1</text>
</g>
<!-- roo_fonts_basic&#45;&gt;roo_display -->
<g id="edge13" class="edge">
<title>roo_fonts_basic&#45;&gt;roo_display</title>
<path fill="none" stroke="red" d="M97.71,-554.88C126.72,-539.73 168.24,-518.04 199.47,-501.73"/>
<polygon fill="red" stroke="red" points="201.16,-504.8 208.4,-497.07 197.92,-498.6 201.16,-504.8"/>
<text text-anchor="middle" x="203" y="-529" font-family="Times,serif" font-size="10.00" fill="red">3.0.1</text>
<text text-anchor="middle" x="203" y="-518" font-family="Times,serif" font-size="10.00" fill="red">(latest: 3.0.2)</text>
</g>
<!-- roo_icons -->
<g id="node10" class="node">
<title>roo_icons</title>
<polygon fill="#b1dbab" stroke="black" points="333.5,-593 250.5,-593 250.5,-555 333.5,-555 333.5,-593"/>
<text text-anchor="middle" x="292" y="-577.8" font-family="Times,serif" font-size="14.00">roo_icons</text>
<text text-anchor="middle" x="292" y="-562.8" font-family="Times,serif" font-size="14.00">1.2.2</text>
</g>
<!-- roo_icons&#45;&gt;roo_display -->
<g id="edge14" class="edge">
<title>roo_icons&#45;&gt;roo_display</title>
<path fill="none" stroke="black" d="M282.55,-554.88C275.37,-541.09 265.36,-521.9 257.21,-506.26"/>
<polygon fill="black" stroke="black" points="260.14,-504.32 252.42,-497.07 253.94,-507.55 260.14,-504.32"/>
</g>
<!-- roo_io&#45;&gt;roo_logging -->
<g id="edge15" class="edge">
<title>roo_io&#45;&gt;roo_logging</title>
<path fill="none" stroke="black" d="M684.02,-362.96C694.05,-353.92 706.35,-342.83 717.27,-332.99"/>
<polygon fill="black" stroke="black" points="719.84,-335.39 724.93,-326.09 715.16,-330.19 719.84,-335.39"/>
</g>
<!-- roo_locale -->
<g id="node12" class="node">
<title>roo_locale</title>
<polygon fill="#b1dbab" stroke="black" points="232,-593 144,-593 144,-555 232,-555 232,-593"/>
<text text-anchor="middle" x="188" y="-577.8" font-family="Times,serif" font-size="14.00">roo_locale</text>
<text text-anchor="middle" x="188" y="-562.8" font-family="Times,serif" font-size="14.00">1.1.2</text>
</g>
<!-- roo_logging&#45;&gt;roo_backport -->
<g id="edge16" class="edge">
<title>roo_logging&#45;&gt;roo_backport</title>
<path fill="none" stroke="black" d="M725.45,-287.83C708.01,-271.79 684.41,-250.55 679,-248 633.8,-226.67 617.07,-239.49 568,-230 563.27,-229.09 558.39,-228.1 553.49,-227.07"/>
<polygon fill="black" stroke="black" points="553.94,-223.59 543.43,-224.93 552.48,-230.44 553.94,-223.59"/>
</g>
<!-- roo_logging&#45;&gt;roo_flags -->
<g id="edge17" class="edge">
<title>roo_logging&#45;&gt;roo_flags</title>
<path fill="none" stroke="black" d="M744.81,-287.88C744.66,-274.35 744.46,-255.62 744.3,-240.15"/>
<polygon fill="black" stroke="black" points="747.8,-240.03 744.19,-230.07 740.8,-240.11 747.8,-240.03"/>
</g>
<!-- roo_threads -->
<g id="node21" class="node">
<title>roo_threads</title>
<polygon fill="#b1dbab" stroke="red" points="677.5,-230 576.5,-230 576.5,-192 677.5,-192 677.5,-230"/>
<text text-anchor="middle" x="627" y="-214.8" font-family="Times,serif" font-size="14.00">roo_threads</text>
<text text-anchor="middle" x="627" y="-199.8" font-family="Times,serif" font-size="14.00">1.2.3</text>
</g>
<!-- roo_logging&#45;&gt;roo_threads -->
<g id="edge18" class="edge">
<title>roo_logging&#45;&gt;roo_threads</title>
<path fill="none" stroke="black" d="M735.87,-287.86C728.84,-275.34 718.1,-259.03 705,-248 699.27,-243.18 692.79,-238.87 686.08,-235.04"/>
<polygon fill="black" stroke="black" points="687.3,-231.73 676.82,-230.14 684.02,-237.91 687.3,-231.73"/>
</g>
<!-- roo_monitoring -->
<g id="node14" class="node">
<title>roo_monitoring</title>
<polygon fill="plum" stroke="red" points="569.5,-497 444.5,-497 444.5,-459 569.5,-459 569.5,-497"/>
<text text-anchor="middle" x="507" y="-481.8" font-family="Times,serif" font-size="14.00">roo_monitoring</text>
<text text-anchor="middle" x="507" y="-466.8" font-family="Times,serif" font-size="14.00">1.0.0</text>
</g>
<!-- roo_monitoring&#45;&gt;roo_collections -->
<g id="edge19" class="edge">
<title>roo_monitoring&#45;&gt;roo_collections</title>
<path fill="none" stroke="red" d="M488.16,-458.7C482.33,-453.04 475.89,-446.77 470,-441 459.01,-430.25 446.9,-418.35 436.52,-408.14"/>
<polygon fill="red" stroke="red" points="438.9,-405.57 429.31,-401.05 433.99,-410.56 438.9,-405.57"/>
<text text-anchor="middle" x="503" y="-433" font-family="Times,serif" font-size="10.00" fill="red">1.4.1</text>
<text text-anchor="middle" x="503" y="-422" font-family="Times,serif" font-size="10.00" fill="red">(latest: 1.4.3)</text>
</g>
<!-- roo_monitoring&#45;&gt;roo_io -->
<g id="edge20" class="edge">
<title>roo_monitoring&#45;&gt;roo_io</title>
<path fill="none" stroke="red" d="M527.67,-458.79C542.2,-446.55 562.47,-430.6 582,-419 595.47,-411 611.04,-403.72 624.96,-397.84"/>
<polygon fill="red" stroke="red" points="626.39,-401.04 634.3,-393.99 623.72,-394.56 626.39,-401.04"/>
<text text-anchor="middle" x="615" y="-433" font-family="Times,serif" font-size="10.00" fill="red">2.1.4</text>
<text text-anchor="middle" x="615" y="-422" font-family="Times,serif" font-size="10.00" fill="red">(latest: 2.1.5)</text>
</g>
<!-- roo_onewire -->
<g id="node15" class="node">
<title>roo_onewire</title>
<polygon fill="#b1dbab" stroke="black" points="862,-593 758,-593 758,-555 862,-555 862,-593"/>
<text text-anchor="middle" x="810" y="-577.8" font-family="Times,serif" font-size="14.00">roo_onewire</text>
<text text-anchor="middle" x="810" y="-562.8" font-family="Times,serif" font-size="14.00">2.0.9</text>
</g>
<!-- roo_onewire&#45;&gt;roo_quantity -->
<g id="edge22" class="edge">
<title>roo_onewire&#45;&gt;roo_quantity</title>
<path fill="none" stroke="black" d="M817.71,-554.88C823.52,-541.22 831.59,-522.26 838.21,-506.71"/>
<polygon fill="black" stroke="black" points="841.62,-507.64 842.31,-497.07 835.18,-504.9 841.62,-507.64"/>
</g>
<!-- roo_onewire&#45;&gt;roo_scheduler -->
<g id="edge21" class="edge">
<title>roo_onewire&#45;&gt;roo_scheduler</title>
<path fill="none" stroke="black" d="M757.76,-563.38C685.27,-549.81 550.2,-523.69 436,-497 435.9,-496.98 435.8,-496.95 435.7,-496.93"/>
<polygon fill="black" stroke="black" points="436.72,-493.58 426.18,-494.64 435.09,-500.38 436.72,-493.58"/>
</g>
<!-- roo_powersafefs -->
<g id="node16" class="node">
<title>roo_powersafefs</title>
<polygon fill="plum" stroke="red" points="676.5,-326 543.5,-326 543.5,-288 676.5,-288 676.5,-326"/>
<text text-anchor="middle" x="610" y="-310.8" font-family="Times,serif" font-size="14.00">roo_powersafefs</text>
<text text-anchor="middle" x="610" y="-295.8" font-family="Times,serif" font-size="14.00">1.0.0</text>
</g>
<!-- roo_powersafefs&#45;&gt;roo_threads -->
<g id="edge23" class="edge">
<title>roo_powersafefs&#45;&gt;roo_threads</title>
<path fill="none" stroke="red" d="M613.28,-287.88C615.72,-274.35 619.11,-255.62 621.91,-240.15"/>
<polygon fill="red" stroke="red" points="625.4,-240.53 623.73,-230.07 618.51,-239.29 625.4,-240.53"/>
<text text-anchor="middle" x="653" y="-262" font-family="Times,serif" font-size="10.00" fill="red">1.2.1</text>
<text text-anchor="middle" x="653" y="-251" font-family="Times,serif" font-size="10.00" fill="red">(latest: 1.2.3)</text>
</g>
<!-- roo_prefs -->
<g id="node17" class="node">
<title>roo_prefs</title>
<polygon fill="#b1dbab" stroke="black" points="571.5,-593 488.5,-593 488.5,-555 571.5,-555 571.5,-593"/>
<text text-anchor="middle" x="530" y="-577.8" font-family="Times,serif" font-size="14.00">roo_prefs</text>
<text text-anchor="middle" x="530" y="-562.8" font-family="Times,serif" font-size="14.00">1.2.10</text>
</g>
<!-- roo_prefs&#45;&gt;roo_logging -->
<g id="edge24" class="edge">
<title>roo_prefs&#45;&gt;roo_logging</title>
<path fill="none" stroke="black" d="M571.81,-563.59C611.38,-552.94 670.57,-532.31 711,-497 756.74,-457.05 754.6,-378.27 749.56,-336.14"/>
<polygon fill="black" stroke="black" points="753.01,-335.47 748.21,-326.02 746.07,-336.4 753.01,-335.47"/>
</g>
<!-- roo_prefs&#45;&gt;roo_scheduler -->
<g id="edge25" class="edge">
<title>roo_prefs&#45;&gt;roo_scheduler</title>
<path fill="none" stroke="black" d="M498.76,-554.88C472.88,-539.86 435.92,-518.41 407.9,-502.15"/>
<polygon fill="black" stroke="black" points="409.55,-499.06 399.14,-497.07 406.03,-505.11 409.55,-499.06"/>
</g>
<!-- roo_quantity&#45;&gt;roo_logging -->
<g id="edge26" class="edge">
<title>roo_quantity&#45;&gt;roo_logging</title>
<path fill="none" stroke="black" d="M842.91,-458.72C832.08,-432.05 809.72,-381.56 782,-344 779.43,-340.51 776.5,-337.06 773.45,-333.75"/>
<polygon fill="black" stroke="black" points="775.71,-331.05 766.22,-326.34 770.7,-335.94 775.71,-331.05"/>
</g>
<!-- roo_scheduler&#45;&gt;roo_collections -->
<g id="edge27" class="edge">
<title>roo_scheduler&#45;&gt;roo_collections</title>
<path fill="none" stroke="black" d="M375.51,-458.86C380.34,-447.36 386.85,-432.22 393,-419 394.31,-416.18 395.71,-413.25 397.13,-410.33"/>
<polygon fill="black" stroke="black" points="400.34,-411.73 401.64,-401.22 394.07,-408.63 400.34,-411.73"/>
</g>
<!-- roo_scheduler&#45;&gt;roo_threads -->
<g id="edge28" class="edge">
<title>roo_scheduler&#45;&gt;roo_threads</title>
<path fill="none" stroke="black" d="M426.19,-460.51C454.75,-452.2 483.59,-443.38 486,-441 536.84,-390.86 494.97,-347.13 535,-288 549,-267.32 570.21,-249.27 588.74,-235.95"/>
<polygon fill="black" stroke="black" points="590.83,-238.76 597.03,-230.17 586.83,-233.02 590.83,-238.76"/>
</g>
<!-- roo_testing -->
<g id="node20" class="node">
<title>roo_testing</title>
<polygon fill="#b1dbab" stroke="black" points="797.5,-38 700.5,-38 700.5,0 797.5,0 797.5,-38"/>
<text text-anchor="middle" x="749" y="-22.8" font-family="Times,serif" font-size="14.00">roo_testing</text>
<text text-anchor="middle" x="749" y="-7.8" font-family="Times,serif" font-size="14.00">1.3.4</text>
</g>
<!-- roo_time -->
<g id="node22" class="node">
<title>roo_time</title>
<polygon fill="#b1dbab" stroke="red" points="788.5,-134 709.5,-134 709.5,-96 788.5,-96 788.5,-134"/>
<text text-anchor="middle" x="749" y="-118.8" font-family="Times,serif" font-size="14.00">roo_time</text>
<text text-anchor="middle" x="749" y="-103.8" font-family="Times,serif" font-size="14.00">1.4.3</text>
</g>
<!-- roo_threads&#45;&gt;roo_time -->
<g id="edge29" class="edge">
<title>roo_threads&#45;&gt;roo_time</title>
<path fill="none" stroke="black" d="M650.52,-191.88C669.59,-177.18 696.65,-156.34 717.57,-140.21"/>
<polygon fill="black" stroke="black" points="719.76,-142.94 725.55,-134.07 715.49,-137.4 719.76,-142.94"/>
</g>
<!-- roo_time&#45;&gt;roo_testing -->
<g id="edge30" class="edge">
<title>roo_time&#45;&gt;roo_testing</title>
<path fill="none" stroke="red" d="M749,-95.88C749,-82.35 749,-63.62 749,-48.15"/>
<polygon fill="red" stroke="red" points="752.5,-48.07 749,-38.07 745.5,-48.07 752.5,-48.07"/>
<text text-anchor="middle" x="782" y="-70" font-family="Times,serif" font-size="10.00" fill="red">1.3.2</text>
<text text-anchor="middle" x="782" y="-59" font-family="Times,serif" font-size="10.00" fill="red">(latest: 1.3.4)</text>
</g>
<!-- roo_time_ds3231 -->
<g id="node23" class="node">
<title>roo_time_ds3231</title>
<polygon fill="khaki" stroke="red" points="940,-230 802,-230 802,-192 940,-192 940,-230"/>
<text text-anchor="middle" x="871" y="-214.8" font-family="Times,serif" font-size="14.00">roo_time_ds3231</text>
<text text-anchor="middle" x="871" y="-199.8" font-family="Times,serif" font-size="14.00">1.1.5</text>
</g>
<!-- roo_time_ds3231&#45;&gt;roo_time -->
<g id="edge31" class="edge">
<title>roo_time_ds3231&#45;&gt;roo_time</title>
<path fill="none" stroke="red" d="M847.48,-191.88C828.41,-177.18 801.35,-156.34 780.43,-140.21"/>
<polygon fill="red" stroke="red" points="782.51,-137.4 772.45,-134.07 778.24,-142.94 782.51,-137.4"/>
<text text-anchor="middle" x="853" y="-166" font-family="Times,serif" font-size="10.00" fill="red">1.4.1</text>
<text text-anchor="middle" x="853" y="-155" font-family="Times,serif" font-size="10.00" fill="red">(latest: 1.4.3)</text>
</g>
<!-- roo_transceivers&#45;&gt;roo_prefs -->
<g id="edge32" class="edge">
<title>roo_transceivers&#45;&gt;roo_prefs</title>
<path fill="none" stroke="black" d="M454.12,-650.88C468.43,-636.57 488.56,-616.44 504.49,-600.51"/>
<polygon fill="black" stroke="black" points="507.34,-602.61 511.93,-593.07 502.39,-597.66 507.34,-602.61"/>
</g>
<!-- roo_transport -->
<g id="node25" class="node">
<title>roo_transport</title>
<polygon fill="#b1dbab" stroke="black" points="702,-497 588,-497 588,-459 702,-459 702,-497"/>
<text text-anchor="middle" x="645" y="-481.8" font-family="Times,serif" font-size="14.00">roo_transport</text>
<text text-anchor="middle" x="645" y="-466.8" font-family="Times,serif" font-size="14.00">1.1.2</text>
</g>
<!-- roo_transport&#45;&gt;roo_collections -->
<g id="edge33" class="edge">
<title>roo_transport&#45;&gt;roo_collections</title>
<path fill="none" stroke="black" d="M643.54,-458.83C641.5,-445.79 636.62,-428.84 625,-419 603.8,-401.04 535.99,-391.83 482.32,-387.24"/>
<polygon fill="black" stroke="black" points="482.38,-383.74 472.13,-386.41 481.82,-390.71 482.38,-383.74"/>
</g>
<!-- roo_transport&#45;&gt;roo_io -->
<g id="edge34" class="edge">
<title>roo_transport&#45;&gt;roo_io</title>
<path fill="none" stroke="black" d="M648.66,-458.88C651.4,-445.35 655.18,-426.62 658.31,-411.15"/>
<polygon fill="black" stroke="black" points="661.8,-411.56 660.35,-401.07 654.94,-410.18 661.8,-411.56"/>
</g>
<!-- roo_wifi -->
<g id="node26" class="node">
<title>roo_wifi</title>
<polygon fill="khaki" stroke="red" points="594,-689 522,-689 522,-651 594,-651 594,-689"/>
<text text-anchor="middle" x="558" y="-673.8" font-family="Times,serif" font-size="14.00">roo_wifi</text>
<text text-anchor="middle" x="558" y="-658.8" font-family="Times,serif" font-size="14.00">1.1.4</text>
</g>
<!-- roo_wifi&#45;&gt;roo_prefs -->
<g id="edge35" class="edge">
<title>roo_wifi&#45;&gt;roo_prefs</title>
<path fill="none" stroke="red" d="M552.6,-650.88C548.53,-637.22 542.89,-618.26 538.25,-602.71"/>
<polygon fill="red" stroke="red" points="541.59,-601.65 535.38,-593.07 534.88,-603.65 541.59,-601.65"/>
<text text-anchor="middle" x="582" y="-625" font-family="Times,serif" font-size="10.00" fill="red">1.2.9</text>
<text text-anchor="middle" x="582" y="-614" font-family="Times,serif" font-size="10.00" fill="red">(latest: 1.2.10)</text>
</g>
<!-- roo_windows&#45;&gt;roo_icons -->
<g id="edge37" class="edge">
<title>roo_windows&#45;&gt;roo_icons</title>
<path fill="none" stroke="red" d="M292.57,-650.72C291.93,-645.05 291.32,-638.78 291,-633 290.46,-623.28 290.47,-612.64 290.69,-603.15"/>
<polygon fill="red" stroke="red" points="294.2,-603.15 291.02,-593.04 287.2,-602.92 294.2,-603.15"/>
<text text-anchor="middle" x="324" y="-625" font-family="Times,serif" font-size="10.00" fill="red">1.2.1</text>
<text text-anchor="middle" x="324" y="-614" font-family="Times,serif" font-size="10.00" fill="red">(latest: 1.2.2)</text>
</g>
<!-- roo_windows&#45;&gt;roo_locale -->
<g id="edge36" class="edge">
<title>roo_windows&#45;&gt;roo_locale</title>
<path fill="none" stroke="red" d="M246.9,-650.84C237.64,-645.96 228.5,-640.04 221,-633 211.94,-624.51 204.68,-612.96 199.31,-602.4"/>
<polygon fill="red" stroke="red" points="202.34,-600.64 194.9,-593.1 196.02,-603.64 202.34,-600.64"/>
<text text-anchor="middle" x="254" y="-625" font-family="Times,serif" font-size="10.00" fill="red">1.1.1</text>
<text text-anchor="middle" x="254" y="-614" font-family="Times,serif" font-size="10.00" fill="red">(latest: 1.1.2)</text>
</g>
<!-- roo_windows&#45;&gt;roo_scheduler -->
<g id="edge38" class="edge">
<title>roo_windows&#45;&gt;roo_scheduler</title>
<path fill="none" stroke="red" d="M338.95,-650.89C346.04,-646.09 352.52,-640.18 357,-633 380.85,-594.8 378.13,-540.41 373.45,-507.53"/>
<polygon fill="red" stroke="red" points="376.84,-506.59 371.82,-497.27 369.93,-507.69 376.84,-506.59"/>
<text text-anchor="middle" x="409" y="-577" font-family="Times,serif" font-size="10.00" fill="red">2.1.6</text>
<text text-anchor="middle" x="409" y="-566" font-family="Times,serif" font-size="10.00" fill="red">(latest: 2.1.9)</text>
</g>
<!-- roo_windows_transceivers -->
<g id="node28" class="node">
<title>roo_windows_transceivers</title>
<polygon fill="plum" stroke="red" points="469,-785 265,-785 265,-747 469,-747 469,-785"/>
<text text-anchor="middle" x="367" y="-769.8" font-family="Times,serif" font-size="14.00">roo_windows_transceivers</text>
<text text-anchor="middle" x="367" y="-754.8" font-family="Times,serif" font-size="14.00">1.0.0</text>
</g>
<!-- roo_windows_transceivers&#45;&gt;roo_transceivers -->
<g id="edge39" class="edge">
<title>roo_windows_transceivers&#45;&gt;roo_transceivers</title>
<path fill="none" stroke="red" d="M380.3,-746.88C390.61,-732.83 405.05,-713.17 416.63,-697.38"/>
<polygon fill="red" stroke="red" points="419.64,-699.2 422.74,-689.07 414,-695.06 419.64,-699.2"/>
<text text-anchor="middle" x="440" y="-721" font-family="Times,serif" font-size="10.00" fill="red">1.1.3</text>
<text text-anchor="middle" x="440" y="-710" font-family="Times,serif" font-size="10.00" fill="red">(latest: 1.1.6)</text>
</g>
<!-- roo_windows_transceivers&#45;&gt;roo_windows -->
<g id="edge40" class="edge">
<title>roo_windows_transceivers&#45;&gt;roo_windows</title>
<path fill="none" stroke="red" d="M342.38,-746.65C336.25,-741.37 330.01,-735.32 325,-729 317.69,-719.77 311.38,-708.49 306.45,-698.34"/>
<polygon fill="red" stroke="red" points="309.54,-696.67 302.17,-689.05 303.18,-699.6 309.54,-696.67"/>
<text text-anchor="middle" x="358" y="-721" font-family="Times,serif" font-size="10.00" fill="red">1.4.1</text>
<text text-anchor="middle" x="358" y="-710" font-family="Times,serif" font-size="10.00" fill="red">(latest: 1.4.2)</text>
</g>
<!-- roo_windows_wifi -->
<g id="node29" class="node">
<title>roo_windows_wifi</title>
<polygon fill="plum" stroke="red" points="628.5,-785 487.5,-785 487.5,-747 628.5,-747 628.5,-785"/>
<text text-anchor="middle" x="558" y="-769.8" font-family="Times,serif" font-size="14.00">roo_windows_wifi</text>
<text text-anchor="middle" x="558" y="-754.8" font-family="Times,serif" font-size="14.00">1.1.3</text>
</g>
<!-- roo_windows_wifi&#45;&gt;roo_wifi -->
<g id="edge41" class="edge">
<title>roo_windows_wifi&#45;&gt;roo_wifi</title>
<path fill="none" stroke="red" d="M558,-746.88C558,-733.35 558,-714.62 558,-699.15"/>
<polygon fill="red" stroke="red" points="561.5,-699.07 558,-689.07 554.5,-699.07 561.5,-699.07"/>
<text text-anchor="middle" x="591" y="-721" font-family="Times,serif" font-size="10.00" fill="red">1.1.3</text>
<text text-anchor="middle" x="591" y="-710" font-family="Times,serif" font-size="10.00" fill="red">(latest: 1.1.4)</text>
</g>
<!-- roo_windows_wifi&#45;&gt;roo_windows -->
<g id="edge42" class="edge">
<title>roo_windows_wifi&#45;&gt;roo_windows</title>
<path fill="none" stroke="black" d="M538.3,-746.8C522.82,-733.56 500.07,-716.39 477,-707 430.64,-688.14 412.88,-698.81 359.68,-688.88"/>
<polygon fill="black" stroke="black" points="360.2,-685.42 349.7,-686.86 358.81,-692.28 360.2,-685.42"/>
</g>
</g>
</svg>
