<?xml version="1.0" encoding="UTF-8" standalone="no"?>
<!DOCTYPE svg PUBLIC "-//W3C//DTD SVG 1.1//EN"
 "http://www.w3.org/Graphics/SVG/1.1/DTD/svg11.dtd">
<!-- Generated by graphviz version 2.42.4 (0)
 -->
<!-- Title: dependencies Pages: 1 -->
<svg width="1806pt" height="772pt"
 viewBox="0.00 0.00 1805.50 772.00" xmlns="http://www.w3.org/2000/svg" xmlns:xlink="http://www.w3.org/1999/xlink">
<g id="graph0" class="graph" transform="scale(1 1) rotate(0) translate(4 768)">
<title>dependencies</title>
<polygon fill="white" stroke="transparent" points="-4,4 -4,-768 1801.5,-768 1801.5,4 -4,4"/>
<!-- roo_backport -->
<g id="node1" class="node">
<title>roo_backport</title>
<polygon fill="#b1dbab" stroke="black" points="1009.5,-284 920.5,-284 920.5,-246 1009.5,-246 1009.5,-284"/>
<text text-anchor="middle" x="965" y="-268.8" font-family="Times,serif" font-size="14.00">roo_backport</text>
<text text-anchor="middle" x="965" y="-253.8" font-family="Times,serif" font-size="14.00">1.1.1</text>
</g>
<!-- roo_blink -->
<g id="node2" class="node">
<title>roo_blink</title>
<polygon fill="#b1dbab" stroke="black" points="396.5,-572 327.5,-572 327.5,-534 396.5,-534 396.5,-572"/>
<text text-anchor="middle" x="362" y="-556.8" font-family="Times,serif" font-size="14.00">roo_blink</text>
<text text-anchor="middle" x="362" y="-541.8" font-family="Times,serif" font-size="14.00">1.0.1</text>
</g>
<!-- roo_logging -->
<g id="node15" class="node">
<title>roo_logging</title>
<polygon fill="#b1dbab" stroke="black" points="545.5,-284 462.5,-284 462.5,-246 545.5,-246 545.5,-284"/>
<text text-anchor="middle" x="504" y="-268.8" font-family="Times,serif" font-size="14.00">roo_logging</text>
<text text-anchor="middle" x="504" y="-253.8" font-family="Times,serif" font-size="14.00">1.4.2</text>
</g>
<!-- roo_blink&#45;&gt;roo_logging -->
<g id="edge1" class="edge">
<title>roo_blink&#45;&gt;roo_logging</title>
<path fill="none" stroke="black" d="M350.91,-533.69C338.5,-510.71 321.75,-470.38 335,-438 361.64,-372.89 426.13,-319.14 467.29,-289.9"/>
<polygon fill="black" stroke="black" points="469.5,-292.63 475.7,-284.04 465.5,-286.88 469.5,-292.63"/>
</g>
<!-- roo_scheduler -->
<g id="node21" class="node">
<title>roo_scheduler</title>
<polygon fill="#b1dbab" stroke="black" points="436.5,-476 343.5,-476 343.5,-438 436.5,-438 436.5,-476"/>
<text text-anchor="middle" x="390" y="-460.8" font-family="Times,serif" font-size="14.00">roo_scheduler</text>
<text text-anchor="middle" x="390" y="-445.8" font-family="Times,serif" font-size="14.00">2.1.4</text>
</g>
<!-- roo_blink&#45;&gt;roo_scheduler -->
<g id="edge2" class="edge">
<title>roo_blink&#45;&gt;roo_scheduler</title>
<path fill="none" stroke="black" d="M367.4,-533.88C371.47,-520.22 377.11,-501.26 381.75,-485.71"/>
<polygon fill="black" stroke="black" points="385.12,-486.65 384.62,-476.07 378.41,-484.65 385.12,-486.65"/>
</g>
<!-- roo_collections -->
<g id="node3" class="node">
<title>roo_collections</title>
<polygon fill="#b1dbab" stroke="black" points="1015,-380 915,-380 915,-342 1015,-342 1015,-380"/>
<text text-anchor="middle" x="965" y="-364.8" font-family="Times,serif" font-size="14.00">roo_collections</text>
<text text-anchor="middle" x="965" y="-349.8" font-family="Times,serif" font-size="14.00">1.3.2</text>
</g>
<!-- roo_collections&#45;&gt;roo_backport -->
<g id="edge3" class="edge">
<title>roo_collections&#45;&gt;roo_backport</title>
<path fill="none" stroke="black" d="M965,-341.88C965,-328.35 965,-309.62 965,-294.15"/>
<polygon fill="black" stroke="black" points="968.5,-294.07 965,-284.07 961.5,-294.07 968.5,-294.07"/>
</g>
<!-- roo_comms -->
<g id="node4" class="node">
<title>roo_comms</title>
<polygon fill="khaki" stroke="black" points="433,-764 351,-764 351,-726 433,-726 433,-764"/>
<text text-anchor="middle" x="392" y="-748.8" font-family="Times,serif" font-size="14.00">roo_comms</text>
<text text-anchor="middle" x="392" y="-733.8" font-family="Times,serif" font-size="14.00">1.0.0</text>
</g>
<!-- roo_comms&#45;&gt;roo_blink -->
<g id="edge5" class="edge">
<title>roo_comms&#45;&gt;roo_blink</title>
<path fill="none" stroke="red" d="M368.56,-725.89C352.63,-712.01 332.91,-691.32 324,-668 312.76,-638.58 327.99,-604.22 342.38,-580.97"/>
<polygon fill="red" stroke="red" points="345.48,-582.63 348,-572.34 339.61,-578.81 345.48,-582.63"/>
<text text-anchor="middle" x="351" y="-652" font-family="Times,serif" font-size="10.00" fill="red">1.0.0</text>
<text text-anchor="middle" x="351" y="-641" font-family="Times,serif" font-size="10.00" fill="red">(latest: 1.0.1)</text>
</g>
<!-- roo_comms&#45;&gt;roo_collections -->
<g id="edge6" class="edge">
<title>roo_comms&#45;&gt;roo_collections</title>
<path fill="none" stroke="red" d="M433.03,-743.3C520.91,-741.3 724.49,-733.94 788,-708 863.44,-677.18 1037.07,-549.63 1072,-476 1079.24,-460.74 1082.53,-451.2 1072,-438 1049.54,-409.85 1021.17,-442.43 993,-420 983.42,-412.37 976.92,-400.66 972.61,-389.75"/>
<polygon fill="red" stroke="red" points="975.84,-388.39 969.24,-380.1 969.23,-390.7 975.84,-388.39"/>
<text text-anchor="middle" x="1054" y="-556" font-family="Times,serif" font-size="10.00" fill="red">1.3.1</text>
<text text-anchor="middle" x="1054" y="-545" font-family="Times,serif" font-size="10.00" fill="red">(latest: 1.3.2)</text>
</g>
<!-- roo_control -->
<g id="node5" class="node">
<title>roo_control</title>
<polygon fill="#b1dbab" stroke="black" points="168,-572 88,-572 88,-534 168,-534 168,-572"/>
<text text-anchor="middle" x="128" y="-556.8" font-family="Times,serif" font-size="14.00">roo_control</text>
<text text-anchor="middle" x="128" y="-541.8" font-family="Times,serif" font-size="14.00">1.2.1</text>
</g>
<!-- roo_comms&#45;&gt;roo_control -->
<g id="edge7" class="edge">
<title>roo_comms&#45;&gt;roo_control</title>
<path fill="none" stroke="red" d="M350.95,-742.58C307.42,-739.8 237.45,-731.68 182,-708 154.53,-696.27 141.44,-694.67 128,-668 114.5,-641.21 116.99,-606.18 121.26,-582.06"/>
<polygon fill="red" stroke="red" points="124.72,-582.62 123.23,-572.13 117.85,-581.26 124.72,-582.62"/>
<text text-anchor="middle" x="155" y="-652" font-family="Times,serif" font-size="10.00" fill="red">1.2.0</text>
<text text-anchor="middle" x="155" y="-641" font-family="Times,serif" font-size="10.00" fill="red">(latest: 1.2.1)</text>
</g>
<!-- roo_io -->
<g id="node10" class="node">
<title>roo_io</title>
<polygon fill="#b1dbab" stroke="black" points="868,-380 814,-380 814,-342 868,-342 868,-380"/>
<text text-anchor="middle" x="841" y="-364.8" font-family="Times,serif" font-size="14.00">roo_io</text>
<text text-anchor="middle" x="841" y="-349.8" font-family="Times,serif" font-size="14.00">2.0.2</text>
</g>
<!-- roo_comms&#45;&gt;roo_io -->
<g id="edge8" class="edge">
<title>roo_comms&#45;&gt;roo_io</title>
<path fill="none" stroke="red" d="M400.8,-725.79C423.39,-679.74 484.08,-560.41 519,-534 596.57,-475.33 645.1,-523.44 730,-476 768.78,-454.33 802.64,-414.9 822.46,-388.57"/>
<polygon fill="red" stroke="red" points="825.52,-390.32 828.63,-380.19 819.88,-386.17 825.52,-390.32"/>
<text text-anchor="middle" x="546" y="-556" font-family="Times,serif" font-size="10.00" fill="red">2.0.1</text>
<text text-anchor="middle" x="546" y="-545" font-family="Times,serif" font-size="10.00" fill="red">(latest: 2.0.2)</text>
</g>
<!-- roo_comms&#45;&gt;roo_logging -->
<g id="edge9" class="edge">
<title>roo_comms&#45;&gt;roo_logging</title>
<path fill="none" stroke="red" d="M356.1,-725.84C296.54,-692.93 186.59,-618.96 216,-534 260.91,-404.25 301.24,-370.9 420,-302 430.4,-295.97 442,-290.35 453.19,-285.43"/>
<polygon fill="red" stroke="red" points="454.63,-288.62 462.45,-281.47 451.88,-282.19 454.63,-288.62"/>
<text text-anchor="middle" x="257" y="-508" font-family="Times,serif" font-size="10.00" fill="red">1.4.0</text>
<text text-anchor="middle" x="257" y="-497" font-family="Times,serif" font-size="10.00" fill="red">(latest: 1.4.2)</text>
</g>
<!-- roo_prefs -->
<g id="node19" class="node">
<title>roo_prefs</title>
<polygon fill="#b1dbab" stroke="black" points="650,-572 582,-572 582,-534 650,-534 650,-572"/>
<text text-anchor="middle" x="616" y="-556.8" font-family="Times,serif" font-size="14.00">roo_prefs</text>
<text text-anchor="middle" x="616" y="-541.8" font-family="Times,serif" font-size="14.00">1.2.2</text>
</g>
<!-- roo_comms&#45;&gt;roo_prefs -->
<g id="edge10" class="edge">
<title>roo_comms&#45;&gt;roo_prefs</title>
<path fill="none" stroke="red" d="M433.01,-734.32C449.7,-728.79 468.25,-720.4 482,-708 511.09,-681.78 498.23,-660.33 523,-630 539.24,-610.11 561.38,-591.77 579.98,-578.09"/>
<polygon fill="red" stroke="red" points="582.17,-580.83 588.24,-572.15 578.08,-575.15 582.17,-580.83"/>
<text text-anchor="middle" x="550" y="-652" font-family="Times,serif" font-size="10.00" fill="red">1.2.0</text>
<text text-anchor="middle" x="550" y="-641" font-family="Times,serif" font-size="10.00" fill="red">(latest: 1.2.2)</text>
</g>
<!-- roo_comms&#45;&gt;roo_scheduler -->
<g id="edge11" class="edge">
<title>roo_comms&#45;&gt;roo_scheduler</title>
<path fill="none" stroke="red" d="M389.7,-725.57C386.64,-696.26 383.04,-637.47 396,-590 398.41,-581.17 403.7,-580.86 406,-572 410.24,-555.65 407.75,-550.8 406,-534 404.34,-518.08 400.78,-500.57 397.44,-486.38"/>
<polygon fill="red" stroke="red" points="400.74,-485.14 394.96,-476.26 393.94,-486.81 400.74,-485.14"/>
<text text-anchor="middle" x="423" y="-604" font-family="Times,serif" font-size="10.00" fill="red">2.1.3</text>
<text text-anchor="middle" x="423" y="-593" font-family="Times,serif" font-size="10.00" fill="red">(latest: 2.1.4)</text>
</g>
<!-- roo_testing -->
<g id="node22" class="node">
<title>roo_testing</title>
<polygon fill="#b1dbab" stroke="black" points="1272.5,-38 1195.5,-38 1195.5,0 1272.5,0 1272.5,-38"/>
<text text-anchor="middle" x="1234" y="-22.8" font-family="Times,serif" font-size="14.00">roo_testing</text>
<text text-anchor="middle" x="1234" y="-7.8" font-family="Times,serif" font-size="14.00">1.1.7</text>
</g>
<!-- roo_comms&#45;&gt;roo_testing -->
<g id="edge4" class="edge">
<title>roo_comms&#45;&gt;roo_testing</title>
<path fill="none" stroke="red" d="M350.84,-742.08C276.75,-738.17 124.07,-727.92 75,-708 35.96,-692.15 0,-692.14 0,-650 0,-650 0,-650 0,-93 0,-32.53 956.72,-21.95 1185.35,-20.29"/>
<polygon fill="red" stroke="red" points="1185.4,-23.79 1195.37,-20.22 1185.35,-16.79 1185.4,-23.79"/>
<text text-anchor="middle" x="27" y="-364" font-family="Times,serif" font-size="10.00" fill="red">1.1.4</text>
<text text-anchor="middle" x="27" y="-353" font-family="Times,serif" font-size="10.00" fill="red">(latest: 1.1.7)</text>
</g>
<!-- roo_threads -->
<g id="node23" class="node">
<title>roo_threads</title>
<polygon fill="#b1dbab" stroke="black" points="276,-188 196,-188 196,-150 276,-150 276,-188"/>
<text text-anchor="middle" x="236" y="-172.8" font-family="Times,serif" font-size="14.00">roo_threads</text>
<text text-anchor="middle" x="236" y="-157.8" font-family="Times,serif" font-size="14.00">1.1.5</text>
</g>
<!-- roo_comms&#45;&gt;roo_threads -->
<g id="edge12" class="edge">
<title>roo_comms&#45;&gt;roo_threads</title>
<path fill="none" stroke="red" d="M350.6,-744.43C298.73,-743.57 208.04,-737.44 137,-708 97.42,-691.6 60,-692.84 60,-650 60,-650 60,-650 60,-504 60,-474.4 58.95,-465.85 69,-438 104.04,-340.91 177.87,-241.67 214.48,-195.96"/>
<polygon fill="red" stroke="red" points="217.3,-198.03 220.87,-188.06 211.86,-193.63 217.3,-198.03"/>
<text text-anchor="middle" x="96" y="-460" font-family="Times,serif" font-size="10.00" fill="red">1.1.3</text>
<text text-anchor="middle" x="96" y="-449" font-family="Times,serif" font-size="10.00" fill="red">(latest: 1.1.5)</text>
</g>
<!-- roo_time -->
<g id="node24" class="node">
<title>roo_time</title>
<polygon fill="#b1dbab" stroke="black" points="467,-113 401,-113 401,-75 467,-75 467,-113"/>
<text text-anchor="middle" x="434" y="-97.8" font-family="Times,serif" font-size="14.00">roo_time</text>
<text text-anchor="middle" x="434" y="-82.8" font-family="Times,serif" font-size="14.00">1.3.2</text>
</g>
<!-- roo_comms&#45;&gt;roo_time -->
<g id="edge13" class="edge">
<title>roo_comms&#45;&gt;roo_time</title>
<path fill="none" stroke="red" d="M403.04,-725.59C417.2,-700.81 441,-654.87 450,-612 454.79,-589.2 473.5,-737.81 446,-438 442.88,-403.95 434,-396.2 434,-362 434,-362 434,-362 434,-168 434,-153.3 434,-136.93 434,-123.43"/>
<polygon fill="red" stroke="red" points="437.5,-123.3 434,-113.3 430.5,-123.3 437.5,-123.3"/>
<text text-anchor="middle" x="470" y="-412" font-family="Times,serif" font-size="10.00" fill="red">1.3.0</text>
<text text-anchor="middle" x="470" y="-401" font-family="Times,serif" font-size="10.00" fill="red">(latest: 1.3.2)</text>
</g>
<!-- roo_transceivers -->
<g id="node26" class="node">
<title>roo_transceivers</title>
<polygon fill="#b1dbab" stroke="black" points="692,-668 586,-668 586,-630 692,-630 692,-668"/>
<text text-anchor="middle" x="639" y="-652.8" font-family="Times,serif" font-size="14.00">roo_transceivers</text>
<text text-anchor="middle" x="639" y="-637.8" font-family="Times,serif" font-size="14.00">1.1.2</text>
</g>
<!-- roo_comms&#45;&gt;roo_transceivers -->
<g id="edge14" class="edge">
<title>roo_comms&#45;&gt;roo_transceivers</title>
<path fill="none" stroke="red" d="M433.22,-735.61C460.59,-729.43 497.03,-720.02 528,-708 552.72,-698.41 579.08,-684.79 599.9,-673.16"/>
<polygon fill="red" stroke="red" points="601.78,-676.12 608.76,-668.15 598.34,-670.03 601.78,-676.12"/>
<text text-anchor="middle" x="601" y="-700" font-family="Times,serif" font-size="10.00" fill="red">1.1.1</text>
<text text-anchor="middle" x="601" y="-689" font-family="Times,serif" font-size="10.00" fill="red">(latest: 1.1.2)</text>
</g>
<!-- roo_quantity -->
<g id="node20" class="node">
<title>roo_quantity</title>
<polygon fill="#b1dbab" stroke="black" points="218,-476 132,-476 132,-438 218,-438 218,-476"/>
<text text-anchor="middle" x="175" y="-460.8" font-family="Times,serif" font-size="14.00">roo_quantity</text>
<text text-anchor="middle" x="175" y="-445.8" font-family="Times,serif" font-size="14.00">1.1.2</text>
</g>
<!-- roo_control&#45;&gt;roo_quantity -->
<g id="edge15" class="edge">
<title>roo_control&#45;&gt;roo_quantity</title>
<path fill="none" stroke="black" d="M137.06,-533.88C143.95,-520.09 153.55,-500.9 161.37,-485.26"/>
<polygon fill="black" stroke="black" points="164.62,-486.58 165.97,-476.07 158.36,-483.45 164.62,-486.58"/>
</g>
<!-- roo_control&#45;&gt;roo_scheduler -->
<g id="edge16" class="edge">
<title>roo_control&#45;&gt;roo_scheduler</title>
<path fill="none" stroke="black" d="M168.13,-541.91C193.08,-535.29 225.7,-526.03 254,-516 283.73,-505.46 316.27,-491.67 342.05,-480.18"/>
<polygon fill="black" stroke="black" points="343.54,-483.35 351.23,-476.06 340.68,-476.96 343.54,-483.35"/>
</g>
<!-- roo_dashboard -->
<g id="node6" class="node">
<title>roo_dashboard</title>
<polygon fill="khaki" stroke="black" points="1569.5,-764 1472.5,-764 1472.5,-726 1569.5,-726 1569.5,-764"/>
<text text-anchor="middle" x="1521" y="-748.8" font-family="Times,serif" font-size="14.00">roo_dashboard</text>
<text text-anchor="middle" x="1521" y="-733.8" font-family="Times,serif" font-size="14.00">1.0.0</text>
</g>
<!-- roo_dashboard&#45;&gt;roo_testing -->
<g id="edge17" class="edge">
<title>roo_dashboard&#45;&gt;roo_testing</title>
<path fill="none" stroke="red" d="M1528.15,-725.95C1534.9,-707.25 1544,-677.05 1544,-650 1544,-650 1544,-650 1544,-93 1544,-40 1370.16,-25.44 1282.84,-21.47"/>
<polygon fill="red" stroke="red" points="1282.77,-17.97 1272.63,-21.04 1282.48,-24.96 1282.77,-17.97"/>
<text text-anchor="middle" x="1571" y="-364" font-family="Times,serif" font-size="10.00" fill="red">1.1.4</text>
<text text-anchor="middle" x="1571" y="-353" font-family="Times,serif" font-size="10.00" fill="red">(latest: 1.1.7)</text>
</g>
<!-- roo_windows -->
<g id="node29" class="node">
<title>roo_windows</title>
<polygon fill="khaki" stroke="black" points="1193,-668 1103,-668 1103,-630 1193,-630 1193,-668"/>
<text text-anchor="middle" x="1148" y="-652.8" font-family="Times,serif" font-size="14.00">roo_windows</text>
<text text-anchor="middle" x="1148" y="-637.8" font-family="Times,serif" font-size="14.00">1.4.0</text>
</g>
<!-- roo_dashboard&#45;&gt;roo_windows -->
<g id="edge18" class="edge">
<title>roo_dashboard&#45;&gt;roo_windows</title>
<path fill="none" stroke="black" d="M1472.24,-731.71C1402.83,-714.22 1275.92,-682.24 1203.17,-663.9"/>
<polygon fill="black" stroke="black" points="1203.82,-660.46 1193.27,-661.41 1202.11,-667.25 1203.82,-660.46"/>
</g>
<!-- roo_display -->
<g id="node7" class="node">
<title>roo_display</title>
<polygon fill="khaki" stroke="black" points="1275,-476 1195,-476 1195,-438 1275,-438 1275,-476"/>
<text text-anchor="middle" x="1235" y="-460.8" font-family="Times,serif" font-size="14.00">roo_display</text>
<text text-anchor="middle" x="1235" y="-445.8" font-family="Times,serif" font-size="14.00">2.2.2</text>
</g>
<!-- roo_display&#45;&gt;roo_backport -->
<g id="edge20" class="edge">
<title>roo_display&#45;&gt;roo_backport</title>
<path fill="none" stroke="red" d="M1224.67,-437.96C1217.16,-425.79 1206.2,-409.87 1194,-398 1183.66,-387.94 1178.57,-388.6 1167,-380 1145.72,-364.18 1143.3,-356.35 1121,-342 1088.4,-321.02 1049.16,-301.93 1018.18,-288.13"/>
<polygon fill="red" stroke="red" points="1019.42,-284.84 1008.85,-284.02 1016.59,-291.25 1019.42,-284.84"/>
<text text-anchor="middle" x="1194" y="-364" font-family="Times,serif" font-size="10.00" fill="red">1.1.0</text>
<text text-anchor="middle" x="1194" y="-353" font-family="Times,serif" font-size="10.00" fill="red">(latest: 1.1.1)</text>
</g>
<!-- roo_display&#45;&gt;roo_collections -->
<g id="edge21" class="edge">
<title>roo_display&#45;&gt;roo_collections</title>
<path fill="none" stroke="red" d="M1194.55,-441.36C1177.59,-435.04 1157.74,-427.42 1140,-420 1118.35,-410.95 1114.02,-406.11 1092,-398 1070.47,-390.07 1046.35,-382.83 1024.96,-376.96"/>
<polygon fill="red" stroke="red" points="1025.59,-373.51 1015.02,-374.28 1023.76,-380.26 1025.59,-373.51"/>
<text text-anchor="middle" x="1167" y="-412" font-family="Times,serif" font-size="10.00" fill="red">1.3.1</text>
<text text-anchor="middle" x="1167" y="-401" font-family="Times,serif" font-size="10.00" fill="red">(latest: 1.3.2)</text>
</g>
<!-- roo_display&#45;&gt;roo_io -->
<g id="edge22" class="edge">
<title>roo_display&#45;&gt;roo_io</title>
<path fill="none" stroke="red" d="M1194.68,-450.17C1153.89,-443.95 1089.17,-433.18 1034,-420 979.02,-406.86 916.57,-387.21 877.97,-374.49"/>
<polygon fill="red" stroke="red" points="878.81,-371.08 868.22,-371.26 876.61,-377.73 878.81,-371.08"/>
<text text-anchor="middle" x="1061" y="-412" font-family="Times,serif" font-size="10.00" fill="red">2.0.1</text>
<text text-anchor="middle" x="1061" y="-401" font-family="Times,serif" font-size="10.00" fill="red">(latest: 2.0.2)</text>
</g>
<!-- roo_display&#45;&gt;roo_testing -->
<g id="edge19" class="edge">
<title>roo_display&#45;&gt;roo_testing</title>
<path fill="none" stroke="red" d="M1234.96,-437.82C1234.8,-369.96 1234.25,-131.1 1234.07,-48.42"/>
<polygon fill="red" stroke="red" points="1237.56,-48.25 1234.04,-38.26 1230.56,-48.26 1237.56,-48.25"/>
<text text-anchor="middle" x="1261" y="-220" font-family="Times,serif" font-size="10.00" fill="red">1.1.4</text>
<text text-anchor="middle" x="1261" y="-209" font-family="Times,serif" font-size="10.00" fill="red">(latest: 1.1.7)</text>
</g>
<!-- roo_flags -->
<g id="node8" class="node">
<title>roo_flags</title>
<polygon fill="#b1dbab" stroke="black" points="538,-188 470,-188 470,-150 538,-150 538,-188"/>
<text text-anchor="middle" x="504" y="-172.8" font-family="Times,serif" font-size="14.00">roo_flags</text>
<text text-anchor="middle" x="504" y="-157.8" font-family="Times,serif" font-size="14.00">1.1.1</text>
</g>
<!-- roo_icons -->
<g id="node9" class="node">
<title>roo_icons</title>
<polygon fill="khaki" stroke="black" points="1357,-572 1287,-572 1287,-534 1357,-534 1357,-572"/>
<text text-anchor="middle" x="1322" y="-556.8" font-family="Times,serif" font-size="14.00">roo_icons</text>
<text text-anchor="middle" x="1322" y="-541.8" font-family="Times,serif" font-size="14.00">1.2.0</text>
</g>
<!-- roo_icons&#45;&gt;roo_display -->
<g id="edge24" class="edge">
<title>roo_icons&#45;&gt;roo_display</title>
<path fill="none" stroke="black" d="M1305.23,-533.88C1291.99,-519.57 1273.35,-499.44 1258.61,-483.51"/>
<polygon fill="black" stroke="black" points="1261.08,-481.03 1251.72,-476.07 1255.95,-485.78 1261.08,-481.03"/>
</g>
<!-- roo_icons&#45;&gt;roo_testing -->
<g id="edge23" class="edge">
<title>roo_icons&#45;&gt;roo_testing</title>
<path fill="none" stroke="red" d="M1316.09,-533.85C1310.51,-515.07 1303,-484.81 1303,-458 1303,-458 1303,-458 1303,-93 1303,-73.1 1289.29,-56.44 1274.09,-44.08"/>
<polygon fill="red" stroke="red" points="1276.16,-41.25 1266.08,-38.01 1271.94,-46.84 1276.16,-41.25"/>
<text text-anchor="middle" x="1330" y="-268" font-family="Times,serif" font-size="10.00" fill="red">1.1.4</text>
<text text-anchor="middle" x="1330" y="-257" font-family="Times,serif" font-size="10.00" fill="red">(latest: 1.1.7)</text>
</g>
<!-- roo_io&#45;&gt;roo_backport -->
<g id="edge25" class="edge">
<title>roo_io&#45;&gt;roo_backport</title>
<path fill="none" stroke="black" d="M864.91,-341.88C884.29,-327.18 911.79,-306.34 933.06,-290.21"/>
<polygon fill="black" stroke="black" points="935.31,-292.9 941.16,-284.07 931.08,-287.32 935.31,-292.9"/>
</g>
<!-- roo_io&#45;&gt;roo_logging -->
<g id="edge26" class="edge">
<title>roo_io&#45;&gt;roo_logging</title>
<path fill="none" stroke="black" d="M813.82,-351.17C804.4,-348.17 793.76,-344.86 784,-342 704.67,-318.72 611.95,-294.05 555.64,-279.34"/>
<polygon fill="black" stroke="black" points="556.45,-275.94 545.9,-276.8 554.69,-282.71 556.45,-275.94"/>
</g>
<!-- roo_io_arduino -->
<g id="node11" class="node">
<title>roo_io_arduino</title>
<polygon fill="#b1dbab" stroke="black" points="721,-476 621,-476 621,-438 721,-438 721,-476"/>
<text text-anchor="middle" x="671" y="-460.8" font-family="Times,serif" font-size="14.00">roo_io_arduino</text>
<text text-anchor="middle" x="671" y="-445.8" font-family="Times,serif" font-size="14.00">1.2.4</text>
</g>
<!-- roo_io_arduino&#45;&gt;roo_io -->
<g id="edge28" class="edge">
<title>roo_io_arduino&#45;&gt;roo_io</title>
<path fill="none" stroke="red" d="M687.42,-437.92C699.75,-425.27 717.59,-408.77 736,-398 742.15,-394.4 776.21,-382.95 803.9,-373.92"/>
<polygon fill="red" stroke="red" points="805.32,-377.14 813.75,-370.72 803.16,-370.48 805.32,-377.14"/>
<text text-anchor="middle" x="763" y="-412" font-family="Times,serif" font-size="10.00" fill="red">2.0.1</text>
<text text-anchor="middle" x="763" y="-401" font-family="Times,serif" font-size="10.00" fill="red">(latest: 2.0.2)</text>
</g>
<!-- roo_io_arduino&#45;&gt;roo_logging -->
<g id="edge29" class="edge">
<title>roo_io_arduino&#45;&gt;roo_logging</title>
<path fill="none" stroke="red" d="M654.9,-437.87C641.88,-422.85 623.41,-400.68 609,-380 585.99,-346.98 591.24,-330.67 563,-302 558.63,-297.57 553.62,-293.46 548.39,-289.71"/>
<polygon fill="red" stroke="red" points="550.33,-286.8 540.07,-284.15 546.44,-292.62 550.33,-286.8"/>
<text text-anchor="middle" x="636" y="-364" font-family="Times,serif" font-size="10.00" fill="red">1.4.0</text>
<text text-anchor="middle" x="636" y="-353" font-family="Times,serif" font-size="10.00" fill="red">(latest: 1.4.2)</text>
</g>
<!-- roo_io_arduino&#45;&gt;roo_testing -->
<g id="edge27" class="edge">
<title>roo_io_arduino&#45;&gt;roo_testing</title>
<path fill="none" stroke="red" d="M672.87,-437.65C674.63,-418.72 677,-388.33 677,-362 677,-362 677,-362 677,-93 677,-41.97 1049.31,-25.59 1185.15,-21.31"/>
<polygon fill="red" stroke="red" points="1185.39,-24.8 1195.28,-21 1185.17,-17.8 1185.39,-24.8"/>
<text text-anchor="middle" x="704" y="-220" font-family="Times,serif" font-size="10.00" fill="red">1.1.4</text>
<text text-anchor="middle" x="704" y="-209" font-family="Times,serif" font-size="10.00" fill="red">(latest: 1.1.7)</text>
</g>
<!-- roo_io_espressif -->
<g id="node12" class="node">
<title>roo_io_espressif</title>
<polygon fill="plum" stroke="black" points="1694,-764 1588,-764 1588,-726 1694,-726 1694,-764"/>
<text text-anchor="middle" x="1641" y="-748.8" font-family="Times,serif" font-size="14.00">roo_io_espressif</text>
<text text-anchor="middle" x="1641" y="-733.8" font-family="Times,serif" font-size="14.00">1.0.0</text>
</g>
<!-- roo_io_sdfat -->
<g id="node13" class="node">
<title>roo_io_sdfat</title>
<polygon fill="plum" stroke="black" points="1797.5,-764 1712.5,-764 1712.5,-726 1797.5,-726 1797.5,-764"/>
<text text-anchor="middle" x="1755" y="-748.8" font-family="Times,serif" font-size="14.00">roo_io_sdfat</text>
<text text-anchor="middle" x="1755" y="-733.8" font-family="Times,serif" font-size="14.00">1.0.0</text>
</g>
<!-- roo_locale -->
<g id="node14" class="node">
<title>roo_locale</title>
<polygon fill="khaki" stroke="black" points="1269,-572 1195,-572 1195,-534 1269,-534 1269,-572"/>
<text text-anchor="middle" x="1232" y="-556.8" font-family="Times,serif" font-size="14.00">roo_locale</text>
<text text-anchor="middle" x="1232" y="-541.8" font-family="Times,serif" font-size="14.00">1.1.0</text>
</g>
<!-- roo_logging&#45;&gt;roo_flags -->
<g id="edge30" class="edge">
<title>roo_logging&#45;&gt;roo_flags</title>
<path fill="none" stroke="black" d="M504,-245.88C504,-232.35 504,-213.62 504,-198.15"/>
<polygon fill="black" stroke="black" points="507.5,-198.07 504,-188.07 500.5,-198.07 507.5,-198.07"/>
</g>
<!-- roo_logging&#45;&gt;roo_threads -->
<g id="edge31" class="edge">
<title>roo_logging&#45;&gt;roo_threads</title>
<path fill="none" stroke="black" d="M477.58,-246C457.04,-232.87 427.36,-215.74 399,-206 353.33,-190.32 336.61,-199.65 286.03,-187.91"/>
<polygon fill="black" stroke="black" points="286.73,-184.48 276.18,-185.47 285.04,-191.27 286.73,-184.48"/>
</g>
<!-- roo_monitoring -->
<g id="node16" class="node">
<title>roo_monitoring</title>
<polygon fill="plum" stroke="black" points="955,-476 853,-476 853,-438 955,-438 955,-476"/>
<text text-anchor="middle" x="904" y="-460.8" font-family="Times,serif" font-size="14.00">roo_monitoring</text>
<text text-anchor="middle" x="904" y="-445.8" font-family="Times,serif" font-size="14.00">1.0.0</text>
</g>
<!-- roo_monitoring&#45;&gt;roo_collections -->
<g id="edge32" class="edge">
<title>roo_monitoring&#45;&gt;roo_collections</title>
<path fill="none" stroke="black" d="M915.76,-437.88C924.79,-423.96 937.4,-404.53 947.59,-388.82"/>
<polygon fill="black" stroke="black" points="950.77,-390.36 953.27,-380.07 944.9,-386.55 950.77,-390.36"/>
</g>
<!-- roo_monitoring&#45;&gt;roo_io -->
<g id="edge33" class="edge">
<title>roo_monitoring&#45;&gt;roo_io</title>
<path fill="none" stroke="black" d="M891.85,-437.88C882.44,-423.83 869.26,-404.17 858.68,-388.38"/>
<polygon fill="black" stroke="black" points="861.58,-386.43 853.11,-380.07 855.77,-390.32 861.58,-386.43"/>
</g>
<!-- roo_onewire -->
<g id="node17" class="node">
<title>roo_onewire</title>
<polygon fill="#b1dbab" stroke="black" points="309.5,-572 224.5,-572 224.5,-534 309.5,-534 309.5,-572"/>
<text text-anchor="middle" x="267" y="-556.8" font-family="Times,serif" font-size="14.00">roo_onewire</text>
<text text-anchor="middle" x="267" y="-541.8" font-family="Times,serif" font-size="14.00">2.0.4</text>
</g>
<!-- roo_onewire&#45;&gt;roo_quantity -->
<g id="edge35" class="edge">
<title>roo_onewire&#45;&gt;roo_quantity</title>
<path fill="none" stroke="black" d="M265.92,-533.96C264.31,-521.49 260.41,-505.2 251,-494 244.59,-486.37 236.2,-480.25 227.33,-475.38"/>
<polygon fill="black" stroke="black" points="228.88,-472.24 218.37,-470.91 225.76,-478.5 228.88,-472.24"/>
</g>
<!-- roo_onewire&#45;&gt;roo_scheduler -->
<g id="edge34" class="edge">
<title>roo_onewire&#45;&gt;roo_scheduler</title>
<path fill="none" stroke="black" d="M290.72,-533.88C309.94,-519.18 337.22,-498.34 358.32,-482.21"/>
<polygon fill="black" stroke="black" points="360.54,-484.92 366.36,-476.07 356.29,-479.36 360.54,-484.92"/>
</g>
<!-- roo_powersafefs -->
<g id="node18" class="node">
<title>roo_powersafefs</title>
<polygon fill="plum" stroke="black" points="135.5,-284 28.5,-284 28.5,-246 135.5,-246 135.5,-284"/>
<text text-anchor="middle" x="82" y="-268.8" font-family="Times,serif" font-size="14.00">roo_powersafefs</text>
<text text-anchor="middle" x="82" y="-253.8" font-family="Times,serif" font-size="14.00">1.0.0</text>
</g>
<!-- roo_powersafefs&#45;&gt;roo_threads -->
<g id="edge36" class="edge">
<title>roo_powersafefs&#45;&gt;roo_threads</title>
<path fill="none" stroke="black" d="M100.12,-245.81C113.16,-233.43 131.63,-217.3 150,-206 161.32,-199.04 174.22,-192.84 186.52,-187.64"/>
<polygon fill="black" stroke="black" points="187.85,-190.87 195.78,-183.85 185.2,-184.39 187.85,-190.87"/>
</g>
<!-- roo_prefs&#45;&gt;roo_logging -->
<g id="edge37" class="edge">
<title>roo_prefs&#45;&gt;roo_logging</title>
<path fill="none" stroke="black" d="M584.62,-533.95C564.59,-520.64 540.02,-500.61 527,-476 495.92,-417.25 497.32,-336.44 500.79,-294.25"/>
<polygon fill="black" stroke="black" points="504.28,-294.42 501.72,-284.14 497.31,-293.78 504.28,-294.42"/>
</g>
<!-- roo_prefs&#45;&gt;roo_scheduler -->
<g id="edge38" class="edge">
<title>roo_prefs&#45;&gt;roo_scheduler</title>
<path fill="none" stroke="black" d="M581.97,-539.06C577.29,-537.33 572.53,-535.6 568,-534 544.15,-525.56 537.5,-525.37 514,-516 487.42,-505.4 458.41,-491.93 435.14,-480.65"/>
<polygon fill="black" stroke="black" points="436.39,-477.37 425.87,-476.12 433.32,-483.66 436.39,-477.37"/>
</g>
<!-- roo_quantity&#45;&gt;roo_logging -->
<g id="edge39" class="edge">
<title>roo_quantity&#45;&gt;roo_logging</title>
<path fill="none" stroke="black" d="M175.93,-437.83C178.66,-404.98 189.45,-335.98 232,-302 265.01,-275.63 382.88,-268.52 452.15,-266.64"/>
<polygon fill="black" stroke="black" points="452.51,-270.13 462.42,-266.39 452.33,-263.13 452.51,-270.13"/>
</g>
<!-- roo_scheduler&#45;&gt;roo_collections -->
<g id="edge40" class="edge">
<title>roo_scheduler&#45;&gt;roo_collections</title>
<path fill="none" stroke="black" d="M436.52,-449.14C463,-445.43 496.8,-441 527,-438 645.35,-426.25 677.37,-443.3 794,-420 834.71,-411.87 879.06,-396.63 912.39,-383.81"/>
<polygon fill="black" stroke="black" points="913.88,-386.99 921.93,-380.1 911.34,-380.47 913.88,-386.99"/>
</g>
<!-- roo_scheduler&#45;&gt;roo_threads -->
<g id="edge41" class="edge">
<title>roo_scheduler&#45;&gt;roo_threads</title>
<path fill="none" stroke="black" d="M380.13,-437.67C353.78,-388.74 281.67,-254.82 250.58,-197.08"/>
<polygon fill="black" stroke="black" points="253.61,-195.32 245.79,-188.17 247.44,-198.64 253.61,-195.32"/>
</g>
<!-- roo_threads&#45;&gt;roo_time -->
<g id="edge42" class="edge">
<title>roo_threads&#45;&gt;roo_time</title>
<path fill="none" stroke="black" d="M276.07,-153.23C309.49,-140.9 357.01,-123.38 391.18,-110.79"/>
<polygon fill="black" stroke="black" points="392.71,-113.95 400.88,-107.21 390.29,-107.38 392.71,-113.95"/>
</g>
<!-- roo_time&#45;&gt;roo_testing -->
<g id="edge43" class="edge">
<title>roo_time&#45;&gt;roo_testing</title>
<path fill="none" stroke="black" d="M467.23,-86.59C511.67,-78.26 592.96,-63.85 663,-56 855.62,-34.42 1086.37,-24.82 1185.19,-21.48"/>
<polygon fill="black" stroke="black" points="1185.58,-24.97 1195.46,-21.14 1185.35,-17.97 1185.58,-24.97"/>
</g>
<!-- roo_time_ds3231 -->
<g id="node25" class="node">
<title>roo_time_ds3231</title>
<polygon fill="#b1dbab" stroke="black" points="406,-188 294,-188 294,-150 406,-150 406,-188"/>
<text text-anchor="middle" x="350" y="-172.8" font-family="Times,serif" font-size="14.00">roo_time_ds3231</text>
<text text-anchor="middle" x="350" y="-157.8" font-family="Times,serif" font-size="14.00">1.1.2</text>
</g>
<!-- roo_time_ds3231&#45;&gt;roo_time -->
<g id="edge44" class="edge">
<title>roo_time_ds3231&#45;&gt;roo_time</title>
<path fill="none" stroke="black" d="M370.76,-149.96C381.26,-140.83 394.17,-129.62 405.57,-119.7"/>
<polygon fill="black" stroke="black" points="407.93,-122.29 413.18,-113.09 403.34,-117.01 407.93,-122.29"/>
</g>
<!-- roo_transceivers&#45;&gt;roo_prefs -->
<g id="edge45" class="edge">
<title>roo_transceivers&#45;&gt;roo_prefs</title>
<path fill="none" stroke="black" d="M634.57,-629.88C631.26,-616.35 626.67,-597.62 622.89,-582.15"/>
<polygon fill="black" stroke="black" points="626.2,-580.95 620.42,-572.07 619.4,-582.61 626.2,-580.95"/>
</g>
<!-- roo_transport -->
<g id="node27" class="node">
<title>roo_transport</title>
<polygon fill="#b1dbab" stroke="black" points="1062.5,-476 973.5,-476 973.5,-438 1062.5,-438 1062.5,-476"/>
<text text-anchor="middle" x="1018" y="-460.8" font-family="Times,serif" font-size="14.00">roo_transport</text>
<text text-anchor="middle" x="1018" y="-445.8" font-family="Times,serif" font-size="14.00">1.0.1</text>
</g>
<!-- roo_transport&#45;&gt;roo_collections -->
<g id="edge46" class="edge">
<title>roo_transport&#45;&gt;roo_collections</title>
<path fill="none" stroke="black" d="M983.86,-437.82C977.57,-432.89 971.79,-426.95 968,-420 963.14,-411.09 961.64,-400.23 961.61,-390.32"/>
<polygon fill="black" stroke="black" points="965.11,-390.23 962.06,-380.08 958.12,-389.92 965.11,-390.23"/>
</g>
<!-- roo_transport&#45;&gt;roo_io -->
<g id="edge47" class="edge">
<title>roo_transport&#45;&gt;roo_io</title>
<path fill="none" stroke="black" d="M983.87,-437.88C953.28,-421.63 908.54,-397.87 877.31,-381.28"/>
<polygon fill="black" stroke="black" points="878.55,-377.98 868.08,-376.38 875.27,-384.16 878.55,-377.98"/>
</g>
<!-- roo_wifi -->
<g id="node28" class="node">
<title>roo_wifi</title>
<polygon fill="#b1dbab" stroke="black" points="773.5,-668 710.5,-668 710.5,-630 773.5,-630 773.5,-668"/>
<text text-anchor="middle" x="742" y="-652.8" font-family="Times,serif" font-size="14.00">roo_wifi</text>
<text text-anchor="middle" x="742" y="-637.8" font-family="Times,serif" font-size="14.00">1.1.1</text>
</g>
<!-- roo_wifi&#45;&gt;roo_prefs -->
<g id="edge48" class="edge">
<title>roo_wifi&#45;&gt;roo_prefs</title>
<path fill="none" stroke="black" d="M717.71,-629.88C698.01,-615.18 670.07,-594.34 648.46,-578.21"/>
<polygon fill="black" stroke="black" points="650.33,-575.24 640.22,-572.07 646.14,-580.85 650.33,-575.24"/>
</g>
<!-- roo_windows&#45;&gt;roo_collections -->
<g id="edge50" class="edge">
<title>roo_windows&#45;&gt;roo_collections</title>
<path fill="none" stroke="red" d="M1149.04,-630C1149.93,-607.33 1150.12,-567.32 1143,-534 1133.42,-489.12 1129.7,-476.67 1105,-438 1091.8,-417.33 1087.58,-411.34 1067,-398 1054.26,-389.74 1039.4,-383.11 1025.02,-377.9"/>
<polygon fill="red" stroke="red" points="1025.77,-374.46 1015.17,-374.52 1023.49,-381.08 1025.77,-374.46"/>
<text text-anchor="middle" x="1165" y="-508" font-family="Times,serif" font-size="10.00" fill="red">1.3.1</text>
<text text-anchor="middle" x="1165" y="-497" font-family="Times,serif" font-size="10.00" fill="red">(latest: 1.3.2)</text>
</g>
<!-- roo_windows&#45;&gt;roo_icons -->
<g id="edge53" class="edge">
<title>roo_windows&#45;&gt;roo_icons</title>
<path fill="none" stroke="black" d="M1181.55,-629.88C1209.47,-614.79 1249.39,-593.23 1279.54,-576.94"/>
<polygon fill="black" stroke="black" points="1281.42,-579.9 1288.55,-572.07 1278.09,-573.74 1281.42,-579.9"/>
</g>
<!-- roo_windows&#45;&gt;roo_io -->
<g id="edge54" class="edge">
<title>roo_windows&#45;&gt;roo_io</title>
<path fill="none" stroke="red" d="M1104.93,-629.97C1028.37,-596.95 873.83,-525.64 844,-476 828.45,-450.13 830.36,-414.65 834.44,-390.17"/>
<polygon fill="red" stroke="red" points="837.93,-390.57 836.35,-380.1 831.05,-389.27 837.93,-390.57"/>
<text text-anchor="middle" x="912" y="-508" font-family="Times,serif" font-size="10.00" fill="red">2.0.1</text>
<text text-anchor="middle" x="912" y="-497" font-family="Times,serif" font-size="10.00" fill="red">(latest: 2.0.2)</text>
</g>
<!-- roo_windows&#45;&gt;roo_locale -->
<g id="edge51" class="edge">
<title>roo_windows&#45;&gt;roo_locale</title>
<path fill="none" stroke="black" d="M1164.86,-629.75C1170.06,-624.09 1175.79,-617.8 1181,-612 1190.4,-601.53 1200.66,-589.9 1209.5,-579.81"/>
<polygon fill="black" stroke="black" points="1212.29,-581.94 1216.24,-572.11 1207.02,-577.33 1212.29,-581.94"/>
</g>
<!-- roo_windows&#45;&gt;roo_logging -->
<g id="edge52" class="edge">
<title>roo_windows&#45;&gt;roo_logging</title>
<path fill="none" stroke="red" d="M1102.93,-637.34C1076.51,-630.75 1042.62,-621.72 1013,-612 966.73,-596.81 949.87,-601.33 911,-572 894.04,-559.2 900.13,-545.07 882,-534 757.13,-457.78 665.23,-575.52 558,-476 556.3,-474.42 525.17,-350.63 510.96,-293.88"/>
<polygon fill="red" stroke="red" points="514.34,-292.95 508.52,-284.1 507.55,-294.65 514.34,-292.95"/>
<text text-anchor="middle" x="585" y="-460" font-family="Times,serif" font-size="10.00" fill="red">1.4.0</text>
<text text-anchor="middle" x="585" y="-449" font-family="Times,serif" font-size="10.00" fill="red">(latest: 1.4.2)</text>
</g>
<!-- roo_windows&#45;&gt;roo_scheduler -->
<g id="edge55" class="edge">
<title>roo_windows&#45;&gt;roo_scheduler</title>
<path fill="none" stroke="red" d="M1102.97,-643.8C1049.82,-638.4 958.92,-627.81 882,-612 816.94,-598.63 800.17,-595.38 738,-572 701.53,-558.29 695.44,-547.79 659,-534 587.43,-506.91 501.97,-484.36 446.88,-471.03"/>
<polygon fill="red" stroke="red" points="447.5,-467.58 436.96,-468.65 445.87,-474.39 447.5,-467.58"/>
<text text-anchor="middle" x="765" y="-556" font-family="Times,serif" font-size="10.00" fill="red">2.1.3</text>
<text text-anchor="middle" x="765" y="-545" font-family="Times,serif" font-size="10.00" fill="red">(latest: 2.1.4)</text>
</g>
<!-- roo_windows&#45;&gt;roo_testing -->
<g id="edge49" class="edge">
<title>roo_windows&#45;&gt;roo_testing</title>
<path fill="none" stroke="red" d="M1193.14,-639.65C1261.9,-625.63 1385,-594.83 1385,-554 1385,-554 1385,-554 1385,-93 1385,-46.81 1327.01,-29.83 1282.91,-23.6"/>
<polygon fill="red" stroke="red" points="1283.25,-20.12 1272.89,-22.33 1282.37,-27.06 1283.25,-20.12"/>
<text text-anchor="middle" x="1412" y="-316" font-family="Times,serif" font-size="10.00" fill="red">1.1.4</text>
<text text-anchor="middle" x="1412" y="-305" font-family="Times,serif" font-size="10.00" fill="red">(latest: 1.1.7)</text>
</g>
<!-- roo_windows&#45;&gt;roo_time -->
<g id="edge56" class="edge">
<title>roo_windows&#45;&gt;roo_time</title>
<path fill="none" stroke="red" d="M1146.36,-629.69C1145.88,-624.03 1145.38,-617.76 1145,-612 1143.82,-594.24 1143.44,-589.79 1143,-572 1142.13,-537.34 1137.17,-528.17 1143,-494 1150.43,-450.43 1197.52,-431.77 1169,-398 1138.17,-361.49 1099.21,-411.18 1063,-380 1015.5,-339.1 1064.73,-288.87 1019,-246 938.88,-170.9 598.43,-117.63 477.14,-100.72"/>
<polygon fill="red" stroke="red" points="477.49,-97.24 467.1,-99.34 476.53,-104.17 477.49,-97.24"/>
<text text-anchor="middle" x="1090" y="-364" font-family="Times,serif" font-size="10.00" fill="red">1.3.0</text>
<text text-anchor="middle" x="1090" y="-353" font-family="Times,serif" font-size="10.00" fill="red">(latest: 1.3.2)</text>
</g>
<!-- roo_windows_transceivers -->
<g id="node30" class="node">
<title>roo_windows_transceivers</title>
<polygon fill="plum" stroke="black" points="1228.5,-764 1067.5,-764 1067.5,-726 1228.5,-726 1228.5,-764"/>
<text text-anchor="middle" x="1148" y="-748.8" font-family="Times,serif" font-size="14.00">roo_windows_transceivers</text>
<text text-anchor="middle" x="1148" y="-733.8" font-family="Times,serif" font-size="14.00">1.0.0</text>
</g>
<!-- roo_windows_transceivers&#45;&gt;roo_testing -->
<g id="edge57" class="edge">
<title>roo_windows_transceivers&#45;&gt;roo_testing</title>
<path fill="none" stroke="red" d="M1228.8,-735.24C1319.46,-723.11 1454,-697.17 1454,-650 1454,-650 1454,-650 1454,-93 1454,-57.14 1347.38,-35.83 1282.59,-26.19"/>
<polygon fill="red" stroke="red" points="1282.97,-22.71 1272.57,-24.74 1281.97,-29.64 1282.97,-22.71"/>
<text text-anchor="middle" x="1481" y="-364" font-family="Times,serif" font-size="10.00" fill="red">1.1.4</text>
<text text-anchor="middle" x="1481" y="-353" font-family="Times,serif" font-size="10.00" fill="red">(latest: 1.1.7)</text>
</g>
<!-- roo_windows_transceivers&#45;&gt;roo_transceivers -->
<g id="edge58" class="edge">
<title>roo_windows_transceivers&#45;&gt;roo_transceivers</title>
<path fill="none" stroke="red" d="M1067.31,-732.97C977.57,-720.07 828.57,-696.77 702,-668 701.9,-667.98 701.8,-667.95 701.7,-667.93"/>
<polygon fill="red" stroke="red" points="702.71,-664.58 692.17,-665.63 701.07,-671.38 702.71,-664.58"/>
<text text-anchor="middle" x="923" y="-700" font-family="Times,serif" font-size="10.00" fill="red">1.1.1</text>
<text text-anchor="middle" x="923" y="-689" font-family="Times,serif" font-size="10.00" fill="red">(latest: 1.1.2)</text>
</g>
<!-- roo_windows_transceivers&#45;&gt;roo_windows -->
<g id="edge59" class="edge">
<title>roo_windows_transceivers&#45;&gt;roo_windows</title>
<path fill="none" stroke="black" d="M1148,-725.88C1148,-712.35 1148,-693.62 1148,-678.15"/>
<polygon fill="black" stroke="black" points="1151.5,-678.07 1148,-668.07 1144.5,-678.07 1151.5,-678.07"/>
</g>
<!-- roo_windows_wifi -->
<g id="node31" class="node">
<title>roo_windows_wifi</title>
<polygon fill="khaki" stroke="black" points="911.5,-764 792.5,-764 792.5,-726 911.5,-726 911.5,-764"/>
<text text-anchor="middle" x="852" y="-748.8" font-family="Times,serif" font-size="14.00">roo_windows_wifi</text>
<text text-anchor="middle" x="852" y="-733.8" font-family="Times,serif" font-size="14.00">1.1.1</text>
</g>
<!-- roo_windows_wifi&#45;&gt;roo_testing -->
<g id="edge60" class="edge">
<title>roo_windows_wifi&#45;&gt;roo_testing</title>
<path fill="none" stroke="red" d="M846.77,-725.95C832.29,-677.39 788.85,-540.73 730,-438 724.96,-429.21 719.29,-429.59 716,-420 712.83,-410.75 713.3,-407.4 716,-398 778.48,-180.15 1069.13,-69.75 1185.57,-33.66"/>
<polygon fill="red" stroke="red" points="1186.76,-36.96 1195.3,-30.69 1184.72,-30.26 1186.76,-36.96"/>
<text text-anchor="middle" x="764" y="-364" font-family="Times,serif" font-size="10.00" fill="red">1.1.4</text>
<text text-anchor="middle" x="764" y="-353" font-family="Times,serif" font-size="10.00" fill="red">(latest: 1.1.7)</text>
</g>
<!-- roo_windows_wifi&#45;&gt;roo_wifi -->
<g id="edge61" class="edge">
<title>roo_windows_wifi&#45;&gt;roo_wifi</title>
<path fill="none" stroke="red" d="M792.37,-741.15C741.52,-737.32 674.01,-728.44 657,-708 650.75,-700.48 651.55,-694.12 657,-686 668.78,-668.46 681.55,-676.25 701,-668 701.09,-667.96 701.19,-667.92 701.28,-667.88"/>
<polygon fill="red" stroke="red" points="702.44,-671.19 710.25,-664.03 699.68,-664.76 702.44,-671.19"/>
<text text-anchor="middle" x="684" y="-700" font-family="Times,serif" font-size="10.00" fill="red">1.1.0</text>
<text text-anchor="middle" x="684" y="-689" font-family="Times,serif" font-size="10.00" fill="red">(latest: 1.1.1)</text>
</g>
<!-- roo_windows_wifi&#45;&gt;roo_windows -->
<g id="edge62" class="edge">
<title>roo_windows_wifi&#45;&gt;roo_windows</title>
<path fill="none" stroke="black" d="M908.72,-725.99C961.71,-709.16 1040.31,-684.2 1092.8,-667.53"/>
<polygon fill="black" stroke="black" points="1094.14,-670.78 1102.61,-664.41 1092.02,-664.11 1094.14,-670.78"/>
</g>
</g>
</svg>
