<?xml version="1.0" encoding="UTF-8" standalone="no"?>
<!DOCTYPE svg PUBLIC "-//W3C//DTD SVG 1.1//EN"
 "http://www.w3.org/Graphics/SVG/1.1/DTD/svg11.dtd">
<!-- Generated by graphviz version 2.42.4 (0)
 -->
<!-- Title: dependencies Pages: 1 -->
<svg width="831pt" height="772pt"
 viewBox="0.00 0.00 830.50 772.00" xmlns="http://www.w3.org/2000/svg" xmlns:xlink="http://www.w3.org/1999/xlink">
<g id="graph0" class="graph" transform="scale(1 1) rotate(0) translate(4 768)">
<title>dependencies</title>
<polygon fill="white" stroke="transparent" points="-4,4 -4,-768 826.5,-768 826.5,4 -4,4"/>
<!-- roo_backport -->
<g id="node1" class="node">
<title>roo_backport</title>
<polygon fill="#b1dbab" stroke="black" points="450.5,-188 361.5,-188 361.5,-150 450.5,-150 450.5,-188"/>
<text text-anchor="middle" x="406" y="-172.8" font-family="Times,serif" font-size="14.00">roo_backport</text>
<text text-anchor="middle" x="406" y="-157.8" font-family="Times,serif" font-size="14.00">1.2.1</text>
</g>
<!-- roo_blink -->
<g id="node2" class="node">
<title>roo_blink</title>
<polygon fill="#b1dbab" stroke="black" points="167.5,-572 98.5,-572 98.5,-534 167.5,-534 167.5,-572"/>
<text text-anchor="middle" x="133" y="-556.8" font-family="Times,serif" font-size="14.00">roo_blink</text>
<text text-anchor="middle" x="133" y="-541.8" font-family="Times,serif" font-size="14.00">1.0.5</text>
</g>
<!-- roo_logging -->
<g id="node13" class="node">
<title>roo_logging</title>
<polygon fill="#b1dbab" stroke="black" points="332.5,-284 249.5,-284 249.5,-246 332.5,-246 332.5,-284"/>
<text text-anchor="middle" x="291" y="-268.8" font-family="Times,serif" font-size="14.00">roo_logging</text>
<text text-anchor="middle" x="291" y="-253.8" font-family="Times,serif" font-size="14.00">1.5.3</text>
</g>
<!-- roo_blink&#45;&gt;roo_logging -->
<g id="edge1" class="edge">
<title>roo_blink&#45;&gt;roo_logging</title>
<path fill="none" stroke="black" d="M138.48,-533.68C145.67,-510.69 159.36,-470.35 176,-438 204.05,-383.46 245.84,-325.16 270.56,-292.38"/>
<polygon fill="black" stroke="black" points="273.5,-294.3 276.76,-284.22 267.92,-290.07 273.5,-294.3"/>
</g>
<!-- roo_scheduler -->
<g id="node19" class="node">
<title>roo_scheduler</title>
<polygon fill="#b1dbab" stroke="black" points="278.5,-476 185.5,-476 185.5,-438 278.5,-438 278.5,-476"/>
<text text-anchor="middle" x="232" y="-460.8" font-family="Times,serif" font-size="14.00">roo_scheduler</text>
<text text-anchor="middle" x="232" y="-445.8" font-family="Times,serif" font-size="14.00">2.1.7</text>
</g>
<!-- roo_blink&#45;&gt;roo_scheduler -->
<g id="edge2" class="edge">
<title>roo_blink&#45;&gt;roo_scheduler</title>
<path fill="none" stroke="black" d="M152.09,-533.88C167.29,-519.44 188.74,-499.07 205.59,-483.07"/>
<polygon fill="black" stroke="black" points="208.13,-485.49 212.97,-476.07 203.31,-480.42 208.13,-485.49"/>
</g>
<!-- roo_collections -->
<g id="node3" class="node">
<title>roo_collections</title>
<polygon fill="#b1dbab" stroke="black" points="542,-380 442,-380 442,-342 542,-342 542,-380"/>
<text text-anchor="middle" x="492" y="-364.8" font-family="Times,serif" font-size="14.00">roo_collections</text>
<text text-anchor="middle" x="492" y="-349.8" font-family="Times,serif" font-size="14.00">1.4.1</text>
</g>
<!-- roo_collections&#45;&gt;roo_backport -->
<g id="edge3" class="edge">
<title>roo_collections&#45;&gt;roo_backport</title>
<path fill="none" stroke="black" d="M483.75,-341.78C468.6,-308.3 436.25,-236.82 418.42,-197.44"/>
<polygon fill="black" stroke="black" points="421.53,-195.83 414.22,-188.16 415.16,-198.72 421.53,-195.83"/>
</g>
<!-- roo_comms -->
<g id="node4" class="node">
<title>roo_comms</title>
<polygon fill="#b1dbab" stroke="red" points="277,-764 195,-764 195,-726 277,-726 277,-764"/>
<text text-anchor="middle" x="236" y="-748.8" font-family="Times,serif" font-size="14.00">roo_comms</text>
<text text-anchor="middle" x="236" y="-733.8" font-family="Times,serif" font-size="14.00">1.1.3</text>
</g>
<!-- roo_comms&#45;&gt;roo_blink -->
<g id="edge4" class="edge">
<title>roo_comms&#45;&gt;roo_blink</title>
<path fill="none" stroke="red" d="M226.12,-725.78C207.97,-692.3 169.22,-620.82 147.88,-581.44"/>
<polygon fill="red" stroke="red" points="150.69,-579.29 142.85,-572.16 144.54,-582.62 150.69,-579.29"/>
<text text-anchor="middle" x="222" y="-652" font-family="Times,serif" font-size="10.00" fill="red">1.0.4</text>
<text text-anchor="middle" x="222" y="-641" font-family="Times,serif" font-size="10.00" fill="red">(latest: 1.0.5)</text>
</g>
<!-- roo_control -->
<g id="node5" class="node">
<title>roo_control</title>
<polygon fill="#b1dbab" stroke="black" points="80,-572 0,-572 0,-534 80,-534 80,-572"/>
<text text-anchor="middle" x="40" y="-556.8" font-family="Times,serif" font-size="14.00">roo_control</text>
<text text-anchor="middle" x="40" y="-541.8" font-family="Times,serif" font-size="14.00">1.2.4</text>
</g>
<!-- roo_comms&#45;&gt;roo_control -->
<g id="edge5" class="edge">
<title>roo_comms&#45;&gt;roo_control</title>
<path fill="none" stroke="red" d="M199.71,-725.94C174.62,-712.29 141.49,-691.87 117,-668 90.46,-642.13 67.8,-605.74 54.07,-581.08"/>
<polygon fill="red" stroke="red" points="57.12,-579.36 49.26,-572.25 50.97,-582.71 57.12,-579.36"/>
<text text-anchor="middle" x="144" y="-652" font-family="Times,serif" font-size="10.00" fill="red">1.2.3</text>
<text text-anchor="middle" x="144" y="-641" font-family="Times,serif" font-size="10.00" fill="red">(latest: 1.2.4)</text>
</g>
<!-- roo_io -->
<g id="node10" class="node">
<title>roo_io</title>
<polygon fill="plum" stroke="red" points="384,-380 330,-380 330,-342 384,-342 384,-380"/>
<text text-anchor="middle" x="357" y="-364.8" font-family="Times,serif" font-size="14.00">roo_io</text>
<text text-anchor="middle" x="357" y="-349.8" font-family="Times,serif" font-size="14.00">2.1.2</text>
</g>
<!-- roo_comms&#45;&gt;roo_io -->
<g id="edge6" class="edge">
<title>roo_comms&#45;&gt;roo_io</title>
<path fill="none" stroke="red" d="M241.75,-725.83C261.22,-664.37 324.7,-463.96 348.17,-389.87"/>
<polygon fill="red" stroke="red" points="351.53,-390.87 351.21,-380.28 344.85,-388.76 351.53,-390.87"/>
<text text-anchor="middle" x="329" y="-556" font-family="Times,serif" font-size="10.00" fill="red">2.1.1</text>
<text text-anchor="middle" x="329" y="-545" font-family="Times,serif" font-size="10.00" fill="red">(latest: 2.1.2)</text>
</g>
<!-- roo_transceivers -->
<g id="node24" class="node">
<title>roo_transceivers</title>
<polygon fill="khaki" stroke="red" points="440,-668 334,-668 334,-630 440,-630 440,-668"/>
<text text-anchor="middle" x="387" y="-652.8" font-family="Times,serif" font-size="14.00">roo_transceivers</text>
<text text-anchor="middle" x="387" y="-637.8" font-family="Times,serif" font-size="14.00">1.1.4</text>
</g>
<!-- roo_comms&#45;&gt;roo_transceivers -->
<g id="edge7" class="edge">
<title>roo_comms&#45;&gt;roo_transceivers</title>
<path fill="none" stroke="black" d="M277.01,-729.39C291.11,-723.6 306.69,-716.33 320,-708 334.87,-698.69 349.79,-686.17 361.76,-675.14"/>
<polygon fill="black" stroke="black" points="364.29,-677.57 369.17,-668.16 359.49,-672.47 364.29,-677.57"/>
</g>
<!-- roo_quantity -->
<g id="node18" class="node">
<title>roo_quantity</title>
<polygon fill="#b1dbab" stroke="black" points="105,-476 19,-476 19,-438 105,-438 105,-476"/>
<text text-anchor="middle" x="62" y="-460.8" font-family="Times,serif" font-size="14.00">roo_quantity</text>
<text text-anchor="middle" x="62" y="-445.8" font-family="Times,serif" font-size="14.00">1.1.7</text>
</g>
<!-- roo_control&#45;&gt;roo_quantity -->
<g id="edge8" class="edge">
<title>roo_control&#45;&gt;roo_quantity</title>
<path fill="none" stroke="black" d="M44.24,-533.88C47.41,-520.35 51.79,-501.62 55.41,-486.15"/>
<polygon fill="black" stroke="black" points="58.9,-486.6 57.77,-476.07 52.08,-485.01 58.9,-486.6"/>
</g>
<!-- roo_control&#45;&gt;roo_scheduler -->
<g id="edge9" class="edge">
<title>roo_control&#45;&gt;roo_scheduler</title>
<path fill="none" stroke="black" d="M77.02,-533.88C108.1,-518.66 152.64,-496.85 186,-480.52"/>
<polygon fill="black" stroke="black" points="187.65,-483.61 195.09,-476.07 184.57,-477.32 187.65,-483.61"/>
</g>
<!-- roo_dashboard -->
<g id="node6" class="node">
<title>roo_dashboard</title>
<polygon fill="plum" stroke="red" points="719.5,-764 622.5,-764 622.5,-726 719.5,-726 719.5,-764"/>
<text text-anchor="middle" x="671" y="-748.8" font-family="Times,serif" font-size="14.00">roo_dashboard</text>
<text text-anchor="middle" x="671" y="-733.8" font-family="Times,serif" font-size="14.00">1.0.1</text>
</g>
<!-- roo_windows -->
<g id="node27" class="node">
<title>roo_windows</title>
<polygon fill="#b1dbab" stroke="red" points="637,-668 547,-668 547,-630 637,-630 637,-668"/>
<text text-anchor="middle" x="592" y="-652.8" font-family="Times,serif" font-size="14.00">roo_windows</text>
<text text-anchor="middle" x="592" y="-637.8" font-family="Times,serif" font-size="14.00">1.4.2</text>
</g>
<!-- roo_dashboard&#45;&gt;roo_windows -->
<g id="edge10" class="edge">
<title>roo_dashboard&#45;&gt;roo_windows</title>
<path fill="none" stroke="red" d="M655.77,-725.88C643.86,-711.7 627.13,-691.81 613.8,-675.94"/>
<polygon fill="red" stroke="red" points="616.3,-673.47 607.19,-668.07 610.94,-677.98 616.3,-673.47"/>
<text text-anchor="middle" x="665" y="-700" font-family="Times,serif" font-size="10.00" fill="red">1.4.1</text>
<text text-anchor="middle" x="665" y="-689" font-family="Times,serif" font-size="10.00" fill="red">(latest: 1.4.2)</text>
</g>
<!-- roo_display -->
<g id="node7" class="node">
<title>roo_display</title>
<polygon fill="khaki" stroke="red" points="577,-476 497,-476 497,-438 577,-438 577,-476"/>
<text text-anchor="middle" x="537" y="-460.8" font-family="Times,serif" font-size="14.00">roo_display</text>
<text text-anchor="middle" x="537" y="-445.8" font-family="Times,serif" font-size="14.00">2.3.2</text>
</g>
<!-- roo_display&#45;&gt;roo_collections -->
<g id="edge11" class="edge">
<title>roo_display&#45;&gt;roo_collections</title>
<path fill="none" stroke="red" d="M545.89,-437.77C550.37,-425.83 553.61,-410.22 547,-398 544.77,-393.88 541.84,-390.15 538.5,-386.8"/>
<polygon fill="red" stroke="red" points="540.49,-383.9 530.62,-380.06 535.94,-389.22 540.49,-383.9"/>
<text text-anchor="middle" x="577" y="-412" font-family="Times,serif" font-size="10.00" fill="red">1.4.0</text>
<text text-anchor="middle" x="577" y="-401" font-family="Times,serif" font-size="10.00" fill="red">(latest: 1.4.1)</text>
</g>
<!-- roo_display&#45;&gt;roo_io -->
<g id="edge12" class="edge">
<title>roo_display&#45;&gt;roo_io</title>
<path fill="none" stroke="black" d="M496.8,-441.22C493.17,-440.06 489.53,-438.97 486,-438 446.67,-427.18 429.94,-442.63 396,-420 384.64,-412.43 375.74,-400.31 369.32,-389.1"/>
<polygon fill="black" stroke="black" points="372.29,-387.23 364.52,-380.02 366.1,-390.5 372.29,-387.23"/>
</g>
<!-- roo_flags -->
<g id="node8" class="node">
<title>roo_flags</title>
<polygon fill="#b1dbab" stroke="black" points="325,-188 257,-188 257,-150 325,-150 325,-188"/>
<text text-anchor="middle" x="291" y="-172.8" font-family="Times,serif" font-size="14.00">roo_flags</text>
<text text-anchor="middle" x="291" y="-157.8" font-family="Times,serif" font-size="14.00">1.2.1</text>
</g>
<!-- roo_icons -->
<g id="node9" class="node">
<title>roo_icons</title>
<polygon fill="#b1dbab" stroke="red" points="627,-572 557,-572 557,-534 627,-534 627,-572"/>
<text text-anchor="middle" x="592" y="-556.8" font-family="Times,serif" font-size="14.00">roo_icons</text>
<text text-anchor="middle" x="592" y="-541.8" font-family="Times,serif" font-size="14.00">1.2.1</text>
</g>
<!-- roo_icons&#45;&gt;roo_display -->
<g id="edge13" class="edge">
<title>roo_icons&#45;&gt;roo_display</title>
<path fill="none" stroke="red" d="M581.4,-533.88C573.25,-519.96 561.89,-500.53 552.69,-484.82"/>
<polygon fill="red" stroke="red" points="555.64,-482.93 547.57,-476.07 549.6,-486.47 555.64,-482.93"/>
<text text-anchor="middle" x="596" y="-508" font-family="Times,serif" font-size="10.00" fill="red">2.3.1</text>
<text text-anchor="middle" x="596" y="-497" font-family="Times,serif" font-size="10.00" fill="red">(latest: 2.3.2)</text>
</g>
<!-- roo_io&#45;&gt;roo_logging -->
<g id="edge14" class="edge">
<title>roo_io&#45;&gt;roo_logging</title>
<path fill="none" stroke="red" d="M344.27,-341.88C334.41,-327.83 320.61,-308.17 309.52,-292.38"/>
<polygon fill="red" stroke="red" points="312.3,-290.24 303.69,-284.07 306.57,-294.26 312.3,-290.24"/>
<text text-anchor="middle" x="357" y="-316" font-family="Times,serif" font-size="10.00" fill="red">1.5.2</text>
<text text-anchor="middle" x="357" y="-305" font-family="Times,serif" font-size="10.00" fill="red">(latest: 1.5.3)</text>
</g>
<!-- roo_io_sdfat -->
<g id="node11" class="node">
<title>roo_io_sdfat</title>
<polygon fill="plum" stroke="black" points="822.5,-764 737.5,-764 737.5,-726 822.5,-726 822.5,-764"/>
<text text-anchor="middle" x="780" y="-748.8" font-family="Times,serif" font-size="14.00">roo_io_sdfat</text>
<text text-anchor="middle" x="780" y="-733.8" font-family="Times,serif" font-size="14.00">1.0.0</text>
</g>
<!-- roo_locale -->
<g id="node12" class="node">
<title>roo_locale</title>
<polygon fill="#b1dbab" stroke="black" points="719,-572 645,-572 645,-534 719,-534 719,-572"/>
<text text-anchor="middle" x="682" y="-556.8" font-family="Times,serif" font-size="14.00">roo_locale</text>
<text text-anchor="middle" x="682" y="-541.8" font-family="Times,serif" font-size="14.00">1.1.1</text>
</g>
<!-- roo_logging&#45;&gt;roo_backport -->
<g id="edge15" class="edge">
<title>roo_logging&#45;&gt;roo_backport</title>
<path fill="none" stroke="black" d="M313.17,-245.88C331.07,-231.25 356.42,-210.52 376.11,-194.43"/>
<polygon fill="black" stroke="black" points="378.37,-197.11 383.89,-188.07 373.94,-191.69 378.37,-197.11"/>
</g>
<!-- roo_logging&#45;&gt;roo_flags -->
<g id="edge16" class="edge">
<title>roo_logging&#45;&gt;roo_flags</title>
<path fill="none" stroke="black" d="M291,-245.88C291,-232.35 291,-213.62 291,-198.15"/>
<polygon fill="black" stroke="black" points="294.5,-198.07 291,-188.07 287.5,-198.07 294.5,-198.07"/>
</g>
<!-- roo_threads -->
<g id="node21" class="node">
<title>roo_threads</title>
<polygon fill="#b1dbab" stroke="black" points="218,-188 138,-188 138,-150 218,-150 218,-188"/>
<text text-anchor="middle" x="178" y="-172.8" font-family="Times,serif" font-size="14.00">roo_threads</text>
<text text-anchor="middle" x="178" y="-157.8" font-family="Times,serif" font-size="14.00">1.2.1</text>
</g>
<!-- roo_logging&#45;&gt;roo_threads -->
<g id="edge17" class="edge">
<title>roo_logging&#45;&gt;roo_threads</title>
<path fill="none" stroke="black" d="M275.95,-245.84C265.45,-233.78 250.74,-218.01 236,-206 230.69,-201.67 224.82,-197.47 218.92,-193.55"/>
<polygon fill="black" stroke="black" points="220.62,-190.47 210.31,-188.02 216.84,-196.37 220.62,-190.47"/>
</g>
<!-- roo_monitoring -->
<g id="node14" class="node">
<title>roo_monitoring</title>
<polygon fill="khaki" stroke="red" points="697,-476 595,-476 595,-438 697,-438 697,-476"/>
<text text-anchor="middle" x="646" y="-460.8" font-family="Times,serif" font-size="14.00">roo_monitoring</text>
<text text-anchor="middle" x="646" y="-445.8" font-family="Times,serif" font-size="14.00">1.0.0</text>
</g>
<!-- roo_monitoring&#45;&gt;roo_collections -->
<g id="edge18" class="edge">
<title>roo_monitoring&#45;&gt;roo_collections</title>
<path fill="none" stroke="red" d="M638.23,-437.86C631.85,-425.01 621.65,-408.29 608,-398 591.72,-385.73 571.2,-377.6 551.96,-372.22"/>
<polygon fill="red" stroke="red" points="552.61,-368.77 542.05,-369.66 550.85,-375.55 552.61,-368.77"/>
<text text-anchor="middle" x="654" y="-412" font-family="Times,serif" font-size="10.00" fill="red">1.3.2</text>
<text text-anchor="middle" x="654" y="-401" font-family="Times,serif" font-size="10.00" fill="red">(latest: 1.4.1)</text>
</g>
<!-- roo_monitoring&#45;&gt;roo_io -->
<g id="edge19" class="edge">
<title>roo_monitoring&#45;&gt;roo_io</title>
<path fill="none" stroke="red" d="M594.77,-439.94C591.82,-439.23 588.88,-438.58 586,-438 509.76,-422.76 480.93,-455.95 412,-420 400.55,-414.03 401.8,-407.46 393,-398 389.71,-394.46 386.19,-390.8 382.68,-387.22"/>
<polygon fill="red" stroke="red" points="385.11,-384.69 375.58,-380.06 380.14,-389.62 385.11,-384.69"/>
<text text-anchor="middle" x="439" y="-412" font-family="Times,serif" font-size="10.00" fill="red">2.0.3</text>
<text text-anchor="middle" x="439" y="-401" font-family="Times,serif" font-size="10.00" fill="red">(latest: 2.1.2)</text>
</g>
<!-- roo_onewire -->
<g id="node15" class="node">
<title>roo_onewire</title>
<polygon fill="#b1dbab" stroke="black" points="270.5,-572 185.5,-572 185.5,-534 270.5,-534 270.5,-572"/>
<text text-anchor="middle" x="228" y="-556.8" font-family="Times,serif" font-size="14.00">roo_onewire</text>
<text text-anchor="middle" x="228" y="-541.8" font-family="Times,serif" font-size="14.00">2.0.8</text>
</g>
<!-- roo_onewire&#45;&gt;roo_quantity -->
<g id="edge21" class="edge">
<title>roo_onewire&#45;&gt;roo_quantity</title>
<path fill="none" stroke="black" d="M195.99,-533.88C169.47,-518.86 131.6,-497.41 102.88,-481.15"/>
<polygon fill="black" stroke="black" points="104.33,-477.95 93.91,-476.07 100.89,-484.04 104.33,-477.95"/>
</g>
<!-- roo_onewire&#45;&gt;roo_scheduler -->
<g id="edge20" class="edge">
<title>roo_onewire&#45;&gt;roo_scheduler</title>
<path fill="none" stroke="black" d="M228.77,-533.88C229.35,-520.35 230.14,-501.62 230.8,-486.15"/>
<polygon fill="black" stroke="black" points="234.3,-486.21 231.23,-476.07 227.31,-485.91 234.3,-486.21"/>
</g>
<!-- roo_powersafefs -->
<g id="node16" class="node">
<title>roo_powersafefs</title>
<polygon fill="plum" stroke="red" points="231.5,-284 124.5,-284 124.5,-246 231.5,-246 231.5,-284"/>
<text text-anchor="middle" x="178" y="-268.8" font-family="Times,serif" font-size="14.00">roo_powersafefs</text>
<text text-anchor="middle" x="178" y="-253.8" font-family="Times,serif" font-size="14.00">1.0.0</text>
</g>
<!-- roo_powersafefs&#45;&gt;roo_threads -->
<g id="edge22" class="edge">
<title>roo_powersafefs&#45;&gt;roo_threads</title>
<path fill="none" stroke="red" d="M178,-245.88C178,-232.35 178,-213.62 178,-198.15"/>
<polygon fill="red" stroke="red" points="181.5,-198.07 178,-188.07 174.5,-198.07 181.5,-198.07"/>
<text text-anchor="middle" x="205" y="-220" font-family="Times,serif" font-size="10.00" fill="red">1.1.6</text>
<text text-anchor="middle" x="205" y="-209" font-family="Times,serif" font-size="10.00" fill="red">(latest: 1.2.1)</text>
</g>
<!-- roo_prefs -->
<g id="node17" class="node">
<title>roo_prefs</title>
<polygon fill="#b1dbab" stroke="black" points="447,-572 379,-572 379,-534 447,-534 447,-572"/>
<text text-anchor="middle" x="413" y="-556.8" font-family="Times,serif" font-size="14.00">roo_prefs</text>
<text text-anchor="middle" x="413" y="-541.8" font-family="Times,serif" font-size="14.00">1.2.8</text>
</g>
<!-- roo_prefs&#45;&gt;roo_logging -->
<g id="edge23" class="edge">
<title>roo_prefs&#45;&gt;roo_logging</title>
<path fill="none" stroke="black" d="M401.29,-533.6C382.16,-502.86 344.03,-438.63 321,-380 309.84,-351.59 301.5,-317.58 296.48,-294.15"/>
<polygon fill="black" stroke="black" points="299.87,-293.26 294.41,-284.18 293.02,-294.69 299.87,-293.26"/>
</g>
<!-- roo_prefs&#45;&gt;roo_scheduler -->
<g id="edge24" class="edge">
<title>roo_prefs&#45;&gt;roo_scheduler</title>
<path fill="none" stroke="black" d="M378.96,-534.32C349.78,-519.17 307.58,-497.25 275.88,-480.79"/>
<polygon fill="black" stroke="black" points="277.3,-477.58 266.82,-476.08 274.08,-483.8 277.3,-477.58"/>
</g>
<!-- roo_quantity&#45;&gt;roo_logging -->
<g id="edge25" class="edge">
<title>roo_quantity&#45;&gt;roo_logging</title>
<path fill="none" stroke="black" d="M67.04,-437.91C77.14,-405.2 103.11,-336.42 151,-302 181.47,-280.1 198.59,-292.65 239.66,-283.65"/>
<polygon fill="black" stroke="black" points="240.55,-287.03 249.4,-281.21 238.85,-280.24 240.55,-287.03"/>
</g>
<!-- roo_scheduler&#45;&gt;roo_collections -->
<g id="edge26" class="edge">
<title>roo_scheduler&#45;&gt;roo_collections</title>
<path fill="none" stroke="black" d="M278.78,-439.09C321.78,-423.54 385.73,-400.42 432.37,-383.56"/>
<polygon fill="black" stroke="black" points="433.83,-386.75 442.05,-380.06 431.45,-380.17 433.83,-386.75"/>
</g>
<!-- roo_scheduler&#45;&gt;roo_threads -->
<g id="edge27" class="edge">
<title>roo_scheduler&#45;&gt;roo_threads</title>
<path fill="none" stroke="black" d="M214.08,-437.91C186.44,-408.58 134.55,-347.51 115,-284 110.03,-267.86 109.27,-261.89 115,-246 121.97,-226.68 136.21,-208.8 149.4,-195.24"/>
<polygon fill="black" stroke="black" points="151.9,-197.69 156.56,-188.17 146.98,-192.7 151.9,-197.69"/>
</g>
<!-- roo_testing -->
<g id="node20" class="node">
<title>roo_testing</title>
<polygon fill="#b1dbab" stroke="black" points="114.5,-38 37.5,-38 37.5,0 114.5,0 114.5,-38"/>
<text text-anchor="middle" x="76" y="-22.8" font-family="Times,serif" font-size="14.00">roo_testing</text>
<text text-anchor="middle" x="76" y="-7.8" font-family="Times,serif" font-size="14.00">1.2.1</text>
</g>
<!-- roo_time -->
<g id="node22" class="node">
<title>roo_time</title>
<polygon fill="#b1dbab" stroke="black" points="109,-113 43,-113 43,-75 109,-75 109,-113"/>
<text text-anchor="middle" x="76" y="-97.8" font-family="Times,serif" font-size="14.00">roo_time</text>
<text text-anchor="middle" x="76" y="-82.8" font-family="Times,serif" font-size="14.00">1.4.1</text>
</g>
<!-- roo_threads&#45;&gt;roo_time -->
<g id="edge28" class="edge">
<title>roo_threads&#45;&gt;roo_time</title>
<path fill="none" stroke="black" d="M152.79,-149.96C139.79,-140.65 123.76,-129.18 109.72,-119.13"/>
<polygon fill="black" stroke="black" points="111.45,-116.06 101.28,-113.09 107.37,-121.76 111.45,-116.06"/>
</g>
<!-- roo_time&#45;&gt;roo_testing -->
<g id="edge29" class="edge">
<title>roo_time&#45;&gt;roo_testing</title>
<path fill="none" stroke="black" d="M76,-74.96C76,-66.88 76,-57.18 76,-48.18"/>
<polygon fill="black" stroke="black" points="79.5,-48.09 76,-38.09 72.5,-48.09 79.5,-48.09"/>
</g>
<!-- roo_time_ds3231 -->
<g id="node23" class="node">
<title>roo_time_ds3231</title>
<polygon fill="#b1dbab" stroke="black" points="120,-188 8,-188 8,-150 120,-150 120,-188"/>
<text text-anchor="middle" x="64" y="-172.8" font-family="Times,serif" font-size="14.00">roo_time_ds3231</text>
<text text-anchor="middle" x="64" y="-157.8" font-family="Times,serif" font-size="14.00">1.1.5</text>
</g>
<!-- roo_time_ds3231&#45;&gt;roo_time -->
<g id="edge30" class="edge">
<title>roo_time_ds3231&#45;&gt;roo_time</title>
<path fill="none" stroke="black" d="M66.97,-149.96C68.29,-141.88 69.89,-132.18 71.37,-123.18"/>
<polygon fill="black" stroke="black" points="74.86,-123.53 73.03,-113.09 67.95,-122.39 74.86,-123.53"/>
</g>
<!-- roo_transceivers&#45;&gt;roo_prefs -->
<g id="edge31" class="edge">
<title>roo_transceivers&#45;&gt;roo_prefs</title>
<path fill="none" stroke="red" d="M354.62,-629.63C348.71,-624.71 343.37,-618.82 340,-612 335.67,-603.23 334.84,-598.3 340,-590 343.79,-583.91 356.06,-576.98 369.49,-570.84"/>
<polygon fill="red" stroke="red" points="371.12,-573.95 378.88,-566.74 368.32,-567.54 371.12,-573.95"/>
<text text-anchor="middle" x="367" y="-604" font-family="Times,serif" font-size="10.00" fill="red">1.2.7</text>
<text text-anchor="middle" x="367" y="-593" font-family="Times,serif" font-size="10.00" fill="red">(latest: 1.2.8)</text>
</g>
<!-- roo_transport -->
<g id="node25" class="node">
<title>roo_transport</title>
<polygon fill="khaki" stroke="red" points="476.5,-476 387.5,-476 387.5,-438 476.5,-438 476.5,-476"/>
<text text-anchor="middle" x="432" y="-460.8" font-family="Times,serif" font-size="14.00">roo_transport</text>
<text text-anchor="middle" x="432" y="-445.8" font-family="Times,serif" font-size="14.00">1.1.0</text>
</g>
<!-- roo_transport&#45;&gt;roo_collections -->
<g id="edge32" class="edge">
<title>roo_transport&#45;&gt;roo_collections</title>
<path fill="none" stroke="red" d="M454.68,-437.69C460.22,-432.41 465.77,-426.35 470,-420 476.09,-410.86 480.82,-399.79 484.3,-389.79"/>
<polygon fill="red" stroke="red" points="487.64,-390.84 487.38,-380.25 480.98,-388.69 487.64,-390.84"/>
<text text-anchor="middle" x="507" y="-412" font-family="Times,serif" font-size="10.00" fill="red">1.4.0</text>
<text text-anchor="middle" x="507" y="-401" font-family="Times,serif" font-size="10.00" fill="red">(latest: 1.4.1)</text>
</g>
<!-- roo_transport&#45;&gt;roo_io -->
<g id="edge33" class="edge">
<title>roo_transport&#45;&gt;roo_io</title>
<path fill="none" stroke="black" d="M390.93,-437.97C383.4,-433.08 376.27,-427.12 371,-420 364.64,-411.41 361.13,-400.33 359.21,-390.15"/>
<polygon fill="black" stroke="black" points="362.64,-389.41 357.73,-380.02 355.72,-390.42 362.64,-389.41"/>
</g>
<!-- roo_wifi -->
<g id="node26" class="node">
<title>roo_wifi</title>
<polygon fill="#b1dbab" stroke="red" points="521.5,-668 458.5,-668 458.5,-630 521.5,-630 521.5,-668"/>
<text text-anchor="middle" x="490" y="-652.8" font-family="Times,serif" font-size="14.00">roo_wifi</text>
<text text-anchor="middle" x="490" y="-637.8" font-family="Times,serif" font-size="14.00">1.1.3</text>
</g>
<!-- roo_wifi&#45;&gt;roo_prefs -->
<g id="edge34" class="edge">
<title>roo_wifi&#45;&gt;roo_prefs</title>
<path fill="none" stroke="red" d="M458.27,-634.13C439.81,-625.76 419.66,-615.96 417,-612 411.24,-603.41 409.45,-592.41 409.37,-582.31"/>
<polygon fill="red" stroke="red" points="412.87,-582.38 409.82,-572.24 405.88,-582.07 412.87,-582.38"/>
<text text-anchor="middle" x="444" y="-604" font-family="Times,serif" font-size="10.00" fill="red">1.2.7</text>
<text text-anchor="middle" x="444" y="-593" font-family="Times,serif" font-size="10.00" fill="red">(latest: 1.2.8)</text>
</g>
<!-- roo_windows&#45;&gt;roo_icons -->
<g id="edge36" class="edge">
<title>roo_windows&#45;&gt;roo_icons</title>
<path fill="none" stroke="black" d="M592,-629.88C592,-616.35 592,-597.62 592,-582.15"/>
<polygon fill="black" stroke="black" points="595.5,-582.07 592,-572.07 588.5,-582.07 595.5,-582.07"/>
</g>
<!-- roo_windows&#45;&gt;roo_locale -->
<g id="edge35" class="edge">
<title>roo_windows&#45;&gt;roo_locale</title>
<path fill="none" stroke="black" d="M609.35,-629.88C623.05,-615.57 642.32,-595.44 657.58,-579.51"/>
<polygon fill="black" stroke="black" points="660.31,-581.71 664.7,-572.07 655.26,-576.87 660.31,-581.71"/>
</g>
<!-- roo_windows&#45;&gt;roo_scheduler -->
<g id="edge37" class="edge">
<title>roo_windows&#45;&gt;roo_scheduler</title>
<path fill="none" stroke="red" d="M566.74,-629.78C546.53,-614.88 517.74,-592.93 494,-572 476.08,-556.21 476.28,-546.61 456,-534 403.74,-501.51 335.92,-481.02 288.65,-469.61"/>
<polygon fill="red" stroke="red" points="289.43,-466.19 278.89,-467.31 287.82,-473.01 289.43,-466.19"/>
<text text-anchor="middle" x="521" y="-556" font-family="Times,serif" font-size="10.00" fill="red">2.1.6</text>
<text text-anchor="middle" x="521" y="-545" font-family="Times,serif" font-size="10.00" fill="red">(latest: 2.1.7)</text>
</g>
<!-- roo_windows_transceivers -->
<g id="node28" class="node">
<title>roo_windows_transceivers</title>
<polygon fill="khaki" stroke="red" points="467.5,-764 306.5,-764 306.5,-726 467.5,-726 467.5,-764"/>
<text text-anchor="middle" x="387" y="-748.8" font-family="Times,serif" font-size="14.00">roo_windows_transceivers</text>
<text text-anchor="middle" x="387" y="-733.8" font-family="Times,serif" font-size="14.00">1.0.0</text>
</g>
<!-- roo_windows_transceivers&#45;&gt;roo_transceivers -->
<g id="edge38" class="edge">
<title>roo_windows_transceivers&#45;&gt;roo_transceivers</title>
<path fill="none" stroke="red" d="M387,-725.88C387,-712.35 387,-693.62 387,-678.15"/>
<polygon fill="red" stroke="red" points="390.5,-678.07 387,-668.07 383.5,-678.07 390.5,-678.07"/>
<text text-anchor="middle" x="414" y="-700" font-family="Times,serif" font-size="10.00" fill="red">1.1.3</text>
<text text-anchor="middle" x="414" y="-689" font-family="Times,serif" font-size="10.00" fill="red">(latest: 1.1.4)</text>
</g>
<!-- roo_windows_transceivers&#45;&gt;roo_windows -->
<g id="edge39" class="edge">
<title>roo_windows_transceivers&#45;&gt;roo_windows</title>
<path fill="none" stroke="red" d="M426.53,-725.88C459.85,-710.6 507.67,-688.67 543.34,-672.31"/>
<polygon fill="red" stroke="red" points="544.96,-675.42 552.6,-668.07 542.05,-669.06 544.96,-675.42"/>
<text text-anchor="middle" x="534" y="-700" font-family="Times,serif" font-size="10.00" fill="red">1.4.1</text>
<text text-anchor="middle" x="534" y="-689" font-family="Times,serif" font-size="10.00" fill="red">(latest: 1.4.2)</text>
</g>
<!-- roo_windows_wifi -->
<g id="node29" class="node">
<title>roo_windows_wifi</title>
<polygon fill="plum" stroke="red" points="604.5,-764 485.5,-764 485.5,-726 604.5,-726 604.5,-764"/>
<text text-anchor="middle" x="545" y="-748.8" font-family="Times,serif" font-size="14.00">roo_windows_wifi</text>
<text text-anchor="middle" x="545" y="-733.8" font-family="Times,serif" font-size="14.00">1.1.3</text>
</g>
<!-- roo_windows_wifi&#45;&gt;roo_wifi -->
<g id="edge40" class="edge">
<title>roo_windows_wifi&#45;&gt;roo_wifi</title>
<path fill="none" stroke="black" d="M519.49,-725.93C513.67,-720.73 508.02,-714.65 504,-708 498.55,-698.99 495.22,-687.98 493.19,-677.99"/>
<polygon fill="black" stroke="black" points="496.63,-677.35 491.51,-668.07 489.73,-678.52 496.63,-677.35"/>
</g>
<!-- roo_windows_wifi&#45;&gt;roo_windows -->
<g id="edge41" class="edge">
<title>roo_windows_wifi&#45;&gt;roo_windows</title>
<path fill="none" stroke="black" d="M564.79,-725.97C569.72,-720.61 574.57,-714.44 578,-708 582.86,-698.87 586.06,-688.03 588.16,-678.22"/>
<polygon fill="black" stroke="black" points="591.65,-678.56 590.02,-668.09 584.77,-677.29 591.65,-678.56"/>
</g>
</g>
</svg>
