<?xml version="1.0" encoding="UTF-8" standalone="no"?>
<!DOCTYPE svg PUBLIC "-//W3C//DTD SVG 1.1//EN"
 "http://www.w3.org/Graphics/SVG/1.1/DTD/svg11.dtd">
<!-- Generated by graphviz version 2.42.4 (0)
 -->
<!-- Title: dependencies Pages: 1 -->
<svg width="832pt" height="730pt"
 viewBox="0.00 0.00 831.50 730.00" xmlns="http://www.w3.org/2000/svg" xmlns:xlink="http://www.w3.org/1999/xlink">
<g id="graph0" class="graph" transform="scale(1 1) rotate(0) translate(4 726)">
<title>dependencies</title>
<polygon fill="white" stroke="transparent" points="-4,4 -4,-726 827.5,-726 827.5,4 -4,4"/>
<!-- roo_backport -->
<g id="node1" class="node">
<title>roo_backport</title>
<polygon fill="#b1dbab" stroke="black" points="500.5,-188 411.5,-188 411.5,-150 500.5,-150 500.5,-188"/>
<text text-anchor="middle" x="456" y="-172.8" font-family="Times,serif" font-size="14.00">roo_backport</text>
<text text-anchor="middle" x="456" y="-157.8" font-family="Times,serif" font-size="14.00">1.2.0</text>
</g>
<!-- roo_blink -->
<g id="node2" class="node">
<title>roo_blink</title>
<polygon fill="#b1dbab" stroke="red" points="167.5,-551 98.5,-551 98.5,-513 167.5,-513 167.5,-551"/>
<text text-anchor="middle" x="133" y="-535.8" font-family="Times,serif" font-size="14.00">roo_blink</text>
<text text-anchor="middle" x="133" y="-520.8" font-family="Times,serif" font-size="14.00">1.0.4</text>
</g>
<!-- roo_logging -->
<g id="node13" class="node">
<title>roo_logging</title>
<polygon fill="khaki" stroke="black" points="336.5,-284 253.5,-284 253.5,-246 336.5,-246 336.5,-284"/>
<text text-anchor="middle" x="295" y="-268.8" font-family="Times,serif" font-size="14.00">roo_logging</text>
<text text-anchor="middle" x="295" y="-253.8" font-family="Times,serif" font-size="14.00">1.5.2</text>
</g>
<!-- roo_blink&#45;&gt;roo_logging -->
<g id="edge1" class="edge">
<title>roo_blink&#45;&gt;roo_logging</title>
<path fill="none" stroke="red" d="M139.23,-512.99C147.53,-489.98 163.35,-449.26 182,-417 209.11,-370.1 248.38,-320.75 272.76,-291.71"/>
<polygon fill="red" stroke="red" points="275.44,-293.97 279.22,-284.08 270.09,-289.45 275.44,-293.97"/>
<text text-anchor="middle" x="234" y="-391" font-family="Times,serif" font-size="10.00" fill="red">1.5.1</text>
<text text-anchor="middle" x="234" y="-380" font-family="Times,serif" font-size="10.00" fill="red">(latest: 1.5.2)</text>
</g>
<!-- roo_scheduler -->
<g id="node19" class="node">
<title>roo_scheduler</title>
<polygon fill="#b1dbab" stroke="black" points="284.5,-455 191.5,-455 191.5,-417 284.5,-417 284.5,-455"/>
<text text-anchor="middle" x="238" y="-439.8" font-family="Times,serif" font-size="14.00">roo_scheduler</text>
<text text-anchor="middle" x="238" y="-424.8" font-family="Times,serif" font-size="14.00">2.1.6</text>
</g>
<!-- roo_blink&#45;&gt;roo_scheduler -->
<g id="edge2" class="edge">
<title>roo_blink&#45;&gt;roo_scheduler</title>
<path fill="none" stroke="black" d="M151.35,-512.86C163.29,-501.24 179.32,-485.96 194,-473 198.16,-469.33 202.62,-465.53 207.04,-461.84"/>
<polygon fill="black" stroke="black" points="209.41,-464.43 214.89,-455.37 204.95,-459.03 209.41,-464.43"/>
</g>
<!-- roo_collections -->
<g id="node3" class="node">
<title>roo_collections</title>
<polygon fill="#b1dbab" stroke="black" points="566,-359 466,-359 466,-321 566,-321 566,-359"/>
<text text-anchor="middle" x="516" y="-343.8" font-family="Times,serif" font-size="14.00">roo_collections</text>
<text text-anchor="middle" x="516" y="-328.8" font-family="Times,serif" font-size="14.00">1.4.0</text>
</g>
<!-- roo_collections&#45;&gt;roo_backport -->
<g id="edge3" class="edge">
<title>roo_collections&#45;&gt;roo_backport</title>
<path fill="none" stroke="black" d="M509.58,-320.91C499.1,-291.39 478.24,-232.63 465.86,-197.78"/>
<polygon fill="black" stroke="black" points="469.11,-196.46 462.47,-188.21 462.51,-198.81 469.11,-196.46"/>
</g>
<!-- roo_comms -->
<g id="node4" class="node">
<title>roo_comms</title>
<polygon fill="#b1dbab" stroke="red" points="260,-722 178,-722 178,-684 260,-684 260,-722"/>
<text text-anchor="middle" x="219" y="-706.8" font-family="Times,serif" font-size="14.00">roo_comms</text>
<text text-anchor="middle" x="219" y="-691.8" font-family="Times,serif" font-size="14.00">1.1.3</text>
</g>
<!-- roo_comms&#45;&gt;roo_blink -->
<g id="edge4" class="edge">
<title>roo_comms&#45;&gt;roo_blink</title>
<path fill="none" stroke="black" d="M209.8,-683.91C194.71,-654.26 164.61,-595.12 146.91,-560.33"/>
<polygon fill="black" stroke="black" points="149.92,-558.54 142.27,-551.21 143.68,-561.71 149.92,-558.54"/>
</g>
<!-- roo_control -->
<g id="node5" class="node">
<title>roo_control</title>
<polygon fill="#b1dbab" stroke="red" points="80,-551 0,-551 0,-513 80,-513 80,-551"/>
<text text-anchor="middle" x="40" y="-535.8" font-family="Times,serif" font-size="14.00">roo_control</text>
<text text-anchor="middle" x="40" y="-520.8" font-family="Times,serif" font-size="14.00">1.2.3</text>
</g>
<!-- roo_comms&#45;&gt;roo_control -->
<g id="edge5" class="edge">
<title>roo_comms&#45;&gt;roo_control</title>
<path fill="none" stroke="black" d="M199.84,-683.91C167.76,-653.63 103.11,-592.58 66.62,-558.14"/>
<polygon fill="black" stroke="black" points="68.96,-555.53 59.29,-551.21 64.16,-560.62 68.96,-555.53"/>
</g>
<!-- roo_io -->
<g id="node10" class="node">
<title>roo_io</title>
<polygon fill="khaki" stroke="black" points="416,-359 362,-359 362,-321 416,-321 416,-359"/>
<text text-anchor="middle" x="389" y="-343.8" font-family="Times,serif" font-size="14.00">roo_io</text>
<text text-anchor="middle" x="389" y="-328.8" font-family="Times,serif" font-size="14.00">2.1.2</text>
</g>
<!-- roo_comms&#45;&gt;roo_io -->
<g id="edge6" class="edge">
<title>roo_comms&#45;&gt;roo_io</title>
<path fill="none" stroke="red" d="M227.66,-683.6C255.52,-624.46 342.87,-438.96 376.04,-368.51"/>
<polygon fill="red" stroke="red" points="379.26,-369.9 380.35,-359.36 372.93,-366.92 379.26,-369.9"/>
<text text-anchor="middle" x="335" y="-535" font-family="Times,serif" font-size="10.00" fill="red">2.1.1</text>
<text text-anchor="middle" x="335" y="-524" font-family="Times,serif" font-size="10.00" fill="red">(latest: 2.1.2)</text>
</g>
<!-- roo_transceivers -->
<g id="node24" class="node">
<title>roo_transceivers</title>
<polygon fill="#b1dbab" stroke="red" points="441,-626 335,-626 335,-588 441,-588 441,-626"/>
<text text-anchor="middle" x="388" y="-610.8" font-family="Times,serif" font-size="14.00">roo_transceivers</text>
<text text-anchor="middle" x="388" y="-595.8" font-family="Times,serif" font-size="14.00">1.1.4</text>
</g>
<!-- roo_comms&#45;&gt;roo_transceivers -->
<g id="edge7" class="edge">
<title>roo_comms&#45;&gt;roo_transceivers</title>
<path fill="none" stroke="black" d="M260.25,-691.3C279.46,-685.36 302.17,-676.94 321,-666 336.28,-657.12 351.33,-644.54 363.29,-633.36"/>
<polygon fill="black" stroke="black" points="365.88,-635.72 370.67,-626.27 361.03,-630.67 365.88,-635.72"/>
</g>
<!-- roo_quantity -->
<g id="node18" class="node">
<title>roo_quantity</title>
<polygon fill="#b1dbab" stroke="black" points="102,-455 16,-455 16,-417 102,-417 102,-455"/>
<text text-anchor="middle" x="59" y="-439.8" font-family="Times,serif" font-size="14.00">roo_quantity</text>
<text text-anchor="middle" x="59" y="-424.8" font-family="Times,serif" font-size="14.00">1.1.6</text>
</g>
<!-- roo_control&#45;&gt;roo_quantity -->
<g id="edge8" class="edge">
<title>roo_control&#45;&gt;roo_quantity</title>
<path fill="none" stroke="red" d="M43.66,-512.88C46.4,-499.35 50.18,-480.62 53.31,-465.15"/>
<polygon fill="red" stroke="red" points="56.8,-465.56 55.35,-455.07 49.94,-464.18 56.8,-465.56"/>
<text text-anchor="middle" x="79" y="-487" font-family="Times,serif" font-size="10.00" fill="red">1.1.5</text>
<text text-anchor="middle" x="79" y="-476" font-family="Times,serif" font-size="10.00" fill="red">(latest: 1.1.6)</text>
</g>
<!-- roo_control&#45;&gt;roo_scheduler -->
<g id="edge9" class="edge">
<title>roo_control&#45;&gt;roo_scheduler</title>
<path fill="none" stroke="black" d="M78.18,-512.88C110.22,-497.66 156.16,-475.85 190.56,-459.52"/>
<polygon fill="black" stroke="black" points="192.41,-462.52 199.94,-455.07 189.41,-456.2 192.41,-462.52"/>
</g>
<!-- roo_dashboard -->
<g id="node6" class="node">
<title>roo_dashboard</title>
<polygon fill="plum" stroke="red" points="720.5,-722 623.5,-722 623.5,-684 720.5,-684 720.5,-722"/>
<text text-anchor="middle" x="672" y="-706.8" font-family="Times,serif" font-size="14.00">roo_dashboard</text>
<text text-anchor="middle" x="672" y="-691.8" font-family="Times,serif" font-size="14.00">1.0.1</text>
</g>
<!-- roo_windows -->
<g id="node27" class="node">
<title>roo_windows</title>
<polygon fill="#b1dbab" stroke="black" points="633,-626 543,-626 543,-588 633,-588 633,-626"/>
<text text-anchor="middle" x="588" y="-610.8" font-family="Times,serif" font-size="14.00">roo_windows</text>
<text text-anchor="middle" x="588" y="-595.8" font-family="Times,serif" font-size="14.00">1.4.2</text>
</g>
<!-- roo_dashboard&#45;&gt;roo_windows -->
<g id="edge10" class="edge">
<title>roo_dashboard&#45;&gt;roo_windows</title>
<path fill="none" stroke="red" d="M655.8,-683.88C643.14,-669.7 625.36,-649.81 611.18,-633.94"/>
<polygon fill="red" stroke="red" points="613.42,-631.19 604.15,-626.07 608.2,-635.86 613.42,-631.19"/>
<text text-anchor="middle" x="664" y="-658" font-family="Times,serif" font-size="10.00" fill="red">1.4.1</text>
<text text-anchor="middle" x="664" y="-647" font-family="Times,serif" font-size="10.00" fill="red">(latest: 1.4.2)</text>
</g>
<!-- roo_display -->
<g id="node7" class="node">
<title>roo_display</title>
<polygon fill="#b1dbab" stroke="black" points="567,-455 487,-455 487,-417 567,-417 567,-455"/>
<text text-anchor="middle" x="527" y="-439.8" font-family="Times,serif" font-size="14.00">roo_display</text>
<text text-anchor="middle" x="527" y="-424.8" font-family="Times,serif" font-size="14.00">2.3.2</text>
</g>
<!-- roo_display&#45;&gt;roo_collections -->
<g id="edge11" class="edge">
<title>roo_display&#45;&gt;roo_collections</title>
<path fill="none" stroke="black" d="M528.37,-416.87C528.9,-405.38 528.98,-390.25 527,-377 526.6,-374.31 526.03,-371.53 525.37,-368.78"/>
<polygon fill="black" stroke="black" points="528.72,-367.76 522.67,-359.07 521.98,-369.64 528.72,-367.76"/>
</g>
<!-- roo_display&#45;&gt;roo_io -->
<g id="edge12" class="edge">
<title>roo_display&#45;&gt;roo_io</title>
<path fill="none" stroke="black" d="M486.82,-420.55C459.67,-410.76 428.65,-399.51 428,-399 417.47,-390.76 408.78,-378.88 402.3,-368.01"/>
<polygon fill="black" stroke="black" points="405.32,-366.23 397.38,-359.22 399.21,-369.65 405.32,-366.23"/>
</g>
<!-- roo_flags -->
<g id="node8" class="node">
<title>roo_flags</title>
<polygon fill="#b1dbab" stroke="black" points="329,-188 261,-188 261,-150 329,-150 329,-188"/>
<text text-anchor="middle" x="295" y="-172.8" font-family="Times,serif" font-size="14.00">roo_flags</text>
<text text-anchor="middle" x="295" y="-157.8" font-family="Times,serif" font-size="14.00">1.2.0</text>
</g>
<!-- roo_icons -->
<g id="node9" class="node">
<title>roo_icons</title>
<polygon fill="#b1dbab" stroke="red" points="573,-551 503,-551 503,-513 573,-513 573,-551"/>
<text text-anchor="middle" x="538" y="-535.8" font-family="Times,serif" font-size="14.00">roo_icons</text>
<text text-anchor="middle" x="538" y="-520.8" font-family="Times,serif" font-size="14.00">1.2.1</text>
</g>
<!-- roo_icons&#45;&gt;roo_display -->
<g id="edge13" class="edge">
<title>roo_icons&#45;&gt;roo_display</title>
<path fill="none" stroke="red" d="M535.88,-512.88C534.3,-499.35 532.1,-480.62 530.29,-465.15"/>
<polygon fill="red" stroke="red" points="533.75,-464.59 529.11,-455.07 526.8,-465.41 533.75,-464.59"/>
<text text-anchor="middle" x="560" y="-487" font-family="Times,serif" font-size="10.00" fill="red">2.3.1</text>
<text text-anchor="middle" x="560" y="-476" font-family="Times,serif" font-size="10.00" fill="red">(latest: 2.3.2)</text>
</g>
<!-- roo_io&#45;&gt;roo_logging -->
<g id="edge14" class="edge">
<title>roo_io&#45;&gt;roo_logging</title>
<path fill="none" stroke="black" d="M365.76,-320.96C353.9,-311.74 339.3,-300.4 326.44,-290.42"/>
<polygon fill="black" stroke="black" points="328.34,-287.46 318.29,-284.09 324.05,-292.99 328.34,-287.46"/>
</g>
<!-- roo_io_sdfat -->
<g id="node11" class="node">
<title>roo_io_sdfat</title>
<polygon fill="plum" stroke="black" points="823.5,-722 738.5,-722 738.5,-684 823.5,-684 823.5,-722"/>
<text text-anchor="middle" x="781" y="-706.8" font-family="Times,serif" font-size="14.00">roo_io_sdfat</text>
<text text-anchor="middle" x="781" y="-691.8" font-family="Times,serif" font-size="14.00">1.0.0</text>
</g>
<!-- roo_locale -->
<g id="node12" class="node">
<title>roo_locale</title>
<polygon fill="#b1dbab" stroke="black" points="665,-551 591,-551 591,-513 665,-513 665,-551"/>
<text text-anchor="middle" x="628" y="-535.8" font-family="Times,serif" font-size="14.00">roo_locale</text>
<text text-anchor="middle" x="628" y="-520.8" font-family="Times,serif" font-size="14.00">1.1.1</text>
</g>
<!-- roo_logging&#45;&gt;roo_backport -->
<g id="edge15" class="edge">
<title>roo_logging&#45;&gt;roo_backport</title>
<path fill="none" stroke="black" d="M326.04,-245.88C351.77,-230.86 388.5,-209.41 416.35,-193.15"/>
<polygon fill="black" stroke="black" points="418.18,-196.13 425.05,-188.07 414.65,-190.09 418.18,-196.13"/>
</g>
<!-- roo_logging&#45;&gt;roo_flags -->
<g id="edge16" class="edge">
<title>roo_logging&#45;&gt;roo_flags</title>
<path fill="none" stroke="black" d="M295,-245.88C295,-232.35 295,-213.62 295,-198.15"/>
<polygon fill="black" stroke="black" points="298.5,-198.07 295,-188.07 291.5,-198.07 298.5,-198.07"/>
</g>
<!-- roo_threads -->
<g id="node21" class="node">
<title>roo_threads</title>
<polygon fill="khaki" stroke="black" points="222,-188 142,-188 142,-150 222,-150 222,-188"/>
<text text-anchor="middle" x="182" y="-172.8" font-family="Times,serif" font-size="14.00">roo_threads</text>
<text text-anchor="middle" x="182" y="-157.8" font-family="Times,serif" font-size="14.00">1.2.0</text>
</g>
<!-- roo_logging&#45;&gt;roo_threads -->
<g id="edge17" class="edge">
<title>roo_logging&#45;&gt;roo_threads</title>
<path fill="none" stroke="black" d="M279.95,-245.84C269.45,-233.78 254.74,-218.01 240,-206 234.69,-201.67 228.82,-197.47 222.92,-193.55"/>
<polygon fill="black" stroke="black" points="224.62,-190.47 214.31,-188.02 220.84,-196.37 224.62,-190.47"/>
</g>
<!-- roo_monitoring -->
<g id="node14" class="node">
<title>roo_monitoring</title>
<polygon fill="khaki" stroke="red" points="687,-455 585,-455 585,-417 687,-417 687,-455"/>
<text text-anchor="middle" x="636" y="-439.8" font-family="Times,serif" font-size="14.00">roo_monitoring</text>
<text text-anchor="middle" x="636" y="-424.8" font-family="Times,serif" font-size="14.00">1.0.0</text>
</g>
<!-- roo_monitoring&#45;&gt;roo_collections -->
<g id="edge18" class="edge">
<title>roo_monitoring&#45;&gt;roo_collections</title>
<path fill="none" stroke="red" d="M612.86,-416.88C594.19,-402.25 567.73,-381.52 547.19,-365.43"/>
<polygon fill="red" stroke="red" points="549.1,-362.48 539.07,-359.07 544.78,-367.99 549.1,-362.48"/>
<text text-anchor="middle" x="613" y="-391" font-family="Times,serif" font-size="10.00" fill="red">1.3.2</text>
<text text-anchor="middle" x="613" y="-380" font-family="Times,serif" font-size="10.00" fill="red">(latest: 1.4.0)</text>
</g>
<!-- roo_monitoring&#45;&gt;roo_io -->
<g id="edge19" class="edge">
<title>roo_monitoring&#45;&gt;roo_io</title>
<path fill="none" stroke="red" d="M584.97,-419.55C581.94,-418.68 578.93,-417.82 576,-417 545.48,-408.45 536.71,-410.05 507,-399 478.79,-388.51 448.34,-373.44 425.44,-361.29"/>
<polygon fill="red" stroke="red" points="426.9,-358.1 416.43,-356.46 423.59,-364.27 426.9,-358.1"/>
<text text-anchor="middle" x="534" y="-391" font-family="Times,serif" font-size="10.00" fill="red">2.0.3</text>
<text text-anchor="middle" x="534" y="-380" font-family="Times,serif" font-size="10.00" fill="red">(latest: 2.1.2)</text>
</g>
<!-- roo_onewire -->
<g id="node15" class="node">
<title>roo_onewire</title>
<polygon fill="#b1dbab" stroke="red" points="270.5,-551 185.5,-551 185.5,-513 270.5,-513 270.5,-551"/>
<text text-anchor="middle" x="228" y="-535.8" font-family="Times,serif" font-size="14.00">roo_onewire</text>
<text text-anchor="middle" x="228" y="-520.8" font-family="Times,serif" font-size="14.00">2.0.7</text>
</g>
<!-- roo_onewire&#45;&gt;roo_quantity -->
<g id="edge21" class="edge">
<title>roo_onewire&#45;&gt;roo_quantity</title>
<path fill="none" stroke="red" d="M195.42,-512.88C168.29,-497.79 129.53,-476.23 100.24,-459.94"/>
<polygon fill="red" stroke="red" points="101.93,-456.87 91.48,-455.07 98.52,-462.99 101.93,-456.87"/>
<text text-anchor="middle" x="186" y="-487" font-family="Times,serif" font-size="10.00" fill="red">1.1.5</text>
<text text-anchor="middle" x="186" y="-476" font-family="Times,serif" font-size="10.00" fill="red">(latest: 1.1.6)</text>
</g>
<!-- roo_onewire&#45;&gt;roo_scheduler -->
<g id="edge20" class="edge">
<title>roo_onewire&#45;&gt;roo_scheduler</title>
<path fill="none" stroke="black" d="M254.82,-512.64C260.16,-507.6 265.04,-501.66 268,-495 271.98,-486.07 271.33,-482.19 268,-473 266.8,-469.69 265.15,-466.46 263.23,-463.4"/>
<polygon fill="black" stroke="black" points="265.99,-461.24 257.28,-455.21 260.33,-465.36 265.99,-461.24"/>
</g>
<!-- roo_powersafefs -->
<g id="node16" class="node">
<title>roo_powersafefs</title>
<polygon fill="plum" stroke="red" points="235.5,-284 128.5,-284 128.5,-246 235.5,-246 235.5,-284"/>
<text text-anchor="middle" x="182" y="-268.8" font-family="Times,serif" font-size="14.00">roo_powersafefs</text>
<text text-anchor="middle" x="182" y="-253.8" font-family="Times,serif" font-size="14.00">1.0.0</text>
</g>
<!-- roo_powersafefs&#45;&gt;roo_threads -->
<g id="edge22" class="edge">
<title>roo_powersafefs&#45;&gt;roo_threads</title>
<path fill="none" stroke="red" d="M182,-245.88C182,-232.35 182,-213.62 182,-198.15"/>
<polygon fill="red" stroke="red" points="185.5,-198.07 182,-188.07 178.5,-198.07 185.5,-198.07"/>
<text text-anchor="middle" x="209" y="-220" font-family="Times,serif" font-size="10.00" fill="red">1.1.6</text>
<text text-anchor="middle" x="209" y="-209" font-family="Times,serif" font-size="10.00" fill="red">(latest: 1.2.0)</text>
</g>
<!-- roo_prefs -->
<g id="node17" class="node">
<title>roo_prefs</title>
<polygon fill="#b1dbab" stroke="red" points="447,-551 379,-551 379,-513 447,-513 447,-551"/>
<text text-anchor="middle" x="413" y="-535.8" font-family="Times,serif" font-size="14.00">roo_prefs</text>
<text text-anchor="middle" x="413" y="-520.8" font-family="Times,serif" font-size="14.00">1.2.7</text>
</g>
<!-- roo_prefs&#45;&gt;roo_logging -->
<g id="edge23" class="edge">
<title>roo_prefs&#45;&gt;roo_logging</title>
<path fill="none" stroke="red" d="M402.7,-512.91C393.96,-497.53 381.11,-474.84 370,-455 356.11,-430.18 350.41,-425.06 339,-399 323.52,-363.64 310.32,-321 302.53,-293.7"/>
<polygon fill="red" stroke="red" points="305.89,-292.71 299.81,-284.03 299.15,-294.61 305.89,-292.71"/>
<text text-anchor="middle" x="366" y="-391" font-family="Times,serif" font-size="10.00" fill="red">1.5.1</text>
<text text-anchor="middle" x="366" y="-380" font-family="Times,serif" font-size="10.00" fill="red">(latest: 1.5.2)</text>
</g>
<!-- roo_prefs&#45;&gt;roo_scheduler -->
<g id="edge24" class="edge">
<title>roo_prefs&#45;&gt;roo_scheduler</title>
<path fill="none" stroke="black" d="M379.26,-512.88C351.17,-497.79 311.03,-476.23 280.71,-459.94"/>
<polygon fill="black" stroke="black" points="282.1,-456.72 271.64,-455.07 278.79,-462.88 282.1,-456.72"/>
</g>
<!-- roo_quantity&#45;&gt;roo_logging -->
<g id="edge25" class="edge">
<title>roo_quantity&#45;&gt;roo_logging</title>
<path fill="none" stroke="black" d="M64.53,-416.95C74.51,-387.68 98.43,-330.29 140,-302 176.36,-277.26 196.06,-293.5 243.55,-283.65"/>
<polygon fill="black" stroke="black" points="244.5,-287.02 253.43,-281.31 242.89,-280.21 244.5,-287.02"/>
</g>
<!-- roo_scheduler&#45;&gt;roo_collections -->
<g id="edge26" class="edge">
<title>roo_scheduler&#45;&gt;roo_collections</title>
<path fill="none" stroke="black" d="M284.53,-419.27C331.58,-403.36 404.49,-378.7 455.89,-361.32"/>
<polygon fill="black" stroke="black" points="457.2,-364.58 465.55,-358.06 454.96,-357.95 457.2,-364.58"/>
</g>
<!-- roo_scheduler&#45;&gt;roo_threads -->
<g id="edge27" class="edge">
<title>roo_scheduler&#45;&gt;roo_threads</title>
<path fill="none" stroke="black" d="M221.14,-416.82C190.86,-383.71 129.47,-314.2 119,-284 113.47,-268.04 113.27,-261.89 119,-246 125.97,-226.68 140.21,-208.8 153.4,-195.24"/>
<polygon fill="black" stroke="black" points="155.9,-197.69 160.56,-188.17 150.98,-192.7 155.9,-197.69"/>
</g>
<!-- roo_testing -->
<g id="node20" class="node">
<title>roo_testing</title>
<polygon fill="khaki" stroke="black" points="118.5,-38 41.5,-38 41.5,0 118.5,0 118.5,-38"/>
<text text-anchor="middle" x="80" y="-22.8" font-family="Times,serif" font-size="14.00">roo_testing</text>
<text text-anchor="middle" x="80" y="-7.8" font-family="Times,serif" font-size="14.00">1.2.0</text>
</g>
<!-- roo_time -->
<g id="node22" class="node">
<title>roo_time</title>
<polygon fill="#b1dbab" stroke="black" points="113,-113 47,-113 47,-75 113,-75 113,-113"/>
<text text-anchor="middle" x="80" y="-97.8" font-family="Times,serif" font-size="14.00">roo_time</text>
<text text-anchor="middle" x="80" y="-82.8" font-family="Times,serif" font-size="14.00">1.4.0</text>
</g>
<!-- roo_threads&#45;&gt;roo_time -->
<g id="edge28" class="edge">
<title>roo_threads&#45;&gt;roo_time</title>
<path fill="none" stroke="black" d="M156.79,-149.96C143.79,-140.65 127.76,-129.18 113.72,-119.13"/>
<polygon fill="black" stroke="black" points="115.45,-116.06 105.28,-113.09 111.37,-121.76 115.45,-116.06"/>
</g>
<!-- roo_time&#45;&gt;roo_testing -->
<g id="edge29" class="edge">
<title>roo_time&#45;&gt;roo_testing</title>
<path fill="none" stroke="black" d="M80,-74.96C80,-66.88 80,-57.18 80,-48.18"/>
<polygon fill="black" stroke="black" points="83.5,-48.09 80,-38.09 76.5,-48.09 83.5,-48.09"/>
</g>
<!-- roo_time_ds3231 -->
<g id="node23" class="node">
<title>roo_time_ds3231</title>
<polygon fill="#b1dbab" stroke="black" points="124,-188 12,-188 12,-150 124,-150 124,-188"/>
<text text-anchor="middle" x="68" y="-172.8" font-family="Times,serif" font-size="14.00">roo_time_ds3231</text>
<text text-anchor="middle" x="68" y="-157.8" font-family="Times,serif" font-size="14.00">1.1.4</text>
</g>
<!-- roo_time_ds3231&#45;&gt;roo_time -->
<g id="edge30" class="edge">
<title>roo_time_ds3231&#45;&gt;roo_time</title>
<path fill="none" stroke="black" d="M70.97,-149.96C72.29,-141.88 73.89,-132.18 75.37,-123.18"/>
<polygon fill="black" stroke="black" points="78.86,-123.53 77.03,-113.09 71.95,-122.39 78.86,-123.53"/>
</g>
<!-- roo_transceivers&#45;&gt;roo_prefs -->
<g id="edge31" class="edge">
<title>roo_transceivers&#45;&gt;roo_prefs</title>
<path fill="none" stroke="black" d="M394.18,-587.96C397,-579.71 400.41,-569.75 403.55,-560.6"/>
<polygon fill="black" stroke="black" points="406.88,-561.68 406.8,-551.09 400.25,-559.42 406.88,-561.68"/>
</g>
<!-- roo_transport -->
<g id="node25" class="node">
<title>roo_transport</title>
<polygon fill="plum" stroke="black" points="468.5,-455 379.5,-455 379.5,-417 468.5,-417 468.5,-455"/>
<text text-anchor="middle" x="424" y="-439.8" font-family="Times,serif" font-size="14.00">roo_transport</text>
<text text-anchor="middle" x="424" y="-424.8" font-family="Times,serif" font-size="14.00">1.1.0</text>
</g>
<!-- roo_transport&#45;&gt;roo_collections -->
<g id="edge32" class="edge">
<title>roo_transport&#45;&gt;roo_collections</title>
<path fill="none" stroke="black" d="M468.63,-418.34C483.28,-412.06 497.08,-404.99 502,-399 508.9,-390.6 512.5,-379.33 514.34,-368.96"/>
<polygon fill="black" stroke="black" points="517.81,-369.4 515.65,-359.03 510.87,-368.49 517.81,-369.4"/>
</g>
<!-- roo_transport&#45;&gt;roo_io -->
<g id="edge33" class="edge">
<title>roo_transport&#45;&gt;roo_io</title>
<path fill="none" stroke="black" d="M412.03,-416.84C408.75,-411.28 405.43,-405.04 403,-399 399.2,-389.54 396.25,-378.79 394.06,-369.13"/>
<polygon fill="black" stroke="black" points="397.45,-368.26 391.98,-359.19 390.6,-369.69 397.45,-368.26"/>
</g>
<!-- roo_wifi -->
<g id="node26" class="node">
<title>roo_wifi</title>
<polygon fill="#b1dbab" stroke="black" points="522.5,-626 459.5,-626 459.5,-588 522.5,-588 522.5,-626"/>
<text text-anchor="middle" x="491" y="-610.8" font-family="Times,serif" font-size="14.00">roo_wifi</text>
<text text-anchor="middle" x="491" y="-595.8" font-family="Times,serif" font-size="14.00">1.1.3</text>
</g>
<!-- roo_wifi&#45;&gt;roo_prefs -->
<g id="edge34" class="edge">
<title>roo_wifi&#45;&gt;roo_prefs</title>
<path fill="none" stroke="black" d="M471.72,-587.96C462.06,-578.92 450.22,-567.83 439.7,-557.99"/>
<polygon fill="black" stroke="black" points="442.02,-555.37 432.33,-551.09 437.24,-560.48 442.02,-555.37"/>
</g>
<!-- roo_windows&#45;&gt;roo_icons -->
<g id="edge36" class="edge">
<title>roo_windows&#45;&gt;roo_icons</title>
<path fill="none" stroke="black" d="M575.64,-587.96C569.75,-579.36 562.59,-568.9 556.1,-559.43"/>
<polygon fill="black" stroke="black" points="558.93,-557.36 550.39,-551.09 553.15,-561.32 558.93,-557.36"/>
</g>
<!-- roo_windows&#45;&gt;roo_locale -->
<g id="edge35" class="edge">
<title>roo_windows&#45;&gt;roo_locale</title>
<path fill="none" stroke="black" d="M597.89,-587.96C602.5,-579.53 608.09,-569.33 613.2,-560.01"/>
<polygon fill="black" stroke="black" points="616.35,-561.54 618.09,-551.09 610.21,-558.18 616.35,-561.54"/>
</g>
<!-- roo_windows&#45;&gt;roo_scheduler -->
<g id="edge37" class="edge">
<title>roo_windows&#45;&gt;roo_scheduler</title>
<path fill="none" stroke="black" d="M552.26,-587.91C534.1,-578.03 512.11,-564.98 494,-551 475.09,-536.41 476.23,-525.7 456,-513 405.71,-481.44 340.63,-460.96 294.71,-449.3"/>
<polygon fill="black" stroke="black" points="295.47,-445.88 284.93,-446.87 293.79,-452.68 295.47,-445.88"/>
</g>
<!-- roo_windows_transceivers -->
<g id="node28" class="node">
<title>roo_windows_transceivers</title>
<polygon fill="khaki" stroke="red" points="468.5,-722 307.5,-722 307.5,-684 468.5,-684 468.5,-722"/>
<text text-anchor="middle" x="388" y="-706.8" font-family="Times,serif" font-size="14.00">roo_windows_transceivers</text>
<text text-anchor="middle" x="388" y="-691.8" font-family="Times,serif" font-size="14.00">1.0.0</text>
</g>
<!-- roo_windows_transceivers&#45;&gt;roo_transceivers -->
<g id="edge38" class="edge">
<title>roo_windows_transceivers&#45;&gt;roo_transceivers</title>
<path fill="none" stroke="red" d="M388,-683.88C388,-670.35 388,-651.62 388,-636.15"/>
<polygon fill="red" stroke="red" points="391.5,-636.07 388,-626.07 384.5,-636.07 391.5,-636.07"/>
<text text-anchor="middle" x="415" y="-658" font-family="Times,serif" font-size="10.00" fill="red">1.1.3</text>
<text text-anchor="middle" x="415" y="-647" font-family="Times,serif" font-size="10.00" fill="red">(latest: 1.1.4)</text>
</g>
<!-- roo_windows_transceivers&#45;&gt;roo_windows -->
<g id="edge39" class="edge">
<title>roo_windows_transceivers&#45;&gt;roo_windows</title>
<path fill="none" stroke="red" d="M426.56,-683.88C458.93,-668.66 505.33,-646.85 540.08,-630.52"/>
<polygon fill="red" stroke="red" points="541.99,-633.49 549.56,-626.07 539.02,-627.15 541.99,-633.49"/>
<text text-anchor="middle" x="532" y="-658" font-family="Times,serif" font-size="10.00" fill="red">1.4.1</text>
<text text-anchor="middle" x="532" y="-647" font-family="Times,serif" font-size="10.00" fill="red">(latest: 1.4.2)</text>
</g>
<!-- roo_windows_wifi -->
<g id="node29" class="node">
<title>roo_windows_wifi</title>
<polygon fill="plum" stroke="black" points="605.5,-722 486.5,-722 486.5,-684 605.5,-684 605.5,-722"/>
<text text-anchor="middle" x="546" y="-706.8" font-family="Times,serif" font-size="14.00">roo_windows_wifi</text>
<text text-anchor="middle" x="546" y="-691.8" font-family="Times,serif" font-size="14.00">1.1.3</text>
</g>
<!-- roo_windows_wifi&#45;&gt;roo_wifi -->
<g id="edge40" class="edge">
<title>roo_windows_wifi&#45;&gt;roo_wifi</title>
<path fill="none" stroke="black" d="M517.93,-683.97C511.84,-678.85 506.03,-672.79 502,-666 496.73,-657.14 493.91,-646.28 492.42,-636.37"/>
<polygon fill="black" stroke="black" points="495.86,-635.67 491.27,-626.12 488.9,-636.45 495.86,-635.67"/>
</g>
<!-- roo_windows_wifi&#45;&gt;roo_windows -->
<g id="edge41" class="edge">
<title>roo_windows_wifi&#45;&gt;roo_windows</title>
<path fill="none" stroke="black" d="M564.1,-683.8C568.58,-678.43 572.96,-672.3 576,-666 580.43,-656.82 583.23,-646.05 584.99,-636.3"/>
<polygon fill="black" stroke="black" points="588.48,-636.66 586.53,-626.24 581.56,-635.6 588.48,-636.66"/>
</g>
</g>
</svg>
