<?xml version="1.0" encoding="UTF-8" standalone="no"?>
<!DOCTYPE svg PUBLIC "-//W3C//DTD SVG 1.1//EN"
 "http://www.w3.org/Graphics/SVG/1.1/DTD/svg11.dtd">
<!-- Generated by graphviz version 2.42.4 (0)
 -->
<!-- Title: dependencies Pages: 1 -->
<svg width="1033pt" height="667pt"
 viewBox="0.00 0.00 1033.00 667.00" xmlns="http://www.w3.org/2000/svg" xmlns:xlink="http://www.w3.org/1999/xlink">
<g id="graph0" class="graph" transform="scale(1 1) rotate(0) translate(4 663)">
<title>dependencies</title>
<polygon fill="white" stroke="transparent" points="-4,4 -4,-663 1029,-663 1029,4 -4,4"/>
<!-- roo_backport -->
<g id="node1" class="node">
<title>roo_backport</title>
<polygon fill="#b1dbab" stroke="black" points="524,-263 435,-263 435,-225 524,-225 524,-263"/>
<text text-anchor="middle" x="479.5" y="-247.8" font-family="Times,serif" font-size="14.00">roo_backport</text>
<text text-anchor="middle" x="479.5" y="-232.8" font-family="Times,serif" font-size="14.00">1.1.1</text>
</g>
<!-- roo_blink -->
<g id="node2" class="node">
<title>roo_blink</title>
<polygon fill="#b1dbab" stroke="black" points="761,-488 692,-488 692,-450 761,-450 761,-488"/>
<text text-anchor="middle" x="726.5" y="-472.8" font-family="Times,serif" font-size="14.00">roo_blink</text>
<text text-anchor="middle" x="726.5" y="-457.8" font-family="Times,serif" font-size="14.00">1.0.1</text>
</g>
<!-- roo_logging -->
<g id="node14" class="node">
<title>roo_logging</title>
<polygon fill="#b1dbab" stroke="black" points="660,-263 577,-263 577,-225 660,-225 660,-263"/>
<text text-anchor="middle" x="618.5" y="-247.8" font-family="Times,serif" font-size="14.00">roo_logging</text>
<text text-anchor="middle" x="618.5" y="-232.8" font-family="Times,serif" font-size="14.00">1.4.2</text>
</g>
<!-- roo_blink&#45;&gt;roo_logging -->
<g id="edge1" class="edge">
<title>roo_blink&#45;&gt;roo_logging</title>
<path fill="none" stroke="black" d="M740.07,-449.8C752.49,-430.77 767.4,-400.23 756.5,-375 736.56,-328.81 691.24,-291.44 657.95,-268.82"/>
<polygon fill="black" stroke="black" points="659.61,-265.72 649.34,-263.11 655.74,-271.55 659.61,-265.72"/>
</g>
<!-- roo_scheduler -->
<g id="node20" class="node">
<title>roo_scheduler</title>
<polygon fill="#b1dbab" stroke="black" points="747,-413 654,-413 654,-375 747,-375 747,-413"/>
<text text-anchor="middle" x="700.5" y="-397.8" font-family="Times,serif" font-size="14.00">roo_scheduler</text>
<text text-anchor="middle" x="700.5" y="-382.8" font-family="Times,serif" font-size="14.00">2.1.4</text>
</g>
<!-- roo_blink&#45;&gt;roo_scheduler -->
<g id="edge2" class="edge">
<title>roo_blink&#45;&gt;roo_scheduler</title>
<path fill="none" stroke="black" d="M720.07,-449.96C717.14,-441.71 713.59,-431.75 710.33,-422.6"/>
<polygon fill="black" stroke="black" points="713.6,-421.34 706.94,-413.09 707,-423.69 713.6,-421.34"/>
</g>
<!-- roo_collections -->
<g id="node3" class="node">
<title>roo_collections</title>
<polygon fill="#b1dbab" stroke="black" points="469.5,-338 369.5,-338 369.5,-300 469.5,-300 469.5,-338"/>
<text text-anchor="middle" x="419.5" y="-322.8" font-family="Times,serif" font-size="14.00">roo_collections</text>
<text text-anchor="middle" x="419.5" y="-307.8" font-family="Times,serif" font-size="14.00">1.3.2</text>
</g>
<!-- roo_collections&#45;&gt;roo_backport -->
<g id="edge3" class="edge">
<title>roo_collections&#45;&gt;roo_backport</title>
<path fill="none" stroke="black" d="M434.33,-299.96C441.54,-291.18 450.34,-280.48 458.25,-270.85"/>
<polygon fill="black" stroke="black" points="460.99,-273.04 464.63,-263.09 455.58,-268.59 460.99,-273.04"/>
</g>
<!-- roo_comms -->
<g id="node4" class="node">
<title>roo_comms</title>
<polygon fill="#b1dbab" stroke="black" points="797.5,-659 715.5,-659 715.5,-621 797.5,-621 797.5,-659"/>
<text text-anchor="middle" x="756.5" y="-643.8" font-family="Times,serif" font-size="14.00">roo_comms</text>
<text text-anchor="middle" x="756.5" y="-628.8" font-family="Times,serif" font-size="14.00">1.1.1</text>
</g>
<!-- roo_comms&#45;&gt;roo_blink -->
<g id="edge4" class="edge">
<title>roo_comms&#45;&gt;roo_blink</title>
<path fill="none" stroke="black" d="M761.8,-620.76C767.56,-597.84 774.66,-557.58 764.5,-525 761.34,-514.86 755.58,-504.94 749.49,-496.39"/>
<polygon fill="black" stroke="black" points="752.2,-494.17 743.37,-488.32 746.63,-498.4 752.2,-494.17"/>
</g>
<!-- roo_control -->
<g id="node5" class="node">
<title>roo_control</title>
<polygon fill="#b1dbab" stroke="black" points="859.5,-488 779.5,-488 779.5,-450 859.5,-450 859.5,-488"/>
<text text-anchor="middle" x="819.5" y="-472.8" font-family="Times,serif" font-size="14.00">roo_control</text>
<text text-anchor="middle" x="819.5" y="-457.8" font-family="Times,serif" font-size="14.00">1.2.1</text>
</g>
<!-- roo_comms&#45;&gt;roo_control -->
<g id="edge5" class="edge">
<title>roo_comms&#45;&gt;roo_control</title>
<path fill="none" stroke="black" d="M770.08,-620.95C773.83,-615.39 777.64,-609.13 780.5,-603 796.58,-568.54 807.67,-525.95 813.8,-498.39"/>
<polygon fill="black" stroke="black" points="817.3,-498.78 815.98,-488.27 810.45,-497.3 817.3,-498.78"/>
</g>
<!-- roo_io -->
<g id="node10" class="node">
<title>roo_io</title>
<polygon fill="#b1dbab" stroke="black" points="541.5,-338 487.5,-338 487.5,-300 541.5,-300 541.5,-338"/>
<text text-anchor="middle" x="514.5" y="-322.8" font-family="Times,serif" font-size="14.00">roo_io</text>
<text text-anchor="middle" x="514.5" y="-307.8" font-family="Times,serif" font-size="14.00">2.0.2</text>
</g>
<!-- roo_comms&#45;&gt;roo_io -->
<g id="edge6" class="edge">
<title>roo_comms&#45;&gt;roo_io</title>
<path fill="none" stroke="black" d="M715.35,-637.72C662.1,-635.1 573.73,-627.14 553.5,-603 488.26,-525.17 606.93,-469 568.5,-375 563.92,-363.79 555.83,-353.63 547.28,-345.19"/>
<polygon fill="black" stroke="black" points="549.45,-342.43 539.73,-338.22 544.71,-347.57 549.45,-342.43"/>
</g>
<!-- roo_transceivers -->
<g id="node25" class="node">
<title>roo_transceivers</title>
<polygon fill="#b1dbab" stroke="black" points="755.5,-563 649.5,-563 649.5,-525 755.5,-525 755.5,-563"/>
<text text-anchor="middle" x="702.5" y="-547.8" font-family="Times,serif" font-size="14.00">roo_transceivers</text>
<text text-anchor="middle" x="702.5" y="-532.8" font-family="Times,serif" font-size="14.00">1.1.2</text>
</g>
<!-- roo_comms&#45;&gt;roo_transceivers -->
<g id="edge7" class="edge">
<title>roo_comms&#45;&gt;roo_transceivers</title>
<path fill="none" stroke="black" d="M746.09,-620.88C738.09,-606.96 726.93,-587.53 717.91,-571.82"/>
<polygon fill="black" stroke="black" points="720.9,-570 712.88,-563.07 714.83,-573.48 720.9,-570"/>
</g>
<!-- roo_quantity -->
<g id="node19" class="node">
<title>roo_quantity</title>
<polygon fill="#b1dbab" stroke="black" points="894.5,-413 808.5,-413 808.5,-375 894.5,-375 894.5,-413"/>
<text text-anchor="middle" x="851.5" y="-397.8" font-family="Times,serif" font-size="14.00">roo_quantity</text>
<text text-anchor="middle" x="851.5" y="-382.8" font-family="Times,serif" font-size="14.00">1.1.2</text>
</g>
<!-- roo_control&#45;&gt;roo_quantity -->
<g id="edge8" class="edge">
<title>roo_control&#45;&gt;roo_quantity</title>
<path fill="none" stroke="black" d="M827.41,-449.96C831.06,-441.62 835.48,-431.54 839.53,-422.3"/>
<polygon fill="black" stroke="black" points="842.76,-423.65 843.57,-413.09 836.35,-420.84 842.76,-423.65"/>
</g>
<!-- roo_control&#45;&gt;roo_scheduler -->
<g id="edge9" class="edge">
<title>roo_control&#45;&gt;roo_scheduler</title>
<path fill="none" stroke="black" d="M790.08,-449.96C774.64,-440.48 755.52,-428.75 738.92,-418.57"/>
<polygon fill="black" stroke="black" points="740.34,-415.34 729.99,-413.09 736.68,-421.3 740.34,-415.34"/>
</g>
<!-- roo_dashboard -->
<g id="node6" class="node">
<title>roo_dashboard</title>
<polygon fill="khaki" stroke="black" points="97,-659 0,-659 0,-621 97,-621 97,-659"/>
<text text-anchor="middle" x="48.5" y="-643.8" font-family="Times,serif" font-size="14.00">roo_dashboard</text>
<text text-anchor="middle" x="48.5" y="-628.8" font-family="Times,serif" font-size="14.00">1.0.0</text>
</g>
<!-- roo_testing -->
<g id="node21" class="node">
<title>roo_testing</title>
<polygon fill="#b1dbab" stroke="black" points="217,-38 140,-38 140,0 217,0 217,-38"/>
<text text-anchor="middle" x="178.5" y="-22.8" font-family="Times,serif" font-size="14.00">roo_testing</text>
<text text-anchor="middle" x="178.5" y="-7.8" font-family="Times,serif" font-size="14.00">1.1.7</text>
</g>
<!-- roo_dashboard&#45;&gt;roo_testing -->
<g id="edge10" class="edge">
<title>roo_dashboard&#45;&gt;roo_testing</title>
<path fill="none" stroke="red" d="M43.21,-620.8C38.22,-602 31.5,-571.7 31.5,-545 31.5,-545 31.5,-545 31.5,-93 31.5,-48.15 87.06,-30.86 129.86,-24.19"/>
<polygon fill="red" stroke="red" points="130.46,-27.64 139.88,-22.78 129.49,-20.71 130.46,-27.64"/>
<text text-anchor="middle" x="58.5" y="-322" font-family="Times,serif" font-size="10.00" fill="red">1.1.4</text>
<text text-anchor="middle" x="58.5" y="-311" font-family="Times,serif" font-size="10.00" fill="red">(latest: 1.1.7)</text>
</g>
<!-- roo_windows -->
<g id="node28" class="node">
<title>roo_windows</title>
<polygon fill="#b1dbab" stroke="black" points="287.5,-563 197.5,-563 197.5,-525 287.5,-525 287.5,-563"/>
<text text-anchor="middle" x="242.5" y="-547.8" font-family="Times,serif" font-size="14.00">roo_windows</text>
<text text-anchor="middle" x="242.5" y="-532.8" font-family="Times,serif" font-size="14.00">1.4.1</text>
</g>
<!-- roo_dashboard&#45;&gt;roo_windows -->
<g id="edge11" class="edge">
<title>roo_dashboard&#45;&gt;roo_windows</title>
<path fill="none" stroke="red" d="M74.1,-620.94C92.31,-608.62 117.68,-592.5 141.5,-581 156.08,-573.96 172.4,-567.55 187.61,-562.15"/>
<polygon fill="red" stroke="red" points="189.11,-565.34 197.41,-558.75 186.81,-558.72 189.11,-565.34"/>
<text text-anchor="middle" x="168.5" y="-595" font-family="Times,serif" font-size="10.00" fill="red">1.4.0</text>
<text text-anchor="middle" x="168.5" y="-584" font-family="Times,serif" font-size="10.00" fill="red">(latest: 1.4.1)</text>
</g>
<!-- roo_display -->
<g id="node7" class="node">
<title>roo_display</title>
<polygon fill="#b1dbab" stroke="black" points="331.5,-413 251.5,-413 251.5,-375 331.5,-375 331.5,-413"/>
<text text-anchor="middle" x="291.5" y="-397.8" font-family="Times,serif" font-size="14.00">roo_display</text>
<text text-anchor="middle" x="291.5" y="-382.8" font-family="Times,serif" font-size="14.00">2.3.1</text>
</g>
<!-- roo_display&#45;&gt;roo_collections -->
<g id="edge12" class="edge">
<title>roo_display&#45;&gt;roo_collections</title>
<path fill="none" stroke="black" d="M321.32,-374.89C331.48,-368.8 342.94,-362.03 353.5,-356 361,-351.72 369.02,-347.25 376.81,-342.97"/>
<polygon fill="black" stroke="black" points="378.69,-345.93 385.78,-338.06 375.33,-339.79 378.69,-345.93"/>
</g>
<!-- roo_display&#45;&gt;roo_io -->
<g id="edge13" class="edge">
<title>roo_display&#45;&gt;roo_io</title>
<path fill="none" stroke="black" d="M331.51,-377.97C334.54,-376.93 337.56,-375.93 340.5,-375 398.08,-356.75 417.26,-360.13 477.61,-337.96"/>
<polygon fill="black" stroke="black" points="479.11,-341.14 487.24,-334.34 476.65,-334.59 479.11,-341.14"/>
</g>
<!-- roo_flags -->
<g id="node8" class="node">
<title>roo_flags</title>
<polygon fill="#b1dbab" stroke="black" points="652.5,-188 584.5,-188 584.5,-150 652.5,-150 652.5,-188"/>
<text text-anchor="middle" x="618.5" y="-172.8" font-family="Times,serif" font-size="14.00">roo_flags</text>
<text text-anchor="middle" x="618.5" y="-157.8" font-family="Times,serif" font-size="14.00">1.1.1</text>
</g>
<!-- roo_icons -->
<g id="node9" class="node">
<title>roo_icons</title>
<polygon fill="#b1dbab" stroke="black" points="323.5,-488 253.5,-488 253.5,-450 323.5,-450 323.5,-488"/>
<text text-anchor="middle" x="288.5" y="-472.8" font-family="Times,serif" font-size="14.00">roo_icons</text>
<text text-anchor="middle" x="288.5" y="-457.8" font-family="Times,serif" font-size="14.00">1.2.1</text>
</g>
<!-- roo_icons&#45;&gt;roo_display -->
<g id="edge14" class="edge">
<title>roo_icons&#45;&gt;roo_display</title>
<path fill="none" stroke="black" d="M289.24,-449.96C289.57,-441.88 289.97,-432.18 290.34,-423.18"/>
<polygon fill="black" stroke="black" points="293.84,-423.23 290.76,-413.09 286.85,-422.94 293.84,-423.23"/>
</g>
<!-- roo_io&#45;&gt;roo_backport -->
<g id="edge15" class="edge">
<title>roo_io&#45;&gt;roo_backport</title>
<path fill="none" stroke="black" d="M505.85,-299.96C501.85,-291.62 497.02,-281.54 492.59,-272.3"/>
<polygon fill="black" stroke="black" points="495.65,-270.59 488.17,-263.09 489.34,-273.62 495.65,-270.59"/>
</g>
<!-- roo_io&#45;&gt;roo_logging -->
<g id="edge16" class="edge">
<title>roo_io&#45;&gt;roo_logging</title>
<path fill="none" stroke="black" d="M540.21,-299.96C553.58,-290.57 570.11,-278.97 584.52,-268.85"/>
<polygon fill="black" stroke="black" points="586.55,-271.7 592.73,-263.09 582.53,-265.97 586.55,-271.7"/>
</g>
<!-- roo_io_espressif -->
<g id="node11" class="node">
<title>roo_io_espressif</title>
<polygon fill="plum" stroke="black" points="921.5,-659 815.5,-659 815.5,-621 921.5,-621 921.5,-659"/>
<text text-anchor="middle" x="868.5" y="-643.8" font-family="Times,serif" font-size="14.00">roo_io_espressif</text>
<text text-anchor="middle" x="868.5" y="-628.8" font-family="Times,serif" font-size="14.00">1.0.0</text>
</g>
<!-- roo_io_sdfat -->
<g id="node12" class="node">
<title>roo_io_sdfat</title>
<polygon fill="plum" stroke="black" points="1025,-659 940,-659 940,-621 1025,-621 1025,-659"/>
<text text-anchor="middle" x="982.5" y="-643.8" font-family="Times,serif" font-size="14.00">roo_io_sdfat</text>
<text text-anchor="middle" x="982.5" y="-628.8" font-family="Times,serif" font-size="14.00">1.0.0</text>
</g>
<!-- roo_locale -->
<g id="node13" class="node">
<title>roo_locale</title>
<polygon fill="#b1dbab" stroke="black" points="235.5,-488 161.5,-488 161.5,-450 235.5,-450 235.5,-488"/>
<text text-anchor="middle" x="198.5" y="-472.8" font-family="Times,serif" font-size="14.00">roo_locale</text>
<text text-anchor="middle" x="198.5" y="-457.8" font-family="Times,serif" font-size="14.00">1.1.1</text>
</g>
<!-- roo_logging&#45;&gt;roo_flags -->
<g id="edge17" class="edge">
<title>roo_logging&#45;&gt;roo_flags</title>
<path fill="none" stroke="black" d="M618.5,-224.96C618.5,-216.88 618.5,-207.18 618.5,-198.18"/>
<polygon fill="black" stroke="black" points="622,-198.09 618.5,-188.09 615,-198.09 622,-198.09"/>
</g>
<!-- roo_threads -->
<g id="node22" class="node">
<title>roo_threads</title>
<polygon fill="#b1dbab" stroke="black" points="760.5,-188 680.5,-188 680.5,-150 760.5,-150 760.5,-188"/>
<text text-anchor="middle" x="720.5" y="-172.8" font-family="Times,serif" font-size="14.00">roo_threads</text>
<text text-anchor="middle" x="720.5" y="-157.8" font-family="Times,serif" font-size="14.00">1.1.5</text>
</g>
<!-- roo_logging&#45;&gt;roo_threads -->
<g id="edge18" class="edge">
<title>roo_logging&#45;&gt;roo_threads</title>
<path fill="none" stroke="black" d="M643.71,-224.96C656.71,-215.65 672.74,-204.18 686.78,-194.13"/>
<polygon fill="black" stroke="black" points="689.13,-196.76 695.22,-188.09 685.05,-191.06 689.13,-196.76"/>
</g>
<!-- roo_monitoring -->
<g id="node15" class="node">
<title>roo_monitoring</title>
<polygon fill="plum" stroke="black" points="451.5,-413 349.5,-413 349.5,-375 451.5,-375 451.5,-413"/>
<text text-anchor="middle" x="400.5" y="-397.8" font-family="Times,serif" font-size="14.00">roo_monitoring</text>
<text text-anchor="middle" x="400.5" y="-382.8" font-family="Times,serif" font-size="14.00">1.0.0</text>
</g>
<!-- roo_monitoring&#45;&gt;roo_collections -->
<g id="edge19" class="edge">
<title>roo_monitoring&#45;&gt;roo_collections</title>
<path fill="none" stroke="black" d="M405.2,-374.96C407.32,-366.8 409.88,-356.97 412.24,-347.89"/>
<polygon fill="black" stroke="black" points="415.66,-348.65 414.79,-338.09 408.89,-346.89 415.66,-348.65"/>
</g>
<!-- roo_monitoring&#45;&gt;roo_io -->
<g id="edge20" class="edge">
<title>roo_monitoring&#45;&gt;roo_io</title>
<path fill="none" stroke="black" d="M428.68,-374.96C443.81,-365.27 462.62,-353.22 478.77,-342.88"/>
<polygon fill="black" stroke="black" points="480.9,-345.67 487.43,-337.33 477.12,-339.78 480.9,-345.67"/>
</g>
<!-- roo_onewire -->
<g id="node16" class="node">
<title>roo_onewire</title>
<polygon fill="#b1dbab" stroke="black" points="963,-488 878,-488 878,-450 963,-450 963,-488"/>
<text text-anchor="middle" x="920.5" y="-472.8" font-family="Times,serif" font-size="14.00">roo_onewire</text>
<text text-anchor="middle" x="920.5" y="-457.8" font-family="Times,serif" font-size="14.00">2.0.4</text>
</g>
<!-- roo_onewire&#45;&gt;roo_quantity -->
<g id="edge22" class="edge">
<title>roo_onewire&#45;&gt;roo_quantity</title>
<path fill="none" stroke="black" d="M904,-449.84C898.47,-443.81 892.25,-437.09 886.5,-431 883.32,-427.63 879.94,-424.11 876.6,-420.64"/>
<polygon fill="black" stroke="black" points="878.88,-417.96 869.41,-413.22 873.85,-422.83 878.88,-417.96"/>
</g>
<!-- roo_onewire&#45;&gt;roo_scheduler -->
<g id="edge21" class="edge">
<title>roo_onewire&#45;&gt;roo_scheduler</title>
<path fill="none" stroke="black" d="M877.95,-453.21C874.76,-452.12 871.58,-451.04 868.5,-450 831.47,-437.53 789.71,-423.86 757.09,-413.27"/>
<polygon fill="black" stroke="black" points="757.87,-409.84 747.28,-410.08 755.71,-416.5 757.87,-409.84"/>
</g>
<!-- roo_powersafefs -->
<g id="node17" class="node">
<title>roo_powersafefs</title>
<polygon fill="plum" stroke="black" points="785,-263 678,-263 678,-225 785,-225 785,-263"/>
<text text-anchor="middle" x="731.5" y="-247.8" font-family="Times,serif" font-size="14.00">roo_powersafefs</text>
<text text-anchor="middle" x="731.5" y="-232.8" font-family="Times,serif" font-size="14.00">1.0.0</text>
</g>
<!-- roo_powersafefs&#45;&gt;roo_threads -->
<g id="edge23" class="edge">
<title>roo_powersafefs&#45;&gt;roo_threads</title>
<path fill="none" stroke="black" d="M728.78,-224.96C727.56,-216.88 726.1,-207.18 724.75,-198.18"/>
<polygon fill="black" stroke="black" points="728.18,-197.46 723.23,-188.09 721.26,-198.5 728.18,-197.46"/>
</g>
<!-- roo_prefs -->
<g id="node18" class="node">
<title>roo_prefs</title>
<polygon fill="#b1dbab" stroke="black" points="669.5,-488 601.5,-488 601.5,-450 669.5,-450 669.5,-488"/>
<text text-anchor="middle" x="635.5" y="-472.8" font-family="Times,serif" font-size="14.00">roo_prefs</text>
<text text-anchor="middle" x="635.5" y="-457.8" font-family="Times,serif" font-size="14.00">1.2.2</text>
</g>
<!-- roo_prefs&#45;&gt;roo_logging -->
<g id="edge24" class="edge">
<title>roo_prefs&#45;&gt;roo_logging</title>
<path fill="none" stroke="black" d="M634.11,-449.75C631.14,-410.86 624.19,-319.59 620.65,-273.17"/>
<polygon fill="black" stroke="black" points="624.14,-272.89 619.89,-263.19 617.16,-273.43 624.14,-272.89"/>
</g>
<!-- roo_prefs&#45;&gt;roo_scheduler -->
<g id="edge25" class="edge">
<title>roo_prefs&#45;&gt;roo_scheduler</title>
<path fill="none" stroke="black" d="M651.57,-449.96C659.46,-441.09 669.1,-430.26 677.74,-420.56"/>
<polygon fill="black" stroke="black" points="680.36,-422.89 684.39,-413.09 675.13,-418.23 680.36,-422.89"/>
</g>
<!-- roo_quantity&#45;&gt;roo_logging -->
<g id="edge26" class="edge">
<title>roo_quantity&#45;&gt;roo_logging</title>
<path fill="none" stroke="black" d="M846.92,-374.86C839.47,-349.41 822.17,-303.69 789.5,-281 747.63,-251.92 724.45,-273.38 669.85,-262.6"/>
<polygon fill="black" stroke="black" points="670.58,-259.18 660.05,-260.39 669.04,-266.01 670.58,-259.18"/>
</g>
<!-- roo_scheduler&#45;&gt;roo_collections -->
<g id="edge27" class="edge">
<title>roo_scheduler&#45;&gt;roo_collections</title>
<path fill="none" stroke="black" d="M653.97,-382.23C611.03,-372.13 545.3,-356.23 479.38,-338.18"/>
<polygon fill="black" stroke="black" points="480.23,-334.78 469.66,-335.5 478.37,-341.53 480.23,-334.78"/>
</g>
<!-- roo_scheduler&#45;&gt;roo_threads -->
<g id="edge28" class="edge">
<title>roo_scheduler&#45;&gt;roo_threads</title>
<path fill="none" stroke="black" d="M723.14,-374.74C748.97,-351.88 788.42,-309.96 794.5,-263 796.67,-246.25 802.09,-240.09 794.5,-225 788.19,-212.46 777.52,-202.05 766.22,-193.79"/>
<polygon fill="black" stroke="black" points="768.16,-190.88 757.93,-188.16 764.23,-196.67 768.16,-190.88"/>
</g>
<!-- roo_time -->
<g id="node23" class="node">
<title>roo_time</title>
<polygon fill="#b1dbab" stroke="black" points="753.5,-113 687.5,-113 687.5,-75 753.5,-75 753.5,-113"/>
<text text-anchor="middle" x="720.5" y="-97.8" font-family="Times,serif" font-size="14.00">roo_time</text>
<text text-anchor="middle" x="720.5" y="-82.8" font-family="Times,serif" font-size="14.00">1.3.2</text>
</g>
<!-- roo_threads&#45;&gt;roo_time -->
<g id="edge29" class="edge">
<title>roo_threads&#45;&gt;roo_time</title>
<path fill="none" stroke="black" d="M720.5,-149.96C720.5,-141.88 720.5,-132.18 720.5,-123.18"/>
<polygon fill="black" stroke="black" points="724,-123.09 720.5,-113.09 717,-123.09 724,-123.09"/>
</g>
<!-- roo_time&#45;&gt;roo_testing -->
<g id="edge30" class="edge">
<title>roo_time&#45;&gt;roo_testing</title>
<path fill="none" stroke="black" d="M687.41,-88.54C595.34,-76.14 335.83,-41.19 227.23,-26.56"/>
<polygon fill="black" stroke="black" points="227.58,-23.08 217.21,-25.21 226.65,-30.02 227.58,-23.08"/>
</g>
<!-- roo_time_ds3231 -->
<g id="node24" class="node">
<title>roo_time_ds3231</title>
<polygon fill="#b1dbab" stroke="black" points="890.5,-188 778.5,-188 778.5,-150 890.5,-150 890.5,-188"/>
<text text-anchor="middle" x="834.5" y="-172.8" font-family="Times,serif" font-size="14.00">roo_time_ds3231</text>
<text text-anchor="middle" x="834.5" y="-157.8" font-family="Times,serif" font-size="14.00">1.1.2</text>
</g>
<!-- roo_time_ds3231&#45;&gt;roo_time -->
<g id="edge31" class="edge">
<title>roo_time_ds3231&#45;&gt;roo_time</title>
<path fill="none" stroke="black" d="M806.32,-149.96C791.52,-140.48 773.21,-128.75 757.3,-118.57"/>
<polygon fill="black" stroke="black" points="759.06,-115.54 748.75,-113.09 755.28,-121.43 759.06,-115.54"/>
</g>
<!-- roo_transceivers&#45;&gt;roo_prefs -->
<g id="edge32" class="edge">
<title>roo_transceivers&#45;&gt;roo_prefs</title>
<path fill="none" stroke="black" d="M685.94,-524.96C677.8,-516.09 667.86,-505.26 658.96,-495.56"/>
<polygon fill="black" stroke="black" points="661.44,-493.09 652.1,-488.09 656.29,-497.82 661.44,-493.09"/>
</g>
<!-- roo_transport -->
<g id="node26" class="node">
<title>roo_transport</title>
<polygon fill="#b1dbab" stroke="black" points="559,-413 470,-413 470,-375 559,-375 559,-413"/>
<text text-anchor="middle" x="514.5" y="-397.8" font-family="Times,serif" font-size="14.00">roo_transport</text>
<text text-anchor="middle" x="514.5" y="-382.8" font-family="Times,serif" font-size="14.00">1.0.1</text>
</g>
<!-- roo_transport&#45;&gt;roo_collections -->
<g id="edge33" class="edge">
<title>roo_transport&#45;&gt;roo_collections</title>
<path fill="none" stroke="black" d="M491.02,-374.96C479.03,-365.74 464.27,-354.4 451.28,-344.42"/>
<polygon fill="black" stroke="black" points="453.1,-341.41 443.04,-338.09 448.84,-346.96 453.1,-341.41"/>
</g>
<!-- roo_transport&#45;&gt;roo_io -->
<g id="edge34" class="edge">
<title>roo_transport&#45;&gt;roo_io</title>
<path fill="none" stroke="black" d="M514.5,-374.96C514.5,-366.88 514.5,-357.18 514.5,-348.18"/>
<polygon fill="black" stroke="black" points="518,-348.09 514.5,-338.09 511,-348.09 518,-348.09"/>
</g>
<!-- roo_wifi -->
<g id="node27" class="node">
<title>roo_wifi</title>
<polygon fill="#b1dbab" stroke="black" points="631,-563 568,-563 568,-525 631,-525 631,-563"/>
<text text-anchor="middle" x="599.5" y="-547.8" font-family="Times,serif" font-size="14.00">roo_wifi</text>
<text text-anchor="middle" x="599.5" y="-532.8" font-family="Times,serif" font-size="14.00">1.1.1</text>
</g>
<!-- roo_wifi&#45;&gt;roo_prefs -->
<g id="edge35" class="edge">
<title>roo_wifi&#45;&gt;roo_prefs</title>
<path fill="none" stroke="black" d="M608.4,-524.96C612.51,-516.62 617.48,-506.54 622.03,-497.3"/>
<polygon fill="black" stroke="black" points="625.29,-498.61 626.58,-488.09 619.02,-495.51 625.29,-498.61"/>
</g>
<!-- roo_windows&#45;&gt;roo_icons -->
<g id="edge37" class="edge">
<title>roo_windows&#45;&gt;roo_icons</title>
<path fill="none" stroke="black" d="M253.87,-524.96C259.23,-516.44 265.74,-506.12 271.66,-496.72"/>
<polygon fill="black" stroke="black" points="274.73,-498.42 277.1,-488.09 268.81,-494.68 274.73,-498.42"/>
</g>
<!-- roo_windows&#45;&gt;roo_locale -->
<g id="edge36" class="edge">
<title>roo_windows&#45;&gt;roo_locale</title>
<path fill="none" stroke="black" d="M231.62,-524.96C226.49,-516.44 220.27,-506.12 214.61,-496.72"/>
<polygon fill="black" stroke="black" points="217.56,-494.85 209.4,-488.09 211.57,-498.46 217.56,-494.85"/>
</g>
<!-- roo_windows&#45;&gt;roo_scheduler -->
<g id="edge38" class="edge">
<title>roo_windows&#45;&gt;roo_scheduler</title>
<path fill="none" stroke="black" d="M287.67,-528.4C371.83,-501.21 552.39,-442.86 644.29,-413.16"/>
<polygon fill="black" stroke="black" points="645.53,-416.44 653.97,-410.04 643.38,-409.78 645.53,-416.44"/>
</g>
<!-- roo_windows_transceivers -->
<g id="node29" class="node">
<title>roo_windows_transceivers</title>
<polygon fill="plum" stroke="black" points="438,-659 277,-659 277,-621 438,-621 438,-659"/>
<text text-anchor="middle" x="357.5" y="-643.8" font-family="Times,serif" font-size="14.00">roo_windows_transceivers</text>
<text text-anchor="middle" x="357.5" y="-628.8" font-family="Times,serif" font-size="14.00">1.0.0</text>
</g>
<!-- roo_windows_transceivers&#45;&gt;roo_testing -->
<g id="edge39" class="edge">
<title>roo_windows_transceivers&#45;&gt;roo_testing</title>
<path fill="none" stroke="red" d="M360.59,-620.91C365.74,-584.46 371.97,-501.27 332.5,-450 306.12,-415.73 272.1,-444.53 242.5,-413 224.51,-393.84 223.5,-383.28 223.5,-357 223.5,-357 223.5,-357 223.5,-93 223.5,-75.78 214.31,-59.22 204.24,-46.24"/>
<polygon fill="red" stroke="red" points="206.68,-43.69 197.58,-38.25 201.3,-48.17 206.68,-43.69"/>
<text text-anchor="middle" x="250.5" y="-322" font-family="Times,serif" font-size="10.00" fill="red">1.1.4</text>
<text text-anchor="middle" x="250.5" y="-311" font-family="Times,serif" font-size="10.00" fill="red">(latest: 1.1.7)</text>
</g>
<!-- roo_windows_transceivers&#45;&gt;roo_transceivers -->
<g id="edge40" class="edge">
<title>roo_windows_transceivers&#45;&gt;roo_transceivers</title>
<path fill="none" stroke="red" d="M426.54,-620.95C481.56,-606.44 560.83,-585.3 639.35,-563.3"/>
<polygon fill="red" stroke="red" points="640.74,-566.55 649.42,-560.48 638.84,-559.81 640.74,-566.55"/>
<text text-anchor="middle" x="597.5" y="-595" font-family="Times,serif" font-size="10.00" fill="red">1.1.1</text>
<text text-anchor="middle" x="597.5" y="-584" font-family="Times,serif" font-size="10.00" fill="red">(latest: 1.1.2)</text>
</g>
<!-- roo_windows_transceivers&#45;&gt;roo_windows -->
<g id="edge41" class="edge">
<title>roo_windows_transceivers&#45;&gt;roo_windows</title>
<path fill="none" stroke="red" d="M311.08,-620.86C301.4,-615.9 291.67,-609.94 283.5,-603 273.22,-594.27 264.24,-582.41 257.33,-571.69"/>
<polygon fill="red" stroke="red" points="260.24,-569.74 252.02,-563.05 254.27,-573.4 260.24,-569.74"/>
<text text-anchor="middle" x="310.5" y="-595" font-family="Times,serif" font-size="10.00" fill="red">1.4.0</text>
<text text-anchor="middle" x="310.5" y="-584" font-family="Times,serif" font-size="10.00" fill="red">(latest: 1.4.1)</text>
</g>
<!-- roo_windows_wifi -->
<g id="node30" class="node">
<title>roo_windows_wifi</title>
<polygon fill="khaki" stroke="black" points="259,-659 140,-659 140,-621 259,-621 259,-659"/>
<text text-anchor="middle" x="199.5" y="-643.8" font-family="Times,serif" font-size="14.00">roo_windows_wifi</text>
<text text-anchor="middle" x="199.5" y="-628.8" font-family="Times,serif" font-size="14.00">1.1.1</text>
</g>
<!-- roo_windows_wifi&#45;&gt;roo_testing -->
<g id="edge42" class="edge">
<title>roo_windows_wifi&#45;&gt;roo_testing</title>
<path fill="none" stroke="red" d="M176.42,-620.75C157.38,-603.49 133.5,-575.71 133.5,-545 133.5,-545 133.5,-545 133.5,-93 133.5,-75.78 142.69,-59.22 152.76,-46.24"/>
<polygon fill="red" stroke="red" points="155.7,-48.17 159.42,-38.25 150.32,-43.69 155.7,-48.17"/>
<text text-anchor="middle" x="160.5" y="-322" font-family="Times,serif" font-size="10.00" fill="red">1.1.4</text>
<text text-anchor="middle" x="160.5" y="-311" font-family="Times,serif" font-size="10.00" fill="red">(latest: 1.1.7)</text>
</g>
<!-- roo_windows_wifi&#45;&gt;roo_wifi -->
<g id="edge43" class="edge">
<title>roo_windows_wifi&#45;&gt;roo_wifi</title>
<path fill="none" stroke="red" d="M259.17,-623.08C261.99,-622.37 264.77,-621.67 267.5,-621 371.64,-595.31 494.89,-567.86 557.88,-554.05"/>
<polygon fill="red" stroke="red" points="558.81,-557.43 567.83,-551.88 557.31,-550.6 558.81,-557.43"/>
<text text-anchor="middle" x="458.5" y="-595" font-family="Times,serif" font-size="10.00" fill="red">1.1.0</text>
<text text-anchor="middle" x="458.5" y="-584" font-family="Times,serif" font-size="10.00" fill="red">(latest: 1.1.1)</text>
</g>
<!-- roo_windows_wifi&#45;&gt;roo_windows -->
<g id="edge44" class="edge">
<title>roo_windows_wifi&#45;&gt;roo_windows</title>
<path fill="none" stroke="red" d="M198.26,-620.88C198.18,-608.99 199.5,-593.39 205.5,-581 207.25,-577.38 209.53,-573.93 212.08,-570.69"/>
<polygon fill="red" stroke="red" points="214.81,-572.89 218.9,-563.12 209.61,-568.21 214.81,-572.89"/>
<text text-anchor="middle" x="232.5" y="-595" font-family="Times,serif" font-size="10.00" fill="red">1.4.0</text>
<text text-anchor="middle" x="232.5" y="-584" font-family="Times,serif" font-size="10.00" fill="red">(latest: 1.4.1)</text>
</g>
</g>
</svg>
