<?xml version="1.0" encoding="UTF-8" standalone="no"?>
<!DOCTYPE svg PUBLIC "-//W3C//DTD SVG 1.1//EN"
 "http://www.w3.org/Graphics/SVG/1.1/DTD/svg11.dtd">
<!-- Generated by graphviz version 2.42.4 (0)
 -->
<!-- Title: dependencies Pages: 1 -->
<svg width="1394pt" height="793pt"
 viewBox="0.00 0.00 1393.50 793.00" xmlns="http://www.w3.org/2000/svg" xmlns:xlink="http://www.w3.org/1999/xlink">
<g id="graph0" class="graph" transform="scale(1 1) rotate(0) translate(4 789)">
<title>dependencies</title>
<polygon fill="white" stroke="transparent" points="-4,4 -4,-789 1389.5,-789 1389.5,4 -4,4"/>
<!-- roo_backport -->
<g id="node1" class="node">
<title>roo_backport</title>
<polygon fill="#b1dbab" stroke="black" points="863.5,-134 774.5,-134 774.5,-96 863.5,-96 863.5,-134"/>
<text text-anchor="middle" x="819" y="-118.8" font-family="Times,serif" font-size="14.00">roo_backport</text>
<text text-anchor="middle" x="819" y="-103.8" font-family="Times,serif" font-size="14.00">1.1.0</text>
</g>
<!-- roo_blink -->
<g id="node2" class="node">
<title>roo_blink</title>
<polygon fill="khaki" stroke="black" points="497.5,-422 428.5,-422 428.5,-384 497.5,-384 497.5,-422"/>
<text text-anchor="middle" x="463" y="-406.8" font-family="Times,serif" font-size="14.00">roo_blink</text>
<text text-anchor="middle" x="463" y="-391.8" font-family="Times,serif" font-size="14.00">1.0.0</text>
</g>
<!-- roo_logging -->
<g id="node15" class="node">
<title>roo_logging</title>
<polygon fill="#b1dbab" stroke="black" points="470.5,-326 387.5,-326 387.5,-288 470.5,-288 470.5,-326"/>
<text text-anchor="middle" x="429" y="-310.8" font-family="Times,serif" font-size="14.00">roo_logging</text>
<text text-anchor="middle" x="429" y="-295.8" font-family="Times,serif" font-size="14.00">1.4.0</text>
</g>
<!-- roo_blink&#45;&gt;roo_logging -->
<g id="edge2" class="edge">
<title>roo_blink&#45;&gt;roo_logging</title>
<path fill="none" stroke="red" d="M445.02,-383.93C440.69,-378.57 436.57,-372.4 434,-366 430.26,-356.7 428.67,-345.91 428.12,-336.17"/>
<polygon fill="red" stroke="red" points="431.62,-336.05 427.89,-326.14 424.62,-336.22 431.62,-336.05"/>
<text text-anchor="middle" x="461" y="-358" font-family="Times,serif" font-size="10.00" fill="red">1.2.0</text>
<text text-anchor="middle" x="461" y="-347" font-family="Times,serif" font-size="10.00" fill="red">(latest: 1.4.0)</text>
</g>
<!-- roo_scheduler -->
<g id="node19" class="node">
<title>roo_scheduler</title>
<polygon fill="khaki" stroke="black" points="725.5,-326 632.5,-326 632.5,-288 725.5,-288 725.5,-326"/>
<text text-anchor="middle" x="679" y="-310.8" font-family="Times,serif" font-size="14.00">roo_scheduler</text>
<text text-anchor="middle" x="679" y="-295.8" font-family="Times,serif" font-size="14.00">2.1.3</text>
</g>
<!-- roo_blink&#45;&gt;roo_scheduler -->
<g id="edge3" class="edge">
<title>roo_blink&#45;&gt;roo_scheduler</title>
<path fill="none" stroke="red" d="M497.64,-390.66C517.07,-384.02 541.63,-375.15 563,-366 587.81,-355.37 614.82,-341.98 636.53,-330.74"/>
<polygon fill="red" stroke="red" points="638.24,-333.8 645.49,-326.07 635,-327.59 638.24,-333.8"/>
<text text-anchor="middle" x="636" y="-358" font-family="Times,serif" font-size="10.00" fill="red">2.1.1</text>
<text text-anchor="middle" x="636" y="-347" font-family="Times,serif" font-size="10.00" fill="red">(latest: 2.1.3)</text>
</g>
<!-- roo_testing -->
<g id="node20" class="node">
<title>roo_testing</title>
<polygon fill="#b1dbab" stroke="black" points="471.5,-38 394.5,-38 394.5,0 471.5,0 471.5,-38"/>
<text text-anchor="middle" x="433" y="-22.8" font-family="Times,serif" font-size="14.00">roo_testing</text>
<text text-anchor="middle" x="433" y="-7.8" font-family="Times,serif" font-size="14.00">1.1.4</text>
</g>
<!-- roo_blink&#45;&gt;roo_testing -->
<g id="edge1" class="edge">
<title>roo_blink&#45;&gt;roo_testing</title>
<path fill="none" stroke="red" d="M480.66,-383.8C485,-378.44 489.19,-372.3 492,-366 540.96,-256.15 544.98,-211.07 510,-96 504.16,-76.79 502.56,-70.81 489,-56 485.05,-51.69 480.47,-47.67 475.67,-44"/>
<polygon fill="red" stroke="red" points="477.63,-41.1 467.45,-38.17 473.58,-46.81 477.63,-41.1"/>
<text text-anchor="middle" x="561" y="-214" font-family="Times,serif" font-size="10.00" fill="red">1.1.2</text>
<text text-anchor="middle" x="561" y="-203" font-family="Times,serif" font-size="10.00" fill="red">(latest: 1.1.4)</text>
</g>
<!-- roo_threads -->
<g id="node21" class="node">
<title>roo_threads</title>
<polygon fill="khaki" stroke="black" points="358,-230 278,-230 278,-192 358,-192 358,-230"/>
<text text-anchor="middle" x="318" y="-214.8" font-family="Times,serif" font-size="14.00">roo_threads</text>
<text text-anchor="middle" x="318" y="-199.8" font-family="Times,serif" font-size="14.00">1.1.3</text>
</g>
<!-- roo_blink&#45;&gt;roo_threads -->
<g id="edge4" class="edge">
<title>roo_blink&#45;&gt;roo_threads</title>
<path fill="none" stroke="red" d="M428.27,-394.3C387.33,-385.06 324.4,-370.28 321,-366 306.11,-347.24 310.59,-279.31 314.62,-240.23"/>
<polygon fill="red" stroke="red" points="318.13,-240.35 315.73,-230.03 311.17,-239.59 318.13,-240.35"/>
<text text-anchor="middle" x="339" y="-310" font-family="Times,serif" font-size="10.00" fill="red">1.1.2</text>
<text text-anchor="middle" x="339" y="-299" font-family="Times,serif" font-size="10.00" fill="red">(latest: 1.1.3)</text>
</g>
<!-- roo_time -->
<g id="node22" class="node">
<title>roo_time</title>
<polygon fill="#b1dbab" stroke="black" points="307,-134 241,-134 241,-96 307,-96 307,-134"/>
<text text-anchor="middle" x="274" y="-118.8" font-family="Times,serif" font-size="14.00">roo_time</text>
<text text-anchor="middle" x="274" y="-103.8" font-family="Times,serif" font-size="14.00">1.3.0</text>
</g>
<!-- roo_blink&#45;&gt;roo_time -->
<g id="edge5" class="edge">
<title>roo_blink&#45;&gt;roo_time</title>
<path fill="none" stroke="red" d="M428.22,-394.18C383.82,-384.14 312.41,-367.79 310,-366 270.58,-336.6 267.65,-317.52 255,-270 243.55,-226.97 254.81,-175.29 264.22,-144.08"/>
<polygon fill="red" stroke="red" points="267.63,-144.92 267.31,-134.33 260.96,-142.8 267.63,-144.92"/>
<text text-anchor="middle" x="282" y="-262" font-family="Times,serif" font-size="10.00" fill="red">1.2.1</text>
<text text-anchor="middle" x="282" y="-251" font-family="Times,serif" font-size="10.00" fill="red">(latest: 1.3.0)</text>
</g>
<!-- roo_collections -->
<g id="node3" class="node">
<title>roo_collections</title>
<polygon fill="khaki" stroke="black" points="934,-230 834,-230 834,-192 934,-192 934,-230"/>
<text text-anchor="middle" x="884" y="-214.8" font-family="Times,serif" font-size="14.00">roo_collections</text>
<text text-anchor="middle" x="884" y="-199.8" font-family="Times,serif" font-size="14.00">1.3.1</text>
</g>
<!-- roo_collections&#45;&gt;roo_backport -->
<g id="edge6" class="edge">
<title>roo_collections&#45;&gt;roo_backport</title>
<path fill="none" stroke="black" d="M871.47,-191.88C861.76,-177.83 848.16,-158.17 837.24,-142.38"/>
<polygon fill="black" stroke="black" points="840.06,-140.3 831.49,-134.07 834.3,-144.28 840.06,-140.3"/>
</g>
<!-- roo_comms -->
<g id="node4" class="node">
<title>roo_comms</title>
<polygon fill="khaki" stroke="black" points="542,-593 460,-593 460,-555 542,-555 542,-593"/>
<text text-anchor="middle" x="501" y="-577.8" font-family="Times,serif" font-size="14.00">roo_comms</text>
<text text-anchor="middle" x="501" y="-562.8" font-family="Times,serif" font-size="14.00">1.0.0</text>
</g>
<!-- roo_comms&#45;&gt;roo_blink -->
<g id="edge7" class="edge">
<title>roo_comms&#45;&gt;roo_blink</title>
<path fill="none" stroke="black" d="M492.43,-554.79C487.8,-544.26 482.36,-530.62 479,-518 471.37,-489.32 467.21,-455.56 465.06,-432.26"/>
<polygon fill="black" stroke="black" points="468.52,-431.7 464.18,-422.04 461.55,-432.3 468.52,-431.7"/>
</g>
<!-- roo_control -->
<g id="node5" class="node">
<title>roo_control</title>
<polygon fill="#b1dbab" stroke="black" points="427,-518 347,-518 347,-480 427,-480 427,-518"/>
<text text-anchor="middle" x="387" y="-502.8" font-family="Times,serif" font-size="14.00">roo_control</text>
<text text-anchor="middle" x="387" y="-487.8" font-family="Times,serif" font-size="14.00">1.2.0</text>
</g>
<!-- roo_comms&#45;&gt;roo_control -->
<g id="edge8" class="edge">
<title>roo_comms&#45;&gt;roo_control</title>
<path fill="none" stroke="black" d="M469.95,-554.85C460.57,-549.25 450.3,-542.97 441,-537 434.56,-532.86 427.76,-528.34 421.25,-523.92"/>
<polygon fill="black" stroke="black" points="422.84,-520.77 412.61,-518.01 418.88,-526.55 422.84,-520.77"/>
</g>
<!-- roo_io -->
<g id="node10" class="node">
<title>roo_io</title>
<polygon fill="#b1dbab" stroke="black" points="813,-422 759,-422 759,-384 813,-384 813,-422"/>
<text text-anchor="middle" x="786" y="-406.8" font-family="Times,serif" font-size="14.00">roo_io</text>
<text text-anchor="middle" x="786" y="-391.8" font-family="Times,serif" font-size="14.00">2.0.1</text>
</g>
<!-- roo_comms&#45;&gt;roo_io -->
<g id="edge9" class="edge">
<title>roo_comms&#45;&gt;roo_io</title>
<path fill="none" stroke="black" d="M542.15,-571.85C617.47,-568.78 772.83,-557.68 806,-518 816.83,-505.04 808.17,-496.75 806,-480 805.37,-475.1 799.05,-451.44 793.69,-431.8"/>
<polygon fill="black" stroke="black" points="797.02,-430.74 791,-422.02 790.27,-432.59 797.02,-430.74"/>
</g>
<!-- roo_prefs -->
<g id="node17" class="node">
<title>roo_prefs</title>
<polygon fill="#b1dbab" stroke="black" points="698,-422 630,-422 630,-384 698,-384 698,-422"/>
<text text-anchor="middle" x="664" y="-406.8" font-family="Times,serif" font-size="14.00">roo_prefs</text>
<text text-anchor="middle" x="664" y="-391.8" font-family="Times,serif" font-size="14.00">1.2.1</text>
</g>
<!-- roo_comms&#45;&gt;roo_prefs -->
<g id="edge10" class="edge">
<title>roo_comms&#45;&gt;roo_prefs</title>
<path fill="none" stroke="red" d="M497.88,-554.81C495.46,-534.68 494.7,-502.16 510,-480 516.91,-470 577.48,-441.91 620.56,-422.83"/>
<polygon fill="red" stroke="red" points="621.99,-426.02 629.73,-418.79 619.17,-419.62 621.99,-426.02"/>
<text text-anchor="middle" x="537" y="-502" font-family="Times,serif" font-size="10.00" fill="red">1.2.0</text>
<text text-anchor="middle" x="537" y="-491" font-family="Times,serif" font-size="10.00" fill="red">(latest: 1.2.1)</text>
</g>
<!-- roo_transceivers -->
<g id="node24" class="node">
<title>roo_transceivers</title>
<polygon fill="#b1dbab" stroke="black" points="679,-518 573,-518 573,-480 679,-480 679,-518"/>
<text text-anchor="middle" x="626" y="-502.8" font-family="Times,serif" font-size="14.00">roo_transceivers</text>
<text text-anchor="middle" x="626" y="-487.8" font-family="Times,serif" font-size="14.00">1.1.1</text>
</g>
<!-- roo_comms&#45;&gt;roo_transceivers -->
<g id="edge11" class="edge">
<title>roo_comms&#45;&gt;roo_transceivers</title>
<path fill="none" stroke="black" d="M531.9,-554.96C548.28,-545.39 568.58,-533.53 586.13,-523.28"/>
<polygon fill="black" stroke="black" points="588.15,-526.16 595.02,-518.09 584.62,-520.11 588.15,-526.16"/>
</g>
<!-- roo_control&#45;&gt;roo_logging -->
<g id="edge12" class="edge">
<title>roo_control&#45;&gt;roo_logging</title>
<path fill="none" stroke="black" d="M391.03,-479.78C398.4,-446.44 414.09,-375.43 422.82,-335.94"/>
<polygon fill="black" stroke="black" points="426.24,-336.68 424.99,-326.16 419.41,-335.17 426.24,-336.68"/>
</g>
<!-- roo_quantity -->
<g id="node18" class="node">
<title>roo_quantity</title>
<polygon fill="#b1dbab" stroke="black" points="372,-422 286,-422 286,-384 372,-384 372,-422"/>
<text text-anchor="middle" x="329" y="-406.8" font-family="Times,serif" font-size="14.00">roo_quantity</text>
<text text-anchor="middle" x="329" y="-391.8" font-family="Times,serif" font-size="14.00">1.1.1</text>
</g>
<!-- roo_control&#45;&gt;roo_quantity -->
<g id="edge13" class="edge">
<title>roo_control&#45;&gt;roo_quantity</title>
<path fill="none" stroke="black" d="M375.82,-479.88C367.23,-465.96 355.24,-446.53 345.55,-430.82"/>
<polygon fill="black" stroke="black" points="348.38,-428.74 340.15,-422.07 342.42,-432.42 348.38,-428.74"/>
</g>
<!-- roo_control&#45;&gt;roo_scheduler -->
<g id="edge14" class="edge">
<title>roo_control&#45;&gt;roo_scheduler</title>
<path fill="none" stroke="black" d="M427.05,-482.47C481.03,-461.47 571.22,-426.17 578,-422 599.73,-408.64 598.49,-395.99 621,-384 648.97,-369.1 670.62,-391.08 690,-366 696.6,-357.46 695.91,-346.12 692.8,-335.74"/>
<polygon fill="black" stroke="black" points="696.02,-334.36 689.25,-326.21 689.46,-336.8 696.02,-334.36"/>
</g>
<!-- roo_dashboard -->
<g id="node6" class="node">
<title>roo_dashboard</title>
<polygon fill="#b1dbab" stroke="black" points="1012.5,-785 915.5,-785 915.5,-747 1012.5,-747 1012.5,-785"/>
<text text-anchor="middle" x="964" y="-769.8" font-family="Times,serif" font-size="14.00">roo_dashboard</text>
<text text-anchor="middle" x="964" y="-754.8" font-family="Times,serif" font-size="14.00">1.0.0</text>
</g>
<!-- roo_windows -->
<g id="node27" class="node">
<title>roo_windows</title>
<polygon fill="#b1dbab" stroke="black" points="1007,-689 917,-689 917,-651 1007,-651 1007,-689"/>
<text text-anchor="middle" x="962" y="-673.8" font-family="Times,serif" font-size="14.00">roo_windows</text>
<text text-anchor="middle" x="962" y="-658.8" font-family="Times,serif" font-size="14.00">1.4.0</text>
</g>
<!-- roo_dashboard&#45;&gt;roo_windows -->
<g id="edge15" class="edge">
<title>roo_dashboard&#45;&gt;roo_windows</title>
<path fill="none" stroke="black" d="M963.61,-746.88C963.33,-733.35 962.93,-714.62 962.6,-699.15"/>
<polygon fill="black" stroke="black" points="966.1,-698.99 962.38,-689.07 959.1,-699.14 966.1,-698.99"/>
</g>
<!-- roo_display -->
<g id="node7" class="node">
<title>roo_display</title>
<polygon fill="khaki" stroke="black" points="933,-518 853,-518 853,-480 933,-480 933,-518"/>
<text text-anchor="middle" x="893" y="-502.8" font-family="Times,serif" font-size="14.00">roo_display</text>
<text text-anchor="middle" x="893" y="-487.8" font-family="Times,serif" font-size="14.00">2.2.2</text>
</g>
<!-- roo_display&#45;&gt;roo_collections -->
<g id="edge16" class="edge">
<title>roo_display&#45;&gt;roo_collections</title>
<path fill="none" stroke="black" d="M911.65,-479.69C915.86,-474.42 919.76,-468.36 922,-462 925.25,-452.78 922.81,-449.74 922,-440 915.99,-367.37 899.38,-283.04 890.24,-240.17"/>
<polygon fill="black" stroke="black" points="893.62,-239.23 888.09,-230.19 886.77,-240.71 893.62,-239.23"/>
</g>
<!-- roo_display&#45;&gt;roo_io -->
<g id="edge17" class="edge">
<title>roo_display&#45;&gt;roo_io</title>
<path fill="none" stroke="black" d="M852.88,-481.93C842.44,-476.58 831.69,-469.92 823,-462 813.51,-453.35 805.46,-441.74 799.32,-431.18"/>
<polygon fill="black" stroke="black" points="802.31,-429.34 794.43,-422.26 796.18,-432.71 802.31,-429.34"/>
</g>
<!-- roo_flags -->
<g id="node8" class="node">
<title>roo_flags</title>
<polygon fill="#b1dbab" stroke="black" points="222,-230 154,-230 154,-192 222,-192 222,-230"/>
<text text-anchor="middle" x="188" y="-214.8" font-family="Times,serif" font-size="14.00">roo_flags</text>
<text text-anchor="middle" x="188" y="-199.8" font-family="Times,serif" font-size="14.00">1.1.0</text>
</g>
<!-- roo_icons -->
<g id="node9" class="node">
<title>roo_icons</title>
<polygon fill="#b1dbab" stroke="black" points="933,-593 863,-593 863,-555 933,-555 933,-593"/>
<text text-anchor="middle" x="898" y="-577.8" font-family="Times,serif" font-size="14.00">roo_icons</text>
<text text-anchor="middle" x="898" y="-562.8" font-family="Times,serif" font-size="14.00">1.2.0</text>
</g>
<!-- roo_icons&#45;&gt;roo_display -->
<g id="edge18" class="edge">
<title>roo_icons&#45;&gt;roo_display</title>
<path fill="none" stroke="black" d="M896.76,-554.96C896.21,-546.88 895.55,-537.18 894.93,-528.18"/>
<polygon fill="black" stroke="black" points="898.41,-527.83 894.24,-518.09 891.43,-528.31 898.41,-527.83"/>
</g>
<!-- roo_io&#45;&gt;roo_backport -->
<g id="edge19" class="edge">
<title>roo_io&#45;&gt;roo_backport</title>
<path fill="none" stroke="black" d="M785.36,-383.9C784.59,-355.04 784.05,-296.85 790,-248 794.43,-211.61 804.26,-170.46 811.24,-143.93"/>
<polygon fill="black" stroke="black" points="814.65,-144.74 813.85,-134.18 807.88,-142.93 814.65,-144.74"/>
</g>
<!-- roo_io&#45;&gt;roo_logging -->
<g id="edge20" class="edge">
<title>roo_io&#45;&gt;roo_logging</title>
<path fill="none" stroke="black" d="M758.88,-389.23C730,-376.12 682.67,-355.97 640,-344 586.67,-329.04 523.91,-319.29 480.79,-313.76"/>
<polygon fill="black" stroke="black" points="481.16,-310.28 470.81,-312.52 480.29,-317.23 481.16,-310.28"/>
</g>
<!-- roo_io_arduino -->
<g id="node11" class="node">
<title>roo_io_arduino</title>
<polygon fill="#b1dbab" stroke="black" points="797,-518 697,-518 697,-480 797,-480 797,-518"/>
<text text-anchor="middle" x="747" y="-502.8" font-family="Times,serif" font-size="14.00">roo_io_arduino</text>
<text text-anchor="middle" x="747" y="-487.8" font-family="Times,serif" font-size="14.00">1.2.4</text>
</g>
<!-- roo_io_arduino&#45;&gt;roo_io -->
<g id="edge21" class="edge">
<title>roo_io_arduino&#45;&gt;roo_io</title>
<path fill="none" stroke="black" d="M753.96,-479.9C758.43,-468.42 764.42,-453.28 770,-440 771.14,-437.28 772.35,-434.46 773.58,-431.64"/>
<polygon fill="black" stroke="black" points="776.89,-432.81 777.72,-422.25 770.48,-429.99 776.89,-432.81"/>
</g>
<!-- roo_io_espressif -->
<g id="node12" class="node">
<title>roo_io_espressif</title>
<polygon fill="plum" stroke="black" points="1282,-785 1176,-785 1176,-747 1282,-747 1282,-785"/>
<text text-anchor="middle" x="1229" y="-769.8" font-family="Times,serif" font-size="14.00">roo_io_espressif</text>
<text text-anchor="middle" x="1229" y="-754.8" font-family="Times,serif" font-size="14.00">1.0.0</text>
</g>
<!-- roo_io_sdfat -->
<g id="node13" class="node">
<title>roo_io_sdfat</title>
<polygon fill="plum" stroke="black" points="1385.5,-785 1300.5,-785 1300.5,-747 1385.5,-747 1385.5,-785"/>
<text text-anchor="middle" x="1343" y="-769.8" font-family="Times,serif" font-size="14.00">roo_io_sdfat</text>
<text text-anchor="middle" x="1343" y="-754.8" font-family="Times,serif" font-size="14.00">1.0.0</text>
</g>
<!-- roo_locale -->
<g id="node14" class="node">
<title>roo_locale</title>
<polygon fill="#b1dbab" stroke="black" points="1063,-593 989,-593 989,-555 1063,-555 1063,-593"/>
<text text-anchor="middle" x="1026" y="-577.8" font-family="Times,serif" font-size="14.00">roo_locale</text>
<text text-anchor="middle" x="1026" y="-562.8" font-family="Times,serif" font-size="14.00">1.1.0</text>
</g>
<!-- roo_logging&#45;&gt;roo_flags -->
<g id="edge23" class="edge">
<title>roo_logging&#45;&gt;roo_flags</title>
<path fill="none" stroke="black" d="M387.22,-292.72C380.82,-290.97 374.27,-289.32 368,-288 307.05,-275.14 282.36,-302.14 229,-270 216.91,-262.72 207.44,-250.36 200.66,-238.92"/>
<polygon fill="black" stroke="black" points="203.68,-237.14 195.8,-230.05 197.54,-240.5 203.68,-237.14"/>
</g>
<!-- roo_logging&#45;&gt;roo_testing -->
<g id="edge22" class="edge">
<title>roo_logging&#45;&gt;roo_testing</title>
<path fill="none" stroke="black" d="M452.44,-287.89C468.37,-274.01 488.09,-253.32 497,-230 505.64,-207.38 503.82,-130.36 491,-96 484.02,-77.28 470.78,-59.36 458.71,-45.63"/>
<polygon fill="black" stroke="black" points="461.12,-43.08 451.79,-38.05 455.95,-47.8 461.12,-43.08"/>
</g>
<!-- roo_logging&#45;&gt;roo_threads -->
<g id="edge24" class="edge">
<title>roo_logging&#45;&gt;roo_threads</title>
<path fill="none" stroke="black" d="M407.6,-287.88C390.4,-273.31 366.07,-252.71 347.1,-236.64"/>
<polygon fill="black" stroke="black" points="349.23,-233.86 339.34,-230.07 344.71,-239.2 349.23,-233.86"/>
</g>
<!-- roo_onewire -->
<g id="node16" class="node">
<title>roo_onewire</title>
<polygon fill="#b1dbab" stroke="black" points="292.5,-518 207.5,-518 207.5,-480 292.5,-480 292.5,-518"/>
<text text-anchor="middle" x="250" y="-502.8" font-family="Times,serif" font-size="14.00">roo_onewire</text>
<text text-anchor="middle" x="250" y="-487.8" font-family="Times,serif" font-size="14.00">2.0.3</text>
</g>
<!-- roo_onewire&#45;&gt;roo_logging -->
<g id="edge26" class="edge">
<title>roo_onewire&#45;&gt;roo_logging</title>
<path fill="none" stroke="red" d="M237.64,-479.86C223.05,-455.97 203.15,-413.54 223,-384 249.24,-344.95 276.88,-360.34 321,-344 339.38,-337.2 359.72,-330.26 377.74,-324.32"/>
<polygon fill="red" stroke="red" points="379.08,-327.57 387.49,-321.13 376.9,-320.91 379.08,-327.57"/>
<text text-anchor="middle" x="250" y="-406" font-family="Times,serif" font-size="10.00" fill="red">1.3.0</text>
<text text-anchor="middle" x="250" y="-395" font-family="Times,serif" font-size="10.00" fill="red">(latest: 1.4.0)</text>
</g>
<!-- roo_onewire&#45;&gt;roo_quantity -->
<g id="edge28" class="edge">
<title>roo_onewire&#45;&gt;roo_quantity</title>
<path fill="none" stroke="black" d="M265.23,-479.88C277.14,-465.7 293.87,-445.81 307.2,-429.94"/>
<polygon fill="black" stroke="black" points="310.06,-431.98 313.81,-422.07 304.7,-427.47 310.06,-431.98"/>
</g>
<!-- roo_onewire&#45;&gt;roo_scheduler -->
<g id="edge27" class="edge">
<title>roo_onewire&#45;&gt;roo_scheduler</title>
<path fill="none" stroke="black" d="M292.55,-488.11C344.07,-475.5 433.02,-451.75 506,-422 539.51,-408.34 543.95,-396.23 578,-384 615.16,-370.65 636.62,-393.46 665,-366 672.93,-358.33 676.68,-347 678.36,-336.39"/>
<polygon fill="black" stroke="black" points="681.87,-336.49 679.43,-326.18 674.91,-335.76 681.87,-336.49"/>
</g>
<!-- roo_onewire&#45;&gt;roo_testing -->
<g id="edge25" class="edge">
<title>roo_onewire&#45;&gt;roo_testing</title>
<path fill="none" stroke="red" d="M207.17,-492.77C157.4,-484.03 82,-461.32 82,-404 82,-404 82,-404 82,-114 82,-52.14 287.97,-29.9 384.35,-22.87"/>
<polygon fill="red" stroke="red" points="384.7,-26.35 394.43,-22.16 384.21,-19.37 384.7,-26.35"/>
<text text-anchor="middle" x="109" y="-262" font-family="Times,serif" font-size="10.00" fill="red">1.1.3</text>
<text text-anchor="middle" x="109" y="-251" font-family="Times,serif" font-size="10.00" fill="red">(latest: 1.1.4)</text>
</g>
<!-- roo_prefs&#45;&gt;roo_logging -->
<g id="edge29" class="edge">
<title>roo_prefs&#45;&gt;roo_logging</title>
<path fill="none" stroke="black" d="M629.58,-391.31C608.9,-384.62 582.19,-375.48 559,-366 538.02,-357.42 533.64,-353.35 513,-344 502.38,-339.19 490.94,-334.17 480.02,-329.47"/>
<polygon fill="black" stroke="black" points="481.16,-326.15 470.59,-325.42 478.4,-332.58 481.16,-326.15"/>
</g>
<!-- roo_prefs&#45;&gt;roo_scheduler -->
<g id="edge30" class="edge">
<title>roo_prefs&#45;&gt;roo_scheduler</title>
<path fill="none" stroke="black" d="M698.04,-384.88C704.86,-379.78 711.11,-373.51 715,-366 719.5,-357.32 718.74,-353.03 715,-344 713.48,-340.34 711.39,-336.85 708.98,-333.6"/>
<polygon fill="black" stroke="black" points="711.62,-331.3 702.44,-326.01 706.31,-335.87 711.62,-331.3"/>
</g>
<!-- roo_quantity&#45;&gt;roo_flags -->
<g id="edge31" class="edge">
<title>roo_quantity&#45;&gt;roo_flags</title>
<path fill="none" stroke="black" d="M285.89,-387.19C263.44,-379.15 239.85,-370.04 236,-366 202.95,-331.34 192.64,-274.28 189.43,-240.2"/>
<polygon fill="black" stroke="black" points="192.9,-239.69 188.62,-230 185.92,-240.25 192.9,-239.69"/>
</g>
<!-- roo_quantity&#45;&gt;roo_logging -->
<g id="edge32" class="edge">
<title>roo_quantity&#45;&gt;roo_logging</title>
<path fill="none" stroke="red" d="M325.11,-383.81C323.53,-371.42 323.7,-355.3 332,-344 335.15,-339.71 356.16,-331.68 377.82,-324.29"/>
<polygon fill="red" stroke="red" points="379.06,-327.57 387.42,-321.07 376.83,-320.93 379.06,-327.57"/>
<text text-anchor="middle" x="359" y="-358" font-family="Times,serif" font-size="10.00" fill="red">1.3.0</text>
<text text-anchor="middle" x="359" y="-347" font-family="Times,serif" font-size="10.00" fill="red">(latest: 1.4.0)</text>
</g>
<!-- roo_quantity&#45;&gt;roo_time -->
<g id="edge33" class="edge">
<title>roo_quantity&#45;&gt;roo_time</title>
<path fill="none" stroke="black" d="M285.89,-385.64C284.24,-385.07 282.61,-384.53 281,-384 252.92,-374.8 240.31,-384.15 217,-366 198.75,-351.79 155.13,-272.13 145,-230 141.05,-213.58 136.62,-206.66 145,-192 163.39,-159.82 201.3,-139.92 231.3,-128.59"/>
<polygon fill="black" stroke="black" points="232.49,-131.88 240.72,-125.21 230.13,-125.29 232.49,-131.88"/>
</g>
<!-- roo_scheduler&#45;&gt;roo_collections -->
<g id="edge35" class="edge">
<title>roo_scheduler&#45;&gt;roo_collections</title>
<path fill="none" stroke="black" d="M712.52,-287.9C735.02,-276.01 765.47,-260.42 793,-248 803.77,-243.14 815.4,-238.27 826.63,-233.75"/>
<polygon fill="black" stroke="black" points="827.95,-236.99 835.95,-230.04 825.36,-230.48 827.95,-236.99"/>
</g>
<!-- roo_scheduler&#45;&gt;roo_testing -->
<g id="edge34" class="edge">
<title>roo_scheduler&#45;&gt;roo_testing</title>
<path fill="none" stroke="red" d="M677.03,-287.68C671.04,-241.4 648.77,-118.97 576,-56 550,-33.5 511.91,-24.7 481.59,-21.42"/>
<polygon fill="red" stroke="red" points="481.91,-17.93 471.63,-20.5 481.27,-24.9 481.91,-17.93"/>
<text text-anchor="middle" x="677" y="-166" font-family="Times,serif" font-size="10.00" fill="red">1.1.3</text>
<text text-anchor="middle" x="677" y="-155" font-family="Times,serif" font-size="10.00" fill="red">(latest: 1.1.4)</text>
</g>
<!-- roo_scheduler&#45;&gt;roo_threads -->
<g id="edge36" class="edge">
<title>roo_scheduler&#45;&gt;roo_threads</title>
<path fill="none" stroke="black" d="M632.3,-296.35C572.88,-283.7 467.04,-259.89 368.11,-230.18"/>
<polygon fill="black" stroke="black" points="368.84,-226.75 358.25,-227.2 366.81,-233.45 368.84,-226.75"/>
</g>
<!-- roo_threads&#45;&gt;roo_testing -->
<g id="edge37" class="edge">
<title>roo_threads&#45;&gt;roo_testing</title>
<path fill="none" stroke="red" d="M325.88,-191.66C336.05,-168.65 354.86,-128.29 375,-96 385.87,-78.58 399.78,-60.24 411.25,-45.95"/>
<polygon fill="red" stroke="red" points="414.09,-48.01 417.68,-38.04 408.66,-43.59 414.09,-48.01"/>
<text text-anchor="middle" x="402" y="-118" font-family="Times,serif" font-size="10.00" fill="red">1.1.3</text>
<text text-anchor="middle" x="402" y="-107" font-family="Times,serif" font-size="10.00" fill="red">(latest: 1.1.4)</text>
</g>
<!-- roo_threads&#45;&gt;roo_time -->
<g id="edge38" class="edge">
<title>roo_threads&#45;&gt;roo_time</title>
<path fill="none" stroke="black" d="M309.52,-191.88C303.06,-178.09 294.08,-158.9 286.76,-143.26"/>
<polygon fill="black" stroke="black" points="289.87,-141.64 282.46,-134.07 283.53,-144.61 289.87,-141.64"/>
</g>
<!-- roo_time&#45;&gt;roo_testing -->
<g id="edge39" class="edge">
<title>roo_time&#45;&gt;roo_testing</title>
<path fill="none" stroke="red" d="M268.96,-95.81C266.65,-83.27 266.11,-66.95 275,-56 288.65,-39.19 343.03,-29.58 384.21,-24.59"/>
<polygon fill="red" stroke="red" points="384.82,-28.04 394.36,-23.42 384.02,-21.08 384.82,-28.04"/>
<text text-anchor="middle" x="302" y="-70" font-family="Times,serif" font-size="10.00" fill="red">1.1.3</text>
<text text-anchor="middle" x="302" y="-59" font-family="Times,serif" font-size="10.00" fill="red">(latest: 1.1.4)</text>
</g>
<!-- roo_time_ds3231 -->
<g id="node23" class="node">
<title>roo_time_ds3231</title>
<polygon fill="#b1dbab" stroke="black" points="488,-230 376,-230 376,-192 488,-192 488,-230"/>
<text text-anchor="middle" x="432" y="-214.8" font-family="Times,serif" font-size="14.00">roo_time_ds3231</text>
<text text-anchor="middle" x="432" y="-199.8" font-family="Times,serif" font-size="14.00">1.1.0</text>
</g>
<!-- roo_time_ds3231&#45;&gt;roo_testing -->
<g id="edge40" class="edge">
<title>roo_time_ds3231&#45;&gt;roo_testing</title>
<path fill="none" stroke="red" d="M432.1,-191.78C432.27,-158.52 432.64,-87.73 432.85,-48.2"/>
<polygon fill="red" stroke="red" points="436.35,-48.18 432.9,-38.16 429.35,-48.14 436.35,-48.18"/>
<text text-anchor="middle" x="460" y="-118" font-family="Times,serif" font-size="10.00" fill="red">1.1.3</text>
<text text-anchor="middle" x="460" y="-107" font-family="Times,serif" font-size="10.00" fill="red">(latest: 1.1.4)</text>
</g>
<!-- roo_time_ds3231&#45;&gt;roo_time -->
<g id="edge41" class="edge">
<title>roo_time_ds3231&#45;&gt;roo_time</title>
<path fill="none" stroke="black" d="M401.54,-191.88C376.4,-176.92 340.56,-155.6 313.27,-139.36"/>
<polygon fill="black" stroke="black" points="314.75,-136.17 304.37,-134.07 311.18,-142.19 314.75,-136.17"/>
</g>
<!-- roo_transceivers&#45;&gt;roo_collections -->
<g id="edge42" class="edge">
<title>roo_transceivers&#45;&gt;roo_collections</title>
<path fill="none" stroke="black" d="M679.15,-480.35C689.14,-475.45 698.95,-469.39 707,-462 736.16,-435.23 728.21,-417.05 750,-384 785.72,-329.81 833.71,-271.05 861.5,-238.15"/>
<polygon fill="black" stroke="black" points="864.31,-240.25 868.11,-230.36 858.97,-235.72 864.31,-240.25"/>
</g>
<!-- roo_transceivers&#45;&gt;roo_logging -->
<g id="edge43" class="edge">
<title>roo_transceivers&#45;&gt;roo_logging</title>
<path fill="none" stroke="black" d="M612.58,-479.83C589.45,-449.32 539.6,-386.94 488,-344 482.79,-339.67 477.02,-335.5 471.17,-331.63"/>
<polygon fill="black" stroke="black" points="472.94,-328.6 462.62,-326.18 469.18,-334.51 472.94,-328.6"/>
</g>
<!-- roo_transceivers&#45;&gt;roo_prefs -->
<g id="edge44" class="edge">
<title>roo_transceivers&#45;&gt;roo_prefs</title>
<path fill="none" stroke="red" d="M633.33,-479.88C638.85,-466.22 646.51,-447.26 652.8,-431.71"/>
<polygon fill="red" stroke="red" points="656.19,-432.65 656.7,-422.07 649.7,-430.03 656.19,-432.65"/>
<text text-anchor="middle" x="676" y="-454" font-family="Times,serif" font-size="10.00" fill="red">1.2.0</text>
<text text-anchor="middle" x="676" y="-443" font-family="Times,serif" font-size="10.00" fill="red">(latest: 1.2.1)</text>
</g>
<!-- roo_transport -->
<g id="node25" class="node">
<title>roo_transport</title>
<polygon fill="khaki" stroke="black" points="1078.5,-518 989.5,-518 989.5,-480 1078.5,-480 1078.5,-518"/>
<text text-anchor="middle" x="1034" y="-502.8" font-family="Times,serif" font-size="14.00">roo_transport</text>
<text text-anchor="middle" x="1034" y="-487.8" font-family="Times,serif" font-size="14.00">1.0.0</text>
</g>
<!-- roo_transport&#45;&gt;roo_collections -->
<g id="edge45" class="edge">
<title>roo_transport&#45;&gt;roo_collections</title>
<path fill="none" stroke="black" d="M1025.72,-479.72C1006.56,-437.86 957.05,-332.21 908,-248 906.21,-244.92 904.25,-241.75 902.26,-238.62"/>
<polygon fill="black" stroke="black" points="905.05,-236.49 896.65,-230.04 899.2,-240.32 905.05,-236.49"/>
</g>
<!-- roo_transport&#45;&gt;roo_io -->
<g id="edge46" class="edge">
<title>roo_transport&#45;&gt;roo_io</title>
<path fill="none" stroke="black" d="M993.91,-479.94C966.79,-467.99 930.03,-452.32 897,-440 872.58,-430.89 844.68,-421.85 822.96,-415.1"/>
<polygon fill="black" stroke="black" points="823.73,-411.68 813.14,-412.08 821.67,-418.37 823.73,-411.68"/>
</g>
<!-- roo_wifi -->
<g id="node26" class="node">
<title>roo_wifi</title>
<polygon fill="khaki" stroke="black" points="1159.5,-518 1096.5,-518 1096.5,-480 1159.5,-480 1159.5,-518"/>
<text text-anchor="middle" x="1128" y="-502.8" font-family="Times,serif" font-size="14.00">roo_wifi</text>
<text text-anchor="middle" x="1128" y="-487.8" font-family="Times,serif" font-size="14.00">1.1.0</text>
</g>
<!-- roo_wifi&#45;&gt;roo_collections -->
<g id="edge48" class="edge">
<title>roo_wifi&#45;&gt;roo_collections</title>
<path fill="none" stroke="black" d="M1115.23,-479.73C1084.98,-437 1005.56,-328.13 927,-248 923.34,-244.27 919.33,-240.53 915.28,-236.93"/>
<polygon fill="black" stroke="black" points="917.37,-234.12 907.5,-230.26 912.81,-239.43 917.37,-234.12"/>
</g>
<!-- roo_wifi&#45;&gt;roo_prefs -->
<g id="edge49" class="edge">
<title>roo_wifi&#45;&gt;roo_prefs</title>
<path fill="none" stroke="red" d="M1096.4,-482.91C1093.59,-481.84 1090.77,-480.85 1088,-480 1051.56,-468.87 787.43,-429.13 750,-422 736.39,-419.41 721.61,-416.39 708.2,-413.57"/>
<polygon fill="red" stroke="red" points="708.77,-410.12 698.26,-411.47 707.32,-416.96 708.77,-410.12"/>
<text text-anchor="middle" x="1016" y="-454" font-family="Times,serif" font-size="10.00" fill="red">1.2.0</text>
<text text-anchor="middle" x="1016" y="-443" font-family="Times,serif" font-size="10.00" fill="red">(latest: 1.2.1)</text>
</g>
<!-- roo_wifi&#45;&gt;roo_testing -->
<g id="edge47" class="edge">
<title>roo_wifi&#45;&gt;roo_testing</title>
<path fill="none" stroke="black" d="M1124.58,-479.7C1121.35,-460.81 1117,-430.45 1117,-404 1117,-404 1117,-404 1117,-114 1117,-49.85 638.66,-27.25 482.01,-21.58"/>
<polygon fill="black" stroke="black" points="481.85,-18.07 471.73,-21.21 481.6,-25.06 481.85,-18.07"/>
</g>
<!-- roo_windows&#45;&gt;roo_icons -->
<g id="edge51" class="edge">
<title>roo_windows&#45;&gt;roo_icons</title>
<path fill="none" stroke="black" d="M949.66,-650.88C940.1,-636.83 926.71,-617.17 915.96,-601.38"/>
<polygon fill="black" stroke="black" points="918.82,-599.36 910.3,-593.07 913.04,-603.3 918.82,-599.36"/>
</g>
<!-- roo_windows&#45;&gt;roo_locale -->
<g id="edge50" class="edge">
<title>roo_windows&#45;&gt;roo_locale</title>
<path fill="none" stroke="black" d="M974.34,-650.88C983.9,-636.83 997.29,-617.17 1008.04,-601.38"/>
<polygon fill="black" stroke="black" points="1010.96,-603.3 1013.7,-593.07 1005.18,-599.36 1010.96,-603.3"/>
</g>
<!-- roo_windows&#45;&gt;roo_scheduler -->
<g id="edge52" class="edge">
<title>roo_windows&#45;&gt;roo_scheduler</title>
<path fill="none" stroke="black" d="M966.45,-650.74C975.45,-609.27 991.4,-506.41 947,-440 898.64,-367.66 798.56,-333.44 735.32,-318.45"/>
<polygon fill="black" stroke="black" points="736.03,-315.02 725.5,-316.21 734.47,-321.85 736.03,-315.02"/>
</g>
<!-- roo_windows_transceivers -->
<g id="node28" class="node">
<title>roo_windows_transceivers</title>
<polygon fill="plum" stroke="black" points="897.5,-785 736.5,-785 736.5,-747 897.5,-747 897.5,-785"/>
<text text-anchor="middle" x="817" y="-769.8" font-family="Times,serif" font-size="14.00">roo_windows_transceivers</text>
<text text-anchor="middle" x="817" y="-754.8" font-family="Times,serif" font-size="14.00">1.0.0</text>
</g>
<!-- roo_windows_transceivers&#45;&gt;roo_testing -->
<g id="edge53" class="edge">
<title>roo_windows_transceivers&#45;&gt;roo_testing</title>
<path fill="none" stroke="red" d="M736.43,-764.07C530.31,-760.63 0,-744.62 0,-671 0,-671 0,-671 0,-114 0,-36.14 270.74,-22.64 384.05,-20.4"/>
<polygon fill="red" stroke="red" points="384.26,-23.89 394.19,-20.22 384.13,-16.9 384.26,-23.89"/>
<text text-anchor="middle" x="27" y="-406" font-family="Times,serif" font-size="10.00" fill="red">1.1.1</text>
<text text-anchor="middle" x="27" y="-395" font-family="Times,serif" font-size="10.00" fill="red">(latest: 1.1.4)</text>
</g>
<!-- roo_windows_transceivers&#45;&gt;roo_transceivers -->
<g id="edge54" class="edge">
<title>roo_windows_transceivers&#45;&gt;roo_transceivers</title>
<path fill="none" stroke="red" d="M803.87,-746.79C770.82,-700.93 684.05,-580.53 645.24,-526.69"/>
<polygon fill="red" stroke="red" points="647.91,-524.41 639.22,-518.34 642.23,-528.5 647.91,-524.41"/>
<text text-anchor="middle" x="749" y="-625" font-family="Times,serif" font-size="10.00" fill="red">1.0.3</text>
<text text-anchor="middle" x="749" y="-614" font-family="Times,serif" font-size="10.00" fill="red">(latest: 1.1.1)</text>
</g>
<!-- roo_windows_transceivers&#45;&gt;roo_windows -->
<g id="edge55" class="edge">
<title>roo_windows_transceivers&#45;&gt;roo_windows</title>
<path fill="none" stroke="red" d="M843.89,-746.75C861.01,-735.21 883.7,-720.06 904,-707 910.3,-702.94 917.03,-698.69 923.59,-694.59"/>
<polygon fill="red" stroke="red" points="925.74,-697.38 932.38,-689.13 922.04,-691.44 925.74,-697.38"/>
<text text-anchor="middle" x="931" y="-721" font-family="Times,serif" font-size="10.00" fill="red">1.3.0</text>
<text text-anchor="middle" x="931" y="-710" font-family="Times,serif" font-size="10.00" fill="red">(latest: 1.4.0)</text>
</g>
<!-- roo_windows_wifi -->
<g id="node29" class="node">
<title>roo_windows_wifi</title>
<polygon fill="khaki" stroke="black" points="1157.5,-785 1038.5,-785 1038.5,-747 1157.5,-747 1157.5,-785"/>
<text text-anchor="middle" x="1098" y="-769.8" font-family="Times,serif" font-size="14.00">roo_windows_wifi</text>
<text text-anchor="middle" x="1098" y="-754.8" font-family="Times,serif" font-size="14.00">1.1.1</text>
</g>
<!-- roo_windows_wifi&#45;&gt;roo_wifi -->
<g id="edge56" class="edge">
<title>roo_windows_wifi&#45;&gt;roo_wifi</title>
<path fill="none" stroke="black" d="M1100.06,-746.79C1105.2,-701.4 1118.6,-583.01 1124.79,-528.38"/>
<polygon fill="black" stroke="black" points="1128.28,-528.67 1125.92,-518.34 1121.32,-527.88 1128.28,-528.67"/>
</g>
<!-- roo_windows_wifi&#45;&gt;roo_windows -->
<g id="edge57" class="edge">
<title>roo_windows_wifi&#45;&gt;roo_windows</title>
<path fill="none" stroke="black" d="M1071.78,-746.88C1050.33,-732.05 1019.83,-710.97 996.42,-694.79"/>
<polygon fill="black" stroke="black" points="998.36,-691.88 988.14,-689.07 994.38,-697.63 998.36,-691.88"/>
</g>
</g>
</svg>
