<?xml version="1.0" encoding="UTF-8" standalone="no"?>
<!DOCTYPE svg PUBLIC "-//W3C//DTD SVG 1.1//EN"
 "http://www.w3.org/Graphics/SVG/1.1/DTD/svg11.dtd">
<!-- Generated by graphviz version 2.42.4 (0)
 -->
<!-- Title: dependencies Pages: 1 -->
<svg width="1546pt" height="793pt"
 viewBox="0.00 0.00 1546.00 793.00" xmlns="http://www.w3.org/2000/svg" xmlns:xlink="http://www.w3.org/1999/xlink">
<g id="graph0" class="graph" transform="scale(1 1) rotate(0) translate(4 789)">
<title>dependencies</title>
<polygon fill="white" stroke="transparent" points="-4,4 -4,-789 1542,-789 1542,4 -4,4"/>
<!-- roo_backport -->
<g id="node1" class="node">
<title>roo_backport</title>
<polygon fill="khaki" stroke="black" points="374,-134 264,-134 264,-96 374,-96 374,-134"/>
<text text-anchor="middle" x="319" y="-118.8" font-family="Times,serif" font-size="14.00">roo_backport</text>
<text text-anchor="middle" x="319" y="-103.8" font-family="Times,serif" font-size="14.00">1.1.1</text>
</g>
<!-- roo_blink -->
<g id="node2" class="node">
<title>roo_blink</title>
<polygon fill="#b1dbab" stroke="black" points="997,-422 915,-422 915,-384 997,-384 997,-422"/>
<text text-anchor="middle" x="956" y="-406.8" font-family="Times,serif" font-size="14.00">roo_blink</text>
<text text-anchor="middle" x="956" y="-391.8" font-family="Times,serif" font-size="14.00">1.0.2</text>
</g>
<!-- roo_logging -->
<g id="node12" class="node">
<title>roo_logging</title>
<polygon fill="plum" stroke="black" points="817,-326 717,-326 717,-288 817,-288 817,-326"/>
<text text-anchor="middle" x="767" y="-310.8" font-family="Times,serif" font-size="14.00">roo_logging</text>
<text text-anchor="middle" x="767" y="-295.8" font-family="Times,serif" font-size="14.00">1.4.3</text>
</g>
<!-- roo_blink&#45;&gt;roo_logging -->
<g id="edge2" class="edge">
<title>roo_blink&#45;&gt;roo_logging</title>
<path fill="none" stroke="black" d="M914.89,-399.56C883.57,-395.99 840.61,-387.26 809,-366 797.36,-358.17 787.82,-345.98 780.79,-334.78"/>
<polygon fill="black" stroke="black" points="783.79,-332.97 775.7,-326.13 777.75,-336.52 783.79,-332.97"/>
</g>
<!-- roo_scheduler -->
<g id="node16" class="node">
<title>roo_scheduler</title>
<polygon fill="plum" stroke="black" points="1014,-326 898,-326 898,-288 1014,-288 1014,-326"/>
<text text-anchor="middle" x="956" y="-310.8" font-family="Times,serif" font-size="14.00">roo_scheduler</text>
<text text-anchor="middle" x="956" y="-295.8" font-family="Times,serif" font-size="14.00">2.1.5</text>
</g>
<!-- roo_blink&#45;&gt;roo_scheduler -->
<g id="edge3" class="edge">
<title>roo_blink&#45;&gt;roo_scheduler</title>
<path fill="none" stroke="black" d="M956,-383.88C956,-370.35 956,-351.62 956,-336.15"/>
<polygon fill="black" stroke="black" points="959.5,-336.07 956,-326.07 952.5,-336.07 959.5,-336.07"/>
</g>
<!-- roo_testing -->
<g id="node17" class="node">
<title>roo_testing</title>
<polygon fill="khaki" stroke="black" points="754.5,-38 657.5,-38 657.5,0 754.5,0 754.5,-38"/>
<text text-anchor="middle" x="706" y="-22.8" font-family="Times,serif" font-size="14.00">roo_testing</text>
<text text-anchor="middle" x="706" y="-7.8" font-family="Times,serif" font-size="14.00">1.2.0</text>
</g>
<!-- roo_blink&#45;&gt;roo_testing -->
<g id="edge1" class="edge">
<title>roo_blink&#45;&gt;roo_testing</title>
<path fill="none" stroke="red" d="M991.15,-383.85C1028.12,-363.57 1081,-330.6 1081,-308 1081,-308 1081,-308 1081,-114 1081,-49.61 870.37,-28.94 764.82,-22.62"/>
<polygon fill="red" stroke="red" points="764.82,-19.11 754.64,-22.04 764.42,-26.1 764.82,-19.11"/>
<text text-anchor="middle" x="1114" y="-214" font-family="Times,serif" font-size="10.00" fill="red">1.1.8</text>
<text text-anchor="middle" x="1114" y="-203" font-family="Times,serif" font-size="10.00" fill="red">(latest: 1.2.0)</text>
</g>
<!-- roo_collections -->
<g id="node3" class="node">
<title>roo_collections</title>
<polygon fill="#b1dbab" stroke="black" points="341,-230 219,-230 219,-192 341,-192 341,-230"/>
<text text-anchor="middle" x="280" y="-214.8" font-family="Times,serif" font-size="14.00">roo_collections</text>
<text text-anchor="middle" x="280" y="-199.8" font-family="Times,serif" font-size="14.00">1.3.2</text>
</g>
<!-- roo_collections&#45;&gt;roo_backport -->
<g id="edge4" class="edge">
<title>roo_collections&#45;&gt;roo_backport</title>
<path fill="none" stroke="black" d="M287.52,-191.88C293.18,-178.22 301.05,-159.26 307.5,-143.71"/>
<polygon fill="black" stroke="black" points="310.9,-144.65 311.5,-134.07 304.44,-141.96 310.9,-144.65"/>
</g>
<!-- roo_comms -->
<g id="node4" class="node">
<title>roo_comms</title>
<polygon fill="#b1dbab" stroke="black" points="948.5,-614 851.5,-614 851.5,-576 948.5,-576 948.5,-614"/>
<text text-anchor="middle" x="900" y="-598.8" font-family="Times,serif" font-size="14.00">roo_comms</text>
<text text-anchor="middle" x="900" y="-583.8" font-family="Times,serif" font-size="14.00">1.1.2</text>
</g>
<!-- roo_comms&#45;&gt;roo_blink -->
<g id="edge6" class="edge">
<title>roo_comms&#45;&gt;roo_blink</title>
<path fill="none" stroke="black" d="M910.67,-575.88C919.06,-560.86 930.39,-538.69 937,-518 946.1,-489.49 951.05,-455.5 953.59,-432.1"/>
<polygon fill="black" stroke="black" points="957.07,-432.45 954.6,-422.15 950.11,-431.75 957.07,-432.45"/>
</g>
<!-- roo_control -->
<g id="node5" class="node">
<title>roo_control</title>
<polygon fill="#b1dbab" stroke="black" points="805.5,-518 708.5,-518 708.5,-480 805.5,-480 805.5,-518"/>
<text text-anchor="middle" x="757" y="-502.8" font-family="Times,serif" font-size="14.00">roo_control</text>
<text text-anchor="middle" x="757" y="-487.8" font-family="Times,serif" font-size="14.00">1.2.2</text>
</g>
<!-- roo_comms&#45;&gt;roo_control -->
<g id="edge7" class="edge">
<title>roo_comms&#45;&gt;roo_control</title>
<path fill="none" stroke="black" d="M872.43,-575.88C849.78,-560.99 817.52,-539.78 792.86,-523.57"/>
<polygon fill="black" stroke="black" points="794.77,-520.64 784.49,-518.07 790.92,-526.49 794.77,-520.64"/>
</g>
<!-- roo_io -->
<g id="node10" class="node">
<title>roo_io</title>
<polygon fill="plum" stroke="black" points="464.5,-422 405.5,-422 405.5,-384 464.5,-384 464.5,-422"/>
<text text-anchor="middle" x="435" y="-406.8" font-family="Times,serif" font-size="14.00">roo_io</text>
<text text-anchor="middle" x="435" y="-391.8" font-family="Times,serif" font-size="14.00">2.0.3</text>
</g>
<!-- roo_comms&#45;&gt;roo_io -->
<g id="edge8" class="edge">
<title>roo_comms&#45;&gt;roo_io</title>
<path fill="none" stroke="black" d="M851.11,-578.62C809.85,-564.89 749.73,-543.12 700,-518 672.16,-503.94 669.3,-493.12 641,-480 616.13,-468.47 607.88,-471.04 582,-462 545,-449.08 503.52,-432.52 474.08,-420.4"/>
<polygon fill="black" stroke="black" points="475.16,-417.06 464.58,-416.48 472.49,-423.53 475.16,-417.06"/>
</g>
<!-- roo_comms&#45;&gt;roo_testing -->
<g id="edge5" class="edge">
<title>roo_comms&#45;&gt;roo_testing</title>
<path fill="none" stroke="red" d="M948.63,-578.67C1016.07,-557.34 1130.23,-520.97 1134,-518 1188.08,-475.38 1305.23,-314.12 1286,-248 1253.84,-137.42 1222.47,-88.54 1112,-56 1048.55,-37.31 861.28,-26.72 764.85,-22.37"/>
<polygon fill="red" stroke="red" points="764.82,-18.86 754.68,-21.91 764.51,-25.85 764.82,-18.86"/>
<text text-anchor="middle" x="1318" y="-310" font-family="Times,serif" font-size="10.00" fill="red">1.1.8</text>
<text text-anchor="middle" x="1318" y="-299" font-family="Times,serif" font-size="10.00" fill="red">(latest: 1.2.0)</text>
</g>
<!-- roo_transceivers -->
<g id="node21" class="node">
<title>roo_transceivers</title>
<polygon fill="#b1dbab" stroke="black" points="1124.5,-518 989.5,-518 989.5,-480 1124.5,-480 1124.5,-518"/>
<text text-anchor="middle" x="1057" y="-502.8" font-family="Times,serif" font-size="14.00">roo_transceivers</text>
<text text-anchor="middle" x="1057" y="-487.8" font-family="Times,serif" font-size="14.00">1.1.3</text>
</g>
<!-- roo_comms&#45;&gt;roo_transceivers -->
<g id="edge9" class="edge">
<title>roo_comms&#45;&gt;roo_transceivers</title>
<path fill="none" stroke="black" d="M937.12,-575.9C947.86,-570.39 959.52,-564.16 970,-558 987.96,-547.44 1007.3,-534.7 1023.17,-523.84"/>
<polygon fill="black" stroke="black" points="1025.35,-526.59 1031.6,-518.04 1021.38,-520.83 1025.35,-526.59"/>
</g>
<!-- roo_quantity -->
<g id="node15" class="node">
<title>roo_quantity</title>
<polygon fill="#b1dbab" stroke="black" points="820.5,-422 713.5,-422 713.5,-384 820.5,-384 820.5,-422"/>
<text text-anchor="middle" x="767" y="-406.8" font-family="Times,serif" font-size="14.00">roo_quantity</text>
<text text-anchor="middle" x="767" y="-391.8" font-family="Times,serif" font-size="14.00">1.1.3</text>
</g>
<!-- roo_control&#45;&gt;roo_quantity -->
<g id="edge11" class="edge">
<title>roo_control&#45;&gt;roo_quantity</title>
<path fill="none" stroke="black" d="M758.93,-479.88C760.37,-466.35 762.36,-447.62 764.01,-432.15"/>
<polygon fill="black" stroke="black" points="767.5,-432.38 765.08,-422.07 760.54,-431.64 767.5,-432.38"/>
</g>
<!-- roo_control&#45;&gt;roo_scheduler -->
<g id="edge12" class="edge">
<title>roo_control&#45;&gt;roo_scheduler</title>
<path fill="none" stroke="black" d="M774.65,-479.85C808.94,-444.68 883.6,-368.52 911,-344 915.19,-340.25 919.72,-336.4 924.22,-332.69"/>
<polygon fill="black" stroke="black" points="926.67,-335.22 932.24,-326.21 922.26,-329.78 926.67,-335.22"/>
</g>
<!-- roo_control&#45;&gt;roo_testing -->
<g id="edge10" class="edge">
<title>roo_control&#45;&gt;roo_testing</title>
<path fill="none" stroke="red" d="M708.47,-486.16C671.15,-476.88 625.38,-465.04 622,-462 553.96,-400.89 564.73,-359.91 548,-270 541.17,-233.27 526.85,-106.88 571,-56 581.29,-44.14 615.71,-35.07 647.22,-29"/>
<polygon fill="red" stroke="red" points="648.11,-32.39 657.31,-27.13 646.84,-25.51 648.11,-32.39"/>
<text text-anchor="middle" x="581" y="-262" font-family="Times,serif" font-size="10.00" fill="red">1.1.8</text>
<text text-anchor="middle" x="581" y="-251" font-family="Times,serif" font-size="10.00" fill="red">(latest: 1.2.0)</text>
</g>
<!-- roo_dashboard -->
<g id="node6" class="node">
<title>roo_dashboard</title>
<polygon fill="#b1dbab" stroke="black" points="518,-785 396,-785 396,-747 518,-747 518,-785"/>
<text text-anchor="middle" x="457" y="-769.8" font-family="Times,serif" font-size="14.00">roo_dashboard</text>
<text text-anchor="middle" x="457" y="-754.8" font-family="Times,serif" font-size="14.00">1.0.1</text>
</g>
<!-- roo_dashboard&#45;&gt;roo_testing -->
<g id="edge13" class="edge">
<title>roo_dashboard&#45;&gt;roo_testing</title>
<path fill="none" stroke="red" d="M395.84,-761.49C271.31,-753.52 0,-731.62 0,-692 0,-692 0,-692 0,-114 0,-57.15 59.15,-70.93 114,-56 213.27,-28.99 518.3,-22.21 647.36,-20.54"/>
<polygon fill="red" stroke="red" points="647.49,-24.04 657.45,-20.41 647.41,-17.04 647.49,-24.04"/>
<text text-anchor="middle" x="33" y="-406" font-family="Times,serif" font-size="10.00" fill="red">1.1.7</text>
<text text-anchor="middle" x="33" y="-395" font-family="Times,serif" font-size="10.00" fill="red">(latest: 1.2.0)</text>
</g>
<!-- roo_windows -->
<g id="node24" class="node">
<title>roo_windows</title>
<polygon fill="#b1dbab" stroke="black" points="872.5,-710 763.5,-710 763.5,-672 872.5,-672 872.5,-710"/>
<text text-anchor="middle" x="818" y="-694.8" font-family="Times,serif" font-size="14.00">roo_windows</text>
<text text-anchor="middle" x="818" y="-679.8" font-family="Times,serif" font-size="14.00">1.4.1</text>
</g>
<!-- roo_dashboard&#45;&gt;roo_windows -->
<g id="edge14" class="edge">
<title>roo_dashboard&#45;&gt;roo_windows</title>
<path fill="none" stroke="black" d="M518.24,-752.62C583.58,-739.4 686.67,-718.56 753.3,-705.08"/>
<polygon fill="black" stroke="black" points="754.16,-708.48 763.27,-703.07 752.77,-701.62 754.16,-708.48"/>
</g>
<!-- roo_display -->
<g id="node7" class="node">
<title>roo_display</title>
<polygon fill="#b1dbab" stroke="black" points="328,-518 230,-518 230,-480 328,-480 328,-518"/>
<text text-anchor="middle" x="279" y="-502.8" font-family="Times,serif" font-size="14.00">roo_display</text>
<text text-anchor="middle" x="279" y="-487.8" font-family="Times,serif" font-size="14.00">2.3.1</text>
</g>
<!-- roo_display&#45;&gt;roo_collections -->
<g id="edge16" class="edge">
<title>roo_display&#45;&gt;roo_collections</title>
<path fill="none" stroke="black" d="M279.06,-479.67C279.23,-431.14 279.7,-299.02 279.9,-240.52"/>
<polygon fill="black" stroke="black" points="283.4,-240.19 279.94,-230.17 276.4,-240.16 283.4,-240.19"/>
</g>
<!-- roo_display&#45;&gt;roo_io -->
<g id="edge17" class="edge">
<title>roo_display&#45;&gt;roo_io</title>
<path fill="none" stroke="red" d="M285.46,-479.81C290.91,-466.94 299.94,-450.21 313,-440 336.62,-421.53 369.51,-412.52 395.19,-408.14"/>
<polygon fill="red" stroke="red" points="395.99,-411.56 405.35,-406.58 394.93,-404.64 395.99,-411.56"/>
<text text-anchor="middle" x="346" y="-454" font-family="Times,serif" font-size="10.00" fill="red">2.0.2</text>
<text text-anchor="middle" x="346" y="-443" font-family="Times,serif" font-size="10.00" fill="red">(latest: 2.0.3)</text>
</g>
<!-- roo_display&#45;&gt;roo_testing -->
<g id="edge15" class="edge">
<title>roo_display&#45;&gt;roo_testing</title>
<path fill="none" stroke="red" d="M274.59,-479.76C265.51,-442.98 243.42,-357.53 218,-288 214.99,-279.78 211.82,-278.56 210,-270 193.42,-191.86 191.83,-144.89 255,-96 315.38,-49.28 539.52,-29.86 647.33,-23.1"/>
<polygon fill="red" stroke="red" points="647.63,-26.58 657.4,-22.48 647.2,-19.6 647.63,-26.58"/>
<text text-anchor="middle" x="243" y="-262" font-family="Times,serif" font-size="10.00" fill="red">1.1.7</text>
<text text-anchor="middle" x="243" y="-251" font-family="Times,serif" font-size="10.00" fill="red">(latest: 1.2.0)</text>
</g>
<!-- roo_flags -->
<g id="node8" class="node">
<title>roo_flags</title>
<polygon fill="khaki" stroke="black" points="731,-230 651,-230 651,-192 731,-192 731,-230"/>
<text text-anchor="middle" x="691" y="-214.8" font-family="Times,serif" font-size="14.00">roo_flags</text>
<text text-anchor="middle" x="691" y="-199.8" font-family="Times,serif" font-size="14.00">1.1.1</text>
</g>
<!-- roo_icons -->
<g id="node9" class="node">
<title>roo_icons</title>
<polygon fill="#b1dbab" stroke="black" points="320.5,-614 237.5,-614 237.5,-576 320.5,-576 320.5,-614"/>
<text text-anchor="middle" x="279" y="-598.8" font-family="Times,serif" font-size="14.00">roo_icons</text>
<text text-anchor="middle" x="279" y="-583.8" font-family="Times,serif" font-size="14.00">1.2.1</text>
</g>
<!-- roo_icons&#45;&gt;roo_display -->
<g id="edge19" class="edge">
<title>roo_icons&#45;&gt;roo_display</title>
<path fill="none" stroke="black" d="M279,-575.88C279,-562.35 279,-543.62 279,-528.15"/>
<polygon fill="black" stroke="black" points="282.5,-528.07 279,-518.07 275.5,-528.07 282.5,-528.07"/>
</g>
<!-- roo_icons&#45;&gt;roo_testing -->
<g id="edge18" class="edge">
<title>roo_icons&#45;&gt;roo_testing</title>
<path fill="none" stroke="red" d="M262.53,-575.73C249.87,-560.98 232.64,-539.25 221,-518 190.53,-462.39 195.02,-443.09 172,-384 161.87,-358.01 153.44,-353.36 148,-326 142.28,-297.23 148,-289.33 148,-260 148,-260 148,-260 148,-114 148,-47.06 221.99,-71.94 287,-56 412.8,-25.15 565.47,-19.77 647.35,-19.37"/>
<polygon fill="red" stroke="red" points="647.47,-22.87 657.46,-19.35 647.45,-15.87 647.47,-22.87"/>
<text text-anchor="middle" x="181" y="-310" font-family="Times,serif" font-size="10.00" fill="red">1.1.7</text>
<text text-anchor="middle" x="181" y="-299" font-family="Times,serif" font-size="10.00" fill="red">(latest: 1.2.0)</text>
</g>
<!-- roo_io&#45;&gt;roo_backport -->
<g id="edge21" class="edge">
<title>roo_io&#45;&gt;roo_backport</title>
<path fill="none" stroke="black" d="M428.34,-383.89C417.66,-355 395.87,-296.79 376,-248 361.22,-211.72 343.14,-170.31 331.36,-143.7"/>
<polygon fill="black" stroke="black" points="334.43,-141.98 327.17,-134.26 328.03,-144.82 334.43,-141.98"/>
</g>
<!-- roo_io&#45;&gt;roo_logging -->
<g id="edge22" class="edge">
<title>roo_io&#45;&gt;roo_logging</title>
<path fill="none" stroke="black" d="M464.75,-393.58C519.17,-378.17 635.7,-345.17 707.12,-324.96"/>
<polygon fill="black" stroke="black" points="708.21,-328.28 716.88,-322.19 706.31,-321.55 708.21,-328.28"/>
</g>
<!-- roo_io&#45;&gt;roo_testing -->
<g id="edge20" class="edge">
<title>roo_io&#45;&gt;roo_testing</title>
<path fill="none" stroke="red" d="M430.97,-383.86C418.97,-324.37 390.42,-134.51 495,-56 518.45,-38.39 593.19,-28.81 647.06,-24.05"/>
<polygon fill="red" stroke="red" points="647.52,-27.53 657.19,-23.19 646.93,-20.55 647.52,-27.53"/>
<text text-anchor="middle" x="455" y="-214" font-family="Times,serif" font-size="10.00" fill="red">1.1.8</text>
<text text-anchor="middle" x="455" y="-203" font-family="Times,serif" font-size="10.00" fill="red">(latest: 1.2.0)</text>
</g>
<!-- roo_locale -->
<g id="node11" class="node">
<title>roo_locale</title>
<polygon fill="#b1dbab" stroke="black" points="1055,-614 967,-614 967,-576 1055,-576 1055,-614"/>
<text text-anchor="middle" x="1011" y="-598.8" font-family="Times,serif" font-size="14.00">roo_locale</text>
<text text-anchor="middle" x="1011" y="-583.8" font-family="Times,serif" font-size="14.00">1.1.1</text>
</g>
<!-- roo_logging&#45;&gt;roo_flags -->
<g id="edge24" class="edge">
<title>roo_logging&#45;&gt;roo_flags</title>
<path fill="none" stroke="black" d="M766.29,-287.96C765,-275.65 761.61,-259.54 753,-248 749.24,-242.96 744.55,-238.5 739.44,-234.6"/>
<polygon fill="black" stroke="black" points="741.37,-231.68 731.14,-228.92 737.42,-237.46 741.37,-231.68"/>
</g>
<!-- roo_logging&#45;&gt;roo_testing -->
<g id="edge23" class="edge">
<title>roo_logging&#45;&gt;roo_testing</title>
<path fill="none" stroke="red" d="M752.21,-287.84C740.83,-274.98 724.04,-258.26 706,-248 680.32,-233.39 659.84,-253.55 642,-230 599.28,-173.61 652.16,-88.58 684.46,-46.1"/>
<polygon fill="red" stroke="red" points="687.24,-48.23 690.62,-38.19 681.71,-43.93 687.24,-48.23"/>
<text text-anchor="middle" x="662" y="-166" font-family="Times,serif" font-size="10.00" fill="red">1.1.8</text>
<text text-anchor="middle" x="662" y="-155" font-family="Times,serif" font-size="10.00" fill="red">(latest: 1.2.0)</text>
</g>
<!-- roo_threads -->
<g id="node18" class="node">
<title>roo_threads</title>
<polygon fill="plum" stroke="black" points="1006.5,-230 905.5,-230 905.5,-192 1006.5,-192 1006.5,-230"/>
<text text-anchor="middle" x="956" y="-214.8" font-family="Times,serif" font-size="14.00">roo_threads</text>
<text text-anchor="middle" x="956" y="-199.8" font-family="Times,serif" font-size="14.00">1.1.6</text>
</g>
<!-- roo_logging&#45;&gt;roo_threads -->
<g id="edge25" class="edge">
<title>roo_logging&#45;&gt;roo_threads</title>
<path fill="none" stroke="black" d="M803.44,-287.88C833.9,-272.73 877.5,-251.04 910.3,-234.73"/>
<polygon fill="black" stroke="black" points="912.28,-237.66 919.67,-230.07 909.16,-231.39 912.28,-237.66"/>
</g>
<!-- roo_onewire -->
<g id="node13" class="node">
<title>roo_onewire</title>
<polygon fill="#b1dbab" stroke="black" points="928,-518 824,-518 824,-480 928,-480 928,-518"/>
<text text-anchor="middle" x="876" y="-502.8" font-family="Times,serif" font-size="14.00">roo_onewire</text>
<text text-anchor="middle" x="876" y="-487.8" font-family="Times,serif" font-size="14.00">2.0.5</text>
</g>
<!-- roo_onewire&#45;&gt;roo_quantity -->
<g id="edge28" class="edge">
<title>roo_onewire&#45;&gt;roo_quantity</title>
<path fill="none" stroke="black" d="M854.98,-479.88C838.09,-465.31 814.2,-444.71 795.58,-428.64"/>
<polygon fill="black" stroke="black" points="797.81,-425.95 787.95,-422.07 793.24,-431.25 797.81,-425.95"/>
</g>
<!-- roo_onewire&#45;&gt;roo_scheduler -->
<g id="edge27" class="edge">
<title>roo_onewire&#45;&gt;roo_scheduler</title>
<path fill="none" stroke="black" d="M878.94,-479.62C883.05,-456.56 891.66,-416.15 906,-384 913.83,-366.44 925.52,-348.4 935.63,-334.3"/>
<polygon fill="black" stroke="black" points="938.57,-336.2 941.67,-326.07 932.93,-332.06 938.57,-336.2"/>
</g>
<!-- roo_onewire&#45;&gt;roo_testing -->
<g id="edge26" class="edge">
<title>roo_onewire&#45;&gt;roo_testing</title>
<path fill="none" stroke="red" d="M825.07,-479.97C781.41,-463.7 722.82,-439.68 705,-422 652.33,-369.75 663.62,-338.86 636,-270 607.2,-198.18 600.97,-167.73 630,-96 638.29,-75.53 655.16,-57.74 670.9,-44.53"/>
<polygon fill="red" stroke="red" points="673.37,-47.03 678.98,-38.05 668.99,-41.57 673.37,-47.03"/>
<text text-anchor="middle" x="669" y="-262" font-family="Times,serif" font-size="10.00" fill="red">1.1.8</text>
<text text-anchor="middle" x="669" y="-251" font-family="Times,serif" font-size="10.00" fill="red">(latest: 1.2.0)</text>
</g>
<!-- roo_prefs -->
<g id="node14" class="node">
<title>roo_prefs</title>
<polygon fill="#b1dbab" stroke="black" points="1098.5,-422 1015.5,-422 1015.5,-384 1098.5,-384 1098.5,-422"/>
<text text-anchor="middle" x="1057" y="-406.8" font-family="Times,serif" font-size="14.00">roo_prefs</text>
<text text-anchor="middle" x="1057" y="-391.8" font-family="Times,serif" font-size="14.00">1.2.3</text>
</g>
<!-- roo_prefs&#45;&gt;roo_logging -->
<g id="edge30" class="edge">
<title>roo_prefs&#45;&gt;roo_logging</title>
<path fill="none" stroke="black" d="M1015.29,-387.16C1012.15,-386.08 1009.03,-385.02 1006,-384 945.17,-363.6 875.19,-341.51 826.74,-326.43"/>
<polygon fill="black" stroke="black" points="827.63,-323.04 817.04,-323.41 825.55,-329.72 827.63,-323.04"/>
</g>
<!-- roo_prefs&#45;&gt;roo_scheduler -->
<g id="edge31" class="edge">
<title>roo_prefs&#45;&gt;roo_scheduler</title>
<path fill="none" stroke="black" d="M1037.53,-383.88C1022.02,-369.44 1000.13,-349.07 982.94,-333.07"/>
<polygon fill="black" stroke="black" points="985.12,-330.32 975.41,-326.07 980.35,-335.44 985.12,-330.32"/>
</g>
<!-- roo_prefs&#45;&gt;roo_testing -->
<g id="edge29" class="edge">
<title>roo_prefs&#45;&gt;roo_testing</title>
<path fill="none" stroke="red" d="M1071.09,-383.72C1093.27,-353.66 1135.42,-291 1151,-230 1166.97,-167.46 1137.64,-144.46 1095,-96 1075.74,-74.11 1070.07,-66.84 1043,-56 993.91,-36.33 847.61,-26.54 764.81,-22.44"/>
<polygon fill="red" stroke="red" points="764.95,-18.95 754.8,-21.96 764.62,-25.94 764.95,-18.95"/>
<text text-anchor="middle" x="1188" y="-214" font-family="Times,serif" font-size="10.00" fill="red">1.1.8</text>
<text text-anchor="middle" x="1188" y="-203" font-family="Times,serif" font-size="10.00" fill="red">(latest: 1.2.0)</text>
</g>
<!-- roo_quantity&#45;&gt;roo_logging -->
<g id="edge32" class="edge">
<title>roo_quantity&#45;&gt;roo_logging</title>
<path fill="none" stroke="black" d="M767,-383.88C767,-370.35 767,-351.62 767,-336.15"/>
<polygon fill="black" stroke="black" points="770.5,-336.07 767,-326.07 763.5,-336.07 770.5,-336.07"/>
</g>
<!-- roo_scheduler&#45;&gt;roo_collections -->
<g id="edge34" class="edge">
<title>roo_scheduler&#45;&gt;roo_collections</title>
<path fill="none" stroke="black" d="M897.98,-289.78C847.04,-276.24 770.7,-257.66 703,-248 566.37,-228.51 530.21,-244.87 393,-230 379.41,-228.53 364.97,-226.55 351.1,-224.44"/>
<polygon fill="black" stroke="black" points="351.55,-220.96 341.13,-222.88 350.48,-227.88 351.55,-220.96"/>
</g>
<!-- roo_scheduler&#45;&gt;roo_testing -->
<g id="edge33" class="edge">
<title>roo_scheduler&#45;&gt;roo_testing</title>
<path fill="none" stroke="red" d="M976.14,-287.92C990.32,-273.76 1008.12,-252.71 1016,-230 1021.54,-214.05 1021.75,-207.88 1016,-192 1012.45,-182.21 1005.74,-183.27 1001,-174 984.7,-142.14 999.29,-126.76 981,-96 967.66,-73.56 961.48,-67.39 938,-56 883.22,-29.43 813.38,-21.61 764.7,-19.7"/>
<polygon fill="red" stroke="red" points="764.76,-16.2 754.65,-19.38 764.53,-23.2 764.76,-16.2"/>
<text text-anchor="middle" x="1034" y="-166" font-family="Times,serif" font-size="10.00" fill="red">1.1.8</text>
<text text-anchor="middle" x="1034" y="-155" font-family="Times,serif" font-size="10.00" fill="red">(latest: 1.2.0)</text>
</g>
<!-- roo_scheduler&#45;&gt;roo_threads -->
<g id="edge35" class="edge">
<title>roo_scheduler&#45;&gt;roo_threads</title>
<path fill="none" stroke="black" d="M956,-287.88C956,-274.35 956,-255.62 956,-240.15"/>
<polygon fill="black" stroke="black" points="959.5,-240.07 956,-230.07 952.5,-240.07 959.5,-240.07"/>
</g>
<!-- roo_threads&#45;&gt;roo_testing -->
<g id="edge36" class="edge">
<title>roo_threads&#45;&gt;roo_testing</title>
<path fill="none" stroke="red" d="M914.29,-192C885.55,-178.45 847.39,-158.12 818,-134 800.93,-119.99 801.14,-112.07 786,-96 769.45,-78.42 749.8,-59.73 734.12,-45.29"/>
<polygon fill="red" stroke="red" points="736.06,-42.32 726.32,-38.15 731.34,-47.48 736.06,-42.32"/>
<text text-anchor="middle" x="851" y="-118" font-family="Times,serif" font-size="10.00" fill="red">1.1.8</text>
<text text-anchor="middle" x="851" y="-107" font-family="Times,serif" font-size="10.00" fill="red">(latest: 1.2.0)</text>
</g>
<!-- roo_time -->
<g id="node19" class="node">
<title>roo_time</title>
<polygon fill="plum" stroke="black" points="971.5,-134 892.5,-134 892.5,-96 971.5,-96 971.5,-134"/>
<text text-anchor="middle" x="932" y="-118.8" font-family="Times,serif" font-size="14.00">roo_time</text>
<text text-anchor="middle" x="932" y="-103.8" font-family="Times,serif" font-size="14.00">1.3.3</text>
</g>
<!-- roo_threads&#45;&gt;roo_time -->
<g id="edge37" class="edge">
<title>roo_threads&#45;&gt;roo_time</title>
<path fill="none" stroke="black" d="M951.37,-191.88C947.92,-178.35 943.14,-159.62 939.19,-144.15"/>
<polygon fill="black" stroke="black" points="942.48,-142.89 936.61,-134.07 935.7,-144.62 942.48,-142.89"/>
</g>
<!-- roo_time&#45;&gt;roo_testing -->
<g id="edge38" class="edge">
<title>roo_time&#45;&gt;roo_testing</title>
<path fill="none" stroke="red" d="M901.44,-95.93C879.77,-83.61 849.72,-67.49 822,-56 803.67,-48.4 783.15,-41.52 764.52,-35.87"/>
<polygon fill="red" stroke="red" points="765.26,-32.44 754.68,-32.94 763.26,-39.14 765.26,-32.44"/>
<text text-anchor="middle" x="901" y="-70" font-family="Times,serif" font-size="10.00" fill="red">1.1.8</text>
<text text-anchor="middle" x="901" y="-59" font-family="Times,serif" font-size="10.00" fill="red">(latest: 1.2.0)</text>
</g>
<!-- roo_time_ds3231 -->
<g id="node20" class="node">
<title>roo_time_ds3231</title>
<polygon fill="#b1dbab" stroke="black" points="887,-230 749,-230 749,-192 887,-192 887,-230"/>
<text text-anchor="middle" x="818" y="-214.8" font-family="Times,serif" font-size="14.00">roo_time_ds3231</text>
<text text-anchor="middle" x="818" y="-199.8" font-family="Times,serif" font-size="14.00">1.1.3</text>
</g>
<!-- roo_time_ds3231&#45;&gt;roo_testing -->
<g id="edge39" class="edge">
<title>roo_time_ds3231&#45;&gt;roo_testing</title>
<path fill="none" stroke="red" d="M782.15,-191.76C760.43,-178.73 734.25,-159.08 720,-134 705.07,-107.72 702.91,-72.6 703.63,-48.32"/>
<polygon fill="red" stroke="red" points="707.13,-48.47 704.11,-38.31 700.14,-48.13 707.13,-48.47"/>
<text text-anchor="middle" x="753" y="-118" font-family="Times,serif" font-size="10.00" fill="red">1.1.8</text>
<text text-anchor="middle" x="753" y="-107" font-family="Times,serif" font-size="10.00" fill="red">(latest: 1.2.0)</text>
</g>
<!-- roo_time_ds3231&#45;&gt;roo_time -->
<g id="edge40" class="edge">
<title>roo_time_ds3231&#45;&gt;roo_time</title>
<path fill="none" stroke="black" d="M839.98,-191.88C857.64,-177.31 882.63,-156.71 902.11,-140.64"/>
<polygon fill="black" stroke="black" points="904.6,-143.13 910.09,-134.07 900.15,-137.73 904.6,-143.13"/>
</g>
<!-- roo_transceivers&#45;&gt;roo_prefs -->
<g id="edge42" class="edge">
<title>roo_transceivers&#45;&gt;roo_prefs</title>
<path fill="none" stroke="black" d="M1057,-479.88C1057,-466.35 1057,-447.62 1057,-432.15"/>
<polygon fill="black" stroke="black" points="1060.5,-432.07 1057,-422.07 1053.5,-432.07 1060.5,-432.07"/>
</g>
<!-- roo_transceivers&#45;&gt;roo_testing -->
<g id="edge41" class="edge">
<title>roo_transceivers&#45;&gt;roo_testing</title>
<path fill="none" stroke="red" d="M1069.85,-479.88C1080.46,-464.67 1095.73,-442.25 1108,-422 1143.15,-364 1144.18,-344.95 1181,-288 1198.57,-260.83 1214.68,-260.67 1225,-230 1230.38,-213.99 1231.62,-207.54 1225,-192 1189.59,-108.91 1157.83,-89.61 1074,-56 1019.41,-34.11 854.42,-25.11 765.05,-21.77"/>
<polygon fill="red" stroke="red" points="764.92,-18.26 754.8,-21.4 764.67,-25.26 764.92,-18.26"/>
<text text-anchor="middle" x="1249" y="-262" font-family="Times,serif" font-size="10.00" fill="red">1.1.8</text>
<text text-anchor="middle" x="1249" y="-251" font-family="Times,serif" font-size="10.00" fill="red">(latest: 1.2.0)</text>
</g>
<!-- roo_transport -->
<g id="node22" class="node">
<title>roo_transport</title>
<polygon fill="plum" stroke="black" points="535,-518 421,-518 421,-480 535,-480 535,-518"/>
<text text-anchor="middle" x="478" y="-502.8" font-family="Times,serif" font-size="14.00">roo_transport</text>
<text text-anchor="middle" x="478" y="-487.8" font-family="Times,serif" font-size="14.00">1.0.2</text>
</g>
<!-- roo_transport&#45;&gt;roo_collections -->
<g id="edge44" class="edge">
<title>roo_transport&#45;&gt;roo_collections</title>
<path fill="none" stroke="black" d="M455.22,-479.96C437.91,-465.5 414.2,-444.04 397,-422 350.28,-362.15 310.88,-281.32 291.99,-239.55"/>
<polygon fill="black" stroke="black" points="295.12,-237.98 287.85,-230.28 288.73,-240.84 295.12,-237.98"/>
</g>
<!-- roo_transport&#45;&gt;roo_io -->
<g id="edge45" class="edge">
<title>roo_transport&#45;&gt;roo_io</title>
<path fill="none" stroke="black" d="M466.5,-479.63C463.23,-474.07 459.8,-467.88 457,-462 452.39,-452.33 448.04,-441.42 444.44,-431.7"/>
<polygon fill="black" stroke="black" points="447.67,-430.32 440.99,-422.09 441.08,-432.68 447.67,-430.32"/>
</g>
<!-- roo_transport&#45;&gt;roo_testing -->
<g id="edge43" class="edge">
<title>roo_transport&#45;&gt;roo_testing</title>
<path fill="none" stroke="red" d="M477.58,-479.97C476.69,-441.44 474.69,-348.19 474,-270 473.91,-260.22 470.26,-257.03 474,-248 478.33,-237.55 486.01,-239.6 492,-230 525.34,-176.59 516.72,-155.26 538,-96 544.42,-78.13 538.75,-68.54 553,-56 578.58,-33.49 615.62,-24.37 646.84,-20.94"/>
<polygon fill="red" stroke="red" points="647.55,-24.39 657.18,-19.99 646.9,-17.42 647.55,-24.39"/>
<text text-anchor="middle" x="507" y="-262" font-family="Times,serif" font-size="10.00" fill="red">1.1.8</text>
<text text-anchor="middle" x="507" y="-251" font-family="Times,serif" font-size="10.00" fill="red">(latest: 1.2.0)</text>
</g>
<!-- roo_wifi -->
<g id="node23" class="node">
<title>roo_wifi</title>
<polygon fill="#b1dbab" stroke="black" points="1491,-518 1419,-518 1419,-480 1491,-480 1491,-518"/>
<text text-anchor="middle" x="1455" y="-502.8" font-family="Times,serif" font-size="14.00">roo_wifi</text>
<text text-anchor="middle" x="1455" y="-487.8" font-family="Times,serif" font-size="14.00">1.1.2</text>
</g>
<!-- roo_wifi&#45;&gt;roo_prefs -->
<g id="edge47" class="edge">
<title>roo_wifi&#45;&gt;roo_prefs</title>
<path fill="none" stroke="black" d="M1418.98,-489.49C1348.07,-472.75 1190.21,-435.46 1108.39,-416.14"/>
<polygon fill="black" stroke="black" points="1109.09,-412.71 1098.56,-413.81 1107.48,-419.52 1109.09,-412.71"/>
</g>
<!-- roo_wifi&#45;&gt;roo_testing -->
<g id="edge46" class="edge">
<title>roo_wifi&#45;&gt;roo_testing</title>
<path fill="none" stroke="red" d="M1460.29,-479.8C1465.28,-461 1472,-430.7 1472,-404 1472,-404 1472,-404 1472,-114 1472,-74.61 1441.54,-70.7 1405,-56 1346.46,-32.45 922.68,-23.41 764.94,-20.85"/>
<polygon fill="red" stroke="red" points="764.56,-17.34 754.5,-20.68 764.44,-24.34 764.56,-17.34"/>
<text text-anchor="middle" x="1505" y="-262" font-family="Times,serif" font-size="10.00" fill="red">1.1.8</text>
<text text-anchor="middle" x="1505" y="-251" font-family="Times,serif" font-size="10.00" fill="red">(latest: 1.2.0)</text>
</g>
<!-- roo_windows&#45;&gt;roo_icons -->
<g id="edge51" class="edge">
<title>roo_windows&#45;&gt;roo_icons</title>
<path fill="none" stroke="black" d="M763.33,-688.52C662.07,-685.28 449.24,-676.01 379,-654 354.86,-646.44 330.25,-632.26 311.49,-619.82"/>
<polygon fill="black" stroke="black" points="313.27,-616.8 303.04,-614.07 309.34,-622.59 313.27,-616.8"/>
</g>
<!-- roo_windows&#45;&gt;roo_io -->
<g id="edge52" class="edge">
<title>roo_windows&#45;&gt;roo_io</title>
<path fill="none" stroke="red" d="M763.32,-686.37C697.81,-681.34 592.45,-670.92 557,-654 477.26,-615.95 447.11,-599.08 412,-518 399.8,-489.83 410.21,-454.91 420.67,-431.19"/>
<polygon fill="red" stroke="red" points="423.87,-432.61 424.94,-422.07 417.53,-429.64 423.87,-432.61"/>
<text text-anchor="middle" x="464" y="-550" font-family="Times,serif" font-size="10.00" fill="red">2.0.2</text>
<text text-anchor="middle" x="464" y="-539" font-family="Times,serif" font-size="10.00" fill="red">(latest: 2.0.3)</text>
</g>
<!-- roo_windows&#45;&gt;roo_locale -->
<g id="edge49" class="edge">
<title>roo_windows&#45;&gt;roo_locale</title>
<path fill="none" stroke="black" d="M855.21,-671.88C886.45,-656.66 931.22,-634.85 964.76,-618.52"/>
<polygon fill="black" stroke="black" points="966.44,-621.59 973.9,-614.07 963.38,-615.3 966.44,-621.59"/>
</g>
<!-- roo_windows&#45;&gt;roo_logging -->
<g id="edge50" class="edge">
<title>roo_windows&#45;&gt;roo_logging</title>
<path fill="none" stroke="red" d="M786.17,-671.94C742.28,-644.97 665.08,-589.6 634,-518 602.65,-445.78 683.54,-369.84 732.61,-332.16"/>
<polygon fill="red" stroke="red" points="734.89,-334.82 740.77,-326.01 730.68,-329.23 734.89,-334.82"/>
<text text-anchor="middle" x="667" y="-502" font-family="Times,serif" font-size="10.00" fill="red">1.4.2</text>
<text text-anchor="middle" x="667" y="-491" font-family="Times,serif" font-size="10.00" fill="red">(latest: 1.4.3)</text>
</g>
<!-- roo_windows&#45;&gt;roo_scheduler -->
<g id="edge53" class="edge">
<title>roo_windows&#45;&gt;roo_scheduler</title>
<path fill="none" stroke="red" d="M872.75,-687.98C979.04,-682.56 1203,-663.17 1203,-596 1203,-596 1203,-596 1203,-450 1203,-367.21 1097.41,-331.98 1024.31,-317.51"/>
<polygon fill="red" stroke="red" points="1024.7,-314.02 1014.22,-315.6 1023.4,-320.9 1024.7,-314.02"/>
<text text-anchor="middle" x="1236" y="-502" font-family="Times,serif" font-size="10.00" fill="red">2.1.4</text>
<text text-anchor="middle" x="1236" y="-491" font-family="Times,serif" font-size="10.00" fill="red">(latest: 2.1.5)</text>
</g>
<!-- roo_windows&#45;&gt;roo_testing -->
<g id="edge48" class="edge">
<title>roo_windows&#45;&gt;roo_testing</title>
<path fill="none" stroke="red" d="M872.67,-688.08C975.69,-684.07 1194.82,-673.49 1268,-654 1326.4,-638.45 1391,-656.44 1391,-596 1391,-596 1391,-596 1391,-114 1391,-51.02 930.69,-28.13 764.74,-21.92"/>
<polygon fill="red" stroke="red" points="764.84,-18.42 754.71,-21.55 764.58,-25.42 764.84,-18.42"/>
<text text-anchor="middle" x="1424" y="-358" font-family="Times,serif" font-size="10.00" fill="red">1.1.7</text>
<text text-anchor="middle" x="1424" y="-347" font-family="Times,serif" font-size="10.00" fill="red">(latest: 1.2.0)</text>
</g>
<!-- roo_windows&#45;&gt;roo_time -->
<g id="edge54" class="edge">
<title>roo_windows&#45;&gt;roo_time</title>
<path fill="none" stroke="red" d="M872.95,-690.64C998.77,-690.64 1297,-681.59 1297,-596 1297,-596 1297,-596 1297,-354 1297,-275.21 1291.83,-233.73 1225,-192 1148.73,-144.38 1043.53,-126.46 982.14,-119.82"/>
<polygon fill="red" stroke="red" points="982.24,-116.31 971.93,-118.78 981.53,-123.28 982.24,-116.31"/>
<text text-anchor="middle" x="1330" y="-406" font-family="Times,serif" font-size="10.00" fill="red">1.3.2</text>
<text text-anchor="middle" x="1330" y="-395" font-family="Times,serif" font-size="10.00" fill="red">(latest: 1.3.3)</text>
</g>
<!-- roo_windows_wifi -->
<g id="node25" class="node">
<title>roo_windows_wifi</title>
<polygon fill="#b1dbab" stroke="black" points="888.5,-785 747.5,-785 747.5,-747 888.5,-747 888.5,-785"/>
<text text-anchor="middle" x="818" y="-769.8" font-family="Times,serif" font-size="14.00">roo_windows_wifi</text>
<text text-anchor="middle" x="818" y="-754.8" font-family="Times,serif" font-size="14.00">1.1.2</text>
</g>
<!-- roo_windows_wifi&#45;&gt;roo_testing -->
<g id="edge55" class="edge">
<title>roo_windows_wifi&#45;&gt;roo_testing</title>
<path fill="none" stroke="red" d="M747.39,-759.63C566.75,-745.64 102,-708.11 102,-692 102,-692 102,-692 102,-114 102,-77.54 126.8,-71.05 160,-56 203.44,-36.31 514.69,-25.36 646.87,-21.55"/>
<polygon fill="red" stroke="red" points="647.31,-25.04 657.21,-21.26 647.11,-18.04 647.31,-25.04"/>
<text text-anchor="middle" x="135" y="-406" font-family="Times,serif" font-size="10.00" fill="red">1.1.7</text>
<text text-anchor="middle" x="135" y="-395" font-family="Times,serif" font-size="10.00" fill="red">(latest: 1.2.0)</text>
</g>
<!-- roo_windows_wifi&#45;&gt;roo_wifi -->
<g id="edge56" class="edge">
<title>roo_windows_wifi&#45;&gt;roo_wifi</title>
<path fill="none" stroke="red" d="M888.64,-760.52C1027.47,-750.32 1329,-720.91 1405,-654 1441.42,-621.93 1451.46,-563.08 1454.13,-528.15"/>
<polygon fill="red" stroke="red" points="1457.63,-528.33 1454.75,-518.14 1450.64,-527.9 1457.63,-528.33"/>
<text text-anchor="middle" x="1456" y="-646" font-family="Times,serif" font-size="10.00" fill="red">1.1.1</text>
<text text-anchor="middle" x="1456" y="-635" font-family="Times,serif" font-size="10.00" fill="red">(latest: 1.1.2)</text>
</g>
<!-- roo_windows_wifi&#45;&gt;roo_windows -->
<g id="edge57" class="edge">
<title>roo_windows_wifi&#45;&gt;roo_windows</title>
<path fill="none" stroke="black" d="M818,-746.96C818,-738.88 818,-729.18 818,-720.18"/>
<polygon fill="black" stroke="black" points="821.5,-720.09 818,-710.09 814.5,-720.09 821.5,-720.09"/>
</g>
</g>
</svg>
