<?xml version="1.0" encoding="UTF-8" standalone="no"?>
<!DOCTYPE svg PUBLIC "-//W3C//DTD SVG 1.1//EN"
 "http://www.w3.org/Graphics/SVG/1.1/DTD/svg11.dtd">
<!-- Generated by graphviz version 2.42.4 (0)
 -->
<!-- Title: dependencies Pages: 1 -->
<svg width="831pt" height="746pt"
 viewBox="0.00 0.00 831.00 746.00" xmlns="http://www.w3.org/2000/svg" xmlns:xlink="http://www.w3.org/1999/xlink">
<g id="graph0" class="graph" transform="scale(1 1) rotate(0) translate(4 742)">
<title>dependencies</title>
<polygon fill="white" stroke="transparent" points="-4,4 -4,-742 827,-742 827,4 -4,4"/>
<!-- roo_backport -->
<g id="node1" class="node">
<title>roo_backport</title>
<polygon fill="#b1dbab" stroke="black" points="547,-188 437,-188 437,-150 547,-150 547,-188"/>
<text text-anchor="middle" x="492" y="-172.8" font-family="Times,serif" font-size="14.00">roo_backport</text>
<text text-anchor="middle" x="492" y="-157.8" font-family="Times,serif" font-size="14.00">1.2.1</text>
</g>
<!-- roo_blink -->
<g id="node2" class="node">
<title>roo_blink</title>
<polygon fill="#b1dbab" stroke="black" points="150,-434 68,-434 68,-396 150,-396 150,-434"/>
<text text-anchor="middle" x="109" y="-418.8" font-family="Times,serif" font-size="14.00">roo_blink</text>
<text text-anchor="middle" x="109" y="-403.8" font-family="Times,serif" font-size="14.00">1.0.5</text>
</g>
<!-- roo_logging -->
<g id="node12" class="node">
<title>roo_logging</title>
<polygon fill="#b1dbab" stroke="black" points="429,-263 329,-263 329,-225 429,-225 429,-263"/>
<text text-anchor="middle" x="379" y="-247.8" font-family="Times,serif" font-size="14.00">roo_logging</text>
<text text-anchor="middle" x="379" y="-232.8" font-family="Times,serif" font-size="14.00">1.5.3</text>
</g>
<!-- roo_blink&#45;&gt;roo_logging -->
<g id="edge1" class="edge">
<title>roo_blink&#45;&gt;roo_logging</title>
<path fill="none" stroke="black" d="M123.31,-395.61C143.2,-371.06 181.37,-327.48 222,-300 251.25,-280.22 288.37,-266.79 319.18,-258.15"/>
<polygon fill="black" stroke="black" points="320.2,-261.5 328.94,-255.51 318.37,-254.74 320.2,-261.5"/>
</g>
<!-- roo_scheduler -->
<g id="node16" class="node">
<title>roo_scheduler</title>
<polygon fill="#b1dbab" stroke="black" points="373,-338 257,-338 257,-300 373,-300 373,-338"/>
<text text-anchor="middle" x="315" y="-322.8" font-family="Times,serif" font-size="14.00">roo_scheduler</text>
<text text-anchor="middle" x="315" y="-307.8" font-family="Times,serif" font-size="14.00">2.1.7</text>
</g>
<!-- roo_blink&#45;&gt;roo_scheduler -->
<g id="edge2" class="edge">
<title>roo_blink&#45;&gt;roo_scheduler</title>
<path fill="none" stroke="black" d="M148.72,-395.88C182.2,-380.6 230.26,-358.67 266.1,-342.31"/>
<polygon fill="black" stroke="black" points="267.76,-345.4 275.4,-338.07 264.85,-339.04 267.76,-345.4"/>
</g>
<!-- roo_collections -->
<g id="node3" class="node">
<title>roo_collections</title>
<polygon fill="#b1dbab" stroke="black" points="643,-263 521,-263 521,-225 643,-225 643,-263"/>
<text text-anchor="middle" x="582" y="-247.8" font-family="Times,serif" font-size="14.00">roo_collections</text>
<text text-anchor="middle" x="582" y="-232.8" font-family="Times,serif" font-size="14.00">1.4.1</text>
</g>
<!-- roo_collections&#45;&gt;roo_backport -->
<g id="edge3" class="edge">
<title>roo_collections&#45;&gt;roo_backport</title>
<path fill="none" stroke="black" d="M559.75,-224.96C548.39,-215.74 534.41,-204.4 522.1,-194.42"/>
<polygon fill="black" stroke="black" points="524.27,-191.67 514.3,-188.09 519.86,-197.11 524.27,-191.67"/>
</g>
<!-- roo_comms -->
<g id="node4" class="node">
<title>roo_comms</title>
<polygon fill="plum" stroke="red" points="385.5,-642 288.5,-642 288.5,-604 385.5,-604 385.5,-642"/>
<text text-anchor="middle" x="337" y="-626.8" font-family="Times,serif" font-size="14.00">roo_comms</text>
<text text-anchor="middle" x="337" y="-611.8" font-family="Times,serif" font-size="14.00">1.1.3</text>
</g>
<!-- roo_comms&#45;&gt;roo_blink -->
<g id="edge4" class="edge">
<title>roo_comms&#45;&gt;roo_blink</title>
<path fill="none" stroke="red" d="M288.14,-615.41C237.88,-605.86 161.52,-583.08 122,-530 103.68,-505.39 102.7,-469.14 104.82,-444.15"/>
<polygon fill="red" stroke="red" points="108.3,-444.52 105.88,-434.2 101.34,-443.78 108.3,-444.52"/>
<text text-anchor="middle" x="155" y="-514" font-family="Times,serif" font-size="10.00" fill="red">1.0.4</text>
<text text-anchor="middle" x="155" y="-503" font-family="Times,serif" font-size="10.00" fill="red">(latest: 1.0.5)</text>
</g>
<!-- roo_control -->
<g id="node5" class="node">
<title>roo_control</title>
<polygon fill="#b1dbab" stroke="black" points="366.5,-434 269.5,-434 269.5,-396 366.5,-396 366.5,-434"/>
<text text-anchor="middle" x="318" y="-418.8" font-family="Times,serif" font-size="14.00">roo_control</text>
<text text-anchor="middle" x="318" y="-403.8" font-family="Times,serif" font-size="14.00">1.2.4</text>
</g>
<!-- roo_comms&#45;&gt;roo_control -->
<g id="edge5" class="edge">
<title>roo_comms&#45;&gt;roo_control</title>
<path fill="none" stroke="red" d="M339.58,-603.8C342.7,-578.55 346.85,-531.54 341,-492 338.58,-475.65 333.38,-457.94 328.54,-443.74"/>
<polygon fill="red" stroke="red" points="331.76,-442.34 325.12,-434.08 325.16,-444.68 331.76,-442.34"/>
<text text-anchor="middle" x="377" y="-514" font-family="Times,serif" font-size="10.00" fill="red">1.2.3</text>
<text text-anchor="middle" x="377" y="-503" font-family="Times,serif" font-size="10.00" fill="red">(latest: 1.2.4)</text>
</g>
<!-- roo_io -->
<g id="node10" class="node">
<title>roo_io</title>
<polygon fill="#b1dbab" stroke="black" points="575.5,-338 516.5,-338 516.5,-300 575.5,-300 575.5,-338"/>
<text text-anchor="middle" x="546" y="-322.8" font-family="Times,serif" font-size="14.00">roo_io</text>
<text text-anchor="middle" x="546" y="-307.8" font-family="Times,serif" font-size="14.00">2.1.3</text>
</g>
<!-- roo_comms&#45;&gt;roo_io -->
<g id="edge6" class="edge">
<title>roo_comms&#45;&gt;roo_io</title>
<path fill="none" stroke="red" d="M353.19,-603.77C369.17,-585.52 394.04,-556.43 414,-530 439.26,-496.55 436.33,-480.57 467,-452 478.66,-441.14 487.48,-445.96 498,-434 519.85,-409.17 532.78,-372.96 539.62,-348.05"/>
<polygon fill="red" stroke="red" points="543.07,-348.69 542.18,-338.13 536.29,-346.93 543.07,-348.69"/>
<text text-anchor="middle" x="500" y="-466" font-family="Times,serif" font-size="10.00" fill="red">2.1.1</text>
<text text-anchor="middle" x="500" y="-455" font-family="Times,serif" font-size="10.00" fill="red">(latest: 2.1.3)</text>
</g>
<!-- roo_transceivers -->
<g id="node21" class="node">
<title>roo_transceivers</title>
<polygon fill="khaki" stroke="red" points="332.5,-530 197.5,-530 197.5,-492 332.5,-492 332.5,-530"/>
<text text-anchor="middle" x="265" y="-514.8" font-family="Times,serif" font-size="14.00">roo_transceivers</text>
<text text-anchor="middle" x="265" y="-499.8" font-family="Times,serif" font-size="14.00">1.1.4</text>
</g>
<!-- roo_comms&#45;&gt;roo_transceivers -->
<g id="edge7" class="edge">
<title>roo_comms&#45;&gt;roo_transceivers</title>
<path fill="none" stroke="black" d="M325.11,-603.84C313.49,-586.08 295.67,-558.85 282.44,-538.65"/>
<polygon fill="black" stroke="black" points="285.31,-536.64 276.91,-530.19 279.46,-540.48 285.31,-536.64"/>
</g>
<!-- roo_quantity -->
<g id="node15" class="node">
<title>roo_quantity</title>
<polygon fill="#b1dbab" stroke="black" points="498.5,-338 391.5,-338 391.5,-300 498.5,-300 498.5,-338"/>
<text text-anchor="middle" x="445" y="-322.8" font-family="Times,serif" font-size="14.00">roo_quantity</text>
<text text-anchor="middle" x="445" y="-307.8" font-family="Times,serif" font-size="14.00">1.1.7</text>
</g>
<!-- roo_control&#45;&gt;roo_quantity -->
<g id="edge8" class="edge">
<title>roo_control&#45;&gt;roo_quantity</title>
<path fill="none" stroke="black" d="M342.49,-395.88C362.34,-381.18 390.5,-360.34 412.28,-344.21"/>
<polygon fill="black" stroke="black" points="414.63,-346.83 420.59,-338.07 410.47,-341.2 414.63,-346.83"/>
</g>
<!-- roo_control&#45;&gt;roo_scheduler -->
<g id="edge9" class="edge">
<title>roo_control&#45;&gt;roo_scheduler</title>
<path fill="none" stroke="black" d="M317.42,-395.88C316.99,-382.35 316.39,-363.62 315.9,-348.15"/>
<polygon fill="black" stroke="black" points="319.39,-347.95 315.58,-338.07 312.4,-348.18 319.39,-347.95"/>
</g>
<!-- roo_dashboard -->
<g id="node6" class="node">
<title>roo_dashboard</title>
<polygon fill="khaki" stroke="red" points="652,-738 530,-738 530,-700 652,-700 652,-738"/>
<text text-anchor="middle" x="591" y="-722.8" font-family="Times,serif" font-size="14.00">roo_dashboard</text>
<text text-anchor="middle" x="591" y="-707.8" font-family="Times,serif" font-size="14.00">1.0.1</text>
</g>
<!-- roo_windows -->
<g id="node24" class="node">
<title>roo_windows</title>
<polygon fill="plum" stroke="red" points="645.5,-642 536.5,-642 536.5,-604 645.5,-604 645.5,-642"/>
<text text-anchor="middle" x="591" y="-626.8" font-family="Times,serif" font-size="14.00">roo_windows</text>
<text text-anchor="middle" x="591" y="-611.8" font-family="Times,serif" font-size="14.00">1.4.2</text>
</g>
<!-- roo_dashboard&#45;&gt;roo_windows -->
<g id="edge10" class="edge">
<title>roo_dashboard&#45;&gt;roo_windows</title>
<path fill="none" stroke="red" d="M591,-699.88C591,-686.35 591,-667.62 591,-652.15"/>
<polygon fill="red" stroke="red" points="594.5,-652.07 591,-642.07 587.5,-652.07 594.5,-652.07"/>
<text text-anchor="middle" x="624" y="-674" font-family="Times,serif" font-size="10.00" fill="red">1.4.1</text>
<text text-anchor="middle" x="624" y="-663" font-family="Times,serif" font-size="10.00" fill="red">(latest: 1.4.2)</text>
</g>
<!-- roo_display -->
<g id="node7" class="node">
<title>roo_display</title>
<polygon fill="khaki" stroke="red" points="813,-434 715,-434 715,-396 813,-396 813,-434"/>
<text text-anchor="middle" x="764" y="-418.8" font-family="Times,serif" font-size="14.00">roo_display</text>
<text text-anchor="middle" x="764" y="-403.8" font-family="Times,serif" font-size="14.00">2.3.2</text>
</g>
<!-- roo_display&#45;&gt;roo_collections -->
<g id="edge11" class="edge">
<title>roo_display&#45;&gt;roo_collections</title>
<path fill="none" stroke="red" d="M745.16,-395.58C718.42,-369.59 667.71,-320.86 623,-281 619.04,-277.47 614.84,-273.75 610.71,-270.11"/>
<polygon fill="red" stroke="red" points="612.73,-267.23 602.91,-263.25 608.11,-272.49 612.73,-267.23"/>
<text text-anchor="middle" x="716" y="-322" font-family="Times,serif" font-size="10.00" fill="red">1.4.0</text>
<text text-anchor="middle" x="716" y="-311" font-family="Times,serif" font-size="10.00" fill="red">(latest: 1.4.1)</text>
</g>
<!-- roo_display&#45;&gt;roo_io -->
<g id="edge12" class="edge">
<title>roo_display&#45;&gt;roo_io</title>
<path fill="none" stroke="red" d="M714.75,-398.44C691.73,-390.99 667,-382.69 656,-378 631.61,-367.59 605.31,-353.82 584.53,-342.31"/>
<polygon fill="red" stroke="red" points="586.14,-339.19 575.7,-337.36 582.72,-345.3 586.14,-339.19"/>
<text text-anchor="middle" x="689" y="-370" font-family="Times,serif" font-size="10.00" fill="red">2.1.2</text>
<text text-anchor="middle" x="689" y="-359" font-family="Times,serif" font-size="10.00" fill="red">(latest: 2.1.3)</text>
</g>
<!-- roo_flags -->
<g id="node8" class="node">
<title>roo_flags</title>
<polygon fill="#b1dbab" stroke="black" points="419,-188 339,-188 339,-150 419,-150 419,-188"/>
<text text-anchor="middle" x="379" y="-172.8" font-family="Times,serif" font-size="14.00">roo_flags</text>
<text text-anchor="middle" x="379" y="-157.8" font-family="Times,serif" font-size="14.00">1.2.1</text>
</g>
<!-- roo_icons -->
<g id="node9" class="node">
<title>roo_icons</title>
<polygon fill="plum" stroke="red" points="788.5,-530 705.5,-530 705.5,-492 788.5,-492 788.5,-530"/>
<text text-anchor="middle" x="747" y="-514.8" font-family="Times,serif" font-size="14.00">roo_icons</text>
<text text-anchor="middle" x="747" y="-499.8" font-family="Times,serif" font-size="14.00">1.2.1</text>
</g>
<!-- roo_icons&#45;&gt;roo_display -->
<g id="edge13" class="edge">
<title>roo_icons&#45;&gt;roo_display</title>
<path fill="none" stroke="red" d="M750.28,-491.88C752.72,-478.35 756.11,-459.62 758.91,-444.15"/>
<polygon fill="red" stroke="red" points="762.4,-444.53 760.73,-434.07 755.51,-443.29 762.4,-444.53"/>
<text text-anchor="middle" x="790" y="-466" font-family="Times,serif" font-size="10.00" fill="red">2.3.1</text>
<text text-anchor="middle" x="790" y="-455" font-family="Times,serif" font-size="10.00" fill="red">(latest: 2.3.2)</text>
</g>
<!-- roo_io&#45;&gt;roo_logging -->
<g id="edge14" class="edge">
<title>roo_io&#45;&gt;roo_logging</title>
<path fill="none" stroke="black" d="M516.23,-304.16C513.12,-302.74 510,-301.34 507,-300 482.14,-288.93 454.42,-276.96 431.14,-267.03"/>
<polygon fill="black" stroke="black" points="432.36,-263.75 421.79,-263.05 429.62,-270.19 432.36,-263.75"/>
</g>
<!-- roo_locale -->
<g id="node11" class="node">
<title>roo_locale</title>
<polygon fill="#b1dbab" stroke="black" points="671,-530 583,-530 583,-492 671,-492 671,-530"/>
<text text-anchor="middle" x="627" y="-514.8" font-family="Times,serif" font-size="14.00">roo_locale</text>
<text text-anchor="middle" x="627" y="-499.8" font-family="Times,serif" font-size="14.00">1.1.1</text>
</g>
<!-- roo_logging&#45;&gt;roo_backport -->
<g id="edge15" class="edge">
<title>roo_logging&#45;&gt;roo_backport</title>
<path fill="none" stroke="black" d="M406.93,-224.96C421.6,-215.48 439.76,-203.75 455.52,-193.57"/>
<polygon fill="black" stroke="black" points="457.5,-196.46 464,-188.09 453.7,-190.58 457.5,-196.46"/>
</g>
<!-- roo_logging&#45;&gt;roo_flags -->
<g id="edge16" class="edge">
<title>roo_logging&#45;&gt;roo_flags</title>
<path fill="none" stroke="black" d="M379,-224.96C379,-216.88 379,-207.18 379,-198.18"/>
<polygon fill="black" stroke="black" points="382.5,-198.09 379,-188.09 375.5,-198.09 382.5,-198.09"/>
</g>
<!-- roo_threads -->
<g id="node18" class="node">
<title>roo_threads</title>
<polygon fill="#b1dbab" stroke="black" points="320.5,-188 219.5,-188 219.5,-150 320.5,-150 320.5,-188"/>
<text text-anchor="middle" x="270" y="-172.8" font-family="Times,serif" font-size="14.00">roo_threads</text>
<text text-anchor="middle" x="270" y="-157.8" font-family="Times,serif" font-size="14.00">1.2.1</text>
</g>
<!-- roo_logging&#45;&gt;roo_threads -->
<g id="edge17" class="edge">
<title>roo_logging&#45;&gt;roo_threads</title>
<path fill="none" stroke="black" d="M352.06,-224.96C338.04,-215.57 320.72,-203.97 305.61,-193.85"/>
<polygon fill="black" stroke="black" points="307.27,-190.75 297.01,-188.09 303.37,-196.56 307.27,-190.75"/>
</g>
<!-- roo_onewire -->
<g id="node13" class="node">
<title>roo_onewire</title>
<polygon fill="#b1dbab" stroke="black" points="489,-434 385,-434 385,-396 489,-396 489,-434"/>
<text text-anchor="middle" x="437" y="-418.8" font-family="Times,serif" font-size="14.00">roo_onewire</text>
<text text-anchor="middle" x="437" y="-403.8" font-family="Times,serif" font-size="14.00">2.0.8</text>
</g>
<!-- roo_onewire&#45;&gt;roo_quantity -->
<g id="edge19" class="edge">
<title>roo_onewire&#45;&gt;roo_quantity</title>
<path fill="none" stroke="black" d="M438.54,-395.88C439.69,-382.35 441.29,-363.62 442.6,-348.15"/>
<polygon fill="black" stroke="black" points="446.1,-348.33 443.46,-338.07 439.13,-347.74 446.1,-348.33"/>
</g>
<!-- roo_onewire&#45;&gt;roo_scheduler -->
<g id="edge18" class="edge">
<title>roo_onewire&#45;&gt;roo_scheduler</title>
<path fill="none" stroke="black" d="M413.48,-395.88C394.41,-381.18 367.35,-360.34 346.43,-344.21"/>
<polygon fill="black" stroke="black" points="348.51,-341.4 338.45,-338.07 344.24,-346.94 348.51,-341.4"/>
</g>
<!-- roo_prefs -->
<g id="node14" class="node">
<title>roo_prefs</title>
<polygon fill="#b1dbab" stroke="black" points="251.5,-434 168.5,-434 168.5,-396 251.5,-396 251.5,-434"/>
<text text-anchor="middle" x="210" y="-418.8" font-family="Times,serif" font-size="14.00">roo_prefs</text>
<text text-anchor="middle" x="210" y="-403.8" font-family="Times,serif" font-size="14.00">1.2.8</text>
</g>
<!-- roo_prefs&#45;&gt;roo_logging -->
<g id="edge20" class="edge">
<title>roo_prefs&#45;&gt;roo_logging</title>
<path fill="none" stroke="black" d="M211.45,-395.87C214.34,-371.21 222.9,-327.08 248,-300 266.8,-279.72 294.26,-266.65 319.19,-258.37"/>
<polygon fill="black" stroke="black" points="320.45,-261.64 328.96,-255.32 318.37,-254.96 320.45,-261.64"/>
</g>
<!-- roo_prefs&#45;&gt;roo_scheduler -->
<g id="edge21" class="edge">
<title>roo_prefs&#45;&gt;roo_scheduler</title>
<path fill="none" stroke="black" d="M247.75,-395.9C256.54,-390.77 265.5,-384.73 273,-378 283.05,-368.98 292.13,-357.18 299.25,-346.57"/>
<polygon fill="black" stroke="black" points="302.28,-348.34 304.76,-338.04 296.4,-344.54 302.28,-348.34"/>
</g>
<!-- roo_quantity&#45;&gt;roo_logging -->
<g id="edge22" class="edge">
<title>roo_quantity&#45;&gt;roo_logging</title>
<path fill="none" stroke="black" d="M428.69,-299.96C420.67,-291.09 410.88,-280.26 402.11,-270.56"/>
<polygon fill="black" stroke="black" points="404.66,-268.16 395.36,-263.09 399.47,-272.86 404.66,-268.16"/>
</g>
<!-- roo_scheduler&#45;&gt;roo_collections -->
<g id="edge23" class="edge">
<title>roo_scheduler&#45;&gt;roo_collections</title>
<path fill="none" stroke="black" d="M373.26,-302.07C413.69,-291.02 467.79,-276.23 510.78,-264.47"/>
<polygon fill="black" stroke="black" points="511.89,-267.8 520.61,-261.78 510.04,-261.05 511.89,-267.8"/>
</g>
<!-- roo_scheduler&#45;&gt;roo_threads -->
<g id="edge24" class="edge">
<title>roo_scheduler&#45;&gt;roo_threads</title>
<path fill="none" stroke="black" d="M309.48,-299.85C301.76,-274.44 287.64,-228.03 278.55,-198.12"/>
<polygon fill="black" stroke="black" points="281.82,-196.85 275.56,-188.3 275.12,-198.88 281.82,-196.85"/>
</g>
<!-- roo_testing -->
<g id="node17" class="node">
<title>roo_testing</title>
<polygon fill="#b1dbab" stroke="black" points="500.5,-38 403.5,-38 403.5,0 500.5,0 500.5,-38"/>
<text text-anchor="middle" x="452" y="-22.8" font-family="Times,serif" font-size="14.00">roo_testing</text>
<text text-anchor="middle" x="452" y="-7.8" font-family="Times,serif" font-size="14.00">1.2.1</text>
</g>
<!-- roo_time -->
<g id="node19" class="node">
<title>roo_time</title>
<polygon fill="#b1dbab" stroke="black" points="491.5,-113 412.5,-113 412.5,-75 491.5,-75 491.5,-113"/>
<text text-anchor="middle" x="452" y="-97.8" font-family="Times,serif" font-size="14.00">roo_time</text>
<text text-anchor="middle" x="452" y="-82.8" font-family="Times,serif" font-size="14.00">1.4.1</text>
</g>
<!-- roo_threads&#45;&gt;roo_time -->
<g id="edge25" class="edge">
<title>roo_threads&#45;&gt;roo_time</title>
<path fill="none" stroke="black" d="M314.99,-149.96C341.73,-139.23 375.67,-125.62 403.07,-114.62"/>
<polygon fill="black" stroke="black" points="404.5,-117.83 412.47,-110.85 401.89,-111.33 404.5,-117.83"/>
</g>
<!-- roo_time&#45;&gt;roo_testing -->
<g id="edge26" class="edge">
<title>roo_time&#45;&gt;roo_testing</title>
<path fill="none" stroke="black" d="M452,-74.96C452,-66.88 452,-57.18 452,-48.18"/>
<polygon fill="black" stroke="black" points="455.5,-48.09 452,-38.09 448.5,-48.09 455.5,-48.09"/>
</g>
<!-- roo_time_ds3231 -->
<g id="node20" class="node">
<title>roo_time_ds3231</title>
<polygon fill="#b1dbab" stroke="black" points="703,-188 565,-188 565,-150 703,-150 703,-188"/>
<text text-anchor="middle" x="634" y="-172.8" font-family="Times,serif" font-size="14.00">roo_time_ds3231</text>
<text text-anchor="middle" x="634" y="-157.8" font-family="Times,serif" font-size="14.00">1.1.5</text>
</g>
<!-- roo_time_ds3231&#45;&gt;roo_time -->
<g id="edge27" class="edge">
<title>roo_time_ds3231&#45;&gt;roo_time</title>
<path fill="none" stroke="black" d="M589.01,-149.96C562.27,-139.23 528.33,-125.62 500.93,-114.62"/>
<polygon fill="black" stroke="black" points="502.11,-111.33 491.53,-110.85 499.5,-117.83 502.11,-111.33"/>
</g>
<!-- roo_transceivers&#45;&gt;roo_prefs -->
<g id="edge28" class="edge">
<title>roo_transceivers&#45;&gt;roo_prefs</title>
<path fill="none" stroke="red" d="M254.4,-491.88C246.25,-477.96 234.89,-458.53 225.69,-442.82"/>
<polygon fill="red" stroke="red" points="228.64,-440.93 220.57,-434.07 222.6,-444.47 228.64,-440.93"/>
<text text-anchor="middle" x="276" y="-466" font-family="Times,serif" font-size="10.00" fill="red">1.2.7</text>
<text text-anchor="middle" x="276" y="-455" font-family="Times,serif" font-size="10.00" fill="red">(latest: 1.2.8)</text>
</g>
<!-- roo_transport -->
<g id="node22" class="node">
<title>roo_transport</title>
<polygon fill="#b1dbab" stroke="black" points="697,-434 583,-434 583,-396 697,-396 697,-434"/>
<text text-anchor="middle" x="640" y="-418.8" font-family="Times,serif" font-size="14.00">roo_transport</text>
<text text-anchor="middle" x="640" y="-403.8" font-family="Times,serif" font-size="14.00">1.1.1</text>
</g>
<!-- roo_transport&#45;&gt;roo_collections -->
<g id="edge29" class="edge">
<title>roo_transport&#45;&gt;roo_collections</title>
<path fill="none" stroke="black" d="M644.68,-395.96C646.93,-384.37 648.46,-369.09 645,-356 636.75,-324.74 617.44,-293.06 602.36,-271.59"/>
<polygon fill="black" stroke="black" points="605.09,-269.39 596.4,-263.32 599.41,-273.48 605.09,-269.39"/>
</g>
<!-- roo_transport&#45;&gt;roo_io -->
<g id="edge30" class="edge">
<title>roo_transport&#45;&gt;roo_io</title>
<path fill="none" stroke="black" d="M582.6,-396.7C573.68,-391.87 565.34,-385.74 559,-378 552.2,-369.71 548.78,-358.59 547.12,-348.31"/>
<polygon fill="black" stroke="black" points="550.56,-347.59 545.95,-338.05 543.6,-348.38 550.56,-347.59"/>
</g>
<!-- roo_wifi -->
<g id="node23" class="node">
<title>roo_wifi</title>
<polygon fill="plum" stroke="red" points="72,-586 0,-586 0,-548 72,-548 72,-586"/>
<text text-anchor="middle" x="36" y="-570.8" font-family="Times,serif" font-size="14.00">roo_wifi</text>
<text text-anchor="middle" x="36" y="-555.8" font-family="Times,serif" font-size="14.00">1.1.3</text>
</g>
<!-- roo_wifi&#45;&gt;roo_prefs -->
<g id="edge31" class="edge">
<title>roo_wifi&#45;&gt;roo_prefs</title>
<path fill="none" stroke="red" d="M26.72,-547.72C20.03,-531.72 13.94,-508.51 25,-492 29.01,-486.01 105.64,-455.82 159,-435.34"/>
<polygon fill="red" stroke="red" points="160.25,-438.61 168.34,-431.77 157.75,-432.08 160.25,-438.61"/>
<text text-anchor="middle" x="58" y="-514" font-family="Times,serif" font-size="10.00" fill="red">1.2.7</text>
<text text-anchor="middle" x="58" y="-503" font-family="Times,serif" font-size="10.00" fill="red">(latest: 1.2.8)</text>
</g>
<!-- roo_windows&#45;&gt;roo_icons -->
<g id="edge33" class="edge">
<title>roo_windows&#45;&gt;roo_icons</title>
<path fill="none" stroke="black" d="M616.76,-603.84C643.15,-585.23 684.29,-556.22 713.26,-535.79"/>
<polygon fill="black" stroke="black" points="715.31,-538.63 721.46,-530.01 711.27,-532.91 715.31,-538.63"/>
</g>
<!-- roo_windows&#45;&gt;roo_locale -->
<g id="edge32" class="edge">
<title>roo_windows&#45;&gt;roo_locale</title>
<path fill="none" stroke="black" d="M596.94,-603.84C602.65,-586.4 611.35,-559.82 617.92,-539.74"/>
<polygon fill="black" stroke="black" points="621.26,-540.78 621.05,-530.19 614.61,-538.61 621.26,-540.78"/>
</g>
<!-- roo_windows&#45;&gt;roo_scheduler -->
<g id="edge34" class="edge">
<title>roo_windows&#45;&gt;roo_scheduler</title>
<path fill="none" stroke="red" d="M586.22,-603.6C577.65,-571.81 558.17,-504.95 533,-452 520.4,-425.49 520.39,-414.97 498,-396 479.01,-379.91 423.02,-357.73 377.92,-341.48"/>
<polygon fill="red" stroke="red" points="379.07,-338.18 368.48,-338.11 376.72,-344.77 379.07,-338.18"/>
<text text-anchor="middle" x="576" y="-466" font-family="Times,serif" font-size="10.00" fill="red">2.1.6</text>
<text text-anchor="middle" x="576" y="-455" font-family="Times,serif" font-size="10.00" fill="red">(latest: 2.1.7)</text>
</g>
<!-- roo_windows_wifi -->
<g id="node25" class="node">
<title>roo_windows_wifi</title>
<polygon fill="khaki" stroke="red" points="383.5,-738 242.5,-738 242.5,-700 383.5,-700 383.5,-738"/>
<text text-anchor="middle" x="313" y="-722.8" font-family="Times,serif" font-size="14.00">roo_windows_wifi</text>
<text text-anchor="middle" x="313" y="-707.8" font-family="Times,serif" font-size="14.00">1.1.3</text>
</g>
<!-- roo_windows_wifi&#45;&gt;roo_wifi -->
<g id="edge35" class="edge">
<title>roo_windows_wifi&#45;&gt;roo_wifi</title>
<path fill="none" stroke="black" d="M279.59,-699.91C229.15,-672.6 133.62,-620.86 78.37,-590.94"/>
<polygon fill="black" stroke="black" points="79.99,-587.84 69.53,-586.16 76.66,-594 79.99,-587.84"/>
</g>
<!-- roo_windows_wifi&#45;&gt;roo_windows -->
<g id="edge36" class="edge">
<title>roo_windows_wifi&#45;&gt;roo_windows</title>
<path fill="none" stroke="black" d="M366.27,-699.99C412.39,-684.39 479.16,-661.82 527.93,-645.33"/>
<polygon fill="black" stroke="black" points="529.08,-648.63 537.43,-642.11 526.84,-642 529.08,-648.63"/>
</g>
</g>
</svg>
