<?xml version="1.0" encoding="UTF-8" standalone="no"?>
<!DOCTYPE svg PUBLIC "-//W3C//DTD SVG 1.1//EN"
 "http://www.w3.org/Graphics/SVG/1.1/DTD/svg11.dtd">
<!-- Generated by graphviz version 2.42.4 (0)
 -->
<!-- Title: dependencies Pages: 1 -->
<svg width="1119pt" height="751pt"
 viewBox="0.00 0.00 1118.50 751.00" xmlns="http://www.w3.org/2000/svg" xmlns:xlink="http://www.w3.org/1999/xlink">
<g id="graph0" class="graph" transform="scale(1 1) rotate(0) translate(4 747)">
<title>dependencies</title>
<polygon fill="white" stroke="transparent" points="-4,4 -4,-747 1114.5,-747 1114.5,4 -4,4"/>
<!-- roo_backport -->
<g id="node1" class="node">
<title>roo_backport</title>
<polygon fill="#b1dbab" stroke="black" points="497,-209 387,-209 387,-171 497,-171 497,-209"/>
<text text-anchor="middle" x="442" y="-193.8" font-family="Times,serif" font-size="14.00">roo_backport</text>
<text text-anchor="middle" x="442" y="-178.8" font-family="Times,serif" font-size="14.00">1.2.2</text>
</g>
<!-- roo_blink -->
<g id="node2" class="node">
<title>roo_blink</title>
<polygon fill="#b1dbab" stroke="black" points="995,-551 913,-551 913,-513 995,-513 995,-551"/>
<text text-anchor="middle" x="954" y="-535.8" font-family="Times,serif" font-size="14.00">roo_blink</text>
<text text-anchor="middle" x="954" y="-520.8" font-family="Times,serif" font-size="14.00">1.0.6</text>
</g>
<!-- roo_logging -->
<g id="node13" class="node">
<title>roo_logging</title>
<polygon fill="khaki" stroke="red" points="749,-284 649,-284 649,-246 749,-246 749,-284"/>
<text text-anchor="middle" x="699" y="-268.8" font-family="Times,serif" font-size="14.00">roo_logging</text>
<text text-anchor="middle" x="699" y="-253.8" font-family="Times,serif" font-size="14.00">1.5.5</text>
</g>
<!-- roo_blink&#45;&gt;roo_logging -->
<g id="edge1" class="edge">
<title>roo_blink&#45;&gt;roo_logging</title>
<path fill="none" stroke="black" d="M950.38,-512.63C945.22,-489.23 934.3,-448.11 916,-417 886.65,-367.11 872.1,-358.48 828,-321 808.03,-304.02 782.04,-291.6 758.62,-282.9"/>
<polygon fill="black" stroke="black" points="759.71,-279.57 749.11,-279.51 757.36,-286.17 759.71,-279.57"/>
</g>
<!-- roo_scheduler -->
<g id="node19" class="node">
<title>roo_scheduler</title>
<polygon fill="#b1dbab" stroke="black" points="429,-455 313,-455 313,-417 429,-417 429,-455"/>
<text text-anchor="middle" x="371" y="-439.8" font-family="Times,serif" font-size="14.00">roo_scheduler</text>
<text text-anchor="middle" x="371" y="-424.8" font-family="Times,serif" font-size="14.00">2.1.9</text>
</g>
<!-- roo_blink&#45;&gt;roo_scheduler -->
<g id="edge2" class="edge">
<title>roo_blink&#45;&gt;roo_scheduler</title>
<path fill="none" stroke="black" d="M912.74,-515.36C909.8,-514.49 906.87,-513.69 904,-513 768.09,-480.24 730.76,-490.06 592,-473 524.04,-464.65 506.26,-467.79 439,-455 438.9,-454.98 438.8,-454.96 438.7,-454.94"/>
<polygon fill="black" stroke="black" points="439.62,-451.56 429.11,-452.96 438.2,-458.41 439.62,-451.56"/>
</g>
<!-- roo_collections -->
<g id="node3" class="node">
<title>roo_collections</title>
<polygon fill="#b1dbab" stroke="black" points="392,-359 270,-359 270,-321 392,-321 392,-359"/>
<text text-anchor="middle" x="331" y="-343.8" font-family="Times,serif" font-size="14.00">roo_collections</text>
<text text-anchor="middle" x="331" y="-328.8" font-family="Times,serif" font-size="14.00">1.4.3</text>
</g>
<!-- roo_collections&#45;&gt;roo_backport -->
<g id="edge3" class="edge">
<title>roo_collections&#45;&gt;roo_backport</title>
<path fill="none" stroke="black" d="M341.67,-320.78C355.38,-297.97 380.45,-258.1 406,-227 408.92,-223.45 412.14,-219.85 415.42,-216.38"/>
<polygon fill="black" stroke="black" points="418.11,-218.63 422.59,-209.03 413.1,-213.74 418.11,-218.63"/>
</g>
<!-- roo_comms -->
<g id="node4" class="node">
<title>roo_comms</title>
<polygon fill="#b1dbab" stroke="red" points="826.5,-743 729.5,-743 729.5,-705 826.5,-705 826.5,-743"/>
<text text-anchor="middle" x="778" y="-727.8" font-family="Times,serif" font-size="14.00">roo_comms</text>
<text text-anchor="middle" x="778" y="-712.8" font-family="Times,serif" font-size="14.00">1.1.4</text>
</g>
<!-- roo_comms&#45;&gt;roo_blink -->
<g id="edge4" class="edge">
<title>roo_comms&#45;&gt;roo_blink</title>
<path fill="none" stroke="black" d="M794.88,-704.78C826.28,-670.88 893.79,-598 929.96,-558.95"/>
<polygon fill="black" stroke="black" points="932.95,-560.88 937.18,-551.16 927.81,-556.12 932.95,-560.88"/>
</g>
<!-- roo_control -->
<g id="node5" class="node">
<title>roo_control</title>
<polygon fill="#b1dbab" stroke="black" points="1110.5,-551 1013.5,-551 1013.5,-513 1110.5,-513 1110.5,-551"/>
<text text-anchor="middle" x="1062" y="-535.8" font-family="Times,serif" font-size="14.00">roo_control</text>
<text text-anchor="middle" x="1062" y="-520.8" font-family="Times,serif" font-size="14.00">1.2.5</text>
</g>
<!-- roo_comms&#45;&gt;roo_control -->
<g id="edge5" class="edge">
<title>roo_comms&#45;&gt;roo_control</title>
<path fill="none" stroke="black" d="M807.66,-704.93C816.8,-699.27 826.86,-692.95 836,-687 904.84,-642.21 983.83,-587.64 1027.82,-556.96"/>
<polygon fill="black" stroke="black" points="1029.95,-559.74 1036.14,-551.15 1025.94,-554 1029.95,-559.74"/>
</g>
<!-- roo_io -->
<g id="node11" class="node">
<title>roo_io</title>
<polygon fill="#b1dbab" stroke="black" points="681.5,-359 622.5,-359 622.5,-321 681.5,-321 681.5,-359"/>
<text text-anchor="middle" x="652" y="-343.8" font-family="Times,serif" font-size="14.00">roo_io</text>
<text text-anchor="middle" x="652" y="-328.8" font-family="Times,serif" font-size="14.00">2.1.6</text>
</g>
<!-- roo_comms&#45;&gt;roo_io -->
<g id="edge6" class="edge">
<title>roo_comms&#45;&gt;roo_io</title>
<path fill="none" stroke="red" d="M769.14,-704.99C754.59,-674.3 726.22,-609.47 716,-551 702.69,-474.81 758.69,-443.38 719,-377 712.65,-366.37 701.96,-358.7 690.97,-353.25"/>
<polygon fill="red" stroke="red" points="692.31,-350.02 681.75,-349.17 689.48,-356.42 692.31,-350.02"/>
<text text-anchor="middle" x="749" y="-535" font-family="Times,serif" font-size="10.00" fill="red">2.1.5</text>
<text text-anchor="middle" x="749" y="-524" font-family="Times,serif" font-size="10.00" fill="red">(latest: 2.1.6)</text>
</g>
<!-- roo_transceivers -->
<g id="node24" class="node">
<title>roo_transceivers</title>
<polygon fill="#b1dbab" stroke="black" points="497.5,-647 362.5,-647 362.5,-609 497.5,-609 497.5,-647"/>
<text text-anchor="middle" x="430" y="-631.8" font-family="Times,serif" font-size="14.00">roo_transceivers</text>
<text text-anchor="middle" x="430" y="-616.8" font-family="Times,serif" font-size="14.00">1.1.6</text>
</g>
<!-- roo_comms&#45;&gt;roo_transceivers -->
<g id="edge7" class="edge">
<title>roo_comms&#45;&gt;roo_transceivers</title>
<path fill="none" stroke="red" d="M729.41,-718.03C698.6,-713.32 658.72,-704.27 627,-687 614.58,-680.24 616.59,-671.45 604,-665 567.57,-646.34 552.02,-654.67 507.52,-646.9"/>
<polygon fill="red" stroke="red" points="508.05,-643.44 497.57,-644.98 506.72,-650.31 508.05,-643.44"/>
<text text-anchor="middle" x="660" y="-679" font-family="Times,serif" font-size="10.00" fill="red">1.1.5</text>
<text text-anchor="middle" x="660" y="-668" font-family="Times,serif" font-size="10.00" fill="red">(latest: 1.1.6)</text>
</g>
<!-- roo_quantity -->
<g id="node18" class="node">
<title>roo_quantity</title>
<polygon fill="#b1dbab" stroke="black" points="906.5,-455 799.5,-455 799.5,-417 906.5,-417 906.5,-455"/>
<text text-anchor="middle" x="853" y="-439.8" font-family="Times,serif" font-size="14.00">roo_quantity</text>
<text text-anchor="middle" x="853" y="-424.8" font-family="Times,serif" font-size="14.00">1.1.8</text>
</g>
<!-- roo_control&#45;&gt;roo_quantity -->
<g id="edge8" class="edge">
<title>roo_control&#45;&gt;roo_quantity</title>
<path fill="none" stroke="black" d="M1021.7,-512.88C987.73,-497.6 938.98,-475.67 902.61,-459.31"/>
<polygon fill="black" stroke="black" points="903.73,-455.98 893.17,-455.07 900.86,-462.36 903.73,-455.98"/>
</g>
<!-- roo_control&#45;&gt;roo_scheduler -->
<g id="edge9" class="edge">
<title>roo_control&#45;&gt;roo_scheduler</title>
<path fill="none" stroke="black" d="M1013.42,-515.3C1010.25,-514.46 1007.09,-513.69 1004,-513 878.31,-484.93 845.12,-486.06 717,-473 593.82,-460.45 561.2,-474.94 439,-455 438.9,-454.98 438.8,-454.97 438.69,-454.95"/>
<polygon fill="black" stroke="black" points="439.55,-451.55 429.08,-453.17 438.27,-458.43 439.55,-451.55"/>
</g>
<!-- roo_dashboard -->
<g id="node6" class="node">
<title>roo_dashboard</title>
<polygon fill="plum" stroke="red" points="226,-743 104,-743 104,-705 226,-705 226,-743"/>
<text text-anchor="middle" x="165" y="-727.8" font-family="Times,serif" font-size="14.00">roo_dashboard</text>
<text text-anchor="middle" x="165" y="-712.8" font-family="Times,serif" font-size="14.00">1.0.1</text>
</g>
<!-- roo_windows -->
<g id="node27" class="node">
<title>roo_windows</title>
<polygon fill="khaki" stroke="red" points="344.5,-647 235.5,-647 235.5,-609 344.5,-609 344.5,-647"/>
<text text-anchor="middle" x="290" y="-631.8" font-family="Times,serif" font-size="14.00">roo_windows</text>
<text text-anchor="middle" x="290" y="-616.8" font-family="Times,serif" font-size="14.00">1.4.2</text>
</g>
<!-- roo_dashboard&#45;&gt;roo_windows -->
<g id="edge10" class="edge">
<title>roo_dashboard&#45;&gt;roo_windows</title>
<path fill="none" stroke="red" d="M189.1,-704.88C208.64,-690.18 236.36,-669.34 257.8,-653.21"/>
<polygon fill="red" stroke="red" points="260.08,-655.88 265.97,-647.07 255.88,-650.28 260.08,-655.88"/>
<text text-anchor="middle" x="272" y="-679" font-family="Times,serif" font-size="10.00" fill="red">1.4.1</text>
<text text-anchor="middle" x="272" y="-668" font-family="Times,serif" font-size="10.00" fill="red">(latest: 1.4.2)</text>
</g>
<!-- roo_display -->
<g id="node7" class="node">
<title>roo_display</title>
<polygon fill="khaki" stroke="red" points="295,-455 197,-455 197,-417 295,-417 295,-455"/>
<text text-anchor="middle" x="246" y="-439.8" font-family="Times,serif" font-size="14.00">roo_display</text>
<text text-anchor="middle" x="246" y="-424.8" font-family="Times,serif" font-size="14.00">3.0.2</text>
</g>
<!-- roo_display&#45;&gt;roo_collections -->
<g id="edge11" class="edge">
<title>roo_display&#45;&gt;roo_collections</title>
<path fill="none" stroke="black" d="M262.39,-416.88C275.32,-402.57 293.53,-382.44 307.93,-366.51"/>
<polygon fill="black" stroke="black" points="310.55,-368.83 314.66,-359.07 305.36,-364.14 310.55,-368.83"/>
</g>
<!-- roo_display&#45;&gt;roo_io -->
<g id="edge12" class="edge">
<title>roo_display&#45;&gt;roo_io</title>
<path fill="none" stroke="red" d="M295.28,-419.42C298.23,-418.58 301.15,-417.76 304,-417 414.63,-387.38 547.31,-360.84 612.25,-348.43"/>
<polygon fill="red" stroke="red" points="613.28,-351.8 622.45,-346.49 611.97,-344.92 613.28,-351.8"/>
<text text-anchor="middle" x="498" y="-391" font-family="Times,serif" font-size="10.00" fill="red">2.1.5</text>
<text text-anchor="middle" x="498" y="-380" font-family="Times,serif" font-size="10.00" fill="red">(latest: 2.1.6)</text>
</g>
<!-- roo_flags -->
<g id="node8" class="node">
<title>roo_flags</title>
<polygon fill="#b1dbab" stroke="black" points="732,-209 652,-209 652,-171 732,-171 732,-209"/>
<text text-anchor="middle" x="692" y="-193.8" font-family="Times,serif" font-size="14.00">roo_flags</text>
<text text-anchor="middle" x="692" y="-178.8" font-family="Times,serif" font-size="14.00">1.2.3</text>
</g>
<!-- roo_fonts_basic -->
<g id="node9" class="node">
<title>roo_fonts_basic</title>
<polygon fill="#b1dbab" stroke="red" points="126,-551 0,-551 0,-513 126,-513 126,-551"/>
<text text-anchor="middle" x="63" y="-535.8" font-family="Times,serif" font-size="14.00">roo_fonts_basic</text>
<text text-anchor="middle" x="63" y="-520.8" font-family="Times,serif" font-size="14.00">1.0.1</text>
</g>
<!-- roo_fonts_basic&#45;&gt;roo_display -->
<g id="edge13" class="edge">
<title>roo_fonts_basic&#45;&gt;roo_display</title>
<path fill="none" stroke="red" d="M98.28,-512.88C127.78,-497.73 169.99,-476.04 201.75,-459.73"/>
<polygon fill="red" stroke="red" points="203.53,-462.75 210.82,-455.07 200.33,-456.52 203.53,-462.75"/>
<text text-anchor="middle" x="204" y="-487" font-family="Times,serif" font-size="10.00" fill="red">3.0.1</text>
<text text-anchor="middle" x="204" y="-476" font-family="Times,serif" font-size="10.00" fill="red">(latest: 3.0.2)</text>
</g>
<!-- roo_icons -->
<g id="node10" class="node">
<title>roo_icons</title>
<polygon fill="#b1dbab" stroke="black" points="333.5,-551 250.5,-551 250.5,-513 333.5,-513 333.5,-551"/>
<text text-anchor="middle" x="292" y="-535.8" font-family="Times,serif" font-size="14.00">roo_icons</text>
<text text-anchor="middle" x="292" y="-520.8" font-family="Times,serif" font-size="14.00">1.2.2</text>
</g>
<!-- roo_icons&#45;&gt;roo_display -->
<g id="edge14" class="edge">
<title>roo_icons&#45;&gt;roo_display</title>
<path fill="none" stroke="black" d="M283.13,-512.88C276.39,-499.09 266.99,-479.9 259.34,-464.26"/>
<polygon fill="black" stroke="black" points="262.38,-462.51 254.84,-455.07 256.09,-465.59 262.38,-462.51"/>
</g>
<!-- roo_io&#45;&gt;roo_logging -->
<g id="edge15" class="edge">
<title>roo_io&#45;&gt;roo_logging</title>
<path fill="none" stroke="black" d="M663.62,-320.96C669.1,-312.44 675.75,-302.12 681.8,-292.72"/>
<polygon fill="black" stroke="black" points="684.88,-294.39 687.35,-284.09 679,-290.6 684.88,-294.39"/>
</g>
<!-- roo_locale -->
<g id="node12" class="node">
<title>roo_locale</title>
<polygon fill="#b1dbab" stroke="black" points="232,-551 144,-551 144,-513 232,-513 232,-551"/>
<text text-anchor="middle" x="188" y="-535.8" font-family="Times,serif" font-size="14.00">roo_locale</text>
<text text-anchor="middle" x="188" y="-520.8" font-family="Times,serif" font-size="14.00">1.1.2</text>
</g>
<!-- roo_logging&#45;&gt;roo_backport -->
<g id="edge16" class="edge">
<title>roo_logging&#45;&gt;roo_backport</title>
<path fill="none" stroke="black" d="M648.81,-248.6C645.83,-247.71 642.88,-246.84 640,-246 595.82,-233.13 545.9,-219.27 507.24,-208.68"/>
<polygon fill="black" stroke="black" points="507.73,-205.18 497.16,-205.92 505.88,-211.93 507.73,-205.18"/>
</g>
<!-- roo_logging&#45;&gt;roo_flags -->
<g id="edge17" class="edge">
<title>roo_logging&#45;&gt;roo_flags</title>
<path fill="none" stroke="black" d="M697.27,-245.96C696.5,-237.88 695.56,-228.18 694.7,-219.18"/>
<polygon fill="black" stroke="black" points="698.17,-218.71 693.73,-209.09 691.21,-219.38 698.17,-218.71"/>
</g>
<!-- roo_threads -->
<g id="node21" class="node">
<title>roo_threads</title>
<polygon fill="#b1dbab" stroke="red" points="620.5,-209 519.5,-209 519.5,-171 620.5,-171 620.5,-209"/>
<text text-anchor="middle" x="570" y="-193.8" font-family="Times,serif" font-size="14.00">roo_threads</text>
<text text-anchor="middle" x="570" y="-178.8" font-family="Times,serif" font-size="14.00">1.2.3</text>
</g>
<!-- roo_logging&#45;&gt;roo_threads -->
<g id="edge18" class="edge">
<title>roo_logging&#45;&gt;roo_threads</title>
<path fill="none" stroke="black" d="M667.11,-245.96C650.21,-236.39 629.26,-224.53 611.14,-214.28"/>
<polygon fill="black" stroke="black" points="612.39,-210.97 601.97,-209.09 608.95,-217.06 612.39,-210.97"/>
</g>
<!-- roo_monitoring -->
<g id="node14" class="node">
<title>roo_monitoring</title>
<polygon fill="khaki" stroke="red" points="572.5,-455 447.5,-455 447.5,-417 572.5,-417 572.5,-455"/>
<text text-anchor="middle" x="510" y="-439.8" font-family="Times,serif" font-size="14.00">roo_monitoring</text>
<text text-anchor="middle" x="510" y="-424.8" font-family="Times,serif" font-size="14.00">1.1.0</text>
</g>
<!-- roo_monitoring&#45;&gt;roo_collections -->
<g id="edge19" class="edge">
<title>roo_monitoring&#45;&gt;roo_collections</title>
<path fill="none" stroke="black" d="M465.12,-416.84C452.62,-411.43 439.14,-405.27 427,-399 406.81,-388.58 385.09,-375.62 367.42,-364.58"/>
<polygon fill="black" stroke="black" points="368.9,-361.38 358.58,-359.02 365.17,-367.31 368.9,-361.38"/>
</g>
<!-- roo_monitoring&#45;&gt;roo_io -->
<g id="edge20" class="edge">
<title>roo_monitoring&#45;&gt;roo_io</title>
<path fill="none" stroke="red" d="M528.94,-416.92C542.28,-404.74 560.92,-388.81 579,-377 589.63,-370.06 601.79,-363.55 613.1,-358.04"/>
<polygon fill="red" stroke="red" points="614.81,-361.1 622.34,-353.65 611.81,-354.77 614.81,-361.1"/>
<text text-anchor="middle" x="612" y="-391" font-family="Times,serif" font-size="10.00" fill="red">2.1.5</text>
<text text-anchor="middle" x="612" y="-380" font-family="Times,serif" font-size="10.00" fill="red">(latest: 2.1.6)</text>
</g>
<!-- roo_onewire -->
<g id="node15" class="node">
<title>roo_onewire</title>
<polygon fill="#b1dbab" stroke="black" points="895,-551 791,-551 791,-513 895,-513 895,-551"/>
<text text-anchor="middle" x="843" y="-535.8" font-family="Times,serif" font-size="14.00">roo_onewire</text>
<text text-anchor="middle" x="843" y="-520.8" font-family="Times,serif" font-size="14.00">2.0.9</text>
</g>
<!-- roo_onewire&#45;&gt;roo_quantity -->
<g id="edge22" class="edge">
<title>roo_onewire&#45;&gt;roo_quantity</title>
<path fill="none" stroke="black" d="M844.93,-512.88C846.37,-499.35 848.36,-480.62 850.01,-465.15"/>
<polygon fill="black" stroke="black" points="853.5,-465.38 851.08,-455.07 846.54,-464.64 853.5,-465.38"/>
</g>
<!-- roo_onewire&#45;&gt;roo_scheduler -->
<g id="edge21" class="edge">
<title>roo_onewire&#45;&gt;roo_scheduler</title>
<path fill="none" stroke="black" d="M790.92,-516.08C786.23,-514.95 781.54,-513.9 777,-513 715.04,-500.66 698.33,-505.29 636,-495 547.85,-480.44 526,-475.33 439,-455 438.9,-454.98 438.8,-454.95 438.7,-454.93"/>
<polygon fill="black" stroke="black" points="439.72,-451.58 429.18,-452.64 438.09,-458.38 439.72,-451.58"/>
</g>
<!-- roo_powersafefs -->
<g id="node16" class="node">
<title>roo_powersafefs</title>
<polygon fill="khaki" stroke="black" points="630.5,-284 497.5,-284 497.5,-246 630.5,-246 630.5,-284"/>
<text text-anchor="middle" x="564" y="-268.8" font-family="Times,serif" font-size="14.00">roo_powersafefs</text>
<text text-anchor="middle" x="564" y="-253.8" font-family="Times,serif" font-size="14.00">1.0.1</text>
</g>
<!-- roo_powersafefs&#45;&gt;roo_threads -->
<g id="edge23" class="edge">
<title>roo_powersafefs&#45;&gt;roo_threads</title>
<path fill="none" stroke="black" d="M565.48,-245.96C566.15,-237.88 566.94,-228.18 567.68,-219.18"/>
<polygon fill="black" stroke="black" points="571.18,-219.34 568.51,-209.09 564.21,-218.77 571.18,-219.34"/>
</g>
<!-- roo_prefs -->
<g id="node17" class="node">
<title>roo_prefs</title>
<polygon fill="#b1dbab" stroke="black" points="565.5,-551 482.5,-551 482.5,-513 565.5,-513 565.5,-551"/>
<text text-anchor="middle" x="524" y="-535.8" font-family="Times,serif" font-size="14.00">roo_prefs</text>
<text text-anchor="middle" x="524" y="-520.8" font-family="Times,serif" font-size="14.00">1.2.10</text>
</g>
<!-- roo_prefs&#45;&gt;roo_logging -->
<g id="edge24" class="edge">
<title>roo_prefs&#45;&gt;roo_logging</title>
<path fill="none" stroke="black" d="M565.53,-522.67C607.04,-512.58 670.74,-492.14 714,-455 742.56,-430.48 754.63,-413.86 747,-377 740.77,-346.91 725.98,-314.95 714.45,-293.09"/>
<polygon fill="black" stroke="black" points="717.42,-291.22 709.58,-284.09 711.26,-294.55 717.42,-291.22"/>
</g>
<!-- roo_prefs&#45;&gt;roo_scheduler -->
<g id="edge25" class="edge">
<title>roo_prefs&#45;&gt;roo_scheduler</title>
<path fill="none" stroke="black" d="M494.5,-512.88C470.16,-497.92 435.45,-476.6 409.03,-460.36"/>
<polygon fill="black" stroke="black" points="410.76,-457.32 400.41,-455.07 407.1,-463.29 410.76,-457.32"/>
</g>
<!-- roo_quantity&#45;&gt;roo_logging -->
<g id="edge26" class="edge">
<title>roo_quantity&#45;&gt;roo_logging</title>
<path fill="none" stroke="black" d="M848.06,-416.59C839.6,-388.36 819.81,-334.26 785,-302 777.35,-294.91 768.11,-289.11 758.56,-284.4"/>
<polygon fill="black" stroke="black" points="759.9,-281.17 749.34,-280.21 757,-287.54 759.9,-281.17"/>
</g>
<!-- roo_scheduler&#45;&gt;roo_collections -->
<g id="edge27" class="edge">
<title>roo_scheduler&#45;&gt;roo_collections</title>
<path fill="none" stroke="black" d="M363.29,-416.88C357.48,-403.22 349.41,-384.26 342.79,-368.71"/>
<polygon fill="black" stroke="black" points="345.82,-366.9 338.69,-359.07 339.38,-369.64 345.82,-366.9"/>
</g>
<!-- roo_scheduler&#45;&gt;roo_threads -->
<g id="edge28" class="edge">
<title>roo_scheduler&#45;&gt;roo_threads</title>
<path fill="none" stroke="black" d="M379.13,-416.9C395.82,-381.15 436.83,-300.21 489,-246 500.41,-234.14 514.77,-223.39 528.22,-214.6"/>
<polygon fill="black" stroke="black" points="530.31,-217.42 536.89,-209.12 526.57,-211.51 530.31,-217.42"/>
</g>
<!-- roo_testing -->
<g id="node20" class="node">
<title>roo_testing</title>
<polygon fill="#b1dbab" stroke="black" points="742.5,-38 645.5,-38 645.5,0 742.5,0 742.5,-38"/>
<text text-anchor="middle" x="694" y="-22.8" font-family="Times,serif" font-size="14.00">roo_testing</text>
<text text-anchor="middle" x="694" y="-7.8" font-family="Times,serif" font-size="14.00">1.3.4</text>
</g>
<!-- roo_time -->
<g id="node22" class="node">
<title>roo_time</title>
<polygon fill="#b1dbab" stroke="red" points="733.5,-134 654.5,-134 654.5,-96 733.5,-96 733.5,-134"/>
<text text-anchor="middle" x="694" y="-118.8" font-family="Times,serif" font-size="14.00">roo_time</text>
<text text-anchor="middle" x="694" y="-103.8" font-family="Times,serif" font-size="14.00">1.4.3</text>
</g>
<!-- roo_threads&#45;&gt;roo_time -->
<g id="edge29" class="edge">
<title>roo_threads&#45;&gt;roo_time</title>
<path fill="none" stroke="black" d="M600.65,-170.96C616.9,-161.39 637.04,-149.53 654.45,-139.28"/>
<polygon fill="black" stroke="black" points="656.43,-142.18 663.27,-134.09 652.88,-136.15 656.43,-142.18"/>
</g>
<!-- roo_time&#45;&gt;roo_testing -->
<g id="edge30" class="edge">
<title>roo_time&#45;&gt;roo_testing</title>
<path fill="none" stroke="red" d="M694,-95.88C694,-82.35 694,-63.62 694,-48.15"/>
<polygon fill="red" stroke="red" points="697.5,-48.07 694,-38.07 690.5,-48.07 697.5,-48.07"/>
<text text-anchor="middle" x="727" y="-70" font-family="Times,serif" font-size="10.00" fill="red">1.3.2</text>
<text text-anchor="middle" x="727" y="-59" font-family="Times,serif" font-size="10.00" fill="red">(latest: 1.3.4)</text>
</g>
<!-- roo_time_ds3231 -->
<g id="node23" class="node">
<title>roo_time_ds3231</title>
<polygon fill="#b1dbab" stroke="black" points="888,-209 750,-209 750,-171 888,-171 888,-209"/>
<text text-anchor="middle" x="819" y="-193.8" font-family="Times,serif" font-size="14.00">roo_time_ds3231</text>
<text text-anchor="middle" x="819" y="-178.8" font-family="Times,serif" font-size="14.00">1.1.6</text>
</g>
<!-- roo_time_ds3231&#45;&gt;roo_time -->
<g id="edge31" class="edge">
<title>roo_time_ds3231&#45;&gt;roo_time</title>
<path fill="none" stroke="black" d="M788.1,-170.96C771.72,-161.39 751.42,-149.53 733.87,-139.28"/>
<polygon fill="black" stroke="black" points="735.38,-136.11 724.98,-134.09 731.85,-142.16 735.38,-136.11"/>
</g>
<!-- roo_transceivers&#45;&gt;roo_prefs -->
<g id="edge32" class="edge">
<title>roo_transceivers&#45;&gt;roo_prefs</title>
<path fill="none" stroke="black" d="M448.12,-608.88C462.43,-594.57 482.56,-574.44 498.49,-558.51"/>
<polygon fill="black" stroke="black" points="501.34,-560.61 505.93,-551.07 496.39,-555.66 501.34,-560.61"/>
</g>
<!-- roo_transport -->
<g id="node25" class="node">
<title>roo_transport</title>
<polygon fill="#b1dbab" stroke="red" points="705,-455 591,-455 591,-417 705,-417 705,-455"/>
<text text-anchor="middle" x="648" y="-439.8" font-family="Times,serif" font-size="14.00">roo_transport</text>
<text text-anchor="middle" x="648" y="-424.8" font-family="Times,serif" font-size="14.00">1.1.2</text>
</g>
<!-- roo_transport&#45;&gt;roo_collections -->
<g id="edge33" class="edge">
<title>roo_transport&#45;&gt;roo_collections</title>
<path fill="none" stroke="black" d="M639.59,-416.94C632.38,-403.6 620.67,-386.22 605,-377 571.64,-357.38 471.53,-348.19 402.03,-344.08"/>
<polygon fill="black" stroke="black" points="402.19,-340.58 392.01,-343.51 401.8,-347.57 402.19,-340.58"/>
</g>
<!-- roo_transport&#45;&gt;roo_io -->
<g id="edge34" class="edge">
<title>roo_transport&#45;&gt;roo_io</title>
<path fill="none" stroke="red" d="M648.77,-416.88C649.35,-403.35 650.14,-384.62 650.8,-369.15"/>
<polygon fill="red" stroke="red" points="654.3,-369.21 651.23,-359.07 647.31,-368.91 654.3,-369.21"/>
<text text-anchor="middle" x="683" y="-391" font-family="Times,serif" font-size="10.00" fill="red">2.1.5</text>
<text text-anchor="middle" x="683" y="-380" font-family="Times,serif" font-size="10.00" fill="red">(latest: 2.1.6)</text>
</g>
<!-- roo_wifi -->
<g id="node26" class="node">
<title>roo_wifi</title>
<polygon fill="khaki" stroke="red" points="588,-647 516,-647 516,-609 588,-609 588,-647"/>
<text text-anchor="middle" x="552" y="-631.8" font-family="Times,serif" font-size="14.00">roo_wifi</text>
<text text-anchor="middle" x="552" y="-616.8" font-family="Times,serif" font-size="14.00">1.1.4</text>
</g>
<!-- roo_wifi&#45;&gt;roo_prefs -->
<g id="edge35" class="edge">
<title>roo_wifi&#45;&gt;roo_prefs</title>
<path fill="none" stroke="red" d="M546.6,-608.88C542.53,-595.22 536.89,-576.26 532.25,-560.71"/>
<polygon fill="red" stroke="red" points="535.59,-559.65 529.38,-551.07 528.88,-561.65 535.59,-559.65"/>
<text text-anchor="middle" x="576" y="-583" font-family="Times,serif" font-size="10.00" fill="red">1.2.9</text>
<text text-anchor="middle" x="576" y="-572" font-family="Times,serif" font-size="10.00" fill="red">(latest: 1.2.10)</text>
</g>
<!-- roo_windows&#45;&gt;roo_icons -->
<g id="edge37" class="edge">
<title>roo_windows&#45;&gt;roo_icons</title>
<path fill="none" stroke="red" d="M290.26,-608.97C290.44,-597.52 290.7,-582.39 291,-569 291.05,-566.57 291.12,-564.06 291.18,-561.53"/>
<polygon fill="red" stroke="red" points="294.68,-561.4 291.45,-551.31 287.69,-561.22 294.68,-561.4"/>
<text text-anchor="middle" x="324" y="-583" font-family="Times,serif" font-size="10.00" fill="red">1.2.1</text>
<text text-anchor="middle" x="324" y="-572" font-family="Times,serif" font-size="10.00" fill="red">(latest: 1.2.2)</text>
</g>
<!-- roo_windows&#45;&gt;roo_locale -->
<g id="edge36" class="edge">
<title>roo_windows&#45;&gt;roo_locale</title>
<path fill="none" stroke="red" d="M245.88,-608.81C237,-603.88 228.2,-597.94 221,-591 212.12,-582.44 204.93,-570.98 199.54,-560.5"/>
<polygon fill="red" stroke="red" points="202.6,-558.77 195.11,-551.27 196.28,-561.8 202.6,-558.77"/>
<text text-anchor="middle" x="254" y="-583" font-family="Times,serif" font-size="10.00" fill="red">1.1.1</text>
<text text-anchor="middle" x="254" y="-572" font-family="Times,serif" font-size="10.00" fill="red">(latest: 1.1.2)</text>
</g>
<!-- roo_windows&#45;&gt;roo_scheduler -->
<g id="edge38" class="edge">
<title>roo_windows&#45;&gt;roo_scheduler</title>
<path fill="none" stroke="red" d="M337.99,-608.96C345.41,-604.18 352.19,-598.27 357,-591 381.98,-553.21 380.12,-498.33 375.94,-465.31"/>
<polygon fill="red" stroke="red" points="379.4,-464.81 374.53,-455.41 372.47,-465.8 379.4,-464.81"/>
<text text-anchor="middle" x="411" y="-535" font-family="Times,serif" font-size="10.00" fill="red">2.1.6</text>
<text text-anchor="middle" x="411" y="-524" font-family="Times,serif" font-size="10.00" fill="red">(latest: 2.1.9)</text>
</g>
<!-- roo_windows_transceivers -->
<g id="node28" class="node">
<title>roo_windows_transceivers</title>
<polygon fill="plum" stroke="red" points="448,-743 244,-743 244,-705 448,-705 448,-743"/>
<text text-anchor="middle" x="346" y="-727.8" font-family="Times,serif" font-size="14.00">roo_windows_transceivers</text>
<text text-anchor="middle" x="346" y="-712.8" font-family="Times,serif" font-size="14.00">1.0.0</text>
</g>
<!-- roo_windows_transceivers&#45;&gt;roo_transceivers -->
<g id="edge39" class="edge">
<title>roo_windows_transceivers&#45;&gt;roo_transceivers</title>
<path fill="none" stroke="red" d="M372.11,-704.95C378.97,-699.59 386.1,-693.42 392,-687 400.63,-677.61 408.63,-666.06 415.04,-655.74"/>
<polygon fill="red" stroke="red" points="418.09,-657.45 420.24,-647.08 412.09,-653.85 418.09,-657.45"/>
<text text-anchor="middle" x="441" y="-679" font-family="Times,serif" font-size="10.00" fill="red">1.1.3</text>
<text text-anchor="middle" x="441" y="-668" font-family="Times,serif" font-size="10.00" fill="red">(latest: 1.1.6)</text>
</g>
<!-- roo_windows_transceivers&#45;&gt;roo_windows -->
<g id="edge40" class="edge">
<title>roo_windows_transceivers&#45;&gt;roo_windows</title>
<path fill="none" stroke="red" d="M335.2,-704.88C326.91,-690.96 315.34,-671.53 305.98,-655.82"/>
<polygon fill="red" stroke="red" points="308.89,-653.87 300.76,-647.07 302.88,-657.45 308.89,-653.87"/>
<text text-anchor="middle" x="357" y="-679" font-family="Times,serif" font-size="10.00" fill="red">1.4.1</text>
<text text-anchor="middle" x="357" y="-668" font-family="Times,serif" font-size="10.00" fill="red">(latest: 1.4.2)</text>
</g>
<!-- roo_windows_wifi -->
<g id="node29" class="node">
<title>roo_windows_wifi</title>
<polygon fill="plum" stroke="red" points="607.5,-743 466.5,-743 466.5,-705 607.5,-705 607.5,-743"/>
<text text-anchor="middle" x="537" y="-727.8" font-family="Times,serif" font-size="14.00">roo_windows_wifi</text>
<text text-anchor="middle" x="537" y="-712.8" font-family="Times,serif" font-size="14.00">1.1.3</text>
</g>
<!-- roo_windows_wifi&#45;&gt;roo_wifi -->
<g id="edge41" class="edge">
<title>roo_windows_wifi&#45;&gt;roo_wifi</title>
<path fill="none" stroke="red" d="M535.68,-704.8C535.25,-693.28 535.42,-678.14 538,-665 538.53,-662.32 539.24,-659.57 540.07,-656.86"/>
<polygon fill="red" stroke="red" points="543.41,-657.9 543.44,-647.31 536.81,-655.57 543.41,-657.9"/>
<text text-anchor="middle" x="571" y="-679" font-family="Times,serif" font-size="10.00" fill="red">1.1.3</text>
<text text-anchor="middle" x="571" y="-668" font-family="Times,serif" font-size="10.00" fill="red">(latest: 1.1.4)</text>
</g>
<!-- roo_windows_wifi&#45;&gt;roo_windows -->
<g id="edge42" class="edge">
<title>roo_windows_wifi&#45;&gt;roo_windows</title>
<path fill="none" stroke="black" d="M523.87,-704.96C513.11,-691.62 496.66,-674.24 478,-665 430.45,-641.45 410.15,-656.83 354.54,-647.03"/>
<polygon fill="black" stroke="black" points="355.01,-643.56 344.52,-645.07 353.66,-650.43 355.01,-643.56"/>
</g>
</g>
</svg>
