<?xml version="1.0" encoding="UTF-8" standalone="no"?>
<!DOCTYPE svg PUBLIC "-//W3C//DTD SVG 1.1//EN"
 "http://www.w3.org/Graphics/SVG/1.1/DTD/svg11.dtd">
<!-- Generated by graphviz version 2.42.4 (0)
 -->
<!-- Title: dependencies Pages: 1 -->
<svg width="1284pt" height="730pt"
 viewBox="0.00 0.00 1284.00 730.00" xmlns="http://www.w3.org/2000/svg" xmlns:xlink="http://www.w3.org/1999/xlink">
<g id="graph0" class="graph" transform="scale(1 1) rotate(0) translate(4 726)">
<title>dependencies</title>
<polygon fill="white" stroke="transparent" points="-4,4 -4,-726 1280,-726 1280,4 -4,4"/>
<!-- roo_backport -->
<g id="node1" class="node">
<title>roo_backport</title>
<polygon fill="#b1dbab" stroke="black" points="749,-263 660,-263 660,-225 749,-225 749,-263"/>
<text text-anchor="middle" x="704.5" y="-247.8" font-family="Times,serif" font-size="14.00">roo_backport</text>
<text text-anchor="middle" x="704.5" y="-232.8" font-family="Times,serif" font-size="14.00">1.1.1</text>
</g>
<!-- roo_blink -->
<g id="node2" class="node">
<title>roo_blink</title>
<polygon fill="#b1dbab" stroke="black" points="194,-530 125,-530 125,-492 194,-492 194,-530"/>
<text text-anchor="middle" x="159.5" y="-514.8" font-family="Times,serif" font-size="14.00">roo_blink</text>
<text text-anchor="middle" x="159.5" y="-499.8" font-family="Times,serif" font-size="14.00">1.0.1</text>
</g>
<!-- roo_logging -->
<g id="node14" class="node">
<title>roo_logging</title>
<polygon fill="#b1dbab" stroke="black" points="407,-263 324,-263 324,-225 407,-225 407,-263"/>
<text text-anchor="middle" x="365.5" y="-247.8" font-family="Times,serif" font-size="14.00">roo_logging</text>
<text text-anchor="middle" x="365.5" y="-232.8" font-family="Times,serif" font-size="14.00">1.4.2</text>
</g>
<!-- roo_blink&#45;&gt;roo_logging -->
<g id="edge1" class="edge">
<title>roo_blink&#45;&gt;roo_logging</title>
<path fill="none" stroke="black" d="M172,-491.95C199.51,-452.58 267.88,-356.46 331.5,-281 334.31,-277.67 337.33,-274.25 340.38,-270.91"/>
<polygon fill="black" stroke="black" points="343.19,-273.02 347.44,-263.32 338.07,-268.25 343.19,-273.02"/>
</g>
<!-- roo_scheduler -->
<g id="node20" class="node">
<title>roo_scheduler</title>
<polygon fill="#b1dbab" stroke="black" points="520,-434 427,-434 427,-396 520,-396 520,-434"/>
<text text-anchor="middle" x="473.5" y="-418.8" font-family="Times,serif" font-size="14.00">roo_scheduler</text>
<text text-anchor="middle" x="473.5" y="-403.8" font-family="Times,serif" font-size="14.00">2.1.4</text>
</g>
<!-- roo_blink&#45;&gt;roo_scheduler -->
<g id="edge2" class="edge">
<title>roo_blink&#45;&gt;roo_scheduler</title>
<path fill="none" stroke="black" d="M194.44,-495.33C197.49,-494.16 200.54,-493.04 203.5,-492 262.96,-471.16 278.56,-467.98 339.5,-452 371.09,-443.72 381.51,-443.44 416.76,-434.07"/>
<polygon fill="black" stroke="black" points="418.11,-437.33 426.84,-431.32 416.27,-430.57 418.11,-437.33"/>
</g>
<!-- roo_collections -->
<g id="node3" class="node">
<title>roo_collections</title>
<polygon fill="#b1dbab" stroke="black" points="865.5,-359 765.5,-359 765.5,-321 865.5,-321 865.5,-359"/>
<text text-anchor="middle" x="815.5" y="-343.8" font-family="Times,serif" font-size="14.00">roo_collections</text>
<text text-anchor="middle" x="815.5" y="-328.8" font-family="Times,serif" font-size="14.00">1.3.2</text>
</g>
<!-- roo_collections&#45;&gt;roo_backport -->
<g id="edge3" class="edge">
<title>roo_collections&#45;&gt;roo_backport</title>
<path fill="none" stroke="black" d="M794.1,-320.88C776.9,-306.31 752.57,-285.71 733.6,-269.64"/>
<polygon fill="black" stroke="black" points="735.73,-266.86 725.84,-263.07 731.21,-272.2 735.73,-266.86"/>
</g>
<!-- roo_comms -->
<g id="node4" class="node">
<title>roo_comms</title>
<polygon fill="#b1dbab" stroke="black" points="363.5,-722 281.5,-722 281.5,-684 363.5,-684 363.5,-722"/>
<text text-anchor="middle" x="322.5" y="-706.8" font-family="Times,serif" font-size="14.00">roo_comms</text>
<text text-anchor="middle" x="322.5" y="-691.8" font-family="Times,serif" font-size="14.00">1.1.1</text>
</g>
<!-- roo_comms&#45;&gt;roo_blink -->
<g id="edge4" class="edge">
<title>roo_comms&#45;&gt;roo_blink</title>
<path fill="none" stroke="black" d="M306.87,-683.78C277.78,-649.88 215.26,-577 181.77,-537.95"/>
<polygon fill="black" stroke="black" points="184.25,-535.47 175.08,-530.16 178.94,-540.03 184.25,-535.47"/>
</g>
<!-- roo_control -->
<g id="node5" class="node">
<title>roo_control</title>
<polygon fill="#b1dbab" stroke="black" points="292.5,-530 212.5,-530 212.5,-492 292.5,-492 292.5,-530"/>
<text text-anchor="middle" x="252.5" y="-514.8" font-family="Times,serif" font-size="14.00">roo_control</text>
<text text-anchor="middle" x="252.5" y="-499.8" font-family="Times,serif" font-size="14.00">1.2.1</text>
</g>
<!-- roo_comms&#45;&gt;roo_control -->
<g id="edge5" class="edge">
<title>roo_comms&#45;&gt;roo_control</title>
<path fill="none" stroke="black" d="M315.79,-683.78C303.48,-650.37 277.23,-579.13 262.7,-539.69"/>
<polygon fill="black" stroke="black" points="265.93,-538.34 259.19,-530.16 259.36,-540.76 265.93,-538.34"/>
</g>
<!-- roo_io -->
<g id="node10" class="node">
<title>roo_io</title>
<polygon fill="#b1dbab" stroke="black" points="731.5,-359 677.5,-359 677.5,-321 731.5,-321 731.5,-359"/>
<text text-anchor="middle" x="704.5" y="-343.8" font-family="Times,serif" font-size="14.00">roo_io</text>
<text text-anchor="middle" x="704.5" y="-328.8" font-family="Times,serif" font-size="14.00">2.0.2</text>
</g>
<!-- roo_comms&#45;&gt;roo_io -->
<g id="edge6" class="edge">
<title>roo_comms&#45;&gt;roo_io</title>
<path fill="none" stroke="black" d="M363.81,-698.44C449.47,-689.91 638.5,-664.66 638.5,-608 638.5,-608 638.5,-608 638.5,-414 638.5,-393.19 653.43,-375.66 669.09,-363"/>
<polygon fill="black" stroke="black" points="671.4,-365.65 677.27,-356.83 667.18,-360.06 671.4,-365.65"/>
</g>
<!-- roo_transceivers -->
<g id="node25" class="node">
<title>roo_transceivers</title>
<polygon fill="#b1dbab" stroke="black" points="500.5,-626 394.5,-626 394.5,-588 500.5,-588 500.5,-626"/>
<text text-anchor="middle" x="447.5" y="-610.8" font-family="Times,serif" font-size="14.00">roo_transceivers</text>
<text text-anchor="middle" x="447.5" y="-595.8" font-family="Times,serif" font-size="14.00">1.1.2</text>
</g>
<!-- roo_comms&#45;&gt;roo_transceivers -->
<g id="edge7" class="edge">
<title>roo_comms&#45;&gt;roo_transceivers</title>
<path fill="none" stroke="black" d="M346.6,-683.88C366.14,-669.18 393.86,-648.34 415.3,-632.21"/>
<polygon fill="black" stroke="black" points="417.58,-634.88 423.47,-626.07 413.38,-629.28 417.58,-634.88"/>
</g>
<!-- roo_quantity -->
<g id="node19" class="node">
<title>roo_quantity</title>
<polygon fill="#b1dbab" stroke="black" points="408.5,-434 322.5,-434 322.5,-396 408.5,-396 408.5,-434"/>
<text text-anchor="middle" x="365.5" y="-418.8" font-family="Times,serif" font-size="14.00">roo_quantity</text>
<text text-anchor="middle" x="365.5" y="-403.8" font-family="Times,serif" font-size="14.00">1.1.2</text>
</g>
<!-- roo_control&#45;&gt;roo_quantity -->
<g id="edge8" class="edge">
<title>roo_control&#45;&gt;roo_quantity</title>
<path fill="none" stroke="black" d="M274.29,-491.88C291.8,-477.31 316.57,-456.71 335.88,-440.64"/>
<polygon fill="black" stroke="black" points="338.33,-443.15 343.78,-434.07 333.85,-437.77 338.33,-443.15"/>
</g>
<!-- roo_control&#45;&gt;roo_scheduler -->
<g id="edge9" class="edge">
<title>roo_control&#45;&gt;roo_scheduler</title>
<path fill="none" stroke="black" d="M292.52,-492.98C328.8,-477.55 382.46,-454.72 421.94,-437.93"/>
<polygon fill="black" stroke="black" points="423.31,-441.15 431.14,-434.02 420.57,-434.71 423.31,-441.15"/>
</g>
<!-- roo_dashboard -->
<g id="node6" class="node">
<title>roo_dashboard</title>
<polygon fill="khaki" stroke="black" points="97,-722 0,-722 0,-684 97,-684 97,-722"/>
<text text-anchor="middle" x="48.5" y="-706.8" font-family="Times,serif" font-size="14.00">roo_dashboard</text>
<text text-anchor="middle" x="48.5" y="-691.8" font-family="Times,serif" font-size="14.00">1.0.0</text>
</g>
<!-- roo_testing -->
<g id="node21" class="node">
<title>roo_testing</title>
<polygon fill="#b1dbab" stroke="black" points="1089,-38 1012,-38 1012,0 1089,0 1089,-38"/>
<text text-anchor="middle" x="1050.5" y="-22.8" font-family="Times,serif" font-size="14.00">roo_testing</text>
<text text-anchor="middle" x="1050.5" y="-7.8" font-family="Times,serif" font-size="14.00">1.1.7</text>
</g>
<!-- roo_dashboard&#45;&gt;roo_testing -->
<g id="edge10" class="edge">
<title>roo_dashboard&#45;&gt;roo_testing</title>
<path fill="none" stroke="red" d="M34.98,-683.98C22.7,-665.8 6.5,-636.42 6.5,-608 6.5,-608 6.5,-608 6.5,-93 6.5,-42.47 795.19,-24.63 1001.56,-20.83"/>
<polygon fill="red" stroke="red" points="1001.86,-24.32 1011.79,-20.64 1001.73,-17.32 1001.86,-24.32"/>
<text text-anchor="middle" x="33.5" y="-343" font-family="Times,serif" font-size="10.00" fill="red">1.1.4</text>
<text text-anchor="middle" x="33.5" y="-332" font-family="Times,serif" font-size="10.00" fill="red">(latest: 1.1.7)</text>
</g>
<!-- roo_windows -->
<g id="node28" class="node">
<title>roo_windows</title>
<polygon fill="khaki" stroke="black" points="862.5,-626 772.5,-626 772.5,-588 862.5,-588 862.5,-626"/>
<text text-anchor="middle" x="817.5" y="-610.8" font-family="Times,serif" font-size="14.00">roo_windows</text>
<text text-anchor="middle" x="817.5" y="-595.8" font-family="Times,serif" font-size="14.00">1.4.0</text>
</g>
<!-- roo_dashboard&#45;&gt;roo_windows -->
<g id="edge11" class="edge">
<title>roo_dashboard&#45;&gt;roo_windows</title>
<path fill="none" stroke="black" d="M97.19,-696.05C233.44,-679.39 617.99,-632.39 762.07,-614.78"/>
<polygon fill="black" stroke="black" points="762.93,-618.2 772.43,-613.51 762.08,-611.25 762.93,-618.2"/>
</g>
<!-- roo_display -->
<g id="node7" class="node">
<title>roo_display</title>
<polygon fill="#b1dbab" stroke="black" points="1049.5,-434 969.5,-434 969.5,-396 1049.5,-396 1049.5,-434"/>
<text text-anchor="middle" x="1009.5" y="-418.8" font-family="Times,serif" font-size="14.00">roo_display</text>
<text text-anchor="middle" x="1009.5" y="-403.8" font-family="Times,serif" font-size="14.00">2.3.1</text>
</g>
<!-- roo_display&#45;&gt;roo_collections -->
<g id="edge12" class="edge">
<title>roo_display&#45;&gt;roo_collections</title>
<path fill="none" stroke="black" d="M986.91,-395.91C977.61,-389.18 966.47,-381.98 955.5,-377 930.28,-365.55 900.79,-357.28 875.4,-351.58"/>
<polygon fill="black" stroke="black" points="876.04,-348.14 865.52,-349.44 874.56,-354.98 876.04,-348.14"/>
</g>
<!-- roo_display&#45;&gt;roo_io -->
<g id="edge13" class="edge">
<title>roo_display&#45;&gt;roo_io</title>
<path fill="none" stroke="black" d="M969.47,-405.57C903.41,-391.62 776.81,-364.7 756.5,-359 751.51,-357.6 746.3,-355.98 741.19,-354.31"/>
<polygon fill="black" stroke="black" points="742.16,-350.94 731.56,-351.05 739.92,-357.57 742.16,-350.94"/>
</g>
<!-- roo_flags -->
<g id="node8" class="node">
<title>roo_flags</title>
<polygon fill="#b1dbab" stroke="black" points="359.5,-188 291.5,-188 291.5,-150 359.5,-150 359.5,-188"/>
<text text-anchor="middle" x="325.5" y="-172.8" font-family="Times,serif" font-size="14.00">roo_flags</text>
<text text-anchor="middle" x="325.5" y="-157.8" font-family="Times,serif" font-size="14.00">1.1.1</text>
</g>
<!-- roo_icons -->
<g id="node9" class="node">
<title>roo_icons</title>
<polygon fill="#b1dbab" stroke="black" points="959.5,-530 889.5,-530 889.5,-492 959.5,-492 959.5,-530"/>
<text text-anchor="middle" x="924.5" y="-514.8" font-family="Times,serif" font-size="14.00">roo_icons</text>
<text text-anchor="middle" x="924.5" y="-499.8" font-family="Times,serif" font-size="14.00">1.2.1</text>
</g>
<!-- roo_icons&#45;&gt;roo_display -->
<g id="edge14" class="edge">
<title>roo_icons&#45;&gt;roo_display</title>
<path fill="none" stroke="black" d="M940.89,-491.88C953.82,-477.57 972.03,-457.44 986.43,-441.51"/>
<polygon fill="black" stroke="black" points="989.05,-443.83 993.16,-434.07 983.86,-439.14 989.05,-443.83"/>
</g>
<!-- roo_io&#45;&gt;roo_backport -->
<g id="edge15" class="edge">
<title>roo_io&#45;&gt;roo_backport</title>
<path fill="none" stroke="black" d="M704.5,-320.88C704.5,-307.35 704.5,-288.62 704.5,-273.15"/>
<polygon fill="black" stroke="black" points="708,-273.07 704.5,-263.07 701,-273.07 708,-273.07"/>
</g>
<!-- roo_io&#45;&gt;roo_logging -->
<g id="edge16" class="edge">
<title>roo_io&#45;&gt;roo_logging</title>
<path fill="none" stroke="black" d="M677.33,-331.47C620.83,-315.8 489.88,-279.49 416.93,-259.26"/>
<polygon fill="black" stroke="black" points="417.6,-255.82 407.03,-256.52 415.73,-262.56 417.6,-255.82"/>
</g>
<!-- roo_io_espressif -->
<g id="node11" class="node">
<title>roo_io_espressif</title>
<polygon fill="plum" stroke="black" points="1172.5,-722 1066.5,-722 1066.5,-684 1172.5,-684 1172.5,-722"/>
<text text-anchor="middle" x="1119.5" y="-706.8" font-family="Times,serif" font-size="14.00">roo_io_espressif</text>
<text text-anchor="middle" x="1119.5" y="-691.8" font-family="Times,serif" font-size="14.00">1.0.0</text>
</g>
<!-- roo_io_sdfat -->
<g id="node12" class="node">
<title>roo_io_sdfat</title>
<polygon fill="plum" stroke="black" points="1276,-722 1191,-722 1191,-684 1276,-684 1276,-722"/>
<text text-anchor="middle" x="1233.5" y="-706.8" font-family="Times,serif" font-size="14.00">roo_io_sdfat</text>
<text text-anchor="middle" x="1233.5" y="-691.8" font-family="Times,serif" font-size="14.00">1.0.0</text>
</g>
<!-- roo_locale -->
<g id="node13" class="node">
<title>roo_locale</title>
<polygon fill="#b1dbab" stroke="black" points="829.5,-530 755.5,-530 755.5,-492 829.5,-492 829.5,-530"/>
<text text-anchor="middle" x="792.5" y="-514.8" font-family="Times,serif" font-size="14.00">roo_locale</text>
<text text-anchor="middle" x="792.5" y="-499.8" font-family="Times,serif" font-size="14.00">1.1.1</text>
</g>
<!-- roo_logging&#45;&gt;roo_flags -->
<g id="edge17" class="edge">
<title>roo_logging&#45;&gt;roo_flags</title>
<path fill="none" stroke="black" d="M355.61,-224.96C351,-216.53 345.41,-206.33 340.3,-197.01"/>
<polygon fill="black" stroke="black" points="343.29,-195.18 335.41,-188.09 337.15,-198.54 343.29,-195.18"/>
</g>
<!-- roo_threads -->
<g id="node22" class="node">
<title>roo_threads</title>
<polygon fill="#b1dbab" stroke="black" points="587.5,-188 507.5,-188 507.5,-150 587.5,-150 587.5,-188"/>
<text text-anchor="middle" x="547.5" y="-172.8" font-family="Times,serif" font-size="14.00">roo_threads</text>
<text text-anchor="middle" x="547.5" y="-157.8" font-family="Times,serif" font-size="14.00">1.1.5</text>
</g>
<!-- roo_logging&#45;&gt;roo_threads -->
<g id="edge18" class="edge">
<title>roo_logging&#45;&gt;roo_threads</title>
<path fill="none" stroke="black" d="M407.25,-226.25C434.22,-215.44 469.44,-201.31 497.84,-189.92"/>
<polygon fill="black" stroke="black" points="499.21,-193.14 507.19,-186.17 496.61,-186.64 499.21,-193.14"/>
</g>
<!-- roo_monitoring -->
<g id="node15" class="node">
<title>roo_monitoring</title>
<polygon fill="plum" stroke="black" points="913.5,-434 811.5,-434 811.5,-396 913.5,-396 913.5,-434"/>
<text text-anchor="middle" x="862.5" y="-418.8" font-family="Times,serif" font-size="14.00">roo_monitoring</text>
<text text-anchor="middle" x="862.5" y="-403.8" font-family="Times,serif" font-size="14.00">1.0.0</text>
</g>
<!-- roo_monitoring&#45;&gt;roo_collections -->
<g id="edge19" class="edge">
<title>roo_monitoring&#45;&gt;roo_collections</title>
<path fill="none" stroke="black" d="M850.88,-395.96C845.4,-387.44 838.75,-377.12 832.7,-367.72"/>
<polygon fill="black" stroke="black" points="835.5,-365.6 827.15,-359.09 829.62,-369.39 835.5,-365.6"/>
</g>
<!-- roo_monitoring&#45;&gt;roo_io -->
<g id="edge20" class="edge">
<title>roo_monitoring&#45;&gt;roo_io</title>
<path fill="none" stroke="black" d="M823.44,-395.96C798.27,-384.33 765.76,-369.3 741.09,-357.91"/>
<polygon fill="black" stroke="black" points="742.26,-354.59 731.72,-353.58 739.33,-360.95 742.26,-354.59"/>
</g>
<!-- roo_onewire -->
<g id="node16" class="node">
<title>roo_onewire</title>
<polygon fill="#b1dbab" stroke="black" points="482,-530 397,-530 397,-492 482,-492 482,-530"/>
<text text-anchor="middle" x="439.5" y="-514.8" font-family="Times,serif" font-size="14.00">roo_onewire</text>
<text text-anchor="middle" x="439.5" y="-499.8" font-family="Times,serif" font-size="14.00">2.0.4</text>
</g>
<!-- roo_onewire&#45;&gt;roo_quantity -->
<g id="edge22" class="edge">
<title>roo_onewire&#45;&gt;roo_quantity</title>
<path fill="none" stroke="black" d="M425.23,-491.88C414.07,-477.7 398.41,-457.81 385.92,-441.94"/>
<polygon fill="black" stroke="black" points="388.66,-439.76 379.72,-434.07 383.16,-444.09 388.66,-439.76"/>
</g>
<!-- roo_onewire&#45;&gt;roo_scheduler -->
<g id="edge21" class="edge">
<title>roo_onewire&#45;&gt;roo_scheduler</title>
<path fill="none" stroke="black" d="M446.06,-491.88C450.99,-478.22 457.85,-459.26 463.48,-443.71"/>
<polygon fill="black" stroke="black" points="466.85,-444.66 466.96,-434.07 460.27,-442.28 466.85,-444.66"/>
</g>
<!-- roo_powersafefs -->
<g id="node17" class="node">
<title>roo_powersafefs</title>
<polygon fill="plum" stroke="black" points="874,-263 767,-263 767,-225 874,-225 874,-263"/>
<text text-anchor="middle" x="820.5" y="-247.8" font-family="Times,serif" font-size="14.00">roo_powersafefs</text>
<text text-anchor="middle" x="820.5" y="-232.8" font-family="Times,serif" font-size="14.00">1.0.0</text>
</g>
<!-- roo_powersafefs&#45;&gt;roo_threads -->
<g id="edge23" class="edge">
<title>roo_powersafefs&#45;&gt;roo_threads</title>
<path fill="none" stroke="black" d="M766.91,-227.6C763.73,-226.71 760.57,-225.84 757.5,-225 702.98,-210.07 640.27,-193.76 597.67,-182.81"/>
<polygon fill="black" stroke="black" points="598.39,-179.38 587.83,-180.28 596.64,-186.16 598.39,-179.38"/>
</g>
<!-- roo_prefs -->
<g id="node18" class="node">
<title>roo_prefs</title>
<polygon fill="#b1dbab" stroke="black" points="378.5,-530 310.5,-530 310.5,-492 378.5,-492 378.5,-530"/>
<text text-anchor="middle" x="344.5" y="-514.8" font-family="Times,serif" font-size="14.00">roo_prefs</text>
<text text-anchor="middle" x="344.5" y="-499.8" font-family="Times,serif" font-size="14.00">1.2.2</text>
</g>
<!-- roo_prefs&#45;&gt;roo_logging -->
<g id="edge24" class="edge">
<title>roo_prefs&#45;&gt;roo_logging</title>
<path fill="none" stroke="black" d="M334.77,-491.88C327.29,-476.86 317.56,-454.7 313.5,-434 302.02,-375.45 330.66,-308.44 349.84,-272.03"/>
<polygon fill="black" stroke="black" points="353.03,-273.49 354.73,-263.03 346.88,-270.15 353.03,-273.49"/>
</g>
<!-- roo_prefs&#45;&gt;roo_scheduler -->
<g id="edge25" class="edge">
<title>roo_prefs&#45;&gt;roo_scheduler</title>
<path fill="none" stroke="black" d="M378.9,-494.91C397.94,-486.42 418.56,-476.94 422.5,-474 434.49,-465.05 445.72,-452.89 454.57,-442.01"/>
<polygon fill="black" stroke="black" points="457.42,-444.05 460.84,-434.02 451.91,-439.72 457.42,-444.05"/>
</g>
<!-- roo_quantity&#45;&gt;roo_logging -->
<g id="edge26" class="edge">
<title>roo_quantity&#45;&gt;roo_logging</title>
<path fill="none" stroke="black" d="M365.5,-395.91C365.5,-366.51 365.5,-308.13 365.5,-273.23"/>
<polygon fill="black" stroke="black" points="369,-273.21 365.5,-263.21 362,-273.21 369,-273.21"/>
</g>
<!-- roo_scheduler&#45;&gt;roo_collections -->
<g id="edge27" class="edge">
<title>roo_scheduler&#45;&gt;roo_collections</title>
<path fill="none" stroke="black" d="M520.32,-399.62C525.09,-398.33 529.88,-397.09 534.5,-396 625.02,-374.58 649.46,-378.08 740.5,-359 745.25,-358 750.15,-356.93 755.07,-355.82"/>
<polygon fill="black" stroke="black" points="756.2,-359.15 765.16,-353.5 754.63,-352.33 756.2,-359.15"/>
</g>
<!-- roo_scheduler&#45;&gt;roo_threads -->
<g id="edge28" class="edge">
<title>roo_scheduler&#45;&gt;roo_threads</title>
<path fill="none" stroke="black" d="M479.06,-395.66C491.92,-353.25 523.79,-248.2 539.06,-197.82"/>
<polygon fill="black" stroke="black" points="542.42,-198.81 541.97,-188.22 535.72,-196.77 542.42,-198.81"/>
</g>
<!-- roo_time -->
<g id="node23" class="node">
<title>roo_time</title>
<polygon fill="#b1dbab" stroke="black" points="495.5,-113 429.5,-113 429.5,-75 495.5,-75 495.5,-113"/>
<text text-anchor="middle" x="462.5" y="-97.8" font-family="Times,serif" font-size="14.00">roo_time</text>
<text text-anchor="middle" x="462.5" y="-82.8" font-family="Times,serif" font-size="14.00">1.3.2</text>
</g>
<!-- roo_threads&#45;&gt;roo_time -->
<g id="edge29" class="edge">
<title>roo_threads&#45;&gt;roo_time</title>
<path fill="none" stroke="black" d="M526.49,-149.96C515.86,-140.83 502.81,-129.62 491.26,-119.7"/>
<polygon fill="black" stroke="black" points="493.43,-116.95 483.56,-113.09 488.87,-122.26 493.43,-116.95"/>
</g>
<!-- roo_time&#45;&gt;roo_testing -->
<g id="edge30" class="edge">
<title>roo_time&#45;&gt;roo_testing</title>
<path fill="none" stroke="black" d="M495.8,-88.87C594.49,-76.61 885.78,-40.45 1001.91,-26.03"/>
<polygon fill="black" stroke="black" points="1002.44,-29.49 1011.93,-24.79 1001.58,-22.55 1002.44,-29.49"/>
</g>
<!-- roo_time_ds3231 -->
<g id="node24" class="node">
<title>roo_time_ds3231</title>
<polygon fill="#b1dbab" stroke="black" points="489.5,-188 377.5,-188 377.5,-150 489.5,-150 489.5,-188"/>
<text text-anchor="middle" x="433.5" y="-172.8" font-family="Times,serif" font-size="14.00">roo_time_ds3231</text>
<text text-anchor="middle" x="433.5" y="-157.8" font-family="Times,serif" font-size="14.00">1.1.2</text>
</g>
<!-- roo_time_ds3231&#45;&gt;roo_time -->
<g id="edge31" class="edge">
<title>roo_time_ds3231&#45;&gt;roo_time</title>
<path fill="none" stroke="black" d="M440.67,-149.96C443.95,-141.71 447.9,-131.75 451.54,-122.6"/>
<polygon fill="black" stroke="black" points="454.87,-123.68 455.31,-113.09 448.37,-121.09 454.87,-123.68"/>
</g>
<!-- roo_transceivers&#45;&gt;roo_prefs -->
<g id="edge32" class="edge">
<title>roo_transceivers&#45;&gt;roo_prefs</title>
<path fill="none" stroke="black" d="M427.64,-587.88C411.82,-573.44 389.51,-553.07 371.98,-537.07"/>
<polygon fill="black" stroke="black" points="374.04,-534.22 364.3,-530.07 369.33,-539.39 374.04,-534.22"/>
</g>
<!-- roo_transport -->
<g id="node26" class="node">
<title>roo_transport</title>
<polygon fill="#b1dbab" stroke="black" points="794,-434 705,-434 705,-396 794,-396 794,-434"/>
<text text-anchor="middle" x="749.5" y="-418.8" font-family="Times,serif" font-size="14.00">roo_transport</text>
<text text-anchor="middle" x="749.5" y="-403.8" font-family="Times,serif" font-size="14.00">1.0.1</text>
</g>
<!-- roo_transport&#45;&gt;roo_collections -->
<g id="edge33" class="edge">
<title>roo_transport&#45;&gt;roo_collections</title>
<path fill="none" stroke="black" d="M765.81,-395.96C773.83,-387.09 783.62,-376.26 792.39,-366.56"/>
<polygon fill="black" stroke="black" points="795.03,-368.86 799.14,-359.09 789.84,-364.16 795.03,-368.86"/>
</g>
<!-- roo_transport&#45;&gt;roo_io -->
<g id="edge34" class="edge">
<title>roo_transport&#45;&gt;roo_io</title>
<path fill="none" stroke="black" d="M738.38,-395.96C733.13,-387.44 726.76,-377.12 720.97,-367.72"/>
<polygon fill="black" stroke="black" points="723.88,-365.77 715.65,-359.09 717.92,-369.44 723.88,-365.77"/>
</g>
<!-- roo_wifi -->
<g id="node27" class="node">
<title>roo_wifi</title>
<polygon fill="#b1dbab" stroke="black" points="376,-626 313,-626 313,-588 376,-588 376,-626"/>
<text text-anchor="middle" x="344.5" y="-610.8" font-family="Times,serif" font-size="14.00">roo_wifi</text>
<text text-anchor="middle" x="344.5" y="-595.8" font-family="Times,serif" font-size="14.00">1.1.1</text>
</g>
<!-- roo_wifi&#45;&gt;roo_prefs -->
<g id="edge35" class="edge">
<title>roo_wifi&#45;&gt;roo_prefs</title>
<path fill="none" stroke="black" d="M344.5,-587.88C344.5,-574.35 344.5,-555.62 344.5,-540.15"/>
<polygon fill="black" stroke="black" points="348,-540.07 344.5,-530.07 341,-540.07 348,-540.07"/>
</g>
<!-- roo_windows&#45;&gt;roo_collections -->
<g id="edge37" class="edge">
<title>roo_windows&#45;&gt;roo_collections</title>
<path fill="none" stroke="red" d="M834.49,-587.74C839.06,-582.28 843.77,-576.11 847.5,-570 877.43,-520.91 864.6,-496.91 900.5,-452 908.39,-442.13 917.09,-445.42 922.5,-434 929.73,-418.74 931.3,-410.42 922.5,-396 911.79,-378.46 893.52,-366.28 875.06,-357.93"/>
<polygon fill="red" stroke="red" points="876.31,-354.65 865.73,-354.02 873.6,-361.11 876.31,-354.65"/>
<text text-anchor="middle" x="927.5" y="-466" font-family="Times,serif" font-size="10.00" fill="red">1.3.1</text>
<text text-anchor="middle" x="927.5" y="-455" font-family="Times,serif" font-size="10.00" fill="red">(latest: 1.3.2)</text>
</g>
<!-- roo_windows&#45;&gt;roo_display -->
<g id="edge38" class="edge">
<title>roo_windows&#45;&gt;roo_display</title>
<path fill="none" stroke="red" d="M862.58,-604.41C891.75,-601.12 928.78,-592.37 953.5,-570 989.83,-537.14 1002.62,-478.81 1007.1,-444.14"/>
<polygon fill="red" stroke="red" points="1010.58,-444.53 1008.25,-434.2 1003.63,-443.73 1010.58,-444.53"/>
<text text-anchor="middle" x="1023.5" y="-514" font-family="Times,serif" font-size="10.00" fill="red">2.2.2</text>
<text text-anchor="middle" x="1023.5" y="-503" font-family="Times,serif" font-size="10.00" fill="red">(latest: 2.3.1)</text>
</g>
<!-- roo_windows&#45;&gt;roo_icons -->
<g id="edge41" class="edge">
<title>roo_windows&#45;&gt;roo_icons</title>
<path fill="none" stroke="red" d="M850.66,-587.9C859.13,-582.62 867.97,-576.51 875.5,-570 886.36,-560.62 896.85,-548.72 905.32,-538.15"/>
<polygon fill="red" stroke="red" points="908.26,-540.07 911.64,-530.03 902.73,-535.77 908.26,-540.07"/>
<text text-anchor="middle" x="922.5" y="-562" font-family="Times,serif" font-size="10.00" fill="red">1.2.0</text>
<text text-anchor="middle" x="922.5" y="-551" font-family="Times,serif" font-size="10.00" fill="red">(latest: 1.2.1)</text>
</g>
<!-- roo_windows&#45;&gt;roo_io -->
<g id="edge42" class="edge">
<title>roo_windows&#45;&gt;roo_io</title>
<path fill="none" stroke="red" d="M797.47,-587.85C767.39,-558.9 712.39,-498.9 696.5,-434 691.26,-412.58 693.85,-387.66 697.42,-369.01"/>
<polygon fill="red" stroke="red" points="700.88,-369.6 699.53,-359.09 694.03,-368.15 700.88,-369.6"/>
<text text-anchor="middle" x="738.5" y="-466" font-family="Times,serif" font-size="10.00" fill="red">2.0.1</text>
<text text-anchor="middle" x="738.5" y="-455" font-family="Times,serif" font-size="10.00" fill="red">(latest: 2.0.2)</text>
</g>
<!-- roo_windows&#45;&gt;roo_locale -->
<g id="edge39" class="edge">
<title>roo_windows&#45;&gt;roo_locale</title>
<path fill="none" stroke="red" d="M802.6,-587.99C798.92,-582.54 795.47,-576.31 793.5,-570 790.58,-560.64 789.73,-550.01 789.81,-540.43"/>
<polygon fill="red" stroke="red" points="793.32,-540.32 790.22,-530.19 786.32,-540.04 793.32,-540.32"/>
<text text-anchor="middle" x="820.5" y="-562" font-family="Times,serif" font-size="10.00" fill="red">1.1.0</text>
<text text-anchor="middle" x="820.5" y="-551" font-family="Times,serif" font-size="10.00" fill="red">(latest: 1.1.1)</text>
</g>
<!-- roo_windows&#45;&gt;roo_logging -->
<g id="edge40" class="edge">
<title>roo_windows&#45;&gt;roo_logging</title>
<path fill="none" stroke="red" d="M784.93,-587.95C775.32,-582.4 764.87,-576.13 755.5,-570 695.09,-530.49 682.61,-516.82 624.5,-474 600.45,-456.28 593.51,-453.04 570.5,-434 561.37,-426.45 446.21,-319.81 392.61,-270.13"/>
<polygon fill="red" stroke="red" points="394.88,-267.47 385.17,-263.24 390.12,-272.6 394.88,-267.47"/>
<text text-anchor="middle" x="597.5" y="-418" font-family="Times,serif" font-size="10.00" fill="red">1.4.0</text>
<text text-anchor="middle" x="597.5" y="-407" font-family="Times,serif" font-size="10.00" fill="red">(latest: 1.4.2)</text>
</g>
<!-- roo_windows&#45;&gt;roo_scheduler -->
<g id="edge43" class="edge">
<title>roo_windows&#45;&gt;roo_scheduler</title>
<path fill="none" stroke="red" d="M772.36,-605.3C724.5,-603.14 647.54,-595.52 586.5,-570 558.95,-558.48 551.86,-552.74 532.5,-530 510.28,-503.9 493.46,-468.01 483.58,-443.52"/>
<polygon fill="red" stroke="red" points="486.79,-442.14 479.89,-434.1 480.27,-444.69 486.79,-442.14"/>
<text text-anchor="middle" x="559.5" y="-514" font-family="Times,serif" font-size="10.00" fill="red">2.1.3</text>
<text text-anchor="middle" x="559.5" y="-503" font-family="Times,serif" font-size="10.00" fill="red">(latest: 2.1.4)</text>
</g>
<!-- roo_windows&#45;&gt;roo_testing -->
<g id="edge36" class="edge">
<title>roo_windows&#45;&gt;roo_testing</title>
<path fill="none" stroke="red" d="M862.72,-598.43C925.44,-586.85 1033.51,-562.61 1054.5,-530 1109.11,-445.16 1056.16,-403.79 1051.5,-303 1050.31,-277.25 1050.5,-270.78 1050.5,-245 1050.5,-245 1050.5,-245 1050.5,-93 1050.5,-78.3 1050.5,-61.93 1050.5,-48.43"/>
<polygon fill="red" stroke="red" points="1054,-48.3 1050.5,-38.3 1047,-48.3 1054,-48.3"/>
<text text-anchor="middle" x="1078.5" y="-295" font-family="Times,serif" font-size="10.00" fill="red">1.1.4</text>
<text text-anchor="middle" x="1078.5" y="-284" font-family="Times,serif" font-size="10.00" fill="red">(latest: 1.1.7)</text>
</g>
<!-- roo_windows&#45;&gt;roo_time -->
<g id="edge44" class="edge">
<title>roo_windows&#45;&gt;roo_time</title>
<path fill="none" stroke="red" d="M772.33,-602.79C626.64,-592.22 175.1,-557.56 115.5,-530 104.94,-525.12 96.5,-523.63 96.5,-512 96.5,-512 96.5,-512 96.5,-168 96.5,-102.83 322.51,-95 419.32,-94.64"/>
<polygon fill="red" stroke="red" points="419.38,-98.14 429.37,-94.63 419.37,-91.14 419.38,-98.14"/>
<text text-anchor="middle" x="123.5" y="-343" font-family="Times,serif" font-size="10.00" fill="red">1.3.0</text>
<text text-anchor="middle" x="123.5" y="-332" font-family="Times,serif" font-size="10.00" fill="red">(latest: 1.3.2)</text>
</g>
<!-- roo_windows_transceivers -->
<g id="node29" class="node">
<title>roo_windows_transceivers</title>
<polygon fill="plum" stroke="black" points="1048,-722 887,-722 887,-684 1048,-684 1048,-722"/>
<text text-anchor="middle" x="967.5" y="-706.8" font-family="Times,serif" font-size="14.00">roo_windows_transceivers</text>
<text text-anchor="middle" x="967.5" y="-691.8" font-family="Times,serif" font-size="14.00">1.0.0</text>
</g>
<!-- roo_windows_transceivers&#45;&gt;roo_testing -->
<g id="edge45" class="edge">
<title>roo_windows_transceivers&#45;&gt;roo_testing</title>
<path fill="none" stroke="red" d="M1048.24,-685.28C1088.36,-676.84 1129.25,-667.96 1133.5,-666 1172.07,-648.18 1209.5,-650.49 1209.5,-608 1209.5,-608 1209.5,-608 1209.5,-93 1209.5,-43.9 1146.11,-27.7 1099.38,-22.43"/>
<polygon fill="red" stroke="red" points="1099.69,-18.94 1089.4,-21.44 1099,-25.91 1099.69,-18.94"/>
<text text-anchor="middle" x="1236.5" y="-343" font-family="Times,serif" font-size="10.00" fill="red">1.1.4</text>
<text text-anchor="middle" x="1236.5" y="-332" font-family="Times,serif" font-size="10.00" fill="red">(latest: 1.1.7)</text>
</g>
<!-- roo_windows_transceivers&#45;&gt;roo_transceivers -->
<g id="edge46" class="edge">
<title>roo_windows_transceivers&#45;&gt;roo_transceivers</title>
<path fill="none" stroke="red" d="M886.99,-685.62C884.12,-685.07 881.29,-684.53 878.5,-684 747.93,-659.29 594.61,-632.87 510.56,-618.61"/>
<polygon fill="red" stroke="red" points="511.1,-615.15 500.66,-616.93 509.93,-622.06 511.1,-615.15"/>
<text text-anchor="middle" x="798.5" y="-658" font-family="Times,serif" font-size="10.00" fill="red">1.1.1</text>
<text text-anchor="middle" x="798.5" y="-647" font-family="Times,serif" font-size="10.00" fill="red">(latest: 1.1.2)</text>
</g>
<!-- roo_windows_transceivers&#45;&gt;roo_windows -->
<g id="edge47" class="edge">
<title>roo_windows_transceivers&#45;&gt;roo_windows</title>
<path fill="none" stroke="black" d="M938.58,-683.88C914.82,-668.99 880.98,-647.78 855.12,-631.57"/>
<polygon fill="black" stroke="black" points="856.66,-628.41 846.33,-626.07 852.95,-634.34 856.66,-628.41"/>
</g>
<!-- roo_windows_wifi -->
<g id="node30" class="node">
<title>roo_windows_wifi</title>
<polygon fill="khaki" stroke="black" points="869,-722 750,-722 750,-684 869,-684 869,-722"/>
<text text-anchor="middle" x="809.5" y="-706.8" font-family="Times,serif" font-size="14.00">roo_windows_wifi</text>
<text text-anchor="middle" x="809.5" y="-691.8" font-family="Times,serif" font-size="14.00">1.1.1</text>
</g>
<!-- roo_windows_wifi&#45;&gt;roo_testing -->
<g id="edge48" class="edge">
<title>roo_windows_wifi&#45;&gt;roo_testing</title>
<path fill="none" stroke="red" d="M869.27,-685.41C959.35,-660.2 1119.5,-614.47 1119.5,-608 1119.5,-608 1119.5,-608 1119.5,-93 1119.5,-73.1 1105.79,-56.44 1090.59,-44.08"/>
<polygon fill="red" stroke="red" points="1092.66,-41.25 1082.58,-38.01 1088.44,-46.84 1092.66,-41.25"/>
<text text-anchor="middle" x="1146.5" y="-343" font-family="Times,serif" font-size="10.00" fill="red">1.1.4</text>
<text text-anchor="middle" x="1146.5" y="-332" font-family="Times,serif" font-size="10.00" fill="red">(latest: 1.1.7)</text>
</g>
<!-- roo_windows_wifi&#45;&gt;roo_wifi -->
<g id="edge49" class="edge">
<title>roo_windows_wifi&#45;&gt;roo_wifi</title>
<path fill="none" stroke="red" d="M749.82,-695.81C666.78,-686.19 512.31,-664.61 385.5,-626 385.4,-625.97 385.3,-625.94 385.21,-625.91"/>
<polygon fill="red" stroke="red" points="386.6,-622.69 376,-622.71 384.3,-629.3 386.6,-622.69"/>
<text text-anchor="middle" x="573.5" y="-658" font-family="Times,serif" font-size="10.00" fill="red">1.1.0</text>
<text text-anchor="middle" x="573.5" y="-647" font-family="Times,serif" font-size="10.00" fill="red">(latest: 1.1.1)</text>
</g>
<!-- roo_windows_wifi&#45;&gt;roo_windows -->
<g id="edge50" class="edge">
<title>roo_windows_wifi&#45;&gt;roo_windows</title>
<path fill="none" stroke="black" d="M821.38,-683.64C824.29,-678.18 827,-672.04 828.5,-666 830.91,-656.28 829.88,-645.54 827.68,-635.96"/>
<polygon fill="black" stroke="black" points="831,-634.84 824.95,-626.14 824.25,-636.71 831,-634.84"/>
</g>
</g>
</svg>
