<?xml version="1.0" encoding="UTF-8" standalone="no"?>
<!DOCTYPE svg PUBLIC "-//W3C//DTD SVG 1.1//EN"
 "http://www.w3.org/Graphics/SVG/1.1/DTD/svg11.dtd">
<!-- Generated by graphviz version 2.42.4 (0)
 -->
<!-- Title: dependencies Pages: 1 -->
<svg width="1162pt" height="751pt"
 viewBox="0.00 0.00 1162.00 751.00" xmlns="http://www.w3.org/2000/svg" xmlns:xlink="http://www.w3.org/1999/xlink">
<g id="graph0" class="graph" transform="scale(1 1) rotate(0) translate(4 747)">
<title>dependencies</title>
<polygon fill="white" stroke="transparent" points="-4,4 -4,-747 1158,-747 1158,4 -4,4"/>
<!-- roo_backport -->
<g id="node1" class="node">
<title>roo_backport</title>
<polygon fill="#b1dbab" stroke="black" points="587.5,-209 477.5,-209 477.5,-171 587.5,-171 587.5,-209"/>
<text text-anchor="middle" x="532.5" y="-193.8" font-family="Times,serif" font-size="14.00">roo_backport</text>
<text text-anchor="middle" x="532.5" y="-178.8" font-family="Times,serif" font-size="14.00">1.2.2</text>
</g>
<!-- roo_blink -->
<g id="node2" class="node">
<title>roo_blink</title>
<polygon fill="#b1dbab" stroke="black" points="319.5,-551 237.5,-551 237.5,-513 319.5,-513 319.5,-551"/>
<text text-anchor="middle" x="278.5" y="-535.8" font-family="Times,serif" font-size="14.00">roo_blink</text>
<text text-anchor="middle" x="278.5" y="-520.8" font-family="Times,serif" font-size="14.00">1.0.6</text>
</g>
<!-- roo_logging -->
<g id="node14" class="node">
<title>roo_logging</title>
<polygon fill="khaki" stroke="red" points="499.5,-284 399.5,-284 399.5,-246 499.5,-246 499.5,-284"/>
<text text-anchor="middle" x="449.5" y="-268.8" font-family="Times,serif" font-size="14.00">roo_logging</text>
<text text-anchor="middle" x="449.5" y="-253.8" font-family="Times,serif" font-size="14.00">1.5.5</text>
</g>
<!-- roo_blink&#45;&gt;roo_logging -->
<g id="edge1" class="edge">
<title>roo_blink&#45;&gt;roo_logging</title>
<path fill="none" stroke="black" d="M245.34,-512.81C225.11,-499.68 200.98,-479.91 189.5,-455 182.43,-439.66 182.76,-432.48 189.5,-417 207.98,-374.58 325.56,-318.49 396.12,-288.01"/>
<polygon fill="black" stroke="black" points="397.51,-291.22 405.32,-284.07 394.75,-284.79 397.51,-291.22"/>
</g>
<!-- roo_scheduler -->
<g id="node20" class="node">
<title>roo_scheduler</title>
<polygon fill="#b1dbab" stroke="black" points="314.5,-455 198.5,-455 198.5,-417 314.5,-417 314.5,-455"/>
<text text-anchor="middle" x="256.5" y="-439.8" font-family="Times,serif" font-size="14.00">roo_scheduler</text>
<text text-anchor="middle" x="256.5" y="-424.8" font-family="Times,serif" font-size="14.00">2.1.9</text>
</g>
<!-- roo_blink&#45;&gt;roo_scheduler -->
<g id="edge2" class="edge">
<title>roo_blink&#45;&gt;roo_scheduler</title>
<path fill="none" stroke="black" d="M274.26,-512.88C271.09,-499.35 266.71,-480.62 263.09,-465.15"/>
<polygon fill="black" stroke="black" points="266.42,-464.01 260.73,-455.07 259.6,-465.6 266.42,-464.01"/>
</g>
<!-- roo_collections -->
<g id="node3" class="node">
<title>roo_collections</title>
<polygon fill="#b1dbab" stroke="black" points="478.5,-359 356.5,-359 356.5,-321 478.5,-321 478.5,-359"/>
<text text-anchor="middle" x="417.5" y="-343.8" font-family="Times,serif" font-size="14.00">roo_collections</text>
<text text-anchor="middle" x="417.5" y="-328.8" font-family="Times,serif" font-size="14.00">1.4.3</text>
</g>
<!-- roo_collections&#45;&gt;roo_backport -->
<g id="edge3" class="edge">
<title>roo_collections&#45;&gt;roo_backport</title>
<path fill="none" stroke="black" d="M462.11,-320.9C478.87,-312.05 496.71,-299.84 508.5,-284 522.51,-265.18 528.37,-238.95 530.81,-219.14"/>
<polygon fill="black" stroke="black" points="534.29,-219.47 531.81,-209.17 527.33,-218.76 534.29,-219.47"/>
</g>
<!-- roo_comms -->
<g id="node4" class="node">
<title>roo_comms</title>
<polygon fill="#b1dbab" stroke="red" points="351,-743 254,-743 254,-705 351,-705 351,-743"/>
<text text-anchor="middle" x="302.5" y="-727.8" font-family="Times,serif" font-size="14.00">roo_comms</text>
<text text-anchor="middle" x="302.5" y="-712.8" font-family="Times,serif" font-size="14.00">1.1.4</text>
</g>
<!-- roo_comms&#45;&gt;roo_blink -->
<g id="edge4" class="edge">
<title>roo_comms&#45;&gt;roo_blink</title>
<path fill="none" stroke="black" d="M300.2,-704.78C296,-671.52 287.06,-600.73 282.06,-561.2"/>
<polygon fill="black" stroke="black" points="285.52,-560.65 280.79,-551.16 278.58,-561.52 285.52,-560.65"/>
</g>
<!-- roo_control -->
<g id="node5" class="node">
<title>roo_control</title>
<polygon fill="#b1dbab" stroke="black" points="97,-551 0,-551 0,-513 97,-513 97,-551"/>
<text text-anchor="middle" x="48.5" y="-535.8" font-family="Times,serif" font-size="14.00">roo_control</text>
<text text-anchor="middle" x="48.5" y="-520.8" font-family="Times,serif" font-size="14.00">1.2.5</text>
</g>
<!-- roo_comms&#45;&gt;roo_control -->
<g id="edge5" class="edge">
<title>roo_comms&#45;&gt;roo_control</title>
<path fill="none" stroke="black" d="M278.15,-704.78C232.16,-670.38 132.53,-595.86 80.93,-557.26"/>
<polygon fill="black" stroke="black" points="82.88,-554.35 72.78,-551.16 78.69,-559.96 82.88,-554.35"/>
</g>
<!-- roo_io -->
<g id="node12" class="node">
<title>roo_io</title>
<polygon fill="#b1dbab" stroke="black" points="561,-359 502,-359 502,-321 561,-321 561,-359"/>
<text text-anchor="middle" x="531.5" y="-343.8" font-family="Times,serif" font-size="14.00">roo_io</text>
<text text-anchor="middle" x="531.5" y="-328.8" font-family="Times,serif" font-size="14.00">2.1.6</text>
</g>
<!-- roo_comms&#45;&gt;roo_io -->
<g id="edge6" class="edge">
<title>roo_comms&#45;&gt;roo_io</title>
<path fill="none" stroke="red" d="M306.41,-704.85C316.64,-658.94 345.44,-539.9 374.5,-513 393.37,-495.53 582.76,-475.33 598.5,-455 620.63,-426.42 590.19,-389.87 563.48,-365.96"/>
<polygon fill="red" stroke="red" points="565.58,-363.16 555.73,-359.28 561.01,-368.46 565.58,-363.16"/>
<text text-anchor="middle" x="407.5" y="-535" font-family="Times,serif" font-size="10.00" fill="red">2.1.5</text>
<text text-anchor="middle" x="407.5" y="-524" font-family="Times,serif" font-size="10.00" fill="red">(latest: 2.1.6)</text>
</g>
<!-- roo_transceivers -->
<g id="node25" class="node">
<title>roo_transceivers</title>
<polygon fill="#b1dbab" stroke="black" points="636,-647 501,-647 501,-609 636,-609 636,-647"/>
<text text-anchor="middle" x="568.5" y="-631.8" font-family="Times,serif" font-size="14.00">roo_transceivers</text>
<text text-anchor="middle" x="568.5" y="-616.8" font-family="Times,serif" font-size="14.00">1.1.6</text>
</g>
<!-- roo_comms&#45;&gt;roo_transceivers -->
<g id="edge7" class="edge">
<title>roo_comms&#45;&gt;roo_transceivers</title>
<path fill="none" stroke="red" d="M351.33,-708.85C357.09,-707.43 362.91,-706.1 368.5,-705 432.21,-692.42 455.54,-716.28 513.5,-687 517.6,-684.93 532.19,-669.47 545.31,-655.03"/>
<polygon fill="red" stroke="red" points="548.26,-656.98 552.37,-647.21 543.07,-652.29 548.26,-656.98"/>
<text text-anchor="middle" x="568.5" y="-679" font-family="Times,serif" font-size="10.00" fill="red">1.1.5</text>
<text text-anchor="middle" x="568.5" y="-668" font-family="Times,serif" font-size="10.00" fill="red">(latest: 1.1.6)</text>
</g>
<!-- roo_quantity -->
<g id="node19" class="node">
<title>roo_quantity</title>
<polygon fill="#b1dbab" stroke="black" points="142,-455 35,-455 35,-417 142,-417 142,-455"/>
<text text-anchor="middle" x="88.5" y="-439.8" font-family="Times,serif" font-size="14.00">roo_quantity</text>
<text text-anchor="middle" x="88.5" y="-424.8" font-family="Times,serif" font-size="14.00">1.1.8</text>
</g>
<!-- roo_control&#45;&gt;roo_quantity -->
<g id="edge8" class="edge">
<title>roo_control&#45;&gt;roo_quantity</title>
<path fill="none" stroke="black" d="M56.21,-512.88C62.02,-499.22 70.09,-480.26 76.71,-464.71"/>
<polygon fill="black" stroke="black" points="80.12,-465.64 80.81,-455.07 73.68,-462.9 80.12,-465.64"/>
</g>
<!-- roo_control&#45;&gt;roo_scheduler -->
<g id="edge9" class="edge">
<title>roo_control&#45;&gt;roo_scheduler</title>
<path fill="none" stroke="black" d="M88.6,-512.88C122.42,-497.6 170.94,-475.67 207.13,-459.31"/>
<polygon fill="black" stroke="black" points="208.85,-462.38 216.52,-455.07 205.96,-456 208.85,-462.38"/>
</g>
<!-- roo_dashboard -->
<g id="node6" class="node">
<title>roo_dashboard</title>
<polygon fill="khaki" stroke="red" points="883.5,-743 761.5,-743 761.5,-705 883.5,-705 883.5,-743"/>
<text text-anchor="middle" x="822.5" y="-727.8" font-family="Times,serif" font-size="14.00">roo_dashboard</text>
<text text-anchor="middle" x="822.5" y="-712.8" font-family="Times,serif" font-size="14.00">1.0.1</text>
</g>
<!-- roo_windows -->
<g id="node28" class="node">
<title>roo_windows</title>
<polygon fill="plum" stroke="red" points="830,-647 721,-647 721,-609 830,-609 830,-647"/>
<text text-anchor="middle" x="775.5" y="-631.8" font-family="Times,serif" font-size="14.00">roo_windows</text>
<text text-anchor="middle" x="775.5" y="-616.8" font-family="Times,serif" font-size="14.00">1.4.2</text>
</g>
<!-- roo_dashboard&#45;&gt;roo_windows -->
<g id="edge10" class="edge">
<title>roo_dashboard&#45;&gt;roo_windows</title>
<path fill="none" stroke="red" d="M813.44,-704.88C806.55,-691.09 796.95,-671.9 789.13,-656.26"/>
<polygon fill="red" stroke="red" points="792.14,-654.45 784.53,-647.07 785.88,-657.58 792.14,-654.45"/>
<text text-anchor="middle" x="835.5" y="-679" font-family="Times,serif" font-size="10.00" fill="red">1.4.1</text>
<text text-anchor="middle" x="835.5" y="-668" font-family="Times,serif" font-size="10.00" fill="red">(latest: 1.4.2)</text>
</g>
<!-- roo_display -->
<g id="node7" class="node">
<title>roo_display</title>
<polygon fill="khaki" stroke="red" points="823.5,-455 725.5,-455 725.5,-417 823.5,-417 823.5,-455"/>
<text text-anchor="middle" x="774.5" y="-439.8" font-family="Times,serif" font-size="14.00">roo_display</text>
<text text-anchor="middle" x="774.5" y="-424.8" font-family="Times,serif" font-size="14.00">3.0.2</text>
</g>
<!-- roo_display&#45;&gt;roo_collections -->
<g id="edge11" class="edge">
<title>roo_display&#45;&gt;roo_collections</title>
<path fill="none" stroke="black" d="M725.41,-423.36C696.8,-416.48 660.05,-407.48 627.5,-399 581.17,-386.93 529.33,-372.62 488.74,-361.23"/>
<polygon fill="black" stroke="black" points="489.51,-357.82 478.94,-358.48 487.62,-364.55 489.51,-357.82"/>
</g>
<!-- roo_display&#45;&gt;roo_io -->
<g id="edge12" class="edge">
<title>roo_display&#45;&gt;roo_io</title>
<path fill="none" stroke="red" d="M727.93,-416.99C682.29,-399.33 613.5,-372.72 570.61,-356.13"/>
<polygon fill="red" stroke="red" points="571.67,-352.79 561.08,-352.44 569.15,-359.32 571.67,-352.79"/>
<text text-anchor="middle" x="708.5" y="-391" font-family="Times,serif" font-size="10.00" fill="red">2.1.5</text>
<text text-anchor="middle" x="708.5" y="-380" font-family="Times,serif" font-size="10.00" fill="red">(latest: 2.1.6)</text>
</g>
<!-- roo_flags -->
<g id="node8" class="node">
<title>roo_flags</title>
<polygon fill="#b1dbab" stroke="black" points="459.5,-209 379.5,-209 379.5,-171 459.5,-171 459.5,-209"/>
<text text-anchor="middle" x="419.5" y="-193.8" font-family="Times,serif" font-size="14.00">roo_flags</text>
<text text-anchor="middle" x="419.5" y="-178.8" font-family="Times,serif" font-size="14.00">1.2.3</text>
</g>
<!-- roo_fonts_basic -->
<g id="node9" class="node">
<title>roo_fonts_basic</title>
<polygon fill="#b1dbab" stroke="red" points="1052.5,-551 926.5,-551 926.5,-513 1052.5,-513 1052.5,-551"/>
<text text-anchor="middle" x="989.5" y="-535.8" font-family="Times,serif" font-size="14.00">roo_fonts_basic</text>
<text text-anchor="middle" x="989.5" y="-520.8" font-family="Times,serif" font-size="14.00">1.0.1</text>
</g>
<!-- roo_fonts_basic&#45;&gt;roo_display -->
<g id="edge13" class="edge">
<title>roo_fonts_basic&#45;&gt;roo_display</title>
<path fill="none" stroke="red" d="M948.3,-512.99C913.23,-497.65 862.71,-475.57 825.17,-459.15"/>
<polygon fill="red" stroke="red" points="826.49,-455.91 815.93,-455.11 823.69,-462.32 826.49,-455.91"/>
<text text-anchor="middle" x="933.5" y="-487" font-family="Times,serif" font-size="10.00" fill="red">3.0.1</text>
<text text-anchor="middle" x="933.5" y="-476" font-family="Times,serif" font-size="10.00" fill="red">(latest: 3.0.2)</text>
</g>
<!-- roo_fonts_material -->
<g id="node10" class="node">
<title>roo_fonts_material</title>
<polygon fill="#b1dbab" stroke="black" points="803,-551 654,-551 654,-513 803,-513 803,-551"/>
<text text-anchor="middle" x="728.5" y="-535.8" font-family="Times,serif" font-size="14.00">roo_fonts_material</text>
<text text-anchor="middle" x="728.5" y="-520.8" font-family="Times,serif" font-size="14.00">1.0.0</text>
</g>
<!-- roo_fonts_material&#45;&gt;roo_display -->
<g id="edge14" class="edge">
<title>roo_fonts_material&#45;&gt;roo_display</title>
<path fill="none" stroke="black" d="M737.37,-512.88C744.11,-499.09 753.51,-479.9 761.16,-464.26"/>
<polygon fill="black" stroke="black" points="764.41,-465.59 765.66,-455.07 758.12,-462.51 764.41,-465.59"/>
</g>
<!-- roo_icons -->
<g id="node11" class="node">
<title>roo_icons</title>
<polygon fill="#b1dbab" stroke="black" points="1154,-551 1071,-551 1071,-513 1154,-513 1154,-551"/>
<text text-anchor="middle" x="1112.5" y="-535.8" font-family="Times,serif" font-size="14.00">roo_icons</text>
<text text-anchor="middle" x="1112.5" y="-520.8" font-family="Times,serif" font-size="14.00">1.2.2</text>
</g>
<!-- roo_icons&#45;&gt;roo_display -->
<g id="edge15" class="edge">
<title>roo_icons&#45;&gt;roo_display</title>
<path fill="none" stroke="black" d="M1074.39,-512.92C1046.23,-500.19 1006.66,-483.58 970.5,-473 925.45,-459.81 873.09,-450.49 833.83,-444.64"/>
<polygon fill="black" stroke="black" points="834.29,-441.17 823.89,-443.19 833.28,-448.1 834.29,-441.17"/>
</g>
<!-- roo_io&#45;&gt;roo_logging -->
<g id="edge16" class="edge">
<title>roo_io&#45;&gt;roo_logging</title>
<path fill="none" stroke="black" d="M511.23,-320.96C501.08,-311.92 488.63,-300.83 477.57,-290.99"/>
<polygon fill="black" stroke="black" points="479.62,-288.13 469.82,-284.09 474.96,-293.35 479.62,-288.13"/>
</g>
<!-- roo_locale -->
<g id="node13" class="node">
<title>roo_locale</title>
<polygon fill="#b1dbab" stroke="black" points="908.5,-551 820.5,-551 820.5,-513 908.5,-513 908.5,-551"/>
<text text-anchor="middle" x="864.5" y="-535.8" font-family="Times,serif" font-size="14.00">roo_locale</text>
<text text-anchor="middle" x="864.5" y="-520.8" font-family="Times,serif" font-size="14.00">1.1.2</text>
</g>
<!-- roo_logging&#45;&gt;roo_backport -->
<g id="edge17" class="edge">
<title>roo_logging&#45;&gt;roo_backport</title>
<path fill="none" stroke="black" d="M470.02,-245.96C480.39,-236.83 493.14,-225.62 504.41,-215.7"/>
<polygon fill="black" stroke="black" points="506.73,-218.32 511.93,-209.09 502.11,-213.07 506.73,-218.32"/>
</g>
<!-- roo_logging&#45;&gt;roo_flags -->
<g id="edge18" class="edge">
<title>roo_logging&#45;&gt;roo_flags</title>
<path fill="none" stroke="black" d="M442.08,-245.96C438.69,-237.71 434.6,-227.75 430.84,-218.6"/>
<polygon fill="black" stroke="black" points="433.97,-217.01 426.93,-209.09 427.5,-219.67 433.97,-217.01"/>
</g>
<!-- roo_threads -->
<g id="node22" class="node">
<title>roo_threads</title>
<polygon fill="#b1dbab" stroke="red" points="361,-209 260,-209 260,-171 361,-171 361,-209"/>
<text text-anchor="middle" x="310.5" y="-193.8" font-family="Times,serif" font-size="14.00">roo_threads</text>
<text text-anchor="middle" x="310.5" y="-178.8" font-family="Times,serif" font-size="14.00">1.2.3</text>
</g>
<!-- roo_logging&#45;&gt;roo_threads -->
<g id="edge19" class="edge">
<title>roo_logging&#45;&gt;roo_threads</title>
<path fill="none" stroke="black" d="M415.14,-245.96C396.68,-236.26 373.73,-224.21 354.03,-213.86"/>
<polygon fill="black" stroke="black" points="355.43,-210.64 344.95,-209.09 352.17,-216.84 355.43,-210.64"/>
</g>
<!-- roo_monitoring -->
<g id="node15" class="node">
<title>roo_monitoring</title>
<polygon fill="#b1dbab" stroke="black" points="590,-455 465,-455 465,-417 590,-417 590,-455"/>
<text text-anchor="middle" x="527.5" y="-439.8" font-family="Times,serif" font-size="14.00">roo_monitoring</text>
<text text-anchor="middle" x="527.5" y="-424.8" font-family="Times,serif" font-size="14.00">1.1.1</text>
</g>
<!-- roo_monitoring&#45;&gt;roo_collections -->
<g id="edge20" class="edge">
<title>roo_monitoring&#45;&gt;roo_collections</title>
<path fill="none" stroke="black" d="M465.96,-416.97C450.55,-411.37 436.87,-405.07 431.5,-399 424.29,-390.85 420.64,-379.63 418.84,-369.23"/>
<polygon fill="black" stroke="black" points="422.31,-368.73 417.6,-359.24 415.36,-369.6 422.31,-368.73"/>
</g>
<!-- roo_monitoring&#45;&gt;roo_io -->
<g id="edge21" class="edge">
<title>roo_monitoring&#45;&gt;roo_io</title>
<path fill="none" stroke="black" d="M528.27,-416.88C528.85,-403.35 529.64,-384.62 530.3,-369.15"/>
<polygon fill="black" stroke="black" points="533.8,-369.21 530.73,-359.07 526.81,-368.91 533.8,-369.21"/>
</g>
<!-- roo_onewire -->
<g id="node16" class="node">
<title>roo_onewire</title>
<polygon fill="#b1dbab" stroke="black" points="219.5,-551 115.5,-551 115.5,-513 219.5,-513 219.5,-551"/>
<text text-anchor="middle" x="167.5" y="-535.8" font-family="Times,serif" font-size="14.00">roo_onewire</text>
<text text-anchor="middle" x="167.5" y="-520.8" font-family="Times,serif" font-size="14.00">2.0.9</text>
</g>
<!-- roo_onewire&#45;&gt;roo_quantity -->
<g id="edge23" class="edge">
<title>roo_onewire&#45;&gt;roo_quantity</title>
<path fill="none" stroke="black" d="M148.27,-512.82C142.69,-507.26 136.7,-501.02 131.5,-495 122.87,-484.99 114.05,-473.38 106.66,-463.19"/>
<polygon fill="black" stroke="black" points="109.49,-461.14 100.83,-455.03 103.8,-465.21 109.49,-461.14"/>
</g>
<!-- roo_onewire&#45;&gt;roo_scheduler -->
<g id="edge22" class="edge">
<title>roo_onewire&#45;&gt;roo_scheduler</title>
<path fill="none" stroke="black" d="M184.66,-512.88C198.2,-498.57 217.26,-478.44 232.35,-462.51"/>
<polygon fill="black" stroke="black" points="235.06,-464.74 239.39,-455.07 229.98,-459.92 235.06,-464.74"/>
</g>
<!-- roo_powersafefs -->
<g id="node17" class="node">
<title>roo_powersafefs</title>
<polygon fill="khaki" stroke="black" points="381,-284 248,-284 248,-246 381,-246 381,-284"/>
<text text-anchor="middle" x="314.5" y="-268.8" font-family="Times,serif" font-size="14.00">roo_powersafefs</text>
<text text-anchor="middle" x="314.5" y="-253.8" font-family="Times,serif" font-size="14.00">1.0.1</text>
</g>
<!-- roo_powersafefs&#45;&gt;roo_threads -->
<g id="edge24" class="edge">
<title>roo_powersafefs&#45;&gt;roo_threads</title>
<path fill="none" stroke="black" d="M313.51,-245.96C313.07,-237.88 312.54,-228.18 312.04,-219.18"/>
<polygon fill="black" stroke="black" points="315.53,-218.88 311.49,-209.09 308.54,-219.27 315.53,-218.88"/>
</g>
<!-- roo_prefs -->
<g id="node18" class="node">
<title>roo_prefs</title>
<polygon fill="#b1dbab" stroke="black" points="533,-551 450,-551 450,-513 533,-513 533,-551"/>
<text text-anchor="middle" x="491.5" y="-535.8" font-family="Times,serif" font-size="14.00">roo_prefs</text>
<text text-anchor="middle" x="491.5" y="-520.8" font-family="Times,serif" font-size="14.00">1.2.10</text>
</g>
<!-- roo_prefs&#45;&gt;roo_logging -->
<g id="edge25" class="edge">
<title>roo_prefs&#45;&gt;roo_logging</title>
<path fill="none" stroke="black" d="M533.22,-513.09C562.53,-499.45 601.82,-478.97 632.5,-455 665.14,-429.5 705.4,-412.16 683.5,-377 645.88,-316.6 565.35,-288.46 509.34,-275.78"/>
<polygon fill="black" stroke="black" points="510.05,-272.35 499.53,-273.65 508.57,-279.19 510.05,-272.35"/>
</g>
<!-- roo_prefs&#45;&gt;roo_scheduler -->
<g id="edge26" class="edge">
<title>roo_prefs&#45;&gt;roo_scheduler</title>
<path fill="none" stroke="black" d="M449.76,-514.3C411.13,-498.85 353.47,-475.79 311.18,-458.87"/>
<polygon fill="black" stroke="black" points="312.45,-455.61 301.86,-455.15 309.85,-462.11 312.45,-455.61"/>
</g>
<!-- roo_quantity&#45;&gt;roo_logging -->
<g id="edge27" class="edge">
<title>roo_quantity&#45;&gt;roo_logging</title>
<path fill="none" stroke="black" d="M91.97,-416.6C98.65,-386.83 116.36,-328.74 156.5,-302 197.44,-274.73 324.08,-291.51 389.03,-283.5"/>
<polygon fill="black" stroke="black" points="389.93,-286.9 399.28,-281.92 388.86,-279.98 389.93,-286.9"/>
</g>
<!-- roo_scheduler&#45;&gt;roo_collections -->
<g id="edge28" class="edge">
<title>roo_scheduler&#45;&gt;roo_collections</title>
<path fill="none" stroke="black" d="M287.54,-416.88C313.27,-401.86 350,-380.41 377.85,-364.15"/>
<polygon fill="black" stroke="black" points="379.68,-367.13 386.55,-359.07 376.15,-361.09 379.68,-367.13"/>
</g>
<!-- roo_scheduler&#45;&gt;roo_threads -->
<g id="edge29" class="edge">
<title>roo_scheduler&#45;&gt;roo_threads</title>
<path fill="none" stroke="black" d="M248.75,-416.93C234.98,-381.9 210.23,-303.17 238.5,-246 244.61,-233.64 254.98,-223.3 265.97,-215.04"/>
<polygon fill="black" stroke="black" points="268.24,-217.72 274.44,-209.13 264.24,-211.98 268.24,-217.72"/>
</g>
<!-- roo_testing -->
<g id="node21" class="node">
<title>roo_testing</title>
<polygon fill="#b1dbab" stroke="black" points="541,-38 444,-38 444,0 541,0 541,-38"/>
<text text-anchor="middle" x="492.5" y="-22.8" font-family="Times,serif" font-size="14.00">roo_testing</text>
<text text-anchor="middle" x="492.5" y="-7.8" font-family="Times,serif" font-size="14.00">1.3.4</text>
</g>
<!-- roo_time -->
<g id="node23" class="node">
<title>roo_time</title>
<polygon fill="#b1dbab" stroke="red" points="532,-134 453,-134 453,-96 532,-96 532,-134"/>
<text text-anchor="middle" x="492.5" y="-118.8" font-family="Times,serif" font-size="14.00">roo_time</text>
<text text-anchor="middle" x="492.5" y="-103.8" font-family="Times,serif" font-size="14.00">1.4.3</text>
</g>
<!-- roo_threads&#45;&gt;roo_time -->
<g id="edge30" class="edge">
<title>roo_threads&#45;&gt;roo_time</title>
<path fill="none" stroke="black" d="M355.49,-170.96C382.23,-160.23 416.17,-146.62 443.57,-135.62"/>
<polygon fill="black" stroke="black" points="445,-138.83 452.97,-131.85 442.39,-132.33 445,-138.83"/>
</g>
<!-- roo_time&#45;&gt;roo_testing -->
<g id="edge31" class="edge">
<title>roo_time&#45;&gt;roo_testing</title>
<path fill="none" stroke="red" d="M492.5,-95.88C492.5,-82.35 492.5,-63.62 492.5,-48.15"/>
<polygon fill="red" stroke="red" points="496,-48.07 492.5,-38.07 489,-48.07 496,-48.07"/>
<text text-anchor="middle" x="525.5" y="-70" font-family="Times,serif" font-size="10.00" fill="red">1.3.2</text>
<text text-anchor="middle" x="525.5" y="-59" font-family="Times,serif" font-size="10.00" fill="red">(latest: 1.3.4)</text>
</g>
<!-- roo_time_ds3231 -->
<g id="node24" class="node">
<title>roo_time_ds3231</title>
<polygon fill="#b1dbab" stroke="black" points="743.5,-209 605.5,-209 605.5,-171 743.5,-171 743.5,-209"/>
<text text-anchor="middle" x="674.5" y="-193.8" font-family="Times,serif" font-size="14.00">roo_time_ds3231</text>
<text text-anchor="middle" x="674.5" y="-178.8" font-family="Times,serif" font-size="14.00">1.1.6</text>
</g>
<!-- roo_time_ds3231&#45;&gt;roo_time -->
<g id="edge32" class="edge">
<title>roo_time_ds3231&#45;&gt;roo_time</title>
<path fill="none" stroke="black" d="M629.51,-170.96C602.77,-160.23 568.83,-146.62 541.43,-135.62"/>
<polygon fill="black" stroke="black" points="542.61,-132.33 532.03,-131.85 540,-138.83 542.61,-132.33"/>
</g>
<!-- roo_transceivers&#45;&gt;roo_prefs -->
<g id="edge33" class="edge">
<title>roo_transceivers&#45;&gt;roo_prefs</title>
<path fill="none" stroke="black" d="M556.87,-608.91C549.04,-597.16 538.23,-581.73 527.5,-569 524.54,-565.48 521.29,-561.91 518,-558.45"/>
<polygon fill="black" stroke="black" points="520.31,-555.8 510.81,-551.11 515.31,-560.7 520.31,-555.8"/>
</g>
<!-- roo_transport -->
<g id="node26" class="node">
<title>roo_transport</title>
<polygon fill="#b1dbab" stroke="red" points="446.5,-455 332.5,-455 332.5,-417 446.5,-417 446.5,-455"/>
<text text-anchor="middle" x="389.5" y="-439.8" font-family="Times,serif" font-size="14.00">roo_transport</text>
<text text-anchor="middle" x="389.5" y="-424.8" font-family="Times,serif" font-size="14.00">1.1.2</text>
</g>
<!-- roo_transport&#45;&gt;roo_collections -->
<g id="edge34" class="edge">
<title>roo_transport&#45;&gt;roo_collections</title>
<path fill="none" stroke="black" d="M393.24,-416.8C395.76,-405.29 399.38,-390.15 403.5,-377 404.37,-374.24 405.34,-371.39 406.35,-368.56"/>
<polygon fill="black" stroke="black" points="409.65,-369.74 409.9,-359.15 403.1,-367.27 409.65,-369.74"/>
</g>
<!-- roo_transport&#45;&gt;roo_io -->
<g id="edge35" class="edge">
<title>roo_transport&#45;&gt;roo_io</title>
<path fill="none" stroke="red" d="M408.78,-416.97C422.34,-404.82 441.26,-388.9 459.5,-377 469.93,-370.2 481.81,-363.78 492.88,-358.29"/>
<polygon fill="red" stroke="red" points="494.46,-361.41 501.94,-353.91 491.41,-355.11 494.46,-361.41"/>
<text text-anchor="middle" x="492.5" y="-391" font-family="Times,serif" font-size="10.00" fill="red">2.1.5</text>
<text text-anchor="middle" x="492.5" y="-380" font-family="Times,serif" font-size="10.00" fill="red">(latest: 2.1.6)</text>
</g>
<!-- roo_wifi -->
<g id="node27" class="node">
<title>roo_wifi</title>
<polygon fill="khaki" stroke="red" points="482.5,-647 410.5,-647 410.5,-609 482.5,-609 482.5,-647"/>
<text text-anchor="middle" x="446.5" y="-631.8" font-family="Times,serif" font-size="14.00">roo_wifi</text>
<text text-anchor="middle" x="446.5" y="-616.8" font-family="Times,serif" font-size="14.00">1.1.4</text>
</g>
<!-- roo_wifi&#45;&gt;roo_prefs -->
<g id="edge36" class="edge">
<title>roo_wifi&#45;&gt;roo_prefs</title>
<path fill="none" stroke="red" d="M446.44,-608.86C447.08,-596.95 449.23,-581.36 455.5,-569 457.29,-565.47 459.56,-562.06 462.09,-558.86"/>
<polygon fill="red" stroke="red" points="464.75,-561.13 468.76,-551.33 459.51,-556.49 464.75,-561.13"/>
<text text-anchor="middle" x="491.5" y="-583" font-family="Times,serif" font-size="10.00" fill="red">1.2.9</text>
<text text-anchor="middle" x="491.5" y="-572" font-family="Times,serif" font-size="10.00" fill="red">(latest: 1.2.10)</text>
</g>
<!-- roo_windows&#45;&gt;roo_icons -->
<g id="edge38" class="edge">
<title>roo_windows&#45;&gt;roo_icons</title>
<path fill="none" stroke="red" d="M830.16,-613.85C885.9,-600.13 975,-577.35 1061.17,-550.99"/>
<polygon fill="red" stroke="red" points="1062.31,-554.3 1070.84,-548.01 1060.25,-547.61 1062.31,-554.3"/>
<text text-anchor="middle" x="1031.5" y="-583" font-family="Times,serif" font-size="10.00" fill="red">1.2.1</text>
<text text-anchor="middle" x="1031.5" y="-572" font-family="Times,serif" font-size="10.00" fill="red">(latest: 1.2.2)</text>
</g>
<!-- roo_windows&#45;&gt;roo_locale -->
<g id="edge37" class="edge">
<title>roo_windows&#45;&gt;roo_locale</title>
<path fill="none" stroke="red" d="M792.66,-608.88C806.2,-594.57 825.26,-574.44 840.35,-558.51"/>
<polygon fill="red" stroke="red" points="843.06,-560.74 847.39,-551.07 837.98,-555.92 843.06,-560.74"/>
<text text-anchor="middle" x="860.5" y="-583" font-family="Times,serif" font-size="10.00" fill="red">1.1.1</text>
<text text-anchor="middle" x="860.5" y="-572" font-family="Times,serif" font-size="10.00" fill="red">(latest: 1.1.2)</text>
</g>
<!-- roo_windows&#45;&gt;roo_scheduler -->
<g id="edge39" class="edge">
<title>roo_windows&#45;&gt;roo_scheduler</title>
<path fill="none" stroke="red" d="M720.63,-612.44C679.65,-600.02 623.37,-579.6 579.5,-551 559.49,-537.96 562.2,-524.92 541.5,-513 457.34,-464.51 422.55,-479.84 324.31,-455.14"/>
<polygon fill="red" stroke="red" points="325.16,-451.74 314.6,-452.62 323.4,-458.52 325.16,-451.74"/>
<text text-anchor="middle" x="612.5" y="-535" font-family="Times,serif" font-size="10.00" fill="red">2.1.6</text>
<text text-anchor="middle" x="612.5" y="-524" font-family="Times,serif" font-size="10.00" fill="red">(latest: 2.1.9)</text>
</g>
<!-- roo_windows_transceivers -->
<g id="node29" class="node">
<title>roo_windows_transceivers</title>
<polygon fill="khaki" stroke="black" points="743.5,-743 539.5,-743 539.5,-705 743.5,-705 743.5,-743"/>
<text text-anchor="middle" x="641.5" y="-727.8" font-family="Times,serif" font-size="14.00">roo_windows_transceivers</text>
<text text-anchor="middle" x="641.5" y="-712.8" font-family="Times,serif" font-size="14.00">1.0.0</text>
</g>
<!-- roo_windows_transceivers&#45;&gt;roo_transceivers -->
<g id="edge40" class="edge">
<title>roo_windows_transceivers&#45;&gt;roo_transceivers</title>
<path fill="none" stroke="black" d="M631.84,-704.99C625.13,-693.14 615.6,-677.56 605.5,-665 602.64,-661.45 599.46,-657.88 596.19,-654.46"/>
<polygon fill="black" stroke="black" points="598.54,-651.85 589,-647.22 593.57,-656.78 598.54,-651.85"/>
</g>
<!-- roo_windows_transceivers&#45;&gt;roo_windows -->
<g id="edge41" class="edge">
<title>roo_windows_transceivers&#45;&gt;roo_windows</title>
<path fill="none" stroke="black" d="M667.34,-704.88C688.38,-690.12 718.26,-669.15 741.29,-653"/>
<polygon fill="black" stroke="black" points="743.57,-655.68 749.74,-647.07 739.55,-649.95 743.57,-655.68"/>
</g>
<!-- roo_windows_wifi -->
<g id="node30" class="node">
<title>roo_windows_wifi</title>
<polygon fill="khaki" stroke="red" points="519,-743 378,-743 378,-705 519,-705 519,-743"/>
<text text-anchor="middle" x="448.5" y="-727.8" font-family="Times,serif" font-size="14.00">roo_windows_wifi</text>
<text text-anchor="middle" x="448.5" y="-712.8" font-family="Times,serif" font-size="14.00">1.1.3</text>
</g>
<!-- roo_windows_wifi&#45;&gt;roo_wifi -->
<g id="edge42" class="edge">
<title>roo_windows_wifi&#45;&gt;roo_wifi</title>
<path fill="none" stroke="red" d="M447.95,-704.69C447.8,-699.02 447.63,-692.75 447.5,-687 447.28,-677.27 447.08,-666.62 446.93,-657.13"/>
<polygon fill="red" stroke="red" points="450.42,-656.97 446.76,-647.03 443.42,-657.08 450.42,-656.97"/>
<text text-anchor="middle" x="480.5" y="-679" font-family="Times,serif" font-size="10.00" fill="red">1.1.3</text>
<text text-anchor="middle" x="480.5" y="-668" font-family="Times,serif" font-size="10.00" fill="red">(latest: 1.1.4)</text>
</g>
<!-- roo_windows_wifi&#45;&gt;roo_windows -->
<g id="edge43" class="edge">
<title>roo_windows_wifi&#45;&gt;roo_windows</title>
<path fill="none" stroke="black" d="M519.29,-707.12C551.82,-699.69 586.65,-691.5 602.5,-687 640.78,-676.14 683.14,-661.97 716.36,-650.36"/>
<polygon fill="black" stroke="black" points="717.65,-653.62 725.92,-647 715.33,-647.01 717.65,-653.62"/>
</g>
</g>
</svg>
