<?xml version="1.0" encoding="UTF-8" standalone="no"?>
<!DOCTYPE svg PUBLIC "-//W3C//DTD SVG 1.1//EN"
 "http://www.w3.org/Graphics/SVG/1.1/DTD/svg11.dtd">
<!-- Generated by graphviz version 14.1.2 (0)
 -->
<!-- Title: dependencies Pages: 1 -->
<svg width="1324pt" height="759pt"
 viewBox="0.00 0.00 1324.00 759.00" xmlns="http://www.w3.org/2000/svg" xmlns:xlink="http://www.w3.org/1999/xlink">
<g id="graph0" class="graph" transform="scale(1 1) rotate(0) translate(4 755)">
<title>dependencies</title>
<polygon fill="white" stroke="none" points="-4,4 -4,-755 1319.5,-755 1319.5,4 -4,4"/>
<!-- roo_backport -->
<g id="node1" class="node">
<title>roo_backport</title>
<polygon fill="#b1dbab" stroke="black" points="621.88,-41 533.88,-41 533.88,0 621.88,0 621.88,-41"/>
<text xml:space="preserve" text-anchor="middle" x="577.88" y="-23.7" font-family="Times,serif" font-size="14.00">roo_backport</text>
<text xml:space="preserve" text-anchor="middle" x="577.88" y="-7.2" font-family="Times,serif" font-size="14.00">1.2.4</text>
</g>
<!-- roo_blink -->
<g id="node2" class="node">
<title>roo_blink</title>
<polygon fill="#b1dbab" stroke="red" points="665.12,-573.5 596.62,-573.5 596.62,-532.5 665.12,-532.5 665.12,-573.5"/>
<text xml:space="preserve" text-anchor="middle" x="630.88" y="-556.2" font-family="Times,serif" font-size="14.00">roo_blink</text>
<text xml:space="preserve" text-anchor="middle" x="630.88" y="-539.7" font-family="Times,serif" font-size="14.00">1.2.0</text>
</g>
<!-- roo_logging -->
<g id="node16" class="node">
<title>roo_logging</title>
<polygon fill="#b1dbab" stroke="red" points="312.88,-296.5 230.88,-296.5 230.88,-255.5 312.88,-255.5 312.88,-296.5"/>
<text xml:space="preserve" text-anchor="middle" x="271.88" y="-279.2" font-family="Times,serif" font-size="14.00">roo_logging</text>
<text xml:space="preserve" text-anchor="middle" x="271.88" y="-262.7" font-family="Times,serif" font-size="14.00">1.5.11</text>
</g>
<!-- roo_blink&#45;&gt;roo_logging -->
<g id="edge1" class="edge">
<title>roo_blink&#45;&gt;roo_logging</title>
<path fill="none" stroke="black" d="M596.41,-535.54C593.56,-534.43 590.69,-533.4 587.88,-532.5 459.76,-491.44 381.22,-573.69 290.88,-474 249.75,-428.62 256.68,-350.93 264.69,-307.92"/>
<polygon fill="black" stroke="black" points="268.09,-308.75 266.63,-298.25 261.23,-307.36 268.09,-308.75"/>
</g>
<!-- roo_scheduler -->
<g id="node23" class="node">
<title>roo_scheduler</title>
<polygon fill="#b1dbab" stroke="red" points="748.12,-474 655.62,-474 655.62,-433 748.12,-433 748.12,-474"/>
<text xml:space="preserve" text-anchor="middle" x="701.88" y="-456.7" font-family="Times,serif" font-size="14.00">roo_scheduler</text>
<text xml:space="preserve" text-anchor="middle" x="701.88" y="-440.2" font-family="Times,serif" font-size="14.00">2.3.0</text>
</g>
<!-- roo_blink&#45;&gt;roo_scheduler -->
<g id="edge2" class="edge">
<title>roo_blink&#45;&gt;roo_scheduler</title>
<path fill="none" stroke="black" d="M645.24,-532.27C655.44,-518.26 669.31,-499.23 680.76,-483.49"/>
<polygon fill="black" stroke="black" points="683.58,-485.57 686.64,-475.42 677.92,-481.45 683.58,-485.57"/>
</g>
<!-- roo_collections -->
<g id="node3" class="node">
<title>roo_collections</title>
<polygon fill="#b1dbab" stroke="red" points="751.5,-374.5 652.25,-374.5 652.25,-333.5 751.5,-333.5 751.5,-374.5"/>
<text xml:space="preserve" text-anchor="middle" x="701.88" y="-357.2" font-family="Times,serif" font-size="14.00">roo_collections</text>
<text xml:space="preserve" text-anchor="middle" x="701.88" y="-340.7" font-family="Times,serif" font-size="14.00">1.4.8</text>
</g>
<!-- roo_collections&#45;&gt;roo_backport -->
<g id="edge4" class="edge">
<title>roo_collections&#45;&gt;roo_backport</title>
<path fill="none" stroke="black" d="M651.84,-333.09C629.82,-320.74 608.88,-302.33 608.88,-277 608.88,-277 608.88,-277 608.88,-119 608.88,-95.69 600.73,-70.65 592.79,-51.79"/>
<polygon fill="black" stroke="black" points="596.07,-50.56 588.81,-42.84 589.67,-53.4 596.07,-50.56"/>
</g>
<!-- roo_testing -->
<g id="node24" class="node">
<title>roo_testing</title>
<polygon fill="#b1dbab" stroke="black" points="723.25,-41 646.5,-41 646.5,0 723.25,0 723.25,-41"/>
<text xml:space="preserve" text-anchor="middle" x="684.88" y="-23.7" font-family="Times,serif" font-size="14.00">roo_testing</text>
<text xml:space="preserve" text-anchor="middle" x="684.88" y="-7.2" font-family="Times,serif" font-size="14.00">2.3.1</text>
</g>
<!-- roo_collections&#45;&gt;roo_testing -->
<g id="edge3" class="edge">
<title>roo_collections&#45;&gt;roo_testing</title>
<path fill="none" stroke="red" d="M705.13,-333.06C707.34,-317.76 709.88,-296.1 709.88,-277 709.88,-277 709.88,-277 709.88,-119 709.88,-96.03 703.28,-70.94 696.87,-51.96"/>
<polygon fill="red" stroke="red" points="700.22,-50.96 693.57,-42.71 693.63,-53.31 700.22,-50.96"/>
<text xml:space="preserve" text-anchor="middle" x="736.5" y="-199.75" font-family="Times,serif" font-size="10.00" fill="red">2.3.0</text>
<text xml:space="preserve" text-anchor="middle" x="736.5" y="-188.5" font-family="Times,serif" font-size="10.00" fill="red">(latest: 2.3.1)</text>
</g>
<!-- roo_comms -->
<g id="node4" class="node">
<title>roo_comms</title>
<polygon fill="#b1dbab" stroke="red" points="478.5,-673 397.25,-673 397.25,-632 478.5,-632 478.5,-673"/>
<text xml:space="preserve" text-anchor="middle" x="437.88" y="-655.7" font-family="Times,serif" font-size="14.00">roo_comms</text>
<text xml:space="preserve" text-anchor="middle" x="437.88" y="-639.2" font-family="Times,serif" font-size="14.00">1.2.1</text>
</g>
<!-- roo_comms&#45;&gt;roo_blink -->
<g id="edge5" class="edge">
<title>roo_comms&#45;&gt;roo_blink</title>
<path fill="none" stroke="black" d="M477.4,-631.53C508.94,-615.6 553.14,-593.27 586.01,-576.66"/>
<polygon fill="black" stroke="black" points="587.56,-579.8 594.91,-572.17 584.4,-573.56 587.56,-579.8"/>
</g>
<!-- roo_control -->
<g id="node5" class="node">
<title>roo_control</title>
<polygon fill="#b1dbab" stroke="red" points="476.38,-573.5 397.38,-573.5 397.38,-532.5 476.38,-532.5 476.38,-573.5"/>
<text xml:space="preserve" text-anchor="middle" x="436.88" y="-556.2" font-family="Times,serif" font-size="14.00">roo_control</text>
<text xml:space="preserve" text-anchor="middle" x="436.88" y="-539.7" font-family="Times,serif" font-size="14.00">1.2.9</text>
</g>
<!-- roo_comms&#45;&gt;roo_control -->
<g id="edge6" class="edge">
<title>roo_comms&#45;&gt;roo_control</title>
<path fill="none" stroke="black" d="M437.67,-631.77C437.53,-618.29 437.35,-600.16 437.19,-584.79"/>
<polygon fill="black" stroke="black" points="440.7,-585.18 437.09,-575.21 433.7,-585.25 440.7,-585.18"/>
</g>
<!-- roo_transceivers -->
<g id="node28" class="node">
<title>roo_transceivers</title>
<polygon fill="#b1dbab" stroke="red" points="378.5,-573.5 273.25,-573.5 273.25,-532.5 378.5,-532.5 378.5,-573.5"/>
<text xml:space="preserve" text-anchor="middle" x="325.88" y="-556.2" font-family="Times,serif" font-size="14.00">roo_transceivers</text>
<text xml:space="preserve" text-anchor="middle" x="325.88" y="-539.7" font-family="Times,serif" font-size="14.00">1.3.0</text>
</g>
<!-- roo_comms&#45;&gt;roo_transceivers -->
<g id="edge7" class="edge">
<title>roo_comms&#45;&gt;roo_transceivers</title>
<path fill="none" stroke="black" d="M414.94,-631.53C398.33,-617.07 375.67,-597.35 357.37,-581.42"/>
<polygon fill="black" stroke="black" points="359.76,-578.86 349.92,-574.93 355.17,-584.14 359.76,-578.86"/>
</g>
<!-- roo_quantity -->
<g id="node22" class="node">
<title>roo_quantity</title>
<polygon fill="#b1dbab" stroke="red" points="243.38,-474 158.38,-474 158.38,-433 243.38,-433 243.38,-474"/>
<text xml:space="preserve" text-anchor="middle" x="200.88" y="-456.7" font-family="Times,serif" font-size="14.00">roo_quantity</text>
<text xml:space="preserve" text-anchor="middle" x="200.88" y="-440.2" font-family="Times,serif" font-size="14.00">1.1.11</text>
</g>
<!-- roo_control&#45;&gt;roo_quantity -->
<g id="edge8" class="edge">
<title>roo_control&#45;&gt;roo_quantity</title>
<path fill="none" stroke="black" d="M397.05,-535.16C393.97,-534.16 390.89,-533.26 387.88,-532.5 354.25,-524.02 261.53,-534.03 232.88,-514.5 222.56,-507.47 215.3,-496.01 210.34,-484.98"/>
<polygon fill="black" stroke="black" points="213.6,-483.7 206.67,-475.68 207.09,-486.26 213.6,-483.7"/>
</g>
<!-- roo_control&#45;&gt;roo_scheduler -->
<g id="edge9" class="edge">
<title>roo_control&#45;&gt;roo_scheduler</title>
<path fill="none" stroke="black" d="M476.68,-536.04C479.79,-534.83 482.88,-533.64 485.88,-532.5 515.43,-521.29 591.25,-494.04 644.68,-474.92"/>
<polygon fill="black" stroke="black" points="645.72,-478.27 653.95,-471.6 643.36,-471.67 645.72,-478.27"/>
</g>
<!-- roo_dashboard -->
<g id="node6" class="node">
<title>roo_dashboard</title>
<polygon fill="#b1dbab" stroke="red" points="997,-751 900.75,-751 900.75,-710 997,-710 997,-751"/>
<text xml:space="preserve" text-anchor="middle" x="948.88" y="-733.7" font-family="Times,serif" font-size="14.00">roo_dashboard</text>
<text xml:space="preserve" text-anchor="middle" x="948.88" y="-717.2" font-family="Times,serif" font-size="14.00">1.0.2</text>
</g>
<!-- roo_windows -->
<g id="node31" class="node">
<title>roo_windows</title>
<polygon fill="khaki" stroke="red" points="993.62,-673 904.12,-673 904.12,-632 993.62,-632 993.62,-673"/>
<text xml:space="preserve" text-anchor="middle" x="948.88" y="-655.7" font-family="Times,serif" font-size="14.00">roo_windows</text>
<text xml:space="preserve" text-anchor="middle" x="948.88" y="-639.2" font-family="Times,serif" font-size="14.00">1.7.0</text>
</g>
<!-- roo_dashboard&#45;&gt;roo_windows -->
<g id="edge10" class="edge">
<title>roo_dashboard&#45;&gt;roo_windows</title>
<path fill="none" stroke="black" d="M948.88,-709.53C948.88,-701.94 948.88,-693.1 948.88,-684.71"/>
<polygon fill="black" stroke="black" points="952.38,-684.85 948.88,-674.85 945.38,-684.85 952.38,-684.85"/>
</g>
<!-- roo_display -->
<g id="node7" class="node">
<title>roo_display</title>
<polygon fill="#b1dbab" stroke="black" points="948.75,-474 869,-474 869,-433 948.75,-433 948.75,-474"/>
<text xml:space="preserve" text-anchor="middle" x="908.88" y="-456.7" font-family="Times,serif" font-size="14.00">roo_display</text>
<text xml:space="preserve" text-anchor="middle" x="908.88" y="-440.2" font-family="Times,serif" font-size="14.00">3.3.2</text>
</g>
<!-- roo_display&#45;&gt;roo_collections -->
<g id="edge11" class="edge">
<title>roo_display&#45;&gt;roo_collections</title>
<path fill="none" stroke="black" d="M898.11,-432.56C889.9,-419.24 877.38,-402.4 861.88,-392.5 832.43,-373.7 794.54,-364.3 763.03,-359.62"/>
<polygon fill="black" stroke="black" points="763.61,-356.16 753.23,-358.3 762.67,-363.1 763.61,-356.16"/>
</g>
<!-- roo_io -->
<g id="node13" class="node">
<title>roo_io</title>
<polygon fill="#b1dbab" stroke="red" points="434.88,-374.5 380.88,-374.5 380.88,-333.5 434.88,-333.5 434.88,-374.5"/>
<text xml:space="preserve" text-anchor="middle" x="407.88" y="-357.2" font-family="Times,serif" font-size="14.00">roo_io</text>
<text xml:space="preserve" text-anchor="middle" x="407.88" y="-340.7" font-family="Times,serif" font-size="14.00">2.4.0</text>
</g>
<!-- roo_display&#45;&gt;roo_io -->
<g id="edge12" class="edge">
<title>roo_display&#45;&gt;roo_io</title>
<path fill="none" stroke="black" d="M868.72,-444.69C774.31,-426.31 539.2,-380.56 446.41,-362.5"/>
<polygon fill="black" stroke="black" points="447.28,-359.1 436.8,-360.63 445.94,-365.97 447.28,-359.1"/>
</g>
<!-- roo_display_lvgl -->
<g id="node8" class="node">
<title>roo_display_lvgl</title>
<polygon fill="khaki" stroke="red" points="879.62,-573.5 772.12,-573.5 772.12,-532.5 879.62,-532.5 879.62,-573.5"/>
<text xml:space="preserve" text-anchor="middle" x="825.88" y="-556.2" font-family="Times,serif" font-size="14.00">roo_display_lvgl</text>
<text xml:space="preserve" text-anchor="middle" x="825.88" y="-539.7" font-family="Times,serif" font-size="14.00">1.0.0</text>
</g>
<!-- roo_display_lvgl&#45;&gt;roo_display -->
<g id="edge13" class="edge">
<title>roo_display_lvgl&#45;&gt;roo_display</title>
<path fill="none" stroke="red" d="M837.99,-532.27C845.82,-520.15 856.57,-504.59 867.62,-492 870.56,-488.66 873.77,-485.31 877.06,-482.06"/>
<polygon fill="red" stroke="red" points="879.34,-484.72 884.2,-475.3 874.53,-479.64 879.34,-484.72"/>
<text xml:space="preserve" text-anchor="middle" x="894.25" y="-505" font-family="Times,serif" font-size="10.00" fill="red">3.0.3</text>
<text xml:space="preserve" text-anchor="middle" x="894.25" y="-493.75" font-family="Times,serif" font-size="10.00" fill="red">(latest: 3.3.2)</text>
</g>
<!-- roo_flags -->
<g id="node9" class="node">
<title>roo_flags</title>
<polygon fill="#b1dbab" stroke="black" points="305.38,-218.5 238.38,-218.5 238.38,-177.5 305.38,-177.5 305.38,-218.5"/>
<text xml:space="preserve" text-anchor="middle" x="271.88" y="-201.2" font-family="Times,serif" font-size="14.00">roo_flags</text>
<text xml:space="preserve" text-anchor="middle" x="271.88" y="-184.7" font-family="Times,serif" font-size="14.00">1.2.5</text>
</g>
<!-- roo_fonts_basic -->
<g id="node10" class="node">
<title>roo_fonts_basic</title>
<polygon fill="#b1dbab" stroke="black" points="1000,-573.5 897.75,-573.5 897.75,-532.5 1000,-532.5 1000,-573.5"/>
<text xml:space="preserve" text-anchor="middle" x="948.88" y="-556.2" font-family="Times,serif" font-size="14.00">roo_fonts_basic</text>
<text xml:space="preserve" text-anchor="middle" x="948.88" y="-539.7" font-family="Times,serif" font-size="14.00">1.0.6</text>
</g>
<!-- roo_fonts_basic&#45;&gt;roo_display -->
<g id="edge14" class="edge">
<title>roo_fonts_basic&#45;&gt;roo_display</title>
<path fill="none" stroke="black" d="M940.78,-532.27C935.2,-518.66 927.66,-500.3 921.32,-484.84"/>
<polygon fill="black" stroke="black" points="924.57,-483.52 917.53,-475.6 918.09,-486.18 924.57,-483.52"/>
</g>
<!-- roo_fonts_material -->
<g id="node11" class="node">
<title>roo_fonts_material</title>
<polygon fill="#b1dbab" stroke="red" points="1228.62,-573.5 1109.12,-573.5 1109.12,-532.5 1228.62,-532.5 1228.62,-573.5"/>
<text xml:space="preserve" text-anchor="middle" x="1168.88" y="-556.2" font-family="Times,serif" font-size="14.00">roo_fonts_material</text>
<text xml:space="preserve" text-anchor="middle" x="1168.88" y="-539.7" font-family="Times,serif" font-size="14.00">1.1.2</text>
</g>
<!-- roo_fonts_material&#45;&gt;roo_display -->
<g id="edge15" class="edge">
<title>roo_fonts_material&#45;&gt;roo_display</title>
<path fill="none" stroke="red" d="M1115.63,-532.03C1069.93,-514.89 1004.5,-490.36 959.56,-473.51"/>
<polygon fill="red" stroke="red" points="960.89,-470.27 950.3,-470.03 958.43,-476.82 960.89,-470.27"/>
<text xml:space="preserve" text-anchor="middle" x="1088.79" y="-505" font-family="Times,serif" font-size="10.00" fill="red">3.3.0</text>
<text xml:space="preserve" text-anchor="middle" x="1088.79" y="-493.75" font-family="Times,serif" font-size="10.00" fill="red">(latest: 3.3.2)</text>
</g>
<!-- roo_icons -->
<g id="node12" class="node">
<title>roo_icons</title>
<polygon fill="#b1dbab" stroke="red" points="1315.5,-573.5 1246.25,-573.5 1246.25,-532.5 1315.5,-532.5 1315.5,-573.5"/>
<text xml:space="preserve" text-anchor="middle" x="1280.88" y="-556.2" font-family="Times,serif" font-size="14.00">roo_icons</text>
<text xml:space="preserve" text-anchor="middle" x="1280.88" y="-539.7" font-family="Times,serif" font-size="14.00">1.2.5</text>
</g>
<!-- roo_icons&#45;&gt;roo_display -->
<g id="edge16" class="edge">
<title>roo_icons&#45;&gt;roo_display</title>
<path fill="none" stroke="red" d="M1245.79,-535.76C1243.13,-534.63 1240.47,-533.53 1237.88,-532.5 1186.35,-512.03 1173.55,-505.89 1119.88,-492 1066.09,-478.08 1003.27,-467.64 960.25,-461.36"/>
<polygon fill="red" stroke="red" points="960.83,-457.91 950.44,-459.95 959.84,-464.83 960.83,-457.91"/>
<text xml:space="preserve" text-anchor="middle" x="1218.17" y="-505" font-family="Times,serif" font-size="10.00" fill="red">3.3.0</text>
<text xml:space="preserve" text-anchor="middle" x="1218.17" y="-493.75" font-family="Times,serif" font-size="10.00" fill="red">(latest: 3.3.2)</text>
</g>
<!-- roo_io&#45;&gt;roo_logging -->
<g id="edge17" class="edge">
<title>roo_io&#45;&gt;roo_logging</title>
<path fill="none" stroke="black" d="M380.68,-337.8C362.63,-327.71 338.49,-314.22 317.53,-302.51"/>
<polygon fill="black" stroke="black" points="319.3,-299.49 308.86,-297.67 315.88,-305.6 319.3,-299.49"/>
</g>
<!-- roo_io_sdfat -->
<g id="node14" class="node">
<title>roo_io_sdfat</title>
<polygon fill="plum" stroke="black" points="1099,-751 1014.75,-751 1014.75,-710 1099,-710 1099,-751"/>
<text xml:space="preserve" text-anchor="middle" x="1056.88" y="-733.7" font-family="Times,serif" font-size="14.00">roo_io_sdfat</text>
<text xml:space="preserve" text-anchor="middle" x="1056.88" y="-717.2" font-family="Times,serif" font-size="14.00">1.0.0</text>
</g>
<!-- roo_locale -->
<g id="node15" class="node">
<title>roo_locale</title>
<polygon fill="#b1dbab" stroke="black" points="1091.38,-573.5 1018.38,-573.5 1018.38,-532.5 1091.38,-532.5 1091.38,-573.5"/>
<text xml:space="preserve" text-anchor="middle" x="1054.88" y="-556.2" font-family="Times,serif" font-size="14.00">roo_locale</text>
<text xml:space="preserve" text-anchor="middle" x="1054.88" y="-539.7" font-family="Times,serif" font-size="14.00">1.1.4</text>
</g>
<!-- roo_logging&#45;&gt;roo_flags -->
<g id="edge18" class="edge">
<title>roo_logging&#45;&gt;roo_flags</title>
<path fill="none" stroke="black" d="M271.88,-255.03C271.88,-247.44 271.88,-238.6 271.88,-230.21"/>
<polygon fill="black" stroke="black" points="275.38,-230.35 271.88,-220.35 268.38,-230.35 275.38,-230.35"/>
</g>
<!-- roo_threads -->
<g id="node25" class="node">
<title>roo_threads</title>
<polygon fill="#b1dbab" stroke="red" points="555.75,-218.5 476,-218.5 476,-177.5 555.75,-177.5 555.75,-218.5"/>
<text xml:space="preserve" text-anchor="middle" x="515.88" y="-201.2" font-family="Times,serif" font-size="14.00">roo_threads</text>
<text xml:space="preserve" text-anchor="middle" x="515.88" y="-184.7" font-family="Times,serif" font-size="14.00">1.2.9</text>
</g>
<!-- roo_logging&#45;&gt;roo_threads -->
<g id="edge19" class="edge">
<title>roo_logging&#45;&gt;roo_threads</title>
<path fill="none" stroke="black" d="M313.27,-262.11C355.13,-249.07 419.92,-228.89 464.92,-214.87"/>
<polygon fill="black" stroke="black" points="465.95,-218.22 474.46,-211.9 463.87,-211.53 465.95,-218.22"/>
</g>
<!-- roo_monitoring -->
<g id="node17" class="node">
<title>roo_monitoring</title>
<polygon fill="#b1dbab" stroke="red" points="637.62,-474 536.12,-474 536.12,-433 637.62,-433 637.62,-474"/>
<text xml:space="preserve" text-anchor="middle" x="586.88" y="-456.7" font-family="Times,serif" font-size="14.00">roo_monitoring</text>
<text xml:space="preserve" text-anchor="middle" x="586.88" y="-440.2" font-family="Times,serif" font-size="14.00">1.1.5</text>
</g>
<!-- roo_monitoring&#45;&gt;roo_collections -->
<g id="edge20" class="edge">
<title>roo_monitoring&#45;&gt;roo_collections</title>
<path fill="none" stroke="black" d="M618.16,-432.65C626.11,-427.21 634.49,-421.12 641.88,-415 653.69,-405.21 665.82,-393.45 676.06,-382.95"/>
<polygon fill="black" stroke="black" points="678.38,-385.59 682.77,-375.95 673.32,-380.75 678.38,-385.59"/>
</g>
<!-- roo_monitoring&#45;&gt;roo_io -->
<g id="edge21" class="edge">
<title>roo_monitoring&#45;&gt;roo_io</title>
<path fill="none" stroke="black" d="M550.22,-432.53C519.53,-415.82 475.92,-392.06 445.07,-375.26"/>
<polygon fill="black" stroke="black" points="446.92,-372.28 436.47,-370.57 443.58,-378.43 446.92,-372.28"/>
</g>
<!-- roo_onewire -->
<g id="node18" class="node">
<title>roo_onewire</title>
<polygon fill="#b1dbab" stroke="red" points="579,-573.5 494.75,-573.5 494.75,-532.5 579,-532.5 579,-573.5"/>
<text xml:space="preserve" text-anchor="middle" x="536.88" y="-556.2" font-family="Times,serif" font-size="14.00">roo_onewire</text>
<text xml:space="preserve" text-anchor="middle" x="536.88" y="-539.7" font-family="Times,serif" font-size="14.00">2.0.14</text>
</g>
<!-- roo_onewire&#45;&gt;roo_quantity -->
<g id="edge23" class="edge">
<title>roo_onewire&#45;&gt;roo_quantity</title>
<path fill="none" stroke="black" d="M494.3,-534.71C491.47,-533.88 488.65,-533.13 485.88,-532.5 436.95,-521.43 306.41,-535.53 260.88,-514.5 252.57,-510.66 238.2,-496.42 225.6,-482.78"/>
<polygon fill="black" stroke="black" points="228.38,-480.64 219.07,-475.58 223.2,-485.34 228.38,-480.64"/>
</g>
<!-- roo_onewire&#45;&gt;roo_scheduler -->
<g id="edge22" class="edge">
<title>roo_onewire&#45;&gt;roo_scheduler</title>
<path fill="none" stroke="black" d="M570.66,-532.03C596.02,-517.05 630.95,-496.41 658.39,-480.19"/>
<polygon fill="black" stroke="black" points="660,-483.31 666.83,-475.21 656.44,-477.28 660,-483.31"/>
</g>
<!-- roo_pb -->
<g id="node19" class="node">
<title>roo_pb</title>
<polygon fill="#b1dbab" stroke="black" points="140,-474 85.75,-474 85.75,-433 140,-433 140,-474"/>
<text xml:space="preserve" text-anchor="middle" x="112.88" y="-456.7" font-family="Times,serif" font-size="14.00">roo_pb</text>
<text xml:space="preserve" text-anchor="middle" x="112.88" y="-440.2" font-family="Times,serif" font-size="14.00">0.1.0</text>
</g>
<!-- roo_pb&#45;&gt;roo_io -->
<g id="edge24" class="edge">
<title>roo_pb&#45;&gt;roo_io</title>
<path fill="none" stroke="black" d="M140.11,-437C143.03,-435.57 145.99,-434.2 148.88,-433 224.85,-401.37 318.18,-376.49 369.5,-363.95"/>
<polygon fill="black" stroke="black" points="370.03,-367.42 378.92,-361.67 368.38,-360.62 370.03,-367.42"/>
</g>
<!-- roo_powersafefs -->
<g id="node20" class="node">
<title>roo_powersafefs</title>
<polygon fill="#b1dbab" stroke="red" points="542.88,-296.5 436.88,-296.5 436.88,-255.5 542.88,-255.5 542.88,-296.5"/>
<text xml:space="preserve" text-anchor="middle" x="489.88" y="-279.2" font-family="Times,serif" font-size="14.00">roo_powersafefs</text>
<text xml:space="preserve" text-anchor="middle" x="489.88" y="-262.7" font-family="Times,serif" font-size="14.00">1.0.3</text>
</g>
<!-- roo_powersafefs&#45;&gt;roo_threads -->
<g id="edge25" class="edge">
<title>roo_powersafefs&#45;&gt;roo_threads</title>
<path fill="none" stroke="black" d="M496.71,-255.03C499.36,-247.26 502.47,-238.19 505.4,-229.63"/>
<polygon fill="black" stroke="black" points="508.67,-230.86 508.6,-220.27 502.05,-228.6 508.67,-230.86"/>
</g>
<!-- roo_prefs -->
<g id="node21" class="node">
<title>roo_prefs</title>
<polygon fill="#b1dbab" stroke="red" points="67.75,-474 0,-474 0,-433 67.75,-433 67.75,-474"/>
<text xml:space="preserve" text-anchor="middle" x="33.88" y="-456.7" font-family="Times,serif" font-size="14.00">roo_prefs</text>
<text xml:space="preserve" text-anchor="middle" x="33.88" y="-440.2" font-family="Times,serif" font-size="14.00">2.0.3</text>
</g>
<!-- roo_prefs&#45;&gt;roo_logging -->
<g id="edge26" class="edge">
<title>roo_prefs&#45;&gt;roo_logging</title>
<path fill="none" stroke="black" d="M60.71,-432.71C103.57,-401.11 187.5,-339.22 235.64,-303.72"/>
<polygon fill="black" stroke="black" points="237.58,-306.64 243.55,-297.89 233.43,-301 237.58,-306.64"/>
</g>
<!-- roo_quantity&#45;&gt;roo_logging -->
<g id="edge27" class="edge">
<title>roo_quantity&#45;&gt;roo_logging</title>
<path fill="none" stroke="black" d="M208.88,-432.71C221.24,-402.16 245.05,-343.31 259.6,-307.35"/>
<polygon fill="black" stroke="black" points="262.72,-308.97 263.22,-298.39 256.23,-306.35 262.72,-308.97"/>
</g>
<!-- roo_scheduler&#45;&gt;roo_collections -->
<g id="edge28" class="edge">
<title>roo_scheduler&#45;&gt;roo_collections</title>
<path fill="none" stroke="black" d="M701.88,-432.77C701.88,-419.29 701.88,-401.16 701.88,-385.79"/>
<polygon fill="black" stroke="black" points="705.38,-386.21 701.88,-376.21 698.38,-386.21 705.38,-386.21"/>
</g>
<!-- roo_scheduler&#45;&gt;roo_threads -->
<g id="edge29" class="edge">
<title>roo_scheduler&#45;&gt;roo_threads</title>
<path fill="none" stroke="black" d="M685.86,-432.85C664.55,-406.54 625.97,-358.19 594.88,-315.5 573.6,-286.29 550.54,-251.95 534.86,-228.16"/>
<polygon fill="black" stroke="black" points="537.87,-226.36 529.45,-219.92 532.02,-230.2 537.87,-226.36"/>
</g>
<!-- roo_time -->
<g id="node26" class="node">
<title>roo_time</title>
<polygon fill="#b1dbab" stroke="red" points="580.62,-140.5 515.12,-140.5 515.12,-99.5 580.62,-99.5 580.62,-140.5"/>
<text xml:space="preserve" text-anchor="middle" x="547.88" y="-123.2" font-family="Times,serif" font-size="14.00">roo_time</text>
<text xml:space="preserve" text-anchor="middle" x="547.88" y="-106.7" font-family="Times,serif" font-size="14.00">2.0.1</text>
</g>
<!-- roo_threads&#45;&gt;roo_time -->
<g id="edge30" class="edge">
<title>roo_threads&#45;&gt;roo_time</title>
<path fill="none" stroke="black" d="M524.28,-177.03C527.59,-169.18 531.46,-159.98 535.1,-151.34"/>
<polygon fill="black" stroke="black" points="538.28,-152.8 538.94,-142.23 531.83,-150.09 538.28,-152.8"/>
</g>
<!-- roo_time&#45;&gt;roo_backport -->
<g id="edge32" class="edge">
<title>roo_time&#45;&gt;roo_backport</title>
<path fill="none" stroke="black" d="M553.95,-99.27C558.13,-85.66 563.78,-67.3 568.54,-51.84"/>
<polygon fill="black" stroke="black" points="571.77,-53.23 571.37,-42.65 565.08,-51.18 571.77,-53.23"/>
</g>
<!-- roo_time&#45;&gt;roo_testing -->
<g id="edge31" class="edge">
<title>roo_time&#45;&gt;roo_testing</title>
<path fill="none" stroke="red" d="M575.93,-99.03C596.62,-84.31 624.97,-64.13 647.57,-48.05"/>
<polygon fill="red" stroke="red" points="649.51,-50.97 655.62,-42.32 645.45,-45.26 649.51,-50.97"/>
<text xml:space="preserve" text-anchor="middle" x="655.27" y="-72" font-family="Times,serif" font-size="10.00" fill="red">2.3.0</text>
<text xml:space="preserve" text-anchor="middle" x="655.27" y="-60.75" font-family="Times,serif" font-size="10.00" fill="red">(latest: 2.3.1)</text>
</g>
<!-- roo_time_ds3231 -->
<g id="node27" class="node">
<title>roo_time_ds3231</title>
<polygon fill="#b1dbab" stroke="red" points="411.5,-474 300.25,-474 300.25,-433 411.5,-433 411.5,-474"/>
<text xml:space="preserve" text-anchor="middle" x="355.88" y="-456.7" font-family="Times,serif" font-size="14.00">roo_time_ds3231</text>
<text xml:space="preserve" text-anchor="middle" x="355.88" y="-440.2" font-family="Times,serif" font-size="14.00">2.0.0</text>
</g>
<!-- roo_time_ds3231&#45;&gt;roo_io -->
<g id="edge33" class="edge">
<title>roo_time_ds3231&#45;&gt;roo_io</title>
<path fill="none" stroke="red" d="M364.8,-432.5C370.22,-420.7 377.47,-405.57 384.62,-392.5 386.09,-389.82 387.67,-387.07 389.28,-384.33"/>
<polygon fill="red" stroke="red" points="392.19,-386.27 394.38,-375.91 386.2,-382.65 392.19,-386.27"/>
<text xml:space="preserve" text-anchor="middle" x="411.25" y="-405.5" font-family="Times,serif" font-size="10.00" fill="red">2.3.0</text>
<text xml:space="preserve" text-anchor="middle" x="411.25" y="-394.25" font-family="Times,serif" font-size="10.00" fill="red">(latest: 2.4.0)</text>
</g>
<!-- roo_transceivers&#45;&gt;roo_collections -->
<g id="edge35" class="edge">
<title>roo_transceivers&#45;&gt;roo_collections</title>
<path fill="none" stroke="black" d="M378.83,-534.78C381.88,-533.96 384.91,-533.2 387.88,-532.5 468.69,-513.49 702.96,-537.14 756.88,-474 779.85,-447.1 754.65,-409 731.31,-383.21"/>
<polygon fill="black" stroke="black" points="733.98,-380.95 724.57,-376.07 728.89,-385.75 733.98,-380.95"/>
</g>
<!-- roo_transceivers&#45;&gt;roo_pb -->
<g id="edge34" class="edge">
<title>roo_transceivers&#45;&gt;roo_pb</title>
<path fill="none" stroke="black" d="M272.88,-535.53C269.16,-534.48 265.47,-533.46 261.88,-532.5 227.07,-523.25 215.04,-530.69 182.88,-514.5 166.73,-506.37 151.2,-493.74 138.9,-482.16"/>
<polygon fill="black" stroke="black" points="141.61,-479.91 132,-475.43 136.72,-484.92 141.61,-479.91"/>
</g>
<!-- roo_transceivers&#45;&gt;roo_prefs -->
<g id="edge36" class="edge">
<title>roo_transceivers&#45;&gt;roo_prefs</title>
<path fill="none" stroke="red" d="M272.99,-535.05C269.25,-534.11 265.52,-533.24 261.88,-532.5 188.62,-517.54 162.16,-546.56 94.62,-514.5 86.31,-510.55 71.76,-496.31 58.98,-482.69"/>
<polygon fill="red" stroke="red" points="61.71,-480.48 52.36,-475.5 56.56,-485.23 61.71,-480.48"/>
<text xml:space="preserve" text-anchor="middle" x="121.25" y="-505" font-family="Times,serif" font-size="10.00" fill="red">2.0.2</text>
<text xml:space="preserve" text-anchor="middle" x="121.25" y="-493.75" font-family="Times,serif" font-size="10.00" fill="red">(latest: 2.0.3)</text>
</g>
<!-- roo_transport -->
<g id="node29" class="node">
<title>roo_transport</title>
<polygon fill="#b1dbab" stroke="black" points="518.25,-474 429.5,-474 429.5,-433 518.25,-433 518.25,-474"/>
<text xml:space="preserve" text-anchor="middle" x="473.88" y="-456.7" font-family="Times,serif" font-size="14.00">roo_transport</text>
<text xml:space="preserve" text-anchor="middle" x="473.88" y="-440.2" font-family="Times,serif" font-size="14.00">1.2.2</text>
</g>
<!-- roo_transport&#45;&gt;roo_collections -->
<g id="edge37" class="edge">
<title>roo_transport&#45;&gt;roo_collections</title>
<path fill="none" stroke="black" d="M518.65,-433.35C554.84,-417.88 606.01,-395.99 645.08,-379.29"/>
<polygon fill="black" stroke="black" points="646.04,-382.69 653.85,-375.54 643.28,-376.25 646.04,-382.69"/>
</g>
<!-- roo_transport&#45;&gt;roo_io -->
<g id="edge38" class="edge">
<title>roo_transport&#45;&gt;roo_io</title>
<path fill="none" stroke="black" d="M462.85,-432.63C456.03,-420.74 446.89,-405.47 437.88,-392.5 435.89,-389.65 433.76,-386.73 431.58,-383.85"/>
<polygon fill="black" stroke="black" points="434.41,-381.79 425.51,-376.05 428.89,-386.09 434.41,-381.79"/>
</g>
<!-- roo_wifi -->
<g id="node30" class="node">
<title>roo_wifi</title>
<polygon fill="#b1dbab" stroke="black" points="253.12,-573.5 190.62,-573.5 190.62,-532.5 253.12,-532.5 253.12,-573.5"/>
<text xml:space="preserve" text-anchor="middle" x="221.88" y="-556.2" font-family="Times,serif" font-size="14.00">roo_wifi</text>
<text xml:space="preserve" text-anchor="middle" x="221.88" y="-539.7" font-family="Times,serif" font-size="14.00">3.0.0</text>
</g>
<!-- roo_wifi&#45;&gt;roo_prefs -->
<g id="edge39" class="edge">
<title>roo_wifi&#45;&gt;roo_prefs</title>
<path fill="none" stroke="black" d="M190.15,-551.47C156.63,-549.4 103.77,-541.62 67.88,-514.5 57.92,-506.98 50.43,-495.63 45.05,-484.82"/>
<polygon fill="black" stroke="black" points="48.27,-483.43 40.99,-475.74 41.88,-486.29 48.27,-483.43"/>
</g>
<!-- roo_wifi&#45;&gt;roo_scheduler -->
<g id="edge40" class="edge">
<title>roo_wifi&#45;&gt;roo_scheduler</title>
<path fill="none" stroke="black" d="M253.61,-536.13C257.03,-534.77 260.49,-533.52 263.88,-532.5 302.75,-520.77 571.97,-488.45 644.42,-474.09"/>
<polygon fill="black" stroke="black" points="644.76,-477.6 653.77,-472.03 643.26,-470.76 644.76,-477.6"/>
</g>
<!-- roo_windows&#45;&gt;roo_fonts_basic -->
<g id="edge41" class="edge">
<title>roo_windows&#45;&gt;roo_fonts_basic</title>
<path fill="none" stroke="red" d="M948.88,-631.77C948.88,-618.29 948.88,-600.16 948.88,-584.79"/>
<polygon fill="red" stroke="red" points="952.38,-585.21 948.88,-575.21 945.38,-585.21 952.38,-585.21"/>
<text xml:space="preserve" text-anchor="middle" x="975.5" y="-604.5" font-family="Times,serif" font-size="10.00" fill="red">1.0.5</text>
<text xml:space="preserve" text-anchor="middle" x="975.5" y="-593.25" font-family="Times,serif" font-size="10.00" fill="red">(latest: 1.0.6)</text>
</g>
<!-- roo_windows&#45;&gt;roo_fonts_material -->
<g id="edge42" class="edge">
<title>roo_windows&#45;&gt;roo_fonts_material</title>
<path fill="none" stroke="black" d="M993.93,-631.53C1028.63,-616.15 1076.77,-594.82 1113.76,-578.42"/>
<polygon fill="black" stroke="black" points="1114.78,-581.8 1122.5,-574.55 1111.94,-575.4 1114.78,-581.8"/>
</g>
<!-- roo_windows&#45;&gt;roo_icons -->
<g id="edge44" class="edge">
<title>roo_windows&#45;&gt;roo_icons</title>
<path fill="none" stroke="black" d="M993.63,-641.8C1048.84,-629.31 1145.53,-605.76 1235.25,-574.22"/>
<polygon fill="black" stroke="black" points="1236.2,-577.6 1244.44,-570.94 1233.85,-571 1236.2,-577.6"/>
</g>
<!-- roo_windows&#45;&gt;roo_locale -->
<g id="edge43" class="edge">
<title>roo_windows&#45;&gt;roo_locale</title>
<path fill="none" stroke="black" d="M982.68,-631.7C990.63,-626.39 998.84,-620.35 1005.88,-614 1016.04,-604.83 1025.88,-593.46 1034.03,-583.09"/>
<polygon fill="black" stroke="black" points="1036.81,-585.22 1040.09,-575.15 1031.24,-580.98 1036.81,-585.22"/>
</g>
<!-- roo_windows&#45;&gt;roo_scheduler -->
<g id="edge45" class="edge">
<title>roo_windows&#45;&gt;roo_scheduler</title>
<path fill="none" stroke="red" d="M903.87,-651.02C848.41,-647.74 755.85,-633.02 709.62,-573.5 690.35,-548.69 691.21,-511.47 695.1,-485.28"/>
<polygon fill="red" stroke="red" points="698.52,-486.05 696.78,-475.6 691.62,-484.85 698.52,-486.05"/>
<text xml:space="preserve" text-anchor="middle" x="736.25" y="-554.75" font-family="Times,serif" font-size="10.00" fill="red">2.2.0</text>
<text xml:space="preserve" text-anchor="middle" x="736.25" y="-543.5" font-family="Times,serif" font-size="10.00" fill="red">(latest: 2.3.0)</text>
</g>
<!-- roo_windows_transceivers -->
<g id="node32" class="node">
<title>roo_windows_transceivers</title>
<polygon fill="plum" stroke="red" points="780.25,-751 619.5,-751 619.5,-710 780.25,-710 780.25,-751"/>
<text xml:space="preserve" text-anchor="middle" x="699.88" y="-733.7" font-family="Times,serif" font-size="14.00">roo_windows_transceivers</text>
<text xml:space="preserve" text-anchor="middle" x="699.88" y="-717.2" font-family="Times,serif" font-size="14.00">1.0.0</text>
</g>
<!-- roo_windows_transceivers&#45;&gt;roo_transceivers -->
<g id="edge46" class="edge">
<title>roo_windows_transceivers&#45;&gt;roo_transceivers</title>
<path fill="none" stroke="red" d="M619.38,-728.33C523.62,-725.08 372,-713.49 334.62,-673 313.08,-649.66 314.21,-611.6 318.57,-584.82"/>
<polygon fill="red" stroke="red" points="321.96,-585.71 320.38,-575.24 315.09,-584.42 321.96,-585.71"/>
<text xml:space="preserve" text-anchor="middle" x="361.25" y="-654.25" font-family="Times,serif" font-size="10.00" fill="red">1.2.0</text>
<text xml:space="preserve" text-anchor="middle" x="361.25" y="-643" font-family="Times,serif" font-size="10.00" fill="red">(latest: 1.3.0)</text>
</g>
<!-- roo_windows_transceivers&#45;&gt;roo_windows -->
<g id="edge47" class="edge">
<title>roo_windows_transceivers&#45;&gt;roo_windows</title>
<path fill="none" stroke="black" d="M765.3,-709.53C805.03,-697.4 855.22,-682.08 893.08,-670.53"/>
<polygon fill="black" stroke="black" points="893.91,-673.93 902.46,-667.67 891.87,-667.24 893.91,-673.93"/>
</g>
<!-- roo_windows_wifi -->
<g id="node33" class="node">
<title>roo_windows_wifi</title>
<polygon fill="khaki" stroke="red" points="398.88,-751 280.88,-751 280.88,-710 398.88,-710 398.88,-751"/>
<text xml:space="preserve" text-anchor="middle" x="339.88" y="-733.7" font-family="Times,serif" font-size="14.00">roo_windows_wifi</text>
<text xml:space="preserve" text-anchor="middle" x="339.88" y="-717.2" font-family="Times,serif" font-size="14.00">1.1.4</text>
</g>
<!-- roo_windows_wifi&#45;&gt;roo_wifi -->
<g id="edge48" class="edge">
<title>roo_windows_wifi&#45;&gt;roo_wifi</title>
<path fill="none" stroke="red" d="M294.13,-709.53C278.22,-700.5 261.63,-688.35 250.62,-673 232.14,-647.2 225.44,-611 223.06,-585.32"/>
<polygon fill="red" stroke="red" points="226.56,-585.22 222.34,-575.5 219.58,-585.73 226.56,-585.22"/>
<text xml:space="preserve" text-anchor="middle" x="277.25" y="-654.25" font-family="Times,serif" font-size="10.00" fill="red">1.1.6</text>
<text xml:space="preserve" text-anchor="middle" x="277.25" y="-643" font-family="Times,serif" font-size="10.00" fill="red">(latest: 3.0.0)</text>
</g>
<!-- roo_windows_wifi&#45;&gt;roo_windows -->
<g id="edge49" class="edge">
<title>roo_windows_wifi&#45;&gt;roo_windows</title>
<path fill="none" stroke="black" d="M399.1,-722.11C516.57,-707.45 777.62,-674.87 892.62,-660.52"/>
<polygon fill="black" stroke="black" points="892.95,-664.01 902.44,-659.29 892.09,-657.06 892.95,-664.01"/>
</g>
</g>
</svg>
