<?xml version="1.0" encoding="UTF-8" standalone="no"?>
<!DOCTYPE svg PUBLIC "-//W3C//DTD SVG 1.1//EN"
 "http://www.w3.org/Graphics/SVG/1.1/DTD/svg11.dtd">
<!-- Generated by graphviz version 2.42.4 (0)
 -->
<!-- Title: dependencies Pages: 1 -->
<svg width="831pt" height="793pt"
 viewBox="0.00 0.00 830.50 793.00" xmlns="http://www.w3.org/2000/svg" xmlns:xlink="http://www.w3.org/1999/xlink">
<g id="graph0" class="graph" transform="scale(1 1) rotate(0) translate(4 789)">
<title>dependencies</title>
<polygon fill="white" stroke="transparent" points="-4,4 -4,-789 826.5,-789 826.5,4 -4,4"/>
<!-- roo_backport -->
<g id="node1" class="node">
<title>roo_backport</title>
<polygon fill="#b1dbab" stroke="black" points="450.5,-209 361.5,-209 361.5,-171 450.5,-171 450.5,-209"/>
<text text-anchor="middle" x="406" y="-193.8" font-family="Times,serif" font-size="14.00">roo_backport</text>
<text text-anchor="middle" x="406" y="-178.8" font-family="Times,serif" font-size="14.00">1.2.1</text>
</g>
<!-- roo_blink -->
<g id="node2" class="node">
<title>roo_blink</title>
<polygon fill="#b1dbab" stroke="black" points="167.5,-593 98.5,-593 98.5,-555 167.5,-555 167.5,-593"/>
<text text-anchor="middle" x="133" y="-577.8" font-family="Times,serif" font-size="14.00">roo_blink</text>
<text text-anchor="middle" x="133" y="-562.8" font-family="Times,serif" font-size="14.00">1.0.5</text>
</g>
<!-- roo_logging -->
<g id="node13" class="node">
<title>roo_logging</title>
<polygon fill="#b1dbab" stroke="black" points="332.5,-305 249.5,-305 249.5,-267 332.5,-267 332.5,-305"/>
<text text-anchor="middle" x="291" y="-289.8" font-family="Times,serif" font-size="14.00">roo_logging</text>
<text text-anchor="middle" x="291" y="-274.8" font-family="Times,serif" font-size="14.00">1.5.3</text>
</g>
<!-- roo_blink&#45;&gt;roo_logging -->
<g id="edge1" class="edge">
<title>roo_blink&#45;&gt;roo_logging</title>
<path fill="none" stroke="black" d="M138.48,-554.68C145.67,-531.69 159.36,-491.35 176,-459 204.05,-404.46 245.84,-346.16 270.56,-313.38"/>
<polygon fill="black" stroke="black" points="273.5,-315.3 276.76,-305.22 267.92,-311.07 273.5,-315.3"/>
</g>
<!-- roo_scheduler -->
<g id="node19" class="node">
<title>roo_scheduler</title>
<polygon fill="#b1dbab" stroke="black" points="278.5,-497 185.5,-497 185.5,-459 278.5,-459 278.5,-497"/>
<text text-anchor="middle" x="232" y="-481.8" font-family="Times,serif" font-size="14.00">roo_scheduler</text>
<text text-anchor="middle" x="232" y="-466.8" font-family="Times,serif" font-size="14.00">2.1.7</text>
</g>
<!-- roo_blink&#45;&gt;roo_scheduler -->
<g id="edge2" class="edge">
<title>roo_blink&#45;&gt;roo_scheduler</title>
<path fill="none" stroke="black" d="M152.09,-554.88C167.29,-540.44 188.74,-520.07 205.59,-504.07"/>
<polygon fill="black" stroke="black" points="208.13,-506.49 212.97,-497.07 203.31,-501.42 208.13,-506.49"/>
</g>
<!-- roo_collections -->
<g id="node3" class="node">
<title>roo_collections</title>
<polygon fill="#b1dbab" stroke="black" points="542,-401 442,-401 442,-363 542,-363 542,-401"/>
<text text-anchor="middle" x="492" y="-385.8" font-family="Times,serif" font-size="14.00">roo_collections</text>
<text text-anchor="middle" x="492" y="-370.8" font-family="Times,serif" font-size="14.00">1.4.1</text>
</g>
<!-- roo_collections&#45;&gt;roo_backport -->
<g id="edge3" class="edge">
<title>roo_collections&#45;&gt;roo_backport</title>
<path fill="none" stroke="black" d="M483.75,-362.78C468.6,-329.3 436.25,-257.82 418.42,-218.44"/>
<polygon fill="black" stroke="black" points="421.53,-216.83 414.22,-209.16 415.16,-219.72 421.53,-216.83"/>
</g>
<!-- roo_comms -->
<g id="node4" class="node">
<title>roo_comms</title>
<polygon fill="#b1dbab" stroke="red" points="277,-785 195,-785 195,-747 277,-747 277,-785"/>
<text text-anchor="middle" x="236" y="-769.8" font-family="Times,serif" font-size="14.00">roo_comms</text>
<text text-anchor="middle" x="236" y="-754.8" font-family="Times,serif" font-size="14.00">1.1.3</text>
</g>
<!-- roo_comms&#45;&gt;roo_blink -->
<g id="edge4" class="edge">
<title>roo_comms&#45;&gt;roo_blink</title>
<path fill="none" stroke="red" d="M226.12,-746.78C207.97,-713.3 169.22,-641.82 147.88,-602.44"/>
<polygon fill="red" stroke="red" points="150.69,-600.29 142.85,-593.16 144.54,-603.62 150.69,-600.29"/>
<text text-anchor="middle" x="222" y="-673" font-family="Times,serif" font-size="10.00" fill="red">1.0.4</text>
<text text-anchor="middle" x="222" y="-662" font-family="Times,serif" font-size="10.00" fill="red">(latest: 1.0.5)</text>
</g>
<!-- roo_control -->
<g id="node5" class="node">
<title>roo_control</title>
<polygon fill="#b1dbab" stroke="black" points="80,-593 0,-593 0,-555 80,-555 80,-593"/>
<text text-anchor="middle" x="40" y="-577.8" font-family="Times,serif" font-size="14.00">roo_control</text>
<text text-anchor="middle" x="40" y="-562.8" font-family="Times,serif" font-size="14.00">1.2.4</text>
</g>
<!-- roo_comms&#45;&gt;roo_control -->
<g id="edge5" class="edge">
<title>roo_comms&#45;&gt;roo_control</title>
<path fill="none" stroke="red" d="M199.71,-746.94C174.62,-733.29 141.49,-712.87 117,-689 90.46,-663.13 67.8,-626.74 54.07,-602.08"/>
<polygon fill="red" stroke="red" points="57.12,-600.36 49.26,-593.25 50.97,-603.71 57.12,-600.36"/>
<text text-anchor="middle" x="144" y="-673" font-family="Times,serif" font-size="10.00" fill="red">1.2.3</text>
<text text-anchor="middle" x="144" y="-662" font-family="Times,serif" font-size="10.00" fill="red">(latest: 1.2.4)</text>
</g>
<!-- roo_io -->
<g id="node10" class="node">
<title>roo_io</title>
<polygon fill="plum" stroke="red" points="384,-401 330,-401 330,-363 384,-363 384,-401"/>
<text text-anchor="middle" x="357" y="-385.8" font-family="Times,serif" font-size="14.00">roo_io</text>
<text text-anchor="middle" x="357" y="-370.8" font-family="Times,serif" font-size="14.00">2.1.2</text>
</g>
<!-- roo_comms&#45;&gt;roo_io -->
<g id="edge6" class="edge">
<title>roo_comms&#45;&gt;roo_io</title>
<path fill="none" stroke="red" d="M241.75,-746.83C261.22,-685.37 324.7,-484.96 348.17,-410.87"/>
<polygon fill="red" stroke="red" points="351.53,-411.87 351.21,-401.28 344.85,-409.76 351.53,-411.87"/>
<text text-anchor="middle" x="329" y="-577" font-family="Times,serif" font-size="10.00" fill="red">2.1.1</text>
<text text-anchor="middle" x="329" y="-566" font-family="Times,serif" font-size="10.00" fill="red">(latest: 2.1.2)</text>
</g>
<!-- roo_transceivers -->
<g id="node24" class="node">
<title>roo_transceivers</title>
<polygon fill="#b1dbab" stroke="red" points="440,-689 334,-689 334,-651 440,-651 440,-689"/>
<text text-anchor="middle" x="387" y="-673.8" font-family="Times,serif" font-size="14.00">roo_transceivers</text>
<text text-anchor="middle" x="387" y="-658.8" font-family="Times,serif" font-size="14.00">1.1.4</text>
</g>
<!-- roo_comms&#45;&gt;roo_transceivers -->
<g id="edge7" class="edge">
<title>roo_comms&#45;&gt;roo_transceivers</title>
<path fill="none" stroke="black" d="M277.01,-750.39C291.11,-744.6 306.69,-737.33 320,-729 334.87,-719.69 349.79,-707.17 361.76,-696.14"/>
<polygon fill="black" stroke="black" points="364.29,-698.57 369.17,-689.16 359.49,-693.47 364.29,-698.57"/>
</g>
<!-- roo_quantity -->
<g id="node18" class="node">
<title>roo_quantity</title>
<polygon fill="#b1dbab" stroke="black" points="105,-497 19,-497 19,-459 105,-459 105,-497"/>
<text text-anchor="middle" x="62" y="-481.8" font-family="Times,serif" font-size="14.00">roo_quantity</text>
<text text-anchor="middle" x="62" y="-466.8" font-family="Times,serif" font-size="14.00">1.1.7</text>
</g>
<!-- roo_control&#45;&gt;roo_quantity -->
<g id="edge8" class="edge">
<title>roo_control&#45;&gt;roo_quantity</title>
<path fill="none" stroke="black" d="M44.24,-554.88C47.41,-541.35 51.79,-522.62 55.41,-507.15"/>
<polygon fill="black" stroke="black" points="58.9,-507.6 57.77,-497.07 52.08,-506.01 58.9,-507.6"/>
</g>
<!-- roo_control&#45;&gt;roo_scheduler -->
<g id="edge9" class="edge">
<title>roo_control&#45;&gt;roo_scheduler</title>
<path fill="none" stroke="black" d="M77.02,-554.88C108.1,-539.66 152.64,-517.85 186,-501.52"/>
<polygon fill="black" stroke="black" points="187.65,-504.61 195.09,-497.07 184.57,-498.32 187.65,-504.61"/>
</g>
<!-- roo_dashboard -->
<g id="node6" class="node">
<title>roo_dashboard</title>
<polygon fill="plum" stroke="red" points="719.5,-785 622.5,-785 622.5,-747 719.5,-747 719.5,-785"/>
<text text-anchor="middle" x="671" y="-769.8" font-family="Times,serif" font-size="14.00">roo_dashboard</text>
<text text-anchor="middle" x="671" y="-754.8" font-family="Times,serif" font-size="14.00">1.0.1</text>
</g>
<!-- roo_windows -->
<g id="node27" class="node">
<title>roo_windows</title>
<polygon fill="#b1dbab" stroke="red" points="637,-689 547,-689 547,-651 637,-651 637,-689"/>
<text text-anchor="middle" x="592" y="-673.8" font-family="Times,serif" font-size="14.00">roo_windows</text>
<text text-anchor="middle" x="592" y="-658.8" font-family="Times,serif" font-size="14.00">1.4.2</text>
</g>
<!-- roo_dashboard&#45;&gt;roo_windows -->
<g id="edge10" class="edge">
<title>roo_dashboard&#45;&gt;roo_windows</title>
<path fill="none" stroke="red" d="M655.77,-746.88C643.86,-732.7 627.13,-712.81 613.8,-696.94"/>
<polygon fill="red" stroke="red" points="616.3,-694.47 607.19,-689.07 610.94,-698.98 616.3,-694.47"/>
<text text-anchor="middle" x="665" y="-721" font-family="Times,serif" font-size="10.00" fill="red">1.4.1</text>
<text text-anchor="middle" x="665" y="-710" font-family="Times,serif" font-size="10.00" fill="red">(latest: 1.4.2)</text>
</g>
<!-- roo_display -->
<g id="node7" class="node">
<title>roo_display</title>
<polygon fill="khaki" stroke="red" points="577,-497 497,-497 497,-459 577,-459 577,-497"/>
<text text-anchor="middle" x="537" y="-481.8" font-family="Times,serif" font-size="14.00">roo_display</text>
<text text-anchor="middle" x="537" y="-466.8" font-family="Times,serif" font-size="14.00">2.3.2</text>
</g>
<!-- roo_display&#45;&gt;roo_collections -->
<g id="edge11" class="edge">
<title>roo_display&#45;&gt;roo_collections</title>
<path fill="none" stroke="red" d="M545.89,-458.77C550.37,-446.83 553.61,-431.22 547,-419 544.77,-414.88 541.84,-411.15 538.5,-407.8"/>
<polygon fill="red" stroke="red" points="540.49,-404.9 530.62,-401.06 535.94,-410.22 540.49,-404.9"/>
<text text-anchor="middle" x="577" y="-433" font-family="Times,serif" font-size="10.00" fill="red">1.4.0</text>
<text text-anchor="middle" x="577" y="-422" font-family="Times,serif" font-size="10.00" fill="red">(latest: 1.4.1)</text>
</g>
<!-- roo_display&#45;&gt;roo_io -->
<g id="edge12" class="edge">
<title>roo_display&#45;&gt;roo_io</title>
<path fill="none" stroke="black" d="M496.8,-462.22C493.17,-461.06 489.53,-459.97 486,-459 446.67,-448.18 429.94,-463.63 396,-441 384.64,-433.43 375.74,-421.31 369.32,-410.1"/>
<polygon fill="black" stroke="black" points="372.29,-408.23 364.52,-401.02 366.1,-411.5 372.29,-408.23"/>
</g>
<!-- roo_flags -->
<g id="node8" class="node">
<title>roo_flags</title>
<polygon fill="#b1dbab" stroke="black" points="325,-209 257,-209 257,-171 325,-171 325,-209"/>
<text text-anchor="middle" x="291" y="-193.8" font-family="Times,serif" font-size="14.00">roo_flags</text>
<text text-anchor="middle" x="291" y="-178.8" font-family="Times,serif" font-size="14.00">1.2.1</text>
</g>
<!-- roo_icons -->
<g id="node9" class="node">
<title>roo_icons</title>
<polygon fill="#b1dbab" stroke="red" points="627,-593 557,-593 557,-555 627,-555 627,-593"/>
<text text-anchor="middle" x="592" y="-577.8" font-family="Times,serif" font-size="14.00">roo_icons</text>
<text text-anchor="middle" x="592" y="-562.8" font-family="Times,serif" font-size="14.00">1.2.1</text>
</g>
<!-- roo_icons&#45;&gt;roo_display -->
<g id="edge13" class="edge">
<title>roo_icons&#45;&gt;roo_display</title>
<path fill="none" stroke="red" d="M581.4,-554.88C573.25,-540.96 561.89,-521.53 552.69,-505.82"/>
<polygon fill="red" stroke="red" points="555.64,-503.93 547.57,-497.07 549.6,-507.47 555.64,-503.93"/>
<text text-anchor="middle" x="596" y="-529" font-family="Times,serif" font-size="10.00" fill="red">2.3.1</text>
<text text-anchor="middle" x="596" y="-518" font-family="Times,serif" font-size="10.00" fill="red">(latest: 2.3.2)</text>
</g>
<!-- roo_io&#45;&gt;roo_logging -->
<g id="edge14" class="edge">
<title>roo_io&#45;&gt;roo_logging</title>
<path fill="none" stroke="red" d="M344.27,-362.88C334.41,-348.83 320.61,-329.17 309.52,-313.38"/>
<polygon fill="red" stroke="red" points="312.3,-311.24 303.69,-305.07 306.57,-315.26 312.3,-311.24"/>
<text text-anchor="middle" x="357" y="-337" font-family="Times,serif" font-size="10.00" fill="red">1.5.2</text>
<text text-anchor="middle" x="357" y="-326" font-family="Times,serif" font-size="10.00" fill="red">(latest: 1.5.3)</text>
</g>
<!-- roo_io_sdfat -->
<g id="node11" class="node">
<title>roo_io_sdfat</title>
<polygon fill="plum" stroke="black" points="822.5,-785 737.5,-785 737.5,-747 822.5,-747 822.5,-785"/>
<text text-anchor="middle" x="780" y="-769.8" font-family="Times,serif" font-size="14.00">roo_io_sdfat</text>
<text text-anchor="middle" x="780" y="-754.8" font-family="Times,serif" font-size="14.00">1.0.0</text>
</g>
<!-- roo_locale -->
<g id="node12" class="node">
<title>roo_locale</title>
<polygon fill="#b1dbab" stroke="black" points="719,-593 645,-593 645,-555 719,-555 719,-593"/>
<text text-anchor="middle" x="682" y="-577.8" font-family="Times,serif" font-size="14.00">roo_locale</text>
<text text-anchor="middle" x="682" y="-562.8" font-family="Times,serif" font-size="14.00">1.1.1</text>
</g>
<!-- roo_logging&#45;&gt;roo_backport -->
<g id="edge15" class="edge">
<title>roo_logging&#45;&gt;roo_backport</title>
<path fill="none" stroke="black" d="M313.17,-266.88C331.07,-252.25 356.42,-231.52 376.11,-215.43"/>
<polygon fill="black" stroke="black" points="378.37,-218.11 383.89,-209.07 373.94,-212.69 378.37,-218.11"/>
</g>
<!-- roo_logging&#45;&gt;roo_flags -->
<g id="edge16" class="edge">
<title>roo_logging&#45;&gt;roo_flags</title>
<path fill="none" stroke="black" d="M291,-266.88C291,-253.35 291,-234.62 291,-219.15"/>
<polygon fill="black" stroke="black" points="294.5,-219.07 291,-209.07 287.5,-219.07 294.5,-219.07"/>
</g>
<!-- roo_threads -->
<g id="node21" class="node">
<title>roo_threads</title>
<polygon fill="#b1dbab" stroke="black" points="218,-209 138,-209 138,-171 218,-171 218,-209"/>
<text text-anchor="middle" x="178" y="-193.8" font-family="Times,serif" font-size="14.00">roo_threads</text>
<text text-anchor="middle" x="178" y="-178.8" font-family="Times,serif" font-size="14.00">1.2.1</text>
</g>
<!-- roo_logging&#45;&gt;roo_threads -->
<g id="edge17" class="edge">
<title>roo_logging&#45;&gt;roo_threads</title>
<path fill="none" stroke="black" d="M275.95,-266.84C265.45,-254.78 250.74,-239.01 236,-227 230.69,-222.67 224.82,-218.47 218.92,-214.55"/>
<polygon fill="black" stroke="black" points="220.62,-211.47 210.31,-209.02 216.84,-217.37 220.62,-211.47"/>
</g>
<!-- roo_monitoring -->
<g id="node14" class="node">
<title>roo_monitoring</title>
<polygon fill="khaki" stroke="red" points="697,-497 595,-497 595,-459 697,-459 697,-497"/>
<text text-anchor="middle" x="646" y="-481.8" font-family="Times,serif" font-size="14.00">roo_monitoring</text>
<text text-anchor="middle" x="646" y="-466.8" font-family="Times,serif" font-size="14.00">1.0.0</text>
</g>
<!-- roo_monitoring&#45;&gt;roo_collections -->
<g id="edge18" class="edge">
<title>roo_monitoring&#45;&gt;roo_collections</title>
<path fill="none" stroke="red" d="M638.23,-458.86C631.85,-446.01 621.65,-429.29 608,-419 591.72,-406.73 571.2,-398.6 551.96,-393.22"/>
<polygon fill="red" stroke="red" points="552.61,-389.77 542.05,-390.66 550.85,-396.55 552.61,-389.77"/>
<text text-anchor="middle" x="654" y="-433" font-family="Times,serif" font-size="10.00" fill="red">1.3.2</text>
<text text-anchor="middle" x="654" y="-422" font-family="Times,serif" font-size="10.00" fill="red">(latest: 1.4.1)</text>
</g>
<!-- roo_monitoring&#45;&gt;roo_io -->
<g id="edge19" class="edge">
<title>roo_monitoring&#45;&gt;roo_io</title>
<path fill="none" stroke="red" d="M594.77,-460.94C591.82,-460.23 588.88,-459.58 586,-459 509.76,-443.76 480.93,-476.95 412,-441 400.55,-435.03 401.8,-428.46 393,-419 389.71,-415.46 386.19,-411.8 382.68,-408.22"/>
<polygon fill="red" stroke="red" points="385.11,-405.69 375.58,-401.06 380.14,-410.62 385.11,-405.69"/>
<text text-anchor="middle" x="439" y="-433" font-family="Times,serif" font-size="10.00" fill="red">2.0.3</text>
<text text-anchor="middle" x="439" y="-422" font-family="Times,serif" font-size="10.00" fill="red">(latest: 2.1.2)</text>
</g>
<!-- roo_onewire -->
<g id="node15" class="node">
<title>roo_onewire</title>
<polygon fill="#b1dbab" stroke="black" points="270.5,-593 185.5,-593 185.5,-555 270.5,-555 270.5,-593"/>
<text text-anchor="middle" x="228" y="-577.8" font-family="Times,serif" font-size="14.00">roo_onewire</text>
<text text-anchor="middle" x="228" y="-562.8" font-family="Times,serif" font-size="14.00">2.0.8</text>
</g>
<!-- roo_onewire&#45;&gt;roo_quantity -->
<g id="edge21" class="edge">
<title>roo_onewire&#45;&gt;roo_quantity</title>
<path fill="none" stroke="black" d="M195.99,-554.88C169.47,-539.86 131.6,-518.41 102.88,-502.15"/>
<polygon fill="black" stroke="black" points="104.33,-498.95 93.91,-497.07 100.89,-505.04 104.33,-498.95"/>
</g>
<!-- roo_onewire&#45;&gt;roo_scheduler -->
<g id="edge20" class="edge">
<title>roo_onewire&#45;&gt;roo_scheduler</title>
<path fill="none" stroke="black" d="M228.77,-554.88C229.35,-541.35 230.14,-522.62 230.8,-507.15"/>
<polygon fill="black" stroke="black" points="234.3,-507.21 231.23,-497.07 227.31,-506.91 234.3,-507.21"/>
</g>
<!-- roo_powersafefs -->
<g id="node16" class="node">
<title>roo_powersafefs</title>
<polygon fill="plum" stroke="red" points="231.5,-305 124.5,-305 124.5,-267 231.5,-267 231.5,-305"/>
<text text-anchor="middle" x="178" y="-289.8" font-family="Times,serif" font-size="14.00">roo_powersafefs</text>
<text text-anchor="middle" x="178" y="-274.8" font-family="Times,serif" font-size="14.00">1.0.0</text>
</g>
<!-- roo_powersafefs&#45;&gt;roo_threads -->
<g id="edge22" class="edge">
<title>roo_powersafefs&#45;&gt;roo_threads</title>
<path fill="none" stroke="red" d="M178,-266.88C178,-253.35 178,-234.62 178,-219.15"/>
<polygon fill="red" stroke="red" points="181.5,-219.07 178,-209.07 174.5,-219.07 181.5,-219.07"/>
<text text-anchor="middle" x="205" y="-241" font-family="Times,serif" font-size="10.00" fill="red">1.1.6</text>
<text text-anchor="middle" x="205" y="-230" font-family="Times,serif" font-size="10.00" fill="red">(latest: 1.2.1)</text>
</g>
<!-- roo_prefs -->
<g id="node17" class="node">
<title>roo_prefs</title>
<polygon fill="#b1dbab" stroke="black" points="447,-593 379,-593 379,-555 447,-555 447,-593"/>
<text text-anchor="middle" x="413" y="-577.8" font-family="Times,serif" font-size="14.00">roo_prefs</text>
<text text-anchor="middle" x="413" y="-562.8" font-family="Times,serif" font-size="14.00">1.2.8</text>
</g>
<!-- roo_prefs&#45;&gt;roo_logging -->
<g id="edge23" class="edge">
<title>roo_prefs&#45;&gt;roo_logging</title>
<path fill="none" stroke="black" d="M401.29,-554.6C382.16,-523.86 344.03,-459.63 321,-401 309.84,-372.59 301.5,-338.58 296.48,-315.15"/>
<polygon fill="black" stroke="black" points="299.87,-314.26 294.41,-305.18 293.02,-315.69 299.87,-314.26"/>
</g>
<!-- roo_prefs&#45;&gt;roo_scheduler -->
<g id="edge24" class="edge">
<title>roo_prefs&#45;&gt;roo_scheduler</title>
<path fill="none" stroke="black" d="M378.96,-555.32C349.78,-540.17 307.58,-518.25 275.88,-501.79"/>
<polygon fill="black" stroke="black" points="277.3,-498.58 266.82,-497.08 274.08,-504.8 277.3,-498.58"/>
</g>
<!-- roo_quantity&#45;&gt;roo_logging -->
<g id="edge25" class="edge">
<title>roo_quantity&#45;&gt;roo_logging</title>
<path fill="none" stroke="black" d="M67.04,-458.91C77.14,-426.2 103.11,-357.42 151,-323 181.47,-301.1 198.59,-313.65 239.66,-304.65"/>
<polygon fill="black" stroke="black" points="240.55,-308.03 249.4,-302.21 238.85,-301.24 240.55,-308.03"/>
</g>
<!-- roo_scheduler&#45;&gt;roo_collections -->
<g id="edge26" class="edge">
<title>roo_scheduler&#45;&gt;roo_collections</title>
<path fill="none" stroke="black" d="M278.78,-460.09C321.78,-444.54 385.73,-421.42 432.37,-404.56"/>
<polygon fill="black" stroke="black" points="433.83,-407.75 442.05,-401.06 431.45,-401.17 433.83,-407.75"/>
</g>
<!-- roo_scheduler&#45;&gt;roo_threads -->
<g id="edge27" class="edge">
<title>roo_scheduler&#45;&gt;roo_threads</title>
<path fill="none" stroke="black" d="M214.08,-458.91C186.44,-429.58 134.55,-368.51 115,-305 110.03,-288.86 109.27,-282.89 115,-267 121.97,-247.68 136.21,-229.8 149.4,-216.24"/>
<polygon fill="black" stroke="black" points="151.9,-218.69 156.56,-209.17 146.98,-213.7 151.9,-218.69"/>
</g>
<!-- roo_testing -->
<g id="node20" class="node">
<title>roo_testing</title>
<polygon fill="#b1dbab" stroke="black" points="136.5,-38 59.5,-38 59.5,0 136.5,0 136.5,-38"/>
<text text-anchor="middle" x="98" y="-22.8" font-family="Times,serif" font-size="14.00">roo_testing</text>
<text text-anchor="middle" x="98" y="-7.8" font-family="Times,serif" font-size="14.00">1.2.1</text>
</g>
<!-- roo_time -->
<g id="node22" class="node">
<title>roo_time</title>
<polygon fill="#b1dbab" stroke="black" points="131,-113 65,-113 65,-75 131,-75 131,-113"/>
<text text-anchor="middle" x="98" y="-97.8" font-family="Times,serif" font-size="14.00">roo_time</text>
<text text-anchor="middle" x="98" y="-82.8" font-family="Times,serif" font-size="14.00">1.4.1</text>
</g>
<!-- roo_threads&#45;&gt;roo_time -->
<g id="edge28" class="edge">
<title>roo_threads&#45;&gt;roo_time</title>
<path fill="none" stroke="black" d="M168.3,-170.76C161.49,-158.81 151.72,-143.2 141,-131 137.63,-127.17 133.84,-123.39 129.94,-119.82"/>
<polygon fill="black" stroke="black" points="132.22,-117.16 122.39,-113.22 127.62,-122.44 132.22,-117.16"/>
</g>
<!-- roo_time&#45;&gt;roo_testing -->
<g id="edge29" class="edge">
<title>roo_time&#45;&gt;roo_testing</title>
<path fill="none" stroke="black" d="M98,-74.96C98,-66.88 98,-57.18 98,-48.18"/>
<polygon fill="black" stroke="black" points="101.5,-48.09 98,-38.09 94.5,-48.09 101.5,-48.09"/>
</g>
<!-- roo_time_ds3231 -->
<g id="node23" class="node">
<title>roo_time_ds3231</title>
<polygon fill="#b1dbab" stroke="red" points="120,-209 8,-209 8,-171 120,-171 120,-209"/>
<text text-anchor="middle" x="64" y="-193.8" font-family="Times,serif" font-size="14.00">roo_time_ds3231</text>
<text text-anchor="middle" x="64" y="-178.8" font-family="Times,serif" font-size="14.00">1.1.4</text>
</g>
<!-- roo_time_ds3231&#45;&gt;roo_time -->
<g id="edge30" class="edge">
<title>roo_time_ds3231&#45;&gt;roo_time</title>
<path fill="none" stroke="red" d="M70.56,-170.88C75.49,-157.22 82.35,-138.26 87.98,-122.71"/>
<polygon fill="red" stroke="red" points="91.35,-123.66 91.46,-113.07 84.77,-121.28 91.35,-123.66"/>
<text text-anchor="middle" x="112" y="-145" font-family="Times,serif" font-size="10.00" fill="red">1.4.0</text>
<text text-anchor="middle" x="112" y="-134" font-family="Times,serif" font-size="10.00" fill="red">(latest: 1.4.1)</text>
</g>
<!-- roo_transceivers&#45;&gt;roo_prefs -->
<g id="edge31" class="edge">
<title>roo_transceivers&#45;&gt;roo_prefs</title>
<path fill="none" stroke="red" d="M354.62,-650.63C348.71,-645.71 343.37,-639.82 340,-633 335.67,-624.23 334.84,-619.3 340,-611 343.79,-604.91 356.06,-597.98 369.49,-591.84"/>
<polygon fill="red" stroke="red" points="371.12,-594.95 378.88,-587.74 368.32,-588.54 371.12,-594.95"/>
<text text-anchor="middle" x="367" y="-625" font-family="Times,serif" font-size="10.00" fill="red">1.2.7</text>
<text text-anchor="middle" x="367" y="-614" font-family="Times,serif" font-size="10.00" fill="red">(latest: 1.2.8)</text>
</g>
<!-- roo_transport -->
<g id="node25" class="node">
<title>roo_transport</title>
<polygon fill="khaki" stroke="red" points="476.5,-497 387.5,-497 387.5,-459 476.5,-459 476.5,-497"/>
<text text-anchor="middle" x="432" y="-481.8" font-family="Times,serif" font-size="14.00">roo_transport</text>
<text text-anchor="middle" x="432" y="-466.8" font-family="Times,serif" font-size="14.00">1.1.0</text>
</g>
<!-- roo_transport&#45;&gt;roo_collections -->
<g id="edge32" class="edge">
<title>roo_transport&#45;&gt;roo_collections</title>
<path fill="none" stroke="red" d="M454.68,-458.69C460.22,-453.41 465.77,-447.35 470,-441 476.09,-431.86 480.82,-420.79 484.3,-410.79"/>
<polygon fill="red" stroke="red" points="487.64,-411.84 487.38,-401.25 480.98,-409.69 487.64,-411.84"/>
<text text-anchor="middle" x="507" y="-433" font-family="Times,serif" font-size="10.00" fill="red">1.4.0</text>
<text text-anchor="middle" x="507" y="-422" font-family="Times,serif" font-size="10.00" fill="red">(latest: 1.4.1)</text>
</g>
<!-- roo_transport&#45;&gt;roo_io -->
<g id="edge33" class="edge">
<title>roo_transport&#45;&gt;roo_io</title>
<path fill="none" stroke="black" d="M390.93,-458.97C383.4,-454.08 376.27,-448.12 371,-441 364.64,-432.41 361.13,-421.33 359.21,-411.15"/>
<polygon fill="black" stroke="black" points="362.64,-410.41 357.73,-401.02 355.72,-411.42 362.64,-410.41"/>
</g>
<!-- roo_wifi -->
<g id="node26" class="node">
<title>roo_wifi</title>
<polygon fill="#b1dbab" stroke="red" points="521.5,-689 458.5,-689 458.5,-651 521.5,-651 521.5,-689"/>
<text text-anchor="middle" x="490" y="-673.8" font-family="Times,serif" font-size="14.00">roo_wifi</text>
<text text-anchor="middle" x="490" y="-658.8" font-family="Times,serif" font-size="14.00">1.1.3</text>
</g>
<!-- roo_wifi&#45;&gt;roo_prefs -->
<g id="edge34" class="edge">
<title>roo_wifi&#45;&gt;roo_prefs</title>
<path fill="none" stroke="red" d="M458.27,-655.13C439.81,-646.76 419.66,-636.96 417,-633 411.24,-624.41 409.45,-613.41 409.37,-603.31"/>
<polygon fill="red" stroke="red" points="412.87,-603.38 409.82,-593.24 405.88,-603.07 412.87,-603.38"/>
<text text-anchor="middle" x="444" y="-625" font-family="Times,serif" font-size="10.00" fill="red">1.2.7</text>
<text text-anchor="middle" x="444" y="-614" font-family="Times,serif" font-size="10.00" fill="red">(latest: 1.2.8)</text>
</g>
<!-- roo_windows&#45;&gt;roo_icons -->
<g id="edge36" class="edge">
<title>roo_windows&#45;&gt;roo_icons</title>
<path fill="none" stroke="black" d="M592,-650.88C592,-637.35 592,-618.62 592,-603.15"/>
<polygon fill="black" stroke="black" points="595.5,-603.07 592,-593.07 588.5,-603.07 595.5,-603.07"/>
</g>
<!-- roo_windows&#45;&gt;roo_locale -->
<g id="edge35" class="edge">
<title>roo_windows&#45;&gt;roo_locale</title>
<path fill="none" stroke="black" d="M609.35,-650.88C623.05,-636.57 642.32,-616.44 657.58,-600.51"/>
<polygon fill="black" stroke="black" points="660.31,-602.71 664.7,-593.07 655.26,-597.87 660.31,-602.71"/>
</g>
<!-- roo_windows&#45;&gt;roo_scheduler -->
<g id="edge37" class="edge">
<title>roo_windows&#45;&gt;roo_scheduler</title>
<path fill="none" stroke="red" d="M566.74,-650.78C546.53,-635.88 517.74,-613.93 494,-593 476.08,-577.21 476.28,-567.61 456,-555 403.74,-522.51 335.92,-502.02 288.65,-490.61"/>
<polygon fill="red" stroke="red" points="289.43,-487.19 278.89,-488.31 287.82,-494.01 289.43,-487.19"/>
<text text-anchor="middle" x="521" y="-577" font-family="Times,serif" font-size="10.00" fill="red">2.1.6</text>
<text text-anchor="middle" x="521" y="-566" font-family="Times,serif" font-size="10.00" fill="red">(latest: 2.1.7)</text>
</g>
<!-- roo_windows_transceivers -->
<g id="node28" class="node">
<title>roo_windows_transceivers</title>
<polygon fill="khaki" stroke="red" points="467.5,-785 306.5,-785 306.5,-747 467.5,-747 467.5,-785"/>
<text text-anchor="middle" x="387" y="-769.8" font-family="Times,serif" font-size="14.00">roo_windows_transceivers</text>
<text text-anchor="middle" x="387" y="-754.8" font-family="Times,serif" font-size="14.00">1.0.0</text>
</g>
<!-- roo_windows_transceivers&#45;&gt;roo_transceivers -->
<g id="edge38" class="edge">
<title>roo_windows_transceivers&#45;&gt;roo_transceivers</title>
<path fill="none" stroke="red" d="M387,-746.88C387,-733.35 387,-714.62 387,-699.15"/>
<polygon fill="red" stroke="red" points="390.5,-699.07 387,-689.07 383.5,-699.07 390.5,-699.07"/>
<text text-anchor="middle" x="414" y="-721" font-family="Times,serif" font-size="10.00" fill="red">1.1.3</text>
<text text-anchor="middle" x="414" y="-710" font-family="Times,serif" font-size="10.00" fill="red">(latest: 1.1.4)</text>
</g>
<!-- roo_windows_transceivers&#45;&gt;roo_windows -->
<g id="edge39" class="edge">
<title>roo_windows_transceivers&#45;&gt;roo_windows</title>
<path fill="none" stroke="red" d="M426.53,-746.88C459.85,-731.6 507.67,-709.67 543.34,-693.31"/>
<polygon fill="red" stroke="red" points="544.96,-696.42 552.6,-689.07 542.05,-690.06 544.96,-696.42"/>
<text text-anchor="middle" x="534" y="-721" font-family="Times,serif" font-size="10.00" fill="red">1.4.1</text>
<text text-anchor="middle" x="534" y="-710" font-family="Times,serif" font-size="10.00" fill="red">(latest: 1.4.2)</text>
</g>
<!-- roo_windows_wifi -->
<g id="node29" class="node">
<title>roo_windows_wifi</title>
<polygon fill="plum" stroke="red" points="604.5,-785 485.5,-785 485.5,-747 604.5,-747 604.5,-785"/>
<text text-anchor="middle" x="545" y="-769.8" font-family="Times,serif" font-size="14.00">roo_windows_wifi</text>
<text text-anchor="middle" x="545" y="-754.8" font-family="Times,serif" font-size="14.00">1.1.3</text>
</g>
<!-- roo_windows_wifi&#45;&gt;roo_wifi -->
<g id="edge40" class="edge">
<title>roo_windows_wifi&#45;&gt;roo_wifi</title>
<path fill="none" stroke="black" d="M519.49,-746.93C513.67,-741.73 508.02,-735.65 504,-729 498.55,-719.99 495.22,-708.98 493.19,-698.99"/>
<polygon fill="black" stroke="black" points="496.63,-698.35 491.51,-689.07 489.73,-699.52 496.63,-698.35"/>
</g>
<!-- roo_windows_wifi&#45;&gt;roo_windows -->
<g id="edge41" class="edge">
<title>roo_windows_wifi&#45;&gt;roo_windows</title>
<path fill="none" stroke="black" d="M564.79,-746.97C569.72,-741.61 574.57,-735.44 578,-729 582.86,-719.87 586.06,-709.03 588.16,-699.22"/>
<polygon fill="black" stroke="black" points="591.65,-699.56 590.02,-689.09 584.77,-698.29 591.65,-699.56"/>
</g>
</g>
</svg>
