<?xml version="1.0" encoding="UTF-8" standalone="no"?>
<!DOCTYPE svg PUBLIC "-//W3C//DTD SVG 1.1//EN"
 "http://www.w3.org/Graphics/SVG/1.1/DTD/svg11.dtd">
<!-- Generated by graphviz version 14.1.2 (0)
 -->
<!-- Title: dependencies Pages: 1 -->
<svg width="1324pt" height="738pt"
 viewBox="0.00 0.00 1324.00 738.00" xmlns="http://www.w3.org/2000/svg" xmlns:xlink="http://www.w3.org/1999/xlink">
<g id="graph0" class="graph" transform="scale(1 1) rotate(0) translate(4 733.5)">
<title>dependencies</title>
<polygon fill="white" stroke="none" points="-4,4 -4,-733.5 1319.5,-733.5 1319.5,4 -4,4"/>
<!-- roo_backport -->
<g id="node1" class="node">
<title>roo_backport</title>
<polygon fill="#b1dbab" stroke="black" points="621.88,-41 533.88,-41 533.88,0 621.88,0 621.88,-41"/>
<text xml:space="preserve" text-anchor="middle" x="577.88" y="-23.7" font-family="Times,serif" font-size="14.00">roo_backport</text>
<text xml:space="preserve" text-anchor="middle" x="577.88" y="-7.2" font-family="Times,serif" font-size="14.00">1.2.4</text>
</g>
<!-- roo_blink -->
<g id="node2" class="node">
<title>roo_blink</title>
<polygon fill="#b1dbab" stroke="red" points="664.12,-573.5 595.62,-573.5 595.62,-532.5 664.12,-532.5 664.12,-573.5"/>
<text xml:space="preserve" text-anchor="middle" x="629.88" y="-556.2" font-family="Times,serif" font-size="14.00">roo_blink</text>
<text xml:space="preserve" text-anchor="middle" x="629.88" y="-539.7" font-family="Times,serif" font-size="14.00">1.2.0</text>
</g>
<!-- roo_logging -->
<g id="node16" class="node">
<title>roo_logging</title>
<polygon fill="#b1dbab" stroke="red" points="312.88,-296.5 230.88,-296.5 230.88,-255.5 312.88,-255.5 312.88,-296.5"/>
<text xml:space="preserve" text-anchor="middle" x="271.88" y="-279.2" font-family="Times,serif" font-size="14.00">roo_logging</text>
<text xml:space="preserve" text-anchor="middle" x="271.88" y="-262.7" font-family="Times,serif" font-size="14.00">1.5.11</text>
</g>
<!-- roo_blink&#45;&gt;roo_logging -->
<g id="edge1" class="edge">
<title>roo_blink&#45;&gt;roo_logging</title>
<path fill="none" stroke="black" d="M595.41,-535.55C592.55,-534.43 589.68,-533.4 586.88,-532.5 459.18,-491.54 380.89,-573.4 290.88,-474 249.76,-428.6 256.69,-350.92 264.69,-307.92"/>
<polygon fill="black" stroke="black" points="268.09,-308.74 266.64,-298.25 261.23,-307.36 268.09,-308.74"/>
</g>
<!-- roo_scheduler -->
<g id="node23" class="node">
<title>roo_scheduler</title>
<polygon fill="#b1dbab" stroke="red" points="748.12,-474 655.62,-474 655.62,-433 748.12,-433 748.12,-474"/>
<text xml:space="preserve" text-anchor="middle" x="701.88" y="-456.7" font-family="Times,serif" font-size="14.00">roo_scheduler</text>
<text xml:space="preserve" text-anchor="middle" x="701.88" y="-440.2" font-family="Times,serif" font-size="14.00">2.3.0</text>
</g>
<!-- roo_blink&#45;&gt;roo_scheduler -->
<g id="edge2" class="edge">
<title>roo_blink&#45;&gt;roo_scheduler</title>
<path fill="none" stroke="black" d="M644.45,-532.27C654.89,-518.13 669.11,-498.87 680.79,-483.05"/>
<polygon fill="black" stroke="black" points="683.3,-485.54 686.43,-475.42 677.67,-481.38 683.3,-485.54"/>
</g>
<!-- roo_collections -->
<g id="node3" class="node">
<title>roo_collections</title>
<polygon fill="#b1dbab" stroke="red" points="751.5,-374.5 652.25,-374.5 652.25,-333.5 751.5,-333.5 751.5,-374.5"/>
<text xml:space="preserve" text-anchor="middle" x="701.88" y="-357.2" font-family="Times,serif" font-size="14.00">roo_collections</text>
<text xml:space="preserve" text-anchor="middle" x="701.88" y="-340.7" font-family="Times,serif" font-size="14.00">1.4.8</text>
</g>
<!-- roo_collections&#45;&gt;roo_backport -->
<g id="edge4" class="edge">
<title>roo_collections&#45;&gt;roo_backport</title>
<path fill="none" stroke="black" d="M651.84,-333.09C629.82,-320.74 608.88,-302.33 608.88,-277 608.88,-277 608.88,-277 608.88,-119 608.88,-95.69 600.73,-70.65 592.79,-51.79"/>
<polygon fill="black" stroke="black" points="596.07,-50.56 588.81,-42.84 589.67,-53.4 596.07,-50.56"/>
</g>
<!-- roo_testing -->
<g id="node24" class="node">
<title>roo_testing</title>
<polygon fill="#b1dbab" stroke="black" points="723.25,-41 646.5,-41 646.5,0 723.25,0 723.25,-41"/>
<text xml:space="preserve" text-anchor="middle" x="684.88" y="-23.7" font-family="Times,serif" font-size="14.00">roo_testing</text>
<text xml:space="preserve" text-anchor="middle" x="684.88" y="-7.2" font-family="Times,serif" font-size="14.00">2.3.1</text>
</g>
<!-- roo_collections&#45;&gt;roo_testing -->
<g id="edge3" class="edge">
<title>roo_collections&#45;&gt;roo_testing</title>
<path fill="none" stroke="red" d="M705.13,-333.06C707.34,-317.76 709.88,-296.1 709.88,-277 709.88,-277 709.88,-277 709.88,-119 709.88,-96.03 703.28,-70.94 696.87,-51.96"/>
<polygon fill="red" stroke="red" points="700.22,-50.96 693.57,-42.71 693.63,-53.31 700.22,-50.96"/>
<text xml:space="preserve" text-anchor="middle" x="736.5" y="-199.75" font-family="Times,serif" font-size="10.00" fill="red">2.3.0</text>
<text xml:space="preserve" text-anchor="middle" x="736.5" y="-188.5" font-family="Times,serif" font-size="10.00" fill="red">(latest: 2.3.1)</text>
</g>
<!-- roo_comms -->
<g id="node4" class="node">
<title>roo_comms</title>
<polygon fill="#b1dbab" stroke="red" points="478.5,-651.5 397.25,-651.5 397.25,-610.5 478.5,-610.5 478.5,-651.5"/>
<text xml:space="preserve" text-anchor="middle" x="437.88" y="-634.2" font-family="Times,serif" font-size="14.00">roo_comms</text>
<text xml:space="preserve" text-anchor="middle" x="437.88" y="-617.7" font-family="Times,serif" font-size="14.00">1.2.1</text>
</g>
<!-- roo_comms&#45;&gt;roo_blink -->
<g id="edge5" class="edge">
<title>roo_comms&#45;&gt;roo_blink</title>
<path fill="none" stroke="black" d="M478.94,-615.22C506.61,-605.09 544.12,-591.01 584.59,-574.35"/>
<polygon fill="black" stroke="black" points="585.93,-577.58 593.83,-570.52 583.25,-571.12 585.93,-577.58"/>
</g>
<!-- roo_control -->
<g id="node5" class="node">
<title>roo_control</title>
<polygon fill="#b1dbab" stroke="red" points="475.38,-573.5 396.38,-573.5 396.38,-532.5 475.38,-532.5 475.38,-573.5"/>
<text xml:space="preserve" text-anchor="middle" x="435.88" y="-556.2" font-family="Times,serif" font-size="14.00">roo_control</text>
<text xml:space="preserve" text-anchor="middle" x="435.88" y="-539.7" font-family="Times,serif" font-size="14.00">1.2.9</text>
</g>
<!-- roo_comms&#45;&gt;roo_control -->
<g id="edge6" class="edge">
<title>roo_comms&#45;&gt;roo_control</title>
<path fill="none" stroke="black" d="M437.35,-610.03C437.15,-602.44 436.92,-593.6 436.7,-585.21"/>
<polygon fill="black" stroke="black" points="440.2,-585.25 436.44,-575.35 433.2,-585.44 440.2,-585.25"/>
</g>
<!-- roo_transceivers -->
<g id="node28" class="node">
<title>roo_transceivers</title>
<polygon fill="#b1dbab" stroke="red" points="378.5,-573.5 273.25,-573.5 273.25,-532.5 378.5,-532.5 378.5,-573.5"/>
<text xml:space="preserve" text-anchor="middle" x="325.88" y="-556.2" font-family="Times,serif" font-size="14.00">roo_transceivers</text>
<text xml:space="preserve" text-anchor="middle" x="325.88" y="-539.7" font-family="Times,serif" font-size="14.00">1.3.0</text>
</g>
<!-- roo_comms&#45;&gt;roo_transceivers -->
<g id="edge7" class="edge">
<title>roo_comms&#45;&gt;roo_transceivers</title>
<path fill="none" stroke="black" d="M408.45,-610.03C394.94,-600.87 378.76,-589.88 364.31,-580.08"/>
<polygon fill="black" stroke="black" points="366.6,-577.4 356.36,-574.68 362.67,-583.2 366.6,-577.4"/>
</g>
<!-- roo_quantity -->
<g id="node22" class="node">
<title>roo_quantity</title>
<polygon fill="#b1dbab" stroke="red" points="243.38,-474 158.38,-474 158.38,-433 243.38,-433 243.38,-474"/>
<text xml:space="preserve" text-anchor="middle" x="200.88" y="-456.7" font-family="Times,serif" font-size="14.00">roo_quantity</text>
<text xml:space="preserve" text-anchor="middle" x="200.88" y="-440.2" font-family="Times,serif" font-size="14.00">1.1.11</text>
</g>
<!-- roo_control&#45;&gt;roo_quantity -->
<g id="edge8" class="edge">
<title>roo_control&#45;&gt;roo_quantity</title>
<path fill="none" stroke="black" d="M396.08,-534.89C393.33,-534 390.58,-533.19 387.88,-532.5 354.28,-523.9 261.53,-534.03 232.88,-514.5 222.56,-507.47 215.3,-496.01 210.34,-484.98"/>
<polygon fill="black" stroke="black" points="213.6,-483.7 206.67,-475.68 207.09,-486.26 213.6,-483.7"/>
</g>
<!-- roo_control&#45;&gt;roo_scheduler -->
<g id="edge9" class="edge">
<title>roo_control&#45;&gt;roo_scheduler</title>
<path fill="none" stroke="black" d="M475.68,-536.03C478.78,-534.82 481.88,-533.63 484.88,-532.5 514.56,-521.26 590.73,-494.02 644.41,-474.91"/>
<polygon fill="black" stroke="black" points="645.49,-478.24 653.73,-471.59 643.14,-471.65 645.49,-478.24"/>
</g>
<!-- roo_dashboard -->
<g id="node6" class="node">
<title>roo_dashboard</title>
<polygon fill="#b1dbab" stroke="red" points="997,-729.5 900.75,-729.5 900.75,-688.5 997,-688.5 997,-729.5"/>
<text xml:space="preserve" text-anchor="middle" x="948.88" y="-712.2" font-family="Times,serif" font-size="14.00">roo_dashboard</text>
<text xml:space="preserve" text-anchor="middle" x="948.88" y="-695.7" font-family="Times,serif" font-size="14.00">1.0.2</text>
</g>
<!-- roo_windows -->
<g id="node31" class="node">
<title>roo_windows</title>
<polygon fill="khaki" stroke="red" points="993.62,-651.5 904.12,-651.5 904.12,-610.5 993.62,-610.5 993.62,-651.5"/>
<text xml:space="preserve" text-anchor="middle" x="948.88" y="-634.2" font-family="Times,serif" font-size="14.00">roo_windows</text>
<text xml:space="preserve" text-anchor="middle" x="948.88" y="-617.7" font-family="Times,serif" font-size="14.00">1.7.0</text>
</g>
<!-- roo_dashboard&#45;&gt;roo_windows -->
<g id="edge10" class="edge">
<title>roo_dashboard&#45;&gt;roo_windows</title>
<path fill="none" stroke="black" d="M948.88,-688.03C948.88,-680.44 948.88,-671.6 948.88,-663.21"/>
<polygon fill="black" stroke="black" points="952.38,-663.35 948.88,-653.35 945.38,-663.35 952.38,-663.35"/>
</g>
<!-- roo_display -->
<g id="node7" class="node">
<title>roo_display</title>
<polygon fill="#b1dbab" stroke="red" points="952.75,-474 873,-474 873,-433 952.75,-433 952.75,-474"/>
<text xml:space="preserve" text-anchor="middle" x="912.88" y="-456.7" font-family="Times,serif" font-size="14.00">roo_display</text>
<text xml:space="preserve" text-anchor="middle" x="912.88" y="-440.2" font-family="Times,serif" font-size="14.00">3.3.1</text>
</g>
<!-- roo_display&#45;&gt;roo_collections -->
<g id="edge11" class="edge">
<title>roo_display&#45;&gt;roo_collections</title>
<path fill="none" stroke="black" d="M901.47,-432.55C892.83,-419.22 879.75,-402.38 863.88,-392.5 833.62,-373.67 794.87,-364.28 762.86,-359.6"/>
<polygon fill="black" stroke="black" points="763.72,-356.19 753.34,-358.34 762.8,-363.13 763.72,-356.19"/>
</g>
<!-- roo_io -->
<g id="node13" class="node">
<title>roo_io</title>
<polygon fill="#b1dbab" stroke="red" points="416.88,-374.5 362.88,-374.5 362.88,-333.5 416.88,-333.5 416.88,-374.5"/>
<text xml:space="preserve" text-anchor="middle" x="389.88" y="-357.2" font-family="Times,serif" font-size="14.00">roo_io</text>
<text xml:space="preserve" text-anchor="middle" x="389.88" y="-340.7" font-family="Times,serif" font-size="14.00">2.4.0</text>
</g>
<!-- roo_display&#45;&gt;roo_io -->
<g id="edge12" class="edge">
<title>roo_display&#45;&gt;roo_io</title>
<path fill="none" stroke="black" d="M872.7,-445.01C774.77,-426.75 524.72,-380.14 428.46,-362.19"/>
<polygon fill="black" stroke="black" points="429.2,-358.77 418.72,-360.38 427.91,-365.65 429.2,-358.77"/>
</g>
<!-- roo_display_lvgl -->
<g id="node8" class="node">
<title>roo_display_lvgl</title>
<polygon fill="khaki" stroke="red" points="879.62,-573.5 772.12,-573.5 772.12,-532.5 879.62,-532.5 879.62,-573.5"/>
<text xml:space="preserve" text-anchor="middle" x="825.88" y="-556.2" font-family="Times,serif" font-size="14.00">roo_display_lvgl</text>
<text xml:space="preserve" text-anchor="middle" x="825.88" y="-539.7" font-family="Times,serif" font-size="14.00">1.0.0</text>
</g>
<!-- roo_display_lvgl&#45;&gt;roo_display -->
<g id="edge13" class="edge">
<title>roo_display_lvgl&#45;&gt;roo_display</title>
<path fill="none" stroke="red" d="M839.23,-532.02C847.66,-519.96 859.11,-504.54 870.62,-492 873.67,-488.68 876.99,-485.35 880.37,-482.11"/>
<polygon fill="red" stroke="red" points="882.73,-484.69 887.72,-475.34 877.99,-479.54 882.73,-484.69"/>
<text xml:space="preserve" text-anchor="middle" x="897.25" y="-505" font-family="Times,serif" font-size="10.00" fill="red">3.0.3</text>
<text xml:space="preserve" text-anchor="middle" x="897.25" y="-493.75" font-family="Times,serif" font-size="10.00" fill="red">(latest: 3.3.1)</text>
</g>
<!-- roo_flags -->
<g id="node9" class="node">
<title>roo_flags</title>
<polygon fill="#b1dbab" stroke="black" points="305.38,-218.5 238.38,-218.5 238.38,-177.5 305.38,-177.5 305.38,-218.5"/>
<text xml:space="preserve" text-anchor="middle" x="271.88" y="-201.2" font-family="Times,serif" font-size="14.00">roo_flags</text>
<text xml:space="preserve" text-anchor="middle" x="271.88" y="-184.7" font-family="Times,serif" font-size="14.00">1.2.5</text>
</g>
<!-- roo_fonts_basic -->
<g id="node10" class="node">
<title>roo_fonts_basic</title>
<polygon fill="#b1dbab" stroke="red" points="1000,-573.5 897.75,-573.5 897.75,-532.5 1000,-532.5 1000,-573.5"/>
<text xml:space="preserve" text-anchor="middle" x="948.88" y="-556.2" font-family="Times,serif" font-size="14.00">roo_fonts_basic</text>
<text xml:space="preserve" text-anchor="middle" x="948.88" y="-539.7" font-family="Times,serif" font-size="14.00">1.0.5</text>
</g>
<!-- roo_fonts_basic&#45;&gt;roo_display -->
<g id="edge14" class="edge">
<title>roo_fonts_basic&#45;&gt;roo_display</title>
<path fill="none" stroke="red" d="M941.59,-532.27C936.56,-518.66 929.79,-500.3 924.08,-484.84"/>
<polygon fill="red" stroke="red" points="927.42,-483.79 920.67,-475.62 920.85,-486.21 927.42,-483.79"/>
<text xml:space="preserve" text-anchor="middle" x="960.72" y="-505" font-family="Times,serif" font-size="10.00" fill="red">3.3.0</text>
<text xml:space="preserve" text-anchor="middle" x="960.72" y="-493.75" font-family="Times,serif" font-size="10.00" fill="red">(latest: 3.3.1)</text>
</g>
<!-- roo_fonts_material -->
<g id="node11" class="node">
<title>roo_fonts_material</title>
<polygon fill="#b1dbab" stroke="red" points="1228.62,-573.5 1109.12,-573.5 1109.12,-532.5 1228.62,-532.5 1228.62,-573.5"/>
<text xml:space="preserve" text-anchor="middle" x="1168.88" y="-556.2" font-family="Times,serif" font-size="14.00">roo_fonts_material</text>
<text xml:space="preserve" text-anchor="middle" x="1168.88" y="-539.7" font-family="Times,serif" font-size="14.00">1.1.2</text>
</g>
<!-- roo_fonts_material&#45;&gt;roo_display -->
<g id="edge15" class="edge">
<title>roo_fonts_material&#45;&gt;roo_display</title>
<path fill="none" stroke="red" d="M1116.45,-532.03C1071.72,-515 1007.81,-490.66 963.58,-473.81"/>
<polygon fill="red" stroke="red" points="965.06,-470.63 954.47,-470.34 962.57,-477.17 965.06,-470.63"/>
<text xml:space="preserve" text-anchor="middle" x="1090.43" y="-505" font-family="Times,serif" font-size="10.00" fill="red">3.3.0</text>
<text xml:space="preserve" text-anchor="middle" x="1090.43" y="-493.75" font-family="Times,serif" font-size="10.00" fill="red">(latest: 3.3.1)</text>
</g>
<!-- roo_icons -->
<g id="node12" class="node">
<title>roo_icons</title>
<polygon fill="#b1dbab" stroke="red" points="1315.5,-573.5 1246.25,-573.5 1246.25,-532.5 1315.5,-532.5 1315.5,-573.5"/>
<text xml:space="preserve" text-anchor="middle" x="1280.88" y="-556.2" font-family="Times,serif" font-size="14.00">roo_icons</text>
<text xml:space="preserve" text-anchor="middle" x="1280.88" y="-539.7" font-family="Times,serif" font-size="14.00">1.2.5</text>
</g>
<!-- roo_icons&#45;&gt;roo_display -->
<g id="edge16" class="edge">
<title>roo_icons&#45;&gt;roo_display</title>
<path fill="none" stroke="red" d="M1245.79,-535.77C1243.12,-534.63 1240.46,-533.53 1237.88,-532.5 1186.76,-512.11 1174.11,-505.92 1120.88,-492 1068.2,-478.22 1006.7,-467.82 964.31,-461.5"/>
<polygon fill="red" stroke="red" points="965.05,-458.08 954.65,-460.09 964.04,-465 965.05,-458.08"/>
<text xml:space="preserve" text-anchor="middle" x="1218.56" y="-505" font-family="Times,serif" font-size="10.00" fill="red">3.3.0</text>
<text xml:space="preserve" text-anchor="middle" x="1218.56" y="-493.75" font-family="Times,serif" font-size="10.00" fill="red">(latest: 3.3.1)</text>
</g>
<!-- roo_io&#45;&gt;roo_logging -->
<g id="edge17" class="edge">
<title>roo_io&#45;&gt;roo_logging</title>
<path fill="none" stroke="black" d="M362.51,-335.37C347.6,-325.77 328.86,-313.7 312.29,-303.03"/>
<polygon fill="black" stroke="black" points="314.41,-300.24 304.11,-297.76 310.62,-306.12 314.41,-300.24"/>
</g>
<!-- roo_io_sdfat -->
<g id="node14" class="node">
<title>roo_io_sdfat</title>
<polygon fill="plum" stroke="black" points="1099,-729.5 1014.75,-729.5 1014.75,-688.5 1099,-688.5 1099,-729.5"/>
<text xml:space="preserve" text-anchor="middle" x="1056.88" y="-712.2" font-family="Times,serif" font-size="14.00">roo_io_sdfat</text>
<text xml:space="preserve" text-anchor="middle" x="1056.88" y="-695.7" font-family="Times,serif" font-size="14.00">1.0.0</text>
</g>
<!-- roo_locale -->
<g id="node15" class="node">
<title>roo_locale</title>
<polygon fill="#b1dbab" stroke="black" points="1091.38,-573.5 1018.38,-573.5 1018.38,-532.5 1091.38,-532.5 1091.38,-573.5"/>
<text xml:space="preserve" text-anchor="middle" x="1054.88" y="-556.2" font-family="Times,serif" font-size="14.00">roo_locale</text>
<text xml:space="preserve" text-anchor="middle" x="1054.88" y="-539.7" font-family="Times,serif" font-size="14.00">1.1.4</text>
</g>
<!-- roo_logging&#45;&gt;roo_flags -->
<g id="edge18" class="edge">
<title>roo_logging&#45;&gt;roo_flags</title>
<path fill="none" stroke="black" d="M271.88,-255.03C271.88,-247.44 271.88,-238.6 271.88,-230.21"/>
<polygon fill="black" stroke="black" points="275.38,-230.35 271.88,-220.35 268.38,-230.35 275.38,-230.35"/>
</g>
<!-- roo_threads -->
<g id="node25" class="node">
<title>roo_threads</title>
<polygon fill="#b1dbab" stroke="red" points="555.75,-218.5 476,-218.5 476,-177.5 555.75,-177.5 555.75,-218.5"/>
<text xml:space="preserve" text-anchor="middle" x="515.88" y="-201.2" font-family="Times,serif" font-size="14.00">roo_threads</text>
<text xml:space="preserve" text-anchor="middle" x="515.88" y="-184.7" font-family="Times,serif" font-size="14.00">1.2.9</text>
</g>
<!-- roo_logging&#45;&gt;roo_threads -->
<g id="edge19" class="edge">
<title>roo_logging&#45;&gt;roo_threads</title>
<path fill="none" stroke="black" d="M313.27,-262.11C355.13,-249.07 419.92,-228.89 464.92,-214.87"/>
<polygon fill="black" stroke="black" points="465.95,-218.22 474.46,-211.9 463.87,-211.53 465.95,-218.22"/>
</g>
<!-- roo_monitoring -->
<g id="node17" class="node">
<title>roo_monitoring</title>
<polygon fill="#b1dbab" stroke="red" points="637.62,-474 536.12,-474 536.12,-433 637.62,-433 637.62,-474"/>
<text xml:space="preserve" text-anchor="middle" x="586.88" y="-456.7" font-family="Times,serif" font-size="14.00">roo_monitoring</text>
<text xml:space="preserve" text-anchor="middle" x="586.88" y="-440.2" font-family="Times,serif" font-size="14.00">1.1.5</text>
</g>
<!-- roo_monitoring&#45;&gt;roo_collections -->
<g id="edge20" class="edge">
<title>roo_monitoring&#45;&gt;roo_collections</title>
<path fill="none" stroke="black" d="M618.16,-432.65C626.11,-427.21 634.49,-421.12 641.88,-415 653.69,-405.21 665.82,-393.45 676.06,-382.95"/>
<polygon fill="black" stroke="black" points="678.38,-385.59 682.77,-375.95 673.32,-380.75 678.38,-385.59"/>
</g>
<!-- roo_monitoring&#45;&gt;roo_io -->
<g id="edge21" class="edge">
<title>roo_monitoring&#45;&gt;roo_io</title>
<path fill="none" stroke="black" d="M546.53,-432.53C511.54,-415.22 461.3,-390.35 427.21,-373.48"/>
<polygon fill="black" stroke="black" points="429.06,-370.49 418.55,-369.19 425.96,-376.76 429.06,-370.49"/>
</g>
<!-- roo_onewire -->
<g id="node18" class="node">
<title>roo_onewire</title>
<polygon fill="#b1dbab" stroke="red" points="578,-573.5 493.75,-573.5 493.75,-532.5 578,-532.5 578,-573.5"/>
<text xml:space="preserve" text-anchor="middle" x="535.88" y="-556.2" font-family="Times,serif" font-size="14.00">roo_onewire</text>
<text xml:space="preserve" text-anchor="middle" x="535.88" y="-539.7" font-family="Times,serif" font-size="14.00">2.0.14</text>
</g>
<!-- roo_onewire&#45;&gt;roo_quantity -->
<g id="edge23" class="edge">
<title>roo_onewire&#45;&gt;roo_quantity</title>
<path fill="none" stroke="black" d="M493.3,-534.71C490.47,-533.88 487.65,-533.13 484.88,-532.5 436.17,-521.47 306.21,-535.44 260.88,-514.5 252.57,-510.66 238.2,-496.42 225.6,-482.78"/>
<polygon fill="black" stroke="black" points="228.38,-480.64 219.07,-475.58 223.2,-485.34 228.38,-480.64"/>
</g>
<!-- roo_onewire&#45;&gt;roo_scheduler -->
<g id="edge22" class="edge">
<title>roo_onewire&#45;&gt;roo_scheduler</title>
<path fill="none" stroke="black" d="M569.87,-532.03C595.38,-517.05 630.52,-496.41 658.13,-480.19"/>
<polygon fill="black" stroke="black" points="659.77,-483.29 666.62,-475.21 656.23,-477.25 659.77,-483.29"/>
</g>
<!-- roo_pb -->
<g id="node19" class="node">
<title>roo_pb</title>
<polygon fill="#b1dbab" stroke="black" points="140,-474 85.75,-474 85.75,-433 140,-433 140,-474"/>
<text xml:space="preserve" text-anchor="middle" x="112.88" y="-456.7" font-family="Times,serif" font-size="14.00">roo_pb</text>
<text xml:space="preserve" text-anchor="middle" x="112.88" y="-440.2" font-family="Times,serif" font-size="14.00">0.1.0</text>
</g>
<!-- roo_pb&#45;&gt;roo_io -->
<g id="edge24" class="edge">
<title>roo_pb&#45;&gt;roo_io</title>
<path fill="none" stroke="black" d="M140.14,-437.06C143.05,-435.62 146,-434.23 148.88,-433 218.48,-403.18 303.49,-378.19 351.68,-365.02"/>
<polygon fill="black" stroke="black" points="352.34,-368.47 361.08,-362.48 350.51,-361.71 352.34,-368.47"/>
</g>
<!-- roo_powersafefs -->
<g id="node20" class="node">
<title>roo_powersafefs</title>
<polygon fill="#b1dbab" stroke="red" points="542.88,-296.5 436.88,-296.5 436.88,-255.5 542.88,-255.5 542.88,-296.5"/>
<text xml:space="preserve" text-anchor="middle" x="489.88" y="-279.2" font-family="Times,serif" font-size="14.00">roo_powersafefs</text>
<text xml:space="preserve" text-anchor="middle" x="489.88" y="-262.7" font-family="Times,serif" font-size="14.00">1.0.3</text>
</g>
<!-- roo_powersafefs&#45;&gt;roo_threads -->
<g id="edge25" class="edge">
<title>roo_powersafefs&#45;&gt;roo_threads</title>
<path fill="none" stroke="black" d="M496.71,-255.03C499.36,-247.26 502.47,-238.19 505.4,-229.63"/>
<polygon fill="black" stroke="black" points="508.67,-230.86 508.6,-220.27 502.05,-228.6 508.67,-230.86"/>
</g>
<!-- roo_prefs -->
<g id="node21" class="node">
<title>roo_prefs</title>
<polygon fill="#b1dbab" stroke="red" points="67.75,-474 0,-474 0,-433 67.75,-433 67.75,-474"/>
<text xml:space="preserve" text-anchor="middle" x="33.88" y="-456.7" font-family="Times,serif" font-size="14.00">roo_prefs</text>
<text xml:space="preserve" text-anchor="middle" x="33.88" y="-440.2" font-family="Times,serif" font-size="14.00">2.0.3</text>
</g>
<!-- roo_prefs&#45;&gt;roo_logging -->
<g id="edge26" class="edge">
<title>roo_prefs&#45;&gt;roo_logging</title>
<path fill="none" stroke="black" d="M60.71,-432.71C103.57,-401.11 187.5,-339.22 235.64,-303.72"/>
<polygon fill="black" stroke="black" points="237.58,-306.64 243.55,-297.89 233.43,-301 237.58,-306.64"/>
</g>
<!-- roo_quantity&#45;&gt;roo_logging -->
<g id="edge27" class="edge">
<title>roo_quantity&#45;&gt;roo_logging</title>
<path fill="none" stroke="black" d="M208.88,-432.71C221.24,-402.16 245.05,-343.31 259.6,-307.35"/>
<polygon fill="black" stroke="black" points="262.72,-308.97 263.22,-298.39 256.23,-306.35 262.72,-308.97"/>
</g>
<!-- roo_scheduler&#45;&gt;roo_collections -->
<g id="edge28" class="edge">
<title>roo_scheduler&#45;&gt;roo_collections</title>
<path fill="none" stroke="black" d="M701.88,-432.77C701.88,-419.29 701.88,-401.16 701.88,-385.79"/>
<polygon fill="black" stroke="black" points="705.38,-386.21 701.88,-376.21 698.38,-386.21 705.38,-386.21"/>
</g>
<!-- roo_scheduler&#45;&gt;roo_threads -->
<g id="edge29" class="edge">
<title>roo_scheduler&#45;&gt;roo_threads</title>
<path fill="none" stroke="black" d="M685.86,-432.85C664.55,-406.54 625.97,-358.19 594.88,-315.5 573.6,-286.29 550.54,-251.95 534.86,-228.16"/>
<polygon fill="black" stroke="black" points="537.87,-226.36 529.45,-219.92 532.02,-230.2 537.87,-226.36"/>
</g>
<!-- roo_time -->
<g id="node26" class="node">
<title>roo_time</title>
<polygon fill="#b1dbab" stroke="red" points="580.62,-140.5 515.12,-140.5 515.12,-99.5 580.62,-99.5 580.62,-140.5"/>
<text xml:space="preserve" text-anchor="middle" x="547.88" y="-123.2" font-family="Times,serif" font-size="14.00">roo_time</text>
<text xml:space="preserve" text-anchor="middle" x="547.88" y="-106.7" font-family="Times,serif" font-size="14.00">2.0.1</text>
</g>
<!-- roo_threads&#45;&gt;roo_time -->
<g id="edge30" class="edge">
<title>roo_threads&#45;&gt;roo_time</title>
<path fill="none" stroke="black" d="M524.28,-177.03C527.59,-169.18 531.46,-159.98 535.1,-151.34"/>
<polygon fill="black" stroke="black" points="538.28,-152.8 538.94,-142.23 531.83,-150.09 538.28,-152.8"/>
</g>
<!-- roo_time&#45;&gt;roo_backport -->
<g id="edge32" class="edge">
<title>roo_time&#45;&gt;roo_backport</title>
<path fill="none" stroke="black" d="M553.95,-99.27C558.13,-85.66 563.78,-67.3 568.54,-51.84"/>
<polygon fill="black" stroke="black" points="571.77,-53.23 571.37,-42.65 565.08,-51.18 571.77,-53.23"/>
</g>
<!-- roo_time&#45;&gt;roo_testing -->
<g id="edge31" class="edge">
<title>roo_time&#45;&gt;roo_testing</title>
<path fill="none" stroke="red" d="M575.93,-99.03C596.62,-84.31 624.97,-64.13 647.57,-48.05"/>
<polygon fill="red" stroke="red" points="649.51,-50.97 655.62,-42.32 645.45,-45.26 649.51,-50.97"/>
<text xml:space="preserve" text-anchor="middle" x="655.27" y="-72" font-family="Times,serif" font-size="10.00" fill="red">2.3.0</text>
<text xml:space="preserve" text-anchor="middle" x="655.27" y="-60.75" font-family="Times,serif" font-size="10.00" fill="red">(latest: 2.3.1)</text>
</g>
<!-- roo_time_ds3231 -->
<g id="node27" class="node">
<title>roo_time_ds3231</title>
<polygon fill="#b1dbab" stroke="red" points="411.5,-474 300.25,-474 300.25,-433 411.5,-433 411.5,-474"/>
<text xml:space="preserve" text-anchor="middle" x="355.88" y="-456.7" font-family="Times,serif" font-size="14.00">roo_time_ds3231</text>
<text xml:space="preserve" text-anchor="middle" x="355.88" y="-440.2" font-family="Times,serif" font-size="14.00">2.0.0</text>
</g>
<!-- roo_time_ds3231&#45;&gt;roo_io -->
<g id="edge33" class="edge">
<title>roo_time_ds3231&#45;&gt;roo_io</title>
<path fill="none" stroke="red" d="M362.76,-432.77C367.5,-419.16 373.9,-400.8 379.3,-385.34"/>
<polygon fill="red" stroke="red" points="382.52,-386.73 382.51,-376.13 375.91,-384.42 382.52,-386.73"/>
<text xml:space="preserve" text-anchor="middle" x="402.55" y="-405.5" font-family="Times,serif" font-size="10.00" fill="red">2.3.0</text>
<text xml:space="preserve" text-anchor="middle" x="402.55" y="-394.25" font-family="Times,serif" font-size="10.00" fill="red">(latest: 2.4.0)</text>
</g>
<!-- roo_transceivers&#45;&gt;roo_collections -->
<g id="edge35" class="edge">
<title>roo_transceivers&#45;&gt;roo_collections</title>
<path fill="none" stroke="black" d="M378.97,-534.5C381.63,-533.79 384.28,-533.12 386.88,-532.5 467.87,-513.27 702.8,-537.29 756.88,-474 779.85,-447.1 754.65,-409 731.31,-383.21"/>
<polygon fill="black" stroke="black" points="733.98,-380.95 724.57,-376.08 728.89,-385.75 733.98,-380.95"/>
</g>
<!-- roo_transceivers&#45;&gt;roo_pb -->
<g id="edge34" class="edge">
<title>roo_transceivers&#45;&gt;roo_pb</title>
<path fill="none" stroke="black" d="M272.88,-535.53C269.16,-534.48 265.47,-533.46 261.88,-532.5 227.07,-523.25 215.04,-530.69 182.88,-514.5 166.73,-506.37 151.2,-493.74 138.9,-482.16"/>
<polygon fill="black" stroke="black" points="141.61,-479.91 132,-475.43 136.72,-484.92 141.61,-479.91"/>
</g>
<!-- roo_transceivers&#45;&gt;roo_prefs -->
<g id="edge36" class="edge">
<title>roo_transceivers&#45;&gt;roo_prefs</title>
<path fill="none" stroke="red" d="M272.99,-535.05C269.25,-534.11 265.52,-533.24 261.88,-532.5 188.62,-517.54 162.16,-546.56 94.62,-514.5 86.31,-510.55 71.76,-496.31 58.98,-482.69"/>
<polygon fill="red" stroke="red" points="61.71,-480.48 52.36,-475.5 56.56,-485.23 61.71,-480.48"/>
<text xml:space="preserve" text-anchor="middle" x="121.25" y="-505" font-family="Times,serif" font-size="10.00" fill="red">2.0.2</text>
<text xml:space="preserve" text-anchor="middle" x="121.25" y="-493.75" font-family="Times,serif" font-size="10.00" fill="red">(latest: 2.0.3)</text>
</g>
<!-- roo_transport -->
<g id="node29" class="node">
<title>roo_transport</title>
<polygon fill="#b1dbab" stroke="black" points="518.25,-474 429.5,-474 429.5,-433 518.25,-433 518.25,-474"/>
<text xml:space="preserve" text-anchor="middle" x="473.88" y="-456.7" font-family="Times,serif" font-size="14.00">roo_transport</text>
<text xml:space="preserve" text-anchor="middle" x="473.88" y="-440.2" font-family="Times,serif" font-size="14.00">1.2.2</text>
</g>
<!-- roo_transport&#45;&gt;roo_collections -->
<g id="edge37" class="edge">
<title>roo_transport&#45;&gt;roo_collections</title>
<path fill="none" stroke="black" d="M518.65,-433.35C554.84,-417.88 606.01,-395.99 645.08,-379.29"/>
<polygon fill="black" stroke="black" points="646.04,-382.69 653.85,-375.54 643.28,-376.25 646.04,-382.69"/>
</g>
<!-- roo_transport&#45;&gt;roo_io -->
<g id="edge38" class="edge">
<title>roo_transport&#45;&gt;roo_io</title>
<path fill="none" stroke="black" d="M462.12,-432.67C454.49,-420.51 443.94,-404.95 432.88,-392.5 429.77,-389 426.34,-385.52 422.82,-382.16"/>
<polygon fill="black" stroke="black" points="425.41,-379.78 415.66,-375.63 420.69,-384.96 425.41,-379.78"/>
</g>
<!-- roo_wifi -->
<g id="node30" class="node">
<title>roo_wifi</title>
<polygon fill="#b1dbab" stroke="black" points="253.12,-573.5 190.62,-573.5 190.62,-532.5 253.12,-532.5 253.12,-573.5"/>
<text xml:space="preserve" text-anchor="middle" x="221.88" y="-556.2" font-family="Times,serif" font-size="14.00">roo_wifi</text>
<text xml:space="preserve" text-anchor="middle" x="221.88" y="-539.7" font-family="Times,serif" font-size="14.00">3.0.0</text>
</g>
<!-- roo_wifi&#45;&gt;roo_prefs -->
<g id="edge39" class="edge">
<title>roo_wifi&#45;&gt;roo_prefs</title>
<path fill="none" stroke="black" d="M190.15,-551.47C156.63,-549.4 103.77,-541.62 67.88,-514.5 57.92,-506.98 50.43,-495.63 45.05,-484.82"/>
<polygon fill="black" stroke="black" points="48.27,-483.43 40.99,-475.74 41.88,-486.29 48.27,-483.43"/>
</g>
<!-- roo_wifi&#45;&gt;roo_scheduler -->
<g id="edge40" class="edge">
<title>roo_wifi&#45;&gt;roo_scheduler</title>
<path fill="none" stroke="black" d="M253.61,-536.13C257.03,-534.77 260.49,-533.52 263.88,-532.5 302.75,-520.77 571.97,-488.45 644.42,-474.09"/>
<polygon fill="black" stroke="black" points="644.76,-477.6 653.77,-472.03 643.26,-470.76 644.76,-477.6"/>
</g>
<!-- roo_windows&#45;&gt;roo_fonts_basic -->
<g id="edge41" class="edge">
<title>roo_windows&#45;&gt;roo_fonts_basic</title>
<path fill="none" stroke="black" d="M948.88,-610.03C948.88,-602.44 948.88,-593.6 948.88,-585.21"/>
<polygon fill="black" stroke="black" points="952.38,-585.35 948.88,-575.35 945.38,-585.35 952.38,-585.35"/>
</g>
<!-- roo_windows&#45;&gt;roo_fonts_material -->
<g id="edge42" class="edge">
<title>roo_windows&#45;&gt;roo_fonts_material</title>
<path fill="none" stroke="black" d="M993.93,-614.44C1024.69,-603.81 1066,-589.54 1100.76,-577.53"/>
<polygon fill="black" stroke="black" points="1101.58,-580.95 1109.89,-574.38 1099.29,-574.33 1101.58,-580.95"/>
</g>
<!-- roo_windows&#45;&gt;roo_icons -->
<g id="edge44" class="edge">
<title>roo_windows&#45;&gt;roo_icons</title>
<path fill="none" stroke="black" d="M993.75,-624.53C1049.02,-617.07 1145.7,-601.69 1235.08,-574.07"/>
<polygon fill="black" stroke="black" points="1236.01,-577.45 1244.49,-571.1 1233.9,-570.77 1236.01,-577.45"/>
</g>
<!-- roo_windows&#45;&gt;roo_locale -->
<g id="edge43" class="edge">
<title>roo_windows&#45;&gt;roo_locale</title>
<path fill="none" stroke="black" d="M976.73,-610.03C989.38,-600.96 1004.54,-590.09 1018.11,-580.36"/>
<polygon fill="black" stroke="black" points="1019.89,-583.39 1025.98,-574.72 1015.81,-577.7 1019.89,-583.39"/>
</g>
<!-- roo_windows&#45;&gt;roo_scheduler -->
<g id="edge45" class="edge">
<title>roo_windows&#45;&gt;roo_scheduler</title>
<path fill="none" stroke="red" d="M903.66,-625.66C841.43,-618.67 734.29,-602.67 709.62,-573.5 689.34,-549.51 690.38,-512.14 694.59,-485.69"/>
<polygon fill="red" stroke="red" points="698.03,-486.35 696.41,-475.88 691.15,-485.08 698.03,-486.35"/>
<text xml:space="preserve" text-anchor="middle" x="736.25" y="-554.75" font-family="Times,serif" font-size="10.00" fill="red">2.2.0</text>
<text xml:space="preserve" text-anchor="middle" x="736.25" y="-543.5" font-family="Times,serif" font-size="10.00" fill="red">(latest: 2.3.0)</text>
</g>
<!-- roo_windows_transceivers -->
<g id="node32" class="node">
<title>roo_windows_transceivers</title>
<polygon fill="plum" stroke="red" points="780.25,-729.5 619.5,-729.5 619.5,-688.5 780.25,-688.5 780.25,-729.5"/>
<text xml:space="preserve" text-anchor="middle" x="699.88" y="-712.2" font-family="Times,serif" font-size="14.00">roo_windows_transceivers</text>
<text xml:space="preserve" text-anchor="middle" x="699.88" y="-695.7" font-family="Times,serif" font-size="14.00">1.0.0</text>
</g>
<!-- roo_windows_transceivers&#45;&gt;roo_transceivers -->
<g id="edge46" class="edge">
<title>roo_windows_transceivers&#45;&gt;roo_transceivers</title>
<path fill="none" stroke="red" d="M619.07,-706.71C523.4,-703.35 372.27,-691.63 334.62,-651.5 318.24,-634.03 317.24,-606.26 319.66,-584.81"/>
<polygon fill="red" stroke="red" points="323.09,-585.55 321.05,-575.15 316.16,-584.55 323.09,-585.55"/>
<text xml:space="preserve" text-anchor="middle" x="361.25" y="-632.75" font-family="Times,serif" font-size="10.00" fill="red">1.2.0</text>
<text xml:space="preserve" text-anchor="middle" x="361.25" y="-621.5" font-family="Times,serif" font-size="10.00" fill="red">(latest: 1.3.0)</text>
</g>
<!-- roo_windows_transceivers&#45;&gt;roo_windows -->
<g id="edge47" class="edge">
<title>roo_windows_transceivers&#45;&gt;roo_windows</title>
<path fill="none" stroke="black" d="M765.3,-688.03C805.03,-675.9 855.22,-660.58 893.08,-649.03"/>
<polygon fill="black" stroke="black" points="893.91,-652.43 902.46,-646.17 891.87,-645.74 893.91,-652.43"/>
</g>
<!-- roo_windows_wifi -->
<g id="node33" class="node">
<title>roo_windows_wifi</title>
<polygon fill="plum" stroke="red" points="398.88,-729.5 280.88,-729.5 280.88,-688.5 398.88,-688.5 398.88,-729.5"/>
<text xml:space="preserve" text-anchor="middle" x="339.88" y="-712.2" font-family="Times,serif" font-size="14.00">roo_windows_wifi</text>
<text xml:space="preserve" text-anchor="middle" x="339.88" y="-695.7" font-family="Times,serif" font-size="14.00">1.1.4</text>
</g>
<!-- roo_windows_wifi&#45;&gt;roo_wifi -->
<g id="edge48" class="edge">
<title>roo_windows_wifi&#45;&gt;roo_wifi</title>
<path fill="none" stroke="red" d="M295.46,-688.26C279.32,-679.14 262.23,-666.87 250.62,-651.5 236.05,-632.19 228.84,-605.6 225.29,-585.07"/>
<polygon fill="red" stroke="red" points="228.76,-584.64 223.81,-575.27 221.84,-585.68 228.76,-584.64"/>
<text xml:space="preserve" text-anchor="middle" x="277.25" y="-632.75" font-family="Times,serif" font-size="10.00" fill="red">1.1.6</text>
<text xml:space="preserve" text-anchor="middle" x="277.25" y="-621.5" font-family="Times,serif" font-size="10.00" fill="red">(latest: 3.0.0)</text>
</g>
<!-- roo_windows_wifi&#45;&gt;roo_windows -->
<g id="edge49" class="edge">
<title>roo_windows_wifi&#45;&gt;roo_windows</title>
<path fill="none" stroke="black" d="M399.1,-700.61C516.57,-685.95 777.62,-653.37 892.62,-639.02"/>
<polygon fill="black" stroke="black" points="892.95,-642.51 902.44,-637.79 892.09,-635.56 892.95,-642.51"/>
</g>
</g>
</svg>
