<?xml version="1.0" encoding="UTF-8" standalone="no"?>
<!DOCTYPE svg PUBLIC "-//W3C//DTD SVG 1.1//EN"
 "http://www.w3.org/Graphics/SVG/1.1/DTD/svg11.dtd">
<!-- Generated by graphviz version 2.42.4 (0)
 -->
<!-- Title: dependencies Pages: 1 -->
<svg width="867pt" height="772pt"
 viewBox="0.00 0.00 866.50 772.00" xmlns="http://www.w3.org/2000/svg" xmlns:xlink="http://www.w3.org/1999/xlink">
<g id="graph0" class="graph" transform="scale(1 1) rotate(0) translate(4 768)">
<title>dependencies</title>
<polygon fill="white" stroke="transparent" points="-4,4 -4,-768 862.5,-768 862.5,4 -4,4"/>
<!-- roo_backport -->
<g id="node1" class="node">
<title>roo_backport</title>
<polygon fill="#b1dbab" stroke="black" points="495.5,-209 406.5,-209 406.5,-171 495.5,-171 495.5,-209"/>
<text text-anchor="middle" x="451" y="-193.8" font-family="Times,serif" font-size="14.00">roo_backport</text>
<text text-anchor="middle" x="451" y="-178.8" font-family="Times,serif" font-size="14.00">1.2.1</text>
</g>
<!-- roo_blink -->
<g id="node2" class="node">
<title>roo_blink</title>
<polygon fill="#b1dbab" stroke="red" points="202.5,-593 133.5,-593 133.5,-555 202.5,-555 202.5,-593"/>
<text text-anchor="middle" x="168" y="-577.8" font-family="Times,serif" font-size="14.00">roo_blink</text>
<text text-anchor="middle" x="168" y="-562.8" font-family="Times,serif" font-size="14.00">1.0.4</text>
</g>
<!-- roo_logging -->
<g id="node13" class="node">
<title>roo_logging</title>
<polygon fill="#b1dbab" stroke="black" points="325.5,-305 242.5,-305 242.5,-267 325.5,-267 325.5,-305"/>
<text text-anchor="middle" x="284" y="-289.8" font-family="Times,serif" font-size="14.00">roo_logging</text>
<text text-anchor="middle" x="284" y="-274.8" font-family="Times,serif" font-size="14.00">1.5.3</text>
</g>
<!-- roo_blink&#45;&gt;roo_logging -->
<g id="edge1" class="edge">
<title>roo_blink&#45;&gt;roo_logging</title>
<path fill="none" stroke="red" d="M140.52,-554.75C135.04,-549.7 130.05,-543.73 127,-537 122.97,-528.09 124.1,-524.34 127,-515 152.89,-431.75 220.92,-352 258.37,-312.59"/>
<polygon fill="red" stroke="red" points="261.02,-314.89 265.43,-305.26 255.98,-310.03 261.02,-314.89"/>
<text text-anchor="middle" x="200" y="-433" font-family="Times,serif" font-size="10.00" fill="red">1.5.1</text>
<text text-anchor="middle" x="200" y="-422" font-family="Times,serif" font-size="10.00" fill="red">(latest: 1.5.3)</text>
</g>
<!-- roo_scheduler -->
<g id="node19" class="node">
<title>roo_scheduler</title>
<polygon fill="#b1dbab" stroke="black" points="317.5,-497 224.5,-497 224.5,-459 317.5,-459 317.5,-497"/>
<text text-anchor="middle" x="271" y="-481.8" font-family="Times,serif" font-size="14.00">roo_scheduler</text>
<text text-anchor="middle" x="271" y="-466.8" font-family="Times,serif" font-size="14.00">2.1.7</text>
</g>
<!-- roo_blink&#45;&gt;roo_scheduler -->
<g id="edge2" class="edge">
<title>roo_blink&#45;&gt;roo_scheduler</title>
<path fill="none" stroke="red" d="M187.86,-554.88C203.68,-540.44 225.99,-520.07 243.52,-504.07"/>
<polygon fill="red" stroke="red" points="246.17,-506.39 251.2,-497.07 241.46,-501.22 246.17,-506.39"/>
<text text-anchor="middle" x="256" y="-529" font-family="Times,serif" font-size="10.00" fill="red">2.1.6</text>
<text text-anchor="middle" x="256" y="-518" font-family="Times,serif" font-size="10.00" fill="red">(latest: 2.1.7)</text>
</g>
<!-- roo_collections -->
<g id="node3" class="node">
<title>roo_collections</title>
<polygon fill="#b1dbab" stroke="black" points="581,-401 481,-401 481,-363 581,-363 581,-401"/>
<text text-anchor="middle" x="531" y="-385.8" font-family="Times,serif" font-size="14.00">roo_collections</text>
<text text-anchor="middle" x="531" y="-370.8" font-family="Times,serif" font-size="14.00">1.4.1</text>
</g>
<!-- roo_collections&#45;&gt;roo_backport -->
<g id="edge3" class="edge">
<title>roo_collections&#45;&gt;roo_backport</title>
<path fill="none" stroke="black" d="M523.33,-362.78C509.23,-329.3 479.14,-257.82 462.55,-218.44"/>
<polygon fill="black" stroke="black" points="465.75,-217.02 458.65,-209.16 459.3,-219.74 465.75,-217.02"/>
</g>
<!-- roo_comms -->
<g id="node4" class="node">
<title>roo_comms</title>
<polygon fill="#b1dbab" stroke="red" points="295,-764 213,-764 213,-726 295,-726 295,-764"/>
<text text-anchor="middle" x="254" y="-748.8" font-family="Times,serif" font-size="14.00">roo_comms</text>
<text text-anchor="middle" x="254" y="-733.8" font-family="Times,serif" font-size="14.00">1.1.3</text>
</g>
<!-- roo_comms&#45;&gt;roo_blink -->
<g id="edge4" class="edge">
<title>roo_comms&#45;&gt;roo_blink</title>
<path fill="none" stroke="black" d="M244.8,-725.91C229.71,-696.26 199.61,-637.12 181.91,-602.33"/>
<polygon fill="black" stroke="black" points="184.92,-600.54 177.27,-593.21 178.68,-603.71 184.92,-600.54"/>
</g>
<!-- roo_control -->
<g id="node5" class="node">
<title>roo_control</title>
<polygon fill="#b1dbab" stroke="red" points="115,-593 35,-593 35,-555 115,-555 115,-593"/>
<text text-anchor="middle" x="75" y="-577.8" font-family="Times,serif" font-size="14.00">roo_control</text>
<text text-anchor="middle" x="75" y="-562.8" font-family="Times,serif" font-size="14.00">1.2.3</text>
</g>
<!-- roo_comms&#45;&gt;roo_control -->
<g id="edge5" class="edge">
<title>roo_comms&#45;&gt;roo_control</title>
<path fill="none" stroke="black" d="M234.84,-725.91C202.76,-695.63 138.11,-634.58 101.62,-600.14"/>
<polygon fill="black" stroke="black" points="103.96,-597.53 94.29,-593.21 99.16,-602.62 103.96,-597.53"/>
</g>
<!-- roo_io -->
<g id="node10" class="node">
<title>roo_io</title>
<polygon fill="plum" stroke="red" points="423,-401 369,-401 369,-363 423,-363 423,-401"/>
<text text-anchor="middle" x="396" y="-385.8" font-family="Times,serif" font-size="14.00">roo_io</text>
<text text-anchor="middle" x="396" y="-370.8" font-family="Times,serif" font-size="14.00">2.1.2</text>
</g>
<!-- roo_comms&#45;&gt;roo_io -->
<g id="edge6" class="edge">
<title>roo_comms&#45;&gt;roo_io</title>
<path fill="none" stroke="red" d="M261.24,-725.88C272.55,-697.55 295.08,-641.03 314,-593 339.72,-527.7 369.64,-450.86 385.26,-410.67"/>
<polygon fill="red" stroke="red" points="388.55,-411.86 388.91,-401.27 382.02,-409.33 388.55,-411.86"/>
<text text-anchor="middle" x="356" y="-577" font-family="Times,serif" font-size="10.00" fill="red">2.1.1</text>
<text text-anchor="middle" x="356" y="-566" font-family="Times,serif" font-size="10.00" fill="red">(latest: 2.1.2)</text>
</g>
<!-- roo_transceivers -->
<g id="node24" class="node">
<title>roo_transceivers</title>
<polygon fill="#b1dbab" stroke="red" points="476,-668 370,-668 370,-630 476,-630 476,-668"/>
<text text-anchor="middle" x="423" y="-652.8" font-family="Times,serif" font-size="14.00">roo_transceivers</text>
<text text-anchor="middle" x="423" y="-637.8" font-family="Times,serif" font-size="14.00">1.1.4</text>
</g>
<!-- roo_comms&#45;&gt;roo_transceivers -->
<g id="edge7" class="edge">
<title>roo_comms&#45;&gt;roo_transceivers</title>
<path fill="none" stroke="black" d="M295.25,-733.3C314.46,-727.36 337.17,-718.94 356,-708 371.28,-699.12 386.33,-686.54 398.29,-675.36"/>
<polygon fill="black" stroke="black" points="400.88,-677.72 405.67,-668.27 396.03,-672.67 400.88,-677.72"/>
</g>
<!-- roo_quantity -->
<g id="node18" class="node">
<title>roo_quantity</title>
<polygon fill="#b1dbab" stroke="black" points="86,-497 0,-497 0,-459 86,-459 86,-497"/>
<text text-anchor="middle" x="43" y="-481.8" font-family="Times,serif" font-size="14.00">roo_quantity</text>
<text text-anchor="middle" x="43" y="-466.8" font-family="Times,serif" font-size="14.00">1.1.7</text>
</g>
<!-- roo_control&#45;&gt;roo_quantity -->
<g id="edge8" class="edge">
<title>roo_control&#45;&gt;roo_quantity</title>
<path fill="none" stroke="red" d="M55.87,-554.73C51.5,-549.46 47.44,-543.38 45,-537 41.44,-527.67 40.34,-516.87 40.32,-507.13"/>
<polygon fill="red" stroke="red" points="43.82,-507.22 40.67,-497.11 36.82,-506.98 43.82,-507.22"/>
<text text-anchor="middle" x="72" y="-529" font-family="Times,serif" font-size="10.00" fill="red">1.1.5</text>
<text text-anchor="middle" x="72" y="-518" font-family="Times,serif" font-size="10.00" fill="red">(latest: 1.1.7)</text>
</g>
<!-- roo_control&#45;&gt;roo_scheduler -->
<g id="edge9" class="edge">
<title>roo_control&#45;&gt;roo_scheduler</title>
<path fill="none" stroke="red" d="M95.22,-554.9C110.26,-542.23 131.76,-525.73 153,-515 172.3,-505.25 194.74,-497.59 214.83,-491.89"/>
<polygon fill="red" stroke="red" points="215.76,-495.26 224.48,-489.25 213.91,-488.51 215.76,-495.26"/>
<text text-anchor="middle" x="180" y="-529" font-family="Times,serif" font-size="10.00" fill="red">2.1.6</text>
<text text-anchor="middle" x="180" y="-518" font-family="Times,serif" font-size="10.00" fill="red">(latest: 2.1.7)</text>
</g>
<!-- roo_dashboard -->
<g id="node6" class="node">
<title>roo_dashboard</title>
<polygon fill="plum" stroke="red" points="755.5,-764 658.5,-764 658.5,-726 755.5,-726 755.5,-764"/>
<text text-anchor="middle" x="707" y="-748.8" font-family="Times,serif" font-size="14.00">roo_dashboard</text>
<text text-anchor="middle" x="707" y="-733.8" font-family="Times,serif" font-size="14.00">1.0.1</text>
</g>
<!-- roo_windows -->
<g id="node27" class="node">
<title>roo_windows</title>
<polygon fill="#b1dbab" stroke="red" points="672,-668 582,-668 582,-630 672,-630 672,-668"/>
<text text-anchor="middle" x="627" y="-652.8" font-family="Times,serif" font-size="14.00">roo_windows</text>
<text text-anchor="middle" x="627" y="-637.8" font-family="Times,serif" font-size="14.00">1.4.2</text>
</g>
<!-- roo_dashboard&#45;&gt;roo_windows -->
<g id="edge10" class="edge">
<title>roo_dashboard&#45;&gt;roo_windows</title>
<path fill="none" stroke="red" d="M691.58,-725.88C679.51,-711.7 662.58,-691.81 649.08,-675.94"/>
<polygon fill="red" stroke="red" points="651.52,-673.42 642.38,-668.07 646.19,-677.95 651.52,-673.42"/>
<text text-anchor="middle" x="701" y="-700" font-family="Times,serif" font-size="10.00" fill="red">1.4.1</text>
<text text-anchor="middle" x="701" y="-689" font-family="Times,serif" font-size="10.00" fill="red">(latest: 1.4.2)</text>
</g>
<!-- roo_display -->
<g id="node7" class="node">
<title>roo_display</title>
<polygon fill="khaki" stroke="red" points="616,-497 536,-497 536,-459 616,-459 616,-497"/>
<text text-anchor="middle" x="576" y="-481.8" font-family="Times,serif" font-size="14.00">roo_display</text>
<text text-anchor="middle" x="576" y="-466.8" font-family="Times,serif" font-size="14.00">2.3.2</text>
</g>
<!-- roo_display&#45;&gt;roo_collections -->
<g id="edge11" class="edge">
<title>roo_display&#45;&gt;roo_collections</title>
<path fill="none" stroke="red" d="M584.89,-458.77C589.37,-446.83 592.61,-431.22 586,-419 583.77,-414.88 580.84,-411.15 577.5,-407.8"/>
<polygon fill="red" stroke="red" points="579.49,-404.9 569.62,-401.06 574.94,-410.22 579.49,-404.9"/>
<text text-anchor="middle" x="616" y="-433" font-family="Times,serif" font-size="10.00" fill="red">1.4.0</text>
<text text-anchor="middle" x="616" y="-422" font-family="Times,serif" font-size="10.00" fill="red">(latest: 1.4.1)</text>
</g>
<!-- roo_display&#45;&gt;roo_io -->
<g id="edge12" class="edge">
<title>roo_display&#45;&gt;roo_io</title>
<path fill="none" stroke="black" d="M535.76,-463.01C531.14,-461.58 526.49,-460.21 522,-459 483.87,-448.74 467.78,-463.01 435,-441 423.75,-433.44 414.89,-421.43 408.48,-410.3"/>
<polygon fill="black" stroke="black" points="411.46,-408.45 403.67,-401.27 405.28,-411.74 411.46,-408.45"/>
</g>
<!-- roo_flags -->
<g id="node8" class="node">
<title>roo_flags</title>
<polygon fill="#b1dbab" stroke="black" points="318,-209 250,-209 250,-171 318,-171 318,-209"/>
<text text-anchor="middle" x="284" y="-193.8" font-family="Times,serif" font-size="14.00">roo_flags</text>
<text text-anchor="middle" x="284" y="-178.8" font-family="Times,serif" font-size="14.00">1.2.1</text>
</g>
<!-- roo_icons -->
<g id="node9" class="node">
<title>roo_icons</title>
<polygon fill="#b1dbab" stroke="red" points="660,-593 590,-593 590,-555 660,-555 660,-593"/>
<text text-anchor="middle" x="625" y="-577.8" font-family="Times,serif" font-size="14.00">roo_icons</text>
<text text-anchor="middle" x="625" y="-562.8" font-family="Times,serif" font-size="14.00">1.2.1</text>
</g>
<!-- roo_icons&#45;&gt;roo_display -->
<g id="edge13" class="edge">
<title>roo_icons&#45;&gt;roo_display</title>
<path fill="none" stroke="red" d="M615.55,-554.88C608.37,-541.09 598.36,-521.9 590.21,-506.26"/>
<polygon fill="red" stroke="red" points="593.14,-504.32 585.42,-497.07 586.94,-507.55 593.14,-504.32"/>
<text text-anchor="middle" x="631" y="-529" font-family="Times,serif" font-size="10.00" fill="red">2.3.1</text>
<text text-anchor="middle" x="631" y="-518" font-family="Times,serif" font-size="10.00" fill="red">(latest: 2.3.2)</text>
</g>
<!-- roo_io&#45;&gt;roo_logging -->
<g id="edge14" class="edge">
<title>roo_io&#45;&gt;roo_logging</title>
<path fill="none" stroke="red" d="M374.41,-362.88C357.05,-348.31 332.5,-327.71 313.36,-311.64"/>
<polygon fill="red" stroke="red" points="315.44,-308.82 305.53,-305.07 310.94,-314.18 315.44,-308.82"/>
<text text-anchor="middle" x="378" y="-337" font-family="Times,serif" font-size="10.00" fill="red">1.5.2</text>
<text text-anchor="middle" x="378" y="-326" font-family="Times,serif" font-size="10.00" fill="red">(latest: 1.5.3)</text>
</g>
<!-- roo_io_sdfat -->
<g id="node11" class="node">
<title>roo_io_sdfat</title>
<polygon fill="plum" stroke="black" points="858.5,-764 773.5,-764 773.5,-726 858.5,-726 858.5,-764"/>
<text text-anchor="middle" x="816" y="-748.8" font-family="Times,serif" font-size="14.00">roo_io_sdfat</text>
<text text-anchor="middle" x="816" y="-733.8" font-family="Times,serif" font-size="14.00">1.0.0</text>
</g>
<!-- roo_locale -->
<g id="node12" class="node">
<title>roo_locale</title>
<polygon fill="#b1dbab" stroke="black" points="752,-593 678,-593 678,-555 752,-555 752,-593"/>
<text text-anchor="middle" x="715" y="-577.8" font-family="Times,serif" font-size="14.00">roo_locale</text>
<text text-anchor="middle" x="715" y="-562.8" font-family="Times,serif" font-size="14.00">1.1.1</text>
</g>
<!-- roo_logging&#45;&gt;roo_backport -->
<g id="edge15" class="edge">
<title>roo_logging&#45;&gt;roo_backport</title>
<path fill="none" stroke="black" d="M316.2,-266.88C342.88,-251.86 380.98,-230.41 409.87,-214.15"/>
<polygon fill="black" stroke="black" points="411.9,-217.02 418.9,-209.07 408.47,-210.92 411.9,-217.02"/>
</g>
<!-- roo_logging&#45;&gt;roo_flags -->
<g id="edge16" class="edge">
<title>roo_logging&#45;&gt;roo_flags</title>
<path fill="none" stroke="black" d="M284,-266.88C284,-253.35 284,-234.62 284,-219.15"/>
<polygon fill="black" stroke="black" points="287.5,-219.07 284,-209.07 280.5,-219.07 287.5,-219.07"/>
</g>
<!-- roo_threads -->
<g id="node21" class="node">
<title>roo_threads</title>
<polygon fill="#b1dbab" stroke="black" points="211,-209 131,-209 131,-171 211,-171 211,-209"/>
<text text-anchor="middle" x="171" y="-193.8" font-family="Times,serif" font-size="14.00">roo_threads</text>
<text text-anchor="middle" x="171" y="-178.8" font-family="Times,serif" font-size="14.00">1.2.1</text>
</g>
<!-- roo_logging&#45;&gt;roo_threads -->
<g id="edge17" class="edge">
<title>roo_logging&#45;&gt;roo_threads</title>
<path fill="none" stroke="black" d="M268.95,-266.84C258.45,-254.78 243.74,-239.01 229,-227 223.69,-222.67 217.82,-218.47 211.92,-214.55"/>
<polygon fill="black" stroke="black" points="213.62,-211.47 203.31,-209.02 209.84,-217.37 213.62,-211.47"/>
</g>
<!-- roo_monitoring -->
<g id="node14" class="node">
<title>roo_monitoring</title>
<polygon fill="khaki" stroke="red" points="736,-497 634,-497 634,-459 736,-459 736,-497"/>
<text text-anchor="middle" x="685" y="-481.8" font-family="Times,serif" font-size="14.00">roo_monitoring</text>
<text text-anchor="middle" x="685" y="-466.8" font-family="Times,serif" font-size="14.00">1.0.0</text>
</g>
<!-- roo_monitoring&#45;&gt;roo_collections -->
<g id="edge18" class="edge">
<title>roo_monitoring&#45;&gt;roo_collections</title>
<path fill="none" stroke="red" d="M677.23,-458.86C670.85,-446.01 660.65,-429.29 647,-419 630.72,-406.73 610.2,-398.6 590.96,-393.22"/>
<polygon fill="red" stroke="red" points="591.61,-389.77 581.05,-390.66 589.85,-396.55 591.61,-389.77"/>
<text text-anchor="middle" x="693" y="-433" font-family="Times,serif" font-size="10.00" fill="red">1.3.2</text>
<text text-anchor="middle" x="693" y="-422" font-family="Times,serif" font-size="10.00" fill="red">(latest: 1.4.1)</text>
</g>
<!-- roo_monitoring&#45;&gt;roo_io -->
<g id="edge19" class="edge">
<title>roo_monitoring&#45;&gt;roo_io</title>
<path fill="none" stroke="red" d="M633.77,-460.94C630.82,-460.23 627.88,-459.58 625,-459 548.76,-443.76 519.93,-476.95 451,-441 439.55,-435.03 440.8,-428.46 432,-419 428.71,-415.46 425.19,-411.8 421.68,-408.22"/>
<polygon fill="red" stroke="red" points="424.11,-405.69 414.58,-401.06 419.14,-410.62 424.11,-405.69"/>
<text text-anchor="middle" x="478" y="-433" font-family="Times,serif" font-size="10.00" fill="red">2.0.3</text>
<text text-anchor="middle" x="478" y="-422" font-family="Times,serif" font-size="10.00" fill="red">(latest: 2.1.2)</text>
</g>
<!-- roo_onewire -->
<g id="node15" class="node">
<title>roo_onewire</title>
<polygon fill="#b1dbab" stroke="black" points="305.5,-593 220.5,-593 220.5,-555 305.5,-555 305.5,-593"/>
<text text-anchor="middle" x="263" y="-577.8" font-family="Times,serif" font-size="14.00">roo_onewire</text>
<text text-anchor="middle" x="263" y="-562.8" font-family="Times,serif" font-size="14.00">2.0.8</text>
</g>
<!-- roo_onewire&#45;&gt;roo_quantity -->
<g id="edge21" class="edge">
<title>roo_onewire&#45;&gt;roo_quantity</title>
<path fill="none" stroke="black" d="M275.29,-554.87C282.11,-542.36 287.48,-526.05 278,-515 266.31,-501.38 162.01,-489.65 96.35,-483.53"/>
<polygon fill="black" stroke="black" points="96.44,-480.02 86.16,-482.59 95.8,-486.99 96.44,-480.02"/>
</g>
<!-- roo_onewire&#45;&gt;roo_scheduler -->
<g id="edge20" class="edge">
<title>roo_onewire&#45;&gt;roo_scheduler</title>
<path fill="none" stroke="black" d="M289.82,-554.64C295.16,-549.6 300.04,-543.66 303,-537 306.98,-528.07 306.47,-524.14 303,-515 301.67,-511.51 299.84,-508.15 297.71,-504.97"/>
<polygon fill="black" stroke="black" points="300.44,-502.78 291.54,-497.02 294.91,-507.07 300.44,-502.78"/>
</g>
<!-- roo_powersafefs -->
<g id="node16" class="node">
<title>roo_powersafefs</title>
<polygon fill="plum" stroke="red" points="224.5,-305 117.5,-305 117.5,-267 224.5,-267 224.5,-305"/>
<text text-anchor="middle" x="171" y="-289.8" font-family="Times,serif" font-size="14.00">roo_powersafefs</text>
<text text-anchor="middle" x="171" y="-274.8" font-family="Times,serif" font-size="14.00">1.0.0</text>
</g>
<!-- roo_powersafefs&#45;&gt;roo_threads -->
<g id="edge22" class="edge">
<title>roo_powersafefs&#45;&gt;roo_threads</title>
<path fill="none" stroke="red" d="M171,-266.88C171,-253.35 171,-234.62 171,-219.15"/>
<polygon fill="red" stroke="red" points="174.5,-219.07 171,-209.07 167.5,-219.07 174.5,-219.07"/>
<text text-anchor="middle" x="198" y="-241" font-family="Times,serif" font-size="10.00" fill="red">1.1.6</text>
<text text-anchor="middle" x="198" y="-230" font-family="Times,serif" font-size="10.00" fill="red">(latest: 1.2.1)</text>
</g>
<!-- roo_prefs -->
<g id="node17" class="node">
<title>roo_prefs</title>
<polygon fill="#b1dbab" stroke="red" points="482,-593 414,-593 414,-555 482,-555 482,-593"/>
<text text-anchor="middle" x="448" y="-577.8" font-family="Times,serif" font-size="14.00">roo_prefs</text>
<text text-anchor="middle" x="448" y="-562.8" font-family="Times,serif" font-size="14.00">1.2.7</text>
</g>
<!-- roo_prefs&#45;&gt;roo_logging -->
<g id="edge23" class="edge">
<title>roo_prefs&#45;&gt;roo_logging</title>
<path fill="none" stroke="red" d="M445.11,-554.87C442.55,-542.82 437.96,-527.05 430,-515 416.02,-493.82 357.66,-461.72 343,-441 315.09,-401.57 298.34,-347.21 290.16,-314.74"/>
<polygon fill="red" stroke="red" points="293.56,-313.9 287.81,-305.01 286.76,-315.55 293.56,-313.9"/>
<text text-anchor="middle" x="370" y="-433" font-family="Times,serif" font-size="10.00" fill="red">1.5.1</text>
<text text-anchor="middle" x="370" y="-422" font-family="Times,serif" font-size="10.00" fill="red">(latest: 1.5.3)</text>
</g>
<!-- roo_prefs&#45;&gt;roo_scheduler -->
<g id="edge24" class="edge">
<title>roo_prefs&#45;&gt;roo_scheduler</title>
<path fill="none" stroke="red" d="M413.79,-556.25C401.79,-550.28 388.25,-543.44 376,-537 354.68,-525.79 331.19,-512.86 311.84,-502.07"/>
<polygon fill="red" stroke="red" points="313.42,-498.94 302.98,-497.11 310,-505.05 313.42,-498.94"/>
<text text-anchor="middle" x="403" y="-529" font-family="Times,serif" font-size="10.00" fill="red">2.1.6</text>
<text text-anchor="middle" x="403" y="-518" font-family="Times,serif" font-size="10.00" fill="red">(latest: 2.1.7)</text>
</g>
<!-- roo_quantity&#45;&gt;roo_logging -->
<g id="edge25" class="edge">
<title>roo_quantity&#45;&gt;roo_logging</title>
<path fill="none" stroke="black" d="M47.59,-458.8C56.89,-425.9 81.28,-356.81 129,-323 164.88,-297.58 185,-314.41 232.54,-304.64"/>
<polygon fill="black" stroke="black" points="233.5,-308.01 242.43,-302.31 231.89,-301.2 233.5,-308.01"/>
</g>
<!-- roo_scheduler&#45;&gt;roo_collections -->
<g id="edge26" class="edge">
<title>roo_scheduler&#45;&gt;roo_collections</title>
<path fill="none" stroke="black" d="M317.78,-460.09C360.78,-444.54 424.73,-421.42 471.37,-404.56"/>
<polygon fill="black" stroke="black" points="472.83,-407.75 481.05,-401.06 470.45,-401.17 472.83,-407.75"/>
</g>
<!-- roo_scheduler&#45;&gt;roo_threads -->
<g id="edge27" class="edge">
<title>roo_scheduler&#45;&gt;roo_threads</title>
<path fill="none" stroke="black" d="M244,-458.94C205.25,-431.19 135.49,-373.98 108,-305 95.29,-273.11 119.82,-238.94 141.88,-216.42"/>
<polygon fill="black" stroke="black" points="144.51,-218.74 149.21,-209.25 139.62,-213.74 144.51,-218.74"/>
</g>
<!-- roo_testing -->
<g id="node20" class="node">
<title>roo_testing</title>
<polygon fill="#b1dbab" stroke="black" points="129.5,-38 52.5,-38 52.5,0 129.5,0 129.5,-38"/>
<text text-anchor="middle" x="91" y="-22.8" font-family="Times,serif" font-size="14.00">roo_testing</text>
<text text-anchor="middle" x="91" y="-7.8" font-family="Times,serif" font-size="14.00">1.2.1</text>
</g>
<!-- roo_time -->
<g id="node22" class="node">
<title>roo_time</title>
<polygon fill="#b1dbab" stroke="black" points="124,-113 58,-113 58,-75 124,-75 124,-113"/>
<text text-anchor="middle" x="91" y="-97.8" font-family="Times,serif" font-size="14.00">roo_time</text>
<text text-anchor="middle" x="91" y="-82.8" font-family="Times,serif" font-size="14.00">1.4.1</text>
</g>
<!-- roo_threads&#45;&gt;roo_time -->
<g id="edge28" class="edge">
<title>roo_threads&#45;&gt;roo_time</title>
<path fill="none" stroke="black" d="M161.3,-170.76C154.49,-158.81 144.72,-143.2 134,-131 130.63,-127.17 126.84,-123.39 122.94,-119.82"/>
<polygon fill="black" stroke="black" points="125.22,-117.16 115.39,-113.22 120.62,-122.44 125.22,-117.16"/>
</g>
<!-- roo_time&#45;&gt;roo_testing -->
<g id="edge29" class="edge">
<title>roo_time&#45;&gt;roo_testing</title>
<path fill="none" stroke="black" d="M91,-74.96C91,-66.88 91,-57.18 91,-48.18"/>
<polygon fill="black" stroke="black" points="94.5,-48.09 91,-38.09 87.5,-48.09 94.5,-48.09"/>
</g>
<!-- roo_time_ds3231 -->
<g id="node23" class="node">
<title>roo_time_ds3231</title>
<polygon fill="#b1dbab" stroke="red" points="113,-209 1,-209 1,-171 113,-171 113,-209"/>
<text text-anchor="middle" x="57" y="-193.8" font-family="Times,serif" font-size="14.00">roo_time_ds3231</text>
<text text-anchor="middle" x="57" y="-178.8" font-family="Times,serif" font-size="14.00">1.1.4</text>
</g>
<!-- roo_time_ds3231&#45;&gt;roo_time -->
<g id="edge30" class="edge">
<title>roo_time_ds3231&#45;&gt;roo_time</title>
<path fill="none" stroke="red" d="M63.56,-170.88C68.49,-157.22 75.35,-138.26 80.98,-122.71"/>
<polygon fill="red" stroke="red" points="84.35,-123.66 84.46,-113.07 77.77,-121.28 84.35,-123.66"/>
<text text-anchor="middle" x="105" y="-145" font-family="Times,serif" font-size="10.00" fill="red">1.4.0</text>
<text text-anchor="middle" x="105" y="-134" font-family="Times,serif" font-size="10.00" fill="red">(latest: 1.4.1)</text>
</g>
<!-- roo_transceivers&#45;&gt;roo_prefs -->
<g id="edge31" class="edge">
<title>roo_transceivers&#45;&gt;roo_prefs</title>
<path fill="none" stroke="black" d="M429.18,-629.96C432,-621.71 435.41,-611.75 438.55,-602.6"/>
<polygon fill="black" stroke="black" points="441.88,-603.68 441.8,-593.09 435.25,-601.42 441.88,-603.68"/>
</g>
<!-- roo_transport -->
<g id="node25" class="node">
<title>roo_transport</title>
<polygon fill="khaki" stroke="red" points="513.5,-497 424.5,-497 424.5,-459 513.5,-459 513.5,-497"/>
<text text-anchor="middle" x="469" y="-481.8" font-family="Times,serif" font-size="14.00">roo_transport</text>
<text text-anchor="middle" x="469" y="-466.8" font-family="Times,serif" font-size="14.00">1.1.0</text>
</g>
<!-- roo_transport&#45;&gt;roo_collections -->
<g id="edge32" class="edge">
<title>roo_transport&#45;&gt;roo_collections</title>
<path fill="none" stroke="red" d="M492.9,-458.85C498.74,-453.58 504.57,-447.48 509,-441 515.25,-431.87 520.03,-420.72 523.51,-410.65"/>
<polygon fill="red" stroke="red" points="526.86,-411.64 526.56,-401.05 520.19,-409.52 526.86,-411.64"/>
<text text-anchor="middle" x="547" y="-433" font-family="Times,serif" font-size="10.00" fill="red">1.4.0</text>
<text text-anchor="middle" x="547" y="-422" font-family="Times,serif" font-size="10.00" fill="red">(latest: 1.4.1)</text>
</g>
<!-- roo_transport&#45;&gt;roo_io -->
<g id="edge33" class="edge">
<title>roo_transport&#45;&gt;roo_io</title>
<path fill="none" stroke="black" d="M429.57,-458.96C422.17,-454.05 415.16,-448.08 410,-441 403.75,-432.43 400.26,-421.43 398.32,-411.32"/>
<polygon fill="black" stroke="black" points="401.76,-410.62 396.81,-401.25 394.83,-411.65 401.76,-410.62"/>
</g>
<!-- roo_wifi -->
<g id="node26" class="node">
<title>roo_wifi</title>
<polygon fill="#b1dbab" stroke="red" points="557.5,-668 494.5,-668 494.5,-630 557.5,-630 557.5,-668"/>
<text text-anchor="middle" x="526" y="-652.8" font-family="Times,serif" font-size="14.00">roo_wifi</text>
<text text-anchor="middle" x="526" y="-637.8" font-family="Times,serif" font-size="14.00">1.1.3</text>
</g>
<!-- roo_wifi&#45;&gt;roo_prefs -->
<g id="edge34" class="edge">
<title>roo_wifi&#45;&gt;roo_prefs</title>
<path fill="none" stroke="black" d="M506.72,-629.96C497.06,-620.92 485.22,-609.83 474.7,-599.99"/>
<polygon fill="black" stroke="black" points="477.02,-597.37 467.33,-593.09 472.24,-602.48 477.02,-597.37"/>
</g>
<!-- roo_windows&#45;&gt;roo_icons -->
<g id="edge36" class="edge">
<title>roo_windows&#45;&gt;roo_icons</title>
<path fill="none" stroke="black" d="M626.51,-629.96C626.28,-621.88 626.02,-612.18 625.77,-603.18"/>
<polygon fill="black" stroke="black" points="629.27,-602.99 625.5,-593.09 622.27,-603.18 629.27,-602.99"/>
</g>
<!-- roo_windows&#45;&gt;roo_locale -->
<g id="edge35" class="edge">
<title>roo_windows&#45;&gt;roo_locale</title>
<path fill="none" stroke="black" d="M648.75,-629.96C659.75,-620.83 673.27,-609.62 685.22,-599.7"/>
<polygon fill="black" stroke="black" points="687.73,-602.17 693.19,-593.09 683.26,-596.78 687.73,-602.17"/>
</g>
<!-- roo_windows&#45;&gt;roo_scheduler -->
<g id="edge37" class="edge">
<title>roo_windows&#45;&gt;roo_scheduler</title>
<path fill="none" stroke="red" d="M587.77,-629.99C568.58,-620.31 545.66,-607.41 527,-593 508.59,-578.78 508.61,-570.2 491,-555 467.57,-534.78 462.33,-527.47 434,-515 400.37,-500.2 360.07,-491.23 327.96,-485.94"/>
<polygon fill="red" stroke="red" points="328.26,-482.45 317.84,-484.35 327.18,-489.36 328.26,-482.45"/>
<text text-anchor="middle" x="554" y="-577" font-family="Times,serif" font-size="10.00" fill="red">2.1.6</text>
<text text-anchor="middle" x="554" y="-566" font-family="Times,serif" font-size="10.00" fill="red">(latest: 2.1.7)</text>
</g>
<!-- roo_windows_transceivers -->
<g id="node28" class="node">
<title>roo_windows_transceivers</title>
<polygon fill="khaki" stroke="red" points="503.5,-764 342.5,-764 342.5,-726 503.5,-726 503.5,-764"/>
<text text-anchor="middle" x="423" y="-748.8" font-family="Times,serif" font-size="14.00">roo_windows_transceivers</text>
<text text-anchor="middle" x="423" y="-733.8" font-family="Times,serif" font-size="14.00">1.0.0</text>
</g>
<!-- roo_windows_transceivers&#45;&gt;roo_transceivers -->
<g id="edge38" class="edge">
<title>roo_windows_transceivers&#45;&gt;roo_transceivers</title>
<path fill="none" stroke="red" d="M423,-725.88C423,-712.35 423,-693.62 423,-678.15"/>
<polygon fill="red" stroke="red" points="426.5,-678.07 423,-668.07 419.5,-678.07 426.5,-678.07"/>
<text text-anchor="middle" x="450" y="-700" font-family="Times,serif" font-size="10.00" fill="red">1.1.3</text>
<text text-anchor="middle" x="450" y="-689" font-family="Times,serif" font-size="10.00" fill="red">(latest: 1.1.4)</text>
</g>
<!-- roo_windows_transceivers&#45;&gt;roo_windows -->
<g id="edge39" class="edge">
<title>roo_windows_transceivers&#45;&gt;roo_windows</title>
<path fill="none" stroke="red" d="M462.33,-725.88C495.49,-710.6 543.08,-688.67 578.58,-672.31"/>
<polygon fill="red" stroke="red" points="580.17,-675.43 587.79,-668.07 577.24,-669.07 580.17,-675.43"/>
<text text-anchor="middle" x="570" y="-700" font-family="Times,serif" font-size="10.00" fill="red">1.4.1</text>
<text text-anchor="middle" x="570" y="-689" font-family="Times,serif" font-size="10.00" fill="red">(latest: 1.4.2)</text>
</g>
<!-- roo_windows_wifi -->
<g id="node29" class="node">
<title>roo_windows_wifi</title>
<polygon fill="plum" stroke="red" points="640.5,-764 521.5,-764 521.5,-726 640.5,-726 640.5,-764"/>
<text text-anchor="middle" x="581" y="-748.8" font-family="Times,serif" font-size="14.00">roo_windows_wifi</text>
<text text-anchor="middle" x="581" y="-733.8" font-family="Times,serif" font-size="14.00">1.1.3</text>
</g>
<!-- roo_windows_wifi&#45;&gt;roo_wifi -->
<g id="edge40" class="edge">
<title>roo_windows_wifi&#45;&gt;roo_wifi</title>
<path fill="none" stroke="black" d="M555.49,-725.93C549.67,-720.73 544.02,-714.65 540,-708 534.55,-698.99 531.22,-687.98 529.19,-677.99"/>
<polygon fill="black" stroke="black" points="532.63,-677.35 527.51,-668.07 525.73,-678.52 532.63,-677.35"/>
</g>
<!-- roo_windows_wifi&#45;&gt;roo_windows -->
<g id="edge41" class="edge">
<title>roo_windows_wifi&#45;&gt;roo_windows</title>
<path fill="none" stroke="black" d="M601.21,-725.63C606.02,-720.36 610.7,-714.31 614,-708 618.77,-698.86 621.8,-688.03 623.71,-678.21"/>
<polygon fill="black" stroke="black" points="627.21,-678.52 625.39,-668.08 620.3,-677.38 627.21,-678.52"/>
</g>
</g>
</svg>
