<?xml version="1.0" encoding="UTF-8" standalone="no"?>
<!DOCTYPE svg PUBLIC "-//W3C//DTD SVG 1.1//EN"
 "http://www.w3.org/Graphics/SVG/1.1/DTD/svg11.dtd">
<!-- Generated by graphviz version 2.42.4 (0)
 -->
<!-- Title: dependencies Pages: 1 -->
<svg width="869pt" height="793pt"
 viewBox="0.00 0.00 869.00 793.00" xmlns="http://www.w3.org/2000/svg" xmlns:xlink="http://www.w3.org/1999/xlink">
<g id="graph0" class="graph" transform="scale(1 1) rotate(0) translate(4 789)">
<title>dependencies</title>
<polygon fill="white" stroke="transparent" points="-4,4 -4,-789 865,-789 865,4 -4,4"/>
<!-- roo_backport -->
<g id="node1" class="node">
<title>roo_backport</title>
<polygon fill="#b1dbab" stroke="black" points="600,-209 490,-209 490,-171 600,-171 600,-209"/>
<text text-anchor="middle" x="545" y="-193.8" font-family="Times,serif" font-size="14.00">roo_backport</text>
<text text-anchor="middle" x="545" y="-178.8" font-family="Times,serif" font-size="14.00">1.2.2</text>
</g>
<!-- roo_blink -->
<g id="node2" class="node">
<title>roo_blink</title>
<polygon fill="plum" stroke="red" points="205,-593 123,-593 123,-555 205,-555 205,-593"/>
<text text-anchor="middle" x="164" y="-577.8" font-family="Times,serif" font-size="14.00">roo_blink</text>
<text text-anchor="middle" x="164" y="-562.8" font-family="Times,serif" font-size="14.00">1.0.5</text>
</g>
<!-- roo_logging -->
<g id="node12" class="node">
<title>roo_logging</title>
<polygon fill="plum" stroke="red" points="392,-305 292,-305 292,-267 392,-267 392,-305"/>
<text text-anchor="middle" x="342" y="-289.8" font-family="Times,serif" font-size="14.00">roo_logging</text>
<text text-anchor="middle" x="342" y="-274.8" font-family="Times,serif" font-size="14.00">1.5.3</text>
</g>
<!-- roo_blink&#45;&gt;roo_logging -->
<g id="edge1" class="edge">
<title>roo_blink&#45;&gt;roo_logging</title>
<path fill="none" stroke="black" d="M169.38,-554.91C176.65,-531.81 190.8,-491 209,-459 240.82,-403.04 289.27,-345.3 318.07,-312.99"/>
<polygon fill="black" stroke="black" points="320.87,-315.12 324.95,-305.34 315.66,-310.44 320.87,-315.12"/>
</g>
<!-- roo_scheduler -->
<g id="node18" class="node">
<title>roo_scheduler</title>
<polygon fill="plum" stroke="red" points="334,-497 218,-497 218,-459 334,-459 334,-497"/>
<text text-anchor="middle" x="276" y="-481.8" font-family="Times,serif" font-size="14.00">roo_scheduler</text>
<text text-anchor="middle" x="276" y="-466.8" font-family="Times,serif" font-size="14.00">2.1.7</text>
</g>
<!-- roo_blink&#45;&gt;roo_scheduler -->
<g id="edge2" class="edge">
<title>roo_blink&#45;&gt;roo_scheduler</title>
<path fill="none" stroke="black" d="M189.25,-554.75C196.69,-549.19 204.77,-542.97 212,-537 224.59,-526.61 238.05,-514.57 249.36,-504.16"/>
<polygon fill="black" stroke="black" points="251.85,-506.61 256.81,-497.25 247.1,-501.48 251.85,-506.61"/>
</g>
<!-- roo_collections -->
<g id="node3" class="node">
<title>roo_collections</title>
<polygon fill="plum" stroke="red" points="678,-401 556,-401 556,-363 678,-363 678,-401"/>
<text text-anchor="middle" x="617" y="-385.8" font-family="Times,serif" font-size="14.00">roo_collections</text>
<text text-anchor="middle" x="617" y="-370.8" font-family="Times,serif" font-size="14.00">1.4.1</text>
</g>
<!-- roo_collections&#45;&gt;roo_backport -->
<g id="edge3" class="edge">
<title>roo_collections&#45;&gt;roo_backport</title>
<path fill="none" stroke="red" d="M610.1,-362.78C597.44,-329.37 570.44,-258.13 555.49,-218.69"/>
<polygon fill="red" stroke="red" points="558.7,-217.27 551.88,-209.16 552.15,-219.75 558.7,-217.27"/>
<text text-anchor="middle" x="621" y="-289" font-family="Times,serif" font-size="10.00" fill="red">1.2.1</text>
<text text-anchor="middle" x="621" y="-278" font-family="Times,serif" font-size="10.00" fill="red">(latest: 1.2.2)</text>
</g>
<!-- roo_comms -->
<g id="node4" class="node">
<title>roo_comms</title>
<polygon fill="plum" stroke="red" points="328.5,-785 231.5,-785 231.5,-747 328.5,-747 328.5,-785"/>
<text text-anchor="middle" x="280" y="-769.8" font-family="Times,serif" font-size="14.00">roo_comms</text>
<text text-anchor="middle" x="280" y="-754.8" font-family="Times,serif" font-size="14.00">1.1.3</text>
</g>
<!-- roo_comms&#45;&gt;roo_blink -->
<g id="edge4" class="edge">
<title>roo_comms&#45;&gt;roo_blink</title>
<path fill="none" stroke="red" d="M268.88,-746.78C248.35,-713.16 204.43,-641.22 180.45,-601.94"/>
<polygon fill="red" stroke="red" points="183.29,-599.87 175.09,-593.16 177.31,-603.52 183.29,-599.87"/>
<text text-anchor="middle" x="267" y="-673" font-family="Times,serif" font-size="10.00" fill="red">1.0.4</text>
<text text-anchor="middle" x="267" y="-662" font-family="Times,serif" font-size="10.00" fill="red">(latest: 1.0.5)</text>
</g>
<!-- roo_control -->
<g id="node5" class="node">
<title>roo_control</title>
<polygon fill="plum" stroke="red" points="104.5,-593 7.5,-593 7.5,-555 104.5,-555 104.5,-593"/>
<text text-anchor="middle" x="56" y="-577.8" font-family="Times,serif" font-size="14.00">roo_control</text>
<text text-anchor="middle" x="56" y="-562.8" font-family="Times,serif" font-size="14.00">1.2.4</text>
</g>
<!-- roo_comms&#45;&gt;roo_control -->
<g id="edge5" class="edge">
<title>roo_comms&#45;&gt;roo_control</title>
<path fill="none" stroke="red" d="M235.94,-746.87C206.98,-733.59 169.34,-713.62 141,-689 111.79,-663.62 86.48,-626.58 71.25,-601.68"/>
<polygon fill="red" stroke="red" points="74.25,-599.87 66.1,-593.09 68.24,-603.47 74.25,-599.87"/>
<text text-anchor="middle" x="174" y="-673" font-family="Times,serif" font-size="10.00" fill="red">1.2.3</text>
<text text-anchor="middle" x="174" y="-662" font-family="Times,serif" font-size="10.00" fill="red">(latest: 1.2.4)</text>
</g>
<!-- roo_io -->
<g id="node10" class="node">
<title>roo_io</title>
<polygon fill="plum" stroke="red" points="451.5,-401 392.5,-401 392.5,-363 451.5,-363 451.5,-401"/>
<text text-anchor="middle" x="422" y="-385.8" font-family="Times,serif" font-size="14.00">roo_io</text>
<text text-anchor="middle" x="422" y="-370.8" font-family="Times,serif" font-size="14.00">2.1.4</text>
</g>
<!-- roo_comms&#45;&gt;roo_io -->
<g id="edge6" class="edge">
<title>roo_comms&#45;&gt;roo_io</title>
<path fill="none" stroke="red" d="M310.91,-746.79C334.5,-730.32 363,-703.66 363,-671 363,-671 363,-671 363,-525 363,-482.31 386.02,-437.54 403.31,-409.95"/>
<polygon fill="red" stroke="red" points="406.42,-411.58 408.91,-401.28 400.54,-407.78 406.42,-411.58"/>
<text text-anchor="middle" x="396" y="-577" font-family="Times,serif" font-size="10.00" fill="red">2.1.1</text>
<text text-anchor="middle" x="396" y="-566" font-family="Times,serif" font-size="10.00" fill="red">(latest: 2.1.4)</text>
</g>
<!-- roo_transceivers -->
<g id="node23" class="node">
<title>roo_transceivers</title>
<polygon fill="plum" stroke="red" points="526.5,-689 391.5,-689 391.5,-651 526.5,-651 526.5,-689"/>
<text text-anchor="middle" x="459" y="-673.8" font-family="Times,serif" font-size="14.00">roo_transceivers</text>
<text text-anchor="middle" x="459" y="-658.8" font-family="Times,serif" font-size="14.00">1.1.4</text>
</g>
<!-- roo_comms&#45;&gt;roo_transceivers -->
<g id="edge7" class="edge">
<title>roo_comms&#45;&gt;roo_transceivers</title>
<path fill="none" stroke="black" d="M328.93,-749.64C344.66,-743.97 361.91,-736.96 377,-729 394.92,-719.55 413.47,-706.72 428.38,-695.54"/>
<polygon fill="black" stroke="black" points="430.88,-698.03 436.71,-689.18 426.63,-692.47 430.88,-698.03"/>
</g>
<!-- roo_quantity -->
<g id="node17" class="node">
<title>roo_quantity</title>
<polygon fill="plum" stroke="red" points="147.5,-497 40.5,-497 40.5,-459 147.5,-459 147.5,-497"/>
<text text-anchor="middle" x="94" y="-481.8" font-family="Times,serif" font-size="14.00">roo_quantity</text>
<text text-anchor="middle" x="94" y="-466.8" font-family="Times,serif" font-size="14.00">1.1.7</text>
</g>
<!-- roo_control&#45;&gt;roo_quantity -->
<g id="edge8" class="edge">
<title>roo_control&#45;&gt;roo_quantity</title>
<path fill="none" stroke="black" d="M63.33,-554.88C68.85,-541.22 76.51,-522.26 82.8,-506.71"/>
<polygon fill="black" stroke="black" points="86.19,-507.65 86.7,-497.07 79.7,-505.03 86.19,-507.65"/>
</g>
<!-- roo_control&#45;&gt;roo_scheduler -->
<g id="edge9" class="edge">
<title>roo_control&#45;&gt;roo_scheduler</title>
<path fill="none" stroke="black" d="M98.16,-554.99C134.04,-539.65 185.73,-517.57 224.15,-501.15"/>
<polygon fill="black" stroke="black" points="225.79,-504.26 233.61,-497.11 223.04,-497.82 225.79,-504.26"/>
</g>
<!-- roo_dashboard -->
<g id="node6" class="node">
<title>roo_dashboard</title>
<polygon fill="khaki" stroke="red" points="861,-785 739,-785 739,-747 861,-747 861,-785"/>
<text text-anchor="middle" x="800" y="-769.8" font-family="Times,serif" font-size="14.00">roo_dashboard</text>
<text text-anchor="middle" x="800" y="-754.8" font-family="Times,serif" font-size="14.00">1.0.1</text>
</g>
<!-- roo_windows -->
<g id="node26" class="node">
<title>roo_windows</title>
<polygon fill="plum" stroke="red" points="750.5,-689 641.5,-689 641.5,-651 750.5,-651 750.5,-689"/>
<text text-anchor="middle" x="696" y="-673.8" font-family="Times,serif" font-size="14.00">roo_windows</text>
<text text-anchor="middle" x="696" y="-658.8" font-family="Times,serif" font-size="14.00">1.4.2</text>
</g>
<!-- roo_dashboard&#45;&gt;roo_windows -->
<g id="edge10" class="edge">
<title>roo_dashboard&#45;&gt;roo_windows</title>
<path fill="none" stroke="red" d="M779.95,-746.88C763.98,-732.44 741.44,-712.07 723.74,-696.07"/>
<polygon fill="red" stroke="red" points="725.76,-693.18 715.99,-689.07 721.06,-698.37 725.76,-693.18"/>
<text text-anchor="middle" x="790" y="-721" font-family="Times,serif" font-size="10.00" fill="red">1.4.1</text>
<text text-anchor="middle" x="790" y="-710" font-family="Times,serif" font-size="10.00" fill="red">(latest: 1.4.2)</text>
</g>
<!-- roo_display -->
<g id="node7" class="node">
<title>roo_display</title>
<polygon fill="plum" stroke="red" points="659,-497 561,-497 561,-459 659,-459 659,-497"/>
<text text-anchor="middle" x="610" y="-481.8" font-family="Times,serif" font-size="14.00">roo_display</text>
<text text-anchor="middle" x="610" y="-466.8" font-family="Times,serif" font-size="14.00">2.3.2</text>
</g>
<!-- roo_display&#45;&gt;roo_collections -->
<g id="edge11" class="edge">
<title>roo_display&#45;&gt;roo_collections</title>
<path fill="none" stroke="red" d="M621.07,-458.94C623.9,-453.39 626.56,-447.12 628,-441 630.3,-431.26 629.24,-420.51 627.06,-410.93"/>
<polygon fill="red" stroke="red" points="630.38,-409.82 624.35,-401.11 623.63,-411.68 630.38,-409.82"/>
<text text-anchor="middle" x="662" y="-433" font-family="Times,serif" font-size="10.00" fill="red">1.4.0</text>
<text text-anchor="middle" x="662" y="-422" font-family="Times,serif" font-size="10.00" fill="red">(latest: 1.4.1)</text>
</g>
<!-- roo_display&#45;&gt;roo_io -->
<g id="edge12" class="edge">
<title>roo_display&#45;&gt;roo_io</title>
<path fill="none" stroke="red" d="M560.82,-461.01C540.98,-454.14 520.73,-446.44 512,-441 500,-433.51 500.45,-427.31 489,-419 480.26,-412.65 470.25,-406.68 460.69,-401.5"/>
<polygon fill="red" stroke="red" points="462.2,-398.33 451.72,-396.78 458.94,-404.53 462.2,-398.33"/>
<text text-anchor="middle" x="545" y="-433" font-family="Times,serif" font-size="10.00" fill="red">2.1.2</text>
<text text-anchor="middle" x="545" y="-422" font-family="Times,serif" font-size="10.00" fill="red">(latest: 2.1.4)</text>
</g>
<!-- roo_flags -->
<g id="node8" class="node">
<title>roo_flags</title>
<polygon fill="#b1dbab" stroke="black" points="425,-209 345,-209 345,-171 425,-171 425,-209"/>
<text text-anchor="middle" x="385" y="-193.8" font-family="Times,serif" font-size="14.00">roo_flags</text>
<text text-anchor="middle" x="385" y="-178.8" font-family="Times,serif" font-size="14.00">1.2.2</text>
</g>
<!-- roo_icons -->
<g id="node9" class="node">
<title>roo_icons</title>
<polygon fill="plum" stroke="red" points="737.5,-593 654.5,-593 654.5,-555 737.5,-555 737.5,-593"/>
<text text-anchor="middle" x="696" y="-577.8" font-family="Times,serif" font-size="14.00">roo_icons</text>
<text text-anchor="middle" x="696" y="-562.8" font-family="Times,serif" font-size="14.00">1.2.1</text>
</g>
<!-- roo_icons&#45;&gt;roo_display -->
<g id="edge13" class="edge">
<title>roo_icons&#45;&gt;roo_display</title>
<path fill="none" stroke="red" d="M679.42,-554.88C666.33,-540.57 647.91,-520.44 633.34,-504.51"/>
<polygon fill="red" stroke="red" points="635.86,-502.08 626.53,-497.07 630.7,-506.81 635.86,-502.08"/>
<text text-anchor="middle" x="693" y="-529" font-family="Times,serif" font-size="10.00" fill="red">2.3.1</text>
<text text-anchor="middle" x="693" y="-518" font-family="Times,serif" font-size="10.00" fill="red">(latest: 2.3.2)</text>
</g>
<!-- roo_io&#45;&gt;roo_logging -->
<g id="edge14" class="edge">
<title>roo_io&#45;&gt;roo_logging</title>
<path fill="none" stroke="black" d="M406.58,-362.88C394.51,-348.7 377.58,-328.81 364.08,-312.94"/>
<polygon fill="black" stroke="black" points="366.52,-310.42 357.38,-305.07 361.19,-314.95 366.52,-310.42"/>
</g>
<!-- roo_locale -->
<g id="node11" class="node">
<title>roo_locale</title>
<polygon fill="plum" stroke="black" points="844,-593 756,-593 756,-555 844,-555 844,-593"/>
<text text-anchor="middle" x="800" y="-577.8" font-family="Times,serif" font-size="14.00">roo_locale</text>
<text text-anchor="middle" x="800" y="-562.8" font-family="Times,serif" font-size="14.00">1.1.1</text>
</g>
<!-- roo_logging&#45;&gt;roo_backport -->
<g id="edge15" class="edge">
<title>roo_logging&#45;&gt;roo_backport</title>
<path fill="none" stroke="red" d="M392,-269.12C408.49,-263.37 426.75,-256.45 443,-249 465.06,-238.89 488.68,-225.63 507.63,-214.34"/>
<polygon fill="red" stroke="red" points="509.49,-217.3 516.25,-209.14 505.88,-211.3 509.49,-217.3"/>
<text text-anchor="middle" x="517" y="-241" font-family="Times,serif" font-size="10.00" fill="red">1.2.1</text>
<text text-anchor="middle" x="517" y="-230" font-family="Times,serif" font-size="10.00" fill="red">(latest: 1.2.2)</text>
</g>
<!-- roo_logging&#45;&gt;roo_flags -->
<g id="edge16" class="edge">
<title>roo_logging&#45;&gt;roo_flags</title>
<path fill="none" stroke="red" d="M353.5,-266.63C356.77,-261.07 360.2,-254.88 363,-249 367.61,-239.33 371.96,-228.42 375.56,-218.7"/>
<polygon fill="red" stroke="red" points="378.92,-219.68 379.01,-209.09 372.33,-217.32 378.92,-219.68"/>
<text text-anchor="middle" x="406" y="-241" font-family="Times,serif" font-size="10.00" fill="red">1.2.1</text>
<text text-anchor="middle" x="406" y="-230" font-family="Times,serif" font-size="10.00" fill="red">(latest: 1.2.2)</text>
</g>
<!-- roo_threads -->
<g id="node20" class="node">
<title>roo_threads</title>
<polygon fill="#b1dbab" stroke="black" points="257.5,-209 156.5,-209 156.5,-171 257.5,-171 257.5,-209"/>
<text text-anchor="middle" x="207" y="-193.8" font-family="Times,serif" font-size="14.00">roo_threads</text>
<text text-anchor="middle" x="207" y="-178.8" font-family="Times,serif" font-size="14.00">1.2.2</text>
</g>
<!-- roo_logging&#45;&gt;roo_threads -->
<g id="edge17" class="edge">
<title>roo_logging&#45;&gt;roo_threads</title>
<path fill="none" stroke="red" d="M315.2,-266.98C307.74,-261.53 299.82,-255.3 293,-249 283.51,-240.23 284.08,-235.08 274,-227 268.26,-222.4 261.85,-218.1 255.33,-214.18"/>
<polygon fill="red" stroke="red" points="256.84,-211.02 246.42,-209.09 253.37,-217.09 256.84,-211.02"/>
<text text-anchor="middle" x="326" y="-241" font-family="Times,serif" font-size="10.00" fill="red">1.2.1</text>
<text text-anchor="middle" x="326" y="-230" font-family="Times,serif" font-size="10.00" fill="red">(latest: 1.2.2)</text>
</g>
<!-- roo_monitoring -->
<g id="node13" class="node">
<title>roo_monitoring</title>
<polygon fill="plum" stroke="red" points="802.5,-497 677.5,-497 677.5,-459 802.5,-459 802.5,-497"/>
<text text-anchor="middle" x="740" y="-481.8" font-family="Times,serif" font-size="14.00">roo_monitoring</text>
<text text-anchor="middle" x="740" y="-466.8" font-family="Times,serif" font-size="14.00">1.0.0</text>
</g>
<!-- roo_monitoring&#45;&gt;roo_collections -->
<g id="edge18" class="edge">
<title>roo_monitoring&#45;&gt;roo_collections</title>
<path fill="none" stroke="black" d="M730.61,-458.79C723.38,-446.24 712.37,-429.92 699,-419 692.9,-414.02 686.01,-409.61 678.87,-405.72"/>
<polygon fill="black" stroke="black" points="680.25,-402.5 669.75,-401.09 677.08,-408.74 680.25,-402.5"/>
</g>
<!-- roo_monitoring&#45;&gt;roo_io -->
<g id="edge19" class="edge">
<title>roo_monitoring&#45;&gt;roo_io</title>
<path fill="none" stroke="black" d="M677.42,-459.4C659.95,-454 641.08,-447.69 624,-441 602.9,-432.73 599.39,-426.48 578,-419 539.29,-405.46 493.39,-395.57 461.44,-389.62"/>
<polygon fill="black" stroke="black" points="462.05,-386.17 451.58,-387.83 460.79,-393.06 462.05,-386.17"/>
</g>
<!-- roo_onewire -->
<g id="node14" class="node">
<title>roo_onewire</title>
<polygon fill="plum" stroke="red" points="327,-593 223,-593 223,-555 327,-555 327,-593"/>
<text text-anchor="middle" x="275" y="-577.8" font-family="Times,serif" font-size="14.00">roo_onewire</text>
<text text-anchor="middle" x="275" y="-562.8" font-family="Times,serif" font-size="14.00">2.0.8</text>
</g>
<!-- roo_onewire&#45;&gt;roo_quantity -->
<g id="edge21" class="edge">
<title>roo_onewire&#45;&gt;roo_quantity</title>
<path fill="none" stroke="black" d="M240.1,-554.88C210.93,-539.73 169.17,-518.04 137.77,-501.73"/>
<polygon fill="black" stroke="black" points="139.28,-498.57 128.79,-497.07 136.05,-504.78 139.28,-498.57"/>
</g>
<!-- roo_onewire&#45;&gt;roo_scheduler -->
<g id="edge20" class="edge">
<title>roo_onewire&#45;&gt;roo_scheduler</title>
<path fill="none" stroke="black" d="M275.19,-554.88C275.34,-541.35 275.54,-522.62 275.7,-507.15"/>
<polygon fill="black" stroke="black" points="279.2,-507.11 275.81,-497.07 272.2,-507.03 279.2,-507.11"/>
</g>
<!-- roo_powersafefs -->
<g id="node15" class="node">
<title>roo_powersafefs</title>
<polygon fill="plum" stroke="red" points="273.5,-305 140.5,-305 140.5,-267 273.5,-267 273.5,-305"/>
<text text-anchor="middle" x="207" y="-289.8" font-family="Times,serif" font-size="14.00">roo_powersafefs</text>
<text text-anchor="middle" x="207" y="-274.8" font-family="Times,serif" font-size="14.00">1.0.0</text>
</g>
<!-- roo_powersafefs&#45;&gt;roo_threads -->
<g id="edge22" class="edge">
<title>roo_powersafefs&#45;&gt;roo_threads</title>
<path fill="none" stroke="red" d="M207,-266.88C207,-253.35 207,-234.62 207,-219.15"/>
<polygon fill="red" stroke="red" points="210.5,-219.07 207,-209.07 203.5,-219.07 210.5,-219.07"/>
<text text-anchor="middle" x="240" y="-241" font-family="Times,serif" font-size="10.00" fill="red">1.2.1</text>
<text text-anchor="middle" x="240" y="-230" font-family="Times,serif" font-size="10.00" fill="red">(latest: 1.2.2)</text>
</g>
<!-- roo_prefs -->
<g id="node16" class="node">
<title>roo_prefs</title>
<polygon fill="plum" stroke="red" points="530.5,-593 447.5,-593 447.5,-555 530.5,-555 530.5,-593"/>
<text text-anchor="middle" x="489" y="-577.8" font-family="Times,serif" font-size="14.00">roo_prefs</text>
<text text-anchor="middle" x="489" y="-562.8" font-family="Times,serif" font-size="14.00">1.2.8</text>
</g>
<!-- roo_prefs&#45;&gt;roo_logging -->
<g id="edge23" class="edge">
<title>roo_prefs&#45;&gt;roo_logging</title>
<path fill="none" stroke="black" d="M468.98,-554.93C453.9,-540.46 433.56,-519 420,-497 383.02,-437.03 359.32,-356.78 348.62,-314.98"/>
<polygon fill="black" stroke="black" points="352,-314.07 346.18,-305.22 345.21,-315.77 352,-314.07"/>
</g>
<!-- roo_prefs&#45;&gt;roo_scheduler -->
<g id="edge24" class="edge">
<title>roo_prefs&#45;&gt;roo_scheduler</title>
<path fill="none" stroke="black" d="M447.26,-556.12C432.87,-550.19 416.68,-543.41 402,-537 375.8,-525.55 346.8,-512.25 323.23,-501.27"/>
<polygon fill="black" stroke="black" points="324.69,-498.09 314.15,-497.03 321.73,-504.43 324.69,-498.09"/>
</g>
<!-- roo_quantity&#45;&gt;roo_logging -->
<g id="edge25" class="edge">
<title>roo_quantity&#45;&gt;roo_logging</title>
<path fill="none" stroke="black" d="M102.07,-458.78C117.51,-426.17 154.39,-357.97 207,-323 235.55,-304.02 248.9,-313.93 282,-305 282.1,-304.97 282.2,-304.95 282.31,-304.92"/>
<polygon fill="black" stroke="black" points="283.27,-308.28 291.97,-302.24 281.4,-301.54 283.27,-308.28"/>
</g>
<!-- roo_scheduler&#45;&gt;roo_collections -->
<g id="edge26" class="edge">
<title>roo_scheduler&#45;&gt;roo_collections</title>
<path fill="none" stroke="black" d="M312.67,-458.95C340.01,-446.14 378.6,-429.44 414,-419 456.95,-406.34 506.41,-397.45 545.75,-391.68"/>
<polygon fill="black" stroke="black" points="546.38,-395.12 555.78,-390.24 545.39,-388.19 546.38,-395.12"/>
</g>
<!-- roo_scheduler&#45;&gt;roo_threads -->
<g id="edge27" class="edge">
<title>roo_scheduler&#45;&gt;roo_threads</title>
<path fill="none" stroke="red" d="M252.77,-458.93C218.39,-430.53 155.39,-371.77 131,-305 125.21,-289.14 124.54,-282.6 131,-267 139.45,-246.59 156.34,-228.81 172.05,-215.59"/>
<polygon fill="red" stroke="red" points="174.51,-218.1 180.11,-209.1 170.12,-212.64 174.51,-218.1"/>
<text text-anchor="middle" x="184" y="-337" font-family="Times,serif" font-size="10.00" fill="red">1.2.1</text>
<text text-anchor="middle" x="184" y="-326" font-family="Times,serif" font-size="10.00" fill="red">(latest: 1.2.2)</text>
</g>
<!-- roo_testing -->
<g id="node19" class="node">
<title>roo_testing</title>
<polygon fill="#b1dbab" stroke="black" points="157.5,-38 60.5,-38 60.5,0 157.5,0 157.5,-38"/>
<text text-anchor="middle" x="109" y="-22.8" font-family="Times,serif" font-size="14.00">roo_testing</text>
<text text-anchor="middle" x="109" y="-7.8" font-family="Times,serif" font-size="14.00">1.3.1</text>
</g>
<!-- roo_time -->
<g id="node21" class="node">
<title>roo_time</title>
<polygon fill="#b1dbab" stroke="black" points="148.5,-113 69.5,-113 69.5,-75 148.5,-75 148.5,-113"/>
<text text-anchor="middle" x="109" y="-97.8" font-family="Times,serif" font-size="14.00">roo_time</text>
<text text-anchor="middle" x="109" y="-82.8" font-family="Times,serif" font-size="14.00">1.4.2</text>
</g>
<!-- roo_threads&#45;&gt;roo_time -->
<g id="edge28" class="edge">
<title>roo_threads&#45;&gt;roo_time</title>
<path fill="none" stroke="black" d="M195.49,-170.74C187.33,-158.64 175.61,-142.86 163,-131 158.58,-126.85 153.64,-122.85 148.58,-119.12"/>
<polygon fill="black" stroke="black" points="150.24,-116.01 140.04,-113.13 146.22,-121.74 150.24,-116.01"/>
</g>
<!-- roo_time&#45;&gt;roo_testing -->
<g id="edge29" class="edge">
<title>roo_time&#45;&gt;roo_testing</title>
<path fill="none" stroke="black" d="M109,-74.96C109,-66.88 109,-57.18 109,-48.18"/>
<polygon fill="black" stroke="black" points="112.5,-48.09 109,-38.09 105.5,-48.09 112.5,-48.09"/>
</g>
<!-- roo_time_ds3231 -->
<g id="node22" class="node">
<title>roo_time_ds3231</title>
<polygon fill="plum" stroke="red" points="138,-209 0,-209 0,-171 138,-171 138,-209"/>
<text text-anchor="middle" x="69" y="-193.8" font-family="Times,serif" font-size="14.00">roo_time_ds3231</text>
<text text-anchor="middle" x="69" y="-178.8" font-family="Times,serif" font-size="14.00">1.1.5</text>
</g>
<!-- roo_time_ds3231&#45;&gt;roo_time -->
<g id="edge30" class="edge">
<title>roo_time_ds3231&#45;&gt;roo_time</title>
<path fill="none" stroke="red" d="M76.71,-170.88C82.52,-157.22 90.59,-138.26 97.21,-122.71"/>
<polygon fill="red" stroke="red" points="100.62,-123.64 101.31,-113.07 94.18,-120.9 100.62,-123.64"/>
<text text-anchor="middle" x="126" y="-145" font-family="Times,serif" font-size="10.00" fill="red">1.4.1</text>
<text text-anchor="middle" x="126" y="-134" font-family="Times,serif" font-size="10.00" fill="red">(latest: 1.4.2)</text>
</g>
<!-- roo_transceivers&#45;&gt;roo_prefs -->
<g id="edge31" class="edge">
<title>roo_transceivers&#45;&gt;roo_prefs</title>
<path fill="none" stroke="red" d="M417.73,-650.88C411.02,-646.06 404.98,-640.15 401,-633 396.25,-624.46 395.55,-619.12 401,-611 403.51,-607.27 419.83,-600.18 437.76,-593.28"/>
<polygon fill="red" stroke="red" points="439.09,-596.52 447.21,-589.71 436.62,-589.97 439.09,-596.52"/>
<text text-anchor="middle" x="434" y="-625" font-family="Times,serif" font-size="10.00" fill="red">1.2.7</text>
<text text-anchor="middle" x="434" y="-614" font-family="Times,serif" font-size="10.00" fill="red">(latest: 1.2.8)</text>
</g>
<!-- roo_transport -->
<g id="node24" class="node">
<title>roo_transport</title>
<polygon fill="plum" stroke="red" points="543,-497 429,-497 429,-459 543,-459 543,-497"/>
<text text-anchor="middle" x="486" y="-481.8" font-family="Times,serif" font-size="14.00">roo_transport</text>
<text text-anchor="middle" x="486" y="-466.8" font-family="Times,serif" font-size="14.00">1.1.1</text>
</g>
<!-- roo_transport&#45;&gt;roo_collections -->
<g id="edge32" class="edge">
<title>roo_transport&#45;&gt;roo_collections</title>
<path fill="none" stroke="black" d="M543.02,-462.26C556.41,-457.02 569.97,-450.08 581,-441 590.98,-432.79 598.99,-421.04 604.9,-410.27"/>
<polygon fill="black" stroke="black" points="608.11,-411.67 609.54,-401.17 601.88,-408.48 608.11,-411.67"/>
</g>
<!-- roo_transport&#45;&gt;roo_io -->
<g id="edge33" class="edge">
<title>roo_transport&#45;&gt;roo_io</title>
<path fill="none" stroke="red" d="M440.72,-458.98C433.66,-454.19 427.3,-448.26 423,-441 417.78,-432.19 416.55,-421.23 416.97,-411.21"/>
<polygon fill="red" stroke="red" points="420.45,-411.53 417.89,-401.25 413.48,-410.88 420.45,-411.53"/>
<text text-anchor="middle" x="456" y="-433" font-family="Times,serif" font-size="10.00" fill="red">2.1.3</text>
<text text-anchor="middle" x="456" y="-422" font-family="Times,serif" font-size="10.00" fill="red">(latest: 2.1.4)</text>
</g>
<!-- roo_wifi -->
<g id="node25" class="node">
<title>roo_wifi</title>
<polygon fill="plum" stroke="red" points="617,-689 545,-689 545,-651 617,-651 617,-689"/>
<text text-anchor="middle" x="581" y="-673.8" font-family="Times,serif" font-size="14.00">roo_wifi</text>
<text text-anchor="middle" x="581" y="-658.8" font-family="Times,serif" font-size="14.00">1.1.3</text>
</g>
<!-- roo_wifi&#45;&gt;roo_prefs -->
<g id="edge34" class="edge">
<title>roo_wifi&#45;&gt;roo_prefs</title>
<path fill="none" stroke="red" d="M544.66,-654.44C541.73,-653.27 538.82,-652.11 536,-651 515.59,-642.92 502.53,-651.03 490,-633 484.07,-624.47 482.76,-613.4 483.3,-603.21"/>
<polygon fill="red" stroke="red" points="486.8,-603.39 484.43,-593.07 479.85,-602.62 486.8,-603.39"/>
<text text-anchor="middle" x="523" y="-625" font-family="Times,serif" font-size="10.00" fill="red">1.2.7</text>
<text text-anchor="middle" x="523" y="-614" font-family="Times,serif" font-size="10.00" fill="red">(latest: 1.2.8)</text>
</g>
<!-- roo_windows&#45;&gt;roo_icons -->
<g id="edge36" class="edge">
<title>roo_windows&#45;&gt;roo_icons</title>
<path fill="none" stroke="black" d="M696,-650.88C696,-637.35 696,-618.62 696,-603.15"/>
<polygon fill="black" stroke="black" points="699.5,-603.07 696,-593.07 692.5,-603.07 699.5,-603.07"/>
</g>
<!-- roo_windows&#45;&gt;roo_locale -->
<g id="edge35" class="edge">
<title>roo_windows&#45;&gt;roo_locale</title>
<path fill="none" stroke="black" d="M716.05,-650.88C732.02,-636.44 754.56,-616.07 772.26,-600.07"/>
<polygon fill="black" stroke="black" points="774.94,-602.37 780.01,-593.07 770.24,-597.18 774.94,-602.37"/>
</g>
<!-- roo_windows&#45;&gt;roo_scheduler -->
<g id="edge37" class="edge">
<title>roo_windows&#45;&gt;roo_scheduler</title>
<path fill="none" stroke="red" d="M664.92,-650.75C640.95,-636.18 607.37,-614.68 580,-593 560.78,-577.77 561.28,-567.18 540,-555 478.63,-519.86 399.79,-499.93 344.3,-489.38"/>
<polygon fill="red" stroke="red" points="344.69,-485.89 334.22,-487.52 343.42,-492.78 344.69,-485.89"/>
<text text-anchor="middle" x="613" y="-577" font-family="Times,serif" font-size="10.00" fill="red">2.1.6</text>
<text text-anchor="middle" x="613" y="-566" font-family="Times,serif" font-size="10.00" fill="red">(latest: 2.1.7)</text>
</g>
<!-- roo_windows_transceivers -->
<g id="node27" class="node">
<title>roo_windows_transceivers</title>
<polygon fill="plum" stroke="red" points="561,-785 357,-785 357,-747 561,-747 561,-785"/>
<text text-anchor="middle" x="459" y="-769.8" font-family="Times,serif" font-size="14.00">roo_windows_transceivers</text>
<text text-anchor="middle" x="459" y="-754.8" font-family="Times,serif" font-size="14.00">1.0.0</text>
</g>
<!-- roo_windows_transceivers&#45;&gt;roo_transceivers -->
<g id="edge38" class="edge">
<title>roo_windows_transceivers&#45;&gt;roo_transceivers</title>
<path fill="none" stroke="red" d="M459,-746.88C459,-733.35 459,-714.62 459,-699.15"/>
<polygon fill="red" stroke="red" points="462.5,-699.07 459,-689.07 455.5,-699.07 462.5,-699.07"/>
<text text-anchor="middle" x="492" y="-721" font-family="Times,serif" font-size="10.00" fill="red">1.1.3</text>
<text text-anchor="middle" x="492" y="-710" font-family="Times,serif" font-size="10.00" fill="red">(latest: 1.1.4)</text>
</g>
<!-- roo_windows_transceivers&#45;&gt;roo_windows -->
<g id="edge39" class="edge">
<title>roo_windows_transceivers&#45;&gt;roo_windows</title>
<path fill="none" stroke="red" d="M504.42,-746.99C543.32,-731.56 599.47,-709.29 640.93,-692.84"/>
<polygon fill="red" stroke="red" points="642.33,-696.05 650.33,-689.11 639.75,-689.55 642.33,-696.05"/>
<text text-anchor="middle" x="631" y="-721" font-family="Times,serif" font-size="10.00" fill="red">1.4.1</text>
<text text-anchor="middle" x="631" y="-710" font-family="Times,serif" font-size="10.00" fill="red">(latest: 1.4.2)</text>
</g>
<!-- roo_windows_wifi -->
<g id="node28" class="node">
<title>roo_windows_wifi</title>
<polygon fill="plum" stroke="red" points="720.5,-785 579.5,-785 579.5,-747 720.5,-747 720.5,-785"/>
<text text-anchor="middle" x="650" y="-769.8" font-family="Times,serif" font-size="14.00">roo_windows_wifi</text>
<text text-anchor="middle" x="650" y="-754.8" font-family="Times,serif" font-size="14.00">1.1.3</text>
</g>
<!-- roo_windows_wifi&#45;&gt;roo_wifi -->
<g id="edge40" class="edge">
<title>roo_windows_wifi&#45;&gt;roo_wifi</title>
<path fill="none" stroke="black" d="M614.81,-746.99C607.74,-741.99 600.96,-735.98 596,-729 589.83,-720.32 586.19,-709.3 584.05,-699.2"/>
<polygon fill="black" stroke="black" points="587.47,-698.41 582.32,-689.15 580.57,-699.6 587.47,-698.41"/>
</g>
<!-- roo_windows_wifi&#45;&gt;roo_windows -->
<g id="edge41" class="edge">
<title>roo_windows_wifi&#45;&gt;roo_windows</title>
<path fill="none" stroke="black" d="M669.18,-746.89C673.96,-741.53 678.67,-735.37 682,-729 686.79,-719.83 689.98,-708.99 692.08,-699.17"/>
<polygon fill="black" stroke="black" points="695.57,-699.53 693.96,-689.06 688.69,-698.25 695.57,-699.53"/>
</g>
</g>
</svg>
