<?xml version="1.0" encoding="UTF-8" standalone="no"?>
<!DOCTYPE svg PUBLIC "-//W3C//DTD SVG 1.1//EN"
 "http://www.w3.org/Graphics/SVG/1.1/DTD/svg11.dtd">
<!-- Generated by graphviz version 2.42.4 (0)
 -->
<!-- Title: dependencies Pages: 1 -->
<svg width="1504pt" height="730pt"
 viewBox="0.00 0.00 1504.00 730.00" xmlns="http://www.w3.org/2000/svg" xmlns:xlink="http://www.w3.org/1999/xlink">
<g id="graph0" class="graph" transform="scale(1 1) rotate(0) translate(4 726)">
<title>dependencies</title>
<polygon fill="white" stroke="transparent" points="-4,4 -4,-726 1500,-726 1500,4 -4,4"/>
<!-- roo_backport -->
<g id="node1" class="node">
<title>roo_backport</title>
<polygon fill="#b1dbab" stroke="black" points="514,-188 404,-188 404,-150 514,-150 514,-188"/>
<text text-anchor="middle" x="459" y="-172.8" font-family="Times,serif" font-size="14.00">roo_backport</text>
<text text-anchor="middle" x="459" y="-157.8" font-family="Times,serif" font-size="14.00">1.2.0</text>
</g>
<!-- roo_blink -->
<g id="node2" class="node">
<title>roo_blink</title>
<polygon fill="#b1dbab" stroke="black" points="1168,-476 1086,-476 1086,-438 1168,-438 1168,-476"/>
<text text-anchor="middle" x="1127" y="-460.8" font-family="Times,serif" font-size="14.00">roo_blink</text>
<text text-anchor="middle" x="1127" y="-445.8" font-family="Times,serif" font-size="14.00">1.0.4</text>
</g>
<!-- roo_logging -->
<g id="node12" class="node">
<title>roo_logging</title>
<polygon fill="#b1dbab" stroke="black" points="952,-284 852,-284 852,-246 952,-246 952,-284"/>
<text text-anchor="middle" x="902" y="-268.8" font-family="Times,serif" font-size="14.00">roo_logging</text>
<text text-anchor="middle" x="902" y="-253.8" font-family="Times,serif" font-size="14.00">1.5.1</text>
</g>
<!-- roo_blink&#45;&gt;roo_logging -->
<g id="edge1" class="edge">
<title>roo_blink&#45;&gt;roo_logging</title>
<path fill="none" stroke="black" d="M1137.78,-437.9C1150.66,-413.68 1167.98,-370.47 1147,-342 1124.93,-312.05 1027.33,-288.82 962.17,-276.3"/>
<polygon fill="black" stroke="black" points="962.49,-272.8 952.01,-274.38 961.19,-279.68 962.49,-272.8"/>
</g>
<!-- roo_scheduler -->
<g id="node16" class="node">
<title>roo_scheduler</title>
<polygon fill="#b1dbab" stroke="black" points="911,-380 795,-380 795,-342 911,-342 911,-380"/>
<text text-anchor="middle" x="853" y="-364.8" font-family="Times,serif" font-size="14.00">roo_scheduler</text>
<text text-anchor="middle" x="853" y="-349.8" font-family="Times,serif" font-size="14.00">2.1.6</text>
</g>
<!-- roo_blink&#45;&gt;roo_scheduler -->
<g id="edge2" class="edge">
<title>roo_blink&#45;&gt;roo_scheduler</title>
<path fill="none" stroke="black" d="M1085.98,-441.93C1040.72,-426.4 967.39,-401.24 915.09,-383.3"/>
<polygon fill="black" stroke="black" points="916.17,-379.97 905.58,-380.04 913.9,-386.59 916.17,-379.97"/>
</g>
<!-- roo_collections -->
<g id="node3" class="node">
<title>roo_collections</title>
<polygon fill="#b1dbab" stroke="black" points="520,-284 398,-284 398,-246 520,-246 520,-284"/>
<text text-anchor="middle" x="459" y="-268.8" font-family="Times,serif" font-size="14.00">roo_collections</text>
<text text-anchor="middle" x="459" y="-253.8" font-family="Times,serif" font-size="14.00">1.4.0</text>
</g>
<!-- roo_collections&#45;&gt;roo_backport -->
<g id="edge3" class="edge">
<title>roo_collections&#45;&gt;roo_backport</title>
<path fill="none" stroke="black" d="M459,-245.88C459,-232.35 459,-213.62 459,-198.15"/>
<polygon fill="black" stroke="black" points="462.5,-198.07 459,-188.07 455.5,-198.07 462.5,-198.07"/>
</g>
<!-- roo_comms -->
<g id="node4" class="node">
<title>roo_comms</title>
<polygon fill="#b1dbab" stroke="black" points="1182.5,-647 1085.5,-647 1085.5,-609 1182.5,-609 1182.5,-647"/>
<text text-anchor="middle" x="1134" y="-631.8" font-family="Times,serif" font-size="14.00">roo_comms</text>
<text text-anchor="middle" x="1134" y="-616.8" font-family="Times,serif" font-size="14.00">1.1.3</text>
</g>
<!-- roo_comms&#45;&gt;roo_blink -->
<g id="edge4" class="edge">
<title>roo_comms&#45;&gt;roo_blink</title>
<path fill="none" stroke="black" d="M1136.08,-608.7C1137.19,-598.01 1138.44,-584.26 1139,-572 1139.77,-555.13 1140.32,-550.84 1139,-534 1137.75,-518.08 1135.05,-500.46 1132.53,-486.2"/>
<polygon fill="black" stroke="black" points="1135.91,-485.23 1130.66,-476.03 1129.03,-486.49 1135.91,-485.23"/>
</g>
<!-- roo_control -->
<g id="node5" class="node">
<title>roo_control</title>
<polygon fill="#b1dbab" stroke="black" points="928.5,-476 831.5,-476 831.5,-438 928.5,-438 928.5,-476"/>
<text text-anchor="middle" x="880" y="-460.8" font-family="Times,serif" font-size="14.00">roo_control</text>
<text text-anchor="middle" x="880" y="-445.8" font-family="Times,serif" font-size="14.00">1.2.3</text>
</g>
<!-- roo_comms&#45;&gt;roo_control -->
<g id="edge5" class="edge">
<title>roo_comms&#45;&gt;roo_control</title>
<path fill="none" stroke="black" d="M1085.33,-615.13C1055.08,-606.3 1016.32,-592.25 986,-572 950.26,-548.13 918.02,-509.93 898.72,-484.41"/>
<polygon fill="black" stroke="black" points="901.46,-482.22 892.69,-476.28 895.84,-486.39 901.46,-482.22"/>
</g>
<!-- roo_io -->
<g id="node10" class="node">
<title>roo_io</title>
<polygon fill="#b1dbab" stroke="black" points="1040.5,-380 981.5,-380 981.5,-342 1040.5,-342 1040.5,-380"/>
<text text-anchor="middle" x="1011" y="-364.8" font-family="Times,serif" font-size="14.00">roo_io</text>
<text text-anchor="middle" x="1011" y="-349.8" font-family="Times,serif" font-size="14.00">2.1.1</text>
</g>
<!-- roo_comms&#45;&gt;roo_io -->
<g id="edge6" class="edge">
<title>roo_comms&#45;&gt;roo_io</title>
<path fill="none" stroke="black" d="M1146.61,-608.74C1169.56,-573.04 1212.61,-492.71 1177,-438 1161.06,-413.51 1088.2,-396.68 1050.06,-381.48"/>
<polygon fill="black" stroke="black" points="1051.3,-378.2 1040.73,-377.44 1048.51,-384.62 1051.3,-378.2"/>
</g>
<!-- roo_transceivers -->
<g id="node21" class="node">
<title>roo_transceivers</title>
<polygon fill="#b1dbab" stroke="black" points="1129.5,-572 994.5,-572 994.5,-534 1129.5,-534 1129.5,-572"/>
<text text-anchor="middle" x="1062" y="-556.8" font-family="Times,serif" font-size="14.00">roo_transceivers</text>
<text text-anchor="middle" x="1062" y="-541.8" font-family="Times,serif" font-size="14.00">1.1.4</text>
</g>
<!-- roo_comms&#45;&gt;roo_transceivers -->
<g id="edge7" class="edge">
<title>roo_comms&#45;&gt;roo_transceivers</title>
<path fill="none" stroke="black" d="M1116.2,-608.96C1107.38,-600.01 1096.57,-589.05 1086.93,-579.28"/>
<polygon fill="black" stroke="black" points="1089.36,-576.75 1079.84,-572.09 1084.37,-581.67 1089.36,-576.75"/>
</g>
<!-- roo_quantity -->
<g id="node15" class="node">
<title>roo_quantity</title>
<polygon fill="#b1dbab" stroke="black" points="776.5,-380 669.5,-380 669.5,-342 776.5,-342 776.5,-380"/>
<text text-anchor="middle" x="723" y="-364.8" font-family="Times,serif" font-size="14.00">roo_quantity</text>
<text text-anchor="middle" x="723" y="-349.8" font-family="Times,serif" font-size="14.00">1.1.5</text>
</g>
<!-- roo_control&#45;&gt;roo_quantity -->
<g id="edge8" class="edge">
<title>roo_control&#45;&gt;roo_quantity</title>
<path fill="none" stroke="black" d="M849.73,-437.88C824.75,-422.92 789.14,-401.6 762.02,-385.36"/>
<polygon fill="black" stroke="black" points="763.56,-382.2 753.18,-380.07 759.96,-388.21 763.56,-382.2"/>
</g>
<!-- roo_control&#45;&gt;roo_scheduler -->
<g id="edge9" class="edge">
<title>roo_control&#45;&gt;roo_scheduler</title>
<path fill="none" stroke="black" d="M854.89,-437.82C849.66,-432.7 844.87,-426.68 842,-420 837.94,-410.57 838.75,-399.63 841.23,-389.82"/>
<polygon fill="black" stroke="black" points="844.62,-390.69 844.29,-380.1 837.94,-388.59 844.62,-390.69"/>
</g>
<!-- roo_dashboard -->
<g id="node6" class="node">
<title>roo_dashboard</title>
<polygon fill="plum" stroke="black" points="122,-722 0,-722 0,-684 122,-684 122,-722"/>
<text text-anchor="middle" x="61" y="-706.8" font-family="Times,serif" font-size="14.00">roo_dashboard</text>
<text text-anchor="middle" x="61" y="-691.8" font-family="Times,serif" font-size="14.00">1.0.1</text>
</g>
<!-- roo_testing -->
<g id="node17" class="node">
<title>roo_testing</title>
<polygon fill="#b1dbab" stroke="black" points="322.5,-38 225.5,-38 225.5,0 322.5,0 322.5,-38"/>
<text text-anchor="middle" x="274" y="-22.8" font-family="Times,serif" font-size="14.00">roo_testing</text>
<text text-anchor="middle" x="274" y="-7.8" font-family="Times,serif" font-size="14.00">1.2.0</text>
</g>
<!-- roo_dashboard&#45;&gt;roo_testing -->
<g id="edge10" class="edge">
<title>roo_dashboard&#45;&gt;roo_testing</title>
<path fill="none" stroke="red" d="M52.31,-683.85C46.16,-669.35 39,-648.33 39,-629 39,-629 39,-629 39,-93 39,-56.15 145.72,-35.81 215.32,-26.47"/>
<polygon fill="red" stroke="red" points="215.84,-29.93 225.31,-25.17 214.94,-22.99 215.84,-29.93"/>
<text text-anchor="middle" x="72" y="-364" font-family="Times,serif" font-size="10.00" fill="red">1.1.7</text>
<text text-anchor="middle" x="72" y="-353" font-family="Times,serif" font-size="10.00" fill="red">(latest: 1.2.0)</text>
</g>
<!-- roo_windows -->
<g id="node24" class="node">
<title>roo_windows</title>
<polygon fill="plum" stroke="black" points="543.5,-647 434.5,-647 434.5,-609 543.5,-609 543.5,-647"/>
<text text-anchor="middle" x="489" y="-631.8" font-family="Times,serif" font-size="14.00">roo_windows</text>
<text text-anchor="middle" x="489" y="-616.8" font-family="Times,serif" font-size="14.00">1.4.1</text>
</g>
<!-- roo_dashboard&#45;&gt;roo_windows -->
<g id="edge11" class="edge">
<title>roo_dashboard&#45;&gt;roo_windows</title>
<path fill="none" stroke="black" d="M122.32,-691.54C202.53,-677.86 342.46,-653.99 424.31,-640.03"/>
<polygon fill="black" stroke="black" points="424.97,-643.47 434.24,-638.34 423.79,-636.57 424.97,-643.47"/>
</g>
<!-- roo_display -->
<g id="node7" class="node">
<title>roo_display</title>
<polygon fill="plum" stroke="black" points="366,-476 268,-476 268,-438 366,-438 366,-476"/>
<text text-anchor="middle" x="317" y="-460.8" font-family="Times,serif" font-size="14.00">roo_display</text>
<text text-anchor="middle" x="317" y="-445.8" font-family="Times,serif" font-size="14.00">2.3.1</text>
</g>
<!-- roo_display&#45;&gt;roo_backport -->
<g id="edge13" class="edge">
<title>roo_display&#45;&gt;roo_backport</title>
<path fill="none" stroke="red" d="M313.02,-437.69C307.44,-407.53 300.34,-346.31 323,-302 328.91,-290.44 336.3,-292.63 346,-284 378.37,-255.21 413.08,-219.36 435.37,-195.63"/>
<polygon fill="red" stroke="red" points="438.16,-197.77 442.43,-188.08 433.04,-192.99 438.16,-197.77"/>
<text text-anchor="middle" x="356" y="-316" font-family="Times,serif" font-size="10.00" fill="red">1.1.1</text>
<text text-anchor="middle" x="356" y="-305" font-family="Times,serif" font-size="10.00" fill="red">(latest: 1.2.0)</text>
</g>
<!-- roo_display&#45;&gt;roo_collections -->
<g id="edge14" class="edge">
<title>roo_display&#45;&gt;roo_collections</title>
<path fill="none" stroke="red" d="M324.24,-437.91C334.12,-414.45 353.33,-372.89 377,-342 391.61,-322.93 411.26,-304.54 427.66,-290.63"/>
<polygon fill="red" stroke="red" points="429.96,-293.26 435.41,-284.17 425.49,-287.88 429.96,-293.26"/>
<text text-anchor="middle" x="410" y="-364" font-family="Times,serif" font-size="10.00" fill="red">1.3.2</text>
<text text-anchor="middle" x="410" y="-353" font-family="Times,serif" font-size="10.00" fill="red">(latest: 1.4.0)</text>
</g>
<!-- roo_display&#45;&gt;roo_io -->
<g id="edge15" class="edge">
<title>roo_display&#45;&gt;roo_io</title>
<path fill="none" stroke="red" d="M366.12,-447.3C384.55,-444.17 405.71,-440.74 425,-438 644.31,-406.89 701.18,-414.41 920,-380 936.84,-377.35 955.3,-373.82 971.17,-370.58"/>
<polygon fill="red" stroke="red" points="972.1,-373.96 981.19,-368.51 970.68,-367.11 972.1,-373.96"/>
<text text-anchor="middle" x="818" y="-412" font-family="Times,serif" font-size="10.00" fill="red">2.0.2</text>
<text text-anchor="middle" x="818" y="-401" font-family="Times,serif" font-size="10.00" fill="red">(latest: 2.1.1)</text>
</g>
<!-- roo_display&#45;&gt;roo_testing -->
<g id="edge12" class="edge">
<title>roo_display&#45;&gt;roo_testing</title>
<path fill="none" stroke="red" d="M309.82,-437.96C307.89,-432.3 306.05,-425.97 305,-420 301.93,-402.48 304.22,-397.78 304,-380 303.79,-363.11 303.42,-358.88 304,-342 304.89,-316.18 307.11,-309.82 308,-284 308.58,-267.12 309.26,-262.84 308,-246 302.63,-174.14 287.77,-90.5 279.58,-47.96"/>
<polygon fill="red" stroke="red" points="283,-47.21 277.66,-38.06 276.13,-48.54 283,-47.21"/>
<text text-anchor="middle" x="340" y="-220" font-family="Times,serif" font-size="10.00" fill="red">1.1.7</text>
<text text-anchor="middle" x="340" y="-209" font-family="Times,serif" font-size="10.00" fill="red">(latest: 1.2.0)</text>
</g>
<!-- roo_flags -->
<g id="node8" class="node">
<title>roo_flags</title>
<polygon fill="#b1dbab" stroke="black" points="911,-188 831,-188 831,-150 911,-150 911,-188"/>
<text text-anchor="middle" x="871" y="-172.8" font-family="Times,serif" font-size="14.00">roo_flags</text>
<text text-anchor="middle" x="871" y="-157.8" font-family="Times,serif" font-size="14.00">1.2.0</text>
</g>
<!-- roo_icons -->
<g id="node9" class="node">
<title>roo_icons</title>
<polygon fill="plum" stroke="black" points="254.5,-572 171.5,-572 171.5,-534 254.5,-534 254.5,-572"/>
<text text-anchor="middle" x="213" y="-556.8" font-family="Times,serif" font-size="14.00">roo_icons</text>
<text text-anchor="middle" x="213" y="-541.8" font-family="Times,serif" font-size="14.00">1.2.1</text>
</g>
<!-- roo_icons&#45;&gt;roo_display -->
<g id="edge17" class="edge">
<title>roo_icons&#45;&gt;roo_display</title>
<path fill="none" stroke="black" d="M233.05,-533.88C249.02,-519.44 271.56,-499.07 289.26,-483.07"/>
<polygon fill="black" stroke="black" points="291.94,-485.37 297.01,-476.07 287.24,-480.18 291.94,-485.37"/>
</g>
<!-- roo_icons&#45;&gt;roo_testing -->
<g id="edge16" class="edge">
<title>roo_icons&#45;&gt;roo_testing</title>
<path fill="none" stroke="red" d="M209.91,-533.87C202.62,-492.34 182.98,-387.31 157,-302 154.5,-293.79 152.45,-292.23 150,-284 141.43,-255.27 136,-247.99 136,-218 136,-218 136,-218 136,-93 136,-54.81 177.81,-36.54 215.4,-27.84"/>
<polygon fill="red" stroke="red" points="216.29,-31.23 225.35,-25.73 214.84,-24.38 216.29,-31.23"/>
<text text-anchor="middle" x="183" y="-268" font-family="Times,serif" font-size="10.00" fill="red">1.1.7</text>
<text text-anchor="middle" x="183" y="-257" font-family="Times,serif" font-size="10.00" fill="red">(latest: 1.2.0)</text>
</g>
<!-- roo_io&#45;&gt;roo_logging -->
<g id="edge18" class="edge">
<title>roo_io&#45;&gt;roo_logging</title>
<path fill="none" stroke="black" d="M1000.15,-341.94C992.11,-329.61 980.28,-313.5 967,-302 961.76,-297.46 955.85,-293.24 949.79,-289.41"/>
<polygon fill="black" stroke="black" points="951.24,-286.19 940.86,-284.07 947.65,-292.2 951.24,-286.19"/>
</g>
<!-- roo_locale -->
<g id="node11" class="node">
<title>roo_locale</title>
<polygon fill="#b1dbab" stroke="black" points="533,-572 445,-572 445,-534 533,-534 533,-572"/>
<text text-anchor="middle" x="489" y="-556.8" font-family="Times,serif" font-size="14.00">roo_locale</text>
<text text-anchor="middle" x="489" y="-541.8" font-family="Times,serif" font-size="14.00">1.1.1</text>
</g>
<!-- roo_logging&#45;&gt;roo_backport -->
<g id="edge19" class="edge">
<title>roo_logging&#45;&gt;roo_backport</title>
<path fill="none" stroke="black" d="M851.61,-253.31C771.04,-236.21 613.22,-202.72 524.17,-183.83"/>
<polygon fill="black" stroke="black" points="524.7,-180.36 514.19,-181.71 523.24,-187.21 524.7,-180.36"/>
</g>
<!-- roo_logging&#45;&gt;roo_flags -->
<g id="edge20" class="edge">
<title>roo_logging&#45;&gt;roo_flags</title>
<path fill="none" stroke="black" d="M896.02,-245.88C891.52,-232.22 885.27,-213.26 880.14,-197.71"/>
<polygon fill="black" stroke="black" points="883.41,-196.47 876.96,-188.07 876.77,-198.66 883.41,-196.47"/>
</g>
<!-- roo_threads -->
<g id="node18" class="node">
<title>roo_threads</title>
<polygon fill="#b1dbab" stroke="black" points="1030.5,-188 929.5,-188 929.5,-150 1030.5,-150 1030.5,-188"/>
<text text-anchor="middle" x="980" y="-172.8" font-family="Times,serif" font-size="14.00">roo_threads</text>
<text text-anchor="middle" x="980" y="-157.8" font-family="Times,serif" font-size="14.00">1.2.0</text>
</g>
<!-- roo_logging&#45;&gt;roo_threads -->
<g id="edge21" class="edge">
<title>roo_logging&#45;&gt;roo_threads</title>
<path fill="none" stroke="black" d="M917.04,-245.88C928.8,-231.7 945.31,-211.81 958.47,-195.94"/>
<polygon fill="black" stroke="black" points="961.31,-198 965.01,-188.07 955.93,-193.53 961.31,-198"/>
</g>
<!-- roo_onewire -->
<g id="node13" class="node">
<title>roo_onewire</title>
<polygon fill="#b1dbab" stroke="black" points="775,-476 671,-476 671,-438 775,-438 775,-476"/>
<text text-anchor="middle" x="723" y="-460.8" font-family="Times,serif" font-size="14.00">roo_onewire</text>
<text text-anchor="middle" x="723" y="-445.8" font-family="Times,serif" font-size="14.00">2.0.7</text>
</g>
<!-- roo_onewire&#45;&gt;roo_quantity -->
<g id="edge23" class="edge">
<title>roo_onewire&#45;&gt;roo_quantity</title>
<path fill="none" stroke="black" d="M723,-437.88C723,-424.35 723,-405.62 723,-390.15"/>
<polygon fill="black" stroke="black" points="726.5,-390.07 723,-380.07 719.5,-390.07 726.5,-390.07"/>
</g>
<!-- roo_onewire&#45;&gt;roo_scheduler -->
<g id="edge22" class="edge">
<title>roo_onewire&#45;&gt;roo_scheduler</title>
<path fill="none" stroke="black" d="M741.47,-437.89C754.25,-425.85 771.95,-410.09 789,-398 795.15,-393.64 801.87,-389.38 808.57,-385.39"/>
<polygon fill="black" stroke="black" points="810.74,-388.18 817.65,-380.15 807.24,-382.12 810.74,-388.18"/>
</g>
<!-- roo_prefs -->
<g id="node14" class="node">
<title>roo_prefs</title>
<polygon fill="#b1dbab" stroke="black" points="1029.5,-476 946.5,-476 946.5,-438 1029.5,-438 1029.5,-476"/>
<text text-anchor="middle" x="988" y="-460.8" font-family="Times,serif" font-size="14.00">roo_prefs</text>
<text text-anchor="middle" x="988" y="-445.8" font-family="Times,serif" font-size="14.00">1.2.7</text>
</g>
<!-- roo_prefs&#45;&gt;roo_logging -->
<g id="edge24" class="edge">
<title>roo_prefs&#45;&gt;roo_logging</title>
<path fill="none" stroke="black" d="M979.75,-437.78C964.6,-404.3 932.25,-332.82 914.42,-293.44"/>
<polygon fill="black" stroke="black" points="917.53,-291.83 910.22,-284.16 911.16,-294.72 917.53,-291.83"/>
</g>
<!-- roo_prefs&#45;&gt;roo_scheduler -->
<g id="edge25" class="edge">
<title>roo_prefs&#45;&gt;roo_scheduler</title>
<path fill="none" stroke="black" d="M946.36,-440.67C943.54,-439.73 940.73,-438.84 938,-438 906.87,-428.48 889.89,-443.15 867,-420 859.24,-412.15 855.52,-400.8 853.81,-390.21"/>
<polygon fill="black" stroke="black" points="857.27,-389.6 852.7,-380.04 850.31,-390.36 857.27,-389.6"/>
</g>
<!-- roo_quantity&#45;&gt;roo_logging -->
<g id="edge26" class="edge">
<title>roo_quantity&#45;&gt;roo_logging</title>
<path fill="none" stroke="black" d="M757.51,-341.88C786.36,-326.73 827.66,-305.04 858.72,-288.73"/>
<polygon fill="black" stroke="black" points="860.37,-291.82 867.59,-284.07 857.11,-285.62 860.37,-291.82"/>
</g>
<!-- roo_scheduler&#45;&gt;roo_collections -->
<g id="edge27" class="edge">
<title>roo_scheduler&#45;&gt;roo_collections</title>
<path fill="none" stroke="black" d="M794.93,-344.27C791.91,-343.49 788.92,-342.73 786,-342 698.07,-319.98 596.3,-296.67 529.95,-281.76"/>
<polygon fill="black" stroke="black" points="530.54,-278.3 520.02,-279.53 529.01,-285.13 530.54,-278.3"/>
</g>
<!-- roo_scheduler&#45;&gt;roo_threads -->
<g id="edge28" class="edge">
<title>roo_scheduler&#45;&gt;roo_threads</title>
<path fill="none" stroke="black" d="M892.86,-341.96C916.46,-329.17 944.83,-309.72 961,-284 977.28,-258.11 980.91,-222.63 981.18,-198.16"/>
<polygon fill="black" stroke="black" points="984.68,-198.06 981.11,-188.09 977.68,-198.11 984.68,-198.06"/>
</g>
<!-- roo_time -->
<g id="node19" class="node">
<title>roo_time</title>
<polygon fill="#b1dbab" stroke="black" points="636.5,-113 557.5,-113 557.5,-75 636.5,-75 636.5,-113"/>
<text text-anchor="middle" x="597" y="-97.8" font-family="Times,serif" font-size="14.00">roo_time</text>
<text text-anchor="middle" x="597" y="-82.8" font-family="Times,serif" font-size="14.00">1.4.0</text>
</g>
<!-- roo_threads&#45;&gt;roo_time -->
<g id="edge29" class="edge">
<title>roo_threads&#45;&gt;roo_time</title>
<path fill="none" stroke="black" d="M929.38,-152.34C926.22,-151.51 923.07,-150.72 920,-150 824.25,-127.58 710.52,-110.36 646.76,-101.54"/>
<polygon fill="black" stroke="black" points="646.97,-98.03 636.59,-100.14 646.02,-104.97 646.97,-98.03"/>
</g>
<!-- roo_time&#45;&gt;roo_testing -->
<g id="edge30" class="edge">
<title>roo_time&#45;&gt;roo_testing</title>
<path fill="none" stroke="black" d="M557.39,-84.05C501.19,-71.35 397.89,-48 332.74,-33.28"/>
<polygon fill="black" stroke="black" points="333.16,-29.78 322.63,-30.99 331.61,-36.61 333.16,-29.78"/>
</g>
<!-- roo_time_ds3231 -->
<g id="node20" class="node">
<title>roo_time_ds3231</title>
<polygon fill="#b1dbab" stroke="black" points="714,-188 576,-188 576,-150 714,-150 714,-188"/>
<text text-anchor="middle" x="645" y="-172.8" font-family="Times,serif" font-size="14.00">roo_time_ds3231</text>
<text text-anchor="middle" x="645" y="-157.8" font-family="Times,serif" font-size="14.00">1.1.4</text>
</g>
<!-- roo_time_ds3231&#45;&gt;roo_time -->
<g id="edge31" class="edge">
<title>roo_time_ds3231&#45;&gt;roo_time</title>
<path fill="none" stroke="black" d="M633.13,-149.96C627.54,-141.44 620.75,-131.12 614.57,-121.72"/>
<polygon fill="black" stroke="black" points="617.31,-119.52 608.9,-113.09 611.46,-123.37 617.31,-119.52"/>
</g>
<!-- roo_transceivers&#45;&gt;roo_prefs -->
<g id="edge32" class="edge">
<title>roo_transceivers&#45;&gt;roo_prefs</title>
<path fill="none" stroke="black" d="M1043.17,-533.9C1037.74,-528.35 1031.94,-522.09 1027,-516 1019.02,-506.16 1011.06,-494.7 1004.43,-484.58"/>
<polygon fill="black" stroke="black" points="1007.33,-482.62 998.98,-476.1 1001.45,-486.4 1007.33,-482.62"/>
</g>
<!-- roo_transport -->
<g id="node22" class="node">
<title>roo_transport</title>
<polygon fill="plum" stroke="black" points="1343,-476 1229,-476 1229,-438 1343,-438 1343,-476"/>
<text text-anchor="middle" x="1286" y="-460.8" font-family="Times,serif" font-size="14.00">roo_transport</text>
<text text-anchor="middle" x="1286" y="-445.8" font-family="Times,serif" font-size="14.00">1.0.2</text>
</g>
<!-- roo_transport&#45;&gt;roo_collections -->
<g id="edge34" class="edge">
<title>roo_transport&#45;&gt;roo_collections</title>
<path fill="none" stroke="red" d="M1278.8,-437.96C1272.49,-424.63 1261.97,-407.25 1247,-398 1193.63,-365.03 1165.76,-401.98 1107,-380 1078.48,-369.33 1078.52,-352.67 1050,-342 956.16,-306.9 665.96,-281.4 530.29,-271.08"/>
<polygon fill="red" stroke="red" points="530.24,-267.56 520,-270.3 529.71,-274.54 530.24,-267.56"/>
<text text-anchor="middle" x="1140" y="-364" font-family="Times,serif" font-size="10.00" fill="red">1.3.2</text>
<text text-anchor="middle" x="1140" y="-353" font-family="Times,serif" font-size="10.00" fill="red">(latest: 1.4.0)</text>
</g>
<!-- roo_transport&#45;&gt;roo_io -->
<g id="edge35" class="edge">
<title>roo_transport&#45;&gt;roo_io</title>
<path fill="none" stroke="red" d="M1228.95,-441.41C1212.81,-435.98 1195.65,-428.92 1181,-420 1168.92,-412.65 1170.62,-404.38 1158,-398 1116.53,-377.03 1099.65,-392.87 1055,-380 1053.36,-379.53 1051.71,-379.02 1050.04,-378.47"/>
<polygon fill="red" stroke="red" points="1051.11,-375.14 1040.51,-375.09 1048.76,-381.73 1051.11,-375.14"/>
<text text-anchor="middle" x="1214" y="-412" font-family="Times,serif" font-size="10.00" fill="red">2.0.3</text>
<text text-anchor="middle" x="1214" y="-401" font-family="Times,serif" font-size="10.00" fill="red">(latest: 2.1.1)</text>
</g>
<!-- roo_transport&#45;&gt;roo_logging -->
<g id="edge36" class="edge">
<title>roo_transport&#45;&gt;roo_logging</title>
<path fill="none" stroke="red" d="M1285.72,-437.92C1284.62,-425.42 1281.31,-409.12 1272,-398 1259.23,-382.74 1248.51,-389.45 1231,-380 1175.03,-349.78 1170.22,-325.21 1111,-302 1062.92,-283.16 1004.79,-274.16 962.05,-269.87"/>
<polygon fill="red" stroke="red" points="962.37,-266.38 952.08,-268.92 961.71,-273.35 962.37,-266.38"/>
<text text-anchor="middle" x="1264" y="-364" font-family="Times,serif" font-size="10.00" fill="red">1.4.3</text>
<text text-anchor="middle" x="1264" y="-353" font-family="Times,serif" font-size="10.00" fill="red">(latest: 1.5.1)</text>
</g>
<!-- roo_transport&#45;&gt;roo_testing -->
<g id="edge33" class="edge">
<title>roo_transport&#45;&gt;roo_testing</title>
<path fill="none" stroke="red" d="M1307.68,-437.87C1325.9,-420.49 1349,-392.45 1349,-362 1349,-362 1349,-362 1349,-93 1349,-41.64 557.69,-24.68 332.9,-20.89"/>
<polygon fill="red" stroke="red" points="332.69,-17.39 322.63,-20.72 332.57,-24.39 332.69,-17.39"/>
<text text-anchor="middle" x="1382" y="-220" font-family="Times,serif" font-size="10.00" fill="red">1.1.8</text>
<text text-anchor="middle" x="1382" y="-209" font-family="Times,serif" font-size="10.00" fill="red">(latest: 1.2.0)</text>
</g>
<!-- roo_transport&#45;&gt;roo_threads -->
<g id="edge37" class="edge">
<title>roo_transport&#45;&gt;roo_threads</title>
<path fill="none" stroke="red" d="M1293.95,-437.96C1303.12,-414.19 1314.8,-371.9 1297,-342 1293.08,-335.41 1109.15,-237.98 1023.29,-192.76"/>
<polygon fill="red" stroke="red" points="1024.79,-189.59 1014.31,-188.03 1021.53,-195.78 1024.79,-189.59"/>
<text text-anchor="middle" x="1299" y="-316" font-family="Times,serif" font-size="10.00" fill="red">1.1.6</text>
<text text-anchor="middle" x="1299" y="-305" font-family="Times,serif" font-size="10.00" fill="red">(latest: 1.2.0)</text>
</g>
<!-- roo_wifi -->
<g id="node23" class="node">
<title>roo_wifi</title>
<polygon fill="plum" stroke="black" points="378,-572 306,-572 306,-534 378,-534 378,-572"/>
<text text-anchor="middle" x="342" y="-556.8" font-family="Times,serif" font-size="14.00">roo_wifi</text>
<text text-anchor="middle" x="342" y="-541.8" font-family="Times,serif" font-size="14.00">1.1.2</text>
</g>
<!-- roo_wifi&#45;&gt;roo_collections -->
<g id="edge39" class="edge">
<title>roo_wifi&#45;&gt;roo_collections</title>
<path fill="none" stroke="red" d="M349.97,-533.81C367.6,-493.64 408.52,-400.71 411,-398 422,-385.95 433.8,-393.48 443,-380 460.18,-354.84 462.57,-319.22 461.7,-294.52"/>
<polygon fill="red" stroke="red" points="465.18,-294.13 461.13,-284.34 458.19,-294.52 465.18,-294.13"/>
<text text-anchor="middle" x="444" y="-412" font-family="Times,serif" font-size="10.00" fill="red">1.3.2</text>
<text text-anchor="middle" x="444" y="-401" font-family="Times,serif" font-size="10.00" fill="red">(latest: 1.4.0)</text>
</g>
<!-- roo_wifi&#45;&gt;roo_prefs -->
<g id="edge40" class="edge">
<title>roo_wifi&#45;&gt;roo_prefs</title>
<path fill="none" stroke="red" d="M378.09,-544.68C395.54,-541.24 416.83,-537.21 436,-534 559.55,-513.33 590.51,-507.93 715,-494 810.63,-483.3 839,-496.14 936.27,-476.07"/>
<polygon fill="red" stroke="red" points="937.17,-479.45 946.22,-473.95 935.71,-472.61 937.17,-479.45"/>
<text text-anchor="middle" x="748" y="-508" font-family="Times,serif" font-size="10.00" fill="red">1.2.3</text>
<text text-anchor="middle" x="748" y="-497" font-family="Times,serif" font-size="10.00" fill="red">(latest: 1.2.7)</text>
</g>
<!-- roo_wifi&#45;&gt;roo_testing -->
<g id="edge38" class="edge">
<title>roo_wifi&#45;&gt;roo_testing</title>
<path fill="none" stroke="red" d="M305.92,-537.12C275.88,-522.05 238,-495.6 238,-458 238,-458 238,-458 238,-93 238,-76.47 245.52,-59.8 253.69,-46.57"/>
<polygon fill="red" stroke="red" points="256.75,-48.28 259.36,-38.01 250.92,-44.41 256.75,-48.28"/>
<text text-anchor="middle" x="271" y="-268" font-family="Times,serif" font-size="10.00" fill="red">1.1.8</text>
<text text-anchor="middle" x="271" y="-257" font-family="Times,serif" font-size="10.00" fill="red">(latest: 1.2.0)</text>
</g>
<!-- roo_windows&#45;&gt;roo_collections -->
<g id="edge42" class="edge">
<title>roo_windows&#45;&gt;roo_collections</title>
<path fill="none" stroke="red" d="M464.5,-608.93C453.57,-599.33 441.85,-586.51 436,-572 429.68,-556.34 433.85,-550.75 436,-534 441.6,-490.27 440.22,-476.89 461,-438 466.04,-428.56 473.2,-430 477,-420 480.47,-410.86 477.05,-407.78 477,-398 476.78,-355.33 485.55,-343.59 476,-302 475.35,-299.16 474.45,-296.28 473.4,-293.44"/>
<polygon fill="red" stroke="red" points="476.57,-291.95 469.42,-284.13 470.13,-294.7 476.57,-291.95"/>
<text text-anchor="middle" x="494" y="-460" font-family="Times,serif" font-size="10.00" fill="red">1.3.2</text>
<text text-anchor="middle" x="494" y="-449" font-family="Times,serif" font-size="10.00" fill="red">(latest: 1.4.0)</text>
</g>
<!-- roo_windows&#45;&gt;roo_icons -->
<g id="edge45" class="edge">
<title>roo_windows&#45;&gt;roo_icons</title>
<path fill="none" stroke="black" d="M434.47,-612.58C385.19,-599.54 313.16,-580.49 264.76,-567.69"/>
<polygon fill="black" stroke="black" points="265.37,-564.23 254.81,-565.06 263.58,-571 265.37,-564.23"/>
</g>
<!-- roo_windows&#45;&gt;roo_io -->
<g id="edge46" class="edge">
<title>roo_windows&#45;&gt;roo_io</title>
<path fill="none" stroke="red" d="M543.76,-620.53C670.97,-604.25 980.07,-556.96 1039,-476 1057.61,-450.43 1043.37,-413.97 1029.27,-389.22"/>
<polygon fill="red" stroke="red" points="1032.09,-387.12 1023.94,-380.36 1026.09,-390.73 1032.09,-387.12"/>
<text text-anchor="middle" x="1053" y="-508" font-family="Times,serif" font-size="10.00" fill="red">2.0.2</text>
<text text-anchor="middle" x="1053" y="-497" font-family="Times,serif" font-size="10.00" fill="red">(latest: 2.1.1)</text>
</g>
<!-- roo_windows&#45;&gt;roo_locale -->
<g id="edge43" class="edge">
<title>roo_windows&#45;&gt;roo_locale</title>
<path fill="none" stroke="black" d="M489,-608.96C489,-600.88 489,-591.18 489,-582.18"/>
<polygon fill="black" stroke="black" points="492.5,-582.09 489,-572.09 485.5,-582.09 492.5,-582.09"/>
</g>
<!-- roo_windows&#45;&gt;roo_logging -->
<g id="edge44" class="edge">
<title>roo_windows&#45;&gt;roo_logging</title>
<path fill="none" stroke="red" d="M542.84,-608.88C553.98,-603.94 565.27,-597.99 575,-591 611.07,-565.1 625.32,-557.54 641,-516 644.45,-506.85 646.48,-502.1 641,-494 628.92,-476.16 608.08,-493.84 596,-476 586.53,-462.01 591.05,-454.15 596,-438 611.11,-388.74 619.69,-372.79 661,-342 714.59,-302.06 789.74,-282.74 841.82,-273.64"/>
<polygon fill="red" stroke="red" points="842.63,-277.06 851.91,-271.96 841.47,-270.15 842.63,-277.06"/>
<text text-anchor="middle" x="629" y="-460" font-family="Times,serif" font-size="10.00" fill="red">1.4.2</text>
<text text-anchor="middle" x="629" y="-449" font-family="Times,serif" font-size="10.00" fill="red">(latest: 1.5.1)</text>
</g>
<!-- roo_windows&#45;&gt;roo_scheduler -->
<g id="edge47" class="edge">
<title>roo_windows&#45;&gt;roo_scheduler</title>
<path fill="none" stroke="red" d="M543.76,-624.33C580.95,-620.59 630.22,-611.75 669,-591 732.73,-556.89 739.41,-532.89 784,-476 805.8,-448.19 826.15,-412.99 839.01,-389.11"/>
<polygon fill="red" stroke="red" points="842.12,-390.72 843.73,-380.25 835.94,-387.43 842.12,-390.72"/>
<text text-anchor="middle" x="802" y="-508" font-family="Times,serif" font-size="10.00" fill="red">2.1.4</text>
<text text-anchor="middle" x="802" y="-497" font-family="Times,serif" font-size="10.00" fill="red">(latest: 2.1.6)</text>
</g>
<!-- roo_windows&#45;&gt;roo_testing -->
<g id="edge41" class="edge">
<title>roo_windows&#45;&gt;roo_testing</title>
<path fill="none" stroke="red" d="M434.48,-610.26C432.64,-609.81 430.81,-609.39 429,-609 363.63,-594.75 133,-620.9 133,-554 133,-554 133,-554 133,-408 133,-376.79 127.06,-367.46 109,-342 101.69,-331.7 92.41,-335.42 87,-324 84.07,-317.82 90,-272.63 90,-266 90,-266 90,-266 90,-93 90,-38.28 161.19,-23.39 215.01,-19.95"/>
<polygon fill="red" stroke="red" points="215.37,-23.43 225.17,-19.42 215.01,-16.44 215.37,-23.43"/>
<text text-anchor="middle" x="120" y="-316" font-family="Times,serif" font-size="10.00" fill="red">1.1.7</text>
<text text-anchor="middle" x="120" y="-305" font-family="Times,serif" font-size="10.00" fill="red">(latest: 1.2.0)</text>
</g>
<!-- roo_windows&#45;&gt;roo_time -->
<g id="edge48" class="edge">
<title>roo_windows&#45;&gt;roo_time</title>
<path fill="none" stroke="red" d="M513.22,-608.82C524.09,-599.19 535.83,-586.38 542,-572 562.17,-524.98 548.9,-393.07 552,-342 557.19,-256.56 542.63,-232.05 567,-150 569.82,-140.51 574.43,-130.81 579.2,-122.25"/>
<polygon fill="red" stroke="red" points="582.31,-123.87 584.36,-113.48 576.27,-120.32 582.31,-123.87"/>
<text text-anchor="middle" x="585" y="-364" font-family="Times,serif" font-size="10.00" fill="red">1.3.2</text>
<text text-anchor="middle" x="585" y="-353" font-family="Times,serif" font-size="10.00" fill="red">(latest: 1.4.0)</text>
</g>
<!-- roo_windows_wifi -->
<g id="node25" class="node">
<title>roo_windows_wifi</title>
<polygon fill="plum" stroke="black" points="559.5,-722 418.5,-722 418.5,-684 559.5,-684 559.5,-722"/>
<text text-anchor="middle" x="489" y="-706.8" font-family="Times,serif" font-size="14.00">roo_windows_wifi</text>
<text text-anchor="middle" x="489" y="-691.8" font-family="Times,serif" font-size="14.00">1.1.2</text>
</g>
<!-- roo_windows_wifi&#45;&gt;roo_testing -->
<g id="edge49" class="edge">
<title>roo_windows_wifi&#45;&gt;roo_testing</title>
<path fill="none" stroke="red" d="M559.73,-700.21C778.57,-694.19 1430,-672.63 1430,-629 1430,-629 1430,-629 1430,-93 1430,-37.43 567.8,-23.4 332.63,-20.6"/>
<polygon fill="red" stroke="red" points="332.61,-17.1 322.57,-20.48 332.52,-24.1 332.61,-17.1"/>
<text text-anchor="middle" x="1463" y="-364" font-family="Times,serif" font-size="10.00" fill="red">1.1.7</text>
<text text-anchor="middle" x="1463" y="-353" font-family="Times,serif" font-size="10.00" fill="red">(latest: 1.2.0)</text>
</g>
<!-- roo_windows_wifi&#45;&gt;roo_wifi -->
<g id="edge50" class="edge">
<title>roo_windows_wifi&#45;&gt;roo_wifi</title>
<path fill="none" stroke="red" d="M418.39,-686.3C396.36,-678.06 373.94,-665.64 359,-647 344.47,-628.87 340.81,-602.35 340.44,-582.27"/>
<polygon fill="red" stroke="red" points="343.94,-582.18 340.52,-572.15 336.94,-582.12 343.94,-582.18"/>
<text text-anchor="middle" x="392" y="-631" font-family="Times,serif" font-size="10.00" fill="red">1.1.1</text>
<text text-anchor="middle" x="392" y="-620" font-family="Times,serif" font-size="10.00" fill="red">(latest: 1.1.2)</text>
</g>
<!-- roo_windows_wifi&#45;&gt;roo_windows -->
<g id="edge51" class="edge">
<title>roo_windows_wifi&#45;&gt;roo_windows</title>
<path fill="none" stroke="black" d="M489,-683.96C489,-675.88 489,-666.18 489,-657.18"/>
<polygon fill="black" stroke="black" points="492.5,-657.09 489,-647.09 485.5,-657.09 492.5,-657.09"/>
</g>
</g>
</svg>
