<?xml version="1.0" encoding="UTF-8" standalone="no"?>
<!DOCTYPE svg PUBLIC "-//W3C//DTD SVG 1.1//EN"
 "http://www.w3.org/Graphics/SVG/1.1/DTD/svg11.dtd">
<!-- Generated by graphviz version 2.42.4 (0)
 -->
<!-- Title: dependencies Pages: 1 -->
<svg width="1953pt" height="709pt"
 viewBox="0.00 0.00 1953.00 709.00" xmlns="http://www.w3.org/2000/svg" xmlns:xlink="http://www.w3.org/1999/xlink">
<g id="graph0" class="graph" transform="scale(1 1) rotate(0) translate(4 705)">
<title>dependencies</title>
<polygon fill="white" stroke="transparent" points="-4,4 -4,-705 1949,-705 1949,4 -4,4"/>
<!-- roo_backport -->
<g id="node1" class="node">
<title>roo_backport</title>
<polygon fill="#b1dbab" stroke="black" points="1487.5,-113 1398.5,-113 1398.5,-75 1487.5,-75 1487.5,-113"/>
<text text-anchor="middle" x="1443" y="-97.8" font-family="Times,serif" font-size="14.00">roo_backport</text>
<text text-anchor="middle" x="1443" y="-82.8" font-family="Times,serif" font-size="14.00">1.1.1</text>
</g>
<!-- roo_blink -->
<g id="node2" class="node">
<title>roo_blink</title>
<polygon fill="plum" stroke="black" points="473.5,-401 404.5,-401 404.5,-363 473.5,-363 473.5,-401"/>
<text text-anchor="middle" x="439" y="-385.8" font-family="Times,serif" font-size="14.00">roo_blink</text>
<text text-anchor="middle" x="439" y="-370.8" font-family="Times,serif" font-size="14.00">1.0.1</text>
</g>
<!-- roo_logging -->
<g id="node13" class="node">
<title>roo_logging</title>
<polygon fill="plum" stroke="black" points="834.5,-305 751.5,-305 751.5,-267 834.5,-267 834.5,-305"/>
<text text-anchor="middle" x="793" y="-289.8" font-family="Times,serif" font-size="14.00">roo_logging</text>
<text text-anchor="middle" x="793" y="-274.8" font-family="Times,serif" font-size="14.00">1.4.2</text>
</g>
<!-- roo_blink&#45;&gt;roo_logging -->
<g id="edge2" class="edge">
<title>roo_blink&#45;&gt;roo_logging</title>
<path fill="none" stroke="black" d="M473.53,-373.64C505.24,-366.73 553.45,-355.87 595,-345 645.16,-331.88 701.89,-315.05 741.73,-302.91"/>
<polygon fill="black" stroke="black" points="742.94,-306.2 751.48,-299.93 740.89,-299.5 742.94,-306.2"/>
</g>
<!-- roo_scheduler -->
<g id="node19" class="node">
<title>roo_scheduler</title>
<polygon fill="plum" stroke="black" points="722.5,-305 629.5,-305 629.5,-267 722.5,-267 722.5,-305"/>
<text text-anchor="middle" x="676" y="-289.8" font-family="Times,serif" font-size="14.00">roo_scheduler</text>
<text text-anchor="middle" x="676" y="-274.8" font-family="Times,serif" font-size="14.00">2.1.4</text>
</g>
<!-- roo_blink&#45;&gt;roo_scheduler -->
<g id="edge3" class="edge">
<title>roo_blink&#45;&gt;roo_scheduler</title>
<path fill="none" stroke="black" d="M473.57,-372C497.35,-365.44 529.49,-355.82 557,-345 583.03,-334.76 611.22,-321.14 633.62,-309.68"/>
<polygon fill="black" stroke="black" points="635.25,-312.77 642.53,-305.07 632.03,-306.55 635.25,-312.77"/>
</g>
<!-- roo_testing -->
<g id="node20" class="node">
<title>roo_testing</title>
<polygon fill="#b1dbab" stroke="black" points="1125.5,-38 1048.5,-38 1048.5,0 1125.5,0 1125.5,-38"/>
<text text-anchor="middle" x="1087" y="-22.8" font-family="Times,serif" font-size="14.00">roo_testing</text>
<text text-anchor="middle" x="1087" y="-7.8" font-family="Times,serif" font-size="14.00">1.1.8</text>
</g>
<!-- roo_blink&#45;&gt;roo_testing -->
<g id="edge1" class="edge">
<title>roo_blink&#45;&gt;roo_testing</title>
<path fill="none" stroke="red" d="M435.36,-362.76C434.39,-357.09 433.48,-350.81 433,-345 430.14,-310.45 429.58,-301.5 433,-267 443.08,-165.19 472.67,-128.31 560,-75 639.47,-26.49 922.78,-20.31 1037.87,-19.84"/>
<polygon fill="red" stroke="red" points="1038.15,-23.34 1048.14,-19.82 1038.13,-16.34 1038.15,-23.34"/>
<text text-anchor="middle" x="484" y="-193" font-family="Times,serif" font-size="10.00" fill="red">1.1.7</text>
<text text-anchor="middle" x="484" y="-182" font-family="Times,serif" font-size="10.00" fill="red">(latest: 1.1.8)</text>
</g>
<!-- roo_time -->
<g id="node22" class="node">
<title>roo_time</title>
<polygon fill="khaki" stroke="black" points="683,-113 617,-113 617,-75 683,-75 683,-113"/>
<text text-anchor="middle" x="650" y="-97.8" font-family="Times,serif" font-size="14.00">roo_time</text>
<text text-anchor="middle" x="650" y="-82.8" font-family="Times,serif" font-size="14.00">1.3.3</text>
</g>
<!-- roo_blink&#45;&gt;roo_time -->
<g id="edge4" class="edge">
<title>roo_blink&#45;&gt;roo_time</title>
<path fill="none" stroke="red" d="M437.37,-362.9C434.21,-315.48 433.2,-187.4 507,-131 535.69,-109.07 576.18,-100.38 606.75,-96.99"/>
<polygon fill="red" stroke="red" points="607.09,-100.48 616.71,-96.04 606.42,-93.51 607.09,-100.48"/>
<text text-anchor="middle" x="476" y="-241" font-family="Times,serif" font-size="10.00" fill="red">1.3.2</text>
<text text-anchor="middle" x="476" y="-230" font-family="Times,serif" font-size="10.00" fill="red">(latest: 1.3.3)</text>
</g>
<!-- roo_collections -->
<g id="node3" class="node">
<title>roo_collections</title>
<polygon fill="#b1dbab" stroke="black" points="1551,-209 1451,-209 1451,-171 1551,-171 1551,-209"/>
<text text-anchor="middle" x="1501" y="-193.8" font-family="Times,serif" font-size="14.00">roo_collections</text>
<text text-anchor="middle" x="1501" y="-178.8" font-family="Times,serif" font-size="14.00">1.3.2</text>
</g>
<!-- roo_collections&#45;&gt;roo_backport -->
<g id="edge5" class="edge">
<title>roo_collections&#45;&gt;roo_backport</title>
<path fill="none" stroke="black" d="M1489.82,-170.88C1481.23,-156.96 1469.24,-137.53 1459.55,-121.82"/>
<polygon fill="black" stroke="black" points="1462.38,-119.74 1454.15,-113.07 1456.42,-123.42 1462.38,-119.74"/>
</g>
<!-- roo_comms -->
<g id="node4" class="node">
<title>roo_comms</title>
<polygon fill="plum" stroke="black" points="502,-551 420,-551 420,-513 502,-513 502,-551"/>
<text text-anchor="middle" x="461" y="-535.8" font-family="Times,serif" font-size="14.00">roo_comms</text>
<text text-anchor="middle" x="461" y="-520.8" font-family="Times,serif" font-size="14.00">1.1.1</text>
</g>
<!-- roo_comms&#45;&gt;roo_blink -->
<g id="edge7" class="edge">
<title>roo_comms&#45;&gt;roo_blink</title>
<path fill="none" stroke="black" d="M458.3,-512.85C454.54,-487.55 447.69,-441.43 443.24,-411.52"/>
<polygon fill="black" stroke="black" points="446.65,-410.67 441.72,-401.3 439.73,-411.7 446.65,-410.67"/>
</g>
<!-- roo_control -->
<g id="node5" class="node">
<title>roo_control</title>
<polygon fill="plum" stroke="black" points="589,-476 509,-476 509,-438 589,-438 589,-476"/>
<text text-anchor="middle" x="549" y="-460.8" font-family="Times,serif" font-size="14.00">roo_control</text>
<text text-anchor="middle" x="549" y="-445.8" font-family="Times,serif" font-size="14.00">1.2.1</text>
</g>
<!-- roo_comms&#45;&gt;roo_control -->
<g id="edge8" class="edge">
<title>roo_comms&#45;&gt;roo_control</title>
<path fill="none" stroke="black" d="M482.75,-512.96C493.75,-503.83 507.27,-492.62 519.22,-482.7"/>
<polygon fill="black" stroke="black" points="521.73,-485.17 527.19,-476.09 517.26,-479.78 521.73,-485.17"/>
</g>
<!-- roo_io -->
<g id="node10" class="node">
<title>roo_io</title>
<polygon fill="plum" stroke="black" points="1379,-401 1325,-401 1325,-363 1379,-363 1379,-401"/>
<text text-anchor="middle" x="1352" y="-385.8" font-family="Times,serif" font-size="14.00">roo_io</text>
<text text-anchor="middle" x="1352" y="-370.8" font-family="Times,serif" font-size="14.00">2.0.2</text>
</g>
<!-- roo_comms&#45;&gt;roo_io -->
<g id="edge9" class="edge">
<title>roo_comms&#45;&gt;roo_io</title>
<path fill="none" stroke="black" d="M502.19,-524.16C652.61,-499.17 1170.97,-413.07 1314.76,-389.19"/>
<polygon fill="black" stroke="black" points="1315.54,-392.6 1324.84,-387.51 1314.4,-385.7 1315.54,-392.6"/>
</g>
<!-- roo_comms&#45;&gt;roo_testing -->
<g id="edge6" class="edge">
<title>roo_comms&#45;&gt;roo_testing</title>
<path fill="none" stroke="red" d="M419.83,-530.54C330.74,-528.42 128,-517.11 128,-458 128,-458 128,-458 128,-93 128,-46.89 842.28,-26 1037.95,-21.14"/>
<polygon fill="red" stroke="red" points="1038.31,-24.63 1048.22,-20.89 1038.14,-17.63 1038.31,-24.63"/>
<text text-anchor="middle" x="155" y="-289" font-family="Times,serif" font-size="10.00" fill="red">1.1.7</text>
<text text-anchor="middle" x="155" y="-278" font-family="Times,serif" font-size="10.00" fill="red">(latest: 1.1.8)</text>
</g>
<!-- roo_comms&#45;&gt;roo_time -->
<g id="edge10" class="edge">
<title>roo_comms&#45;&gt;roo_time</title>
<path fill="none" stroke="red" d="M465.97,-512.68C480.72,-459.15 526.46,-298.74 579,-171 586.56,-152.62 586.05,-146.07 599,-131 602.58,-126.84 606.73,-122.92 611.1,-119.3"/>
<polygon fill="red" stroke="red" points="613.32,-122.01 619.11,-113.13 609.05,-116.46 613.32,-122.01"/>
<text text-anchor="middle" x="550" y="-337" font-family="Times,serif" font-size="10.00" fill="red">1.3.2</text>
<text text-anchor="middle" x="550" y="-326" font-family="Times,serif" font-size="10.00" fill="red">(latest: 1.3.3)</text>
</g>
<!-- roo_transceivers -->
<g id="node24" class="node">
<title>roo_transceivers</title>
<polygon fill="plum" stroke="black" points="371,-476 265,-476 265,-438 371,-438 371,-476"/>
<text text-anchor="middle" x="318" y="-460.8" font-family="Times,serif" font-size="14.00">roo_transceivers</text>
<text text-anchor="middle" x="318" y="-445.8" font-family="Times,serif" font-size="14.00">1.1.2</text>
</g>
<!-- roo_comms&#45;&gt;roo_transceivers -->
<g id="edge11" class="edge">
<title>roo_comms&#45;&gt;roo_transceivers</title>
<path fill="none" stroke="black" d="M425.65,-512.96C406.57,-503.22 382.83,-491.1 362.51,-480.72"/>
<polygon fill="black" stroke="black" points="363.94,-477.52 353.44,-476.09 360.75,-483.75 363.94,-477.52"/>
</g>
<!-- roo_quantity -->
<g id="node18" class="node">
<title>roo_quantity</title>
<polygon fill="plum" stroke="black" points="657,-401 571,-401 571,-363 657,-363 657,-401"/>
<text text-anchor="middle" x="614" y="-385.8" font-family="Times,serif" font-size="14.00">roo_quantity</text>
<text text-anchor="middle" x="614" y="-370.8" font-family="Times,serif" font-size="14.00">1.1.2</text>
</g>
<!-- roo_control&#45;&gt;roo_quantity -->
<g id="edge13" class="edge">
<title>roo_control&#45;&gt;roo_quantity</title>
<path fill="none" stroke="black" d="M565.07,-437.96C572.96,-429.09 582.6,-418.26 591.24,-408.56"/>
<polygon fill="black" stroke="black" points="593.86,-410.89 597.89,-401.09 588.63,-406.23 593.86,-410.89"/>
</g>
<!-- roo_control&#45;&gt;roo_scheduler -->
<g id="edge14" class="edge">
<title>roo_control&#45;&gt;roo_scheduler</title>
<path fill="none" stroke="black" d="M546.98,-437.85C545.71,-417.75 546.6,-385.26 562,-363 571.5,-349.26 580.85,-353.88 595,-345 611.66,-334.55 629.49,-321.94 644.18,-311.15"/>
<polygon fill="black" stroke="black" points="646.47,-313.81 652.43,-305.04 642.31,-308.18 646.47,-313.81"/>
</g>
<!-- roo_control&#45;&gt;roo_testing -->
<g id="edge12" class="edge">
<title>roo_control&#45;&gt;roo_testing</title>
<path fill="none" stroke="red" d="M508.81,-453.14C469.97,-448.33 411.74,-435.46 375,-401 322.14,-351.43 329.34,-320.23 316,-249 298.33,-154.64 361.09,-123.4 444,-75 494.91,-45.28 896.78,-27.25 1038.07,-21.78"/>
<polygon fill="red" stroke="red" points="1038.32,-25.27 1048.18,-21.39 1038.06,-18.28 1038.32,-25.27"/>
<text text-anchor="middle" x="343" y="-241" font-family="Times,serif" font-size="10.00" fill="red">1.1.7</text>
<text text-anchor="middle" x="343" y="-230" font-family="Times,serif" font-size="10.00" fill="red">(latest: 1.1.8)</text>
</g>
<!-- roo_dashboard -->
<g id="node6" class="node">
<title>roo_dashboard</title>
<polygon fill="plum" stroke="black" points="146.5,-701 49.5,-701 49.5,-663 146.5,-663 146.5,-701"/>
<text text-anchor="middle" x="98" y="-685.8" font-family="Times,serif" font-size="14.00">roo_dashboard</text>
<text text-anchor="middle" x="98" y="-670.8" font-family="Times,serif" font-size="14.00">1.0.1</text>
</g>
<!-- roo_dashboard&#45;&gt;roo_testing -->
<g id="edge15" class="edge">
<title>roo_dashboard&#45;&gt;roo_testing</title>
<path fill="none" stroke="red" d="M49.29,-665C24.69,-653.55 0,-635.26 0,-608 0,-608 0,-608 0,-93 0,-40.22 826.53,-23.98 1038.13,-20.69"/>
<polygon fill="red" stroke="red" points="1038.37,-24.18 1048.31,-20.53 1038.26,-17.19 1038.37,-24.18"/>
<text text-anchor="middle" x="27" y="-385" font-family="Times,serif" font-size="10.00" fill="red">1.1.7</text>
<text text-anchor="middle" x="27" y="-374" font-family="Times,serif" font-size="10.00" fill="red">(latest: 1.1.8)</text>
</g>
<!-- roo_windows -->
<g id="node27" class="node">
<title>roo_windows</title>
<polygon fill="plum" stroke="black" points="941,-626 851,-626 851,-588 941,-588 941,-626"/>
<text text-anchor="middle" x="896" y="-610.8" font-family="Times,serif" font-size="14.00">roo_windows</text>
<text text-anchor="middle" x="896" y="-595.8" font-family="Times,serif" font-size="14.00">1.4.1</text>
</g>
<!-- roo_dashboard&#45;&gt;roo_windows -->
<g id="edge16" class="edge">
<title>roo_dashboard&#45;&gt;roo_windows</title>
<path fill="none" stroke="black" d="M146.69,-673.61C171.06,-670.07 201.05,-665.97 228,-663 454.85,-637.98 726.19,-619.01 840.7,-611.51"/>
<polygon fill="black" stroke="black" points="841.21,-614.99 850.96,-610.84 840.75,-608 841.21,-614.99"/>
</g>
<!-- roo_display -->
<g id="node7" class="node">
<title>roo_display</title>
<polygon fill="plum" stroke="black" points="1585,-476 1505,-476 1505,-438 1585,-438 1585,-476"/>
<text text-anchor="middle" x="1545" y="-460.8" font-family="Times,serif" font-size="14.00">roo_display</text>
<text text-anchor="middle" x="1545" y="-445.8" font-family="Times,serif" font-size="14.00">2.3.1</text>
</g>
<!-- roo_display&#45;&gt;roo_collections -->
<g id="edge18" class="edge">
<title>roo_display&#45;&gt;roo_collections</title>
<path fill="none" stroke="black" d="M1538.79,-437.73C1527.01,-402.01 1501.8,-320.16 1493,-249 1491.8,-239.3 1491.93,-236.72 1493,-227 1493.28,-224.44 1493.67,-221.79 1494.13,-219.15"/>
<polygon fill="black" stroke="black" points="1497.59,-219.68 1496.15,-209.18 1490.73,-218.29 1497.59,-219.68"/>
</g>
<!-- roo_display&#45;&gt;roo_io -->
<g id="edge19" class="edge">
<title>roo_display&#45;&gt;roo_io</title>
<path fill="none" stroke="black" d="M1504.54,-440.7C1470.38,-427.78 1421.89,-409.43 1388.81,-396.92"/>
<polygon fill="black" stroke="black" points="1389.66,-393.5 1379.07,-393.24 1387.18,-400.05 1389.66,-393.5"/>
</g>
<!-- roo_display&#45;&gt;roo_testing -->
<g id="edge17" class="edge">
<title>roo_display&#45;&gt;roo_testing</title>
<path fill="none" stroke="red" d="M1559.4,-437.68C1574.91,-416.68 1598.61,-380.56 1608,-345 1620.27,-298.54 1597.2,-174.6 1577,-131 1563.92,-102.77 1560.83,-92.33 1535,-75 1470.59,-31.79 1237.93,-22.52 1135.72,-20.54"/>
<polygon fill="red" stroke="red" points="1135.73,-17.04 1125.67,-20.36 1135.6,-24.03 1135.73,-17.04"/>
<text text-anchor="middle" x="1634" y="-241" font-family="Times,serif" font-size="10.00" fill="red">1.1.7</text>
<text text-anchor="middle" x="1634" y="-230" font-family="Times,serif" font-size="10.00" fill="red">(latest: 1.1.8)</text>
</g>
<!-- roo_flags -->
<g id="node8" class="node">
<title>roo_flags</title>
<polygon fill="#b1dbab" stroke="black" points="835,-209 767,-209 767,-171 835,-171 835,-209"/>
<text text-anchor="middle" x="801" y="-193.8" font-family="Times,serif" font-size="14.00">roo_flags</text>
<text text-anchor="middle" x="801" y="-178.8" font-family="Times,serif" font-size="14.00">1.1.1</text>
</g>
<!-- roo_icons -->
<g id="node9" class="node">
<title>roo_icons</title>
<polygon fill="plum" stroke="black" points="1580,-551 1510,-551 1510,-513 1580,-513 1580,-551"/>
<text text-anchor="middle" x="1545" y="-535.8" font-family="Times,serif" font-size="14.00">roo_icons</text>
<text text-anchor="middle" x="1545" y="-520.8" font-family="Times,serif" font-size="14.00">1.2.1</text>
</g>
<!-- roo_icons&#45;&gt;roo_display -->
<g id="edge21" class="edge">
<title>roo_icons&#45;&gt;roo_display</title>
<path fill="none" stroke="black" d="M1545,-512.96C1545,-504.88 1545,-495.18 1545,-486.18"/>
<polygon fill="black" stroke="black" points="1548.5,-486.09 1545,-476.09 1541.5,-486.09 1548.5,-486.09"/>
</g>
<!-- roo_icons&#45;&gt;roo_testing -->
<g id="edge20" class="edge">
<title>roo_icons&#45;&gt;roo_testing</title>
<path fill="none" stroke="red" d="M1580.31,-525.23C1636.51,-515.05 1740,-491.71 1740,-458 1740,-458 1740,-458 1740,-333 1740,-295.45 1747,-286.49 1749,-249 1753.24,-169.66 1764.61,-130.75 1708,-75 1667.51,-35.12 1275.47,-23.66 1135.97,-20.83"/>
<polygon fill="red" stroke="red" points="1135.66,-17.32 1125.59,-20.62 1135.52,-24.32 1135.66,-17.32"/>
<text text-anchor="middle" x="1775" y="-289" font-family="Times,serif" font-size="10.00" fill="red">1.1.7</text>
<text text-anchor="middle" x="1775" y="-278" font-family="Times,serif" font-size="10.00" fill="red">(latest: 1.1.8)</text>
</g>
<!-- roo_io&#45;&gt;roo_backport -->
<g id="edge23" class="edge">
<title>roo_io&#45;&gt;roo_backport</title>
<path fill="none" stroke="black" d="M1357.83,-362.67C1373.34,-313.94 1415.66,-180.92 1434.16,-122.8"/>
<polygon fill="black" stroke="black" points="1437.52,-123.76 1437.22,-113.17 1430.85,-121.64 1437.52,-123.76"/>
</g>
<!-- roo_io&#45;&gt;roo_logging -->
<g id="edge24" class="edge">
<title>roo_io&#45;&gt;roo_logging</title>
<path fill="none" stroke="black" d="M1324.66,-376.4C1236.78,-361.63 960.56,-315.18 844.82,-295.71"/>
<polygon fill="black" stroke="black" points="845.23,-292.23 834.79,-294.03 844.07,-299.14 845.23,-292.23"/>
</g>
<!-- roo_io&#45;&gt;roo_testing -->
<g id="edge22" class="edge">
<title>roo_io&#45;&gt;roo_testing</title>
<path fill="none" stroke="red" d="M1348.58,-362.7C1345.35,-343.81 1341,-313.45 1341,-287 1341,-287 1341,-287 1341,-93 1341,-71.26 1327.98,-66.6 1309,-56 1280.04,-39.83 1191.71,-29.26 1135.59,-23.99"/>
<polygon fill="red" stroke="red" points="1135.79,-20.49 1125.51,-23.06 1135.15,-27.46 1135.79,-20.49"/>
<text text-anchor="middle" x="1368" y="-193" font-family="Times,serif" font-size="10.00" fill="red">1.1.7</text>
<text text-anchor="middle" x="1368" y="-182" font-family="Times,serif" font-size="10.00" fill="red">(latest: 1.1.8)</text>
</g>
<!-- roo_io_sdfat -->
<g id="node11" class="node">
<title>roo_io_sdfat</title>
<polygon fill="plum" stroke="black" points="1616.5,-701 1531.5,-701 1531.5,-663 1616.5,-663 1616.5,-701"/>
<text text-anchor="middle" x="1574" y="-685.8" font-family="Times,serif" font-size="14.00">roo_io_sdfat</text>
<text text-anchor="middle" x="1574" y="-670.8" font-family="Times,serif" font-size="14.00">1.0.0</text>
</g>
<!-- roo_locale -->
<g id="node12" class="node">
<title>roo_locale</title>
<polygon fill="#b1dbab" stroke="black" points="965,-551 891,-551 891,-513 965,-513 965,-551"/>
<text text-anchor="middle" x="928" y="-535.8" font-family="Times,serif" font-size="14.00">roo_locale</text>
<text text-anchor="middle" x="928" y="-520.8" font-family="Times,serif" font-size="14.00">1.1.1</text>
</g>
<!-- roo_logging&#45;&gt;roo_flags -->
<g id="edge26" class="edge">
<title>roo_logging&#45;&gt;roo_flags</title>
<path fill="none" stroke="black" d="M794.54,-266.88C795.69,-253.35 797.29,-234.62 798.6,-219.15"/>
<polygon fill="black" stroke="black" points="802.1,-219.33 799.46,-209.07 795.13,-218.74 802.1,-219.33"/>
</g>
<!-- roo_logging&#45;&gt;roo_testing -->
<g id="edge25" class="edge">
<title>roo_logging&#45;&gt;roo_testing</title>
<path fill="none" stroke="red" d="M834.7,-281.28C912.76,-273.36 1076.14,-251.94 1110,-209 1110,-209 1110,-131 1110,-131 1110.89,-122.85 1113.11,-121.15 1114,-113 1115.84,-96.21 1117.82,-91.45 1114,-75 1111.77,-65.41 1107.63,-55.57 1103.24,-46.91"/>
<polygon fill="red" stroke="red" points="1106.29,-45.19 1098.47,-38.04 1100.13,-48.51 1106.29,-45.19"/>
<text text-anchor="middle" x="1137" y="-145" font-family="Times,serif" font-size="10.00" fill="red">1.1.7</text>
<text text-anchor="middle" x="1137" y="-134" font-family="Times,serif" font-size="10.00" fill="red">(latest: 1.1.8)</text>
</g>
<!-- roo_threads -->
<g id="node21" class="node">
<title>roo_threads</title>
<polygon fill="plum" stroke="black" points="1101,-209 1021,-209 1021,-171 1101,-171 1101,-209"/>
<text text-anchor="middle" x="1061" y="-193.8" font-family="Times,serif" font-size="14.00">roo_threads</text>
<text text-anchor="middle" x="1061" y="-178.8" font-family="Times,serif" font-size="14.00">1.1.5</text>
</g>
<!-- roo_logging&#45;&gt;roo_threads -->
<g id="edge28" class="edge">
<title>roo_logging&#45;&gt;roo_threads</title>
<path fill="none" stroke="black" d="M834.65,-270.79C876.79,-256.37 944.03,-233.2 1011.4,-209.19"/>
<polygon fill="black" stroke="black" points="1012.67,-212.45 1020.91,-205.79 1010.32,-205.86 1012.67,-212.45"/>
</g>
<!-- roo_logging&#45;&gt;roo_time -->
<g id="edge27" class="edge">
<title>roo_logging&#45;&gt;roo_time</title>
<path fill="none" stroke="red" d="M766.2,-266.84C747,-252.79 721.53,-231.91 704,-209 683.74,-182.52 668.48,-147.22 659.43,-122.95"/>
<polygon fill="red" stroke="red" points="662.63,-121.5 655.94,-113.28 656.05,-123.88 662.63,-121.5"/>
<text text-anchor="middle" x="731" y="-193" font-family="Times,serif" font-size="10.00" fill="red">1.3.2</text>
<text text-anchor="middle" x="731" y="-182" font-family="Times,serif" font-size="10.00" fill="red">(latest: 1.3.3)</text>
</g>
<!-- roo_monitoring -->
<g id="node14" class="node">
<title>roo_monitoring</title>
<polygon fill="plum" stroke="black" points="1403,-476 1301,-476 1301,-438 1403,-438 1403,-476"/>
<text text-anchor="middle" x="1352" y="-460.8" font-family="Times,serif" font-size="14.00">roo_monitoring</text>
<text text-anchor="middle" x="1352" y="-445.8" font-family="Times,serif" font-size="14.00">1.0.0</text>
</g>
<!-- roo_monitoring&#45;&gt;roo_collections -->
<g id="edge30" class="edge">
<title>roo_monitoring&#45;&gt;roo_collections</title>
<path fill="none" stroke="black" d="M1364.4,-437.92C1371.53,-427.3 1380.53,-413.55 1388,-401 1426.21,-336.76 1466.72,-258.69 1487.29,-218.25"/>
<polygon fill="black" stroke="black" points="1490.44,-219.77 1491.84,-209.27 1484.2,-216.61 1490.44,-219.77"/>
</g>
<!-- roo_monitoring&#45;&gt;roo_io -->
<g id="edge31" class="edge">
<title>roo_monitoring&#45;&gt;roo_io</title>
<path fill="none" stroke="black" d="M1352,-437.96C1352,-429.88 1352,-420.18 1352,-411.18"/>
<polygon fill="black" stroke="black" points="1355.5,-411.09 1352,-401.09 1348.5,-411.09 1355.5,-411.09"/>
</g>
<!-- roo_monitoring&#45;&gt;roo_testing -->
<g id="edge29" class="edge">
<title>roo_monitoring&#45;&gt;roo_testing</title>
<path fill="none" stroke="black" d="M1326.83,-437.91C1311.56,-424.67 1295,-405.19 1295,-383 1295,-383 1295,-383 1295,-93 1295,-59.38 1197,-37.52 1135.54,-27.11"/>
<polygon fill="black" stroke="black" points="1136.07,-23.66 1125.64,-25.48 1134.93,-30.56 1136.07,-23.66"/>
</g>
<!-- roo_onewire -->
<g id="node15" class="node">
<title>roo_onewire</title>
<polygon fill="plum" stroke="black" points="692.5,-476 607.5,-476 607.5,-438 692.5,-438 692.5,-476"/>
<text text-anchor="middle" x="650" y="-460.8" font-family="Times,serif" font-size="14.00">roo_onewire</text>
<text text-anchor="middle" x="650" y="-445.8" font-family="Times,serif" font-size="14.00">2.0.4</text>
</g>
<!-- roo_onewire&#45;&gt;roo_quantity -->
<g id="edge34" class="edge">
<title>roo_onewire&#45;&gt;roo_quantity</title>
<path fill="none" stroke="black" d="M641.1,-437.96C636.99,-429.62 632.02,-419.54 627.47,-410.3"/>
<polygon fill="black" stroke="black" points="630.48,-408.51 622.92,-401.09 624.21,-411.61 630.48,-408.51"/>
</g>
<!-- roo_onewire&#45;&gt;roo_scheduler -->
<g id="edge33" class="edge">
<title>roo_onewire&#45;&gt;roo_scheduler</title>
<path fill="none" stroke="black" d="M656.24,-437.88C659.65,-427.26 663.65,-413.51 666,-401 671.4,-372.17 673.9,-338.68 675.05,-315.5"/>
<polygon fill="black" stroke="black" points="678.55,-315.46 675.49,-305.31 671.56,-315.15 678.55,-315.46"/>
</g>
<!-- roo_onewire&#45;&gt;roo_testing -->
<g id="edge32" class="edge">
<title>roo_onewire&#45;&gt;roo_testing</title>
<path fill="none" stroke="red" d="M607.31,-440.64C604.18,-439.69 601.05,-438.8 598,-438 509.3,-414.71 457.58,-468.04 395,-401 368.49,-372.6 364.97,-263.6 378,-227 407.25,-144.87 427.13,-119.68 502,-75 591.9,-21.35 913.74,-18.37 1037.77,-19.3"/>
<polygon fill="red" stroke="red" points="1038.07,-22.81 1048.1,-19.39 1038.14,-15.81 1038.07,-22.81"/>
<text text-anchor="middle" x="405" y="-241" font-family="Times,serif" font-size="10.00" fill="red">1.1.7</text>
<text text-anchor="middle" x="405" y="-230" font-family="Times,serif" font-size="10.00" fill="red">(latest: 1.1.8)</text>
</g>
<!-- roo_powersafefs -->
<g id="node16" class="node">
<title>roo_powersafefs</title>
<polygon fill="plum" stroke="black" points="1153.5,-305 1046.5,-305 1046.5,-267 1153.5,-267 1153.5,-305"/>
<text text-anchor="middle" x="1100" y="-289.8" font-family="Times,serif" font-size="14.00">roo_powersafefs</text>
<text text-anchor="middle" x="1100" y="-274.8" font-family="Times,serif" font-size="14.00">1.0.0</text>
</g>
<!-- roo_powersafefs&#45;&gt;roo_testing -->
<g id="edge35" class="edge">
<title>roo_powersafefs&#45;&gt;roo_testing</title>
<path fill="none" stroke="black" d="M1127.12,-266.68C1133.07,-261.57 1138.83,-255.58 1143,-249 1171.67,-203.7 1176.9,-183.86 1168,-131 1162.14,-96.21 1163.7,-83.82 1142,-56 1138.62,-51.67 1134.57,-47.7 1130.22,-44.1"/>
<polygon fill="black" stroke="black" points="1132.24,-41.23 1122.14,-38.03 1128.03,-46.83 1132.24,-41.23"/>
</g>
<!-- roo_powersafefs&#45;&gt;roo_threads -->
<g id="edge36" class="edge">
<title>roo_powersafefs&#45;&gt;roo_threads</title>
<path fill="none" stroke="black" d="M1092.48,-266.88C1086.82,-253.22 1078.95,-234.26 1072.5,-218.71"/>
<polygon fill="black" stroke="black" points="1075.56,-216.96 1068.5,-209.07 1069.1,-219.65 1075.56,-216.96"/>
</g>
<!-- roo_prefs -->
<g id="node17" class="node">
<title>roo_prefs</title>
<polygon fill="plum" stroke="black" points="827,-401 759,-401 759,-363 827,-363 827,-401"/>
<text text-anchor="middle" x="793" y="-385.8" font-family="Times,serif" font-size="14.00">roo_prefs</text>
<text text-anchor="middle" x="793" y="-370.8" font-family="Times,serif" font-size="14.00">1.2.2</text>
</g>
<!-- roo_prefs&#45;&gt;roo_logging -->
<g id="edge38" class="edge">
<title>roo_prefs&#45;&gt;roo_logging</title>
<path fill="none" stroke="black" d="M799.67,-362.93C801.44,-357.27 803.11,-350.95 804,-345 805.44,-335.33 805.44,-332.67 804,-323 803.6,-320.31 803.03,-317.53 802.37,-314.78"/>
<polygon fill="black" stroke="black" points="805.72,-313.76 799.67,-305.07 798.98,-315.64 805.72,-313.76"/>
</g>
<!-- roo_prefs&#45;&gt;roo_scheduler -->
<g id="edge39" class="edge">
<title>roo_prefs&#45;&gt;roo_scheduler</title>
<path fill="none" stroke="black" d="M775.66,-362.81C763.87,-350.88 747.63,-335.28 732,-323 726.63,-318.78 720.75,-314.59 714.88,-310.64"/>
<polygon fill="black" stroke="black" points="716.64,-307.61 706.36,-305.05 712.8,-313.46 716.64,-307.61"/>
</g>
<!-- roo_prefs&#45;&gt;roo_testing -->
<g id="edge37" class="edge">
<title>roo_prefs&#45;&gt;roo_testing</title>
<path fill="none" stroke="red" d="M827.1,-367.36C831.73,-365.76 836.45,-364.25 841,-363 922.35,-340.6 1213,-371.37 1213,-287 1213,-287 1213,-287 1213,-93 1213,-55.68 1171.1,-37.13 1135.63,-28.11"/>
<polygon fill="red" stroke="red" points="1136.37,-24.69 1125.83,-25.81 1134.77,-31.5 1136.37,-24.69"/>
<text text-anchor="middle" x="1240" y="-193" font-family="Times,serif" font-size="10.00" fill="red">1.1.7</text>
<text text-anchor="middle" x="1240" y="-182" font-family="Times,serif" font-size="10.00" fill="red">(latest: 1.1.8)</text>
</g>
<!-- roo_quantity&#45;&gt;roo_logging -->
<g id="edge40" class="edge">
<title>roo_quantity&#45;&gt;roo_logging</title>
<path fill="none" stroke="black" d="M657.32,-378.59C687.72,-374.99 727.96,-366.22 757,-345 767.58,-337.27 775.74,-325.39 781.6,-314.39"/>
<polygon fill="black" stroke="black" points="784.9,-315.6 786.15,-305.08 778.61,-312.53 784.9,-315.6"/>
</g>
<!-- roo_quantity&#45;&gt;roo_time -->
<g id="edge41" class="edge">
<title>roo_quantity&#45;&gt;roo_time</title>
<path fill="none" stroke="red" d="M604.85,-362.61C591.65,-333.83 569.82,-276.33 579,-227 587.36,-182.05 591.62,-169.68 616,-131 618.16,-127.58 620.67,-124.2 623.33,-120.96"/>
<polygon fill="red" stroke="red" points="626.14,-123.07 630.15,-113.27 620.9,-118.43 626.14,-123.07"/>
<text text-anchor="middle" x="606" y="-241" font-family="Times,serif" font-size="10.00" fill="red">1.3.2</text>
<text text-anchor="middle" x="606" y="-230" font-family="Times,serif" font-size="10.00" fill="red">(latest: 1.3.3)</text>
</g>
<!-- roo_scheduler&#45;&gt;roo_collections -->
<g id="edge43" class="edge">
<title>roo_scheduler&#45;&gt;roo_collections</title>
<path fill="none" stroke="black" d="M722.64,-271.18C729.1,-269.58 735.69,-268.13 742,-267 886.27,-241.17 1253.69,-228.2 1399,-209 1412.5,-207.22 1426.93,-204.91 1440.57,-202.56"/>
<polygon fill="black" stroke="black" points="1441.57,-205.93 1450.81,-200.75 1440.35,-199.04 1441.57,-205.93"/>
</g>
<!-- roo_scheduler&#45;&gt;roo_testing -->
<g id="edge42" class="edge">
<title>roo_scheduler&#45;&gt;roo_testing</title>
<path fill="none" stroke="red" d="M657.2,-266.74C627.33,-237.19 571.42,-179.54 562,-153 548.53,-115.07 572.66,-94.25 608,-75 681.36,-35.04 931.52,-23.96 1038.18,-21.01"/>
<polygon fill="red" stroke="red" points="1038.45,-24.51 1048.35,-20.75 1038.26,-17.51 1038.45,-24.51"/>
<text text-anchor="middle" x="589" y="-145" font-family="Times,serif" font-size="10.00" fill="red">1.1.7</text>
<text text-anchor="middle" x="589" y="-134" font-family="Times,serif" font-size="10.00" fill="red">(latest: 1.1.8)</text>
</g>
<!-- roo_scheduler&#45;&gt;roo_threads -->
<g id="edge44" class="edge">
<title>roo_scheduler&#45;&gt;roo_threads</title>
<path fill="none" stroke="black" d="M722.86,-272.16C729.28,-270.41 735.8,-268.65 742,-267 809.91,-248.86 826.17,-241.25 895,-227 943.6,-216.94 959.29,-221.53 1011.09,-208.94"/>
<polygon fill="black" stroke="black" points="1011.99,-212.32 1020.83,-206.48 1010.27,-205.54 1011.99,-212.32"/>
</g>
<!-- roo_scheduler&#45;&gt;roo_time -->
<g id="edge45" class="edge">
<title>roo_scheduler&#45;&gt;roo_time</title>
<path fill="none" stroke="red" d="M665.08,-266.85C657.69,-255.09 647.41,-239.65 637,-227 629.81,-218.26 623.33,-219.45 619,-209 607.08,-180.23 620.21,-145.48 632.86,-121.97"/>
<polygon fill="red" stroke="red" points="635.92,-123.66 637.82,-113.24 629.84,-120.21 635.92,-123.66"/>
<text text-anchor="middle" x="646" y="-193" font-family="Times,serif" font-size="10.00" fill="red">1.3.2</text>
<text text-anchor="middle" x="646" y="-182" font-family="Times,serif" font-size="10.00" fill="red">(latest: 1.3.3)</text>
</g>
<!-- roo_threads&#45;&gt;roo_testing -->
<g id="edge46" class="edge">
<title>roo_threads&#45;&gt;roo_testing</title>
<path fill="none" stroke="red" d="M1058.26,-170.94C1055.4,-148.22 1052.3,-108.16 1060,-75 1062.23,-65.41 1066.37,-55.57 1070.76,-46.91"/>
<polygon fill="red" stroke="red" points="1073.87,-48.51 1075.53,-38.04 1067.71,-45.19 1073.87,-48.51"/>
<text text-anchor="middle" x="1087" y="-97" font-family="Times,serif" font-size="10.00" fill="red">1.1.7</text>
<text text-anchor="middle" x="1087" y="-86" font-family="Times,serif" font-size="10.00" fill="red">(latest: 1.1.8)</text>
</g>
<!-- roo_threads&#45;&gt;roo_time -->
<g id="edge47" class="edge">
<title>roo_threads&#45;&gt;roo_time</title>
<path fill="none" stroke="red" d="M1021.73,-170.88C1009.6,-165.22 996.22,-158.91 984,-153 964.32,-143.48 960.93,-137.33 940,-131 855.19,-105.36 751.14,-97.95 693.57,-95.83"/>
<polygon fill="red" stroke="red" points="693.48,-92.32 683.37,-95.49 693.25,-99.32 693.48,-92.32"/>
<text text-anchor="middle" x="1011" y="-145" font-family="Times,serif" font-size="10.00" fill="red">1.3.2</text>
<text text-anchor="middle" x="1011" y="-134" font-family="Times,serif" font-size="10.00" fill="red">(latest: 1.3.3)</text>
</g>
<!-- roo_time&#45;&gt;roo_testing -->
<g id="edge48" class="edge">
<title>roo_time&#45;&gt;roo_testing</title>
<path fill="none" stroke="black" d="M683.2,-87.45C759.73,-74.67 948.77,-43.09 1038.38,-28.12"/>
<polygon fill="black" stroke="black" points="1039,-31.57 1048.29,-26.47 1037.85,-24.66 1039,-31.57"/>
</g>
<!-- roo_time_ds3231 -->
<g id="node23" class="node">
<title>roo_time_ds3231</title>
<polygon fill="plum" stroke="black" points="1003,-209 891,-209 891,-171 1003,-171 1003,-209"/>
<text text-anchor="middle" x="947" y="-193.8" font-family="Times,serif" font-size="14.00">roo_time_ds3231</text>
<text text-anchor="middle" x="947" y="-178.8" font-family="Times,serif" font-size="14.00">1.1.2</text>
</g>
<!-- roo_time_ds3231&#45;&gt;roo_testing -->
<g id="edge49" class="edge">
<title>roo_time_ds3231&#45;&gt;roo_testing</title>
<path fill="none" stroke="red" d="M950.85,-170.91C956.94,-146.31 970.97,-102.24 998,-75 1010.18,-62.72 1025.62,-51.97 1040.2,-43.3"/>
<polygon fill="red" stroke="red" points="1042.2,-46.19 1049.13,-38.18 1038.72,-40.12 1042.2,-46.19"/>
<text text-anchor="middle" x="1025" y="-97" font-family="Times,serif" font-size="10.00" fill="red">1.1.7</text>
<text text-anchor="middle" x="1025" y="-86" font-family="Times,serif" font-size="10.00" fill="red">(latest: 1.1.8)</text>
</g>
<!-- roo_time_ds3231&#45;&gt;roo_time -->
<g id="edge50" class="edge">
<title>roo_time_ds3231&#45;&gt;roo_time</title>
<path fill="none" stroke="red" d="M910.56,-170.97C900.96,-165.65 890.83,-159.5 882,-153 870.61,-144.61 871.63,-137.37 859,-131 806.19,-104.38 737.37,-96.99 693.42,-95.18"/>
<polygon fill="red" stroke="red" points="693.46,-91.68 683.35,-94.85 693.23,-98.68 693.46,-91.68"/>
<text text-anchor="middle" x="909" y="-145" font-family="Times,serif" font-size="10.00" fill="red">1.3.2</text>
<text text-anchor="middle" x="909" y="-134" font-family="Times,serif" font-size="10.00" fill="red">(latest: 1.3.3)</text>
</g>
<!-- roo_transceivers&#45;&gt;roo_prefs -->
<g id="edge52" class="edge">
<title>roo_transceivers&#45;&gt;roo_prefs</title>
<path fill="none" stroke="black" d="M371.11,-447.84C465.55,-433.32 661.03,-403.28 748.73,-389.8"/>
<polygon fill="black" stroke="black" points="749.52,-393.22 758.88,-388.24 748.46,-386.3 749.52,-393.22"/>
</g>
<!-- roo_transceivers&#45;&gt;roo_testing -->
<g id="edge51" class="edge">
<title>roo_transceivers&#45;&gt;roo_testing</title>
<path fill="none" stroke="red" d="M305.77,-437.92C280.95,-398.89 229.2,-304.02 256,-227 284.46,-145.19 302.28,-117.07 378,-75 435.37,-43.12 886.63,-26.25 1037.82,-21.46"/>
<polygon fill="red" stroke="red" points="1038.29,-24.94 1048.18,-21.13 1038.08,-17.95 1038.29,-24.94"/>
<text text-anchor="middle" x="283" y="-241" font-family="Times,serif" font-size="10.00" fill="red">1.1.7</text>
<text text-anchor="middle" x="283" y="-230" font-family="Times,serif" font-size="10.00" fill="red">(latest: 1.1.8)</text>
</g>
<!-- roo_transceivers&#45;&gt;roo_time -->
<g id="edge53" class="edge">
<title>roo_transceivers&#45;&gt;roo_time</title>
<path fill="none" stroke="red" d="M320.66,-437.7C330.1,-380.31 367.7,-203.39 481,-131 518.96,-106.74 570.54,-98.56 606.7,-95.93"/>
<polygon fill="red" stroke="red" points="607.16,-99.41 616.93,-95.31 606.73,-92.43 607.16,-99.41"/>
<text text-anchor="middle" x="399" y="-289" font-family="Times,serif" font-size="10.00" fill="red">1.3.2</text>
<text text-anchor="middle" x="399" y="-278" font-family="Times,serif" font-size="10.00" fill="red">(latest: 1.3.3)</text>
</g>
<!-- roo_transport -->
<g id="node25" class="node">
<title>roo_transport</title>
<polygon fill="plum" stroke="black" points="1692.5,-476 1603.5,-476 1603.5,-438 1692.5,-438 1692.5,-476"/>
<text text-anchor="middle" x="1648" y="-460.8" font-family="Times,serif" font-size="14.00">roo_transport</text>
<text text-anchor="middle" x="1648" y="-445.8" font-family="Times,serif" font-size="14.00">1.0.1</text>
</g>
<!-- roo_transport&#45;&gt;roo_collections -->
<g id="edge55" class="edge">
<title>roo_transport&#45;&gt;roo_collections</title>
<path fill="none" stroke="black" d="M1641.3,-437.99C1633.19,-416.09 1619.24,-377.96 1608,-345 1590.21,-292.85 1605.52,-269.11 1570,-227 1566.15,-222.43 1561.57,-218.37 1556.63,-214.78"/>
<polygon fill="black" stroke="black" points="1558.33,-211.7 1548.04,-209.16 1554.49,-217.56 1558.33,-211.7"/>
</g>
<!-- roo_transport&#45;&gt;roo_io -->
<g id="edge56" class="edge">
<title>roo_transport&#45;&gt;roo_io</title>
<path fill="none" stroke="black" d="M1603.32,-440.73C1600.17,-439.77 1597.05,-438.85 1594,-438 1522.1,-417.9 1436.65,-399.81 1388.95,-390.22"/>
<polygon fill="black" stroke="black" points="1389.57,-386.77 1379.07,-388.25 1388.2,-393.64 1389.57,-386.77"/>
</g>
<!-- roo_transport&#45;&gt;roo_testing -->
<g id="edge54" class="edge">
<title>roo_transport&#45;&gt;roo_testing</title>
<path fill="none" stroke="red" d="M1667.51,-437.83C1680.05,-424.12 1694,-404.12 1694,-383 1694,-383 1694,-383 1694,-93 1694,-36.95 1280.8,-23.7 1136.23,-20.77"/>
<polygon fill="red" stroke="red" points="1135.96,-17.27 1125.89,-20.57 1135.82,-24.27 1135.96,-17.27"/>
<text text-anchor="middle" x="1721" y="-241" font-family="Times,serif" font-size="10.00" fill="red">1.1.7</text>
<text text-anchor="middle" x="1721" y="-230" font-family="Times,serif" font-size="10.00" fill="red">(latest: 1.1.8)</text>
</g>
<!-- roo_wifi -->
<g id="node26" class="node">
<title>roo_wifi</title>
<polygon fill="plum" stroke="black" points="1485.5,-476 1422.5,-476 1422.5,-438 1485.5,-438 1485.5,-476"/>
<text text-anchor="middle" x="1454" y="-460.8" font-family="Times,serif" font-size="14.00">roo_wifi</text>
<text text-anchor="middle" x="1454" y="-445.8" font-family="Times,serif" font-size="14.00">1.1.1</text>
</g>
<!-- roo_wifi&#45;&gt;roo_prefs -->
<g id="edge58" class="edge">
<title>roo_wifi&#45;&gt;roo_prefs</title>
<path fill="none" stroke="black" d="M1422.28,-441.08C1418.86,-439.88 1415.39,-438.81 1412,-438 1164.67,-378.84 1089.63,-454.45 841,-401 839.73,-400.73 838.44,-400.43 837.15,-400.1"/>
<polygon fill="black" stroke="black" points="837.82,-396.65 827.24,-397.22 835.87,-403.37 837.82,-396.65"/>
</g>
<!-- roo_wifi&#45;&gt;roo_testing -->
<g id="edge57" class="edge">
<title>roo_wifi&#45;&gt;roo_testing</title>
<path fill="none" stroke="red" d="M1457.97,-437.78C1467.4,-397.24 1493.95,-297.61 1541,-227 1547.45,-217.32 1555.4,-219.69 1560,-209 1586.08,-148.37 1551.98,-109.96 1496,-75 1436.84,-38.06 1231.09,-25.49 1135.94,-21.6"/>
<polygon fill="red" stroke="red" points="1135.85,-18.09 1125.72,-21.19 1135.58,-25.08 1135.85,-18.09"/>
<text text-anchor="middle" x="1568" y="-241" font-family="Times,serif" font-size="10.00" fill="red">1.1.7</text>
<text text-anchor="middle" x="1568" y="-230" font-family="Times,serif" font-size="10.00" fill="red">(latest: 1.1.8)</text>
</g>
<!-- roo_windows&#45;&gt;roo_icons -->
<g id="edge61" class="edge">
<title>roo_windows&#45;&gt;roo_icons</title>
<path fill="none" stroke="black" d="M941.12,-600.92C1059.99,-587.55 1380.76,-551.47 1499.76,-538.09"/>
<polygon fill="black" stroke="black" points="1500.43,-541.54 1509.98,-536.94 1499.65,-534.58 1500.43,-541.54"/>
</g>
<!-- roo_windows&#45;&gt;roo_locale -->
<g id="edge60" class="edge">
<title>roo_windows&#45;&gt;roo_locale</title>
<path fill="none" stroke="black" d="M903.91,-587.96C907.56,-579.62 911.98,-569.54 916.03,-560.3"/>
<polygon fill="black" stroke="black" points="919.26,-561.65 920.07,-551.09 912.85,-558.84 919.26,-561.65"/>
</g>
<!-- roo_windows&#45;&gt;roo_scheduler -->
<g id="edge62" class="edge">
<title>roo_windows&#45;&gt;roo_scheduler</title>
<path fill="none" stroke="black" d="M868.68,-587.77C861.82,-582.5 854.78,-576.42 849,-570 774.28,-487 713.49,-367.35 688.4,-314.21"/>
<polygon fill="black" stroke="black" points="691.54,-312.66 684.14,-305.08 685.2,-315.62 691.54,-312.66"/>
</g>
<!-- roo_windows&#45;&gt;roo_testing -->
<g id="edge59" class="edge">
<title>roo_windows&#45;&gt;roo_testing</title>
<path fill="none" stroke="red" d="M941.29,-604.83C1127.2,-599.73 1822,-577.7 1822,-533 1822,-533 1822,-533 1822,-93 1822,-23.87 1300.48,-19.41 1136.05,-19.72"/>
<polygon fill="red" stroke="red" points="1135.73,-16.22 1125.74,-19.74 1135.75,-23.22 1135.73,-16.22"/>
<text text-anchor="middle" x="1849" y="-337" font-family="Times,serif" font-size="10.00" fill="red">1.1.7</text>
<text text-anchor="middle" x="1849" y="-326" font-family="Times,serif" font-size="10.00" fill="red">(latest: 1.1.8)</text>
</g>
<!-- roo_windows&#45;&gt;roo_time -->
<g id="edge63" class="edge">
<title>roo_windows&#45;&gt;roo_time</title>
<path fill="none" stroke="red" d="M882.58,-587.81C873.44,-573.62 863,-553.03 863,-533 863,-533 863,-533 863,-237 863,-206.48 864.56,-193.56 844,-171 804.53,-127.68 737.32,-108.75 693.29,-100.69"/>
<polygon fill="red" stroke="red" points="693.62,-97.2 683.17,-98.96 692.44,-104.1 693.62,-97.2"/>
<text text-anchor="middle" x="890" y="-385" font-family="Times,serif" font-size="10.00" fill="red">1.3.2</text>
<text text-anchor="middle" x="890" y="-374" font-family="Times,serif" font-size="10.00" fill="red">(latest: 1.3.3)</text>
</g>
<!-- roo_windows_transceivers -->
<g id="node28" class="node">
<title>roo_windows_transceivers</title>
<polygon fill="plum" stroke="black" points="398.5,-701 237.5,-701 237.5,-663 398.5,-663 398.5,-701"/>
<text text-anchor="middle" x="318" y="-685.8" font-family="Times,serif" font-size="14.00">roo_windows_transceivers</text>
<text text-anchor="middle" x="318" y="-670.8" font-family="Times,serif" font-size="14.00">1.0.0</text>
</g>
<!-- roo_windows_transceivers&#45;&gt;roo_testing -->
<g id="edge64" class="edge">
<title>roo_windows_transceivers&#45;&gt;roo_testing</title>
<path fill="none" stroke="black" d="M237.44,-671.5C169.07,-661.12 82,-641.35 82,-608 82,-608 82,-608 82,-93 82,-39.16 -11.04,-78.99 296,-56 576.39,-35 913.68,-24.58 1037.95,-21.23"/>
<polygon fill="black" stroke="black" points="1038.36,-24.72 1048.27,-20.96 1038.18,-17.73 1038.36,-24.72"/>
</g>
<!-- roo_windows_transceivers&#45;&gt;roo_transceivers -->
<g id="edge65" class="edge">
<title>roo_windows_transceivers&#45;&gt;roo_transceivers</title>
<path fill="none" stroke="black" d="M318,-662.75C318,-623.94 318,-532.97 318,-486.47"/>
<polygon fill="black" stroke="black" points="321.5,-486.19 318,-476.19 314.5,-486.19 321.5,-486.19"/>
</g>
<!-- roo_windows_transceivers&#45;&gt;roo_windows -->
<g id="edge66" class="edge">
<title>roo_windows_transceivers&#45;&gt;roo_windows</title>
<path fill="none" stroke="black" d="M398.71,-673.14C465.8,-666.39 563.73,-656.02 649,-645 714.98,-636.47 790.59,-624.88 840.59,-616.95"/>
<polygon fill="black" stroke="black" points="841.23,-620.4 850.55,-615.37 840.13,-613.48 841.23,-620.4"/>
</g>
<!-- roo_windows_wifi -->
<g id="node29" class="node">
<title>roo_windows_wifi</title>
<polygon fill="plum" stroke="black" points="1513.5,-701 1394.5,-701 1394.5,-663 1513.5,-663 1513.5,-701"/>
<text text-anchor="middle" x="1454" y="-685.8" font-family="Times,serif" font-size="14.00">roo_windows_wifi</text>
<text text-anchor="middle" x="1454" y="-670.8" font-family="Times,serif" font-size="14.00">1.1.2</text>
</g>
<!-- roo_windows_wifi&#45;&gt;roo_testing -->
<g id="edge67" class="edge">
<title>roo_windows_wifi&#45;&gt;roo_testing</title>
<path fill="none" stroke="red" d="M1513.62,-664.82C1516.44,-664.18 1519.25,-663.57 1522,-663 1603.2,-646.26 1891,-690.91 1891,-608 1891,-608 1891,-608 1891,-93 1891,-90.25 1779.61,-56.99 1774,-56 1651.21,-34.31 1271.66,-24.05 1135.91,-21.01"/>
<polygon fill="red" stroke="red" points="1135.88,-17.51 1125.8,-20.78 1135.72,-24.5 1135.88,-17.51"/>
<text text-anchor="middle" x="1918" y="-385" font-family="Times,serif" font-size="10.00" fill="red">1.1.7</text>
<text text-anchor="middle" x="1918" y="-374" font-family="Times,serif" font-size="10.00" fill="red">(latest: 1.1.8)</text>
</g>
<!-- roo_windows_wifi&#45;&gt;roo_wifi -->
<g id="edge68" class="edge">
<title>roo_windows_wifi&#45;&gt;roo_wifi</title>
<path fill="none" stroke="black" d="M1454,-662.75C1454,-623.94 1454,-532.97 1454,-486.47"/>
<polygon fill="black" stroke="black" points="1457.5,-486.19 1454,-476.19 1450.5,-486.19 1457.5,-486.19"/>
</g>
<!-- roo_windows_wifi&#45;&gt;roo_windows -->
<g id="edge69" class="edge">
<title>roo_windows_wifi&#45;&gt;roo_windows</title>
<path fill="none" stroke="black" d="M1394.28,-673.19C1285.58,-658.97 1056.92,-629.05 951.45,-615.25"/>
<polygon fill="black" stroke="black" points="951.7,-611.76 941.33,-613.93 950.79,-618.7 951.7,-611.76"/>
</g>
</g>
</svg>
