<?xml version="1.0" encoding="UTF-8" standalone="no"?>
<!DOCTYPE svg PUBLIC "-//W3C//DTD SVG 1.1//EN"
 "http://www.w3.org/Graphics/SVG/1.1/DTD/svg11.dtd">
<!-- Generated by graphviz version 2.42.4 (0)
 -->
<!-- Title: dependencies Pages: 1 -->
<svg width="1076pt" height="793pt"
 viewBox="0.00 0.00 1075.50 793.00" xmlns="http://www.w3.org/2000/svg" xmlns:xlink="http://www.w3.org/1999/xlink">
<g id="graph0" class="graph" transform="scale(1 1) rotate(0) translate(4 789)">
<title>dependencies</title>
<polygon fill="white" stroke="transparent" points="-4,4 -4,-789 1071.5,-789 1071.5,4 -4,4"/>
<!-- roo_backport -->
<g id="node1" class="node">
<title>roo_backport</title>
<polygon fill="#b1dbab" stroke="black" points="515,-230 405,-230 405,-192 515,-192 515,-230"/>
<text text-anchor="middle" x="460" y="-214.8" font-family="Times,serif" font-size="14.00">roo_backport</text>
<text text-anchor="middle" x="460" y="-199.8" font-family="Times,serif" font-size="14.00">1.2.2</text>
</g>
<!-- roo_blink -->
<g id="node2" class="node">
<title>roo_blink</title>
<polygon fill="#b1dbab" stroke="black" points="952,-593 870,-593 870,-555 952,-555 952,-593"/>
<text text-anchor="middle" x="911" y="-577.8" font-family="Times,serif" font-size="14.00">roo_blink</text>
<text text-anchor="middle" x="911" y="-562.8" font-family="Times,serif" font-size="14.00">1.0.6</text>
</g>
<!-- roo_logging -->
<g id="node13" class="node">
<title>roo_logging</title>
<polygon fill="#b1dbab" stroke="red" points="767,-326 667,-326 667,-288 767,-288 767,-326"/>
<text text-anchor="middle" x="717" y="-310.8" font-family="Times,serif" font-size="14.00">roo_logging</text>
<text text-anchor="middle" x="717" y="-295.8" font-family="Times,serif" font-size="14.00">1.5.5</text>
</g>
<!-- roo_blink&#45;&gt;roo_logging -->
<g id="edge1" class="edge">
<title>roo_blink&#45;&gt;roo_logging</title>
<path fill="none" stroke="black" d="M911.81,-554.63C912.09,-531.23 910.09,-490.11 895,-459 866.67,-400.63 804.15,-356.2 761.29,-331.12"/>
<polygon fill="black" stroke="black" points="762.88,-327.99 752.46,-326.06 759.4,-334.07 762.88,-327.99"/>
</g>
<!-- roo_scheduler -->
<g id="node19" class="node">
<title>roo_scheduler</title>
<polygon fill="#b1dbab" stroke="black" points="408,-497 292,-497 292,-459 408,-459 408,-497"/>
<text text-anchor="middle" x="350" y="-481.8" font-family="Times,serif" font-size="14.00">roo_scheduler</text>
<text text-anchor="middle" x="350" y="-466.8" font-family="Times,serif" font-size="14.00">2.1.9</text>
</g>
<!-- roo_blink&#45;&gt;roo_scheduler -->
<g id="edge2" class="edge">
<title>roo_blink&#45;&gt;roo_scheduler</title>
<path fill="none" stroke="black" d="M869.73,-557.39C866.8,-556.51 863.87,-555.7 861,-555 734.23,-523.83 699.49,-531.57 570,-515 502.52,-506.37 484.82,-509.74 418,-497 417.9,-496.98 417.8,-496.96 417.7,-496.94"/>
<polygon fill="black" stroke="black" points="418.62,-493.56 408.11,-494.96 417.2,-500.41 418.62,-493.56"/>
</g>
<!-- roo_collections -->
<g id="node3" class="node">
<title>roo_collections</title>
<polygon fill="#b1dbab" stroke="black" points="456,-401 334,-401 334,-363 456,-363 456,-401"/>
<text text-anchor="middle" x="395" y="-385.8" font-family="Times,serif" font-size="14.00">roo_collections</text>
<text text-anchor="middle" x="395" y="-370.8" font-family="Times,serif" font-size="14.00">1.4.3</text>
</g>
<!-- roo_collections&#45;&gt;roo_backport -->
<g id="edge3" class="edge">
<title>roo_collections&#45;&gt;roo_backport</title>
<path fill="none" stroke="black" d="M401.96,-362.91C413.31,-333.39 435.91,-274.63 449.31,-239.78"/>
<polygon fill="black" stroke="black" points="452.67,-240.8 453,-230.21 446.14,-238.29 452.67,-240.8"/>
</g>
<!-- roo_comms -->
<g id="node4" class="node">
<title>roo_comms</title>
<polygon fill="plum" stroke="red" points="761.5,-785 664.5,-785 664.5,-747 761.5,-747 761.5,-785"/>
<text text-anchor="middle" x="713" y="-769.8" font-family="Times,serif" font-size="14.00">roo_comms</text>
<text text-anchor="middle" x="713" y="-754.8" font-family="Times,serif" font-size="14.00">1.1.3</text>
</g>
<!-- roo_comms&#45;&gt;roo_blink -->
<g id="edge4" class="edge">
<title>roo_comms&#45;&gt;roo_blink</title>
<path fill="none" stroke="red" d="M731.99,-746.78C767.54,-712.66 844.22,-639.08 884.71,-600.22"/>
<polygon fill="red" stroke="red" points="887.28,-602.61 892.07,-593.16 882.43,-597.56 887.28,-602.61"/>
<text text-anchor="middle" x="864" y="-673" font-family="Times,serif" font-size="10.00" fill="red">1.0.4</text>
<text text-anchor="middle" x="864" y="-662" font-family="Times,serif" font-size="10.00" fill="red">(latest: 1.0.6)</text>
</g>
<!-- roo_control -->
<g id="node5" class="node">
<title>roo_control</title>
<polygon fill="plum" stroke="red" points="1067.5,-593 970.5,-593 970.5,-555 1067.5,-555 1067.5,-593"/>
<text text-anchor="middle" x="1019" y="-577.8" font-family="Times,serif" font-size="14.00">roo_control</text>
<text text-anchor="middle" x="1019" y="-562.8" font-family="Times,serif" font-size="14.00">1.2.4</text>
</g>
<!-- roo_comms&#45;&gt;roo_control -->
<g id="edge5" class="edge">
<title>roo_comms&#45;&gt;roo_control</title>
<path fill="none" stroke="red" d="M761.63,-750.67C800.62,-737.91 855.79,-716.93 899,-689 937.33,-664.23 974.28,-626.32 996.82,-601.1"/>
<polygon fill="red" stroke="red" points="999.62,-603.21 1003.61,-593.4 994.37,-598.58 999.62,-603.21"/>
<text text-anchor="middle" x="979" y="-673" font-family="Times,serif" font-size="10.00" fill="red">1.2.3</text>
<text text-anchor="middle" x="979" y="-662" font-family="Times,serif" font-size="10.00" fill="red">(latest: 1.2.4)</text>
</g>
<!-- roo_io -->
<g id="node11" class="node">
<title>roo_io</title>
<polygon fill="#b1dbab" stroke="red" points="677.5,-401 618.5,-401 618.5,-363 677.5,-363 677.5,-401"/>
<text text-anchor="middle" x="648" y="-385.8" font-family="Times,serif" font-size="14.00">roo_io</text>
<text text-anchor="middle" x="648" y="-370.8" font-family="Times,serif" font-size="14.00">2.1.5</text>
</g>
<!-- roo_comms&#45;&gt;roo_io -->
<g id="edge6" class="edge">
<title>roo_comms&#45;&gt;roo_io</title>
<path fill="none" stroke="red" d="M707.35,-746.91C697.96,-715.83 679.55,-650.11 673,-593 671.07,-576.22 670.21,-571.66 673,-555 680.2,-512.02 704.51,-501.04 693,-459 688.15,-441.29 677.99,-423.51 668.55,-409.61"/>
<polygon fill="red" stroke="red" points="671.14,-407.22 662.51,-401.08 665.43,-411.26 671.14,-407.22"/>
<text text-anchor="middle" x="706" y="-577" font-family="Times,serif" font-size="10.00" fill="red">2.1.1</text>
<text text-anchor="middle" x="706" y="-566" font-family="Times,serif" font-size="10.00" fill="red">(latest: 2.1.5)</text>
</g>
<!-- roo_transceivers -->
<g id="node24" class="node">
<title>roo_transceivers</title>
<polygon fill="plum" stroke="red" points="516.5,-689 381.5,-689 381.5,-651 516.5,-651 516.5,-689"/>
<text text-anchor="middle" x="449" y="-673.8" font-family="Times,serif" font-size="14.00">roo_transceivers</text>
<text text-anchor="middle" x="449" y="-658.8" font-family="Times,serif" font-size="14.00">1.1.4</text>
</g>
<!-- roo_comms&#45;&gt;roo_transceivers -->
<g id="edge7" class="edge">
<title>roo_comms&#45;&gt;roo_transceivers</title>
<path fill="none" stroke="black" d="M664.43,-747.37C632.5,-735.81 589.8,-720.41 552,-707 538.64,-702.26 524.29,-697.21 510.67,-692.45"/>
<polygon fill="black" stroke="black" points="511.5,-689.03 500.9,-689.03 509.19,-695.64 511.5,-689.03"/>
</g>
<!-- roo_quantity -->
<g id="node18" class="node">
<title>roo_quantity</title>
<polygon fill="#b1dbab" stroke="black" points="885.5,-497 778.5,-497 778.5,-459 885.5,-459 885.5,-497"/>
<text text-anchor="middle" x="832" y="-481.8" font-family="Times,serif" font-size="14.00">roo_quantity</text>
<text text-anchor="middle" x="832" y="-466.8" font-family="Times,serif" font-size="14.00">1.1.8</text>
</g>
<!-- roo_control&#45;&gt;roo_quantity -->
<g id="edge8" class="edge">
<title>roo_control&#45;&gt;roo_quantity</title>
<path fill="none" stroke="red" d="M982.94,-554.88C952.81,-539.73 909.67,-518.04 877.22,-501.73"/>
<polygon fill="red" stroke="red" points="878.45,-498.43 867.94,-497.07 875.31,-504.69 878.45,-498.43"/>
<text text-anchor="middle" x="975" y="-529" font-family="Times,serif" font-size="10.00" fill="red">1.1.7</text>
<text text-anchor="middle" x="975" y="-518" font-family="Times,serif" font-size="10.00" fill="red">(latest: 1.1.8)</text>
</g>
<!-- roo_control&#45;&gt;roo_scheduler -->
<g id="edge9" class="edge">
<title>roo_control&#45;&gt;roo_scheduler</title>
<path fill="none" stroke="red" d="M970.42,-557.31C967.24,-556.48 964.09,-555.7 961,-555 957.22,-554.15 688.85,-515.41 685,-515 566.73,-502.46 535.36,-516.31 418,-497 417.9,-496.98 417.8,-496.97 417.69,-496.95"/>
<polygon fill="red" stroke="red" points="418.55,-493.55 408.08,-495.16 417.27,-500.43 418.55,-493.55"/>
<text text-anchor="middle" x="864" y="-529" font-family="Times,serif" font-size="10.00" fill="red">2.1.7</text>
<text text-anchor="middle" x="864" y="-518" font-family="Times,serif" font-size="10.00" fill="red">(latest: 2.1.9)</text>
</g>
<!-- roo_dashboard -->
<g id="node6" class="node">
<title>roo_dashboard</title>
<polygon fill="plum" stroke="red" points="260,-785 138,-785 138,-747 260,-747 260,-785"/>
<text text-anchor="middle" x="199" y="-769.8" font-family="Times,serif" font-size="14.00">roo_dashboard</text>
<text text-anchor="middle" x="199" y="-754.8" font-family="Times,serif" font-size="14.00">1.0.1</text>
</g>
<!-- roo_windows -->
<g id="node27" class="node">
<title>roo_windows</title>
<polygon fill="plum" stroke="red" points="354.5,-689 245.5,-689 245.5,-651 354.5,-651 354.5,-689"/>
<text text-anchor="middle" x="300" y="-673.8" font-family="Times,serif" font-size="14.00">roo_windows</text>
<text text-anchor="middle" x="300" y="-658.8" font-family="Times,serif" font-size="14.00">1.4.2</text>
</g>
<!-- roo_dashboard&#45;&gt;roo_windows -->
<g id="edge10" class="edge">
<title>roo_dashboard&#45;&gt;roo_windows</title>
<path fill="none" stroke="red" d="M213.96,-746.93C224.16,-735.06 238.26,-719.47 252,-707 256.35,-703.05 261.11,-699.1 265.89,-695.33"/>
<polygon fill="red" stroke="red" points="268.08,-698.07 273.89,-689.2 263.82,-692.51 268.08,-698.07"/>
<text text-anchor="middle" x="285" y="-721" font-family="Times,serif" font-size="10.00" fill="red">1.4.1</text>
<text text-anchor="middle" x="285" y="-710" font-family="Times,serif" font-size="10.00" fill="red">(latest: 1.4.2)</text>
</g>
<!-- roo_display -->
<g id="node7" class="node">
<title>roo_display</title>
<polygon fill="#b1dbab" stroke="black" points="274,-497 176,-497 176,-459 274,-459 274,-497"/>
<text text-anchor="middle" x="225" y="-481.8" font-family="Times,serif" font-size="14.00">roo_display</text>
<text text-anchor="middle" x="225" y="-466.8" font-family="Times,serif" font-size="14.00">3.0.2</text>
</g>
<!-- roo_display&#45;&gt;roo_collections -->
<g id="edge11" class="edge">
<title>roo_display&#45;&gt;roo_collections</title>
<path fill="none" stroke="black" d="M257.78,-458.88C285.06,-443.79 324.06,-422.23 353.51,-405.94"/>
<polygon fill="black" stroke="black" points="355.27,-408.97 362.32,-401.07 351.88,-402.84 355.27,-408.97"/>
</g>
<!-- roo_display&#45;&gt;roo_io -->
<g id="edge12" class="edge">
<title>roo_display&#45;&gt;roo_io</title>
<path fill="none" stroke="black" d="M274.18,-460.95C277.15,-460.22 280.1,-459.57 283,-459 375.81,-440.88 405.33,-471.01 495,-441 512.42,-435.17 513.29,-426.64 530,-419 555.11,-407.52 584.86,-398.48 608.2,-392.32"/>
<polygon fill="black" stroke="black" points="609.29,-395.66 618.11,-389.78 607.55,-388.87 609.29,-395.66"/>
</g>
<!-- roo_flags -->
<g id="node8" class="node">
<title>roo_flags</title>
<polygon fill="#b1dbab" stroke="black" points="756,-230 676,-230 676,-192 756,-192 756,-230"/>
<text text-anchor="middle" x="716" y="-214.8" font-family="Times,serif" font-size="14.00">roo_flags</text>
<text text-anchor="middle" x="716" y="-199.8" font-family="Times,serif" font-size="14.00">1.2.3</text>
</g>
<!-- roo_fonts_basic -->
<g id="node9" class="node">
<title>roo_fonts_basic</title>
<polygon fill="#b1dbab" stroke="red" points="126,-593 0,-593 0,-555 126,-555 126,-593"/>
<text text-anchor="middle" x="63" y="-577.8" font-family="Times,serif" font-size="14.00">roo_fonts_basic</text>
<text text-anchor="middle" x="63" y="-562.8" font-family="Times,serif" font-size="14.00">1.0.1</text>
</g>
<!-- roo_fonts_basic&#45;&gt;roo_display -->
<g id="edge13" class="edge">
<title>roo_fonts_basic&#45;&gt;roo_display</title>
<path fill="none" stroke="red" d="M94.24,-554.88C120.12,-539.86 157.08,-518.41 185.1,-502.15"/>
<polygon fill="red" stroke="red" points="186.97,-505.11 193.86,-497.07 183.45,-499.06 186.97,-505.11"/>
<text text-anchor="middle" x="192" y="-529" font-family="Times,serif" font-size="10.00" fill="red">3.0.1</text>
<text text-anchor="middle" x="192" y="-518" font-family="Times,serif" font-size="10.00" fill="red">(latest: 3.0.2)</text>
</g>
<!-- roo_icons -->
<g id="node10" class="node">
<title>roo_icons</title>
<polygon fill="#b1dbab" stroke="black" points="333.5,-593 250.5,-593 250.5,-555 333.5,-555 333.5,-593"/>
<text text-anchor="middle" x="292" y="-577.8" font-family="Times,serif" font-size="14.00">roo_icons</text>
<text text-anchor="middle" x="292" y="-562.8" font-family="Times,serif" font-size="14.00">1.2.2</text>
</g>
<!-- roo_icons&#45;&gt;roo_display -->
<g id="edge14" class="edge">
<title>roo_icons&#45;&gt;roo_display</title>
<path fill="none" stroke="black" d="M279.08,-554.88C269.07,-540.83 255.06,-521.17 243.8,-505.38"/>
<polygon fill="black" stroke="black" points="246.53,-503.18 237.88,-497.07 240.83,-507.24 246.53,-503.18"/>
</g>
<!-- roo_io&#45;&gt;roo_logging -->
<g id="edge15" class="edge">
<title>roo_io&#45;&gt;roo_logging</title>
<path fill="none" stroke="black" d="M665.06,-362.96C673.43,-354.09 683.67,-343.26 692.84,-333.56"/>
<polygon fill="black" stroke="black" points="695.58,-335.76 699.9,-326.09 690.49,-330.95 695.58,-335.76"/>
</g>
<!-- roo_locale -->
<g id="node12" class="node">
<title>roo_locale</title>
<polygon fill="#b1dbab" stroke="black" points="232,-593 144,-593 144,-555 232,-555 232,-593"/>
<text text-anchor="middle" x="188" y="-577.8" font-family="Times,serif" font-size="14.00">roo_locale</text>
<text text-anchor="middle" x="188" y="-562.8" font-family="Times,serif" font-size="14.00">1.1.2</text>
</g>
<!-- roo_logging&#45;&gt;roo_backport -->
<g id="edge16" class="edge">
<title>roo_logging&#45;&gt;roo_backport</title>
<path fill="none" stroke="black" d="M697.45,-287.83C680.01,-271.79 656.41,-250.55 651,-248 605.8,-226.67 589.07,-239.49 540,-230 535.27,-229.09 530.39,-228.1 525.49,-227.07"/>
<polygon fill="black" stroke="black" points="525.94,-223.59 515.43,-224.93 524.48,-230.44 525.94,-223.59"/>
</g>
<!-- roo_logging&#45;&gt;roo_flags -->
<g id="edge17" class="edge">
<title>roo_logging&#45;&gt;roo_flags</title>
<path fill="none" stroke="black" d="M716.81,-287.88C716.66,-274.35 716.46,-255.62 716.3,-240.15"/>
<polygon fill="black" stroke="black" points="719.8,-240.03 716.19,-230.07 712.8,-240.11 719.8,-240.03"/>
</g>
<!-- roo_threads -->
<g id="node21" class="node">
<title>roo_threads</title>
<polygon fill="#b1dbab" stroke="red" points="649.5,-230 548.5,-230 548.5,-192 649.5,-192 649.5,-230"/>
<text text-anchor="middle" x="599" y="-214.8" font-family="Times,serif" font-size="14.00">roo_threads</text>
<text text-anchor="middle" x="599" y="-199.8" font-family="Times,serif" font-size="14.00">1.2.3</text>
</g>
<!-- roo_logging&#45;&gt;roo_threads -->
<g id="edge18" class="edge">
<title>roo_logging&#45;&gt;roo_threads</title>
<path fill="none" stroke="black" d="M707.87,-287.86C700.84,-275.34 690.1,-259.03 677,-248 671.27,-243.18 664.79,-238.87 658.08,-235.04"/>
<polygon fill="black" stroke="black" points="659.3,-231.73 648.82,-230.14 656.02,-237.91 659.3,-231.73"/>
</g>
<!-- roo_monitoring -->
<g id="node14" class="node">
<title>roo_monitoring</title>
<polygon fill="plum" stroke="red" points="551.5,-497 426.5,-497 426.5,-459 551.5,-459 551.5,-497"/>
<text text-anchor="middle" x="489" y="-481.8" font-family="Times,serif" font-size="14.00">roo_monitoring</text>
<text text-anchor="middle" x="489" y="-466.8" font-family="Times,serif" font-size="14.00">1.0.0</text>
</g>
<!-- roo_monitoring&#45;&gt;roo_collections -->
<g id="edge19" class="edge">
<title>roo_monitoring&#45;&gt;roo_collections</title>
<path fill="none" stroke="red" d="M470.88,-458.88C456.57,-444.57 436.44,-424.44 420.51,-408.51"/>
<polygon fill="red" stroke="red" points="422.61,-405.66 413.07,-401.07 417.66,-410.61 422.61,-405.66"/>
<text text-anchor="middle" x="483" y="-433" font-family="Times,serif" font-size="10.00" fill="red">1.4.1</text>
<text text-anchor="middle" x="483" y="-422" font-family="Times,serif" font-size="10.00" fill="red">(latest: 1.4.3)</text>
</g>
<!-- roo_monitoring&#45;&gt;roo_io -->
<g id="edge20" class="edge">
<title>roo_monitoring&#45;&gt;roo_io</title>
<path fill="none" stroke="red" d="M509.96,-458.78C524.7,-446.54 545.24,-430.59 565,-419 578.76,-410.93 594.66,-403.59 608.85,-397.68"/>
<polygon fill="red" stroke="red" points="610.4,-400.83 618.34,-393.83 607.76,-394.35 610.4,-400.83"/>
<text text-anchor="middle" x="598" y="-433" font-family="Times,serif" font-size="10.00" fill="red">2.1.4</text>
<text text-anchor="middle" x="598" y="-422" font-family="Times,serif" font-size="10.00" fill="red">(latest: 2.1.5)</text>
</g>
<!-- roo_onewire -->
<g id="node15" class="node">
<title>roo_onewire</title>
<polygon fill="#b1dbab" stroke="black" points="852,-593 748,-593 748,-555 852,-555 852,-593"/>
<text text-anchor="middle" x="800" y="-577.8" font-family="Times,serif" font-size="14.00">roo_onewire</text>
<text text-anchor="middle" x="800" y="-562.8" font-family="Times,serif" font-size="14.00">2.0.9</text>
</g>
<!-- roo_onewire&#45;&gt;roo_quantity -->
<g id="edge22" class="edge">
<title>roo_onewire&#45;&gt;roo_quantity</title>
<path fill="none" stroke="black" d="M803.26,-554.92C805.62,-543.32 809.24,-528.04 814,-515 815.01,-512.23 816.18,-509.4 817.42,-506.59"/>
<polygon fill="black" stroke="black" points="820.69,-507.86 821.83,-497.33 814.37,-504.85 820.69,-507.86"/>
</g>
<!-- roo_onewire&#45;&gt;roo_scheduler -->
<g id="edge21" class="edge">
<title>roo_onewire&#45;&gt;roo_scheduler</title>
<path fill="none" stroke="black" d="M747.9,-558.18C743.22,-557.04 738.53,-555.95 734,-555 681.23,-543.89 667.11,-546.4 614,-537 526.45,-521.51 504.56,-517.27 418,-497 417.9,-496.98 417.8,-496.95 417.7,-496.93"/>
<polygon fill="black" stroke="black" points="418.73,-493.58 408.18,-494.64 417.09,-500.38 418.73,-493.58"/>
</g>
<!-- roo_powersafefs -->
<g id="node16" class="node">
<title>roo_powersafefs</title>
<polygon fill="plum" stroke="red" points="648.5,-326 515.5,-326 515.5,-288 648.5,-288 648.5,-326"/>
<text text-anchor="middle" x="582" y="-310.8" font-family="Times,serif" font-size="14.00">roo_powersafefs</text>
<text text-anchor="middle" x="582" y="-295.8" font-family="Times,serif" font-size="14.00">1.0.0</text>
</g>
<!-- roo_powersafefs&#45;&gt;roo_threads -->
<g id="edge23" class="edge">
<title>roo_powersafefs&#45;&gt;roo_threads</title>
<path fill="none" stroke="red" d="M585.28,-287.88C587.72,-274.35 591.11,-255.62 593.91,-240.15"/>
<polygon fill="red" stroke="red" points="597.4,-240.53 595.73,-230.07 590.51,-239.29 597.4,-240.53"/>
<text text-anchor="middle" x="625" y="-262" font-family="Times,serif" font-size="10.00" fill="red">1.2.1</text>
<text text-anchor="middle" x="625" y="-251" font-family="Times,serif" font-size="10.00" fill="red">(latest: 1.2.3)</text>
</g>
<!-- roo_prefs -->
<g id="node17" class="node">
<title>roo_prefs</title>
<polygon fill="#b1dbab" stroke="black" points="556.5,-593 473.5,-593 473.5,-555 556.5,-555 556.5,-593"/>
<text text-anchor="middle" x="515" y="-577.8" font-family="Times,serif" font-size="14.00">roo_prefs</text>
<text text-anchor="middle" x="515" y="-562.8" font-family="Times,serif" font-size="14.00">1.2.9</text>
</g>
<!-- roo_prefs&#45;&gt;roo_logging -->
<g id="edge24" class="edge">
<title>roo_prefs&#45;&gt;roo_logging</title>
<path fill="none" stroke="black" d="M556.86,-563.21C595.77,-552.39 653.5,-531.71 693,-497 714.7,-477.93 718.4,-468.87 726,-441 735.62,-405.72 729.94,-363.32 724.17,-336.03"/>
<polygon fill="black" stroke="black" points="727.53,-334.99 721.91,-326.01 720.7,-336.54 727.53,-334.99"/>
</g>
<!-- roo_prefs&#45;&gt;roo_scheduler -->
<g id="edge25" class="edge">
<title>roo_prefs&#45;&gt;roo_scheduler</title>
<path fill="none" stroke="black" d="M483.19,-554.88C456.82,-539.86 419.18,-518.41 390.64,-502.15"/>
<polygon fill="black" stroke="black" points="392.14,-498.98 381.72,-497.07 388.67,-505.06 392.14,-498.98"/>
</g>
<!-- roo_quantity&#45;&gt;roo_logging -->
<g id="edge26" class="edge">
<title>roo_quantity&#45;&gt;roo_logging</title>
<path fill="none" stroke="black" d="M825.65,-458.73C815.6,-431.61 794.06,-380.05 764,-344 760.71,-340.05 756.92,-336.28 752.94,-332.75"/>
<polygon fill="black" stroke="black" points="755.08,-329.99 745.14,-326.31 750.62,-335.38 755.08,-329.99"/>
</g>
<!-- roo_scheduler&#45;&gt;roo_collections -->
<g id="edge27" class="edge">
<title>roo_scheduler&#45;&gt;roo_collections</title>
<path fill="none" stroke="black" d="M358.26,-458.91C363.54,-447.44 370.58,-432.3 377,-419 378.35,-416.2 379.78,-413.28 381.22,-410.37"/>
<polygon fill="black" stroke="black" points="384.42,-411.78 385.74,-401.27 378.16,-408.66 384.42,-411.78"/>
</g>
<!-- roo_scheduler&#45;&gt;roo_threads -->
<g id="edge28" class="edge">
<title>roo_scheduler&#45;&gt;roo_threads</title>
<path fill="none" stroke="black" d="M408.21,-460.89C437.61,-452.53 467.61,-443.53 470,-441 518.11,-390.21 469.91,-347.32 507,-288 520.14,-266.98 541.1,-249 559.7,-235.82"/>
<polygon fill="black" stroke="black" points="561.77,-238.64 568.04,-230.11 557.81,-232.87 561.77,-238.64"/>
</g>
<!-- roo_testing -->
<g id="node20" class="node">
<title>roo_testing</title>
<polygon fill="#b1dbab" stroke="black" points="769.5,-38 672.5,-38 672.5,0 769.5,0 769.5,-38"/>
<text text-anchor="middle" x="721" y="-22.8" font-family="Times,serif" font-size="14.00">roo_testing</text>
<text text-anchor="middle" x="721" y="-7.8" font-family="Times,serif" font-size="14.00">1.3.4</text>
</g>
<!-- roo_time -->
<g id="node22" class="node">
<title>roo_time</title>
<polygon fill="#b1dbab" stroke="red" points="760.5,-134 681.5,-134 681.5,-96 760.5,-96 760.5,-134"/>
<text text-anchor="middle" x="721" y="-118.8" font-family="Times,serif" font-size="14.00">roo_time</text>
<text text-anchor="middle" x="721" y="-103.8" font-family="Times,serif" font-size="14.00">1.4.3</text>
</g>
<!-- roo_threads&#45;&gt;roo_time -->
<g id="edge29" class="edge">
<title>roo_threads&#45;&gt;roo_time</title>
<path fill="none" stroke="black" d="M622.52,-191.88C641.59,-177.18 668.65,-156.34 689.57,-140.21"/>
<polygon fill="black" stroke="black" points="691.76,-142.94 697.55,-134.07 687.49,-137.4 691.76,-142.94"/>
</g>
<!-- roo_time&#45;&gt;roo_testing -->
<g id="edge30" class="edge">
<title>roo_time&#45;&gt;roo_testing</title>
<path fill="none" stroke="red" d="M721,-95.88C721,-82.35 721,-63.62 721,-48.15"/>
<polygon fill="red" stroke="red" points="724.5,-48.07 721,-38.07 717.5,-48.07 724.5,-48.07"/>
<text text-anchor="middle" x="754" y="-70" font-family="Times,serif" font-size="10.00" fill="red">1.3.2</text>
<text text-anchor="middle" x="754" y="-59" font-family="Times,serif" font-size="10.00" fill="red">(latest: 1.3.4)</text>
</g>
<!-- roo_time_ds3231 -->
<g id="node23" class="node">
<title>roo_time_ds3231</title>
<polygon fill="plum" stroke="red" points="912,-230 774,-230 774,-192 912,-192 912,-230"/>
<text text-anchor="middle" x="843" y="-214.8" font-family="Times,serif" font-size="14.00">roo_time_ds3231</text>
<text text-anchor="middle" x="843" y="-199.8" font-family="Times,serif" font-size="14.00">1.1.5</text>
</g>
<!-- roo_time_ds3231&#45;&gt;roo_time -->
<g id="edge31" class="edge">
<title>roo_time_ds3231&#45;&gt;roo_time</title>
<path fill="none" stroke="red" d="M819.48,-191.88C800.41,-177.18 773.35,-156.34 752.43,-140.21"/>
<polygon fill="red" stroke="red" points="754.51,-137.4 744.45,-134.07 750.24,-142.94 754.51,-137.4"/>
<text text-anchor="middle" x="825" y="-166" font-family="Times,serif" font-size="10.00" fill="red">1.4.1</text>
<text text-anchor="middle" x="825" y="-155" font-family="Times,serif" font-size="10.00" fill="red">(latest: 1.4.3)</text>
</g>
<!-- roo_transceivers&#45;&gt;roo_prefs -->
<g id="edge32" class="edge">
<title>roo_transceivers&#45;&gt;roo_prefs</title>
<path fill="none" stroke="red" d="M451.6,-650.97C454.04,-638.82 458.62,-622.89 467,-611 469.78,-607.06 473.12,-603.36 476.74,-599.96"/>
<polygon fill="red" stroke="red" points="479.11,-602.53 484.44,-593.38 474.57,-597.21 479.11,-602.53"/>
<text text-anchor="middle" x="500" y="-625" font-family="Times,serif" font-size="10.00" fill="red">1.2.7</text>
<text text-anchor="middle" x="500" y="-614" font-family="Times,serif" font-size="10.00" fill="red">(latest: 1.2.9)</text>
</g>
<!-- roo_transport -->
<g id="node25" class="node">
<title>roo_transport</title>
<polygon fill="#b1dbab" stroke="black" points="684,-497 570,-497 570,-459 684,-459 684,-497"/>
<text text-anchor="middle" x="627" y="-481.8" font-family="Times,serif" font-size="14.00">roo_transport</text>
<text text-anchor="middle" x="627" y="-466.8" font-family="Times,serif" font-size="14.00">1.1.2</text>
</g>
<!-- roo_transport&#45;&gt;roo_collections -->
<g id="edge33" class="edge">
<title>roo_transport&#45;&gt;roo_collections</title>
<path fill="none" stroke="black" d="M626.21,-458.87C624.64,-445.86 620.35,-428.92 609,-419 588.05,-400.69 520.01,-391.52 466.21,-387.04"/>
<polygon fill="black" stroke="black" points="466.25,-383.54 456.01,-386.24 465.7,-390.51 466.25,-383.54"/>
</g>
<!-- roo_transport&#45;&gt;roo_io -->
<g id="edge34" class="edge">
<title>roo_transport&#45;&gt;roo_io</title>
<path fill="none" stroke="black" d="M631.05,-458.88C634.07,-445.35 638.26,-426.62 641.71,-411.15"/>
<polygon fill="black" stroke="black" points="645.2,-411.59 643.96,-401.07 638.37,-410.06 645.2,-411.59"/>
</g>
<!-- roo_wifi -->
<g id="node26" class="node">
<title>roo_wifi</title>
<polygon fill="plum" stroke="red" points="607,-689 535,-689 535,-651 607,-651 607,-689"/>
<text text-anchor="middle" x="571" y="-673.8" font-family="Times,serif" font-size="14.00">roo_wifi</text>
<text text-anchor="middle" x="571" y="-658.8" font-family="Times,serif" font-size="14.00">1.1.3</text>
</g>
<!-- roo_wifi&#45;&gt;roo_prefs -->
<g id="edge35" class="edge">
<title>roo_wifi&#45;&gt;roo_prefs</title>
<path fill="none" stroke="red" d="M560.2,-650.88C551.91,-636.96 540.34,-617.53 530.98,-601.82"/>
<polygon fill="red" stroke="red" points="533.89,-599.87 525.76,-593.07 527.88,-603.45 533.89,-599.87"/>
<text text-anchor="middle" x="581" y="-625" font-family="Times,serif" font-size="10.00" fill="red">1.2.7</text>
<text text-anchor="middle" x="581" y="-614" font-family="Times,serif" font-size="10.00" fill="red">(latest: 1.2.9)</text>
</g>
<!-- roo_windows&#45;&gt;roo_icons -->
<g id="edge37" class="edge">
<title>roo_windows&#45;&gt;roo_icons</title>
<path fill="none" stroke="red" d="M294.54,-650.85C293.09,-645.19 291.72,-638.88 291,-633 289.81,-623.34 289.66,-612.71 289.94,-603.22"/>
<polygon fill="red" stroke="red" points="293.44,-603.24 290.4,-593.09 286.45,-602.93 293.44,-603.24"/>
<text text-anchor="middle" x="324" y="-625" font-family="Times,serif" font-size="10.00" fill="red">1.2.1</text>
<text text-anchor="middle" x="324" y="-614" font-family="Times,serif" font-size="10.00" fill="red">(latest: 1.2.2)</text>
</g>
<!-- roo_windows&#45;&gt;roo_locale -->
<g id="edge36" class="edge">
<title>roo_windows&#45;&gt;roo_locale</title>
<path fill="none" stroke="red" d="M246.67,-650.84C237.1,-646.02 227.73,-640.12 220,-633 210.94,-624.65 203.85,-613.12 198.68,-602.54"/>
<polygon fill="red" stroke="red" points="201.77,-600.88 194.46,-593.21 195.39,-603.77 201.77,-600.88"/>
<text text-anchor="middle" x="253" y="-625" font-family="Times,serif" font-size="10.00" fill="red">1.1.1</text>
<text text-anchor="middle" x="253" y="-614" font-family="Times,serif" font-size="10.00" fill="red">(latest: 1.1.2)</text>
</g>
<!-- roo_windows&#45;&gt;roo_scheduler -->
<g id="edge38" class="edge">
<title>roo_windows&#45;&gt;roo_scheduler</title>
<path fill="none" stroke="red" d="M340.28,-650.97C346.99,-646.12 353.05,-640.18 357,-633 378.68,-593.66 368.93,-539.71 359.63,-507.22"/>
<polygon fill="red" stroke="red" points="362.93,-506.02 356.67,-497.47 356.23,-508.05 362.93,-506.02"/>
<text text-anchor="middle" x="403" y="-577" font-family="Times,serif" font-size="10.00" fill="red">2.1.6</text>
<text text-anchor="middle" x="403" y="-566" font-family="Times,serif" font-size="10.00" fill="red">(latest: 2.1.9)</text>
</g>
<!-- roo_windows_transceivers -->
<g id="node28" class="node">
<title>roo_windows_transceivers</title>
<polygon fill="plum" stroke="red" points="482,-785 278,-785 278,-747 482,-747 482,-785"/>
<text text-anchor="middle" x="380" y="-769.8" font-family="Times,serif" font-size="14.00">roo_windows_transceivers</text>
<text text-anchor="middle" x="380" y="-754.8" font-family="Times,serif" font-size="14.00">1.0.0</text>
</g>
<!-- roo_windows_transceivers&#45;&gt;roo_transceivers -->
<g id="edge39" class="edge">
<title>roo_windows_transceivers&#45;&gt;roo_transceivers</title>
<path fill="none" stroke="red" d="M393.3,-746.88C403.61,-732.83 418.05,-713.17 429.63,-697.38"/>
<polygon fill="red" stroke="red" points="432.64,-699.2 435.74,-689.07 427,-695.06 432.64,-699.2"/>
<text text-anchor="middle" x="453" y="-721" font-family="Times,serif" font-size="10.00" fill="red">1.1.3</text>
<text text-anchor="middle" x="453" y="-710" font-family="Times,serif" font-size="10.00" fill="red">(latest: 1.1.4)</text>
</g>
<!-- roo_windows_transceivers&#45;&gt;roo_windows -->
<g id="edge40" class="edge">
<title>roo_windows_transceivers&#45;&gt;roo_windows</title>
<path fill="none" stroke="red" d="M356.25,-746.67C349.98,-741.3 343.45,-735.2 338,-729 329.64,-719.49 321.73,-708 315.32,-697.77"/>
<polygon fill="red" stroke="red" points="318.28,-695.9 310.1,-689.18 312.3,-699.54 318.28,-695.9"/>
<text text-anchor="middle" x="371" y="-721" font-family="Times,serif" font-size="10.00" fill="red">1.4.1</text>
<text text-anchor="middle" x="371" y="-710" font-family="Times,serif" font-size="10.00" fill="red">(latest: 1.4.2)</text>
</g>
<!-- roo_windows_wifi -->
<g id="node29" class="node">
<title>roo_windows_wifi</title>
<polygon fill="plum" stroke="red" points="641.5,-785 500.5,-785 500.5,-747 641.5,-747 641.5,-785"/>
<text text-anchor="middle" x="571" y="-769.8" font-family="Times,serif" font-size="14.00">roo_windows_wifi</text>
<text text-anchor="middle" x="571" y="-754.8" font-family="Times,serif" font-size="14.00">1.1.3</text>
</g>
<!-- roo_windows_wifi&#45;&gt;roo_wifi -->
<g id="edge41" class="edge">
<title>roo_windows_wifi&#45;&gt;roo_wifi</title>
<path fill="none" stroke="black" d="M571,-746.88C571,-733.35 571,-714.62 571,-699.15"/>
<polygon fill="black" stroke="black" points="574.5,-699.07 571,-689.07 567.5,-699.07 574.5,-699.07"/>
</g>
<!-- roo_windows_wifi&#45;&gt;roo_windows -->
<g id="edge42" class="edge">
<title>roo_windows_wifi&#45;&gt;roo_windows</title>
<path fill="none" stroke="black" d="M551.3,-746.81C535.81,-733.58 513.06,-716.4 490,-707 441.28,-687.14 424.59,-699.31 373,-689 370.33,-688.47 367.61,-687.9 364.87,-687.31"/>
<polygon fill="black" stroke="black" points="365.41,-683.85 354.89,-685.09 363.89,-690.68 365.41,-683.85"/>
</g>
</g>
</svg>
