<?xml version="1.0" encoding="UTF-8" standalone="no"?>
<!DOCTYPE svg PUBLIC "-//W3C//DTD SVG 1.1//EN"
 "http://www.w3.org/Graphics/SVG/1.1/DTD/svg11.dtd">
<!-- Generated by graphviz version 2.42.4 (0)
 -->
<!-- Title: dependencies Pages: 1 -->
<svg width="784pt" height="767pt"
 viewBox="0.00 0.00 784.00 767.00" xmlns="http://www.w3.org/2000/svg" xmlns:xlink="http://www.w3.org/1999/xlink">
<g id="graph0" class="graph" transform="scale(1 1) rotate(0) translate(4 763)">
<title>dependencies</title>
<polygon fill="white" stroke="transparent" points="-4,4 -4,-763 780,-763 780,4 -4,4"/>
<!-- roo_backport -->
<g id="node1" class="node">
<title>roo_backport</title>
<polygon fill="#b1dbab" stroke="black" points="465,-188 355,-188 355,-150 465,-150 465,-188"/>
<text text-anchor="middle" x="410" y="-172.8" font-family="Times,serif" font-size="14.00">roo_backport</text>
<text text-anchor="middle" x="410" y="-157.8" font-family="Times,serif" font-size="14.00">1.2.0</text>
</g>
<!-- roo_blink -->
<g id="node2" class="node">
<title>roo_blink</title>
<polygon fill="plum" stroke="red" points="82,-455 0,-455 0,-417 82,-417 82,-455"/>
<text text-anchor="middle" x="41" y="-439.8" font-family="Times,serif" font-size="14.00">roo_blink</text>
<text text-anchor="middle" x="41" y="-424.8" font-family="Times,serif" font-size="14.00">1.0.4</text>
</g>
<!-- roo_logging -->
<g id="node12" class="node">
<title>roo_logging</title>
<polygon fill="#b1dbab" stroke="black" points="347,-263 247,-263 247,-225 347,-225 347,-263"/>
<text text-anchor="middle" x="297" y="-247.8" font-family="Times,serif" font-size="14.00">roo_logging</text>
<text text-anchor="middle" x="297" y="-232.8" font-family="Times,serif" font-size="14.00">1.5.2</text>
</g>
<!-- roo_blink&#45;&gt;roo_logging -->
<g id="edge1" class="edge">
<title>roo_blink&#45;&gt;roo_logging</title>
<path fill="none" stroke="red" d="M40.66,-416.97C41.16,-392.43 45.58,-348.44 69,-321 110.52,-272.36 184.06,-254.72 236.39,-248.39"/>
<polygon fill="red" stroke="red" points="237,-251.85 246.56,-247.27 236.23,-244.89 237,-251.85"/>
<text text-anchor="middle" x="102" y="-343" font-family="Times,serif" font-size="10.00" fill="red">1.5.1</text>
<text text-anchor="middle" x="102" y="-332" font-family="Times,serif" font-size="10.00" fill="red">(latest: 1.5.2)</text>
</g>
<!-- roo_scheduler -->
<g id="node16" class="node">
<title>roo_scheduler</title>
<polygon fill="#b1dbab" stroke="black" points="343,-359 227,-359 227,-321 343,-321 343,-359"/>
<text text-anchor="middle" x="285" y="-343.8" font-family="Times,serif" font-size="14.00">roo_scheduler</text>
<text text-anchor="middle" x="285" y="-328.8" font-family="Times,serif" font-size="14.00">2.1.6</text>
</g>
<!-- roo_blink&#45;&gt;roo_scheduler -->
<g id="edge2" class="edge">
<title>roo_blink&#45;&gt;roo_scheduler</title>
<path fill="none" stroke="black" d="M82.12,-419.16C122.23,-403.71 183.57,-380.08 228.3,-362.84"/>
<polygon fill="black" stroke="black" points="229.79,-366.02 237.86,-359.16 227.27,-359.49 229.79,-366.02"/>
</g>
<!-- roo_collections -->
<g id="node3" class="node">
<title>roo_collections</title>
<polygon fill="#b1dbab" stroke="black" points="600,-263 478,-263 478,-225 600,-225 600,-263"/>
<text text-anchor="middle" x="539" y="-247.8" font-family="Times,serif" font-size="14.00">roo_collections</text>
<text text-anchor="middle" x="539" y="-232.8" font-family="Times,serif" font-size="14.00">1.4.0</text>
</g>
<!-- roo_collections&#45;&gt;roo_backport -->
<g id="edge3" class="edge">
<title>roo_collections&#45;&gt;roo_backport</title>
<path fill="none" stroke="black" d="M507.11,-224.96C490.21,-215.39 469.26,-203.53 451.14,-193.28"/>
<polygon fill="black" stroke="black" points="452.39,-189.97 441.97,-188.09 448.95,-196.06 452.39,-189.97"/>
</g>
<!-- roo_comms -->
<g id="node4" class="node">
<title>roo_comms</title>
<polygon fill="plum" stroke="red" points="401.5,-663 304.5,-663 304.5,-625 401.5,-625 401.5,-663"/>
<text text-anchor="middle" x="353" y="-647.8" font-family="Times,serif" font-size="14.00">roo_comms</text>
<text text-anchor="middle" x="353" y="-632.8" font-family="Times,serif" font-size="14.00">1.1.3</text>
</g>
<!-- roo_comms&#45;&gt;roo_blink -->
<g id="edge4" class="edge">
<title>roo_comms&#45;&gt;roo_blink</title>
<path fill="none" stroke="black" d="M316.17,-624.9C281.65,-607.44 229.05,-579.51 186,-551 143.72,-523 98.26,-486.02 69.73,-461.88"/>
<polygon fill="black" stroke="black" points="71.68,-458.94 61.8,-455.13 67.15,-464.27 71.68,-458.94"/>
</g>
<!-- roo_control -->
<g id="node5" class="node">
<title>roo_control</title>
<polygon fill="plum" stroke="red" points="298.5,-455 201.5,-455 201.5,-417 298.5,-417 298.5,-455"/>
<text text-anchor="middle" x="250" y="-439.8" font-family="Times,serif" font-size="14.00">roo_control</text>
<text text-anchor="middle" x="250" y="-424.8" font-family="Times,serif" font-size="14.00">1.2.3</text>
</g>
<!-- roo_comms&#45;&gt;roo_control -->
<g id="edge5" class="edge">
<title>roo_comms&#45;&gt;roo_control</title>
<path fill="none" stroke="black" d="M355.07,-624.98C357.25,-598.73 358.07,-549.14 339,-513 327.83,-491.84 308.11,-474.07 290.07,-461.05"/>
<polygon fill="black" stroke="black" points="291.61,-457.85 281.39,-455.04 287.62,-463.61 291.61,-457.85"/>
</g>
<!-- roo_io -->
<g id="node10" class="node">
<title>roo_io</title>
<polygon fill="plum" stroke="red" points="545.5,-359 486.5,-359 486.5,-321 545.5,-321 545.5,-359"/>
<text text-anchor="middle" x="516" y="-343.8" font-family="Times,serif" font-size="14.00">roo_io</text>
<text text-anchor="middle" x="516" y="-328.8" font-family="Times,serif" font-size="14.00">2.1.1</text>
</g>
<!-- roo_comms&#45;&gt;roo_io -->
<g id="edge6" class="edge">
<title>roo_comms&#45;&gt;roo_io</title>
<path fill="none" stroke="black" d="M361.68,-624.7C364.36,-619.03 367.31,-612.76 370,-607 393.79,-556 442.62,-422.31 476,-377 478.69,-373.35 481.8,-369.78 485.07,-366.41"/>
<polygon fill="black" stroke="black" points="487.62,-368.82 492.4,-359.36 482.77,-363.77 487.62,-368.82"/>
</g>
<!-- roo_transceivers -->
<g id="node21" class="node">
<title>roo_transceivers</title>
<polygon fill="plum" stroke="red" points="330.5,-551 195.5,-551 195.5,-513 330.5,-513 330.5,-551"/>
<text text-anchor="middle" x="263" y="-535.8" font-family="Times,serif" font-size="14.00">roo_transceivers</text>
<text text-anchor="middle" x="263" y="-520.8" font-family="Times,serif" font-size="14.00">1.1.4</text>
</g>
<!-- roo_comms&#45;&gt;roo_transceivers -->
<g id="edge7" class="edge">
<title>roo_comms&#45;&gt;roo_transceivers</title>
<path fill="none" stroke="black" d="M338.14,-624.84C323.48,-606.92 300.93,-579.36 284.36,-559.1"/>
<polygon fill="black" stroke="black" points="286.93,-556.71 277.88,-551.19 281.51,-561.15 286.93,-556.71"/>
</g>
<!-- roo_quantity -->
<g id="node15" class="node">
<title>roo_quantity</title>
<polygon fill="#b1dbab" stroke="red" points="468.5,-359 361.5,-359 361.5,-321 468.5,-321 468.5,-359"/>
<text text-anchor="middle" x="415" y="-343.8" font-family="Times,serif" font-size="14.00">roo_quantity</text>
<text text-anchor="middle" x="415" y="-328.8" font-family="Times,serif" font-size="14.00">1.1.5</text>
</g>
<!-- roo_control&#45;&gt;roo_quantity -->
<g id="edge8" class="edge">
<title>roo_control&#45;&gt;roo_quantity</title>
<path fill="none" stroke="black" d="M281.81,-416.88C308.18,-401.86 345.82,-380.41 374.36,-364.15"/>
<polygon fill="black" stroke="black" points="376.33,-367.06 383.28,-359.07 372.86,-360.98 376.33,-367.06"/>
</g>
<!-- roo_control&#45;&gt;roo_scheduler -->
<g id="edge9" class="edge">
<title>roo_control&#45;&gt;roo_scheduler</title>
<path fill="none" stroke="black" d="M256.75,-416.88C261.83,-403.22 268.89,-384.26 274.68,-368.71"/>
<polygon fill="black" stroke="black" points="278.06,-369.66 278.27,-359.07 271.5,-367.22 278.06,-369.66"/>
</g>
<!-- roo_dashboard -->
<g id="node6" class="node">
<title>roo_dashboard</title>
<polygon fill="plum" stroke="red" points="568,-759 446,-759 446,-721 568,-721 568,-759"/>
<text text-anchor="middle" x="507" y="-743.8" font-family="Times,serif" font-size="14.00">roo_dashboard</text>
<text text-anchor="middle" x="507" y="-728.8" font-family="Times,serif" font-size="14.00">1.0.1</text>
</g>
<!-- roo_windows -->
<g id="node24" class="node">
<title>roo_windows</title>
<polygon fill="plum" stroke="red" points="561.5,-663 452.5,-663 452.5,-625 561.5,-625 561.5,-663"/>
<text text-anchor="middle" x="507" y="-647.8" font-family="Times,serif" font-size="14.00">roo_windows</text>
<text text-anchor="middle" x="507" y="-632.8" font-family="Times,serif" font-size="14.00">1.4.1</text>
</g>
<!-- roo_dashboard&#45;&gt;roo_windows -->
<g id="edge10" class="edge">
<title>roo_dashboard&#45;&gt;roo_windows</title>
<path fill="none" stroke="black" d="M507,-720.88C507,-707.35 507,-688.62 507,-673.15"/>
<polygon fill="black" stroke="black" points="510.5,-673.07 507,-663.07 503.5,-673.07 510.5,-673.07"/>
</g>
<!-- roo_display -->
<g id="node7" class="node">
<title>roo_display</title>
<polygon fill="plum" stroke="red" points="745,-455 647,-455 647,-417 745,-417 745,-455"/>
<text text-anchor="middle" x="696" y="-439.8" font-family="Times,serif" font-size="14.00">roo_display</text>
<text text-anchor="middle" x="696" y="-424.8" font-family="Times,serif" font-size="14.00">2.3.1</text>
</g>
<!-- roo_display&#45;&gt;roo_collections -->
<g id="edge11" class="edge">
<title>roo_display&#45;&gt;roo_collections</title>
<path fill="none" stroke="red" d="M702.52,-416.78C709.87,-392.8 718.55,-350.27 700,-321 680.12,-289.63 643.44,-270.97 610.11,-259.99"/>
<polygon fill="red" stroke="red" points="610.94,-256.59 600.35,-256.96 608.87,-263.27 610.94,-256.59"/>
<text text-anchor="middle" x="743" y="-343" font-family="Times,serif" font-size="10.00" fill="red">1.3.2</text>
<text text-anchor="middle" x="743" y="-332" font-family="Times,serif" font-size="10.00" fill="red">(latest: 1.4.0)</text>
</g>
<!-- roo_display&#45;&gt;roo_io -->
<g id="edge12" class="edge">
<title>roo_display&#45;&gt;roo_io</title>
<path fill="none" stroke="red" d="M661.29,-416.88C630.7,-400.9 586.2,-377.66 554.52,-361.11"/>
<polygon fill="red" stroke="red" points="556.02,-357.95 545.53,-356.42 552.78,-364.16 556.02,-357.95"/>
<text text-anchor="middle" x="655" y="-391" font-family="Times,serif" font-size="10.00" fill="red">2.0.2</text>
<text text-anchor="middle" x="655" y="-380" font-family="Times,serif" font-size="10.00" fill="red">(latest: 2.1.1)</text>
</g>
<!-- roo_flags -->
<g id="node8" class="node">
<title>roo_flags</title>
<polygon fill="#b1dbab" stroke="black" points="337,-188 257,-188 257,-150 337,-150 337,-188"/>
<text text-anchor="middle" x="297" y="-172.8" font-family="Times,serif" font-size="14.00">roo_flags</text>
<text text-anchor="middle" x="297" y="-157.8" font-family="Times,serif" font-size="14.00">1.2.0</text>
</g>
<!-- roo_icons -->
<g id="node9" class="node">
<title>roo_icons</title>
<polygon fill="plum" stroke="red" points="720.5,-551 637.5,-551 637.5,-513 720.5,-513 720.5,-551"/>
<text text-anchor="middle" x="679" y="-535.8" font-family="Times,serif" font-size="14.00">roo_icons</text>
<text text-anchor="middle" x="679" y="-520.8" font-family="Times,serif" font-size="14.00">1.2.1</text>
</g>
<!-- roo_icons&#45;&gt;roo_display -->
<g id="edge13" class="edge">
<title>roo_icons&#45;&gt;roo_display</title>
<path fill="none" stroke="black" d="M682.28,-512.88C684.72,-499.35 688.11,-480.62 690.91,-465.15"/>
<polygon fill="black" stroke="black" points="694.4,-465.53 692.73,-455.07 687.51,-464.29 694.4,-465.53"/>
</g>
<!-- roo_io&#45;&gt;roo_logging -->
<g id="edge14" class="edge">
<title>roo_io&#45;&gt;roo_logging</title>
<path fill="none" stroke="red" d="M495.94,-320.89C480.75,-308.06 458.83,-291.35 437,-281 411.97,-269.14 382.51,-260.82 357.08,-255.18"/>
<polygon fill="red" stroke="red" points="357.7,-251.74 347.19,-253.08 356.24,-258.58 357.7,-251.74"/>
<text text-anchor="middle" x="505" y="-295" font-family="Times,serif" font-size="10.00" fill="red">1.5.1</text>
<text text-anchor="middle" x="505" y="-284" font-family="Times,serif" font-size="10.00" fill="red">(latest: 1.5.2)</text>
</g>
<!-- roo_locale -->
<g id="node11" class="node">
<title>roo_locale</title>
<polygon fill="#b1dbab" stroke="black" points="603,-551 515,-551 515,-513 603,-513 603,-551"/>
<text text-anchor="middle" x="559" y="-535.8" font-family="Times,serif" font-size="14.00">roo_locale</text>
<text text-anchor="middle" x="559" y="-520.8" font-family="Times,serif" font-size="14.00">1.1.1</text>
</g>
<!-- roo_logging&#45;&gt;roo_backport -->
<g id="edge15" class="edge">
<title>roo_logging&#45;&gt;roo_backport</title>
<path fill="none" stroke="black" d="M324.93,-224.96C339.6,-215.48 357.76,-203.75 373.52,-193.57"/>
<polygon fill="black" stroke="black" points="375.5,-196.46 382,-188.09 371.7,-190.58 375.5,-196.46"/>
</g>
<!-- roo_logging&#45;&gt;roo_flags -->
<g id="edge16" class="edge">
<title>roo_logging&#45;&gt;roo_flags</title>
<path fill="none" stroke="black" d="M297,-224.96C297,-216.88 297,-207.18 297,-198.18"/>
<polygon fill="black" stroke="black" points="300.5,-198.09 297,-188.09 293.5,-198.09 300.5,-198.09"/>
</g>
<!-- roo_threads -->
<g id="node18" class="node">
<title>roo_threads</title>
<polygon fill="#b1dbab" stroke="black" points="238.5,-188 137.5,-188 137.5,-150 238.5,-150 238.5,-188"/>
<text text-anchor="middle" x="188" y="-172.8" font-family="Times,serif" font-size="14.00">roo_threads</text>
<text text-anchor="middle" x="188" y="-157.8" font-family="Times,serif" font-size="14.00">1.2.0</text>
</g>
<!-- roo_logging&#45;&gt;roo_threads -->
<g id="edge17" class="edge">
<title>roo_logging&#45;&gt;roo_threads</title>
<path fill="none" stroke="black" d="M270.06,-224.96C256.04,-215.57 238.72,-203.97 223.61,-193.85"/>
<polygon fill="black" stroke="black" points="225.27,-190.75 215.01,-188.09 221.37,-196.56 225.27,-190.75"/>
</g>
<!-- roo_onewire -->
<g id="node13" class="node">
<title>roo_onewire</title>
<polygon fill="plum" stroke="red" points="421,-455 317,-455 317,-417 421,-417 421,-455"/>
<text text-anchor="middle" x="369" y="-439.8" font-family="Times,serif" font-size="14.00">roo_onewire</text>
<text text-anchor="middle" x="369" y="-424.8" font-family="Times,serif" font-size="14.00">2.0.7</text>
</g>
<!-- roo_onewire&#45;&gt;roo_quantity -->
<g id="edge19" class="edge">
<title>roo_onewire&#45;&gt;roo_quantity</title>
<path fill="none" stroke="black" d="M377.87,-416.88C384.61,-403.09 394.01,-383.9 401.66,-368.26"/>
<polygon fill="black" stroke="black" points="404.91,-369.59 406.16,-359.07 398.62,-366.51 404.91,-369.59"/>
</g>
<!-- roo_onewire&#45;&gt;roo_scheduler -->
<g id="edge18" class="edge">
<title>roo_onewire&#45;&gt;roo_scheduler</title>
<path fill="none" stroke="black" d="M352.8,-416.88C340.14,-402.7 322.36,-382.81 308.18,-366.94"/>
<polygon fill="black" stroke="black" points="310.42,-364.19 301.15,-359.07 305.2,-368.86 310.42,-364.19"/>
</g>
<!-- roo_prefs -->
<g id="node14" class="node">
<title>roo_prefs</title>
<polygon fill="plum" stroke="red" points="183.5,-455 100.5,-455 100.5,-417 183.5,-417 183.5,-455"/>
<text text-anchor="middle" x="142" y="-439.8" font-family="Times,serif" font-size="14.00">roo_prefs</text>
<text text-anchor="middle" x="142" y="-424.8" font-family="Times,serif" font-size="14.00">1.2.7</text>
</g>
<!-- roo_prefs&#45;&gt;roo_logging -->
<g id="edge20" class="edge">
<title>roo_prefs&#45;&gt;roo_logging</title>
<path fill="none" stroke="red" d="M138.58,-416.67C135.13,-392.58 132.72,-349.93 152,-321 171.62,-291.55 206.47,-272.77 237.08,-261.24"/>
<polygon fill="red" stroke="red" points="238.6,-264.41 246.84,-257.75 236.25,-257.82 238.6,-264.41"/>
<text text-anchor="middle" x="185" y="-343" font-family="Times,serif" font-size="10.00" fill="red">1.5.1</text>
<text text-anchor="middle" x="185" y="-332" font-family="Times,serif" font-size="10.00" fill="red">(latest: 1.5.2)</text>
</g>
<!-- roo_prefs&#45;&gt;roo_scheduler -->
<g id="edge21" class="edge">
<title>roo_prefs&#45;&gt;roo_scheduler</title>
<path fill="none" stroke="black" d="M176.57,-416.97C186.55,-411.47 197.35,-405.22 207,-399 223.12,-388.61 240.31,-376 254.44,-365.21"/>
<polygon fill="black" stroke="black" points="256.59,-367.97 262.37,-359.09 252.31,-362.43 256.59,-367.97"/>
</g>
<!-- roo_quantity&#45;&gt;roo_logging -->
<g id="edge22" class="edge">
<title>roo_quantity&#45;&gt;roo_logging</title>
<path fill="none" stroke="red" d="M392.25,-320.88C373.88,-306.25 347.87,-285.52 327.67,-269.43"/>
<polygon fill="red" stroke="red" points="329.68,-266.56 319.68,-263.07 325.32,-272.04 329.68,-266.56"/>
<text text-anchor="middle" x="400" y="-295" font-family="Times,serif" font-size="10.00" fill="red">1.5.1</text>
<text text-anchor="middle" x="400" y="-284" font-family="Times,serif" font-size="10.00" fill="red">(latest: 1.5.2)</text>
</g>
<!-- roo_scheduler&#45;&gt;roo_collections -->
<g id="edge23" class="edge">
<title>roo_scheduler&#45;&gt;roo_collections</title>
<path fill="none" stroke="black" d="M297.87,-320.88C308.25,-307.68 324.04,-290.52 342,-281 380.49,-260.6 428.5,-251.54 467.49,-247.61"/>
<polygon fill="black" stroke="black" points="468.07,-251.08 477.71,-246.68 467.43,-244.1 468.07,-251.08"/>
</g>
<!-- roo_scheduler&#45;&gt;roo_threads -->
<g id="edge24" class="edge">
<title>roo_scheduler&#45;&gt;roo_threads</title>
<path fill="none" stroke="black" d="M273.29,-320.76C263.58,-305.48 249.56,-283.02 238,-263 225.36,-241.1 211.82,-215.8 202.02,-197.12"/>
<polygon fill="black" stroke="black" points="205,-195.25 197.27,-188.01 198.79,-198.49 205,-195.25"/>
</g>
<!-- roo_testing -->
<g id="node17" class="node">
<title>roo_testing</title>
<polygon fill="#b1dbab" stroke="black" points="418.5,-38 321.5,-38 321.5,0 418.5,0 418.5,-38"/>
<text text-anchor="middle" x="370" y="-22.8" font-family="Times,serif" font-size="14.00">roo_testing</text>
<text text-anchor="middle" x="370" y="-7.8" font-family="Times,serif" font-size="14.00">1.2.0</text>
</g>
<!-- roo_time -->
<g id="node19" class="node">
<title>roo_time</title>
<polygon fill="#b1dbab" stroke="black" points="409.5,-113 330.5,-113 330.5,-75 409.5,-75 409.5,-113"/>
<text text-anchor="middle" x="370" y="-97.8" font-family="Times,serif" font-size="14.00">roo_time</text>
<text text-anchor="middle" x="370" y="-82.8" font-family="Times,serif" font-size="14.00">1.4.0</text>
</g>
<!-- roo_threads&#45;&gt;roo_time -->
<g id="edge25" class="edge">
<title>roo_threads&#45;&gt;roo_time</title>
<path fill="none" stroke="black" d="M232.99,-149.96C259.73,-139.23 293.67,-125.62 321.07,-114.62"/>
<polygon fill="black" stroke="black" points="322.5,-117.83 330.47,-110.85 319.89,-111.33 322.5,-117.83"/>
</g>
<!-- roo_time&#45;&gt;roo_testing -->
<g id="edge26" class="edge">
<title>roo_time&#45;&gt;roo_testing</title>
<path fill="none" stroke="black" d="M370,-74.96C370,-66.88 370,-57.18 370,-48.18"/>
<polygon fill="black" stroke="black" points="373.5,-48.09 370,-38.09 366.5,-48.09 373.5,-48.09"/>
</g>
<!-- roo_time_ds3231 -->
<g id="node20" class="node">
<title>roo_time_ds3231</title>
<polygon fill="#b1dbab" stroke="black" points="621,-188 483,-188 483,-150 621,-150 621,-188"/>
<text text-anchor="middle" x="552" y="-172.8" font-family="Times,serif" font-size="14.00">roo_time_ds3231</text>
<text text-anchor="middle" x="552" y="-157.8" font-family="Times,serif" font-size="14.00">1.1.4</text>
</g>
<!-- roo_time_ds3231&#45;&gt;roo_time -->
<g id="edge27" class="edge">
<title>roo_time_ds3231&#45;&gt;roo_time</title>
<path fill="none" stroke="black" d="M507.01,-149.96C480.27,-139.23 446.33,-125.62 418.93,-114.62"/>
<polygon fill="black" stroke="black" points="420.11,-111.33 409.53,-110.85 417.5,-117.83 420.11,-111.33"/>
</g>
<!-- roo_transceivers&#45;&gt;roo_prefs -->
<g id="edge28" class="edge">
<title>roo_transceivers&#45;&gt;roo_prefs</title>
<path fill="none" stroke="black" d="M239.67,-512.88C220.75,-498.18 193.92,-477.34 173.17,-461.21"/>
<polygon fill="black" stroke="black" points="175.3,-458.44 165.26,-455.07 171.01,-463.97 175.3,-458.44"/>
</g>
<!-- roo_transport -->
<g id="node22" class="node">
<title>roo_transport</title>
<polygon fill="plum" stroke="red" points="629,-455 515,-455 515,-417 629,-417 629,-455"/>
<text text-anchor="middle" x="572" y="-439.8" font-family="Times,serif" font-size="14.00">roo_transport</text>
<text text-anchor="middle" x="572" y="-424.8" font-family="Times,serif" font-size="14.00">1.0.2</text>
</g>
<!-- roo_transport&#45;&gt;roo_collections -->
<g id="edge29" class="edge">
<title>roo_transport&#45;&gt;roo_collections</title>
<path fill="none" stroke="red" d="M620.16,-416.97C627.28,-412.21 633.67,-406.3 638,-399 642.99,-390.59 641.09,-386.28 638,-377 623.88,-334.64 590.25,-294.93 566.11,-270.34"/>
<polygon fill="red" stroke="red" points="568.5,-267.79 558.95,-263.21 563.56,-272.75 568.5,-267.79"/>
<text text-anchor="middle" x="663" y="-343" font-family="Times,serif" font-size="10.00" fill="red">1.3.2</text>
<text text-anchor="middle" x="663" y="-332" font-family="Times,serif" font-size="10.00" fill="red">(latest: 1.4.0)</text>
</g>
<!-- roo_transport&#45;&gt;roo_io -->
<g id="edge30" class="edge">
<title>roo_transport&#45;&gt;roo_io</title>
<path fill="none" stroke="red" d="M514.67,-423.22C502.23,-417.91 490.55,-410.19 483,-399 476.15,-388.84 480.59,-377.18 488.16,-366.99"/>
<polygon fill="red" stroke="red" points="490.97,-369.09 494.75,-359.19 485.62,-364.57 490.97,-369.09"/>
<text text-anchor="middle" x="516" y="-391" font-family="Times,serif" font-size="10.00" fill="red">2.0.3</text>
<text text-anchor="middle" x="516" y="-380" font-family="Times,serif" font-size="10.00" fill="red">(latest: 2.1.1)</text>
</g>
<!-- roo_wifi -->
<g id="node23" class="node">
<title>roo_wifi</title>
<polygon fill="#b1dbab" stroke="black" points="152,-607 80,-607 80,-569 152,-569 152,-607"/>
<text text-anchor="middle" x="116" y="-591.8" font-family="Times,serif" font-size="14.00">roo_wifi</text>
<text text-anchor="middle" x="116" y="-576.8" font-family="Times,serif" font-size="14.00">1.1.3</text>
</g>
<!-- roo_wifi&#45;&gt;roo_prefs -->
<g id="edge31" class="edge">
<title>roo_wifi&#45;&gt;roo_prefs</title>
<path fill="none" stroke="black" d="M119.14,-568.91C123.61,-543.12 131.85,-495.55 137.12,-465.14"/>
<polygon fill="black" stroke="black" points="140.59,-465.61 138.85,-455.16 133.7,-464.41 140.59,-465.61"/>
</g>
<!-- roo_windows&#45;&gt;roo_icons -->
<g id="edge33" class="edge">
<title>roo_windows&#45;&gt;roo_icons</title>
<path fill="none" stroke="black" d="M535.4,-624.84C564.62,-606.15 610.25,-576.97 642.21,-556.53"/>
<polygon fill="black" stroke="black" points="644.3,-559.34 650.84,-551.01 640.53,-553.45 644.3,-559.34"/>
</g>
<!-- roo_windows&#45;&gt;roo_locale -->
<g id="edge32" class="edge">
<title>roo_windows&#45;&gt;roo_locale</title>
<path fill="none" stroke="black" d="M515.59,-624.84C523.87,-607.32 536.51,-580.58 546.02,-560.47"/>
<polygon fill="black" stroke="black" points="549.29,-561.73 550.4,-551.19 542.96,-558.74 549.29,-561.73"/>
</g>
<!-- roo_windows&#45;&gt;roo_scheduler -->
<g id="edge34" class="edge">
<title>roo_windows&#45;&gt;roo_scheduler</title>
<path fill="none" stroke="red" d="M505.37,-624.95C500.75,-583.51 484.19,-480.28 430,-417 409.24,-392.76 378.79,-375.16 351.14,-363.04"/>
<polygon fill="red" stroke="red" points="352.47,-359.8 341.89,-359.14 349.75,-366.25 352.47,-359.8"/>
<text text-anchor="middle" x="508" y="-487" font-family="Times,serif" font-size="10.00" fill="red">2.1.4</text>
<text text-anchor="middle" x="508" y="-476" font-family="Times,serif" font-size="10.00" fill="red">(latest: 2.1.6)</text>
</g>
<!-- roo_windows_wifi -->
<g id="node25" class="node">
<title>roo_windows_wifi</title>
<polygon fill="plum" stroke="red" points="290.5,-759 149.5,-759 149.5,-721 290.5,-721 290.5,-759"/>
<text text-anchor="middle" x="220" y="-743.8" font-family="Times,serif" font-size="14.00">roo_windows_wifi</text>
<text text-anchor="middle" x="220" y="-728.8" font-family="Times,serif" font-size="14.00">1.1.2</text>
</g>
<!-- roo_windows_wifi&#45;&gt;roo_wifi -->
<g id="edge35" class="edge">
<title>roo_windows_wifi&#45;&gt;roo_wifi</title>
<path fill="none" stroke="red" d="M207.46,-720.91C189.26,-694.67 155.44,-645.88 134.41,-615.56"/>
<polygon fill="red" stroke="red" points="137.16,-613.38 128.59,-607.16 131.41,-617.37 137.16,-613.38"/>
<text text-anchor="middle" x="227" y="-695" font-family="Times,serif" font-size="10.00" fill="red">1.1.1</text>
<text text-anchor="middle" x="227" y="-684" font-family="Times,serif" font-size="10.00" fill="red">(latest: 1.1.3)</text>
</g>
<!-- roo_windows_wifi&#45;&gt;roo_windows -->
<g id="edge36" class="edge">
<title>roo_windows_wifi&#45;&gt;roo_windows</title>
<path fill="none" stroke="black" d="M275,-720.99C322.76,-705.34 391.98,-682.67 442.37,-666.17"/>
<polygon fill="black" stroke="black" points="443.78,-669.39 452.19,-662.95 441.6,-662.74 443.78,-669.39"/>
</g>
</g>
</svg>
