<?xml version="1.0" encoding="UTF-8" standalone="no"?>
<!DOCTYPE svg PUBLIC "-//W3C//DTD SVG 1.1//EN"
 "http://www.w3.org/Graphics/SVG/1.1/DTD/svg11.dtd">
<!-- Generated by graphviz version 2.42.4 (0)
 -->
<!-- Title: dependencies Pages: 1 -->
<svg width="1091pt" height="793pt"
 viewBox="0.00 0.00 1090.50 793.00" xmlns="http://www.w3.org/2000/svg" xmlns:xlink="http://www.w3.org/1999/xlink">
<g id="graph0" class="graph" transform="scale(1 1) rotate(0) translate(4 789)">
<title>dependencies</title>
<polygon fill="white" stroke="transparent" points="-4,4 -4,-789 1086.5,-789 1086.5,4 -4,4"/>
<!-- roo_backport -->
<g id="node1" class="node">
<title>roo_backport</title>
<polygon fill="#b1dbab" stroke="black" points="530,-230 420,-230 420,-192 530,-192 530,-230"/>
<text text-anchor="middle" x="475" y="-214.8" font-family="Times,serif" font-size="14.00">roo_backport</text>
<text text-anchor="middle" x="475" y="-199.8" font-family="Times,serif" font-size="14.00">1.2.2</text>
</g>
<!-- roo_blink -->
<g id="node2" class="node">
<title>roo_blink</title>
<polygon fill="#b1dbab" stroke="black" points="967,-593 885,-593 885,-555 967,-555 967,-593"/>
<text text-anchor="middle" x="926" y="-577.8" font-family="Times,serif" font-size="14.00">roo_blink</text>
<text text-anchor="middle" x="926" y="-562.8" font-family="Times,serif" font-size="14.00">1.0.6</text>
</g>
<!-- roo_logging -->
<g id="node13" class="node">
<title>roo_logging</title>
<polygon fill="#b1dbab" stroke="red" points="782,-326 682,-326 682,-288 782,-288 782,-326"/>
<text text-anchor="middle" x="732" y="-310.8" font-family="Times,serif" font-size="14.00">roo_logging</text>
<text text-anchor="middle" x="732" y="-295.8" font-family="Times,serif" font-size="14.00">1.5.5</text>
</g>
<!-- roo_blink&#45;&gt;roo_logging -->
<g id="edge1" class="edge">
<title>roo_blink&#45;&gt;roo_logging</title>
<path fill="none" stroke="black" d="M926.81,-554.63C927.09,-531.23 925.09,-490.11 910,-459 881.67,-400.63 819.15,-356.2 776.29,-331.12"/>
<polygon fill="black" stroke="black" points="777.88,-327.99 767.46,-326.06 774.4,-334.07 777.88,-327.99"/>
</g>
<!-- roo_scheduler -->
<g id="node19" class="node">
<title>roo_scheduler</title>
<polygon fill="#b1dbab" stroke="black" points="423,-497 307,-497 307,-459 423,-459 423,-497"/>
<text text-anchor="middle" x="365" y="-481.8" font-family="Times,serif" font-size="14.00">roo_scheduler</text>
<text text-anchor="middle" x="365" y="-466.8" font-family="Times,serif" font-size="14.00">2.1.9</text>
</g>
<!-- roo_blink&#45;&gt;roo_scheduler -->
<g id="edge2" class="edge">
<title>roo_blink&#45;&gt;roo_scheduler</title>
<path fill="none" stroke="black" d="M884.73,-557.4C881.8,-556.52 878.87,-555.71 876,-555 751.83,-524.29 717.89,-531.13 591,-515 520.89,-506.09 502.46,-510.08 433,-497 432.9,-496.98 432.8,-496.96 432.7,-496.94"/>
<polygon fill="black" stroke="black" points="433.61,-493.56 423.11,-494.98 432.2,-500.41 433.61,-493.56"/>
</g>
<!-- roo_collections -->
<g id="node3" class="node">
<title>roo_collections</title>
<polygon fill="#b1dbab" stroke="black" points="471,-401 349,-401 349,-363 471,-363 471,-401"/>
<text text-anchor="middle" x="410" y="-385.8" font-family="Times,serif" font-size="14.00">roo_collections</text>
<text text-anchor="middle" x="410" y="-370.8" font-family="Times,serif" font-size="14.00">1.4.3</text>
</g>
<!-- roo_collections&#45;&gt;roo_backport -->
<g id="edge3" class="edge">
<title>roo_collections&#45;&gt;roo_backport</title>
<path fill="none" stroke="black" d="M416.96,-362.91C428.31,-333.39 450.91,-274.63 464.31,-239.78"/>
<polygon fill="black" stroke="black" points="467.67,-240.8 468,-230.21 461.14,-238.29 467.67,-240.8"/>
</g>
<!-- roo_comms -->
<g id="node4" class="node">
<title>roo_comms</title>
<polygon fill="plum" stroke="red" points="777.5,-785 680.5,-785 680.5,-747 777.5,-747 777.5,-785"/>
<text text-anchor="middle" x="729" y="-769.8" font-family="Times,serif" font-size="14.00">roo_comms</text>
<text text-anchor="middle" x="729" y="-754.8" font-family="Times,serif" font-size="14.00">1.1.3</text>
</g>
<!-- roo_comms&#45;&gt;roo_blink -->
<g id="edge4" class="edge">
<title>roo_comms&#45;&gt;roo_blink</title>
<path fill="none" stroke="red" d="M747.89,-746.78C783.19,-712.74 859.24,-639.39 899.6,-600.47"/>
<polygon fill="red" stroke="red" points="902.4,-602.62 907.17,-593.16 897.54,-597.59 902.4,-602.62"/>
<text text-anchor="middle" x="880" y="-673" font-family="Times,serif" font-size="10.00" fill="red">1.0.4</text>
<text text-anchor="middle" x="880" y="-662" font-family="Times,serif" font-size="10.00" fill="red">(latest: 1.0.6)</text>
</g>
<!-- roo_control -->
<g id="node5" class="node">
<title>roo_control</title>
<polygon fill="plum" stroke="red" points="1082.5,-593 985.5,-593 985.5,-555 1082.5,-555 1082.5,-593"/>
<text text-anchor="middle" x="1034" y="-577.8" font-family="Times,serif" font-size="14.00">roo_control</text>
<text text-anchor="middle" x="1034" y="-562.8" font-family="Times,serif" font-size="14.00">1.2.4</text>
</g>
<!-- roo_comms&#45;&gt;roo_control -->
<g id="edge5" class="edge">
<title>roo_comms&#45;&gt;roo_control</title>
<path fill="none" stroke="red" d="M777.66,-750.72C816.67,-737.98 871.85,-717.02 915,-689 953.11,-664.26 989.73,-626.34 1012.05,-601.12"/>
<polygon fill="red" stroke="red" points="1014.84,-603.24 1018.77,-593.41 1009.56,-598.64 1014.84,-603.24"/>
<text text-anchor="middle" x="995" y="-673" font-family="Times,serif" font-size="10.00" fill="red">1.2.3</text>
<text text-anchor="middle" x="995" y="-662" font-family="Times,serif" font-size="10.00" fill="red">(latest: 1.2.4)</text>
</g>
<!-- roo_io -->
<g id="node11" class="node">
<title>roo_io</title>
<polygon fill="#b1dbab" stroke="red" points="692.5,-401 633.5,-401 633.5,-363 692.5,-363 692.5,-401"/>
<text text-anchor="middle" x="663" y="-385.8" font-family="Times,serif" font-size="14.00">roo_io</text>
<text text-anchor="middle" x="663" y="-370.8" font-family="Times,serif" font-size="14.00">2.1.5</text>
</g>
<!-- roo_comms&#45;&gt;roo_io -->
<g id="edge6" class="edge">
<title>roo_comms&#45;&gt;roo_io</title>
<path fill="none" stroke="red" d="M723.21,-746.92C713.59,-715.86 694.72,-650.16 688,-593 686.03,-576.23 685.21,-571.66 688,-555 695.2,-512.02 719.51,-501.04 708,-459 703.15,-441.29 692.99,-423.51 683.55,-409.61"/>
<polygon fill="red" stroke="red" points="686.14,-407.22 677.51,-401.08 680.43,-411.26 686.14,-407.22"/>
<text text-anchor="middle" x="721" y="-577" font-family="Times,serif" font-size="10.00" fill="red">2.1.1</text>
<text text-anchor="middle" x="721" y="-566" font-family="Times,serif" font-size="10.00" fill="red">(latest: 2.1.5)</text>
</g>
<!-- roo_transceivers -->
<g id="node24" class="node">
<title>roo_transceivers</title>
<polygon fill="plum" stroke="red" points="527.5,-689 392.5,-689 392.5,-651 527.5,-651 527.5,-689"/>
<text text-anchor="middle" x="460" y="-673.8" font-family="Times,serif" font-size="14.00">roo_transceivers</text>
<text text-anchor="middle" x="460" y="-658.8" font-family="Times,serif" font-size="14.00">1.1.4</text>
</g>
<!-- roo_comms&#45;&gt;roo_transceivers -->
<g id="edge7" class="edge">
<title>roo_comms&#45;&gt;roo_transceivers</title>
<path fill="none" stroke="black" d="M680.29,-747.98C635.67,-732.39 569.43,-709.24 521.25,-692.4"/>
<polygon fill="black" stroke="black" points="522.15,-689.01 511.56,-689.02 519.84,-695.62 522.15,-689.01"/>
</g>
<!-- roo_quantity -->
<g id="node18" class="node">
<title>roo_quantity</title>
<polygon fill="#b1dbab" stroke="black" points="900.5,-497 793.5,-497 793.5,-459 900.5,-459 900.5,-497"/>
<text text-anchor="middle" x="847" y="-481.8" font-family="Times,serif" font-size="14.00">roo_quantity</text>
<text text-anchor="middle" x="847" y="-466.8" font-family="Times,serif" font-size="14.00">1.1.8</text>
</g>
<!-- roo_control&#45;&gt;roo_quantity -->
<g id="edge8" class="edge">
<title>roo_control&#45;&gt;roo_quantity</title>
<path fill="none" stroke="red" d="M997.94,-554.88C967.81,-539.73 924.67,-518.04 892.22,-501.73"/>
<polygon fill="red" stroke="red" points="893.45,-498.43 882.94,-497.07 890.31,-504.69 893.45,-498.43"/>
<text text-anchor="middle" x="990" y="-529" font-family="Times,serif" font-size="10.00" fill="red">1.1.7</text>
<text text-anchor="middle" x="990" y="-518" font-family="Times,serif" font-size="10.00" fill="red">(latest: 1.1.8)</text>
</g>
<!-- roo_control&#45;&gt;roo_scheduler -->
<g id="edge9" class="edge">
<title>roo_control&#45;&gt;roo_scheduler</title>
<path fill="none" stroke="red" d="M985.41,-557.32C982.24,-556.48 979.08,-555.7 976,-555 922.12,-542.78 907.67,-545.01 853,-537 786.33,-527.23 770,-522.14 703,-515 583.41,-502.26 551.68,-516.48 433,-497 432.9,-496.98 432.8,-496.97 432.69,-496.95"/>
<polygon fill="red" stroke="red" points="433.55,-493.55 423.08,-495.16 432.27,-500.43 433.55,-493.55"/>
<text text-anchor="middle" x="886" y="-529" font-family="Times,serif" font-size="10.00" fill="red">2.1.7</text>
<text text-anchor="middle" x="886" y="-518" font-family="Times,serif" font-size="10.00" fill="red">(latest: 2.1.9)</text>
</g>
<!-- roo_dashboard -->
<g id="node6" class="node">
<title>roo_dashboard</title>
<polygon fill="plum" stroke="red" points="271,-785 149,-785 149,-747 271,-747 271,-785"/>
<text text-anchor="middle" x="210" y="-769.8" font-family="Times,serif" font-size="14.00">roo_dashboard</text>
<text text-anchor="middle" x="210" y="-754.8" font-family="Times,serif" font-size="14.00">1.0.1</text>
</g>
<!-- roo_windows -->
<g id="node27" class="node">
<title>roo_windows</title>
<polygon fill="plum" stroke="red" points="369.5,-689 260.5,-689 260.5,-651 369.5,-651 369.5,-689"/>
<text text-anchor="middle" x="315" y="-673.8" font-family="Times,serif" font-size="14.00">roo_windows</text>
<text text-anchor="middle" x="315" y="-658.8" font-family="Times,serif" font-size="14.00">1.4.2</text>
</g>
<!-- roo_dashboard&#45;&gt;roo_windows -->
<g id="edge10" class="edge">
<title>roo_dashboard&#45;&gt;roo_windows</title>
<path fill="none" stroke="red" d="M225.56,-746.9C236.15,-735.01 250.79,-719.42 265,-707 269.54,-703.03 274.51,-699.07 279.49,-695.29"/>
<polygon fill="red" stroke="red" points="281.84,-697.91 287.82,-689.16 277.69,-692.27 281.84,-697.91"/>
<text text-anchor="middle" x="298" y="-721" font-family="Times,serif" font-size="10.00" fill="red">1.4.1</text>
<text text-anchor="middle" x="298" y="-710" font-family="Times,serif" font-size="10.00" fill="red">(latest: 1.4.2)</text>
</g>
<!-- roo_display -->
<g id="node7" class="node">
<title>roo_display</title>
<polygon fill="#b1dbab" stroke="black" points="289,-497 191,-497 191,-459 289,-459 289,-497"/>
<text text-anchor="middle" x="240" y="-481.8" font-family="Times,serif" font-size="14.00">roo_display</text>
<text text-anchor="middle" x="240" y="-466.8" font-family="Times,serif" font-size="14.00">3.0.2</text>
</g>
<!-- roo_display&#45;&gt;roo_collections -->
<g id="edge11" class="edge">
<title>roo_display&#45;&gt;roo_collections</title>
<path fill="none" stroke="black" d="M272.78,-458.88C300.06,-443.79 339.06,-422.23 368.51,-405.94"/>
<polygon fill="black" stroke="black" points="370.27,-408.97 377.32,-401.07 366.88,-402.84 370.27,-408.97"/>
</g>
<!-- roo_display&#45;&gt;roo_io -->
<g id="edge12" class="edge">
<title>roo_display&#45;&gt;roo_io</title>
<path fill="none" stroke="black" d="M289.18,-460.95C292.15,-460.22 295.1,-459.57 298,-459 390.81,-440.88 420.33,-471.01 510,-441 527.42,-435.17 528.29,-426.64 545,-419 570.11,-407.52 599.86,-398.48 623.2,-392.32"/>
<polygon fill="black" stroke="black" points="624.29,-395.66 633.11,-389.78 622.55,-388.87 624.29,-395.66"/>
</g>
<!-- roo_flags -->
<g id="node8" class="node">
<title>roo_flags</title>
<polygon fill="#b1dbab" stroke="black" points="771,-230 691,-230 691,-192 771,-192 771,-230"/>
<text text-anchor="middle" x="731" y="-214.8" font-family="Times,serif" font-size="14.00">roo_flags</text>
<text text-anchor="middle" x="731" y="-199.8" font-family="Times,serif" font-size="14.00">1.2.3</text>
</g>
<!-- roo_fonts_basic -->
<g id="node9" class="node">
<title>roo_fonts_basic</title>
<polygon fill="#b1dbab" stroke="red" points="126,-593 0,-593 0,-555 126,-555 126,-593"/>
<text text-anchor="middle" x="63" y="-577.8" font-family="Times,serif" font-size="14.00">roo_fonts_basic</text>
<text text-anchor="middle" x="63" y="-562.8" font-family="Times,serif" font-size="14.00">1.0.1</text>
</g>
<!-- roo_fonts_basic&#45;&gt;roo_display -->
<g id="edge13" class="edge">
<title>roo_fonts_basic&#45;&gt;roo_display</title>
<path fill="none" stroke="red" d="M97.13,-554.88C125.53,-539.79 166.14,-518.23 196.8,-501.94"/>
<polygon fill="red" stroke="red" points="198.79,-504.85 205.98,-497.07 195.5,-498.67 198.79,-504.85"/>
<text text-anchor="middle" x="201" y="-529" font-family="Times,serif" font-size="10.00" fill="red">3.0.1</text>
<text text-anchor="middle" x="201" y="-518" font-family="Times,serif" font-size="10.00" fill="red">(latest: 3.0.2)</text>
</g>
<!-- roo_icons -->
<g id="node10" class="node">
<title>roo_icons</title>
<polygon fill="khaki" stroke="red" points="333.5,-593 250.5,-593 250.5,-555 333.5,-555 333.5,-593"/>
<text text-anchor="middle" x="292" y="-577.8" font-family="Times,serif" font-size="14.00">roo_icons</text>
<text text-anchor="middle" x="292" y="-562.8" font-family="Times,serif" font-size="14.00">1.2.1</text>
</g>
<!-- roo_icons&#45;&gt;roo_display -->
<g id="edge14" class="edge">
<title>roo_icons&#45;&gt;roo_display</title>
<path fill="none" stroke="red" d="M281.97,-554.88C274.28,-540.96 263.53,-521.53 254.84,-505.82"/>
<polygon fill="red" stroke="red" points="257.9,-504.12 250,-497.07 251.77,-507.51 257.9,-504.12"/>
<text text-anchor="middle" x="304" y="-529" font-family="Times,serif" font-size="10.00" fill="red">2.3.1</text>
<text text-anchor="middle" x="304" y="-518" font-family="Times,serif" font-size="10.00" fill="red">(latest: 3.0.2)</text>
</g>
<!-- roo_io&#45;&gt;roo_logging -->
<g id="edge15" class="edge">
<title>roo_io&#45;&gt;roo_logging</title>
<path fill="none" stroke="black" d="M680.06,-362.96C688.43,-354.09 698.67,-343.26 707.84,-333.56"/>
<polygon fill="black" stroke="black" points="710.58,-335.76 714.9,-326.09 705.49,-330.95 710.58,-335.76"/>
</g>
<!-- roo_locale -->
<g id="node12" class="node">
<title>roo_locale</title>
<polygon fill="khaki" stroke="black" points="232,-593 144,-593 144,-555 232,-555 232,-593"/>
<text text-anchor="middle" x="188" y="-577.8" font-family="Times,serif" font-size="14.00">roo_locale</text>
<text text-anchor="middle" x="188" y="-562.8" font-family="Times,serif" font-size="14.00">1.1.1</text>
</g>
<!-- roo_logging&#45;&gt;roo_backport -->
<g id="edge16" class="edge">
<title>roo_logging&#45;&gt;roo_backport</title>
<path fill="none" stroke="black" d="M712.45,-287.83C695.01,-271.79 671.41,-250.55 666,-248 620.8,-226.67 604.07,-239.49 555,-230 550.27,-229.09 545.39,-228.1 540.49,-227.07"/>
<polygon fill="black" stroke="black" points="540.94,-223.59 530.43,-224.93 539.48,-230.44 540.94,-223.59"/>
</g>
<!-- roo_logging&#45;&gt;roo_flags -->
<g id="edge17" class="edge">
<title>roo_logging&#45;&gt;roo_flags</title>
<path fill="none" stroke="black" d="M731.81,-287.88C731.66,-274.35 731.46,-255.62 731.3,-240.15"/>
<polygon fill="black" stroke="black" points="734.8,-240.03 731.19,-230.07 727.8,-240.11 734.8,-240.03"/>
</g>
<!-- roo_threads -->
<g id="node21" class="node">
<title>roo_threads</title>
<polygon fill="#b1dbab" stroke="red" points="664.5,-230 563.5,-230 563.5,-192 664.5,-192 664.5,-230"/>
<text text-anchor="middle" x="614" y="-214.8" font-family="Times,serif" font-size="14.00">roo_threads</text>
<text text-anchor="middle" x="614" y="-199.8" font-family="Times,serif" font-size="14.00">1.2.3</text>
</g>
<!-- roo_logging&#45;&gt;roo_threads -->
<g id="edge18" class="edge">
<title>roo_logging&#45;&gt;roo_threads</title>
<path fill="none" stroke="black" d="M722.87,-287.86C715.84,-275.34 705.1,-259.03 692,-248 686.27,-243.18 679.79,-238.87 673.08,-235.04"/>
<polygon fill="black" stroke="black" points="674.3,-231.73 663.82,-230.14 671.02,-237.91 674.3,-231.73"/>
</g>
<!-- roo_monitoring -->
<g id="node14" class="node">
<title>roo_monitoring</title>
<polygon fill="plum" stroke="red" points="566.5,-497 441.5,-497 441.5,-459 566.5,-459 566.5,-497"/>
<text text-anchor="middle" x="504" y="-481.8" font-family="Times,serif" font-size="14.00">roo_monitoring</text>
<text text-anchor="middle" x="504" y="-466.8" font-family="Times,serif" font-size="14.00">1.0.0</text>
</g>
<!-- roo_monitoring&#45;&gt;roo_collections -->
<g id="edge19" class="edge">
<title>roo_monitoring&#45;&gt;roo_collections</title>
<path fill="none" stroke="red" d="M485.88,-458.88C471.57,-444.57 451.44,-424.44 435.51,-408.51"/>
<polygon fill="red" stroke="red" points="437.61,-405.66 428.07,-401.07 432.66,-410.61 437.61,-405.66"/>
<text text-anchor="middle" x="498" y="-433" font-family="Times,serif" font-size="10.00" fill="red">1.4.1</text>
<text text-anchor="middle" x="498" y="-422" font-family="Times,serif" font-size="10.00" fill="red">(latest: 1.4.3)</text>
</g>
<!-- roo_monitoring&#45;&gt;roo_io -->
<g id="edge20" class="edge">
<title>roo_monitoring&#45;&gt;roo_io</title>
<path fill="none" stroke="red" d="M524.96,-458.78C539.7,-446.54 560.24,-430.59 580,-419 593.76,-410.93 609.66,-403.59 623.85,-397.68"/>
<polygon fill="red" stroke="red" points="625.4,-400.83 633.34,-393.83 622.76,-394.35 625.4,-400.83"/>
<text text-anchor="middle" x="613" y="-433" font-family="Times,serif" font-size="10.00" fill="red">2.1.4</text>
<text text-anchor="middle" x="613" y="-422" font-family="Times,serif" font-size="10.00" fill="red">(latest: 2.1.5)</text>
</g>
<!-- roo_onewire -->
<g id="node15" class="node">
<title>roo_onewire</title>
<polygon fill="#b1dbab" stroke="black" points="867,-593 763,-593 763,-555 867,-555 867,-593"/>
<text text-anchor="middle" x="815" y="-577.8" font-family="Times,serif" font-size="14.00">roo_onewire</text>
<text text-anchor="middle" x="815" y="-562.8" font-family="Times,serif" font-size="14.00">2.0.9</text>
</g>
<!-- roo_onewire&#45;&gt;roo_quantity -->
<g id="edge22" class="edge">
<title>roo_onewire&#45;&gt;roo_quantity</title>
<path fill="none" stroke="black" d="M818.26,-554.92C820.62,-543.32 824.24,-528.04 829,-515 830.01,-512.23 831.18,-509.4 832.42,-506.59"/>
<polygon fill="black" stroke="black" points="835.69,-507.86 836.83,-497.33 829.37,-504.85 835.69,-507.86"/>
</g>
<!-- roo_onewire&#45;&gt;roo_scheduler -->
<g id="edge21" class="edge">
<title>roo_onewire&#45;&gt;roo_scheduler</title>
<path fill="none" stroke="black" d="M762.89,-558.23C758.21,-557.08 753.53,-555.98 749,-555 699.72,-544.35 686.63,-545.85 637,-537 546.04,-520.78 523.04,-517.72 433,-497 432.9,-496.98 432.8,-496.95 432.7,-496.93"/>
<polygon fill="black" stroke="black" points="433.72,-493.57 423.18,-494.67 432.1,-500.38 433.72,-493.57"/>
</g>
<!-- roo_powersafefs -->
<g id="node16" class="node">
<title>roo_powersafefs</title>
<polygon fill="plum" stroke="red" points="663.5,-326 530.5,-326 530.5,-288 663.5,-288 663.5,-326"/>
<text text-anchor="middle" x="597" y="-310.8" font-family="Times,serif" font-size="14.00">roo_powersafefs</text>
<text text-anchor="middle" x="597" y="-295.8" font-family="Times,serif" font-size="14.00">1.0.0</text>
</g>
<!-- roo_powersafefs&#45;&gt;roo_threads -->
<g id="edge23" class="edge">
<title>roo_powersafefs&#45;&gt;roo_threads</title>
<path fill="none" stroke="red" d="M600.28,-287.88C602.72,-274.35 606.11,-255.62 608.91,-240.15"/>
<polygon fill="red" stroke="red" points="612.4,-240.53 610.73,-230.07 605.51,-239.29 612.4,-240.53"/>
<text text-anchor="middle" x="640" y="-262" font-family="Times,serif" font-size="10.00" fill="red">1.2.1</text>
<text text-anchor="middle" x="640" y="-251" font-family="Times,serif" font-size="10.00" fill="red">(latest: 1.2.3)</text>
</g>
<!-- roo_prefs -->
<g id="node17" class="node">
<title>roo_prefs</title>
<polygon fill="#b1dbab" stroke="black" points="566.5,-593 483.5,-593 483.5,-555 566.5,-555 566.5,-593"/>
<text text-anchor="middle" x="525" y="-577.8" font-family="Times,serif" font-size="14.00">roo_prefs</text>
<text text-anchor="middle" x="525" y="-562.8" font-family="Times,serif" font-size="14.00">1.2.9</text>
</g>
<!-- roo_prefs&#45;&gt;roo_logging -->
<g id="edge24" class="edge">
<title>roo_prefs&#45;&gt;roo_logging</title>
<path fill="none" stroke="black" d="M566.51,-563.9C606.51,-553.39 666.86,-532.79 708,-497 729.8,-478.04 733.4,-468.87 741,-441 750.62,-405.72 744.94,-363.32 739.17,-336.03"/>
<polygon fill="black" stroke="black" points="742.53,-334.99 736.91,-326.01 735.7,-336.54 742.53,-334.99"/>
</g>
<!-- roo_prefs&#45;&gt;roo_scheduler -->
<g id="edge25" class="edge">
<title>roo_prefs&#45;&gt;roo_scheduler</title>
<path fill="none" stroke="black" d="M494.15,-554.88C468.58,-539.86 432.09,-518.41 404.41,-502.15"/>
<polygon fill="black" stroke="black" points="406.15,-499.12 395.75,-497.07 402.6,-505.15 406.15,-499.12"/>
</g>
<!-- roo_quantity&#45;&gt;roo_logging -->
<g id="edge26" class="edge">
<title>roo_quantity&#45;&gt;roo_logging</title>
<path fill="none" stroke="black" d="M840.65,-458.73C830.6,-431.61 809.06,-380.05 779,-344 775.71,-340.05 771.92,-336.28 767.94,-332.75"/>
<polygon fill="black" stroke="black" points="770.08,-329.99 760.14,-326.31 765.62,-335.38 770.08,-329.99"/>
</g>
<!-- roo_scheduler&#45;&gt;roo_collections -->
<g id="edge27" class="edge">
<title>roo_scheduler&#45;&gt;roo_collections</title>
<path fill="none" stroke="black" d="M373.26,-458.91C378.54,-447.44 385.58,-432.3 392,-419 393.35,-416.2 394.78,-413.28 396.22,-410.37"/>
<polygon fill="black" stroke="black" points="399.42,-411.78 400.74,-401.27 393.16,-408.66 399.42,-411.78"/>
</g>
<!-- roo_scheduler&#45;&gt;roo_threads -->
<g id="edge28" class="edge">
<title>roo_scheduler&#45;&gt;roo_threads</title>
<path fill="none" stroke="black" d="M423.21,-460.89C452.61,-452.53 482.61,-443.53 485,-441 533.11,-390.21 484.91,-347.32 522,-288 535.14,-266.98 556.1,-249 574.7,-235.82"/>
<polygon fill="black" stroke="black" points="576.77,-238.64 583.04,-230.11 572.81,-232.87 576.77,-238.64"/>
</g>
<!-- roo_testing -->
<g id="node20" class="node">
<title>roo_testing</title>
<polygon fill="#b1dbab" stroke="black" points="784.5,-38 687.5,-38 687.5,0 784.5,0 784.5,-38"/>
<text text-anchor="middle" x="736" y="-22.8" font-family="Times,serif" font-size="14.00">roo_testing</text>
<text text-anchor="middle" x="736" y="-7.8" font-family="Times,serif" font-size="14.00">1.3.4</text>
</g>
<!-- roo_time -->
<g id="node22" class="node">
<title>roo_time</title>
<polygon fill="#b1dbab" stroke="red" points="775.5,-134 696.5,-134 696.5,-96 775.5,-96 775.5,-134"/>
<text text-anchor="middle" x="736" y="-118.8" font-family="Times,serif" font-size="14.00">roo_time</text>
<text text-anchor="middle" x="736" y="-103.8" font-family="Times,serif" font-size="14.00">1.4.3</text>
</g>
<!-- roo_threads&#45;&gt;roo_time -->
<g id="edge29" class="edge">
<title>roo_threads&#45;&gt;roo_time</title>
<path fill="none" stroke="black" d="M637.52,-191.88C656.59,-177.18 683.65,-156.34 704.57,-140.21"/>
<polygon fill="black" stroke="black" points="706.76,-142.94 712.55,-134.07 702.49,-137.4 706.76,-142.94"/>
</g>
<!-- roo_time&#45;&gt;roo_testing -->
<g id="edge30" class="edge">
<title>roo_time&#45;&gt;roo_testing</title>
<path fill="none" stroke="red" d="M736,-95.88C736,-82.35 736,-63.62 736,-48.15"/>
<polygon fill="red" stroke="red" points="739.5,-48.07 736,-38.07 732.5,-48.07 739.5,-48.07"/>
<text text-anchor="middle" x="769" y="-70" font-family="Times,serif" font-size="10.00" fill="red">1.3.2</text>
<text text-anchor="middle" x="769" y="-59" font-family="Times,serif" font-size="10.00" fill="red">(latest: 1.3.4)</text>
</g>
<!-- roo_time_ds3231 -->
<g id="node23" class="node">
<title>roo_time_ds3231</title>
<polygon fill="plum" stroke="red" points="927,-230 789,-230 789,-192 927,-192 927,-230"/>
<text text-anchor="middle" x="858" y="-214.8" font-family="Times,serif" font-size="14.00">roo_time_ds3231</text>
<text text-anchor="middle" x="858" y="-199.8" font-family="Times,serif" font-size="14.00">1.1.5</text>
</g>
<!-- roo_time_ds3231&#45;&gt;roo_time -->
<g id="edge31" class="edge">
<title>roo_time_ds3231&#45;&gt;roo_time</title>
<path fill="none" stroke="red" d="M834.48,-191.88C815.41,-177.18 788.35,-156.34 767.43,-140.21"/>
<polygon fill="red" stroke="red" points="769.51,-137.4 759.45,-134.07 765.24,-142.94 769.51,-137.4"/>
<text text-anchor="middle" x="840" y="-166" font-family="Times,serif" font-size="10.00" fill="red">1.4.1</text>
<text text-anchor="middle" x="840" y="-155" font-family="Times,serif" font-size="10.00" fill="red">(latest: 1.4.3)</text>
</g>
<!-- roo_transceivers&#45;&gt;roo_prefs -->
<g id="edge32" class="edge">
<title>roo_transceivers&#45;&gt;roo_prefs</title>
<path fill="none" stroke="red" d="M462.64,-651C465.1,-638.86 469.68,-622.93 478,-611 480.79,-607 484.17,-603.24 487.81,-599.77"/>
<polygon fill="red" stroke="red" points="490.28,-602.27 495.57,-593.09 485.71,-596.96 490.28,-602.27"/>
<text text-anchor="middle" x="511" y="-625" font-family="Times,serif" font-size="10.00" fill="red">1.2.7</text>
<text text-anchor="middle" x="511" y="-614" font-family="Times,serif" font-size="10.00" fill="red">(latest: 1.2.9)</text>
</g>
<!-- roo_transport -->
<g id="node25" class="node">
<title>roo_transport</title>
<polygon fill="#b1dbab" stroke="black" points="699,-497 585,-497 585,-459 699,-459 699,-497"/>
<text text-anchor="middle" x="642" y="-481.8" font-family="Times,serif" font-size="14.00">roo_transport</text>
<text text-anchor="middle" x="642" y="-466.8" font-family="Times,serif" font-size="14.00">1.1.2</text>
</g>
<!-- roo_transport&#45;&gt;roo_collections -->
<g id="edge33" class="edge">
<title>roo_transport&#45;&gt;roo_collections</title>
<path fill="none" stroke="black" d="M641.21,-458.87C639.64,-445.86 635.35,-428.92 624,-419 603.05,-400.69 535.01,-391.52 481.21,-387.04"/>
<polygon fill="black" stroke="black" points="481.25,-383.54 471.01,-386.24 480.7,-390.51 481.25,-383.54"/>
</g>
<!-- roo_transport&#45;&gt;roo_io -->
<g id="edge34" class="edge">
<title>roo_transport&#45;&gt;roo_io</title>
<path fill="none" stroke="black" d="M646.05,-458.88C649.07,-445.35 653.26,-426.62 656.71,-411.15"/>
<polygon fill="black" stroke="black" points="660.2,-411.59 658.96,-401.07 653.37,-410.06 660.2,-411.59"/>
</g>
<!-- roo_wifi -->
<g id="node26" class="node">
<title>roo_wifi</title>
<polygon fill="plum" stroke="red" points="618,-689 546,-689 546,-651 618,-651 618,-689"/>
<text text-anchor="middle" x="582" y="-673.8" font-family="Times,serif" font-size="14.00">roo_wifi</text>
<text text-anchor="middle" x="582" y="-658.8" font-family="Times,serif" font-size="14.00">1.1.3</text>
</g>
<!-- roo_wifi&#45;&gt;roo_prefs -->
<g id="edge35" class="edge">
<title>roo_wifi&#45;&gt;roo_prefs</title>
<path fill="none" stroke="red" d="M571.01,-650.88C562.57,-636.96 550.79,-617.53 541.26,-601.82"/>
<polygon fill="red" stroke="red" points="544.13,-599.8 535.96,-593.07 538.15,-603.43 544.13,-599.8"/>
<text text-anchor="middle" x="591" y="-625" font-family="Times,serif" font-size="10.00" fill="red">1.2.7</text>
<text text-anchor="middle" x="591" y="-614" font-family="Times,serif" font-size="10.00" fill="red">(latest: 1.2.9)</text>
</g>
<!-- roo_windows&#45;&gt;roo_icons -->
<g id="edge37" class="edge">
<title>roo_windows&#45;&gt;roo_icons</title>
<path fill="none" stroke="black" d="M310.57,-650.88C307.26,-637.35 302.67,-618.62 298.89,-603.15"/>
<polygon fill="black" stroke="black" points="302.2,-601.95 296.42,-593.07 295.4,-603.61 302.2,-601.95"/>
</g>
<!-- roo_windows&#45;&gt;roo_locale -->
<g id="edge36" class="edge">
<title>roo_windows&#45;&gt;roo_locale</title>
<path fill="none" stroke="black" d="M290.51,-650.88C270.66,-636.18 242.5,-615.34 220.72,-599.21"/>
<polygon fill="black" stroke="black" points="222.53,-596.2 212.41,-593.07 218.37,-601.83 222.53,-596.2"/>
</g>
<!-- roo_windows&#45;&gt;roo_scheduler -->
<g id="edge38" class="edge">
<title>roo_windows&#45;&gt;roo_scheduler</title>
<path fill="none" stroke="red" d="M322.29,-650.81C328.2,-635.55 336.43,-613.11 342,-593 349.99,-564.15 356.44,-530.47 360.46,-507.24"/>
<polygon fill="red" stroke="red" points="363.91,-507.8 362.13,-497.35 357.01,-506.63 363.91,-507.8"/>
<text text-anchor="middle" x="385" y="-577" font-family="Times,serif" font-size="10.00" fill="red">2.1.6</text>
<text text-anchor="middle" x="385" y="-566" font-family="Times,serif" font-size="10.00" fill="red">(latest: 2.1.9)</text>
</g>
<!-- roo_windows_transceivers -->
<g id="node28" class="node">
<title>roo_windows_transceivers</title>
<polygon fill="plum" stroke="red" points="493,-785 289,-785 289,-747 493,-747 493,-785"/>
<text text-anchor="middle" x="391" y="-769.8" font-family="Times,serif" font-size="14.00">roo_windows_transceivers</text>
<text text-anchor="middle" x="391" y="-754.8" font-family="Times,serif" font-size="14.00">1.0.0</text>
</g>
<!-- roo_windows_transceivers&#45;&gt;roo_transceivers -->
<g id="edge39" class="edge">
<title>roo_windows_transceivers&#45;&gt;roo_transceivers</title>
<path fill="none" stroke="red" d="M404.3,-746.88C414.61,-732.83 429.05,-713.17 440.63,-697.38"/>
<polygon fill="red" stroke="red" points="443.64,-699.2 446.74,-689.07 438,-695.06 443.64,-699.2"/>
<text text-anchor="middle" x="464" y="-721" font-family="Times,serif" font-size="10.00" fill="red">1.1.3</text>
<text text-anchor="middle" x="464" y="-710" font-family="Times,serif" font-size="10.00" fill="red">(latest: 1.1.4)</text>
</g>
<!-- roo_windows_transceivers&#45;&gt;roo_windows -->
<g id="edge40" class="edge">
<title>roo_windows_transceivers&#45;&gt;roo_windows</title>
<path fill="none" stroke="red" d="M367.04,-746.84C360.77,-741.48 354.3,-735.34 349,-729 341.21,-719.67 334.13,-708.34 328.47,-698.17"/>
<polygon fill="red" stroke="red" points="331.5,-696.42 323.7,-689.26 325.33,-699.72 331.5,-696.42"/>
<text text-anchor="middle" x="382" y="-721" font-family="Times,serif" font-size="10.00" fill="red">1.4.1</text>
<text text-anchor="middle" x="382" y="-710" font-family="Times,serif" font-size="10.00" fill="red">(latest: 1.4.2)</text>
</g>
<!-- roo_windows_wifi -->
<g id="node29" class="node">
<title>roo_windows_wifi</title>
<polygon fill="plum" stroke="red" points="652.5,-785 511.5,-785 511.5,-747 652.5,-747 652.5,-785"/>
<text text-anchor="middle" x="582" y="-769.8" font-family="Times,serif" font-size="14.00">roo_windows_wifi</text>
<text text-anchor="middle" x="582" y="-754.8" font-family="Times,serif" font-size="14.00">1.1.3</text>
</g>
<!-- roo_windows_wifi&#45;&gt;roo_wifi -->
<g id="edge41" class="edge">
<title>roo_windows_wifi&#45;&gt;roo_wifi</title>
<path fill="none" stroke="black" d="M582,-746.88C582,-733.35 582,-714.62 582,-699.15"/>
<polygon fill="black" stroke="black" points="585.5,-699.07 582,-689.07 578.5,-699.07 585.5,-699.07"/>
</g>
<!-- roo_windows_wifi&#45;&gt;roo_windows -->
<g id="edge42" class="edge">
<title>roo_windows_wifi&#45;&gt;roo_windows</title>
<path fill="none" stroke="black" d="M562.3,-746.81C546.81,-733.58 524.06,-716.4 501,-707 452.28,-687.14 435.52,-699.65 384,-689 382.56,-688.7 381.11,-688.39 379.64,-688.08"/>
<polygon fill="black" stroke="black" points="380.39,-684.66 369.87,-685.86 378.84,-691.48 380.39,-684.66"/>
</g>
</g>
</svg>
