<?xml version="1.0" encoding="UTF-8" standalone="no"?>
<!DOCTYPE svg PUBLIC "-//W3C//DTD SVG 1.1//EN"
 "http://www.w3.org/Graphics/SVG/1.1/DTD/svg11.dtd">
<!-- Generated by graphviz version 2.42.4 (0)
 -->
<!-- Title: dependencies Pages: 1 -->
<svg width="1807pt" height="788pt"
 viewBox="0.00 0.00 1807.00 788.00" xmlns="http://www.w3.org/2000/svg" xmlns:xlink="http://www.w3.org/1999/xlink">
<g id="graph0" class="graph" transform="scale(1 1) rotate(0) translate(4 784)">
<title>dependencies</title>
<polygon fill="white" stroke="transparent" points="-4,4 -4,-784 1803,-784 1803,4 -4,4"/>
<!-- roo_backport -->
<g id="node1" class="node">
<title>roo_backport</title>
<polygon fill="#b1dbab" stroke="black" points="1284,-188 1174,-188 1174,-150 1284,-150 1284,-188"/>
<text text-anchor="middle" x="1229" y="-172.8" font-family="Times,serif" font-size="14.00">roo_backport</text>
<text text-anchor="middle" x="1229" y="-157.8" font-family="Times,serif" font-size="14.00">1.2.0</text>
</g>
<!-- roo_blink -->
<g id="node2" class="node">
<title>roo_blink</title>
<polygon fill="plum" stroke="black" points="680,-476 598,-476 598,-438 680,-438 680,-476"/>
<text text-anchor="middle" x="639" y="-460.8" font-family="Times,serif" font-size="14.00">roo_blink</text>
<text text-anchor="middle" x="639" y="-445.8" font-family="Times,serif" font-size="14.00">1.0.4</text>
</g>
<!-- roo_logging -->
<g id="node12" class="node">
<title>roo_logging</title>
<polygon fill="#b1dbab" stroke="black" points="757,-284 657,-284 657,-246 757,-246 757,-284"/>
<text text-anchor="middle" x="707" y="-268.8" font-family="Times,serif" font-size="14.00">roo_logging</text>
<text text-anchor="middle" x="707" y="-253.8" font-family="Times,serif" font-size="14.00">1.5.2</text>
</g>
<!-- roo_blink&#45;&gt;roo_logging -->
<g id="edge1" class="edge">
<title>roo_blink&#45;&gt;roo_logging</title>
<path fill="none" stroke="red" d="M631.75,-437.8C623.67,-414.58 613.42,-373.64 627,-342 635.96,-321.12 653.79,-303.28 670.34,-290.14"/>
<polygon fill="red" stroke="red" points="672.48,-292.91 678.33,-284.07 668.25,-287.34 672.48,-292.91"/>
<text text-anchor="middle" x="660" y="-364" font-family="Times,serif" font-size="10.00" fill="red">1.5.1</text>
<text text-anchor="middle" x="660" y="-353" font-family="Times,serif" font-size="10.00" fill="red">(latest: 1.5.2)</text>
</g>
<!-- roo_scheduler -->
<g id="node16" class="node">
<title>roo_scheduler</title>
<polygon fill="#b1dbab" stroke="black" points="991,-380 875,-380 875,-342 991,-342 991,-380"/>
<text text-anchor="middle" x="933" y="-364.8" font-family="Times,serif" font-size="14.00">roo_scheduler</text>
<text text-anchor="middle" x="933" y="-349.8" font-family="Times,serif" font-size="14.00">2.1.6</text>
</g>
<!-- roo_blink&#45;&gt;roo_scheduler -->
<g id="edge2" class="edge">
<title>roo_blink&#45;&gt;roo_scheduler</title>
<path fill="none" stroke="black" d="M680.07,-449.8C714.5,-443.99 764.69,-434.08 807,-420 811.15,-418.62 851.2,-400.11 885.05,-384.37"/>
<polygon fill="black" stroke="black" points="886.81,-387.41 894.4,-380.02 883.85,-381.07 886.81,-387.41"/>
</g>
<!-- roo_collections -->
<g id="node3" class="node">
<title>roo_collections</title>
<polygon fill="#b1dbab" stroke="black" points="1250,-284 1128,-284 1128,-246 1250,-246 1250,-284"/>
<text text-anchor="middle" x="1189" y="-268.8" font-family="Times,serif" font-size="14.00">roo_collections</text>
<text text-anchor="middle" x="1189" y="-253.8" font-family="Times,serif" font-size="14.00">1.4.0</text>
</g>
<!-- roo_collections&#45;&gt;roo_backport -->
<g id="edge3" class="edge">
<title>roo_collections&#45;&gt;roo_backport</title>
<path fill="none" stroke="black" d="M1196.71,-245.88C1202.52,-232.22 1210.59,-213.26 1217.21,-197.71"/>
<polygon fill="black" stroke="black" points="1220.62,-198.64 1221.31,-188.07 1214.18,-195.9 1220.62,-198.64"/>
</g>
<!-- roo_comms -->
<g id="node4" class="node">
<title>roo_comms</title>
<polygon fill="plum" stroke="black" points="660.5,-684 563.5,-684 563.5,-646 660.5,-646 660.5,-684"/>
<text text-anchor="middle" x="612" y="-668.8" font-family="Times,serif" font-size="14.00">roo_comms</text>
<text text-anchor="middle" x="612" y="-653.8" font-family="Times,serif" font-size="14.00">1.1.3</text>
</g>
<!-- roo_comms&#45;&gt;roo_blink -->
<g id="edge4" class="edge">
<title>roo_comms&#45;&gt;roo_blink</title>
<path fill="none" stroke="black" d="M614.4,-645.72C619.12,-609.68 629.66,-529.25 635.29,-486.3"/>
<polygon fill="black" stroke="black" points="638.78,-486.61 636.61,-476.24 631.84,-485.7 638.78,-486.61"/>
</g>
<!-- roo_control -->
<g id="node5" class="node">
<title>roo_control</title>
<polygon fill="plum" stroke="black" points="457.5,-476 360.5,-476 360.5,-438 457.5,-438 457.5,-476"/>
<text text-anchor="middle" x="409" y="-460.8" font-family="Times,serif" font-size="14.00">roo_control</text>
<text text-anchor="middle" x="409" y="-445.8" font-family="Times,serif" font-size="14.00">1.2.3</text>
</g>
<!-- roo_comms&#45;&gt;roo_control -->
<g id="edge5" class="edge">
<title>roo_comms&#45;&gt;roo_control</title>
<path fill="none" stroke="black" d="M593.99,-645.72C557.72,-608.92 475.83,-525.82 434.25,-483.62"/>
<polygon fill="black" stroke="black" points="436.49,-480.91 426.97,-476.24 431.5,-485.82 436.49,-480.91"/>
</g>
<!-- roo_io -->
<g id="node10" class="node">
<title>roo_io</title>
<polygon fill="plum" stroke="black" points="1310.5,-380 1251.5,-380 1251.5,-342 1310.5,-342 1310.5,-380"/>
<text text-anchor="middle" x="1281" y="-364.8" font-family="Times,serif" font-size="14.00">roo_io</text>
<text text-anchor="middle" x="1281" y="-349.8" font-family="Times,serif" font-size="14.00">2.1.1</text>
</g>
<!-- roo_comms&#45;&gt;roo_io -->
<g id="edge6" class="edge">
<title>roo_comms&#45;&gt;roo_io</title>
<path fill="none" stroke="black" d="M654.39,-645.99C731.85,-612.96 901.36,-540.2 1043,-476 1131.24,-436 1155.75,-425.48 1242.24,-382.35"/>
<polygon fill="black" stroke="black" points="1243.99,-385.39 1251.37,-377.79 1240.86,-379.13 1243.99,-385.39"/>
</g>
<!-- roo_comms&#45;&gt;roo_logging -->
<g id="edge7" class="edge">
<title>roo_comms&#45;&gt;roo_logging</title>
<path fill="none" stroke="red" d="M563.45,-653.99C457.58,-629.69 220.41,-560.37 285,-438 310,-390.63 434.25,-321.86 484,-302 536.48,-281.05 600.54,-272.28 646.51,-268.61"/>
<polygon fill="red" stroke="red" points="646.9,-272.09 656.62,-267.87 646.39,-265.11 646.9,-272.09"/>
<text text-anchor="middle" x="318" y="-460" font-family="Times,serif" font-size="10.00" fill="red">1.5.1</text>
<text text-anchor="middle" x="318" y="-449" font-family="Times,serif" font-size="10.00" fill="red">(latest: 1.5.2)</text>
</g>
<!-- roo_transceivers -->
<g id="node21" class="node">
<title>roo_transceivers</title>
<polygon fill="plum" stroke="black" points="775.5,-572 640.5,-572 640.5,-534 775.5,-534 775.5,-572"/>
<text text-anchor="middle" x="708" y="-556.8" font-family="Times,serif" font-size="14.00">roo_transceivers</text>
<text text-anchor="middle" x="708" y="-541.8" font-family="Times,serif" font-size="14.00">1.1.4</text>
</g>
<!-- roo_comms&#45;&gt;roo_transceivers -->
<g id="edge8" class="edge">
<title>roo_comms&#45;&gt;roo_transceivers</title>
<path fill="none" stroke="black" d="M627.85,-645.84C643.56,-627.84 667.75,-600.12 685.45,-579.83"/>
<polygon fill="black" stroke="black" points="688.19,-582.03 692.12,-572.19 682.91,-577.42 688.19,-582.03"/>
</g>
<!-- roo_control&#45;&gt;roo_logging -->
<g id="edge9" class="edge">
<title>roo_control&#45;&gt;roo_logging</title>
<path fill="none" stroke="red" d="M413.34,-437.7C420.13,-412.85 435.52,-368.49 464,-342 514.17,-295.34 592.68,-277.32 646.81,-270.36"/>
<polygon fill="red" stroke="red" points="647.44,-273.81 656.96,-269.15 646.61,-266.86 647.44,-273.81"/>
<text text-anchor="middle" x="497" y="-364" font-family="Times,serif" font-size="10.00" fill="red">1.5.1</text>
<text text-anchor="middle" x="497" y="-353" font-family="Times,serif" font-size="10.00" fill="red">(latest: 1.5.2)</text>
</g>
<!-- roo_quantity -->
<g id="node15" class="node">
<title>roo_quantity</title>
<polygon fill="plum" stroke="black" points="334.5,-380 227.5,-380 227.5,-342 334.5,-342 334.5,-380"/>
<text text-anchor="middle" x="281" y="-364.8" font-family="Times,serif" font-size="14.00">roo_quantity</text>
<text text-anchor="middle" x="281" y="-349.8" font-family="Times,serif" font-size="14.00">1.1.5</text>
</g>
<!-- roo_control&#45;&gt;roo_quantity -->
<g id="edge10" class="edge">
<title>roo_control&#45;&gt;roo_quantity</title>
<path fill="none" stroke="black" d="M384.32,-437.88C364.22,-423.12 335.68,-402.15 313.68,-386"/>
<polygon fill="black" stroke="black" points="315.74,-383.17 305.6,-380.07 311.59,-388.81 315.74,-383.17"/>
</g>
<!-- roo_control&#45;&gt;roo_scheduler -->
<g id="edge11" class="edge">
<title>roo_control&#45;&gt;roo_scheduler</title>
<path fill="none" stroke="black" d="M457.52,-440.02C460.71,-439.25 463.89,-438.57 467,-438 530.51,-426.35 696.66,-442.99 757,-420 771.79,-414.37 770.77,-404.92 785,-398 809.78,-385.96 838.9,-377.76 864.72,-372.26"/>
<polygon fill="black" stroke="black" points="865.71,-375.64 874.81,-370.22 864.32,-368.78 865.71,-375.64"/>
</g>
<!-- roo_dashboard -->
<g id="node6" class="node">
<title>roo_dashboard</title>
<polygon fill="plum" stroke="black" points="122,-780 0,-780 0,-742 122,-742 122,-780"/>
<text text-anchor="middle" x="61" y="-764.8" font-family="Times,serif" font-size="14.00">roo_dashboard</text>
<text text-anchor="middle" x="61" y="-749.8" font-family="Times,serif" font-size="14.00">1.0.1</text>
</g>
<!-- roo_testing -->
<g id="node17" class="node">
<title>roo_testing</title>
<polygon fill="#b1dbab" stroke="black" points="1518.5,-38 1421.5,-38 1421.5,0 1518.5,0 1518.5,-38"/>
<text text-anchor="middle" x="1470" y="-22.8" font-family="Times,serif" font-size="14.00">roo_testing</text>
<text text-anchor="middle" x="1470" y="-7.8" font-family="Times,serif" font-size="14.00">1.2.0</text>
</g>
<!-- roo_dashboard&#45;&gt;roo_testing -->
<g id="edge12" class="edge">
<title>roo_dashboard&#45;&gt;roo_testing</title>
<path fill="none" stroke="red" d="M54.78,-741.87C48.91,-723.12 41,-692.86 41,-666 41,-666 41,-666 41,-93 41,-23.25 1141.18,-19.7 1410.86,-19.88"/>
<polygon fill="red" stroke="red" points="1411.22,-23.38 1421.22,-19.89 1411.23,-16.38 1411.22,-23.38"/>
<text text-anchor="middle" x="74" y="-364" font-family="Times,serif" font-size="10.00" fill="red">1.1.7</text>
<text text-anchor="middle" x="74" y="-353" font-family="Times,serif" font-size="10.00" fill="red">(latest: 1.2.0)</text>
</g>
<!-- roo_windows -->
<g id="node24" class="node">
<title>roo_windows</title>
<polygon fill="plum" stroke="black" points="1195.5,-684 1086.5,-684 1086.5,-646 1195.5,-646 1195.5,-684"/>
<text text-anchor="middle" x="1141" y="-668.8" font-family="Times,serif" font-size="14.00">roo_windows</text>
<text text-anchor="middle" x="1141" y="-653.8" font-family="Times,serif" font-size="14.00">1.4.1</text>
</g>
<!-- roo_dashboard&#45;&gt;roo_windows -->
<g id="edge13" class="edge">
<title>roo_dashboard&#45;&gt;roo_windows</title>
<path fill="none" stroke="black" d="M122.16,-754.68C310.88,-738.25 883.02,-688.45 1076.36,-671.63"/>
<polygon fill="black" stroke="black" points="1076.72,-675.11 1086.37,-670.75 1076.11,-668.13 1076.72,-675.11"/>
</g>
<!-- roo_display -->
<g id="node7" class="node">
<title>roo_display</title>
<polygon fill="plum" stroke="black" points="1558,-476 1460,-476 1460,-438 1558,-438 1558,-476"/>
<text text-anchor="middle" x="1509" y="-460.8" font-family="Times,serif" font-size="14.00">roo_display</text>
<text text-anchor="middle" x="1509" y="-445.8" font-family="Times,serif" font-size="14.00">2.3.1</text>
</g>
<!-- roo_display&#45;&gt;roo_backport -->
<g id="edge15" class="edge">
<title>roo_display&#45;&gt;roo_backport</title>
<path fill="none" stroke="red" d="M1510.68,-437.97C1511.15,-426.25 1510.56,-410.82 1506,-398 1495.66,-368.94 1491.36,-358.03 1465,-342 1420.42,-314.89 1393.62,-351.03 1349,-324 1293.27,-290.24 1303.41,-256.31 1262,-206 1259.27,-202.69 1256.33,-199.27 1253.37,-195.93"/>
<polygon fill="red" stroke="red" points="1255.82,-193.42 1246.51,-188.35 1250.62,-198.11 1255.82,-193.42"/>
<text text-anchor="middle" x="1382" y="-316" font-family="Times,serif" font-size="10.00" fill="red">1.1.1</text>
<text text-anchor="middle" x="1382" y="-305" font-family="Times,serif" font-size="10.00" fill="red">(latest: 1.2.0)</text>
</g>
<!-- roo_display&#45;&gt;roo_collections -->
<g id="edge16" class="edge">
<title>roo_display&#45;&gt;roo_collections</title>
<path fill="none" stroke="red" d="M1506.11,-437.89C1503.08,-424.88 1496.99,-407.95 1485,-398 1454.94,-373.07 1435.66,-393.46 1399,-380 1364.93,-367.49 1279.31,-318.82 1228.54,-289.26"/>
<polygon fill="red" stroke="red" points="1230.19,-286.17 1219.79,-284.16 1226.66,-292.22 1230.19,-286.17"/>
<text text-anchor="middle" x="1432" y="-364" font-family="Times,serif" font-size="10.00" fill="red">1.3.2</text>
<text text-anchor="middle" x="1432" y="-353" font-family="Times,serif" font-size="10.00" fill="red">(latest: 1.4.0)</text>
</g>
<!-- roo_display&#45;&gt;roo_io -->
<g id="edge17" class="edge">
<title>roo_display&#45;&gt;roo_io</title>
<path fill="none" stroke="red" d="M1465.31,-437.99C1423.29,-420.66 1360.37,-394.72 1320,-378.08"/>
<polygon fill="red" stroke="red" points="1321.33,-374.84 1310.75,-374.26 1318.66,-381.31 1321.33,-374.84"/>
<text text-anchor="middle" x="1448" y="-412" font-family="Times,serif" font-size="10.00" fill="red">2.0.2</text>
<text text-anchor="middle" x="1448" y="-401" font-family="Times,serif" font-size="10.00" fill="red">(latest: 2.1.1)</text>
</g>
<!-- roo_display&#45;&gt;roo_testing -->
<g id="edge14" class="edge">
<title>roo_display&#45;&gt;roo_testing</title>
<path fill="none" stroke="red" d="M1516.06,-437.83C1518.13,-432.17 1520.29,-425.87 1522,-420 1527.1,-402.51 1528.51,-398.05 1531,-380 1541.57,-303.31 1552.53,-282.22 1539,-206 1528.57,-147.26 1500.67,-82.86 1483.71,-47.34"/>
<polygon fill="red" stroke="red" points="1486.75,-45.6 1479.24,-38.12 1480.45,-48.65 1486.75,-45.6"/>
<text text-anchor="middle" x="1575" y="-220" font-family="Times,serif" font-size="10.00" fill="red">1.1.7</text>
<text text-anchor="middle" x="1575" y="-209" font-family="Times,serif" font-size="10.00" fill="red">(latest: 1.2.0)</text>
</g>
<!-- roo_flags -->
<g id="node8" class="node">
<title>roo_flags</title>
<polygon fill="#b1dbab" stroke="black" points="484,-188 404,-188 404,-150 484,-150 484,-188"/>
<text text-anchor="middle" x="444" y="-172.8" font-family="Times,serif" font-size="14.00">roo_flags</text>
<text text-anchor="middle" x="444" y="-157.8" font-family="Times,serif" font-size="14.00">1.2.0</text>
</g>
<!-- roo_icons -->
<g id="node9" class="node">
<title>roo_icons</title>
<polygon fill="plum" stroke="black" points="1550.5,-572 1467.5,-572 1467.5,-534 1550.5,-534 1550.5,-572"/>
<text text-anchor="middle" x="1509" y="-556.8" font-family="Times,serif" font-size="14.00">roo_icons</text>
<text text-anchor="middle" x="1509" y="-541.8" font-family="Times,serif" font-size="14.00">1.2.1</text>
</g>
<!-- roo_icons&#45;&gt;roo_display -->
<g id="edge19" class="edge">
<title>roo_icons&#45;&gt;roo_display</title>
<path fill="none" stroke="black" d="M1509,-533.88C1509,-520.35 1509,-501.62 1509,-486.15"/>
<polygon fill="black" stroke="black" points="1512.5,-486.07 1509,-476.07 1505.5,-486.07 1512.5,-486.07"/>
</g>
<!-- roo_icons&#45;&gt;roo_testing -->
<g id="edge18" class="edge">
<title>roo_icons&#45;&gt;roo_testing</title>
<path fill="none" stroke="red" d="M1526.78,-533.94C1539.96,-519.48 1557.28,-498.02 1567,-476 1591.56,-420.35 1630.63,-263.91 1612,-206 1590.55,-139.3 1533.56,-78.06 1498.64,-45.19"/>
<polygon fill="red" stroke="red" points="1500.84,-42.45 1491.13,-38.23 1496.09,-47.59 1500.84,-42.45"/>
<text text-anchor="middle" x="1649" y="-268" font-family="Times,serif" font-size="10.00" fill="red">1.1.7</text>
<text text-anchor="middle" x="1649" y="-257" font-family="Times,serif" font-size="10.00" fill="red">(latest: 1.2.0)</text>
</g>
<!-- roo_io&#45;&gt;roo_backport -->
<g id="edge20" class="edge">
<title>roo_io&#45;&gt;roo_backport</title>
<path fill="none" stroke="black" d="M1278.58,-341.98C1275.29,-319.31 1268.69,-279.29 1259,-246 1254.2,-229.51 1247.23,-211.62 1241.22,-197.34"/>
<polygon fill="black" stroke="black" points="1244.41,-195.9 1237.25,-188.1 1237.98,-198.67 1244.41,-195.9"/>
</g>
<!-- roo_io&#45;&gt;roo_logging -->
<g id="edge21" class="edge">
<title>roo_io&#45;&gt;roo_logging</title>
<path fill="none" stroke="red" d="M1251.03,-346.64C1246.4,-344.9 1241.61,-343.28 1237,-342 1070.65,-295.98 866.79,-276.73 767.35,-269.64"/>
<polygon fill="red" stroke="red" points="767.41,-266.13 757.19,-268.93 766.92,-273.11 767.41,-266.13"/>
<text text-anchor="middle" x="1184" y="-316" font-family="Times,serif" font-size="10.00" fill="red">1.5.1</text>
<text text-anchor="middle" x="1184" y="-305" font-family="Times,serif" font-size="10.00" fill="red">(latest: 1.5.2)</text>
</g>
<!-- roo_threads -->
<g id="node18" class="node">
<title>roo_threads</title>
<polygon fill="#b1dbab" stroke="black" points="1403.5,-188 1302.5,-188 1302.5,-150 1403.5,-150 1403.5,-188"/>
<text text-anchor="middle" x="1353" y="-172.8" font-family="Times,serif" font-size="14.00">roo_threads</text>
<text text-anchor="middle" x="1353" y="-157.8" font-family="Times,serif" font-size="14.00">1.2.0</text>
</g>
<!-- roo_io&#45;&gt;roo_threads -->
<g id="edge22" class="edge">
<title>roo_io&#45;&gt;roo_threads</title>
<path fill="none" stroke="black" d="M1287.9,-341.78C1300.56,-308.37 1327.56,-237.13 1342.51,-197.69"/>
<polygon fill="black" stroke="black" points="1345.85,-198.75 1346.12,-188.16 1339.3,-196.27 1345.85,-198.75"/>
</g>
<!-- roo_locale -->
<g id="node11" class="node">
<title>roo_locale</title>
<polygon fill="#b1dbab" stroke="black" points="1221,-572 1133,-572 1133,-534 1221,-534 1221,-572"/>
<text text-anchor="middle" x="1177" y="-556.8" font-family="Times,serif" font-size="14.00">roo_locale</text>
<text text-anchor="middle" x="1177" y="-541.8" font-family="Times,serif" font-size="14.00">1.1.1</text>
</g>
<!-- roo_logging&#45;&gt;roo_backport -->
<g id="edge23" class="edge">
<title>roo_logging&#45;&gt;roo_backport</title>
<path fill="none" stroke="black" d="M757.16,-257.51C839.97,-246.4 1010.55,-221.83 1163.87,-188.13"/>
<polygon fill="black" stroke="black" points="1164.93,-191.48 1173.94,-185.9 1163.42,-184.65 1164.93,-191.48"/>
</g>
<!-- roo_logging&#45;&gt;roo_flags -->
<g id="edge24" class="edge">
<title>roo_logging&#45;&gt;roo_flags</title>
<path fill="none" stroke="black" d="M656.91,-246.1C610.02,-229.34 540.36,-204.44 493.62,-187.74"/>
<polygon fill="black" stroke="black" points="494.61,-184.37 484.01,-184.3 492.25,-190.96 494.61,-184.37"/>
</g>
<!-- roo_logging&#45;&gt;roo_threads -->
<g id="edge25" class="edge">
<title>roo_logging&#45;&gt;roo_threads</title>
<path fill="none" stroke="black" d="M757.32,-260.62C857.73,-253.19 1089.94,-232.62 1292.47,-187.94"/>
<polygon fill="black" stroke="black" points="1293.4,-191.32 1302.39,-185.73 1291.87,-184.49 1293.4,-191.32"/>
</g>
<!-- roo_onewire -->
<g id="node13" class="node">
<title>roo_onewire</title>
<polygon fill="plum" stroke="black" points="580,-476 476,-476 476,-438 580,-438 580,-476"/>
<text text-anchor="middle" x="528" y="-460.8" font-family="Times,serif" font-size="14.00">roo_onewire</text>
<text text-anchor="middle" x="528" y="-445.8" font-family="Times,serif" font-size="14.00">2.0.7</text>
</g>
<!-- roo_onewire&#45;&gt;roo_logging -->
<g id="edge26" class="edge">
<title>roo_onewire&#45;&gt;roo_logging</title>
<path fill="none" stroke="red" d="M526.97,-437.79C526.54,-413.45 529.26,-370.11 551,-342 574.74,-311.31 614.07,-292.26 647.3,-280.91"/>
<polygon fill="red" stroke="red" points="648.52,-284.2 656.94,-277.77 646.35,-277.54 648.52,-284.2"/>
<text text-anchor="middle" x="584" y="-364" font-family="Times,serif" font-size="10.00" fill="red">1.5.1</text>
<text text-anchor="middle" x="584" y="-353" font-family="Times,serif" font-size="10.00" fill="red">(latest: 1.5.2)</text>
</g>
<!-- roo_onewire&#45;&gt;roo_quantity -->
<g id="edge28" class="edge">
<title>roo_onewire&#45;&gt;roo_quantity</title>
<path fill="none" stroke="black" d="M480.67,-437.99C440.04,-422.52 381.36,-400.19 338.12,-383.74"/>
<polygon fill="black" stroke="black" points="339.18,-380.4 328.59,-380.11 336.69,-386.94 339.18,-380.4"/>
</g>
<!-- roo_onewire&#45;&gt;roo_scheduler -->
<g id="edge27" class="edge">
<title>roo_onewire&#45;&gt;roo_scheduler</title>
<path fill="none" stroke="black" d="M580.08,-439.91C583.08,-439.21 586.07,-438.56 589,-438 673.6,-421.73 701.98,-451.91 782,-420 796.7,-414.14 795.93,-405.24 810,-398 827.1,-389.2 846.69,-382.23 865.12,-376.87"/>
<polygon fill="black" stroke="black" points="866.24,-380.19 874.93,-374.13 864.35,-373.45 866.24,-380.19"/>
</g>
<!-- roo_prefs -->
<g id="node14" class="node">
<title>roo_prefs</title>
<polygon fill="plum" stroke="black" points="834.5,-476 751.5,-476 751.5,-438 834.5,-438 834.5,-476"/>
<text text-anchor="middle" x="793" y="-460.8" font-family="Times,serif" font-size="14.00">roo_prefs</text>
<text text-anchor="middle" x="793" y="-445.8" font-family="Times,serif" font-size="14.00">1.2.7</text>
</g>
<!-- roo_prefs&#45;&gt;roo_logging -->
<g id="edge29" class="edge">
<title>roo_prefs&#45;&gt;roo_logging</title>
<path fill="none" stroke="red" d="M784.75,-437.78C769.6,-404.3 737.25,-332.82 719.42,-293.44"/>
<polygon fill="red" stroke="red" points="722.53,-291.83 715.22,-284.16 716.16,-294.72 722.53,-291.83"/>
<text text-anchor="middle" x="792" y="-364" font-family="Times,serif" font-size="10.00" fill="red">1.5.1</text>
<text text-anchor="middle" x="792" y="-353" font-family="Times,serif" font-size="10.00" fill="red">(latest: 1.5.2)</text>
</g>
<!-- roo_prefs&#45;&gt;roo_scheduler -->
<g id="edge30" class="edge">
<title>roo_prefs&#45;&gt;roo_scheduler</title>
<path fill="none" stroke="black" d="M829.5,-437.91C839.59,-432.5 850.4,-426.32 860,-420 875.34,-409.9 891.42,-397.36 904.57,-386.53"/>
<polygon fill="black" stroke="black" points="906.91,-389.13 912.35,-380.04 902.43,-383.76 906.91,-389.13"/>
</g>
<!-- roo_quantity&#45;&gt;roo_flags -->
<g id="edge31" class="edge">
<title>roo_quantity&#45;&gt;roo_flags</title>
<path fill="none" stroke="black" d="M278.69,-341.77C278,-329.82 278.74,-314.22 285,-302 310.06,-253.08 362.08,-215.43 399.81,-193.09"/>
<polygon fill="black" stroke="black" points="401.68,-196.05 408.59,-188.01 398.18,-189.99 401.68,-196.05"/>
</g>
<!-- roo_quantity&#45;&gt;roo_logging -->
<g id="edge32" class="edge">
<title>roo_quantity&#45;&gt;roo_logging</title>
<path fill="none" stroke="red" d="M283.18,-341.77C285.78,-328.52 291.5,-311.33 304,-302 330.8,-282 540.68,-271.84 646.47,-267.94"/>
<polygon fill="red" stroke="red" points="646.81,-271.43 656.68,-267.57 646.56,-264.43 646.81,-271.43"/>
<text text-anchor="middle" x="337" y="-316" font-family="Times,serif" font-size="10.00" fill="red">1.5.1</text>
<text text-anchor="middle" x="337" y="-305" font-family="Times,serif" font-size="10.00" fill="red">(latest: 1.5.2)</text>
</g>
<!-- roo_time -->
<g id="node19" class="node">
<title>roo_time</title>
<polygon fill="#b1dbab" stroke="black" points="1392.5,-113 1313.5,-113 1313.5,-75 1392.5,-75 1392.5,-113"/>
<text text-anchor="middle" x="1353" y="-97.8" font-family="Times,serif" font-size="14.00">roo_time</text>
<text text-anchor="middle" x="1353" y="-82.8" font-family="Times,serif" font-size="14.00">1.4.0</text>
</g>
<!-- roo_quantity&#45;&gt;roo_time -->
<g id="edge33" class="edge">
<title>roo_quantity&#45;&gt;roo_time</title>
<path fill="none" stroke="black" d="M277.97,-341.74C277.16,-336.07 276.4,-329.79 276,-324 273.55,-288.6 274.3,-276.15 293,-246 325.82,-193.1 337.81,-174.6 395,-150 478.65,-114.02 1118.15,-99.38 1303.07,-95.87"/>
<polygon fill="black" stroke="black" points="1303.38,-99.37 1313.31,-95.68 1303.25,-92.37 1303.38,-99.37"/>
</g>
<!-- roo_scheduler&#45;&gt;roo_collections -->
<g id="edge34" class="edge">
<title>roo_scheduler&#45;&gt;roo_collections</title>
<path fill="none" stroke="black" d="M948.8,-341.95C961.35,-328.8 980.06,-311.65 1000,-302 1036.55,-284.31 1081.01,-275.3 1117.62,-270.72"/>
<polygon fill="black" stroke="black" points="1118.2,-274.17 1127.73,-269.54 1117.39,-267.22 1118.2,-274.17"/>
</g>
<!-- roo_scheduler&#45;&gt;roo_threads -->
<g id="edge35" class="edge">
<title>roo_scheduler&#45;&gt;roo_threads</title>
<path fill="none" stroke="black" d="M991.13,-345.33C995.82,-344.19 1000.49,-343.07 1005,-342 1040.89,-333.53 1057.67,-347.61 1086,-324 1114.92,-299.91 1091.26,-271.45 1119,-246 1125.66,-239.89 1225.71,-208.67 1292.81,-188.19"/>
<polygon fill="black" stroke="black" points="1293.91,-191.51 1302.46,-185.25 1291.87,-184.82 1293.91,-191.51"/>
</g>
<!-- roo_threads&#45;&gt;roo_time -->
<g id="edge36" class="edge">
<title>roo_threads&#45;&gt;roo_time</title>
<path fill="none" stroke="black" d="M1353,-149.96C1353,-141.88 1353,-132.18 1353,-123.18"/>
<polygon fill="black" stroke="black" points="1356.5,-123.09 1353,-113.09 1349.5,-123.09 1356.5,-123.09"/>
</g>
<!-- roo_time&#45;&gt;roo_testing -->
<g id="edge37" class="edge">
<title>roo_time&#45;&gt;roo_testing</title>
<path fill="none" stroke="black" d="M1381.92,-74.96C1397.11,-65.48 1415.91,-53.75 1432.23,-43.57"/>
<polygon fill="black" stroke="black" points="1434.37,-46.35 1441.01,-38.09 1430.67,-40.41 1434.37,-46.35"/>
</g>
<!-- roo_time_ds3231 -->
<g id="node20" class="node">
<title>roo_time_ds3231</title>
<polygon fill="#b1dbab" stroke="black" points="1156,-188 1018,-188 1018,-150 1156,-150 1156,-188"/>
<text text-anchor="middle" x="1087" y="-172.8" font-family="Times,serif" font-size="14.00">roo_time_ds3231</text>
<text text-anchor="middle" x="1087" y="-157.8" font-family="Times,serif" font-size="14.00">1.1.4</text>
</g>
<!-- roo_time_ds3231&#45;&gt;roo_time -->
<g id="edge38" class="edge">
<title>roo_time_ds3231&#45;&gt;roo_time</title>
<path fill="none" stroke="black" d="M1152.75,-149.96C1199.33,-137.17 1260.83,-120.29 1303.33,-108.63"/>
<polygon fill="black" stroke="black" points="1304.45,-111.95 1313.17,-105.93 1302.6,-105.2 1304.45,-111.95"/>
</g>
<!-- roo_transceivers&#45;&gt;roo_logging -->
<g id="edge39" class="edge">
<title>roo_transceivers&#45;&gt;roo_logging</title>
<path fill="none" stroke="red" d="M705.99,-533.67C703.3,-508.2 698.69,-460.67 697,-420 695.17,-375.94 699.83,-324.88 703.38,-294.03"/>
<polygon fill="red" stroke="red" points="706.87,-294.35 704.59,-284 699.92,-293.52 706.87,-294.35"/>
<text text-anchor="middle" x="730" y="-412" font-family="Times,serif" font-size="10.00" fill="red">1.5.1</text>
<text text-anchor="middle" x="730" y="-401" font-family="Times,serif" font-size="10.00" fill="red">(latest: 1.5.2)</text>
</g>
<!-- roo_transceivers&#45;&gt;roo_prefs -->
<g id="edge40" class="edge">
<title>roo_transceivers&#45;&gt;roo_prefs</title>
<path fill="none" stroke="black" d="M724.39,-533.88C737.32,-519.57 755.53,-499.44 769.93,-483.51"/>
<polygon fill="black" stroke="black" points="772.55,-485.83 776.66,-476.07 767.36,-481.14 772.55,-485.83"/>
</g>
<!-- roo_transport -->
<g id="node22" class="node">
<title>roo_transport</title>
<polygon fill="plum" stroke="black" points="1391,-476 1277,-476 1277,-438 1391,-438 1391,-476"/>
<text text-anchor="middle" x="1334" y="-460.8" font-family="Times,serif" font-size="14.00">roo_transport</text>
<text text-anchor="middle" x="1334" y="-445.8" font-family="Times,serif" font-size="14.00">1.0.2</text>
</g>
<!-- roo_transport&#45;&gt;roo_collections -->
<g id="edge42" class="edge">
<title>roo_transport&#45;&gt;roo_collections</title>
<path fill="none" stroke="red" d="M1276.88,-444.44C1241.5,-434.02 1198.8,-414.77 1177,-380 1160.74,-354.07 1168.35,-318.14 1177.02,-293.6"/>
<polygon fill="red" stroke="red" points="1180.33,-294.75 1180.6,-284.15 1173.78,-292.26 1180.33,-294.75"/>
<text text-anchor="middle" x="1210" y="-364" font-family="Times,serif" font-size="10.00" fill="red">1.3.2</text>
<text text-anchor="middle" x="1210" y="-353" font-family="Times,serif" font-size="10.00" fill="red">(latest: 1.4.0)</text>
</g>
<!-- roo_transport&#45;&gt;roo_io -->
<g id="edge43" class="edge">
<title>roo_transport&#45;&gt;roo_io</title>
<path fill="none" stroke="red" d="M1299.1,-437.98C1292.68,-433.04 1286.81,-427.06 1283,-420 1278.18,-411.08 1276.84,-400.21 1276.99,-390.31"/>
<polygon fill="red" stroke="red" points="1280.5,-390.28 1277.64,-380.07 1273.51,-389.83 1280.5,-390.28"/>
<text text-anchor="middle" x="1316" y="-412" font-family="Times,serif" font-size="10.00" fill="red">2.0.3</text>
<text text-anchor="middle" x="1316" y="-401" font-family="Times,serif" font-size="10.00" fill="red">(latest: 2.1.1)</text>
</g>
<!-- roo_transport&#45;&gt;roo_logging -->
<g id="edge44" class="edge">
<title>roo_transport&#45;&gt;roo_logging</title>
<path fill="none" stroke="red" d="M1276.88,-444.18C1249.42,-437.95 1216.2,-429.6 1187,-420 1101.45,-391.87 1084.97,-371.83 1000,-342 939.35,-320.7 923.21,-318.21 861,-302 830.1,-293.95 795.5,-285.78 766.93,-279.27"/>
<polygon fill="red" stroke="red" points="767.62,-275.84 757.09,-277.04 766.07,-282.66 767.62,-275.84"/>
<text text-anchor="middle" x="1121" y="-364" font-family="Times,serif" font-size="10.00" fill="red">1.4.3</text>
<text text-anchor="middle" x="1121" y="-353" font-family="Times,serif" font-size="10.00" fill="red">(latest: 1.5.2)</text>
</g>
<!-- roo_transport&#45;&gt;roo_testing -->
<g id="edge41" class="edge">
<title>roo_transport&#45;&gt;roo_testing</title>
<path fill="none" stroke="red" d="M1391.32,-451.92C1416.12,-447.41 1443.8,-438.27 1463,-420 1495.58,-389 1487.8,-368.39 1495,-324 1502.08,-280.37 1476.43,-271.57 1469,-228 1458.18,-164.58 1462.91,-88.69 1466.78,-48.4"/>
<polygon fill="red" stroke="red" points="1470.28,-48.56 1467.81,-38.26 1463.32,-47.85 1470.28,-48.56"/>
<text text-anchor="middle" x="1502" y="-220" font-family="Times,serif" font-size="10.00" fill="red">1.1.8</text>
<text text-anchor="middle" x="1502" y="-209" font-family="Times,serif" font-size="10.00" fill="red">(latest: 1.2.0)</text>
</g>
<!-- roo_transport&#45;&gt;roo_threads -->
<g id="edge45" class="edge">
<title>roo_transport&#45;&gt;roo_threads</title>
<path fill="none" stroke="red" d="M1343.65,-437.79C1351.21,-425.07 1362.82,-408.54 1377,-398 1395.96,-383.91 1413.42,-399.32 1427,-380 1448.35,-349.62 1395.98,-246.57 1368.51,-197.03"/>
<polygon fill="red" stroke="red" points="1371.48,-195.16 1363.54,-188.15 1365.37,-198.59 1371.48,-195.16"/>
<text text-anchor="middle" x="1458" y="-316" font-family="Times,serif" font-size="10.00" fill="red">1.1.6</text>
<text text-anchor="middle" x="1458" y="-305" font-family="Times,serif" font-size="10.00" fill="red">(latest: 1.2.0)</text>
</g>
<!-- roo_wifi -->
<g id="node23" class="node">
<title>roo_wifi</title>
<polygon fill="#b1dbab" stroke="black" points="878,-628 806,-628 806,-590 878,-590 878,-628"/>
<text text-anchor="middle" x="842" y="-612.8" font-family="Times,serif" font-size="14.00">roo_wifi</text>
<text text-anchor="middle" x="842" y="-597.8" font-family="Times,serif" font-size="14.00">1.1.3</text>
</g>
<!-- roo_wifi&#45;&gt;roo_prefs -->
<g id="edge46" class="edge">
<title>roo_wifi&#45;&gt;roo_prefs</title>
<path fill="none" stroke="black" d="M836.09,-589.91C827.63,-564 811.99,-516.13 802.06,-485.74"/>
<polygon fill="black" stroke="black" points="805.36,-484.58 798.93,-476.16 798.71,-486.75 805.36,-484.58"/>
</g>
<!-- roo_windows&#45;&gt;roo_collections -->
<g id="edge48" class="edge">
<title>roo_windows&#45;&gt;roo_collections</title>
<path fill="none" stroke="red" d="M1126.67,-645.66C1104.5,-615.04 1065.64,-551.22 1078,-494 1094.93,-415.62 1143.96,-333.36 1170.84,-292.42"/>
<polygon fill="red" stroke="red" points="1173.75,-294.35 1176.38,-284.09 1167.92,-290.48 1173.75,-294.35"/>
<text text-anchor="middle" x="1127" y="-460" font-family="Times,serif" font-size="10.00" fill="red">1.3.2</text>
<text text-anchor="middle" x="1127" y="-449" font-family="Times,serif" font-size="10.00" fill="red">(latest: 1.4.0)</text>
</g>
<!-- roo_windows&#45;&gt;roo_icons -->
<g id="edge51" class="edge">
<title>roo_windows&#45;&gt;roo_icons</title>
<path fill="none" stroke="black" d="M1195.68,-647.93C1216.73,-641.73 1240.99,-634.56 1263,-628 1330.18,-607.98 1407.59,-584.65 1457.36,-569.62"/>
<polygon fill="black" stroke="black" points="1458.67,-572.88 1467.23,-566.64 1456.65,-566.18 1458.67,-572.88"/>
</g>
<!-- roo_windows&#45;&gt;roo_io -->
<g id="edge52" class="edge">
<title>roo_windows&#45;&gt;roo_io</title>
<path fill="none" stroke="red" d="M1164.66,-645.77C1185.01,-628.83 1213.59,-601.78 1230,-572 1234.43,-563.95 1261.94,-445.28 1274.62,-389.98"/>
<polygon fill="red" stroke="red" points="1278.05,-390.65 1276.87,-380.12 1271.23,-389.09 1278.05,-390.65"/>
<text text-anchor="middle" x="1282" y="-508" font-family="Times,serif" font-size="10.00" fill="red">2.0.2</text>
<text text-anchor="middle" x="1282" y="-497" font-family="Times,serif" font-size="10.00" fill="red">(latest: 2.1.1)</text>
</g>
<!-- roo_windows&#45;&gt;roo_locale -->
<g id="edge49" class="edge">
<title>roo_windows&#45;&gt;roo_locale</title>
<path fill="none" stroke="black" d="M1146.94,-645.84C1152.65,-628.4 1161.35,-601.82 1167.92,-581.74"/>
<polygon fill="black" stroke="black" points="1171.26,-582.78 1171.05,-572.19 1164.61,-580.61 1171.26,-582.78"/>
</g>
<!-- roo_windows&#45;&gt;roo_logging -->
<g id="edge50" class="edge">
<title>roo_windows&#45;&gt;roo_logging</title>
<path fill="none" stroke="red" d="M1112.33,-645.88C1104.49,-640.47 1096.19,-634.29 1089,-628 1056.69,-599.71 861.98,-369.5 829,-342 804.78,-321.81 774.75,-303.03 750.54,-289.2"/>
<polygon fill="red" stroke="red" points="752,-286 741.57,-284.14 748.57,-292.1 752,-286"/>
<text text-anchor="middle" x="985" y="-460" font-family="Times,serif" font-size="10.00" fill="red">1.4.2</text>
<text text-anchor="middle" x="985" y="-449" font-family="Times,serif" font-size="10.00" fill="red">(latest: 1.5.2)</text>
</g>
<!-- roo_windows&#45;&gt;roo_scheduler -->
<g id="edge53" class="edge">
<title>roo_windows&#45;&gt;roo_scheduler</title>
<path fill="none" stroke="red" d="M1136.78,-645.78C1126.57,-604.86 1097.29,-504.09 1043,-438 1025.26,-416.4 999.87,-398.31 977.96,-385.2"/>
<polygon fill="red" stroke="red" points="979.53,-382.07 969.12,-380.07 976.01,-388.12 979.53,-382.07"/>
<text text-anchor="middle" x="1123" y="-508" font-family="Times,serif" font-size="10.00" fill="red">2.1.4</text>
<text text-anchor="middle" x="1123" y="-497" font-family="Times,serif" font-size="10.00" fill="red">(latest: 2.1.6)</text>
</g>
<!-- roo_windows&#45;&gt;roo_testing -->
<g id="edge47" class="edge">
<title>roo_windows&#45;&gt;roo_testing</title>
<path fill="none" stroke="red" d="M1195.77,-662.16C1297.82,-658.31 1513.21,-648.04 1585,-628 1655.83,-608.22 1733,-627.54 1733,-554 1733,-554 1733,-554 1733,-93 1733,-50.88 1606.18,-32.06 1528.67,-24.49"/>
<polygon fill="red" stroke="red" points="1528.83,-20.98 1518.54,-23.53 1528.17,-27.95 1528.83,-20.98"/>
<text text-anchor="middle" x="1766" y="-316" font-family="Times,serif" font-size="10.00" fill="red">1.1.7</text>
<text text-anchor="middle" x="1766" y="-305" font-family="Times,serif" font-size="10.00" fill="red">(latest: 1.2.0)</text>
</g>
<!-- roo_windows&#45;&gt;roo_time -->
<g id="edge54" class="edge">
<title>roo_windows&#45;&gt;roo_time</title>
<path fill="none" stroke="red" d="M1195.72,-663.37C1325.09,-660.42 1639,-643.98 1639,-554 1639,-554 1639,-554 1639,-408 1639,-307.22 1604.59,-279.84 1536,-206 1498.19,-165.29 1442.12,-134.27 1402.02,-115.51"/>
<polygon fill="red" stroke="red" points="1403.25,-112.22 1392.7,-111.24 1400.33,-118.59 1403.25,-112.22"/>
<text text-anchor="middle" x="1670" y="-364" font-family="Times,serif" font-size="10.00" fill="red">1.3.2</text>
<text text-anchor="middle" x="1670" y="-353" font-family="Times,serif" font-size="10.00" fill="red">(latest: 1.4.0)</text>
</g>
<!-- roo_windows_wifi -->
<g id="node25" class="node">
<title>roo_windows_wifi</title>
<polygon fill="plum" stroke="black" points="912.5,-780 771.5,-780 771.5,-742 912.5,-742 912.5,-780"/>
<text text-anchor="middle" x="842" y="-764.8" font-family="Times,serif" font-size="14.00">roo_windows_wifi</text>
<text text-anchor="middle" x="842" y="-749.8" font-family="Times,serif" font-size="14.00">1.1.2</text>
</g>
<!-- roo_windows_wifi&#45;&gt;roo_testing -->
<g id="edge55" class="edge">
<title>roo_windows_wifi&#45;&gt;roo_testing</title>
<path fill="none" stroke="red" d="M771.45,-757.83C593.97,-751.42 143,-728.95 143,-666 143,-666 143,-666 143,-93 143,-28.57 1153.58,-21 1410.93,-20.12"/>
<polygon fill="red" stroke="red" points="1411.21,-23.61 1421.2,-20.08 1411.19,-16.61 1411.21,-23.61"/>
<text text-anchor="middle" x="176" y="-364" font-family="Times,serif" font-size="10.00" fill="red">1.1.7</text>
<text text-anchor="middle" x="176" y="-353" font-family="Times,serif" font-size="10.00" fill="red">(latest: 1.2.0)</text>
</g>
<!-- roo_windows_wifi&#45;&gt;roo_wifi -->
<g id="edge56" class="edge">
<title>roo_windows_wifi&#45;&gt;roo_wifi</title>
<path fill="none" stroke="red" d="M842,-741.91C842,-716.23 842,-668.96 842,-638.54"/>
<polygon fill="red" stroke="red" points="845.5,-638.16 842,-628.16 838.5,-638.16 845.5,-638.16"/>
<text text-anchor="middle" x="875" y="-716" font-family="Times,serif" font-size="10.00" fill="red">1.1.1</text>
<text text-anchor="middle" x="875" y="-705" font-family="Times,serif" font-size="10.00" fill="red">(latest: 1.1.3)</text>
</g>
<!-- roo_windows_wifi&#45;&gt;roo_windows -->
<g id="edge57" class="edge">
<title>roo_windows_wifi&#45;&gt;roo_windows</title>
<path fill="none" stroke="black" d="M899.3,-741.99C950.06,-726.03 1024.09,-702.75 1076.83,-686.17"/>
<polygon fill="black" stroke="black" points="1077.93,-689.5 1086.42,-683.16 1075.83,-682.82 1077.93,-689.5"/>
</g>
</g>
</svg>
