<?xml version="1.0" encoding="UTF-8" standalone="no"?>
<!DOCTYPE svg PUBLIC "-//W3C//DTD SVG 1.1//EN"
 "http://www.w3.org/Graphics/SVG/1.1/DTD/svg11.dtd">
<!-- Generated by graphviz version 2.42.4 (0)
 -->
<!-- Title: dependencies Pages: 1 -->
<svg width="763pt" height="746pt"
 viewBox="0.00 0.00 763.00 746.00" xmlns="http://www.w3.org/2000/svg" xmlns:xlink="http://www.w3.org/1999/xlink">
<g id="graph0" class="graph" transform="scale(1 1) rotate(0) translate(4 742)">
<title>dependencies</title>
<polygon fill="white" stroke="transparent" points="-4,4 -4,-742 759,-742 759,4 -4,4"/>
<!-- roo_backport -->
<g id="node1" class="node">
<title>roo_backport</title>
<polygon fill="#b1dbab" stroke="black" points="462,-188 352,-188 352,-150 462,-150 462,-188"/>
<text text-anchor="middle" x="407" y="-172.8" font-family="Times,serif" font-size="14.00">roo_backport</text>
<text text-anchor="middle" x="407" y="-157.8" font-family="Times,serif" font-size="14.00">1.2.0</text>
</g>
<!-- roo_blink -->
<g id="node2" class="node">
<title>roo_blink</title>
<polygon fill="#b1dbab" stroke="red" points="82,-434 0,-434 0,-396 82,-396 82,-434"/>
<text text-anchor="middle" x="41" y="-418.8" font-family="Times,serif" font-size="14.00">roo_blink</text>
<text text-anchor="middle" x="41" y="-403.8" font-family="Times,serif" font-size="14.00">1.0.4</text>
</g>
<!-- roo_logging -->
<g id="node12" class="node">
<title>roo_logging</title>
<polygon fill="#b1dbab" stroke="black" points="344,-263 244,-263 244,-225 344,-225 344,-263"/>
<text text-anchor="middle" x="294" y="-247.8" font-family="Times,serif" font-size="14.00">roo_logging</text>
<text text-anchor="middle" x="294" y="-232.8" font-family="Times,serif" font-size="14.00">1.5.2</text>
</g>
<!-- roo_blink&#45;&gt;roo_logging -->
<g id="edge1" class="edge">
<title>roo_blink&#45;&gt;roo_logging</title>
<path fill="none" stroke="red" d="M39.7,-395.86C38.97,-370.79 41.62,-325.72 67,-300 90.05,-276.64 174.72,-260.83 233.86,-252.36"/>
<polygon fill="red" stroke="red" points="234.43,-255.82 243.85,-250.97 233.47,-248.88 234.43,-255.82"/>
<text text-anchor="middle" x="100" y="-322" font-family="Times,serif" font-size="10.00" fill="red">1.5.1</text>
<text text-anchor="middle" x="100" y="-311" font-family="Times,serif" font-size="10.00" fill="red">(latest: 1.5.2)</text>
</g>
<!-- roo_scheduler -->
<g id="node16" class="node">
<title>roo_scheduler</title>
<polygon fill="#b1dbab" stroke="black" points="342,-338 226,-338 226,-300 342,-300 342,-338"/>
<text text-anchor="middle" x="284" y="-322.8" font-family="Times,serif" font-size="14.00">roo_scheduler</text>
<text text-anchor="middle" x="284" y="-307.8" font-family="Times,serif" font-size="14.00">2.1.6</text>
</g>
<!-- roo_blink&#45;&gt;roo_scheduler -->
<g id="edge2" class="edge">
<title>roo_blink&#45;&gt;roo_scheduler</title>
<path fill="none" stroke="black" d="M82.22,-398.05C122.21,-382.58 183.2,-358.99 227.66,-341.79"/>
<polygon fill="black" stroke="black" points="229.1,-344.99 237.17,-338.12 226.58,-338.46 229.1,-344.99"/>
</g>
<!-- roo_collections -->
<g id="node3" class="node">
<title>roo_collections</title>
<polygon fill="#b1dbab" stroke="black" points="559,-263 437,-263 437,-225 559,-225 559,-263"/>
<text text-anchor="middle" x="498" y="-247.8" font-family="Times,serif" font-size="14.00">roo_collections</text>
<text text-anchor="middle" x="498" y="-232.8" font-family="Times,serif" font-size="14.00">1.4.0</text>
</g>
<!-- roo_collections&#45;&gt;roo_backport -->
<g id="edge3" class="edge">
<title>roo_collections&#45;&gt;roo_backport</title>
<path fill="none" stroke="black" d="M475.51,-224.96C464.02,-215.74 449.88,-204.4 437.44,-194.42"/>
<polygon fill="black" stroke="black" points="439.54,-191.62 429.55,-188.09 435.16,-197.08 439.54,-191.62"/>
</g>
<!-- roo_comms -->
<g id="node4" class="node">
<title>roo_comms</title>
<polygon fill="#b1dbab" stroke="red" points="415.5,-642 318.5,-642 318.5,-604 415.5,-604 415.5,-642"/>
<text text-anchor="middle" x="367" y="-626.8" font-family="Times,serif" font-size="14.00">roo_comms</text>
<text text-anchor="middle" x="367" y="-611.8" font-family="Times,serif" font-size="14.00">1.1.3</text>
</g>
<!-- roo_comms&#45;&gt;roo_blink -->
<g id="edge4" class="edge">
<title>roo_comms&#45;&gt;roo_blink</title>
<path fill="none" stroke="black" d="M329.54,-603.95C294.09,-586.41 239.78,-558.34 195,-530 150.29,-501.71 101.7,-464.57 71.3,-440.49"/>
<polygon fill="black" stroke="black" points="73.23,-437.56 63.22,-434.07 68.87,-443.04 73.23,-437.56"/>
</g>
<!-- roo_control -->
<g id="node5" class="node">
<title>roo_control</title>
<polygon fill="#b1dbab" stroke="red" points="298.5,-434 201.5,-434 201.5,-396 298.5,-396 298.5,-434"/>
<text text-anchor="middle" x="250" y="-418.8" font-family="Times,serif" font-size="14.00">roo_control</text>
<text text-anchor="middle" x="250" y="-403.8" font-family="Times,serif" font-size="14.00">1.2.3</text>
</g>
<!-- roo_comms&#45;&gt;roo_control -->
<g id="edge5" class="edge">
<title>roo_comms&#45;&gt;roo_control</title>
<path fill="none" stroke="black" d="M368.44,-603.81C369.68,-577.33 368.69,-527.46 348,-492 335.24,-470.13 313.52,-452.32 293.77,-439.45"/>
<polygon fill="black" stroke="black" points="295.5,-436.4 285.17,-434.06 291.79,-442.33 295.5,-436.4"/>
</g>
<!-- roo_io -->
<g id="node10" class="node">
<title>roo_io</title>
<polygon fill="#b1dbab" stroke="black" points="544.5,-338 485.5,-338 485.5,-300 544.5,-300 544.5,-338"/>
<text text-anchor="middle" x="515" y="-322.8" font-family="Times,serif" font-size="14.00">roo_io</text>
<text text-anchor="middle" x="515" y="-307.8" font-family="Times,serif" font-size="14.00">2.1.2</text>
</g>
<!-- roo_comms&#45;&gt;roo_io -->
<g id="edge6" class="edge">
<title>roo_comms&#45;&gt;roo_io</title>
<path fill="none" stroke="red" d="M376.04,-603.56C401.12,-552.37 471.75,-408.26 501.51,-347.53"/>
<polygon fill="red" stroke="red" points="504.83,-348.72 506.08,-338.2 498.54,-345.63 504.83,-348.72"/>
<text text-anchor="middle" x="483" y="-466" font-family="Times,serif" font-size="10.00" fill="red">2.1.1</text>
<text text-anchor="middle" x="483" y="-455" font-family="Times,serif" font-size="10.00" fill="red">(latest: 2.1.2)</text>
</g>
<!-- roo_transceivers -->
<g id="node21" class="node">
<title>roo_transceivers</title>
<polygon fill="#b1dbab" stroke="red" points="339.5,-530 204.5,-530 204.5,-492 339.5,-492 339.5,-530"/>
<text text-anchor="middle" x="272" y="-514.8" font-family="Times,serif" font-size="14.00">roo_transceivers</text>
<text text-anchor="middle" x="272" y="-499.8" font-family="Times,serif" font-size="14.00">1.1.4</text>
</g>
<!-- roo_comms&#45;&gt;roo_transceivers -->
<g id="edge7" class="edge">
<title>roo_comms&#45;&gt;roo_transceivers</title>
<path fill="none" stroke="black" d="M351.31,-603.84C335.77,-585.84 311.83,-558.12 294.31,-537.83"/>
<polygon fill="black" stroke="black" points="296.9,-535.47 287.71,-530.19 291.6,-540.05 296.9,-535.47"/>
</g>
<!-- roo_quantity -->
<g id="node15" class="node">
<title>roo_quantity</title>
<polygon fill="#b1dbab" stroke="black" points="467.5,-338 360.5,-338 360.5,-300 467.5,-300 467.5,-338"/>
<text text-anchor="middle" x="414" y="-322.8" font-family="Times,serif" font-size="14.00">roo_quantity</text>
<text text-anchor="middle" x="414" y="-307.8" font-family="Times,serif" font-size="14.00">1.1.6</text>
</g>
<!-- roo_control&#45;&gt;roo_quantity -->
<g id="edge8" class="edge">
<title>roo_control&#45;&gt;roo_quantity</title>
<path fill="none" stroke="red" d="M267.7,-395.86C280.7,-383.34 299.28,-367.03 318,-356 328.18,-350 339.54,-344.69 350.78,-340.12"/>
<polygon fill="red" stroke="red" points="352.13,-343.35 360.17,-336.45 349.58,-336.83 352.13,-343.35"/>
<text text-anchor="middle" x="351" y="-370" font-family="Times,serif" font-size="10.00" fill="red">1.1.5</text>
<text text-anchor="middle" x="351" y="-359" font-family="Times,serif" font-size="10.00" fill="red">(latest: 1.1.6)</text>
</g>
<!-- roo_control&#45;&gt;roo_scheduler -->
<g id="edge9" class="edge">
<title>roo_control&#45;&gt;roo_scheduler</title>
<path fill="none" stroke="black" d="M249.79,-395.89C250.23,-384.14 251.9,-368.71 257,-356 258.25,-352.88 259.84,-349.8 261.63,-346.82"/>
<polygon fill="black" stroke="black" points="264.69,-348.54 267.41,-338.29 258.9,-344.61 264.69,-348.54"/>
</g>
<!-- roo_dashboard -->
<g id="node6" class="node">
<title>roo_dashboard</title>
<polygon fill="#b1dbab" stroke="red" points="584,-738 462,-738 462,-700 584,-700 584,-738"/>
<text text-anchor="middle" x="523" y="-722.8" font-family="Times,serif" font-size="14.00">roo_dashboard</text>
<text text-anchor="middle" x="523" y="-707.8" font-family="Times,serif" font-size="14.00">1.0.1</text>
</g>
<!-- roo_windows -->
<g id="node24" class="node">
<title>roo_windows</title>
<polygon fill="#b1dbab" stroke="black" points="577.5,-642 468.5,-642 468.5,-604 577.5,-604 577.5,-642"/>
<text text-anchor="middle" x="523" y="-626.8" font-family="Times,serif" font-size="14.00">roo_windows</text>
<text text-anchor="middle" x="523" y="-611.8" font-family="Times,serif" font-size="14.00">1.4.2</text>
</g>
<!-- roo_dashboard&#45;&gt;roo_windows -->
<g id="edge10" class="edge">
<title>roo_dashboard&#45;&gt;roo_windows</title>
<path fill="none" stroke="red" d="M523,-699.88C523,-686.35 523,-667.62 523,-652.15"/>
<polygon fill="red" stroke="red" points="526.5,-652.07 523,-642.07 519.5,-652.07 526.5,-652.07"/>
<text text-anchor="middle" x="556" y="-674" font-family="Times,serif" font-size="10.00" fill="red">1.4.1</text>
<text text-anchor="middle" x="556" y="-663" font-family="Times,serif" font-size="10.00" fill="red">(latest: 1.4.2)</text>
</g>
<!-- roo_display -->
<g id="node7" class="node">
<title>roo_display</title>
<polygon fill="#b1dbab" stroke="black" points="745,-434 647,-434 647,-396 745,-396 745,-434"/>
<text text-anchor="middle" x="696" y="-418.8" font-family="Times,serif" font-size="14.00">roo_display</text>
<text text-anchor="middle" x="696" y="-403.8" font-family="Times,serif" font-size="14.00">2.3.2</text>
</g>
<!-- roo_display&#45;&gt;roo_collections -->
<g id="edge11" class="edge">
<title>roo_display&#45;&gt;roo_collections</title>
<path fill="none" stroke="black" d="M678.75,-395.61C653.13,-368.8 602.86,-318.13 555,-281 549.53,-276.76 543.55,-272.56 537.58,-268.6"/>
<polygon fill="black" stroke="black" points="539.21,-265.49 528.91,-263.01 535.42,-271.37 539.21,-265.49"/>
</g>
<!-- roo_display&#45;&gt;roo_io -->
<g id="edge12" class="edge">
<title>roo_display&#45;&gt;roo_io</title>
<path fill="none" stroke="black" d="M661.1,-395.88C630.34,-379.9 585.59,-356.66 553.73,-340.11"/>
<polygon fill="black" stroke="black" points="555.19,-336.93 544.7,-335.42 551.96,-343.14 555.19,-336.93"/>
</g>
<!-- roo_flags -->
<g id="node8" class="node">
<title>roo_flags</title>
<polygon fill="#b1dbab" stroke="black" points="334,-188 254,-188 254,-150 334,-150 334,-188"/>
<text text-anchor="middle" x="294" y="-172.8" font-family="Times,serif" font-size="14.00">roo_flags</text>
<text text-anchor="middle" x="294" y="-157.8" font-family="Times,serif" font-size="14.00">1.2.0</text>
</g>
<!-- roo_icons -->
<g id="node9" class="node">
<title>roo_icons</title>
<polygon fill="#b1dbab" stroke="red" points="720.5,-530 637.5,-530 637.5,-492 720.5,-492 720.5,-530"/>
<text text-anchor="middle" x="679" y="-514.8" font-family="Times,serif" font-size="14.00">roo_icons</text>
<text text-anchor="middle" x="679" y="-499.8" font-family="Times,serif" font-size="14.00">1.2.1</text>
</g>
<!-- roo_icons&#45;&gt;roo_display -->
<g id="edge13" class="edge">
<title>roo_icons&#45;&gt;roo_display</title>
<path fill="none" stroke="red" d="M682.28,-491.88C684.72,-478.35 688.11,-459.62 690.91,-444.15"/>
<polygon fill="red" stroke="red" points="694.4,-444.53 692.73,-434.07 687.51,-443.29 694.4,-444.53"/>
<text text-anchor="middle" x="722" y="-466" font-family="Times,serif" font-size="10.00" fill="red">2.3.1</text>
<text text-anchor="middle" x="722" y="-455" font-family="Times,serif" font-size="10.00" fill="red">(latest: 2.3.2)</text>
</g>
<!-- roo_io&#45;&gt;roo_logging -->
<g id="edge14" class="edge">
<title>roo_io&#45;&gt;roo_logging</title>
<path fill="none" stroke="black" d="M485.37,-303.81C482.23,-302.46 479.07,-301.16 476,-300 435.95,-284.79 389.72,-270.86 353.88,-260.83"/>
<polygon fill="black" stroke="black" points="354.63,-257.41 344.06,-258.11 352.76,-264.15 354.63,-257.41"/>
</g>
<!-- roo_locale -->
<g id="node11" class="node">
<title>roo_locale</title>
<polygon fill="#b1dbab" stroke="black" points="603,-530 515,-530 515,-492 603,-492 603,-530"/>
<text text-anchor="middle" x="559" y="-514.8" font-family="Times,serif" font-size="14.00">roo_locale</text>
<text text-anchor="middle" x="559" y="-499.8" font-family="Times,serif" font-size="14.00">1.1.1</text>
</g>
<!-- roo_logging&#45;&gt;roo_backport -->
<g id="edge15" class="edge">
<title>roo_logging&#45;&gt;roo_backport</title>
<path fill="none" stroke="black" d="M321.93,-224.96C336.6,-215.48 354.76,-203.75 370.52,-193.57"/>
<polygon fill="black" stroke="black" points="372.5,-196.46 379,-188.09 368.7,-190.58 372.5,-196.46"/>
</g>
<!-- roo_logging&#45;&gt;roo_flags -->
<g id="edge16" class="edge">
<title>roo_logging&#45;&gt;roo_flags</title>
<path fill="none" stroke="black" d="M294,-224.96C294,-216.88 294,-207.18 294,-198.18"/>
<polygon fill="black" stroke="black" points="297.5,-198.09 294,-188.09 290.5,-198.09 297.5,-198.09"/>
</g>
<!-- roo_threads -->
<g id="node18" class="node">
<title>roo_threads</title>
<polygon fill="khaki" stroke="black" points="235.5,-188 134.5,-188 134.5,-150 235.5,-150 235.5,-188"/>
<text text-anchor="middle" x="185" y="-172.8" font-family="Times,serif" font-size="14.00">roo_threads</text>
<text text-anchor="middle" x="185" y="-157.8" font-family="Times,serif" font-size="14.00">1.2.0</text>
</g>
<!-- roo_logging&#45;&gt;roo_threads -->
<g id="edge17" class="edge">
<title>roo_logging&#45;&gt;roo_threads</title>
<path fill="none" stroke="black" d="M267.06,-224.96C253.04,-215.57 235.72,-203.97 220.61,-193.85"/>
<polygon fill="black" stroke="black" points="222.27,-190.75 212.01,-188.09 218.37,-196.56 222.27,-190.75"/>
</g>
<!-- roo_onewire -->
<g id="node13" class="node">
<title>roo_onewire</title>
<polygon fill="#b1dbab" stroke="red" points="421,-434 317,-434 317,-396 421,-396 421,-434"/>
<text text-anchor="middle" x="369" y="-418.8" font-family="Times,serif" font-size="14.00">roo_onewire</text>
<text text-anchor="middle" x="369" y="-403.8" font-family="Times,serif" font-size="14.00">2.0.7</text>
</g>
<!-- roo_onewire&#45;&gt;roo_quantity -->
<g id="edge19" class="edge">
<title>roo_onewire&#45;&gt;roo_quantity</title>
<path fill="none" stroke="red" d="M377.68,-395.88C384.28,-382.09 393.46,-362.9 400.95,-347.26"/>
<polygon fill="red" stroke="red" points="404.19,-348.6 405.35,-338.07 397.88,-345.58 404.19,-348.6"/>
<text text-anchor="middle" x="429" y="-370" font-family="Times,serif" font-size="10.00" fill="red">1.1.5</text>
<text text-anchor="middle" x="429" y="-359" font-family="Times,serif" font-size="10.00" fill="red">(latest: 1.1.6)</text>
</g>
<!-- roo_onewire&#45;&gt;roo_scheduler -->
<g id="edge18" class="edge">
<title>roo_onewire&#45;&gt;roo_scheduler</title>
<path fill="none" stroke="black" d="M364.03,-395.94C359.93,-383.62 353.14,-367.51 343,-356 339.09,-351.56 334.49,-347.49 329.62,-343.82"/>
<polygon fill="black" stroke="black" points="331.45,-340.83 321.24,-338.02 327.47,-346.59 331.45,-340.83"/>
</g>
<!-- roo_prefs -->
<g id="node14" class="node">
<title>roo_prefs</title>
<polygon fill="#b1dbab" stroke="red" points="183.5,-434 100.5,-434 100.5,-396 183.5,-396 183.5,-434"/>
<text text-anchor="middle" x="142" y="-418.8" font-family="Times,serif" font-size="14.00">roo_prefs</text>
<text text-anchor="middle" x="142" y="-403.8" font-family="Times,serif" font-size="14.00">1.2.7</text>
</g>
<!-- roo_prefs&#45;&gt;roo_logging -->
<g id="edge20" class="edge">
<title>roo_prefs&#45;&gt;roo_logging</title>
<path fill="none" stroke="red" d="M137.96,-395.76C133.68,-371.38 130.1,-328 151,-300 170.51,-273.86 204.15,-260.14 233.9,-252.94"/>
<polygon fill="red" stroke="red" points="234.8,-256.33 243.81,-250.74 233.29,-249.49 234.8,-256.33"/>
<text text-anchor="middle" x="184" y="-322" font-family="Times,serif" font-size="10.00" fill="red">1.5.1</text>
<text text-anchor="middle" x="184" y="-311" font-family="Times,serif" font-size="10.00" fill="red">(latest: 1.5.2)</text>
</g>
<!-- roo_prefs&#45;&gt;roo_scheduler -->
<g id="edge21" class="edge">
<title>roo_prefs&#45;&gt;roo_scheduler</title>
<path fill="none" stroke="black" d="M169.38,-395.88C191.77,-381.05 223.62,-359.97 248.07,-343.79"/>
<polygon fill="black" stroke="black" points="250.3,-346.51 256.71,-338.07 246.43,-340.67 250.3,-346.51"/>
</g>
<!-- roo_quantity&#45;&gt;roo_logging -->
<g id="edge22" class="edge">
<title>roo_quantity&#45;&gt;roo_logging</title>
<path fill="none" stroke="black" d="M384.34,-299.96C368.76,-290.48 349.48,-278.75 332.74,-268.57"/>
<polygon fill="black" stroke="black" points="334.1,-265.3 323.74,-263.09 330.46,-271.28 334.1,-265.3"/>
</g>
<!-- roo_scheduler&#45;&gt;roo_collections -->
<g id="edge23" class="edge">
<title>roo_scheduler&#45;&gt;roo_collections</title>
<path fill="none" stroke="black" d="M336.9,-299.96C366.74,-289.78 404.19,-277 435.47,-266.33"/>
<polygon fill="black" stroke="black" points="436.63,-269.63 444.97,-263.09 434.37,-263.01 436.63,-269.63"/>
</g>
<!-- roo_scheduler&#45;&gt;roo_threads -->
<g id="edge24" class="edge">
<title>roo_scheduler&#45;&gt;roo_threads</title>
<path fill="none" stroke="black" d="M265.6,-299.57C255.87,-289.3 244.09,-275.99 235,-263 220.35,-242.06 206.82,-216.34 197.54,-197.26"/>
<polygon fill="black" stroke="black" points="200.69,-195.72 193.22,-188.21 194.37,-198.74 200.69,-195.72"/>
</g>
<!-- roo_testing -->
<g id="node17" class="node">
<title>roo_testing</title>
<polygon fill="khaki" stroke="black" points="415.5,-38 318.5,-38 318.5,0 415.5,0 415.5,-38"/>
<text text-anchor="middle" x="367" y="-22.8" font-family="Times,serif" font-size="14.00">roo_testing</text>
<text text-anchor="middle" x="367" y="-7.8" font-family="Times,serif" font-size="14.00">1.2.0</text>
</g>
<!-- roo_time -->
<g id="node19" class="node">
<title>roo_time</title>
<polygon fill="#b1dbab" stroke="black" points="406.5,-113 327.5,-113 327.5,-75 406.5,-75 406.5,-113"/>
<text text-anchor="middle" x="367" y="-97.8" font-family="Times,serif" font-size="14.00">roo_time</text>
<text text-anchor="middle" x="367" y="-82.8" font-family="Times,serif" font-size="14.00">1.4.0</text>
</g>
<!-- roo_threads&#45;&gt;roo_time -->
<g id="edge25" class="edge">
<title>roo_threads&#45;&gt;roo_time</title>
<path fill="none" stroke="black" d="M229.99,-149.96C256.73,-139.23 290.67,-125.62 318.07,-114.62"/>
<polygon fill="black" stroke="black" points="319.5,-117.83 327.47,-110.85 316.89,-111.33 319.5,-117.83"/>
</g>
<!-- roo_time&#45;&gt;roo_testing -->
<g id="edge26" class="edge">
<title>roo_time&#45;&gt;roo_testing</title>
<path fill="none" stroke="black" d="M367,-74.96C367,-66.88 367,-57.18 367,-48.18"/>
<polygon fill="black" stroke="black" points="370.5,-48.09 367,-38.09 363.5,-48.09 370.5,-48.09"/>
</g>
<!-- roo_time_ds3231 -->
<g id="node20" class="node">
<title>roo_time_ds3231</title>
<polygon fill="#b1dbab" stroke="black" points="618,-188 480,-188 480,-150 618,-150 618,-188"/>
<text text-anchor="middle" x="549" y="-172.8" font-family="Times,serif" font-size="14.00">roo_time_ds3231</text>
<text text-anchor="middle" x="549" y="-157.8" font-family="Times,serif" font-size="14.00">1.1.4</text>
</g>
<!-- roo_time_ds3231&#45;&gt;roo_time -->
<g id="edge27" class="edge">
<title>roo_time_ds3231&#45;&gt;roo_time</title>
<path fill="none" stroke="black" d="M504.01,-149.96C477.27,-139.23 443.33,-125.62 415.93,-114.62"/>
<polygon fill="black" stroke="black" points="417.11,-111.33 406.53,-110.85 414.5,-117.83 417.11,-111.33"/>
</g>
<!-- roo_transceivers&#45;&gt;roo_prefs -->
<g id="edge28" class="edge">
<title>roo_transceivers&#45;&gt;roo_prefs</title>
<path fill="none" stroke="black" d="M246.93,-491.88C226.52,-477.12 197.53,-456.15 175.19,-440"/>
<polygon fill="black" stroke="black" points="177.14,-437.09 166.99,-434.07 173.04,-442.76 177.14,-437.09"/>
</g>
<!-- roo_transport -->
<g id="node22" class="node">
<title>roo_transport</title>
<polygon fill="#b1dbab" stroke="black" points="629,-434 515,-434 515,-396 629,-396 629,-434"/>
<text text-anchor="middle" x="572" y="-418.8" font-family="Times,serif" font-size="14.00">roo_transport</text>
<text text-anchor="middle" x="572" y="-403.8" font-family="Times,serif" font-size="14.00">1.1.0</text>
</g>
<!-- roo_transport&#45;&gt;roo_collections -->
<g id="edge29" class="edge">
<title>roo_transport&#45;&gt;roo_collections</title>
<path fill="none" stroke="black" d="M572.56,-395.94C572.54,-372.52 569.96,-331 554,-300 548.2,-288.74 539.23,-278.4 530.15,-269.8"/>
<polygon fill="black" stroke="black" points="532.35,-267.08 522.57,-263.01 527.68,-272.29 532.35,-267.08"/>
</g>
<!-- roo_transport&#45;&gt;roo_io -->
<g id="edge30" class="edge">
<title>roo_transport&#45;&gt;roo_io</title>
<path fill="none" stroke="black" d="M550.85,-395.94C545.48,-390.58 540.08,-384.41 536,-378 530.2,-368.88 525.71,-357.93 522.4,-348.02"/>
<polygon fill="black" stroke="black" points="525.65,-346.71 519.37,-338.18 518.97,-348.77 525.65,-346.71"/>
</g>
<!-- roo_wifi -->
<g id="node23" class="node">
<title>roo_wifi</title>
<polygon fill="#b1dbab" stroke="black" points="161,-586 89,-586 89,-548 161,-548 161,-586"/>
<text text-anchor="middle" x="125" y="-570.8" font-family="Times,serif" font-size="14.00">roo_wifi</text>
<text text-anchor="middle" x="125" y="-555.8" font-family="Times,serif" font-size="14.00">1.1.3</text>
</g>
<!-- roo_wifi&#45;&gt;roo_prefs -->
<g id="edge31" class="edge">
<title>roo_wifi&#45;&gt;roo_prefs</title>
<path fill="none" stroke="black" d="M127.05,-547.91C129.97,-522.12 135.36,-474.55 138.81,-444.14"/>
<polygon fill="black" stroke="black" points="142.29,-444.49 139.94,-434.16 135.34,-443.7 142.29,-444.49"/>
</g>
<!-- roo_windows&#45;&gt;roo_icons -->
<g id="edge33" class="edge">
<title>roo_windows&#45;&gt;roo_icons</title>
<path fill="none" stroke="black" d="M548.76,-603.84C575.15,-585.23 616.29,-556.22 645.26,-535.79"/>
<polygon fill="black" stroke="black" points="647.31,-538.63 653.46,-530.01 643.27,-532.91 647.31,-538.63"/>
</g>
<!-- roo_windows&#45;&gt;roo_locale -->
<g id="edge32" class="edge">
<title>roo_windows&#45;&gt;roo_locale</title>
<path fill="none" stroke="black" d="M528.94,-603.84C534.65,-586.4 543.35,-559.82 549.92,-539.74"/>
<polygon fill="black" stroke="black" points="553.26,-540.78 553.05,-530.19 546.61,-538.61 553.26,-540.78"/>
</g>
<!-- roo_windows&#45;&gt;roo_scheduler -->
<g id="edge34" class="edge">
<title>roo_windows&#45;&gt;roo_scheduler</title>
<path fill="none" stroke="black" d="M519.93,-603.81C514.05,-571.79 499.36,-503.83 473,-452 458.78,-424.03 453.97,-416.25 430,-396 416.94,-384.97 410.62,-386.86 396,-378 381.24,-369.06 379.04,-364.46 364,-356 355.53,-351.23 346.31,-346.6 337.24,-342.34"/>
<polygon fill="black" stroke="black" points="338.43,-339.04 327.88,-338.04 335.51,-345.4 338.43,-339.04"/>
</g>
<!-- roo_windows_wifi -->
<g id="node25" class="node">
<title>roo_windows_wifi</title>
<polygon fill="#b1dbab" stroke="black" points="361.5,-738 220.5,-738 220.5,-700 361.5,-700 361.5,-738"/>
<text text-anchor="middle" x="291" y="-722.8" font-family="Times,serif" font-size="14.00">roo_windows_wifi</text>
<text text-anchor="middle" x="291" y="-707.8" font-family="Times,serif" font-size="14.00">1.1.3</text>
</g>
<!-- roo_windows_wifi&#45;&gt;roo_wifi -->
<g id="edge35" class="edge">
<title>roo_windows_wifi&#45;&gt;roo_wifi</title>
<path fill="none" stroke="black" d="M270.98,-699.91C241.44,-673.22 186.09,-623.2 152.68,-593.01"/>
<polygon fill="black" stroke="black" points="154.86,-590.27 145.09,-586.16 150.17,-595.46 154.86,-590.27"/>
</g>
<!-- roo_windows_wifi&#45;&gt;roo_windows -->
<g id="edge36" class="edge">
<title>roo_windows_wifi&#45;&gt;roo_windows</title>
<path fill="none" stroke="black" d="M335.46,-699.99C373.46,-684.59 428.27,-662.38 468.83,-645.95"/>
<polygon fill="black" stroke="black" points="470.34,-649.11 478.3,-642.11 467.72,-642.62 470.34,-649.11"/>
</g>
</g>
</svg>
