<?xml version="1.0" encoding="UTF-8" standalone="no"?>
<!DOCTYPE svg PUBLIC "-//W3C//DTD SVG 1.1//EN"
 "http://www.w3.org/Graphics/SVG/1.1/DTD/svg11.dtd">
<!-- Generated by graphviz version 2.42.4 (0)
 -->
<!-- Title: dependencies Pages: 1 -->
<svg width="1084pt" height="793pt"
 viewBox="0.00 0.00 1083.50 793.00" xmlns="http://www.w3.org/2000/svg" xmlns:xlink="http://www.w3.org/1999/xlink">
<g id="graph0" class="graph" transform="scale(1 1) rotate(0) translate(4 789)">
<title>dependencies</title>
<polygon fill="white" stroke="transparent" points="-4,4 -4,-789 1079.5,-789 1079.5,4 -4,4"/>
<!-- roo_backport -->
<g id="node1" class="node">
<title>roo_backport</title>
<polygon fill="#b1dbab" stroke="black" points="556,-230 446,-230 446,-192 556,-192 556,-230"/>
<text text-anchor="middle" x="501" y="-214.8" font-family="Times,serif" font-size="14.00">roo_backport</text>
<text text-anchor="middle" x="501" y="-199.8" font-family="Times,serif" font-size="14.00">1.2.2</text>
</g>
<!-- roo_blink -->
<g id="node2" class="node">
<title>roo_blink</title>
<polygon fill="#b1dbab" stroke="black" points="960,-593 878,-593 878,-555 960,-555 960,-593"/>
<text text-anchor="middle" x="919" y="-577.8" font-family="Times,serif" font-size="14.00">roo_blink</text>
<text text-anchor="middle" x="919" y="-562.8" font-family="Times,serif" font-size="14.00">1.0.6</text>
</g>
<!-- roo_logging -->
<g id="node13" class="node">
<title>roo_logging</title>
<polygon fill="#b1dbab" stroke="red" points="808,-326 708,-326 708,-288 808,-288 808,-326"/>
<text text-anchor="middle" x="758" y="-310.8" font-family="Times,serif" font-size="14.00">roo_logging</text>
<text text-anchor="middle" x="758" y="-295.8" font-family="Times,serif" font-size="14.00">1.5.5</text>
</g>
<!-- roo_blink&#45;&gt;roo_logging -->
<g id="edge1" class="edge">
<title>roo_blink&#45;&gt;roo_logging</title>
<path fill="none" stroke="black" d="M921.54,-554.66C923.94,-531.29 925.32,-490.19 911,-459 885.85,-404.21 831.51,-358.44 794.84,-332.12"/>
<polygon fill="black" stroke="black" points="796.58,-329.06 786.39,-326.17 792.55,-334.79 796.58,-329.06"/>
</g>
<!-- roo_scheduler -->
<g id="node19" class="node">
<title>roo_scheduler</title>
<polygon fill="#b1dbab" stroke="black" points="424,-497 308,-497 308,-459 424,-459 424,-497"/>
<text text-anchor="middle" x="366" y="-481.8" font-family="Times,serif" font-size="14.00">roo_scheduler</text>
<text text-anchor="middle" x="366" y="-466.8" font-family="Times,serif" font-size="14.00">2.1.9</text>
</g>
<!-- roo_blink&#45;&gt;roo_scheduler -->
<g id="edge2" class="edge">
<title>roo_blink&#45;&gt;roo_scheduler</title>
<path fill="none" stroke="black" d="M877.73,-557.4C874.8,-556.52 871.87,-555.71 869,-555 743.1,-523.98 708.57,-531.82 580,-515 515.17,-506.52 498.19,-509.39 434,-497 433.9,-496.98 433.8,-496.96 433.7,-496.94"/>
<polygon fill="black" stroke="black" points="434.62,-493.56 424.12,-494.94 433.19,-500.41 434.62,-493.56"/>
</g>
<!-- roo_collections -->
<g id="node3" class="node">
<title>roo_collections</title>
<polygon fill="#b1dbab" stroke="black" points="472,-401 350,-401 350,-363 472,-363 472,-401"/>
<text text-anchor="middle" x="411" y="-385.8" font-family="Times,serif" font-size="14.00">roo_collections</text>
<text text-anchor="middle" x="411" y="-370.8" font-family="Times,serif" font-size="14.00">1.4.3</text>
</g>
<!-- roo_collections&#45;&gt;roo_backport -->
<g id="edge3" class="edge">
<title>roo_collections&#45;&gt;roo_backport</title>
<path fill="none" stroke="black" d="M420.63,-362.91C436.42,-333.26 467.92,-274.12 486.44,-239.33"/>
<polygon fill="black" stroke="black" points="489.69,-240.68 491.3,-230.21 483.51,-237.39 489.69,-240.68"/>
</g>
<!-- roo_comms -->
<g id="node4" class="node">
<title>roo_comms</title>
<polygon fill="khaki" stroke="black" points="796.5,-785 699.5,-785 699.5,-747 796.5,-747 796.5,-785"/>
<text text-anchor="middle" x="748" y="-769.8" font-family="Times,serif" font-size="14.00">roo_comms</text>
<text text-anchor="middle" x="748" y="-754.8" font-family="Times,serif" font-size="14.00">1.1.4</text>
</g>
<!-- roo_comms&#45;&gt;roo_blink -->
<g id="edge4" class="edge">
<title>roo_comms&#45;&gt;roo_blink</title>
<path fill="none" stroke="black" d="M764.4,-746.78C794.91,-712.88 860.5,-640 895.64,-600.95"/>
<polygon fill="black" stroke="black" points="898.57,-602.94 902.65,-593.16 893.36,-598.25 898.57,-602.94"/>
</g>
<!-- roo_control -->
<g id="node5" class="node">
<title>roo_control</title>
<polygon fill="#b1dbab" stroke="black" points="1075.5,-593 978.5,-593 978.5,-555 1075.5,-555 1075.5,-593"/>
<text text-anchor="middle" x="1027" y="-577.8" font-family="Times,serif" font-size="14.00">roo_control</text>
<text text-anchor="middle" x="1027" y="-562.8" font-family="Times,serif" font-size="14.00">1.2.5</text>
</g>
<!-- roo_comms&#45;&gt;roo_control -->
<g id="edge5" class="edge">
<title>roo_comms&#45;&gt;roo_control</title>
<path fill="none" stroke="black" d="M777.15,-746.93C786.14,-741.27 796.02,-734.95 805,-729 872.65,-684.2 950.23,-629.64 993.44,-598.96"/>
<polygon fill="black" stroke="black" points="995.48,-601.79 1001.61,-593.15 991.43,-596.09 995.48,-601.79"/>
</g>
<!-- roo_io -->
<g id="node11" class="node">
<title>roo_io</title>
<polygon fill="#b1dbab" stroke="red" points="693.5,-401 634.5,-401 634.5,-363 693.5,-363 693.5,-401"/>
<text text-anchor="middle" x="664" y="-385.8" font-family="Times,serif" font-size="14.00">roo_io</text>
<text text-anchor="middle" x="664" y="-370.8" font-family="Times,serif" font-size="14.00">2.1.5</text>
</g>
<!-- roo_comms&#45;&gt;roo_io -->
<g id="edge6" class="edge">
<title>roo_comms&#45;&gt;roo_io</title>
<path fill="none" stroke="black" d="M741.78,-746.87C735.91,-728.12 728,-697.86 728,-671 728,-671 728,-671 728,-477 728,-450.46 710.36,-425.88 693.6,-408.51"/>
<polygon fill="black" stroke="black" points="695.61,-405.58 686.03,-401.06 690.7,-410.57 695.61,-405.58"/>
</g>
<!-- roo_transceivers -->
<g id="node24" class="node">
<title>roo_transceivers</title>
<polygon fill="#b1dbab" stroke="red" points="553.5,-689 418.5,-689 418.5,-651 553.5,-651 553.5,-689"/>
<text text-anchor="middle" x="486" y="-673.8" font-family="Times,serif" font-size="14.00">roo_transceivers</text>
<text text-anchor="middle" x="486" y="-658.8" font-family="Times,serif" font-size="14.00">1.1.5</text>
</g>
<!-- roo_comms&#45;&gt;roo_transceivers -->
<g id="edge7" class="edge">
<title>roo_comms&#45;&gt;roo_transceivers</title>
<path fill="none" stroke="black" d="M731.42,-746.77C718.28,-733.53 698.72,-716.34 678,-707 633.6,-686.98 615.88,-697.47 563.7,-688.92"/>
<polygon fill="black" stroke="black" points="564.01,-685.42 553.54,-687.09 562.77,-692.31 564.01,-685.42"/>
</g>
<!-- roo_quantity -->
<g id="node18" class="node">
<title>roo_quantity</title>
<polygon fill="#b1dbab" stroke="black" points="901.5,-497 794.5,-497 794.5,-459 901.5,-459 901.5,-497"/>
<text text-anchor="middle" x="848" y="-481.8" font-family="Times,serif" font-size="14.00">roo_quantity</text>
<text text-anchor="middle" x="848" y="-466.8" font-family="Times,serif" font-size="14.00">1.1.8</text>
</g>
<!-- roo_control&#45;&gt;roo_quantity -->
<g id="edge8" class="edge">
<title>roo_control&#45;&gt;roo_quantity</title>
<path fill="none" stroke="black" d="M992.49,-554.88C963.64,-539.73 922.34,-518.04 891.28,-501.73"/>
<polygon fill="black" stroke="black" points="892.89,-498.62 882.41,-497.07 889.63,-504.82 892.89,-498.62"/>
</g>
<!-- roo_control&#45;&gt;roo_scheduler -->
<g id="edge9" class="edge">
<title>roo_control&#45;&gt;roo_scheduler</title>
<path fill="none" stroke="black" d="M978.42,-557.32C975.24,-556.48 972.08,-555.7 969,-555 848.54,-527.72 816.8,-528.16 694,-515 578.83,-502.65 548.28,-515.91 434,-497 433.9,-496.98 433.8,-496.97 433.69,-496.95"/>
<polygon fill="black" stroke="black" points="434.55,-493.55 424.08,-495.15 433.27,-500.43 434.55,-493.55"/>
</g>
<!-- roo_dashboard -->
<g id="node6" class="node">
<title>roo_dashboard</title>
<polygon fill="plum" stroke="red" points="297,-785 175,-785 175,-747 297,-747 297,-785"/>
<text text-anchor="middle" x="236" y="-769.8" font-family="Times,serif" font-size="14.00">roo_dashboard</text>
<text text-anchor="middle" x="236" y="-754.8" font-family="Times,serif" font-size="14.00">1.0.1</text>
</g>
<!-- roo_windows -->
<g id="node27" class="node">
<title>roo_windows</title>
<polygon fill="khaki" stroke="red" points="381.5,-689 272.5,-689 272.5,-651 381.5,-651 381.5,-689"/>
<text text-anchor="middle" x="327" y="-673.8" font-family="Times,serif" font-size="14.00">roo_windows</text>
<text text-anchor="middle" x="327" y="-658.8" font-family="Times,serif" font-size="14.00">1.4.2</text>
</g>
<!-- roo_dashboard&#45;&gt;roo_windows -->
<g id="edge10" class="edge">
<title>roo_dashboard&#45;&gt;roo_windows</title>
<path fill="none" stroke="red" d="M250.48,-746.92C260.15,-735.18 273.37,-719.75 286,-707 289.66,-703.31 293.63,-699.55 297.61,-695.92"/>
<polygon fill="red" stroke="red" points="300.07,-698.41 305.21,-689.14 295.42,-693.19 300.07,-698.41"/>
<text text-anchor="middle" x="319" y="-721" font-family="Times,serif" font-size="10.00" fill="red">1.4.1</text>
<text text-anchor="middle" x="319" y="-710" font-family="Times,serif" font-size="10.00" fill="red">(latest: 1.4.2)</text>
</g>
<!-- roo_display -->
<g id="node7" class="node">
<title>roo_display</title>
<polygon fill="khaki" stroke="black" points="290,-497 192,-497 192,-459 290,-459 290,-497"/>
<text text-anchor="middle" x="241" y="-481.8" font-family="Times,serif" font-size="14.00">roo_display</text>
<text text-anchor="middle" x="241" y="-466.8" font-family="Times,serif" font-size="14.00">3.0.2</text>
</g>
<!-- roo_display&#45;&gt;roo_collections -->
<g id="edge11" class="edge">
<title>roo_display&#45;&gt;roo_collections</title>
<path fill="none" stroke="black" d="M273.78,-458.88C301.06,-443.79 340.06,-422.23 369.51,-405.94"/>
<polygon fill="black" stroke="black" points="371.27,-408.97 378.32,-401.07 367.88,-402.84 371.27,-408.97"/>
</g>
<!-- roo_display&#45;&gt;roo_io -->
<g id="edge12" class="edge">
<title>roo_display&#45;&gt;roo_io</title>
<path fill="none" stroke="black" d="M290.18,-460.95C293.15,-460.22 296.1,-459.57 299,-459 391.81,-440.88 421.33,-471.01 511,-441 528.42,-435.17 529.29,-426.64 546,-419 571.11,-407.52 600.86,-398.48 624.2,-392.32"/>
<polygon fill="black" stroke="black" points="625.29,-395.66 634.11,-389.78 623.55,-388.87 625.29,-395.66"/>
</g>
<!-- roo_flags -->
<g id="node8" class="node">
<title>roo_flags</title>
<polygon fill="#b1dbab" stroke="black" points="797,-230 717,-230 717,-192 797,-192 797,-230"/>
<text text-anchor="middle" x="757" y="-214.8" font-family="Times,serif" font-size="14.00">roo_flags</text>
<text text-anchor="middle" x="757" y="-199.8" font-family="Times,serif" font-size="14.00">1.2.3</text>
</g>
<!-- roo_fonts_basic -->
<g id="node9" class="node">
<title>roo_fonts_basic</title>
<polygon fill="#b1dbab" stroke="red" points="126,-593 0,-593 0,-555 126,-555 126,-593"/>
<text text-anchor="middle" x="63" y="-577.8" font-family="Times,serif" font-size="14.00">roo_fonts_basic</text>
<text text-anchor="middle" x="63" y="-562.8" font-family="Times,serif" font-size="14.00">1.0.1</text>
</g>
<!-- roo_fonts_basic&#45;&gt;roo_display -->
<g id="edge13" class="edge">
<title>roo_fonts_basic&#45;&gt;roo_display</title>
<path fill="none" stroke="red" d="M97.32,-554.88C125.88,-539.79 166.72,-518.23 197.56,-501.94"/>
<polygon fill="red" stroke="red" points="199.58,-504.83 206.79,-497.07 196.31,-498.64 199.58,-504.83"/>
<text text-anchor="middle" x="201" y="-529" font-family="Times,serif" font-size="10.00" fill="red">3.0.1</text>
<text text-anchor="middle" x="201" y="-518" font-family="Times,serif" font-size="10.00" fill="red">(latest: 3.0.2)</text>
</g>
<!-- roo_icons -->
<g id="node10" class="node">
<title>roo_icons</title>
<polygon fill="#b1dbab" stroke="black" points="333.5,-593 250.5,-593 250.5,-555 333.5,-555 333.5,-593"/>
<text text-anchor="middle" x="292" y="-577.8" font-family="Times,serif" font-size="14.00">roo_icons</text>
<text text-anchor="middle" x="292" y="-562.8" font-family="Times,serif" font-size="14.00">1.2.2</text>
</g>
<!-- roo_icons&#45;&gt;roo_display -->
<g id="edge14" class="edge">
<title>roo_icons&#45;&gt;roo_display</title>
<path fill="none" stroke="black" d="M282.17,-554.88C274.69,-541.09 264.27,-521.9 255.79,-506.26"/>
<polygon fill="black" stroke="black" points="258.65,-504.19 250.8,-497.07 252.5,-507.53 258.65,-504.19"/>
</g>
<!-- roo_io&#45;&gt;roo_logging -->
<g id="edge15" class="edge">
<title>roo_io&#45;&gt;roo_logging</title>
<path fill="none" stroke="black" d="M687.24,-362.96C699.1,-353.74 713.7,-342.4 726.56,-332.42"/>
<polygon fill="black" stroke="black" points="728.95,-334.99 734.71,-326.09 724.66,-329.46 728.95,-334.99"/>
</g>
<!-- roo_locale -->
<g id="node12" class="node">
<title>roo_locale</title>
<polygon fill="#b1dbab" stroke="black" points="232,-593 144,-593 144,-555 232,-555 232,-593"/>
<text text-anchor="middle" x="188" y="-577.8" font-family="Times,serif" font-size="14.00">roo_locale</text>
<text text-anchor="middle" x="188" y="-562.8" font-family="Times,serif" font-size="14.00">1.1.2</text>
</g>
<!-- roo_logging&#45;&gt;roo_backport -->
<g id="edge16" class="edge">
<title>roo_logging&#45;&gt;roo_backport</title>
<path fill="none" stroke="black" d="M738.45,-287.83C721.01,-271.79 697.41,-250.55 692,-248 646.8,-226.67 630.07,-239.49 581,-230 576.27,-229.09 571.39,-228.1 566.49,-227.07"/>
<polygon fill="black" stroke="black" points="566.94,-223.59 556.43,-224.93 565.48,-230.44 566.94,-223.59"/>
</g>
<!-- roo_logging&#45;&gt;roo_flags -->
<g id="edge17" class="edge">
<title>roo_logging&#45;&gt;roo_flags</title>
<path fill="none" stroke="black" d="M757.81,-287.88C757.66,-274.35 757.46,-255.62 757.3,-240.15"/>
<polygon fill="black" stroke="black" points="760.8,-240.03 757.19,-230.07 753.8,-240.11 760.8,-240.03"/>
</g>
<!-- roo_threads -->
<g id="node21" class="node">
<title>roo_threads</title>
<polygon fill="#b1dbab" stroke="red" points="690.5,-230 589.5,-230 589.5,-192 690.5,-192 690.5,-230"/>
<text text-anchor="middle" x="640" y="-214.8" font-family="Times,serif" font-size="14.00">roo_threads</text>
<text text-anchor="middle" x="640" y="-199.8" font-family="Times,serif" font-size="14.00">1.2.3</text>
</g>
<!-- roo_logging&#45;&gt;roo_threads -->
<g id="edge18" class="edge">
<title>roo_logging&#45;&gt;roo_threads</title>
<path fill="none" stroke="black" d="M748.87,-287.86C741.84,-275.34 731.1,-259.03 718,-248 712.27,-243.18 705.79,-238.87 699.08,-235.04"/>
<polygon fill="black" stroke="black" points="700.3,-231.73 689.82,-230.14 697.02,-237.91 700.3,-231.73"/>
</g>
<!-- roo_monitoring -->
<g id="node14" class="node">
<title>roo_monitoring</title>
<polygon fill="plum" stroke="red" points="567.5,-497 442.5,-497 442.5,-459 567.5,-459 567.5,-497"/>
<text text-anchor="middle" x="505" y="-481.8" font-family="Times,serif" font-size="14.00">roo_monitoring</text>
<text text-anchor="middle" x="505" y="-466.8" font-family="Times,serif" font-size="14.00">1.0.0</text>
</g>
<!-- roo_monitoring&#45;&gt;roo_collections -->
<g id="edge19" class="edge">
<title>roo_monitoring&#45;&gt;roo_collections</title>
<path fill="none" stroke="red" d="M486.88,-458.88C472.57,-444.57 452.44,-424.44 436.51,-408.51"/>
<polygon fill="red" stroke="red" points="438.61,-405.66 429.07,-401.07 433.66,-410.61 438.61,-405.66"/>
<text text-anchor="middle" x="499" y="-433" font-family="Times,serif" font-size="10.00" fill="red">1.4.1</text>
<text text-anchor="middle" x="499" y="-422" font-family="Times,serif" font-size="10.00" fill="red">(latest: 1.4.3)</text>
</g>
<!-- roo_monitoring&#45;&gt;roo_io -->
<g id="edge20" class="edge">
<title>roo_monitoring&#45;&gt;roo_io</title>
<path fill="none" stroke="red" d="M525.96,-458.78C540.7,-446.54 561.24,-430.59 581,-419 594.76,-410.93 610.66,-403.59 624.85,-397.68"/>
<polygon fill="red" stroke="red" points="626.4,-400.83 634.34,-393.83 623.76,-394.35 626.4,-400.83"/>
<text text-anchor="middle" x="614" y="-433" font-family="Times,serif" font-size="10.00" fill="red">2.1.4</text>
<text text-anchor="middle" x="614" y="-422" font-family="Times,serif" font-size="10.00" fill="red">(latest: 2.1.5)</text>
</g>
<!-- roo_onewire -->
<g id="node15" class="node">
<title>roo_onewire</title>
<polygon fill="#b1dbab" stroke="black" points="860,-593 756,-593 756,-555 860,-555 860,-593"/>
<text text-anchor="middle" x="808" y="-577.8" font-family="Times,serif" font-size="14.00">roo_onewire</text>
<text text-anchor="middle" x="808" y="-562.8" font-family="Times,serif" font-size="14.00">2.0.9</text>
</g>
<!-- roo_onewire&#45;&gt;roo_quantity -->
<g id="edge22" class="edge">
<title>roo_onewire&#45;&gt;roo_quantity</title>
<path fill="none" stroke="black" d="M815.71,-554.88C821.52,-541.22 829.59,-522.26 836.21,-506.71"/>
<polygon fill="black" stroke="black" points="839.62,-507.64 840.31,-497.07 833.18,-504.9 839.62,-507.64"/>
</g>
<!-- roo_onewire&#45;&gt;roo_scheduler -->
<g id="edge21" class="edge">
<title>roo_onewire&#45;&gt;roo_scheduler</title>
<path fill="none" stroke="black" d="M755.76,-563.38C683.27,-549.81 548.2,-523.69 434,-497 433.9,-496.98 433.8,-496.95 433.7,-496.93"/>
<polygon fill="black" stroke="black" points="434.72,-493.58 424.18,-494.64 433.09,-500.38 434.72,-493.58"/>
</g>
<!-- roo_powersafefs -->
<g id="node16" class="node">
<title>roo_powersafefs</title>
<polygon fill="plum" stroke="red" points="689.5,-326 556.5,-326 556.5,-288 689.5,-288 689.5,-326"/>
<text text-anchor="middle" x="623" y="-310.8" font-family="Times,serif" font-size="14.00">roo_powersafefs</text>
<text text-anchor="middle" x="623" y="-295.8" font-family="Times,serif" font-size="14.00">1.0.0</text>
</g>
<!-- roo_powersafefs&#45;&gt;roo_threads -->
<g id="edge23" class="edge">
<title>roo_powersafefs&#45;&gt;roo_threads</title>
<path fill="none" stroke="red" d="M626.28,-287.88C628.72,-274.35 632.11,-255.62 634.91,-240.15"/>
<polygon fill="red" stroke="red" points="638.4,-240.53 636.73,-230.07 631.51,-239.29 638.4,-240.53"/>
<text text-anchor="middle" x="666" y="-262" font-family="Times,serif" font-size="10.00" fill="red">1.2.1</text>
<text text-anchor="middle" x="666" y="-251" font-family="Times,serif" font-size="10.00" fill="red">(latest: 1.2.3)</text>
</g>
<!-- roo_prefs -->
<g id="node17" class="node">
<title>roo_prefs</title>
<polygon fill="#b1dbab" stroke="black" points="552.5,-593 469.5,-593 469.5,-555 552.5,-555 552.5,-593"/>
<text text-anchor="middle" x="511" y="-577.8" font-family="Times,serif" font-size="14.00">roo_prefs</text>
<text text-anchor="middle" x="511" y="-562.8" font-family="Times,serif" font-size="14.00">1.2.10</text>
</g>
<!-- roo_prefs&#45;&gt;roo_logging -->
<g id="edge24" class="edge">
<title>roo_prefs&#45;&gt;roo_logging</title>
<path fill="none" stroke="black" d="M552.67,-565.46C595.86,-555.86 663.33,-535.65 709,-497 756.13,-457.11 761,-378.31 759.89,-336.16"/>
<polygon fill="black" stroke="black" points="763.38,-335.88 759.48,-326.03 756.38,-336.16 763.38,-335.88"/>
</g>
<!-- roo_prefs&#45;&gt;roo_scheduler -->
<g id="edge25" class="edge">
<title>roo_prefs&#45;&gt;roo_scheduler</title>
<path fill="none" stroke="black" d="M483.04,-554.88C460.07,-539.99 427.37,-518.78 402.37,-502.57"/>
<polygon fill="black" stroke="black" points="404.17,-499.57 393.87,-497.07 400.36,-505.45 404.17,-499.57"/>
</g>
<!-- roo_quantity&#45;&gt;roo_logging -->
<g id="edge26" class="edge">
<title>roo_quantity&#45;&gt;roo_logging</title>
<path fill="none" stroke="black" d="M839.19,-458.7C826.62,-432.84 802.56,-384.27 780,-344 778.35,-341.06 776.59,-338.01 774.8,-335"/>
<polygon fill="black" stroke="black" points="777.63,-332.91 769.46,-326.16 771.63,-336.53 777.63,-332.91"/>
</g>
<!-- roo_scheduler&#45;&gt;roo_collections -->
<g id="edge27" class="edge">
<title>roo_scheduler&#45;&gt;roo_collections</title>
<path fill="none" stroke="black" d="M374.26,-458.91C379.54,-447.44 386.58,-432.3 393,-419 394.35,-416.2 395.78,-413.28 397.22,-410.37"/>
<polygon fill="black" stroke="black" points="400.42,-411.78 401.74,-401.27 394.16,-408.66 400.42,-411.78"/>
</g>
<!-- roo_scheduler&#45;&gt;roo_threads -->
<g id="edge28" class="edge">
<title>roo_scheduler&#45;&gt;roo_threads</title>
<path fill="none" stroke="black" d="M424.07,-460.76C453.43,-452.34 483.43,-443.34 486,-441 540.25,-391.6 504.62,-347.17 548,-288 562.87,-267.72 584.33,-249.58 602.78,-236.11"/>
<polygon fill="black" stroke="black" points="604.89,-238.91 611.01,-230.26 600.83,-233.2 604.89,-238.91"/>
</g>
<!-- roo_testing -->
<g id="node20" class="node">
<title>roo_testing</title>
<polygon fill="#b1dbab" stroke="black" points="810.5,-38 713.5,-38 713.5,0 810.5,0 810.5,-38"/>
<text text-anchor="middle" x="762" y="-22.8" font-family="Times,serif" font-size="14.00">roo_testing</text>
<text text-anchor="middle" x="762" y="-7.8" font-family="Times,serif" font-size="14.00">1.3.4</text>
</g>
<!-- roo_time -->
<g id="node22" class="node">
<title>roo_time</title>
<polygon fill="#b1dbab" stroke="red" points="801.5,-134 722.5,-134 722.5,-96 801.5,-96 801.5,-134"/>
<text text-anchor="middle" x="762" y="-118.8" font-family="Times,serif" font-size="14.00">roo_time</text>
<text text-anchor="middle" x="762" y="-103.8" font-family="Times,serif" font-size="14.00">1.4.3</text>
</g>
<!-- roo_threads&#45;&gt;roo_time -->
<g id="edge29" class="edge">
<title>roo_threads&#45;&gt;roo_time</title>
<path fill="none" stroke="black" d="M663.52,-191.88C682.59,-177.18 709.65,-156.34 730.57,-140.21"/>
<polygon fill="black" stroke="black" points="732.76,-142.94 738.55,-134.07 728.49,-137.4 732.76,-142.94"/>
</g>
<!-- roo_time&#45;&gt;roo_testing -->
<g id="edge30" class="edge">
<title>roo_time&#45;&gt;roo_testing</title>
<path fill="none" stroke="red" d="M762,-95.88C762,-82.35 762,-63.62 762,-48.15"/>
<polygon fill="red" stroke="red" points="765.5,-48.07 762,-38.07 758.5,-48.07 765.5,-48.07"/>
<text text-anchor="middle" x="795" y="-70" font-family="Times,serif" font-size="10.00" fill="red">1.3.2</text>
<text text-anchor="middle" x="795" y="-59" font-family="Times,serif" font-size="10.00" fill="red">(latest: 1.3.4)</text>
</g>
<!-- roo_time_ds3231 -->
<g id="node23" class="node">
<title>roo_time_ds3231</title>
<polygon fill="plum" stroke="red" points="953,-230 815,-230 815,-192 953,-192 953,-230"/>
<text text-anchor="middle" x="884" y="-214.8" font-family="Times,serif" font-size="14.00">roo_time_ds3231</text>
<text text-anchor="middle" x="884" y="-199.8" font-family="Times,serif" font-size="14.00">1.1.5</text>
</g>
<!-- roo_time_ds3231&#45;&gt;roo_time -->
<g id="edge31" class="edge">
<title>roo_time_ds3231&#45;&gt;roo_time</title>
<path fill="none" stroke="red" d="M860.48,-191.88C841.41,-177.18 814.35,-156.34 793.43,-140.21"/>
<polygon fill="red" stroke="red" points="795.51,-137.4 785.45,-134.07 791.24,-142.94 795.51,-137.4"/>
<text text-anchor="middle" x="866" y="-166" font-family="Times,serif" font-size="10.00" fill="red">1.4.1</text>
<text text-anchor="middle" x="866" y="-155" font-family="Times,serif" font-size="10.00" fill="red">(latest: 1.4.3)</text>
</g>
<!-- roo_transceivers&#45;&gt;roo_prefs -->
<g id="edge32" class="edge">
<title>roo_transceivers&#45;&gt;roo_prefs</title>
<path fill="none" stroke="red" d="M490.82,-650.88C494.42,-637.35 499.4,-618.62 503.51,-603.15"/>
<polygon fill="red" stroke="red" points="507.01,-603.63 506.19,-593.07 500.24,-601.83 507.01,-603.63"/>
<text text-anchor="middle" x="536" y="-625" font-family="Times,serif" font-size="10.00" fill="red">1.2.9</text>
<text text-anchor="middle" x="536" y="-614" font-family="Times,serif" font-size="10.00" fill="red">(latest: 1.2.10)</text>
</g>
<!-- roo_transport -->
<g id="node25" class="node">
<title>roo_transport</title>
<polygon fill="#b1dbab" stroke="black" points="700,-497 586,-497 586,-459 700,-459 700,-497"/>
<text text-anchor="middle" x="643" y="-481.8" font-family="Times,serif" font-size="14.00">roo_transport</text>
<text text-anchor="middle" x="643" y="-466.8" font-family="Times,serif" font-size="14.00">1.1.2</text>
</g>
<!-- roo_transport&#45;&gt;roo_collections -->
<g id="edge33" class="edge">
<title>roo_transport&#45;&gt;roo_collections</title>
<path fill="none" stroke="black" d="M642.21,-458.87C640.64,-445.86 636.35,-428.92 625,-419 604.05,-400.69 536.01,-391.52 482.21,-387.04"/>
<polygon fill="black" stroke="black" points="482.25,-383.54 472.01,-386.24 481.7,-390.51 482.25,-383.54"/>
</g>
<!-- roo_transport&#45;&gt;roo_io -->
<g id="edge34" class="edge">
<title>roo_transport&#45;&gt;roo_io</title>
<path fill="none" stroke="black" d="M647.05,-458.88C650.07,-445.35 654.26,-426.62 657.71,-411.15"/>
<polygon fill="black" stroke="black" points="661.2,-411.59 659.96,-401.07 654.37,-410.06 661.2,-411.59"/>
</g>
<!-- roo_wifi -->
<g id="node26" class="node">
<title>roo_wifi</title>
<polygon fill="khaki" stroke="red" points="644,-689 572,-689 572,-651 644,-651 644,-689"/>
<text text-anchor="middle" x="608" y="-673.8" font-family="Times,serif" font-size="14.00">roo_wifi</text>
<text text-anchor="middle" x="608" y="-658.8" font-family="Times,serif" font-size="14.00">1.1.4</text>
</g>
<!-- roo_wifi&#45;&gt;roo_prefs -->
<g id="edge35" class="edge">
<title>roo_wifi&#45;&gt;roo_prefs</title>
<path fill="none" stroke="red" d="M601.13,-650.82C595.76,-638.44 587.29,-622.31 576,-611 571.45,-606.45 566.21,-602.3 560.72,-598.58"/>
<polygon fill="red" stroke="red" points="562.27,-595.42 551.94,-593.08 558.56,-601.35 562.27,-595.42"/>
<text text-anchor="middle" x="628" y="-625" font-family="Times,serif" font-size="10.00" fill="red">1.2.9</text>
<text text-anchor="middle" x="628" y="-614" font-family="Times,serif" font-size="10.00" fill="red">(latest: 1.2.10)</text>
</g>
<!-- roo_windows&#45;&gt;roo_icons -->
<g id="edge37" class="edge">
<title>roo_windows&#45;&gt;roo_icons</title>
<path fill="none" stroke="red" d="M303.56,-650.99C298.46,-645.8 293.77,-639.7 291,-633 287.18,-623.78 286.47,-613 287.03,-603.25"/>
<polygon fill="red" stroke="red" points="290.52,-603.51 288.05,-593.21 283.56,-602.8 290.52,-603.51"/>
<text text-anchor="middle" x="324" y="-625" font-family="Times,serif" font-size="10.00" fill="red">1.2.1</text>
<text text-anchor="middle" x="324" y="-614" font-family="Times,serif" font-size="10.00" fill="red">(latest: 1.2.2)</text>
</g>
<!-- roo_windows&#45;&gt;roo_locale -->
<g id="edge36" class="edge">
<title>roo_windows&#45;&gt;roo_locale</title>
<path fill="none" stroke="red" d="M272.32,-660.12C253.14,-654.82 232.52,-646.39 217,-633 207.73,-625.01 201.11,-613.34 196.55,-602.57"/>
<polygon fill="red" stroke="red" points="199.76,-601.15 192.93,-593.05 193.21,-603.64 199.76,-601.15"/>
<text text-anchor="middle" x="250" y="-625" font-family="Times,serif" font-size="10.00" fill="red">1.1.1</text>
<text text-anchor="middle" x="250" y="-614" font-family="Times,serif" font-size="10.00" fill="red">(latest: 1.1.2)</text>
</g>
<!-- roo_windows&#45;&gt;roo_scheduler -->
<g id="edge38" class="edge">
<title>roo_windows&#45;&gt;roo_scheduler</title>
<path fill="none" stroke="red" d="M346.03,-650.69C350.39,-645.42 354.49,-639.36 357,-633 373.3,-591.78 372.29,-539.5 369.53,-507.68"/>
<polygon fill="red" stroke="red" points="372.98,-506.94 368.51,-497.33 366.01,-507.63 372.98,-506.94"/>
<text text-anchor="middle" x="403" y="-577" font-family="Times,serif" font-size="10.00" fill="red">2.1.6</text>
<text text-anchor="middle" x="403" y="-566" font-family="Times,serif" font-size="10.00" fill="red">(latest: 2.1.9)</text>
</g>
<!-- roo_windows_transceivers -->
<g id="node28" class="node">
<title>roo_windows_transceivers</title>
<polygon fill="plum" stroke="red" points="519,-785 315,-785 315,-747 519,-747 519,-785"/>
<text text-anchor="middle" x="417" y="-769.8" font-family="Times,serif" font-size="14.00">roo_windows_transceivers</text>
<text text-anchor="middle" x="417" y="-754.8" font-family="Times,serif" font-size="14.00">1.0.0</text>
</g>
<!-- roo_windows_transceivers&#45;&gt;roo_transceivers -->
<g id="edge39" class="edge">
<title>roo_windows_transceivers&#45;&gt;roo_transceivers</title>
<path fill="none" stroke="red" d="M430.3,-746.88C440.61,-732.83 455.05,-713.17 466.63,-697.38"/>
<polygon fill="red" stroke="red" points="469.64,-699.2 472.74,-689.07 464,-695.06 469.64,-699.2"/>
<text text-anchor="middle" x="490" y="-721" font-family="Times,serif" font-size="10.00" fill="red">1.1.3</text>
<text text-anchor="middle" x="490" y="-710" font-family="Times,serif" font-size="10.00" fill="red">(latest: 1.1.5)</text>
</g>
<!-- roo_windows_transceivers&#45;&gt;roo_windows -->
<g id="edge40" class="edge">
<title>roo_windows_transceivers&#45;&gt;roo_windows</title>
<path fill="none" stroke="red" d="M394.57,-747C388.05,-741.44 381.06,-735.16 375,-729 365.24,-719.07 355.29,-707.36 347,-697.07"/>
<polygon fill="red" stroke="red" points="349.7,-694.85 340.74,-689.19 344.22,-699.2 349.7,-694.85"/>
<text text-anchor="middle" x="408" y="-721" font-family="Times,serif" font-size="10.00" fill="red">1.4.1</text>
<text text-anchor="middle" x="408" y="-710" font-family="Times,serif" font-size="10.00" fill="red">(latest: 1.4.2)</text>
</g>
<!-- roo_windows_wifi -->
<g id="node29" class="node">
<title>roo_windows_wifi</title>
<polygon fill="plum" stroke="red" points="678.5,-785 537.5,-785 537.5,-747 678.5,-747 678.5,-785"/>
<text text-anchor="middle" x="608" y="-769.8" font-family="Times,serif" font-size="14.00">roo_windows_wifi</text>
<text text-anchor="middle" x="608" y="-754.8" font-family="Times,serif" font-size="14.00">1.1.3</text>
</g>
<!-- roo_windows_wifi&#45;&gt;roo_wifi -->
<g id="edge41" class="edge">
<title>roo_windows_wifi&#45;&gt;roo_wifi</title>
<path fill="none" stroke="red" d="M608,-746.88C608,-733.35 608,-714.62 608,-699.15"/>
<polygon fill="red" stroke="red" points="611.5,-699.07 608,-689.07 604.5,-699.07 611.5,-699.07"/>
<text text-anchor="middle" x="641" y="-721" font-family="Times,serif" font-size="10.00" fill="red">1.1.3</text>
<text text-anchor="middle" x="641" y="-710" font-family="Times,serif" font-size="10.00" fill="red">(latest: 1.1.4)</text>
</g>
<!-- roo_windows_wifi&#45;&gt;roo_windows -->
<g id="edge42" class="edge">
<title>roo_windows_wifi&#45;&gt;roo_windows</title>
<path fill="none" stroke="black" d="M588.3,-746.81C572.81,-733.58 550.06,-716.4 527,-707 478.28,-687.14 461.73,-698.58 410,-689 404.15,-687.92 398.08,-686.73 392.01,-685.49"/>
<polygon fill="black" stroke="black" points="392.32,-681.98 381.82,-683.38 390.9,-688.84 392.32,-681.98"/>
</g>
</g>
</svg>
