<?xml version="1.0" encoding="UTF-8" standalone="no"?>
<!DOCTYPE svg PUBLIC "-//W3C//DTD SVG 1.1//EN"
 "http://www.w3.org/Graphics/SVG/1.1/DTD/svg11.dtd">
<!-- Generated by graphviz version 2.42.4 (0)
 -->
<!-- Title: dependencies Pages: 1 -->
<svg width="1238pt" height="814pt"
 viewBox="0.00 0.00 1238.00 814.00" xmlns="http://www.w3.org/2000/svg" xmlns:xlink="http://www.w3.org/1999/xlink">
<g id="graph0" class="graph" transform="scale(1 1) rotate(0) translate(4 810)">
<title>dependencies</title>
<polygon fill="white" stroke="transparent" points="-4,4 -4,-810 1234,-810 1234,4 -4,4"/>
<!-- roo_backport -->
<g id="node1" class="node">
<title>roo_backport</title>
<polygon fill="#b1dbab" stroke="black" points="676,-230 566,-230 566,-192 676,-192 676,-230"/>
<text text-anchor="middle" x="621" y="-214.8" font-family="Times,serif" font-size="14.00">roo_backport</text>
<text text-anchor="middle" x="621" y="-199.8" font-family="Times,serif" font-size="14.00">1.2.2</text>
</g>
<!-- roo_blink -->
<g id="node2" class="node">
<title>roo_blink</title>
<polygon fill="#b1dbab" stroke="red" points="320,-614 238,-614 238,-576 320,-576 320,-614"/>
<text text-anchor="middle" x="279" y="-598.8" font-family="Times,serif" font-size="14.00">roo_blink</text>
<text text-anchor="middle" x="279" y="-583.8" font-family="Times,serif" font-size="14.00">1.0.6</text>
</g>
<!-- roo_logging -->
<g id="node15" class="node">
<title>roo_logging</title>
<polygon fill="#b1dbab" stroke="red" points="519,-326 419,-326 419,-288 519,-288 519,-326"/>
<text text-anchor="middle" x="469" y="-310.8" font-family="Times,serif" font-size="14.00">roo_logging</text>
<text text-anchor="middle" x="469" y="-295.8" font-family="Times,serif" font-size="14.00">1.5.7</text>
</g>
<!-- roo_blink&#45;&gt;roo_logging -->
<g id="edge1" class="edge">
<title>roo_blink&#45;&gt;roo_logging</title>
<path fill="none" stroke="red" d="M278.7,-575.97C279.02,-552.57 282.07,-511.07 298,-480 315.68,-445.52 396.32,-371.72 440.26,-332.95"/>
<polygon fill="red" stroke="red" points="442.81,-335.37 448.01,-326.14 438.19,-330.11 442.81,-335.37"/>
<text text-anchor="middle" x="362" y="-454" font-family="Times,serif" font-size="10.00" fill="red">1.5.5</text>
<text text-anchor="middle" x="362" y="-443" font-family="Times,serif" font-size="10.00" fill="red">(latest: 1.5.7)</text>
</g>
<!-- roo_scheduler -->
<g id="node21" class="node">
<title>roo_scheduler</title>
<polygon fill="#b1dbab" stroke="red" points="423,-518 307,-518 307,-480 423,-480 423,-518"/>
<text text-anchor="middle" x="365" y="-502.8" font-family="Times,serif" font-size="14.00">roo_scheduler</text>
<text text-anchor="middle" x="365" y="-487.8" font-family="Times,serif" font-size="14.00">2.1.9</text>
</g>
<!-- roo_blink&#45;&gt;roo_scheduler -->
<g id="edge2" class="edge">
<title>roo_blink&#45;&gt;roo_scheduler</title>
<path fill="none" stroke="black" d="M309.93,-575.86C317.34,-570.67 324.88,-564.6 331,-558 339.39,-548.96 346.64,-537.5 352.27,-527.16"/>
<polygon fill="black" stroke="black" points="355.48,-528.57 356.97,-518.08 349.26,-525.35 355.48,-528.57"/>
</g>
<!-- roo_collections -->
<g id="node3" class="node">
<title>roo_collections</title>
<polygon fill="#b1dbab" stroke="black" points="818,-422 696,-422 696,-384 818,-384 818,-422"/>
<text text-anchor="middle" x="757" y="-406.8" font-family="Times,serif" font-size="14.00">roo_collections</text>
<text text-anchor="middle" x="757" y="-391.8" font-family="Times,serif" font-size="14.00">1.4.5</text>
</g>
<!-- roo_collections&#45;&gt;roo_backport -->
<g id="edge3" class="edge">
<title>roo_collections&#45;&gt;roo_backport</title>
<path fill="none" stroke="black" d="M743.96,-383.78C719.79,-350.02 667.96,-277.61 639.93,-238.45"/>
<polygon fill="black" stroke="black" points="642.67,-236.26 634,-230.16 636.98,-240.33 642.67,-236.26"/>
</g>
<!-- roo_comms -->
<g id="node4" class="node">
<title>roo_comms</title>
<polygon fill="#b1dbab" stroke="red" points="260.5,-806 163.5,-806 163.5,-768 260.5,-768 260.5,-806"/>
<text text-anchor="middle" x="212" y="-790.8" font-family="Times,serif" font-size="14.00">roo_comms</text>
<text text-anchor="middle" x="212" y="-775.8" font-family="Times,serif" font-size="14.00">1.1.4</text>
</g>
<!-- roo_comms&#45;&gt;roo_blink -->
<g id="edge4" class="edge">
<title>roo_comms&#45;&gt;roo_blink</title>
<path fill="none" stroke="black" d="M212.82,-767.65C214.36,-744.62 218.71,-704.25 231,-672 237.72,-654.37 248.8,-636.44 258.62,-622.43"/>
<polygon fill="black" stroke="black" points="261.51,-624.4 264.52,-614.25 255.84,-620.31 261.51,-624.4"/>
</g>
<!-- roo_control -->
<g id="node5" class="node">
<title>roo_control</title>
<polygon fill="khaki" stroke="red" points="219.5,-614 122.5,-614 122.5,-576 219.5,-576 219.5,-614"/>
<text text-anchor="middle" x="171" y="-598.8" font-family="Times,serif" font-size="14.00">roo_control</text>
<text text-anchor="middle" x="171" y="-583.8" font-family="Times,serif" font-size="14.00">1.2.5</text>
</g>
<!-- roo_comms&#45;&gt;roo_control -->
<g id="edge5" class="edge">
<title>roo_comms&#45;&gt;roo_control</title>
<path fill="none" stroke="black" d="M204.17,-767.92C201.93,-762.26 199.66,-755.94 198,-750 185.99,-706.97 178.26,-655.61 174.27,-624.42"/>
<polygon fill="black" stroke="black" points="177.72,-623.77 173.02,-614.28 170.77,-624.63 177.72,-623.77"/>
</g>
<!-- roo_io -->
<g id="node13" class="node">
<title>roo_io</title>
<polygon fill="#b1dbab" stroke="black" points="647.5,-422 588.5,-422 588.5,-384 647.5,-384 647.5,-422"/>
<text text-anchor="middle" x="618" y="-406.8" font-family="Times,serif" font-size="14.00">roo_io</text>
<text text-anchor="middle" x="618" y="-391.8" font-family="Times,serif" font-size="14.00">2.2.4</text>
</g>
<!-- roo_comms&#45;&gt;roo_io -->
<g id="edge6" class="edge">
<title>roo_comms&#45;&gt;roo_io</title>
<path fill="none" stroke="red" d="M260.54,-770.1C263.72,-769.32 266.9,-768.61 270,-768 316.4,-758.94 446.12,-780.79 482,-750 502.12,-732.73 496,-718.52 496,-692 496,-692 496,-692 496,-498 496,-471.48 492.06,-459.53 510,-440 527.39,-421.07 554.99,-412.08 577.94,-407.82"/>
<polygon fill="red" stroke="red" points="578.79,-411.23 588.1,-406.17 577.67,-404.32 578.79,-411.23"/>
<text text-anchor="middle" x="529" y="-598" font-family="Times,serif" font-size="10.00" fill="red">2.1.5</text>
<text text-anchor="middle" x="529" y="-587" font-family="Times,serif" font-size="10.00" fill="red">(latest: 2.2.4)</text>
</g>
<!-- roo_transceivers -->
<g id="node26" class="node">
<title>roo_transceivers</title>
<polygon fill="khaki" stroke="red" points="375.5,-710 240.5,-710 240.5,-672 375.5,-672 375.5,-710"/>
<text text-anchor="middle" x="308" y="-694.8" font-family="Times,serif" font-size="14.00">roo_transceivers</text>
<text text-anchor="middle" x="308" y="-679.8" font-family="Times,serif" font-size="14.00">1.1.6</text>
</g>
<!-- roo_comms&#45;&gt;roo_transceivers -->
<g id="edge7" class="edge">
<title>roo_comms&#45;&gt;roo_transceivers</title>
<path fill="none" stroke="red" d="M228.84,-767.91C239.8,-756.31 254.51,-741.03 268,-728 271.77,-724.36 275.8,-720.59 279.81,-716.92"/>
<polygon fill="red" stroke="red" points="282.34,-719.35 287.4,-710.04 277.64,-714.16 282.34,-719.35"/>
<text text-anchor="middle" x="301" y="-742" font-family="Times,serif" font-size="10.00" fill="red">1.1.5</text>
<text text-anchor="middle" x="301" y="-731" font-family="Times,serif" font-size="10.00" fill="red">(latest: 1.1.6)</text>
</g>
<!-- roo_quantity -->
<g id="node20" class="node">
<title>roo_quantity</title>
<polygon fill="#b1dbab" stroke="red" points="224.5,-518 117.5,-518 117.5,-480 224.5,-480 224.5,-518"/>
<text text-anchor="middle" x="171" y="-502.8" font-family="Times,serif" font-size="14.00">roo_quantity</text>
<text text-anchor="middle" x="171" y="-487.8" font-family="Times,serif" font-size="14.00">1.1.8</text>
</g>
<!-- roo_control&#45;&gt;roo_quantity -->
<g id="edge8" class="edge">
<title>roo_control&#45;&gt;roo_quantity</title>
<path fill="none" stroke="black" d="M171,-575.88C171,-562.35 171,-543.62 171,-528.15"/>
<polygon fill="black" stroke="black" points="174.5,-528.07 171,-518.07 167.5,-528.07 174.5,-528.07"/>
</g>
<!-- roo_control&#45;&gt;roo_scheduler -->
<g id="edge9" class="edge">
<title>roo_control&#45;&gt;roo_scheduler</title>
<path fill="none" stroke="black" d="M208.41,-575.88C239.81,-560.66 284.81,-538.85 318.52,-522.52"/>
<polygon fill="black" stroke="black" points="320.24,-525.58 327.71,-518.07 317.18,-519.28 320.24,-525.58"/>
</g>
<!-- roo_dashboard -->
<g id="node6" class="node">
<title>roo_dashboard</title>
<polygon fill="khaki" stroke="red" points="783,-806 661,-806 661,-768 783,-768 783,-806"/>
<text text-anchor="middle" x="722" y="-790.8" font-family="Times,serif" font-size="14.00">roo_dashboard</text>
<text text-anchor="middle" x="722" y="-775.8" font-family="Times,serif" font-size="14.00">1.0.1</text>
</g>
<!-- roo_windows -->
<g id="node29" class="node">
<title>roo_windows</title>
<polygon fill="plum" stroke="red" points="737.5,-710 628.5,-710 628.5,-672 737.5,-672 737.5,-710"/>
<text text-anchor="middle" x="683" y="-694.8" font-family="Times,serif" font-size="14.00">roo_windows</text>
<text text-anchor="middle" x="683" y="-679.8" font-family="Times,serif" font-size="14.00">1.6.0</text>
</g>
<!-- roo_dashboard&#45;&gt;roo_windows -->
<g id="edge10" class="edge">
<title>roo_dashboard&#45;&gt;roo_windows</title>
<path fill="none" stroke="red" d="M715.52,-767.83C711.32,-756.32 705.6,-741.18 700,-728 698.8,-725.17 697.49,-722.23 696.17,-719.31"/>
<polygon fill="red" stroke="red" points="699.32,-717.78 691.93,-710.19 692.97,-720.73 699.32,-717.78"/>
<text text-anchor="middle" x="742" y="-742" font-family="Times,serif" font-size="10.00" fill="red">1.4.1</text>
<text text-anchor="middle" x="742" y="-731" font-family="Times,serif" font-size="10.00" fill="red">(latest: 1.6.0)</text>
</g>
<!-- roo_display -->
<g id="node7" class="node">
<title>roo_display</title>
<polygon fill="#b1dbab" stroke="black" points="829,-518 731,-518 731,-480 829,-480 829,-518"/>
<text text-anchor="middle" x="780" y="-502.8" font-family="Times,serif" font-size="14.00">roo_display</text>
<text text-anchor="middle" x="780" y="-487.8" font-family="Times,serif" font-size="14.00">3.2.0</text>
</g>
<!-- roo_display&#45;&gt;roo_collections -->
<g id="edge11" class="edge">
<title>roo_display&#45;&gt;roo_collections</title>
<path fill="none" stroke="black" d="M809.9,-479.69C815.6,-474.71 820.79,-468.78 824,-462 828.19,-453.16 829.02,-448.39 824,-440 821.43,-435.69 818.14,-431.87 814.41,-428.49"/>
<polygon fill="black" stroke="black" points="816.26,-425.49 806.21,-422.13 811.97,-431.03 816.26,-425.49"/>
</g>
<!-- roo_display&#45;&gt;roo_io -->
<g id="edge12" class="edge">
<title>roo_display&#45;&gt;roo_io</title>
<path fill="none" stroke="black" d="M743.52,-479.87C733.43,-474.46 722.61,-468.29 713,-462 699.76,-453.33 698.24,-448.67 685,-440 676.04,-434.14 666.04,-428.38 656.55,-423.24"/>
<polygon fill="black" stroke="black" points="658.13,-420.12 647.66,-418.53 654.85,-426.3 658.13,-420.12"/>
</g>
<!-- roo_display_lvgl -->
<g id="node8" class="node">
<title>roo_display_lvgl</title>
<polygon fill="khaki" stroke="red" points="1123.5,-614 992.5,-614 992.5,-576 1123.5,-576 1123.5,-614"/>
<text text-anchor="middle" x="1058" y="-598.8" font-family="Times,serif" font-size="14.00">roo_display_lvgl</text>
<text text-anchor="middle" x="1058" y="-583.8" font-family="Times,serif" font-size="14.00">1.0.0</text>
</g>
<!-- roo_display_lvgl&#45;&gt;roo_display -->
<g id="edge13" class="edge">
<title>roo_display_lvgl&#45;&gt;roo_display</title>
<path fill="none" stroke="red" d="M1034.39,-575.82C1015.97,-562.6 989.18,-545.43 963,-536 913.08,-518.03 894.76,-528.99 839.24,-517.99"/>
<polygon fill="red" stroke="red" points="839.73,-514.52 829.22,-515.85 838.27,-521.36 839.73,-514.52"/>
<text text-anchor="middle" x="1040" y="-550" font-family="Times,serif" font-size="10.00" fill="red">3.0.3</text>
<text text-anchor="middle" x="1040" y="-539" font-family="Times,serif" font-size="10.00" fill="red">(latest: 3.2.0)</text>
</g>
<!-- roo_flags -->
<g id="node9" class="node">
<title>roo_flags</title>
<polygon fill="#b1dbab" stroke="black" points="509,-230 429,-230 429,-192 509,-192 509,-230"/>
<text text-anchor="middle" x="469" y="-214.8" font-family="Times,serif" font-size="14.00">roo_flags</text>
<text text-anchor="middle" x="469" y="-199.8" font-family="Times,serif" font-size="14.00">1.2.3</text>
</g>
<!-- roo_fonts_basic -->
<g id="node10" class="node">
<title>roo_fonts_basic</title>
<polygon fill="#b1dbab" stroke="black" points="706,-614 580,-614 580,-576 706,-576 706,-614"/>
<text text-anchor="middle" x="643" y="-598.8" font-family="Times,serif" font-size="14.00">roo_fonts_basic</text>
<text text-anchor="middle" x="643" y="-583.8" font-family="Times,serif" font-size="14.00">1.0.3</text>
</g>
<!-- roo_fonts_basic&#45;&gt;roo_display -->
<g id="edge14" class="edge">
<title>roo_fonts_basic&#45;&gt;roo_display</title>
<path fill="none" stroke="black" d="M669.41,-575.88C691.02,-561.05 721.75,-539.97 745.33,-523.79"/>
<polygon fill="black" stroke="black" points="747.4,-526.61 753.67,-518.07 743.44,-520.84 747.4,-526.61"/>
</g>
<!-- roo_fonts_material -->
<g id="node11" class="node">
<title>roo_fonts_material</title>
<polygon fill="khaki" stroke="red" points="873.5,-614 724.5,-614 724.5,-576 873.5,-576 873.5,-614"/>
<text text-anchor="middle" x="799" y="-598.8" font-family="Times,serif" font-size="14.00">roo_fonts_material</text>
<text text-anchor="middle" x="799" y="-583.8" font-family="Times,serif" font-size="14.00">1.0.0</text>
</g>
<!-- roo_fonts_material&#45;&gt;roo_display -->
<g id="edge15" class="edge">
<title>roo_fonts_material&#45;&gt;roo_display</title>
<path fill="none" stroke="red" d="M795.34,-575.88C792.6,-562.35 788.82,-543.62 785.69,-528.15"/>
<polygon fill="red" stroke="red" points="789.06,-527.18 783.65,-518.07 782.2,-528.56 789.06,-527.18"/>
<text text-anchor="middle" x="825" y="-550" font-family="Times,serif" font-size="10.00" fill="red">3.0.2</text>
<text text-anchor="middle" x="825" y="-539" font-family="Times,serif" font-size="10.00" fill="red">(latest: 3.2.0)</text>
</g>
<!-- roo_icons -->
<g id="node12" class="node">
<title>roo_icons</title>
<polygon fill="#b1dbab" stroke="red" points="974.5,-614 891.5,-614 891.5,-576 974.5,-576 974.5,-614"/>
<text text-anchor="middle" x="933" y="-598.8" font-family="Times,serif" font-size="14.00">roo_icons</text>
<text text-anchor="middle" x="933" y="-583.8" font-family="Times,serif" font-size="14.00">1.2.3</text>
</g>
<!-- roo_icons&#45;&gt;roo_display -->
<g id="edge16" class="edge">
<title>roo_icons&#45;&gt;roo_display</title>
<path fill="none" stroke="red" d="M913.89,-575.97C900.18,-563.66 880.87,-547.55 862,-536 853.93,-531.06 845.06,-526.43 836.23,-522.25"/>
<polygon fill="red" stroke="red" points="837.63,-519.04 827.08,-518.06 834.71,-525.41 837.63,-519.04"/>
<text text-anchor="middle" x="926" y="-550" font-family="Times,serif" font-size="10.00" fill="red">3.1.2</text>
<text text-anchor="middle" x="926" y="-539" font-family="Times,serif" font-size="10.00" fill="red">(latest: 3.2.0)</text>
</g>
<!-- roo_io&#45;&gt;roo_logging -->
<g id="edge17" class="edge">
<title>roo_io&#45;&gt;roo_logging</title>
<path fill="none" stroke="black" d="M589.27,-383.88C565.67,-368.99 532.06,-347.78 506.37,-331.57"/>
<polygon fill="black" stroke="black" points="507.97,-328.44 497.64,-326.07 504.23,-334.36 507.97,-328.44"/>
</g>
<!-- roo_locale -->
<g id="node14" class="node">
<title>roo_locale</title>
<polygon fill="#b1dbab" stroke="black" points="1230,-614 1142,-614 1142,-576 1230,-576 1230,-614"/>
<text text-anchor="middle" x="1186" y="-598.8" font-family="Times,serif" font-size="14.00">roo_locale</text>
<text text-anchor="middle" x="1186" y="-583.8" font-family="Times,serif" font-size="14.00">1.1.2</text>
</g>
<!-- roo_logging&#45;&gt;roo_backport -->
<g id="edge18" class="edge">
<title>roo_logging&#45;&gt;roo_backport</title>
<path fill="none" stroke="black" d="M498.31,-287.88C522.49,-272.92 556.97,-251.6 583.22,-235.36"/>
<polygon fill="black" stroke="black" points="585.12,-238.31 591.78,-230.07 581.44,-232.35 585.12,-238.31"/>
</g>
<!-- roo_logging&#45;&gt;roo_flags -->
<g id="edge19" class="edge">
<title>roo_logging&#45;&gt;roo_flags</title>
<path fill="none" stroke="black" d="M469,-287.88C469,-274.35 469,-255.62 469,-240.15"/>
<polygon fill="black" stroke="black" points="472.5,-240.07 469,-230.07 465.5,-240.07 472.5,-240.07"/>
</g>
<!-- roo_threads -->
<g id="node23" class="node">
<title>roo_threads</title>
<polygon fill="#b1dbab" stroke="red" points="384.5,-230 283.5,-230 283.5,-192 384.5,-192 384.5,-230"/>
<text text-anchor="middle" x="334" y="-214.8" font-family="Times,serif" font-size="14.00">roo_threads</text>
<text text-anchor="middle" x="334" y="-199.8" font-family="Times,serif" font-size="14.00">1.2.5</text>
</g>
<!-- roo_logging&#45;&gt;roo_threads -->
<g id="edge20" class="edge">
<title>roo_logging&#45;&gt;roo_threads</title>
<path fill="none" stroke="black" d="M451.27,-287.92C438.75,-275.75 421.2,-259.82 404,-248 397.35,-243.43 390.04,-239.05 382.73,-235.02"/>
<polygon fill="black" stroke="black" points="383.99,-231.73 373.52,-230.12 380.7,-237.91 383.99,-231.73"/>
</g>
<!-- roo_monitoring -->
<g id="node16" class="node">
<title>roo_monitoring</title>
<polygon fill="#b1dbab" stroke="red" points="687.5,-518 562.5,-518 562.5,-480 687.5,-480 687.5,-518"/>
<text text-anchor="middle" x="625" y="-502.8" font-family="Times,serif" font-size="14.00">roo_monitoring</text>
<text text-anchor="middle" x="625" y="-487.8" font-family="Times,serif" font-size="14.00">1.1.2</text>
</g>
<!-- roo_monitoring&#45;&gt;roo_collections -->
<g id="edge21" class="edge">
<title>roo_monitoring&#45;&gt;roo_collections</title>
<path fill="none" stroke="red" d="M659.96,-479.95C669.6,-474.54 679.9,-468.35 689,-462 703.3,-452.02 718.15,-439.63 730.31,-428.86"/>
<polygon fill="red" stroke="red" points="732.78,-431.35 737.88,-422.06 728.1,-426.14 732.78,-431.35"/>
<text text-anchor="middle" x="750" y="-454" font-family="Times,serif" font-size="10.00" fill="red">1.4.4</text>
<text text-anchor="middle" x="750" y="-443" font-family="Times,serif" font-size="10.00" fill="red">(latest: 1.4.5)</text>
</g>
<!-- roo_monitoring&#45;&gt;roo_io -->
<g id="edge22" class="edge">
<title>roo_monitoring&#45;&gt;roo_io</title>
<path fill="none" stroke="red" d="M621.42,-479.75C620.46,-474.09 619.53,-467.81 619,-462 618.11,-452.31 617.75,-441.67 617.65,-432.18"/>
<polygon fill="red" stroke="red" points="621.15,-432.06 617.63,-422.06 614.15,-432.07 621.15,-432.06"/>
<text text-anchor="middle" x="652" y="-454" font-family="Times,serif" font-size="10.00" fill="red">2.2.3</text>
<text text-anchor="middle" x="652" y="-443" font-family="Times,serif" font-size="10.00" fill="red">(latest: 2.2.4)</text>
</g>
<!-- roo_onewire -->
<g id="node17" class="node">
<title>roo_onewire</title>
<polygon fill="#b1dbab" stroke="red" points="104,-614 0,-614 0,-576 104,-576 104,-614"/>
<text text-anchor="middle" x="52" y="-598.8" font-family="Times,serif" font-size="14.00">roo_onewire</text>
<text text-anchor="middle" x="52" y="-583.8" font-family="Times,serif" font-size="14.00">2.0.9</text>
</g>
<!-- roo_onewire&#45;&gt;roo_quantity -->
<g id="edge24" class="edge">
<title>roo_onewire&#45;&gt;roo_quantity</title>
<path fill="none" stroke="black" d="M63.33,-575.76C71.73,-563.36 84.1,-547.22 98,-536 103.82,-531.3 110.36,-527.01 117.06,-523.15"/>
<polygon fill="black" stroke="black" points="119.13,-526.01 126.26,-518.16 115.8,-519.85 119.13,-526.01"/>
</g>
<!-- roo_onewire&#45;&gt;roo_scheduler -->
<g id="edge23" class="edge">
<title>roo_onewire&#45;&gt;roo_scheduler</title>
<path fill="none" stroke="black" d="M104.04,-578.37C156.95,-562.48 239.18,-537.78 297.17,-520.37"/>
<polygon fill="black" stroke="black" points="298.41,-523.65 306.98,-517.42 296.4,-516.95 298.41,-523.65"/>
</g>
<!-- roo_powersafefs -->
<g id="node18" class="node">
<title>roo_powersafefs</title>
<polygon fill="khaki" stroke="red" points="400.5,-326 267.5,-326 267.5,-288 400.5,-288 400.5,-326"/>
<text text-anchor="middle" x="334" y="-310.8" font-family="Times,serif" font-size="14.00">roo_powersafefs</text>
<text text-anchor="middle" x="334" y="-295.8" font-family="Times,serif" font-size="14.00">1.0.1</text>
</g>
<!-- roo_powersafefs&#45;&gt;roo_threads -->
<g id="edge25" class="edge">
<title>roo_powersafefs&#45;&gt;roo_threads</title>
<path fill="none" stroke="red" d="M334,-287.88C334,-274.35 334,-255.62 334,-240.15"/>
<polygon fill="red" stroke="red" points="337.5,-240.07 334,-230.07 330.5,-240.07 337.5,-240.07"/>
<text text-anchor="middle" x="367" y="-262" font-family="Times,serif" font-size="10.00" fill="red">1.2.3</text>
<text text-anchor="middle" x="367" y="-251" font-family="Times,serif" font-size="10.00" fill="red">(latest: 1.2.5)</text>
</g>
<!-- roo_prefs -->
<g id="node19" class="node">
<title>roo_prefs</title>
<polygon fill="#b1dbab" stroke="black" points="421.5,-614 338.5,-614 338.5,-576 421.5,-576 421.5,-614"/>
<text text-anchor="middle" x="380" y="-598.8" font-family="Times,serif" font-size="14.00">roo_prefs</text>
<text text-anchor="middle" x="380" y="-583.8" font-family="Times,serif" font-size="14.00">1.3.0</text>
</g>
<!-- roo_prefs&#45;&gt;roo_logging -->
<g id="edge26" class="edge">
<title>roo_prefs&#45;&gt;roo_logging</title>
<path fill="none" stroke="black" d="M395.67,-575.93C407.51,-561.29 423.19,-539.61 432,-518 457.15,-456.32 465.23,-377.61 467.8,-336.28"/>
<polygon fill="black" stroke="black" points="471.31,-336.31 468.37,-326.13 464.32,-335.92 471.31,-336.31"/>
</g>
<!-- roo_prefs&#45;&gt;roo_scheduler -->
<g id="edge27" class="edge">
<title>roo_prefs&#45;&gt;roo_scheduler</title>
<path fill="none" stroke="black" d="M377.11,-575.88C374.95,-562.35 371.96,-543.62 369.49,-528.15"/>
<polygon fill="black" stroke="black" points="372.92,-527.39 367.88,-518.07 366,-528.5 372.92,-527.39"/>
</g>
<!-- roo_quantity&#45;&gt;roo_logging -->
<g id="edge28" class="edge">
<title>roo_quantity&#45;&gt;roo_logging</title>
<path fill="none" stroke="red" d="M184.92,-479.91C203.83,-456.09 239.49,-413.73 276,-384 288.06,-374.18 292.7,-374.05 306,-366 322.04,-356.29 324.77,-351.4 342,-344 370.33,-331.84 379.34,-334.43 409,-326 409.1,-325.97 409.2,-325.94 409.3,-325.91"/>
<polygon fill="red" stroke="red" points="410.3,-329.27 418.94,-323.14 408.36,-322.54 410.3,-329.27"/>
<text text-anchor="middle" x="309" y="-406" font-family="Times,serif" font-size="10.00" fill="red">1.5.5</text>
<text text-anchor="middle" x="309" y="-395" font-family="Times,serif" font-size="10.00" fill="red">(latest: 1.5.7)</text>
</g>
<!-- roo_scheduler&#45;&gt;roo_collections -->
<g id="edge29" class="edge">
<title>roo_scheduler&#45;&gt;roo_collections</title>
<path fill="none" stroke="red" d="M415.34,-479.92C451.8,-467.35 502.47,-450.95 548,-440 595.31,-428.62 608.05,-430.27 656,-422 665.68,-420.33 675.87,-418.55 685.9,-416.77"/>
<polygon fill="red" stroke="red" points="686.63,-420.2 695.87,-415.01 685.41,-413.31 686.63,-420.2"/>
<text text-anchor="middle" x="581" y="-454" font-family="Times,serif" font-size="10.00" fill="red">1.4.3</text>
<text text-anchor="middle" x="581" y="-443" font-family="Times,serif" font-size="10.00" fill="red">(latest: 1.4.5)</text>
</g>
<!-- roo_scheduler&#45;&gt;roo_threads -->
<g id="edge30" class="edge">
<title>roo_scheduler&#45;&gt;roo_threads</title>
<path fill="none" stroke="red" d="M360.71,-479.88C357.53,-468.12 352.61,-452.69 346,-440 331.63,-412.41 323,-408.63 304,-384 283.91,-357.95 268.82,-357.07 258,-326 252.44,-310.05 251.54,-303.6 258,-288 266.45,-267.59 283.34,-249.81 299.05,-236.59"/>
<polygon fill="red" stroke="red" points="301.51,-239.1 307.11,-230.1 297.12,-233.64 301.51,-239.1"/>
<text text-anchor="middle" x="321" y="-358" font-family="Times,serif" font-size="10.00" fill="red">1.2.3</text>
<text text-anchor="middle" x="321" y="-347" font-family="Times,serif" font-size="10.00" fill="red">(latest: 1.2.5)</text>
</g>
<!-- roo_testing -->
<g id="node22" class="node">
<title>roo_testing</title>
<polygon fill="#b1dbab" stroke="black" points="284.5,-38 187.5,-38 187.5,0 284.5,0 284.5,-38"/>
<text text-anchor="middle" x="236" y="-22.8" font-family="Times,serif" font-size="14.00">roo_testing</text>
<text text-anchor="middle" x="236" y="-7.8" font-family="Times,serif" font-size="14.00">1.3.6</text>
</g>
<!-- roo_time -->
<g id="node24" class="node">
<title>roo_time</title>
<polygon fill="#b1dbab" stroke="red" points="275.5,-134 196.5,-134 196.5,-96 275.5,-96 275.5,-134"/>
<text text-anchor="middle" x="236" y="-118.8" font-family="Times,serif" font-size="14.00">roo_time</text>
<text text-anchor="middle" x="236" y="-103.8" font-family="Times,serif" font-size="14.00">1.4.4</text>
</g>
<!-- roo_threads&#45;&gt;roo_time -->
<g id="edge31" class="edge">
<title>roo_threads&#45;&gt;roo_time</title>
<path fill="none" stroke="black" d="M322.49,-191.74C314.33,-179.64 302.61,-163.86 290,-152 285.58,-147.85 280.64,-143.85 275.58,-140.12"/>
<polygon fill="black" stroke="black" points="277.24,-137.01 267.04,-134.13 273.22,-142.74 277.24,-137.01"/>
</g>
<!-- roo_time&#45;&gt;roo_testing -->
<g id="edge32" class="edge">
<title>roo_time&#45;&gt;roo_testing</title>
<path fill="none" stroke="red" d="M236,-95.88C236,-82.35 236,-63.62 236,-48.15"/>
<polygon fill="red" stroke="red" points="239.5,-48.07 236,-38.07 232.5,-48.07 239.5,-48.07"/>
<text text-anchor="middle" x="269" y="-70" font-family="Times,serif" font-size="10.00" fill="red">1.3.5</text>
<text text-anchor="middle" x="269" y="-59" font-family="Times,serif" font-size="10.00" fill="red">(latest: 1.3.6)</text>
</g>
<!-- roo_time_ds3231 -->
<g id="node25" class="node">
<title>roo_time_ds3231</title>
<polygon fill="#b1dbab" stroke="red" points="265,-230 127,-230 127,-192 265,-192 265,-230"/>
<text text-anchor="middle" x="196" y="-214.8" font-family="Times,serif" font-size="14.00">roo_time_ds3231</text>
<text text-anchor="middle" x="196" y="-199.8" font-family="Times,serif" font-size="14.00">1.1.6</text>
</g>
<!-- roo_time_ds3231&#45;&gt;roo_time -->
<g id="edge33" class="edge">
<title>roo_time_ds3231&#45;&gt;roo_time</title>
<path fill="none" stroke="red" d="M203.71,-191.88C209.52,-178.22 217.59,-159.26 224.21,-143.71"/>
<polygon fill="red" stroke="red" points="227.62,-144.64 228.31,-134.07 221.18,-141.9 227.62,-144.64"/>
<text text-anchor="middle" x="253" y="-166" font-family="Times,serif" font-size="10.00" fill="red">1.4.3</text>
<text text-anchor="middle" x="253" y="-155" font-family="Times,serif" font-size="10.00" fill="red">(latest: 1.4.4)</text>
</g>
<!-- roo_transceivers&#45;&gt;roo_prefs -->
<g id="edge34" class="edge">
<title>roo_transceivers&#45;&gt;roo_prefs</title>
<path fill="none" stroke="red" d="M312.33,-671.93C315.9,-659.76 321.87,-643.83 331,-632 334.14,-627.93 337.87,-624.1 341.84,-620.57"/>
<polygon fill="red" stroke="red" points="344.15,-623.2 349.68,-614.17 339.72,-617.78 344.15,-623.2"/>
<text text-anchor="middle" x="364" y="-646" font-family="Times,serif" font-size="10.00" fill="red">1.2.10</text>
<text text-anchor="middle" x="364" y="-635" font-family="Times,serif" font-size="10.00" fill="red">(latest: 1.3.0)</text>
</g>
<!-- roo_transport -->
<g id="node27" class="node">
<title>roo_transport</title>
<polygon fill="#b1dbab" stroke="black" points="961,-518 847,-518 847,-480 961,-480 961,-518"/>
<text text-anchor="middle" x="904" y="-502.8" font-family="Times,serif" font-size="14.00">roo_transport</text>
<text text-anchor="middle" x="904" y="-487.8" font-family="Times,serif" font-size="14.00">1.1.4</text>
</g>
<!-- roo_transport&#45;&gt;roo_collections -->
<g id="edge35" class="edge">
<title>roo_transport&#45;&gt;roo_collections</title>
<path fill="none" stroke="black" d="M887.09,-479.81C874.88,-467.42 857.52,-451.3 840,-440 832.34,-435.06 823.89,-430.51 815.4,-426.43"/>
<polygon fill="black" stroke="black" points="816.76,-423.2 806.21,-422.19 813.82,-429.56 816.76,-423.2"/>
</g>
<!-- roo_transport&#45;&gt;roo_io -->
<g id="edge36" class="edge">
<title>roo_transport&#45;&gt;roo_io</title>
<path fill="none" stroke="black" d="M846.84,-482.08C843.86,-481.35 840.9,-480.65 838,-480 793.95,-470.05 779.2,-480.5 738,-462 723.56,-455.52 723.74,-447.86 710,-440 693.45,-430.53 673.92,-422.5 657.12,-416.44"/>
<polygon fill="black" stroke="black" points="658.19,-413.1 647.59,-413.1 655.87,-419.71 658.19,-413.1"/>
</g>
<!-- roo_wifi -->
<g id="node28" class="node">
<title>roo_wifi</title>
<polygon fill="khaki" stroke="red" points="466,-710 394,-710 394,-672 466,-672 466,-710"/>
<text text-anchor="middle" x="430" y="-694.8" font-family="Times,serif" font-size="14.00">roo_wifi</text>
<text text-anchor="middle" x="430" y="-679.8" font-family="Times,serif" font-size="14.00">1.1.4</text>
</g>
<!-- roo_wifi&#45;&gt;roo_prefs -->
<g id="edge37" class="edge">
<title>roo_wifi&#45;&gt;roo_prefs</title>
<path fill="none" stroke="red" d="M420.36,-671.88C413.03,-658.09 402.82,-638.9 394.5,-623.26"/>
<polygon fill="red" stroke="red" points="397.4,-621.25 389.61,-614.07 391.22,-624.54 397.4,-621.25"/>
<text text-anchor="middle" x="443" y="-646" font-family="Times,serif" font-size="10.00" fill="red">1.2.9</text>
<text text-anchor="middle" x="443" y="-635" font-family="Times,serif" font-size="10.00" fill="red">(latest: 1.3.0)</text>
</g>
<!-- roo_windows&#45;&gt;roo_fonts_basic -->
<g id="edge38" class="edge">
<title>roo_windows&#45;&gt;roo_fonts_basic</title>
<path fill="none" stroke="red" d="M675.29,-671.88C669.48,-658.22 661.41,-639.26 654.79,-623.71"/>
<polygon fill="red" stroke="red" points="657.82,-621.9 650.69,-614.07 651.38,-624.64 657.82,-621.9"/>
<text text-anchor="middle" x="700" y="-646" font-family="Times,serif" font-size="10.00" fill="red">1.0.2</text>
<text text-anchor="middle" x="700" y="-635" font-family="Times,serif" font-size="10.00" fill="red">(latest: 1.0.3)</text>
</g>
<!-- roo_windows&#45;&gt;roo_fonts_material -->
<g id="edge39" class="edge">
<title>roo_windows&#45;&gt;roo_fonts_material</title>
<path fill="none" stroke="black" d="M711.92,-671.98C720.22,-666.48 729.14,-660.23 737,-654 749.77,-643.89 763.06,-631.7 774.05,-621.11"/>
<polygon fill="black" stroke="black" points="776.55,-623.57 781.26,-614.08 771.66,-618.56 776.55,-623.57"/>
</g>
<!-- roo_windows&#45;&gt;roo_icons -->
<g id="edge41" class="edge">
<title>roo_windows&#45;&gt;roo_icons</title>
<path fill="none" stroke="black" d="M730.91,-671.99C774.23,-655.7 837.83,-631.78 882.07,-615.15"/>
<polygon fill="black" stroke="black" points="883.35,-618.41 891.48,-611.61 880.88,-611.86 883.35,-618.41"/>
</g>
<!-- roo_windows&#45;&gt;roo_locale -->
<g id="edge40" class="edge">
<title>roo_windows&#45;&gt;roo_locale</title>
<path fill="none" stroke="black" d="M737.61,-683.64C820.96,-673.32 984.85,-650.55 1131.81,-614.1"/>
<polygon fill="black" stroke="black" points="1133.06,-617.39 1141.91,-611.56 1131.36,-610.6 1133.06,-617.39"/>
</g>
<!-- roo_windows&#45;&gt;roo_scheduler -->
<g id="edge42" class="edge">
<title>roo_windows&#45;&gt;roo_scheduler</title>
<path fill="none" stroke="black" d="M628.34,-677.51C584.23,-665.75 521.85,-645.23 474,-614 454.61,-601.35 413.28,-555.67 387.45,-526.11"/>
<polygon fill="black" stroke="black" points="389.81,-523.5 380.61,-518.25 384.53,-528.09 389.81,-523.5"/>
</g>
<!-- roo_windows_transceivers -->
<g id="node30" class="node">
<title>roo_windows_transceivers</title>
<polygon fill="plum" stroke="red" points="483,-806 279,-806 279,-768 483,-768 483,-806"/>
<text text-anchor="middle" x="381" y="-790.8" font-family="Times,serif" font-size="14.00">roo_windows_transceivers</text>
<text text-anchor="middle" x="381" y="-775.8" font-family="Times,serif" font-size="14.00">1.0.0</text>
</g>
<!-- roo_windows_transceivers&#45;&gt;roo_transceivers -->
<g id="edge43" class="edge">
<title>roo_windows_transceivers&#45;&gt;roo_transceivers</title>
<path fill="none" stroke="black" d="M366.92,-767.88C356.02,-753.83 340.75,-734.17 328.49,-718.38"/>
<polygon fill="black" stroke="black" points="330.93,-715.82 322.03,-710.07 325.4,-720.11 330.93,-715.82"/>
</g>
<!-- roo_windows_transceivers&#45;&gt;roo_windows -->
<g id="edge44" class="edge">
<title>roo_windows_transceivers&#45;&gt;roo_windows</title>
<path fill="none" stroke="red" d="M465.16,-767.93C480.51,-763.13 496.06,-757.22 510,-750 523.74,-742.88 523.15,-734.91 537,-728 562.27,-715.39 592.26,-707.01 618.46,-701.54"/>
<polygon fill="red" stroke="red" points="619.17,-704.96 628.3,-699.58 617.81,-698.1 619.17,-704.96"/>
<text text-anchor="middle" x="570" y="-742" font-family="Times,serif" font-size="10.00" fill="red">1.4.2</text>
<text text-anchor="middle" x="570" y="-731" font-family="Times,serif" font-size="10.00" fill="red">(latest: 1.6.0)</text>
</g>
<!-- roo_windows_wifi -->
<g id="node31" class="node">
<title>roo_windows_wifi</title>
<polygon fill="khaki" stroke="red" points="642.5,-806 501.5,-806 501.5,-768 642.5,-768 642.5,-806"/>
<text text-anchor="middle" x="572" y="-790.8" font-family="Times,serif" font-size="14.00">roo_windows_wifi</text>
<text text-anchor="middle" x="572" y="-775.8" font-family="Times,serif" font-size="14.00">1.1.3</text>
</g>
<!-- roo_windows_wifi&#45;&gt;roo_wifi -->
<g id="edge45" class="edge">
<title>roo_windows_wifi&#45;&gt;roo_wifi</title>
<path fill="none" stroke="red" d="M501.15,-768.84C474.94,-761.91 450.46,-754.5 446,-750 438.22,-742.15 434.14,-730.89 432.03,-720.38"/>
<polygon fill="red" stroke="red" points="435.46,-719.63 430.51,-710.26 428.54,-720.67 435.46,-719.63"/>
<text text-anchor="middle" x="479" y="-742" font-family="Times,serif" font-size="10.00" fill="red">1.1.3</text>
<text text-anchor="middle" x="479" y="-731" font-family="Times,serif" font-size="10.00" fill="red">(latest: 1.1.4)</text>
</g>
<!-- roo_windows_wifi&#45;&gt;roo_windows -->
<g id="edge46" class="edge">
<title>roo_windows_wifi&#45;&gt;roo_windows</title>
<path fill="none" stroke="red" d="M588.45,-767.85C599.64,-755.94 615.08,-740.34 630,-728 634.95,-723.91 640.36,-719.83 645.78,-715.96"/>
<polygon fill="red" stroke="red" points="648.01,-718.68 654.23,-710.1 644.02,-712.93 648.01,-718.68"/>
<text text-anchor="middle" x="663" y="-742" font-family="Times,serif" font-size="10.00" fill="red">1.4.2</text>
<text text-anchor="middle" x="663" y="-731" font-family="Times,serif" font-size="10.00" fill="red">(latest: 1.6.0)</text>
</g>
</g>
</svg>
