<?xml version="1.0" encoding="UTF-8" standalone="no"?>
<!DOCTYPE svg PUBLIC "-//W3C//DTD SVG 1.1//EN"
 "http://www.w3.org/Graphics/SVG/1.1/DTD/svg11.dtd">
<!-- Generated by graphviz version 2.42.4 (0)
 -->
<!-- Title: dependencies Pages: 1 -->
<svg width="1238pt" height="814pt"
 viewBox="0.00 0.00 1238.00 814.00" xmlns="http://www.w3.org/2000/svg" xmlns:xlink="http://www.w3.org/1999/xlink">
<g id="graph0" class="graph" transform="scale(1 1) rotate(0) translate(4 810)">
<title>dependencies</title>
<polygon fill="white" stroke="transparent" points="-4,4 -4,-810 1234,-810 1234,4 -4,4"/>
<!-- roo_backport -->
<g id="node1" class="node">
<title>roo_backport</title>
<polygon fill="#b1dbab" stroke="black" points="618,-230 508,-230 508,-192 618,-192 618,-230"/>
<text text-anchor="middle" x="563" y="-214.8" font-family="Times,serif" font-size="14.00">roo_backport</text>
<text text-anchor="middle" x="563" y="-199.8" font-family="Times,serif" font-size="14.00">1.2.2</text>
</g>
<!-- roo_blink -->
<g id="node2" class="node">
<title>roo_blink</title>
<polygon fill="#b1dbab" stroke="red" points="320,-614 238,-614 238,-576 320,-576 320,-614"/>
<text text-anchor="middle" x="279" y="-598.8" font-family="Times,serif" font-size="14.00">roo_blink</text>
<text text-anchor="middle" x="279" y="-583.8" font-family="Times,serif" font-size="14.00">1.0.6</text>
</g>
<!-- roo_logging -->
<g id="node15" class="node">
<title>roo_logging</title>
<polygon fill="#b1dbab" stroke="red" points="474,-326 374,-326 374,-288 474,-288 474,-326"/>
<text text-anchor="middle" x="424" y="-310.8" font-family="Times,serif" font-size="14.00">roo_logging</text>
<text text-anchor="middle" x="424" y="-295.8" font-family="Times,serif" font-size="14.00">1.5.7</text>
</g>
<!-- roo_blink&#45;&gt;roo_logging -->
<g id="edge1" class="edge">
<title>roo_blink&#45;&gt;roo_logging</title>
<path fill="none" stroke="red" d="M271.25,-575.82C262.57,-552.62 251.4,-511.7 265,-480 279.75,-445.62 300.22,-449.11 326,-422 353.67,-392.9 383.48,-357.6 402.86,-334.07"/>
<polygon fill="red" stroke="red" points="405.63,-336.21 409.26,-326.26 400.22,-331.77 405.63,-336.21"/>
<text text-anchor="middle" x="337" y="-454" font-family="Times,serif" font-size="10.00" fill="red">1.5.5</text>
<text text-anchor="middle" x="337" y="-443" font-family="Times,serif" font-size="10.00" fill="red">(latest: 1.5.7)</text>
</g>
<!-- roo_scheduler -->
<g id="node21" class="node">
<title>roo_scheduler</title>
<polygon fill="#b1dbab" stroke="red" points="390,-518 274,-518 274,-480 390,-480 390,-518"/>
<text text-anchor="middle" x="332" y="-502.8" font-family="Times,serif" font-size="14.00">roo_scheduler</text>
<text text-anchor="middle" x="332" y="-487.8" font-family="Times,serif" font-size="14.00">2.1.9</text>
</g>
<!-- roo_blink&#45;&gt;roo_scheduler -->
<g id="edge2" class="edge">
<title>roo_blink&#45;&gt;roo_scheduler</title>
<path fill="none" stroke="black" d="M289.22,-575.88C297.06,-561.96 308.02,-542.53 316.88,-526.82"/>
<polygon fill="black" stroke="black" points="319.95,-528.5 321.81,-518.07 313.85,-525.06 319.95,-528.5"/>
</g>
<!-- roo_collections -->
<g id="node3" class="node">
<title>roo_collections</title>
<polygon fill="#b1dbab" stroke="black" points="812,-422 690,-422 690,-384 812,-384 812,-422"/>
<text text-anchor="middle" x="751" y="-406.8" font-family="Times,serif" font-size="14.00">roo_collections</text>
<text text-anchor="middle" x="751" y="-391.8" font-family="Times,serif" font-size="14.00">1.4.3</text>
</g>
<!-- roo_collections&#45;&gt;roo_backport -->
<g id="edge3" class="edge">
<title>roo_collections&#45;&gt;roo_backport</title>
<path fill="none" stroke="black" d="M732.97,-383.78C699.29,-349.74 626.71,-276.39 588.2,-237.47"/>
<polygon fill="black" stroke="black" points="590.49,-234.81 580.97,-230.16 585.52,-239.73 590.49,-234.81"/>
</g>
<!-- roo_comms -->
<g id="node4" class="node">
<title>roo_comms</title>
<polygon fill="#b1dbab" stroke="red" points="260.5,-806 163.5,-806 163.5,-768 260.5,-768 260.5,-806"/>
<text text-anchor="middle" x="212" y="-790.8" font-family="Times,serif" font-size="14.00">roo_comms</text>
<text text-anchor="middle" x="212" y="-775.8" font-family="Times,serif" font-size="14.00">1.1.4</text>
</g>
<!-- roo_comms&#45;&gt;roo_blink -->
<g id="edge4" class="edge">
<title>roo_comms&#45;&gt;roo_blink</title>
<path fill="none" stroke="black" d="M212.82,-767.65C214.36,-744.62 218.71,-704.25 231,-672 237.72,-654.37 248.8,-636.44 258.62,-622.43"/>
<polygon fill="black" stroke="black" points="261.51,-624.4 264.52,-614.25 255.84,-620.31 261.51,-624.4"/>
</g>
<!-- roo_control -->
<g id="node5" class="node">
<title>roo_control</title>
<polygon fill="#b1dbab" stroke="red" points="219.5,-614 122.5,-614 122.5,-576 219.5,-576 219.5,-614"/>
<text text-anchor="middle" x="171" y="-598.8" font-family="Times,serif" font-size="14.00">roo_control</text>
<text text-anchor="middle" x="171" y="-583.8" font-family="Times,serif" font-size="14.00">1.2.5</text>
</g>
<!-- roo_comms&#45;&gt;roo_control -->
<g id="edge5" class="edge">
<title>roo_comms&#45;&gt;roo_control</title>
<path fill="none" stroke="black" d="M204.17,-767.92C201.93,-762.26 199.66,-755.94 198,-750 185.99,-706.97 178.26,-655.61 174.27,-624.42"/>
<polygon fill="black" stroke="black" points="177.72,-623.77 173.02,-614.28 170.77,-624.63 177.72,-623.77"/>
</g>
<!-- roo_io -->
<g id="node13" class="node">
<title>roo_io</title>
<polygon fill="#b1dbab" stroke="red" points="585.5,-422 526.5,-422 526.5,-384 585.5,-384 585.5,-422"/>
<text text-anchor="middle" x="556" y="-406.8" font-family="Times,serif" font-size="14.00">roo_io</text>
<text text-anchor="middle" x="556" y="-391.8" font-family="Times,serif" font-size="14.00">2.2.0</text>
</g>
<!-- roo_comms&#45;&gt;roo_io -->
<g id="edge6" class="edge">
<title>roo_comms&#45;&gt;roo_io</title>
<path fill="none" stroke="red" d="M260.54,-770.1C263.72,-769.32 266.9,-768.61 270,-768 316.4,-758.94 447.8,-782.64 482,-750 538.43,-696.14 489.29,-652.41 505,-576 513.93,-532.59 519.33,-522.47 532,-480 536.78,-464 542.38,-446.19 546.98,-431.84"/>
<polygon fill="red" stroke="red" points="550.39,-432.66 550.12,-422.07 543.72,-430.52 550.39,-432.66"/>
<text text-anchor="middle" x="538" y="-598" font-family="Times,serif" font-size="10.00" fill="red">2.1.5</text>
<text text-anchor="middle" x="538" y="-587" font-family="Times,serif" font-size="10.00" fill="red">(latest: 2.2.0)</text>
</g>
<!-- roo_transceivers -->
<g id="node26" class="node">
<title>roo_transceivers</title>
<polygon fill="#b1dbab" stroke="red" points="375.5,-710 240.5,-710 240.5,-672 375.5,-672 375.5,-710"/>
<text text-anchor="middle" x="308" y="-694.8" font-family="Times,serif" font-size="14.00">roo_transceivers</text>
<text text-anchor="middle" x="308" y="-679.8" font-family="Times,serif" font-size="14.00">1.1.6</text>
</g>
<!-- roo_comms&#45;&gt;roo_transceivers -->
<g id="edge7" class="edge">
<title>roo_comms&#45;&gt;roo_transceivers</title>
<path fill="none" stroke="red" d="M230.51,-767.88C245.25,-753.44 266.05,-733.07 282.39,-717.07"/>
<polygon fill="red" stroke="red" points="284.85,-719.57 289.55,-710.07 279.95,-714.56 284.85,-719.57"/>
<text text-anchor="middle" x="302" y="-742" font-family="Times,serif" font-size="10.00" fill="red">1.1.5</text>
<text text-anchor="middle" x="302" y="-731" font-family="Times,serif" font-size="10.00" fill="red">(latest: 1.1.6)</text>
</g>
<!-- roo_quantity -->
<g id="node20" class="node">
<title>roo_quantity</title>
<polygon fill="#b1dbab" stroke="red" points="217.5,-518 110.5,-518 110.5,-480 217.5,-480 217.5,-518"/>
<text text-anchor="middle" x="164" y="-502.8" font-family="Times,serif" font-size="14.00">roo_quantity</text>
<text text-anchor="middle" x="164" y="-487.8" font-family="Times,serif" font-size="14.00">1.1.8</text>
</g>
<!-- roo_control&#45;&gt;roo_quantity -->
<g id="edge8" class="edge">
<title>roo_control&#45;&gt;roo_quantity</title>
<path fill="none" stroke="black" d="M169.65,-575.88C168.64,-562.35 167.25,-543.62 166.1,-528.15"/>
<polygon fill="black" stroke="black" points="169.58,-527.78 165.35,-518.07 162.6,-528.3 169.58,-527.78"/>
</g>
<!-- roo_control&#45;&gt;roo_scheduler -->
<g id="edge9" class="edge">
<title>roo_control&#45;&gt;roo_scheduler</title>
<path fill="none" stroke="black" d="M202.04,-575.88C227.77,-560.86 264.5,-539.41 292.35,-523.15"/>
<polygon fill="black" stroke="black" points="294.18,-526.13 301.05,-518.07 290.65,-520.09 294.18,-526.13"/>
</g>
<!-- roo_dashboard -->
<g id="node6" class="node">
<title>roo_dashboard</title>
<polygon fill="khaki" stroke="red" points="783,-806 661,-806 661,-768 783,-768 783,-806"/>
<text text-anchor="middle" x="722" y="-790.8" font-family="Times,serif" font-size="14.00">roo_dashboard</text>
<text text-anchor="middle" x="722" y="-775.8" font-family="Times,serif" font-size="14.00">1.0.1</text>
</g>
<!-- roo_windows -->
<g id="node29" class="node">
<title>roo_windows</title>
<polygon fill="plum" stroke="red" points="749.5,-710 640.5,-710 640.5,-672 749.5,-672 749.5,-710"/>
<text text-anchor="middle" x="695" y="-694.8" font-family="Times,serif" font-size="14.00">roo_windows</text>
<text text-anchor="middle" x="695" y="-679.8" font-family="Times,serif" font-size="14.00">1.5.0</text>
</g>
<!-- roo_dashboard&#45;&gt;roo_windows -->
<g id="edge10" class="edge">
<title>roo_dashboard&#45;&gt;roo_windows</title>
<path fill="none" stroke="red" d="M716.79,-767.88C712.87,-754.22 707.43,-735.26 702.96,-719.71"/>
<polygon fill="red" stroke="red" points="706.31,-718.71 700.19,-710.07 699.59,-720.65 706.31,-718.71"/>
<text text-anchor="middle" x="744" y="-742" font-family="Times,serif" font-size="10.00" fill="red">1.4.1</text>
<text text-anchor="middle" x="744" y="-731" font-family="Times,serif" font-size="10.00" fill="red">(latest: 1.5.0)</text>
</g>
<!-- roo_display -->
<g id="node7" class="node">
<title>roo_display</title>
<polygon fill="#b1dbab" stroke="black" points="811,-518 713,-518 713,-480 811,-480 811,-518"/>
<text text-anchor="middle" x="762" y="-502.8" font-family="Times,serif" font-size="14.00">roo_display</text>
<text text-anchor="middle" x="762" y="-487.8" font-family="Times,serif" font-size="14.00">3.1.1</text>
</g>
<!-- roo_display&#45;&gt;roo_collections -->
<g id="edge11" class="edge">
<title>roo_display&#45;&gt;roo_collections</title>
<path fill="none" stroke="black" d="M763.37,-479.87C763.9,-468.38 763.98,-453.25 762,-440 761.6,-437.31 761.03,-434.53 760.37,-431.78"/>
<polygon fill="black" stroke="black" points="763.72,-430.76 757.67,-422.07 756.98,-432.64 763.72,-430.76"/>
</g>
<!-- roo_display&#45;&gt;roo_io -->
<g id="edge12" class="edge">
<title>roo_display&#45;&gt;roo_io</title>
<path fill="none" stroke="black" d="M712.96,-486.14C693.08,-480.31 670.31,-472.29 651,-462 637.03,-454.55 636.24,-448.67 623,-440 614.04,-434.14 604.04,-428.38 594.55,-423.24"/>
<polygon fill="black" stroke="black" points="596.13,-420.12 585.66,-418.53 592.85,-426.3 596.13,-420.12"/>
</g>
<!-- roo_display_lvgl -->
<g id="node8" class="node">
<title>roo_display_lvgl</title>
<polygon fill="khaki" stroke="red" points="1123.5,-614 992.5,-614 992.5,-576 1123.5,-576 1123.5,-614"/>
<text text-anchor="middle" x="1058" y="-598.8" font-family="Times,serif" font-size="14.00">roo_display_lvgl</text>
<text text-anchor="middle" x="1058" y="-583.8" font-family="Times,serif" font-size="14.00">1.0.0</text>
</g>
<!-- roo_display_lvgl&#45;&gt;roo_display -->
<g id="edge13" class="edge">
<title>roo_display_lvgl&#45;&gt;roo_display</title>
<path fill="none" stroke="red" d="M1033.04,-575.75C1013.58,-562.49 985.36,-545.3 958,-536 902.41,-517.11 882.46,-529.77 821.38,-518.01"/>
<polygon fill="red" stroke="red" points="821.71,-514.5 811.21,-515.9 820.29,-521.36 821.71,-514.5"/>
<text text-anchor="middle" x="1037" y="-550" font-family="Times,serif" font-size="10.00" fill="red">3.0.3</text>
<text text-anchor="middle" x="1037" y="-539" font-family="Times,serif" font-size="10.00" fill="red">(latest: 3.1.1)</text>
</g>
<!-- roo_flags -->
<g id="node9" class="node">
<title>roo_flags</title>
<polygon fill="#b1dbab" stroke="black" points="464,-230 384,-230 384,-192 464,-192 464,-230"/>
<text text-anchor="middle" x="424" y="-214.8" font-family="Times,serif" font-size="14.00">roo_flags</text>
<text text-anchor="middle" x="424" y="-199.8" font-family="Times,serif" font-size="14.00">1.2.3</text>
</g>
<!-- roo_fonts_basic -->
<g id="node10" class="node">
<title>roo_fonts_basic</title>
<polygon fill="#b1dbab" stroke="red" points="706,-614 580,-614 580,-576 706,-576 706,-614"/>
<text text-anchor="middle" x="643" y="-598.8" font-family="Times,serif" font-size="14.00">roo_fonts_basic</text>
<text text-anchor="middle" x="643" y="-583.8" font-family="Times,serif" font-size="14.00">1.0.2</text>
</g>
<!-- roo_fonts_basic&#45;&gt;roo_display -->
<g id="edge14" class="edge">
<title>roo_fonts_basic&#45;&gt;roo_display</title>
<path fill="none" stroke="red" d="M662.01,-575.75C674.66,-563.94 691.85,-548.49 708,-536 713.33,-531.88 719.12,-527.72 724.85,-523.76"/>
<polygon fill="red" stroke="red" points="726.85,-526.64 733.17,-518.14 722.92,-520.84 726.85,-526.64"/>
<text text-anchor="middle" x="741" y="-550" font-family="Times,serif" font-size="10.00" fill="red">3.0.2</text>
<text text-anchor="middle" x="741" y="-539" font-family="Times,serif" font-size="10.00" fill="red">(latest: 3.1.1)</text>
</g>
<!-- roo_fonts_material -->
<g id="node11" class="node">
<title>roo_fonts_material</title>
<polygon fill="#b1dbab" stroke="red" points="873.5,-614 724.5,-614 724.5,-576 873.5,-576 873.5,-614"/>
<text text-anchor="middle" x="799" y="-598.8" font-family="Times,serif" font-size="14.00">roo_fonts_material</text>
<text text-anchor="middle" x="799" y="-583.8" font-family="Times,serif" font-size="14.00">1.0.0</text>
</g>
<!-- roo_fonts_material&#45;&gt;roo_display -->
<g id="edge15" class="edge">
<title>roo_fonts_material&#45;&gt;roo_display</title>
<path fill="none" stroke="red" d="M791.87,-575.88C786.49,-562.22 779.03,-543.26 772.91,-527.71"/>
<polygon fill="red" stroke="red" points="776.03,-526.09 769.11,-518.07 769.52,-528.66 776.03,-526.09"/>
<text text-anchor="middle" x="817" y="-550" font-family="Times,serif" font-size="10.00" fill="red">3.0.2</text>
<text text-anchor="middle" x="817" y="-539" font-family="Times,serif" font-size="10.00" fill="red">(latest: 3.1.1)</text>
</g>
<!-- roo_icons -->
<g id="node12" class="node">
<title>roo_icons</title>
<polygon fill="#b1dbab" stroke="red" points="974.5,-614 891.5,-614 891.5,-576 974.5,-576 974.5,-614"/>
<text text-anchor="middle" x="933" y="-598.8" font-family="Times,serif" font-size="14.00">roo_icons</text>
<text text-anchor="middle" x="933" y="-583.8" font-family="Times,serif" font-size="14.00">1.2.2</text>
</g>
<!-- roo_icons&#45;&gt;roo_display -->
<g id="edge16" class="edge">
<title>roo_icons&#45;&gt;roo_display</title>
<path fill="none" stroke="red" d="M911.56,-575.88C896.23,-563.52 874.72,-547.4 854,-536 843.55,-530.25 831.99,-524.97 820.7,-520.32"/>
<polygon fill="red" stroke="red" points="821.89,-517.03 811.3,-516.58 819.29,-523.53 821.89,-517.03"/>
<text text-anchor="middle" x="921" y="-550" font-family="Times,serif" font-size="10.00" fill="red">3.0.2</text>
<text text-anchor="middle" x="921" y="-539" font-family="Times,serif" font-size="10.00" fill="red">(latest: 3.1.1)</text>
</g>
<!-- roo_io&#45;&gt;roo_logging -->
<g id="edge17" class="edge">
<title>roo_io&#45;&gt;roo_logging</title>
<path fill="none" stroke="black" d="M530.55,-383.88C509.82,-369.12 480.39,-348.15 457.7,-332"/>
<polygon fill="black" stroke="black" points="459.55,-329.02 449.37,-326.07 455.49,-334.72 459.55,-329.02"/>
</g>
<!-- roo_locale -->
<g id="node14" class="node">
<title>roo_locale</title>
<polygon fill="#b1dbab" stroke="black" points="1230,-614 1142,-614 1142,-576 1230,-576 1230,-614"/>
<text text-anchor="middle" x="1186" y="-598.8" font-family="Times,serif" font-size="14.00">roo_locale</text>
<text text-anchor="middle" x="1186" y="-583.8" font-family="Times,serif" font-size="14.00">1.1.2</text>
</g>
<!-- roo_logging&#45;&gt;roo_backport -->
<g id="edge18" class="edge">
<title>roo_logging&#45;&gt;roo_backport</title>
<path fill="none" stroke="black" d="M450.8,-287.88C472.72,-273.05 503.9,-251.97 527.82,-235.79"/>
<polygon fill="black" stroke="black" points="529.96,-238.57 536.28,-230.07 526.04,-232.77 529.96,-238.57"/>
</g>
<!-- roo_logging&#45;&gt;roo_flags -->
<g id="edge19" class="edge">
<title>roo_logging&#45;&gt;roo_flags</title>
<path fill="none" stroke="black" d="M424,-287.88C424,-274.35 424,-255.62 424,-240.15"/>
<polygon fill="black" stroke="black" points="427.5,-240.07 424,-230.07 420.5,-240.07 427.5,-240.07"/>
</g>
<!-- roo_threads -->
<g id="node23" class="node">
<title>roo_threads</title>
<polygon fill="#b1dbab" stroke="red" points="339.5,-230 238.5,-230 238.5,-192 339.5,-192 339.5,-230"/>
<text text-anchor="middle" x="289" y="-214.8" font-family="Times,serif" font-size="14.00">roo_threads</text>
<text text-anchor="middle" x="289" y="-199.8" font-family="Times,serif" font-size="14.00">1.2.5</text>
</g>
<!-- roo_logging&#45;&gt;roo_threads -->
<g id="edge20" class="edge">
<title>roo_logging&#45;&gt;roo_threads</title>
<path fill="none" stroke="black" d="M406.27,-287.92C393.75,-275.75 376.2,-259.82 359,-248 352.35,-243.43 345.04,-239.05 337.73,-235.02"/>
<polygon fill="black" stroke="black" points="338.99,-231.73 328.52,-230.12 335.7,-237.91 338.99,-231.73"/>
</g>
<!-- roo_monitoring -->
<g id="node16" class="node">
<title>roo_monitoring</title>
<polygon fill="#b1dbab" stroke="red" points="666.5,-518 541.5,-518 541.5,-480 666.5,-480 666.5,-518"/>
<text text-anchor="middle" x="604" y="-502.8" font-family="Times,serif" font-size="14.00">roo_monitoring</text>
<text text-anchor="middle" x="604" y="-487.8" font-family="Times,serif" font-size="14.00">1.1.1</text>
</g>
<!-- roo_monitoring&#45;&gt;roo_collections -->
<g id="edge21" class="edge">
<title>roo_monitoring&#45;&gt;roo_collections</title>
<path fill="none" stroke="black" d="M666.81,-487.33C696.14,-481.13 726.82,-472.46 737,-462 744.64,-454.15 748.36,-442.89 750.09,-432.37"/>
<polygon fill="black" stroke="black" points="753.58,-432.59 751.23,-422.26 746.63,-431.8 753.58,-432.59"/>
</g>
<!-- roo_monitoring&#45;&gt;roo_io -->
<g id="edge22" class="edge">
<title>roo_monitoring&#45;&gt;roo_io</title>
<path fill="none" stroke="red" d="M572.19,-479.98C566.09,-474.98 560.52,-468.97 557,-462 552.47,-453.02 551.32,-442.22 551.61,-432.38"/>
<polygon fill="red" stroke="red" points="555.11,-432.46 552.39,-422.22 548.13,-431.93 555.11,-432.46"/>
<text text-anchor="middle" x="590" y="-454" font-family="Times,serif" font-size="10.00" fill="red">2.1.6</text>
<text text-anchor="middle" x="590" y="-443" font-family="Times,serif" font-size="10.00" fill="red">(latest: 2.2.0)</text>
</g>
<!-- roo_onewire -->
<g id="node17" class="node">
<title>roo_onewire</title>
<polygon fill="#b1dbab" stroke="red" points="104,-614 0,-614 0,-576 104,-576 104,-614"/>
<text text-anchor="middle" x="52" y="-598.8" font-family="Times,serif" font-size="14.00">roo_onewire</text>
<text text-anchor="middle" x="52" y="-583.8" font-family="Times,serif" font-size="14.00">2.0.9</text>
</g>
<!-- roo_onewire&#45;&gt;roo_quantity -->
<g id="edge24" class="edge">
<title>roo_onewire&#45;&gt;roo_quantity</title>
<path fill="none" stroke="black" d="M62.78,-575.86C70.79,-563.5 82.61,-547.38 96,-536 101.53,-531.3 107.77,-526.98 114.18,-523.08"/>
<polygon fill="black" stroke="black" points="116.04,-526.05 122.96,-518.03 112.55,-519.98 116.04,-526.05"/>
</g>
<!-- roo_onewire&#45;&gt;roo_scheduler -->
<g id="edge23" class="edge">
<title>roo_onewire&#45;&gt;roo_scheduler</title>
<path fill="none" stroke="black" d="M104.01,-576.54C150.57,-560.91 218.95,-537.95 268.68,-521.26"/>
<polygon fill="black" stroke="black" points="270,-524.51 278.36,-518.01 267.77,-517.87 270,-524.51"/>
</g>
<!-- roo_powersafefs -->
<g id="node18" class="node">
<title>roo_powersafefs</title>
<polygon fill="khaki" stroke="red" points="355.5,-326 222.5,-326 222.5,-288 355.5,-288 355.5,-326"/>
<text text-anchor="middle" x="289" y="-310.8" font-family="Times,serif" font-size="14.00">roo_powersafefs</text>
<text text-anchor="middle" x="289" y="-295.8" font-family="Times,serif" font-size="14.00">1.0.1</text>
</g>
<!-- roo_powersafefs&#45;&gt;roo_threads -->
<g id="edge25" class="edge">
<title>roo_powersafefs&#45;&gt;roo_threads</title>
<path fill="none" stroke="red" d="M289,-287.88C289,-274.35 289,-255.62 289,-240.15"/>
<polygon fill="red" stroke="red" points="292.5,-240.07 289,-230.07 285.5,-240.07 292.5,-240.07"/>
<text text-anchor="middle" x="322" y="-262" font-family="Times,serif" font-size="10.00" fill="red">1.2.3</text>
<text text-anchor="middle" x="322" y="-251" font-family="Times,serif" font-size="10.00" fill="red">(latest: 1.2.5)</text>
</g>
<!-- roo_prefs -->
<g id="node19" class="node">
<title>roo_prefs</title>
<polygon fill="#b1dbab" stroke="red" points="421.5,-614 338.5,-614 338.5,-576 421.5,-576 421.5,-614"/>
<text text-anchor="middle" x="380" y="-598.8" font-family="Times,serif" font-size="14.00">roo_prefs</text>
<text text-anchor="middle" x="380" y="-583.8" font-family="Times,serif" font-size="14.00">1.2.11</text>
</g>
<!-- roo_prefs&#45;&gt;roo_logging -->
<g id="edge26" class="edge">
<title>roo_prefs&#45;&gt;roo_logging</title>
<path fill="none" stroke="red" d="M385.26,-575.71C389.5,-560.41 395.34,-537.93 399,-518 410.85,-453.5 418.34,-376.77 421.78,-336.28"/>
<polygon fill="red" stroke="red" points="425.28,-336.35 422.62,-326.09 418.31,-335.77 425.28,-336.35"/>
<text text-anchor="middle" x="444" y="-454" font-family="Times,serif" font-size="10.00" fill="red">1.5.6</text>
<text text-anchor="middle" x="444" y="-443" font-family="Times,serif" font-size="10.00" fill="red">(latest: 1.5.7)</text>
</g>
<!-- roo_prefs&#45;&gt;roo_scheduler -->
<g id="edge27" class="edge">
<title>roo_prefs&#45;&gt;roo_scheduler</title>
<path fill="none" stroke="black" d="M370.75,-575.88C363.71,-562.09 353.9,-542.9 345.92,-527.26"/>
<polygon fill="black" stroke="black" points="348.89,-525.38 341.23,-518.07 342.66,-528.57 348.89,-525.38"/>
</g>
<!-- roo_quantity&#45;&gt;roo_logging -->
<g id="edge28" class="edge">
<title>roo_quantity&#45;&gt;roo_logging</title>
<path fill="none" stroke="red" d="M176.42,-479.83C193.37,-455.9 225.6,-413.44 260,-384 286.06,-361.7 295.09,-358.87 326,-344 338.1,-338.18 351.41,-332.71 364.22,-327.88"/>
<polygon fill="red" stroke="red" points="365.71,-331.06 373.88,-324.31 363.28,-324.49 365.71,-331.06"/>
<text text-anchor="middle" x="293" y="-406" font-family="Times,serif" font-size="10.00" fill="red">1.5.5</text>
<text text-anchor="middle" x="293" y="-395" font-family="Times,serif" font-size="10.00" fill="red">(latest: 1.5.7)</text>
</g>
<!-- roo_scheduler&#45;&gt;roo_collections -->
<g id="edge29" class="edge">
<title>roo_scheduler&#45;&gt;roo_collections</title>
<path fill="none" stroke="black" d="M390.2,-486.19C419.46,-479.82 455.34,-471.35 487,-462 514.64,-453.84 520.15,-447.43 548,-440 591.11,-428.49 640.36,-419.66 679.56,-413.62"/>
<polygon fill="black" stroke="black" points="680.19,-417.06 689.56,-412.11 679.15,-410.14 680.19,-417.06"/>
</g>
<!-- roo_scheduler&#45;&gt;roo_threads -->
<g id="edge30" class="edge">
<title>roo_scheduler&#45;&gt;roo_threads</title>
<path fill="none" stroke="red" d="M328.46,-479.75C323.08,-455.74 310.94,-413.19 288,-384 261.96,-350.87 231.57,-363.83 213,-326 196.88,-293.16 227.57,-258.62 254.64,-236.29"/>
<polygon fill="red" stroke="red" points="256.84,-239.01 262.5,-230.05 252.49,-233.53 256.84,-239.01"/>
<text text-anchor="middle" x="300" y="-358" font-family="Times,serif" font-size="10.00" fill="red">1.2.3</text>
<text text-anchor="middle" x="300" y="-347" font-family="Times,serif" font-size="10.00" fill="red">(latest: 1.2.5)</text>
</g>
<!-- roo_testing -->
<g id="node22" class="node">
<title>roo_testing</title>
<polygon fill="plum" stroke="black" points="239.5,-38 142.5,-38 142.5,0 239.5,0 239.5,-38"/>
<text text-anchor="middle" x="191" y="-22.8" font-family="Times,serif" font-size="14.00">roo_testing</text>
<text text-anchor="middle" x="191" y="-7.8" font-family="Times,serif" font-size="14.00">1.3.6</text>
</g>
<!-- roo_time -->
<g id="node24" class="node">
<title>roo_time</title>
<polygon fill="#b1dbab" stroke="red" points="230.5,-134 151.5,-134 151.5,-96 230.5,-96 230.5,-134"/>
<text text-anchor="middle" x="191" y="-118.8" font-family="Times,serif" font-size="14.00">roo_time</text>
<text text-anchor="middle" x="191" y="-103.8" font-family="Times,serif" font-size="14.00">1.4.4</text>
</g>
<!-- roo_threads&#45;&gt;roo_time -->
<g id="edge31" class="edge">
<title>roo_threads&#45;&gt;roo_time</title>
<path fill="none" stroke="black" d="M277.49,-191.74C269.33,-179.64 257.61,-163.86 245,-152 240.58,-147.85 235.64,-143.85 230.58,-140.12"/>
<polygon fill="black" stroke="black" points="232.24,-137.01 222.04,-134.13 228.22,-142.74 232.24,-137.01"/>
</g>
<!-- roo_time&#45;&gt;roo_testing -->
<g id="edge32" class="edge">
<title>roo_time&#45;&gt;roo_testing</title>
<path fill="none" stroke="red" d="M191,-95.88C191,-82.35 191,-63.62 191,-48.15"/>
<polygon fill="red" stroke="red" points="194.5,-48.07 191,-38.07 187.5,-48.07 194.5,-48.07"/>
<text text-anchor="middle" x="224" y="-70" font-family="Times,serif" font-size="10.00" fill="red">1.3.5</text>
<text text-anchor="middle" x="224" y="-59" font-family="Times,serif" font-size="10.00" fill="red">(latest: 1.3.6)</text>
</g>
<!-- roo_time_ds3231 -->
<g id="node25" class="node">
<title>roo_time_ds3231</title>
<polygon fill="#b1dbab" stroke="red" points="220,-230 82,-230 82,-192 220,-192 220,-230"/>
<text text-anchor="middle" x="151" y="-214.8" font-family="Times,serif" font-size="14.00">roo_time_ds3231</text>
<text text-anchor="middle" x="151" y="-199.8" font-family="Times,serif" font-size="14.00">1.1.6</text>
</g>
<!-- roo_time_ds3231&#45;&gt;roo_time -->
<g id="edge33" class="edge">
<title>roo_time_ds3231&#45;&gt;roo_time</title>
<path fill="none" stroke="red" d="M158.71,-191.88C164.52,-178.22 172.59,-159.26 179.21,-143.71"/>
<polygon fill="red" stroke="red" points="182.62,-144.64 183.31,-134.07 176.18,-141.9 182.62,-144.64"/>
<text text-anchor="middle" x="208" y="-166" font-family="Times,serif" font-size="10.00" fill="red">1.4.3</text>
<text text-anchor="middle" x="208" y="-155" font-family="Times,serif" font-size="10.00" fill="red">(latest: 1.4.4)</text>
</g>
<!-- roo_transceivers&#45;&gt;roo_prefs -->
<g id="edge34" class="edge">
<title>roo_transceivers&#45;&gt;roo_prefs</title>
<path fill="none" stroke="red" d="M309.62,-671.79C311.48,-659.56 315.46,-643.61 324,-632 327.13,-627.75 330.93,-623.86 335.05,-620.35"/>
<polygon fill="red" stroke="red" points="337.47,-622.91 343.31,-614.07 333.23,-617.34 337.47,-622.91"/>
<text text-anchor="middle" x="360" y="-646" font-family="Times,serif" font-size="10.00" fill="red">1.2.10</text>
<text text-anchor="middle" x="360" y="-635" font-family="Times,serif" font-size="10.00" fill="red">(latest: 1.2.11)</text>
</g>
<!-- roo_transport -->
<g id="node27" class="node">
<title>roo_transport</title>
<polygon fill="#b1dbab" stroke="red" points="943,-518 829,-518 829,-480 943,-480 943,-518"/>
<text text-anchor="middle" x="886" y="-502.8" font-family="Times,serif" font-size="14.00">roo_transport</text>
<text text-anchor="middle" x="886" y="-487.8" font-family="Times,serif" font-size="14.00">1.1.2</text>
</g>
<!-- roo_transport&#45;&gt;roo_collections -->
<g id="edge35" class="edge">
<title>roo_transport&#45;&gt;roo_collections</title>
<path fill="none" stroke="black" d="M859.97,-479.88C838.68,-465.05 808.4,-443.97 785.16,-427.79"/>
<polygon fill="black" stroke="black" points="787.16,-424.91 776.95,-422.07 783.16,-430.66 787.16,-424.91"/>
</g>
<!-- roo_transport&#45;&gt;roo_io -->
<g id="edge36" class="edge">
<title>roo_transport&#45;&gt;roo_io</title>
<path fill="none" stroke="red" d="M828.81,-482.2C825.83,-481.44 822.88,-480.71 820,-480 783.33,-471.03 773.46,-471.77 737,-462 687.62,-448.77 631.71,-430.31 595.27,-417.79"/>
<polygon fill="red" stroke="red" points="596.12,-414.39 585.53,-414.43 593.84,-421 596.12,-414.39"/>
<text text-anchor="middle" x="770" y="-454" font-family="Times,serif" font-size="10.00" fill="red">2.1.5</text>
<text text-anchor="middle" x="770" y="-443" font-family="Times,serif" font-size="10.00" fill="red">(latest: 2.2.0)</text>
</g>
<!-- roo_wifi -->
<g id="node28" class="node">
<title>roo_wifi</title>
<polygon fill="khaki" stroke="red" points="466,-710 394,-710 394,-672 466,-672 466,-710"/>
<text text-anchor="middle" x="430" y="-694.8" font-family="Times,serif" font-size="14.00">roo_wifi</text>
<text text-anchor="middle" x="430" y="-679.8" font-family="Times,serif" font-size="14.00">1.1.4</text>
</g>
<!-- roo_wifi&#45;&gt;roo_prefs -->
<g id="edge37" class="edge">
<title>roo_wifi&#45;&gt;roo_prefs</title>
<path fill="none" stroke="red" d="M419.72,-671.74C416.57,-666.08 413.11,-659.8 410,-654 404.6,-643.93 398.8,-632.8 393.76,-623"/>
<polygon fill="red" stroke="red" points="396.87,-621.4 389.19,-614.1 390.64,-624.59 396.87,-621.4"/>
<text text-anchor="middle" x="446" y="-646" font-family="Times,serif" font-size="10.00" fill="red">1.2.9</text>
<text text-anchor="middle" x="446" y="-635" font-family="Times,serif" font-size="10.00" fill="red">(latest: 1.2.11)</text>
</g>
<!-- roo_windows&#45;&gt;roo_fonts_basic -->
<g id="edge38" class="edge">
<title>roo_windows&#45;&gt;roo_fonts_basic</title>
<path fill="none" stroke="black" d="M684.97,-671.88C677.28,-657.96 666.53,-638.53 657.84,-622.82"/>
<polygon fill="black" stroke="black" points="660.9,-621.12 653,-614.07 654.77,-624.51 660.9,-621.12"/>
</g>
<!-- roo_windows&#45;&gt;roo_fonts_material -->
<g id="edge39" class="edge">
<title>roo_windows&#45;&gt;roo_fonts_material</title>
<path fill="none" stroke="black" d="M715.05,-671.88C731.02,-657.44 753.56,-637.07 771.26,-621.07"/>
<polygon fill="black" stroke="black" points="773.94,-623.37 779.01,-614.07 769.24,-618.18 773.94,-623.37"/>
</g>
<!-- roo_windows&#45;&gt;roo_icons -->
<g id="edge41" class="edge">
<title>roo_windows&#45;&gt;roo_icons</title>
<path fill="none" stroke="black" d="M740.61,-671.99C780.93,-656.06 839.69,-632.85 881.65,-616.28"/>
<polygon fill="black" stroke="black" points="883.12,-619.46 891.14,-612.53 880.55,-612.95 883.12,-619.46"/>
</g>
<!-- roo_windows&#45;&gt;roo_locale -->
<g id="edge40" class="edge">
<title>roo_windows&#45;&gt;roo_locale</title>
<path fill="none" stroke="black" d="M749.52,-683.32C831.06,-672.72 989.56,-649.76 1132.11,-614.03"/>
<polygon fill="black" stroke="black" points="1133.07,-617.4 1141.91,-611.55 1131.35,-610.61 1133.07,-617.4"/>
</g>
<!-- roo_windows&#45;&gt;roo_scheduler -->
<g id="edge42" class="edge">
<title>roo_windows&#45;&gt;roo_scheduler</title>
<path fill="none" stroke="black" d="M640.31,-677.42C594.01,-665.35 526.94,-644.44 474,-614 451.6,-601.12 449.99,-592.37 430,-576 408.38,-558.3 383.49,-539.01 364.2,-524.29"/>
<polygon fill="black" stroke="black" points="366.12,-521.35 356.04,-518.08 361.88,-526.92 366.12,-521.35"/>
</g>
<!-- roo_windows_transceivers -->
<g id="node30" class="node">
<title>roo_windows_transceivers</title>
<polygon fill="plum" stroke="red" points="483,-806 279,-806 279,-768 483,-768 483,-806"/>
<text text-anchor="middle" x="381" y="-790.8" font-family="Times,serif" font-size="14.00">roo_windows_transceivers</text>
<text text-anchor="middle" x="381" y="-775.8" font-family="Times,serif" font-size="14.00">1.0.0</text>
</g>
<!-- roo_windows_transceivers&#45;&gt;roo_transceivers -->
<g id="edge43" class="edge">
<title>roo_windows_transceivers&#45;&gt;roo_transceivers</title>
<path fill="none" stroke="black" d="M369.95,-767.95C362.52,-756.22 352.23,-740.79 342,-728 339.28,-724.6 336.31,-721.14 333.29,-717.77"/>
<polygon fill="black" stroke="black" points="335.61,-715.13 326.25,-710.16 330.47,-719.88 335.61,-715.13"/>
</g>
<!-- roo_windows_transceivers&#45;&gt;roo_windows -->
<g id="edge44" class="edge">
<title>roo_windows_transceivers&#45;&gt;roo_windows</title>
<path fill="none" stroke="red" d="M461.62,-767.93C477.99,-763.04 494.83,-757.09 510,-750 525.64,-742.69 526.22,-734.99 542,-728 569.78,-715.7 602.33,-707.29 630.25,-701.72"/>
<polygon fill="red" stroke="red" points="631.15,-705.11 640.31,-699.79 629.83,-698.23 631.15,-705.11"/>
<text text-anchor="middle" x="575" y="-742" font-family="Times,serif" font-size="10.00" fill="red">1.4.2</text>
<text text-anchor="middle" x="575" y="-731" font-family="Times,serif" font-size="10.00" fill="red">(latest: 1.5.0)</text>
</g>
<!-- roo_windows_wifi -->
<g id="node31" class="node">
<title>roo_windows_wifi</title>
<polygon fill="plum" stroke="red" points="642.5,-806 501.5,-806 501.5,-768 642.5,-768 642.5,-806"/>
<text text-anchor="middle" x="572" y="-790.8" font-family="Times,serif" font-size="14.00">roo_windows_wifi</text>
<text text-anchor="middle" x="572" y="-775.8" font-family="Times,serif" font-size="14.00">1.1.3</text>
</g>
<!-- roo_windows_wifi&#45;&gt;roo_wifi -->
<g id="edge45" class="edge">
<title>roo_windows_wifi&#45;&gt;roo_wifi</title>
<path fill="none" stroke="red" d="M501.27,-769.09C474.58,-762.12 449.5,-754.61 445,-750 437.31,-742.13 433.42,-730.87 431.49,-720.36"/>
<polygon fill="red" stroke="red" points="434.94,-719.7 430.16,-710.25 428,-720.62 434.94,-719.7"/>
<text text-anchor="middle" x="478" y="-742" font-family="Times,serif" font-size="10.00" fill="red">1.1.3</text>
<text text-anchor="middle" x="478" y="-731" font-family="Times,serif" font-size="10.00" fill="red">(latest: 1.1.4)</text>
</g>
<!-- roo_windows_wifi&#45;&gt;roo_windows -->
<g id="edge46" class="edge">
<title>roo_windows_wifi&#45;&gt;roo_windows</title>
<path fill="none" stroke="red" d="M590.6,-767.83C603.21,-755.92 620.53,-740.32 637,-728 642.61,-723.8 648.73,-719.63 654.81,-715.68"/>
<polygon fill="red" stroke="red" points="657.06,-718.4 663.64,-710.09 653.32,-712.48 657.06,-718.4"/>
<text text-anchor="middle" x="670" y="-742" font-family="Times,serif" font-size="10.00" fill="red">1.4.2</text>
<text text-anchor="middle" x="670" y="-731" font-family="Times,serif" font-size="10.00" fill="red">(latest: 1.5.0)</text>
</g>
</g>
</svg>
