<?xml version="1.0" encoding="UTF-8" standalone="no"?>
<!DOCTYPE svg PUBLIC "-//W3C//DTD SVG 1.1//EN"
 "http://www.w3.org/Graphics/SVG/1.1/DTD/svg11.dtd">
<!-- Generated by graphviz version 2.42.4 (0)
 -->
<!-- Title: dependencies Pages: 1 -->
<svg width="934pt" height="772pt"
 viewBox="0.00 0.00 933.50 772.00" xmlns="http://www.w3.org/2000/svg" xmlns:xlink="http://www.w3.org/1999/xlink">
<g id="graph0" class="graph" transform="scale(1 1) rotate(0) translate(4 768)">
<title>dependencies</title>
<polygon fill="white" stroke="transparent" points="-4,4 -4,-768 929.5,-768 929.5,4 -4,4"/>
<!-- roo_backport -->
<g id="node1" class="node">
<title>roo_backport</title>
<polygon fill="#b1dbab" stroke="black" points="517.5,-209 428.5,-209 428.5,-171 517.5,-171 517.5,-209"/>
<text text-anchor="middle" x="473" y="-193.8" font-family="Times,serif" font-size="14.00">roo_backport</text>
<text text-anchor="middle" x="473" y="-178.8" font-family="Times,serif" font-size="14.00">1.2.2</text>
</g>
<!-- roo_blink -->
<g id="node2" class="node">
<title>roo_blink</title>
<polygon fill="#b1dbab" stroke="red" points="925.5,-572 856.5,-572 856.5,-534 925.5,-534 925.5,-572"/>
<text text-anchor="middle" x="891" y="-556.8" font-family="Times,serif" font-size="14.00">roo_blink</text>
<text text-anchor="middle" x="891" y="-541.8" font-family="Times,serif" font-size="14.00">1.0.6</text>
</g>
<!-- roo_logging -->
<g id="node15" class="node">
<title>roo_logging</title>
<polygon fill="khaki" stroke="red" points="746.5,-305 663.5,-305 663.5,-267 746.5,-267 746.5,-305"/>
<text text-anchor="middle" x="705" y="-289.8" font-family="Times,serif" font-size="14.00">roo_logging</text>
<text text-anchor="middle" x="705" y="-274.8" font-family="Times,serif" font-size="14.00">1.5.5</text>
</g>
<!-- roo_blink&#45;&gt;roo_logging -->
<g id="edge1" class="edge">
<title>roo_blink&#45;&gt;roo_logging</title>
<path fill="none" stroke="black" d="M878.22,-533.79C846.03,-487.93 761.53,-367.53 723.73,-313.69"/>
<polygon fill="black" stroke="black" points="726.48,-311.52 717.87,-305.34 720.75,-315.54 726.48,-311.52"/>
</g>
<!-- roo_scheduler -->
<g id="node21" class="node">
<title>roo_scheduler</title>
<polygon fill="#b1dbab" stroke="red" points="599.5,-476 506.5,-476 506.5,-438 599.5,-438 599.5,-476"/>
<text text-anchor="middle" x="553" y="-460.8" font-family="Times,serif" font-size="14.00">roo_scheduler</text>
<text text-anchor="middle" x="553" y="-445.8" font-family="Times,serif" font-size="14.00">2.1.9</text>
</g>
<!-- roo_blink&#45;&gt;roo_scheduler -->
<g id="edge2" class="edge">
<title>roo_blink&#45;&gt;roo_scheduler</title>
<path fill="none" stroke="black" d="M856.11,-537.18C853.05,-536.04 849.98,-534.97 847,-534 797.85,-518.06 674.77,-493.44 609.61,-476.01"/>
<polygon fill="black" stroke="black" points="610.24,-472.56 599.67,-473.28 608.39,-479.31 610.24,-472.56"/>
</g>
<!-- roo_collections -->
<g id="node3" class="node">
<title>roo_collections</title>
<polygon fill="#b1dbab" stroke="black" points="363,-380 263,-380 263,-342 363,-342 363,-380"/>
<text text-anchor="middle" x="313" y="-364.8" font-family="Times,serif" font-size="14.00">roo_collections</text>
<text text-anchor="middle" x="313" y="-349.8" font-family="Times,serif" font-size="14.00">1.4.3</text>
</g>
<!-- roo_collections&#45;&gt;roo_backport -->
<g id="edge3" class="edge">
<title>roo_collections&#45;&gt;roo_backport</title>
<path fill="none" stroke="black" d="M330.12,-341.91C358.68,-311.75 416.11,-251.09 448.79,-216.57"/>
<polygon fill="black" stroke="black" points="451.43,-218.88 455.76,-209.21 446.34,-214.07 451.43,-218.88"/>
</g>
<!-- roo_comms -->
<g id="node4" class="node">
<title>roo_comms</title>
<polygon fill="#b1dbab" stroke="red" points="799,-764 717,-764 717,-726 799,-726 799,-764"/>
<text text-anchor="middle" x="758" y="-748.8" font-family="Times,serif" font-size="14.00">roo_comms</text>
<text text-anchor="middle" x="758" y="-733.8" font-family="Times,serif" font-size="14.00">1.1.4</text>
</g>
<!-- roo_comms&#45;&gt;roo_blink -->
<g id="edge4" class="edge">
<title>roo_comms&#45;&gt;roo_blink</title>
<path fill="none" stroke="black" d="M783.62,-725.64C790.05,-720.36 796.63,-714.32 802,-708 835.71,-668.34 863.62,-614.14 878.74,-581.74"/>
<polygon fill="black" stroke="black" points="882.03,-582.98 883.02,-572.43 875.67,-580.06 882.03,-582.98"/>
</g>
<!-- roo_control -->
<g id="node5" class="node">
<title>roo_control</title>
<polygon fill="#b1dbab" stroke="red" points="838,-572 758,-572 758,-534 838,-534 838,-572"/>
<text text-anchor="middle" x="798" y="-556.8" font-family="Times,serif" font-size="14.00">roo_control</text>
<text text-anchor="middle" x="798" y="-541.8" font-family="Times,serif" font-size="14.00">1.2.5</text>
</g>
<!-- roo_comms&#45;&gt;roo_control -->
<g id="edge5" class="edge">
<title>roo_comms&#45;&gt;roo_control</title>
<path fill="none" stroke="black" d="M774.74,-725.77C778.78,-720.4 782.61,-714.28 785,-708 800.8,-666.5 801.61,-614.3 800.2,-582.58"/>
<polygon fill="black" stroke="black" points="803.68,-582.05 799.63,-572.26 796.69,-582.44 803.68,-582.05"/>
</g>
<!-- roo_io -->
<g id="node12" class="node">
<title>roo_io</title>
<polygon fill="#b1dbab" stroke="red" points="435,-380 381,-380 381,-342 435,-342 435,-380"/>
<text text-anchor="middle" x="408" y="-364.8" font-family="Times,serif" font-size="14.00">roo_io</text>
<text text-anchor="middle" x="408" y="-349.8" font-family="Times,serif" font-size="14.00">2.1.6</text>
</g>
<!-- roo_comms&#45;&gt;roo_io -->
<g id="edge6" class="edge">
<title>roo_comms&#45;&gt;roo_io</title>
<path fill="none" stroke="red" d="M716.8,-733.97C677.31,-722.81 617.58,-701.78 575,-668 470.51,-585.11 515.28,-510.73 444,-398 441.71,-394.39 439.01,-390.85 436.12,-387.5"/>
<polygon fill="red" stroke="red" points="438.55,-384.97 429.17,-380.04 433.43,-389.74 438.55,-384.97"/>
<text text-anchor="middle" x="531" y="-556" font-family="Times,serif" font-size="10.00" fill="red">2.1.5</text>
<text text-anchor="middle" x="531" y="-545" font-family="Times,serif" font-size="10.00" fill="red">(latest: 2.1.6)</text>
</g>
<!-- roo_transceivers -->
<g id="node26" class="node">
<title>roo_transceivers</title>
<polygon fill="#b1dbab" stroke="red" points="771,-668 665,-668 665,-630 771,-630 771,-668"/>
<text text-anchor="middle" x="718" y="-652.8" font-family="Times,serif" font-size="14.00">roo_transceivers</text>
<text text-anchor="middle" x="718" y="-637.8" font-family="Times,serif" font-size="14.00">1.1.6</text>
</g>
<!-- roo_comms&#45;&gt;roo_transceivers -->
<g id="edge7" class="edge">
<title>roo_comms&#45;&gt;roo_transceivers</title>
<path fill="none" stroke="red" d="M742.1,-725.9C737.97,-720.45 733.88,-714.24 731,-708 726.72,-698.71 723.8,-687.92 721.84,-678.18"/>
<polygon fill="red" stroke="red" points="725.25,-677.38 720.06,-668.14 718.36,-678.6 725.25,-677.38"/>
<text text-anchor="middle" x="758" y="-700" font-family="Times,serif" font-size="10.00" fill="red">1.1.5</text>
<text text-anchor="middle" x="758" y="-689" font-family="Times,serif" font-size="10.00" fill="red">(latest: 1.1.6)</text>
</g>
<!-- roo_quantity -->
<g id="node20" class="node">
<title>roo_quantity</title>
<polygon fill="#b1dbab" stroke="black" points="704,-476 618,-476 618,-438 704,-438 704,-476"/>
<text text-anchor="middle" x="661" y="-460.8" font-family="Times,serif" font-size="14.00">roo_quantity</text>
<text text-anchor="middle" x="661" y="-445.8" font-family="Times,serif" font-size="14.00">1.1.8</text>
</g>
<!-- roo_control&#45;&gt;roo_quantity -->
<g id="edge8" class="edge">
<title>roo_control&#45;&gt;roo_quantity</title>
<path fill="none" stroke="black" d="M771.59,-533.88C749.98,-519.05 719.25,-497.97 695.67,-481.79"/>
<polygon fill="black" stroke="black" points="697.56,-478.84 687.33,-476.07 693.6,-484.61 697.56,-478.84"/>
</g>
<!-- roo_control&#45;&gt;roo_scheduler -->
<g id="edge9" class="edge">
<title>roo_control&#45;&gt;roo_scheduler</title>
<path fill="none" stroke="black" d="M757.94,-537.13C754.92,-536.06 751.91,-535 749,-534 724.28,-525.49 717.44,-525.28 693,-516 670.3,-507.38 665.39,-503.4 643,-494 631.85,-489.32 619.86,-484.43 608.39,-479.81"/>
<polygon fill="black" stroke="black" points="609.49,-476.48 598.91,-476.01 606.89,-482.98 609.49,-476.48"/>
</g>
<!-- roo_dashboard -->
<g id="node6" class="node">
<title>roo_dashboard</title>
<polygon fill="khaki" stroke="red" points="228.5,-764 131.5,-764 131.5,-726 228.5,-726 228.5,-764"/>
<text text-anchor="middle" x="180" y="-748.8" font-family="Times,serif" font-size="14.00">roo_dashboard</text>
<text text-anchor="middle" x="180" y="-733.8" font-family="Times,serif" font-size="14.00">1.0.1</text>
</g>
<!-- roo_windows -->
<g id="node29" class="node">
<title>roo_windows</title>
<polygon fill="#b1dbab" stroke="red" points="314,-668 224,-668 224,-630 314,-630 314,-668"/>
<text text-anchor="middle" x="269" y="-652.8" font-family="Times,serif" font-size="14.00">roo_windows</text>
<text text-anchor="middle" x="269" y="-637.8" font-family="Times,serif" font-size="14.00">1.5.0</text>
</g>
<!-- roo_dashboard&#45;&gt;roo_windows -->
<g id="edge10" class="edge">
<title>roo_dashboard&#45;&gt;roo_windows</title>
<path fill="none" stroke="red" d="M181.55,-725.74C183.44,-713.33 187.65,-697.19 197,-686 202.04,-679.97 208.34,-674.85 215.11,-670.53"/>
<polygon fill="red" stroke="red" points="216.95,-673.51 223.87,-665.49 213.45,-667.45 216.95,-673.51"/>
<text text-anchor="middle" x="224" y="-700" font-family="Times,serif" font-size="10.00" fill="red">1.4.1</text>
<text text-anchor="middle" x="224" y="-689" font-family="Times,serif" font-size="10.00" fill="red">(latest: 1.5.0)</text>
</g>
<!-- roo_display -->
<g id="node7" class="node">
<title>roo_display</title>
<polygon fill="#b1dbab" stroke="black" points="321,-476 241,-476 241,-438 321,-438 321,-476"/>
<text text-anchor="middle" x="281" y="-460.8" font-family="Times,serif" font-size="14.00">roo_display</text>
<text text-anchor="middle" x="281" y="-445.8" font-family="Times,serif" font-size="14.00">3.0.3</text>
</g>
<!-- roo_display&#45;&gt;roo_collections -->
<g id="edge11" class="edge">
<title>roo_display&#45;&gt;roo_collections</title>
<path fill="none" stroke="black" d="M284.26,-437.92C286.62,-426.32 290.24,-411.04 295,-398 296.01,-395.23 297.18,-392.4 298.42,-389.59"/>
<polygon fill="black" stroke="black" points="301.69,-390.86 302.83,-380.33 295.37,-387.85 301.69,-390.86"/>
</g>
<!-- roo_display&#45;&gt;roo_io -->
<g id="edge12" class="edge">
<title>roo_display&#45;&gt;roo_io</title>
<path fill="none" stroke="black" d="M305.49,-437.88C325.34,-423.18 353.5,-402.34 375.28,-386.21"/>
<polygon fill="black" stroke="black" points="377.63,-388.83 383.59,-380.07 373.47,-383.2 377.63,-388.83"/>
</g>
<!-- roo_flags -->
<g id="node8" class="node">
<title>roo_flags</title>
<polygon fill="#b1dbab" stroke="black" points="734,-209 666,-209 666,-171 734,-171 734,-209"/>
<text text-anchor="middle" x="700" y="-193.8" font-family="Times,serif" font-size="14.00">roo_flags</text>
<text text-anchor="middle" x="700" y="-178.8" font-family="Times,serif" font-size="14.00">1.2.3</text>
</g>
<!-- roo_fonts_basic -->
<g id="node9" class="node">
<title>roo_fonts_basic</title>
<polygon fill="#b1dbab" stroke="red" points="329.5,-572 226.5,-572 226.5,-534 329.5,-534 329.5,-572"/>
<text text-anchor="middle" x="278" y="-556.8" font-family="Times,serif" font-size="14.00">roo_fonts_basic</text>
<text text-anchor="middle" x="278" y="-541.8" font-family="Times,serif" font-size="14.00">1.0.2</text>
</g>
<!-- roo_fonts_basic&#45;&gt;roo_display -->
<g id="edge13" class="edge">
<title>roo_fonts_basic&#45;&gt;roo_display</title>
<path fill="none" stroke="red" d="M278.58,-533.88C279.01,-520.35 279.61,-501.62 280.1,-486.15"/>
<polygon fill="red" stroke="red" points="283.6,-486.18 280.42,-476.07 276.61,-485.95 283.6,-486.18"/>
<text text-anchor="middle" x="307" y="-508" font-family="Times,serif" font-size="10.00" fill="red">3.0.2</text>
<text text-anchor="middle" x="307" y="-497" font-family="Times,serif" font-size="10.00" fill="red">(latest: 3.0.3)</text>
</g>
<!-- roo_fonts_material -->
<g id="node10" class="node">
<title>roo_fonts_material</title>
<polygon fill="#b1dbab" stroke="red" points="208,-572 88,-572 88,-534 208,-534 208,-572"/>
<text text-anchor="middle" x="148" y="-556.8" font-family="Times,serif" font-size="14.00">roo_fonts_material</text>
<text text-anchor="middle" x="148" y="-541.8" font-family="Times,serif" font-size="14.00">1.0.0</text>
</g>
<!-- roo_fonts_material&#45;&gt;roo_display -->
<g id="edge14" class="edge">
<title>roo_fonts_material&#45;&gt;roo_display</title>
<path fill="none" stroke="red" d="M169.83,-533.79C184.3,-522 203.89,-506.56 222,-494 228.1,-489.77 234.7,-485.48 241.2,-481.41"/>
<polygon fill="red" stroke="red" points="243.27,-484.24 249.94,-476.02 239.59,-478.29 243.27,-484.24"/>
<text text-anchor="middle" x="249" y="-508" font-family="Times,serif" font-size="10.00" fill="red">3.0.2</text>
<text text-anchor="middle" x="249" y="-497" font-family="Times,serif" font-size="10.00" fill="red">(latest: 3.0.3)</text>
</g>
<!-- roo_icons -->
<g id="node11" class="node">
<title>roo_icons</title>
<polygon fill="#b1dbab" stroke="red" points="70,-572 0,-572 0,-534 70,-534 70,-572"/>
<text text-anchor="middle" x="35" y="-556.8" font-family="Times,serif" font-size="14.00">roo_icons</text>
<text text-anchor="middle" x="35" y="-541.8" font-family="Times,serif" font-size="14.00">1.2.2</text>
</g>
<!-- roo_icons&#45;&gt;roo_display -->
<g id="edge15" class="edge">
<title>roo_icons&#45;&gt;roo_display</title>
<path fill="none" stroke="red" d="M60.52,-533.9C80.04,-520.89 108.08,-503.96 135,-494 173.39,-479.79 187.79,-486.54 231.1,-475.92"/>
<polygon fill="red" stroke="red" points="232.01,-479.3 240.8,-473.38 230.24,-472.53 232.01,-479.3"/>
<text text-anchor="middle" x="162" y="-508" font-family="Times,serif" font-size="10.00" fill="red">3.0.2</text>
<text text-anchor="middle" x="162" y="-497" font-family="Times,serif" font-size="10.00" fill="red">(latest: 3.0.3)</text>
</g>
<!-- roo_io&#45;&gt;roo_logging -->
<g id="edge16" class="edge">
<title>roo_io&#45;&gt;roo_logging</title>
<path fill="none" stroke="black" d="M435.33,-355.09C479.48,-346.9 569.32,-329.2 653.66,-305.23"/>
<polygon fill="black" stroke="black" points="654.75,-308.56 663.39,-302.43 652.81,-301.83 654.75,-308.56"/>
</g>
<!-- roo_io_sdfat -->
<g id="node13" class="node">
<title>roo_io_sdfat</title>
<polygon fill="plum" stroke="black" points="902.5,-764 817.5,-764 817.5,-726 902.5,-726 902.5,-764"/>
<text text-anchor="middle" x="860" y="-748.8" font-family="Times,serif" font-size="14.00">roo_io_sdfat</text>
<text text-anchor="middle" x="860" y="-733.8" font-family="Times,serif" font-size="14.00">1.0.0</text>
</g>
<!-- roo_locale -->
<g id="node14" class="node">
<title>roo_locale</title>
<polygon fill="#b1dbab" stroke="black" points="422,-572 348,-572 348,-534 422,-534 422,-572"/>
<text text-anchor="middle" x="385" y="-556.8" font-family="Times,serif" font-size="14.00">roo_locale</text>
<text text-anchor="middle" x="385" y="-541.8" font-family="Times,serif" font-size="14.00">1.1.2</text>
</g>
<!-- roo_logging&#45;&gt;roo_backport -->
<g id="edge17" class="edge">
<title>roo_logging&#45;&gt;roo_backport</title>
<path fill="none" stroke="black" d="M663.32,-269.79C660.51,-268.83 657.72,-267.89 655,-267 628.13,-258.21 620.38,-259.14 594,-249 567.53,-238.83 538.88,-225.21 516.1,-213.73"/>
<polygon fill="black" stroke="black" points="517.54,-210.54 507.04,-209.12 514.36,-216.78 517.54,-210.54"/>
</g>
<!-- roo_logging&#45;&gt;roo_flags -->
<g id="edge18" class="edge">
<title>roo_logging&#45;&gt;roo_flags</title>
<path fill="none" stroke="black" d="M704.04,-266.88C703.32,-253.35 702.32,-234.62 701.5,-219.15"/>
<polygon fill="black" stroke="black" points="704.99,-218.87 700.96,-209.07 698,-219.24 704.99,-218.87"/>
</g>
<!-- roo_threads -->
<g id="node23" class="node">
<title>roo_threads</title>
<polygon fill="#b1dbab" stroke="red" points="647,-209 567,-209 567,-171 647,-171 647,-209"/>
<text text-anchor="middle" x="607" y="-193.8" font-family="Times,serif" font-size="14.00">roo_threads</text>
<text text-anchor="middle" x="607" y="-178.8" font-family="Times,serif" font-size="14.00">1.2.3</text>
</g>
<!-- roo_logging&#45;&gt;roo_threads -->
<g id="edge19" class="edge">
<title>roo_logging&#45;&gt;roo_threads</title>
<path fill="none" stroke="black" d="M691.43,-266.78C682.11,-254.84 669.1,-239.24 656,-227 651.7,-222.98 646.95,-219.01 642.15,-215.25"/>
<polygon fill="black" stroke="black" points="644.18,-212.4 634.1,-209.16 639.96,-217.98 644.18,-212.4"/>
</g>
<!-- roo_monitoring -->
<g id="node16" class="node">
<title>roo_monitoring</title>
<polygon fill="#b1dbab" stroke="red" points="223,-476 121,-476 121,-438 223,-438 223,-476"/>
<text text-anchor="middle" x="172" y="-460.8" font-family="Times,serif" font-size="14.00">roo_monitoring</text>
<text text-anchor="middle" x="172" y="-445.8" font-family="Times,serif" font-size="14.00">1.1.1</text>
</g>
<!-- roo_monitoring&#45;&gt;roo_collections -->
<g id="edge20" class="edge">
<title>roo_monitoring&#45;&gt;roo_collections</title>
<path fill="none" stroke="black" d="M185.8,-437.86C196.06,-425.35 211.01,-409.04 227,-398 235.19,-392.34 244.41,-387.33 253.69,-382.97"/>
<polygon fill="black" stroke="black" points="255.25,-386.11 262.96,-378.84 252.4,-379.72 255.25,-386.11"/>
</g>
<!-- roo_monitoring&#45;&gt;roo_io -->
<g id="edge21" class="edge">
<title>roo_monitoring&#45;&gt;roo_io</title>
<path fill="none" stroke="black" d="M223.12,-438.18C261.72,-424.36 316.07,-404.13 371.37,-380.1"/>
<polygon fill="black" stroke="black" points="372.86,-383.27 380.62,-376.05 370.05,-376.85 372.86,-383.27"/>
</g>
<!-- roo_onewire -->
<g id="node17" class="node">
<title>roo_onewire</title>
<polygon fill="#b1dbab" stroke="red" points="653.5,-572 568.5,-572 568.5,-534 653.5,-534 653.5,-572"/>
<text text-anchor="middle" x="611" y="-556.8" font-family="Times,serif" font-size="14.00">roo_onewire</text>
<text text-anchor="middle" x="611" y="-541.8" font-family="Times,serif" font-size="14.00">2.0.9</text>
</g>
<!-- roo_onewire&#45;&gt;roo_quantity -->
<g id="edge23" class="edge">
<title>roo_onewire&#45;&gt;roo_quantity</title>
<path fill="none" stroke="black" d="M620.64,-533.88C627.97,-520.09 638.18,-500.9 646.5,-485.26"/>
<polygon fill="black" stroke="black" points="649.78,-486.54 651.39,-476.07 643.6,-483.25 649.78,-486.54"/>
</g>
<!-- roo_onewire&#45;&gt;roo_scheduler -->
<g id="edge22" class="edge">
<title>roo_onewire&#45;&gt;roo_scheduler</title>
<path fill="none" stroke="black" d="M599.82,-533.88C591.23,-519.96 579.24,-500.53 569.55,-484.82"/>
<polygon fill="black" stroke="black" points="572.38,-482.74 564.15,-476.07 566.42,-486.42 572.38,-482.74"/>
</g>
<!-- roo_powersafefs -->
<g id="node18" class="node">
<title>roo_powersafefs</title>
<polygon fill="khaki" stroke="red" points="645.5,-305 538.5,-305 538.5,-267 645.5,-267 645.5,-305"/>
<text text-anchor="middle" x="592" y="-289.8" font-family="Times,serif" font-size="14.00">roo_powersafefs</text>
<text text-anchor="middle" x="592" y="-274.8" font-family="Times,serif" font-size="14.00">1.0.0</text>
</g>
<!-- roo_powersafefs&#45;&gt;roo_threads -->
<g id="edge24" class="edge">
<title>roo_powersafefs&#45;&gt;roo_threads</title>
<path fill="none" stroke="red" d="M594.89,-266.88C597.05,-253.35 600.04,-234.62 602.51,-219.15"/>
<polygon fill="red" stroke="red" points="606,-219.5 604.12,-209.07 599.08,-218.39 606,-219.5"/>
<text text-anchor="middle" x="627" y="-241" font-family="Times,serif" font-size="10.00" fill="red">1.2.1</text>
<text text-anchor="middle" x="627" y="-230" font-family="Times,serif" font-size="10.00" fill="red">(latest: 1.2.3)</text>
</g>
<!-- roo_prefs -->
<g id="node19" class="node">
<title>roo_prefs</title>
<polygon fill="#b1dbab" stroke="red" points="740,-572 672,-572 672,-534 740,-534 740,-572"/>
<text text-anchor="middle" x="706" y="-556.8" font-family="Times,serif" font-size="14.00">roo_prefs</text>
<text text-anchor="middle" x="706" y="-541.8" font-family="Times,serif" font-size="14.00">1.2.10</text>
</g>
<!-- roo_prefs&#45;&gt;roo_logging -->
<g id="edge25" class="edge">
<title>roo_prefs&#45;&gt;roo_logging</title>
<path fill="none" stroke="black" d="M708.14,-533.91C709.84,-518.53 712.09,-495.85 713,-476 715.04,-431.58 709.26,-326.58 709,-323 708.82,-320.57 708.61,-318.04 708.37,-315.51"/>
<polygon fill="black" stroke="black" points="711.82,-314.87 707.3,-305.29 704.86,-315.6 711.82,-314.87"/>
</g>
<!-- roo_prefs&#45;&gt;roo_scheduler -->
<g id="edge26" class="edge">
<title>roo_prefs&#45;&gt;roo_scheduler</title>
<path fill="none" stroke="black" d="M676.5,-533.88C652.16,-518.92 617.45,-497.6 591.03,-481.36"/>
<polygon fill="black" stroke="black" points="592.76,-478.32 582.41,-476.07 589.1,-484.29 592.76,-478.32"/>
</g>
<!-- roo_quantity&#45;&gt;roo_logging -->
<g id="edge27" class="edge">
<title>roo_quantity&#45;&gt;roo_logging</title>
<path fill="none" stroke="black" d="M665.71,-437.91C673.36,-408.51 688.56,-350.13 697.65,-315.23"/>
<polygon fill="black" stroke="black" points="701.13,-315.77 700.26,-305.21 694.35,-314.01 701.13,-315.77"/>
</g>
<!-- roo_scheduler&#45;&gt;roo_collections -->
<g id="edge28" class="edge">
<title>roo_scheduler&#45;&gt;roo_collections</title>
<path fill="none" stroke="black" d="M506.48,-448.83C463.63,-441.75 403.55,-430.49 382,-420 365.34,-411.89 349.33,-398.87 336.93,-387.22"/>
<polygon fill="black" stroke="black" points="339.32,-384.66 329.7,-380.2 334.44,-389.68 339.32,-384.66"/>
</g>
<!-- roo_scheduler&#45;&gt;roo_threads -->
<g id="edge29" class="edge">
<title>roo_scheduler&#45;&gt;roo_threads</title>
<path fill="none" stroke="black" d="M545.04,-437.99C530.96,-403.39 505.39,-325.86 530,-267 538.58,-246.49 555.68,-228.7 571.6,-215.49"/>
<polygon fill="black" stroke="black" points="574.1,-217.98 579.76,-209.02 569.75,-212.49 574.1,-217.98"/>
</g>
<!-- roo_testing -->
<g id="node22" class="node">
<title>roo_testing</title>
<polygon fill="khaki" stroke="black" points="745.5,-38 668.5,-38 668.5,0 745.5,0 745.5,-38"/>
<text text-anchor="middle" x="707" y="-22.8" font-family="Times,serif" font-size="14.00">roo_testing</text>
<text text-anchor="middle" x="707" y="-7.8" font-family="Times,serif" font-size="14.00">1.3.5</text>
</g>
<!-- roo_time -->
<g id="node24" class="node">
<title>roo_time</title>
<polygon fill="#b1dbab" stroke="red" points="740,-134 674,-134 674,-96 740,-96 740,-134"/>
<text text-anchor="middle" x="707" y="-118.8" font-family="Times,serif" font-size="14.00">roo_time</text>
<text text-anchor="middle" x="707" y="-103.8" font-family="Times,serif" font-size="14.00">1.4.3</text>
</g>
<!-- roo_threads&#45;&gt;roo_time -->
<g id="edge30" class="edge">
<title>roo_threads&#45;&gt;roo_time</title>
<path fill="none" stroke="black" d="M631.72,-170.96C644.46,-161.65 660.17,-150.18 673.94,-140.13"/>
<polygon fill="black" stroke="black" points="676.21,-142.81 682.22,-134.09 672.08,-137.16 676.21,-142.81"/>
</g>
<!-- roo_time&#45;&gt;roo_testing -->
<g id="edge31" class="edge">
<title>roo_time&#45;&gt;roo_testing</title>
<path fill="none" stroke="red" d="M707,-95.88C707,-82.35 707,-63.62 707,-48.15"/>
<polygon fill="red" stroke="red" points="710.5,-48.07 707,-38.07 703.5,-48.07 710.5,-48.07"/>
<text text-anchor="middle" x="734" y="-70" font-family="Times,serif" font-size="10.00" fill="red">1.3.2</text>
<text text-anchor="middle" x="734" y="-59" font-family="Times,serif" font-size="10.00" fill="red">(latest: 1.3.5)</text>
</g>
<!-- roo_time_ds3231 -->
<g id="node25" class="node">
<title>roo_time_ds3231</title>
<polygon fill="#b1dbab" stroke="red" points="864,-209 752,-209 752,-171 864,-171 864,-209"/>
<text text-anchor="middle" x="808" y="-193.8" font-family="Times,serif" font-size="14.00">roo_time_ds3231</text>
<text text-anchor="middle" x="808" y="-178.8" font-family="Times,serif" font-size="14.00">1.1.6</text>
</g>
<!-- roo_time_ds3231&#45;&gt;roo_time -->
<g id="edge32" class="edge">
<title>roo_time_ds3231&#45;&gt;roo_time</title>
<path fill="none" stroke="black" d="M783.03,-170.96C770.17,-161.65 754.3,-150.18 740.39,-140.13"/>
<polygon fill="black" stroke="black" points="742.18,-137.11 732.03,-134.09 738.08,-142.78 742.18,-137.11"/>
</g>
<!-- roo_transceivers&#45;&gt;roo_prefs -->
<g id="edge33" class="edge">
<title>roo_transceivers&#45;&gt;roo_prefs</title>
<path fill="none" stroke="black" d="M715.69,-629.88C713.96,-616.35 711.57,-597.62 709.59,-582.15"/>
<polygon fill="black" stroke="black" points="713.04,-581.54 708.31,-572.07 706.1,-582.43 713.04,-581.54"/>
</g>
<!-- roo_transport -->
<g id="node27" class="node">
<title>roo_transport</title>
<polygon fill="#b1dbab" stroke="red" points="429.5,-476 340.5,-476 340.5,-438 429.5,-438 429.5,-476"/>
<text text-anchor="middle" x="385" y="-460.8" font-family="Times,serif" font-size="14.00">roo_transport</text>
<text text-anchor="middle" x="385" y="-445.8" font-family="Times,serif" font-size="14.00">1.1.2</text>
</g>
<!-- roo_transport&#45;&gt;roo_collections -->
<g id="edge34" class="edge">
<title>roo_transport&#45;&gt;roo_collections</title>
<path fill="none" stroke="black" d="M362.12,-437.78C356.15,-432.42 350,-426.29 345,-420 337.63,-410.72 331.01,-399.51 325.73,-389.43"/>
<polygon fill="black" stroke="black" points="328.71,-387.57 321.09,-380.21 322.46,-390.72 328.71,-387.57"/>
</g>
<!-- roo_transport&#45;&gt;roo_io -->
<g id="edge35" class="edge">
<title>roo_transport&#45;&gt;roo_io</title>
<path fill="none" stroke="red" d="M384.82,-437.92C385.13,-426.32 386.32,-411.03 390,-398 390.8,-395.16 391.83,-392.28 392.98,-389.45"/>
<polygon fill="red" stroke="red" points="396.26,-390.69 397.26,-380.14 389.9,-387.77 396.26,-390.69"/>
<text text-anchor="middle" x="417" y="-412" font-family="Times,serif" font-size="10.00" fill="red">2.1.5</text>
<text text-anchor="middle" x="417" y="-401" font-family="Times,serif" font-size="10.00" fill="red">(latest: 2.1.6)</text>
</g>
<!-- roo_wifi -->
<g id="node28" class="node">
<title>roo_wifi</title>
<polygon fill="khaki" stroke="red" points="646.5,-668 583.5,-668 583.5,-630 646.5,-630 646.5,-668"/>
<text text-anchor="middle" x="615" y="-652.8" font-family="Times,serif" font-size="14.00">roo_wifi</text>
<text text-anchor="middle" x="615" y="-637.8" font-family="Times,serif" font-size="14.00">1.1.4</text>
</g>
<!-- roo_wifi&#45;&gt;roo_prefs -->
<g id="edge36" class="edge">
<title>roo_wifi&#45;&gt;roo_prefs</title>
<path fill="none" stroke="red" d="M622.02,-629.97C627.46,-617.65 635.95,-601.55 647,-590 651.79,-584.99 657.43,-580.41 663.28,-576.32"/>
<polygon fill="red" stroke="red" points="665.47,-579.07 671.94,-570.68 661.65,-573.2 665.47,-579.07"/>
<text text-anchor="middle" x="676.5" y="-604" font-family="Times,serif" font-size="10.00" fill="red">1.2.9</text>
<text text-anchor="middle" x="676.5" y="-593" font-family="Times,serif" font-size="10.00" fill="red">(latest: 1.2.10)</text>
</g>
<!-- roo_windows&#45;&gt;roo_fonts_basic -->
<g id="edge37" class="edge">
<title>roo_windows&#45;&gt;roo_fonts_basic</title>
<path fill="none" stroke="black" d="M270.74,-629.88C272.03,-616.35 273.82,-597.62 275.3,-582.15"/>
<polygon fill="black" stroke="black" points="278.8,-582.36 276.27,-572.07 271.83,-581.69 278.8,-582.36"/>
</g>
<!-- roo_windows&#45;&gt;roo_fonts_material -->
<g id="edge38" class="edge">
<title>roo_windows&#45;&gt;roo_fonts_material</title>
<path fill="none" stroke="black" d="M245.67,-629.88C226.75,-615.18 199.92,-594.34 179.17,-578.21"/>
<polygon fill="black" stroke="black" points="181.3,-575.44 171.26,-572.07 177.01,-580.97 181.3,-575.44"/>
</g>
<!-- roo_windows&#45;&gt;roo_icons -->
<g id="edge40" class="edge">
<title>roo_windows&#45;&gt;roo_icons</title>
<path fill="none" stroke="black" d="M223.66,-629.98C187.25,-615.48 134.55,-594.44 79.61,-572.23"/>
<polygon fill="black" stroke="black" points="80.64,-568.87 70.05,-568.37 78.01,-575.36 80.64,-568.87"/>
</g>
<!-- roo_windows&#45;&gt;roo_locale -->
<g id="edge39" class="edge">
<title>roo_windows&#45;&gt;roo_locale</title>
<path fill="none" stroke="black" d="M291.37,-629.88C309.42,-615.25 334.99,-594.52 354.85,-578.43"/>
<polygon fill="black" stroke="black" points="357.14,-581.08 362.7,-572.07 352.73,-575.65 357.14,-581.08"/>
</g>
<!-- roo_windows&#45;&gt;roo_scheduler -->
<g id="edge41" class="edge">
<title>roo_windows&#45;&gt;roo_scheduler</title>
<path fill="none" stroke="black" d="M314.05,-646.27C368.96,-641.75 461.18,-625.99 516,-572 539.09,-549.26 547.78,-511.99 551.05,-486.29"/>
<polygon fill="black" stroke="black" points="554.56,-486.38 552.14,-476.06 547.6,-485.63 554.56,-486.38"/>
</g>
<!-- roo_windows_transceivers -->
<g id="node30" class="node">
<title>roo_windows_transceivers</title>
<polygon fill="khaki" stroke="red" points="556.5,-764 395.5,-764 395.5,-726 556.5,-726 556.5,-764"/>
<text text-anchor="middle" x="476" y="-748.8" font-family="Times,serif" font-size="14.00">roo_windows_transceivers</text>
<text text-anchor="middle" x="476" y="-733.8" font-family="Times,serif" font-size="14.00">1.0.0</text>
</g>
<!-- roo_windows_transceivers&#45;&gt;roo_transceivers -->
<g id="edge42" class="edge">
<title>roo_windows_transceivers&#45;&gt;roo_transceivers</title>
<path fill="none" stroke="red" d="M522.37,-725.99C562.18,-710.52 619.67,-688.19 662.03,-671.74"/>
<polygon fill="red" stroke="red" points="663.32,-675 671.37,-668.11 660.78,-668.47 663.32,-675"/>
<text text-anchor="middle" x="645" y="-700" font-family="Times,serif" font-size="10.00" fill="red">1.1.3</text>
<text text-anchor="middle" x="645" y="-689" font-family="Times,serif" font-size="10.00" fill="red">(latest: 1.1.6)</text>
</g>
<!-- roo_windows_transceivers&#45;&gt;roo_windows -->
<g id="edge43" class="edge">
<title>roo_windows_transceivers&#45;&gt;roo_windows</title>
<path fill="none" stroke="red" d="M440.13,-725.91C430.69,-720.59 420.71,-714.45 412,-708 400.64,-699.58 401.22,-693.12 389,-686 369.12,-674.43 345.19,-666.27 323.95,-660.68"/>
<polygon fill="red" stroke="red" points="324.63,-657.25 314.08,-658.22 322.93,-664.04 324.63,-657.25"/>
<text text-anchor="middle" x="439" y="-700" font-family="Times,serif" font-size="10.00" fill="red">1.4.1</text>
<text text-anchor="middle" x="439" y="-689" font-family="Times,serif" font-size="10.00" fill="red">(latest: 1.5.0)</text>
</g>
<!-- roo_windows_wifi -->
<g id="node31" class="node">
<title>roo_windows_wifi</title>
<polygon fill="khaki" stroke="red" points="371.5,-764 252.5,-764 252.5,-726 371.5,-726 371.5,-764"/>
<text text-anchor="middle" x="312" y="-748.8" font-family="Times,serif" font-size="14.00">roo_windows_wifi</text>
<text text-anchor="middle" x="312" y="-733.8" font-family="Times,serif" font-size="14.00">1.1.3</text>
</g>
<!-- roo_windows_wifi&#45;&gt;roo_wifi -->
<g id="edge44" class="edge">
<title>roo_windows_wifi&#45;&gt;roo_wifi</title>
<path fill="none" stroke="red" d="M312.97,-725.99C314.69,-712.85 319.23,-695.71 331,-686 367.04,-656.24 503.44,-650.78 573.26,-649.97"/>
<polygon fill="red" stroke="red" points="573.5,-653.47 583.47,-649.88 573.44,-646.47 573.5,-653.47"/>
<text text-anchor="middle" x="358" y="-700" font-family="Times,serif" font-size="10.00" fill="red">1.1.3</text>
<text text-anchor="middle" x="358" y="-689" font-family="Times,serif" font-size="10.00" fill="red">(latest: 1.1.4)</text>
</g>
<!-- roo_windows_wifi&#45;&gt;roo_windows -->
<g id="edge45" class="edge">
<title>roo_windows_wifi&#45;&gt;roo_windows</title>
<path fill="none" stroke="red" d="M274.07,-725.82C267.61,-720.96 261.77,-715.05 258,-708 253.07,-698.78 253.81,-687.7 256.49,-677.71"/>
<polygon fill="red" stroke="red" points="259.82,-678.78 259.68,-668.18 253.19,-676.56 259.82,-678.78"/>
<text text-anchor="middle" x="285" y="-700" font-family="Times,serif" font-size="10.00" fill="red">1.4.2</text>
<text text-anchor="middle" x="285" y="-689" font-family="Times,serif" font-size="10.00" fill="red">(latest: 1.5.0)</text>
</g>
</g>
</svg>
