<?xml version="1.0" encoding="UTF-8" standalone="no"?>
<!DOCTYPE svg PUBLIC "-//W3C//DTD SVG 1.1//EN"
 "http://www.w3.org/Graphics/SVG/1.1/DTD/svg11.dtd">
<!-- Generated by graphviz version 2.42.4 (0)
 -->
<!-- Title: dependencies Pages: 1 -->
<svg width="1520pt" height="730pt"
 viewBox="0.00 0.00 1520.36 730.00" xmlns="http://www.w3.org/2000/svg" xmlns:xlink="http://www.w3.org/1999/xlink">
<g id="graph0" class="graph" transform="scale(1 1) rotate(0) translate(4 726)">
<title>dependencies</title>
<polygon fill="white" stroke="transparent" points="-4,4 -4,-726 1516.36,-726 1516.36,4 -4,4"/>
<!-- roo_backport -->
<g id="node1" class="node">
<title>roo_backport</title>
<polygon fill="#b1dbab" stroke="black" points="846,-38 736,-38 736,0 846,0 846,-38"/>
<text text-anchor="middle" x="791" y="-22.8" font-family="Times,serif" font-size="14.00">roo_backport</text>
<text text-anchor="middle" x="791" y="-7.8" font-family="Times,serif" font-size="14.00">1.2.4</text>
</g>
<!-- roo_blink -->
<g id="node2" class="node">
<title>roo_blink</title>
<polygon fill="khaki" stroke="red" points="1345,-455 1263,-455 1263,-417 1345,-417 1345,-455"/>
<text text-anchor="middle" x="1304" y="-439.8" font-family="Times,serif" font-size="14.00">roo_blink</text>
<text text-anchor="middle" x="1304" y="-424.8" font-family="Times,serif" font-size="14.00">1.1.0</text>
</g>
<!-- roo_logging -->
<g id="node15" class="node">
<title>roo_logging</title>
<polygon fill="#b1dbab" stroke="black" points="1183,-263 1083,-263 1083,-225 1183,-225 1183,-263"/>
<text text-anchor="middle" x="1133" y="-247.8" font-family="Times,serif" font-size="14.00">roo_logging</text>
<text text-anchor="middle" x="1133" y="-232.8" font-family="Times,serif" font-size="14.00">1.5.11</text>
</g>
<!-- roo_blink&#45;&gt;roo_logging -->
<g id="edge1" class="edge">
<title>roo_blink&#45;&gt;roo_logging</title>
<path fill="none" stroke="red" d="M1337.45,-416.85C1345.1,-411.73 1352.8,-405.7 1359,-399 1383.47,-372.57 1397.34,-353.1 1381,-321 1342.53,-245.45 1282.27,-279.13 1192.95,-262.86"/>
<polygon fill="red" stroke="red" points="1193.56,-259.42 1183.07,-260.88 1192.18,-266.28 1193.56,-259.42"/>
<text text-anchor="middle" x="1424" y="-343" font-family="Times,serif" font-size="10.00" fill="red">1.5.10</text>
<text text-anchor="middle" x="1424" y="-332" font-family="Times,serif" font-size="10.00" fill="red">(latest: 1.5.11)</text>
</g>
<!-- roo_scheduler -->
<g id="node22" class="node">
<title>roo_scheduler</title>
<polygon fill="#b1dbab" stroke="black" points="1270,-359 1154,-359 1154,-321 1270,-321 1270,-359"/>
<text text-anchor="middle" x="1212" y="-343.8" font-family="Times,serif" font-size="14.00">roo_scheduler</text>
<text text-anchor="middle" x="1212" y="-328.8" font-family="Times,serif" font-size="14.00">2.2.1</text>
</g>
<!-- roo_blink&#45;&gt;roo_scheduler -->
<g id="edge2" class="edge">
<title>roo_blink&#45;&gt;roo_scheduler</title>
<path fill="none" stroke="red" d="M1298.1,-416.85C1293.38,-404.49 1285.75,-388.37 1275,-377 1270.68,-372.44 1265.66,-368.28 1260.36,-364.56"/>
<polygon fill="red" stroke="red" points="1262.17,-361.56 1251.88,-359.05 1258.36,-367.43 1262.17,-361.56"/>
<text text-anchor="middle" x="1322" y="-391" font-family="Times,serif" font-size="10.00" fill="red">2.2.0</text>
<text text-anchor="middle" x="1322" y="-380" font-family="Times,serif" font-size="10.00" fill="red">(latest: 2.2.1)</text>
</g>
<!-- roo_collections -->
<g id="node3" class="node">
<title>roo_collections</title>
<polygon fill="#b1dbab" stroke="black" points="852,-263 730,-263 730,-225 852,-225 852,-263"/>
<text text-anchor="middle" x="791" y="-247.8" font-family="Times,serif" font-size="14.00">roo_collections</text>
<text text-anchor="middle" x="791" y="-232.8" font-family="Times,serif" font-size="14.00">1.4.8</text>
</g>
<!-- roo_collections&#45;&gt;roo_backport -->
<g id="edge4" class="edge">
<title>roo_collections&#45;&gt;roo_backport</title>
<path fill="none" stroke="black" d="M791,-224.75C791,-185.94 791,-94.97 791,-48.47"/>
<polygon fill="black" stroke="black" points="794.5,-48.19 791,-38.19 787.5,-48.19 794.5,-48.19"/>
</g>
<!-- roo_testing -->
<g id="node23" class="node">
<title>roo_testing</title>
<polygon fill="#b1dbab" stroke="black" points="961.5,-38 864.5,-38 864.5,0 961.5,0 961.5,-38"/>
<text text-anchor="middle" x="913" y="-22.8" font-family="Times,serif" font-size="14.00">roo_testing</text>
<text text-anchor="middle" x="913" y="-7.8" font-family="Times,serif" font-size="14.00">2.3.0</text>
</g>
<!-- roo_collections&#45;&gt;roo_testing -->
<g id="edge3" class="edge">
<title>roo_collections&#45;&gt;roo_testing</title>
<path fill="none" stroke="black" d="M798.04,-224.84C812.82,-187.08 847.08,-101.46 864,-75 870.61,-64.67 879.14,-54.36 887.23,-45.5"/>
<polygon fill="black" stroke="black" points="889.86,-47.81 894.16,-38.13 884.76,-43.02 889.86,-47.81"/>
</g>
<!-- roo_comms -->
<g id="node4" class="node">
<title>roo_comms</title>
<polygon fill="#b1dbab" stroke="red" points="1056.5,-551 959.5,-551 959.5,-513 1056.5,-513 1056.5,-551"/>
<text text-anchor="middle" x="1008" y="-535.8" font-family="Times,serif" font-size="14.00">roo_comms</text>
<text text-anchor="middle" x="1008" y="-520.8" font-family="Times,serif" font-size="14.00">1.1.6</text>
</g>
<!-- roo_comms&#45;&gt;roo_blink -->
<g id="edge5" class="edge">
<title>roo_comms&#45;&gt;roo_blink</title>
<path fill="none" stroke="black" d="M1056.75,-516.66C1104.4,-502.48 1179.19,-479.8 1252.93,-455.29"/>
<polygon fill="black" stroke="black" points="1254.47,-458.47 1262.85,-451.98 1252.26,-451.83 1254.47,-458.47"/>
</g>
<!-- roo_control -->
<g id="node5" class="node">
<title>roo_control</title>
<polygon fill="#b1dbab" stroke="red" points="1122.5,-455 1025.5,-455 1025.5,-417 1122.5,-417 1122.5,-455"/>
<text text-anchor="middle" x="1074" y="-439.8" font-family="Times,serif" font-size="14.00">roo_control</text>
<text text-anchor="middle" x="1074" y="-424.8" font-family="Times,serif" font-size="14.00">1.2.7</text>
</g>
<!-- roo_comms&#45;&gt;roo_control -->
<g id="edge6" class="edge">
<title>roo_comms&#45;&gt;roo_control</title>
<path fill="none" stroke="black" d="M1020.73,-512.88C1030.59,-498.83 1044.39,-479.17 1055.48,-463.38"/>
<polygon fill="black" stroke="black" points="1058.43,-465.26 1061.31,-455.07 1052.7,-461.24 1058.43,-465.26"/>
</g>
<!-- roo_io -->
<g id="node13" class="node">
<title>roo_io</title>
<polygon fill="lightblue" stroke="red" points="604.5,-359 545.5,-359 545.5,-321 604.5,-321 604.5,-359"/>
<text text-anchor="middle" x="575" y="-343.8" font-family="Times,serif" font-size="14.00">roo_io</text>
<text text-anchor="middle" x="575" y="-328.8" font-family="Times,serif" font-size="14.00">2.3.1</text>
</g>
<!-- roo_comms&#45;&gt;roo_io -->
<g id="edge7" class="edge">
<title>roo_comms&#45;&gt;roo_io</title>
<path fill="none" stroke="red" d="M959.41,-525.96C875.59,-516.36 708.58,-492.95 665,-455 637.11,-430.71 659.74,-405.36 636,-377 629.86,-369.66 621.81,-363.45 613.58,-358.37"/>
<polygon fill="red" stroke="red" points="615.09,-355.2 604.67,-353.3 611.63,-361.29 615.09,-355.2"/>
<text text-anchor="middle" x="698" y="-439" font-family="Times,serif" font-size="10.00" fill="red">2.3.0</text>
<text text-anchor="middle" x="698" y="-428" font-family="Times,serif" font-size="10.00" fill="red">(latest: 2.3.1)</text>
</g>
<!-- roo_transceivers -->
<g id="node27" class="node">
<title>roo_transceivers</title>
<polygon fill="#b1dbab" stroke="red" points="1007.5,-455 872.5,-455 872.5,-417 1007.5,-417 1007.5,-455"/>
<text text-anchor="middle" x="940" y="-439.8" font-family="Times,serif" font-size="14.00">roo_transceivers</text>
<text text-anchor="middle" x="940" y="-424.8" font-family="Times,serif" font-size="14.00">1.2.0</text>
</g>
<!-- roo_comms&#45;&gt;roo_transceivers -->
<g id="edge8" class="edge">
<title>roo_comms&#45;&gt;roo_transceivers</title>
<path fill="none" stroke="black" d="M994.89,-512.88C984.73,-498.83 970.51,-479.17 959.08,-463.38"/>
<polygon fill="black" stroke="black" points="961.77,-461.12 953.07,-455.07 956.1,-465.22 961.77,-461.12"/>
</g>
<!-- roo_quantity -->
<g id="node21" class="node">
<title>roo_quantity</title>
<polygon fill="#b1dbab" stroke="black" points="1082.5,-359 975.5,-359 975.5,-321 1082.5,-321 1082.5,-359"/>
<text text-anchor="middle" x="1029" y="-343.8" font-family="Times,serif" font-size="14.00">roo_quantity</text>
<text text-anchor="middle" x="1029" y="-328.8" font-family="Times,serif" font-size="14.00">1.1.11</text>
</g>
<!-- roo_control&#45;&gt;roo_quantity -->
<g id="edge9" class="edge">
<title>roo_control&#45;&gt;roo_quantity</title>
<path fill="none" stroke="red" d="M1025.45,-419.18C1022.27,-418.37 1019.1,-417.64 1016,-417 978.79,-409.33 871.41,-427.24 846,-399 839.46,-391.73 839.79,-384.55 846,-377 849.92,-372.24 913.98,-360.39 965.21,-351.58"/>
<polygon fill="red" stroke="red" points="966,-355 975.27,-349.87 964.82,-348.1 966,-355"/>
<text text-anchor="middle" x="882" y="-391" font-family="Times,serif" font-size="10.00" fill="red">1.1.10</text>
<text text-anchor="middle" x="882" y="-380" font-family="Times,serif" font-size="10.00" fill="red">(latest: 1.1.11)</text>
</g>
<!-- roo_control&#45;&gt;roo_scheduler -->
<g id="edge10" class="edge">
<title>roo_control&#45;&gt;roo_scheduler</title>
<path fill="none" stroke="red" d="M1088.73,-416.73C1099.45,-404.32 1114.87,-388.18 1131,-377 1138.17,-372.03 1146.13,-367.5 1154.19,-363.45"/>
<polygon fill="red" stroke="red" points="1155.78,-366.57 1163.28,-359.09 1152.75,-360.26 1155.78,-366.57"/>
<text text-anchor="middle" x="1164" y="-391" font-family="Times,serif" font-size="10.00" fill="red">2.2.0</text>
<text text-anchor="middle" x="1164" y="-380" font-family="Times,serif" font-size="10.00" fill="red">(latest: 2.2.1)</text>
</g>
<!-- roo_dashboard -->
<g id="node6" class="node">
<title>roo_dashboard</title>
<polygon fill="#b1dbab" stroke="red" points="557,-722 435,-722 435,-684 557,-684 557,-722"/>
<text text-anchor="middle" x="496" y="-706.8" font-family="Times,serif" font-size="14.00">roo_dashboard</text>
<text text-anchor="middle" x="496" y="-691.8" font-family="Times,serif" font-size="14.00">1.0.2</text>
</g>
<!-- roo_windows -->
<g id="node30" class="node">
<title>roo_windows</title>
<polygon fill="plum" stroke="red" points="562.5,-647 453.5,-647 453.5,-609 562.5,-609 562.5,-647"/>
<text text-anchor="middle" x="508" y="-631.8" font-family="Times,serif" font-size="14.00">roo_windows</text>
<text text-anchor="middle" x="508" y="-616.8" font-family="Times,serif" font-size="14.00">1.7.0</text>
</g>
<!-- roo_dashboard&#45;&gt;roo_windows -->
<g id="edge11" class="edge">
<title>roo_dashboard&#45;&gt;roo_windows</title>
<path fill="none" stroke="black" d="M498.97,-683.96C500.29,-675.88 501.89,-666.18 503.37,-657.18"/>
<polygon fill="black" stroke="black" points="506.86,-657.53 505.03,-647.09 499.95,-656.39 506.86,-657.53"/>
</g>
<!-- roo_display -->
<g id="node7" class="node">
<title>roo_display</title>
<polygon fill="khaki" stroke="red" points="320,-455 222,-455 222,-417 320,-417 320,-455"/>
<text text-anchor="middle" x="271" y="-439.8" font-family="Times,serif" font-size="14.00">roo_display</text>
<text text-anchor="middle" x="271" y="-424.8" font-family="Times,serif" font-size="14.00">3.3.0</text>
</g>
<!-- roo_display&#45;&gt;roo_collections -->
<g id="edge12" class="edge">
<title>roo_display&#45;&gt;roo_collections</title>
<path fill="none" stroke="red" d="M272.48,-416.9C275.58,-391.44 285.09,-345.45 314,-321 374.05,-270.23 602.09,-253.06 719.78,-247.51"/>
<polygon fill="red" stroke="red" points="719.95,-251 729.78,-247.05 719.63,-244.01 719.95,-251"/>
<text text-anchor="middle" x="347" y="-343" font-family="Times,serif" font-size="10.00" fill="red">1.4.7</text>
<text text-anchor="middle" x="347" y="-332" font-family="Times,serif" font-size="10.00" fill="red">(latest: 1.4.8)</text>
</g>
<!-- roo_display&#45;&gt;roo_io -->
<g id="edge13" class="edge">
<title>roo_display&#45;&gt;roo_io</title>
<path fill="none" stroke="red" d="M320.07,-419.29C344.55,-411.22 370,-402.39 375,-399 385.69,-391.75 382.84,-383.5 394,-377 437.78,-351.5 496.54,-343.77 535.06,-341.58"/>
<polygon fill="red" stroke="red" points="535.54,-345.06 545.36,-341.1 535.21,-338.07 535.54,-345.06"/>
<text text-anchor="middle" x="427" y="-391" font-family="Times,serif" font-size="10.00" fill="red">2.3.0</text>
<text text-anchor="middle" x="427" y="-380" font-family="Times,serif" font-size="10.00" fill="red">(latest: 2.3.1)</text>
</g>
<!-- roo_display_lvgl -->
<g id="node8" class="node">
<title>roo_display_lvgl</title>
<polygon fill="khaki" stroke="red" points="376.5,-551 245.5,-551 245.5,-513 376.5,-513 376.5,-551"/>
<text text-anchor="middle" x="311" y="-535.8" font-family="Times,serif" font-size="14.00">roo_display_lvgl</text>
<text text-anchor="middle" x="311" y="-520.8" font-family="Times,serif" font-size="14.00">1.0.0</text>
</g>
<!-- roo_display_lvgl&#45;&gt;roo_display -->
<g id="edge14" class="edge">
<title>roo_display_lvgl&#45;&gt;roo_display</title>
<path fill="none" stroke="red" d="M303.29,-512.88C297.48,-499.22 289.41,-480.26 282.79,-464.71"/>
<polygon fill="red" stroke="red" points="285.82,-462.9 278.69,-455.07 279.38,-465.64 285.82,-462.9"/>
<text text-anchor="middle" x="328" y="-487" font-family="Times,serif" font-size="10.00" fill="red">3.0.3</text>
<text text-anchor="middle" x="328" y="-476" font-family="Times,serif" font-size="10.00" fill="red">(latest: 3.3.0)</text>
</g>
<!-- roo_flags -->
<g id="node9" class="node">
<title>roo_flags</title>
<polygon fill="#b1dbab" stroke="black" points="1173,-188 1093,-188 1093,-150 1173,-150 1173,-188"/>
<text text-anchor="middle" x="1133" y="-172.8" font-family="Times,serif" font-size="14.00">roo_flags</text>
<text text-anchor="middle" x="1133" y="-157.8" font-family="Times,serif" font-size="14.00">1.2.5</text>
</g>
<!-- roo_fonts_basic -->
<g id="node10" class="node">
<title>roo_fonts_basic</title>
<polygon fill="#b1dbab" stroke="red" points="126,-551 0,-551 0,-513 126,-513 126,-551"/>
<text text-anchor="middle" x="63" y="-535.8" font-family="Times,serif" font-size="14.00">roo_fonts_basic</text>
<text text-anchor="middle" x="63" y="-520.8" font-family="Times,serif" font-size="14.00">1.0.5</text>
</g>
<!-- roo_fonts_basic&#45;&gt;roo_display -->
<g id="edge15" class="edge">
<title>roo_fonts_basic&#45;&gt;roo_display</title>
<path fill="none" stroke="black" d="M103.1,-512.88C136.92,-497.6 185.44,-475.67 221.63,-459.31"/>
<polygon fill="black" stroke="black" points="223.35,-462.38 231.02,-455.07 220.46,-456 223.35,-462.38"/>
</g>
<!-- roo_fonts_material -->
<g id="node11" class="node">
<title>roo_fonts_material</title>
<polygon fill="#b1dbab" stroke="red" points="543.5,-551 394.5,-551 394.5,-513 543.5,-513 543.5,-551"/>
<text text-anchor="middle" x="469" y="-535.8" font-family="Times,serif" font-size="14.00">roo_fonts_material</text>
<text text-anchor="middle" x="469" y="-520.8" font-family="Times,serif" font-size="14.00">1.1.2</text>
</g>
<!-- roo_fonts_material&#45;&gt;roo_display -->
<g id="edge16" class="edge">
<title>roo_fonts_material&#45;&gt;roo_display</title>
<path fill="none" stroke="black" d="M439.11,-512.83C418.64,-500.76 390.66,-484.99 365,-473 353.76,-467.75 341.52,-462.64 329.7,-457.99"/>
<polygon fill="black" stroke="black" points="330.93,-454.72 320.34,-454.38 328.41,-461.25 330.93,-454.72"/>
</g>
<!-- roo_icons -->
<g id="node12" class="node">
<title>roo_icons</title>
<polygon fill="#b1dbab" stroke="red" points="227.5,-551 144.5,-551 144.5,-513 227.5,-513 227.5,-551"/>
<text text-anchor="middle" x="186" y="-535.8" font-family="Times,serif" font-size="14.00">roo_icons</text>
<text text-anchor="middle" x="186" y="-520.8" font-family="Times,serif" font-size="14.00">1.2.5</text>
</g>
<!-- roo_icons&#45;&gt;roo_display -->
<g id="edge17" class="edge">
<title>roo_icons&#45;&gt;roo_display</title>
<path fill="none" stroke="black" d="M202.39,-512.88C215.32,-498.57 233.53,-478.44 247.93,-462.51"/>
<polygon fill="black" stroke="black" points="250.55,-464.83 254.66,-455.07 245.36,-460.14 250.55,-464.83"/>
</g>
<!-- roo_io&#45;&gt;roo_logging -->
<g id="edge18" class="edge">
<title>roo_io&#45;&gt;roo_logging</title>
<path fill="none" stroke="red" d="M604.61,-334.01C692.62,-319.19 953.89,-275.17 1072.82,-255.14"/>
<polygon fill="red" stroke="red" points="1073.57,-258.56 1082.85,-253.45 1072.41,-251.66 1073.57,-258.56"/>
<text text-anchor="middle" x="940" y="-295" font-family="Times,serif" font-size="10.00" fill="red">1.5.10</text>
<text text-anchor="middle" x="940" y="-284" font-family="Times,serif" font-size="10.00" fill="red">(latest: 1.5.11)</text>
</g>
<!-- roo_locale -->
<g id="node14" class="node">
<title>roo_locale</title>
<polygon fill="#b1dbab" stroke="black" points="649,-551 561,-551 561,-513 649,-513 649,-551"/>
<text text-anchor="middle" x="605" y="-535.8" font-family="Times,serif" font-size="14.00">roo_locale</text>
<text text-anchor="middle" x="605" y="-520.8" font-family="Times,serif" font-size="14.00">1.1.4</text>
</g>
<!-- roo_logging&#45;&gt;roo_flags -->
<g id="edge19" class="edge">
<title>roo_logging&#45;&gt;roo_flags</title>
<path fill="none" stroke="black" d="M1133,-224.96C1133,-216.88 1133,-207.18 1133,-198.18"/>
<polygon fill="black" stroke="black" points="1136.5,-198.09 1133,-188.09 1129.5,-198.09 1136.5,-198.09"/>
</g>
<!-- roo_threads -->
<g id="node24" class="node">
<title>roo_threads</title>
<polygon fill="#b1dbab" stroke="black" points="1305.5,-188 1204.5,-188 1204.5,-150 1305.5,-150 1305.5,-188"/>
<text text-anchor="middle" x="1255" y="-172.8" font-family="Times,serif" font-size="14.00">roo_threads</text>
<text text-anchor="middle" x="1255" y="-157.8" font-family="Times,serif" font-size="14.00">1.2.9</text>
</g>
<!-- roo_logging&#45;&gt;roo_threads -->
<g id="edge20" class="edge">
<title>roo_logging&#45;&gt;roo_threads</title>
<path fill="none" stroke="black" d="M1163.16,-224.96C1179.14,-215.39 1198.96,-203.53 1216.09,-193.28"/>
<polygon fill="black" stroke="black" points="1217.98,-196.23 1224.77,-188.09 1214.39,-190.22 1217.98,-196.23"/>
</g>
<!-- roo_monitoring -->
<g id="node16" class="node">
<title>roo_monitoring</title>
<polygon fill="#b1dbab" stroke="red" points="463.5,-455 338.5,-455 338.5,-417 463.5,-417 463.5,-455"/>
<text text-anchor="middle" x="401" y="-439.8" font-family="Times,serif" font-size="14.00">roo_monitoring</text>
<text text-anchor="middle" x="401" y="-424.8" font-family="Times,serif" font-size="14.00">1.1.4</text>
</g>
<!-- roo_monitoring&#45;&gt;roo_collections -->
<g id="edge21" class="edge">
<title>roo_monitoring&#45;&gt;roo_collections</title>
<path fill="none" stroke="red" d="M381.84,-416.98C371.92,-405.4 363.35,-390.12 371,-377 396.47,-333.33 422.94,-339.45 470,-321 552.92,-288.49 653.56,-267.43 719.78,-255.91"/>
<polygon fill="red" stroke="red" points="720.44,-259.35 729.7,-254.21 719.26,-252.45 720.44,-259.35"/>
<text text-anchor="middle" x="503" y="-343" font-family="Times,serif" font-size="10.00" fill="red">1.4.7</text>
<text text-anchor="middle" x="503" y="-332" font-family="Times,serif" font-size="10.00" fill="red">(latest: 1.4.8)</text>
</g>
<!-- roo_monitoring&#45;&gt;roo_io -->
<g id="edge22" class="edge">
<title>roo_monitoring&#45;&gt;roo_io</title>
<path fill="none" stroke="red" d="M434.98,-416.94C444.56,-411.49 454.86,-405.27 464,-399 476.76,-390.24 477.76,-385.02 491,-377 504.9,-368.59 521.11,-361.15 535.57,-355.25"/>
<polygon fill="red" stroke="red" points="537.24,-358.35 545.25,-351.41 534.66,-351.84 537.24,-358.35"/>
<text text-anchor="middle" x="524" y="-391" font-family="Times,serif" font-size="10.00" fill="red">2.3.0</text>
<text text-anchor="middle" x="524" y="-380" font-family="Times,serif" font-size="10.00" fill="red">(latest: 2.3.1)</text>
</g>
<!-- roo_onewire -->
<g id="node17" class="node">
<title>roo_onewire</title>
<polygon fill="#b1dbab" stroke="red" points="1245,-455 1141,-455 1141,-417 1245,-417 1245,-455"/>
<text text-anchor="middle" x="1193" y="-439.8" font-family="Times,serif" font-size="14.00">roo_onewire</text>
<text text-anchor="middle" x="1193" y="-424.8" font-family="Times,serif" font-size="14.00">2.0.12</text>
</g>
<!-- roo_onewire&#45;&gt;roo_quantity -->
<g id="edge24" class="edge">
<title>roo_onewire&#45;&gt;roo_quantity</title>
<path fill="none" stroke="red" d="M1140.67,-419.38C1137.41,-418.54 1134.17,-417.74 1131,-417 1108.8,-411.81 1044.79,-416.35 1030,-399 1023.09,-390.89 1021.72,-379.59 1022.49,-369.11"/>
<polygon fill="red" stroke="red" points="1025.98,-369.43 1023.85,-359.05 1019.04,-368.5 1025.98,-369.43"/>
<text text-anchor="middle" x="1066" y="-391" font-family="Times,serif" font-size="10.00" fill="red">1.1.10</text>
<text text-anchor="middle" x="1066" y="-380" font-family="Times,serif" font-size="10.00" fill="red">(latest: 1.1.11)</text>
</g>
<!-- roo_onewire&#45;&gt;roo_scheduler -->
<g id="edge23" class="edge">
<title>roo_onewire&#45;&gt;roo_scheduler</title>
<path fill="none" stroke="red" d="M1196.66,-416.88C1199.4,-403.35 1203.18,-384.62 1206.31,-369.15"/>
<polygon fill="red" stroke="red" points="1209.8,-369.56 1208.35,-359.07 1202.94,-368.18 1209.8,-369.56"/>
<text text-anchor="middle" x="1238" y="-391" font-family="Times,serif" font-size="10.00" fill="red">2.2.0</text>
<text text-anchor="middle" x="1238" y="-380" font-family="Times,serif" font-size="10.00" fill="red">(latest: 2.2.1)</text>
</g>
<!-- roo_pb -->
<g id="node18" class="node">
<title>roo_pb</title>
<polygon fill="plum" stroke="black" points="203.5,-455 138.5,-455 138.5,-417 203.5,-417 203.5,-455"/>
<text text-anchor="middle" x="171" y="-439.8" font-family="Times,serif" font-size="14.00">roo_pb</text>
<text text-anchor="middle" x="171" y="-424.8" font-family="Times,serif" font-size="14.00">0.1.0</text>
</g>
<!-- roo_pb&#45;&gt;roo_io -->
<g id="edge25" class="edge">
<title>roo_pb&#45;&gt;roo_io</title>
<path fill="none" stroke="black" d="M203.81,-420.32C206.89,-419.13 209.99,-418 213,-417 326.94,-379.07 467.57,-356 535.11,-346.32"/>
<polygon fill="black" stroke="black" points="535.89,-349.75 545.31,-344.88 534.91,-342.81 535.89,-349.75"/>
</g>
<!-- roo_powersafefs -->
<g id="node19" class="node">
<title>roo_powersafefs</title>
<polygon fill="#b1dbab" stroke="black" points="1334.5,-263 1201.5,-263 1201.5,-225 1334.5,-225 1334.5,-263"/>
<text text-anchor="middle" x="1268" y="-247.8" font-family="Times,serif" font-size="14.00">roo_powersafefs</text>
<text text-anchor="middle" x="1268" y="-232.8" font-family="Times,serif" font-size="14.00">1.0.3</text>
</g>
<!-- roo_powersafefs&#45;&gt;roo_threads -->
<g id="edge26" class="edge">
<title>roo_powersafefs&#45;&gt;roo_threads</title>
<path fill="none" stroke="black" d="M1264.79,-224.96C1263.35,-216.88 1261.62,-207.18 1260.02,-198.18"/>
<polygon fill="black" stroke="black" points="1263.42,-197.32 1258.22,-188.09 1256.53,-198.55 1263.42,-197.32"/>
</g>
<!-- roo_prefs -->
<g id="node20" class="node">
<title>roo_prefs</title>
<polygon fill="khaki" stroke="red" points="1371.5,-359 1288.5,-359 1288.5,-321 1371.5,-321 1371.5,-359"/>
<text text-anchor="middle" x="1330" y="-343.8" font-family="Times,serif" font-size="14.00">roo_prefs</text>
<text text-anchor="middle" x="1330" y="-328.8" font-family="Times,serif" font-size="14.00">2.0.1</text>
</g>
<!-- roo_prefs&#45;&gt;roo_logging -->
<g id="edge27" class="edge">
<title>roo_prefs&#45;&gt;roo_logging</title>
<path fill="none" stroke="red" d="M1292.02,-320.88C1260.13,-305.66 1214.43,-283.85 1180.2,-267.52"/>
<polygon fill="red" stroke="red" points="1181.4,-264.22 1170.87,-263.07 1178.38,-270.53 1181.4,-264.22"/>
<text text-anchor="middle" x="1286" y="-295" font-family="Times,serif" font-size="10.00" fill="red">1.5.10</text>
<text text-anchor="middle" x="1286" y="-284" font-family="Times,serif" font-size="10.00" fill="red">(latest: 1.5.11)</text>
</g>
<!-- roo_quantity&#45;&gt;roo_logging -->
<g id="edge28" class="edge">
<title>roo_quantity&#45;&gt;roo_logging</title>
<path fill="none" stroke="black" d="M1049.05,-320.88C1065.02,-306.44 1087.56,-286.07 1105.26,-270.07"/>
<polygon fill="black" stroke="black" points="1107.94,-272.37 1113.01,-263.07 1103.24,-267.18 1107.94,-272.37"/>
</g>
<!-- roo_scheduler&#45;&gt;roo_collections -->
<g id="edge29" class="edge">
<title>roo_scheduler&#45;&gt;roo_collections</title>
<path fill="none" stroke="black" d="M1153.9,-326.03C1077.79,-309.03 944.38,-279.25 862.25,-260.91"/>
<polygon fill="black" stroke="black" points="862.78,-257.44 852.25,-258.68 861.25,-264.27 862.78,-257.44"/>
</g>
<!-- roo_scheduler&#45;&gt;roo_threads -->
<g id="edge30" class="edge">
<title>roo_scheduler&#45;&gt;roo_threads</title>
<path fill="none" stroke="black" d="M1270.08,-322.91C1295.8,-315.37 1321.33,-307.16 1326,-303 1340.57,-290.04 1339.91,-282.06 1344,-263 1347.54,-246.49 1352.22,-239.75 1344,-225 1336.67,-211.85 1324.76,-201.45 1312,-193.4"/>
<polygon fill="black" stroke="black" points="1313.48,-190.21 1303.08,-188.2 1309.95,-196.26 1313.48,-190.21"/>
</g>
<!-- roo_time -->
<g id="node25" class="node">
<title>roo_time</title>
<polygon fill="#b1dbab" stroke="black" points="952.5,-113 873.5,-113 873.5,-75 952.5,-75 952.5,-113"/>
<text text-anchor="middle" x="913" y="-97.8" font-family="Times,serif" font-size="14.00">roo_time</text>
<text text-anchor="middle" x="913" y="-82.8" font-family="Times,serif" font-size="14.00">2.0.1</text>
</g>
<!-- roo_threads&#45;&gt;roo_time -->
<g id="edge31" class="edge">
<title>roo_threads&#45;&gt;roo_time</title>
<path fill="none" stroke="black" d="M1204.4,-155.25C1196.9,-153.44 1189.26,-151.64 1182,-150 1105.77,-132.82 1016.86,-115.09 962.77,-104.56"/>
<polygon fill="black" stroke="black" points="963.24,-101.08 952.76,-102.61 961.91,-107.95 963.24,-101.08"/>
</g>
<!-- roo_time&#45;&gt;roo_backport -->
<g id="edge33" class="edge">
<title>roo_time&#45;&gt;roo_backport</title>
<path fill="none" stroke="black" d="M882.84,-74.96C866.86,-65.39 847.04,-53.53 829.91,-43.28"/>
<polygon fill="black" stroke="black" points="831.61,-40.22 821.23,-38.09 828.02,-46.23 831.61,-40.22"/>
</g>
<!-- roo_time&#45;&gt;roo_testing -->
<g id="edge32" class="edge">
<title>roo_time&#45;&gt;roo_testing</title>
<path fill="none" stroke="black" d="M913,-74.96C913,-66.88 913,-57.18 913,-48.18"/>
<polygon fill="black" stroke="black" points="916.5,-48.09 913,-38.09 909.5,-48.09 916.5,-48.09"/>
</g>
<!-- roo_time_ds3231 -->
<g id="node26" class="node">
<title>roo_time_ds3231</title>
<polygon fill="#b1dbab" stroke="red" points="620,-455 482,-455 482,-417 620,-417 620,-455"/>
<text text-anchor="middle" x="551" y="-439.8" font-family="Times,serif" font-size="14.00">roo_time_ds3231</text>
<text text-anchor="middle" x="551" y="-424.8" font-family="Times,serif" font-size="14.00">2.0.0</text>
</g>
<!-- roo_time_ds3231&#45;&gt;roo_io -->
<g id="edge34" class="edge">
<title>roo_time_ds3231&#45;&gt;roo_io</title>
<path fill="none" stroke="red" d="M555.63,-416.88C559.08,-403.35 563.86,-384.62 567.81,-369.15"/>
<polygon fill="red" stroke="red" points="571.3,-369.62 570.39,-359.07 564.52,-367.89 571.3,-369.62"/>
<text text-anchor="middle" x="599" y="-391" font-family="Times,serif" font-size="10.00" fill="red">2.3.0</text>
<text text-anchor="middle" x="599" y="-380" font-family="Times,serif" font-size="10.00" fill="red">(latest: 2.3.1)</text>
</g>
<!-- roo_transceivers&#45;&gt;roo_collections -->
<g id="edge35" class="edge">
<title>roo_transceivers&#45;&gt;roo_collections</title>
<path fill="none" stroke="red" d="M873.52,-416.98C857.59,-411.48 843.57,-405.23 838,-399 814.3,-372.47 830.37,-355.03 820,-321 815.02,-304.64 808.26,-286.76 802.53,-272.45"/>
<polygon fill="red" stroke="red" points="805.76,-271.12 798.75,-263.18 799.28,-273.76 805.76,-271.12"/>
<text text-anchor="middle" x="858" y="-343" font-family="Times,serif" font-size="10.00" fill="red">1.4.7</text>
<text text-anchor="middle" x="858" y="-332" font-family="Times,serif" font-size="10.00" fill="red">(latest: 1.4.8)</text>
</g>
<!-- roo_transceivers&#45;&gt;roo_prefs -->
<g id="edge36" class="edge">
<title>roo_transceivers&#45;&gt;roo_prefs</title>
<path fill="none" stroke="red" d="M938.78,-416.92C938.96,-403.75 941.66,-386.6 953,-377 979.06,-354.93 1213.44,-364.76 1278.21,-358.22"/>
<polygon fill="red" stroke="red" points="1278.83,-361.67 1288.24,-356.8 1277.85,-354.74 1278.83,-361.67"/>
<text text-anchor="middle" x="986" y="-391" font-family="Times,serif" font-size="10.00" fill="red">1.3.2</text>
<text text-anchor="middle" x="986" y="-380" font-family="Times,serif" font-size="10.00" fill="red">(latest: 2.0.1)</text>
</g>
<!-- roo_transport -->
<g id="node28" class="node">
<title>roo_transport</title>
<polygon fill="khaki" stroke="red" points="854,-455 740,-455 740,-417 854,-417 854,-455"/>
<text text-anchor="middle" x="797" y="-439.8" font-family="Times,serif" font-size="14.00">roo_transport</text>
<text text-anchor="middle" x="797" y="-424.8" font-family="Times,serif" font-size="14.00">1.2.0</text>
</g>
<!-- roo_transport&#45;&gt;roo_collections -->
<g id="edge37" class="edge">
<title>roo_transport&#45;&gt;roo_collections</title>
<path fill="none" stroke="red" d="M783.13,-416.82C772.83,-402.11 759.64,-380.4 754,-359 746.08,-328.93 760.01,-295.13 772.98,-272.19"/>
<polygon fill="red" stroke="red" points="776.13,-273.75 778.23,-263.37 770.11,-270.18 776.13,-273.75"/>
<text text-anchor="middle" x="787" y="-343" font-family="Times,serif" font-size="10.00" fill="red">1.4.7</text>
<text text-anchor="middle" x="787" y="-332" font-family="Times,serif" font-size="10.00" fill="red">(latest: 1.4.8)</text>
</g>
<!-- roo_transport&#45;&gt;roo_io -->
<g id="edge38" class="edge">
<title>roo_transport&#45;&gt;roo_io</title>
<path fill="none" stroke="red" d="M739.97,-420.91C723.19,-415.45 705.26,-408.23 690,-399 677.9,-391.68 678.92,-384.61 667,-377 650.81,-366.66 631.17,-358.48 614.2,-352.54"/>
<polygon fill="red" stroke="red" points="615.16,-349.17 604.57,-349.31 612.93,-355.81 615.16,-349.17"/>
<text text-anchor="middle" x="723" y="-391" font-family="Times,serif" font-size="10.00" fill="red">2.3.0</text>
<text text-anchor="middle" x="723" y="-380" font-family="Times,serif" font-size="10.00" fill="red">(latest: 2.3.1)</text>
</g>
<!-- roo_wifi -->
<g id="node29" class="node">
<title>roo_wifi</title>
<polygon fill="khaki" stroke="red" points="1500,-455 1428,-455 1428,-417 1500,-417 1500,-455"/>
<text text-anchor="middle" x="1464" y="-439.8" font-family="Times,serif" font-size="14.00">roo_wifi</text>
<text text-anchor="middle" x="1464" y="-424.8" font-family="Times,serif" font-size="14.00">2.0.0</text>
</g>
<!-- roo_wifi&#45;&gt;roo_prefs -->
<g id="edge39" class="edge">
<title>roo_wifi&#45;&gt;roo_prefs</title>
<path fill="none" stroke="black" d="M1491.99,-416.77C1506.49,-405.11 1519.07,-389.82 1508,-377 1490.09,-356.26 1412.69,-365.21 1386,-359 1384.54,-358.66 1383.06,-358.3 1381.57,-357.92"/>
<polygon fill="black" stroke="black" points="1382.25,-354.48 1371.68,-355.23 1380.41,-361.23 1382.25,-354.48"/>
</g>
<!-- roo_wifi&#45;&gt;roo_scheduler -->
<g id="edge40" class="edge">
<title>roo_wifi&#45;&gt;roo_scheduler</title>
<path fill="none" stroke="red" d="M1448.3,-416.75C1435.79,-403.49 1417.11,-386.3 1397,-377 1349.25,-354.92 1331.5,-369.75 1280,-359 1279.9,-358.98 1279.8,-358.96 1279.7,-358.94"/>
<polygon fill="red" stroke="red" points="1280.66,-355.57 1270.14,-356.82 1279.15,-362.4 1280.66,-355.57"/>
<text text-anchor="middle" x="1462" y="-391" font-family="Times,serif" font-size="10.00" fill="red">2.2.0</text>
<text text-anchor="middle" x="1462" y="-380" font-family="Times,serif" font-size="10.00" fill="red">(latest: 2.2.1)</text>
</g>
<!-- roo_windows&#45;&gt;roo_fonts_basic -->
<g id="edge41" class="edge">
<title>roo_windows&#45;&gt;roo_fonts_basic</title>
<path fill="none" stroke="black" d="M453.17,-619.15C409.37,-612.56 346.51,-602.43 292,-591 239.57,-580.01 181.02,-565.14 136.25,-553.2"/>
<polygon fill="black" stroke="black" points="136.91,-549.75 126.34,-550.55 135.1,-556.51 136.91,-549.75"/>
</g>
<!-- roo_windows&#45;&gt;roo_fonts_material -->
<g id="edge42" class="edge">
<title>roo_windows&#45;&gt;roo_fonts_material</title>
<path fill="none" stroke="black" d="M500.48,-608.88C494.82,-595.22 486.95,-576.26 480.5,-560.71"/>
<polygon fill="black" stroke="black" points="483.56,-558.96 476.5,-551.07 477.1,-561.65 483.56,-558.96"/>
</g>
<!-- roo_windows&#45;&gt;roo_icons -->
<g id="edge44" class="edge">
<title>roo_windows&#45;&gt;roo_icons</title>
<path fill="none" stroke="black" d="M453.47,-613.02C400.46,-599.14 317.53,-576.7 237.42,-551.36"/>
<polygon fill="black" stroke="black" points="238.25,-547.95 227.66,-548.26 236.13,-554.62 238.25,-547.95"/>
</g>
<!-- roo_windows&#45;&gt;roo_locale -->
<g id="edge43" class="edge">
<title>roo_windows&#45;&gt;roo_locale</title>
<path fill="none" stroke="black" d="M526.7,-608.88C541.6,-594.44 562.62,-574.07 579.12,-558.07"/>
<polygon fill="black" stroke="black" points="581.61,-560.54 586.35,-551.07 576.74,-555.51 581.61,-560.54"/>
</g>
<!-- roo_windows&#45;&gt;roo_scheduler -->
<g id="edge45" class="edge">
<title>roo_windows&#45;&gt;roo_scheduler</title>
<path fill="none" stroke="red" d="M562.6,-624.7C733.83,-616.2 1254.81,-580.3 1354,-455 1375.56,-427.76 1380.66,-404.16 1359,-377 1336.54,-348.85 1314.97,-367.61 1280,-359 1279.9,-358.98 1279.8,-358.95 1279.7,-358.93"/>
<polygon fill="red" stroke="red" points="1280.76,-355.58 1270.2,-356.55 1279.06,-362.37 1280.76,-355.58"/>
<text text-anchor="middle" x="1366" y="-487" font-family="Times,serif" font-size="10.00" fill="red">2.2.0</text>
<text text-anchor="middle" x="1366" y="-476" font-family="Times,serif" font-size="10.00" fill="red">(latest: 2.2.1)</text>
</g>
<!-- roo_windows_transceivers -->
<g id="node31" class="node">
<title>roo_windows_transceivers</title>
<polygon fill="#b1dbab" stroke="red" points="779,-722 575,-722 575,-684 779,-684 779,-722"/>
<text text-anchor="middle" x="677" y="-706.8" font-family="Times,serif" font-size="14.00">roo_windows_transceivers</text>
<text text-anchor="middle" x="677" y="-691.8" font-family="Times,serif" font-size="14.00">1.0.0</text>
</g>
<!-- roo_windows_transceivers&#45;&gt;roo_transceivers -->
<g id="edge46" class="edge">
<title>roo_windows_transceivers&#45;&gt;roo_transceivers</title>
<path fill="none" stroke="black" d="M695.08,-683.79C740.87,-637.64 861.55,-516.04 914.49,-462.7"/>
<polygon fill="black" stroke="black" points="917.24,-464.91 921.8,-455.34 912.27,-459.97 917.24,-464.91"/>
</g>
<!-- roo_windows_transceivers&#45;&gt;roo_windows -->
<g id="edge47" class="edge">
<title>roo_windows_transceivers&#45;&gt;roo_windows</title>
<path fill="none" stroke="black" d="M635.22,-683.96C612.27,-674.04 583.61,-661.66 559.31,-651.16"/>
<polygon fill="black" stroke="black" points="560.45,-647.84 549.88,-647.09 557.67,-654.27 560.45,-647.84"/>
</g>
<!-- roo_windows_wifi -->
<g id="node32" class="node">
<title>roo_windows_wifi</title>
<polygon fill="plum" stroke="red" points="1216.5,-722 1075.5,-722 1075.5,-684 1216.5,-684 1216.5,-722"/>
<text text-anchor="middle" x="1146" y="-706.8" font-family="Times,serif" font-size="14.00">roo_windows_wifi</text>
<text text-anchor="middle" x="1146" y="-691.8" font-family="Times,serif" font-size="14.00">1.1.4</text>
</g>
<!-- roo_windows_wifi&#45;&gt;roo_wifi -->
<g id="edge48" class="edge">
<title>roo_windows_wifi&#45;&gt;roo_wifi</title>
<path fill="none" stroke="red" d="M1216.5,-684.24C1271.01,-667.58 1345.6,-638.06 1397,-591 1433.93,-557.19 1451.46,-499.44 1459.01,-465.08"/>
<polygon fill="red" stroke="red" points="1462.45,-465.72 1461.04,-455.22 1455.59,-464.31 1462.45,-465.72"/>
<text text-anchor="middle" x="1448" y="-583" font-family="Times,serif" font-size="10.00" fill="red">1.1.6</text>
<text text-anchor="middle" x="1448" y="-572" font-family="Times,serif" font-size="10.00" fill="red">(latest: 2.0.0)</text>
</g>
<!-- roo_windows_wifi&#45;&gt;roo_windows -->
<g id="edge49" class="edge">
<title>roo_windows_wifi&#45;&gt;roo_windows</title>
<path fill="none" stroke="black" d="M1075.29,-693.91C950.6,-679.64 693.5,-650.22 573,-636.44"/>
<polygon fill="black" stroke="black" points="573.15,-632.93 562.82,-635.27 572.35,-639.89 573.15,-632.93"/>
</g>
</g>
</svg>
