<?xml version="1.0" encoding="UTF-8" standalone="no"?>
<!DOCTYPE svg PUBLIC "-//W3C//DTD SVG 1.1//EN"
 "http://www.w3.org/Graphics/SVG/1.1/DTD/svg11.dtd">
<!-- Generated by graphviz version 2.42.4 (0)
 -->
<!-- Title: dependencies Pages: 1 -->
<svg width="862pt" height="751pt"
 viewBox="0.00 0.00 861.50 751.00" xmlns="http://www.w3.org/2000/svg" xmlns:xlink="http://www.w3.org/1999/xlink">
<g id="graph0" class="graph" transform="scale(1 1) rotate(0) translate(4 747)">
<title>dependencies</title>
<polygon fill="white" stroke="transparent" points="-4,4 -4,-747 857.5,-747 857.5,4 -4,4"/>
<!-- roo_backport -->
<g id="node1" class="node">
<title>roo_backport</title>
<polygon fill="#b1dbab" stroke="black" points="612.5,-209 502.5,-209 502.5,-171 612.5,-171 612.5,-209"/>
<text text-anchor="middle" x="557.5" y="-193.8" font-family="Times,serif" font-size="14.00">roo_backport</text>
<text text-anchor="middle" x="557.5" y="-178.8" font-family="Times,serif" font-size="14.00">1.2.1</text>
</g>
<!-- roo_blink -->
<g id="node2" class="node">
<title>roo_blink</title>
<polygon fill="#b1dbab" stroke="red" points="197.5,-551 115.5,-551 115.5,-513 197.5,-513 197.5,-551"/>
<text text-anchor="middle" x="156.5" y="-535.8" font-family="Times,serif" font-size="14.00">roo_blink</text>
<text text-anchor="middle" x="156.5" y="-520.8" font-family="Times,serif" font-size="14.00">1.0.5</text>
</g>
<!-- roo_logging -->
<g id="node12" class="node">
<title>roo_logging</title>
<polygon fill="khaki" stroke="red" points="415.5,-284 315.5,-284 315.5,-246 415.5,-246 415.5,-284"/>
<text text-anchor="middle" x="365.5" y="-268.8" font-family="Times,serif" font-size="14.00">roo_logging</text>
<text text-anchor="middle" x="365.5" y="-253.8" font-family="Times,serif" font-size="14.00">1.5.3</text>
</g>
<!-- roo_blink&#45;&gt;roo_logging -->
<g id="edge1" class="edge">
<title>roo_blink&#45;&gt;roo_logging</title>
<path fill="none" stroke="black" d="M160.95,-512.8C167.29,-489.22 180.56,-447.53 201.5,-417 237.38,-364.7 294.52,-317.49 331,-290.28"/>
<polygon fill="black" stroke="black" points="333.38,-292.87 339.36,-284.13 329.23,-287.24 333.38,-292.87"/>
</g>
<!-- roo_scheduler -->
<g id="node18" class="node">
<title>roo_scheduler</title>
<polygon fill="#b1dbab" stroke="red" points="326.5,-455 210.5,-455 210.5,-417 326.5,-417 326.5,-455"/>
<text text-anchor="middle" x="268.5" y="-439.8" font-family="Times,serif" font-size="14.00">roo_scheduler</text>
<text text-anchor="middle" x="268.5" y="-424.8" font-family="Times,serif" font-size="14.00">2.1.7</text>
</g>
<!-- roo_blink&#45;&gt;roo_scheduler -->
<g id="edge2" class="edge">
<title>roo_blink&#45;&gt;roo_scheduler</title>
<path fill="none" stroke="black" d="M181.75,-512.75C189.19,-507.19 197.27,-500.97 204.5,-495 217.09,-484.61 230.55,-472.57 241.86,-462.16"/>
<polygon fill="black" stroke="black" points="244.35,-464.61 249.31,-455.25 239.6,-459.48 244.35,-464.61"/>
</g>
<!-- roo_collections -->
<g id="node3" class="node">
<title>roo_collections</title>
<polygon fill="#b1dbab" stroke="black" points="672.5,-359 550.5,-359 550.5,-321 672.5,-321 672.5,-359"/>
<text text-anchor="middle" x="611.5" y="-343.8" font-family="Times,serif" font-size="14.00">roo_collections</text>
<text text-anchor="middle" x="611.5" y="-328.8" font-family="Times,serif" font-size="14.00">1.4.1</text>
</g>
<!-- roo_collections&#45;&gt;roo_backport -->
<g id="edge3" class="edge">
<title>roo_collections&#45;&gt;roo_backport</title>
<path fill="none" stroke="black" d="M604.88,-320.85C595.57,-295.33 578.52,-248.62 567.62,-218.73"/>
<polygon fill="black" stroke="black" points="570.89,-217.49 564.18,-209.3 564.32,-219.89 570.89,-217.49"/>
</g>
<!-- roo_comms -->
<g id="node4" class="node">
<title>roo_comms</title>
<polygon fill="khaki" stroke="red" points="321,-743 224,-743 224,-705 321,-705 321,-743"/>
<text text-anchor="middle" x="272.5" y="-727.8" font-family="Times,serif" font-size="14.00">roo_comms</text>
<text text-anchor="middle" x="272.5" y="-712.8" font-family="Times,serif" font-size="14.00">1.1.3</text>
</g>
<!-- roo_comms&#45;&gt;roo_blink -->
<g id="edge4" class="edge">
<title>roo_comms&#45;&gt;roo_blink</title>
<path fill="none" stroke="red" d="M261.38,-704.78C240.85,-671.16 196.93,-599.22 172.95,-559.94"/>
<polygon fill="red" stroke="red" points="175.79,-557.87 167.59,-551.16 169.81,-561.52 175.79,-557.87"/>
<text text-anchor="middle" x="259.5" y="-631" font-family="Times,serif" font-size="10.00" fill="red">1.0.4</text>
<text text-anchor="middle" x="259.5" y="-620" font-family="Times,serif" font-size="10.00" fill="red">(latest: 1.0.5)</text>
</g>
<!-- roo_control -->
<g id="node5" class="node">
<title>roo_control</title>
<polygon fill="#b1dbab" stroke="red" points="97,-551 0,-551 0,-513 97,-513 97,-551"/>
<text text-anchor="middle" x="48.5" y="-535.8" font-family="Times,serif" font-size="14.00">roo_control</text>
<text text-anchor="middle" x="48.5" y="-520.8" font-family="Times,serif" font-size="14.00">1.2.4</text>
</g>
<!-- roo_comms&#45;&gt;roo_control -->
<g id="edge5" class="edge">
<title>roo_comms&#45;&gt;roo_control</title>
<path fill="none" stroke="red" d="M228.44,-704.87C199.48,-691.59 161.84,-671.62 133.5,-647 104.29,-621.62 78.98,-584.58 63.75,-559.68"/>
<polygon fill="red" stroke="red" points="66.75,-557.87 58.6,-551.09 60.74,-561.47 66.75,-557.87"/>
<text text-anchor="middle" x="166.5" y="-631" font-family="Times,serif" font-size="10.00" fill="red">1.2.3</text>
<text text-anchor="middle" x="166.5" y="-620" font-family="Times,serif" font-size="10.00" fill="red">(latest: 1.2.4)</text>
</g>
<!-- roo_io -->
<g id="node10" class="node">
<title>roo_io</title>
<polygon fill="khaki" stroke="red" points="446,-359 387,-359 387,-321 446,-321 446,-359"/>
<text text-anchor="middle" x="416.5" y="-343.8" font-family="Times,serif" font-size="14.00">roo_io</text>
<text text-anchor="middle" x="416.5" y="-328.8" font-family="Times,serif" font-size="14.00">2.1.4</text>
</g>
<!-- roo_comms&#45;&gt;roo_io -->
<g id="edge6" class="edge">
<title>roo_comms&#45;&gt;roo_io</title>
<path fill="none" stroke="red" d="M303.41,-704.79C327,-688.32 355.5,-661.66 355.5,-629 355.5,-629 355.5,-629 355.5,-483 355.5,-440.09 379.3,-395.38 397.17,-367.86"/>
<polygon fill="red" stroke="red" points="400.31,-369.47 402.96,-359.21 394.49,-365.58 400.31,-369.47"/>
<text text-anchor="middle" x="388.5" y="-535" font-family="Times,serif" font-size="10.00" fill="red">2.1.1</text>
<text text-anchor="middle" x="388.5" y="-524" font-family="Times,serif" font-size="10.00" fill="red">(latest: 2.1.4)</text>
</g>
<!-- roo_transceivers -->
<g id="node23" class="node">
<title>roo_transceivers</title>
<polygon fill="khaki" stroke="red" points="519,-647 384,-647 384,-609 519,-609 519,-647"/>
<text text-anchor="middle" x="451.5" y="-631.8" font-family="Times,serif" font-size="14.00">roo_transceivers</text>
<text text-anchor="middle" x="451.5" y="-616.8" font-family="Times,serif" font-size="14.00">1.1.4</text>
</g>
<!-- roo_comms&#45;&gt;roo_transceivers -->
<g id="edge7" class="edge">
<title>roo_comms&#45;&gt;roo_transceivers</title>
<path fill="none" stroke="black" d="M321.43,-707.64C337.16,-701.97 354.41,-694.96 369.5,-687 387.42,-677.55 405.97,-664.72 420.88,-653.54"/>
<polygon fill="black" stroke="black" points="423.38,-656.03 429.21,-647.18 419.13,-650.47 423.38,-656.03"/>
</g>
<!-- roo_quantity -->
<g id="node17" class="node">
<title>roo_quantity</title>
<polygon fill="#b1dbab" stroke="red" points="140,-455 33,-455 33,-417 140,-417 140,-455"/>
<text text-anchor="middle" x="86.5" y="-439.8" font-family="Times,serif" font-size="14.00">roo_quantity</text>
<text text-anchor="middle" x="86.5" y="-424.8" font-family="Times,serif" font-size="14.00">1.1.7</text>
</g>
<!-- roo_control&#45;&gt;roo_quantity -->
<g id="edge8" class="edge">
<title>roo_control&#45;&gt;roo_quantity</title>
<path fill="none" stroke="black" d="M55.83,-512.88C61.35,-499.22 69.01,-480.26 75.3,-464.71"/>
<polygon fill="black" stroke="black" points="78.69,-465.65 79.2,-455.07 72.2,-463.03 78.69,-465.65"/>
</g>
<!-- roo_control&#45;&gt;roo_scheduler -->
<g id="edge9" class="edge">
<title>roo_control&#45;&gt;roo_scheduler</title>
<path fill="none" stroke="black" d="M90.66,-512.99C126.54,-497.65 178.23,-475.57 216.65,-459.15"/>
<polygon fill="black" stroke="black" points="218.29,-462.26 226.11,-455.11 215.54,-455.82 218.29,-462.26"/>
</g>
<!-- roo_dashboard -->
<g id="node6" class="node">
<title>roo_dashboard</title>
<polygon fill="khaki" stroke="red" points="853.5,-743 731.5,-743 731.5,-705 853.5,-705 853.5,-743"/>
<text text-anchor="middle" x="792.5" y="-727.8" font-family="Times,serif" font-size="14.00">roo_dashboard</text>
<text text-anchor="middle" x="792.5" y="-712.8" font-family="Times,serif" font-size="14.00">1.0.1</text>
</g>
<!-- roo_windows -->
<g id="node26" class="node">
<title>roo_windows</title>
<polygon fill="khaki" stroke="red" points="743,-647 634,-647 634,-609 743,-609 743,-647"/>
<text text-anchor="middle" x="688.5" y="-631.8" font-family="Times,serif" font-size="14.00">roo_windows</text>
<text text-anchor="middle" x="688.5" y="-616.8" font-family="Times,serif" font-size="14.00">1.4.2</text>
</g>
<!-- roo_dashboard&#45;&gt;roo_windows -->
<g id="edge10" class="edge">
<title>roo_dashboard&#45;&gt;roo_windows</title>
<path fill="none" stroke="red" d="M772.45,-704.88C756.48,-690.44 733.94,-670.07 716.24,-654.07"/>
<polygon fill="red" stroke="red" points="718.26,-651.18 708.49,-647.07 713.56,-656.37 718.26,-651.18"/>
<text text-anchor="middle" x="782.5" y="-679" font-family="Times,serif" font-size="10.00" fill="red">1.4.1</text>
<text text-anchor="middle" x="782.5" y="-668" font-family="Times,serif" font-size="10.00" fill="red">(latest: 1.4.2)</text>
</g>
<!-- roo_display -->
<g id="node7" class="node">
<title>roo_display</title>
<polygon fill="khaki" stroke="red" points="651.5,-455 553.5,-455 553.5,-417 651.5,-417 651.5,-455"/>
<text text-anchor="middle" x="602.5" y="-439.8" font-family="Times,serif" font-size="14.00">roo_display</text>
<text text-anchor="middle" x="602.5" y="-424.8" font-family="Times,serif" font-size="14.00">2.3.2</text>
</g>
<!-- roo_display&#45;&gt;roo_collections -->
<g id="edge11" class="edge">
<title>roo_display&#45;&gt;roo_collections</title>
<path fill="none" stroke="red" d="M615,-416.71C618.07,-411.25 620.92,-405.09 622.5,-399 625.01,-389.31 624,-378.57 621.8,-368.99"/>
<polygon fill="red" stroke="red" points="625.11,-367.85 619.05,-359.16 618.37,-369.74 625.11,-367.85"/>
<text text-anchor="middle" x="656.5" y="-391" font-family="Times,serif" font-size="10.00" fill="red">1.4.0</text>
<text text-anchor="middle" x="656.5" y="-380" font-family="Times,serif" font-size="10.00" fill="red">(latest: 1.4.1)</text>
</g>
<!-- roo_display&#45;&gt;roo_io -->
<g id="edge12" class="edge">
<title>roo_display&#45;&gt;roo_io</title>
<path fill="none" stroke="red" d="M553.3,-418.58C534.2,-411.79 514.9,-404.28 506.5,-399 494.52,-391.47 494.95,-385.31 483.5,-377 474.76,-370.65 464.75,-364.68 455.19,-359.5"/>
<polygon fill="red" stroke="red" points="456.7,-356.33 446.22,-354.78 453.44,-362.53 456.7,-356.33"/>
<text text-anchor="middle" x="539.5" y="-391" font-family="Times,serif" font-size="10.00" fill="red">2.1.2</text>
<text text-anchor="middle" x="539.5" y="-380" font-family="Times,serif" font-size="10.00" fill="red">(latest: 2.1.4)</text>
</g>
<!-- roo_flags -->
<g id="node8" class="node">
<title>roo_flags</title>
<polygon fill="#b1dbab" stroke="black" points="405.5,-209 325.5,-209 325.5,-171 405.5,-171 405.5,-209"/>
<text text-anchor="middle" x="365.5" y="-193.8" font-family="Times,serif" font-size="14.00">roo_flags</text>
<text text-anchor="middle" x="365.5" y="-178.8" font-family="Times,serif" font-size="14.00">1.2.1</text>
</g>
<!-- roo_icons -->
<g id="node9" class="node">
<title>roo_icons</title>
<polygon fill="khaki" stroke="red" points="730,-551 647,-551 647,-513 730,-513 730,-551"/>
<text text-anchor="middle" x="688.5" y="-535.8" font-family="Times,serif" font-size="14.00">roo_icons</text>
<text text-anchor="middle" x="688.5" y="-520.8" font-family="Times,serif" font-size="14.00">1.2.1</text>
</g>
<!-- roo_icons&#45;&gt;roo_display -->
<g id="edge13" class="edge">
<title>roo_icons&#45;&gt;roo_display</title>
<path fill="none" stroke="red" d="M671.92,-512.88C658.83,-498.57 640.41,-478.44 625.84,-462.51"/>
<polygon fill="red" stroke="red" points="628.36,-460.08 619.03,-455.07 623.2,-464.81 628.36,-460.08"/>
<text text-anchor="middle" x="685.5" y="-487" font-family="Times,serif" font-size="10.00" fill="red">2.3.1</text>
<text text-anchor="middle" x="685.5" y="-476" font-family="Times,serif" font-size="10.00" fill="red">(latest: 2.3.2)</text>
</g>
<!-- roo_io&#45;&gt;roo_logging -->
<g id="edge14" class="edge">
<title>roo_io&#45;&gt;roo_logging</title>
<path fill="none" stroke="black" d="M403.89,-320.96C397.89,-312.36 390.58,-301.9 383.97,-292.43"/>
<polygon fill="black" stroke="black" points="386.73,-290.28 378.14,-284.09 381,-294.29 386.73,-290.28"/>
</g>
<!-- roo_locale -->
<g id="node11" class="node">
<title>roo_locale</title>
<polygon fill="khaki" stroke="black" points="836.5,-551 748.5,-551 748.5,-513 836.5,-513 836.5,-551"/>
<text text-anchor="middle" x="792.5" y="-535.8" font-family="Times,serif" font-size="14.00">roo_locale</text>
<text text-anchor="middle" x="792.5" y="-520.8" font-family="Times,serif" font-size="14.00">1.1.1</text>
</g>
<!-- roo_logging&#45;&gt;roo_backport -->
<g id="edge15" class="edge">
<title>roo_logging&#45;&gt;roo_backport</title>
<path fill="none" stroke="black" d="M412.96,-245.96C439.38,-235.91 472.47,-223.33 500.31,-212.74"/>
<polygon fill="black" stroke="black" points="501.82,-215.92 509.92,-209.09 499.33,-209.37 501.82,-215.92"/>
</g>
<!-- roo_logging&#45;&gt;roo_flags -->
<g id="edge16" class="edge">
<title>roo_logging&#45;&gt;roo_flags</title>
<path fill="none" stroke="black" d="M365.5,-245.96C365.5,-237.88 365.5,-228.18 365.5,-219.18"/>
<polygon fill="black" stroke="black" points="369,-219.09 365.5,-209.09 362,-219.09 369,-219.09"/>
</g>
<!-- roo_threads -->
<g id="node20" class="node">
<title>roo_threads</title>
<polygon fill="#b1dbab" stroke="red" points="281,-209 180,-209 180,-171 281,-171 281,-209"/>
<text text-anchor="middle" x="230.5" y="-193.8" font-family="Times,serif" font-size="14.00">roo_threads</text>
<text text-anchor="middle" x="230.5" y="-178.8" font-family="Times,serif" font-size="14.00">1.2.1</text>
</g>
<!-- roo_logging&#45;&gt;roo_threads -->
<g id="edge17" class="edge">
<title>roo_logging&#45;&gt;roo_threads</title>
<path fill="none" stroke="black" d="M332.13,-245.96C314.2,-236.26 291.91,-224.21 272.78,-213.86"/>
<polygon fill="black" stroke="black" points="274.42,-210.77 263.95,-209.09 271.09,-216.93 274.42,-210.77"/>
</g>
<!-- roo_monitoring -->
<g id="node13" class="node">
<title>roo_monitoring</title>
<polygon fill="khaki" stroke="red" points="795,-455 670,-455 670,-417 795,-417 795,-455"/>
<text text-anchor="middle" x="732.5" y="-439.8" font-family="Times,serif" font-size="14.00">roo_monitoring</text>
<text text-anchor="middle" x="732.5" y="-424.8" font-family="Times,serif" font-size="14.00">1.0.0</text>
</g>
<!-- roo_monitoring&#45;&gt;roo_collections -->
<g id="edge18" class="edge">
<title>roo_monitoring&#45;&gt;roo_collections</title>
<path fill="none" stroke="black" d="M723.76,-416.78C716.98,-404.22 706.53,-387.9 693.5,-377 687.54,-372.02 680.79,-367.62 673.78,-363.75"/>
<polygon fill="black" stroke="black" points="675.3,-360.59 664.81,-359.14 672.1,-366.82 675.3,-360.59"/>
</g>
<!-- roo_monitoring&#45;&gt;roo_io -->
<g id="edge19" class="edge">
<title>roo_monitoring&#45;&gt;roo_io</title>
<path fill="none" stroke="black" d="M669.82,-416.94C652.99,-411.62 634.91,-405.48 618.5,-399 597.42,-390.68 593.89,-384.48 572.5,-377 533.79,-363.46 487.89,-353.57 455.94,-347.62"/>
<polygon fill="black" stroke="black" points="456.55,-344.17 446.08,-345.83 455.29,-351.06 456.55,-344.17"/>
</g>
<!-- roo_onewire -->
<g id="node14" class="node">
<title>roo_onewire</title>
<polygon fill="#b1dbab" stroke="red" points="319.5,-551 215.5,-551 215.5,-513 319.5,-513 319.5,-551"/>
<text text-anchor="middle" x="267.5" y="-535.8" font-family="Times,serif" font-size="14.00">roo_onewire</text>
<text text-anchor="middle" x="267.5" y="-520.8" font-family="Times,serif" font-size="14.00">2.0.8</text>
</g>
<!-- roo_onewire&#45;&gt;roo_quantity -->
<g id="edge21" class="edge">
<title>roo_onewire&#45;&gt;roo_quantity</title>
<path fill="none" stroke="black" d="M232.6,-512.88C203.43,-497.73 161.67,-476.04 130.27,-459.73"/>
<polygon fill="black" stroke="black" points="131.78,-456.57 121.29,-455.07 128.55,-462.78 131.78,-456.57"/>
</g>
<!-- roo_onewire&#45;&gt;roo_scheduler -->
<g id="edge20" class="edge">
<title>roo_onewire&#45;&gt;roo_scheduler</title>
<path fill="none" stroke="black" d="M267.69,-512.88C267.84,-499.35 268.04,-480.62 268.2,-465.15"/>
<polygon fill="black" stroke="black" points="271.7,-465.11 268.31,-455.07 264.7,-465.03 271.7,-465.11"/>
</g>
<!-- roo_powersafefs -->
<g id="node15" class="node">
<title>roo_powersafefs</title>
<polygon fill="khaki" stroke="red" points="297,-284 164,-284 164,-246 297,-246 297,-284"/>
<text text-anchor="middle" x="230.5" y="-268.8" font-family="Times,serif" font-size="14.00">roo_powersafefs</text>
<text text-anchor="middle" x="230.5" y="-253.8" font-family="Times,serif" font-size="14.00">1.0.0</text>
</g>
<!-- roo_powersafefs&#45;&gt;roo_threads -->
<g id="edge22" class="edge">
<title>roo_powersafefs&#45;&gt;roo_threads</title>
<path fill="none" stroke="black" d="M230.5,-245.96C230.5,-237.88 230.5,-228.18 230.5,-219.18"/>
<polygon fill="black" stroke="black" points="234,-219.09 230.5,-209.09 227,-219.09 234,-219.09"/>
</g>
<!-- roo_prefs -->
<g id="node16" class="node">
<title>roo_prefs</title>
<polygon fill="#b1dbab" stroke="red" points="523,-551 440,-551 440,-513 523,-513 523,-551"/>
<text text-anchor="middle" x="481.5" y="-535.8" font-family="Times,serif" font-size="14.00">roo_prefs</text>
<text text-anchor="middle" x="481.5" y="-520.8" font-family="Times,serif" font-size="14.00">1.2.8</text>
</g>
<!-- roo_prefs&#45;&gt;roo_logging -->
<g id="edge23" class="edge">
<title>roo_prefs&#45;&gt;roo_logging</title>
<path fill="none" stroke="black" d="M461.05,-512.7C445.94,-498.27 425.77,-476.97 412.5,-455 381.5,-403.68 370.9,-332.77 367.3,-294.04"/>
<polygon fill="black" stroke="black" points="370.79,-293.68 366.47,-284.01 363.81,-294.26 370.79,-293.68"/>
</g>
<!-- roo_prefs&#45;&gt;roo_scheduler -->
<g id="edge24" class="edge">
<title>roo_prefs&#45;&gt;roo_scheduler</title>
<path fill="none" stroke="black" d="M439.76,-514.12C425.37,-508.19 409.18,-501.41 394.5,-495 368.3,-483.55 339.3,-470.25 315.73,-459.27"/>
<polygon fill="black" stroke="black" points="317.19,-456.09 306.65,-455.03 314.23,-462.43 317.19,-456.09"/>
</g>
<!-- roo_quantity&#45;&gt;roo_logging -->
<g id="edge25" class="edge">
<title>roo_quantity&#45;&gt;roo_logging</title>
<path fill="none" stroke="black" d="M96.24,-416.86C113.06,-387.45 150.52,-329.87 199.5,-302 241.03,-278.37 258.97,-294.89 305.5,-284 305.6,-283.98 305.7,-283.95 305.8,-283.93"/>
<polygon fill="black" stroke="black" points="306.35,-287.4 315.21,-281.58 304.66,-280.61 306.35,-287.4"/>
</g>
<!-- roo_scheduler&#45;&gt;roo_collections -->
<g id="edge26" class="edge">
<title>roo_scheduler&#45;&gt;roo_collections</title>
<path fill="none" stroke="black" d="M305.73,-416.97C333.49,-404.17 372.64,-387.47 408.5,-377 451.48,-364.45 500.94,-355.57 540.27,-349.76"/>
<polygon fill="black" stroke="black" points="540.91,-353.21 550.3,-348.32 539.91,-346.28 540.91,-353.21"/>
</g>
<!-- roo_scheduler&#45;&gt;roo_threads -->
<g id="edge27" class="edge">
<title>roo_scheduler&#45;&gt;roo_threads</title>
<path fill="none" stroke="black" d="M248.37,-416.93C220.93,-390.79 173.08,-339.44 154.5,-284 149.13,-267.99 146.82,-261.04 154.5,-246 160.94,-233.39 171.76,-223.01 183.26,-214.79"/>
<polygon fill="black" stroke="black" points="185.3,-217.64 191.69,-209.19 181.42,-211.8 185.3,-217.64"/>
</g>
<!-- roo_testing -->
<g id="node19" class="node">
<title>roo_testing</title>
<polygon fill="#b1dbab" stroke="black" points="185,-38 88,-38 88,0 185,0 185,-38"/>
<text text-anchor="middle" x="136.5" y="-22.8" font-family="Times,serif" font-size="14.00">roo_testing</text>
<text text-anchor="middle" x="136.5" y="-7.8" font-family="Times,serif" font-size="14.00">1.3.1</text>
</g>
<!-- roo_time -->
<g id="node21" class="node">
<title>roo_time</title>
<polygon fill="#b1dbab" stroke="black" points="176,-113 97,-113 97,-75 176,-75 176,-113"/>
<text text-anchor="middle" x="136.5" y="-97.8" font-family="Times,serif" font-size="14.00">roo_time</text>
<text text-anchor="middle" x="136.5" y="-82.8" font-family="Times,serif" font-size="14.00">1.4.2</text>
</g>
<!-- roo_threads&#45;&gt;roo_time -->
<g id="edge28" class="edge">
<title>roo_threads&#45;&gt;roo_time</title>
<path fill="none" stroke="red" d="M217.53,-170.82C208.61,-158.89 196.13,-143.29 183.5,-131 179.45,-127.06 174.97,-123.15 170.43,-119.44"/>
<polygon fill="red" stroke="red" points="172.3,-116.46 162.28,-113.01 167.97,-121.95 172.3,-116.46"/>
<text text-anchor="middle" x="236.5" y="-145" font-family="Times,serif" font-size="10.00" fill="red">1.4.1</text>
<text text-anchor="middle" x="236.5" y="-134" font-family="Times,serif" font-size="10.00" fill="red">(latest: 1.4.2)</text>
</g>
<!-- roo_time&#45;&gt;roo_testing -->
<g id="edge29" class="edge">
<title>roo_time&#45;&gt;roo_testing</title>
<path fill="none" stroke="black" d="M136.5,-74.96C136.5,-66.88 136.5,-57.18 136.5,-48.18"/>
<polygon fill="black" stroke="black" points="140,-48.09 136.5,-38.09 133,-48.09 140,-48.09"/>
</g>
<!-- roo_time_ds3231 -->
<g id="node22" class="node">
<title>roo_time_ds3231</title>
<polygon fill="#b1dbab" stroke="red" points="161.5,-209 23.5,-209 23.5,-171 161.5,-171 161.5,-209"/>
<text text-anchor="middle" x="92.5" y="-193.8" font-family="Times,serif" font-size="14.00">roo_time_ds3231</text>
<text text-anchor="middle" x="92.5" y="-178.8" font-family="Times,serif" font-size="14.00">1.1.5</text>
</g>
<!-- roo_time_ds3231&#45;&gt;roo_time -->
<g id="edge30" class="edge">
<title>roo_time_ds3231&#45;&gt;roo_time</title>
<path fill="none" stroke="red" d="M99.91,-170.81C104.7,-159.3 111.21,-144.16 117.5,-131 118.86,-128.16 120.32,-125.22 121.81,-122.29"/>
<polygon fill="red" stroke="red" points="125.04,-123.66 126.55,-113.17 118.83,-120.43 125.04,-123.66"/>
<text text-anchor="middle" x="150.5" y="-145" font-family="Times,serif" font-size="10.00" fill="red">1.4.1</text>
<text text-anchor="middle" x="150.5" y="-134" font-family="Times,serif" font-size="10.00" fill="red">(latest: 1.4.2)</text>
</g>
<!-- roo_transceivers&#45;&gt;roo_prefs -->
<g id="edge31" class="edge">
<title>roo_transceivers&#45;&gt;roo_prefs</title>
<path fill="none" stroke="red" d="M410.23,-608.88C403.52,-604.06 397.48,-598.15 393.5,-591 388.75,-582.46 388.05,-577.12 393.5,-569 396.01,-565.27 412.33,-558.18 430.26,-551.28"/>
<polygon fill="red" stroke="red" points="431.59,-554.52 439.71,-547.71 429.12,-547.97 431.59,-554.52"/>
<text text-anchor="middle" x="426.5" y="-583" font-family="Times,serif" font-size="10.00" fill="red">1.2.7</text>
<text text-anchor="middle" x="426.5" y="-572" font-family="Times,serif" font-size="10.00" fill="red">(latest: 1.2.8)</text>
</g>
<!-- roo_transport -->
<g id="node24" class="node">
<title>roo_transport</title>
<polygon fill="khaki" stroke="red" points="535.5,-455 421.5,-455 421.5,-417 535.5,-417 535.5,-455"/>
<text text-anchor="middle" x="478.5" y="-439.8" font-family="Times,serif" font-size="14.00">roo_transport</text>
<text text-anchor="middle" x="478.5" y="-424.8" font-family="Times,serif" font-size="14.00">1.1.1</text>
</g>
<!-- roo_transport&#45;&gt;roo_collections -->
<g id="edge32" class="edge">
<title>roo_transport&#45;&gt;roo_collections</title>
<path fill="none" stroke="black" d="M535.69,-417.25C552.71,-411.22 568.65,-404.6 575.5,-399 585.51,-390.82 593.52,-379.08 599.42,-368.31"/>
<polygon fill="black" stroke="black" points="602.64,-369.69 604.06,-359.19 596.41,-366.52 602.64,-369.69"/>
</g>
<!-- roo_transport&#45;&gt;roo_io -->
<g id="edge33" class="edge">
<title>roo_transport&#45;&gt;roo_io</title>
<path fill="none" stroke="red" d="M434.93,-416.96C427.99,-412.15 421.71,-406.23 417.5,-399 412.4,-390.24 411.15,-379.41 411.52,-369.49"/>
<polygon fill="red" stroke="red" points="415.03,-369.49 412.45,-359.22 408.06,-368.86 415.03,-369.49"/>
<text text-anchor="middle" x="450.5" y="-391" font-family="Times,serif" font-size="10.00" fill="red">2.1.3</text>
<text text-anchor="middle" x="450.5" y="-380" font-family="Times,serif" font-size="10.00" fill="red">(latest: 2.1.4)</text>
</g>
<!-- roo_wifi -->
<g id="node25" class="node">
<title>roo_wifi</title>
<polygon fill="khaki" stroke="red" points="609.5,-647 537.5,-647 537.5,-609 609.5,-609 609.5,-647"/>
<text text-anchor="middle" x="573.5" y="-631.8" font-family="Times,serif" font-size="14.00">roo_wifi</text>
<text text-anchor="middle" x="573.5" y="-616.8" font-family="Times,serif" font-size="14.00">1.1.3</text>
</g>
<!-- roo_wifi&#45;&gt;roo_prefs -->
<g id="edge34" class="edge">
<title>roo_wifi&#45;&gt;roo_prefs</title>
<path fill="none" stroke="red" d="M537.16,-612.44C534.23,-611.27 531.32,-610.11 528.5,-609 508.09,-600.92 495.03,-609.03 482.5,-591 476.57,-582.47 475.26,-571.4 475.8,-561.21"/>
<polygon fill="red" stroke="red" points="479.3,-561.39 476.93,-551.07 472.35,-560.62 479.3,-561.39"/>
<text text-anchor="middle" x="515.5" y="-583" font-family="Times,serif" font-size="10.00" fill="red">1.2.7</text>
<text text-anchor="middle" x="515.5" y="-572" font-family="Times,serif" font-size="10.00" fill="red">(latest: 1.2.8)</text>
</g>
<!-- roo_windows&#45;&gt;roo_icons -->
<g id="edge36" class="edge">
<title>roo_windows&#45;&gt;roo_icons</title>
<path fill="none" stroke="black" d="M688.5,-608.88C688.5,-595.35 688.5,-576.62 688.5,-561.15"/>
<polygon fill="black" stroke="black" points="692,-561.07 688.5,-551.07 685,-561.07 692,-561.07"/>
</g>
<!-- roo_windows&#45;&gt;roo_locale -->
<g id="edge35" class="edge">
<title>roo_windows&#45;&gt;roo_locale</title>
<path fill="none" stroke="black" d="M708.55,-608.88C724.52,-594.44 747.06,-574.07 764.76,-558.07"/>
<polygon fill="black" stroke="black" points="767.44,-560.37 772.51,-551.07 762.74,-555.18 767.44,-560.37"/>
</g>
<!-- roo_windows&#45;&gt;roo_scheduler -->
<g id="edge37" class="edge">
<title>roo_windows&#45;&gt;roo_scheduler</title>
<path fill="none" stroke="red" d="M657.42,-608.75C633.45,-594.18 599.87,-572.68 572.5,-551 553.28,-535.77 553.78,-525.18 532.5,-513 471.13,-477.86 392.29,-457.93 336.8,-447.38"/>
<polygon fill="red" stroke="red" points="337.19,-443.89 326.72,-445.52 335.92,-450.78 337.19,-443.89"/>
<text text-anchor="middle" x="605.5" y="-535" font-family="Times,serif" font-size="10.00" fill="red">2.1.6</text>
<text text-anchor="middle" x="605.5" y="-524" font-family="Times,serif" font-size="10.00" fill="red">(latest: 2.1.7)</text>
</g>
<!-- roo_windows_transceivers -->
<g id="node27" class="node">
<title>roo_windows_transceivers</title>
<polygon fill="khaki" stroke="red" points="553.5,-743 349.5,-743 349.5,-705 553.5,-705 553.5,-743"/>
<text text-anchor="middle" x="451.5" y="-727.8" font-family="Times,serif" font-size="14.00">roo_windows_transceivers</text>
<text text-anchor="middle" x="451.5" y="-712.8" font-family="Times,serif" font-size="14.00">1.0.0</text>
</g>
<!-- roo_windows_transceivers&#45;&gt;roo_transceivers -->
<g id="edge38" class="edge">
<title>roo_windows_transceivers&#45;&gt;roo_transceivers</title>
<path fill="none" stroke="red" d="M451.5,-704.88C451.5,-691.35 451.5,-672.62 451.5,-657.15"/>
<polygon fill="red" stroke="red" points="455,-657.07 451.5,-647.07 448,-657.07 455,-657.07"/>
<text text-anchor="middle" x="484.5" y="-679" font-family="Times,serif" font-size="10.00" fill="red">1.1.3</text>
<text text-anchor="middle" x="484.5" y="-668" font-family="Times,serif" font-size="10.00" fill="red">(latest: 1.1.4)</text>
</g>
<!-- roo_windows_transceivers&#45;&gt;roo_windows -->
<g id="edge39" class="edge">
<title>roo_windows_transceivers&#45;&gt;roo_windows</title>
<path fill="none" stroke="red" d="M496.92,-704.99C535.82,-689.56 591.97,-667.29 633.43,-650.84"/>
<polygon fill="red" stroke="red" points="634.83,-654.05 642.83,-647.11 632.25,-647.55 634.83,-654.05"/>
<text text-anchor="middle" x="623.5" y="-679" font-family="Times,serif" font-size="10.00" fill="red">1.4.1</text>
<text text-anchor="middle" x="623.5" y="-668" font-family="Times,serif" font-size="10.00" fill="red">(latest: 1.4.2)</text>
</g>
<!-- roo_windows_wifi -->
<g id="node28" class="node">
<title>roo_windows_wifi</title>
<polygon fill="khaki" stroke="red" points="713,-743 572,-743 572,-705 713,-705 713,-743"/>
<text text-anchor="middle" x="642.5" y="-727.8" font-family="Times,serif" font-size="14.00">roo_windows_wifi</text>
<text text-anchor="middle" x="642.5" y="-712.8" font-family="Times,serif" font-size="14.00">1.1.3</text>
</g>
<!-- roo_windows_wifi&#45;&gt;roo_wifi -->
<g id="edge40" class="edge">
<title>roo_windows_wifi&#45;&gt;roo_wifi</title>
<path fill="none" stroke="black" d="M607.31,-704.99C600.24,-699.99 593.46,-693.98 588.5,-687 582.33,-678.32 578.69,-667.3 576.55,-657.2"/>
<polygon fill="black" stroke="black" points="579.97,-656.41 574.82,-647.15 573.07,-657.6 579.97,-656.41"/>
</g>
<!-- roo_windows_wifi&#45;&gt;roo_windows -->
<g id="edge41" class="edge">
<title>roo_windows_wifi&#45;&gt;roo_windows</title>
<path fill="none" stroke="black" d="M661.68,-704.89C666.46,-699.53 671.17,-693.37 674.5,-687 679.29,-677.83 682.48,-666.99 684.58,-657.17"/>
<polygon fill="black" stroke="black" points="688.07,-657.53 686.46,-647.06 681.19,-656.25 688.07,-657.53"/>
</g>
</g>
</svg>
