<?xml version="1.0" encoding="UTF-8" standalone="no"?>
<!DOCTYPE svg PUBLIC "-//W3C//DTD SVG 1.1//EN"
 "http://www.w3.org/Graphics/SVG/1.1/DTD/svg11.dtd">
<!-- Generated by graphviz version 2.42.4 (0)
 -->
<!-- Title: dependencies Pages: 1 -->
<svg width="2170pt" height="772pt"
 viewBox="0.00 0.00 2170.00 772.00" xmlns="http://www.w3.org/2000/svg" xmlns:xlink="http://www.w3.org/1999/xlink">
<g id="graph0" class="graph" transform="scale(1 1) rotate(0) translate(4 768)">
<title>dependencies</title>
<polygon fill="white" stroke="transparent" points="-4,4 -4,-768 2166,-768 2166,4 -4,4"/>
<!-- roo_backport -->
<g id="node1" class="node">
<title>roo_backport</title>
<polygon fill="#b1dbab" stroke="black" points="1661,-113 1551,-113 1551,-75 1661,-75 1661,-113"/>
<text text-anchor="middle" x="1606" y="-97.8" font-family="Times,serif" font-size="14.00">roo_backport</text>
<text text-anchor="middle" x="1606" y="-82.8" font-family="Times,serif" font-size="14.00">1.2.0</text>
</g>
<!-- roo_blink -->
<g id="node2" class="node">
<title>roo_blink</title>
<polygon fill="plum" stroke="black" points="828,-401 746,-401 746,-363 828,-363 828,-401"/>
<text text-anchor="middle" x="787" y="-385.8" font-family="Times,serif" font-size="14.00">roo_blink</text>
<text text-anchor="middle" x="787" y="-370.8" font-family="Times,serif" font-size="14.00">1.0.2</text>
</g>
<!-- roo_logging -->
<g id="node12" class="node">
<title>roo_logging</title>
<polygon fill="plum" stroke="black" points="580,-305 480,-305 480,-267 580,-267 580,-305"/>
<text text-anchor="middle" x="530" y="-289.8" font-family="Times,serif" font-size="14.00">roo_logging</text>
<text text-anchor="middle" x="530" y="-274.8" font-family="Times,serif" font-size="14.00">1.4.3</text>
</g>
<!-- roo_blink&#45;&gt;roo_logging -->
<g id="edge2" class="edge">
<title>roo_blink&#45;&gt;roo_logging</title>
<path fill="none" stroke="black" d="M745.99,-366C703.7,-350.53 637.33,-326.26 589.31,-308.69"/>
<polygon fill="black" stroke="black" points="590.26,-305.31 579.66,-305.17 587.85,-311.89 590.26,-305.31"/>
</g>
<!-- roo_scheduler -->
<g id="node16" class="node">
<title>roo_scheduler</title>
<polygon fill="plum" stroke="black" points="838,-305 722,-305 722,-267 838,-267 838,-305"/>
<text text-anchor="middle" x="780" y="-289.8" font-family="Times,serif" font-size="14.00">roo_scheduler</text>
<text text-anchor="middle" x="780" y="-274.8" font-family="Times,serif" font-size="14.00">2.1.5</text>
</g>
<!-- roo_blink&#45;&gt;roo_scheduler -->
<g id="edge3" class="edge">
<title>roo_blink&#45;&gt;roo_scheduler</title>
<path fill="none" stroke="black" d="M785.65,-362.88C784.64,-349.35 783.25,-330.62 782.1,-315.15"/>
<polygon fill="black" stroke="black" points="785.58,-314.78 781.35,-305.07 778.6,-315.3 785.58,-314.78"/>
</g>
<!-- roo_testing -->
<g id="node17" class="node">
<title>roo_testing</title>
<polygon fill="#b1dbab" stroke="black" points="1295.5,-38 1198.5,-38 1198.5,0 1295.5,0 1295.5,-38"/>
<text text-anchor="middle" x="1247" y="-22.8" font-family="Times,serif" font-size="14.00">roo_testing</text>
<text text-anchor="middle" x="1247" y="-7.8" font-family="Times,serif" font-size="14.00">1.2.0</text>
</g>
<!-- roo_blink&#45;&gt;roo_testing -->
<g id="edge1" class="edge">
<title>roo_blink&#45;&gt;roo_testing</title>
<path fill="none" stroke="red" d="M760.8,-362.75C743.63,-349.08 722.64,-328.71 713,-305 706.64,-289.35 707.52,-282.97 713,-267 716.29,-257.41 723.71,-258.59 727,-249 730.17,-239.75 731.19,-235.84 727,-227 721.59,-215.58 710.41,-220.42 705,-209 697.77,-193.74 697.75,-186.25 705,-171 734.04,-109.94 760.89,-101.7 823,-75 887.45,-47.3 1087.86,-30.52 1188.33,-23.64"/>
<polygon fill="red" stroke="red" points="1188.58,-27.13 1198.32,-22.96 1188.11,-20.14 1188.58,-27.13"/>
<text text-anchor="middle" x="738" y="-193" font-family="Times,serif" font-size="10.00" fill="red">1.1.8</text>
<text text-anchor="middle" x="738" y="-182" font-family="Times,serif" font-size="10.00" fill="red">(latest: 1.2.0)</text>
</g>
<!-- roo_threads -->
<g id="node18" class="node">
<title>roo_threads</title>
<polygon fill="#b1dbab" stroke="black" points="1061.5,-209 960.5,-209 960.5,-171 1061.5,-171 1061.5,-209"/>
<text text-anchor="middle" x="1011" y="-193.8" font-family="Times,serif" font-size="14.00">roo_threads</text>
<text text-anchor="middle" x="1011" y="-178.8" font-family="Times,serif" font-size="14.00">1.2.0</text>
</g>
<!-- roo_blink&#45;&gt;roo_threads -->
<g id="edge4" class="edge">
<title>roo_blink&#45;&gt;roo_threads</title>
<path fill="none" stroke="red" d="M828.14,-371.55C845.57,-366 865.21,-357.55 880,-345 910.69,-318.96 894.7,-292.3 926,-267 945.67,-251.1 960.66,-265.31 980,-249 989.49,-241 996.51,-229.33 1001.44,-218.55"/>
<polygon fill="red" stroke="red" points="1004.79,-219.62 1005.4,-209.04 998.33,-216.93 1004.79,-219.62"/>
<text text-anchor="middle" x="959" y="-289" font-family="Times,serif" font-size="10.00" fill="red">1.1.6</text>
<text text-anchor="middle" x="959" y="-278" font-family="Times,serif" font-size="10.00" fill="red">(latest: 1.2.0)</text>
</g>
<!-- roo_time -->
<g id="node19" class="node">
<title>roo_time</title>
<polygon fill="#b1dbab" stroke="black" points="1095.5,-113 1016.5,-113 1016.5,-75 1095.5,-75 1095.5,-113"/>
<text text-anchor="middle" x="1056" y="-97.8" font-family="Times,serif" font-size="14.00">roo_time</text>
<text text-anchor="middle" x="1056" y="-82.8" font-family="Times,serif" font-size="14.00">1.4.0</text>
</g>
<!-- roo_blink&#45;&gt;roo_time -->
<g id="edge5" class="edge">
<title>roo_blink&#45;&gt;roo_time</title>
<path fill="none" stroke="red" d="M807.14,-362.92C821.32,-348.76 839.12,-327.71 847,-305 852.54,-289.05 854.84,-281.96 847,-267 840.48,-254.55 827.52,-261.45 821,-249 816.46,-240.34 814.75,-234.52 821,-227 849.03,-193.29 879.78,-230.49 918,-209 937.75,-197.89 935.2,-186.21 952,-171 973.03,-151.95 998.76,-133.12 1019.36,-118.96"/>
<polygon fill="red" stroke="red" points="1021.55,-121.71 1027.85,-113.2 1017.61,-115.92 1021.55,-121.71"/>
<text text-anchor="middle" x="854" y="-241" font-family="Times,serif" font-size="10.00" fill="red">1.3.3</text>
<text text-anchor="middle" x="854" y="-230" font-family="Times,serif" font-size="10.00" fill="red">(latest: 1.4.0)</text>
</g>
<!-- roo_collections -->
<g id="node3" class="node">
<title>roo_collections</title>
<polygon fill="khaki" stroke="black" points="1726,-209 1604,-209 1604,-171 1726,-171 1726,-209"/>
<text text-anchor="middle" x="1665" y="-193.8" font-family="Times,serif" font-size="14.00">roo_collections</text>
<text text-anchor="middle" x="1665" y="-178.8" font-family="Times,serif" font-size="14.00">1.3.2</text>
</g>
<!-- roo_collections&#45;&gt;roo_backport -->
<g id="edge6" class="edge">
<title>roo_collections&#45;&gt;roo_backport</title>
<path fill="none" stroke="red" d="M1653.62,-170.88C1644.89,-156.96 1632.7,-137.53 1622.83,-121.82"/>
<polygon fill="red" stroke="red" points="1625.62,-119.68 1617.34,-113.07 1619.69,-123.4 1625.62,-119.68"/>
<text text-anchor="middle" x="1673" y="-145" font-family="Times,serif" font-size="10.00" fill="red">1.1.1</text>
<text text-anchor="middle" x="1673" y="-134" font-family="Times,serif" font-size="10.00" fill="red">(latest: 1.2.0)</text>
</g>
<!-- roo_comms -->
<g id="node4" class="node">
<title>roo_comms</title>
<polygon fill="plum" stroke="black" points="1133.5,-593 1036.5,-593 1036.5,-555 1133.5,-555 1133.5,-593"/>
<text text-anchor="middle" x="1085" y="-577.8" font-family="Times,serif" font-size="14.00">roo_comms</text>
<text text-anchor="middle" x="1085" y="-562.8" font-family="Times,serif" font-size="14.00">1.1.2</text>
</g>
<!-- roo_comms&#45;&gt;roo_blink -->
<g id="edge8" class="edge">
<title>roo_comms&#45;&gt;roo_blink</title>
<path fill="none" stroke="black" d="M1036.3,-564.72C1015.8,-559.4 992.66,-550.79 975,-537 942.74,-511.8 955.81,-487.06 926,-459 900.45,-434.95 865.84,-416 837.55,-403.03"/>
<polygon fill="black" stroke="black" points="838.78,-399.75 828.22,-398.87 835.93,-406.14 838.78,-399.75"/>
</g>
<!-- roo_control -->
<g id="node5" class="node">
<title>roo_control</title>
<polygon fill="plum" stroke="black" points="720.5,-497 623.5,-497 623.5,-459 720.5,-459 720.5,-497"/>
<text text-anchor="middle" x="672" y="-481.8" font-family="Times,serif" font-size="14.00">roo_control</text>
<text text-anchor="middle" x="672" y="-466.8" font-family="Times,serif" font-size="14.00">1.2.2</text>
</g>
<!-- roo_comms&#45;&gt;roo_control -->
<g id="edge9" class="edge">
<title>roo_comms&#45;&gt;roo_control</title>
<path fill="none" stroke="black" d="M1036.41,-561.94C960.16,-544.59 812.67,-511.02 730.64,-492.35"/>
<polygon fill="black" stroke="black" points="731.25,-488.9 720.73,-490.09 729.7,-495.72 731.25,-488.9"/>
</g>
<!-- roo_io -->
<g id="node10" class="node">
<title>roo_io</title>
<polygon fill="plum" stroke="black" points="1509.5,-401 1450.5,-401 1450.5,-363 1509.5,-363 1509.5,-401"/>
<text text-anchor="middle" x="1480" y="-385.8" font-family="Times,serif" font-size="14.00">roo_io</text>
<text text-anchor="middle" x="1480" y="-370.8" font-family="Times,serif" font-size="14.00">2.0.3</text>
</g>
<!-- roo_comms&#45;&gt;roo_io -->
<g id="edge10" class="edge">
<title>roo_comms&#45;&gt;roo_io</title>
<path fill="none" stroke="black" d="M1133.7,-570.41C1199.08,-566.23 1311.19,-556.45 1347,-537 1401.57,-507.36 1443.91,-445.81 1465.08,-410.15"/>
<polygon fill="black" stroke="black" points="1468.26,-411.66 1470.25,-401.25 1462.2,-408.15 1468.26,-411.66"/>
</g>
<!-- roo_comms&#45;&gt;roo_testing -->
<g id="edge7" class="edge">
<title>roo_comms&#45;&gt;roo_testing</title>
<path fill="none" stroke="red" d="M1122.85,-554.87C1202.75,-513.93 1385.13,-405.53 1432,-249 1453.62,-176.81 1400.02,-137.25 1347,-75 1335.62,-61.63 1320.13,-50.93 1304.75,-42.65"/>
<polygon fill="red" stroke="red" points="1306.24,-39.48 1295.74,-38.05 1303.05,-45.71 1306.24,-39.48"/>
<text text-anchor="middle" x="1458" y="-289" font-family="Times,serif" font-size="10.00" fill="red">1.1.8</text>
<text text-anchor="middle" x="1458" y="-278" font-family="Times,serif" font-size="10.00" fill="red">(latest: 1.2.0)</text>
</g>
<!-- roo_comms&#45;&gt;roo_threads -->
<g id="edge11" class="edge">
<title>roo_comms&#45;&gt;roo_threads</title>
<path fill="none" stroke="red" d="M1060.34,-554.78C1043.29,-540.85 1021.51,-520.15 1009,-497 988.28,-458.66 993.47,-444.35 989,-401 987.27,-384.2 987.93,-379.85 989,-363 990.74,-335.71 1001.09,-260.52 1006.95,-219.17"/>
<polygon fill="red" stroke="red" points="1010.43,-219.59 1008.37,-209.19 1003.5,-218.6 1010.43,-219.59"/>
<text text-anchor="middle" x="1022" y="-385" font-family="Times,serif" font-size="10.00" fill="red">1.1.6</text>
<text text-anchor="middle" x="1022" y="-374" font-family="Times,serif" font-size="10.00" fill="red">(latest: 1.2.0)</text>
</g>
<!-- roo_comms&#45;&gt;roo_time -->
<g id="edge12" class="edge">
<title>roo_comms&#45;&gt;roo_time</title>
<path fill="none" stroke="red" d="M1111.93,-554.85C1129.64,-541.23 1151.43,-520.87 1162,-497 1182.7,-450.24 1188.89,-314.52 1170,-267 1165.93,-256.77 1159.71,-257.72 1153,-249 1115.41,-200.11 1113.33,-182.89 1080,-131 1078.07,-128 1076.04,-124.88 1074,-121.78"/>
<polygon fill="red" stroke="red" points="1076.77,-119.63 1068.33,-113.23 1070.94,-123.5 1076.77,-119.63"/>
<text text-anchor="middle" x="1214" y="-337" font-family="Times,serif" font-size="10.00" fill="red">1.3.3</text>
<text text-anchor="middle" x="1214" y="-326" font-family="Times,serif" font-size="10.00" fill="red">(latest: 1.4.0)</text>
</g>
<!-- roo_transceivers -->
<g id="node21" class="node">
<title>roo_transceivers</title>
<polygon fill="plum" stroke="black" points="1152.5,-497 1017.5,-497 1017.5,-459 1152.5,-459 1152.5,-497"/>
<text text-anchor="middle" x="1085" y="-481.8" font-family="Times,serif" font-size="14.00">roo_transceivers</text>
<text text-anchor="middle" x="1085" y="-466.8" font-family="Times,serif" font-size="14.00">1.1.3</text>
</g>
<!-- roo_comms&#45;&gt;roo_transceivers -->
<g id="edge13" class="edge">
<title>roo_comms&#45;&gt;roo_transceivers</title>
<path fill="none" stroke="black" d="M1085,-554.88C1085,-541.35 1085,-522.62 1085,-507.15"/>
<polygon fill="black" stroke="black" points="1088.5,-507.07 1085,-497.07 1081.5,-507.07 1088.5,-507.07"/>
</g>
<!-- roo_quantity -->
<g id="node15" class="node">
<title>roo_quantity</title>
<polygon fill="plum" stroke="black" points="547.5,-401 440.5,-401 440.5,-363 547.5,-363 547.5,-401"/>
<text text-anchor="middle" x="494" y="-385.8" font-family="Times,serif" font-size="14.00">roo_quantity</text>
<text text-anchor="middle" x="494" y="-370.8" font-family="Times,serif" font-size="14.00">1.1.3</text>
</g>
<!-- roo_control&#45;&gt;roo_quantity -->
<g id="edge15" class="edge">
<title>roo_control&#45;&gt;roo_quantity</title>
<path fill="none" stroke="black" d="M637.68,-458.88C609.12,-443.79 568.28,-422.23 537.44,-405.94"/>
<polygon fill="black" stroke="black" points="538.69,-402.64 528.21,-401.07 535.42,-408.83 538.69,-402.64"/>
</g>
<!-- roo_control&#45;&gt;roo_scheduler -->
<g id="edge16" class="edge">
<title>roo_control&#45;&gt;roo_scheduler</title>
<path fill="none" stroke="black" d="M682.36,-458.78C701.47,-425.16 742.36,-353.22 764.69,-313.94"/>
<polygon fill="black" stroke="black" points="767.78,-315.59 769.68,-305.16 761.69,-312.13 767.78,-315.59"/>
</g>
<!-- roo_control&#45;&gt;roo_testing -->
<g id="edge14" class="edge">
<title>roo_control&#45;&gt;roo_testing</title>
<path fill="none" stroke="red" d="M623.28,-468.46C572.76,-458.08 492.8,-437.28 432,-401 329.43,-339.8 214.24,-260.79 293,-171 358.81,-95.97 400.42,-103.71 496,-75 625.28,-36.17 1034.67,-24.2 1188.13,-21.02"/>
<polygon fill="red" stroke="red" points="1188.37,-24.51 1198.3,-20.81 1188.23,-17.52 1188.37,-24.51"/>
<text text-anchor="middle" x="302" y="-241" font-family="Times,serif" font-size="10.00" fill="red">1.1.8</text>
<text text-anchor="middle" x="302" y="-230" font-family="Times,serif" font-size="10.00" fill="red">(latest: 1.2.0)</text>
</g>
<!-- roo_dashboard -->
<g id="node6" class="node">
<title>roo_dashboard</title>
<polygon fill="plum" stroke="black" points="697,-764 575,-764 575,-726 697,-726 697,-764"/>
<text text-anchor="middle" x="636" y="-748.8" font-family="Times,serif" font-size="14.00">roo_dashboard</text>
<text text-anchor="middle" x="636" y="-733.8" font-family="Times,serif" font-size="14.00">1.0.1</text>
</g>
<!-- roo_dashboard&#45;&gt;roo_testing -->
<g id="edge17" class="edge">
<title>roo_dashboard&#45;&gt;roo_testing</title>
<path fill="none" stroke="red" d="M574.73,-743.32C415.33,-740.73 0,-728.48 0,-671 0,-671 0,-671 0,-93 0,-32.7 941.4,-22.08 1188.29,-20.33"/>
<polygon fill="red" stroke="red" points="1188.52,-23.82 1198.5,-20.26 1188.48,-16.82 1188.52,-23.82"/>
<text text-anchor="middle" x="33" y="-385" font-family="Times,serif" font-size="10.00" fill="red">1.1.7</text>
<text text-anchor="middle" x="33" y="-374" font-family="Times,serif" font-size="10.00" fill="red">(latest: 1.2.0)</text>
</g>
<!-- roo_windows -->
<g id="node24" class="node">
<title>roo_windows</title>
<polygon fill="plum" stroke="black" points="1505.5,-689 1396.5,-689 1396.5,-651 1505.5,-651 1505.5,-689"/>
<text text-anchor="middle" x="1451" y="-673.8" font-family="Times,serif" font-size="14.00">roo_windows</text>
<text text-anchor="middle" x="1451" y="-658.8" font-family="Times,serif" font-size="14.00">1.4.1</text>
</g>
<!-- roo_dashboard&#45;&gt;roo_windows -->
<g id="edge18" class="edge">
<title>roo_dashboard&#45;&gt;roo_windows</title>
<path fill="none" stroke="black" d="M697.26,-738.51C847.35,-725.07 1232.37,-690.58 1386.14,-676.81"/>
<polygon fill="black" stroke="black" points="1386.72,-680.27 1396.37,-675.89 1386.1,-673.3 1386.72,-680.27"/>
</g>
<!-- roo_display -->
<g id="node7" class="node">
<title>roo_display</title>
<polygon fill="plum" stroke="black" points="1804,-497 1706,-497 1706,-459 1804,-459 1804,-497"/>
<text text-anchor="middle" x="1755" y="-481.8" font-family="Times,serif" font-size="14.00">roo_display</text>
<text text-anchor="middle" x="1755" y="-466.8" font-family="Times,serif" font-size="14.00">2.3.1</text>
</g>
<!-- roo_display&#45;&gt;roo_backport -->
<g id="edge20" class="edge">
<title>roo_display&#45;&gt;roo_backport</title>
<path fill="none" stroke="red" d="M1756.9,-458.82C1761.29,-410.49 1769.32,-275.44 1735,-171 1728.45,-151.08 1726.4,-144.06 1710,-131 1698.53,-121.86 1684.58,-114.96 1670.68,-109.79"/>
<polygon fill="red" stroke="red" points="1671.68,-106.43 1661.09,-106.47 1669.39,-113.05 1671.68,-106.43"/>
<text text-anchor="middle" x="1791" y="-289" font-family="Times,serif" font-size="10.00" fill="red">1.1.1</text>
<text text-anchor="middle" x="1791" y="-278" font-family="Times,serif" font-size="10.00" fill="red">(latest: 1.2.0)</text>
</g>
<!-- roo_display&#45;&gt;roo_collections -->
<g id="edge21" class="edge">
<title>roo_display&#45;&gt;roo_collections</title>
<path fill="none" stroke="black" d="M1749.23,-458.67C1733.9,-409.94 1692.04,-276.92 1673.75,-218.8"/>
<polygon fill="black" stroke="black" points="1677.06,-217.66 1670.72,-209.17 1670.38,-219.76 1677.06,-217.66"/>
</g>
<!-- roo_display&#45;&gt;roo_io -->
<g id="edge22" class="edge">
<title>roo_display&#45;&gt;roo_io</title>
<path fill="none" stroke="red" d="M1705.84,-460.19C1652.5,-441.96 1568.42,-413.22 1519.3,-396.43"/>
<polygon fill="red" stroke="red" points="1520.26,-393.06 1509.67,-393.14 1518,-399.69 1520.26,-393.06"/>
<text text-anchor="middle" x="1675" y="-433" font-family="Times,serif" font-size="10.00" fill="red">2.0.2</text>
<text text-anchor="middle" x="1675" y="-422" font-family="Times,serif" font-size="10.00" fill="red">(latest: 2.0.3)</text>
</g>
<!-- roo_display&#45;&gt;roo_testing -->
<g id="edge19" class="edge">
<title>roo_display&#45;&gt;roo_testing</title>
<path fill="none" stroke="red" d="M1804.15,-460.5C1837.29,-445.91 1875,-420.98 1875,-383 1875,-383 1875,-383 1875,-93 1875,-36.07 1462.48,-23.47 1306.12,-20.74"/>
<polygon fill="red" stroke="red" points="1305.81,-17.23 1295.76,-20.56 1305.7,-24.23 1305.81,-17.23"/>
<text text-anchor="middle" x="1908" y="-241" font-family="Times,serif" font-size="10.00" fill="red">1.1.7</text>
<text text-anchor="middle" x="1908" y="-230" font-family="Times,serif" font-size="10.00" fill="red">(latest: 1.2.0)</text>
</g>
<!-- roo_flags -->
<g id="node8" class="node">
<title>roo_flags</title>
<polygon fill="#b1dbab" stroke="black" points="382,-209 302,-209 302,-171 382,-171 382,-209"/>
<text text-anchor="middle" x="342" y="-193.8" font-family="Times,serif" font-size="14.00">roo_flags</text>
<text text-anchor="middle" x="342" y="-178.8" font-family="Times,serif" font-size="14.00">1.2.0</text>
</g>
<!-- roo_icons -->
<g id="node9" class="node">
<title>roo_icons</title>
<polygon fill="plum" stroke="black" points="1701.5,-593 1618.5,-593 1618.5,-555 1701.5,-555 1701.5,-593"/>
<text text-anchor="middle" x="1660" y="-577.8" font-family="Times,serif" font-size="14.00">roo_icons</text>
<text text-anchor="middle" x="1660" y="-562.8" font-family="Times,serif" font-size="14.00">1.2.1</text>
</g>
<!-- roo_icons&#45;&gt;roo_display -->
<g id="edge24" class="edge">
<title>roo_icons&#45;&gt;roo_display</title>
<path fill="none" stroke="black" d="M1678.32,-554.88C1692.77,-540.57 1713.12,-520.44 1729.22,-504.51"/>
<polygon fill="black" stroke="black" points="1732.09,-506.59 1736.74,-497.07 1727.17,-501.61 1732.09,-506.59"/>
</g>
<!-- roo_icons&#45;&gt;roo_testing -->
<g id="edge23" class="edge">
<title>roo_icons&#45;&gt;roo_testing</title>
<path fill="none" stroke="red" d="M1701.64,-558.28C1775.33,-532.19 1921,-480.44 1921,-479 1921,-479 1921,-479 1921,-333 1921,-303.01 1926.43,-295.73 1935,-267 1937.45,-258.77 1940.42,-257.44 1942,-249 1954.99,-179.74 1910.19,-94.42 1889,-75 1846.51,-36.07 1456.49,-24.18 1305.92,-21.02"/>
<polygon fill="red" stroke="red" points="1305.57,-17.51 1295.5,-20.81 1305.43,-24.51 1305.57,-17.51"/>
<text text-anchor="middle" x="1968" y="-289" font-family="Times,serif" font-size="10.00" fill="red">1.1.7</text>
<text text-anchor="middle" x="1968" y="-278" font-family="Times,serif" font-size="10.00" fill="red">(latest: 1.2.0)</text>
</g>
<!-- roo_io&#45;&gt;roo_backport -->
<g id="edge26" class="edge">
<title>roo_io&#45;&gt;roo_backport</title>
<path fill="none" stroke="red" d="M1509.69,-376.75C1543.41,-371.25 1595.29,-360.49 1607,-345 1612.9,-337.2 1608.28,-332.69 1607,-323 1603.64,-297.45 1600.01,-291.49 1592,-267 1589.33,-258.84 1586.58,-257.44 1585,-249 1576.78,-205.16 1587.93,-153.72 1596.86,-122.78"/>
<polygon fill="red" stroke="red" points="1600.24,-123.7 1599.78,-113.11 1593.54,-121.68 1600.24,-123.7"/>
<text text-anchor="middle" x="1618" y="-241" font-family="Times,serif" font-size="10.00" fill="red">1.1.1</text>
<text text-anchor="middle" x="1618" y="-230" font-family="Times,serif" font-size="10.00" fill="red">(latest: 1.2.0)</text>
</g>
<!-- roo_io&#45;&gt;roo_logging -->
<g id="edge27" class="edge">
<title>roo_io&#45;&gt;roo_logging</title>
<path fill="none" stroke="black" d="M1450.29,-376.83C1420.45,-372.76 1373.12,-366.68 1332,-363 1193.66,-350.61 1158.36,-357.17 1020,-345 864.75,-331.35 682.69,-307.81 590.33,-295.33"/>
<polygon fill="black" stroke="black" points="590.71,-291.85 580.33,-293.97 589.77,-298.78 590.71,-291.85"/>
</g>
<!-- roo_io&#45;&gt;roo_testing -->
<g id="edge25" class="edge">
<title>roo_io&#45;&gt;roo_testing</title>
<path fill="none" stroke="red" d="M1491.46,-362.79C1500.12,-347.89 1511.29,-325.94 1516,-305 1519.71,-288.52 1519.28,-283.57 1516,-267 1496.29,-167.5 1507.39,-120.37 1429,-56 1410.43,-40.75 1351.67,-31.05 1305.89,-25.61"/>
<polygon fill="red" stroke="red" points="1306.08,-22.1 1295.75,-24.44 1305.28,-29.06 1306.08,-22.1"/>
<text text-anchor="middle" x="1539" y="-193" font-family="Times,serif" font-size="10.00" fill="red">1.1.8</text>
<text text-anchor="middle" x="1539" y="-182" font-family="Times,serif" font-size="10.00" fill="red">(latest: 1.2.0)</text>
</g>
<!-- roo_io&#45;&gt;roo_threads -->
<g id="edge28" class="edge">
<title>roo_io&#45;&gt;roo_threads</title>
<path fill="none" stroke="red" d="M1450.31,-368.97C1372.94,-337.63 1164.31,-253.11 1064.98,-212.87"/>
<polygon fill="red" stroke="red" points="1066.02,-209.51 1055.43,-209 1063.39,-216 1066.02,-209.51"/>
<text text-anchor="middle" x="1325" y="-289" font-family="Times,serif" font-size="10.00" fill="red">1.1.6</text>
<text text-anchor="middle" x="1325" y="-278" font-family="Times,serif" font-size="10.00" fill="red">(latest: 1.2.0)</text>
</g>
<!-- roo_locale -->
<g id="node11" class="node">
<title>roo_locale</title>
<polygon fill="#b1dbab" stroke="black" points="1808,-593 1720,-593 1720,-555 1808,-555 1808,-593"/>
<text text-anchor="middle" x="1764" y="-577.8" font-family="Times,serif" font-size="14.00">roo_locale</text>
<text text-anchor="middle" x="1764" y="-562.8" font-family="Times,serif" font-size="14.00">1.1.1</text>
</g>
<!-- roo_logging&#45;&gt;roo_flags -->
<g id="edge30" class="edge">
<title>roo_logging&#45;&gt;roo_flags</title>
<path fill="none" stroke="red" d="M479.75,-268.94C464.15,-263.32 447.09,-256.52 432,-249 412.31,-239.19 391.58,-226.05 374.99,-214.76"/>
<polygon fill="red" stroke="red" points="376.94,-211.85 366.72,-209.05 372.96,-217.61 376.94,-211.85"/>
<text text-anchor="middle" x="465" y="-241" font-family="Times,serif" font-size="10.00" fill="red">1.1.1</text>
<text text-anchor="middle" x="465" y="-230" font-family="Times,serif" font-size="10.00" fill="red">(latest: 1.2.0)</text>
</g>
<!-- roo_logging&#45;&gt;roo_testing -->
<g id="edge29" class="edge">
<title>roo_logging&#45;&gt;roo_testing</title>
<path fill="none" stroke="red" d="M527.61,-266.89C525.36,-243.42 524.36,-201.83 540,-171 571.44,-109 583.2,-85.79 646,-56 694.08,-33.19 1046.01,-23.89 1187.92,-21.04"/>
<polygon fill="red" stroke="red" points="1188.24,-24.53 1198.17,-20.84 1188.11,-17.53 1188.24,-24.53"/>
<text text-anchor="middle" x="593" y="-145" font-family="Times,serif" font-size="10.00" fill="red">1.1.8</text>
<text text-anchor="middle" x="593" y="-134" font-family="Times,serif" font-size="10.00" fill="red">(latest: 1.2.0)</text>
</g>
<!-- roo_logging&#45;&gt;roo_threads -->
<g id="edge32" class="edge">
<title>roo_logging&#45;&gt;roo_threads</title>
<path fill="none" stroke="red" d="M580.22,-268.27C621.58,-255.12 681.99,-237.35 736,-227 811.49,-212.53 831.88,-219.62 908,-209 921.74,-207.08 936.46,-204.7 950.35,-202.31"/>
<polygon fill="red" stroke="red" points="951.04,-205.75 960.29,-200.58 949.84,-198.85 951.04,-205.75"/>
<text text-anchor="middle" x="769" y="-241" font-family="Times,serif" font-size="10.00" fill="red">1.1.6</text>
<text text-anchor="middle" x="769" y="-230" font-family="Times,serif" font-size="10.00" fill="red">(latest: 1.2.0)</text>
</g>
<!-- roo_logging&#45;&gt;roo_time -->
<g id="edge31" class="edge">
<title>roo_logging&#45;&gt;roo_time</title>
<path fill="none" stroke="red" d="M530.95,-266.94C533.36,-241.1 541.9,-194.14 572,-171 606.15,-144.75 724.99,-168.96 765,-153 779.7,-147.14 778.43,-137.18 793,-131 862.96,-101.34 951.89,-94.95 1006.34,-94.16"/>
<polygon fill="red" stroke="red" points="1006.46,-97.66 1016.43,-94.08 1006.4,-90.66 1006.46,-97.66"/>
<text text-anchor="middle" x="605" y="-193" font-family="Times,serif" font-size="10.00" fill="red">1.3.3</text>
<text text-anchor="middle" x="605" y="-182" font-family="Times,serif" font-size="10.00" fill="red">(latest: 1.4.0)</text>
</g>
<!-- roo_onewire -->
<g id="node13" class="node">
<title>roo_onewire</title>
<polygon fill="plum" stroke="black" points="562,-497 458,-497 458,-459 562,-459 562,-497"/>
<text text-anchor="middle" x="510" y="-481.8" font-family="Times,serif" font-size="14.00">roo_onewire</text>
<text text-anchor="middle" x="510" y="-466.8" font-family="Times,serif" font-size="14.00">2.0.5</text>
</g>
<!-- roo_onewire&#45;&gt;roo_quantity -->
<g id="edge35" class="edge">
<title>roo_onewire&#45;&gt;roo_quantity</title>
<path fill="none" stroke="black" d="M506.92,-458.88C504.61,-445.35 501.42,-426.62 498.79,-411.15"/>
<polygon fill="black" stroke="black" points="502.2,-410.34 497.08,-401.07 495.3,-411.51 502.2,-410.34"/>
</g>
<!-- roo_onewire&#45;&gt;roo_scheduler -->
<g id="edge34" class="edge">
<title>roo_onewire&#45;&gt;roo_scheduler</title>
<path fill="none" stroke="black" d="M552.6,-458.95C583.17,-445.11 624.69,-424.43 658,-401 668.32,-393.74 721,-343.66 753.67,-312.34"/>
<polygon fill="black" stroke="black" points="756.32,-314.65 761.11,-305.2 751.47,-309.6 756.32,-314.65"/>
</g>
<!-- roo_onewire&#45;&gt;roo_testing -->
<g id="edge33" class="edge">
<title>roo_onewire&#45;&gt;roo_testing</title>
<path fill="none" stroke="red" d="M457.82,-462.68C365.5,-437.25 183,-386.53 183,-383 183,-383 183,-383 183,-93 183,-42.22 964.46,-24.86 1187.95,-20.94"/>
<polygon fill="red" stroke="red" points="1188.23,-24.43 1198.17,-20.76 1188.11,-17.43 1188.23,-24.43"/>
<text text-anchor="middle" x="216" y="-241" font-family="Times,serif" font-size="10.00" fill="red">1.1.8</text>
<text text-anchor="middle" x="216" y="-230" font-family="Times,serif" font-size="10.00" fill="red">(latest: 1.2.0)</text>
</g>
<!-- roo_prefs -->
<g id="node14" class="node">
<title>roo_prefs</title>
<polygon fill="plum" stroke="black" points="648.5,-401 565.5,-401 565.5,-363 648.5,-363 648.5,-401"/>
<text text-anchor="middle" x="607" y="-385.8" font-family="Times,serif" font-size="14.00">roo_prefs</text>
<text text-anchor="middle" x="607" y="-370.8" font-family="Times,serif" font-size="14.00">1.2.3</text>
</g>
<!-- roo_prefs&#45;&gt;roo_backport -->
<g id="edge37" class="edge">
<title>roo_prefs&#45;&gt;roo_backport</title>
<path fill="none" stroke="red" d="M648.74,-374.13C674.18,-370.22 707.38,-365.59 737,-363 791.16,-358.27 1175.65,-365.51 1226,-345 1273.79,-325.54 1271.11,-298.48 1312,-267 1374.13,-219.17 1392.26,-210.48 1460,-171 1492.75,-151.91 1530.76,-132.2 1559.78,-117.64"/>
<polygon fill="red" stroke="red" points="1561.49,-120.7 1568.87,-113.1 1558.36,-114.43 1561.49,-120.7"/>
<text text-anchor="middle" x="1399" y="-241" font-family="Times,serif" font-size="10.00" fill="red">1.1.1</text>
<text text-anchor="middle" x="1399" y="-230" font-family="Times,serif" font-size="10.00" fill="red">(latest: 1.2.0)</text>
</g>
<!-- roo_prefs&#45;&gt;roo_logging -->
<g id="edge38" class="edge">
<title>roo_prefs&#45;&gt;roo_logging</title>
<path fill="none" stroke="black" d="M592.15,-362.88C580.54,-348.7 564.25,-328.81 551.25,-312.94"/>
<polygon fill="black" stroke="black" points="553.85,-310.59 544.8,-305.07 548.43,-315.02 553.85,-310.59"/>
</g>
<!-- roo_prefs&#45;&gt;roo_scheduler -->
<g id="edge39" class="edge">
<title>roo_prefs&#45;&gt;roo_scheduler</title>
<path fill="none" stroke="black" d="M618.16,-362.8C626.94,-349.92 640.3,-333.19 656,-323 672.73,-312.14 692.81,-304.47 711.89,-299.1"/>
<polygon fill="black" stroke="black" points="712.99,-302.43 721.76,-296.5 711.2,-295.67 712.99,-302.43"/>
</g>
<!-- roo_prefs&#45;&gt;roo_testing -->
<g id="edge36" class="edge">
<title>roo_prefs&#45;&gt;roo_testing</title>
<path fill="none" stroke="red" d="M565.71,-362.94C530.17,-346.53 482.8,-322.33 471,-305 462.58,-292.64 451.81,-184.62 458,-171 484.85,-111.93 510.68,-105.41 568,-75 597.24,-59.49 607.32,-61.23 640,-56 839.19,-24.14 1079.21,-19.78 1188.13,-19.62"/>
<polygon fill="red" stroke="red" points="1188.26,-23.12 1198.25,-19.62 1188.25,-16.12 1188.26,-23.12"/>
<text text-anchor="middle" x="491" y="-193" font-family="Times,serif" font-size="10.00" fill="red">1.1.8</text>
<text text-anchor="middle" x="491" y="-182" font-family="Times,serif" font-size="10.00" fill="red">(latest: 1.2.0)</text>
</g>
<!-- roo_quantity&#45;&gt;roo_flags -->
<g id="edge40" class="edge">
<title>roo_quantity&#45;&gt;roo_flags</title>
<path fill="none" stroke="red" d="M448.42,-362.86C422.42,-350.3 391.26,-331.11 372,-305 353.48,-279.89 346.38,-244.26 343.66,-219.55"/>
<polygon fill="red" stroke="red" points="347.13,-219 342.72,-209.36 340.16,-219.64 347.13,-219"/>
<text text-anchor="middle" x="405" y="-289" font-family="Times,serif" font-size="10.00" fill="red">1.1.1</text>
<text text-anchor="middle" x="405" y="-278" font-family="Times,serif" font-size="10.00" fill="red">(latest: 1.2.0)</text>
</g>
<!-- roo_quantity&#45;&gt;roo_logging -->
<g id="edge41" class="edge">
<title>roo_quantity&#45;&gt;roo_logging</title>
<path fill="none" stroke="black" d="M500.94,-362.88C506.17,-349.22 513.43,-330.26 519.39,-314.71"/>
<polygon fill="black" stroke="black" points="522.77,-315.66 523.08,-305.07 516.24,-313.16 522.77,-315.66"/>
</g>
<!-- roo_quantity&#45;&gt;roo_time -->
<g id="edge42" class="edge">
<title>roo_quantity&#45;&gt;roo_time</title>
<path fill="none" stroke="red" d="M530.29,-362.76C551.66,-349.84 576.83,-330.32 589,-305 596.32,-289.78 594.75,-282.88 589,-267 585.45,-257.21 577.55,-258.79 574,-249 570.67,-239.81 567.49,-234.3 574,-227 597.22,-200.95 696.78,-219.7 730,-209 797.8,-187.16 803.08,-155.41 870,-131 914.48,-114.77 967.76,-105.41 1005.87,-100.33"/>
<polygon fill="red" stroke="red" points="1006.72,-103.75 1016.2,-99 1005.83,-96.8 1006.72,-103.75"/>
<text text-anchor="middle" x="607" y="-241" font-family="Times,serif" font-size="10.00" fill="red">1.3.3</text>
<text text-anchor="middle" x="607" y="-230" font-family="Times,serif" font-size="10.00" fill="red">(latest: 1.4.0)</text>
</g>
<!-- roo_scheduler&#45;&gt;roo_collections -->
<g id="edge44" class="edge">
<title>roo_scheduler&#45;&gt;roo_collections</title>
<path fill="none" stroke="black" d="M838.05,-274.1C854.76,-271.34 873.05,-268.69 890,-267 1107.73,-245.29 1164.74,-275.06 1382,-249 1454.93,-240.25 1537.04,-222.53 1593.95,-208.97"/>
<polygon fill="black" stroke="black" points="1595.02,-212.31 1603.93,-206.57 1593.38,-205.5 1595.02,-212.31"/>
</g>
<!-- roo_scheduler&#45;&gt;roo_testing -->
<g id="edge43" class="edge">
<title>roo_scheduler&#45;&gt;roo_testing</title>
<path fill="none" stroke="red" d="M777.1,-266.97C773.11,-235.25 769.85,-169.25 804,-131 854.84,-74.07 1079.8,-39.98 1188.2,-26.59"/>
<polygon fill="red" stroke="red" points="1188.81,-30.04 1198.32,-25.35 1187.97,-23.09 1188.81,-30.04"/>
<text text-anchor="middle" x="837" y="-145" font-family="Times,serif" font-size="10.00" fill="red">1.1.8</text>
<text text-anchor="middle" x="837" y="-134" font-family="Times,serif" font-size="10.00" fill="red">(latest: 1.2.0)</text>
</g>
<!-- roo_scheduler&#45;&gt;roo_threads -->
<g id="edge45" class="edge">
<title>roo_scheduler&#45;&gt;roo_threads</title>
<path fill="none" stroke="red" d="M838.02,-271.55C855.75,-266.05 874.82,-258.66 891,-249 903.14,-241.75 902.01,-234.51 914,-227 925.28,-219.94 938.16,-213.95 950.77,-209"/>
<polygon fill="red" stroke="red" points="952.19,-212.21 960.33,-205.42 949.73,-205.65 952.19,-212.21"/>
<text text-anchor="middle" x="947" y="-241" font-family="Times,serif" font-size="10.00" fill="red">1.1.6</text>
<text text-anchor="middle" x="947" y="-230" font-family="Times,serif" font-size="10.00" fill="red">(latest: 1.2.0)</text>
</g>
<!-- roo_scheduler&#45;&gt;roo_time -->
<g id="edge46" class="edge">
<title>roo_scheduler&#45;&gt;roo_time</title>
<path fill="none" stroke="red" d="M786.27,-266.82C790.7,-255.04 797.23,-239.6 805,-227 822.06,-199.34 827.33,-192.15 852,-171 878.04,-148.68 886.41,-144.36 918,-131 946.31,-119.03 979.62,-110.2 1006.41,-104.29"/>
<polygon fill="red" stroke="red" points="1007.3,-107.68 1016.34,-102.16 1005.83,-100.83 1007.3,-107.68"/>
<text text-anchor="middle" x="885" y="-193" font-family="Times,serif" font-size="10.00" fill="red">1.3.3</text>
<text text-anchor="middle" x="885" y="-182" font-family="Times,serif" font-size="10.00" fill="red">(latest: 1.4.0)</text>
</g>
<!-- roo_threads&#45;&gt;roo_time -->
<g id="edge47" class="edge">
<title>roo_threads&#45;&gt;roo_time</title>
<path fill="none" stroke="black" d="M1019.68,-170.88C1026.28,-157.09 1035.46,-137.9 1042.95,-122.26"/>
<polygon fill="black" stroke="black" points="1046.19,-123.6 1047.35,-113.07 1039.88,-120.58 1046.19,-123.6"/>
</g>
<!-- roo_time&#45;&gt;roo_testing -->
<g id="edge48" class="edge">
<title>roo_time&#45;&gt;roo_testing</title>
<path fill="none" stroke="black" d="M1095.58,-77.87C1122.89,-67.44 1159.62,-53.4 1190.07,-41.76"/>
<polygon fill="black" stroke="black" points="1191.62,-44.91 1199.71,-38.07 1189.12,-38.37 1191.62,-44.91"/>
</g>
<!-- roo_time_ds3231 -->
<g id="node20" class="node">
<title>roo_time_ds3231</title>
<polygon fill="plum" stroke="black" points="1332,-209 1194,-209 1194,-171 1332,-171 1332,-209"/>
<text text-anchor="middle" x="1263" y="-193.8" font-family="Times,serif" font-size="14.00">roo_time_ds3231</text>
<text text-anchor="middle" x="1263" y="-178.8" font-family="Times,serif" font-size="14.00">1.1.3</text>
</g>
<!-- roo_time_ds3231&#45;&gt;roo_testing -->
<g id="edge49" class="edge">
<title>roo_time_ds3231&#45;&gt;roo_testing</title>
<path fill="none" stroke="red" d="M1261.29,-170.91C1258.5,-141.51 1252.98,-83.13 1249.67,-48.23"/>
<polygon fill="red" stroke="red" points="1253.15,-47.84 1248.72,-38.21 1246.18,-48.5 1253.15,-47.84"/>
<text text-anchor="middle" x="1288" y="-97" font-family="Times,serif" font-size="10.00" fill="red">1.1.8</text>
<text text-anchor="middle" x="1288" y="-86" font-family="Times,serif" font-size="10.00" fill="red">(latest: 1.2.0)</text>
</g>
<!-- roo_time_ds3231&#45;&gt;roo_time -->
<g id="edge50" class="edge">
<title>roo_time_ds3231&#45;&gt;roo_time</title>
<path fill="none" stroke="red" d="M1218.67,-170.93C1207.93,-165.77 1196.74,-159.7 1187,-153 1175.35,-144.98 1176.11,-138.3 1164,-131 1146.05,-120.18 1124.45,-112.15 1105.29,-106.45"/>
<polygon fill="red" stroke="red" points="1106.11,-103.05 1095.53,-103.68 1104.2,-109.78 1106.11,-103.05"/>
<text text-anchor="middle" x="1220" y="-145" font-family="Times,serif" font-size="10.00" fill="red">1.3.3</text>
<text text-anchor="middle" x="1220" y="-134" font-family="Times,serif" font-size="10.00" fill="red">(latest: 1.4.0)</text>
</g>
<!-- roo_transceivers&#45;&gt;roo_prefs -->
<g id="edge52" class="edge">
<title>roo_transceivers&#45;&gt;roo_prefs</title>
<path fill="none" stroke="black" d="M1017.28,-463.68C920.66,-444.68 745.36,-410.21 658.56,-393.14"/>
<polygon fill="black" stroke="black" points="659.16,-389.69 648.67,-391.2 657.81,-396.56 659.16,-389.69"/>
</g>
<!-- roo_transceivers&#45;&gt;roo_testing -->
<g id="edge51" class="edge">
<title>roo_transceivers&#45;&gt;roo_testing</title>
<path fill="none" stroke="red" d="M1112.62,-458.99C1144.75,-436.44 1196.73,-394.68 1223,-345 1239.43,-313.93 1222.17,-299.31 1236,-267 1244.74,-246.57 1247.43,-239.2 1266,-227 1294.65,-208.17 1319.78,-235.92 1341,-209 1359.33,-185.75 1347.83,-111.35 1325,-75 1317.2,-62.58 1305.47,-52.17 1293.46,-43.87"/>
<polygon fill="red" stroke="red" points="1295.01,-40.71 1284.71,-38.2 1291.2,-46.58 1295.01,-40.71"/>
<text text-anchor="middle" x="1299" y="-241" font-family="Times,serif" font-size="10.00" fill="red">1.1.8</text>
<text text-anchor="middle" x="1299" y="-230" font-family="Times,serif" font-size="10.00" fill="red">(latest: 1.2.0)</text>
</g>
<!-- roo_transceivers&#45;&gt;roo_threads -->
<g id="edge53" class="edge">
<title>roo_transceivers&#45;&gt;roo_threads</title>
<path fill="none" stroke="red" d="M1083.64,-458.67C1081.3,-435.31 1075.07,-394.22 1059,-363 1054.1,-353.48 1047.35,-354.78 1043,-345 1021.57,-296.78 1045.47,-277.44 1030,-227 1029.1,-224.05 1027.95,-221.07 1026.67,-218.14"/>
<polygon fill="red" stroke="red" points="1029.79,-216.56 1022.25,-209.11 1023.5,-219.63 1029.79,-216.56"/>
<text text-anchor="middle" x="1076" y="-337" font-family="Times,serif" font-size="10.00" fill="red">1.1.6</text>
<text text-anchor="middle" x="1076" y="-326" font-family="Times,serif" font-size="10.00" fill="red">(latest: 1.2.0)</text>
</g>
<!-- roo_transceivers&#45;&gt;roo_time -->
<g id="edge54" class="edge">
<title>roo_transceivers&#45;&gt;roo_time</title>
<path fill="none" stroke="red" d="M1089.47,-458.79C1095.43,-433.46 1105.6,-386.09 1109,-345 1109.81,-335.26 1110.32,-332.69 1109,-323 1107.88,-314.77 1106.04,-313.05 1104,-305 1087.58,-240.1 1070.65,-163.29 1061.96,-122.95"/>
<polygon fill="red" stroke="red" points="1065.35,-122.09 1059.83,-113.05 1058.51,-123.56 1065.35,-122.09"/>
<text text-anchor="middle" x="1137" y="-289" font-family="Times,serif" font-size="10.00" fill="red">1.3.3</text>
<text text-anchor="middle" x="1137" y="-278" font-family="Times,serif" font-size="10.00" fill="red">(latest: 1.4.0)</text>
</g>
<!-- roo_transport -->
<g id="node22" class="node">
<title>roo_transport</title>
<polygon fill="plum" stroke="black" points="1642,-497 1528,-497 1528,-459 1642,-459 1642,-497"/>
<text text-anchor="middle" x="1585" y="-481.8" font-family="Times,serif" font-size="14.00">roo_transport</text>
<text text-anchor="middle" x="1585" y="-466.8" font-family="Times,serif" font-size="14.00">1.0.2</text>
</g>
<!-- roo_transport&#45;&gt;roo_collections -->
<g id="edge56" class="edge">
<title>roo_transport&#45;&gt;roo_collections</title>
<path fill="none" stroke="black" d="M1592.74,-458.94C1603.27,-433.79 1622.17,-386.62 1634,-345 1646.28,-301.82 1655.58,-250.51 1660.66,-219.37"/>
<polygon fill="black" stroke="black" points="1664.16,-219.67 1662.28,-209.24 1657.25,-218.56 1664.16,-219.67"/>
</g>
<!-- roo_transport&#45;&gt;roo_io -->
<g id="edge57" class="edge">
<title>roo_transport&#45;&gt;roo_io</title>
<path fill="none" stroke="black" d="M1550.81,-458.94C1542.29,-453.7 1533.46,-447.6 1526,-441 1515.52,-431.73 1505.63,-419.85 1497.73,-409.26"/>
<polygon fill="black" stroke="black" points="1500.54,-407.17 1491.84,-401.12 1494.86,-411.27 1500.54,-407.17"/>
</g>
<!-- roo_transport&#45;&gt;roo_testing -->
<g id="edge55" class="edge">
<title>roo_transport&#45;&gt;roo_testing</title>
<path fill="none" stroke="red" d="M1604.1,-458.75C1656.03,-406.83 1792.03,-254.13 1733,-131 1716.8,-97.22 1704.08,-90.55 1670,-75 1606.33,-45.95 1406.09,-29.82 1305.66,-23.36"/>
<polygon fill="red" stroke="red" points="1305.87,-19.87 1295.67,-22.73 1305.43,-26.85 1305.87,-19.87"/>
<text text-anchor="middle" x="1778" y="-241" font-family="Times,serif" font-size="10.00" fill="red">1.1.8</text>
<text text-anchor="middle" x="1778" y="-230" font-family="Times,serif" font-size="10.00" fill="red">(latest: 1.2.0)</text>
</g>
<!-- roo_transport&#45;&gt;roo_threads -->
<g id="edge58" class="edge">
<title>roo_transport&#45;&gt;roo_threads</title>
<path fill="none" stroke="red" d="M1584.41,-458.96C1582.11,-418.67 1570.84,-320.7 1516,-267 1462.64,-214.76 1259.33,-216.19 1185,-209 1147.33,-205.36 1105.11,-201 1071.69,-197.48"/>
<polygon fill="red" stroke="red" points="1071.93,-193.98 1061.61,-196.42 1071.19,-200.95 1071.93,-193.98"/>
<text text-anchor="middle" x="1595" y="-337" font-family="Times,serif" font-size="10.00" fill="red">1.1.6</text>
<text text-anchor="middle" x="1595" y="-326" font-family="Times,serif" font-size="10.00" fill="red">(latest: 1.2.0)</text>
</g>
<!-- roo_wifi -->
<g id="node23" class="node">
<title>roo_wifi</title>
<polygon fill="plum" stroke="black" points="329,-497 257,-497 257,-459 329,-459 329,-497"/>
<text text-anchor="middle" x="293" y="-481.8" font-family="Times,serif" font-size="14.00">roo_wifi</text>
<text text-anchor="middle" x="293" y="-466.8" font-family="Times,serif" font-size="14.00">1.1.2</text>
</g>
<!-- roo_wifi&#45;&gt;roo_prefs -->
<g id="edge60" class="edge">
<title>roo_wifi&#45;&gt;roo_prefs</title>
<path fill="none" stroke="black" d="M329.16,-465.84C336.7,-463.55 344.6,-461.17 352,-459 439.83,-433.18 465.18,-430.13 555.76,-401.31"/>
<polygon fill="black" stroke="black" points="556.88,-404.63 565.33,-398.25 554.74,-397.96 556.88,-404.63"/>
</g>
<!-- roo_wifi&#45;&gt;roo_testing -->
<g id="edge59" class="edge">
<title>roo_wifi&#45;&gt;roo_testing</title>
<path fill="none" stroke="red" d="M256.96,-475.73C199.62,-471.58 94,-454.26 94,-383 94,-383 94,-383 94,-93 94,-37.6 953.01,-23.45 1188.13,-20.61"/>
<polygon fill="red" stroke="red" points="1188.24,-24.11 1198.19,-20.5 1188.15,-17.11 1188.24,-24.11"/>
<text text-anchor="middle" x="127" y="-241" font-family="Times,serif" font-size="10.00" fill="red">1.1.8</text>
<text text-anchor="middle" x="127" y="-230" font-family="Times,serif" font-size="10.00" fill="red">(latest: 1.2.0)</text>
</g>
<!-- roo_windows&#45;&gt;roo_icons -->
<g id="edge64" class="edge">
<title>roo_windows&#45;&gt;roo_icons</title>
<path fill="none" stroke="black" d="M1491.3,-650.88C1525.27,-635.6 1574.02,-613.67 1610.39,-597.31"/>
<polygon fill="black" stroke="black" points="1612.14,-600.36 1619.83,-593.07 1609.27,-593.98 1612.14,-600.36"/>
</g>
<!-- roo_windows&#45;&gt;roo_io -->
<g id="edge65" class="edge">
<title>roo_windows&#45;&gt;roo_io</title>
<path fill="none" stroke="red" d="M1452.86,-650.67C1457.79,-602.04 1471.23,-469.47 1477.14,-411.16"/>
<polygon fill="red" stroke="red" points="1480.63,-411.48 1478.16,-401.17 1473.67,-410.77 1480.63,-411.48"/>
<text text-anchor="middle" x="1499" y="-529" font-family="Times,serif" font-size="10.00" fill="red">2.0.2</text>
<text text-anchor="middle" x="1499" y="-518" font-family="Times,serif" font-size="10.00" fill="red">(latest: 2.0.3)</text>
</g>
<!-- roo_windows&#45;&gt;roo_locale -->
<g id="edge62" class="edge">
<title>roo_windows&#45;&gt;roo_locale</title>
<path fill="none" stroke="black" d="M1505.74,-653.74C1556.33,-639.47 1633.81,-617.19 1710.03,-593.25"/>
<polygon fill="black" stroke="black" points="1711.32,-596.51 1719.8,-590.17 1709.21,-589.84 1711.32,-596.51"/>
</g>
<!-- roo_windows&#45;&gt;roo_logging -->
<g id="edge63" class="edge">
<title>roo_windows&#45;&gt;roo_logging</title>
<path fill="none" stroke="red" d="M1396.48,-667.13C1177.55,-659.27 374,-626.88 374,-575 374,-575 374,-575 374,-429 374,-372.47 430.72,-332.48 475.76,-309.64"/>
<polygon fill="red" stroke="red" points="477.44,-312.71 484.88,-305.17 474.36,-306.43 477.44,-312.71"/>
<text text-anchor="middle" x="407" y="-481" font-family="Times,serif" font-size="10.00" fill="red">1.4.2</text>
<text text-anchor="middle" x="407" y="-470" font-family="Times,serif" font-size="10.00" fill="red">(latest: 1.4.3)</text>
</g>
<!-- roo_windows&#45;&gt;roo_scheduler -->
<g id="edge66" class="edge">
<title>roo_windows&#45;&gt;roo_scheduler</title>
<path fill="none" stroke="red" d="M1396.36,-666.08C1249.27,-657.48 856,-629.41 856,-575 856,-575 856,-575 856,-429 856,-384.15 826.16,-339.75 803.88,-312.85"/>
<polygon fill="red" stroke="red" points="806.4,-310.42 797.25,-305.08 801.08,-314.96 806.4,-310.42"/>
<text text-anchor="middle" x="889" y="-481" font-family="Times,serif" font-size="10.00" fill="red">2.1.4</text>
<text text-anchor="middle" x="889" y="-470" font-family="Times,serif" font-size="10.00" fill="red">(latest: 2.1.5)</text>
</g>
<!-- roo_windows&#45;&gt;roo_testing -->
<g id="edge61" class="edge">
<title>roo_windows&#45;&gt;roo_testing</title>
<path fill="none" stroke="red" d="M1505.59,-665.6C1647.13,-656.05 2015,-626.31 2015,-575 2015,-575 2015,-575 2015,-93 2015,-21.81 1485.22,-18.52 1305.68,-19.45"/>
<polygon fill="red" stroke="red" points="1305.6,-15.95 1295.62,-19.5 1305.64,-22.95 1305.6,-15.95"/>
<text text-anchor="middle" x="2048" y="-337" font-family="Times,serif" font-size="10.00" fill="red">1.1.7</text>
<text text-anchor="middle" x="2048" y="-326" font-family="Times,serif" font-size="10.00" fill="red">(latest: 1.2.0)</text>
</g>
<!-- roo_windows&#45;&gt;roo_time -->
<g id="edge67" class="edge">
<title>roo_windows&#45;&gt;roo_time</title>
<path fill="none" stroke="red" d="M1442.27,-650.52C1407.3,-577.82 1270.95,-306.99 1100,-131 1096.31,-127.2 1092.24,-123.42 1088.1,-119.81"/>
<polygon fill="red" stroke="red" points="1090.06,-116.88 1080.16,-113.11 1085.55,-122.23 1090.06,-116.88"/>
<text text-anchor="middle" x="1337" y="-385" font-family="Times,serif" font-size="10.00" fill="red">1.3.2</text>
<text text-anchor="middle" x="1337" y="-374" font-family="Times,serif" font-size="10.00" fill="red">(latest: 1.4.0)</text>
</g>
<!-- roo_windows_wifi -->
<g id="node25" class="node">
<title>roo_windows_wifi</title>
<polygon fill="plum" stroke="black" points="1521.5,-764 1380.5,-764 1380.5,-726 1521.5,-726 1521.5,-764"/>
<text text-anchor="middle" x="1451" y="-748.8" font-family="Times,serif" font-size="14.00">roo_windows_wifi</text>
<text text-anchor="middle" x="1451" y="-733.8" font-family="Times,serif" font-size="14.00">1.1.2</text>
</g>
<!-- roo_windows_wifi&#45;&gt;roo_testing -->
<g id="edge68" class="edge">
<title>roo_windows_wifi&#45;&gt;roo_testing</title>
<path fill="none" stroke="red" d="M1521.56,-743.28C1688.92,-740.63 2096,-728.3 2096,-671 2096,-671 2096,-671 2096,-93 2096,-32.93 2025.27,-65.79 1966,-56 1839.56,-35.12 1454.29,-24.59 1306.02,-21.23"/>
<polygon fill="red" stroke="red" points="1305.84,-17.72 1295.76,-21 1305.68,-24.72 1305.84,-17.72"/>
<text text-anchor="middle" x="2129" y="-385" font-family="Times,serif" font-size="10.00" fill="red">1.1.7</text>
<text text-anchor="middle" x="2129" y="-374" font-family="Times,serif" font-size="10.00" fill="red">(latest: 1.2.0)</text>
</g>
<!-- roo_windows_wifi&#45;&gt;roo_wifi -->
<g id="edge69" class="edge">
<title>roo_windows_wifi&#45;&gt;roo_wifi</title>
<path fill="none" stroke="red" d="M1380.47,-742.61C1140.67,-737.15 367.54,-713.41 294,-633 263.01,-599.12 273.15,-541.39 283.18,-507.06"/>
<polygon fill="red" stroke="red" points="286.62,-507.8 286.25,-497.21 279.93,-505.72 286.62,-507.8"/>
<text text-anchor="middle" x="327" y="-625" font-family="Times,serif" font-size="10.00" fill="red">1.1.1</text>
<text text-anchor="middle" x="327" y="-614" font-family="Times,serif" font-size="10.00" fill="red">(latest: 1.1.2)</text>
</g>
<!-- roo_windows_wifi&#45;&gt;roo_windows -->
<g id="edge70" class="edge">
<title>roo_windows_wifi&#45;&gt;roo_windows</title>
<path fill="none" stroke="black" d="M1451,-725.96C1451,-717.88 1451,-708.18 1451,-699.18"/>
<polygon fill="black" stroke="black" points="1454.5,-699.09 1451,-689.09 1447.5,-699.09 1454.5,-699.09"/>
</g>
</g>
</svg>
