<?xml version="1.0" encoding="UTF-8" standalone="no"?>
<!DOCTYPE svg PUBLIC "-//W3C//DTD SVG 1.1//EN"
 "http://www.w3.org/Graphics/SVG/1.1/DTD/svg11.dtd">
<!-- Generated by graphviz version 2.42.4 (0)
 -->
<!-- Title: dependencies Pages: 1 -->
<svg width="1061pt" height="793pt"
 viewBox="0.00 0.00 1060.50 793.00" xmlns="http://www.w3.org/2000/svg" xmlns:xlink="http://www.w3.org/1999/xlink">
<g id="graph0" class="graph" transform="scale(1 1) rotate(0) translate(4 789)">
<title>dependencies</title>
<polygon fill="white" stroke="transparent" points="-4,4 -4,-789 1056.5,-789 1056.5,4 -4,4"/>
<!-- roo_backport -->
<g id="node1" class="node">
<title>roo_backport</title>
<polygon fill="#b1dbab" stroke="black" points="575,-209 486,-209 486,-171 575,-171 575,-209"/>
<text text-anchor="middle" x="530.5" y="-193.8" font-family="Times,serif" font-size="14.00">roo_backport</text>
<text text-anchor="middle" x="530.5" y="-178.8" font-family="Times,serif" font-size="14.00">1.2.2</text>
</g>
<!-- roo_blink -->
<g id="node2" class="node">
<title>roo_blink</title>
<polygon fill="#b1dbab" stroke="red" points="271,-593 202,-593 202,-555 271,-555 271,-593"/>
<text text-anchor="middle" x="236.5" y="-577.8" font-family="Times,serif" font-size="14.00">roo_blink</text>
<text text-anchor="middle" x="236.5" y="-562.8" font-family="Times,serif" font-size="14.00">1.0.6</text>
</g>
<!-- roo_logging -->
<g id="node16" class="node">
<title>roo_logging</title>
<polygon fill="#b1dbab" stroke="black" points="415,-305 332,-305 332,-267 415,-267 415,-305"/>
<text text-anchor="middle" x="373.5" y="-289.8" font-family="Times,serif" font-size="14.00">roo_logging</text>
<text text-anchor="middle" x="373.5" y="-274.8" font-family="Times,serif" font-size="14.00">1.5.7</text>
</g>
<!-- roo_blink&#45;&gt;roo_logging -->
<g id="edge1" class="edge">
<title>roo_blink&#45;&gt;roo_logging</title>
<path fill="none" stroke="red" d="M231.87,-554.99C226.85,-531.98 220.97,-491.26 232.5,-459 244.44,-425.6 311.88,-351.53 349,-312.39"/>
<polygon fill="red" stroke="red" points="351.63,-314.7 355.99,-305.04 346.56,-309.87 351.63,-314.7"/>
<text text-anchor="middle" x="283.5" y="-433" font-family="Times,serif" font-size="10.00" fill="red">1.5.5</text>
<text text-anchor="middle" x="283.5" y="-422" font-family="Times,serif" font-size="10.00" fill="red">(latest: 1.5.7)</text>
</g>
<!-- roo_scheduler -->
<g id="node22" class="node">
<title>roo_scheduler</title>
<polygon fill="#b1dbab" stroke="red" points="335,-497 242,-497 242,-459 335,-459 335,-497"/>
<text text-anchor="middle" x="288.5" y="-481.8" font-family="Times,serif" font-size="14.00">roo_scheduler</text>
<text text-anchor="middle" x="288.5" y="-466.8" font-family="Times,serif" font-size="14.00">2.1.9</text>
</g>
<!-- roo_blink&#45;&gt;roo_scheduler -->
<g id="edge2" class="edge">
<title>roo_blink&#45;&gt;roo_scheduler</title>
<path fill="none" stroke="black" d="M252.03,-554.99C256.39,-549.44 260.92,-543.16 264.5,-537 270.05,-527.46 274.96,-516.4 278.87,-506.5"/>
<polygon fill="black" stroke="black" points="282.17,-507.69 282.44,-497.1 275.62,-505.21 282.17,-507.69"/>
</g>
<!-- roo_collections -->
<g id="node3" class="node">
<title>roo_collections</title>
<polygon fill="#b1dbab" stroke="black" points="763.5,-401 663.5,-401 663.5,-363 763.5,-363 763.5,-401"/>
<text text-anchor="middle" x="713.5" y="-385.8" font-family="Times,serif" font-size="14.00">roo_collections</text>
<text text-anchor="middle" x="713.5" y="-370.8" font-family="Times,serif" font-size="14.00">1.4.3</text>
</g>
<!-- roo_collections&#45;&gt;roo_backport -->
<g id="edge3" class="edge">
<title>roo_collections&#45;&gt;roo_backport</title>
<path fill="none" stroke="black" d="M695.95,-362.78C663.16,-328.74 592.52,-255.39 555.03,-216.47"/>
<polygon fill="black" stroke="black" points="557.45,-213.94 547.99,-209.16 552.41,-218.79 557.45,-213.94"/>
</g>
<!-- roo_comms -->
<g id="node4" class="node">
<title>roo_comms</title>
<polygon fill="#b1dbab" stroke="red" points="220.5,-785 138.5,-785 138.5,-747 220.5,-747 220.5,-785"/>
<text text-anchor="middle" x="179.5" y="-769.8" font-family="Times,serif" font-size="14.00">roo_comms</text>
<text text-anchor="middle" x="179.5" y="-754.8" font-family="Times,serif" font-size="14.00">1.1.4</text>
</g>
<!-- roo_comms&#45;&gt;roo_blink -->
<g id="edge4" class="edge">
<title>roo_comms&#45;&gt;roo_blink</title>
<path fill="none" stroke="black" d="M180.85,-746.83C182.92,-724 187.83,-683.82 198.5,-651 204.04,-633.97 212.87,-616 220.63,-601.81"/>
<polygon fill="black" stroke="black" points="223.68,-603.51 225.52,-593.08 217.58,-600.09 223.68,-603.51"/>
</g>
<!-- roo_control -->
<g id="node5" class="node">
<title>roo_control</title>
<polygon fill="#b1dbab" stroke="red" points="183.5,-593 103.5,-593 103.5,-555 183.5,-555 183.5,-593"/>
<text text-anchor="middle" x="143.5" y="-577.8" font-family="Times,serif" font-size="14.00">roo_control</text>
<text text-anchor="middle" x="143.5" y="-562.8" font-family="Times,serif" font-size="14.00">1.2.5</text>
</g>
<!-- roo_comms&#45;&gt;roo_control -->
<g id="edge5" class="edge">
<title>roo_comms&#45;&gt;roo_control</title>
<path fill="none" stroke="black" d="M169.51,-746.76C166.85,-741.2 164.23,-734.97 162.5,-729 150.16,-686.41 145.84,-634.93 144.32,-603.59"/>
<polygon fill="black" stroke="black" points="147.81,-603.24 143.89,-593.39 140.81,-603.53 147.81,-603.24"/>
</g>
<!-- roo_io -->
<g id="node13" class="node">
<title>roo_io</title>
<polygon fill="#b1dbab" stroke="black" points="517.5,-401 463.5,-401 463.5,-363 517.5,-363 517.5,-401"/>
<text text-anchor="middle" x="490.5" y="-385.8" font-family="Times,serif" font-size="14.00">roo_io</text>
<text text-anchor="middle" x="490.5" y="-370.8" font-family="Times,serif" font-size="14.00">2.2.0</text>
</g>
<!-- roo_comms&#45;&gt;roo_io -->
<g id="edge6" class="edge">
<title>roo_comms&#45;&gt;roo_io</title>
<path fill="none" stroke="red" d="M220.82,-751.28C226.71,-749.65 232.72,-748.16 238.5,-747 277.91,-739.1 388.19,-755.41 418.5,-729 438.49,-711.58 432.5,-697.52 432.5,-671 432.5,-671 432.5,-671 432.5,-477 432.5,-451.06 448.7,-426.28 463.97,-408.69"/>
<polygon fill="red" stroke="red" points="466.71,-410.88 470.86,-401.13 461.54,-406.16 466.71,-410.88"/>
<text text-anchor="middle" x="459.5" y="-577" font-family="Times,serif" font-size="10.00" fill="red">2.1.5</text>
<text text-anchor="middle" x="459.5" y="-566" font-family="Times,serif" font-size="10.00" fill="red">(latest: 2.2.0)</text>
</g>
<!-- roo_transceivers -->
<g id="node27" class="node">
<title>roo_transceivers</title>
<polygon fill="#b1dbab" stroke="red" points="313.5,-689 207.5,-689 207.5,-651 313.5,-651 313.5,-689"/>
<text text-anchor="middle" x="260.5" y="-673.8" font-family="Times,serif" font-size="14.00">roo_transceivers</text>
<text text-anchor="middle" x="260.5" y="-658.8" font-family="Times,serif" font-size="14.00">1.1.6</text>
</g>
<!-- roo_comms&#45;&gt;roo_transceivers -->
<g id="edge7" class="edge">
<title>roo_comms&#45;&gt;roo_transceivers</title>
<path fill="none" stroke="red" d="M189.55,-746.78C196.58,-734.84 206.62,-719.23 217.5,-707 220.89,-703.19 224.7,-699.43 228.6,-695.86"/>
<polygon fill="red" stroke="red" points="230.92,-698.48 236.16,-689.26 226.32,-693.2 230.92,-698.48"/>
<text text-anchor="middle" x="244.5" y="-721" font-family="Times,serif" font-size="10.00" fill="red">1.1.5</text>
<text text-anchor="middle" x="244.5" y="-710" font-family="Times,serif" font-size="10.00" fill="red">(latest: 1.1.6)</text>
</g>
<!-- roo_quantity -->
<g id="node21" class="node">
<title>roo_quantity</title>
<polygon fill="#b1dbab" stroke="red" points="185.5,-497 99.5,-497 99.5,-459 185.5,-459 185.5,-497"/>
<text text-anchor="middle" x="142.5" y="-481.8" font-family="Times,serif" font-size="14.00">roo_quantity</text>
<text text-anchor="middle" x="142.5" y="-466.8" font-family="Times,serif" font-size="14.00">1.1.8</text>
</g>
<!-- roo_control&#45;&gt;roo_quantity -->
<g id="edge8" class="edge">
<title>roo_control&#45;&gt;roo_quantity</title>
<path fill="none" stroke="black" d="M143.31,-554.88C143.16,-541.35 142.96,-522.62 142.8,-507.15"/>
<polygon fill="black" stroke="black" points="146.3,-507.03 142.69,-497.07 139.3,-507.11 146.3,-507.03"/>
</g>
<!-- roo_control&#45;&gt;roo_scheduler -->
<g id="edge9" class="edge">
<title>roo_control&#45;&gt;roo_scheduler</title>
<path fill="none" stroke="black" d="M171.46,-554.88C194.43,-539.99 227.13,-518.78 252.13,-502.57"/>
<polygon fill="black" stroke="black" points="254.14,-505.45 260.63,-497.07 250.33,-499.57 254.14,-505.45"/>
</g>
<!-- roo_dashboard -->
<g id="node6" class="node">
<title>roo_dashboard</title>
<polygon fill="khaki" stroke="red" points="668,-785 571,-785 571,-747 668,-747 668,-785"/>
<text text-anchor="middle" x="619.5" y="-769.8" font-family="Times,serif" font-size="14.00">roo_dashboard</text>
<text text-anchor="middle" x="619.5" y="-754.8" font-family="Times,serif" font-size="14.00">1.0.1</text>
</g>
<!-- roo_windows -->
<g id="node30" class="node">
<title>roo_windows</title>
<polygon fill="#b1dbab" stroke="red" points="645.5,-689 555.5,-689 555.5,-651 645.5,-651 645.5,-689"/>
<text text-anchor="middle" x="600.5" y="-673.8" font-family="Times,serif" font-size="14.00">roo_windows</text>
<text text-anchor="middle" x="600.5" y="-658.8" font-family="Times,serif" font-size="14.00">1.5.0</text>
</g>
<!-- roo_dashboard&#45;&gt;roo_windows -->
<g id="edge10" class="edge">
<title>roo_dashboard&#45;&gt;roo_windows</title>
<path fill="none" stroke="red" d="M615.84,-746.88C613.1,-733.35 609.32,-714.62 606.19,-699.15"/>
<polygon fill="red" stroke="red" points="609.56,-698.18 604.15,-689.07 602.7,-699.56 609.56,-698.18"/>
<text text-anchor="middle" x="639.5" y="-721" font-family="Times,serif" font-size="10.00" fill="red">1.4.1</text>
<text text-anchor="middle" x="639.5" y="-710" font-family="Times,serif" font-size="10.00" fill="red">(latest: 1.5.0)</text>
</g>
<!-- roo_display -->
<g id="node7" class="node">
<title>roo_display</title>
<polygon fill="plum" stroke="red" points="710.5,-497 630.5,-497 630.5,-459 710.5,-459 710.5,-497"/>
<text text-anchor="middle" x="670.5" y="-481.8" font-family="Times,serif" font-size="14.00">roo_display</text>
<text text-anchor="middle" x="670.5" y="-466.8" font-family="Times,serif" font-size="14.00">3.0.4</text>
</g>
<!-- roo_display&#45;&gt;roo_collections -->
<g id="edge11" class="edge">
<title>roo_display&#45;&gt;roo_collections</title>
<path fill="none" stroke="black" d="M708.43,-458.82C714.89,-453.96 720.73,-448.05 724.5,-441 729.43,-431.78 728.69,-420.7 726.01,-410.71"/>
<polygon fill="black" stroke="black" points="729.31,-409.56 722.82,-401.18 722.68,-411.78 729.31,-409.56"/>
</g>
<!-- roo_display&#45;&gt;roo_io -->
<g id="edge12" class="edge">
<title>roo_display&#45;&gt;roo_io</title>
<path fill="none" stroke="red" d="M630.49,-467.16C610.92,-461.31 587.54,-452.7 568.5,-441 556.45,-433.59 556.58,-427.8 545.5,-419 539.54,-414.27 532.95,-409.56 526.47,-405.18"/>
<polygon fill="red" stroke="red" points="528.04,-402.02 517.76,-399.44 524.19,-407.87 528.04,-402.02"/>
<text text-anchor="middle" x="595.5" y="-433" font-family="Times,serif" font-size="10.00" fill="red">2.1.6</text>
<text text-anchor="middle" x="595.5" y="-422" font-family="Times,serif" font-size="10.00" fill="red">(latest: 2.2.0)</text>
</g>
<!-- roo_display_lvgl -->
<g id="node8" class="node">
<title>roo_display_lvgl</title>
<polygon fill="khaki" stroke="red" points="960.5,-593 852.5,-593 852.5,-555 960.5,-555 960.5,-593"/>
<text text-anchor="middle" x="906.5" y="-577.8" font-family="Times,serif" font-size="14.00">roo_display_lvgl</text>
<text text-anchor="middle" x="906.5" y="-562.8" font-family="Times,serif" font-size="14.00">1.0.0</text>
</g>
<!-- roo_display_lvgl&#45;&gt;roo_display -->
<g id="edge13" class="edge">
<title>roo_display_lvgl&#45;&gt;roo_display</title>
<path fill="none" stroke="red" d="M885.61,-554.98C869.24,-541.84 845.33,-524.7 821.5,-515 781.61,-498.76 765.98,-507.64 720.53,-496.92"/>
<polygon fill="red" stroke="red" points="721.25,-493.49 710.69,-494.41 719.52,-500.27 721.25,-493.49"/>
<text text-anchor="middle" x="888.5" y="-529" font-family="Times,serif" font-size="10.00" fill="red">3.0.3</text>
<text text-anchor="middle" x="888.5" y="-518" font-family="Times,serif" font-size="10.00" fill="red">(latest: 3.0.4)</text>
</g>
<!-- roo_flags -->
<g id="node9" class="node">
<title>roo_flags</title>
<polygon fill="#b1dbab" stroke="black" points="407.5,-209 339.5,-209 339.5,-171 407.5,-171 407.5,-209"/>
<text text-anchor="middle" x="373.5" y="-193.8" font-family="Times,serif" font-size="14.00">roo_flags</text>
<text text-anchor="middle" x="373.5" y="-178.8" font-family="Times,serif" font-size="14.00">1.2.3</text>
</g>
<!-- roo_fonts_basic -->
<g id="node10" class="node">
<title>roo_fonts_basic</title>
<polygon fill="#b1dbab" stroke="red" points="608,-593 505,-593 505,-555 608,-555 608,-593"/>
<text text-anchor="middle" x="556.5" y="-577.8" font-family="Times,serif" font-size="14.00">roo_fonts_basic</text>
<text text-anchor="middle" x="556.5" y="-562.8" font-family="Times,serif" font-size="14.00">1.0.2</text>
</g>
<!-- roo_fonts_basic&#45;&gt;roo_display -->
<g id="edge14" class="edge">
<title>roo_fonts_basic&#45;&gt;roo_display</title>
<path fill="none" stroke="red" d="M574.95,-554.83C587.22,-543.05 603.89,-527.61 619.5,-515 624.48,-510.98 629.88,-506.9 635.23,-503"/>
<polygon fill="red" stroke="red" points="637.45,-505.71 643.55,-497.05 633.38,-500.02 637.45,-505.71"/>
<text text-anchor="middle" x="646.5" y="-529" font-family="Times,serif" font-size="10.00" fill="red">3.0.2</text>
<text text-anchor="middle" x="646.5" y="-518" font-family="Times,serif" font-size="10.00" fill="red">(latest: 3.0.4)</text>
</g>
<!-- roo_fonts_material -->
<g id="node11" class="node">
<title>roo_fonts_material</title>
<polygon fill="#b1dbab" stroke="red" points="746.5,-593 626.5,-593 626.5,-555 746.5,-555 746.5,-593"/>
<text text-anchor="middle" x="686.5" y="-577.8" font-family="Times,serif" font-size="14.00">roo_fonts_material</text>
<text text-anchor="middle" x="686.5" y="-562.8" font-family="Times,serif" font-size="14.00">1.0.0</text>
</g>
<!-- roo_fonts_material&#45;&gt;roo_display -->
<g id="edge15" class="edge">
<title>roo_fonts_material&#45;&gt;roo_display</title>
<path fill="none" stroke="red" d="M683.42,-554.88C681.11,-541.35 677.92,-522.62 675.29,-507.15"/>
<polygon fill="red" stroke="red" points="678.7,-506.34 673.58,-497.07 671.8,-507.51 678.7,-506.34"/>
<text text-anchor="middle" x="707.5" y="-529" font-family="Times,serif" font-size="10.00" fill="red">3.0.2</text>
<text text-anchor="middle" x="707.5" y="-518" font-family="Times,serif" font-size="10.00" fill="red">(latest: 3.0.4)</text>
</g>
<!-- roo_icons -->
<g id="node12" class="node">
<title>roo_icons</title>
<polygon fill="#b1dbab" stroke="red" points="834.5,-593 764.5,-593 764.5,-555 834.5,-555 834.5,-593"/>
<text text-anchor="middle" x="799.5" y="-577.8" font-family="Times,serif" font-size="14.00">roo_icons</text>
<text text-anchor="middle" x="799.5" y="-562.8" font-family="Times,serif" font-size="14.00">1.2.2</text>
</g>
<!-- roo_icons&#45;&gt;roo_display -->
<g id="edge16" class="edge">
<title>roo_icons&#45;&gt;roo_display</title>
<path fill="none" stroke="red" d="M783,-554.9C771.32,-542.71 754.87,-526.78 738.5,-515 732.1,-510.39 725.03,-506 717.94,-501.96"/>
<polygon fill="red" stroke="red" points="719.45,-498.79 709,-497.04 716.08,-504.93 719.45,-498.79"/>
<text text-anchor="middle" x="790.5" y="-529" font-family="Times,serif" font-size="10.00" fill="red">3.0.2</text>
<text text-anchor="middle" x="790.5" y="-518" font-family="Times,serif" font-size="10.00" fill="red">(latest: 3.0.4)</text>
</g>
<!-- roo_io&#45;&gt;roo_logging -->
<g id="edge17" class="edge">
<title>roo_io&#45;&gt;roo_logging</title>
<path fill="none" stroke="black" d="M467.94,-362.88C449.73,-348.25 423.94,-327.52 403.91,-311.43"/>
<polygon fill="black" stroke="black" points="405.98,-308.6 395.99,-305.07 401.59,-314.06 405.98,-308.6"/>
</g>
<!-- roo_io_sdfat -->
<g id="node14" class="node">
<title>roo_io_sdfat</title>
<polygon fill="plum" stroke="black" points="771,-785 686,-785 686,-747 771,-747 771,-785"/>
<text text-anchor="middle" x="728.5" y="-769.8" font-family="Times,serif" font-size="14.00">roo_io_sdfat</text>
<text text-anchor="middle" x="728.5" y="-754.8" font-family="Times,serif" font-size="14.00">1.0.0</text>
</g>
<!-- roo_locale -->
<g id="node15" class="node">
<title>roo_locale</title>
<polygon fill="#b1dbab" stroke="black" points="1052.5,-593 978.5,-593 978.5,-555 1052.5,-555 1052.5,-593"/>
<text text-anchor="middle" x="1015.5" y="-577.8" font-family="Times,serif" font-size="14.00">roo_locale</text>
<text text-anchor="middle" x="1015.5" y="-562.8" font-family="Times,serif" font-size="14.00">1.1.2</text>
</g>
<!-- roo_logging&#45;&gt;roo_backport -->
<g id="edge18" class="edge">
<title>roo_logging&#45;&gt;roo_backport</title>
<path fill="none" stroke="black" d="M403.77,-266.88C428.75,-251.92 464.36,-230.6 491.48,-214.36"/>
<polygon fill="black" stroke="black" points="493.54,-217.21 500.32,-209.07 489.94,-211.2 493.54,-217.21"/>
</g>
<!-- roo_logging&#45;&gt;roo_flags -->
<g id="edge19" class="edge">
<title>roo_logging&#45;&gt;roo_flags</title>
<path fill="none" stroke="black" d="M373.5,-266.88C373.5,-253.35 373.5,-234.62 373.5,-219.15"/>
<polygon fill="black" stroke="black" points="377,-219.07 373.5,-209.07 370,-219.07 377,-219.07"/>
</g>
<!-- roo_threads -->
<g id="node24" class="node">
<title>roo_threads</title>
<polygon fill="#b1dbab" stroke="black" points="300.5,-209 220.5,-209 220.5,-171 300.5,-171 300.5,-209"/>
<text text-anchor="middle" x="260.5" y="-193.8" font-family="Times,serif" font-size="14.00">roo_threads</text>
<text text-anchor="middle" x="260.5" y="-178.8" font-family="Times,serif" font-size="14.00">1.2.5</text>
</g>
<!-- roo_logging&#45;&gt;roo_threads -->
<g id="edge20" class="edge">
<title>roo_logging&#45;&gt;roo_threads</title>
<path fill="none" stroke="black" d="M358.45,-266.84C347.95,-254.78 333.24,-239.01 318.5,-227 313.19,-222.67 307.32,-218.47 301.42,-214.55"/>
<polygon fill="black" stroke="black" points="303.12,-211.47 292.81,-209.02 299.34,-217.37 303.12,-211.47"/>
</g>
<!-- roo_monitoring -->
<g id="node17" class="node">
<title>roo_monitoring</title>
<polygon fill="#b1dbab" stroke="red" points="586.5,-497 484.5,-497 484.5,-459 586.5,-459 586.5,-497"/>
<text text-anchor="middle" x="535.5" y="-481.8" font-family="Times,serif" font-size="14.00">roo_monitoring</text>
<text text-anchor="middle" x="535.5" y="-466.8" font-family="Times,serif" font-size="14.00">1.1.1</text>
</g>
<!-- roo_monitoring&#45;&gt;roo_collections -->
<g id="edge21" class="edge">
<title>roo_monitoring&#45;&gt;roo_collections</title>
<path fill="none" stroke="black" d="M586.5,-466.14C634.26,-455.91 698.46,-442.02 699.5,-441 707.38,-433.28 711.13,-421.95 712.82,-411.34"/>
<polygon fill="black" stroke="black" points="716.32,-411.45 713.9,-401.14 709.36,-410.71 716.32,-411.45"/>
</g>
<!-- roo_monitoring&#45;&gt;roo_io -->
<g id="edge22" class="edge">
<title>roo_monitoring&#45;&gt;roo_io</title>
<path fill="none" stroke="red" d="M505.68,-458.65C499.98,-453.67 494.77,-447.75 491.5,-441 487.11,-431.95 486,-421.13 486.27,-411.3"/>
<polygon fill="red" stroke="red" points="489.77,-411.39 487.02,-401.16 482.79,-410.88 489.77,-411.39"/>
<text text-anchor="middle" x="518.5" y="-433" font-family="Times,serif" font-size="10.00" fill="red">2.1.6</text>
<text text-anchor="middle" x="518.5" y="-422" font-family="Times,serif" font-size="10.00" fill="red">(latest: 2.2.0)</text>
</g>
<!-- roo_onewire -->
<g id="node18" class="node">
<title>roo_onewire</title>
<polygon fill="#b1dbab" stroke="red" points="85,-593 0,-593 0,-555 85,-555 85,-593"/>
<text text-anchor="middle" x="42.5" y="-577.8" font-family="Times,serif" font-size="14.00">roo_onewire</text>
<text text-anchor="middle" x="42.5" y="-562.8" font-family="Times,serif" font-size="14.00">2.0.9</text>
</g>
<!-- roo_onewire&#45;&gt;roo_quantity -->
<g id="edge24" class="edge">
<title>roo_onewire&#45;&gt;roo_quantity</title>
<path fill="none" stroke="black" d="M55.79,-554.96C65.09,-542.96 78.19,-527.2 91.5,-515 95.95,-510.92 100.88,-506.91 105.87,-503.13"/>
<polygon fill="black" stroke="black" points="108.23,-505.74 114.25,-497.02 104.11,-500.08 108.23,-505.74"/>
</g>
<!-- roo_onewire&#45;&gt;roo_scheduler -->
<g id="edge23" class="edge">
<title>roo_onewire&#45;&gt;roo_scheduler</title>
<path fill="none" stroke="black" d="M85.07,-556.73C125.81,-541.17 187.52,-517.59 232.28,-500.48"/>
<polygon fill="black" stroke="black" points="233.76,-503.67 241.85,-496.83 231.26,-497.13 233.76,-503.67"/>
</g>
<!-- roo_powersafefs -->
<g id="node19" class="node">
<title>roo_powersafefs</title>
<polygon fill="khaki" stroke="red" points="314,-305 207,-305 207,-267 314,-267 314,-305"/>
<text text-anchor="middle" x="260.5" y="-289.8" font-family="Times,serif" font-size="14.00">roo_powersafefs</text>
<text text-anchor="middle" x="260.5" y="-274.8" font-family="Times,serif" font-size="14.00">1.0.0</text>
</g>
<!-- roo_powersafefs&#45;&gt;roo_threads -->
<g id="edge25" class="edge">
<title>roo_powersafefs&#45;&gt;roo_threads</title>
<path fill="none" stroke="red" d="M260.5,-266.88C260.5,-253.35 260.5,-234.62 260.5,-219.15"/>
<polygon fill="red" stroke="red" points="264,-219.07 260.5,-209.07 257,-219.07 264,-219.07"/>
<text text-anchor="middle" x="287.5" y="-241" font-family="Times,serif" font-size="10.00" fill="red">1.2.1</text>
<text text-anchor="middle" x="287.5" y="-230" font-family="Times,serif" font-size="10.00" fill="red">(latest: 1.2.5)</text>
</g>
<!-- roo_prefs -->
<g id="node20" class="node">
<title>roo_prefs</title>
<polygon fill="#b1dbab" stroke="red" points="358.5,-593 290.5,-593 290.5,-555 358.5,-555 358.5,-593"/>
<text text-anchor="middle" x="324.5" y="-577.8" font-family="Times,serif" font-size="14.00">roo_prefs</text>
<text text-anchor="middle" x="324.5" y="-562.8" font-family="Times,serif" font-size="14.00">1.2.11</text>
</g>
<!-- roo_prefs&#45;&gt;roo_logging -->
<g id="edge26" class="edge">
<title>roo_prefs&#45;&gt;roo_logging</title>
<path fill="none" stroke="red" d="M329.56,-555C333.73,-539.67 339.58,-517.02 343.5,-497 356.15,-432.44 365.75,-355.74 370.4,-315.26"/>
<polygon fill="red" stroke="red" points="373.91,-315.41 371.55,-305.08 366.95,-314.63 373.91,-315.41"/>
<text text-anchor="middle" x="384.5" y="-433" font-family="Times,serif" font-size="10.00" fill="red">1.5.6</text>
<text text-anchor="middle" x="384.5" y="-422" font-family="Times,serif" font-size="10.00" fill="red">(latest: 1.5.7)</text>
</g>
<!-- roo_prefs&#45;&gt;roo_scheduler -->
<g id="edge27" class="edge">
<title>roo_prefs&#45;&gt;roo_scheduler</title>
<path fill="none" stroke="black" d="M317.56,-554.88C312.33,-541.22 305.07,-522.26 299.11,-506.71"/>
<polygon fill="black" stroke="black" points="302.26,-505.16 295.42,-497.07 295.73,-507.66 302.26,-505.16"/>
</g>
<!-- roo_quantity&#45;&gt;roo_logging -->
<g id="edge28" class="edge">
<title>roo_quantity&#45;&gt;roo_logging</title>
<path fill="none" stroke="red" d="M151.02,-458.99C162.81,-435.25 185.83,-392.99 213.5,-363 223.63,-352.02 254.23,-329.86 267.5,-323 287.94,-312.44 296.34,-312.99 321.95,-305.02"/>
<polygon fill="red" stroke="red" points="323.36,-308.24 331.78,-301.81 321.19,-301.59 323.36,-308.24"/>
<text text-anchor="middle" x="240.5" y="-385" font-family="Times,serif" font-size="10.00" fill="red">1.5.5</text>
<text text-anchor="middle" x="240.5" y="-374" font-family="Times,serif" font-size="10.00" fill="red">(latest: 1.5.7)</text>
</g>
<!-- roo_scheduler&#45;&gt;roo_collections -->
<g id="edge29" class="edge">
<title>roo_scheduler&#45;&gt;roo_collections</title>
<path fill="none" stroke="black" d="M335.24,-465.35C360.86,-458.71 393.09,-449.95 421.5,-441 448.99,-432.34 454.58,-426.14 482.5,-419 539.65,-404.38 606.36,-394.76 653.36,-389.17"/>
<polygon fill="black" stroke="black" points="653.85,-392.64 663.37,-388.01 653.04,-385.69 653.85,-392.64"/>
</g>
<!-- roo_scheduler&#45;&gt;roo_threads -->
<g id="edge30" class="edge">
<title>roo_scheduler&#45;&gt;roo_threads</title>
<path fill="none" stroke="red" d="M283.38,-458.82C279.83,-447.17 274.64,-431.89 268.5,-419 255.67,-392.06 205.71,-333.69 197.5,-305 192.86,-288.76 191.77,-282.89 197.5,-267 204.47,-247.68 218.71,-229.8 231.9,-216.24"/>
<polygon fill="red" stroke="red" points="234.4,-218.69 239.06,-209.17 229.48,-213.7 234.4,-218.69"/>
<text text-anchor="middle" x="246.5" y="-337" font-family="Times,serif" font-size="10.00" fill="red">1.2.3</text>
<text text-anchor="middle" x="246.5" y="-326" font-family="Times,serif" font-size="10.00" fill="red">(latest: 1.2.5)</text>
</g>
<!-- roo_testing -->
<g id="node23" class="node">
<title>roo_testing</title>
<polygon fill="#b1dbab" stroke="black" points="219,-38 142,-38 142,0 219,0 219,-38"/>
<text text-anchor="middle" x="180.5" y="-22.8" font-family="Times,serif" font-size="14.00">roo_testing</text>
<text text-anchor="middle" x="180.5" y="-7.8" font-family="Times,serif" font-size="14.00">1.3.5</text>
</g>
<!-- roo_time -->
<g id="node25" class="node">
<title>roo_time</title>
<polygon fill="#b1dbab" stroke="black" points="213.5,-113 147.5,-113 147.5,-75 213.5,-75 213.5,-113"/>
<text text-anchor="middle" x="180.5" y="-97.8" font-family="Times,serif" font-size="14.00">roo_time</text>
<text text-anchor="middle" x="180.5" y="-82.8" font-family="Times,serif" font-size="14.00">1.4.4</text>
</g>
<!-- roo_threads&#45;&gt;roo_time -->
<g id="edge31" class="edge">
<title>roo_threads&#45;&gt;roo_time</title>
<path fill="none" stroke="black" d="M250.8,-170.76C243.99,-158.81 234.22,-143.2 223.5,-131 220.13,-127.17 216.34,-123.39 212.44,-119.82"/>
<polygon fill="black" stroke="black" points="214.72,-117.16 204.89,-113.22 210.12,-122.44 214.72,-117.16"/>
</g>
<!-- roo_time&#45;&gt;roo_testing -->
<g id="edge32" class="edge">
<title>roo_time&#45;&gt;roo_testing</title>
<path fill="none" stroke="black" d="M180.5,-74.96C180.5,-66.88 180.5,-57.18 180.5,-48.18"/>
<polygon fill="black" stroke="black" points="184,-48.09 180.5,-38.09 177,-48.09 184,-48.09"/>
</g>
<!-- roo_time_ds3231 -->
<g id="node26" class="node">
<title>roo_time_ds3231</title>
<polygon fill="#b1dbab" stroke="red" points="202.5,-209 90.5,-209 90.5,-171 202.5,-171 202.5,-209"/>
<text text-anchor="middle" x="146.5" y="-193.8" font-family="Times,serif" font-size="14.00">roo_time_ds3231</text>
<text text-anchor="middle" x="146.5" y="-178.8" font-family="Times,serif" font-size="14.00">1.1.6</text>
</g>
<!-- roo_time_ds3231&#45;&gt;roo_time -->
<g id="edge33" class="edge">
<title>roo_time_ds3231&#45;&gt;roo_time</title>
<path fill="none" stroke="red" d="M153.06,-170.88C157.99,-157.22 164.85,-138.26 170.48,-122.71"/>
<polygon fill="red" stroke="red" points="173.85,-123.66 173.96,-113.07 167.27,-121.28 173.85,-123.66"/>
<text text-anchor="middle" x="194.5" y="-145" font-family="Times,serif" font-size="10.00" fill="red">1.4.3</text>
<text text-anchor="middle" x="194.5" y="-134" font-family="Times,serif" font-size="10.00" fill="red">(latest: 1.4.4)</text>
</g>
<!-- roo_transceivers&#45;&gt;roo_prefs -->
<g id="edge34" class="edge">
<title>roo_transceivers&#45;&gt;roo_prefs</title>
<path fill="none" stroke="red" d="M263.64,-650.79C266.37,-638.7 271.23,-622.93 279.5,-611 282.14,-607.2 285.29,-603.59 288.69,-600.24"/>
<polygon fill="red" stroke="red" points="291.29,-602.6 296.4,-593.32 286.62,-597.39 291.29,-602.6"/>
<text text-anchor="middle" x="308.5" y="-625" font-family="Times,serif" font-size="10.00" fill="red">1.2.10</text>
<text text-anchor="middle" x="308.5" y="-614" font-family="Times,serif" font-size="10.00" fill="red">(latest: 1.2.11)</text>
</g>
<!-- roo_transport -->
<g id="node28" class="node">
<title>roo_transport</title>
<polygon fill="#b1dbab" stroke="red" points="818,-497 729,-497 729,-459 818,-459 818,-497"/>
<text text-anchor="middle" x="773.5" y="-481.8" font-family="Times,serif" font-size="14.00">roo_transport</text>
<text text-anchor="middle" x="773.5" y="-466.8" font-family="Times,serif" font-size="14.00">1.1.2</text>
</g>
<!-- roo_transport&#45;&gt;roo_collections -->
<g id="edge35" class="edge">
<title>roo_transport&#45;&gt;roo_collections</title>
<path fill="none" stroke="black" d="M763.96,-458.88C757.66,-447.26 749.01,-431.98 740.5,-419 738.45,-415.88 736.23,-412.66 733.96,-409.5"/>
<polygon fill="black" stroke="black" points="736.72,-407.34 727.97,-401.36 731.08,-411.49 736.72,-407.34"/>
</g>
<!-- roo_transport&#45;&gt;roo_io -->
<g id="edge36" class="edge">
<title>roo_transport&#45;&gt;roo_io</title>
<path fill="none" stroke="red" d="M728.66,-459.21C691.89,-444.72 642.72,-425.62 622.5,-419 590.81,-408.62 554.19,-398.8 527.57,-392.05"/>
<polygon fill="red" stroke="red" points="528.08,-388.57 517.53,-389.53 526.38,-395.36 528.08,-388.57"/>
<text text-anchor="middle" x="705.5" y="-433" font-family="Times,serif" font-size="10.00" fill="red">2.1.5</text>
<text text-anchor="middle" x="705.5" y="-422" font-family="Times,serif" font-size="10.00" fill="red">(latest: 2.2.0)</text>
</g>
<!-- roo_wifi -->
<g id="node29" class="node">
<title>roo_wifi</title>
<polygon fill="khaki" stroke="red" points="395,-689 332,-689 332,-651 395,-651 395,-689"/>
<text text-anchor="middle" x="363.5" y="-673.8" font-family="Times,serif" font-size="14.00">roo_wifi</text>
<text text-anchor="middle" x="363.5" y="-658.8" font-family="Times,serif" font-size="14.00">1.1.4</text>
</g>
<!-- roo_wifi&#45;&gt;roo_prefs -->
<g id="edge37" class="edge">
<title>roo_wifi&#45;&gt;roo_prefs</title>
<path fill="none" stroke="red" d="M355.98,-650.88C350.32,-637.22 342.45,-618.26 336,-602.71"/>
<polygon fill="red" stroke="red" points="339.06,-600.96 332,-593.07 332.6,-603.65 339.06,-600.96"/>
<text text-anchor="middle" x="376.5" y="-625" font-family="Times,serif" font-size="10.00" fill="red">1.2.9</text>
<text text-anchor="middle" x="376.5" y="-614" font-family="Times,serif" font-size="10.00" fill="red">(latest: 1.2.11)</text>
</g>
<!-- roo_windows&#45;&gt;roo_fonts_basic -->
<g id="edge38" class="edge">
<title>roo_windows&#45;&gt;roo_fonts_basic</title>
<path fill="none" stroke="black" d="M592.02,-650.88C585.56,-637.09 576.58,-617.9 569.26,-602.26"/>
<polygon fill="black" stroke="black" points="572.37,-600.64 564.96,-593.07 566.03,-603.61 572.37,-600.64"/>
</g>
<!-- roo_windows&#45;&gt;roo_fonts_material -->
<g id="edge39" class="edge">
<title>roo_windows&#45;&gt;roo_fonts_material</title>
<path fill="none" stroke="black" d="M617.08,-650.88C630.17,-636.57 648.59,-616.44 663.16,-600.51"/>
<polygon fill="black" stroke="black" points="665.8,-602.81 669.97,-593.07 660.64,-598.08 665.8,-602.81"/>
</g>
<!-- roo_windows&#45;&gt;roo_icons -->
<g id="edge41" class="edge">
<title>roo_windows&#45;&gt;roo_icons</title>
<path fill="none" stroke="black" d="M638.87,-650.88C672.01,-635.22 719.92,-612.59 754.79,-596.12"/>
<polygon fill="black" stroke="black" points="756.71,-599.09 764.25,-591.65 753.72,-592.76 756.71,-599.09"/>
</g>
<!-- roo_windows&#45;&gt;roo_locale -->
<g id="edge40" class="edge">
<title>roo_windows&#45;&gt;roo_locale</title>
<path fill="none" stroke="black" d="M645.69,-662.23C714.02,-651.45 847.61,-628.22 968.49,-593.06"/>
<polygon fill="black" stroke="black" points="969.67,-596.36 978.28,-590.18 967.7,-589.64 969.67,-596.36"/>
</g>
<!-- roo_windows&#45;&gt;roo_scheduler -->
<g id="edge42" class="edge">
<title>roo_windows&#45;&gt;roo_scheduler</title>
<path fill="none" stroke="black" d="M555.26,-656.15C515.29,-643.6 456.38,-622.15 410.5,-593 399.85,-586.24 347.29,-535.98 314.73,-504.49"/>
<polygon fill="black" stroke="black" points="316.94,-501.75 307.32,-497.31 312.07,-506.78 316.94,-501.75"/>
</g>
<!-- roo_windows_transceivers -->
<g id="node31" class="node">
<title>roo_windows_transceivers</title>
<polygon fill="khaki" stroke="red" points="409,-785 248,-785 248,-747 409,-747 409,-785"/>
<text text-anchor="middle" x="328.5" y="-769.8" font-family="Times,serif" font-size="14.00">roo_windows_transceivers</text>
<text text-anchor="middle" x="328.5" y="-754.8" font-family="Times,serif" font-size="14.00">1.0.0</text>
</g>
<!-- roo_windows_transceivers&#45;&gt;roo_transceivers -->
<g id="edge43" class="edge">
<title>roo_windows_transceivers&#45;&gt;roo_transceivers</title>
<path fill="none" stroke="red" d="M304.31,-746.71C298.32,-741.43 292.27,-735.37 287.5,-729 280.59,-719.77 274.84,-708.49 270.45,-698.34"/>
<polygon fill="red" stroke="red" points="273.68,-696.99 266.66,-689.05 267.2,-699.63 273.68,-696.99"/>
<text text-anchor="middle" x="314.5" y="-721" font-family="Times,serif" font-size="10.00" fill="red">1.1.3</text>
<text text-anchor="middle" x="314.5" y="-710" font-family="Times,serif" font-size="10.00" fill="red">(latest: 1.1.6)</text>
</g>
<!-- roo_windows_transceivers&#45;&gt;roo_windows -->
<g id="edge44" class="edge">
<title>roo_windows_transceivers&#45;&gt;roo_windows</title>
<path fill="none" stroke="red" d="M401.48,-746.99C415.84,-742.11 430.48,-736.16 443.5,-729 456.76,-721.71 456.11,-714.06 469.5,-707 492.96,-694.63 521.08,-686.18 545.25,-680.6"/>
<polygon fill="red" stroke="red" points="546.32,-683.94 555.33,-678.38 544.82,-677.11 546.32,-683.94"/>
<text text-anchor="middle" x="496.5" y="-721" font-family="Times,serif" font-size="10.00" fill="red">1.4.1</text>
<text text-anchor="middle" x="496.5" y="-710" font-family="Times,serif" font-size="10.00" fill="red">(latest: 1.5.0)</text>
</g>
<!-- roo_windows_wifi -->
<g id="node32" class="node">
<title>roo_windows_wifi</title>
<polygon fill="khaki" stroke="red" points="551,-785 432,-785 432,-747 551,-747 551,-785"/>
<text text-anchor="middle" x="491.5" y="-769.8" font-family="Times,serif" font-size="14.00">roo_windows_wifi</text>
<text text-anchor="middle" x="491.5" y="-754.8" font-family="Times,serif" font-size="14.00">1.1.3</text>
</g>
<!-- roo_windows_wifi&#45;&gt;roo_wifi -->
<g id="edge45" class="edge">
<title>roo_windows_wifi&#45;&gt;roo_wifi</title>
<path fill="none" stroke="red" d="M431.73,-748.27C413.48,-742.25 396.41,-735.36 389.5,-729 380.83,-721.01 374.86,-709.59 370.86,-698.99"/>
<polygon fill="red" stroke="red" points="374.09,-697.59 367.6,-689.22 367.45,-699.81 374.09,-697.59"/>
<text text-anchor="middle" x="416.5" y="-721" font-family="Times,serif" font-size="10.00" fill="red">1.1.3</text>
<text text-anchor="middle" x="416.5" y="-710" font-family="Times,serif" font-size="10.00" fill="red">(latest: 1.1.4)</text>
</g>
<!-- roo_windows_wifi&#45;&gt;roo_windows -->
<g id="edge46" class="edge">
<title>roo_windows_wifi&#45;&gt;roo_windows</title>
<path fill="none" stroke="red" d="M508.65,-746.75C520.08,-734.94 535.67,-719.5 550.5,-707 555.16,-703.07 560.23,-699.1 565.29,-695.31"/>
<polygon fill="red" stroke="red" points="567.72,-697.87 573.72,-689.14 563.58,-692.22 567.72,-697.87"/>
<text text-anchor="middle" x="577.5" y="-721" font-family="Times,serif" font-size="10.00" fill="red">1.4.2</text>
<text text-anchor="middle" x="577.5" y="-710" font-family="Times,serif" font-size="10.00" fill="red">(latest: 1.5.0)</text>
</g>
</g>
</svg>
