<?xml version="1.0" encoding="UTF-8" standalone="no"?>
<!DOCTYPE svg PUBLIC "-//W3C//DTD SVG 1.1//EN"
 "http://www.w3.org/Graphics/SVG/1.1/DTD/svg11.dtd">
<!-- Generated by graphviz version 2.42.4 (0)
 -->
<!-- Title: dependencies Pages: 1 -->
<svg width="753pt" height="746pt"
 viewBox="0.00 0.00 753.00 746.00" xmlns="http://www.w3.org/2000/svg" xmlns:xlink="http://www.w3.org/1999/xlink">
<g id="graph0" class="graph" transform="scale(1 1) rotate(0) translate(4 742)">
<title>dependencies</title>
<polygon fill="white" stroke="transparent" points="-4,4 -4,-742 749,-742 749,4 -4,4"/>
<!-- roo_backport -->
<g id="node1" class="node">
<title>roo_backport</title>
<polygon fill="#b1dbab" stroke="black" points="462,-188 352,-188 352,-150 462,-150 462,-188"/>
<text text-anchor="middle" x="407" y="-172.8" font-family="Times,serif" font-size="14.00">roo_backport</text>
<text text-anchor="middle" x="407" y="-157.8" font-family="Times,serif" font-size="14.00">1.2.0</text>
</g>
<!-- roo_blink -->
<g id="node2" class="node">
<title>roo_blink</title>
<polygon fill="#b1dbab" stroke="red" points="82,-434 0,-434 0,-396 82,-396 82,-434"/>
<text text-anchor="middle" x="41" y="-418.8" font-family="Times,serif" font-size="14.00">roo_blink</text>
<text text-anchor="middle" x="41" y="-403.8" font-family="Times,serif" font-size="14.00">1.0.4</text>
</g>
<!-- roo_logging -->
<g id="node12" class="node">
<title>roo_logging</title>
<polygon fill="#b1dbab" stroke="black" points="344,-263 244,-263 244,-225 344,-225 344,-263"/>
<text text-anchor="middle" x="294" y="-247.8" font-family="Times,serif" font-size="14.00">roo_logging</text>
<text text-anchor="middle" x="294" y="-232.8" font-family="Times,serif" font-size="14.00">1.5.2</text>
</g>
<!-- roo_blink&#45;&gt;roo_logging -->
<g id="edge1" class="edge">
<title>roo_blink&#45;&gt;roo_logging</title>
<path fill="none" stroke="red" d="M39.7,-395.86C38.97,-370.79 41.62,-325.72 67,-300 90.05,-276.64 174.72,-260.83 233.86,-252.36"/>
<polygon fill="red" stroke="red" points="234.43,-255.82 243.85,-250.97 233.47,-248.88 234.43,-255.82"/>
<text text-anchor="middle" x="100" y="-322" font-family="Times,serif" font-size="10.00" fill="red">1.5.1</text>
<text text-anchor="middle" x="100" y="-311" font-family="Times,serif" font-size="10.00" fill="red">(latest: 1.5.2)</text>
</g>
<!-- roo_scheduler -->
<g id="node16" class="node">
<title>roo_scheduler</title>
<polygon fill="#b1dbab" stroke="black" points="342,-338 226,-338 226,-300 342,-300 342,-338"/>
<text text-anchor="middle" x="284" y="-322.8" font-family="Times,serif" font-size="14.00">roo_scheduler</text>
<text text-anchor="middle" x="284" y="-307.8" font-family="Times,serif" font-size="14.00">2.1.6</text>
</g>
<!-- roo_blink&#45;&gt;roo_scheduler -->
<g id="edge2" class="edge">
<title>roo_blink&#45;&gt;roo_scheduler</title>
<path fill="none" stroke="black" d="M82.22,-398.05C122.21,-382.58 183.2,-358.99 227.66,-341.79"/>
<polygon fill="black" stroke="black" points="229.1,-344.99 237.17,-338.12 226.58,-338.46 229.1,-344.99"/>
</g>
<!-- roo_collections -->
<g id="node3" class="node">
<title>roo_collections</title>
<polygon fill="#b1dbab" stroke="black" points="589,-263 467,-263 467,-225 589,-225 589,-263"/>
<text text-anchor="middle" x="528" y="-247.8" font-family="Times,serif" font-size="14.00">roo_collections</text>
<text text-anchor="middle" x="528" y="-232.8" font-family="Times,serif" font-size="14.00">1.4.0</text>
</g>
<!-- roo_collections&#45;&gt;roo_backport -->
<g id="edge3" class="edge">
<title>roo_collections&#45;&gt;roo_backport</title>
<path fill="none" stroke="black" d="M498.09,-224.96C482.24,-215.39 462.58,-203.53 445.59,-193.28"/>
<polygon fill="black" stroke="black" points="447.36,-190.26 436.99,-188.09 443.74,-196.25 447.36,-190.26"/>
</g>
<!-- roo_comms -->
<g id="node4" class="node">
<title>roo_comms</title>
<polygon fill="#b1dbab" stroke="red" points="323.5,-642 226.5,-642 226.5,-604 323.5,-604 323.5,-642"/>
<text text-anchor="middle" x="275" y="-626.8" font-family="Times,serif" font-size="14.00">roo_comms</text>
<text text-anchor="middle" x="275" y="-611.8" font-family="Times,serif" font-size="14.00">1.1.3</text>
</g>
<!-- roo_comms&#45;&gt;roo_blink -->
<g id="edge4" class="edge">
<title>roo_comms&#45;&gt;roo_blink</title>
<path fill="none" stroke="black" d="M240.16,-603.84C209.76,-587.04 165.41,-560.17 132,-530 102.7,-503.55 75.35,-467.05 58.43,-442.54"/>
<polygon fill="black" stroke="black" points="61.2,-440.4 52.69,-434.1 55.42,-444.33 61.2,-440.4"/>
</g>
<!-- roo_control -->
<g id="node5" class="node">
<title>roo_control</title>
<polygon fill="#b1dbab" stroke="red" points="298.5,-434 201.5,-434 201.5,-396 298.5,-396 298.5,-434"/>
<text text-anchor="middle" x="250" y="-418.8" font-family="Times,serif" font-size="14.00">roo_control</text>
<text text-anchor="middle" x="250" y="-403.8" font-family="Times,serif" font-size="14.00">1.2.3</text>
</g>
<!-- roo_comms&#45;&gt;roo_control -->
<g id="edge5" class="edge">
<title>roo_comms&#45;&gt;roo_control</title>
<path fill="none" stroke="black" d="M279.72,-603.68C285.51,-578.3 293.58,-531.14 285,-492 281.29,-475.05 273.42,-457.38 266.08,-443.34"/>
<polygon fill="black" stroke="black" points="269,-441.37 261.15,-434.26 262.85,-444.71 269,-441.37"/>
</g>
<!-- roo_io -->
<g id="node10" class="node">
<title>roo_io</title>
<polygon fill="#b1dbab" stroke="black" points="546.5,-338 487.5,-338 487.5,-300 546.5,-300 546.5,-338"/>
<text text-anchor="middle" x="517" y="-322.8" font-family="Times,serif" font-size="14.00">roo_io</text>
<text text-anchor="middle" x="517" y="-307.8" font-family="Times,serif" font-size="14.00">2.1.2</text>
</g>
<!-- roo_comms&#45;&gt;roo_io -->
<g id="edge6" class="edge">
<title>roo_comms&#45;&gt;roo_io</title>
<path fill="none" stroke="red" d="M287.93,-603.72C315.28,-565.31 378.62,-477.63 405,-452 414.82,-442.46 420.18,-443.55 430,-434 457.66,-407.1 483.71,-370.99 499.97,-346.68"/>
<polygon fill="red" stroke="red" points="502.91,-348.57 505.5,-338.3 497.07,-344.72 502.91,-348.57"/>
<text text-anchor="middle" x="438" y="-466" font-family="Times,serif" font-size="10.00" fill="red">2.1.1</text>
<text text-anchor="middle" x="438" y="-455" font-family="Times,serif" font-size="10.00" fill="red">(latest: 2.1.2)</text>
</g>
<!-- roo_transceivers -->
<g id="node21" class="node">
<title>roo_transceivers</title>
<polygon fill="#b1dbab" stroke="red" points="276.5,-530 141.5,-530 141.5,-492 276.5,-492 276.5,-530"/>
<text text-anchor="middle" x="209" y="-514.8" font-family="Times,serif" font-size="14.00">roo_transceivers</text>
<text text-anchor="middle" x="209" y="-499.8" font-family="Times,serif" font-size="14.00">1.1.4</text>
</g>
<!-- roo_comms&#45;&gt;roo_transceivers -->
<g id="edge7" class="edge">
<title>roo_comms&#45;&gt;roo_transceivers</title>
<path fill="none" stroke="black" d="M264.1,-603.84C253.5,-586.16 237.26,-559.09 225.15,-538.92"/>
<polygon fill="black" stroke="black" points="228.06,-536.97 219.91,-530.19 222.06,-540.57 228.06,-536.97"/>
</g>
<!-- roo_quantity -->
<g id="node15" class="node">
<title>roo_quantity</title>
<polygon fill="#b1dbab" stroke="black" points="467.5,-338 360.5,-338 360.5,-300 467.5,-300 467.5,-338"/>
<text text-anchor="middle" x="414" y="-322.8" font-family="Times,serif" font-size="14.00">roo_quantity</text>
<text text-anchor="middle" x="414" y="-307.8" font-family="Times,serif" font-size="14.00">1.1.6</text>
</g>
<!-- roo_control&#45;&gt;roo_quantity -->
<g id="edge8" class="edge">
<title>roo_control&#45;&gt;roo_quantity</title>
<path fill="none" stroke="red" d="M267.7,-395.86C280.7,-383.34 299.28,-367.03 318,-356 328.18,-350 339.54,-344.69 350.78,-340.12"/>
<polygon fill="red" stroke="red" points="352.13,-343.35 360.17,-336.45 349.58,-336.83 352.13,-343.35"/>
<text text-anchor="middle" x="351" y="-370" font-family="Times,serif" font-size="10.00" fill="red">1.1.5</text>
<text text-anchor="middle" x="351" y="-359" font-family="Times,serif" font-size="10.00" fill="red">(latest: 1.1.6)</text>
</g>
<!-- roo_control&#45;&gt;roo_scheduler -->
<g id="edge9" class="edge">
<title>roo_control&#45;&gt;roo_scheduler</title>
<path fill="none" stroke="black" d="M248.43,-395.85C248.09,-384.08 248.92,-368.64 254,-356 255.31,-352.73 257.04,-349.54 259,-346.49"/>
<polygon fill="black" stroke="black" points="261.9,-348.45 265.02,-338.33 256.27,-344.3 261.9,-348.45"/>
</g>
<!-- roo_dashboard -->
<g id="node6" class="node">
<title>roo_dashboard</title>
<polygon fill="#b1dbab" stroke="red" points="584,-738 462,-738 462,-700 584,-700 584,-738"/>
<text text-anchor="middle" x="523" y="-722.8" font-family="Times,serif" font-size="14.00">roo_dashboard</text>
<text text-anchor="middle" x="523" y="-707.8" font-family="Times,serif" font-size="14.00">1.0.1</text>
</g>
<!-- roo_windows -->
<g id="node24" class="node">
<title>roo_windows</title>
<polygon fill="khaki" stroke="red" points="577.5,-642 468.5,-642 468.5,-604 577.5,-604 577.5,-642"/>
<text text-anchor="middle" x="523" y="-626.8" font-family="Times,serif" font-size="14.00">roo_windows</text>
<text text-anchor="middle" x="523" y="-611.8" font-family="Times,serif" font-size="14.00">1.4.1</text>
</g>
<!-- roo_dashboard&#45;&gt;roo_windows -->
<g id="edge10" class="edge">
<title>roo_dashboard&#45;&gt;roo_windows</title>
<path fill="none" stroke="black" d="M523,-699.88C523,-686.35 523,-667.62 523,-652.15"/>
<polygon fill="black" stroke="black" points="526.5,-652.07 523,-642.07 519.5,-652.07 526.5,-652.07"/>
</g>
<!-- roo_display -->
<g id="node7" class="node">
<title>roo_display</title>
<polygon fill="khaki" stroke="red" points="745,-434 647,-434 647,-396 745,-396 745,-434"/>
<text text-anchor="middle" x="696" y="-418.8" font-family="Times,serif" font-size="14.00">roo_display</text>
<text text-anchor="middle" x="696" y="-403.8" font-family="Times,serif" font-size="14.00">2.3.1</text>
</g>
<!-- roo_display&#45;&gt;roo_collections -->
<g id="edge11" class="edge">
<title>roo_display&#45;&gt;roo_collections</title>
<path fill="none" stroke="red" d="M685.28,-395.9C670.58,-372.06 642.38,-329.69 611,-300 598.52,-288.19 583.22,-277.27 569.18,-268.31"/>
<polygon fill="red" stroke="red" points="570.97,-265.31 560.63,-263 567.28,-271.25 570.97,-265.31"/>
<text text-anchor="middle" x="677" y="-322" font-family="Times,serif" font-size="10.00" fill="red">1.3.2</text>
<text text-anchor="middle" x="677" y="-311" font-family="Times,serif" font-size="10.00" fill="red">(latest: 1.4.0)</text>
</g>
<!-- roo_display&#45;&gt;roo_io -->
<g id="edge12" class="edge">
<title>roo_display&#45;&gt;roo_io</title>
<path fill="none" stroke="red" d="M646.75,-396C633.61,-390.68 619.58,-384.52 607,-378 587.61,-367.94 567.05,-354.9 550.49,-343.73"/>
<polygon fill="red" stroke="red" points="552.46,-340.83 542.22,-338.08 548.51,-346.61 552.46,-340.83"/>
<text text-anchor="middle" x="640" y="-370" font-family="Times,serif" font-size="10.00" fill="red">2.0.2</text>
<text text-anchor="middle" x="640" y="-359" font-family="Times,serif" font-size="10.00" fill="red">(latest: 2.1.2)</text>
</g>
<!-- roo_flags -->
<g id="node8" class="node">
<title>roo_flags</title>
<polygon fill="#b1dbab" stroke="black" points="334,-188 254,-188 254,-150 334,-150 334,-188"/>
<text text-anchor="middle" x="294" y="-172.8" font-family="Times,serif" font-size="14.00">roo_flags</text>
<text text-anchor="middle" x="294" y="-157.8" font-family="Times,serif" font-size="14.00">1.2.0</text>
</g>
<!-- roo_icons -->
<g id="node9" class="node">
<title>roo_icons</title>
<polygon fill="khaki" stroke="red" points="720.5,-530 637.5,-530 637.5,-492 720.5,-492 720.5,-530"/>
<text text-anchor="middle" x="679" y="-514.8" font-family="Times,serif" font-size="14.00">roo_icons</text>
<text text-anchor="middle" x="679" y="-499.8" font-family="Times,serif" font-size="14.00">1.2.1</text>
</g>
<!-- roo_icons&#45;&gt;roo_display -->
<g id="edge13" class="edge">
<title>roo_icons&#45;&gt;roo_display</title>
<path fill="none" stroke="black" d="M682.28,-491.88C684.72,-478.35 688.11,-459.62 690.91,-444.15"/>
<polygon fill="black" stroke="black" points="694.4,-444.53 692.73,-434.07 687.51,-443.29 694.4,-444.53"/>
</g>
<!-- roo_io&#45;&gt;roo_logging -->
<g id="edge14" class="edge">
<title>roo_io&#45;&gt;roo_logging</title>
<path fill="none" stroke="black" d="M487.16,-304.41C483.43,-302.85 479.65,-301.35 476,-300 435.95,-285.22 389.91,-271.33 354.16,-261.21"/>
<polygon fill="black" stroke="black" points="354.93,-257.79 344.36,-258.46 353.04,-264.53 354.93,-257.79"/>
</g>
<!-- roo_locale -->
<g id="node11" class="node">
<title>roo_locale</title>
<polygon fill="#b1dbab" stroke="black" points="603,-530 515,-530 515,-492 603,-492 603,-530"/>
<text text-anchor="middle" x="559" y="-514.8" font-family="Times,serif" font-size="14.00">roo_locale</text>
<text text-anchor="middle" x="559" y="-499.8" font-family="Times,serif" font-size="14.00">1.1.1</text>
</g>
<!-- roo_logging&#45;&gt;roo_backport -->
<g id="edge15" class="edge">
<title>roo_logging&#45;&gt;roo_backport</title>
<path fill="none" stroke="black" d="M321.93,-224.96C336.6,-215.48 354.76,-203.75 370.52,-193.57"/>
<polygon fill="black" stroke="black" points="372.5,-196.46 379,-188.09 368.7,-190.58 372.5,-196.46"/>
</g>
<!-- roo_logging&#45;&gt;roo_flags -->
<g id="edge16" class="edge">
<title>roo_logging&#45;&gt;roo_flags</title>
<path fill="none" stroke="black" d="M294,-224.96C294,-216.88 294,-207.18 294,-198.18"/>
<polygon fill="black" stroke="black" points="297.5,-198.09 294,-188.09 290.5,-198.09 297.5,-198.09"/>
</g>
<!-- roo_threads -->
<g id="node18" class="node">
<title>roo_threads</title>
<polygon fill="khaki" stroke="black" points="235.5,-188 134.5,-188 134.5,-150 235.5,-150 235.5,-188"/>
<text text-anchor="middle" x="185" y="-172.8" font-family="Times,serif" font-size="14.00">roo_threads</text>
<text text-anchor="middle" x="185" y="-157.8" font-family="Times,serif" font-size="14.00">1.2.0</text>
</g>
<!-- roo_logging&#45;&gt;roo_threads -->
<g id="edge17" class="edge">
<title>roo_logging&#45;&gt;roo_threads</title>
<path fill="none" stroke="black" d="M267.06,-224.96C253.04,-215.57 235.72,-203.97 220.61,-193.85"/>
<polygon fill="black" stroke="black" points="222.27,-190.75 212.01,-188.09 218.37,-196.56 222.27,-190.75"/>
</g>
<!-- roo_onewire -->
<g id="node13" class="node">
<title>roo_onewire</title>
<polygon fill="#b1dbab" stroke="red" points="421,-434 317,-434 317,-396 421,-396 421,-434"/>
<text text-anchor="middle" x="369" y="-418.8" font-family="Times,serif" font-size="14.00">roo_onewire</text>
<text text-anchor="middle" x="369" y="-403.8" font-family="Times,serif" font-size="14.00">2.0.7</text>
</g>
<!-- roo_onewire&#45;&gt;roo_quantity -->
<g id="edge19" class="edge">
<title>roo_onewire&#45;&gt;roo_quantity</title>
<path fill="none" stroke="red" d="M377.68,-395.88C384.28,-382.09 393.46,-362.9 400.95,-347.26"/>
<polygon fill="red" stroke="red" points="404.19,-348.6 405.35,-338.07 397.88,-345.58 404.19,-348.6"/>
<text text-anchor="middle" x="429" y="-370" font-family="Times,serif" font-size="10.00" fill="red">1.1.5</text>
<text text-anchor="middle" x="429" y="-359" font-family="Times,serif" font-size="10.00" fill="red">(latest: 1.1.6)</text>
</g>
<!-- roo_onewire&#45;&gt;roo_scheduler -->
<g id="edge18" class="edge">
<title>roo_onewire&#45;&gt;roo_scheduler</title>
<path fill="none" stroke="black" d="M362.81,-395.76C357.99,-383.51 350.38,-367.56 340,-356 336.09,-351.65 331.54,-347.61 326.75,-343.93"/>
<polygon fill="black" stroke="black" points="328.72,-341.03 318.55,-338.09 324.66,-346.74 328.72,-341.03"/>
</g>
<!-- roo_prefs -->
<g id="node14" class="node">
<title>roo_prefs</title>
<polygon fill="#b1dbab" stroke="red" points="183.5,-434 100.5,-434 100.5,-396 183.5,-396 183.5,-434"/>
<text text-anchor="middle" x="142" y="-418.8" font-family="Times,serif" font-size="14.00">roo_prefs</text>
<text text-anchor="middle" x="142" y="-403.8" font-family="Times,serif" font-size="14.00">1.2.7</text>
</g>
<!-- roo_prefs&#45;&gt;roo_logging -->
<g id="edge20" class="edge">
<title>roo_prefs&#45;&gt;roo_logging</title>
<path fill="none" stroke="red" d="M137.96,-395.76C133.68,-371.38 130.1,-328 151,-300 170.51,-273.86 204.15,-260.14 233.9,-252.94"/>
<polygon fill="red" stroke="red" points="234.8,-256.33 243.81,-250.74 233.29,-249.49 234.8,-256.33"/>
<text text-anchor="middle" x="184" y="-322" font-family="Times,serif" font-size="10.00" fill="red">1.5.1</text>
<text text-anchor="middle" x="184" y="-311" font-family="Times,serif" font-size="10.00" fill="red">(latest: 1.5.2)</text>
</g>
<!-- roo_prefs&#45;&gt;roo_scheduler -->
<g id="edge21" class="edge">
<title>roo_prefs&#45;&gt;roo_scheduler</title>
<path fill="none" stroke="black" d="M169.38,-395.88C191.77,-381.05 223.62,-359.97 248.07,-343.79"/>
<polygon fill="black" stroke="black" points="250.3,-346.51 256.71,-338.07 246.43,-340.67 250.3,-346.51"/>
</g>
<!-- roo_quantity&#45;&gt;roo_logging -->
<g id="edge22" class="edge">
<title>roo_quantity&#45;&gt;roo_logging</title>
<path fill="none" stroke="black" d="M384.34,-299.96C368.76,-290.48 349.48,-278.75 332.74,-268.57"/>
<polygon fill="black" stroke="black" points="334.1,-265.3 323.74,-263.09 330.46,-271.28 334.1,-265.3"/>
</g>
<!-- roo_scheduler&#45;&gt;roo_collections -->
<g id="edge23" class="edge">
<title>roo_scheduler&#45;&gt;roo_collections</title>
<path fill="none" stroke="black" d="M342.13,-300.61C376.94,-290.19 421.41,-276.89 458.12,-265.91"/>
<polygon fill="black" stroke="black" points="459.19,-269.24 467.76,-263.02 457.18,-262.53 459.19,-269.24"/>
</g>
<!-- roo_scheduler&#45;&gt;roo_threads -->
<g id="edge24" class="edge">
<title>roo_scheduler&#45;&gt;roo_threads</title>
<path fill="none" stroke="black" d="M265.6,-299.57C255.87,-289.3 244.09,-275.99 235,-263 220.35,-242.06 206.82,-216.34 197.54,-197.26"/>
<polygon fill="black" stroke="black" points="200.69,-195.72 193.22,-188.21 194.37,-198.74 200.69,-195.72"/>
</g>
<!-- roo_testing -->
<g id="node17" class="node">
<title>roo_testing</title>
<polygon fill="khaki" stroke="black" points="415.5,-38 318.5,-38 318.5,0 415.5,0 415.5,-38"/>
<text text-anchor="middle" x="367" y="-22.8" font-family="Times,serif" font-size="14.00">roo_testing</text>
<text text-anchor="middle" x="367" y="-7.8" font-family="Times,serif" font-size="14.00">1.2.0</text>
</g>
<!-- roo_time -->
<g id="node19" class="node">
<title>roo_time</title>
<polygon fill="#b1dbab" stroke="black" points="406.5,-113 327.5,-113 327.5,-75 406.5,-75 406.5,-113"/>
<text text-anchor="middle" x="367" y="-97.8" font-family="Times,serif" font-size="14.00">roo_time</text>
<text text-anchor="middle" x="367" y="-82.8" font-family="Times,serif" font-size="14.00">1.4.0</text>
</g>
<!-- roo_threads&#45;&gt;roo_time -->
<g id="edge25" class="edge">
<title>roo_threads&#45;&gt;roo_time</title>
<path fill="none" stroke="black" d="M229.99,-149.96C256.73,-139.23 290.67,-125.62 318.07,-114.62"/>
<polygon fill="black" stroke="black" points="319.5,-117.83 327.47,-110.85 316.89,-111.33 319.5,-117.83"/>
</g>
<!-- roo_time&#45;&gt;roo_testing -->
<g id="edge26" class="edge">
<title>roo_time&#45;&gt;roo_testing</title>
<path fill="none" stroke="black" d="M367,-74.96C367,-66.88 367,-57.18 367,-48.18"/>
<polygon fill="black" stroke="black" points="370.5,-48.09 367,-38.09 363.5,-48.09 370.5,-48.09"/>
</g>
<!-- roo_time_ds3231 -->
<g id="node20" class="node">
<title>roo_time_ds3231</title>
<polygon fill="#b1dbab" stroke="black" points="618,-188 480,-188 480,-150 618,-150 618,-188"/>
<text text-anchor="middle" x="549" y="-172.8" font-family="Times,serif" font-size="14.00">roo_time_ds3231</text>
<text text-anchor="middle" x="549" y="-157.8" font-family="Times,serif" font-size="14.00">1.1.4</text>
</g>
<!-- roo_time_ds3231&#45;&gt;roo_time -->
<g id="edge27" class="edge">
<title>roo_time_ds3231&#45;&gt;roo_time</title>
<path fill="none" stroke="black" d="M504.01,-149.96C477.27,-139.23 443.33,-125.62 415.93,-114.62"/>
<polygon fill="black" stroke="black" points="417.11,-111.33 406.53,-110.85 414.5,-117.83 417.11,-111.33"/>
</g>
<!-- roo_transceivers&#45;&gt;roo_prefs -->
<g id="edge28" class="edge">
<title>roo_transceivers&#45;&gt;roo_prefs</title>
<path fill="none" stroke="black" d="M196.08,-491.88C186.07,-477.83 172.06,-458.17 160.8,-442.38"/>
<polygon fill="black" stroke="black" points="163.53,-440.18 154.88,-434.07 157.83,-444.24 163.53,-440.18"/>
</g>
<!-- roo_transport -->
<g id="node22" class="node">
<title>roo_transport</title>
<polygon fill="lightblue" stroke="black" points="629,-434 515,-434 515,-396 629,-396 629,-434"/>
<text text-anchor="middle" x="572" y="-418.8" font-family="Times,serif" font-size="14.00">roo_transport</text>
<text text-anchor="middle" x="572" y="-403.8" font-family="Times,serif" font-size="14.00">1.1.0</text>
</g>
<!-- roo_transport&#45;&gt;roo_collections -->
<g id="edge29" class="edge">
<title>roo_transport&#45;&gt;roo_collections</title>
<path fill="none" stroke="black" d="M603.24,-395.91C609.2,-390.92 614.62,-384.93 618,-378 622.28,-369.21 621.27,-365.22 618,-356 605.97,-322.05 578.64,-290.91 557.23,-270.31"/>
<polygon fill="black" stroke="black" points="559.35,-267.49 549.65,-263.21 554.56,-272.6 559.35,-267.49"/>
</g>
<!-- roo_transport&#45;&gt;roo_io -->
<g id="edge30" class="edge">
<title>roo_transport&#45;&gt;roo_io</title>
<path fill="none" stroke="black" d="M547.19,-395.79C541.51,-390.6 535.98,-384.55 532,-378 526.51,-368.96 523.02,-357.95 520.8,-347.96"/>
<polygon fill="black" stroke="black" points="524.22,-347.22 518.92,-338.05 517.34,-348.53 524.22,-347.22"/>
</g>
<!-- roo_wifi -->
<g id="node23" class="node">
<title>roo_wifi</title>
<polygon fill="#b1dbab" stroke="black" points="98,-586 26,-586 26,-548 98,-548 98,-586"/>
<text text-anchor="middle" x="62" y="-570.8" font-family="Times,serif" font-size="14.00">roo_wifi</text>
<text text-anchor="middle" x="62" y="-555.8" font-family="Times,serif" font-size="14.00">1.1.3</text>
</g>
<!-- roo_wifi&#45;&gt;roo_prefs -->
<g id="edge31" class="edge">
<title>roo_wifi&#45;&gt;roo_prefs</title>
<path fill="none" stroke="black" d="M71.65,-547.91C85.52,-521.89 111.22,-473.72 127.42,-443.34"/>
<polygon fill="black" stroke="black" points="130.7,-444.63 132.32,-434.16 124.52,-441.33 130.7,-444.63"/>
</g>
<!-- roo_windows&#45;&gt;roo_icons -->
<g id="edge33" class="edge">
<title>roo_windows&#45;&gt;roo_icons</title>
<path fill="none" stroke="black" d="M548.76,-603.84C575.15,-585.23 616.29,-556.22 645.26,-535.79"/>
<polygon fill="black" stroke="black" points="647.31,-538.63 653.46,-530.01 643.27,-532.91 647.31,-538.63"/>
</g>
<!-- roo_windows&#45;&gt;roo_locale -->
<g id="edge32" class="edge">
<title>roo_windows&#45;&gt;roo_locale</title>
<path fill="none" stroke="black" d="M528.94,-603.84C534.65,-586.4 543.35,-559.82 549.92,-539.74"/>
<polygon fill="black" stroke="black" points="553.26,-540.78 553.05,-530.19 546.61,-538.61 553.26,-540.78"/>
</g>
<!-- roo_windows&#45;&gt;roo_scheduler -->
<g id="edge34" class="edge">
<title>roo_windows&#45;&gt;roo_scheduler</title>
<path fill="none" stroke="red" d="M520.84,-603.73C514.79,-560.89 493.72,-453.31 430,-396 416.4,-383.77 408.73,-387.32 393,-378 378.47,-369.39 376.62,-364.46 362,-356 353.76,-351.23 344.78,-346.6 335.94,-342.34"/>
<polygon fill="red" stroke="red" points="337.36,-339.14 326.82,-338.04 334.38,-345.47 337.36,-339.14"/>
<text text-anchor="middle" x="517" y="-466" font-family="Times,serif" font-size="10.00" fill="red">2.1.4</text>
<text text-anchor="middle" x="517" y="-455" font-family="Times,serif" font-size="10.00" fill="red">(latest: 2.1.6)</text>
</g>
<!-- roo_windows_wifi -->
<g id="node25" class="node">
<title>roo_windows_wifi</title>
<polygon fill="khaki" stroke="red" points="227.5,-738 86.5,-738 86.5,-700 227.5,-700 227.5,-738"/>
<text text-anchor="middle" x="157" y="-722.8" font-family="Times,serif" font-size="14.00">roo_windows_wifi</text>
<text text-anchor="middle" x="157" y="-707.8" font-family="Times,serif" font-size="14.00">1.1.2</text>
</g>
<!-- roo_windows_wifi&#45;&gt;roo_wifi -->
<g id="edge35" class="edge">
<title>roo_windows_wifi&#45;&gt;roo_wifi</title>
<path fill="none" stroke="red" d="M145.54,-699.91C128.99,-673.78 98.29,-625.3 79.07,-594.95"/>
<polygon fill="red" stroke="red" points="81.81,-592.73 73.5,-586.16 75.89,-596.48 81.81,-592.73"/>
<text text-anchor="middle" x="166" y="-674" font-family="Times,serif" font-size="10.00" fill="red">1.1.1</text>
<text text-anchor="middle" x="166" y="-663" font-family="Times,serif" font-size="10.00" fill="red">(latest: 1.1.3)</text>
</g>
<!-- roo_windows_wifi&#45;&gt;roo_windows -->
<g id="edge36" class="edge">
<title>roo_windows_wifi&#45;&gt;roo_windows</title>
<path fill="none" stroke="black" d="M227.14,-699.99C293.97,-682.82 393.74,-657.2 458.6,-640.54"/>
<polygon fill="black" stroke="black" points="459.49,-643.92 468.31,-638.05 457.75,-637.14 459.49,-643.92"/>
</g>
</g>
</svg>
