<?xml version="1.0" encoding="UTF-8" standalone="no"?>
<!DOCTYPE svg PUBLIC "-//W3C//DTD SVG 1.1//EN"
 "http://www.w3.org/Graphics/SVG/1.1/DTD/svg11.dtd">
<!-- Generated by graphviz version 2.42.4 (0)
 -->
<!-- Title: dependencies Pages: 1 -->
<svg width="1118pt" height="751pt"
 viewBox="0.00 0.00 1117.50 751.00" xmlns="http://www.w3.org/2000/svg" xmlns:xlink="http://www.w3.org/1999/xlink">
<g id="graph0" class="graph" transform="scale(1 1) rotate(0) translate(4 747)">
<title>dependencies</title>
<polygon fill="white" stroke="transparent" points="-4,4 -4,-747 1113.5,-747 1113.5,4 -4,4"/>
<!-- roo_backport -->
<g id="node1" class="node">
<title>roo_backport</title>
<polygon fill="#b1dbab" stroke="black" points="536,-209 426,-209 426,-171 536,-171 536,-209"/>
<text text-anchor="middle" x="481" y="-193.8" font-family="Times,serif" font-size="14.00">roo_backport</text>
<text text-anchor="middle" x="481" y="-178.8" font-family="Times,serif" font-size="14.00">1.2.2</text>
</g>
<!-- roo_blink -->
<g id="node2" class="node">
<title>roo_blink</title>
<polygon fill="#b1dbab" stroke="black" points="994,-551 912,-551 912,-513 994,-513 994,-551"/>
<text text-anchor="middle" x="953" y="-535.8" font-family="Times,serif" font-size="14.00">roo_blink</text>
<text text-anchor="middle" x="953" y="-520.8" font-family="Times,serif" font-size="14.00">1.0.6</text>
</g>
<!-- roo_logging -->
<g id="node13" class="node">
<title>roo_logging</title>
<polygon fill="khaki" stroke="red" points="788,-284 688,-284 688,-246 788,-246 788,-284"/>
<text text-anchor="middle" x="738" y="-268.8" font-family="Times,serif" font-size="14.00">roo_logging</text>
<text text-anchor="middle" x="738" y="-253.8" font-family="Times,serif" font-size="14.00">1.5.5</text>
</g>
<!-- roo_blink&#45;&gt;roo_logging -->
<g id="edge1" class="edge">
<title>roo_blink&#45;&gt;roo_logging</title>
<path fill="none" stroke="black" d="M949.76,-512.97C945,-489.57 934.58,-448.07 916,-417 878.58,-354.42 859.53,-342.66 799,-302 792.75,-297.8 786.01,-293.56 779.36,-289.52"/>
<polygon fill="black" stroke="black" points="780.79,-286.3 770.41,-284.18 777.2,-292.31 780.79,-286.3"/>
</g>
<!-- roo_scheduler -->
<g id="node19" class="node">
<title>roo_scheduler</title>
<polygon fill="#b1dbab" stroke="black" points="429,-455 313,-455 313,-417 429,-417 429,-455"/>
<text text-anchor="middle" x="371" y="-439.8" font-family="Times,serif" font-size="14.00">roo_scheduler</text>
<text text-anchor="middle" x="371" y="-424.8" font-family="Times,serif" font-size="14.00">2.1.9</text>
</g>
<!-- roo_blink&#45;&gt;roo_scheduler -->
<g id="edge2" class="edge">
<title>roo_blink&#45;&gt;roo_scheduler</title>
<path fill="none" stroke="black" d="M911.74,-515.36C908.8,-514.49 905.87,-513.69 903,-513 767.09,-480.24 729.75,-490.11 591,-473 523.48,-464.67 505.82,-467.74 439,-455 438.9,-454.98 438.8,-454.96 438.7,-454.94"/>
<polygon fill="black" stroke="black" points="439.62,-451.56 429.11,-452.96 438.2,-458.41 439.62,-451.56"/>
</g>
<!-- roo_collections -->
<g id="node3" class="node">
<title>roo_collections</title>
<polygon fill="#b1dbab" stroke="black" points="450,-359 328,-359 328,-321 450,-321 450,-359"/>
<text text-anchor="middle" x="389" y="-343.8" font-family="Times,serif" font-size="14.00">roo_collections</text>
<text text-anchor="middle" x="389" y="-328.8" font-family="Times,serif" font-size="14.00">1.4.3</text>
</g>
<!-- roo_collections&#45;&gt;roo_backport -->
<g id="edge3" class="edge">
<title>roo_collections&#45;&gt;roo_backport</title>
<path fill="none" stroke="black" d="M400.28,-320.85C416.28,-295.11 445.69,-247.81 464.24,-217.96"/>
<polygon fill="black" stroke="black" points="467.32,-219.64 469.63,-209.3 461.37,-215.94 467.32,-219.64"/>
</g>
<!-- roo_comms -->
<g id="node4" class="node">
<title>roo_comms</title>
<polygon fill="#b1dbab" stroke="red" points="825.5,-743 728.5,-743 728.5,-705 825.5,-705 825.5,-743"/>
<text text-anchor="middle" x="777" y="-727.8" font-family="Times,serif" font-size="14.00">roo_comms</text>
<text text-anchor="middle" x="777" y="-712.8" font-family="Times,serif" font-size="14.00">1.1.4</text>
</g>
<!-- roo_comms&#45;&gt;roo_blink -->
<g id="edge4" class="edge">
<title>roo_comms&#45;&gt;roo_blink</title>
<path fill="none" stroke="black" d="M793.88,-704.78C825.28,-670.88 892.79,-598 928.96,-558.95"/>
<polygon fill="black" stroke="black" points="931.95,-560.88 936.18,-551.16 926.81,-556.12 931.95,-560.88"/>
</g>
<!-- roo_control -->
<g id="node5" class="node">
<title>roo_control</title>
<polygon fill="#b1dbab" stroke="black" points="1109.5,-551 1012.5,-551 1012.5,-513 1109.5,-513 1109.5,-551"/>
<text text-anchor="middle" x="1061" y="-535.8" font-family="Times,serif" font-size="14.00">roo_control</text>
<text text-anchor="middle" x="1061" y="-520.8" font-family="Times,serif" font-size="14.00">1.2.5</text>
</g>
<!-- roo_comms&#45;&gt;roo_control -->
<g id="edge5" class="edge">
<title>roo_comms&#45;&gt;roo_control</title>
<path fill="none" stroke="black" d="M806.66,-704.93C815.8,-699.27 825.86,-692.95 835,-687 903.84,-642.21 982.83,-587.64 1026.82,-556.96"/>
<polygon fill="black" stroke="black" points="1028.95,-559.74 1035.14,-551.15 1024.94,-554 1028.95,-559.74"/>
</g>
<!-- roo_io -->
<g id="node11" class="node">
<title>roo_io</title>
<polygon fill="#b1dbab" stroke="black" points="679.5,-359 620.5,-359 620.5,-321 679.5,-321 679.5,-359"/>
<text text-anchor="middle" x="650" y="-343.8" font-family="Times,serif" font-size="14.00">roo_io</text>
<text text-anchor="middle" x="650" y="-328.8" font-family="Times,serif" font-size="14.00">2.1.6</text>
</g>
<!-- roo_comms&#45;&gt;roo_io -->
<g id="edge6" class="edge">
<title>roo_comms&#45;&gt;roo_io</title>
<path fill="none" stroke="red" d="M768.14,-704.99C753.59,-674.3 725.22,-609.47 715,-551 701.69,-474.8 759.1,-443.15 719,-377 712.2,-365.79 700.64,-357.9 688.91,-352.43"/>
<polygon fill="red" stroke="red" points="690.12,-349.15 679.54,-348.55 687.44,-355.61 690.12,-349.15"/>
<text text-anchor="middle" x="748" y="-535" font-family="Times,serif" font-size="10.00" fill="red">2.1.5</text>
<text text-anchor="middle" x="748" y="-524" font-family="Times,serif" font-size="10.00" fill="red">(latest: 2.1.6)</text>
</g>
<!-- roo_transceivers -->
<g id="node24" class="node">
<title>roo_transceivers</title>
<polygon fill="#b1dbab" stroke="black" points="497.5,-647 362.5,-647 362.5,-609 497.5,-609 497.5,-647"/>
<text text-anchor="middle" x="430" y="-631.8" font-family="Times,serif" font-size="14.00">roo_transceivers</text>
<text text-anchor="middle" x="430" y="-616.8" font-family="Times,serif" font-size="14.00">1.1.6</text>
</g>
<!-- roo_comms&#45;&gt;roo_transceivers -->
<g id="edge7" class="edge">
<title>roo_comms&#45;&gt;roo_transceivers</title>
<path fill="none" stroke="red" d="M728.41,-718.03C697.6,-713.32 657.72,-704.27 626,-687 613.58,-680.24 615.58,-671.46 603,-665 566.95,-646.49 551.56,-654.65 507.44,-646.89"/>
<polygon fill="red" stroke="red" points="508.05,-643.44 497.57,-644.97 506.72,-650.31 508.05,-643.44"/>
<text text-anchor="middle" x="659" y="-679" font-family="Times,serif" font-size="10.00" fill="red">1.1.5</text>
<text text-anchor="middle" x="659" y="-668" font-family="Times,serif" font-size="10.00" fill="red">(latest: 1.1.6)</text>
</g>
<!-- roo_quantity -->
<g id="node18" class="node">
<title>roo_quantity</title>
<polygon fill="#b1dbab" stroke="black" points="906.5,-455 799.5,-455 799.5,-417 906.5,-417 906.5,-455"/>
<text text-anchor="middle" x="853" y="-439.8" font-family="Times,serif" font-size="14.00">roo_quantity</text>
<text text-anchor="middle" x="853" y="-424.8" font-family="Times,serif" font-size="14.00">1.1.8</text>
</g>
<!-- roo_control&#45;&gt;roo_quantity -->
<g id="edge8" class="edge">
<title>roo_control&#45;&gt;roo_quantity</title>
<path fill="none" stroke="black" d="M1020.9,-512.88C987.08,-497.6 938.56,-475.67 902.37,-459.31"/>
<polygon fill="black" stroke="black" points="903.54,-456 892.98,-455.07 900.65,-462.38 903.54,-456"/>
</g>
<!-- roo_control&#45;&gt;roo_scheduler -->
<g id="edge9" class="edge">
<title>roo_control&#45;&gt;roo_scheduler</title>
<path fill="none" stroke="black" d="M1012.42,-515.3C1009.25,-514.46 1006.09,-513.69 1003,-513 877.31,-484.93 844.12,-486.07 716,-473 593.27,-460.48 560.76,-474.88 439,-455 438.9,-454.98 438.8,-454.97 438.69,-454.95"/>
<polygon fill="black" stroke="black" points="439.55,-451.55 429.08,-453.17 438.27,-458.43 439.55,-451.55"/>
</g>
<!-- roo_dashboard -->
<g id="node6" class="node">
<title>roo_dashboard</title>
<polygon fill="khaki" stroke="red" points="225,-743 103,-743 103,-705 225,-705 225,-743"/>
<text text-anchor="middle" x="164" y="-727.8" font-family="Times,serif" font-size="14.00">roo_dashboard</text>
<text text-anchor="middle" x="164" y="-712.8" font-family="Times,serif" font-size="14.00">1.0.1</text>
</g>
<!-- roo_windows -->
<g id="node27" class="node">
<title>roo_windows</title>
<polygon fill="khaki" stroke="red" points="344.5,-647 235.5,-647 235.5,-609 344.5,-609 344.5,-647"/>
<text text-anchor="middle" x="290" y="-631.8" font-family="Times,serif" font-size="14.00">roo_windows</text>
<text text-anchor="middle" x="290" y="-616.8" font-family="Times,serif" font-size="14.00">1.4.2</text>
</g>
<!-- roo_dashboard&#45;&gt;roo_windows -->
<g id="edge10" class="edge">
<title>roo_dashboard&#45;&gt;roo_windows</title>
<path fill="none" stroke="red" d="M188.29,-704.88C207.99,-690.18 235.93,-669.34 257.54,-653.21"/>
<polygon fill="red" stroke="red" points="259.86,-655.85 265.78,-647.07 255.67,-650.24 259.86,-655.85"/>
<text text-anchor="middle" x="272" y="-679" font-family="Times,serif" font-size="10.00" fill="red">1.4.1</text>
<text text-anchor="middle" x="272" y="-668" font-family="Times,serif" font-size="10.00" fill="red">(latest: 1.4.2)</text>
</g>
<!-- roo_display -->
<g id="node7" class="node">
<title>roo_display</title>
<polygon fill="khaki" stroke="red" points="295,-455 197,-455 197,-417 295,-417 295,-455"/>
<text text-anchor="middle" x="246" y="-439.8" font-family="Times,serif" font-size="14.00">roo_display</text>
<text text-anchor="middle" x="246" y="-424.8" font-family="Times,serif" font-size="14.00">3.0.2</text>
</g>
<!-- roo_display&#45;&gt;roo_collections -->
<g id="edge11" class="edge">
<title>roo_display&#45;&gt;roo_collections</title>
<path fill="none" stroke="black" d="M273.57,-416.88C296.22,-401.99 328.48,-380.78 353.14,-364.57"/>
<polygon fill="black" stroke="black" points="355.08,-367.49 361.51,-359.07 351.23,-361.64 355.08,-367.49"/>
</g>
<!-- roo_display&#45;&gt;roo_io -->
<g id="edge12" class="edge">
<title>roo_display&#45;&gt;roo_io</title>
<path fill="none" stroke="red" d="M295.28,-419.4C298.22,-418.56 301.15,-417.75 304,-417 413.83,-387.95 545.3,-361.25 610.01,-348.64"/>
<polygon fill="red" stroke="red" points="611.03,-352.01 620.18,-346.67 609.69,-345.14 611.03,-352.01"/>
<text text-anchor="middle" x="497" y="-391" font-family="Times,serif" font-size="10.00" fill="red">2.1.5</text>
<text text-anchor="middle" x="497" y="-380" font-family="Times,serif" font-size="10.00" fill="red">(latest: 2.1.6)</text>
</g>
<!-- roo_flags -->
<g id="node8" class="node">
<title>roo_flags</title>
<polygon fill="#b1dbab" stroke="black" points="771,-209 691,-209 691,-171 771,-171 771,-209"/>
<text text-anchor="middle" x="731" y="-193.8" font-family="Times,serif" font-size="14.00">roo_flags</text>
<text text-anchor="middle" x="731" y="-178.8" font-family="Times,serif" font-size="14.00">1.2.3</text>
</g>
<!-- roo_fonts_basic -->
<g id="node9" class="node">
<title>roo_fonts_basic</title>
<polygon fill="#b1dbab" stroke="red" points="126,-551 0,-551 0,-513 126,-513 126,-551"/>
<text text-anchor="middle" x="63" y="-535.8" font-family="Times,serif" font-size="14.00">roo_fonts_basic</text>
<text text-anchor="middle" x="63" y="-520.8" font-family="Times,serif" font-size="14.00">1.0.1</text>
</g>
<!-- roo_fonts_basic&#45;&gt;roo_display -->
<g id="edge13" class="edge">
<title>roo_fonts_basic&#45;&gt;roo_display</title>
<path fill="none" stroke="red" d="M98.28,-512.88C127.78,-497.73 169.99,-476.04 201.75,-459.73"/>
<polygon fill="red" stroke="red" points="203.53,-462.75 210.82,-455.07 200.33,-456.52 203.53,-462.75"/>
<text text-anchor="middle" x="204" y="-487" font-family="Times,serif" font-size="10.00" fill="red">3.0.1</text>
<text text-anchor="middle" x="204" y="-476" font-family="Times,serif" font-size="10.00" fill="red">(latest: 3.0.2)</text>
</g>
<!-- roo_icons -->
<g id="node10" class="node">
<title>roo_icons</title>
<polygon fill="#b1dbab" stroke="black" points="333.5,-551 250.5,-551 250.5,-513 333.5,-513 333.5,-551"/>
<text text-anchor="middle" x="292" y="-535.8" font-family="Times,serif" font-size="14.00">roo_icons</text>
<text text-anchor="middle" x="292" y="-520.8" font-family="Times,serif" font-size="14.00">1.2.2</text>
</g>
<!-- roo_icons&#45;&gt;roo_display -->
<g id="edge14" class="edge">
<title>roo_icons&#45;&gt;roo_display</title>
<path fill="none" stroke="black" d="M283.13,-512.88C276.39,-499.09 266.99,-479.9 259.34,-464.26"/>
<polygon fill="black" stroke="black" points="262.38,-462.51 254.84,-455.07 256.09,-465.59 262.38,-462.51"/>
</g>
<!-- roo_io&#45;&gt;roo_logging -->
<g id="edge15" class="edge">
<title>roo_io&#45;&gt;roo_logging</title>
<path fill="none" stroke="black" d="M671.75,-320.96C682.75,-311.83 696.27,-300.62 708.22,-290.7"/>
<polygon fill="black" stroke="black" points="710.73,-293.17 716.19,-284.09 706.26,-287.78 710.73,-293.17"/>
</g>
<!-- roo_locale -->
<g id="node12" class="node">
<title>roo_locale</title>
<polygon fill="#b1dbab" stroke="black" points="232,-551 144,-551 144,-513 232,-513 232,-551"/>
<text text-anchor="middle" x="188" y="-535.8" font-family="Times,serif" font-size="14.00">roo_locale</text>
<text text-anchor="middle" x="188" y="-520.8" font-family="Times,serif" font-size="14.00">1.1.2</text>
</g>
<!-- roo_logging&#45;&gt;roo_backport -->
<g id="edge16" class="edge">
<title>roo_logging&#45;&gt;roo_backport</title>
<path fill="none" stroke="black" d="M687.81,-248.6C684.83,-247.71 681.88,-246.84 679,-246 634.82,-233.13 584.9,-219.27 546.24,-208.68"/>
<polygon fill="black" stroke="black" points="546.73,-205.18 536.16,-205.92 544.88,-211.93 546.73,-205.18"/>
</g>
<!-- roo_logging&#45;&gt;roo_flags -->
<g id="edge17" class="edge">
<title>roo_logging&#45;&gt;roo_flags</title>
<path fill="none" stroke="black" d="M736.27,-245.96C735.5,-237.88 734.56,-228.18 733.7,-219.18"/>
<polygon fill="black" stroke="black" points="737.17,-218.71 732.73,-209.09 730.21,-219.38 737.17,-218.71"/>
</g>
<!-- roo_threads -->
<g id="node21" class="node">
<title>roo_threads</title>
<polygon fill="#b1dbab" stroke="red" points="659.5,-209 558.5,-209 558.5,-171 659.5,-171 659.5,-209"/>
<text text-anchor="middle" x="609" y="-193.8" font-family="Times,serif" font-size="14.00">roo_threads</text>
<text text-anchor="middle" x="609" y="-178.8" font-family="Times,serif" font-size="14.00">1.2.3</text>
</g>
<!-- roo_logging&#45;&gt;roo_threads -->
<g id="edge18" class="edge">
<title>roo_logging&#45;&gt;roo_threads</title>
<path fill="none" stroke="black" d="M706.11,-245.96C689.21,-236.39 668.26,-224.53 650.14,-214.28"/>
<polygon fill="black" stroke="black" points="651.39,-210.97 640.97,-209.09 647.95,-217.06 651.39,-210.97"/>
</g>
<!-- roo_monitoring -->
<g id="node14" class="node">
<title>roo_monitoring</title>
<polygon fill="khaki" stroke="black" points="572.5,-455 447.5,-455 447.5,-417 572.5,-417 572.5,-455"/>
<text text-anchor="middle" x="510" y="-439.8" font-family="Times,serif" font-size="14.00">roo_monitoring</text>
<text text-anchor="middle" x="510" y="-424.8" font-family="Times,serif" font-size="14.00">1.1.1</text>
</g>
<!-- roo_monitoring&#45;&gt;roo_collections -->
<g id="edge19" class="edge">
<title>roo_monitoring&#45;&gt;roo_collections</title>
<path fill="none" stroke="black" d="M486.67,-416.88C467.75,-402.18 440.92,-381.34 420.17,-365.21"/>
<polygon fill="black" stroke="black" points="422.3,-362.44 412.26,-359.07 418.01,-367.97 422.3,-362.44"/>
</g>
<!-- roo_monitoring&#45;&gt;roo_io -->
<g id="edge20" class="edge">
<title>roo_monitoring&#45;&gt;roo_io</title>
<path fill="none" stroke="black" d="M547.44,-416.82C557.58,-411.46 568.41,-405.32 578,-399 593.21,-388.98 609.08,-376.45 622.03,-365.6"/>
<polygon fill="black" stroke="black" points="624.33,-368.24 629.69,-359.1 619.81,-362.91 624.33,-368.24"/>
</g>
<!-- roo_onewire -->
<g id="node15" class="node">
<title>roo_onewire</title>
<polygon fill="#b1dbab" stroke="black" points="894,-551 790,-551 790,-513 894,-513 894,-551"/>
<text text-anchor="middle" x="842" y="-535.8" font-family="Times,serif" font-size="14.00">roo_onewire</text>
<text text-anchor="middle" x="842" y="-520.8" font-family="Times,serif" font-size="14.00">2.0.9</text>
</g>
<!-- roo_onewire&#45;&gt;roo_quantity -->
<g id="edge22" class="edge">
<title>roo_onewire&#45;&gt;roo_quantity</title>
<path fill="none" stroke="black" d="M844.12,-512.88C845.7,-499.35 847.9,-480.62 849.71,-465.15"/>
<polygon fill="black" stroke="black" points="853.2,-465.41 850.89,-455.07 846.25,-464.59 853.2,-465.41"/>
</g>
<!-- roo_onewire&#45;&gt;roo_scheduler -->
<g id="edge21" class="edge">
<title>roo_onewire&#45;&gt;roo_scheduler</title>
<path fill="none" stroke="black" d="M789.92,-516.08C785.23,-514.95 780.54,-513.9 776,-513 714.04,-500.66 697.33,-505.32 635,-495 547.29,-480.47 525.56,-475.27 439,-455 438.9,-454.98 438.8,-454.95 438.7,-454.93"/>
<polygon fill="black" stroke="black" points="439.73,-451.58 429.18,-452.64 438.09,-458.38 439.73,-451.58"/>
</g>
<!-- roo_powersafefs -->
<g id="node16" class="node">
<title>roo_powersafefs</title>
<polygon fill="khaki" stroke="black" points="669.5,-284 536.5,-284 536.5,-246 669.5,-246 669.5,-284"/>
<text text-anchor="middle" x="603" y="-268.8" font-family="Times,serif" font-size="14.00">roo_powersafefs</text>
<text text-anchor="middle" x="603" y="-253.8" font-family="Times,serif" font-size="14.00">1.0.1</text>
</g>
<!-- roo_powersafefs&#45;&gt;roo_threads -->
<g id="edge23" class="edge">
<title>roo_powersafefs&#45;&gt;roo_threads</title>
<path fill="none" stroke="black" d="M604.48,-245.96C605.15,-237.88 605.94,-228.18 606.68,-219.18"/>
<polygon fill="black" stroke="black" points="610.18,-219.34 607.51,-209.09 603.21,-218.77 610.18,-219.34"/>
</g>
<!-- roo_prefs -->
<g id="node17" class="node">
<title>roo_prefs</title>
<polygon fill="#b1dbab" stroke="black" points="565.5,-551 482.5,-551 482.5,-513 565.5,-513 565.5,-551"/>
<text text-anchor="middle" x="524" y="-535.8" font-family="Times,serif" font-size="14.00">roo_prefs</text>
<text text-anchor="middle" x="524" y="-520.8" font-family="Times,serif" font-size="14.00">1.2.10</text>
</g>
<!-- roo_prefs&#45;&gt;roo_logging -->
<g id="edge24" class="edge">
<title>roo_prefs&#45;&gt;roo_logging</title>
<path fill="none" stroke="black" d="M565.53,-522.67C607.04,-512.58 670.74,-492.14 714,-455 735.92,-436.18 739.4,-426.87 747,-399 756.62,-363.72 750.94,-321.32 745.17,-294.03"/>
<polygon fill="black" stroke="black" points="748.53,-292.99 742.91,-284.01 741.7,-294.54 748.53,-292.99"/>
</g>
<!-- roo_prefs&#45;&gt;roo_scheduler -->
<g id="edge25" class="edge">
<title>roo_prefs&#45;&gt;roo_scheduler</title>
<path fill="none" stroke="black" d="M494.5,-512.88C470.16,-497.92 435.45,-476.6 409.03,-460.36"/>
<polygon fill="black" stroke="black" points="410.76,-457.32 400.41,-455.07 407.1,-463.29 410.76,-457.32"/>
</g>
<!-- roo_quantity&#45;&gt;roo_logging -->
<g id="edge26" class="edge">
<title>roo_quantity&#45;&gt;roo_logging</title>
<path fill="none" stroke="black" d="M846.65,-416.73C836.6,-389.61 815.06,-338.05 785,-302 781.71,-298.05 777.92,-294.28 773.94,-290.75"/>
<polygon fill="black" stroke="black" points="776.08,-287.99 766.14,-284.31 771.62,-293.38 776.08,-287.99"/>
</g>
<!-- roo_scheduler&#45;&gt;roo_collections -->
<g id="edge27" class="edge">
<title>roo_scheduler&#45;&gt;roo_collections</title>
<path fill="none" stroke="black" d="M374.47,-416.88C377.06,-403.35 380.65,-384.62 383.61,-369.15"/>
<polygon fill="black" stroke="black" points="387.1,-369.55 385.54,-359.07 380.22,-368.23 387.1,-369.55"/>
</g>
<!-- roo_scheduler&#45;&gt;roo_threads -->
<g id="edge28" class="edge">
<title>roo_scheduler&#45;&gt;roo_threads</title>
<path fill="none" stroke="black" d="M396,-416.82C414.71,-402.45 440.2,-381.17 459,-359 497.06,-314.12 487.41,-288.6 528,-246 539.35,-234.09 553.7,-223.32 567.15,-214.54"/>
<polygon fill="black" stroke="black" points="569.24,-217.36 575.83,-209.06 565.5,-211.44 569.24,-217.36"/>
</g>
<!-- roo_testing -->
<g id="node20" class="node">
<title>roo_testing</title>
<polygon fill="#b1dbab" stroke="black" points="781.5,-38 684.5,-38 684.5,0 781.5,0 781.5,-38"/>
<text text-anchor="middle" x="733" y="-22.8" font-family="Times,serif" font-size="14.00">roo_testing</text>
<text text-anchor="middle" x="733" y="-7.8" font-family="Times,serif" font-size="14.00">1.3.4</text>
</g>
<!-- roo_time -->
<g id="node22" class="node">
<title>roo_time</title>
<polygon fill="#b1dbab" stroke="red" points="772.5,-134 693.5,-134 693.5,-96 772.5,-96 772.5,-134"/>
<text text-anchor="middle" x="733" y="-118.8" font-family="Times,serif" font-size="14.00">roo_time</text>
<text text-anchor="middle" x="733" y="-103.8" font-family="Times,serif" font-size="14.00">1.4.3</text>
</g>
<!-- roo_threads&#45;&gt;roo_time -->
<g id="edge29" class="edge">
<title>roo_threads&#45;&gt;roo_time</title>
<path fill="none" stroke="black" d="M639.65,-170.96C655.9,-161.39 676.04,-149.53 693.45,-139.28"/>
<polygon fill="black" stroke="black" points="695.43,-142.18 702.27,-134.09 691.88,-136.15 695.43,-142.18"/>
</g>
<!-- roo_time&#45;&gt;roo_testing -->
<g id="edge30" class="edge">
<title>roo_time&#45;&gt;roo_testing</title>
<path fill="none" stroke="red" d="M733,-95.88C733,-82.35 733,-63.62 733,-48.15"/>
<polygon fill="red" stroke="red" points="736.5,-48.07 733,-38.07 729.5,-48.07 736.5,-48.07"/>
<text text-anchor="middle" x="766" y="-70" font-family="Times,serif" font-size="10.00" fill="red">1.3.2</text>
<text text-anchor="middle" x="766" y="-59" font-family="Times,serif" font-size="10.00" fill="red">(latest: 1.3.4)</text>
</g>
<!-- roo_time_ds3231 -->
<g id="node23" class="node">
<title>roo_time_ds3231</title>
<polygon fill="#b1dbab" stroke="black" points="927,-209 789,-209 789,-171 927,-171 927,-209"/>
<text text-anchor="middle" x="858" y="-193.8" font-family="Times,serif" font-size="14.00">roo_time_ds3231</text>
<text text-anchor="middle" x="858" y="-178.8" font-family="Times,serif" font-size="14.00">1.1.6</text>
</g>
<!-- roo_time_ds3231&#45;&gt;roo_time -->
<g id="edge31" class="edge">
<title>roo_time_ds3231&#45;&gt;roo_time</title>
<path fill="none" stroke="black" d="M827.1,-170.96C810.72,-161.39 790.42,-149.53 772.87,-139.28"/>
<polygon fill="black" stroke="black" points="774.38,-136.11 763.98,-134.09 770.85,-142.16 774.38,-136.11"/>
</g>
<!-- roo_transceivers&#45;&gt;roo_prefs -->
<g id="edge32" class="edge">
<title>roo_transceivers&#45;&gt;roo_prefs</title>
<path fill="none" stroke="black" d="M448.12,-608.88C462.43,-594.57 482.56,-574.44 498.49,-558.51"/>
<polygon fill="black" stroke="black" points="501.34,-560.61 505.93,-551.07 496.39,-555.66 501.34,-560.61"/>
</g>
<!-- roo_transport -->
<g id="node25" class="node">
<title>roo_transport</title>
<polygon fill="#b1dbab" stroke="red" points="705,-455 591,-455 591,-417 705,-417 705,-455"/>
<text text-anchor="middle" x="648" y="-439.8" font-family="Times,serif" font-size="14.00">roo_transport</text>
<text text-anchor="middle" x="648" y="-424.8" font-family="Times,serif" font-size="14.00">1.1.2</text>
</g>
<!-- roo_transport&#45;&gt;roo_collections -->
<g id="edge33" class="edge">
<title>roo_transport&#45;&gt;roo_collections</title>
<path fill="none" stroke="black" d="M632.21,-416.94C619.66,-403.77 600.95,-386.63 581,-377 543.59,-358.95 498.02,-349.93 460.67,-345.44"/>
<polygon fill="black" stroke="black" points="460.69,-341.92 450.37,-344.28 459.92,-348.87 460.69,-341.92"/>
</g>
<!-- roo_transport&#45;&gt;roo_io -->
<g id="edge34" class="edge">
<title>roo_transport&#45;&gt;roo_io</title>
<path fill="none" stroke="red" d="M648.39,-416.88C648.67,-403.35 649.07,-384.62 649.4,-369.15"/>
<polygon fill="red" stroke="red" points="652.9,-369.14 649.62,-359.07 645.9,-368.99 652.9,-369.14"/>
<text text-anchor="middle" x="682" y="-391" font-family="Times,serif" font-size="10.00" fill="red">2.1.5</text>
<text text-anchor="middle" x="682" y="-380" font-family="Times,serif" font-size="10.00" fill="red">(latest: 2.1.6)</text>
</g>
<!-- roo_wifi -->
<g id="node26" class="node">
<title>roo_wifi</title>
<polygon fill="khaki" stroke="red" points="588,-647 516,-647 516,-609 588,-609 588,-647"/>
<text text-anchor="middle" x="552" y="-631.8" font-family="Times,serif" font-size="14.00">roo_wifi</text>
<text text-anchor="middle" x="552" y="-616.8" font-family="Times,serif" font-size="14.00">1.1.4</text>
</g>
<!-- roo_wifi&#45;&gt;roo_prefs -->
<g id="edge35" class="edge">
<title>roo_wifi&#45;&gt;roo_prefs</title>
<path fill="none" stroke="red" d="M546.6,-608.88C542.53,-595.22 536.89,-576.26 532.25,-560.71"/>
<polygon fill="red" stroke="red" points="535.59,-559.65 529.38,-551.07 528.88,-561.65 535.59,-559.65"/>
<text text-anchor="middle" x="576" y="-583" font-family="Times,serif" font-size="10.00" fill="red">1.2.9</text>
<text text-anchor="middle" x="576" y="-572" font-family="Times,serif" font-size="10.00" fill="red">(latest: 1.2.10)</text>
</g>
<!-- roo_windows&#45;&gt;roo_icons -->
<g id="edge37" class="edge">
<title>roo_windows&#45;&gt;roo_icons</title>
<path fill="none" stroke="red" d="M290.26,-608.97C290.44,-597.52 290.7,-582.39 291,-569 291.05,-566.57 291.12,-564.06 291.18,-561.53"/>
<polygon fill="red" stroke="red" points="294.68,-561.4 291.45,-551.31 287.69,-561.22 294.68,-561.4"/>
<text text-anchor="middle" x="324" y="-583" font-family="Times,serif" font-size="10.00" fill="red">1.2.1</text>
<text text-anchor="middle" x="324" y="-572" font-family="Times,serif" font-size="10.00" fill="red">(latest: 1.2.2)</text>
</g>
<!-- roo_windows&#45;&gt;roo_locale -->
<g id="edge36" class="edge">
<title>roo_windows&#45;&gt;roo_locale</title>
<path fill="none" stroke="red" d="M245.88,-608.81C237,-603.88 228.2,-597.94 221,-591 212.12,-582.44 204.93,-570.98 199.54,-560.5"/>
<polygon fill="red" stroke="red" points="202.6,-558.77 195.11,-551.27 196.28,-561.8 202.6,-558.77"/>
<text text-anchor="middle" x="254" y="-583" font-family="Times,serif" font-size="10.00" fill="red">1.1.1</text>
<text text-anchor="middle" x="254" y="-572" font-family="Times,serif" font-size="10.00" fill="red">(latest: 1.1.2)</text>
</g>
<!-- roo_windows&#45;&gt;roo_scheduler -->
<g id="edge38" class="edge">
<title>roo_windows&#45;&gt;roo_scheduler</title>
<path fill="none" stroke="red" d="M337.99,-608.96C345.41,-604.18 352.19,-598.27 357,-591 381.98,-553.21 380.12,-498.33 375.94,-465.31"/>
<polygon fill="red" stroke="red" points="379.4,-464.81 374.53,-455.41 372.47,-465.8 379.4,-464.81"/>
<text text-anchor="middle" x="411" y="-535" font-family="Times,serif" font-size="10.00" fill="red">2.1.6</text>
<text text-anchor="middle" x="411" y="-524" font-family="Times,serif" font-size="10.00" fill="red">(latest: 2.1.9)</text>
</g>
<!-- roo_windows_transceivers -->
<g id="node28" class="node">
<title>roo_windows_transceivers</title>
<polygon fill="khaki" stroke="black" points="447,-743 243,-743 243,-705 447,-705 447,-743"/>
<text text-anchor="middle" x="345" y="-727.8" font-family="Times,serif" font-size="14.00">roo_windows_transceivers</text>
<text text-anchor="middle" x="345" y="-712.8" font-family="Times,serif" font-size="14.00">1.0.0</text>
</g>
<!-- roo_windows_transceivers&#45;&gt;roo_transceivers -->
<g id="edge39" class="edge">
<title>roo_windows_transceivers&#45;&gt;roo_transceivers</title>
<path fill="none" stroke="black" d="M361.39,-704.88C374.32,-690.57 392.53,-670.44 406.93,-654.51"/>
<polygon fill="black" stroke="black" points="409.55,-656.83 413.66,-647.07 404.36,-652.14 409.55,-656.83"/>
</g>
<!-- roo_windows_transceivers&#45;&gt;roo_windows -->
<g id="edge40" class="edge">
<title>roo_windows_transceivers&#45;&gt;roo_windows</title>
<path fill="none" stroke="black" d="M334.4,-704.88C326.25,-690.96 314.89,-671.53 305.69,-655.82"/>
<polygon fill="black" stroke="black" points="308.64,-653.93 300.57,-647.07 302.6,-657.47 308.64,-653.93"/>
</g>
<!-- roo_windows_wifi -->
<g id="node29" class="node">
<title>roo_windows_wifi</title>
<polygon fill="khaki" stroke="red" points="606.5,-743 465.5,-743 465.5,-705 606.5,-705 606.5,-743"/>
<text text-anchor="middle" x="536" y="-727.8" font-family="Times,serif" font-size="14.00">roo_windows_wifi</text>
<text text-anchor="middle" x="536" y="-712.8" font-family="Times,serif" font-size="14.00">1.1.3</text>
</g>
<!-- roo_windows_wifi&#45;&gt;roo_wifi -->
<g id="edge41" class="edge">
<title>roo_windows_wifi&#45;&gt;roo_wifi</title>
<path fill="none" stroke="red" d="M534.57,-704.78C534.1,-693.25 534.26,-678.11 537,-665 537.56,-662.3 538.33,-659.54 539.22,-656.82"/>
<polygon fill="red" stroke="red" points="542.57,-657.85 542.83,-647.26 536.02,-655.37 542.57,-657.85"/>
<text text-anchor="middle" x="570" y="-679" font-family="Times,serif" font-size="10.00" fill="red">1.1.3</text>
<text text-anchor="middle" x="570" y="-668" font-family="Times,serif" font-size="10.00" fill="red">(latest: 1.1.4)</text>
</g>
<!-- roo_windows_wifi&#45;&gt;roo_windows -->
<g id="edge42" class="edge">
<title>roo_windows_wifi&#45;&gt;roo_windows</title>
<path fill="none" stroke="black" d="M488.86,-704.99C448.39,-689.52 389.95,-667.19 346.89,-650.74"/>
<polygon fill="black" stroke="black" points="347.99,-647.41 337.4,-647.11 345.49,-653.95 347.99,-647.41"/>
</g>
</g>
</svg>
