<?xml version="1.0" encoding="UTF-8" standalone="no"?>
<!DOCTYPE svg PUBLIC "-//W3C//DTD SVG 1.1//EN"
 "http://www.w3.org/Graphics/SVG/1.1/DTD/svg11.dtd">
<!-- Generated by graphviz version 2.42.4 (0)
 -->
<!-- Title: dependencies Pages: 1 -->
<svg width="959pt" height="793pt"
 viewBox="0.00 0.00 958.50 793.00" xmlns="http://www.w3.org/2000/svg" xmlns:xlink="http://www.w3.org/1999/xlink">
<g id="graph0" class="graph" transform="scale(1 1) rotate(0) translate(4 789)">
<title>dependencies</title>
<polygon fill="white" stroke="transparent" points="-4,4 -4,-789 954.5,-789 954.5,4 -4,4"/>
<!-- roo_backport -->
<g id="node1" class="node">
<title>roo_backport</title>
<polygon fill="plum" stroke="black" points="615,-209 505,-209 505,-171 615,-171 615,-209"/>
<text text-anchor="middle" x="560" y="-193.8" font-family="Times,serif" font-size="14.00">roo_backport</text>
<text text-anchor="middle" x="560" y="-178.8" font-family="Times,serif" font-size="14.00">1.2.2</text>
</g>
<!-- roo_blink -->
<g id="node2" class="node">
<title>roo_blink</title>
<polygon fill="plum" stroke="red" points="228,-593 146,-593 146,-555 228,-555 228,-593"/>
<text text-anchor="middle" x="187" y="-577.8" font-family="Times,serif" font-size="14.00">roo_blink</text>
<text text-anchor="middle" x="187" y="-562.8" font-family="Times,serif" font-size="14.00">1.0.5</text>
</g>
<!-- roo_logging -->
<g id="node12" class="node">
<title>roo_logging</title>
<polygon fill="plum" stroke="red" points="392,-305 292,-305 292,-267 392,-267 392,-305"/>
<text text-anchor="middle" x="342" y="-289.8" font-family="Times,serif" font-size="14.00">roo_logging</text>
<text text-anchor="middle" x="342" y="-274.8" font-family="Times,serif" font-size="14.00">1.5.4</text>
</g>
<!-- roo_blink&#45;&gt;roo_logging -->
<g id="edge1" class="edge">
<title>roo_blink&#45;&gt;roo_logging</title>
<path fill="none" stroke="red" d="M186.57,-554.93C186.65,-524.59 190.39,-462.44 217,-419 223.78,-407.93 231.22,-410.56 240,-401 268.02,-370.49 262.24,-352.8 291,-323 295.05,-318.8 299.65,-314.78 304.39,-311.04"/>
<polygon fill="red" stroke="red" points="306.51,-313.83 312.43,-305.04 302.32,-308.22 306.51,-313.83"/>
<text text-anchor="middle" x="250" y="-433" font-family="Times,serif" font-size="10.00" fill="red">1.5.3</text>
<text text-anchor="middle" x="250" y="-422" font-family="Times,serif" font-size="10.00" fill="red">(latest: 1.5.4)</text>
</g>
<!-- roo_scheduler -->
<g id="node18" class="node">
<title>roo_scheduler</title>
<polygon fill="plum" stroke="red" points="356,-497 240,-497 240,-459 356,-459 356,-497"/>
<text text-anchor="middle" x="298" y="-481.8" font-family="Times,serif" font-size="14.00">roo_scheduler</text>
<text text-anchor="middle" x="298" y="-466.8" font-family="Times,serif" font-size="14.00">2.1.7</text>
</g>
<!-- roo_blink&#45;&gt;roo_scheduler -->
<g id="edge2" class="edge">
<title>roo_blink&#45;&gt;roo_scheduler</title>
<path fill="none" stroke="black" d="M210.06,-554.89C217.15,-549.23 224.95,-542.91 232,-537 244.73,-526.33 258.56,-514.24 270.27,-503.88"/>
<polygon fill="black" stroke="black" points="272.84,-506.27 277.99,-497.01 268.19,-501.04 272.84,-506.27"/>
</g>
<!-- roo_collections -->
<g id="node3" class="node">
<title>roo_collections</title>
<polygon fill="plum" stroke="black" points="772,-401 650,-401 650,-363 772,-363 772,-401"/>
<text text-anchor="middle" x="711" y="-385.8" font-family="Times,serif" font-size="14.00">roo_collections</text>
<text text-anchor="middle" x="711" y="-370.8" font-family="Times,serif" font-size="14.00">1.4.2</text>
</g>
<!-- roo_collections&#45;&gt;roo_backport -->
<g id="edge3" class="edge">
<title>roo_collections&#45;&gt;roo_backport</title>
<path fill="none" stroke="black" d="M696.52,-362.78C669.69,-329.02 612.14,-256.61 581.02,-217.45"/>
<polygon fill="black" stroke="black" points="583.4,-214.81 574.43,-209.16 577.92,-219.17 583.4,-214.81"/>
</g>
<!-- roo_comms -->
<g id="node4" class="node">
<title>roo_comms</title>
<polygon fill="plum" stroke="red" points="351.5,-785 254.5,-785 254.5,-747 351.5,-747 351.5,-785"/>
<text text-anchor="middle" x="303" y="-769.8" font-family="Times,serif" font-size="14.00">roo_comms</text>
<text text-anchor="middle" x="303" y="-754.8" font-family="Times,serif" font-size="14.00">1.1.3</text>
</g>
<!-- roo_comms&#45;&gt;roo_blink -->
<g id="edge4" class="edge">
<title>roo_comms&#45;&gt;roo_blink</title>
<path fill="none" stroke="red" d="M291.88,-746.78C271.35,-713.16 227.43,-641.22 203.45,-601.94"/>
<polygon fill="red" stroke="red" points="206.29,-599.87 198.09,-593.16 200.31,-603.52 206.29,-599.87"/>
<text text-anchor="middle" x="290" y="-673" font-family="Times,serif" font-size="10.00" fill="red">1.0.4</text>
<text text-anchor="middle" x="290" y="-662" font-family="Times,serif" font-size="10.00" fill="red">(latest: 1.0.5)</text>
</g>
<!-- roo_control -->
<g id="node5" class="node">
<title>roo_control</title>
<polygon fill="plum" stroke="red" points="127.5,-593 30.5,-593 30.5,-555 127.5,-555 127.5,-593"/>
<text text-anchor="middle" x="79" y="-577.8" font-family="Times,serif" font-size="14.00">roo_control</text>
<text text-anchor="middle" x="79" y="-562.8" font-family="Times,serif" font-size="14.00">1.2.4</text>
</g>
<!-- roo_comms&#45;&gt;roo_control -->
<g id="edge5" class="edge">
<title>roo_comms&#45;&gt;roo_control</title>
<path fill="none" stroke="red" d="M258.94,-746.87C229.98,-733.59 192.34,-713.62 164,-689 134.79,-663.62 109.48,-626.58 94.25,-601.68"/>
<polygon fill="red" stroke="red" points="97.25,-599.87 89.1,-593.09 91.24,-603.47 97.25,-599.87"/>
<text text-anchor="middle" x="197" y="-673" font-family="Times,serif" font-size="10.00" fill="red">1.2.3</text>
<text text-anchor="middle" x="197" y="-662" font-family="Times,serif" font-size="10.00" fill="red">(latest: 1.2.4)</text>
</g>
<!-- roo_io -->
<g id="node10" class="node">
<title>roo_io</title>
<polygon fill="plum" stroke="red" points="537.5,-401 478.5,-401 478.5,-363 537.5,-363 537.5,-401"/>
<text text-anchor="middle" x="508" y="-385.8" font-family="Times,serif" font-size="14.00">roo_io</text>
<text text-anchor="middle" x="508" y="-370.8" font-family="Times,serif" font-size="14.00">2.1.4</text>
</g>
<!-- roo_comms&#45;&gt;roo_io -->
<g id="edge6" class="edge">
<title>roo_comms&#45;&gt;roo_io</title>
<path fill="none" stroke="red" d="M333.91,-746.79C357.5,-730.32 386,-703.66 386,-671 386,-671 386,-671 386,-477 386,-450.48 382.06,-438.53 400,-419 417.39,-400.07 444.99,-391.08 467.94,-386.82"/>
<polygon fill="red" stroke="red" points="468.79,-390.23 478.1,-385.17 467.67,-383.32 468.79,-390.23"/>
<text text-anchor="middle" x="419" y="-577" font-family="Times,serif" font-size="10.00" fill="red">2.1.1</text>
<text text-anchor="middle" x="419" y="-566" font-family="Times,serif" font-size="10.00" fill="red">(latest: 2.1.4)</text>
</g>
<!-- roo_transceivers -->
<g id="node23" class="node">
<title>roo_transceivers</title>
<polygon fill="plum" stroke="red" points="549.5,-689 414.5,-689 414.5,-651 549.5,-651 549.5,-689"/>
<text text-anchor="middle" x="482" y="-673.8" font-family="Times,serif" font-size="14.00">roo_transceivers</text>
<text text-anchor="middle" x="482" y="-658.8" font-family="Times,serif" font-size="14.00">1.1.4</text>
</g>
<!-- roo_comms&#45;&gt;roo_transceivers -->
<g id="edge7" class="edge">
<title>roo_comms&#45;&gt;roo_transceivers</title>
<path fill="none" stroke="black" d="M351.93,-749.64C367.66,-743.97 384.91,-736.96 400,-729 417.92,-719.55 436.47,-706.72 451.38,-695.54"/>
<polygon fill="black" stroke="black" points="453.88,-698.03 459.71,-689.18 449.63,-692.47 453.88,-698.03"/>
</g>
<!-- roo_quantity -->
<g id="node17" class="node">
<title>roo_quantity</title>
<polygon fill="plum" stroke="red" points="162.5,-497 55.5,-497 55.5,-459 162.5,-459 162.5,-497"/>
<text text-anchor="middle" x="109" y="-481.8" font-family="Times,serif" font-size="14.00">roo_quantity</text>
<text text-anchor="middle" x="109" y="-466.8" font-family="Times,serif" font-size="14.00">1.1.7</text>
</g>
<!-- roo_control&#45;&gt;roo_quantity -->
<g id="edge8" class="edge">
<title>roo_control&#45;&gt;roo_quantity</title>
<path fill="none" stroke="black" d="M84.78,-554.88C89.14,-541.22 95.19,-522.26 100.16,-506.71"/>
<polygon fill="black" stroke="black" points="103.53,-507.66 103.23,-497.07 96.86,-505.53 103.53,-507.66"/>
</g>
<!-- roo_control&#45;&gt;roo_scheduler -->
<g id="edge9" class="edge">
<title>roo_control&#45;&gt;roo_scheduler</title>
<path fill="none" stroke="black" d="M120.97,-554.99C156.69,-539.65 208.15,-517.57 246.38,-501.15"/>
<polygon fill="black" stroke="black" points="247.99,-504.27 255.8,-497.11 245.23,-497.84 247.99,-504.27"/>
</g>
<!-- roo_dashboard -->
<g id="node6" class="node">
<title>roo_dashboard</title>
<polygon fill="plum" stroke="red" points="884,-785 762,-785 762,-747 884,-747 884,-785"/>
<text text-anchor="middle" x="823" y="-769.8" font-family="Times,serif" font-size="14.00">roo_dashboard</text>
<text text-anchor="middle" x="823" y="-754.8" font-family="Times,serif" font-size="14.00">1.0.1</text>
</g>
<!-- roo_windows -->
<g id="node26" class="node">
<title>roo_windows</title>
<polygon fill="plum" stroke="red" points="808.5,-689 699.5,-689 699.5,-651 808.5,-651 808.5,-689"/>
<text text-anchor="middle" x="754" y="-673.8" font-family="Times,serif" font-size="14.00">roo_windows</text>
<text text-anchor="middle" x="754" y="-658.8" font-family="Times,serif" font-size="14.00">1.4.2</text>
</g>
<!-- roo_dashboard&#45;&gt;roo_windows -->
<g id="edge10" class="edge">
<title>roo_dashboard&#45;&gt;roo_windows</title>
<path fill="none" stroke="red" d="M809.7,-746.88C799.39,-732.83 784.95,-713.17 773.37,-697.38"/>
<polygon fill="red" stroke="red" points="776,-695.06 767.26,-689.07 770.36,-699.2 776,-695.06"/>
<text text-anchor="middle" x="827" y="-721" font-family="Times,serif" font-size="10.00" fill="red">1.4.1</text>
<text text-anchor="middle" x="827" y="-710" font-family="Times,serif" font-size="10.00" fill="red">(latest: 1.4.2)</text>
</g>
<!-- roo_display -->
<g id="node7" class="node">
<title>roo_display</title>
<polygon fill="plum" stroke="red" points="804,-497 706,-497 706,-459 804,-459 804,-497"/>
<text text-anchor="middle" x="755" y="-481.8" font-family="Times,serif" font-size="14.00">roo_display</text>
<text text-anchor="middle" x="755" y="-466.8" font-family="Times,serif" font-size="14.00">2.3.2</text>
</g>
<!-- roo_display&#45;&gt;roo_collections -->
<g id="edge11" class="edge">
<title>roo_display&#45;&gt;roo_collections</title>
<path fill="none" stroke="red" d="M770.59,-458.79C778.7,-446.99 785.5,-431.55 778,-419 775.43,-414.69 772.14,-410.87 768.41,-407.49"/>
<polygon fill="red" stroke="red" points="770.26,-404.49 760.21,-401.13 765.97,-410.03 770.26,-404.49"/>
<text text-anchor="middle" x="814" y="-433" font-family="Times,serif" font-size="10.00" fill="red">1.4.0</text>
<text text-anchor="middle" x="814" y="-422" font-family="Times,serif" font-size="10.00" fill="red">(latest: 1.4.2)</text>
</g>
<!-- roo_display&#45;&gt;roo_io -->
<g id="edge12" class="edge">
<title>roo_display&#45;&gt;roo_io</title>
<path fill="none" stroke="red" d="M705.92,-472.58C673.7,-468.07 631.48,-459.04 598,-441 585.55,-434.29 586.45,-427.31 575,-419 566.26,-412.65 556.25,-406.68 546.69,-401.5"/>
<polygon fill="red" stroke="red" points="548.2,-398.33 537.72,-396.78 544.94,-404.53 548.2,-398.33"/>
<text text-anchor="middle" x="631" y="-433" font-family="Times,serif" font-size="10.00" fill="red">2.1.2</text>
<text text-anchor="middle" x="631" y="-422" font-family="Times,serif" font-size="10.00" fill="red">(latest: 2.1.4)</text>
</g>
<!-- roo_flags -->
<g id="node8" class="node">
<title>roo_flags</title>
<polygon fill="#b1dbab" stroke="black" points="425,-209 345,-209 345,-171 425,-171 425,-209"/>
<text text-anchor="middle" x="385" y="-193.8" font-family="Times,serif" font-size="14.00">roo_flags</text>
<text text-anchor="middle" x="385" y="-178.8" font-family="Times,serif" font-size="14.00">1.2.3</text>
</g>
<!-- roo_icons -->
<g id="node9" class="node">
<title>roo_icons</title>
<polygon fill="plum" stroke="red" points="796.5,-593 713.5,-593 713.5,-555 796.5,-555 796.5,-593"/>
<text text-anchor="middle" x="755" y="-577.8" font-family="Times,serif" font-size="14.00">roo_icons</text>
<text text-anchor="middle" x="755" y="-562.8" font-family="Times,serif" font-size="14.00">1.2.1</text>
</g>
<!-- roo_icons&#45;&gt;roo_display -->
<g id="edge13" class="edge">
<title>roo_icons&#45;&gt;roo_display</title>
<path fill="none" stroke="red" d="M755,-554.88C755,-541.35 755,-522.62 755,-507.15"/>
<polygon fill="red" stroke="red" points="758.5,-507.07 755,-497.07 751.5,-507.07 758.5,-507.07"/>
<text text-anchor="middle" x="788" y="-529" font-family="Times,serif" font-size="10.00" fill="red">2.3.1</text>
<text text-anchor="middle" x="788" y="-518" font-family="Times,serif" font-size="10.00" fill="red">(latest: 2.3.2)</text>
</g>
<!-- roo_io&#45;&gt;roo_logging -->
<g id="edge14" class="edge">
<title>roo_io&#45;&gt;roo_logging</title>
<path fill="none" stroke="red" d="M478.32,-364.19C451.7,-349.12 412.39,-326.86 382.81,-310.11"/>
<polygon fill="red" stroke="red" points="384.39,-306.98 373.97,-305.1 380.95,-313.08 384.39,-306.98"/>
<text text-anchor="middle" x="473" y="-337" font-family="Times,serif" font-size="10.00" fill="red">1.5.3</text>
<text text-anchor="middle" x="473" y="-326" font-family="Times,serif" font-size="10.00" fill="red">(latest: 1.5.4)</text>
</g>
<!-- roo_locale -->
<g id="node11" class="node">
<title>roo_locale</title>
<polygon fill="plum" stroke="black" points="903,-593 815,-593 815,-555 903,-555 903,-593"/>
<text text-anchor="middle" x="859" y="-577.8" font-family="Times,serif" font-size="14.00">roo_locale</text>
<text text-anchor="middle" x="859" y="-562.8" font-family="Times,serif" font-size="14.00">1.1.1</text>
</g>
<!-- roo_logging&#45;&gt;roo_backport -->
<g id="edge15" class="edge">
<title>roo_logging&#45;&gt;roo_backport</title>
<path fill="none" stroke="black" d="M392.02,-268.48C408.42,-262.72 426.63,-255.94 443,-249 468.02,-238.38 495.26,-224.99 517.16,-213.75"/>
<polygon fill="black" stroke="black" points="518.92,-216.78 526.19,-209.08 515.7,-210.56 518.92,-216.78"/>
</g>
<!-- roo_logging&#45;&gt;roo_flags -->
<g id="edge16" class="edge">
<title>roo_logging&#45;&gt;roo_flags</title>
<path fill="none" stroke="red" d="M353.5,-266.63C356.77,-261.07 360.2,-254.88 363,-249 367.61,-239.33 371.96,-228.42 375.56,-218.7"/>
<polygon fill="red" stroke="red" points="378.92,-219.68 379.01,-209.09 372.33,-217.32 378.92,-219.68"/>
<text text-anchor="middle" x="406" y="-241" font-family="Times,serif" font-size="10.00" fill="red">1.2.2</text>
<text text-anchor="middle" x="406" y="-230" font-family="Times,serif" font-size="10.00" fill="red">(latest: 1.2.3)</text>
</g>
<!-- roo_threads -->
<g id="node20" class="node">
<title>roo_threads</title>
<polygon fill="#b1dbab" stroke="black" points="257.5,-209 156.5,-209 156.5,-171 257.5,-171 257.5,-209"/>
<text text-anchor="middle" x="207" y="-193.8" font-family="Times,serif" font-size="14.00">roo_threads</text>
<text text-anchor="middle" x="207" y="-178.8" font-family="Times,serif" font-size="14.00">1.2.3</text>
</g>
<!-- roo_logging&#45;&gt;roo_threads -->
<g id="edge17" class="edge">
<title>roo_logging&#45;&gt;roo_threads</title>
<path fill="none" stroke="red" d="M315.2,-266.98C307.74,-261.53 299.82,-255.3 293,-249 283.51,-240.23 284.08,-235.08 274,-227 268.26,-222.4 261.85,-218.1 255.33,-214.18"/>
<polygon fill="red" stroke="red" points="256.84,-211.02 246.42,-209.09 253.37,-217.09 256.84,-211.02"/>
<text text-anchor="middle" x="326" y="-241" font-family="Times,serif" font-size="10.00" fill="red">1.2.2</text>
<text text-anchor="middle" x="326" y="-230" font-family="Times,serif" font-size="10.00" fill="red">(latest: 1.2.3)</text>
</g>
<!-- roo_monitoring -->
<g id="node13" class="node">
<title>roo_monitoring</title>
<polygon fill="plum" stroke="red" points="950.5,-497 825.5,-497 825.5,-459 950.5,-459 950.5,-497"/>
<text text-anchor="middle" x="888" y="-481.8" font-family="Times,serif" font-size="14.00">roo_monitoring</text>
<text text-anchor="middle" x="888" y="-466.8" font-family="Times,serif" font-size="14.00">1.0.0</text>
</g>
<!-- roo_monitoring&#45;&gt;roo_collections -->
<g id="edge18" class="edge">
<title>roo_monitoring&#45;&gt;roo_collections</title>
<path fill="none" stroke="red" d="M880.82,-458.93C874.75,-445.95 864.83,-429.03 851,-419 831,-404.5 805.68,-395.83 782.09,-390.65"/>
<polygon fill="red" stroke="red" points="782.6,-387.18 772.11,-388.63 781.22,-394.04 782.6,-387.18"/>
<text text-anchor="middle" x="903" y="-433" font-family="Times,serif" font-size="10.00" fill="red">1.4.1</text>
<text text-anchor="middle" x="903" y="-422" font-family="Times,serif" font-size="10.00" fill="red">(latest: 1.4.2)</text>
</g>
<!-- roo_monitoring&#45;&gt;roo_io -->
<g id="edge19" class="edge">
<title>roo_monitoring&#45;&gt;roo_io</title>
<path fill="none" stroke="black" d="M825.48,-461.56C821.26,-460.65 817.08,-459.79 813,-459 759.63,-448.65 741.93,-462.51 692,-441 677.47,-434.74 678.28,-425.83 664,-419 626.78,-401.19 580.28,-391.93 547.77,-387.29"/>
<polygon fill="black" stroke="black" points="548.11,-383.81 537.73,-385.94 547.18,-390.74 548.11,-383.81"/>
</g>
<!-- roo_onewire -->
<g id="node14" class="node">
<title>roo_onewire</title>
<polygon fill="plum" stroke="red" points="350,-593 246,-593 246,-555 350,-555 350,-593"/>
<text text-anchor="middle" x="298" y="-577.8" font-family="Times,serif" font-size="14.00">roo_onewire</text>
<text text-anchor="middle" x="298" y="-562.8" font-family="Times,serif" font-size="14.00">2.0.8</text>
</g>
<!-- roo_onewire&#45;&gt;roo_quantity -->
<g id="edge21" class="edge">
<title>roo_onewire&#45;&gt;roo_quantity</title>
<path fill="none" stroke="black" d="M261.56,-554.88C231.1,-539.73 187.5,-518.04 154.7,-501.73"/>
<polygon fill="black" stroke="black" points="155.84,-498.39 145.33,-497.07 152.72,-504.66 155.84,-498.39"/>
</g>
<!-- roo_onewire&#45;&gt;roo_scheduler -->
<g id="edge20" class="edge">
<title>roo_onewire&#45;&gt;roo_scheduler</title>
<path fill="none" stroke="black" d="M298,-554.88C298,-541.35 298,-522.62 298,-507.15"/>
<polygon fill="black" stroke="black" points="301.5,-507.07 298,-497.07 294.5,-507.07 301.5,-507.07"/>
</g>
<!-- roo_powersafefs -->
<g id="node15" class="node">
<title>roo_powersafefs</title>
<polygon fill="plum" stroke="red" points="273.5,-305 140.5,-305 140.5,-267 273.5,-267 273.5,-305"/>
<text text-anchor="middle" x="207" y="-289.8" font-family="Times,serif" font-size="14.00">roo_powersafefs</text>
<text text-anchor="middle" x="207" y="-274.8" font-family="Times,serif" font-size="14.00">1.0.0</text>
</g>
<!-- roo_powersafefs&#45;&gt;roo_threads -->
<g id="edge22" class="edge">
<title>roo_powersafefs&#45;&gt;roo_threads</title>
<path fill="none" stroke="red" d="M207,-266.88C207,-253.35 207,-234.62 207,-219.15"/>
<polygon fill="red" stroke="red" points="210.5,-219.07 207,-209.07 203.5,-219.07 210.5,-219.07"/>
<text text-anchor="middle" x="240" y="-241" font-family="Times,serif" font-size="10.00" fill="red">1.2.1</text>
<text text-anchor="middle" x="240" y="-230" font-family="Times,serif" font-size="10.00" fill="red">(latest: 1.2.3)</text>
</g>
<!-- roo_prefs -->
<g id="node16" class="node">
<title>roo_prefs</title>
<polygon fill="plum" stroke="red" points="553.5,-593 470.5,-593 470.5,-555 553.5,-555 553.5,-593"/>
<text text-anchor="middle" x="512" y="-577.8" font-family="Times,serif" font-size="14.00">roo_prefs</text>
<text text-anchor="middle" x="512" y="-562.8" font-family="Times,serif" font-size="14.00">1.2.8</text>
</g>
<!-- roo_prefs&#45;&gt;roo_logging -->
<g id="edge23" class="edge">
<title>roo_prefs&#45;&gt;roo_logging</title>
<path fill="none" stroke="red" d="M493.07,-554.79C466.44,-530.04 415.49,-485.8 365,-459 342.28,-446.94 325.1,-461.82 310,-441 282.46,-403.01 306.31,-346.63 324.97,-313.67"/>
<polygon fill="red" stroke="red" points="328,-315.42 330.05,-305.03 321.96,-311.87 328,-315.42"/>
<text text-anchor="middle" x="343" y="-433" font-family="Times,serif" font-size="10.00" fill="red">1.5.3</text>
<text text-anchor="middle" x="343" y="-422" font-family="Times,serif" font-size="10.00" fill="red">(latest: 1.5.4)</text>
</g>
<!-- roo_prefs&#45;&gt;roo_scheduler -->
<g id="edge24" class="edge">
<title>roo_prefs&#45;&gt;roo_scheduler</title>
<path fill="none" stroke="black" d="M470.27,-556.09C455.88,-550.16 439.69,-543.39 425,-537 398.61,-525.52 369.38,-512.21 345.62,-501.24"/>
<polygon fill="black" stroke="black" points="347.01,-498.03 336.47,-497 344.07,-504.38 347.01,-498.03"/>
</g>
<!-- roo_quantity&#45;&gt;roo_logging -->
<g id="edge25" class="edge">
<title>roo_quantity&#45;&gt;roo_logging</title>
<path fill="none" stroke="red" d="M115.88,-458.98C125.79,-434.84 146.03,-391.73 174,-363 197.93,-338.43 209,-337.67 240,-323 253.38,-316.67 268.19,-310.82 282.28,-305.76"/>
<polygon fill="red" stroke="red" points="283.61,-309.01 291.89,-302.39 281.29,-302.4 283.61,-309.01"/>
<text text-anchor="middle" x="207" y="-385" font-family="Times,serif" font-size="10.00" fill="red">1.5.3</text>
<text text-anchor="middle" x="207" y="-374" font-family="Times,serif" font-size="10.00" fill="red">(latest: 1.5.4)</text>
</g>
<!-- roo_scheduler&#45;&gt;roo_collections -->
<g id="edge26" class="edge">
<title>roo_scheduler&#45;&gt;roo_collections</title>
<path fill="none" stroke="red" d="M337.13,-458.9C370.18,-443.87 415.06,-424.17 434,-419 453.45,-413.7 564.5,-400.09 639.95,-391.21"/>
<polygon fill="red" stroke="red" points="640.36,-394.69 649.89,-390.04 639.55,-387.73 640.36,-394.69"/>
<text text-anchor="middle" x="467" y="-433" font-family="Times,serif" font-size="10.00" fill="red">1.4.1</text>
<text text-anchor="middle" x="467" y="-422" font-family="Times,serif" font-size="10.00" fill="red">(latest: 1.4.2)</text>
</g>
<!-- roo_scheduler&#45;&gt;roo_threads -->
<g id="edge27" class="edge">
<title>roo_scheduler&#45;&gt;roo_threads</title>
<path fill="none" stroke="red" d="M286.72,-458.88C279.11,-447.12 268.57,-431.69 258,-419 235.47,-391.96 228.11,-386.61 202,-363 171.78,-335.67 148.46,-341.81 131,-305 115.43,-272.18 145.48,-237.95 172.26,-215.67"/>
<polygon fill="red" stroke="red" points="174.79,-218.14 180.41,-209.16 170.42,-212.67 174.79,-218.14"/>
<text text-anchor="middle" x="209" y="-337" font-family="Times,serif" font-size="10.00" fill="red">1.2.1</text>
<text text-anchor="middle" x="209" y="-326" font-family="Times,serif" font-size="10.00" fill="red">(latest: 1.2.3)</text>
</g>
<!-- roo_testing -->
<g id="node19" class="node">
<title>roo_testing</title>
<polygon fill="#b1dbab" stroke="black" points="157.5,-38 60.5,-38 60.5,0 157.5,0 157.5,-38"/>
<text text-anchor="middle" x="109" y="-22.8" font-family="Times,serif" font-size="14.00">roo_testing</text>
<text text-anchor="middle" x="109" y="-7.8" font-family="Times,serif" font-size="14.00">1.3.2</text>
</g>
<!-- roo_time -->
<g id="node21" class="node">
<title>roo_time</title>
<polygon fill="#b1dbab" stroke="black" points="148.5,-113 69.5,-113 69.5,-75 148.5,-75 148.5,-113"/>
<text text-anchor="middle" x="109" y="-97.8" font-family="Times,serif" font-size="14.00">roo_time</text>
<text text-anchor="middle" x="109" y="-82.8" font-family="Times,serif" font-size="14.00">1.4.3</text>
</g>
<!-- roo_threads&#45;&gt;roo_time -->
<g id="edge28" class="edge">
<title>roo_threads&#45;&gt;roo_time</title>
<path fill="none" stroke="black" d="M195.49,-170.74C187.33,-158.64 175.61,-142.86 163,-131 158.58,-126.85 153.64,-122.85 148.58,-119.12"/>
<polygon fill="black" stroke="black" points="150.24,-116.01 140.04,-113.13 146.22,-121.74 150.24,-116.01"/>
</g>
<!-- roo_time&#45;&gt;roo_testing -->
<g id="edge29" class="edge">
<title>roo_time&#45;&gt;roo_testing</title>
<path fill="none" stroke="black" d="M109,-74.96C109,-66.88 109,-57.18 109,-48.18"/>
<polygon fill="black" stroke="black" points="112.5,-48.09 109,-38.09 105.5,-48.09 112.5,-48.09"/>
</g>
<!-- roo_time_ds3231 -->
<g id="node22" class="node">
<title>roo_time_ds3231</title>
<polygon fill="plum" stroke="red" points="138,-209 0,-209 0,-171 138,-171 138,-209"/>
<text text-anchor="middle" x="69" y="-193.8" font-family="Times,serif" font-size="14.00">roo_time_ds3231</text>
<text text-anchor="middle" x="69" y="-178.8" font-family="Times,serif" font-size="14.00">1.1.5</text>
</g>
<!-- roo_time_ds3231&#45;&gt;roo_time -->
<g id="edge30" class="edge">
<title>roo_time_ds3231&#45;&gt;roo_time</title>
<path fill="none" stroke="red" d="M76.71,-170.88C82.52,-157.22 90.59,-138.26 97.21,-122.71"/>
<polygon fill="red" stroke="red" points="100.62,-123.64 101.31,-113.07 94.18,-120.9 100.62,-123.64"/>
<text text-anchor="middle" x="126" y="-145" font-family="Times,serif" font-size="10.00" fill="red">1.4.1</text>
<text text-anchor="middle" x="126" y="-134" font-family="Times,serif" font-size="10.00" fill="red">(latest: 1.4.3)</text>
</g>
<!-- roo_transceivers&#45;&gt;roo_prefs -->
<g id="edge31" class="edge">
<title>roo_transceivers&#45;&gt;roo_prefs</title>
<path fill="none" stroke="red" d="M467.21,-650.75C459.64,-639.07 453.3,-623.78 460,-611 462.15,-606.9 465.01,-603.17 468.27,-599.8"/>
<polygon fill="red" stroke="red" points="470.79,-602.24 475.98,-593 466.16,-596.99 470.79,-602.24"/>
<text text-anchor="middle" x="493" y="-625" font-family="Times,serif" font-size="10.00" fill="red">1.2.7</text>
<text text-anchor="middle" x="493" y="-614" font-family="Times,serif" font-size="10.00" fill="red">(latest: 1.2.8)</text>
</g>
<!-- roo_transport -->
<g id="node24" class="node">
<title>roo_transport</title>
<polygon fill="plum" stroke="red" points="628,-497 514,-497 514,-459 628,-459 628,-497"/>
<text text-anchor="middle" x="571" y="-481.8" font-family="Times,serif" font-size="14.00">roo_transport</text>
<text text-anchor="middle" x="571" y="-466.8" font-family="Times,serif" font-size="14.00">1.1.1</text>
</g>
<!-- roo_transport&#45;&gt;roo_collections -->
<g id="edge32" class="edge">
<title>roo_transport&#45;&gt;roo_collections</title>
<path fill="none" stroke="red" d="M628.04,-461.61C641.58,-456.38 655.44,-449.61 667,-441 678.28,-432.6 688.06,-420.55 695.52,-409.6"/>
<polygon fill="red" stroke="red" points="698.5,-411.45 700.99,-401.15 692.62,-407.64 698.5,-411.45"/>
<text text-anchor="middle" x="721" y="-433" font-family="Times,serif" font-size="10.00" fill="red">1.4.1</text>
<text text-anchor="middle" x="721" y="-422" font-family="Times,serif" font-size="10.00" fill="red">(latest: 1.4.2)</text>
</g>
<!-- roo_transport&#45;&gt;roo_io -->
<g id="edge33" class="edge">
<title>roo_transport&#45;&gt;roo_io</title>
<path fill="none" stroke="red" d="M526.42,-458.87C519.48,-454.08 513.22,-448.19 509,-441 503.81,-432.17 502.59,-421.2 503,-411.19"/>
<polygon fill="red" stroke="red" points="506.48,-411.51 503.92,-401.23 499.51,-410.87 506.48,-411.51"/>
<text text-anchor="middle" x="542" y="-433" font-family="Times,serif" font-size="10.00" fill="red">2.1.3</text>
<text text-anchor="middle" x="542" y="-422" font-family="Times,serif" font-size="10.00" fill="red">(latest: 2.1.4)</text>
</g>
<!-- roo_wifi -->
<g id="node25" class="node">
<title>roo_wifi</title>
<polygon fill="plum" stroke="red" points="645,-689 573,-689 573,-651 645,-651 645,-689"/>
<text text-anchor="middle" x="609" y="-673.8" font-family="Times,serif" font-size="14.00">roo_wifi</text>
<text text-anchor="middle" x="609" y="-658.8" font-family="Times,serif" font-size="14.00">1.1.3</text>
</g>
<!-- roo_wifi&#45;&gt;roo_prefs -->
<g id="edge34" class="edge">
<title>roo_wifi&#45;&gt;roo_prefs</title>
<path fill="none" stroke="red" d="M572.79,-650.96C564.44,-645.83 555.97,-639.78 549,-633 539.8,-624.05 531.8,-612.38 525.62,-601.87"/>
<polygon fill="red" stroke="red" points="528.6,-600.03 520.66,-593.02 522.49,-603.45 528.6,-600.03"/>
<text text-anchor="middle" x="582" y="-625" font-family="Times,serif" font-size="10.00" fill="red">1.2.7</text>
<text text-anchor="middle" x="582" y="-614" font-family="Times,serif" font-size="10.00" fill="red">(latest: 1.2.8)</text>
</g>
<!-- roo_windows&#45;&gt;roo_icons -->
<g id="edge36" class="edge">
<title>roo_windows&#45;&gt;roo_icons</title>
<path fill="none" stroke="black" d="M754.19,-650.88C754.34,-637.35 754.54,-618.62 754.7,-603.15"/>
<polygon fill="black" stroke="black" points="758.2,-603.11 754.81,-593.07 751.2,-603.03 758.2,-603.11"/>
</g>
<!-- roo_windows&#45;&gt;roo_locale -->
<g id="edge35" class="edge">
<title>roo_windows&#45;&gt;roo_locale</title>
<path fill="none" stroke="black" d="M774.25,-650.88C790.37,-636.44 813.12,-616.07 830.99,-600.07"/>
<polygon fill="black" stroke="black" points="833.7,-602.35 838.82,-593.07 829.03,-597.13 833.7,-602.35"/>
</g>
<!-- roo_windows&#45;&gt;roo_scheduler -->
<g id="edge37" class="edge">
<title>roo_windows&#45;&gt;roo_scheduler</title>
<path fill="none" stroke="red" d="M728.43,-650.91C692.66,-626.3 624.98,-582.23 562,-555 497.71,-527.2 420.3,-506.29 365.98,-493.51"/>
<polygon fill="red" stroke="red" points="366.65,-490.07 356.12,-491.21 365.06,-496.89 366.65,-490.07"/>
<text text-anchor="middle" x="668" y="-577" font-family="Times,serif" font-size="10.00" fill="red">2.1.6</text>
<text text-anchor="middle" x="668" y="-566" font-family="Times,serif" font-size="10.00" fill="red">(latest: 2.1.7)</text>
</g>
<!-- roo_windows_transceivers -->
<g id="node27" class="node">
<title>roo_windows_transceivers</title>
<polygon fill="plum" stroke="red" points="584,-785 380,-785 380,-747 584,-747 584,-785"/>
<text text-anchor="middle" x="482" y="-769.8" font-family="Times,serif" font-size="14.00">roo_windows_transceivers</text>
<text text-anchor="middle" x="482" y="-754.8" font-family="Times,serif" font-size="14.00">1.0.0</text>
</g>
<!-- roo_windows_transceivers&#45;&gt;roo_transceivers -->
<g id="edge38" class="edge">
<title>roo_windows_transceivers&#45;&gt;roo_transceivers</title>
<path fill="none" stroke="red" d="M482,-746.88C482,-733.35 482,-714.62 482,-699.15"/>
<polygon fill="red" stroke="red" points="485.5,-699.07 482,-689.07 478.5,-699.07 485.5,-699.07"/>
<text text-anchor="middle" x="515" y="-721" font-family="Times,serif" font-size="10.00" fill="red">1.1.3</text>
<text text-anchor="middle" x="515" y="-710" font-family="Times,serif" font-size="10.00" fill="red">(latest: 1.1.4)</text>
</g>
<!-- roo_windows_transceivers&#45;&gt;roo_windows -->
<g id="edge39" class="edge">
<title>roo_windows_transceivers&#45;&gt;roo_windows</title>
<path fill="none" stroke="red" d="M534.12,-746.99C579.15,-731.43 644.3,-708.91 691.99,-692.43"/>
<polygon fill="red" stroke="red" points="693.28,-695.69 701.59,-689.11 691,-689.07 693.28,-695.69"/>
<text text-anchor="middle" x="676" y="-721" font-family="Times,serif" font-size="10.00" fill="red">1.4.1</text>
<text text-anchor="middle" x="676" y="-710" font-family="Times,serif" font-size="10.00" fill="red">(latest: 1.4.2)</text>
</g>
<!-- roo_windows_wifi -->
<g id="node28" class="node">
<title>roo_windows_wifi</title>
<polygon fill="plum" stroke="red" points="743.5,-785 602.5,-785 602.5,-747 743.5,-747 743.5,-785"/>
<text text-anchor="middle" x="673" y="-769.8" font-family="Times,serif" font-size="14.00">roo_windows_wifi</text>
<text text-anchor="middle" x="673" y="-754.8" font-family="Times,serif" font-size="14.00">1.1.3</text>
</g>
<!-- roo_windows_wifi&#45;&gt;roo_wifi -->
<g id="edge40" class="edge">
<title>roo_windows_wifi&#45;&gt;roo_wifi</title>
<path fill="none" stroke="black" d="M655.56,-746.97C650.59,-741.42 645.34,-735.15 641,-729 634.21,-719.39 627.73,-708.2 622.41,-698.23"/>
<polygon fill="black" stroke="black" points="625.4,-696.39 617.68,-689.13 619.19,-699.61 625.4,-696.39"/>
</g>
<!-- roo_windows_wifi&#45;&gt;roo_windows -->
<g id="edge41" class="edge">
<title>roo_windows_wifi&#45;&gt;roo_windows</title>
<path fill="none" stroke="black" d="M712.19,-746.81C719.86,-741.88 727.29,-735.94 733,-729 740.1,-720.38 744.9,-709.16 748.09,-698.89"/>
<polygon fill="black" stroke="black" points="751.52,-699.64 750.78,-689.07 744.76,-697.79 751.52,-699.64"/>
</g>
</g>
</svg>
