<?xml version="1.0" encoding="UTF-8" standalone="no"?>
<!DOCTYPE svg PUBLIC "-//W3C//DTD SVG 1.1//EN"
 "http://www.w3.org/Graphics/SVG/1.1/DTD/svg11.dtd">
<!-- Generated by graphviz version 2.42.4 (0)
 -->
<!-- Title: dependencies Pages: 1 -->
<svg width="701pt" height="638pt"
 viewBox="0.00 0.00 700.50 638.00" xmlns="http://www.w3.org/2000/svg" xmlns:xlink="http://www.w3.org/1999/xlink">
<g id="graph0" class="graph" transform="scale(1 1) rotate(0) translate(4 634)">
<title>dependencies</title>
<polygon fill="white" stroke="transparent" points="-4,4 -4,-634 696.5,-634 696.5,4 -4,4"/>
<!-- roo_backport -->
<g id="node1" class="node">
<title>roo_backport</title>
<polygon fill="#b1dbab" stroke="black" points="283.5,-260 194.5,-260 194.5,-222 283.5,-222 283.5,-260"/>
<text text-anchor="middle" x="239" y="-244.8" font-family="Times,serif" font-size="14.00">roo_backport</text>
<text text-anchor="middle" x="239" y="-229.8" font-family="Times,serif" font-size="14.00">1.1.1</text>
</g>
<!-- roo_blink -->
<g id="node2" class="node">
<title>roo_blink</title>
<polygon fill="#b1dbab" stroke="black" points="597.5,-482 528.5,-482 528.5,-444 597.5,-444 597.5,-482"/>
<text text-anchor="middle" x="563" y="-466.8" font-family="Times,serif" font-size="14.00">roo_blink</text>
<text text-anchor="middle" x="563" y="-451.8" font-family="Times,serif" font-size="14.00">1.0.1</text>
</g>
<!-- roo_logging -->
<g id="node13" class="node">
<title>roo_logging</title>
<polygon fill="#b1dbab" stroke="black" points="509.5,-260 426.5,-260 426.5,-222 509.5,-222 509.5,-260"/>
<text text-anchor="middle" x="468" y="-244.8" font-family="Times,serif" font-size="14.00">roo_logging</text>
<text text-anchor="middle" x="468" y="-229.8" font-family="Times,serif" font-size="14.00">1.4.2</text>
</g>
<!-- roo_blink&#45;&gt;roo_logging -->
<g id="edge1" class="edge">
<title>roo_blink&#45;&gt;roo_logging</title>
<path fill="none" stroke="black" d="M568.27,-443.81C572.84,-424.83 577.5,-394.5 569,-370 554.7,-328.8 521.03,-290.83 496.49,-267.13"/>
<polygon fill="black" stroke="black" points="498.87,-264.56 489.2,-260.24 494.06,-269.65 498.87,-264.56"/>
</g>
<!-- roo_scheduler -->
<g id="node19" class="node">
<title>roo_scheduler</title>
<polygon fill="#b1dbab" stroke="black" points="191.5,-408 98.5,-408 98.5,-370 191.5,-370 191.5,-408"/>
<text text-anchor="middle" x="145" y="-392.8" font-family="Times,serif" font-size="14.00">roo_scheduler</text>
<text text-anchor="middle" x="145" y="-377.8" font-family="Times,serif" font-size="14.00">2.1.4</text>
</g>
<!-- roo_blink&#45;&gt;roo_scheduler -->
<g id="edge2" class="edge">
<title>roo_blink&#45;&gt;roo_scheduler</title>
<path fill="none" stroke="black" d="M528.08,-446.43C525.38,-445.52 522.66,-444.69 520,-444 385.02,-408.9 342.4,-436.67 201.44,-407.81"/>
<polygon fill="black" stroke="black" points="202.07,-404.37 191.56,-405.73 200.63,-411.22 202.07,-404.37"/>
</g>
<!-- roo_collections -->
<g id="node3" class="node">
<title>roo_collections</title>
<polygon fill="#b1dbab" stroke="black" points="289,-334 189,-334 189,-296 289,-296 289,-334"/>
<text text-anchor="middle" x="239" y="-318.8" font-family="Times,serif" font-size="14.00">roo_collections</text>
<text text-anchor="middle" x="239" y="-303.8" font-family="Times,serif" font-size="14.00">1.3.2</text>
</g>
<!-- roo_collections&#45;&gt;roo_backport -->
<g id="edge3" class="edge">
<title>roo_collections&#45;&gt;roo_backport</title>
<path fill="none" stroke="black" d="M239,-295.83C239,-288.13 239,-278.97 239,-270.42"/>
<polygon fill="black" stroke="black" points="242.5,-270.41 239,-260.41 235.5,-270.41 242.5,-270.41"/>
</g>
<!-- roo_comms -->
<g id="node4" class="node">
<title>roo_comms</title>
<polygon fill="#b1dbab" stroke="black" points="589,-630 507,-630 507,-592 589,-592 589,-630"/>
<text text-anchor="middle" x="548" y="-614.8" font-family="Times,serif" font-size="14.00">roo_comms</text>
<text text-anchor="middle" x="548" y="-599.8" font-family="Times,serif" font-size="14.00">1.1.1</text>
</g>
<!-- roo_comms&#45;&gt;roo_blink -->
<g id="edge4" class="edge">
<title>roo_comms&#45;&gt;roo_blink</title>
<path fill="none" stroke="black" d="M549.87,-591.8C552.43,-566.89 557.05,-521.89 560.07,-492.49"/>
<polygon fill="black" stroke="black" points="563.57,-492.73 561.11,-482.43 556.6,-492.02 563.57,-492.73"/>
</g>
<!-- roo_control -->
<g id="node5" class="node">
<title>roo_control</title>
<polygon fill="#b1dbab" stroke="black" points="407,-482 327,-482 327,-444 407,-444 407,-482"/>
<text text-anchor="middle" x="367" y="-466.8" font-family="Times,serif" font-size="14.00">roo_control</text>
<text text-anchor="middle" x="367" y="-451.8" font-family="Times,serif" font-size="14.00">1.2.1</text>
</g>
<!-- roo_comms&#45;&gt;roo_control -->
<g id="edge5" class="edge">
<title>roo_comms&#45;&gt;roo_control</title>
<path fill="none" stroke="black" d="M532.65,-591.67C515.65,-572.03 486.81,-540.64 458,-518 443.63,-506.71 426.69,-496.04 411.34,-487.21"/>
<polygon fill="black" stroke="black" points="412.95,-484.1 402.52,-482.24 409.51,-490.2 412.95,-484.1"/>
</g>
<!-- roo_io -->
<g id="node10" class="node">
<title>roo_io</title>
<polygon fill="#b1dbab" stroke="black" points="377,-334 323,-334 323,-296 377,-296 377,-334"/>
<text text-anchor="middle" x="350" y="-318.8" font-family="Times,serif" font-size="14.00">roo_io</text>
<text text-anchor="middle" x="350" y="-303.8" font-family="Times,serif" font-size="14.00">2.0.2</text>
</g>
<!-- roo_comms&#45;&gt;roo_io -->
<g id="edge6" class="edge">
<title>roo_comms&#45;&gt;roo_io</title>
<path fill="none" stroke="black" d="M559.47,-591.82C573.9,-567.77 597.88,-523.59 607,-482 618.26,-430.66 610.23,-402.6 569,-370 515.88,-328 434.6,-318.1 387.44,-316.1"/>
<polygon fill="black" stroke="black" points="387.46,-312.6 377.35,-315.77 387.23,-319.59 387.46,-312.6"/>
</g>
<!-- roo_transceivers -->
<g id="node24" class="node">
<title>roo_transceivers</title>
<polygon fill="#b1dbab" stroke="black" points="449,-556 343,-556 343,-518 449,-518 449,-556"/>
<text text-anchor="middle" x="396" y="-540.8" font-family="Times,serif" font-size="14.00">roo_transceivers</text>
<text text-anchor="middle" x="396" y="-525.8" font-family="Times,serif" font-size="14.00">1.1.2</text>
</g>
<!-- roo_comms&#45;&gt;roo_transceivers -->
<g id="edge7" class="edge">
<title>roo_comms&#45;&gt;roo_transceivers</title>
<path fill="none" stroke="black" d="M509.64,-591.83C489.5,-582.29 464.62,-570.51 443.29,-560.4"/>
<polygon fill="black" stroke="black" points="444.62,-557.16 434.08,-556.04 441.62,-563.48 444.62,-557.16"/>
</g>
<!-- roo_quantity -->
<g id="node18" class="node">
<title>roo_quantity</title>
<polygon fill="#b1dbab" stroke="black" points="560,-408 474,-408 474,-370 560,-370 560,-408"/>
<text text-anchor="middle" x="517" y="-392.8" font-family="Times,serif" font-size="14.00">roo_quantity</text>
<text text-anchor="middle" x="517" y="-377.8" font-family="Times,serif" font-size="14.00">1.1.2</text>
</g>
<!-- roo_control&#45;&gt;roo_quantity -->
<g id="edge8" class="edge">
<title>roo_control&#45;&gt;roo_quantity</title>
<path fill="none" stroke="black" d="M404.85,-443.83C424.73,-434.29 449.28,-422.51 470.33,-412.4"/>
<polygon fill="black" stroke="black" points="471.92,-415.52 479.42,-408.04 468.89,-409.21 471.92,-415.52"/>
</g>
<!-- roo_control&#45;&gt;roo_scheduler -->
<g id="edge9" class="edge">
<title>roo_control&#45;&gt;roo_scheduler</title>
<path fill="none" stroke="black" d="M326.95,-447.09C323.93,-446.03 320.92,-444.98 318,-444 269.27,-427.56 254.49,-424.62 201.36,-408.08"/>
<polygon fill="black" stroke="black" points="202.33,-404.72 191.74,-405.07 200.23,-411.4 202.33,-404.72"/>
</g>
<!-- roo_dashboard -->
<g id="node6" class="node">
<title>roo_dashboard</title>
<polygon fill="#b1dbab" stroke="black" points="160.5,-630 63.5,-630 63.5,-592 160.5,-592 160.5,-630"/>
<text text-anchor="middle" x="112" y="-614.8" font-family="Times,serif" font-size="14.00">roo_dashboard</text>
<text text-anchor="middle" x="112" y="-599.8" font-family="Times,serif" font-size="14.00">1.0.1</text>
</g>
<!-- roo_windows -->
<g id="node27" class="node">
<title>roo_windows</title>
<polygon fill="#b1dbab" stroke="black" points="172,-556 82,-556 82,-518 172,-518 172,-556"/>
<text text-anchor="middle" x="127" y="-540.8" font-family="Times,serif" font-size="14.00">roo_windows</text>
<text text-anchor="middle" x="127" y="-525.8" font-family="Times,serif" font-size="14.00">1.4.1</text>
</g>
<!-- roo_dashboard&#45;&gt;roo_windows -->
<g id="edge10" class="edge">
<title>roo_dashboard&#45;&gt;roo_windows</title>
<path fill="none" stroke="black" d="M115.79,-591.83C117.39,-584.13 119.3,-574.97 121.08,-566.42"/>
<polygon fill="black" stroke="black" points="124.55,-566.92 123.16,-556.41 117.7,-565.49 124.55,-566.92"/>
</g>
<!-- roo_display -->
<g id="node7" class="node">
<title>roo_display</title>
<polygon fill="#b1dbab" stroke="black" points="80,-408 0,-408 0,-370 80,-370 80,-408"/>
<text text-anchor="middle" x="40" y="-392.8" font-family="Times,serif" font-size="14.00">roo_display</text>
<text text-anchor="middle" x="40" y="-377.8" font-family="Times,serif" font-size="14.00">2.3.1</text>
</g>
<!-- roo_display&#45;&gt;roo_collections -->
<g id="edge11" class="edge">
<title>roo_display&#45;&gt;roo_collections</title>
<path fill="none" stroke="black" d="M80.1,-373.24C83.11,-372.14 86.1,-371.05 89,-370 118.78,-359.17 151.93,-347.22 179.48,-337.33"/>
<polygon fill="black" stroke="black" points="180.74,-340.59 188.97,-333.92 178.38,-334 180.74,-340.59"/>
</g>
<!-- roo_display&#45;&gt;roo_io -->
<g id="edge12" class="edge">
<title>roo_display&#45;&gt;roo_io</title>
<path fill="none" stroke="black" d="M80.19,-372.58C83.15,-371.65 86.11,-370.77 89,-370 180.06,-345.65 206.72,-357.49 298,-334 303.02,-332.71 308.24,-331.16 313.36,-329.51"/>
<polygon fill="black" stroke="black" points="314.63,-332.78 323,-326.28 312.4,-326.14 314.63,-332.78"/>
</g>
<!-- roo_flags -->
<g id="node8" class="node">
<title>roo_flags</title>
<polygon fill="#b1dbab" stroke="black" points="502,-186 434,-186 434,-148 502,-148 502,-186"/>
<text text-anchor="middle" x="468" y="-170.8" font-family="Times,serif" font-size="14.00">roo_flags</text>
<text text-anchor="middle" x="468" y="-155.8" font-family="Times,serif" font-size="14.00">1.1.1</text>
</g>
<!-- roo_icons -->
<g id="node9" class="node">
<title>roo_icons</title>
<polygon fill="#b1dbab" stroke="black" points="84,-482 14,-482 14,-444 84,-444 84,-482"/>
<text text-anchor="middle" x="49" y="-466.8" font-family="Times,serif" font-size="14.00">roo_icons</text>
<text text-anchor="middle" x="49" y="-451.8" font-family="Times,serif" font-size="14.00">1.2.1</text>
</g>
<!-- roo_icons&#45;&gt;roo_display -->
<g id="edge13" class="edge">
<title>roo_icons&#45;&gt;roo_display</title>
<path fill="none" stroke="black" d="M46.73,-443.83C45.77,-436.13 44.62,-426.97 43.55,-418.42"/>
<polygon fill="black" stroke="black" points="47.02,-417.9 42.3,-408.41 40.07,-418.77 47.02,-417.9"/>
</g>
<!-- roo_io&#45;&gt;roo_backport -->
<g id="edge14" class="edge">
<title>roo_io&#45;&gt;roo_backport</title>
<path fill="none" stroke="black" d="M322.85,-296.39C308.68,-287.2 291.15,-275.83 275.79,-265.86"/>
<polygon fill="black" stroke="black" points="277.33,-262.69 267.03,-260.18 273.52,-268.56 277.33,-262.69"/>
</g>
<!-- roo_io&#45;&gt;roo_logging -->
<g id="edge15" class="edge">
<title>roo_io&#45;&gt;roo_logging</title>
<path fill="none" stroke="black" d="M377.07,-297.48C392.6,-288.01 412.35,-275.96 429.48,-265.51"/>
<polygon fill="black" stroke="black" points="431.44,-268.41 438.15,-260.21 427.8,-262.43 431.44,-268.41"/>
</g>
<!-- roo_io_sdfat -->
<g id="node11" class="node">
<title>roo_io_sdfat</title>
<polygon fill="plum" stroke="black" points="692.5,-630 607.5,-630 607.5,-592 692.5,-592 692.5,-630"/>
<text text-anchor="middle" x="650" y="-614.8" font-family="Times,serif" font-size="14.00">roo_io_sdfat</text>
<text text-anchor="middle" x="650" y="-599.8" font-family="Times,serif" font-size="14.00">1.0.0</text>
</g>
<!-- roo_locale -->
<g id="node12" class="node">
<title>roo_locale</title>
<polygon fill="#b1dbab" stroke="black" points="223,-482 149,-482 149,-444 223,-444 223,-482"/>
<text text-anchor="middle" x="186" y="-466.8" font-family="Times,serif" font-size="14.00">roo_locale</text>
<text text-anchor="middle" x="186" y="-451.8" font-family="Times,serif" font-size="14.00">1.1.1</text>
</g>
<!-- roo_logging&#45;&gt;roo_flags -->
<g id="edge16" class="edge">
<title>roo_logging&#45;&gt;roo_flags</title>
<path fill="none" stroke="black" d="M468,-221.83C468,-214.13 468,-204.97 468,-196.42"/>
<polygon fill="black" stroke="black" points="471.5,-196.41 468,-186.41 464.5,-196.41 471.5,-196.41"/>
</g>
<!-- roo_threads -->
<g id="node21" class="node">
<title>roo_threads</title>
<polygon fill="#b1dbab" stroke="black" points="395,-186 315,-186 315,-148 395,-148 395,-186"/>
<text text-anchor="middle" x="355" y="-170.8" font-family="Times,serif" font-size="14.00">roo_threads</text>
<text text-anchor="middle" x="355" y="-155.8" font-family="Times,serif" font-size="14.00">1.1.5</text>
</g>
<!-- roo_logging&#45;&gt;roo_threads -->
<g id="edge17" class="edge">
<title>roo_logging&#45;&gt;roo_threads</title>
<path fill="none" stroke="black" d="M439.49,-221.83C425.17,-212.71 407.64,-201.54 392.27,-191.74"/>
<polygon fill="black" stroke="black" points="393.82,-188.58 383.51,-186.16 390.06,-194.49 393.82,-188.58"/>
</g>
<!-- roo_monitoring -->
<g id="node14" class="node">
<title>roo_monitoring</title>
<polygon fill="plum" stroke="black" points="418,-408 316,-408 316,-370 418,-370 418,-408"/>
<text text-anchor="middle" x="367" y="-392.8" font-family="Times,serif" font-size="14.00">roo_monitoring</text>
<text text-anchor="middle" x="367" y="-377.8" font-family="Times,serif" font-size="14.00">1.0.0</text>
</g>
<!-- roo_monitoring&#45;&gt;roo_collections -->
<g id="edge18" class="edge">
<title>roo_monitoring&#45;&gt;roo_collections</title>
<path fill="none" stroke="black" d="M334.7,-369.83C318.18,-360.54 297.88,-349.12 280.24,-339.2"/>
<polygon fill="black" stroke="black" points="281.72,-336.01 271.29,-334.16 278.29,-342.12 281.72,-336.01"/>
</g>
<!-- roo_monitoring&#45;&gt;roo_io -->
<g id="edge19" class="edge">
<title>roo_monitoring&#45;&gt;roo_io</title>
<path fill="none" stroke="black" d="M362.71,-369.83C360.89,-362.13 358.73,-352.97 356.71,-344.42"/>
<polygon fill="black" stroke="black" points="360.05,-343.34 354.35,-334.41 353.24,-344.95 360.05,-343.34"/>
</g>
<!-- roo_onewire -->
<g id="node15" class="node">
<title>roo_onewire</title>
<polygon fill="#b1dbab" stroke="black" points="510.5,-482 425.5,-482 425.5,-444 510.5,-444 510.5,-482"/>
<text text-anchor="middle" x="468" y="-466.8" font-family="Times,serif" font-size="14.00">roo_onewire</text>
<text text-anchor="middle" x="468" y="-451.8" font-family="Times,serif" font-size="14.00">2.0.4</text>
</g>
<!-- roo_onewire&#45;&gt;roo_quantity -->
<g id="edge21" class="edge">
<title>roo_onewire&#45;&gt;roo_quantity</title>
<path fill="none" stroke="black" d="M480.36,-443.83C485.95,-435.62 492.66,-425.76 498.81,-416.73"/>
<polygon fill="black" stroke="black" points="501.74,-418.65 504.47,-408.41 495.95,-414.71 501.74,-418.65"/>
</g>
<!-- roo_onewire&#45;&gt;roo_scheduler -->
<g id="edge20" class="edge">
<title>roo_onewire&#45;&gt;roo_scheduler</title>
<path fill="none" stroke="black" d="M425.32,-446.59C422.19,-445.66 419.05,-444.78 416,-444 325.14,-420.84 296.95,-430.22 201.38,-407.88"/>
<polygon fill="black" stroke="black" points="202.15,-404.46 191.61,-405.54 200.52,-411.27 202.15,-404.46"/>
</g>
<!-- roo_powersafefs -->
<g id="node16" class="node">
<title>roo_powersafefs</title>
<polygon fill="plum" stroke="black" points="408.5,-260 301.5,-260 301.5,-222 408.5,-222 408.5,-260"/>
<text text-anchor="middle" x="355" y="-244.8" font-family="Times,serif" font-size="14.00">roo_powersafefs</text>
<text text-anchor="middle" x="355" y="-229.8" font-family="Times,serif" font-size="14.00">1.0.0</text>
</g>
<!-- roo_powersafefs&#45;&gt;roo_threads -->
<g id="edge22" class="edge">
<title>roo_powersafefs&#45;&gt;roo_threads</title>
<path fill="none" stroke="black" d="M355,-221.83C355,-214.13 355,-204.97 355,-196.42"/>
<polygon fill="black" stroke="black" points="358.5,-196.41 355,-186.41 351.5,-196.41 358.5,-196.41"/>
</g>
<!-- roo_prefs -->
<g id="node17" class="node">
<title>roo_prefs</title>
<polygon fill="#b1dbab" stroke="black" points="309,-482 241,-482 241,-444 309,-444 309,-482"/>
<text text-anchor="middle" x="275" y="-466.8" font-family="Times,serif" font-size="14.00">roo_prefs</text>
<text text-anchor="middle" x="275" y="-451.8" font-family="Times,serif" font-size="14.00">1.2.2</text>
</g>
<!-- roo_prefs&#45;&gt;roo_logging -->
<g id="edge23" class="edge">
<title>roo_prefs&#45;&gt;roo_logging</title>
<path fill="none" stroke="black" d="M309.17,-447.41C312.15,-446.23 315.12,-445.08 318,-444 365.79,-426.14 392.34,-445.43 427,-408 462.09,-370.1 468.42,-307.03 468.88,-270.52"/>
<polygon fill="black" stroke="black" points="472.38,-270.09 468.85,-260.1 465.38,-270.1 472.38,-270.09"/>
</g>
<!-- roo_prefs&#45;&gt;roo_scheduler -->
<g id="edge24" class="edge">
<title>roo_prefs&#45;&gt;roo_scheduler</title>
<path fill="none" stroke="black" d="M242.2,-443.83C225.41,-434.54 204.8,-423.12 186.88,-413.2"/>
<polygon fill="black" stroke="black" points="188.24,-409.95 177.79,-408.16 184.85,-416.07 188.24,-409.95"/>
</g>
<!-- roo_quantity&#45;&gt;roo_logging -->
<g id="edge25" class="edge">
<title>roo_quantity&#45;&gt;roo_logging</title>
<path fill="none" stroke="black" d="M510.89,-369.8C502.49,-344.78 487.3,-299.5 477.43,-270.1"/>
<polygon fill="black" stroke="black" points="480.68,-268.79 474.18,-260.43 474.05,-271.02 480.68,-268.79"/>
</g>
<!-- roo_scheduler&#45;&gt;roo_collections -->
<g id="edge26" class="edge">
<title>roo_scheduler&#45;&gt;roo_collections</title>
<path fill="none" stroke="black" d="M168.72,-369.83C180.41,-360.88 194.67,-349.96 207.28,-340.3"/>
<polygon fill="black" stroke="black" points="209.48,-343.02 215.29,-334.16 205.22,-337.47 209.48,-343.02"/>
</g>
<!-- roo_scheduler&#45;&gt;roo_threads -->
<g id="edge27" class="edge">
<title>roo_scheduler&#45;&gt;roo_threads</title>
<path fill="none" stroke="black" d="M144.04,-369.8C143.29,-336.02 146.7,-263.28 186,-222 222.29,-183.87 250,-201.39 305.11,-185.96"/>
<polygon fill="black" stroke="black" points="306.43,-189.22 314.96,-182.93 304.37,-182.53 306.43,-189.22"/>
</g>
<!-- roo_testing -->
<g id="node20" class="node">
<title>roo_testing</title>
<polygon fill="#b1dbab" stroke="black" points="336.5,-38 259.5,-38 259.5,0 336.5,0 336.5,-38"/>
<text text-anchor="middle" x="298" y="-22.8" font-family="Times,serif" font-size="14.00">roo_testing</text>
<text text-anchor="middle" x="298" y="-7.8" font-family="Times,serif" font-size="14.00">1.1.7</text>
</g>
<!-- roo_time -->
<g id="node22" class="node">
<title>roo_time</title>
<polygon fill="#b1dbab" stroke="black" points="331,-112 265,-112 265,-74 331,-74 331,-112"/>
<text text-anchor="middle" x="298" y="-96.8" font-family="Times,serif" font-size="14.00">roo_time</text>
<text text-anchor="middle" x="298" y="-81.8" font-family="Times,serif" font-size="14.00">1.3.2</text>
</g>
<!-- roo_threads&#45;&gt;roo_time -->
<g id="edge28" class="edge">
<title>roo_threads&#45;&gt;roo_time</title>
<path fill="none" stroke="black" d="M340.62,-147.83C334.05,-139.54 326.15,-129.56 318.94,-120.45"/>
<polygon fill="black" stroke="black" points="321.53,-118.08 312.58,-112.41 316.04,-122.43 321.53,-118.08"/>
</g>
<!-- roo_time&#45;&gt;roo_testing -->
<g id="edge29" class="edge">
<title>roo_time&#45;&gt;roo_testing</title>
<path fill="none" stroke="black" d="M298,-73.83C298,-66.13 298,-56.97 298,-48.42"/>
<polygon fill="black" stroke="black" points="301.5,-48.41 298,-38.41 294.5,-48.41 301.5,-48.41"/>
</g>
<!-- roo_time_ds3231 -->
<g id="node23" class="node">
<title>roo_time_ds3231</title>
<polygon fill="#b1dbab" stroke="black" points="297,-186 185,-186 185,-148 297,-148 297,-186"/>
<text text-anchor="middle" x="241" y="-170.8" font-family="Times,serif" font-size="14.00">roo_time_ds3231</text>
<text text-anchor="middle" x="241" y="-155.8" font-family="Times,serif" font-size="14.00">1.1.2</text>
</g>
<!-- roo_time_ds3231&#45;&gt;roo_time -->
<g id="edge30" class="edge">
<title>roo_time_ds3231&#45;&gt;roo_time</title>
<path fill="none" stroke="black" d="M255.38,-147.83C261.95,-139.54 269.85,-129.56 277.06,-120.45"/>
<polygon fill="black" stroke="black" points="279.96,-122.43 283.42,-112.41 274.47,-118.08 279.96,-122.43"/>
</g>
<!-- roo_transceivers&#45;&gt;roo_prefs -->
<g id="edge31" class="edge">
<title>roo_transceivers&#45;&gt;roo_prefs</title>
<path fill="none" stroke="black" d="M365.47,-517.83C349.99,-508.62 331.01,-497.33 314.44,-487.47"/>
<polygon fill="black" stroke="black" points="315.91,-484.27 305.52,-482.16 312.33,-490.28 315.91,-484.27"/>
</g>
<!-- roo_transport -->
<g id="node25" class="node">
<title>roo_transport</title>
<polygon fill="#b1dbab" stroke="black" points="298.5,-408 209.5,-408 209.5,-370 298.5,-370 298.5,-408"/>
<text text-anchor="middle" x="254" y="-392.8" font-family="Times,serif" font-size="14.00">roo_transport</text>
<text text-anchor="middle" x="254" y="-377.8" font-family="Times,serif" font-size="14.00">1.0.1</text>
</g>
<!-- roo_transport&#45;&gt;roo_collections -->
<g id="edge32" class="edge">
<title>roo_transport&#45;&gt;roo_collections</title>
<path fill="none" stroke="black" d="M250.21,-369.83C248.61,-362.13 246.7,-352.97 244.92,-344.42"/>
<polygon fill="black" stroke="black" points="248.3,-343.49 242.84,-334.41 241.45,-344.92 248.3,-343.49"/>
</g>
<!-- roo_transport&#45;&gt;roo_io -->
<g id="edge33" class="edge">
<title>roo_transport&#45;&gt;roo_io</title>
<path fill="none" stroke="black" d="M278.22,-369.83C290.16,-360.88 304.73,-349.96 317.61,-340.3"/>
<polygon fill="black" stroke="black" points="319.88,-342.96 325.78,-334.16 315.68,-337.36 319.88,-342.96"/>
</g>
<!-- roo_wifi -->
<g id="node26" class="node">
<title>roo_wifi</title>
<polygon fill="#b1dbab" stroke="black" points="287.5,-556 224.5,-556 224.5,-518 287.5,-518 287.5,-556"/>
<text text-anchor="middle" x="256" y="-540.8" font-family="Times,serif" font-size="14.00">roo_wifi</text>
<text text-anchor="middle" x="256" y="-525.8" font-family="Times,serif" font-size="14.00">1.1.1</text>
</g>
<!-- roo_wifi&#45;&gt;roo_prefs -->
<g id="edge34" class="edge">
<title>roo_wifi&#45;&gt;roo_prefs</title>
<path fill="none" stroke="black" d="M260.79,-517.83C262.85,-510.05 265.3,-500.77 267.58,-492.13"/>
<polygon fill="black" stroke="black" points="270.97,-492.98 270.14,-482.41 264.21,-491.19 270.97,-492.98"/>
</g>
<!-- roo_windows&#45;&gt;roo_icons -->
<g id="edge36" class="edge">
<title>roo_windows&#45;&gt;roo_icons</title>
<path fill="none" stroke="black" d="M107.32,-517.83C97.89,-509.13 86.46,-498.58 76.22,-489.13"/>
<polygon fill="black" stroke="black" points="78.4,-486.37 68.68,-482.16 73.65,-491.52 78.4,-486.37"/>
</g>
<!-- roo_windows&#45;&gt;roo_locale -->
<g id="edge35" class="edge">
<title>roo_windows&#45;&gt;roo_locale</title>
<path fill="none" stroke="black" d="M141.89,-517.83C148.75,-509.45 157.03,-499.35 164.55,-490.17"/>
<polygon fill="black" stroke="black" points="167.28,-492.37 170.91,-482.41 161.87,-487.93 167.28,-492.37"/>
</g>
<!-- roo_windows&#45;&gt;roo_scheduler -->
<g id="edge37" class="edge">
<title>roo_windows&#45;&gt;roo_scheduler</title>
<path fill="none" stroke="black" d="M129.24,-517.8C132.32,-492.89 137.86,-447.89 141.49,-418.49"/>
<polygon fill="black" stroke="black" points="144.98,-418.78 142.73,-408.43 138.03,-417.92 144.98,-418.78"/>
</g>
<!-- roo_windows_transceivers -->
<g id="node28" class="node">
<title>roo_windows_transceivers</title>
<polygon fill="plum" stroke="black" points="476.5,-630 315.5,-630 315.5,-592 476.5,-592 476.5,-630"/>
<text text-anchor="middle" x="396" y="-614.8" font-family="Times,serif" font-size="14.00">roo_windows_transceivers</text>
<text text-anchor="middle" x="396" y="-599.8" font-family="Times,serif" font-size="14.00">1.0.0</text>
</g>
<!-- roo_windows_transceivers&#45;&gt;roo_transceivers -->
<g id="edge38" class="edge">
<title>roo_windows_transceivers&#45;&gt;roo_transceivers</title>
<path fill="none" stroke="black" d="M396,-591.83C396,-584.13 396,-574.97 396,-566.42"/>
<polygon fill="black" stroke="black" points="399.5,-566.41 396,-556.41 392.5,-566.41 399.5,-566.41"/>
</g>
<!-- roo_windows_transceivers&#45;&gt;roo_windows -->
<g id="edge39" class="edge">
<title>roo_windows_transceivers&#45;&gt;roo_windows</title>
<path fill="none" stroke="black" d="M328.47,-591.92C283.23,-579.82 224.41,-564.07 182.02,-552.73"/>
<polygon fill="black" stroke="black" points="182.73,-549.29 172.16,-550.09 180.92,-556.05 182.73,-549.29"/>
</g>
<!-- roo_windows_wifi -->
<g id="node29" class="node">
<title>roo_windows_wifi</title>
<polygon fill="#b1dbab" stroke="black" points="297.5,-630 178.5,-630 178.5,-592 297.5,-592 297.5,-630"/>
<text text-anchor="middle" x="238" y="-614.8" font-family="Times,serif" font-size="14.00">roo_windows_wifi</text>
<text text-anchor="middle" x="238" y="-599.8" font-family="Times,serif" font-size="14.00">1.1.2</text>
</g>
<!-- roo_windows_wifi&#45;&gt;roo_wifi -->
<g id="edge40" class="edge">
<title>roo_windows_wifi&#45;&gt;roo_wifi</title>
<path fill="none" stroke="black" d="M242.54,-591.83C244.49,-584.05 246.81,-574.77 248.97,-566.13"/>
<polygon fill="black" stroke="black" points="252.37,-566.96 251.4,-556.41 245.58,-565.27 252.37,-566.96"/>
</g>
<!-- roo_windows_wifi&#45;&gt;roo_windows -->
<g id="edge41" class="edge">
<title>roo_windows_wifi&#45;&gt;roo_windows</title>
<path fill="none" stroke="black" d="M209.99,-591.83C195.92,-582.71 178.71,-571.54 163.61,-561.74"/>
<polygon fill="black" stroke="black" points="165.3,-558.67 155,-556.16 161.49,-564.54 165.3,-558.67"/>
</g>
</g>
</svg>
