<?xml version="1.0" encoding="UTF-8" standalone="no"?>
<!DOCTYPE svg PUBLIC "-//W3C//DTD SVG 1.1//EN"
 "http://www.w3.org/Graphics/SVG/1.1/DTD/svg11.dtd">
<!-- Generated by graphviz version 2.42.4 (0)
 -->
<!-- Title: dependencies Pages: 1 -->
<svg width="1060pt" height="793pt"
 viewBox="0.00 0.00 1059.50 793.00" xmlns="http://www.w3.org/2000/svg" xmlns:xlink="http://www.w3.org/1999/xlink">
<g id="graph0" class="graph" transform="scale(1 1) rotate(0) translate(4 789)">
<title>dependencies</title>
<polygon fill="white" stroke="transparent" points="-4,4 -4,-789 1055.5,-789 1055.5,4 -4,4"/>
<!-- roo_backport -->
<g id="node1" class="node">
<title>roo_backport</title>
<polygon fill="#b1dbab" stroke="black" points="567,-209 478,-209 478,-171 567,-171 567,-209"/>
<text text-anchor="middle" x="522.5" y="-193.8" font-family="Times,serif" font-size="14.00">roo_backport</text>
<text text-anchor="middle" x="522.5" y="-178.8" font-family="Times,serif" font-size="14.00">1.2.2</text>
</g>
<!-- roo_blink -->
<g id="node2" class="node">
<title>roo_blink</title>
<polygon fill="#b1dbab" stroke="red" points="271,-593 202,-593 202,-555 271,-555 271,-593"/>
<text text-anchor="middle" x="236.5" y="-577.8" font-family="Times,serif" font-size="14.00">roo_blink</text>
<text text-anchor="middle" x="236.5" y="-562.8" font-family="Times,serif" font-size="14.00">1.0.6</text>
</g>
<!-- roo_logging -->
<g id="node16" class="node">
<title>roo_logging</title>
<polygon fill="#b1dbab" stroke="red" points="414,-305 331,-305 331,-267 414,-267 414,-305"/>
<text text-anchor="middle" x="372.5" y="-289.8" font-family="Times,serif" font-size="14.00">roo_logging</text>
<text text-anchor="middle" x="372.5" y="-274.8" font-family="Times,serif" font-size="14.00">1.5.6</text>
</g>
<!-- roo_blink&#45;&gt;roo_logging -->
<g id="edge1" class="edge">
<title>roo_blink&#45;&gt;roo_logging</title>
<path fill="none" stroke="red" d="M231.81,-554.6C226.82,-531.52 221.09,-491.09 232.5,-459 244.35,-425.67 311.32,-351.57 348.17,-312.4"/>
<polygon fill="red" stroke="red" points="350.79,-314.73 355.12,-305.06 345.7,-309.92 350.79,-314.73"/>
<text text-anchor="middle" x="283.5" y="-433" font-family="Times,serif" font-size="10.00" fill="red">1.5.5</text>
<text text-anchor="middle" x="283.5" y="-422" font-family="Times,serif" font-size="10.00" fill="red">(latest: 1.5.6)</text>
</g>
<!-- roo_scheduler -->
<g id="node22" class="node">
<title>roo_scheduler</title>
<polygon fill="#b1dbab" stroke="red" points="335,-497 242,-497 242,-459 335,-459 335,-497"/>
<text text-anchor="middle" x="288.5" y="-481.8" font-family="Times,serif" font-size="14.00">roo_scheduler</text>
<text text-anchor="middle" x="288.5" y="-466.8" font-family="Times,serif" font-size="14.00">2.1.9</text>
</g>
<!-- roo_blink&#45;&gt;roo_scheduler -->
<g id="edge2" class="edge">
<title>roo_blink&#45;&gt;roo_scheduler</title>
<path fill="none" stroke="black" d="M246.68,-554.69C249.83,-549.02 253.31,-542.75 256.5,-537 262.11,-526.86 268.27,-515.71 273.67,-505.93"/>
<polygon fill="black" stroke="black" points="276.8,-507.48 278.57,-497.03 270.67,-504.1 276.8,-507.48"/>
</g>
<!-- roo_collections -->
<g id="node3" class="node">
<title>roo_collections</title>
<polygon fill="#b1dbab" stroke="black" points="658.5,-401 558.5,-401 558.5,-363 658.5,-363 658.5,-401"/>
<text text-anchor="middle" x="608.5" y="-385.8" font-family="Times,serif" font-size="14.00">roo_collections</text>
<text text-anchor="middle" x="608.5" y="-370.8" font-family="Times,serif" font-size="14.00">1.4.3</text>
</g>
<!-- roo_collections&#45;&gt;roo_backport -->
<g id="edge3" class="edge">
<title>roo_collections&#45;&gt;roo_backport</title>
<path fill="none" stroke="black" d="M600.25,-362.78C585.1,-329.3 552.75,-257.82 534.92,-218.44"/>
<polygon fill="black" stroke="black" points="538.03,-216.83 530.72,-209.16 531.66,-219.72 538.03,-216.83"/>
</g>
<!-- roo_comms -->
<g id="node4" class="node">
<title>roo_comms</title>
<polygon fill="#b1dbab" stroke="red" points="219.5,-785 137.5,-785 137.5,-747 219.5,-747 219.5,-785"/>
<text text-anchor="middle" x="178.5" y="-769.8" font-family="Times,serif" font-size="14.00">roo_comms</text>
<text text-anchor="middle" x="178.5" y="-754.8" font-family="Times,serif" font-size="14.00">1.1.4</text>
</g>
<!-- roo_comms&#45;&gt;roo_blink -->
<g id="edge4" class="edge">
<title>roo_comms&#45;&gt;roo_blink</title>
<path fill="none" stroke="black" d="M179.79,-746.82C181.81,-723.96 186.66,-683.76 197.5,-651 203.16,-633.91 212.22,-615.93 220.19,-601.76"/>
<polygon fill="black" stroke="black" points="223.25,-603.45 225.22,-593.04 217.19,-599.95 223.25,-603.45"/>
</g>
<!-- roo_control -->
<g id="node5" class="node">
<title>roo_control</title>
<polygon fill="#b1dbab" stroke="red" points="183.5,-593 103.5,-593 103.5,-555 183.5,-555 183.5,-593"/>
<text text-anchor="middle" x="143.5" y="-577.8" font-family="Times,serif" font-size="14.00">roo_control</text>
<text text-anchor="middle" x="143.5" y="-562.8" font-family="Times,serif" font-size="14.00">1.2.5</text>
</g>
<!-- roo_comms&#45;&gt;roo_control -->
<g id="edge5" class="edge">
<title>roo_comms&#45;&gt;roo_control</title>
<path fill="none" stroke="black" d="M168.49,-746.76C165.82,-741.21 163.21,-734.98 161.5,-729 149.31,-686.4 145.35,-634.92 144.08,-603.59"/>
<polygon fill="black" stroke="black" points="147.57,-603.27 143.74,-593.39 140.58,-603.51 147.57,-603.27"/>
</g>
<!-- roo_io -->
<g id="node13" class="node">
<title>roo_io</title>
<polygon fill="#b1dbab" stroke="red" points="508.5,-401 454.5,-401 454.5,-363 508.5,-363 508.5,-401"/>
<text text-anchor="middle" x="481.5" y="-385.8" font-family="Times,serif" font-size="14.00">roo_io</text>
<text text-anchor="middle" x="481.5" y="-370.8" font-family="Times,serif" font-size="14.00">2.1.6</text>
</g>
<!-- roo_comms&#45;&gt;roo_io -->
<g id="edge6" class="edge">
<title>roo_comms&#45;&gt;roo_io</title>
<path fill="none" stroke="red" d="M219.82,-751.28C225.71,-749.65 231.72,-748.16 237.5,-747 276.91,-739.1 387.19,-755.41 417.5,-729 437.49,-711.58 431.5,-697.52 431.5,-671 431.5,-671 431.5,-671 431.5,-477 431.5,-452.06 445.39,-427.3 458.53,-409.45"/>
<polygon fill="red" stroke="red" points="461.5,-411.33 464.85,-401.28 455.96,-407.05 461.5,-411.33"/>
<text text-anchor="middle" x="458.5" y="-577" font-family="Times,serif" font-size="10.00" fill="red">2.1.5</text>
<text text-anchor="middle" x="458.5" y="-566" font-family="Times,serif" font-size="10.00" fill="red">(latest: 2.1.6)</text>
</g>
<!-- roo_transceivers -->
<g id="node27" class="node">
<title>roo_transceivers</title>
<polygon fill="#b1dbab" stroke="red" points="312.5,-689 206.5,-689 206.5,-651 312.5,-651 312.5,-689"/>
<text text-anchor="middle" x="259.5" y="-673.8" font-family="Times,serif" font-size="14.00">roo_transceivers</text>
<text text-anchor="middle" x="259.5" y="-658.8" font-family="Times,serif" font-size="14.00">1.1.6</text>
</g>
<!-- roo_comms&#45;&gt;roo_transceivers -->
<g id="edge7" class="edge">
<title>roo_comms&#45;&gt;roo_transceivers</title>
<path fill="none" stroke="red" d="M188.55,-746.78C195.58,-734.84 205.62,-719.23 216.5,-707 219.89,-703.19 223.7,-699.43 227.6,-695.86"/>
<polygon fill="red" stroke="red" points="229.92,-698.48 235.16,-689.26 225.32,-693.2 229.92,-698.48"/>
<text text-anchor="middle" x="243.5" y="-721" font-family="Times,serif" font-size="10.00" fill="red">1.1.5</text>
<text text-anchor="middle" x="243.5" y="-710" font-family="Times,serif" font-size="10.00" fill="red">(latest: 1.1.6)</text>
</g>
<!-- roo_quantity -->
<g id="node21" class="node">
<title>roo_quantity</title>
<polygon fill="#b1dbab" stroke="red" points="185.5,-497 99.5,-497 99.5,-459 185.5,-459 185.5,-497"/>
<text text-anchor="middle" x="142.5" y="-481.8" font-family="Times,serif" font-size="14.00">roo_quantity</text>
<text text-anchor="middle" x="142.5" y="-466.8" font-family="Times,serif" font-size="14.00">1.1.8</text>
</g>
<!-- roo_control&#45;&gt;roo_quantity -->
<g id="edge8" class="edge">
<title>roo_control&#45;&gt;roo_quantity</title>
<path fill="none" stroke="black" d="M143.31,-554.88C143.16,-541.35 142.96,-522.62 142.8,-507.15"/>
<polygon fill="black" stroke="black" points="146.3,-507.03 142.69,-497.07 139.3,-507.11 146.3,-507.03"/>
</g>
<!-- roo_control&#45;&gt;roo_scheduler -->
<g id="edge9" class="edge">
<title>roo_control&#45;&gt;roo_scheduler</title>
<path fill="none" stroke="black" d="M171.46,-554.88C194.43,-539.99 227.13,-518.78 252.13,-502.57"/>
<polygon fill="black" stroke="black" points="254.14,-505.45 260.63,-497.07 250.33,-499.57 254.14,-505.45"/>
</g>
<!-- roo_dashboard -->
<g id="node6" class="node">
<title>roo_dashboard</title>
<polygon fill="khaki" stroke="red" points="667,-785 570,-785 570,-747 667,-747 667,-785"/>
<text text-anchor="middle" x="618.5" y="-769.8" font-family="Times,serif" font-size="14.00">roo_dashboard</text>
<text text-anchor="middle" x="618.5" y="-754.8" font-family="Times,serif" font-size="14.00">1.0.1</text>
</g>
<!-- roo_windows -->
<g id="node30" class="node">
<title>roo_windows</title>
<polygon fill="#b1dbab" stroke="red" points="644.5,-689 554.5,-689 554.5,-651 644.5,-651 644.5,-689"/>
<text text-anchor="middle" x="599.5" y="-673.8" font-family="Times,serif" font-size="14.00">roo_windows</text>
<text text-anchor="middle" x="599.5" y="-658.8" font-family="Times,serif" font-size="14.00">1.5.0</text>
</g>
<!-- roo_dashboard&#45;&gt;roo_windows -->
<g id="edge10" class="edge">
<title>roo_dashboard&#45;&gt;roo_windows</title>
<path fill="none" stroke="red" d="M614.84,-746.88C612.1,-733.35 608.32,-714.62 605.19,-699.15"/>
<polygon fill="red" stroke="red" points="608.56,-698.18 603.15,-689.07 601.7,-699.56 608.56,-698.18"/>
<text text-anchor="middle" x="638.5" y="-721" font-family="Times,serif" font-size="10.00" fill="red">1.4.1</text>
<text text-anchor="middle" x="638.5" y="-710" font-family="Times,serif" font-size="10.00" fill="red">(latest: 1.5.0)</text>
</g>
<!-- roo_display -->
<g id="node7" class="node">
<title>roo_display</title>
<polygon fill="plum" stroke="black" points="669.5,-497 589.5,-497 589.5,-459 669.5,-459 669.5,-497"/>
<text text-anchor="middle" x="629.5" y="-481.8" font-family="Times,serif" font-size="14.00">roo_display</text>
<text text-anchor="middle" x="629.5" y="-466.8" font-family="Times,serif" font-size="14.00">3.0.4</text>
</g>
<!-- roo_display&#45;&gt;roo_collections -->
<g id="edge11" class="edge">
<title>roo_display&#45;&gt;roo_collections</title>
<path fill="none" stroke="black" d="M626.97,-458.85C625.22,-447.36 622.65,-432.22 619.5,-419 618.87,-416.35 618.15,-413.61 617.39,-410.87"/>
<polygon fill="black" stroke="black" points="620.73,-409.8 614.55,-401.19 614.01,-411.77 620.73,-409.8"/>
</g>
<!-- roo_display&#45;&gt;roo_io -->
<g id="edge12" class="edge">
<title>roo_display&#45;&gt;roo_io</title>
<path fill="none" stroke="black" d="M589.23,-462.94C585.27,-461.59 581.31,-460.26 577.5,-459 552.28,-450.65 541.77,-456.92 520.5,-441 509.72,-432.94 500.96,-420.97 494.49,-410"/>
<polygon fill="black" stroke="black" points="497.5,-408.19 489.61,-401.12 491.36,-411.57 497.5,-408.19"/>
</g>
<!-- roo_display_lvgl -->
<g id="node8" class="node">
<title>roo_display_lvgl</title>
<polygon fill="khaki" stroke="red" points="959.5,-593 851.5,-593 851.5,-555 959.5,-555 959.5,-593"/>
<text text-anchor="middle" x="905.5" y="-577.8" font-family="Times,serif" font-size="14.00">roo_display_lvgl</text>
<text text-anchor="middle" x="905.5" y="-562.8" font-family="Times,serif" font-size="14.00">1.0.0</text>
</g>
<!-- roo_display_lvgl&#45;&gt;roo_display -->
<g id="edge13" class="edge">
<title>roo_display_lvgl&#45;&gt;roo_display</title>
<path fill="none" stroke="red" d="M882.76,-554.73C864.98,-541.45 839.06,-524.26 813.5,-515 759.48,-495.43 739.32,-509.88 679.59,-496.88"/>
<polygon fill="red" stroke="red" points="680.19,-493.42 669.66,-494.55 678.59,-500.24 680.19,-493.42"/>
<text text-anchor="middle" x="883.5" y="-529" font-family="Times,serif" font-size="10.00" fill="red">3.0.3</text>
<text text-anchor="middle" x="883.5" y="-518" font-family="Times,serif" font-size="10.00" fill="red">(latest: 3.0.4)</text>
</g>
<!-- roo_flags -->
<g id="node9" class="node">
<title>roo_flags</title>
<polygon fill="#b1dbab" stroke="black" points="439.5,-209 371.5,-209 371.5,-171 439.5,-171 439.5,-209"/>
<text text-anchor="middle" x="405.5" y="-193.8" font-family="Times,serif" font-size="14.00">roo_flags</text>
<text text-anchor="middle" x="405.5" y="-178.8" font-family="Times,serif" font-size="14.00">1.2.3</text>
</g>
<!-- roo_fonts_basic -->
<g id="node10" class="node">
<title>roo_fonts_basic</title>
<polygon fill="#b1dbab" stroke="red" points="607,-593 504,-593 504,-555 607,-555 607,-593"/>
<text text-anchor="middle" x="555.5" y="-577.8" font-family="Times,serif" font-size="14.00">roo_fonts_basic</text>
<text text-anchor="middle" x="555.5" y="-562.8" font-family="Times,serif" font-size="14.00">1.0.2</text>
</g>
<!-- roo_fonts_basic&#45;&gt;roo_display -->
<g id="edge14" class="edge">
<title>roo_fonts_basic&#45;&gt;roo_display</title>
<path fill="none" stroke="red" d="M566.48,-554.9C573.9,-543.15 584.18,-527.72 594.5,-515 597.36,-511.48 600.5,-507.9 603.69,-504.44"/>
<polygon fill="red" stroke="red" points="606.32,-506.75 610.67,-497.1 601.24,-501.93 606.32,-506.75"/>
<text text-anchor="middle" x="621.5" y="-529" font-family="Times,serif" font-size="10.00" fill="red">3.0.2</text>
<text text-anchor="middle" x="621.5" y="-518" font-family="Times,serif" font-size="10.00" fill="red">(latest: 3.0.4)</text>
</g>
<!-- roo_fonts_material -->
<g id="node11" class="node">
<title>roo_fonts_material</title>
<polygon fill="#b1dbab" stroke="red" points="745.5,-593 625.5,-593 625.5,-555 745.5,-555 745.5,-593"/>
<text text-anchor="middle" x="685.5" y="-577.8" font-family="Times,serif" font-size="14.00">roo_fonts_material</text>
<text text-anchor="middle" x="685.5" y="-562.8" font-family="Times,serif" font-size="14.00">1.0.0</text>
</g>
<!-- roo_fonts_material&#45;&gt;roo_display -->
<g id="edge15" class="edge">
<title>roo_fonts_material&#45;&gt;roo_display</title>
<path fill="none" stroke="red" d="M674.7,-554.88C666.41,-540.96 654.84,-521.53 645.48,-505.82"/>
<polygon fill="red" stroke="red" points="648.39,-503.87 640.26,-497.07 642.38,-507.45 648.39,-503.87"/>
<text text-anchor="middle" x="690.5" y="-529" font-family="Times,serif" font-size="10.00" fill="red">3.0.2</text>
<text text-anchor="middle" x="690.5" y="-518" font-family="Times,serif" font-size="10.00" fill="red">(latest: 3.0.4)</text>
</g>
<!-- roo_icons -->
<g id="node12" class="node">
<title>roo_icons</title>
<polygon fill="#b1dbab" stroke="red" points="833.5,-593 763.5,-593 763.5,-555 833.5,-555 833.5,-593"/>
<text text-anchor="middle" x="798.5" y="-577.8" font-family="Times,serif" font-size="14.00">roo_icons</text>
<text text-anchor="middle" x="798.5" y="-562.8" font-family="Times,serif" font-size="14.00">1.2.2</text>
</g>
<!-- roo_icons&#45;&gt;roo_display -->
<g id="edge16" class="edge">
<title>roo_icons&#45;&gt;roo_display</title>
<path fill="none" stroke="red" d="M777.68,-554.84C762.77,-542.47 741.81,-526.34 721.5,-515 717.24,-512.62 698.57,-505.23 679.15,-497.77"/>
<polygon fill="red" stroke="red" points="680.2,-494.42 669.61,-494.12 677.7,-500.96 680.2,-494.42"/>
<text text-anchor="middle" x="782.5" y="-529" font-family="Times,serif" font-size="10.00" fill="red">3.0.2</text>
<text text-anchor="middle" x="782.5" y="-518" font-family="Times,serif" font-size="10.00" fill="red">(latest: 3.0.4)</text>
</g>
<!-- roo_io&#45;&gt;roo_logging -->
<g id="edge17" class="edge">
<title>roo_io&#45;&gt;roo_logging</title>
<path fill="none" stroke="red" d="M460.48,-362.88C443.59,-348.31 419.7,-327.71 401.08,-311.64"/>
<polygon fill="red" stroke="red" points="403.31,-308.95 393.45,-305.07 398.74,-314.25 403.31,-308.95"/>
<text text-anchor="middle" x="464.5" y="-337" font-family="Times,serif" font-size="10.00" fill="red">1.5.5</text>
<text text-anchor="middle" x="464.5" y="-326" font-family="Times,serif" font-size="10.00" fill="red">(latest: 1.5.6)</text>
</g>
<!-- roo_io_sdfat -->
<g id="node14" class="node">
<title>roo_io_sdfat</title>
<polygon fill="plum" stroke="black" points="770,-785 685,-785 685,-747 770,-747 770,-785"/>
<text text-anchor="middle" x="727.5" y="-769.8" font-family="Times,serif" font-size="14.00">roo_io_sdfat</text>
<text text-anchor="middle" x="727.5" y="-754.8" font-family="Times,serif" font-size="14.00">1.0.0</text>
</g>
<!-- roo_locale -->
<g id="node15" class="node">
<title>roo_locale</title>
<polygon fill="#b1dbab" stroke="black" points="1051.5,-593 977.5,-593 977.5,-555 1051.5,-555 1051.5,-593"/>
<text text-anchor="middle" x="1014.5" y="-577.8" font-family="Times,serif" font-size="14.00">roo_locale</text>
<text text-anchor="middle" x="1014.5" y="-562.8" font-family="Times,serif" font-size="14.00">1.1.2</text>
</g>
<!-- roo_logging&#45;&gt;roo_backport -->
<g id="edge18" class="edge">
<title>roo_logging&#45;&gt;roo_backport</title>
<path fill="none" stroke="black" d="M401.42,-266.88C425.18,-251.99 459.02,-230.78 484.88,-214.57"/>
<polygon fill="black" stroke="black" points="487.05,-217.34 493.67,-209.07 483.34,-211.41 487.05,-217.34"/>
</g>
<!-- roo_logging&#45;&gt;roo_flags -->
<g id="edge19" class="edge">
<title>roo_logging&#45;&gt;roo_flags</title>
<path fill="none" stroke="black" d="M383.27,-266.73C386.24,-261.17 389.25,-254.95 391.5,-249 395.1,-239.46 398,-228.69 400.21,-219.04"/>
<polygon fill="black" stroke="black" points="403.66,-219.63 402.33,-209.12 396.82,-218.16 403.66,-219.63"/>
</g>
<!-- roo_threads -->
<g id="node24" class="node">
<title>roo_threads</title>
<polygon fill="#b1dbab" stroke="black" points="299.5,-209 219.5,-209 219.5,-171 299.5,-171 299.5,-209"/>
<text text-anchor="middle" x="259.5" y="-193.8" font-family="Times,serif" font-size="14.00">roo_threads</text>
<text text-anchor="middle" x="259.5" y="-178.8" font-family="Times,serif" font-size="14.00">1.2.5</text>
</g>
<!-- roo_logging&#45;&gt;roo_threads -->
<g id="edge20" class="edge">
<title>roo_logging&#45;&gt;roo_threads</title>
<path fill="none" stroke="red" d="M351.85,-266.74C345.8,-261.18 339.27,-254.96 333.5,-249 324.52,-239.71 324.22,-235.51 314.5,-227 309.71,-222.81 304.4,-218.73 299.01,-214.92"/>
<polygon fill="red" stroke="red" points="300.8,-211.91 290.57,-209.18 296.87,-217.7 300.8,-211.91"/>
<text text-anchor="middle" x="360.5" y="-241" font-family="Times,serif" font-size="10.00" fill="red">1.2.4</text>
<text text-anchor="middle" x="360.5" y="-230" font-family="Times,serif" font-size="10.00" fill="red">(latest: 1.2.5)</text>
</g>
<!-- roo_monitoring -->
<g id="node17" class="node">
<title>roo_monitoring</title>
<polygon fill="#b1dbab" stroke="red" points="568.5,-497 466.5,-497 466.5,-459 568.5,-459 568.5,-497"/>
<text text-anchor="middle" x="517.5" y="-481.8" font-family="Times,serif" font-size="14.00">roo_monitoring</text>
<text text-anchor="middle" x="517.5" y="-466.8" font-family="Times,serif" font-size="14.00">1.1.1</text>
</g>
<!-- roo_monitoring&#45;&gt;roo_collections -->
<g id="edge21" class="edge">
<title>roo_monitoring&#45;&gt;roo_collections</title>
<path fill="none" stroke="black" d="M568.84,-460.9C578.49,-455.85 587.68,-449.34 594.5,-441 601.38,-432.58 604.97,-421.31 606.82,-410.94"/>
<polygon fill="black" stroke="black" points="610.29,-411.39 608.13,-401.02 603.35,-410.47 610.29,-411.39"/>
</g>
<!-- roo_monitoring&#45;&gt;roo_io -->
<g id="edge22" class="edge">
<title>roo_monitoring&#45;&gt;roo_io</title>
<path fill="none" stroke="black" d="M504.93,-458.9C501.49,-453.35 498.02,-447.09 495.5,-441 491.6,-431.58 488.63,-420.83 486.45,-411.17"/>
<polygon fill="black" stroke="black" points="489.84,-410.31 484.39,-401.23 482.99,-411.73 489.84,-410.31"/>
</g>
<!-- roo_onewire -->
<g id="node18" class="node">
<title>roo_onewire</title>
<polygon fill="#b1dbab" stroke="red" points="85,-593 0,-593 0,-555 85,-555 85,-593"/>
<text text-anchor="middle" x="42.5" y="-577.8" font-family="Times,serif" font-size="14.00">roo_onewire</text>
<text text-anchor="middle" x="42.5" y="-562.8" font-family="Times,serif" font-size="14.00">2.0.9</text>
</g>
<!-- roo_onewire&#45;&gt;roo_quantity -->
<g id="edge24" class="edge">
<title>roo_onewire&#45;&gt;roo_quantity</title>
<path fill="none" stroke="black" d="M55.79,-554.96C65.09,-542.96 78.19,-527.2 91.5,-515 95.95,-510.92 100.88,-506.91 105.87,-503.13"/>
<polygon fill="black" stroke="black" points="108.23,-505.74 114.25,-497.02 104.11,-500.08 108.23,-505.74"/>
</g>
<!-- roo_onewire&#45;&gt;roo_scheduler -->
<g id="edge23" class="edge">
<title>roo_onewire&#45;&gt;roo_scheduler</title>
<path fill="none" stroke="black" d="M85.07,-556.73C125.81,-541.17 187.52,-517.59 232.28,-500.48"/>
<polygon fill="black" stroke="black" points="233.76,-503.67 241.85,-496.83 231.26,-497.13 233.76,-503.67"/>
</g>
<!-- roo_powersafefs -->
<g id="node19" class="node">
<title>roo_powersafefs</title>
<polygon fill="khaki" stroke="red" points="313,-305 206,-305 206,-267 313,-267 313,-305"/>
<text text-anchor="middle" x="259.5" y="-289.8" font-family="Times,serif" font-size="14.00">roo_powersafefs</text>
<text text-anchor="middle" x="259.5" y="-274.8" font-family="Times,serif" font-size="14.00">1.0.0</text>
</g>
<!-- roo_powersafefs&#45;&gt;roo_threads -->
<g id="edge25" class="edge">
<title>roo_powersafefs&#45;&gt;roo_threads</title>
<path fill="none" stroke="red" d="M259.5,-266.88C259.5,-253.35 259.5,-234.62 259.5,-219.15"/>
<polygon fill="red" stroke="red" points="263,-219.07 259.5,-209.07 256,-219.07 263,-219.07"/>
<text text-anchor="middle" x="286.5" y="-241" font-family="Times,serif" font-size="10.00" fill="red">1.2.1</text>
<text text-anchor="middle" x="286.5" y="-230" font-family="Times,serif" font-size="10.00" fill="red">(latest: 1.2.5)</text>
</g>
<!-- roo_prefs -->
<g id="node20" class="node">
<title>roo_prefs</title>
<polygon fill="khaki" stroke="red" points="357.5,-593 289.5,-593 289.5,-555 357.5,-555 357.5,-593"/>
<text text-anchor="middle" x="323.5" y="-577.8" font-family="Times,serif" font-size="14.00">roo_prefs</text>
<text text-anchor="middle" x="323.5" y="-562.8" font-family="Times,serif" font-size="14.00">1.2.10</text>
</g>
<!-- roo_prefs&#45;&gt;roo_logging -->
<g id="edge26" class="edge">
<title>roo_prefs&#45;&gt;roo_logging</title>
<path fill="none" stroke="red" d="M328.97,-554.72C333.39,-539.41 339.52,-516.93 343.5,-497 356.39,-432.53 365.41,-355.79 369.68,-315.29"/>
<polygon fill="red" stroke="red" points="373.19,-315.41 370.74,-305.1 366.23,-314.69 373.19,-315.41"/>
<text text-anchor="middle" x="384.5" y="-433" font-family="Times,serif" font-size="10.00" fill="red">1.5.5</text>
<text text-anchor="middle" x="384.5" y="-422" font-family="Times,serif" font-size="10.00" fill="red">(latest: 1.5.6)</text>
</g>
<!-- roo_prefs&#45;&gt;roo_scheduler -->
<g id="edge27" class="edge">
<title>roo_prefs&#45;&gt;roo_scheduler</title>
<path fill="none" stroke="black" d="M316.75,-554.88C311.67,-541.22 304.61,-522.26 298.82,-506.71"/>
<polygon fill="black" stroke="black" points="302,-505.22 295.23,-497.07 295.44,-507.66 302,-505.22"/>
</g>
<!-- roo_quantity&#45;&gt;roo_logging -->
<g id="edge28" class="edge">
<title>roo_quantity&#45;&gt;roo_logging</title>
<path fill="none" stroke="red" d="M151.02,-458.99C162.81,-435.25 185.83,-392.99 213.5,-363 223.63,-352.02 254.25,-329.89 267.5,-323 287.58,-312.56 295.8,-312.96 321.07,-304.99"/>
<polygon fill="red" stroke="red" points="322.37,-308.25 330.77,-301.79 320.18,-301.6 322.37,-308.25"/>
<text text-anchor="middle" x="240.5" y="-385" font-family="Times,serif" font-size="10.00" fill="red">1.5.5</text>
<text text-anchor="middle" x="240.5" y="-374" font-family="Times,serif" font-size="10.00" fill="red">(latest: 1.5.6)</text>
</g>
<!-- roo_scheduler&#45;&gt;roo_collections -->
<g id="edge29" class="edge">
<title>roo_scheduler&#45;&gt;roo_collections</title>
<path fill="none" stroke="black" d="M335.03,-464.71C360.36,-457.92 392.22,-449.22 420.5,-441 463.56,-428.49 511.89,-413.56 548.77,-401.98"/>
<polygon fill="black" stroke="black" points="549.88,-405.3 558.36,-398.96 547.78,-398.62 549.88,-405.3"/>
</g>
<!-- roo_scheduler&#45;&gt;roo_threads -->
<g id="edge30" class="edge">
<title>roo_scheduler&#45;&gt;roo_threads</title>
<path fill="none" stroke="red" d="M283.41,-458.8C279.87,-447.15 274.68,-431.87 268.5,-419 255.53,-391.99 204.83,-333.78 196.5,-305 191.81,-288.78 190.77,-282.89 196.5,-267 203.47,-247.68 217.71,-229.8 230.9,-216.24"/>
<polygon fill="red" stroke="red" points="233.4,-218.69 238.06,-209.17 228.48,-213.7 233.4,-218.69"/>
<text text-anchor="middle" x="245.5" y="-337" font-family="Times,serif" font-size="10.00" fill="red">1.2.3</text>
<text text-anchor="middle" x="245.5" y="-326" font-family="Times,serif" font-size="10.00" fill="red">(latest: 1.2.5)</text>
</g>
<!-- roo_testing -->
<g id="node23" class="node">
<title>roo_testing</title>
<polygon fill="#b1dbab" stroke="black" points="218,-38 141,-38 141,0 218,0 218,-38"/>
<text text-anchor="middle" x="179.5" y="-22.8" font-family="Times,serif" font-size="14.00">roo_testing</text>
<text text-anchor="middle" x="179.5" y="-7.8" font-family="Times,serif" font-size="14.00">1.3.5</text>
</g>
<!-- roo_time -->
<g id="node25" class="node">
<title>roo_time</title>
<polygon fill="#b1dbab" stroke="black" points="212.5,-113 146.5,-113 146.5,-75 212.5,-75 212.5,-113"/>
<text text-anchor="middle" x="179.5" y="-97.8" font-family="Times,serif" font-size="14.00">roo_time</text>
<text text-anchor="middle" x="179.5" y="-82.8" font-family="Times,serif" font-size="14.00">1.4.4</text>
</g>
<!-- roo_threads&#45;&gt;roo_time -->
<g id="edge31" class="edge">
<title>roo_threads&#45;&gt;roo_time</title>
<path fill="none" stroke="black" d="M249.8,-170.76C242.99,-158.81 233.22,-143.2 222.5,-131 219.13,-127.17 215.34,-123.39 211.44,-119.82"/>
<polygon fill="black" stroke="black" points="213.72,-117.16 203.89,-113.22 209.12,-122.44 213.72,-117.16"/>
</g>
<!-- roo_time&#45;&gt;roo_testing -->
<g id="edge32" class="edge">
<title>roo_time&#45;&gt;roo_testing</title>
<path fill="none" stroke="black" d="M179.5,-74.96C179.5,-66.88 179.5,-57.18 179.5,-48.18"/>
<polygon fill="black" stroke="black" points="183,-48.09 179.5,-38.09 176,-48.09 183,-48.09"/>
</g>
<!-- roo_time_ds3231 -->
<g id="node26" class="node">
<title>roo_time_ds3231</title>
<polygon fill="#b1dbab" stroke="red" points="201.5,-209 89.5,-209 89.5,-171 201.5,-171 201.5,-209"/>
<text text-anchor="middle" x="145.5" y="-193.8" font-family="Times,serif" font-size="14.00">roo_time_ds3231</text>
<text text-anchor="middle" x="145.5" y="-178.8" font-family="Times,serif" font-size="14.00">1.1.6</text>
</g>
<!-- roo_time_ds3231&#45;&gt;roo_time -->
<g id="edge33" class="edge">
<title>roo_time_ds3231&#45;&gt;roo_time</title>
<path fill="none" stroke="red" d="M152.06,-170.88C156.99,-157.22 163.85,-138.26 169.48,-122.71"/>
<polygon fill="red" stroke="red" points="172.85,-123.66 172.96,-113.07 166.27,-121.28 172.85,-123.66"/>
<text text-anchor="middle" x="193.5" y="-145" font-family="Times,serif" font-size="10.00" fill="red">1.4.3</text>
<text text-anchor="middle" x="193.5" y="-134" font-family="Times,serif" font-size="10.00" fill="red">(latest: 1.4.4)</text>
</g>
<!-- roo_transceivers&#45;&gt;roo_prefs -->
<g id="edge34" class="edge">
<title>roo_transceivers&#45;&gt;roo_prefs</title>
<path fill="none" stroke="black" d="M271.84,-650.88C281.4,-636.83 294.79,-617.17 305.54,-601.38"/>
<polygon fill="black" stroke="black" points="308.46,-603.3 311.2,-593.07 302.68,-599.36 308.46,-603.3"/>
</g>
<!-- roo_transport -->
<g id="node28" class="node">
<title>roo_transport</title>
<polygon fill="#b1dbab" stroke="red" points="777,-497 688,-497 688,-459 777,-459 777,-497"/>
<text text-anchor="middle" x="732.5" y="-481.8" font-family="Times,serif" font-size="14.00">roo_transport</text>
<text text-anchor="middle" x="732.5" y="-466.8" font-family="Times,serif" font-size="14.00">1.1.2</text>
</g>
<!-- roo_transport&#45;&gt;roo_collections -->
<g id="edge35" class="edge">
<title>roo_transport&#45;&gt;roo_collections</title>
<path fill="none" stroke="black" d="M708.59,-458.88C689.21,-444.18 661.71,-423.34 640.44,-407.21"/>
<polygon fill="black" stroke="black" points="642.42,-404.32 632.34,-401.07 638.19,-409.9 642.42,-404.32"/>
</g>
<!-- roo_transport&#45;&gt;roo_io -->
<g id="edge36" class="edge">
<title>roo_transport&#45;&gt;roo_io</title>
<path fill="none" stroke="red" d="M687.81,-461.75C684.67,-460.79 681.54,-459.86 678.5,-459 644.68,-449.43 634.63,-452.72 601.5,-441 572.42,-430.72 541.09,-415.41 517.73,-403.11"/>
<polygon fill="red" stroke="red" points="519.35,-400.01 508.88,-398.39 516.05,-406.18 519.35,-400.01"/>
<text text-anchor="middle" x="628.5" y="-433" font-family="Times,serif" font-size="10.00" fill="red">2.1.5</text>
<text text-anchor="middle" x="628.5" y="-422" font-family="Times,serif" font-size="10.00" fill="red">(latest: 2.1.6)</text>
</g>
<!-- roo_wifi -->
<g id="node29" class="node">
<title>roo_wifi</title>
<polygon fill="khaki" stroke="red" points="394,-689 331,-689 331,-651 394,-651 394,-689"/>
<text text-anchor="middle" x="362.5" y="-673.8" font-family="Times,serif" font-size="14.00">roo_wifi</text>
<text text-anchor="middle" x="362.5" y="-658.8" font-family="Times,serif" font-size="14.00">1.1.4</text>
</g>
<!-- roo_wifi&#45;&gt;roo_prefs -->
<g id="edge37" class="edge">
<title>roo_wifi&#45;&gt;roo_prefs</title>
<path fill="none" stroke="red" d="M354.98,-650.88C349.32,-637.22 341.45,-618.26 335,-602.71"/>
<polygon fill="red" stroke="red" points="338.06,-600.96 331,-593.07 331.6,-603.65 338.06,-600.96"/>
<text text-anchor="middle" x="376" y="-625" font-family="Times,serif" font-size="10.00" fill="red">1.2.9</text>
<text text-anchor="middle" x="376" y="-614" font-family="Times,serif" font-size="10.00" fill="red">(latest: 1.2.10)</text>
</g>
<!-- roo_windows&#45;&gt;roo_fonts_basic -->
<g id="edge38" class="edge">
<title>roo_windows&#45;&gt;roo_fonts_basic</title>
<path fill="none" stroke="black" d="M591.02,-650.88C584.56,-637.09 575.58,-617.9 568.26,-602.26"/>
<polygon fill="black" stroke="black" points="571.37,-600.64 563.96,-593.07 565.03,-603.61 571.37,-600.64"/>
</g>
<!-- roo_windows&#45;&gt;roo_fonts_material -->
<g id="edge39" class="edge">
<title>roo_windows&#45;&gt;roo_fonts_material</title>
<path fill="none" stroke="black" d="M616.08,-650.88C629.17,-636.57 647.59,-616.44 662.16,-600.51"/>
<polygon fill="black" stroke="black" points="664.8,-602.81 668.97,-593.07 659.64,-598.08 664.8,-602.81"/>
</g>
<!-- roo_windows&#45;&gt;roo_icons -->
<g id="edge41" class="edge">
<title>roo_windows&#45;&gt;roo_icons</title>
<path fill="none" stroke="black" d="M637.87,-650.88C671.01,-635.22 718.92,-612.59 753.79,-596.12"/>
<polygon fill="black" stroke="black" points="755.71,-599.09 763.25,-591.65 752.72,-592.76 755.71,-599.09"/>
</g>
<!-- roo_windows&#45;&gt;roo_locale -->
<g id="edge40" class="edge">
<title>roo_windows&#45;&gt;roo_locale</title>
<path fill="none" stroke="black" d="M644.69,-662.23C713.02,-651.45 846.61,-628.22 967.49,-593.06"/>
<polygon fill="black" stroke="black" points="968.67,-596.36 977.28,-590.18 966.7,-589.64 968.67,-596.36"/>
</g>
<!-- roo_windows&#45;&gt;roo_scheduler -->
<g id="edge42" class="edge">
<title>roo_windows&#45;&gt;roo_scheduler</title>
<path fill="none" stroke="black" d="M554.23,-656.19C514.24,-643.68 455.32,-622.24 409.5,-593 398.91,-586.24 346.79,-535.98 314.51,-504.49"/>
<polygon fill="black" stroke="black" points="316.76,-501.8 307.16,-497.31 311.86,-506.8 316.76,-501.8"/>
</g>
<!-- roo_windows_transceivers -->
<g id="node31" class="node">
<title>roo_windows_transceivers</title>
<polygon fill="khaki" stroke="red" points="408,-785 247,-785 247,-747 408,-747 408,-785"/>
<text text-anchor="middle" x="327.5" y="-769.8" font-family="Times,serif" font-size="14.00">roo_windows_transceivers</text>
<text text-anchor="middle" x="327.5" y="-754.8" font-family="Times,serif" font-size="14.00">1.0.0</text>
</g>
<!-- roo_windows_transceivers&#45;&gt;roo_transceivers -->
<g id="edge43" class="edge">
<title>roo_windows_transceivers&#45;&gt;roo_transceivers</title>
<path fill="none" stroke="red" d="M303.31,-746.71C297.32,-741.43 291.27,-735.37 286.5,-729 279.59,-719.77 273.84,-708.49 269.45,-698.34"/>
<polygon fill="red" stroke="red" points="272.68,-696.99 265.66,-689.05 266.2,-699.63 272.68,-696.99"/>
<text text-anchor="middle" x="313.5" y="-721" font-family="Times,serif" font-size="10.00" fill="red">1.1.3</text>
<text text-anchor="middle" x="313.5" y="-710" font-family="Times,serif" font-size="10.00" fill="red">(latest: 1.1.6)</text>
</g>
<!-- roo_windows_transceivers&#45;&gt;roo_windows -->
<g id="edge44" class="edge">
<title>roo_windows_transceivers&#45;&gt;roo_windows</title>
<path fill="none" stroke="red" d="M400.48,-746.99C414.84,-742.11 429.48,-736.16 442.5,-729 455.76,-721.71 455.11,-714.06 468.5,-707 491.96,-694.63 520.08,-686.18 544.25,-680.6"/>
<polygon fill="red" stroke="red" points="545.32,-683.94 554.33,-678.38 543.82,-677.11 545.32,-683.94"/>
<text text-anchor="middle" x="495.5" y="-721" font-family="Times,serif" font-size="10.00" fill="red">1.4.1</text>
<text text-anchor="middle" x="495.5" y="-710" font-family="Times,serif" font-size="10.00" fill="red">(latest: 1.5.0)</text>
</g>
<!-- roo_windows_wifi -->
<g id="node32" class="node">
<title>roo_windows_wifi</title>
<polygon fill="khaki" stroke="red" points="550,-785 431,-785 431,-747 550,-747 550,-785"/>
<text text-anchor="middle" x="490.5" y="-769.8" font-family="Times,serif" font-size="14.00">roo_windows_wifi</text>
<text text-anchor="middle" x="490.5" y="-754.8" font-family="Times,serif" font-size="14.00">1.1.3</text>
</g>
<!-- roo_windows_wifi&#45;&gt;roo_wifi -->
<g id="edge45" class="edge">
<title>roo_windows_wifi&#45;&gt;roo_wifi</title>
<path fill="none" stroke="red" d="M430.73,-748.27C412.48,-742.25 395.41,-735.36 388.5,-729 379.83,-721.01 373.86,-709.59 369.86,-698.99"/>
<polygon fill="red" stroke="red" points="373.09,-697.59 366.6,-689.22 366.45,-699.81 373.09,-697.59"/>
<text text-anchor="middle" x="415.5" y="-721" font-family="Times,serif" font-size="10.00" fill="red">1.1.3</text>
<text text-anchor="middle" x="415.5" y="-710" font-family="Times,serif" font-size="10.00" fill="red">(latest: 1.1.4)</text>
</g>
<!-- roo_windows_wifi&#45;&gt;roo_windows -->
<g id="edge46" class="edge">
<title>roo_windows_wifi&#45;&gt;roo_windows</title>
<path fill="none" stroke="red" d="M507.65,-746.75C519.08,-734.94 534.67,-719.5 549.5,-707 554.16,-703.07 559.23,-699.1 564.29,-695.31"/>
<polygon fill="red" stroke="red" points="566.72,-697.87 572.72,-689.14 562.58,-692.22 566.72,-697.87"/>
<text text-anchor="middle" x="576.5" y="-721" font-family="Times,serif" font-size="10.00" fill="red">1.4.2</text>
<text text-anchor="middle" x="576.5" y="-710" font-family="Times,serif" font-size="10.00" fill="red">(latest: 1.5.0)</text>
</g>
</g>
</svg>
