<?xml version="1.0" encoding="UTF-8" standalone="no"?>
<!DOCTYPE svg PUBLIC "-//W3C//DTD SVG 1.1//EN"
 "http://www.w3.org/Graphics/SVG/1.1/DTD/svg11.dtd">
<!-- Generated by graphviz version 2.42.4 (0)
 -->
<!-- Title: dependencies Pages: 1 -->
<svg width="1938pt" height="751pt"
 viewBox="0.00 0.00 1938.00 751.00" xmlns="http://www.w3.org/2000/svg" xmlns:xlink="http://www.w3.org/1999/xlink">
<g id="graph0" class="graph" transform="scale(1 1) rotate(0) translate(4 747)">
<title>dependencies</title>
<polygon fill="white" stroke="transparent" points="-4,4 -4,-747 1934,-747 1934,4 -4,4"/>
<!-- roo_backport -->
<g id="node1" class="node">
<title>roo_backport</title>
<polygon fill="#b1dbab" stroke="black" points="1422,-113 1312,-113 1312,-75 1422,-75 1422,-113"/>
<text text-anchor="middle" x="1367" y="-97.8" font-family="Times,serif" font-size="14.00">roo_backport</text>
<text text-anchor="middle" x="1367" y="-82.8" font-family="Times,serif" font-size="14.00">1.2.0</text>
</g>
<!-- roo_blink -->
<g id="node2" class="node">
<title>roo_blink</title>
<polygon fill="#b1dbab" stroke="black" points="1015,-380 933,-380 933,-342 1015,-342 1015,-380"/>
<text text-anchor="middle" x="974" y="-364.8" font-family="Times,serif" font-size="14.00">roo_blink</text>
<text text-anchor="middle" x="974" y="-349.8" font-family="Times,serif" font-size="14.00">1.0.4</text>
</g>
<!-- roo_logging -->
<g id="node12" class="node">
<title>roo_logging</title>
<polygon fill="#b1dbab" stroke="black" points="708,-284 608,-284 608,-246 708,-246 708,-284"/>
<text text-anchor="middle" x="658" y="-268.8" font-family="Times,serif" font-size="14.00">roo_logging</text>
<text text-anchor="middle" x="658" y="-253.8" font-family="Times,serif" font-size="14.00">1.5.1</text>
</g>
<!-- roo_blink&#45;&gt;roo_logging -->
<g id="edge1" class="edge">
<title>roo_blink&#45;&gt;roo_logging</title>
<path fill="none" stroke="black" d="M932.93,-356.08C891.9,-351.35 827.4,-341.75 774,-324 747.45,-315.18 719.35,-301.26 697.45,-289.26"/>
<polygon fill="black" stroke="black" points="698.91,-286.07 688.47,-284.26 695.51,-292.19 698.91,-286.07"/>
</g>
<!-- roo_scheduler -->
<g id="node16" class="node">
<title>roo_scheduler</title>
<polygon fill="#b1dbab" stroke="black" points="1081,-284 965,-284 965,-246 1081,-246 1081,-284"/>
<text text-anchor="middle" x="1023" y="-268.8" font-family="Times,serif" font-size="14.00">roo_scheduler</text>
<text text-anchor="middle" x="1023" y="-253.8" font-family="Times,serif" font-size="14.00">2.1.6</text>
</g>
<!-- roo_blink&#45;&gt;roo_scheduler -->
<g id="edge2" class="edge">
<title>roo_blink&#45;&gt;roo_scheduler</title>
<path fill="none" stroke="black" d="M983.45,-341.88C990.63,-328.09 1000.64,-308.9 1008.79,-293.26"/>
<polygon fill="black" stroke="black" points="1012.06,-294.55 1013.58,-284.07 1005.86,-291.32 1012.06,-294.55"/>
</g>
<!-- roo_collections -->
<g id="node3" class="node">
<title>roo_collections</title>
<polygon fill="#b1dbab" stroke="black" points="1428,-188 1306,-188 1306,-150 1428,-150 1428,-188"/>
<text text-anchor="middle" x="1367" y="-172.8" font-family="Times,serif" font-size="14.00">roo_collections</text>
<text text-anchor="middle" x="1367" y="-157.8" font-family="Times,serif" font-size="14.00">1.4.0</text>
</g>
<!-- roo_collections&#45;&gt;roo_backport -->
<g id="edge3" class="edge">
<title>roo_collections&#45;&gt;roo_backport</title>
<path fill="none" stroke="black" d="M1367,-149.96C1367,-141.88 1367,-132.18 1367,-123.18"/>
<polygon fill="black" stroke="black" points="1370.5,-123.09 1367,-113.09 1363.5,-123.09 1370.5,-123.09"/>
</g>
<!-- roo_comms -->
<g id="node4" class="node">
<title>roo_comms</title>
<polygon fill="plum" stroke="black" points="907.5,-572 810.5,-572 810.5,-534 907.5,-534 907.5,-572"/>
<text text-anchor="middle" x="859" y="-556.8" font-family="Times,serif" font-size="14.00">roo_comms</text>
<text text-anchor="middle" x="859" y="-541.8" font-family="Times,serif" font-size="14.00">1.1.2</text>
</g>
<!-- roo_comms&#45;&gt;roo_blink -->
<g id="edge5" class="edge">
<title>roo_comms&#45;&gt;roo_blink</title>
<path fill="none" stroke="red" d="M906.73,-533.95C915.01,-529.13 922.9,-523.19 929,-516 952.53,-488.23 942.69,-472.6 954,-438 956.62,-429.98 957.68,-428.11 960,-420 962.79,-410.27 965.49,-399.53 967.76,-389.95"/>
<polygon fill="red" stroke="red" points="971.19,-390.66 970.04,-380.13 964.37,-389.08 971.19,-390.66"/>
<text text-anchor="middle" x="987" y="-460" font-family="Times,serif" font-size="10.00" fill="red">1.0.2</text>
<text text-anchor="middle" x="987" y="-449" font-family="Times,serif" font-size="10.00" fill="red">(latest: 1.0.4)</text>
</g>
<!-- roo_comms&#45;&gt;roo_collections -->
<g id="edge6" class="edge">
<title>roo_comms&#45;&gt;roo_collections</title>
<path fill="none" stroke="red" d="M907.53,-550.43C991.57,-547.15 1160.4,-537.99 1215,-516 1241.72,-505.24 1249.44,-499.57 1266,-476 1298.66,-429.5 1343.08,-264.13 1360.03,-197.81"/>
<polygon fill="red" stroke="red" points="1363.44,-198.61 1362.51,-188.05 1356.66,-196.88 1363.44,-198.61"/>
<text text-anchor="middle" x="1352" y="-364" font-family="Times,serif" font-size="10.00" fill="red">1.3.2</text>
<text text-anchor="middle" x="1352" y="-353" font-family="Times,serif" font-size="10.00" fill="red">(latest: 1.4.0)</text>
</g>
<!-- roo_control -->
<g id="node5" class="node">
<title>roo_control</title>
<polygon fill="#b1dbab" stroke="black" points="907.5,-476 810.5,-476 810.5,-438 907.5,-438 907.5,-476"/>
<text text-anchor="middle" x="859" y="-460.8" font-family="Times,serif" font-size="14.00">roo_control</text>
<text text-anchor="middle" x="859" y="-445.8" font-family="Times,serif" font-size="14.00">1.2.3</text>
</g>
<!-- roo_comms&#45;&gt;roo_control -->
<g id="edge7" class="edge">
<title>roo_comms&#45;&gt;roo_control</title>
<path fill="none" stroke="red" d="M859,-533.88C859,-520.35 859,-501.62 859,-486.15"/>
<polygon fill="red" stroke="red" points="862.5,-486.07 859,-476.07 855.5,-486.07 862.5,-486.07"/>
<text text-anchor="middle" x="892" y="-508" font-family="Times,serif" font-size="10.00" fill="red">1.2.2</text>
<text text-anchor="middle" x="892" y="-497" font-family="Times,serif" font-size="10.00" fill="red">(latest: 1.2.3)</text>
</g>
<!-- roo_io -->
<g id="node10" class="node">
<title>roo_io</title>
<polygon fill="#b1dbab" stroke="black" points="627.5,-380 568.5,-380 568.5,-342 627.5,-342 627.5,-380"/>
<text text-anchor="middle" x="598" y="-364.8" font-family="Times,serif" font-size="14.00">roo_io</text>
<text text-anchor="middle" x="598" y="-349.8" font-family="Times,serif" font-size="14.00">2.1.1</text>
</g>
<!-- roo_comms&#45;&gt;roo_io -->
<g id="edge8" class="edge">
<title>roo_comms&#45;&gt;roo_io</title>
<path fill="none" stroke="red" d="M810.28,-549C766.22,-545.07 700.13,-536.14 646,-516 613.85,-504.04 596.83,-505.89 580,-476 571.71,-461.28 578.04,-454.77 580,-438 580.29,-435.52 586.19,-410.79 591.16,-390.2"/>
<polygon fill="red" stroke="red" points="594.62,-390.79 593.57,-380.24 587.82,-389.14 594.62,-390.79"/>
<text text-anchor="middle" x="613" y="-460" font-family="Times,serif" font-size="10.00" fill="red">2.0.3</text>
<text text-anchor="middle" x="613" y="-449" font-family="Times,serif" font-size="10.00" fill="red">(latest: 2.1.1)</text>
</g>
<!-- roo_comms&#45;&gt;roo_logging -->
<g id="edge9" class="edge">
<title>roo_comms&#45;&gt;roo_logging</title>
<path fill="none" stroke="red" d="M810.18,-544.73C768.7,-535.88 710.93,-516.7 679,-476 637.42,-423.01 644.73,-337.83 652.15,-294.02"/>
<polygon fill="red" stroke="red" points="655.62,-294.53 653.97,-284.07 648.73,-293.28 655.62,-294.53"/>
<text text-anchor="middle" x="686" y="-412" font-family="Times,serif" font-size="10.00" fill="red">1.4.3</text>
<text text-anchor="middle" x="686" y="-401" font-family="Times,serif" font-size="10.00" fill="red">(latest: 1.5.1)</text>
</g>
<!-- roo_prefs -->
<g id="node14" class="node">
<title>roo_prefs</title>
<polygon fill="#b1dbab" stroke="black" points="1137.5,-380 1054.5,-380 1054.5,-342 1137.5,-342 1137.5,-380"/>
<text text-anchor="middle" x="1096" y="-364.8" font-family="Times,serif" font-size="14.00">roo_prefs</text>
<text text-anchor="middle" x="1096" y="-349.8" font-family="Times,serif" font-size="14.00">1.2.7</text>
</g>
<!-- roo_comms&#45;&gt;roo_prefs -->
<g id="edge10" class="edge">
<title>roo_comms&#45;&gt;roo_prefs</title>
<path fill="none" stroke="red" d="M907.58,-548.09C988.3,-540.41 1144.09,-520.09 1173,-476 1193.47,-444.78 1160.24,-409.19 1131.25,-386.2"/>
<polygon fill="red" stroke="red" points="1133.3,-383.36 1123.24,-380.06 1129.05,-388.92 1133.3,-383.36"/>
<text text-anchor="middle" x="1212" y="-460" font-family="Times,serif" font-size="10.00" fill="red">1.2.3</text>
<text text-anchor="middle" x="1212" y="-449" font-family="Times,serif" font-size="10.00" fill="red">(latest: 1.2.7)</text>
</g>
<!-- roo_comms&#45;&gt;roo_scheduler -->
<g id="edge11" class="edge">
<title>roo_comms&#45;&gt;roo_scheduler</title>
<path fill="none" stroke="red" d="M907.58,-550.54C1003.31,-546.45 1210.4,-531.29 1249,-476 1258.67,-462.15 1258.03,-452.27 1249,-438 1239.01,-422.21 1225.73,-431.5 1211,-420 1175.66,-392.4 1180.81,-371.46 1147,-342 1123.09,-321.17 1092.8,-302.49 1068.15,-288.86"/>
<polygon fill="red" stroke="red" points="1069.8,-285.77 1059.34,-284.07 1066.45,-291.92 1069.8,-285.77"/>
<text text-anchor="middle" x="1244" y="-412" font-family="Times,serif" font-size="10.00" fill="red">2.1.5</text>
<text text-anchor="middle" x="1244" y="-401" font-family="Times,serif" font-size="10.00" fill="red">(latest: 2.1.6)</text>
</g>
<!-- roo_testing -->
<g id="node17" class="node">
<title>roo_testing</title>
<polygon fill="#b1dbab" stroke="black" points="1629.5,-38 1532.5,-38 1532.5,0 1629.5,0 1629.5,-38"/>
<text text-anchor="middle" x="1581" y="-22.8" font-family="Times,serif" font-size="14.00">roo_testing</text>
<text text-anchor="middle" x="1581" y="-7.8" font-family="Times,serif" font-size="14.00">1.2.0</text>
</g>
<!-- roo_comms&#45;&gt;roo_testing -->
<g id="edge4" class="edge">
<title>roo_comms&#45;&gt;roo_testing</title>
<path fill="none" stroke="red" d="M810.35,-552.65C689.26,-553.69 377.2,-552.61 281,-516 254.08,-505.75 247.77,-498.67 230,-476 181.88,-414.62 73.26,-223.27 100,-150 149.8,-13.55 268.07,-65.58 413,-56 837.78,-27.91 1350.94,-21.68 1522.2,-20.35"/>
<polygon fill="red" stroke="red" points="1522.29,-23.85 1532.26,-20.27 1522.24,-16.85 1522.29,-23.85"/>
<text text-anchor="middle" x="156" y="-268" font-family="Times,serif" font-size="10.00" fill="red">1.1.8</text>
<text text-anchor="middle" x="156" y="-257" font-family="Times,serif" font-size="10.00" fill="red">(latest: 1.2.0)</text>
</g>
<!-- roo_threads -->
<g id="node18" class="node">
<title>roo_threads</title>
<polygon fill="#b1dbab" stroke="black" points="404.5,-188 303.5,-188 303.5,-150 404.5,-150 404.5,-188"/>
<text text-anchor="middle" x="354" y="-172.8" font-family="Times,serif" font-size="14.00">roo_threads</text>
<text text-anchor="middle" x="354" y="-157.8" font-family="Times,serif" font-size="14.00">1.2.0</text>
</g>
<!-- roo_comms&#45;&gt;roo_threads -->
<g id="edge12" class="edge">
<title>roo_comms&#45;&gt;roo_threads</title>
<path fill="none" stroke="red" d="M810.27,-549.84C700.85,-544.16 439.73,-525.63 369,-476 358.35,-468.53 305.9,-392.41 302,-380 281.66,-315.32 315.87,-237.43 337.8,-197.13"/>
<polygon fill="red" stroke="red" points="340.98,-198.62 342.81,-188.19 334.87,-195.2 340.98,-198.62"/>
<text text-anchor="middle" x="335" y="-364" font-family="Times,serif" font-size="10.00" fill="red">1.1.6</text>
<text text-anchor="middle" x="335" y="-353" font-family="Times,serif" font-size="10.00" fill="red">(latest: 1.2.0)</text>
</g>
<!-- roo_time -->
<g id="node19" class="node">
<title>roo_time</title>
<polygon fill="#b1dbab" stroke="black" points="314.5,-113 235.5,-113 235.5,-75 314.5,-75 314.5,-113"/>
<text text-anchor="middle" x="275" y="-97.8" font-family="Times,serif" font-size="14.00">roo_time</text>
<text text-anchor="middle" x="275" y="-82.8" font-family="Times,serif" font-size="14.00">1.4.0</text>
</g>
<!-- roo_comms&#45;&gt;roo_time -->
<g id="edge13" class="edge">
<title>roo_comms&#45;&gt;roo_time</title>
<path fill="none" stroke="red" d="M810.45,-551.3C726.81,-549.38 550.43,-542.3 404,-516 339.89,-504.49 308.04,-523.06 263,-476 174.47,-383.5 227.39,-312.8 256,-188 260.98,-166.28 266,-141.56 269.63,-123.07"/>
<polygon fill="red" stroke="red" points="273.07,-123.72 271.54,-113.23 266.2,-122.38 273.07,-123.72"/>
<text text-anchor="middle" x="257" y="-316" font-family="Times,serif" font-size="10.00" fill="red">1.3.3</text>
<text text-anchor="middle" x="257" y="-305" font-family="Times,serif" font-size="10.00" fill="red">(latest: 1.4.0)</text>
</g>
<!-- roo_transceivers -->
<g id="node21" class="node">
<title>roo_transceivers</title>
<polygon fill="#b1dbab" stroke="black" points="1163.5,-476 1028.5,-476 1028.5,-438 1163.5,-438 1163.5,-476"/>
<text text-anchor="middle" x="1096" y="-460.8" font-family="Times,serif" font-size="14.00">roo_transceivers</text>
<text text-anchor="middle" x="1096" y="-445.8" font-family="Times,serif" font-size="14.00">1.1.4</text>
</g>
<!-- roo_comms&#45;&gt;roo_transceivers -->
<g id="edge14" class="edge">
<title>roo_comms&#45;&gt;roo_transceivers</title>
<path fill="none" stroke="red" d="M907.52,-534.89C923.64,-529.07 941.65,-522.4 958,-516 987.09,-504.6 1019.3,-491.12 1045.28,-480.02"/>
<polygon fill="red" stroke="red" points="1046.74,-483.2 1054.55,-476.05 1043.98,-476.77 1046.74,-483.2"/>
<text text-anchor="middle" x="1044" y="-508" font-family="Times,serif" font-size="10.00" fill="red">1.1.3</text>
<text text-anchor="middle" x="1044" y="-497" font-family="Times,serif" font-size="10.00" fill="red">(latest: 1.1.4)</text>
</g>
<!-- roo_quantity -->
<g id="node15" class="node">
<title>roo_quantity</title>
<polygon fill="#b1dbab" stroke="black" points="793.5,-380 686.5,-380 686.5,-342 793.5,-342 793.5,-380"/>
<text text-anchor="middle" x="740" y="-364.8" font-family="Times,serif" font-size="14.00">roo_quantity</text>
<text text-anchor="middle" x="740" y="-349.8" font-family="Times,serif" font-size="14.00">1.1.5</text>
</g>
<!-- roo_control&#45;&gt;roo_quantity -->
<g id="edge15" class="edge">
<title>roo_control&#45;&gt;roo_quantity</title>
<path fill="none" stroke="black" d="M836.06,-437.88C817.54,-423.25 791.3,-402.52 770.93,-386.43"/>
<polygon fill="black" stroke="black" points="772.89,-383.52 762.87,-380.07 768.55,-389.01 772.89,-383.52"/>
</g>
<!-- roo_control&#45;&gt;roo_scheduler -->
<g id="edge16" class="edge">
<title>roo_control&#45;&gt;roo_scheduler</title>
<path fill="none" stroke="black" d="M861.4,-437.94C863.51,-426.06 867.33,-410.47 874,-398 899.16,-350.94 948.18,-312.63 983.12,-289.63"/>
<polygon fill="black" stroke="black" points="985.16,-292.47 991.68,-284.12 981.37,-286.59 985.16,-292.47"/>
</g>
<!-- roo_dashboard -->
<g id="node6" class="node">
<title>roo_dashboard</title>
<polygon fill="plum" stroke="black" points="1347,-743 1225,-743 1225,-705 1347,-705 1347,-743"/>
<text text-anchor="middle" x="1286" y="-727.8" font-family="Times,serif" font-size="14.00">roo_dashboard</text>
<text text-anchor="middle" x="1286" y="-712.8" font-family="Times,serif" font-size="14.00">1.0.1</text>
</g>
<!-- roo_dashboard&#45;&gt;roo_testing -->
<g id="edge17" class="edge">
<title>roo_dashboard&#45;&gt;roo_testing</title>
<path fill="none" stroke="red" d="M1347.26,-705.22C1435.11,-677.18 1597.95,-615.41 1704,-516 1719.3,-501.66 1719.93,-494.9 1729,-476 1730.22,-473.45 1795.24,-286.72 1796,-284 1804.07,-255.12 1810,-247.99 1810,-218 1810,-218 1810,-218 1810,-93 1810,-57.28 1707.57,-36.69 1639.72,-26.96"/>
<polygon fill="red" stroke="red" points="1639.95,-23.46 1629.57,-25.55 1638.99,-30.4 1639.95,-23.46"/>
<text text-anchor="middle" x="1808" y="-364" font-family="Times,serif" font-size="10.00" fill="red">1.1.7</text>
<text text-anchor="middle" x="1808" y="-353" font-family="Times,serif" font-size="10.00" fill="red">(latest: 1.2.0)</text>
</g>
<!-- roo_windows -->
<g id="node24" class="node">
<title>roo_windows</title>
<polygon fill="plum" stroke="black" points="702.5,-668 593.5,-668 593.5,-630 702.5,-630 702.5,-668"/>
<text text-anchor="middle" x="648" y="-652.8" font-family="Times,serif" font-size="14.00">roo_windows</text>
<text text-anchor="middle" x="648" y="-637.8" font-family="Times,serif" font-size="14.00">1.4.1</text>
</g>
<!-- roo_dashboard&#45;&gt;roo_windows -->
<g id="edge18" class="edge">
<title>roo_dashboard&#45;&gt;roo_windows</title>
<path fill="none" stroke="black" d="M1224.83,-716C1104.09,-702.19 836.17,-671.53 712.66,-657.4"/>
<polygon fill="black" stroke="black" points="712.93,-653.91 702.59,-656.25 712.13,-660.86 712.93,-653.91"/>
</g>
<!-- roo_display -->
<g id="node7" class="node">
<title>roo_display</title>
<polygon fill="plum" stroke="black" points="1598,-476 1500,-476 1500,-438 1598,-438 1598,-476"/>
<text text-anchor="middle" x="1549" y="-460.8" font-family="Times,serif" font-size="14.00">roo_display</text>
<text text-anchor="middle" x="1549" y="-445.8" font-family="Times,serif" font-size="14.00">2.3.1</text>
</g>
<!-- roo_display&#45;&gt;roo_backport -->
<g id="edge20" class="edge">
<title>roo_display&#45;&gt;roo_backport</title>
<path fill="none" stroke="red" d="M1546.86,-437.53C1543.08,-408.16 1533.98,-349.29 1517,-302 1491.2,-230.15 1485.87,-208.65 1437,-150 1427.45,-138.53 1415.14,-127.89 1403.52,-119.09"/>
<polygon fill="red" stroke="red" points="1405.36,-116.1 1395.23,-113.01 1401.22,-121.74 1405.36,-116.1"/>
<text text-anchor="middle" x="1543" y="-268" font-family="Times,serif" font-size="10.00" fill="red">1.1.1</text>
<text text-anchor="middle" x="1543" y="-257" font-family="Times,serif" font-size="10.00" fill="red">(latest: 1.2.0)</text>
</g>
<!-- roo_display&#45;&gt;roo_collections -->
<g id="edge21" class="edge">
<title>roo_display&#45;&gt;roo_collections</title>
<path fill="none" stroke="red" d="M1535.24,-437.9C1508.94,-403.24 1453.85,-330.33 1451,-324 1428.96,-275.13 1456.97,-249.76 1426,-206 1422.96,-201.7 1419.23,-197.82 1415.13,-194.34"/>
<polygon fill="red" stroke="red" points="1416.98,-191.35 1406.89,-188.13 1412.77,-196.94 1416.98,-191.35"/>
<text text-anchor="middle" x="1484" y="-316" font-family="Times,serif" font-size="10.00" fill="red">1.3.2</text>
<text text-anchor="middle" x="1484" y="-305" font-family="Times,serif" font-size="10.00" fill="red">(latest: 1.4.0)</text>
</g>
<!-- roo_display&#45;&gt;roo_io -->
<g id="edge22" class="edge">
<title>roo_display&#45;&gt;roo_io</title>
<path fill="none" stroke="red" d="M1499.86,-446.01C1483.43,-443 1464.98,-439.97 1448,-438 1303.86,-421.24 1266.73,-430.5 1122,-420 923.95,-405.64 873.14,-411.02 677,-380 664.19,-377.97 650.36,-375.07 637.91,-372.19"/>
<polygon fill="red" stroke="red" points="638.37,-368.7 627.83,-369.79 636.75,-375.51 638.37,-368.7"/>
<text text-anchor="middle" x="1155" y="-412" font-family="Times,serif" font-size="10.00" fill="red">2.0.2</text>
<text text-anchor="middle" x="1155" y="-401" font-family="Times,serif" font-size="10.00" fill="red">(latest: 2.1.1)</text>
</g>
<!-- roo_display&#45;&gt;roo_testing -->
<g id="edge19" class="edge">
<title>roo_display&#45;&gt;roo_testing</title>
<path fill="none" stroke="red" d="M1561.36,-437.79C1577.21,-413.24 1603.86,-367.54 1614,-324 1624.2,-280.2 1591.22,-272.02 1582,-228 1568.78,-164.87 1573.52,-88.57 1577.59,-48.22"/>
<polygon fill="red" stroke="red" points="1581.1,-48.38 1578.68,-38.06 1574.14,-47.63 1581.1,-48.38"/>
<text text-anchor="middle" x="1615" y="-220" font-family="Times,serif" font-size="10.00" fill="red">1.1.7</text>
<text text-anchor="middle" x="1615" y="-209" font-family="Times,serif" font-size="10.00" fill="red">(latest: 1.2.0)</text>
</g>
<!-- roo_flags -->
<g id="node8" class="node">
<title>roo_flags</title>
<polygon fill="#b1dbab" stroke="black" points="698,-188 618,-188 618,-150 698,-150 698,-188"/>
<text text-anchor="middle" x="658" y="-172.8" font-family="Times,serif" font-size="14.00">roo_flags</text>
<text text-anchor="middle" x="658" y="-157.8" font-family="Times,serif" font-size="14.00">1.2.0</text>
</g>
<!-- roo_icons -->
<g id="node9" class="node">
<title>roo_icons</title>
<polygon fill="plum" stroke="black" points="1590.5,-572 1507.5,-572 1507.5,-534 1590.5,-534 1590.5,-572"/>
<text text-anchor="middle" x="1549" y="-556.8" font-family="Times,serif" font-size="14.00">roo_icons</text>
<text text-anchor="middle" x="1549" y="-541.8" font-family="Times,serif" font-size="14.00">1.2.1</text>
</g>
<!-- roo_icons&#45;&gt;roo_display -->
<g id="edge24" class="edge">
<title>roo_icons&#45;&gt;roo_display</title>
<path fill="none" stroke="black" d="M1549,-533.88C1549,-520.35 1549,-501.62 1549,-486.15"/>
<polygon fill="black" stroke="black" points="1552.5,-486.07 1549,-476.07 1545.5,-486.07 1552.5,-486.07"/>
</g>
<!-- roo_icons&#45;&gt;roo_testing -->
<g id="edge23" class="edge">
<title>roo_icons&#45;&gt;roo_testing</title>
<path fill="none" stroke="red" d="M1590.71,-546.84C1640.17,-538.12 1716,-515.39 1716,-458 1716,-458 1716,-458 1716,-312 1716,-282.01 1721.43,-274.73 1730,-246 1732.45,-237.77 1735.42,-236.44 1737,-228 1738.8,-218.39 1738.87,-215.6 1737,-206 1725,-144.35 1717.97,-127.83 1684,-75 1673.5,-58.67 1656.44,-46.86 1639.2,-38.48"/>
<polygon fill="red" stroke="red" points="1640.2,-35.09 1629.65,-34.16 1637.32,-41.47 1640.2,-35.09"/>
<text text-anchor="middle" x="1763" y="-268" font-family="Times,serif" font-size="10.00" fill="red">1.1.7</text>
<text text-anchor="middle" x="1763" y="-257" font-family="Times,serif" font-size="10.00" fill="red">(latest: 1.2.0)</text>
</g>
<!-- roo_io&#45;&gt;roo_logging -->
<g id="edge25" class="edge">
<title>roo_io&#45;&gt;roo_logging</title>
<path fill="none" stroke="black" d="M609.57,-341.88C618.45,-327.96 630.85,-308.53 640.88,-292.82"/>
<polygon fill="black" stroke="black" points="644.04,-294.38 646.47,-284.07 638.14,-290.61 644.04,-294.38"/>
</g>
<!-- roo_locale -->
<g id="node11" class="node">
<title>roo_locale</title>
<polygon fill="#b1dbab" stroke="black" points="211,-572 123,-572 123,-534 211,-534 211,-572"/>
<text text-anchor="middle" x="167" y="-556.8" font-family="Times,serif" font-size="14.00">roo_locale</text>
<text text-anchor="middle" x="167" y="-541.8" font-family="Times,serif" font-size="14.00">1.1.1</text>
</g>
<!-- roo_logging&#45;&gt;roo_backport -->
<g id="edge26" class="edge">
<title>roo_logging&#45;&gt;roo_backport</title>
<path fill="none" stroke="black" d="M708.14,-252.05C833.8,-222.09 1162.15,-143.83 1302.19,-110.45"/>
<polygon fill="black" stroke="black" points="1303.03,-113.85 1311.95,-108.12 1301.41,-107.04 1303.03,-113.85"/>
</g>
<!-- roo_logging&#45;&gt;roo_flags -->
<g id="edge27" class="edge">
<title>roo_logging&#45;&gt;roo_flags</title>
<path fill="none" stroke="black" d="M658,-245.88C658,-232.35 658,-213.62 658,-198.15"/>
<polygon fill="black" stroke="black" points="661.5,-198.07 658,-188.07 654.5,-198.07 661.5,-198.07"/>
</g>
<!-- roo_logging&#45;&gt;roo_threads -->
<g id="edge28" class="edge">
<title>roo_logging&#45;&gt;roo_threads</title>
<path fill="none" stroke="black" d="M614.36,-245.9C583.8,-233.64 541.83,-217.61 504,-206 474.93,-197.07 442.13,-188.98 414.64,-182.74"/>
<polygon fill="black" stroke="black" points="415.29,-179.3 404.77,-180.53 413.76,-186.13 415.29,-179.3"/>
</g>
<!-- roo_onewire -->
<g id="node13" class="node">
<title>roo_onewire</title>
<polygon fill="#b1dbab" stroke="black" points="792,-476 688,-476 688,-438 792,-438 792,-476"/>
<text text-anchor="middle" x="740" y="-460.8" font-family="Times,serif" font-size="14.00">roo_onewire</text>
<text text-anchor="middle" x="740" y="-445.8" font-family="Times,serif" font-size="14.00">2.0.7</text>
</g>
<!-- roo_onewire&#45;&gt;roo_quantity -->
<g id="edge30" class="edge">
<title>roo_onewire&#45;&gt;roo_quantity</title>
<path fill="none" stroke="black" d="M740,-437.88C740,-424.35 740,-405.62 740,-390.15"/>
<polygon fill="black" stroke="black" points="743.5,-390.07 740,-380.07 736.5,-390.07 743.5,-390.07"/>
</g>
<!-- roo_onewire&#45;&gt;roo_scheduler -->
<g id="edge29" class="edge">
<title>roo_onewire&#45;&gt;roo_scheduler</title>
<path fill="none" stroke="black" d="M758.58,-437.94C791.44,-406.77 862.99,-342.35 933,-302 941.75,-296.96 951.34,-292.3 960.9,-288.13"/>
<polygon fill="black" stroke="black" points="962.56,-291.23 970.41,-284.12 959.84,-284.78 962.56,-291.23"/>
</g>
<!-- roo_prefs&#45;&gt;roo_logging -->
<g id="edge31" class="edge">
<title>roo_prefs&#45;&gt;roo_logging</title>
<path fill="none" stroke="black" d="M1054.19,-349.24C1044.31,-346.79 1033.8,-344.24 1024,-342 916.6,-317.43 790.69,-292.03 718.05,-277.7"/>
<polygon fill="black" stroke="black" points="718.65,-274.25 708.16,-275.75 717.3,-281.12 718.65,-274.25"/>
</g>
<!-- roo_prefs&#45;&gt;roo_scheduler -->
<g id="edge32" class="edge">
<title>roo_prefs&#45;&gt;roo_scheduler</title>
<path fill="none" stroke="black" d="M1081.92,-341.88C1071.02,-327.83 1055.75,-308.17 1043.49,-292.38"/>
<polygon fill="black" stroke="black" points="1045.93,-289.82 1037.03,-284.07 1040.4,-294.11 1045.93,-289.82"/>
</g>
<!-- roo_quantity&#45;&gt;roo_logging -->
<g id="edge33" class="edge">
<title>roo_quantity&#45;&gt;roo_logging</title>
<path fill="none" stroke="black" d="M724.19,-341.88C711.82,-327.7 694.47,-307.81 680.63,-291.94"/>
<polygon fill="black" stroke="black" points="682.97,-289.3 673.76,-284.07 677.7,-293.91 682.97,-289.3"/>
</g>
<!-- roo_scheduler&#45;&gt;roo_collections -->
<g id="edge34" class="edge">
<title>roo_scheduler&#45;&gt;roo_collections</title>
<path fill="none" stroke="black" d="M1081.22,-247.15C1122.2,-235.39 1178.38,-219.44 1228,-206 1250.01,-200.04 1274.04,-193.74 1295.84,-188.1"/>
<polygon fill="black" stroke="black" points="1296.87,-191.45 1305.68,-185.57 1295.13,-184.67 1296.87,-191.45"/>
</g>
<!-- roo_scheduler&#45;&gt;roo_threads -->
<g id="edge35" class="edge">
<title>roo_scheduler&#45;&gt;roo_threads</title>
<path fill="none" stroke="black" d="M964.8,-255.82C838.98,-238.14 542.7,-196.51 414.68,-178.53"/>
<polygon fill="black" stroke="black" points="415.04,-175.04 404.65,-177.12 414.07,-181.97 415.04,-175.04"/>
</g>
<!-- roo_threads&#45;&gt;roo_time -->
<g id="edge36" class="edge">
<title>roo_threads&#45;&gt;roo_time</title>
<path fill="none" stroke="black" d="M334.47,-149.96C324.69,-140.92 312.69,-129.83 302.04,-119.99"/>
<polygon fill="black" stroke="black" points="304.3,-117.31 294.58,-113.09 299.55,-122.45 304.3,-117.31"/>
</g>
<!-- roo_time&#45;&gt;roo_testing -->
<g id="edge37" class="edge">
<title>roo_time&#45;&gt;roo_testing</title>
<path fill="none" stroke="black" d="M314.53,-80.41C343.43,-71.83 383.73,-61.13 420,-56 636.13,-25.45 1316.98,-20.82 1522.01,-20.12"/>
<polygon fill="black" stroke="black" points="1522.28,-23.62 1532.26,-20.09 1522.25,-16.62 1522.28,-23.62"/>
</g>
<!-- roo_time_ds3231 -->
<g id="node20" class="node">
<title>roo_time_ds3231</title>
<polygon fill="#b1dbab" stroke="black" points="247,-188 109,-188 109,-150 247,-150 247,-188"/>
<text text-anchor="middle" x="178" y="-172.8" font-family="Times,serif" font-size="14.00">roo_time_ds3231</text>
<text text-anchor="middle" x="178" y="-157.8" font-family="Times,serif" font-size="14.00">1.1.4</text>
</g>
<!-- roo_time_ds3231&#45;&gt;roo_time -->
<g id="edge38" class="edge">
<title>roo_time_ds3231&#45;&gt;roo_time</title>
<path fill="none" stroke="black" d="M201.98,-149.96C214.34,-140.65 229.58,-129.18 242.93,-119.13"/>
<polygon fill="black" stroke="black" points="245.08,-121.9 250.96,-113.09 240.87,-116.31 245.08,-121.9"/>
</g>
<!-- roo_transceivers&#45;&gt;roo_prefs -->
<g id="edge39" class="edge">
<title>roo_transceivers&#45;&gt;roo_prefs</title>
<path fill="none" stroke="black" d="M1096,-437.88C1096,-424.35 1096,-405.62 1096,-390.15"/>
<polygon fill="black" stroke="black" points="1099.5,-390.07 1096,-380.07 1092.5,-390.07 1099.5,-390.07"/>
</g>
<!-- roo_transport -->
<g id="node22" class="node">
<title>roo_transport</title>
<polygon fill="plum" stroke="black" points="492,-476 378,-476 378,-438 492,-438 492,-476"/>
<text text-anchor="middle" x="435" y="-460.8" font-family="Times,serif" font-size="14.00">roo_transport</text>
<text text-anchor="middle" x="435" y="-445.8" font-family="Times,serif" font-size="14.00">1.0.2</text>
</g>
<!-- roo_transport&#45;&gt;roo_collections -->
<g id="edge41" class="edge">
<title>roo_transport&#45;&gt;roo_collections</title>
<path fill="none" stroke="red" d="M492.19,-447.2C516.71,-443.77 545.7,-440.14 572,-438 634.71,-432.9 1081.74,-448.17 1138,-420 1246.86,-365.49 1217.96,-286.83 1309,-206 1313.83,-201.71 1319.23,-197.62 1324.73,-193.84"/>
<polygon fill="red" stroke="red" points="1326.97,-196.56 1333.41,-188.15 1323.13,-190.7 1326.97,-196.56"/>
<text text-anchor="middle" x="1272" y="-316" font-family="Times,serif" font-size="10.00" fill="red">1.3.2</text>
<text text-anchor="middle" x="1272" y="-305" font-family="Times,serif" font-size="10.00" fill="red">(latest: 1.4.0)</text>
</g>
<!-- roo_transport&#45;&gt;roo_io -->
<g id="edge42" class="edge">
<title>roo_transport&#45;&gt;roo_io</title>
<path fill="none" stroke="red" d="M452.63,-437.96C468.79,-421.48 490.57,-399.46 493,-398 516.5,-383.89 526.1,-389 552,-380 554.26,-379.22 556.56,-378.39 558.89,-377.54"/>
<polygon fill="red" stroke="red" points="560.3,-380.75 568.43,-373.96 557.84,-374.19 560.3,-380.75"/>
<text text-anchor="middle" x="526" y="-412" font-family="Times,serif" font-size="10.00" fill="red">2.0.3</text>
<text text-anchor="middle" x="526" y="-401" font-family="Times,serif" font-size="10.00" fill="red">(latest: 2.1.1)</text>
</g>
<!-- roo_transport&#45;&gt;roo_logging -->
<g id="edge43" class="edge">
<title>roo_transport&#45;&gt;roo_logging</title>
<path fill="none" stroke="red" d="M440.07,-437.92C447.79,-413.31 464.67,-369.25 493,-342 522.28,-313.84 563.85,-294.78 597.95,-282.79"/>
<polygon fill="red" stroke="red" points="599.46,-285.97 607.81,-279.45 597.21,-279.35 599.46,-285.97"/>
<text text-anchor="middle" x="526" y="-364" font-family="Times,serif" font-size="10.00" fill="red">1.4.3</text>
<text text-anchor="middle" x="526" y="-353" font-family="Times,serif" font-size="10.00" fill="red">(latest: 1.5.1)</text>
</g>
<!-- roo_transport&#45;&gt;roo_testing -->
<g id="edge40" class="edge">
<title>roo_transport&#45;&gt;roo_testing</title>
<path fill="none" stroke="red" d="M434.69,-437.98C434.4,-419.06 434,-388.44 434,-362 434,-362 434,-362 434,-93 434,-37.89 1288.54,-23.53 1522.43,-20.63"/>
<polygon fill="red" stroke="red" points="1522.49,-24.13 1532.45,-20.51 1522.41,-17.13 1522.49,-24.13"/>
<text text-anchor="middle" x="467" y="-220" font-family="Times,serif" font-size="10.00" fill="red">1.1.8</text>
<text text-anchor="middle" x="467" y="-209" font-family="Times,serif" font-size="10.00" fill="red">(latest: 1.2.0)</text>
</g>
<!-- roo_transport&#45;&gt;roo_threads -->
<g id="edge44" class="edge">
<title>roo_transport&#45;&gt;roo_threads</title>
<path fill="none" stroke="red" d="M426.85,-437.68C416.02,-414.33 395.52,-373.26 372,-342 365.2,-332.96 358.33,-334.45 354,-324 336.99,-282.94 342.07,-230.28 347.72,-198.39"/>
<polygon fill="red" stroke="red" points="351.19,-198.9 349.63,-188.42 344.31,-197.59 351.19,-198.9"/>
<text text-anchor="middle" x="387" y="-316" font-family="Times,serif" font-size="10.00" fill="red">1.1.6</text>
<text text-anchor="middle" x="387" y="-305" font-family="Times,serif" font-size="10.00" fill="red">(latest: 1.2.0)</text>
</g>
<!-- roo_wifi -->
<g id="node23" class="node">
<title>roo_wifi</title>
<polygon fill="plum" stroke="black" points="1688,-476 1616,-476 1616,-438 1688,-438 1688,-476"/>
<text text-anchor="middle" x="1652" y="-460.8" font-family="Times,serif" font-size="14.00">roo_wifi</text>
<text text-anchor="middle" x="1652" y="-445.8" font-family="Times,serif" font-size="14.00">1.1.2</text>
</g>
<!-- roo_wifi&#45;&gt;roo_collections -->
<g id="edge46" class="edge">
<title>roo_wifi&#45;&gt;roo_collections</title>
<path fill="none" stroke="red" d="M1637.45,-437.98C1592.3,-382.14 1456.89,-215.15 1445,-206 1438.68,-201.14 1431.61,-196.74 1424.36,-192.82"/>
<polygon fill="red" stroke="red" points="1425.63,-189.54 1415.13,-188.11 1422.45,-195.78 1425.63,-189.54"/>
<text text-anchor="middle" x="1577" y="-316" font-family="Times,serif" font-size="10.00" fill="red">1.3.2</text>
<text text-anchor="middle" x="1577" y="-305" font-family="Times,serif" font-size="10.00" fill="red">(latest: 1.4.0)</text>
</g>
<!-- roo_wifi&#45;&gt;roo_prefs -->
<g id="edge47" class="edge">
<title>roo_wifi&#45;&gt;roo_prefs</title>
<path fill="none" stroke="red" d="M1615.96,-440.47C1612.96,-439.52 1609.95,-438.68 1607,-438 1495.39,-412.43 1462.5,-441.31 1350,-420 1317.96,-413.93 1311.61,-406.03 1280,-398 1235.74,-386.75 1184.72,-377.02 1147.65,-370.52"/>
<polygon fill="red" stroke="red" points="1148.03,-367.03 1137.58,-368.77 1146.84,-373.93 1148.03,-367.03"/>
<text text-anchor="middle" x="1383" y="-412" font-family="Times,serif" font-size="10.00" fill="red">1.2.3</text>
<text text-anchor="middle" x="1383" y="-401" font-family="Times,serif" font-size="10.00" fill="red">(latest: 1.2.7)</text>
</g>
<!-- roo_wifi&#45;&gt;roo_testing -->
<g id="edge45" class="edge">
<title>roo_wifi&#45;&gt;roo_testing</title>
<path fill="none" stroke="red" d="M1657.6,-437.83C1662.88,-419.03 1670,-388.75 1670,-362 1670,-362 1670,-362 1670,-93 1670,-71.45 1654.2,-55.1 1635.92,-43.39"/>
<polygon fill="red" stroke="red" points="1637.2,-40.08 1626.8,-38.02 1633.64,-46.11 1637.2,-40.08"/>
<text text-anchor="middle" x="1703" y="-220" font-family="Times,serif" font-size="10.00" fill="red">1.1.8</text>
<text text-anchor="middle" x="1703" y="-209" font-family="Times,serif" font-size="10.00" fill="red">(latest: 1.2.0)</text>
</g>
<!-- roo_windows&#45;&gt;roo_collections -->
<g id="edge49" class="edge">
<title>roo_windows&#45;&gt;roo_collections</title>
<path fill="none" stroke="red" d="M702.72,-646.13C871.61,-638.99 1378.11,-606.8 1457,-476 1465.72,-461.54 1464.23,-453.26 1457,-438 1451.59,-426.58 1441.87,-430.6 1435,-420 1388.93,-348.95 1373.84,-247.2 1369.09,-198.32"/>
<polygon fill="red" stroke="red" points="1372.56,-197.83 1368.17,-188.18 1365.58,-198.45 1372.56,-197.83"/>
<text text-anchor="middle" x="1468" y="-412" font-family="Times,serif" font-size="10.00" fill="red">1.3.2</text>
<text text-anchor="middle" x="1468" y="-401" font-family="Times,serif" font-size="10.00" fill="red">(latest: 1.4.0)</text>
</g>
<!-- roo_windows&#45;&gt;roo_icons -->
<g id="edge52" class="edge">
<title>roo_windows&#45;&gt;roo_icons</title>
<path fill="none" stroke="black" d="M702.76,-647.82C877.43,-646.95 1414.09,-641.86 1486,-612 1502.56,-605.13 1517.49,-591.86 1528.66,-579.75"/>
<polygon fill="black" stroke="black" points="1531.47,-581.86 1535.44,-572.03 1526.21,-577.24 1531.47,-581.86"/>
</g>
<!-- roo_windows&#45;&gt;roo_io -->
<g id="edge53" class="edge">
<title>roo_windows&#45;&gt;roo_io</title>
<path fill="none" stroke="red" d="M621.82,-629.94C591.62,-607.35 543.62,-565.55 524,-516 520.4,-506.91 521.53,-503.46 524,-494 529.65,-472.37 560.5,-421.15 580.54,-389.25"/>
<polygon fill="red" stroke="red" points="583.74,-390.74 586.12,-380.42 577.82,-387 583.74,-390.74"/>
<text text-anchor="middle" x="557" y="-508" font-family="Times,serif" font-size="10.00" fill="red">2.0.2</text>
<text text-anchor="middle" x="557" y="-497" font-family="Times,serif" font-size="10.00" fill="red">(latest: 2.1.1)</text>
</g>
<!-- roo_windows&#45;&gt;roo_locale -->
<g id="edge50" class="edge">
<title>roo_windows&#45;&gt;roo_locale</title>
<path fill="none" stroke="black" d="M593.16,-647.96C493.95,-647.14 288.99,-641.75 225,-612 209.68,-604.88 196.11,-591.9 185.95,-580.03"/>
<polygon fill="black" stroke="black" points="188.5,-577.62 179.48,-572.07 183.07,-582.04 188.5,-577.62"/>
</g>
<!-- roo_windows&#45;&gt;roo_logging -->
<g id="edge51" class="edge">
<title>roo_windows&#45;&gt;roo_logging</title>
<path fill="none" stroke="red" d="M599.45,-629.98C537.23,-606.31 426.6,-562.31 336,-516 305.46,-500.39 286.83,-505.89 270,-476 261.71,-461.28 269.12,-454.87 270,-438 272.23,-395.16 249.98,-372.64 280,-342 302.57,-318.96 392.29,-329.89 424,-324 425.1,-323.8 528.95,-298.03 597.92,-280.91"/>
<polygon fill="red" stroke="red" points="598.96,-284.26 607.82,-278.46 597.28,-277.47 598.96,-284.26"/>
<text text-anchor="middle" x="303" y="-460" font-family="Times,serif" font-size="10.00" fill="red">1.4.2</text>
<text text-anchor="middle" x="303" y="-449" font-family="Times,serif" font-size="10.00" fill="red">(latest: 1.5.1)</text>
</g>
<!-- roo_windows&#45;&gt;roo_scheduler -->
<g id="edge54" class="edge">
<title>roo_windows&#45;&gt;roo_scheduler</title>
<path fill="none" stroke="red" d="M702.52,-644.05C848.64,-632.48 1244.83,-594.47 1346,-516 1383.23,-487.12 1380.75,-465.99 1391,-420 1398.86,-384.72 1396.69,-363.98 1368,-342 1342.75,-322.66 1257.16,-330.39 1226,-324 1179,-314.36 1126.98,-299.42 1087.37,-287.11"/>
<polygon fill="red" stroke="red" points="1088.17,-283.69 1077.58,-284.04 1086.08,-290.37 1088.17,-283.69"/>
<text text-anchor="middle" x="1420" y="-460" font-family="Times,serif" font-size="10.00" fill="red">2.1.4</text>
<text text-anchor="middle" x="1420" y="-449" font-family="Times,serif" font-size="10.00" fill="red">(latest: 2.1.6)</text>
</g>
<!-- roo_windows&#45;&gt;roo_testing -->
<g id="edge48" class="edge">
<title>roo_windows&#45;&gt;roo_testing</title>
<path fill="none" stroke="red" d="M593.38,-647.91C471.98,-647.16 183.22,-642.15 91,-612 45.41,-597.1 0,-601.96 0,-554 0,-554 0,-554 0,-93 0,-15.26 1235.74,-17.92 1522.21,-19.58"/>
<polygon fill="red" stroke="red" points="1522.37,-23.08 1532.39,-19.64 1522.41,-16.08 1522.37,-23.08"/>
<text text-anchor="middle" x="33" y="-316" font-family="Times,serif" font-size="10.00" fill="red">1.1.7</text>
<text text-anchor="middle" x="33" y="-305" font-family="Times,serif" font-size="10.00" fill="red">(latest: 1.2.0)</text>
</g>
<!-- roo_windows&#45;&gt;roo_time -->
<g id="edge55" class="edge">
<title>roo_windows&#45;&gt;roo_time</title>
<path fill="none" stroke="red" d="M593.49,-646.32C489.57,-642.69 266.92,-632.7 193,-612 137.88,-596.56 78,-611.24 78,-554 78,-554 78,-554 78,-408 78,-350.46 64.01,-194.9 100,-150 129.87,-112.74 184.78,-100.26 225.16,-96.31"/>
<polygon fill="red" stroke="red" points="225.67,-99.78 235.35,-95.47 225.09,-92.81 225.67,-99.78"/>
<text text-anchor="middle" x="111" y="-364" font-family="Times,serif" font-size="10.00" fill="red">1.3.2</text>
<text text-anchor="middle" x="111" y="-353" font-family="Times,serif" font-size="10.00" fill="red">(latest: 1.4.0)</text>
</g>
<!-- roo_windows_wifi -->
<g id="node25" class="node">
<title>roo_windows_wifi</title>
<polygon fill="plum" stroke="black" points="1761.5,-743 1620.5,-743 1620.5,-705 1761.5,-705 1761.5,-743"/>
<text text-anchor="middle" x="1691" y="-727.8" font-family="Times,serif" font-size="14.00">roo_windows_wifi</text>
<text text-anchor="middle" x="1691" y="-712.8" font-family="Times,serif" font-size="14.00">1.1.2</text>
</g>
<!-- roo_windows_wifi&#45;&gt;roo_testing -->
<g id="edge56" class="edge">
<title>roo_windows_wifi&#45;&gt;roo_testing</title>
<path fill="none" stroke="red" d="M1761.86,-720.2C1809.64,-714.05 1864,-696.78 1864,-650 1864,-650 1864,-650 1864,-93 1864,-47.09 1722.6,-29.61 1639.7,-23.31"/>
<polygon fill="red" stroke="red" points="1639.88,-19.81 1629.65,-22.57 1639.37,-26.79 1639.88,-19.81"/>
<text text-anchor="middle" x="1897" y="-364" font-family="Times,serif" font-size="10.00" fill="red">1.1.7</text>
<text text-anchor="middle" x="1897" y="-353" font-family="Times,serif" font-size="10.00" fill="red">(latest: 1.2.0)</text>
</g>
<!-- roo_windows_wifi&#45;&gt;roo_wifi -->
<g id="edge57" class="edge">
<title>roo_windows_wifi&#45;&gt;roo_wifi</title>
<path fill="none" stroke="red" d="M1688.32,-704.79C1681.64,-659.4 1664.22,-541.01 1656.18,-486.38"/>
<polygon fill="red" stroke="red" points="1659.62,-485.73 1654.7,-476.34 1652.69,-486.75 1659.62,-485.73"/>
<text text-anchor="middle" x="1707" y="-604" font-family="Times,serif" font-size="10.00" fill="red">1.1.1</text>
<text text-anchor="middle" x="1707" y="-593" font-family="Times,serif" font-size="10.00" fill="red">(latest: 1.1.2)</text>
</g>
<!-- roo_windows_wifi&#45;&gt;roo_windows -->
<g id="edge58" class="edge">
<title>roo_windows_wifi&#45;&gt;roo_windows</title>
<path fill="none" stroke="black" d="M1620.13,-718.04C1427.76,-704.58 897.86,-667.49 712.8,-654.54"/>
<polygon fill="black" stroke="black" points="712.9,-651.03 702.68,-653.83 712.41,-658.02 712.9,-651.03"/>
</g>
</g>
</svg>
