<?xml version="1.0" encoding="UTF-8" standalone="no"?>
<!DOCTYPE svg PUBLIC "-//W3C//DTD SVG 1.1//EN"
 "http://www.w3.org/Graphics/SVG/1.1/DTD/svg11.dtd">
<!-- Generated by graphviz version 14.1.2 (0)
 -->
<!-- Title: dependencies Pages: 1 -->
<svg width="1281pt" height="781pt"
 viewBox="0.00 0.00 1281.00 781.00" xmlns="http://www.w3.org/2000/svg" xmlns:xlink="http://www.w3.org/1999/xlink">
<g id="graph0" class="graph" transform="scale(1 1) rotate(0) translate(4 776.5)">
<title>dependencies</title>
<polygon fill="white" stroke="none" points="-4,4 -4,-776.5 1276.5,-776.5 1276.5,4 -4,4"/>
<!-- roo_backport -->
<g id="node1" class="node">
<title>roo_backport</title>
<polygon fill="#b1dbab" stroke="black" points="667.88,-41 579.88,-41 579.88,0 667.88,0 667.88,-41"/>
<text xml:space="preserve" text-anchor="middle" x="623.88" y="-23.7" font-family="Times,serif" font-size="14.00">roo_backport</text>
<text xml:space="preserve" text-anchor="middle" x="623.88" y="-7.2" font-family="Times,serif" font-size="14.00">1.2.4</text>
</g>
<!-- roo_blink -->
<g id="node2" class="node">
<title>roo_blink</title>
<polygon fill="#b1dbab" stroke="red" points="673.12,-573.5 604.62,-573.5 604.62,-532.5 673.12,-532.5 673.12,-573.5"/>
<text xml:space="preserve" text-anchor="middle" x="638.88" y="-556.2" font-family="Times,serif" font-size="14.00">roo_blink</text>
<text xml:space="preserve" text-anchor="middle" x="638.88" y="-539.7" font-family="Times,serif" font-size="14.00">1.2.0</text>
</g>
<!-- roo_logging -->
<g id="node16" class="node">
<title>roo_logging</title>
<polygon fill="#b1dbab" stroke="red" points="312.88,-296.5 230.88,-296.5 230.88,-255.5 312.88,-255.5 312.88,-296.5"/>
<text xml:space="preserve" text-anchor="middle" x="271.88" y="-279.2" font-family="Times,serif" font-size="14.00">roo_logging</text>
<text xml:space="preserve" text-anchor="middle" x="271.88" y="-262.7" font-family="Times,serif" font-size="14.00">1.5.11</text>
</g>
<!-- roo_blink&#45;&gt;roo_logging -->
<g id="edge1" class="edge">
<title>roo_blink&#45;&gt;roo_logging</title>
<path fill="none" stroke="black" d="M604.42,-535.53C601.56,-534.42 598.69,-533.39 595.88,-532.5 464.33,-490.71 383.81,-576.05 290.88,-474 249.64,-428.72 256.61,-350.99 264.66,-307.95"/>
<polygon fill="black" stroke="black" points="268.06,-308.77 266.61,-298.27 261.2,-307.38 268.06,-308.77"/>
</g>
<!-- roo_scheduler -->
<g id="node23" class="node">
<title>roo_scheduler</title>
<polygon fill="#b1dbab" stroke="red" points="748.12,-474 655.62,-474 655.62,-433 748.12,-433 748.12,-474"/>
<text xml:space="preserve" text-anchor="middle" x="701.88" y="-456.7" font-family="Times,serif" font-size="14.00">roo_scheduler</text>
<text xml:space="preserve" text-anchor="middle" x="701.88" y="-440.2" font-family="Times,serif" font-size="14.00">2.3.0</text>
</g>
<!-- roo_blink&#45;&gt;roo_scheduler -->
<g id="edge2" class="edge">
<title>roo_blink&#45;&gt;roo_scheduler</title>
<path fill="none" stroke="black" d="M651.62,-532.27C660.68,-518.26 672.97,-499.23 683.14,-483.49"/>
<polygon fill="black" stroke="black" points="685.84,-485.77 688.32,-475.47 679.96,-481.97 685.84,-485.77"/>
</g>
<!-- roo_collections -->
<g id="node3" class="node">
<title>roo_collections</title>
<polygon fill="#b1dbab" stroke="red" points="751.5,-374.5 652.25,-374.5 652.25,-333.5 751.5,-333.5 751.5,-374.5"/>
<text xml:space="preserve" text-anchor="middle" x="701.88" y="-357.2" font-family="Times,serif" font-size="14.00">roo_collections</text>
<text xml:space="preserve" text-anchor="middle" x="701.88" y="-340.7" font-family="Times,serif" font-size="14.00">1.4.8</text>
</g>
<!-- roo_collections&#45;&gt;roo_backport -->
<g id="edge4" class="edge">
<title>roo_collections&#45;&gt;roo_backport</title>
<path fill="none" stroke="black" d="M681.12,-333.09C668.53,-318.82 654.88,-298.41 654.88,-277 654.88,-277 654.88,-277 654.88,-119 654.88,-95.69 646.73,-70.65 638.79,-51.79"/>
<polygon fill="black" stroke="black" points="642.07,-50.56 634.81,-42.84 635.67,-53.4 642.07,-50.56"/>
</g>
<!-- roo_testing -->
<g id="node24" class="node">
<title>roo_testing</title>
<polygon fill="#b1dbab" stroke="black" points="769.25,-41 692.5,-41 692.5,0 769.25,0 769.25,-41"/>
<text xml:space="preserve" text-anchor="middle" x="730.88" y="-23.7" font-family="Times,serif" font-size="14.00">roo_testing</text>
<text xml:space="preserve" text-anchor="middle" x="730.88" y="-7.2" font-family="Times,serif" font-size="14.00">2.3.1</text>
</g>
<!-- roo_collections&#45;&gt;roo_testing -->
<g id="edge3" class="edge">
<title>roo_collections&#45;&gt;roo_testing</title>
<path fill="none" stroke="red" d="M726.35,-333.07C740.63,-319.09 755.88,-299.01 755.88,-277 755.88,-277 755.88,-277 755.88,-119 755.88,-96.03 749.28,-70.94 742.87,-51.96"/>
<polygon fill="red" stroke="red" points="746.22,-50.96 739.57,-42.71 739.63,-53.31 746.22,-50.96"/>
<text xml:space="preserve" text-anchor="middle" x="782.5" y="-199.75" font-family="Times,serif" font-size="10.00" fill="red">2.3.0</text>
<text xml:space="preserve" text-anchor="middle" x="782.5" y="-188.5" font-family="Times,serif" font-size="10.00" fill="red">(latest: 2.3.1)</text>
</g>
<!-- roo_comms -->
<g id="node4" class="node">
<title>roo_comms</title>
<polygon fill="#b1dbab" stroke="red" points="486.5,-673 405.25,-673 405.25,-632 486.5,-632 486.5,-673"/>
<text xml:space="preserve" text-anchor="middle" x="445.88" y="-655.7" font-family="Times,serif" font-size="14.00">roo_comms</text>
<text xml:space="preserve" text-anchor="middle" x="445.88" y="-639.2" font-family="Times,serif" font-size="14.00">1.2.1</text>
</g>
<!-- roo_comms&#45;&gt;roo_blink -->
<g id="edge5" class="edge">
<title>roo_comms&#45;&gt;roo_blink</title>
<path fill="none" stroke="black" d="M485.4,-631.53C516.94,-615.6 561.14,-593.27 594.01,-576.66"/>
<polygon fill="black" stroke="black" points="595.56,-579.8 602.91,-572.17 592.4,-573.56 595.56,-579.8"/>
</g>
<!-- roo_control -->
<g id="node5" class="node">
<title>roo_control</title>
<polygon fill="#b1dbab" stroke="black" points="484.38,-573.5 405.38,-573.5 405.38,-532.5 484.38,-532.5 484.38,-573.5"/>
<text xml:space="preserve" text-anchor="middle" x="444.88" y="-556.2" font-family="Times,serif" font-size="14.00">roo_control</text>
<text xml:space="preserve" text-anchor="middle" x="444.88" y="-539.7" font-family="Times,serif" font-size="14.00">1.2.10</text>
</g>
<!-- roo_comms&#45;&gt;roo_control -->
<g id="edge6" class="edge">
<title>roo_comms&#45;&gt;roo_control</title>
<path fill="none" stroke="red" d="M445.67,-631.77C445.53,-618.29 445.35,-600.16 445.19,-584.79"/>
<polygon fill="red" stroke="red" points="448.7,-585.18 445.09,-575.21 441.7,-585.25 448.7,-585.18"/>
<text xml:space="preserve" text-anchor="middle" x="474.71" y="-604.5" font-family="Times,serif" font-size="10.00" fill="red">1.2.9</text>
<text xml:space="preserve" text-anchor="middle" x="474.71" y="-593.25" font-family="Times,serif" font-size="10.00" fill="red">(latest: 1.2.10)</text>
</g>
<!-- roo_transceivers -->
<g id="node28" class="node">
<title>roo_transceivers</title>
<polygon fill="#b1dbab" stroke="red" points="386.5,-573.5 281.25,-573.5 281.25,-532.5 386.5,-532.5 386.5,-573.5"/>
<text xml:space="preserve" text-anchor="middle" x="333.88" y="-556.2" font-family="Times,serif" font-size="14.00">roo_transceivers</text>
<text xml:space="preserve" text-anchor="middle" x="333.88" y="-539.7" font-family="Times,serif" font-size="14.00">1.3.0</text>
</g>
<!-- roo_comms&#45;&gt;roo_transceivers -->
<g id="edge7" class="edge">
<title>roo_comms&#45;&gt;roo_transceivers</title>
<path fill="none" stroke="black" d="M422.94,-631.53C406.33,-617.07 383.67,-597.35 365.37,-581.42"/>
<polygon fill="black" stroke="black" points="367.76,-578.86 357.92,-574.93 363.17,-584.14 367.76,-578.86"/>
</g>
<!-- roo_quantity -->
<g id="node22" class="node">
<title>roo_quantity</title>
<polygon fill="#b1dbab" stroke="red" points="243.38,-474 158.38,-474 158.38,-433 243.38,-433 243.38,-474"/>
<text xml:space="preserve" text-anchor="middle" x="200.88" y="-456.7" font-family="Times,serif" font-size="14.00">roo_quantity</text>
<text xml:space="preserve" text-anchor="middle" x="200.88" y="-440.2" font-family="Times,serif" font-size="14.00">1.1.11</text>
</g>
<!-- roo_control&#45;&gt;roo_quantity -->
<g id="edge8" class="edge">
<title>roo_control&#45;&gt;roo_quantity</title>
<path fill="none" stroke="black" d="M405.05,-535.16C401.97,-534.16 398.89,-533.26 395.88,-532.5 328.63,-515.53 300.03,-550.7 240.88,-514.5 229.35,-507.45 220.43,-495.67 213.97,-484.41"/>
<polygon fill="black" stroke="black" points="217.16,-482.95 209.42,-475.71 210.95,-486.19 217.16,-482.95"/>
</g>
<!-- roo_control&#45;&gt;roo_scheduler -->
<g id="edge9" class="edge">
<title>roo_control&#45;&gt;roo_scheduler</title>
<path fill="none" stroke="black" d="M484.69,-536.08C487.8,-534.86 490.89,-533.66 493.88,-532.5 544.84,-512.81 603.09,-491.02 644.97,-475.49"/>
<polygon fill="black" stroke="black" points="645.93,-478.87 654.09,-472.11 643.5,-472.3 645.93,-478.87"/>
</g>
<!-- roo_dashboard -->
<g id="node6" class="node">
<title>roo_dashboard</title>
<polygon fill="plum" stroke="red" points="954,-772.5 857.75,-772.5 857.75,-731.5 954,-731.5 954,-772.5"/>
<text xml:space="preserve" text-anchor="middle" x="905.88" y="-755.2" font-family="Times,serif" font-size="14.00">roo_dashboard</text>
<text xml:space="preserve" text-anchor="middle" x="905.88" y="-738.7" font-family="Times,serif" font-size="14.00">1.0.2</text>
</g>
<!-- roo_windows -->
<g id="node31" class="node">
<title>roo_windows</title>
<polygon fill="plum" stroke="red" points="950.62,-673 861.12,-673 861.12,-632 950.62,-632 950.62,-673"/>
<text xml:space="preserve" text-anchor="middle" x="905.88" y="-655.7" font-family="Times,serif" font-size="14.00">roo_windows</text>
<text xml:space="preserve" text-anchor="middle" x="905.88" y="-639.2" font-family="Times,serif" font-size="14.00">1.8.1</text>
</g>
<!-- roo_dashboard&#45;&gt;roo_windows -->
<g id="edge10" class="edge">
<title>roo_dashboard&#45;&gt;roo_windows</title>
<path fill="none" stroke="red" d="M905.88,-731.27C905.88,-717.79 905.88,-699.66 905.88,-684.29"/>
<polygon fill="red" stroke="red" points="909.38,-684.71 905.88,-674.71 902.38,-684.71 909.38,-684.71"/>
<text xml:space="preserve" text-anchor="middle" x="932.5" y="-704" font-family="Times,serif" font-size="10.00" fill="red">1.7.0</text>
<text xml:space="preserve" text-anchor="middle" x="932.5" y="-692.75" font-family="Times,serif" font-size="10.00" fill="red">(latest: 1.8.1)</text>
</g>
<!-- roo_display -->
<g id="node7" class="node">
<title>roo_display</title>
<polygon fill="#b1dbab" stroke="black" points="914.75,-474 835,-474 835,-433 914.75,-433 914.75,-474"/>
<text xml:space="preserve" text-anchor="middle" x="874.88" y="-456.7" font-family="Times,serif" font-size="14.00">roo_display</text>
<text xml:space="preserve" text-anchor="middle" x="874.88" y="-440.2" font-family="Times,serif" font-size="14.00">3.4.0</text>
</g>
<!-- roo_display&#45;&gt;roo_collections -->
<g id="edge11" class="edge">
<title>roo_display&#45;&gt;roo_collections</title>
<path fill="none" stroke="black" d="M868.99,-432.75C864.06,-419.51 855.73,-402.7 842.88,-392.5 820.3,-374.6 789.95,-365.2 763.19,-360.29"/>
<polygon fill="black" stroke="black" points="763.9,-356.86 753.46,-358.69 762.76,-363.76 763.9,-356.86"/>
</g>
<!-- roo_io -->
<g id="node13" class="node">
<title>roo_io</title>
<polygon fill="#b1dbab" stroke="black" points="441.88,-374.5 387.88,-374.5 387.88,-333.5 441.88,-333.5 441.88,-374.5"/>
<text xml:space="preserve" text-anchor="middle" x="414.88" y="-357.2" font-family="Times,serif" font-size="14.00">roo_io</text>
<text xml:space="preserve" text-anchor="middle" x="414.88" y="-340.7" font-family="Times,serif" font-size="14.00">2.4.1</text>
</g>
<!-- roo_display&#45;&gt;roo_io -->
<g id="edge12" class="edge">
<title>roo_display&#45;&gt;roo_io</title>
<path fill="none" stroke="black" d="M834.7,-443.76C780.5,-431.99 680.95,-410.46 595.88,-392.5 546.72,-382.12 489.99,-370.41 453.34,-362.88"/>
<polygon fill="black" stroke="black" points="454.16,-359.48 443.66,-360.89 452.75,-366.33 454.16,-359.48"/>
</g>
<!-- roo_display_lvgl -->
<g id="node8" class="node">
<title>roo_display_lvgl</title>
<polygon fill="khaki" stroke="red" points="836.62,-573.5 729.12,-573.5 729.12,-532.5 836.62,-532.5 836.62,-573.5"/>
<text xml:space="preserve" text-anchor="middle" x="782.88" y="-556.2" font-family="Times,serif" font-size="14.00">roo_display_lvgl</text>
<text xml:space="preserve" text-anchor="middle" x="782.88" y="-539.7" font-family="Times,serif" font-size="14.00">1.0.0</text>
</g>
<!-- roo_display_lvgl&#45;&gt;roo_display -->
<g id="edge13" class="edge">
<title>roo_display_lvgl&#45;&gt;roo_display</title>
<path fill="none" stroke="red" d="M797.23,-532.01C806.27,-519.94 818.48,-504.52 830.62,-492 833.94,-488.58 837.53,-485.15 841.2,-481.83"/>
<polygon fill="red" stroke="red" points="843.42,-484.54 848.63,-475.31 838.8,-479.27 843.42,-484.54"/>
<text xml:space="preserve" text-anchor="middle" x="857.25" y="-505" font-family="Times,serif" font-size="10.00" fill="red">3.0.3</text>
<text xml:space="preserve" text-anchor="middle" x="857.25" y="-493.75" font-family="Times,serif" font-size="10.00" fill="red">(latest: 3.4.0)</text>
</g>
<!-- roo_flags -->
<g id="node9" class="node">
<title>roo_flags</title>
<polygon fill="#b1dbab" stroke="black" points="305.38,-218.5 238.38,-218.5 238.38,-177.5 305.38,-177.5 305.38,-218.5"/>
<text xml:space="preserve" text-anchor="middle" x="271.88" y="-201.2" font-family="Times,serif" font-size="14.00">roo_flags</text>
<text xml:space="preserve" text-anchor="middle" x="271.88" y="-184.7" font-family="Times,serif" font-size="14.00">1.2.5</text>
</g>
<!-- roo_fonts_basic -->
<g id="node10" class="node">
<title>roo_fonts_basic</title>
<polygon fill="#b1dbab" stroke="red" points="957,-573.5 854.75,-573.5 854.75,-532.5 957,-532.5 957,-573.5"/>
<text xml:space="preserve" text-anchor="middle" x="905.88" y="-556.2" font-family="Times,serif" font-size="14.00">roo_fonts_basic</text>
<text xml:space="preserve" text-anchor="middle" x="905.88" y="-539.7" font-family="Times,serif" font-size="14.00">1.0.6</text>
</g>
<!-- roo_fonts_basic&#45;&gt;roo_display -->
<g id="edge14" class="edge">
<title>roo_fonts_basic&#45;&gt;roo_display</title>
<path fill="none" stroke="red" d="M899.6,-532.27C895.27,-518.66 889.44,-500.3 884.52,-484.84"/>
<polygon fill="red" stroke="red" points="887.96,-484.11 881.6,-475.64 881.29,-486.23 887.96,-484.11"/>
<text xml:space="preserve" text-anchor="middle" x="919.78" y="-505" font-family="Times,serif" font-size="10.00" fill="red">3.3.2</text>
<text xml:space="preserve" text-anchor="middle" x="919.78" y="-493.75" font-family="Times,serif" font-size="10.00" fill="red">(latest: 3.4.0)</text>
</g>
<!-- roo_fonts_material -->
<g id="node11" class="node">
<title>roo_fonts_material</title>
<polygon fill="#b1dbab" stroke="red" points="1185.62,-573.5 1066.12,-573.5 1066.12,-532.5 1185.62,-532.5 1185.62,-573.5"/>
<text xml:space="preserve" text-anchor="middle" x="1125.88" y="-556.2" font-family="Times,serif" font-size="14.00">roo_fonts_material</text>
<text xml:space="preserve" text-anchor="middle" x="1125.88" y="-539.7" font-family="Times,serif" font-size="14.00">1.1.2</text>
</g>
<!-- roo_fonts_material&#45;&gt;roo_display -->
<g id="edge15" class="edge">
<title>roo_fonts_material&#45;&gt;roo_display</title>
<path fill="none" stroke="red" d="M1074.48,-532.03C1030.98,-515.14 968.97,-491.05 925.65,-474.22"/>
<polygon fill="red" stroke="red" points="927.06,-471.02 916.47,-470.66 924.52,-477.54 927.06,-471.02"/>
<text xml:space="preserve" text-anchor="middle" x="1049.48" y="-505" font-family="Times,serif" font-size="10.00" fill="red">3.3.0</text>
<text xml:space="preserve" text-anchor="middle" x="1049.48" y="-493.75" font-family="Times,serif" font-size="10.00" fill="red">(latest: 3.4.0)</text>
</g>
<!-- roo_icons -->
<g id="node12" class="node">
<title>roo_icons</title>
<polygon fill="#b1dbab" stroke="red" points="1272.5,-573.5 1203.25,-573.5 1203.25,-532.5 1272.5,-532.5 1272.5,-573.5"/>
<text xml:space="preserve" text-anchor="middle" x="1237.88" y="-556.2" font-family="Times,serif" font-size="14.00">roo_icons</text>
<text xml:space="preserve" text-anchor="middle" x="1237.88" y="-539.7" font-family="Times,serif" font-size="14.00">1.2.5</text>
</g>
<!-- roo_icons&#45;&gt;roo_display -->
<g id="edge16" class="edge">
<title>roo_icons&#45;&gt;roo_display</title>
<path fill="none" stroke="red" d="M1202.78,-535.79C1200.12,-534.65 1197.46,-533.54 1194.88,-532.5 1144.6,-512.29 1132.25,-505.92 1079.88,-492 1028.26,-478.28 968,-467.91 926.24,-461.6"/>
<polygon fill="red" stroke="red" points="926.87,-458.15 916.47,-460.14 925.84,-465.08 926.87,-458.15"/>
<text xml:space="preserve" text-anchor="middle" x="1176.34" y="-505" font-family="Times,serif" font-size="10.00" fill="red">3.3.0</text>
<text xml:space="preserve" text-anchor="middle" x="1176.34" y="-493.75" font-family="Times,serif" font-size="10.00" fill="red">(latest: 3.4.0)</text>
</g>
<!-- roo_io&#45;&gt;roo_logging -->
<g id="edge17" class="edge">
<title>roo_io&#45;&gt;roo_logging</title>
<path fill="none" stroke="black" d="M387.64,-338.53C368.39,-328.29 342.07,-314.31 319.39,-302.25"/>
<polygon fill="black" stroke="black" points="321.08,-299.19 310.61,-297.58 317.79,-305.37 321.08,-299.19"/>
</g>
<!-- roo_io_sdfat -->
<g id="node14" class="node">
<title>roo_io_sdfat</title>
<polygon fill="plum" stroke="black" points="1056,-772.5 971.75,-772.5 971.75,-731.5 1056,-731.5 1056,-772.5"/>
<text xml:space="preserve" text-anchor="middle" x="1013.88" y="-755.2" font-family="Times,serif" font-size="14.00">roo_io_sdfat</text>
<text xml:space="preserve" text-anchor="middle" x="1013.88" y="-738.7" font-family="Times,serif" font-size="14.00">1.0.0</text>
</g>
<!-- roo_locale -->
<g id="node15" class="node">
<title>roo_locale</title>
<polygon fill="#b1dbab" stroke="black" points="1048.38,-573.5 975.38,-573.5 975.38,-532.5 1048.38,-532.5 1048.38,-573.5"/>
<text xml:space="preserve" text-anchor="middle" x="1011.88" y="-556.2" font-family="Times,serif" font-size="14.00">roo_locale</text>
<text xml:space="preserve" text-anchor="middle" x="1011.88" y="-539.7" font-family="Times,serif" font-size="14.00">1.1.4</text>
</g>
<!-- roo_logging&#45;&gt;roo_flags -->
<g id="edge18" class="edge">
<title>roo_logging&#45;&gt;roo_flags</title>
<path fill="none" stroke="black" d="M271.88,-255.03C271.88,-247.44 271.88,-238.6 271.88,-230.21"/>
<polygon fill="black" stroke="black" points="275.38,-230.35 271.88,-220.35 268.38,-230.35 275.38,-230.35"/>
</g>
<!-- roo_threads -->
<g id="node25" class="node">
<title>roo_threads</title>
<polygon fill="#b1dbab" stroke="red" points="601.75,-218.5 522,-218.5 522,-177.5 601.75,-177.5 601.75,-218.5"/>
<text xml:space="preserve" text-anchor="middle" x="561.88" y="-201.2" font-family="Times,serif" font-size="14.00">roo_threads</text>
<text xml:space="preserve" text-anchor="middle" x="561.88" y="-184.7" font-family="Times,serif" font-size="14.00">1.2.9</text>
</g>
<!-- roo_logging&#45;&gt;roo_threads -->
<g id="edge19" class="edge">
<title>roo_logging&#45;&gt;roo_threads</title>
<path fill="none" stroke="black" d="M313.12,-264.19C365.16,-250.55 454.65,-227.1 510.92,-212.35"/>
<polygon fill="black" stroke="black" points="511.46,-215.83 520.24,-209.91 509.68,-209.06 511.46,-215.83"/>
</g>
<!-- roo_monitoring -->
<g id="node17" class="node">
<title>roo_monitoring</title>
<polygon fill="#b1dbab" stroke="red" points="637.62,-474 536.12,-474 536.12,-433 637.62,-433 637.62,-474"/>
<text xml:space="preserve" text-anchor="middle" x="586.88" y="-456.7" font-family="Times,serif" font-size="14.00">roo_monitoring</text>
<text xml:space="preserve" text-anchor="middle" x="586.88" y="-440.2" font-family="Times,serif" font-size="14.00">1.1.5</text>
</g>
<!-- roo_monitoring&#45;&gt;roo_collections -->
<g id="edge20" class="edge">
<title>roo_monitoring&#45;&gt;roo_collections</title>
<path fill="none" stroke="black" d="M633.11,-432.54C642.16,-427.53 651.21,-421.65 658.88,-415 668.78,-406.41 677.63,-395.1 684.7,-384.62"/>
<polygon fill="black" stroke="black" points="687.63,-386.53 690.08,-376.22 681.74,-382.75 687.63,-386.53"/>
</g>
<!-- roo_monitoring&#45;&gt;roo_io -->
<g id="edge21" class="edge">
<title>roo_monitoring&#45;&gt;roo_io</title>
<path fill="none" stroke="red" d="M563.82,-432.7C548.4,-420.1 527.27,-404.05 506.88,-392.5 489.88,-382.88 469.93,-374.43 452.96,-368.01"/>
<polygon fill="red" stroke="red" points="454.31,-364.77 443.71,-364.6 451.89,-371.34 454.31,-364.77"/>
<text xml:space="preserve" text-anchor="middle" x="565.64" y="-405.5" font-family="Times,serif" font-size="10.00" fill="red">2.4.0</text>
<text xml:space="preserve" text-anchor="middle" x="565.64" y="-394.25" font-family="Times,serif" font-size="10.00" fill="red">(latest: 2.4.1)</text>
</g>
<!-- roo_onewire -->
<g id="node18" class="node">
<title>roo_onewire</title>
<polygon fill="#b1dbab" stroke="red" points="587,-573.5 502.75,-573.5 502.75,-532.5 587,-532.5 587,-573.5"/>
<text xml:space="preserve" text-anchor="middle" x="544.88" y="-556.2" font-family="Times,serif" font-size="14.00">roo_onewire</text>
<text xml:space="preserve" text-anchor="middle" x="544.88" y="-539.7" font-family="Times,serif" font-size="14.00">2.0.14</text>
</g>
<!-- roo_onewire&#45;&gt;roo_quantity -->
<g id="edge23" class="edge">
<title>roo_onewire&#45;&gt;roo_quantity</title>
<path fill="none" stroke="black" d="M502.3,-534.71C499.47,-533.88 496.65,-533.13 493.88,-532.5 396.03,-510.36 361.22,-553.7 268.88,-514.5 264.12,-512.48 246.4,-496.79 230.23,-481.96"/>
<polygon fill="black" stroke="black" points="232.83,-479.6 223.11,-475.38 228.09,-484.74 232.83,-479.6"/>
</g>
<!-- roo_onewire&#45;&gt;roo_scheduler -->
<g id="edge22" class="edge">
<title>roo_onewire&#45;&gt;roo_scheduler</title>
<path fill="none" stroke="black" d="M577.03,-532.03C601.05,-517.11 634.1,-496.59 660.16,-480.41"/>
<polygon fill="black" stroke="black" points="661.83,-483.49 668.48,-475.24 658.14,-477.54 661.83,-483.49"/>
</g>
<!-- roo_pb -->
<g id="node19" class="node">
<title>roo_pb</title>
<polygon fill="#b1dbab" stroke="black" points="140,-474 85.75,-474 85.75,-433 140,-433 140,-474"/>
<text xml:space="preserve" text-anchor="middle" x="112.88" y="-456.7" font-family="Times,serif" font-size="14.00">roo_pb</text>
<text xml:space="preserve" text-anchor="middle" x="112.88" y="-440.2" font-family="Times,serif" font-size="14.00">0.1.1</text>
</g>
<!-- roo_pb&#45;&gt;roo_io -->
<g id="edge24" class="edge">
<title>roo_pb&#45;&gt;roo_io</title>
<path fill="none" stroke="black" d="M140.5,-436.79C143.29,-435.43 146.11,-434.14 148.88,-433 227.27,-400.7 323.74,-375.92 376.28,-363.6"/>
<polygon fill="black" stroke="black" points="376.99,-367.03 385.95,-361.36 375.42,-360.21 376.99,-367.03"/>
</g>
<!-- roo_powersafefs -->
<g id="node20" class="node">
<title>roo_powersafefs</title>
<polygon fill="#b1dbab" stroke="red" points="588.88,-296.5 482.88,-296.5 482.88,-255.5 588.88,-255.5 588.88,-296.5"/>
<text xml:space="preserve" text-anchor="middle" x="535.88" y="-279.2" font-family="Times,serif" font-size="14.00">roo_powersafefs</text>
<text xml:space="preserve" text-anchor="middle" x="535.88" y="-262.7" font-family="Times,serif" font-size="14.00">1.0.3</text>
</g>
<!-- roo_powersafefs&#45;&gt;roo_threads -->
<g id="edge25" class="edge">
<title>roo_powersafefs&#45;&gt;roo_threads</title>
<path fill="none" stroke="black" d="M542.71,-255.03C545.36,-247.26 548.47,-238.19 551.4,-229.63"/>
<polygon fill="black" stroke="black" points="554.67,-230.86 554.6,-220.27 548.05,-228.6 554.67,-230.86"/>
</g>
<!-- roo_prefs -->
<g id="node21" class="node">
<title>roo_prefs</title>
<polygon fill="#b1dbab" stroke="red" points="67.75,-474 0,-474 0,-433 67.75,-433 67.75,-474"/>
<text xml:space="preserve" text-anchor="middle" x="33.88" y="-456.7" font-family="Times,serif" font-size="14.00">roo_prefs</text>
<text xml:space="preserve" text-anchor="middle" x="33.88" y="-440.2" font-family="Times,serif" font-size="14.00">2.0.3</text>
</g>
<!-- roo_prefs&#45;&gt;roo_logging -->
<g id="edge26" class="edge">
<title>roo_prefs&#45;&gt;roo_logging</title>
<path fill="none" stroke="black" d="M60.71,-432.71C103.57,-401.11 187.5,-339.22 235.64,-303.72"/>
<polygon fill="black" stroke="black" points="237.58,-306.64 243.55,-297.89 233.43,-301 237.58,-306.64"/>
</g>
<!-- roo_quantity&#45;&gt;roo_logging -->
<g id="edge27" class="edge">
<title>roo_quantity&#45;&gt;roo_logging</title>
<path fill="none" stroke="black" d="M208.88,-432.71C221.24,-402.16 245.05,-343.31 259.6,-307.35"/>
<polygon fill="black" stroke="black" points="262.72,-308.97 263.22,-298.39 256.23,-306.35 262.72,-308.97"/>
</g>
<!-- roo_scheduler&#45;&gt;roo_collections -->
<g id="edge28" class="edge">
<title>roo_scheduler&#45;&gt;roo_collections</title>
<path fill="none" stroke="black" d="M701.88,-432.77C701.88,-419.29 701.88,-401.16 701.88,-385.79"/>
<polygon fill="black" stroke="black" points="705.38,-386.21 701.88,-376.21 698.38,-386.21 705.38,-386.21"/>
</g>
<!-- roo_scheduler&#45;&gt;roo_threads -->
<g id="edge29" class="edge">
<title>roo_scheduler&#45;&gt;roo_threads</title>
<path fill="none" stroke="black" d="M684.4,-432.75C671.65,-417.6 654.61,-395.75 642.88,-374.5 615.54,-325 623.2,-306.06 597.88,-255.5 593.31,-246.38 587.64,-236.88 582.17,-228.33"/>
<polygon fill="black" stroke="black" points="585.16,-226.51 576.75,-220.07 579.31,-230.35 585.16,-226.51"/>
</g>
<!-- roo_time -->
<g id="node26" class="node">
<title>roo_time</title>
<polygon fill="#b1dbab" stroke="red" points="626.62,-140.5 561.12,-140.5 561.12,-99.5 626.62,-99.5 626.62,-140.5"/>
<text xml:space="preserve" text-anchor="middle" x="593.88" y="-123.2" font-family="Times,serif" font-size="14.00">roo_time</text>
<text xml:space="preserve" text-anchor="middle" x="593.88" y="-106.7" font-family="Times,serif" font-size="14.00">2.0.1</text>
</g>
<!-- roo_threads&#45;&gt;roo_time -->
<g id="edge30" class="edge">
<title>roo_threads&#45;&gt;roo_time</title>
<path fill="none" stroke="black" d="M570.28,-177.03C573.59,-169.18 577.46,-159.98 581.1,-151.34"/>
<polygon fill="black" stroke="black" points="584.28,-152.8 584.94,-142.23 577.83,-150.09 584.28,-152.8"/>
</g>
<!-- roo_time&#45;&gt;roo_backport -->
<g id="edge32" class="edge">
<title>roo_time&#45;&gt;roo_backport</title>
<path fill="none" stroke="black" d="M599.95,-99.27C604.13,-85.66 609.78,-67.3 614.54,-51.84"/>
<polygon fill="black" stroke="black" points="617.77,-53.23 617.37,-42.65 611.08,-51.18 617.77,-53.23"/>
</g>
<!-- roo_time&#45;&gt;roo_testing -->
<g id="edge31" class="edge">
<title>roo_time&#45;&gt;roo_testing</title>
<path fill="none" stroke="red" d="M621.93,-99.03C642.62,-84.31 670.97,-64.13 693.57,-48.05"/>
<polygon fill="red" stroke="red" points="695.51,-50.97 701.62,-42.32 691.45,-45.26 695.51,-50.97"/>
<text xml:space="preserve" text-anchor="middle" x="701.27" y="-72" font-family="Times,serif" font-size="10.00" fill="red">2.3.0</text>
<text xml:space="preserve" text-anchor="middle" x="701.27" y="-60.75" font-family="Times,serif" font-size="10.00" fill="red">(latest: 2.3.1)</text>
</g>
<!-- roo_time_ds3231 -->
<g id="node27" class="node">
<title>roo_time_ds3231</title>
<polygon fill="#b1dbab" stroke="red" points="411.5,-474 300.25,-474 300.25,-433 411.5,-433 411.5,-474"/>
<text xml:space="preserve" text-anchor="middle" x="355.88" y="-456.7" font-family="Times,serif" font-size="14.00">roo_time_ds3231</text>
<text xml:space="preserve" text-anchor="middle" x="355.88" y="-440.2" font-family="Times,serif" font-size="14.00">2.0.0</text>
</g>
<!-- roo_time_ds3231&#45;&gt;roo_io -->
<g id="edge33" class="edge">
<title>roo_time_ds3231&#45;&gt;roo_io</title>
<path fill="none" stroke="red" d="M360.73,-432.6C364.26,-420.42 369.8,-404.85 377.62,-392.5 379.7,-389.22 382.11,-386.01 384.68,-382.92"/>
<polygon fill="red" stroke="red" points="387.07,-385.49 391.21,-375.73 381.89,-380.78 387.07,-385.49"/>
<text xml:space="preserve" text-anchor="middle" x="404.25" y="-405.5" font-family="Times,serif" font-size="10.00" fill="red">2.3.0</text>
<text xml:space="preserve" text-anchor="middle" x="404.25" y="-394.25" font-family="Times,serif" font-size="10.00" fill="red">(latest: 2.4.1)</text>
</g>
<!-- roo_transceivers&#45;&gt;roo_collections -->
<g id="edge35" class="edge">
<title>roo_transceivers&#45;&gt;roo_collections</title>
<path fill="none" stroke="black" d="M386.84,-534.79C389.88,-533.97 392.91,-533.2 395.88,-532.5 474.95,-513.76 704.21,-535.89 756.88,-474 779.8,-447.06 754.61,-408.97 731.29,-383.19"/>
<polygon fill="black" stroke="black" points="733.96,-380.93 724.56,-376.06 728.87,-385.74 733.96,-380.93"/>
</g>
<!-- roo_transceivers&#45;&gt;roo_pb -->
<g id="edge34" class="edge">
<title>roo_transceivers&#45;&gt;roo_pb</title>
<path fill="none" stroke="red" d="M280.96,-535.16C277.23,-534.2 273.51,-533.29 269.88,-532.5 240.9,-526.16 161.1,-532.62 137.62,-514.5 128.36,-507.35 122.54,-496.11 118.89,-485.29"/>
<polygon fill="red" stroke="red" points="122.3,-484.5 116.23,-475.81 115.56,-486.39 122.3,-484.5"/>
<text xml:space="preserve" text-anchor="middle" x="164.25" y="-505" font-family="Times,serif" font-size="10.00" fill="red">0.1.0</text>
<text xml:space="preserve" text-anchor="middle" x="164.25" y="-493.75" font-family="Times,serif" font-size="10.00" fill="red">(latest: 0.1.1)</text>
</g>
<!-- roo_transceivers&#45;&gt;roo_prefs -->
<g id="edge36" class="edge">
<title>roo_transceivers&#45;&gt;roo_prefs</title>
<path fill="none" stroke="red" d="M281.01,-534.96C277.26,-534.04 273.52,-533.21 269.88,-532.5 224.93,-523.78 102.61,-540.06 64.62,-514.5 54.36,-507.59 47.32,-496.15 42.61,-485.1"/>
<polygon fill="red" stroke="red" points="45.91,-483.95 39.15,-475.79 39.35,-486.38 45.91,-483.95"/>
<text xml:space="preserve" text-anchor="middle" x="91.25" y="-505" font-family="Times,serif" font-size="10.00" fill="red">2.0.2</text>
<text xml:space="preserve" text-anchor="middle" x="91.25" y="-493.75" font-family="Times,serif" font-size="10.00" fill="red">(latest: 2.0.3)</text>
</g>
<!-- roo_transport -->
<g id="node29" class="node">
<title>roo_transport</title>
<polygon fill="#b1dbab" stroke="red" points="518.25,-474 429.5,-474 429.5,-433 518.25,-433 518.25,-474"/>
<text xml:space="preserve" text-anchor="middle" x="473.88" y="-456.7" font-family="Times,serif" font-size="14.00">roo_transport</text>
<text xml:space="preserve" text-anchor="middle" x="473.88" y="-440.2" font-family="Times,serif" font-size="14.00">1.2.2</text>
</g>
<!-- roo_transport&#45;&gt;roo_collections -->
<g id="edge37" class="edge">
<title>roo_transport&#45;&gt;roo_collections</title>
<path fill="none" stroke="black" d="M518.59,-435.7C521.38,-434.76 524.16,-433.85 526.88,-433 557.12,-423.52 566.5,-426.91 595.88,-415 618.74,-405.73 642.78,-392.45 662.17,-380.74"/>
<polygon fill="black" stroke="black" points="663.88,-383.8 670.57,-375.58 660.22,-377.83 663.88,-383.8"/>
</g>
<!-- roo_transport&#45;&gt;roo_io -->
<g id="edge38" class="edge">
<title>roo_transport&#45;&gt;roo_io</title>
<path fill="none" stroke="red" d="M461.94,-432.77C453.54,-418.89 442.16,-400.08 432.69,-384.44"/>
<polygon fill="red" stroke="red" points="435.75,-382.74 427.58,-376 429.76,-386.36 435.75,-382.74"/>
<text xml:space="preserve" text-anchor="middle" x="476.28" y="-405.5" font-family="Times,serif" font-size="10.00" fill="red">2.4.0</text>
<text xml:space="preserve" text-anchor="middle" x="476.28" y="-394.25" font-family="Times,serif" font-size="10.00" fill="red">(latest: 2.4.1)</text>
</g>
<!-- roo_wifi -->
<g id="node30" class="node">
<title>roo_wifi</title>
<polygon fill="#b1dbab" stroke="black" points="261.12,-573.5 198.62,-573.5 198.62,-532.5 261.12,-532.5 261.12,-573.5"/>
<text xml:space="preserve" text-anchor="middle" x="229.88" y="-556.2" font-family="Times,serif" font-size="14.00">roo_wifi</text>
<text xml:space="preserve" text-anchor="middle" x="229.88" y="-539.7" font-family="Times,serif" font-size="14.00">3.0.0</text>
</g>
<!-- roo_wifi&#45;&gt;roo_prefs -->
<g id="edge39" class="edge">
<title>roo_wifi&#45;&gt;roo_prefs</title>
<path fill="none" stroke="black" d="M198.21,-550.04C150.3,-546.38 62.76,-536.78 41.88,-514.5 34.67,-506.81 31.88,-495.94 31.15,-485.56"/>
<polygon fill="black" stroke="black" points="34.65,-485.74 31.09,-475.76 27.65,-485.78 34.65,-485.74"/>
</g>
<!-- roo_wifi&#45;&gt;roo_scheduler -->
<g id="edge40" class="edge">
<title>roo_wifi&#45;&gt;roo_scheduler</title>
<path fill="none" stroke="black" d="M261.62,-536.14C265.03,-534.78 268.49,-533.53 271.88,-532.5 349.43,-508.96 548.71,-495.74 644.14,-474.35"/>
<polygon fill="black" stroke="black" points="644.86,-477.77 653.78,-472.05 643.24,-470.96 644.86,-477.77"/>
</g>
<!-- roo_windows&#45;&gt;roo_fonts_basic -->
<g id="edge41" class="edge">
<title>roo_windows&#45;&gt;roo_fonts_basic</title>
<path fill="none" stroke="black" d="M905.88,-631.77C905.88,-618.29 905.88,-600.16 905.88,-584.79"/>
<polygon fill="black" stroke="black" points="909.38,-585.21 905.88,-575.21 902.38,-585.21 909.38,-585.21"/>
</g>
<!-- roo_windows&#45;&gt;roo_fonts_material -->
<g id="edge42" class="edge">
<title>roo_windows&#45;&gt;roo_fonts_material</title>
<path fill="none" stroke="black" d="M950.93,-631.53C985.63,-616.15 1033.77,-594.82 1070.76,-578.42"/>
<polygon fill="black" stroke="black" points="1071.78,-581.8 1079.5,-574.55 1068.94,-575.4 1071.78,-581.8"/>
</g>
<!-- roo_windows&#45;&gt;roo_icons -->
<g id="edge44" class="edge">
<title>roo_windows&#45;&gt;roo_icons</title>
<path fill="none" stroke="black" d="M950.63,-641.8C1005.84,-629.31 1102.53,-605.76 1192.25,-574.22"/>
<polygon fill="black" stroke="black" points="1193.2,-577.6 1201.44,-570.94 1190.85,-571 1193.2,-577.6"/>
</g>
<!-- roo_windows&#45;&gt;roo_locale -->
<g id="edge43" class="edge">
<title>roo_windows&#45;&gt;roo_locale</title>
<path fill="none" stroke="black" d="M927.58,-631.53C943.3,-617.07 964.74,-597.35 982.07,-581.42"/>
<polygon fill="black" stroke="black" points="984.09,-584.31 989.08,-574.96 979.35,-579.16 984.09,-584.31"/>
</g>
<!-- roo_windows&#45;&gt;roo_scheduler -->
<g id="edge45" class="edge">
<title>roo_windows&#45;&gt;roo_scheduler</title>
<path fill="none" stroke="black" d="M860.74,-645.31C817.56,-636.87 754.1,-617.42 719.88,-573.5 700.5,-548.63 697.71,-511.74 698.69,-485.63"/>
<polygon fill="black" stroke="black" points="702.16,-486.18 699.26,-475.99 695.17,-485.76 702.16,-486.18"/>
</g>
<!-- roo_windows_transceivers -->
<g id="node32" class="node">
<title>roo_windows_transceivers</title>
<polygon fill="khaki" stroke="red" points="761.25,-772.5 600.5,-772.5 600.5,-731.5 761.25,-731.5 761.25,-772.5"/>
<text xml:space="preserve" text-anchor="middle" x="680.88" y="-755.2" font-family="Times,serif" font-size="14.00">roo_windows_transceivers</text>
<text xml:space="preserve" text-anchor="middle" x="680.88" y="-738.7" font-family="Times,serif" font-size="14.00">1.0.0</text>
</g>
<!-- roo_windows_transceivers&#45;&gt;roo_transceivers -->
<g id="edge46" class="edge">
<title>roo_windows_transceivers&#45;&gt;roo_transceivers</title>
<path fill="none" stroke="red" d="M600.13,-743.31C510.95,-733.01 375.58,-711.43 342.62,-673 322.16,-649.13 322.89,-611.75 326.87,-585.25"/>
<polygon fill="red" stroke="red" points="330.31,-585.88 328.6,-575.43 323.42,-584.67 330.31,-585.88"/>
<text xml:space="preserve" text-anchor="middle" x="369.25" y="-654.25" font-family="Times,serif" font-size="10.00" fill="red">1.2.0</text>
<text xml:space="preserve" text-anchor="middle" x="369.25" y="-643" font-family="Times,serif" font-size="10.00" fill="red">(latest: 1.3.0)</text>
</g>
<!-- roo_windows_transceivers&#45;&gt;roo_windows -->
<g id="edge47" class="edge">
<title>roo_windows_transceivers&#45;&gt;roo_windows</title>
<path fill="none" stroke="red" d="M726.95,-731.03C762.68,-715.55 812.33,-694.04 850.26,-677.6"/>
<polygon fill="red" stroke="red" points="851.46,-680.9 859.24,-673.71 848.67,-674.47 851.46,-680.9"/>
<text xml:space="preserve" text-anchor="middle" x="840.15" y="-704" font-family="Times,serif" font-size="10.00" fill="red">1.7.0</text>
<text xml:space="preserve" text-anchor="middle" x="840.15" y="-692.75" font-family="Times,serif" font-size="10.00" fill="red">(latest: 1.8.1)</text>
</g>
<!-- roo_windows_wifi -->
<g id="node33" class="node">
<title>roo_windows_wifi</title>
<polygon fill="plum" stroke="black" points="426.88,-772.5 308.88,-772.5 308.88,-731.5 426.88,-731.5 426.88,-772.5"/>
<text xml:space="preserve" text-anchor="middle" x="367.88" y="-755.2" font-family="Times,serif" font-size="14.00">roo_windows_wifi</text>
<text xml:space="preserve" text-anchor="middle" x="367.88" y="-738.7" font-family="Times,serif" font-size="14.00">2.0.0</text>
</g>
<!-- roo_windows_wifi&#45;&gt;roo_wifi -->
<g id="edge48" class="edge">
<title>roo_windows_wifi&#45;&gt;roo_wifi</title>
<path fill="none" stroke="black" d="M338.58,-731.09C331.98,-725.83 325.32,-719.83 319.88,-713.5 285.34,-673.38 257.66,-617.99 242.53,-584.15"/>
<polygon fill="black" stroke="black" points="245.89,-583.11 238.67,-575.36 239.48,-585.92 245.89,-583.11"/>
</g>
<!-- roo_windows_wifi&#45;&gt;roo_windows -->
<g id="edge49" class="edge">
<title>roo_windows_wifi&#45;&gt;roo_windows</title>
<path fill="none" stroke="black" d="M427.25,-740.24C531.71,-721.31 746.99,-682.29 849.38,-663.74"/>
<polygon fill="black" stroke="black" points="850,-667.18 859.21,-661.96 848.75,-660.3 850,-667.18"/>
</g>
</g>
</svg>
