<?xml version="1.0" encoding="UTF-8" standalone="no"?>
<!DOCTYPE svg PUBLIC "-//W3C//DTD SVG 1.1//EN"
 "http://www.w3.org/Graphics/SVG/1.1/DTD/svg11.dtd">
<!-- Generated by graphviz version 2.42.4 (0)
 -->
<!-- Title: dependencies Pages: 1 -->
<svg width="1992pt" height="772pt"
 viewBox="0.00 0.00 1991.50 772.00" xmlns="http://www.w3.org/2000/svg" xmlns:xlink="http://www.w3.org/1999/xlink">
<g id="graph0" class="graph" transform="scale(1 1) rotate(0) translate(4 768)">
<title>dependencies</title>
<polygon fill="white" stroke="transparent" points="-4,4 -4,-768 1987.5,-768 1987.5,4 -4,4"/>
<!-- roo_backport -->
<g id="node1" class="node">
<title>roo_backport</title>
<polygon fill="khaki" stroke="black" points="1650.5,-113 1540.5,-113 1540.5,-75 1650.5,-75 1650.5,-113"/>
<text text-anchor="middle" x="1595.5" y="-97.8" font-family="Times,serif" font-size="14.00">roo_backport</text>
<text text-anchor="middle" x="1595.5" y="-82.8" font-family="Times,serif" font-size="14.00">1.1.1</text>
</g>
<!-- roo_blink -->
<g id="node2" class="node">
<title>roo_blink</title>
<polygon fill="plum" stroke="black" points="1054.5,-401 972.5,-401 972.5,-363 1054.5,-363 1054.5,-401"/>
<text text-anchor="middle" x="1013.5" y="-385.8" font-family="Times,serif" font-size="14.00">roo_blink</text>
<text text-anchor="middle" x="1013.5" y="-370.8" font-family="Times,serif" font-size="14.00">1.0.2</text>
</g>
<!-- roo_logging -->
<g id="node12" class="node">
<title>roo_logging</title>
<polygon fill="plum" stroke="black" points="635.5,-305 535.5,-305 535.5,-267 635.5,-267 635.5,-305"/>
<text text-anchor="middle" x="585.5" y="-289.8" font-family="Times,serif" font-size="14.00">roo_logging</text>
<text text-anchor="middle" x="585.5" y="-274.8" font-family="Times,serif" font-size="14.00">1.4.3</text>
</g>
<!-- roo_blink&#45;&gt;roo_logging -->
<g id="edge2" class="edge">
<title>roo_blink&#45;&gt;roo_logging</title>
<path fill="none" stroke="black" d="M972.32,-375.75C927.55,-369.71 854.02,-358.82 791.5,-345 741.9,-334.03 686.52,-318.24 645.68,-305.9"/>
<polygon fill="black" stroke="black" points="646.47,-302.48 635.89,-302.92 644.44,-309.18 646.47,-302.48"/>
</g>
<!-- roo_scheduler -->
<g id="node16" class="node">
<title>roo_scheduler</title>
<polygon fill="plum" stroke="black" points="1007.5,-305 891.5,-305 891.5,-267 1007.5,-267 1007.5,-305"/>
<text text-anchor="middle" x="949.5" y="-289.8" font-family="Times,serif" font-size="14.00">roo_scheduler</text>
<text text-anchor="middle" x="949.5" y="-274.8" font-family="Times,serif" font-size="14.00">2.1.5</text>
</g>
<!-- roo_blink&#45;&gt;roo_scheduler -->
<g id="edge3" class="edge">
<title>roo_blink&#45;&gt;roo_scheduler</title>
<path fill="none" stroke="black" d="M1001.16,-362.88C991.6,-348.83 978.21,-329.17 967.46,-313.38"/>
<polygon fill="black" stroke="black" points="970.32,-311.36 961.8,-305.07 964.54,-315.3 970.32,-311.36"/>
</g>
<!-- roo_testing -->
<g id="node17" class="node">
<title>roo_testing</title>
<polygon fill="#b1dbab" stroke="black" points="793,-38 696,-38 696,0 793,0 793,-38"/>
<text text-anchor="middle" x="744.5" y="-22.8" font-family="Times,serif" font-size="14.00">roo_testing</text>
<text text-anchor="middle" x="744.5" y="-7.8" font-family="Times,serif" font-size="14.00">1.2.0</text>
</g>
<!-- roo_blink&#45;&gt;roo_testing -->
<g id="edge1" class="edge">
<title>roo_blink&#45;&gt;roo_testing</title>
<path fill="none" stroke="red" d="M1054.74,-371.05C1122.03,-352.34 1253.42,-304.87 1308.5,-209 1330.83,-170.13 1285.66,-83.07 1275.5,-75 1239.12,-46.09 933.8,-28.72 803.29,-22.55"/>
<polygon fill="red" stroke="red" points="803.23,-19.05 793.08,-22.08 802.91,-26.04 803.23,-19.05"/>
<text text-anchor="middle" x="1348.5" y="-193" font-family="Times,serif" font-size="10.00" fill="red">1.1.8</text>
<text text-anchor="middle" x="1348.5" y="-182" font-family="Times,serif" font-size="10.00" fill="red">(latest: 1.2.0)</text>
</g>
<!-- roo_threads -->
<g id="node18" class="node">
<title>roo_threads</title>
<polygon fill="khaki" stroke="black" points="1105,-209 1004,-209 1004,-171 1105,-171 1105,-209"/>
<text text-anchor="middle" x="1054.5" y="-193.8" font-family="Times,serif" font-size="14.00">roo_threads</text>
<text text-anchor="middle" x="1054.5" y="-178.8" font-family="Times,serif" font-size="14.00">1.2.0</text>
</g>
<!-- roo_blink&#45;&gt;roo_threads -->
<g id="edge4" class="edge">
<title>roo_blink&#45;&gt;roo_threads</title>
<path fill="none" stroke="red" d="M1020.41,-362.97C1029.67,-337.87 1045.72,-290.75 1052.5,-249 1054.06,-239.39 1054.73,-228.77 1054.95,-219.27"/>
<polygon fill="red" stroke="red" points="1058.45,-219.17 1055.05,-209.14 1051.45,-219.11 1058.45,-219.17"/>
<text text-anchor="middle" x="1082.5" y="-289" font-family="Times,serif" font-size="10.00" fill="red">1.1.6</text>
<text text-anchor="middle" x="1082.5" y="-278" font-family="Times,serif" font-size="10.00" fill="red">(latest: 1.2.0)</text>
</g>
<!-- roo_time -->
<g id="node19" class="node">
<title>roo_time</title>
<polygon fill="#b1dbab" stroke="black" points="894,-113 815,-113 815,-75 894,-75 894,-113"/>
<text text-anchor="middle" x="854.5" y="-97.8" font-family="Times,serif" font-size="14.00">roo_time</text>
<text text-anchor="middle" x="854.5" y="-82.8" font-family="Times,serif" font-size="14.00">1.4.0</text>
</g>
<!-- roo_blink&#45;&gt;roo_time -->
<g id="edge5" class="edge">
<title>roo_blink&#45;&gt;roo_time</title>
<path fill="none" stroke="red" d="M972.37,-367.08C943.07,-355.1 905.03,-334.94 882.5,-305 861.38,-276.93 856.19,-173.86 854.91,-123.32"/>
<polygon fill="red" stroke="red" points="858.41,-123.02 854.69,-113.1 851.41,-123.17 858.41,-123.02"/>
<text text-anchor="middle" x="898.5" y="-241" font-family="Times,serif" font-size="10.00" fill="red">1.3.3</text>
<text text-anchor="middle" x="898.5" y="-230" font-family="Times,serif" font-size="10.00" fill="red">(latest: 1.4.0)</text>
</g>
<!-- roo_collections -->
<g id="node3" class="node">
<title>roo_collections</title>
<polygon fill="khaki" stroke="black" points="1617.5,-209 1495.5,-209 1495.5,-171 1617.5,-171 1617.5,-209"/>
<text text-anchor="middle" x="1556.5" y="-193.8" font-family="Times,serif" font-size="14.00">roo_collections</text>
<text text-anchor="middle" x="1556.5" y="-178.8" font-family="Times,serif" font-size="14.00">1.3.2</text>
</g>
<!-- roo_collections&#45;&gt;roo_backport -->
<g id="edge6" class="edge">
<title>roo_collections&#45;&gt;roo_backport</title>
<path fill="none" stroke="black" d="M1564.02,-170.88C1569.68,-157.22 1577.55,-138.26 1584,-122.71"/>
<polygon fill="black" stroke="black" points="1587.4,-123.65 1588,-113.07 1580.94,-120.96 1587.4,-123.65"/>
</g>
<!-- roo_comms -->
<g id="node4" class="node">
<title>roo_comms</title>
<polygon fill="plum" stroke="black" points="1062,-593 965,-593 965,-555 1062,-555 1062,-593"/>
<text text-anchor="middle" x="1013.5" y="-577.8" font-family="Times,serif" font-size="14.00">roo_comms</text>
<text text-anchor="middle" x="1013.5" y="-562.8" font-family="Times,serif" font-size="14.00">1.1.2</text>
</g>
<!-- roo_comms&#45;&gt;roo_blink -->
<g id="edge8" class="edge">
<title>roo_comms&#45;&gt;roo_blink</title>
<path fill="none" stroke="black" d="M1013.5,-554.78C1013.5,-521.52 1013.5,-450.73 1013.5,-411.2"/>
<polygon fill="black" stroke="black" points="1017,-411.16 1013.5,-401.16 1010,-411.16 1017,-411.16"/>
</g>
<!-- roo_control -->
<g id="node5" class="node">
<title>roo_control</title>
<polygon fill="plum" stroke="black" points="792,-497 695,-497 695,-459 792,-459 792,-497"/>
<text text-anchor="middle" x="743.5" y="-481.8" font-family="Times,serif" font-size="14.00">roo_control</text>
<text text-anchor="middle" x="743.5" y="-466.8" font-family="Times,serif" font-size="14.00">1.2.2</text>
</g>
<!-- roo_comms&#45;&gt;roo_control -->
<g id="edge9" class="edge">
<title>roo_comms&#45;&gt;roo_control</title>
<path fill="none" stroke="black" d="M964.67,-572.22C921.14,-569.77 856.72,-561.76 806.5,-537 790.75,-529.23 776.12,-516.28 764.93,-504.59"/>
<polygon fill="black" stroke="black" points="767.44,-502.15 758.1,-497.15 762.29,-506.89 767.44,-502.15"/>
</g>
<!-- roo_io -->
<g id="node10" class="node">
<title>roo_io</title>
<polygon fill="plum" stroke="black" points="1578,-401 1519,-401 1519,-363 1578,-363 1578,-401"/>
<text text-anchor="middle" x="1548.5" y="-385.8" font-family="Times,serif" font-size="14.00">roo_io</text>
<text text-anchor="middle" x="1548.5" y="-370.8" font-family="Times,serif" font-size="14.00">2.0.3</text>
</g>
<!-- roo_comms&#45;&gt;roo_io -->
<g id="edge10" class="edge">
<title>roo_comms&#45;&gt;roo_io</title>
<path fill="none" stroke="black" d="M1062.1,-570.88C1169.87,-565.31 1424.67,-547.06 1492.5,-497 1507.32,-486.06 1526.66,-440.83 1538.3,-410.73"/>
<polygon fill="black" stroke="black" points="1541.65,-411.77 1541.93,-401.18 1535.1,-409.28 1541.65,-411.77"/>
</g>
<!-- roo_comms&#45;&gt;roo_testing -->
<g id="edge7" class="edge">
<title>roo_comms&#45;&gt;roo_testing</title>
<path fill="none" stroke="red" d="M964.91,-572C799.49,-567.94 268.5,-549.44 268.5,-479 268.5,-479 268.5,-479 268.5,-285 268.5,-277 266.73,-274.8 268.5,-267 289.47,-174.73 286.52,-134 360.5,-75 409.59,-35.85 590.88,-24.55 685.75,-21.3"/>
<polygon fill="red" stroke="red" points="685.88,-24.8 695.77,-20.98 685.66,-17.81 685.88,-24.8"/>
<text text-anchor="middle" x="301.5" y="-289" font-family="Times,serif" font-size="10.00" fill="red">1.1.8</text>
<text text-anchor="middle" x="301.5" y="-278" font-family="Times,serif" font-size="10.00" fill="red">(latest: 1.2.0)</text>
</g>
<!-- roo_comms&#45;&gt;roo_threads -->
<g id="edge11" class="edge">
<title>roo_comms&#45;&gt;roo_threads</title>
<path fill="none" stroke="red" d="M1023.47,-554.88C1046.06,-512.66 1100.67,-403.79 1119.5,-305 1122.66,-288.41 1125.35,-282.84 1119.5,-267 1112.29,-247.49 1097.59,-229.59 1084,-216.07"/>
<polygon fill="red" stroke="red" points="1086.26,-213.4 1076.61,-209.03 1081.43,-218.47 1086.26,-213.4"/>
<text text-anchor="middle" x="1138.5" y="-385" font-family="Times,serif" font-size="10.00" fill="red">1.1.6</text>
<text text-anchor="middle" x="1138.5" y="-374" font-family="Times,serif" font-size="10.00" fill="red">(latest: 1.2.0)</text>
</g>
<!-- roo_comms&#45;&gt;roo_time -->
<g id="edge12" class="edge">
<title>roo_comms&#45;&gt;roo_time</title>
<path fill="none" stroke="red" d="M991.17,-554.92C949.72,-519.72 862.11,-437.33 829.5,-345 802.3,-267.98 828.27,-169.87 844.18,-122.74"/>
<polygon fill="red" stroke="red" points="847.51,-123.81 847.49,-113.21 840.9,-121.51 847.51,-123.81"/>
<text text-anchor="middle" x="862.5" y="-337" font-family="Times,serif" font-size="10.00" fill="red">1.3.3</text>
<text text-anchor="middle" x="862.5" y="-326" font-family="Times,serif" font-size="10.00" fill="red">(latest: 1.4.0)</text>
</g>
<!-- roo_transceivers -->
<g id="node21" class="node">
<title>roo_transceivers</title>
<polygon fill="plum" stroke="black" points="1334,-497 1199,-497 1199,-459 1334,-459 1334,-497"/>
<text text-anchor="middle" x="1266.5" y="-481.8" font-family="Times,serif" font-size="14.00">roo_transceivers</text>
<text text-anchor="middle" x="1266.5" y="-466.8" font-family="Times,serif" font-size="14.00">1.1.3</text>
</g>
<!-- roo_comms&#45;&gt;roo_transceivers -->
<g id="edge13" class="edge">
<title>roo_comms&#45;&gt;roo_transceivers</title>
<path fill="none" stroke="black" d="M1049.42,-554.82C1059.36,-549.41 1070.02,-543.25 1079.5,-537 1092.71,-528.29 1093.21,-521.8 1107.5,-515 1109.55,-514.03 1149.38,-505.01 1188.66,-496.24"/>
<polygon fill="black" stroke="black" points="1189.61,-499.61 1198.61,-494.02 1188.09,-492.78 1189.61,-499.61"/>
</g>
<!-- roo_quantity -->
<g id="node15" class="node">
<title>roo_quantity</title>
<polygon fill="plum" stroke="black" points="725,-401 618,-401 618,-363 725,-363 725,-401"/>
<text text-anchor="middle" x="671.5" y="-385.8" font-family="Times,serif" font-size="14.00">roo_quantity</text>
<text text-anchor="middle" x="671.5" y="-370.8" font-family="Times,serif" font-size="14.00">1.1.3</text>
</g>
<!-- roo_control&#45;&gt;roo_quantity -->
<g id="edge15" class="edge">
<title>roo_control&#45;&gt;roo_quantity</title>
<path fill="none" stroke="black" d="M737.12,-458.85C732.33,-446.8 724.98,-431.03 715.5,-419 712.45,-415.13 708.92,-411.41 705.21,-407.91"/>
<polygon fill="black" stroke="black" points="707.27,-405.06 697.45,-401.1 702.66,-410.32 707.27,-405.06"/>
</g>
<!-- roo_control&#45;&gt;roo_scheduler -->
<g id="edge16" class="edge">
<title>roo_control&#45;&gt;roo_scheduler</title>
<path fill="none" stroke="black" d="M782.82,-458.81C825.11,-437.33 891.53,-397.74 930.5,-345 937.02,-336.18 941.37,-325.01 944.24,-314.83"/>
<polygon fill="black" stroke="black" points="947.65,-315.66 946.65,-305.11 940.85,-313.98 947.65,-315.66"/>
</g>
<!-- roo_control&#45;&gt;roo_testing -->
<g id="edge14" class="edge">
<title>roo_control&#45;&gt;roo_testing</title>
<path fill="none" stroke="red" d="M694.79,-461.7C626.86,-440.31 511.48,-403.77 507.5,-401 430.34,-347.41 382.49,-320.81 387.5,-227 391.4,-153.98 389.32,-115.06 450.5,-75 488.41,-50.17 611.29,-33.63 685.66,-25.62"/>
<polygon fill="red" stroke="red" points="686.24,-29.08 695.81,-24.55 685.5,-22.12 686.24,-29.08"/>
<text text-anchor="middle" x="420.5" y="-241" font-family="Times,serif" font-size="10.00" fill="red">1.1.8</text>
<text text-anchor="middle" x="420.5" y="-230" font-family="Times,serif" font-size="10.00" fill="red">(latest: 1.2.0)</text>
</g>
<!-- roo_dashboard -->
<g id="node6" class="node">
<title>roo_dashboard</title>
<polygon fill="plum" stroke="black" points="1314.5,-764 1192.5,-764 1192.5,-726 1314.5,-726 1314.5,-764"/>
<text text-anchor="middle" x="1253.5" y="-748.8" font-family="Times,serif" font-size="14.00">roo_dashboard</text>
<text text-anchor="middle" x="1253.5" y="-733.8" font-family="Times,serif" font-size="14.00">1.0.1</text>
</g>
<!-- roo_dashboard&#45;&gt;roo_testing -->
<g id="edge17" class="edge">
<title>roo_dashboard&#45;&gt;roo_testing</title>
<path fill="none" stroke="red" d="M1314.78,-743.62C1479.16,-741.81 1917.5,-731.31 1917.5,-671 1917.5,-671 1917.5,-671 1917.5,-93 1917.5,-36.55 1040.67,-23.14 803.2,-20.55"/>
<polygon fill="red" stroke="red" points="803.08,-17.05 793.04,-20.44 803,-24.05 803.08,-17.05"/>
<text text-anchor="middle" x="1950.5" y="-385" font-family="Times,serif" font-size="10.00" fill="red">1.1.7</text>
<text text-anchor="middle" x="1950.5" y="-374" font-family="Times,serif" font-size="10.00" fill="red">(latest: 1.2.0)</text>
</g>
<!-- roo_windows -->
<g id="node24" class="node">
<title>roo_windows</title>
<polygon fill="plum" stroke="black" points="543,-689 434,-689 434,-651 543,-651 543,-689"/>
<text text-anchor="middle" x="488.5" y="-673.8" font-family="Times,serif" font-size="14.00">roo_windows</text>
<text text-anchor="middle" x="488.5" y="-658.8" font-family="Times,serif" font-size="14.00">1.4.1</text>
</g>
<!-- roo_dashboard&#45;&gt;roo_windows -->
<g id="edge18" class="edge">
<title>roo_dashboard&#45;&gt;roo_windows</title>
<path fill="none" stroke="black" d="M1192.19,-738.15C1049.97,-724.58 698.68,-691.06 553.2,-677.17"/>
<polygon fill="black" stroke="black" points="553.37,-673.67 543.09,-676.21 552.71,-680.64 553.37,-673.67"/>
</g>
<!-- roo_display -->
<g id="node7" class="node">
<title>roo_display</title>
<polygon fill="plum" stroke="black" points="1712.5,-497 1614.5,-497 1614.5,-459 1712.5,-459 1712.5,-497"/>
<text text-anchor="middle" x="1663.5" y="-481.8" font-family="Times,serif" font-size="14.00">roo_display</text>
<text text-anchor="middle" x="1663.5" y="-466.8" font-family="Times,serif" font-size="14.00">2.3.1</text>
</g>
<!-- roo_display&#45;&gt;roo_collections -->
<g id="edge20" class="edge">
<title>roo_display&#45;&gt;roo_collections</title>
<path fill="none" stroke="black" d="M1659.58,-458.86C1656.99,-447.36 1653.36,-432.23 1649.5,-419 1624.22,-332.38 1625.75,-306.73 1583.5,-227 1581.84,-223.87 1579.92,-220.71 1577.89,-217.65"/>
<polygon fill="black" stroke="black" points="1580.61,-215.44 1571.96,-209.31 1574.9,-219.49 1580.61,-215.44"/>
</g>
<!-- roo_display&#45;&gt;roo_io -->
<g id="edge21" class="edge">
<title>roo_display&#45;&gt;roo_io</title>
<path fill="none" stroke="red" d="M1614.15,-460.42C1603.29,-455.3 1592.39,-448.88 1583.5,-441 1573.97,-432.55 1566.24,-420.87 1560.49,-410.21"/>
<polygon fill="red" stroke="red" points="1563.58,-408.56 1555.96,-401.21 1557.33,-411.71 1563.58,-408.56"/>
<text text-anchor="middle" x="1616.5" y="-433" font-family="Times,serif" font-size="10.00" fill="red">2.0.2</text>
<text text-anchor="middle" x="1616.5" y="-422" font-family="Times,serif" font-size="10.00" fill="red">(latest: 2.0.3)</text>
</g>
<!-- roo_display&#45;&gt;roo_testing -->
<g id="edge19" class="edge">
<title>roo_display&#45;&gt;roo_testing</title>
<path fill="none" stroke="red" d="M1666.28,-458.81C1673.47,-415.81 1695.58,-305.6 1743.5,-227 1749.39,-217.34 1757.17,-219.45 1761.5,-209 1786.2,-149.37 1759.96,-109.64 1705.5,-75 1629.52,-26.68 1000.37,-20.74 803.29,-20.07"/>
<polygon fill="red" stroke="red" points="803.14,-16.57 793.13,-20.03 803.12,-23.57 803.14,-16.57"/>
<text text-anchor="middle" x="1776.5" y="-241" font-family="Times,serif" font-size="10.00" fill="red">1.1.7</text>
<text text-anchor="middle" x="1776.5" y="-230" font-family="Times,serif" font-size="10.00" fill="red">(latest: 1.2.0)</text>
</g>
<!-- roo_flags -->
<g id="node8" class="node">
<title>roo_flags</title>
<polygon fill="khaki" stroke="black" points="629.5,-209 549.5,-209 549.5,-171 629.5,-171 629.5,-209"/>
<text text-anchor="middle" x="589.5" y="-193.8" font-family="Times,serif" font-size="14.00">roo_flags</text>
<text text-anchor="middle" x="589.5" y="-178.8" font-family="Times,serif" font-size="14.00">1.1.1</text>
</g>
<!-- roo_icons -->
<g id="node9" class="node">
<title>roo_icons</title>
<polygon fill="plum" stroke="black" points="1705,-593 1622,-593 1622,-555 1705,-555 1705,-593"/>
<text text-anchor="middle" x="1663.5" y="-577.8" font-family="Times,serif" font-size="14.00">roo_icons</text>
<text text-anchor="middle" x="1663.5" y="-562.8" font-family="Times,serif" font-size="14.00">1.2.1</text>
</g>
<!-- roo_icons&#45;&gt;roo_display -->
<g id="edge23" class="edge">
<title>roo_icons&#45;&gt;roo_display</title>
<path fill="none" stroke="black" d="M1663.5,-554.88C1663.5,-541.35 1663.5,-522.62 1663.5,-507.15"/>
<polygon fill="black" stroke="black" points="1667,-507.07 1663.5,-497.07 1660,-507.07 1667,-507.07"/>
</g>
<!-- roo_icons&#45;&gt;roo_testing -->
<g id="edge22" class="edge">
<title>roo_icons&#45;&gt;roo_testing</title>
<path fill="none" stroke="red" d="M1705.12,-566.93C1752.53,-557.39 1823.5,-533.93 1823.5,-479 1823.5,-479 1823.5,-479 1823.5,-93 1823.5,-91.99 1660.84,-56.68 1655.5,-56 1489.73,-34.79 977.58,-24.08 803.28,-20.97"/>
<polygon fill="red" stroke="red" points="803.33,-17.47 793.27,-20.8 803.21,-24.47 803.33,-17.47"/>
<text text-anchor="middle" x="1856.5" y="-289" font-family="Times,serif" font-size="10.00" fill="red">1.1.7</text>
<text text-anchor="middle" x="1856.5" y="-278" font-family="Times,serif" font-size="10.00" fill="red">(latest: 1.2.0)</text>
</g>
<!-- roo_io&#45;&gt;roo_backport -->
<g id="edge25" class="edge">
<title>roo_io&#45;&gt;roo_backport</title>
<path fill="none" stroke="black" d="M1559.95,-362.83C1578.35,-332.41 1613.75,-268.64 1626.5,-209 1632.91,-178.99 1621.24,-145.12 1610.43,-122.15"/>
<polygon fill="black" stroke="black" points="1613.48,-120.42 1605.91,-113.01 1607.21,-123.53 1613.48,-120.42"/>
</g>
<!-- roo_io&#45;&gt;roo_logging -->
<g id="edge26" class="edge">
<title>roo_io&#45;&gt;roo_logging</title>
<path fill="none" stroke="black" d="M1518.89,-378.11C1384.45,-364.99 830.15,-310.88 645.59,-292.87"/>
<polygon fill="black" stroke="black" points="645.82,-289.37 635.52,-291.88 645.14,-296.34 645.82,-289.37"/>
</g>
<!-- roo_io&#45;&gt;roo_testing -->
<g id="edge24" class="edge">
<title>roo_io&#45;&gt;roo_testing</title>
<path fill="none" stroke="red" d="M1578.13,-375.37C1620.02,-365.5 1691.5,-340.77 1691.5,-287 1691.5,-287 1691.5,-287 1691.5,-93 1691.5,-40.21 1774.06,-78.74 1481.5,-56 1229.63,-36.42 928.46,-25.64 803.41,-21.73"/>
<polygon fill="red" stroke="red" points="803.39,-18.22 793.29,-21.41 803.17,-25.22 803.39,-18.22"/>
<text text-anchor="middle" x="1724.5" y="-193" font-family="Times,serif" font-size="10.00" fill="red">1.1.8</text>
<text text-anchor="middle" x="1724.5" y="-182" font-family="Times,serif" font-size="10.00" fill="red">(latest: 1.2.0)</text>
</g>
<!-- roo_io&#45;&gt;roo_threads -->
<g id="edge27" class="edge">
<title>roo_io&#45;&gt;roo_threads</title>
<path fill="none" stroke="red" d="M1523.38,-362.88C1489.27,-338.83 1425.86,-296.02 1367.5,-267 1322.41,-244.58 1310.13,-240.05 1261.5,-227 1214.08,-214.27 1200.87,-217.44 1152.5,-209 1140.45,-206.9 1127.58,-204.59 1115.27,-202.34"/>
<polygon fill="red" stroke="red" points="1115.55,-198.83 1105.08,-200.47 1114.29,-205.72 1115.55,-198.83"/>
<text text-anchor="middle" x="1466.5" y="-289" font-family="Times,serif" font-size="10.00" fill="red">1.1.6</text>
<text text-anchor="middle" x="1466.5" y="-278" font-family="Times,serif" font-size="10.00" fill="red">(latest: 1.2.0)</text>
</g>
<!-- roo_locale -->
<g id="node11" class="node">
<title>roo_locale</title>
<polygon fill="#b1dbab" stroke="black" points="460.5,-593 372.5,-593 372.5,-555 460.5,-555 460.5,-593"/>
<text text-anchor="middle" x="416.5" y="-577.8" font-family="Times,serif" font-size="14.00">roo_locale</text>
<text text-anchor="middle" x="416.5" y="-562.8" font-family="Times,serif" font-size="14.00">1.1.1</text>
</g>
<!-- roo_logging&#45;&gt;roo_flags -->
<g id="edge29" class="edge">
<title>roo_logging&#45;&gt;roo_flags</title>
<path fill="none" stroke="black" d="M586.27,-266.88C586.85,-253.35 587.64,-234.62 588.3,-219.15"/>
<polygon fill="black" stroke="black" points="591.8,-219.21 588.73,-209.07 584.81,-218.91 591.8,-219.21"/>
</g>
<!-- roo_logging&#45;&gt;roo_testing -->
<g id="edge28" class="edge">
<title>roo_logging&#45;&gt;roo_testing</title>
<path fill="none" stroke="red" d="M570.99,-266.92C560.22,-252.28 546.41,-230.59 540.5,-209 536.04,-192.71 535.84,-187.23 540.5,-171 559.09,-106.17 582.4,-91.89 639.5,-56 653.69,-47.08 670.35,-40.07 686.17,-34.7"/>
<polygon fill="red" stroke="red" points="687.44,-37.96 695.88,-31.56 685.29,-31.3 687.44,-37.96"/>
<text text-anchor="middle" x="589.5" y="-145" font-family="Times,serif" font-size="10.00" fill="red">1.1.8</text>
<text text-anchor="middle" x="589.5" y="-134" font-family="Times,serif" font-size="10.00" fill="red">(latest: 1.2.0)</text>
</g>
<!-- roo_logging&#45;&gt;roo_threads -->
<g id="edge31" class="edge">
<title>roo_logging&#45;&gt;roo_threads</title>
<path fill="none" stroke="red" d="M635.72,-270.69C658.56,-264.14 685.91,-256.25 710.5,-249 743,-239.42 750.22,-233.4 783.5,-227 873.75,-209.65 899.06,-225.33 989.5,-209 990.98,-208.73 992.47,-208.45 993.97,-208.15"/>
<polygon fill="red" stroke="red" points="994.95,-211.52 1003.96,-205.96 993.45,-204.68 994.95,-211.52"/>
<text text-anchor="middle" x="816.5" y="-241" font-family="Times,serif" font-size="10.00" fill="red">1.1.6</text>
<text text-anchor="middle" x="816.5" y="-230" font-family="Times,serif" font-size="10.00" fill="red">(latest: 1.2.0)</text>
</g>
<!-- roo_logging&#45;&gt;roo_time -->
<g id="edge30" class="edge">
<title>roo_logging&#45;&gt;roo_time</title>
<path fill="none" stroke="red" d="M596.46,-266.88C603.87,-255.13 614.15,-239.69 624.5,-227 646.55,-199.97 650.79,-190.81 679.5,-171 695.88,-159.7 703.43,-163.23 720.5,-153 734.08,-144.87 734.59,-138.54 748.5,-131 766.17,-121.42 786.86,-113.71 805.25,-107.91"/>
<polygon fill="red" stroke="red" points="806.36,-111.24 814.91,-104.98 804.32,-104.54 806.36,-111.24"/>
<text text-anchor="middle" x="712.5" y="-193" font-family="Times,serif" font-size="10.00" fill="red">1.3.3</text>
<text text-anchor="middle" x="712.5" y="-182" font-family="Times,serif" font-size="10.00" fill="red">(latest: 1.4.0)</text>
</g>
<!-- roo_onewire -->
<g id="node13" class="node">
<title>roo_onewire</title>
<polygon fill="plum" stroke="black" points="676.5,-497 572.5,-497 572.5,-459 676.5,-459 676.5,-497"/>
<text text-anchor="middle" x="624.5" y="-481.8" font-family="Times,serif" font-size="14.00">roo_onewire</text>
<text text-anchor="middle" x="624.5" y="-466.8" font-family="Times,serif" font-size="14.00">2.0.5</text>
</g>
<!-- roo_onewire&#45;&gt;roo_quantity -->
<g id="edge34" class="edge">
<title>roo_onewire&#45;&gt;roo_quantity</title>
<path fill="none" stroke="black" d="M633.56,-458.88C640.45,-445.09 650.05,-425.9 657.87,-410.26"/>
<polygon fill="black" stroke="black" points="661.12,-411.58 662.47,-401.07 654.86,-408.45 661.12,-411.58"/>
</g>
<!-- roo_onewire&#45;&gt;roo_scheduler -->
<g id="edge33" class="edge">
<title>roo_onewire&#45;&gt;roo_scheduler</title>
<path fill="none" stroke="black" d="M668.05,-458.83C721.05,-435.82 812.29,-393.31 883.5,-345 897.79,-335.3 912.35,-322.84 924.14,-311.96"/>
<polygon fill="black" stroke="black" points="926.57,-314.47 931.46,-305.08 921.78,-309.37 926.57,-314.47"/>
</g>
<!-- roo_onewire&#45;&gt;roo_testing -->
<g id="edge32" class="edge">
<title>roo_onewire&#45;&gt;roo_testing</title>
<path fill="none" stroke="red" d="M572.45,-461.38C536,-448.81 487.43,-428.68 450.5,-401 388.39,-354.45 393.04,-322.22 338.5,-267 329.86,-258.25 322.64,-260.17 317.5,-249 313.41,-240.12 314.94,-236.44 317.5,-227 337.99,-151.45 343.21,-121.07 406.5,-75 450.03,-43.31 601.18,-28.93 685.86,-23.23"/>
<polygon fill="red" stroke="red" points="686.09,-26.72 695.84,-22.58 685.64,-19.74 686.09,-26.72"/>
<text text-anchor="middle" x="350.5" y="-241" font-family="Times,serif" font-size="10.00" fill="red">1.1.8</text>
<text text-anchor="middle" x="350.5" y="-230" font-family="Times,serif" font-size="10.00" fill="red">(latest: 1.2.0)</text>
</g>
<!-- roo_prefs -->
<g id="node14" class="node">
<title>roo_prefs</title>
<polygon fill="plum" stroke="black" points="600,-401 517,-401 517,-363 600,-363 600,-401"/>
<text text-anchor="middle" x="558.5" y="-385.8" font-family="Times,serif" font-size="14.00">roo_prefs</text>
<text text-anchor="middle" x="558.5" y="-370.8" font-family="Times,serif" font-size="14.00">1.2.3</text>
</g>
<!-- roo_prefs&#45;&gt;roo_logging -->
<g id="edge36" class="edge">
<title>roo_prefs&#45;&gt;roo_logging</title>
<path fill="none" stroke="black" d="M562.85,-362.89C565.68,-351.4 569.58,-336.27 573.5,-323 574.28,-320.37 575.12,-317.64 575.99,-314.91"/>
<polygon fill="black" stroke="black" points="579.37,-315.83 579.15,-305.24 572.72,-313.65 579.37,-315.83"/>
</g>
<!-- roo_prefs&#45;&gt;roo_scheduler -->
<g id="edge37" class="edge">
<title>roo_prefs&#45;&gt;roo_scheduler</title>
<path fill="none" stroke="black" d="M600.11,-365.58C602.94,-364.67 605.75,-363.8 608.5,-363 701.91,-335.89 812.1,-312.92 881.4,-299.55"/>
<polygon fill="black" stroke="black" points="882.16,-302.96 891.32,-297.64 880.84,-296.09 882.16,-302.96"/>
</g>
<!-- roo_prefs&#45;&gt;roo_testing -->
<g id="edge35" class="edge">
<title>roo_prefs&#45;&gt;roo_testing</title>
<path fill="none" stroke="red" d="M551.42,-362.96C537.96,-330.94 505.64,-264.06 457.5,-227 437.45,-211.57 418.29,-229.52 403.5,-209 393.62,-195.3 395.18,-185.7 403.5,-171 460.55,-70.23 604.33,-36.56 685.8,-25.42"/>
<polygon fill="red" stroke="red" points="686.44,-28.87 695.9,-24.11 685.54,-21.93 686.44,-28.87"/>
<text text-anchor="middle" x="436.5" y="-193" font-family="Times,serif" font-size="10.00" fill="red">1.1.8</text>
<text text-anchor="middle" x="436.5" y="-182" font-family="Times,serif" font-size="10.00" fill="red">(latest: 1.2.0)</text>
</g>
<!-- roo_quantity&#45;&gt;roo_logging -->
<g id="edge38" class="edge">
<title>roo_quantity&#45;&gt;roo_logging</title>
<path fill="none" stroke="black" d="M622.03,-362.91C613.93,-358.12 606.3,-352.22 600.5,-345 593.78,-336.64 590.04,-325.6 587.97,-315.39"/>
<polygon fill="black" stroke="black" points="591.37,-314.54 586.36,-305.21 584.46,-315.63 591.37,-314.54"/>
</g>
<!-- roo_quantity&#45;&gt;roo_time -->
<g id="edge39" class="edge">
<title>roo_quantity&#45;&gt;roo_time</title>
<path fill="none" stroke="red" d="M667.18,-362.85C658.74,-327.33 640.83,-251.86 640.5,-249 639.37,-239.29 634.2,-234.48 640.5,-227 671.02,-190.8 703.7,-231.23 745.5,-209 750.82,-206.17 800.29,-153.41 830.72,-120.67"/>
<polygon fill="red" stroke="red" points="833.41,-122.93 837.65,-113.22 828.28,-118.16 833.41,-122.93"/>
<text text-anchor="middle" x="673.5" y="-241" font-family="Times,serif" font-size="10.00" fill="red">1.3.3</text>
<text text-anchor="middle" x="673.5" y="-230" font-family="Times,serif" font-size="10.00" fill="red">(latest: 1.4.0)</text>
</g>
<!-- roo_scheduler&#45;&gt;roo_collections -->
<g id="edge41" class="edge">
<title>roo_scheduler&#45;&gt;roo_collections</title>
<path fill="none" stroke="black" d="M1007.54,-269.94C1012.25,-268.89 1016.95,-267.89 1021.5,-267 1108.82,-249.93 1360.42,-216.44 1484.94,-200.23"/>
<polygon fill="black" stroke="black" points="1485.67,-203.66 1495.14,-198.9 1484.77,-196.72 1485.67,-203.66"/>
</g>
<!-- roo_scheduler&#45;&gt;roo_testing -->
<g id="edge40" class="edge">
<title>roo_scheduler&#45;&gt;roo_testing</title>
<path fill="none" stroke="red" d="M891.15,-267.39C879.71,-262.47 868.25,-256.39 858.5,-249 815.79,-216.62 809.99,-200.68 785.5,-153 767.97,-118.89 756.42,-75.95 750.17,-48.24"/>
<polygon fill="red" stroke="red" points="753.58,-47.44 748.03,-38.42 746.74,-48.93 753.58,-47.44"/>
<text text-anchor="middle" x="818.5" y="-145" font-family="Times,serif" font-size="10.00" fill="red">1.1.8</text>
<text text-anchor="middle" x="818.5" y="-134" font-family="Times,serif" font-size="10.00" fill="red">(latest: 1.2.0)</text>
</g>
<!-- roo_scheduler&#45;&gt;roo_threads -->
<g id="edge42" class="edge">
<title>roo_scheduler&#45;&gt;roo_threads</title>
<path fill="none" stroke="red" d="M957.97,-266.78C964.44,-254.39 974.3,-238.25 986.5,-227 991.51,-222.38 997.23,-218.16 1003.18,-214.38"/>
<polygon fill="red" stroke="red" points="1005.17,-217.27 1011.99,-209.16 1001.6,-211.25 1005.17,-217.27"/>
<text text-anchor="middle" x="1019.5" y="-241" font-family="Times,serif" font-size="10.00" fill="red">1.1.6</text>
<text text-anchor="middle" x="1019.5" y="-230" font-family="Times,serif" font-size="10.00" fill="red">(latest: 1.2.0)</text>
</g>
<!-- roo_scheduler&#45;&gt;roo_time -->
<g id="edge43" class="edge">
<title>roo_scheduler&#45;&gt;roo_time</title>
<path fill="none" stroke="red" d="M947.57,-266.84C945.97,-255.2 943.17,-239.91 938.5,-227 935.39,-218.39 932.85,-217.05 928.5,-209 909.88,-174.55 910.03,-163.03 887.5,-131 885.09,-127.57 882.37,-124.12 879.56,-120.78"/>
<polygon fill="red" stroke="red" points="882.18,-118.46 872.94,-113.28 876.93,-123.09 882.18,-118.46"/>
<text text-anchor="middle" x="961.5" y="-193" font-family="Times,serif" font-size="10.00" fill="red">1.3.3</text>
<text text-anchor="middle" x="961.5" y="-182" font-family="Times,serif" font-size="10.00" fill="red">(latest: 1.4.0)</text>
</g>
<!-- roo_threads&#45;&gt;roo_time -->
<g id="edge44" class="edge">
<title>roo_threads&#45;&gt;roo_time</title>
<path fill="none" stroke="black" d="M1017.25,-170.91C993.37,-159.38 961.67,-144.17 933.5,-131 923.88,-126.5 913.57,-121.75 903.67,-117.23"/>
<polygon fill="black" stroke="black" points="904.9,-113.94 894.35,-112.98 902,-120.31 904.9,-113.94"/>
</g>
<!-- roo_time&#45;&gt;roo_testing -->
<g id="edge45" class="edge">
<title>roo_time&#45;&gt;roo_testing</title>
<path fill="none" stroke="black" d="M827.31,-74.96C813.16,-65.57 795.68,-53.97 780.44,-43.85"/>
<polygon fill="black" stroke="black" points="782.03,-40.7 771.76,-38.09 778.16,-46.54 782.03,-40.7"/>
</g>
<!-- roo_time_ds3231 -->
<g id="node20" class="node">
<title>roo_time_ds3231</title>
<polygon fill="plum" stroke="black" points="1299.5,-209 1161.5,-209 1161.5,-171 1299.5,-171 1299.5,-209"/>
<text text-anchor="middle" x="1230.5" y="-193.8" font-family="Times,serif" font-size="14.00">roo_time_ds3231</text>
<text text-anchor="middle" x="1230.5" y="-178.8" font-family="Times,serif" font-size="14.00">1.1.3</text>
</g>
<!-- roo_time_ds3231&#45;&gt;roo_testing -->
<g id="edge46" class="edge">
<title>roo_time_ds3231&#45;&gt;roo_testing</title>
<path fill="none" stroke="red" d="M1234.76,-171C1236.62,-158.38 1236.64,-141.89 1227.5,-131 1173.4,-66.55 920.01,-35.79 803.44,-24.86"/>
<polygon fill="red" stroke="red" points="803.55,-21.35 793.27,-23.92 802.91,-28.32 803.55,-21.35"/>
<text text-anchor="middle" x="1238.5" y="-97" font-family="Times,serif" font-size="10.00" fill="red">1.1.8</text>
<text text-anchor="middle" x="1238.5" y="-86" font-family="Times,serif" font-size="10.00" fill="red">(latest: 1.2.0)</text>
</g>
<!-- roo_time_ds3231&#45;&gt;roo_time -->
<g id="edge47" class="edge">
<title>roo_time_ds3231&#45;&gt;roo_time</title>
<path fill="none" stroke="red" d="M1191.04,-170.85C1181.07,-165.62 1170.61,-159.53 1161.5,-153 1150,-144.76 1151.27,-137.08 1138.5,-131 1098.22,-111.81 974.76,-101.83 904.6,-97.58"/>
<polygon fill="red" stroke="red" points="904.42,-94.06 894.23,-96.97 904.01,-101.05 904.42,-94.06"/>
<text text-anchor="middle" x="1194.5" y="-145" font-family="Times,serif" font-size="10.00" fill="red">1.3.3</text>
<text text-anchor="middle" x="1194.5" y="-134" font-family="Times,serif" font-size="10.00" fill="red">(latest: 1.4.0)</text>
</g>
<!-- roo_transceivers&#45;&gt;roo_prefs -->
<g id="edge49" class="edge">
<title>roo_transceivers&#45;&gt;roo_prefs</title>
<path fill="none" stroke="black" d="M1198.6,-461.46C1193.84,-460.57 1189.11,-459.73 1184.5,-459 1060.56,-439.23 749.64,-429.91 610.16,-401.01"/>
<polygon fill="black" stroke="black" points="610.53,-397.51 600.01,-398.81 609.04,-404.35 610.53,-397.51"/>
</g>
<!-- roo_transceivers&#45;&gt;roo_testing -->
<g id="edge48" class="edge">
<title>roo_transceivers&#45;&gt;roo_testing</title>
<path fill="none" stroke="red" d="M1284.85,-458.98C1289.73,-453.52 1294.7,-447.3 1298.5,-441 1312.72,-417.43 1380.59,-236.09 1385.5,-209 1398.08,-139.6 1360.79,-111.59 1300.5,-75 1218.13,-25.01 928.77,-19.48 803.28,-19.52"/>
<polygon fill="red" stroke="red" points="803.09,-16.02 793.09,-19.53 803.1,-23.02 803.09,-16.02"/>
<text text-anchor="middle" x="1413.5" y="-241" font-family="Times,serif" font-size="10.00" fill="red">1.1.8</text>
<text text-anchor="middle" x="1413.5" y="-230" font-family="Times,serif" font-size="10.00" fill="red">(latest: 1.2.0)</text>
</g>
<!-- roo_transceivers&#45;&gt;roo_threads -->
<g id="edge50" class="edge">
<title>roo_transceivers&#45;&gt;roo_threads</title>
<path fill="none" stroke="red" d="M1260.26,-458.99C1242.11,-407.48 1188.29,-261.1 1151.5,-227 1145.33,-221.28 1130.7,-214.93 1114.62,-209.18"/>
<polygon fill="red" stroke="red" points="1115.64,-205.82 1105.04,-205.87 1113.35,-212.44 1115.64,-205.82"/>
<text text-anchor="middle" x="1249.5" y="-337" font-family="Times,serif" font-size="10.00" fill="red">1.1.6</text>
<text text-anchor="middle" x="1249.5" y="-326" font-family="Times,serif" font-size="10.00" fill="red">(latest: 1.2.0)</text>
</g>
<!-- roo_transceivers&#45;&gt;roo_time -->
<g id="edge51" class="edge">
<title>roo_transceivers&#45;&gt;roo_time</title>
<path fill="none" stroke="red" d="M1274.24,-458.98C1285.79,-429.23 1304.1,-368.59 1283.5,-323 1251.72,-252.66 1210.06,-260.42 1152.5,-209 1134.45,-192.88 1134.39,-183.21 1113.5,-171 1046.8,-132.01 958.58,-111.72 904.23,-102.21"/>
<polygon fill="red" stroke="red" points="904.61,-98.73 894.16,-100.51 903.44,-105.63 904.61,-98.73"/>
<text text-anchor="middle" x="1307.5" y="-289" font-family="Times,serif" font-size="10.00" fill="red">1.3.3</text>
<text text-anchor="middle" x="1307.5" y="-278" font-family="Times,serif" font-size="10.00" fill="red">(latest: 1.4.0)</text>
</g>
<!-- roo_transport -->
<g id="node22" class="node">
<title>roo_transport</title>
<polygon fill="plum" stroke="black" points="1483.5,-497 1369.5,-497 1369.5,-459 1483.5,-459 1483.5,-497"/>
<text text-anchor="middle" x="1426.5" y="-481.8" font-family="Times,serif" font-size="14.00">roo_transport</text>
<text text-anchor="middle" x="1426.5" y="-466.8" font-family="Times,serif" font-size="14.00">1.0.2</text>
</g>
<!-- roo_transport&#45;&gt;roo_collections -->
<g id="edge53" class="edge">
<title>roo_transport&#45;&gt;roo_collections</title>
<path fill="none" stroke="black" d="M1444.88,-458.94C1450.16,-453.39 1455.77,-447.12 1460.5,-441 1461.18,-440.12 1545.1,-306.04 1545.5,-305 1556.22,-277.16 1558.15,-242.8 1557.92,-219.12"/>
<polygon fill="black" stroke="black" points="1561.42,-218.97 1557.68,-209.06 1554.42,-219.14 1561.42,-218.97"/>
</g>
<!-- roo_transport&#45;&gt;roo_io -->
<g id="edge54" class="edge">
<title>roo_transport&#45;&gt;roo_io</title>
<path fill="none" stroke="black" d="M1458.79,-458.86C1467.68,-453.46 1477.16,-447.28 1485.5,-441 1498.62,-431.11 1512.15,-418.95 1523.29,-408.33"/>
<polygon fill="black" stroke="black" points="1525.84,-410.73 1530.59,-401.26 1520.97,-405.7 1525.84,-410.73"/>
</g>
<!-- roo_transport&#45;&gt;roo_testing -->
<g id="edge52" class="edge">
<title>roo_transport&#45;&gt;roo_testing</title>
<path fill="none" stroke="red" d="M1435.81,-458.83C1454.8,-421.38 1496.77,-336.52 1503.5,-305 1507.03,-288.48 1509.5,-282.79 1503.5,-267 1499.7,-257 1494.43,-257.15 1487.5,-249 1443.7,-197.5 1435.36,-182.45 1391.5,-131 1369.85,-105.61 1369.98,-92.39 1341.5,-75 1312.89,-57.53 1301.59,-61.39 1268.5,-56 1101.34,-28.75 900.92,-22.09 803.48,-20.49"/>
<polygon fill="red" stroke="red" points="803.3,-16.99 793.25,-20.33 803.19,-23.98 803.3,-16.99"/>
<text text-anchor="middle" x="1520.5" y="-241" font-family="Times,serif" font-size="10.00" fill="red">1.1.8</text>
<text text-anchor="middle" x="1520.5" y="-230" font-family="Times,serif" font-size="10.00" fill="red">(latest: 1.2.0)</text>
</g>
<!-- roo_transport&#45;&gt;roo_threads -->
<g id="edge55" class="edge">
<title>roo_transport&#45;&gt;roo_threads</title>
<path fill="none" stroke="red" d="M1411.23,-458.78C1386.21,-429.26 1334.45,-369.57 1286.5,-323 1239.47,-277.32 1232.03,-258.43 1174.5,-227 1168.76,-223.87 1141.94,-215.73 1115.11,-207.99"/>
<polygon fill="red" stroke="red" points="1115.84,-204.56 1105.27,-205.17 1113.91,-211.29 1115.84,-204.56"/>
<text text-anchor="middle" x="1341.5" y="-337" font-family="Times,serif" font-size="10.00" fill="red">1.1.6</text>
<text text-anchor="middle" x="1341.5" y="-326" font-family="Times,serif" font-size="10.00" fill="red">(latest: 1.2.0)</text>
</g>
<!-- roo_wifi -->
<g id="node23" class="node">
<title>roo_wifi</title>
<polygon fill="plum" stroke="black" points="240.5,-497 168.5,-497 168.5,-459 240.5,-459 240.5,-497"/>
<text text-anchor="middle" x="204.5" y="-481.8" font-family="Times,serif" font-size="14.00">roo_wifi</text>
<text text-anchor="middle" x="204.5" y="-466.8" font-family="Times,serif" font-size="14.00">1.1.2</text>
</g>
<!-- roo_wifi&#45;&gt;roo_prefs -->
<g id="edge57" class="edge">
<title>roo_wifi&#45;&gt;roo_prefs</title>
<path fill="none" stroke="black" d="M240.72,-467.38C303.92,-450.6 434.49,-415.93 507.05,-396.66"/>
<polygon fill="black" stroke="black" points="508.13,-400 516.89,-394.05 506.33,-393.23 508.13,-400"/>
</g>
<!-- roo_wifi&#45;&gt;roo_testing -->
<g id="edge56" class="edge">
<title>roo_wifi&#45;&gt;roo_testing</title>
<path fill="none" stroke="red" d="M203.21,-458.83C199.43,-405.73 188.68,-254.23 188.5,-249 188.16,-239.23 186.73,-236.62 188.5,-227 203.19,-147.03 188.3,-104.58 253.5,-56 287.42,-30.72 562.54,-23.01 685.5,-20.81"/>
<polygon fill="red" stroke="red" points="685.91,-24.31 695.85,-20.64 685.79,-17.31 685.91,-24.31"/>
<text text-anchor="middle" x="221.5" y="-241" font-family="Times,serif" font-size="10.00" fill="red">1.1.8</text>
<text text-anchor="middle" x="221.5" y="-230" font-family="Times,serif" font-size="10.00" fill="red">(latest: 1.2.0)</text>
</g>
<!-- roo_windows&#45;&gt;roo_icons -->
<g id="edge61" class="edge">
<title>roo_windows&#45;&gt;roo_icons</title>
<path fill="none" stroke="black" d="M543.22,-668.73C748.38,-667.5 1465.23,-661.21 1563.5,-633 1587.98,-625.97 1612.76,-611.66 1631.53,-599.01"/>
<polygon fill="black" stroke="black" points="1633.75,-601.74 1639.97,-593.16 1629.76,-595.98 1633.75,-601.74"/>
</g>
<!-- roo_windows&#45;&gt;roo_io -->
<g id="edge62" class="edge">
<title>roo_windows&#45;&gt;roo_io</title>
<path fill="none" stroke="red" d="M543.18,-668.2C681.14,-665.85 1040.67,-657.48 1157.5,-633 1325.71,-597.75 1403,-623.35 1519.5,-497 1540.94,-473.75 1547.05,-436.91 1548.54,-411.43"/>
<polygon fill="red" stroke="red" points="1552.04,-411.4 1548.92,-401.28 1545.04,-411.14 1552.04,-411.4"/>
<text text-anchor="middle" x="1534.5" y="-529" font-family="Times,serif" font-size="10.00" fill="red">2.0.2</text>
<text text-anchor="middle" x="1534.5" y="-518" font-family="Times,serif" font-size="10.00" fill="red">(latest: 2.0.3)</text>
</g>
<!-- roo_windows&#45;&gt;roo_locale -->
<g id="edge59" class="edge">
<title>roo_windows&#45;&gt;roo_locale</title>
<path fill="none" stroke="black" d="M474.62,-650.88C463.86,-636.83 448.8,-617.17 436.71,-601.38"/>
<polygon fill="black" stroke="black" points="439.2,-598.88 430.34,-593.07 433.64,-603.14 439.2,-598.88"/>
</g>
<!-- roo_windows&#45;&gt;roo_logging -->
<g id="edge60" class="edge">
<title>roo_windows&#45;&gt;roo_logging</title>
<path fill="none" stroke="red" d="M488.5,-650.98C488.5,-632.06 488.5,-601.44 488.5,-575 488.5,-575 488.5,-575 488.5,-381 488.5,-350.27 513.92,-326.37 538.73,-310.36"/>
<polygon fill="red" stroke="red" points="540.74,-313.23 547.44,-305.03 537.09,-307.26 540.74,-313.23"/>
<text text-anchor="middle" x="521.5" y="-481" font-family="Times,serif" font-size="10.00" fill="red">1.4.2</text>
<text text-anchor="middle" x="521.5" y="-470" font-family="Times,serif" font-size="10.00" fill="red">(latest: 1.4.3)</text>
</g>
<!-- roo_windows&#45;&gt;roo_scheduler -->
<g id="edge63" class="edge">
<title>roo_windows&#45;&gt;roo_scheduler</title>
<path fill="none" stroke="red" d="M543.22,-665.9C681.41,-657.53 1035.94,-632.37 1070.5,-593 1085.12,-576.35 1132.43,-486.33 1063.5,-363 1050.45,-339.64 1026.85,-322.13 1004.5,-309.85"/>
<polygon fill="red" stroke="red" points="1005.84,-306.6 995.36,-305.07 1002.6,-312.8 1005.84,-306.6"/>
<text text-anchor="middle" x="1133.5" y="-481" font-family="Times,serif" font-size="10.00" fill="red">2.1.4</text>
<text text-anchor="middle" x="1133.5" y="-470" font-family="Times,serif" font-size="10.00" fill="red">(latest: 2.1.5)</text>
</g>
<!-- roo_windows&#45;&gt;roo_testing -->
<g id="edge58" class="edge">
<title>roo_windows&#45;&gt;roo_testing</title>
<path fill="none" stroke="red" d="M433.85,-662.85C402.2,-657.79 362.27,-648.78 329.5,-633 242.32,-591.03 210.99,-578.92 159.5,-497 122.61,-438.31 132.33,-413.88 124.5,-345 121.59,-319.37 126.5,-312.79 126.5,-287 126.5,-287 126.5,-287 126.5,-93 126.5,-37.06 531.02,-23.85 685.5,-20.85"/>
<polygon fill="red" stroke="red" points="685.82,-24.34 695.75,-20.66 685.68,-17.35 685.82,-24.34"/>
<text text-anchor="middle" x="157.5" y="-337" font-family="Times,serif" font-size="10.00" fill="red">1.1.7</text>
<text text-anchor="middle" x="157.5" y="-326" font-family="Times,serif" font-size="10.00" fill="red">(latest: 1.2.0)</text>
</g>
<!-- roo_windows&#45;&gt;roo_time -->
<g id="edge64" class="edge">
<title>roo_windows&#45;&gt;roo_time</title>
<path fill="none" stroke="red" d="M433.78,-661.84C384.08,-651.9 318.5,-628.62 318.5,-575 318.5,-575 318.5,-575 318.5,-429 318.5,-391.18 508.24,-190.73 540.5,-171 563.01,-157.24 722.05,-122.65 804.77,-105.28"/>
<polygon fill="red" stroke="red" points="805.63,-108.68 814.7,-103.2 804.2,-101.83 805.63,-108.68"/>
<text text-anchor="middle" x="390.5" y="-385" font-family="Times,serif" font-size="10.00" fill="red">1.3.2</text>
<text text-anchor="middle" x="390.5" y="-374" font-family="Times,serif" font-size="10.00" fill="red">(latest: 1.4.0)</text>
</g>
<!-- roo_windows_wifi -->
<g id="node25" class="node">
<title>roo_windows_wifi</title>
<polygon fill="plum" stroke="black" points="141,-764 0,-764 0,-726 141,-726 141,-764"/>
<text text-anchor="middle" x="70.5" y="-748.8" font-family="Times,serif" font-size="14.00">roo_windows_wifi</text>
<text text-anchor="middle" x="70.5" y="-733.8" font-family="Times,serif" font-size="14.00">1.1.2</text>
</g>
<!-- roo_windows_wifi&#45;&gt;roo_testing -->
<g id="edge65" class="edge">
<title>roo_windows_wifi&#45;&gt;roo_testing</title>
<path fill="none" stroke="red" d="M54.82,-725.83C44.36,-711.82 32.5,-691.43 32.5,-671 32.5,-671 32.5,-671 32.5,-93 32.5,-27.51 515.35,-20.38 685.79,-19.9"/>
<polygon fill="red" stroke="red" points="685.85,-23.4 695.84,-19.88 685.83,-16.4 685.85,-23.4"/>
<text text-anchor="middle" x="65.5" y="-385" font-family="Times,serif" font-size="10.00" fill="red">1.1.7</text>
<text text-anchor="middle" x="65.5" y="-374" font-family="Times,serif" font-size="10.00" fill="red">(latest: 1.2.0)</text>
</g>
<!-- roo_windows_wifi&#45;&gt;roo_wifi -->
<g id="edge66" class="edge">
<title>roo_windows_wifi&#45;&gt;roo_wifi</title>
<path fill="none" stroke="red" d="M66.45,-725.92C61.43,-699.5 55.38,-649.31 71.5,-611 91.02,-564.62 135.5,-526.1 167.66,-502.87"/>
<polygon fill="red" stroke="red" points="169.81,-505.64 175.96,-497.01 165.77,-499.92 169.81,-505.64"/>
<text text-anchor="middle" x="104.5" y="-625" font-family="Times,serif" font-size="10.00" fill="red">1.1.1</text>
<text text-anchor="middle" x="104.5" y="-614" font-family="Times,serif" font-size="10.00" fill="red">(latest: 1.1.2)</text>
</g>
<!-- roo_windows_wifi&#45;&gt;roo_windows -->
<g id="edge67" class="edge">
<title>roo_windows_wifi&#45;&gt;roo_windows</title>
<path fill="none" stroke="black" d="M141.41,-731.62C220.54,-717.8 347.49,-695.63 423.95,-682.27"/>
<polygon fill="black" stroke="black" points="424.68,-685.7 433.93,-680.53 423.48,-678.8 424.68,-685.7"/>
</g>
</g>
</svg>
