<?xml version="1.0" encoding="UTF-8" standalone="no"?>
<!DOCTYPE svg PUBLIC "-//W3C//DTD SVG 1.1//EN"
 "http://www.w3.org/Graphics/SVG/1.1/DTD/svg11.dtd">
<!-- Generated by graphviz version 2.42.4 (0)
 -->
<!-- Title: dependencies Pages: 1 -->
<svg width="1611pt" height="788pt"
 viewBox="0.00 0.00 1610.50 788.00" xmlns="http://www.w3.org/2000/svg" xmlns:xlink="http://www.w3.org/1999/xlink">
<g id="graph0" class="graph" transform="scale(1 1) rotate(0) translate(4 784)">
<title>dependencies</title>
<polygon fill="white" stroke="transparent" points="-4,4 -4,-784 1606.5,-784 1606.5,4 -4,4"/>
<!-- roo_backport -->
<g id="node1" class="node">
<title>roo_backport</title>
<polygon fill="#b1dbab" stroke="black" points="1087.5,-188 998.5,-188 998.5,-150 1087.5,-150 1087.5,-188"/>
<text text-anchor="middle" x="1043" y="-172.8" font-family="Times,serif" font-size="14.00">roo_backport</text>
<text text-anchor="middle" x="1043" y="-157.8" font-family="Times,serif" font-size="14.00">1.1.1</text>
</g>
<!-- roo_blink -->
<g id="node2" class="node">
<title>roo_blink</title>
<polygon fill="#b1dbab" stroke="black" points="347.5,-476 278.5,-476 278.5,-438 347.5,-438 347.5,-476"/>
<text text-anchor="middle" x="313" y="-460.8" font-family="Times,serif" font-size="14.00">roo_blink</text>
<text text-anchor="middle" x="313" y="-445.8" font-family="Times,serif" font-size="14.00">1.0.2</text>
</g>
<!-- roo_logging -->
<g id="node13" class="node">
<title>roo_logging</title>
<polygon fill="#b1dbab" stroke="black" points="391.5,-284 308.5,-284 308.5,-246 391.5,-246 391.5,-284"/>
<text text-anchor="middle" x="350" y="-268.8" font-family="Times,serif" font-size="14.00">roo_logging</text>
<text text-anchor="middle" x="350" y="-253.8" font-family="Times,serif" font-size="14.00">1.4.3</text>
</g>
<!-- roo_blink&#45;&gt;roo_logging -->
<g id="edge1" class="edge">
<title>roo_blink&#45;&gt;roo_logging</title>
<path fill="none" stroke="black" d="M303.82,-437.83C293.56,-414.99 279.76,-374.8 291,-342 297.47,-323.11 310.76,-305.29 323.1,-291.66"/>
<polygon fill="black" stroke="black" points="325.87,-293.82 330.19,-284.14 320.78,-289.02 325.87,-293.82"/>
</g>
<!-- roo_scheduler -->
<g id="node19" class="node">
<title>roo_scheduler</title>
<polygon fill="#b1dbab" stroke="black" points="535.5,-380 442.5,-380 442.5,-342 535.5,-342 535.5,-380"/>
<text text-anchor="middle" x="489" y="-364.8" font-family="Times,serif" font-size="14.00">roo_scheduler</text>
<text text-anchor="middle" x="489" y="-349.8" font-family="Times,serif" font-size="14.00">2.1.5</text>
</g>
<!-- roo_blink&#45;&gt;roo_scheduler -->
<g id="edge2" class="edge">
<title>roo_blink&#45;&gt;roo_scheduler</title>
<path fill="none" stroke="black" d="M347.8,-440.89C350.88,-439.82 353.98,-438.84 357,-438 408.13,-423.86 435.92,-455.88 475,-420 483.27,-412.41 487.05,-400.85 488.65,-390.05"/>
<polygon fill="black" stroke="black" points="492.14,-390.36 489.6,-380.07 485.17,-389.69 492.14,-390.36"/>
</g>
<!-- roo_collections -->
<g id="node3" class="node">
<title>roo_collections</title>
<polygon fill="#b1dbab" stroke="black" points="1134,-284 1034,-284 1034,-246 1134,-246 1134,-284"/>
<text text-anchor="middle" x="1084" y="-268.8" font-family="Times,serif" font-size="14.00">roo_collections</text>
<text text-anchor="middle" x="1084" y="-253.8" font-family="Times,serif" font-size="14.00">1.3.2</text>
</g>
<!-- roo_collections&#45;&gt;roo_backport -->
<g id="edge3" class="edge">
<title>roo_collections&#45;&gt;roo_backport</title>
<path fill="none" stroke="black" d="M1076.09,-245.88C1070.08,-232.09 1061.71,-212.9 1054.89,-197.26"/>
<polygon fill="black" stroke="black" points="1058.09,-195.84 1050.88,-188.07 1051.67,-198.63 1058.09,-195.84"/>
</g>
<!-- roo_comms -->
<g id="node4" class="node">
<title>roo_comms</title>
<polygon fill="plum" stroke="black" points="383,-684 301,-684 301,-646 383,-646 383,-684"/>
<text text-anchor="middle" x="342" y="-668.8" font-family="Times,serif" font-size="14.00">roo_comms</text>
<text text-anchor="middle" x="342" y="-653.8" font-family="Times,serif" font-size="14.00">1.1.1</text>
</g>
<!-- roo_comms&#45;&gt;roo_blink -->
<g id="edge5" class="edge">
<title>roo_comms&#45;&gt;roo_blink</title>
<path fill="none" stroke="red" d="M320.2,-645.79C301.78,-628.86 276.73,-601.83 266,-572 255.08,-541.63 273.32,-507.5 290.16,-484.57"/>
<polygon fill="red" stroke="red" points="293.15,-486.42 296.48,-476.36 287.61,-482.14 293.15,-486.42"/>
<text text-anchor="middle" x="293" y="-556" font-family="Times,serif" font-size="10.00" fill="red">1.0.1</text>
<text text-anchor="middle" x="293" y="-545" font-family="Times,serif" font-size="10.00" fill="red">(latest: 1.0.2)</text>
</g>
<!-- roo_comms&#45;&gt;roo_collections -->
<g id="edge6" class="edge">
<title>roo_comms&#45;&gt;roo_collections</title>
<path fill="none" stroke="black" d="M383.15,-663.16C475.72,-660.85 697.76,-652.82 768,-628 868.19,-592.6 866.69,-531.81 966,-494 1022.57,-472.46 1055.53,-515.95 1101,-476 1159.29,-424.8 1148.19,-372.12 1115,-302 1113.39,-298.59 1111.36,-295.26 1109.13,-292.07"/>
<polygon fill="black" stroke="black" points="1111.77,-289.77 1102.84,-284.06 1106.26,-294.09 1111.77,-289.77"/>
</g>
<!-- roo_control -->
<g id="node5" class="node">
<title>roo_control</title>
<polygon fill="plum" stroke="black" points="170,-476 90,-476 90,-438 170,-438 170,-476"/>
<text text-anchor="middle" x="130" y="-460.8" font-family="Times,serif" font-size="14.00">roo_control</text>
<text text-anchor="middle" x="130" y="-445.8" font-family="Times,serif" font-size="14.00">1.2.1</text>
</g>
<!-- roo_comms&#45;&gt;roo_control -->
<g id="edge7" class="edge">
<title>roo_comms&#45;&gt;roo_control</title>
<path fill="none" stroke="black" d="M300.9,-664.31C267.71,-662.4 221.78,-654.56 192,-628 150.71,-591.17 136.89,-524.56 132.28,-486.57"/>
<polygon fill="black" stroke="black" points="135.72,-485.78 131.17,-476.22 128.76,-486.53 135.72,-485.78"/>
</g>
<!-- roo_io -->
<g id="node10" class="node">
<title>roo_io</title>
<polygon fill="#b1dbab" stroke="black" points="1030,-380 976,-380 976,-342 1030,-342 1030,-380"/>
<text text-anchor="middle" x="1003" y="-364.8" font-family="Times,serif" font-size="14.00">roo_io</text>
<text text-anchor="middle" x="1003" y="-349.8" font-family="Times,serif" font-size="14.00">2.0.3</text>
</g>
<!-- roo_comms&#45;&gt;roo_io -->
<g id="edge8" class="edge">
<title>roo_comms&#45;&gt;roo_io</title>
<path fill="none" stroke="red" d="M383.27,-662.42C478.88,-658.47 709.64,-647.04 739,-628 796.26,-590.86 758.77,-534.09 814,-494 847.36,-469.78 869.39,-496.77 905,-476 924.08,-464.87 960.78,-418.61 983.45,-388.55"/>
<polygon fill="red" stroke="red" points="986.54,-390.27 989.73,-380.17 980.93,-386.07 986.54,-390.27"/>
<text text-anchor="middle" x="841" y="-508" font-family="Times,serif" font-size="10.00" fill="red">2.0.2</text>
<text text-anchor="middle" x="841" y="-497" font-family="Times,serif" font-size="10.00" fill="red">(latest: 2.0.3)</text>
</g>
<!-- roo_comms&#45;&gt;roo_logging -->
<g id="edge9" class="edge">
<title>roo_comms&#45;&gt;roo_logging</title>
<path fill="none" stroke="red" d="M300.81,-649.61C289.97,-644.21 279.06,-637.11 271,-628 212.75,-562.16 193.13,-522.89 216,-438 234.18,-370.5 246.91,-352.73 295,-302 299.07,-297.7 303.76,-293.67 308.63,-289.97"/>
<polygon fill="red" stroke="red" points="310.82,-292.71 316.95,-284.06 306.77,-287 310.82,-292.71"/>
<text text-anchor="middle" x="243" y="-460" font-family="Times,serif" font-size="10.00" fill="red">1.4.2</text>
<text text-anchor="middle" x="243" y="-449" font-family="Times,serif" font-size="10.00" fill="red">(latest: 1.4.3)</text>
</g>
<!-- roo_prefs -->
<g id="node17" class="node">
<title>roo_prefs</title>
<polygon fill="#b1dbab" stroke="black" points="537,-476 469,-476 469,-438 537,-438 537,-476"/>
<text text-anchor="middle" x="503" y="-460.8" font-family="Times,serif" font-size="14.00">roo_prefs</text>
<text text-anchor="middle" x="503" y="-445.8" font-family="Times,serif" font-size="14.00">1.2.3</text>
</g>
<!-- roo_comms&#45;&gt;roo_prefs -->
<g id="edge10" class="edge">
<title>roo_comms&#45;&gt;roo_prefs</title>
<path fill="none" stroke="red" d="M338.01,-645.84C333.19,-618.95 328.28,-568.07 351,-534 357.64,-524.04 416.91,-496.19 459.43,-477.11"/>
<polygon fill="red" stroke="red" points="461.06,-480.22 468.76,-472.95 458.21,-473.83 461.06,-480.22"/>
<text text-anchor="middle" x="378" y="-556" font-family="Times,serif" font-size="10.00" fill="red">1.2.2</text>
<text text-anchor="middle" x="378" y="-545" font-family="Times,serif" font-size="10.00" fill="red">(latest: 1.2.3)</text>
</g>
<!-- roo_comms&#45;&gt;roo_scheduler -->
<g id="edge11" class="edge">
<title>roo_comms&#45;&gt;roo_scheduler</title>
<path fill="none" stroke="red" d="M383.21,-659.95C412.32,-655.57 451.28,-646.54 481,-628 508.81,-610.65 514.98,-601.63 529,-572 545.57,-536.98 560.33,-430.98 540,-398 537.47,-393.89 534.27,-390.12 530.72,-386.7"/>
<polygon fill="red" stroke="red" points="532.92,-383.98 523.04,-380.16 528.39,-389.31 532.92,-383.98"/>
<text text-anchor="middle" x="574" y="-508" font-family="Times,serif" font-size="10.00" fill="red">2.1.4</text>
<text text-anchor="middle" x="574" y="-497" font-family="Times,serif" font-size="10.00" fill="red">(latest: 2.1.5)</text>
</g>
<!-- roo_testing -->
<g id="node20" class="node">
<title>roo_testing</title>
<polygon fill="#b1dbab" stroke="black" points="1225.5,-38 1148.5,-38 1148.5,0 1225.5,0 1225.5,-38"/>
<text text-anchor="middle" x="1187" y="-22.8" font-family="Times,serif" font-size="14.00">roo_testing</text>
<text text-anchor="middle" x="1187" y="-7.8" font-family="Times,serif" font-size="14.00">1.1.8</text>
</g>
<!-- roo_comms&#45;&gt;roo_testing -->
<g id="edge4" class="edge">
<title>roo_comms&#45;&gt;roo_testing</title>
<path fill="none" stroke="red" d="M300.67,-663.43C252.15,-661.48 170.06,-654.16 105,-628 52.03,-606.7 0,-611.09 0,-554 0,-554 0,-554 0,-93 0,-35.01 914.35,-22.58 1138.06,-20.41"/>
<polygon fill="red" stroke="red" points="1138.21,-23.91 1148.18,-20.31 1138.15,-16.91 1138.21,-23.91"/>
<text text-anchor="middle" x="27" y="-316" font-family="Times,serif" font-size="10.00" fill="red">1.1.7</text>
<text text-anchor="middle" x="27" y="-305" font-family="Times,serif" font-size="10.00" fill="red">(latest: 1.1.8)</text>
</g>
<!-- roo_threads -->
<g id="node21" class="node">
<title>roo_threads</title>
<polygon fill="#b1dbab" stroke="black" points="506,-188 426,-188 426,-150 506,-150 506,-188"/>
<text text-anchor="middle" x="466" y="-172.8" font-family="Times,serif" font-size="14.00">roo_threads</text>
<text text-anchor="middle" x="466" y="-157.8" font-family="Times,serif" font-size="14.00">1.1.6</text>
</g>
<!-- roo_comms&#45;&gt;roo_threads -->
<g id="edge12" class="edge">
<title>roo_comms&#45;&gt;roo_threads</title>
<path fill="none" stroke="red" d="M300.9,-659.83C254.38,-654.43 182.16,-643.81 160,-628 65.97,-560.93 -15,-500.1 39,-398 115.11,-254.11 320.49,-197.44 415.95,-178.37"/>
<polygon fill="red" stroke="red" points="416.79,-181.78 425.94,-176.44 415.46,-174.9 416.79,-181.78"/>
<text text-anchor="middle" x="66" y="-412" font-family="Times,serif" font-size="10.00" fill="red">1.1.5</text>
<text text-anchor="middle" x="66" y="-401" font-family="Times,serif" font-size="10.00" fill="red">(latest: 1.1.6)</text>
</g>
<!-- roo_time -->
<g id="node22" class="node">
<title>roo_time</title>
<polygon fill="#b1dbab" stroke="black" points="697,-113 631,-113 631,-75 697,-75 697,-113"/>
<text text-anchor="middle" x="664" y="-97.8" font-family="Times,serif" font-size="14.00">roo_time</text>
<text text-anchor="middle" x="664" y="-82.8" font-family="Times,serif" font-size="14.00">1.3.3</text>
</g>
<!-- roo_comms&#45;&gt;roo_time -->
<g id="edge13" class="edge">
<title>roo_comms&#45;&gt;roo_time</title>
<path fill="none" stroke="red" d="M383.17,-661.76C461.33,-654.93 628.87,-627.36 690,-516 694.71,-507.43 694.54,-502.66 690,-494 683.48,-481.55 672.69,-487.05 664,-476 635.73,-440.06 635.36,-424.95 627,-380 617.88,-330.96 645.57,-184.69 658.14,-122.97"/>
<polygon fill="red" stroke="red" points="661.58,-123.64 660.16,-113.14 654.72,-122.23 661.58,-123.64"/>
<text text-anchor="middle" x="654" y="-364" font-family="Times,serif" font-size="10.00" fill="red">1.3.2</text>
<text text-anchor="middle" x="654" y="-353" font-family="Times,serif" font-size="10.00" fill="red">(latest: 1.3.3)</text>
</g>
<!-- roo_transceivers -->
<g id="node24" class="node">
<title>roo_transceivers</title>
<polygon fill="#b1dbab" stroke="black" points="520,-572 414,-572 414,-534 520,-534 520,-572"/>
<text text-anchor="middle" x="467" y="-556.8" font-family="Times,serif" font-size="14.00">roo_transceivers</text>
<text text-anchor="middle" x="467" y="-541.8" font-family="Times,serif" font-size="14.00">1.1.3</text>
</g>
<!-- roo_comms&#45;&gt;roo_transceivers -->
<g id="edge14" class="edge">
<title>roo_comms&#45;&gt;roo_transceivers</title>
<path fill="none" stroke="red" d="M362.64,-645.84C383.36,-627.6 415.43,-599.38 438.56,-579.03"/>
<polygon fill="red" stroke="red" points="441.13,-581.43 446.33,-572.19 436.51,-576.17 441.13,-581.43"/>
<text text-anchor="middle" x="450" y="-612" font-family="Times,serif" font-size="10.00" fill="red">1.1.2</text>
<text text-anchor="middle" x="450" y="-601" font-family="Times,serif" font-size="10.00" fill="red">(latest: 1.1.3)</text>
</g>
<!-- roo_control&#45;&gt;roo_logging -->
<g id="edge16" class="edge">
<title>roo_control&#45;&gt;roo_logging</title>
<path fill="none" stroke="red" d="M132.2,-437.86C135.83,-413.98 144.91,-371.57 166,-342 196.38,-299.41 255.16,-280.61 298.14,-272.36"/>
<polygon fill="red" stroke="red" points="298.92,-275.78 308.14,-270.58 297.68,-268.89 298.92,-275.78"/>
<text text-anchor="middle" x="193" y="-364" font-family="Times,serif" font-size="10.00" fill="red">1.4.2</text>
<text text-anchor="middle" x="193" y="-353" font-family="Times,serif" font-size="10.00" fill="red">(latest: 1.4.3)</text>
</g>
<!-- roo_quantity -->
<g id="node18" class="node">
<title>roo_quantity</title>
<polygon fill="#b1dbab" stroke="black" points="386,-380 300,-380 300,-342 386,-342 386,-380"/>
<text text-anchor="middle" x="343" y="-364.8" font-family="Times,serif" font-size="14.00">roo_quantity</text>
<text text-anchor="middle" x="343" y="-349.8" font-family="Times,serif" font-size="14.00">1.1.3</text>
</g>
<!-- roo_control&#45;&gt;roo_quantity -->
<g id="edge17" class="edge">
<title>roo_control&#45;&gt;roo_quantity</title>
<path fill="none" stroke="red" d="M170.06,-438.32C204.84,-422.97 255.34,-400.68 292.8,-384.15"/>
<polygon fill="red" stroke="red" points="294.29,-387.32 302.03,-380.08 291.47,-380.92 294.29,-387.32"/>
<text text-anchor="middle" x="282" y="-412" font-family="Times,serif" font-size="10.00" fill="red">1.1.2</text>
<text text-anchor="middle" x="282" y="-401" font-family="Times,serif" font-size="10.00" fill="red">(latest: 1.1.3)</text>
</g>
<!-- roo_control&#45;&gt;roo_scheduler -->
<g id="edge18" class="edge">
<title>roo_control&#45;&gt;roo_scheduler</title>
<path fill="none" stroke="red" d="M170.17,-441.72C174.8,-440.34 179.48,-439.06 184,-438 240.36,-424.79 256.62,-433.11 313,-420 353.64,-410.55 398.28,-395.79 432.43,-383.52"/>
<polygon fill="red" stroke="red" points="434.01,-386.67 442.22,-379.97 431.63,-380.09 434.01,-386.67"/>
<text text-anchor="middle" x="413" y="-412" font-family="Times,serif" font-size="10.00" fill="red">2.1.4</text>
<text text-anchor="middle" x="413" y="-401" font-family="Times,serif" font-size="10.00" fill="red">(latest: 2.1.5)</text>
</g>
<!-- roo_control&#45;&gt;roo_testing -->
<g id="edge15" class="edge">
<title>roo_control&#45;&gt;roo_testing</title>
<path fill="none" stroke="red" d="M124.27,-437.83C116.35,-411.02 103,-359.17 103,-314 103,-314 103,-314 103,-93 103,-40.37 927.25,-24.02 1138.26,-20.69"/>
<polygon fill="red" stroke="red" points="1138.48,-24.19 1148.42,-20.54 1138.37,-17.19 1138.48,-24.19"/>
<text text-anchor="middle" x="130" y="-220" font-family="Times,serif" font-size="10.00" fill="red">1.1.7</text>
<text text-anchor="middle" x="130" y="-209" font-family="Times,serif" font-size="10.00" fill="red">(latest: 1.1.8)</text>
</g>
<!-- roo_dashboard -->
<g id="node6" class="node">
<title>roo_dashboard</title>
<polygon fill="plum" stroke="black" points="1499.5,-780 1402.5,-780 1402.5,-742 1499.5,-742 1499.5,-780"/>
<text text-anchor="middle" x="1451" y="-764.8" font-family="Times,serif" font-size="14.00">roo_dashboard</text>
<text text-anchor="middle" x="1451" y="-749.8" font-family="Times,serif" font-size="14.00">1.0.1</text>
</g>
<!-- roo_dashboard&#45;&gt;roo_testing -->
<g id="edge19" class="edge">
<title>roo_dashboard&#45;&gt;roo_testing</title>
<path fill="none" stroke="red" d="M1458.15,-741.95C1464.9,-723.25 1474,-693.05 1474,-666 1474,-666 1474,-666 1474,-93 1474,-44.44 1317.7,-27.79 1235.79,-22.41"/>
<polygon fill="red" stroke="red" points="1235.91,-18.91 1225.71,-21.78 1235.47,-25.89 1235.91,-18.91"/>
<text text-anchor="middle" x="1501" y="-364" font-family="Times,serif" font-size="10.00" fill="red">1.1.7</text>
<text text-anchor="middle" x="1501" y="-353" font-family="Times,serif" font-size="10.00" fill="red">(latest: 1.1.8)</text>
</g>
<!-- roo_windows -->
<g id="node27" class="node">
<title>roo_windows</title>
<polygon fill="plum" stroke="black" points="1007,-684 917,-684 917,-646 1007,-646 1007,-684"/>
<text text-anchor="middle" x="962" y="-668.8" font-family="Times,serif" font-size="14.00">roo_windows</text>
<text text-anchor="middle" x="962" y="-653.8" font-family="Times,serif" font-size="14.00">1.4.1</text>
</g>
<!-- roo_dashboard&#45;&gt;roo_windows -->
<g id="edge20" class="edge">
<title>roo_dashboard&#45;&gt;roo_windows</title>
<path fill="none" stroke="black" d="M1402.33,-750.64C1310.75,-733.04 1113.4,-695.1 1017.1,-676.59"/>
<polygon fill="black" stroke="black" points="1017.75,-673.15 1007.27,-674.7 1016.43,-680.03 1017.75,-673.15"/>
</g>
<!-- roo_display -->
<g id="node7" class="node">
<title>roo_display</title>
<polygon fill="plum" stroke="black" points="1228,-476 1148,-476 1148,-438 1228,-438 1228,-476"/>
<text text-anchor="middle" x="1188" y="-460.8" font-family="Times,serif" font-size="14.00">roo_display</text>
<text text-anchor="middle" x="1188" y="-445.8" font-family="Times,serif" font-size="14.00">2.3.1</text>
</g>
<!-- roo_display&#45;&gt;roo_collections -->
<g id="edge22" class="edge">
<title>roo_display&#45;&gt;roo_collections</title>
<path fill="none" stroke="black" d="M1188.24,-437.84C1187.72,-406.8 1182.56,-342.94 1151,-302 1147.44,-297.38 1143.11,-293.28 1138.38,-289.66"/>
<polygon fill="black" stroke="black" points="1140.35,-286.76 1130.12,-284.01 1136.4,-292.54 1140.35,-286.76"/>
</g>
<!-- roo_display&#45;&gt;roo_io -->
<g id="edge23" class="edge">
<title>roo_display&#45;&gt;roo_io</title>
<path fill="none" stroke="red" d="M1147.7,-438.95C1134.6,-433.18 1120.08,-426.54 1107,-420 1083.91,-408.46 1058.6,-394.38 1038.73,-382.98"/>
<polygon fill="red" stroke="red" points="1040.42,-379.91 1030.01,-377.95 1036.92,-385.98 1040.42,-379.91"/>
<text text-anchor="middle" x="1134" y="-412" font-family="Times,serif" font-size="10.00" fill="red">2.0.2</text>
<text text-anchor="middle" x="1134" y="-401" font-family="Times,serif" font-size="10.00" fill="red">(latest: 2.0.3)</text>
</g>
<!-- roo_display&#45;&gt;roo_testing -->
<g id="edge21" class="edge">
<title>roo_display&#45;&gt;roo_testing</title>
<path fill="none" stroke="red" d="M1194.67,-437.93C1196.44,-432.27 1198.11,-425.95 1199,-420 1200.44,-410.33 1199.32,-407.77 1199,-398 1196.55,-322.33 1190.63,-303.67 1188,-228 1185.77,-163.7 1186.16,-88.15 1186.6,-48.16"/>
<polygon fill="red" stroke="red" points="1190.1,-48.13 1186.72,-38.09 1183.1,-48.05 1190.1,-48.13"/>
<text text-anchor="middle" x="1215" y="-220" font-family="Times,serif" font-size="10.00" fill="red">1.1.7</text>
<text text-anchor="middle" x="1215" y="-209" font-family="Times,serif" font-size="10.00" fill="red">(latest: 1.1.8)</text>
</g>
<!-- roo_flags -->
<g id="node8" class="node">
<title>roo_flags</title>
<polygon fill="#b1dbab" stroke="black" points="206,-188 138,-188 138,-150 206,-150 206,-188"/>
<text text-anchor="middle" x="172" y="-172.8" font-family="Times,serif" font-size="14.00">roo_flags</text>
<text text-anchor="middle" x="172" y="-157.8" font-family="Times,serif" font-size="14.00">1.1.1</text>
</g>
<!-- roo_icons -->
<g id="node9" class="node">
<title>roo_icons</title>
<polygon fill="plum" stroke="black" points="1354,-572 1284,-572 1284,-534 1354,-534 1354,-572"/>
<text text-anchor="middle" x="1319" y="-556.8" font-family="Times,serif" font-size="14.00">roo_icons</text>
<text text-anchor="middle" x="1319" y="-541.8" font-family="Times,serif" font-size="14.00">1.2.1</text>
</g>
<!-- roo_icons&#45;&gt;roo_display -->
<g id="edge25" class="edge">
<title>roo_icons&#45;&gt;roo_display</title>
<path fill="none" stroke="black" d="M1293.74,-533.88C1273.17,-519.12 1243.96,-498.15 1221.45,-482"/>
<polygon fill="black" stroke="black" points="1223.35,-479.05 1213.18,-476.07 1219.26,-484.74 1223.35,-479.05"/>
</g>
<!-- roo_icons&#45;&gt;roo_testing -->
<g id="edge24" class="edge">
<title>roo_icons&#45;&gt;roo_testing</title>
<path fill="none" stroke="red" d="M1318.88,-533.78C1318.52,-492.49 1317.02,-388.64 1311,-302 1308.4,-264.54 1302,-255.55 1302,-218 1302,-218 1302,-218 1302,-93 1302,-59.46 1266.7,-40.68 1235.22,-30.59"/>
<polygon fill="red" stroke="red" points="1236.2,-27.23 1225.61,-27.74 1234.2,-33.94 1236.2,-27.23"/>
<text text-anchor="middle" x="1336" y="-268" font-family="Times,serif" font-size="10.00" fill="red">1.1.7</text>
<text text-anchor="middle" x="1336" y="-257" font-family="Times,serif" font-size="10.00" fill="red">(latest: 1.1.8)</text>
</g>
<!-- roo_io&#45;&gt;roo_backport -->
<g id="edge26" class="edge">
<title>roo_io&#45;&gt;roo_backport</title>
<path fill="none" stroke="black" d="M1006.27,-341.79C1010.38,-319.24 1017.76,-279.7 1025,-246 1028.44,-230 1032.63,-212.19 1036.11,-197.84"/>
<polygon fill="black" stroke="black" points="1039.52,-198.62 1038.49,-188.07 1032.72,-196.96 1039.52,-198.62"/>
</g>
<!-- roo_io&#45;&gt;roo_logging -->
<g id="edge27" class="edge">
<title>roo_io&#45;&gt;roo_logging</title>
<path fill="none" stroke="black" d="M975.87,-346.91C945.35,-332.9 893.88,-311.42 847,-302 653.81,-263.18 597.83,-319.51 404,-284 403.11,-283.84 402.21,-283.66 401.31,-283.48"/>
<polygon fill="black" stroke="black" points="402.1,-280.07 391.56,-281.14 400.47,-286.87 402.1,-280.07"/>
</g>
<!-- roo_io_sdfat -->
<g id="node11" class="node">
<title>roo_io_sdfat</title>
<polygon fill="plum" stroke="black" points="1602.5,-780 1517.5,-780 1517.5,-742 1602.5,-742 1602.5,-780"/>
<text text-anchor="middle" x="1560" y="-764.8" font-family="Times,serif" font-size="14.00">roo_io_sdfat</text>
<text text-anchor="middle" x="1560" y="-749.8" font-family="Times,serif" font-size="14.00">1.0.0</text>
</g>
<!-- roo_locale -->
<g id="node12" class="node">
<title>roo_locale</title>
<polygon fill="#b1dbab" stroke="black" points="1064,-572 990,-572 990,-534 1064,-534 1064,-572"/>
<text text-anchor="middle" x="1027" y="-556.8" font-family="Times,serif" font-size="14.00">roo_locale</text>
<text text-anchor="middle" x="1027" y="-541.8" font-family="Times,serif" font-size="14.00">1.1.1</text>
</g>
<!-- roo_logging&#45;&gt;roo_flags -->
<g id="edge28" class="edge">
<title>roo_logging&#45;&gt;roo_flags</title>
<path fill="none" stroke="black" d="M315.68,-245.88C287.12,-230.79 246.28,-209.23 215.44,-192.94"/>
<polygon fill="black" stroke="black" points="216.69,-189.64 206.21,-188.07 213.42,-195.83 216.69,-189.64"/>
</g>
<!-- roo_logging&#45;&gt;roo_threads -->
<g id="edge29" class="edge">
<title>roo_logging&#45;&gt;roo_threads</title>
<path fill="none" stroke="black" d="M372.37,-245.88C390.42,-231.25 415.99,-210.52 435.85,-194.43"/>
<polygon fill="black" stroke="black" points="438.14,-197.08 443.7,-188.07 433.73,-191.65 438.14,-197.08"/>
</g>
<!-- roo_monitoring -->
<g id="node14" class="node">
<title>roo_monitoring</title>
<polygon fill="plum" stroke="black" points="1092,-476 990,-476 990,-438 1092,-438 1092,-476"/>
<text text-anchor="middle" x="1041" y="-460.8" font-family="Times,serif" font-size="14.00">roo_monitoring</text>
<text text-anchor="middle" x="1041" y="-445.8" font-family="Times,serif" font-size="14.00">1.0.0</text>
</g>
<!-- roo_monitoring&#45;&gt;roo_collections -->
<g id="edge30" class="edge">
<title>roo_monitoring&#45;&gt;roo_collections</title>
<path fill="none" stroke="black" d="M1081.28,-437.97C1087.99,-433.12 1094.05,-427.18 1098,-420 1119.75,-380.54 1106.96,-326.63 1095.58,-294.17"/>
<polygon fill="black" stroke="black" points="1098.73,-292.6 1091.97,-284.44 1092.16,-295.03 1098.73,-292.6"/>
</g>
<!-- roo_monitoring&#45;&gt;roo_io -->
<g id="edge31" class="edge">
<title>roo_monitoring&#45;&gt;roo_io</title>
<path fill="none" stroke="black" d="M1032.02,-437.83C1029.33,-432.17 1026.44,-425.87 1024,-420 1019.94,-410.24 1015.89,-399.38 1012.44,-389.73"/>
<polygon fill="black" stroke="black" points="1015.71,-388.47 1009.1,-380.19 1009.11,-390.79 1015.71,-388.47"/>
</g>
<!-- roo_onewire -->
<g id="node15" class="node">
<title>roo_onewire</title>
<polygon fill="#b1dbab" stroke="black" points="450.5,-476 365.5,-476 365.5,-438 450.5,-438 450.5,-476"/>
<text text-anchor="middle" x="408" y="-460.8" font-family="Times,serif" font-size="14.00">roo_onewire</text>
<text text-anchor="middle" x="408" y="-445.8" font-family="Times,serif" font-size="14.00">2.0.5</text>
</g>
<!-- roo_onewire&#45;&gt;roo_quantity -->
<g id="edge33" class="edge">
<title>roo_onewire&#45;&gt;roo_quantity</title>
<path fill="none" stroke="black" d="M388.36,-437.88C383.02,-432.42 377.48,-426.22 373,-420 366.17,-410.52 359.98,-399.27 355.02,-389.22"/>
<polygon fill="black" stroke="black" points="358.11,-387.57 350.65,-380.04 351.78,-390.57 358.11,-387.57"/>
</g>
<!-- roo_onewire&#45;&gt;roo_scheduler -->
<g id="edge32" class="edge">
<title>roo_onewire&#45;&gt;roo_scheduler</title>
<path fill="none" stroke="black" d="M450.72,-440.49C473.99,-431.84 498.4,-422.34 500,-420 506.04,-411.15 505.31,-399.85 502.33,-389.58"/>
<polygon fill="black" stroke="black" points="505.62,-388.38 498.94,-380.16 499.04,-390.76 505.62,-388.38"/>
</g>
<!-- roo_powersafefs -->
<g id="node16" class="node">
<title>roo_powersafefs</title>
<polygon fill="plum" stroke="black" points="519.5,-284 412.5,-284 412.5,-246 519.5,-246 519.5,-284"/>
<text text-anchor="middle" x="466" y="-268.8" font-family="Times,serif" font-size="14.00">roo_powersafefs</text>
<text text-anchor="middle" x="466" y="-253.8" font-family="Times,serif" font-size="14.00">1.0.0</text>
</g>
<!-- roo_powersafefs&#45;&gt;roo_threads -->
<g id="edge34" class="edge">
<title>roo_powersafefs&#45;&gt;roo_threads</title>
<path fill="none" stroke="black" d="M466,-245.88C466,-232.35 466,-213.62 466,-198.15"/>
<polygon fill="black" stroke="black" points="469.5,-198.07 466,-188.07 462.5,-198.07 469.5,-198.07"/>
</g>
<!-- roo_prefs&#45;&gt;roo_logging -->
<g id="edge35" class="edge">
<title>roo_prefs&#45;&gt;roo_logging</title>
<path fill="none" stroke="black" d="M468.85,-441.34C465.87,-440.17 462.89,-439.04 460,-438 434.21,-428.7 418.15,-441.39 401,-420 390.13,-406.44 400.23,-358.58 395,-342 389.47,-324.49 379.27,-306.73 369.97,-292.78"/>
<polygon fill="black" stroke="black" points="372.62,-290.45 364.05,-284.21 366.86,-294.43 372.62,-290.45"/>
</g>
<!-- roo_prefs&#45;&gt;roo_scheduler -->
<g id="edge36" class="edge">
<title>roo_prefs&#45;&gt;roo_scheduler</title>
<path fill="none" stroke="black" d="M517.15,-437.86C524.33,-426.37 530.48,-411.23 525,-398 523.48,-394.34 521.39,-390.85 518.98,-387.6"/>
<polygon fill="black" stroke="black" points="521.62,-385.3 512.44,-380.01 516.31,-389.87 521.62,-385.3"/>
</g>
<!-- roo_quantity&#45;&gt;roo_logging -->
<g id="edge37" class="edge">
<title>roo_quantity&#45;&gt;roo_logging</title>
<path fill="none" stroke="black" d="M344.35,-341.88C345.36,-328.35 346.75,-309.62 347.9,-294.15"/>
<polygon fill="black" stroke="black" points="351.4,-294.3 348.65,-284.07 344.42,-293.78 351.4,-294.3"/>
</g>
<!-- roo_scheduler&#45;&gt;roo_collections -->
<g id="edge38" class="edge">
<title>roo_scheduler&#45;&gt;roo_collections</title>
<path fill="none" stroke="black" d="M535.97,-348.81C591.05,-336.02 685.22,-315.15 767,-302 855.84,-287.72 959.59,-277.07 1023.54,-271.19"/>
<polygon fill="black" stroke="black" points="1024.2,-274.64 1033.84,-270.25 1023.57,-267.67 1024.2,-274.64"/>
</g>
<!-- roo_scheduler&#45;&gt;roo_threads -->
<g id="edge39" class="edge">
<title>roo_scheduler&#45;&gt;roo_threads</title>
<path fill="none" stroke="black" d="M503.32,-341.8C519.23,-319.27 541.17,-279.74 529,-246 522.03,-226.68 507.79,-208.8 494.6,-195.24"/>
<polygon fill="black" stroke="black" points="497.02,-192.7 487.44,-188.17 492.1,-197.69 497.02,-192.7"/>
</g>
<!-- roo_threads&#45;&gt;roo_time -->
<g id="edge40" class="edge">
<title>roo_threads&#45;&gt;roo_time</title>
<path fill="none" stroke="black" d="M506.07,-153.23C539.49,-140.9 587.01,-123.38 621.18,-110.79"/>
<polygon fill="black" stroke="black" points="622.71,-113.95 630.88,-107.21 620.29,-107.38 622.71,-113.95"/>
</g>
<!-- roo_time&#45;&gt;roo_testing -->
<g id="edge41" class="edge">
<title>roo_time&#45;&gt;roo_testing</title>
<path fill="none" stroke="black" d="M697.37,-87.3C742.39,-79.7 825.13,-66.03 896,-56 981.11,-43.95 1080.55,-32.13 1138.39,-25.49"/>
<polygon fill="black" stroke="black" points="1138.81,-28.96 1148.34,-24.35 1138.01,-22.01 1138.81,-28.96"/>
</g>
<!-- roo_time_ds3231 -->
<g id="node23" class="node">
<title>roo_time_ds3231</title>
<polygon fill="#b1dbab" stroke="black" points="636,-188 524,-188 524,-150 636,-150 636,-188"/>
<text text-anchor="middle" x="580" y="-172.8" font-family="Times,serif" font-size="14.00">roo_time_ds3231</text>
<text text-anchor="middle" x="580" y="-157.8" font-family="Times,serif" font-size="14.00">1.1.3</text>
</g>
<!-- roo_time_ds3231&#45;&gt;roo_time -->
<g id="edge42" class="edge">
<title>roo_time_ds3231&#45;&gt;roo_time</title>
<path fill="none" stroke="black" d="M600.76,-149.96C611.26,-140.83 624.17,-129.62 635.57,-119.7"/>
<polygon fill="black" stroke="black" points="637.93,-122.29 643.18,-113.09 633.34,-117.01 637.93,-122.29"/>
</g>
<!-- roo_transceivers&#45;&gt;roo_prefs -->
<g id="edge43" class="edge">
<title>roo_transceivers&#45;&gt;roo_prefs</title>
<path fill="none" stroke="black" d="M473.94,-533.88C479.17,-520.22 486.43,-501.26 492.39,-485.71"/>
<polygon fill="black" stroke="black" points="495.77,-486.66 496.08,-476.07 489.24,-484.16 495.77,-486.66"/>
</g>
<!-- roo_transport -->
<g id="node25" class="node">
<title>roo_transport</title>
<polygon fill="plum" stroke="black" points="895.5,-476 806.5,-476 806.5,-438 895.5,-438 895.5,-476"/>
<text text-anchor="middle" x="851" y="-460.8" font-family="Times,serif" font-size="14.00">roo_transport</text>
<text text-anchor="middle" x="851" y="-445.8" font-family="Times,serif" font-size="14.00">1.0.1</text>
</g>
<!-- roo_transport&#45;&gt;roo_collections -->
<g id="edge45" class="edge">
<title>roo_transport&#45;&gt;roo_collections</title>
<path fill="none" stroke="black" d="M853.4,-437.82C855.97,-425.12 861.25,-408.6 872,-398 889.42,-380.83 902.88,-392.33 924,-380 946.02,-367.14 946.7,-357.43 967,-342 991.96,-323.02 1021.6,-303.81 1044.8,-289.44"/>
<polygon fill="black" stroke="black" points="1046.67,-292.4 1053.35,-284.18 1043,-286.44 1046.67,-292.4"/>
</g>
<!-- roo_transport&#45;&gt;roo_io -->
<g id="edge46" class="edge">
<title>roo_transport&#45;&gt;roo_io</title>
<path fill="none" stroke="red" d="M859.43,-437.92C866.39,-424.93 877.48,-408.01 892,-398 918.45,-379.77 931.64,-390.49 962,-380 963.42,-379.51 964.87,-378.99 966.32,-378.45"/>
<polygon fill="red" stroke="red" points="967.9,-381.58 975.9,-374.63 965.31,-375.08 967.9,-381.58"/>
<text text-anchor="middle" x="919" y="-412" font-family="Times,serif" font-size="10.00" fill="red">2.0.2</text>
<text text-anchor="middle" x="919" y="-401" font-family="Times,serif" font-size="10.00" fill="red">(latest: 2.0.3)</text>
</g>
<!-- roo_transport&#45;&gt;roo_logging -->
<g id="edge47" class="edge">
<title>roo_transport&#45;&gt;roo_logging</title>
<path fill="none" stroke="red" d="M817.98,-437.93C810.48,-432.81 802.97,-426.76 797,-420 771.35,-390.94 788.56,-365.83 758,-342 632.28,-243.96 559.84,-317.66 404,-284 403.11,-283.81 402.22,-283.61 401.32,-283.4"/>
<polygon fill="red" stroke="red" points="402.17,-280 391.61,-280.87 400.41,-286.78 402.17,-280"/>
<text text-anchor="middle" x="806" y="-364" font-family="Times,serif" font-size="10.00" fill="red">1.4.2</text>
<text text-anchor="middle" x="806" y="-353" font-family="Times,serif" font-size="10.00" fill="red">(latest: 1.4.3)</text>
</g>
<!-- roo_transport&#45;&gt;roo_testing -->
<g id="edge44" class="edge">
<title>roo_transport&#45;&gt;roo_testing</title>
<path fill="none" stroke="red" d="M849.5,-437.78C849.13,-426.12 849.75,-410.83 854,-398 868.11,-355.41 910,-358.87 910,-314 910,-314 910,-314 910,-93 910,-46.36 1058.72,-28.87 1138.21,-22.86"/>
<polygon fill="red" stroke="red" points="1138.76,-26.33 1148.48,-22.12 1138.26,-19.35 1138.76,-26.33"/>
<text text-anchor="middle" x="937" y="-220" font-family="Times,serif" font-size="10.00" fill="red">1.1.7</text>
<text text-anchor="middle" x="937" y="-209" font-family="Times,serif" font-size="10.00" fill="red">(latest: 1.1.8)</text>
</g>
<!-- roo_transport&#45;&gt;roo_threads -->
<g id="edge48" class="edge">
<title>roo_transport&#45;&gt;roo_threads</title>
<path fill="none" stroke="red" d="M832.35,-437.69C828.14,-432.42 824.24,-426.36 822,-420 818.75,-410.78 818.67,-407.19 822,-398 825.55,-388.21 833.45,-389.79 837,-380 842.75,-364.12 846.09,-356.23 837,-342 818.37,-312.82 612.75,-228.26 515.91,-189.64"/>
<polygon fill="red" stroke="red" points="516.91,-186.28 506.32,-185.83 514.32,-192.78 516.91,-186.28"/>
<text text-anchor="middle" x="841" y="-316" font-family="Times,serif" font-size="10.00" fill="red">1.1.5</text>
<text text-anchor="middle" x="841" y="-305" font-family="Times,serif" font-size="10.00" fill="red">(latest: 1.1.6)</text>
</g>
<!-- roo_wifi -->
<g id="node26" class="node">
<title>roo_wifi</title>
<polygon fill="#b1dbab" stroke="black" points="737.5,-628 674.5,-628 674.5,-590 737.5,-590 737.5,-628"/>
<text text-anchor="middle" x="706" y="-612.8" font-family="Times,serif" font-size="14.00">roo_wifi</text>
<text text-anchor="middle" x="706" y="-597.8" font-family="Times,serif" font-size="14.00">1.1.2</text>
</g>
<!-- roo_wifi&#45;&gt;roo_prefs -->
<g id="edge49" class="edge">
<title>roo_wifi&#45;&gt;roo_prefs</title>
<path fill="none" stroke="black" d="M674.35,-591.67C673.22,-591.1 672.1,-590.54 671,-590 654.24,-581.73 646.74,-584.67 633,-572 603.58,-544.87 617.98,-520.51 588,-494 576.29,-483.65 561.18,-475.96 546.94,-470.41"/>
<polygon fill="black" stroke="black" points="547.88,-467.02 537.28,-466.9 545.49,-473.6 547.88,-467.02"/>
</g>
<!-- roo_windows&#45;&gt;roo_icons -->
<g id="edge53" class="edge">
<title>roo_windows&#45;&gt;roo_icons</title>
<path fill="none" stroke="black" d="M1007.12,-663.32C1081.77,-661.46 1227,-654.43 1270,-628 1287.45,-617.28 1299.99,-597.74 1308.01,-581.43"/>
<polygon fill="black" stroke="black" points="1311.21,-582.84 1312.22,-572.3 1304.86,-579.92 1311.21,-582.84"/>
</g>
<!-- roo_windows&#45;&gt;roo_io -->
<g id="edge54" class="edge">
<title>roo_windows&#45;&gt;roo_io</title>
<path fill="none" stroke="red" d="M962.31,-645.97C963.23,-607.46 966.86,-514.47 981,-438 983.99,-421.81 989.01,-404.11 993.5,-389.87"/>
<polygon fill="red" stroke="red" points="996.88,-390.78 996.63,-380.18 990.22,-388.62 996.88,-390.78"/>
<text text-anchor="middle" x="999" y="-508" font-family="Times,serif" font-size="10.00" fill="red">2.0.2</text>
<text text-anchor="middle" x="999" y="-497" font-family="Times,serif" font-size="10.00" fill="red">(latest: 2.0.3)</text>
</g>
<!-- roo_windows&#45;&gt;roo_locale -->
<g id="edge51" class="edge">
<title>roo_windows&#45;&gt;roo_locale</title>
<path fill="none" stroke="black" d="M972.73,-645.84C983.18,-628.16 999.17,-601.09 1011.09,-580.92"/>
<polygon fill="black" stroke="black" points="1014.18,-582.58 1016.25,-572.19 1008.15,-579.02 1014.18,-582.58"/>
</g>
<!-- roo_windows&#45;&gt;roo_logging -->
<g id="edge52" class="edge">
<title>roo_windows&#45;&gt;roo_logging</title>
<path fill="none" stroke="red" d="M930.94,-645.99C921.79,-640.44 911.87,-634.16 903,-628 866.42,-602.58 622.2,-408.54 588,-380 568.42,-363.66 566.77,-355.28 545,-342 520.21,-326.88 450.35,-301.01 401.37,-283.71"/>
<polygon fill="red" stroke="red" points="402.47,-280.39 391.88,-280.37 400.15,-286.99 402.47,-280.39"/>
<text text-anchor="middle" x="732" y="-460" font-family="Times,serif" font-size="10.00" fill="red">1.4.2</text>
<text text-anchor="middle" x="732" y="-449" font-family="Times,serif" font-size="10.00" fill="red">(latest: 1.4.3)</text>
</g>
<!-- roo_windows&#45;&gt;roo_scheduler -->
<g id="edge55" class="edge">
<title>roo_windows&#45;&gt;roo_scheduler</title>
<path fill="none" stroke="red" d="M916.72,-661.25C881.06,-657.53 831.03,-648.73 792,-628 759.73,-610.86 586.43,-419.64 557,-398 550.72,-393.38 543.77,-389 536.78,-384.98"/>
<polygon fill="red" stroke="red" points="538.4,-381.88 527.95,-380.1 535.01,-388 538.4,-381.88"/>
<text text-anchor="middle" x="700" y="-508" font-family="Times,serif" font-size="10.00" fill="red">2.1.4</text>
<text text-anchor="middle" x="700" y="-497" font-family="Times,serif" font-size="10.00" fill="red">(latest: 2.1.5)</text>
</g>
<!-- roo_windows&#45;&gt;roo_testing -->
<g id="edge50" class="edge">
<title>roo_windows&#45;&gt;roo_testing</title>
<path fill="none" stroke="red" d="M1007.29,-656.74C1089.76,-642.22 1256,-606.45 1256,-554 1256,-554 1256,-554 1256,-93 1256,-73.1 1242.29,-56.44 1227.09,-44.08"/>
<polygon fill="red" stroke="red" points="1229.16,-41.25 1219.08,-38.01 1224.94,-46.84 1229.16,-41.25"/>
<text text-anchor="middle" x="1283" y="-316" font-family="Times,serif" font-size="10.00" fill="red">1.1.7</text>
<text text-anchor="middle" x="1283" y="-305" font-family="Times,serif" font-size="10.00" fill="red">(latest: 1.1.8)</text>
</g>
<!-- roo_windows&#45;&gt;roo_time -->
<g id="edge56" class="edge">
<title>roo_windows&#45;&gt;roo_time</title>
<path fill="none" stroke="red" d="M957.72,-645.92C948.45,-610.9 923.13,-533.79 872,-494 845.29,-473.21 827.16,-493.19 798,-476 778.22,-464.34 779.24,-454.23 763,-438 736.09,-411.09 716.81,-414.15 700,-380 650.94,-280.32 703.27,-239.18 678,-131 677.38,-128.34 676.6,-125.61 675.73,-122.9"/>
<polygon fill="red" stroke="red" points="678.97,-121.59 672.29,-113.37 672.39,-123.96 678.97,-121.59"/>
<text text-anchor="middle" x="727" y="-364" font-family="Times,serif" font-size="10.00" fill="red">1.3.2</text>
<text text-anchor="middle" x="727" y="-353" font-family="Times,serif" font-size="10.00" fill="red">(latest: 1.3.3)</text>
</g>
<!-- roo_windows_transceivers -->
<g id="node28" class="node">
<title>roo_windows_transceivers</title>
<polygon fill="plum" stroke="black" points="788.5,-780 627.5,-780 627.5,-742 788.5,-742 788.5,-780"/>
<text text-anchor="middle" x="708" y="-764.8" font-family="Times,serif" font-size="14.00">roo_windows_transceivers</text>
<text text-anchor="middle" x="708" y="-749.8" font-family="Times,serif" font-size="14.00">1.0.0</text>
</g>
<!-- roo_windows_transceivers&#45;&gt;roo_transceivers -->
<g id="edge57" class="edge">
<title>roo_windows_transceivers&#45;&gt;roo_transceivers</title>
<path fill="none" stroke="black" d="M686.61,-741.72C643.29,-704.69 545.13,-620.78 496.06,-578.84"/>
<polygon fill="black" stroke="black" points="498.21,-576.08 488.34,-572.24 493.67,-581.4 498.21,-576.08"/>
</g>
<!-- roo_windows_transceivers&#45;&gt;roo_windows -->
<g id="edge58" class="edge">
<title>roo_windows_transceivers&#45;&gt;roo_windows</title>
<path fill="none" stroke="black" d="M718.78,-741.84C727.62,-728.63 741.36,-711.46 758,-702 803.73,-676 863.8,-667.96 906.9,-665.84"/>
<polygon fill="black" stroke="black" points="907.07,-669.34 916.92,-665.44 906.79,-662.34 907.07,-669.34"/>
</g>
<!-- roo_windows_wifi -->
<g id="node29" class="node">
<title>roo_windows_wifi</title>
<polygon fill="plum" stroke="black" points="1021.5,-780 902.5,-780 902.5,-742 1021.5,-742 1021.5,-780"/>
<text text-anchor="middle" x="962" y="-764.8" font-family="Times,serif" font-size="14.00">roo_windows_wifi</text>
<text text-anchor="middle" x="962" y="-749.8" font-family="Times,serif" font-size="14.00">1.1.2</text>
</g>
<!-- roo_windows_wifi&#45;&gt;roo_testing -->
<g id="edge59" class="edge">
<title>roo_windows_wifi&#45;&gt;roo_testing</title>
<path fill="none" stroke="red" d="M1021.57,-759.02C1137.89,-755.5 1384,-739.37 1384,-666 1384,-666 1384,-666 1384,-93 1384,-61.52 1294.41,-39.3 1236.07,-28.17"/>
<polygon fill="red" stroke="red" points="1236.39,-24.67 1225.92,-26.28 1235.11,-31.55 1236.39,-24.67"/>
<text text-anchor="middle" x="1411" y="-364" font-family="Times,serif" font-size="10.00" fill="red">1.1.7</text>
<text text-anchor="middle" x="1411" y="-353" font-family="Times,serif" font-size="10.00" fill="red">(latest: 1.1.8)</text>
</g>
<!-- roo_windows_wifi&#45;&gt;roo_wifi -->
<g id="edge60" class="edge">
<title>roo_windows_wifi&#45;&gt;roo_wifi</title>
<path fill="none" stroke="red" d="M931.12,-741.91C884.7,-714.71 796.95,-663.29 745.79,-633.32"/>
<polygon fill="red" stroke="red" points="747.39,-630.19 736.99,-628.16 743.85,-636.23 747.39,-630.19"/>
<text text-anchor="middle" x="924" y="-716" font-family="Times,serif" font-size="10.00" fill="red">1.1.1</text>
<text text-anchor="middle" x="924" y="-705" font-family="Times,serif" font-size="10.00" fill="red">(latest: 1.1.2)</text>
</g>
<!-- roo_windows_wifi&#45;&gt;roo_windows -->
<g id="edge61" class="edge">
<title>roo_windows_wifi&#45;&gt;roo_windows</title>
<path fill="none" stroke="black" d="M962,-741.88C962,-728.35 962,-709.62 962,-694.15"/>
<polygon fill="black" stroke="black" points="965.5,-694.07 962,-684.07 958.5,-694.07 965.5,-694.07"/>
</g>
</g>
</svg>
