<?xml version="1.0" encoding="UTF-8" standalone="no"?>
<!DOCTYPE svg PUBLIC "-//W3C//DTD SVG 1.1//EN"
 "http://www.w3.org/Graphics/SVG/1.1/DTD/svg11.dtd">
<!-- Generated by graphviz version 2.42.4 (0)
 -->
<!-- Title: dependencies Pages: 1 -->
<svg width="1934pt" height="709pt"
 viewBox="0.00 0.00 1933.50 709.00" xmlns="http://www.w3.org/2000/svg" xmlns:xlink="http://www.w3.org/1999/xlink">
<g id="graph0" class="graph" transform="scale(1 1) rotate(0) translate(4 705)">
<title>dependencies</title>
<polygon fill="white" stroke="transparent" points="-4,4 -4,-705 1929.5,-705 1929.5,4 -4,4"/>
<!-- roo_backport -->
<g id="node1" class="node">
<title>roo_backport</title>
<polygon fill="#b1dbab" stroke="black" points="337.5,-113 248.5,-113 248.5,-75 337.5,-75 337.5,-113"/>
<text text-anchor="middle" x="293" y="-97.8" font-family="Times,serif" font-size="14.00">roo_backport</text>
<text text-anchor="middle" x="293" y="-82.8" font-family="Times,serif" font-size="14.00">1.1.1</text>
</g>
<!-- roo_blink -->
<g id="node2" class="node">
<title>roo_blink</title>
<polygon fill="plum" stroke="black" points="890.5,-401 821.5,-401 821.5,-363 890.5,-363 890.5,-401"/>
<text text-anchor="middle" x="856" y="-385.8" font-family="Times,serif" font-size="14.00">roo_blink</text>
<text text-anchor="middle" x="856" y="-370.8" font-family="Times,serif" font-size="14.00">1.0.1</text>
</g>
<!-- roo_logging -->
<g id="node13" class="node">
<title>roo_logging</title>
<polygon fill="plum" stroke="black" points="967.5,-305 884.5,-305 884.5,-267 967.5,-267 967.5,-305"/>
<text text-anchor="middle" x="926" y="-289.8" font-family="Times,serif" font-size="14.00">roo_logging</text>
<text text-anchor="middle" x="926" y="-274.8" font-family="Times,serif" font-size="14.00">1.4.2</text>
</g>
<!-- roo_blink&#45;&gt;roo_logging -->
<g id="edge2" class="edge">
<title>roo_blink&#45;&gt;roo_logging</title>
<path fill="none" stroke="black" d="M869.5,-362.88C879.96,-348.83 894.6,-329.17 906.35,-313.38"/>
<polygon fill="black" stroke="black" points="909.38,-315.18 912.54,-305.07 903.76,-311 909.38,-315.18"/>
</g>
<!-- roo_scheduler -->
<g id="node19" class="node">
<title>roo_scheduler</title>
<polygon fill="plum" stroke="black" points="1230.5,-305 1137.5,-305 1137.5,-267 1230.5,-267 1230.5,-305"/>
<text text-anchor="middle" x="1184" y="-289.8" font-family="Times,serif" font-size="14.00">roo_scheduler</text>
<text text-anchor="middle" x="1184" y="-274.8" font-family="Times,serif" font-size="14.00">2.1.4</text>
</g>
<!-- roo_blink&#45;&gt;roo_scheduler -->
<g id="edge3" class="edge">
<title>roo_blink&#45;&gt;roo_scheduler</title>
<path fill="none" stroke="black" d="M890.79,-371.03C947.28,-354.84 1059.48,-322.68 1127.53,-303.18"/>
<polygon fill="black" stroke="black" points="1128.59,-306.52 1137.23,-300.4 1126.66,-299.79 1128.59,-306.52"/>
</g>
<!-- roo_testing -->
<g id="node20" class="node">
<title>roo_testing</title>
<polygon fill="#b1dbab" stroke="black" points="1229.5,-38 1152.5,-38 1152.5,0 1229.5,0 1229.5,-38"/>
<text text-anchor="middle" x="1191" y="-22.8" font-family="Times,serif" font-size="14.00">roo_testing</text>
<text text-anchor="middle" x="1191" y="-7.8" font-family="Times,serif" font-size="14.00">1.1.8</text>
</g>
<!-- roo_blink&#45;&gt;roo_testing -->
<g id="edge1" class="edge">
<title>roo_blink&#45;&gt;roo_testing</title>
<path fill="none" stroke="red" d="M821.13,-364.85C757.79,-333.01 633.58,-257.65 670,-171 693.62,-114.79 713.16,-101.64 768,-75 833.15,-43.35 1045.73,-27.96 1142.38,-22.45"/>
<polygon fill="red" stroke="red" points="1142.68,-25.94 1152.47,-21.89 1142.29,-18.95 1142.68,-25.94"/>
<text text-anchor="middle" x="697" y="-193" font-family="Times,serif" font-size="10.00" fill="red">1.1.7</text>
<text text-anchor="middle" x="697" y="-182" font-family="Times,serif" font-size="10.00" fill="red">(latest: 1.1.8)</text>
</g>
<!-- roo_threads -->
<g id="node21" class="node">
<title>roo_threads</title>
<polygon fill="#b1dbab" stroke="black" points="960,-209 880,-209 880,-171 960,-171 960,-209"/>
<text text-anchor="middle" x="920" y="-193.8" font-family="Times,serif" font-size="14.00">roo_threads</text>
<text text-anchor="middle" x="920" y="-178.8" font-family="Times,serif" font-size="14.00">1.1.6</text>
</g>
<!-- roo_blink&#45;&gt;roo_threads -->
<g id="edge4" class="edge">
<title>roo_blink&#45;&gt;roo_threads</title>
<path fill="none" stroke="red" d="M842.01,-362.85C825.72,-339.32 803.28,-297.68 822,-267 831.11,-252.07 842.66,-259.01 857,-249 870.67,-239.46 884.45,-227.15 895.62,-216.32"/>
<polygon fill="red" stroke="red" points="898.26,-218.64 902.91,-209.12 893.33,-213.66 898.26,-218.64"/>
<text text-anchor="middle" x="849" y="-289" font-family="Times,serif" font-size="10.00" fill="red">1.1.5</text>
<text text-anchor="middle" x="849" y="-278" font-family="Times,serif" font-size="10.00" fill="red">(latest: 1.1.6)</text>
</g>
<!-- roo_time -->
<g id="node22" class="node">
<title>roo_time</title>
<polygon fill="#b1dbab" stroke="black" points="1070,-113 1004,-113 1004,-75 1070,-75 1070,-113"/>
<text text-anchor="middle" x="1037" y="-97.8" font-family="Times,serif" font-size="14.00">roo_time</text>
<text text-anchor="middle" x="1037" y="-82.8" font-family="Times,serif" font-size="14.00">1.3.3</text>
</g>
<!-- roo_blink&#45;&gt;roo_time -->
<g id="edge5" class="edge">
<title>roo_blink&#45;&gt;roo_time</title>
<path fill="none" stroke="red" d="M831.06,-362.87C825.38,-357.67 819.88,-351.61 816,-345 776.22,-277.27 738.16,-234.06 785,-171 810.03,-137.31 928.86,-112.84 994.01,-101.7"/>
<polygon fill="red" stroke="red" points="994.7,-105.14 1003.99,-100.03 993.55,-98.23 994.7,-105.14"/>
<text text-anchor="middle" x="792" y="-241" font-family="Times,serif" font-size="10.00" fill="red">1.3.2</text>
<text text-anchor="middle" x="792" y="-230" font-family="Times,serif" font-size="10.00" fill="red">(latest: 1.3.3)</text>
</g>
<!-- roo_collections -->
<g id="node3" class="node">
<title>roo_collections</title>
<polygon fill="#b1dbab" stroke="black" points="330,-209 230,-209 230,-171 330,-171 330,-209"/>
<text text-anchor="middle" x="280" y="-193.8" font-family="Times,serif" font-size="14.00">roo_collections</text>
<text text-anchor="middle" x="280" y="-178.8" font-family="Times,serif" font-size="14.00">1.3.2</text>
</g>
<!-- roo_collections&#45;&gt;roo_backport -->
<g id="edge6" class="edge">
<title>roo_collections&#45;&gt;roo_backport</title>
<path fill="none" stroke="black" d="M282.51,-170.88C284.38,-157.35 286.97,-138.62 289.11,-123.15"/>
<polygon fill="black" stroke="black" points="292.6,-123.45 290.5,-113.07 285.66,-122.49 292.6,-123.45"/>
</g>
<!-- roo_comms -->
<g id="node4" class="node">
<title>roo_comms</title>
<polygon fill="plum" stroke="black" points="1024,-551 942,-551 942,-513 1024,-513 1024,-551"/>
<text text-anchor="middle" x="983" y="-535.8" font-family="Times,serif" font-size="14.00">roo_comms</text>
<text text-anchor="middle" x="983" y="-520.8" font-family="Times,serif" font-size="14.00">1.1.1</text>
</g>
<!-- roo_comms&#45;&gt;roo_blink -->
<g id="edge8" class="edge">
<title>roo_comms&#45;&gt;roo_blink</title>
<path fill="none" stroke="black" d="M967.43,-512.85C945.15,-486.89 904.05,-438.99 878.47,-409.19"/>
<polygon fill="black" stroke="black" points="880.87,-406.61 871.7,-401.3 875.56,-411.16 880.87,-406.61"/>
</g>
<!-- roo_control -->
<g id="node5" class="node">
<title>roo_control</title>
<polygon fill="plum" stroke="black" points="1310,-476 1230,-476 1230,-438 1310,-438 1310,-476"/>
<text text-anchor="middle" x="1270" y="-460.8" font-family="Times,serif" font-size="14.00">roo_control</text>
<text text-anchor="middle" x="1270" y="-445.8" font-family="Times,serif" font-size="14.00">1.2.1</text>
</g>
<!-- roo_comms&#45;&gt;roo_control -->
<g id="edge9" class="edge">
<title>roo_comms&#45;&gt;roo_control</title>
<path fill="none" stroke="black" d="M1024.26,-523.1C1069.99,-513.98 1146.03,-497.75 1219.83,-476.17"/>
<polygon fill="black" stroke="black" points="1221.16,-479.43 1229.76,-473.24 1219.18,-472.72 1221.16,-479.43"/>
</g>
<!-- roo_io -->
<g id="node10" class="node">
<title>roo_io</title>
<polygon fill="plum" stroke="black" points="483,-401 429,-401 429,-363 483,-363 483,-401"/>
<text text-anchor="middle" x="456" y="-385.8" font-family="Times,serif" font-size="14.00">roo_io</text>
<text text-anchor="middle" x="456" y="-370.8" font-family="Times,serif" font-size="14.00">2.0.2</text>
</g>
<!-- roo_comms&#45;&gt;roo_io -->
<g id="edge10" class="edge">
<title>roo_comms&#45;&gt;roo_io</title>
<path fill="none" stroke="black" d="M941.92,-529.67C886.14,-526.99 783.81,-518.96 700,-495 622.48,-472.84 538.33,-429.5 491.89,-403.71"/>
<polygon fill="black" stroke="black" points="493.55,-400.63 483.12,-398.8 490.13,-406.74 493.55,-400.63"/>
</g>
<!-- roo_comms&#45;&gt;roo_testing -->
<g id="edge7" class="edge">
<title>roo_comms&#45;&gt;roo_testing</title>
<path fill="none" stroke="red" d="M1024.26,-529.7C1150.51,-525.37 1525.61,-509.77 1568,-476 1651.1,-409.79 1626.12,-353.9 1643,-249 1658.79,-150.86 1625.25,-84.43 1530,-56 1429.87,-26.11 1306.61,-20.33 1239.75,-19.61"/>
<polygon fill="red" stroke="red" points="1239.54,-16.11 1229.52,-19.54 1239.49,-23.11 1239.54,-16.11"/>
<text text-anchor="middle" x="1667" y="-289" font-family="Times,serif" font-size="10.00" fill="red">1.1.7</text>
<text text-anchor="middle" x="1667" y="-278" font-family="Times,serif" font-size="10.00" fill="red">(latest: 1.1.8)</text>
</g>
<!-- roo_comms&#45;&gt;roo_threads -->
<g id="edge11" class="edge">
<title>roo_comms&#45;&gt;roo_threads</title>
<path fill="none" stroke="red" d="M983.91,-512.86C986.87,-451.14 995.21,-251.7 981,-227 977.82,-221.47 973.43,-216.71 968.44,-212.63"/>
<polygon fill="red" stroke="red" points="970.38,-209.71 960.21,-206.76 966.32,-215.41 970.38,-209.71"/>
<text text-anchor="middle" x="1015" y="-385" font-family="Times,serif" font-size="10.00" fill="red">1.1.5</text>
<text text-anchor="middle" x="1015" y="-374" font-family="Times,serif" font-size="10.00" fill="red">(latest: 1.1.6)</text>
</g>
<!-- roo_comms&#45;&gt;roo_time -->
<g id="edge12" class="edge">
<title>roo_comms&#45;&gt;roo_time</title>
<path fill="none" stroke="red" d="M941.91,-524.4C847.26,-506.91 624.81,-451.63 663,-323 693.14,-221.51 709,-177.73 804,-131 865.08,-100.96 945.13,-94.75 993.72,-94.1"/>
<polygon fill="red" stroke="red" points="993.91,-97.59 1003.89,-94.03 993.87,-90.6 993.91,-97.59"/>
<text text-anchor="middle" x="690" y="-337" font-family="Times,serif" font-size="10.00" fill="red">1.3.2</text>
<text text-anchor="middle" x="690" y="-326" font-family="Times,serif" font-size="10.00" fill="red">(latest: 1.3.3)</text>
</g>
<!-- roo_transceivers -->
<g id="node24" class="node">
<title>roo_transceivers</title>
<polygon fill="plum" stroke="black" points="1559,-476 1453,-476 1453,-438 1559,-438 1559,-476"/>
<text text-anchor="middle" x="1506" y="-460.8" font-family="Times,serif" font-size="14.00">roo_transceivers</text>
<text text-anchor="middle" x="1506" y="-445.8" font-family="Times,serif" font-size="14.00">1.1.2</text>
</g>
<!-- roo_comms&#45;&gt;roo_transceivers -->
<g id="edge13" class="edge">
<title>roo_comms&#45;&gt;roo_transceivers</title>
<path fill="none" stroke="black" d="M1024.04,-525.27C1115.02,-512.57 1334.16,-481.98 1442.78,-466.82"/>
<polygon fill="black" stroke="black" points="1443.52,-470.25 1452.94,-465.41 1442.56,-463.32 1443.52,-470.25"/>
</g>
<!-- roo_quantity -->
<g id="node18" class="node">
<title>roo_quantity</title>
<polygon fill="plum" stroke="black" points="1141,-401 1055,-401 1055,-363 1141,-363 1141,-401"/>
<text text-anchor="middle" x="1098" y="-385.8" font-family="Times,serif" font-size="14.00">roo_quantity</text>
<text text-anchor="middle" x="1098" y="-370.8" font-family="Times,serif" font-size="14.00">1.1.2</text>
</g>
<!-- roo_control&#45;&gt;roo_quantity -->
<g id="edge15" class="edge">
<title>roo_control&#45;&gt;roo_quantity</title>
<path fill="none" stroke="black" d="M1229.67,-438.88C1205.9,-428.8 1175.57,-415.92 1150.01,-405.07"/>
<polygon fill="black" stroke="black" points="1151.05,-401.71 1140.47,-401.03 1148.31,-408.16 1151.05,-401.71"/>
</g>
<!-- roo_control&#45;&gt;roo_scheduler -->
<g id="edge16" class="edge">
<title>roo_control&#45;&gt;roo_scheduler</title>
<path fill="none" stroke="black" d="M1273.39,-437.79C1277.46,-410.3 1281.02,-357.73 1257,-323 1252.42,-316.38 1246.27,-310.92 1239.47,-306.44"/>
<polygon fill="black" stroke="black" points="1240.98,-303.27 1230.57,-301.27 1237.46,-309.32 1240.98,-303.27"/>
</g>
<!-- roo_control&#45;&gt;roo_testing -->
<g id="edge14" class="edge">
<title>roo_control&#45;&gt;roo_testing</title>
<path fill="none" stroke="red" d="M1298.66,-437.76C1350.38,-402.29 1452.37,-319.32 1434,-227 1419.73,-155.28 1422.11,-127.3 1371,-75 1336.55,-39.74 1280.19,-26.94 1239.71,-22.37"/>
<polygon fill="red" stroke="red" points="1239.82,-18.86 1229.52,-21.35 1239.12,-25.83 1239.82,-18.86"/>
<text text-anchor="middle" x="1463" y="-241" font-family="Times,serif" font-size="10.00" fill="red">1.1.7</text>
<text text-anchor="middle" x="1463" y="-230" font-family="Times,serif" font-size="10.00" fill="red">(latest: 1.1.8)</text>
</g>
<!-- roo_dashboard -->
<g id="node6" class="node">
<title>roo_dashboard</title>
<polygon fill="plum" stroke="black" points="363.5,-701 266.5,-701 266.5,-663 363.5,-663 363.5,-701"/>
<text text-anchor="middle" x="315" y="-685.8" font-family="Times,serif" font-size="14.00">roo_dashboard</text>
<text text-anchor="middle" x="315" y="-670.8" font-family="Times,serif" font-size="14.00">1.0.1</text>
</g>
<!-- roo_dashboard&#45;&gt;roo_testing -->
<g id="edge17" class="edge">
<title>roo_dashboard&#45;&gt;roo_testing</title>
<path fill="none" stroke="red" d="M266.47,-679.73C178.11,-676.08 0,-662.03 0,-608 0,-608 0,-608 0,-93 0,-34.79 918.44,-22.52 1142.26,-20.39"/>
<polygon fill="red" stroke="red" points="1142.42,-23.89 1152.39,-20.3 1142.36,-16.89 1142.42,-23.89"/>
<text text-anchor="middle" x="27" y="-385" font-family="Times,serif" font-size="10.00" fill="red">1.1.7</text>
<text text-anchor="middle" x="27" y="-374" font-family="Times,serif" font-size="10.00" fill="red">(latest: 1.1.8)</text>
</g>
<!-- roo_windows -->
<g id="node27" class="node">
<title>roo_windows</title>
<polygon fill="plum" stroke="black" points="517,-626 427,-626 427,-588 517,-588 517,-626"/>
<text text-anchor="middle" x="472" y="-610.8" font-family="Times,serif" font-size="14.00">roo_windows</text>
<text text-anchor="middle" x="472" y="-595.8" font-family="Times,serif" font-size="14.00">1.4.1</text>
</g>
<!-- roo_dashboard&#45;&gt;roo_windows -->
<g id="edge18" class="edge">
<title>roo_dashboard&#45;&gt;roo_windows</title>
<path fill="none" stroke="black" d="M353.81,-662.96C374.94,-653.13 401.29,-640.88 423.74,-630.44"/>
<polygon fill="black" stroke="black" points="425.5,-633.48 433.09,-626.09 422.55,-627.13 425.5,-633.48"/>
</g>
<!-- roo_display -->
<g id="node7" class="node">
<title>roo_display</title>
<polygon fill="plum" stroke="black" points="286,-476 206,-476 206,-438 286,-438 286,-476"/>
<text text-anchor="middle" x="246" y="-460.8" font-family="Times,serif" font-size="14.00">roo_display</text>
<text text-anchor="middle" x="246" y="-445.8" font-family="Times,serif" font-size="14.00">2.3.1</text>
</g>
<!-- roo_display&#45;&gt;roo_collections -->
<g id="edge20" class="edge">
<title>roo_display&#45;&gt;roo_collections</title>
<path fill="none" stroke="black" d="M248.34,-437.79C254.16,-392.4 269.35,-274.01 276.36,-219.38"/>
<polygon fill="black" stroke="black" points="279.85,-219.71 277.65,-209.34 272.9,-218.82 279.85,-219.71"/>
</g>
<!-- roo_display&#45;&gt;roo_io -->
<g id="edge21" class="edge">
<title>roo_display&#45;&gt;roo_io</title>
<path fill="none" stroke="black" d="M286.08,-441.19C289.1,-440.1 292.1,-439.03 295,-438 337.51,-422.93 386.59,-406.27 419.28,-395.28"/>
<polygon fill="black" stroke="black" points="420.51,-398.56 428.87,-392.06 418.28,-391.92 420.51,-398.56"/>
</g>
<!-- roo_display&#45;&gt;roo_testing -->
<g id="edge19" class="edge">
<title>roo_display&#45;&gt;roo_testing</title>
<path fill="none" stroke="red" d="M241.22,-437.99C231.52,-399.46 210.77,-306.12 215,-227 216.34,-202 217.36,-195.76 221,-171 227.32,-128.05 206.64,-103.93 239,-75 272.96,-44.64 952.17,-25.83 1142.06,-21.15"/>
<polygon fill="red" stroke="red" points="1142.39,-24.64 1152.3,-20.9 1142.22,-17.65 1142.39,-24.64"/>
<text text-anchor="middle" x="242" y="-241" font-family="Times,serif" font-size="10.00" fill="red">1.1.7</text>
<text text-anchor="middle" x="242" y="-230" font-family="Times,serif" font-size="10.00" fill="red">(latest: 1.1.8)</text>
</g>
<!-- roo_flags -->
<g id="node8" class="node">
<title>roo_flags</title>
<polygon fill="#b1dbab" stroke="black" points="862,-209 794,-209 794,-171 862,-171 862,-209"/>
<text text-anchor="middle" x="828" y="-193.8" font-family="Times,serif" font-size="14.00">roo_flags</text>
<text text-anchor="middle" x="828" y="-178.8" font-family="Times,serif" font-size="14.00">1.1.1</text>
</g>
<!-- roo_icons -->
<g id="node9" class="node">
<title>roo_icons</title>
<polygon fill="plum" stroke="black" points="281,-551 211,-551 211,-513 281,-513 281,-551"/>
<text text-anchor="middle" x="246" y="-535.8" font-family="Times,serif" font-size="14.00">roo_icons</text>
<text text-anchor="middle" x="246" y="-520.8" font-family="Times,serif" font-size="14.00">1.2.1</text>
</g>
<!-- roo_icons&#45;&gt;roo_display -->
<g id="edge23" class="edge">
<title>roo_icons&#45;&gt;roo_display</title>
<path fill="none" stroke="black" d="M246,-512.96C246,-504.88 246,-495.18 246,-486.18"/>
<polygon fill="black" stroke="black" points="249.5,-486.09 246,-476.09 242.5,-486.09 249.5,-486.09"/>
</g>
<!-- roo_icons&#45;&gt;roo_testing -->
<g id="edge22" class="edge">
<title>roo_icons&#45;&gt;roo_testing</title>
<path fill="none" stroke="red" d="M225.88,-512.85C215.9,-502.86 204.42,-489.72 197,-476 171.05,-428.01 133,-293.55 133,-239 133,-239 133,-239 133,-93 133,-41.73 934.03,-24.41 1142.1,-20.78"/>
<polygon fill="red" stroke="red" points="1142.47,-24.27 1152.41,-20.6 1142.35,-17.28 1142.47,-24.27"/>
<text text-anchor="middle" x="169" y="-289" font-family="Times,serif" font-size="10.00" fill="red">1.1.7</text>
<text text-anchor="middle" x="169" y="-278" font-family="Times,serif" font-size="10.00" fill="red">(latest: 1.1.8)</text>
</g>
<!-- roo_io&#45;&gt;roo_backport -->
<g id="edge25" class="edge">
<title>roo_io&#45;&gt;roo_backport</title>
<path fill="none" stroke="black" d="M441.38,-362.73C437.18,-357.17 432.74,-350.96 429,-345 382.72,-271.25 381.57,-246.95 339,-171 329.78,-154.56 318.88,-136.49 310.01,-122.1"/>
<polygon fill="black" stroke="black" points="312.75,-119.88 304.5,-113.23 306.8,-123.57 312.75,-119.88"/>
</g>
<!-- roo_io&#45;&gt;roo_logging -->
<g id="edge26" class="edge">
<title>roo_io&#45;&gt;roo_logging</title>
<path fill="none" stroke="black" d="M483.18,-375.59C503.68,-371.66 532.52,-366.45 558,-363 642.06,-351.62 664.95,-362.24 748,-345 791.63,-335.94 839.59,-319.95 874.72,-307.05"/>
<polygon fill="black" stroke="black" points="876.12,-310.26 884.27,-303.5 873.68,-303.7 876.12,-310.26"/>
</g>
<!-- roo_io&#45;&gt;roo_testing -->
<g id="edge24" class="edge">
<title>roo_io&#45;&gt;roo_testing</title>
<path fill="none" stroke="red" d="M451.59,-362.74C438.8,-304.68 408.69,-124.17 510,-56 562.04,-20.98 994.57,-19.27 1142,-19.72"/>
<polygon fill="red" stroke="red" points="1142.1,-23.22 1152.11,-19.76 1142.12,-16.22 1142.1,-23.22"/>
<text text-anchor="middle" x="469" y="-193" font-family="Times,serif" font-size="10.00" fill="red">1.1.7</text>
<text text-anchor="middle" x="469" y="-182" font-family="Times,serif" font-size="10.00" fill="red">(latest: 1.1.8)</text>
</g>
<!-- roo_io&#45;&gt;roo_threads -->
<g id="edge27" class="edge">
<title>roo_io&#45;&gt;roo_threads</title>
<path fill="none" stroke="red" d="M478.54,-362.93C509.48,-338.74 567.5,-295.57 622,-267 666.23,-243.81 678.54,-239.07 727,-227 786.53,-212.17 806.39,-223.04 869.74,-208.95"/>
<polygon fill="red" stroke="red" points="870.91,-212.27 879.85,-206.57 869.31,-205.45 870.91,-212.27"/>
<text text-anchor="middle" x="649" y="-289" font-family="Times,serif" font-size="10.00" fill="red">1.1.5</text>
<text text-anchor="middle" x="649" y="-278" font-family="Times,serif" font-size="10.00" fill="red">(latest: 1.1.6)</text>
</g>
<!-- roo_io_sdfat -->
<g id="node11" class="node">
<title>roo_io_sdfat</title>
<polygon fill="plum" stroke="black" points="1925.5,-701 1840.5,-701 1840.5,-663 1925.5,-663 1925.5,-701"/>
<text text-anchor="middle" x="1883" y="-685.8" font-family="Times,serif" font-size="14.00">roo_io_sdfat</text>
<text text-anchor="middle" x="1883" y="-670.8" font-family="Times,serif" font-size="14.00">1.0.0</text>
</g>
<!-- roo_locale -->
<g id="node12" class="node">
<title>roo_locale</title>
<polygon fill="#b1dbab" stroke="black" points="102,-551 28,-551 28,-513 102,-513 102,-551"/>
<text text-anchor="middle" x="65" y="-535.8" font-family="Times,serif" font-size="14.00">roo_locale</text>
<text text-anchor="middle" x="65" y="-520.8" font-family="Times,serif" font-size="14.00">1.1.1</text>
</g>
<!-- roo_logging&#45;&gt;roo_flags -->
<g id="edge29" class="edge">
<title>roo_logging&#45;&gt;roo_flags</title>
<path fill="none" stroke="black" d="M907.1,-266.88C892.06,-252.44 870.82,-232.07 854.14,-216.07"/>
<polygon fill="black" stroke="black" points="856.48,-213.46 846.84,-209.07 851.63,-218.52 856.48,-213.46"/>
</g>
<!-- roo_logging&#45;&gt;roo_testing -->
<g id="edge28" class="edge">
<title>roo_logging&#45;&gt;roo_testing</title>
<path fill="none" stroke="red" d="M884.27,-268.21C882.83,-267.78 881.41,-267.38 880,-267 853.73,-260 777.69,-268.74 759,-249 722.83,-210.81 717.66,-172.48 750,-131 798.32,-69.01 1038.27,-36.3 1142.52,-24.82"/>
<polygon fill="red" stroke="red" points="1142.9,-28.3 1152.47,-23.75 1142.15,-21.34 1142.9,-28.3"/>
<text text-anchor="middle" x="777" y="-145" font-family="Times,serif" font-size="10.00" fill="red">1.1.7</text>
<text text-anchor="middle" x="777" y="-134" font-family="Times,serif" font-size="10.00" fill="red">(latest: 1.1.8)</text>
</g>
<!-- roo_logging&#45;&gt;roo_threads -->
<g id="edge31" class="edge">
<title>roo_logging&#45;&gt;roo_threads</title>
<path fill="none" stroke="red" d="M924.84,-266.88C923.98,-253.35 922.78,-234.62 921.8,-219.15"/>
<polygon fill="red" stroke="red" points="925.28,-218.83 921.15,-209.07 918.3,-219.27 925.28,-218.83"/>
<text text-anchor="middle" x="950" y="-241" font-family="Times,serif" font-size="10.00" fill="red">1.1.5</text>
<text text-anchor="middle" x="950" y="-230" font-family="Times,serif" font-size="10.00" fill="red">(latest: 1.1.6)</text>
</g>
<!-- roo_logging&#45;&gt;roo_time -->
<g id="edge30" class="edge">
<title>roo_logging&#45;&gt;roo_time</title>
<path fill="none" stroke="red" d="M961.06,-266.91C968.39,-261.89 975.54,-255.89 981,-249 983.05,-246.41 1011.69,-166.28 1027.19,-122.66"/>
<polygon fill="red" stroke="red" points="1030.51,-123.78 1030.56,-113.18 1023.91,-121.43 1030.51,-123.78"/>
<text text-anchor="middle" x="1036" y="-193" font-family="Times,serif" font-size="10.00" fill="red">1.3.2</text>
<text text-anchor="middle" x="1036" y="-182" font-family="Times,serif" font-size="10.00" fill="red">(latest: 1.3.3)</text>
</g>
<!-- roo_monitoring -->
<g id="node14" class="node">
<title>roo_monitoring</title>
<polygon fill="plum" stroke="black" points="406,-476 304,-476 304,-438 406,-438 406,-476"/>
<text text-anchor="middle" x="355" y="-460.8" font-family="Times,serif" font-size="14.00">roo_monitoring</text>
<text text-anchor="middle" x="355" y="-445.8" font-family="Times,serif" font-size="14.00">1.0.0</text>
</g>
<!-- roo_monitoring&#45;&gt;roo_collections -->
<g id="edge33" class="edge">
<title>roo_monitoring&#45;&gt;roo_collections</title>
<path fill="none" stroke="black" d="M347.48,-437.83C345.26,-432.16 342.91,-425.86 341,-420 317.64,-348.46 296.52,-262.24 286.36,-218.84"/>
<polygon fill="black" stroke="black" points="289.75,-217.96 284.08,-209.01 282.93,-219.55 289.75,-217.96"/>
</g>
<!-- roo_monitoring&#45;&gt;roo_io -->
<g id="edge34" class="edge">
<title>roo_monitoring&#45;&gt;roo_io</title>
<path fill="none" stroke="black" d="M379.97,-437.96C392.83,-428.65 408.7,-417.18 422.61,-407.13"/>
<polygon fill="black" stroke="black" points="424.92,-409.78 430.97,-401.09 420.82,-404.11 424.92,-409.78"/>
</g>
<!-- roo_monitoring&#45;&gt;roo_testing -->
<g id="edge32" class="edge">
<title>roo_monitoring&#45;&gt;roo_testing</title>
<path fill="none" stroke="black" d="M353.99,-437.81C351.67,-377.04 352.77,-178.97 457,-75 505.37,-26.75 985.06,-20.73 1141.76,-20.06"/>
<polygon fill="black" stroke="black" points="1142.06,-23.56 1152.04,-20.02 1142.03,-16.56 1142.06,-23.56"/>
</g>
<!-- roo_onewire -->
<g id="node15" class="node">
<title>roo_onewire</title>
<polygon fill="plum" stroke="black" points="1211.5,-476 1126.5,-476 1126.5,-438 1211.5,-438 1211.5,-476"/>
<text text-anchor="middle" x="1169" y="-460.8" font-family="Times,serif" font-size="14.00">roo_onewire</text>
<text text-anchor="middle" x="1169" y="-445.8" font-family="Times,serif" font-size="14.00">2.0.4</text>
</g>
<!-- roo_onewire&#45;&gt;roo_quantity -->
<g id="edge37" class="edge">
<title>roo_onewire&#45;&gt;roo_quantity</title>
<path fill="none" stroke="black" d="M1151.45,-437.96C1142.74,-429.01 1132.09,-418.05 1122.58,-408.28"/>
<polygon fill="black" stroke="black" points="1125.08,-405.82 1115.59,-401.09 1120.06,-410.7 1125.08,-405.82"/>
</g>
<!-- roo_onewire&#45;&gt;roo_scheduler -->
<g id="edge36" class="edge">
<title>roo_onewire&#45;&gt;roo_scheduler</title>
<path fill="none" stroke="black" d="M1170.61,-437.91C1173.21,-408.51 1178.4,-350.13 1181.49,-315.23"/>
<polygon fill="black" stroke="black" points="1184.99,-315.48 1182.38,-305.21 1178.01,-314.86 1184.99,-315.48"/>
</g>
<!-- roo_onewire&#45;&gt;roo_testing -->
<g id="edge35" class="edge">
<title>roo_onewire&#45;&gt;roo_testing</title>
<path fill="none" stroke="red" d="M1208.34,-437.85C1254.44,-414.31 1329.08,-368.58 1365,-305 1386.12,-267.61 1373.17,-251.85 1376,-209 1380.05,-147.69 1389.21,-114.33 1342,-75 1312.69,-50.59 1271.63,-36.56 1239.72,-28.8"/>
<polygon fill="red" stroke="red" points="1240.24,-25.32 1229.71,-26.49 1238.67,-32.14 1240.24,-25.32"/>
<text text-anchor="middle" x="1403" y="-241" font-family="Times,serif" font-size="10.00" fill="red">1.1.7</text>
<text text-anchor="middle" x="1403" y="-230" font-family="Times,serif" font-size="10.00" fill="red">(latest: 1.1.8)</text>
</g>
<!-- roo_powersafefs -->
<g id="node16" class="node">
<title>roo_powersafefs</title>
<polygon fill="plum" stroke="black" points="1355.5,-305 1248.5,-305 1248.5,-267 1355.5,-267 1355.5,-305"/>
<text text-anchor="middle" x="1302" y="-289.8" font-family="Times,serif" font-size="14.00">roo_powersafefs</text>
<text text-anchor="middle" x="1302" y="-274.8" font-family="Times,serif" font-size="14.00">1.0.0</text>
</g>
<!-- roo_powersafefs&#45;&gt;roo_testing -->
<g id="edge38" class="edge">
<title>roo_powersafefs&#45;&gt;roo_testing</title>
<path fill="none" stroke="black" d="M1318.7,-266.77C1343.63,-237.22 1385.1,-177.51 1360,-131 1334.61,-83.95 1279.62,-53.6 1239.24,-36.73"/>
<polygon fill="black" stroke="black" points="1240.41,-33.43 1229.83,-32.93 1237.79,-39.92 1240.41,-33.43"/>
</g>
<!-- roo_powersafefs&#45;&gt;roo_threads -->
<g id="edge39" class="edge">
<title>roo_powersafefs&#45;&gt;roo_threads</title>
<path fill="none" stroke="red" d="M1280.68,-266.86C1263.38,-253.29 1237.73,-235.64 1212,-227 1111.44,-193.23 1077.99,-229.93 974,-209 972.72,-208.74 971.43,-208.46 970.13,-208.17"/>
<polygon fill="red" stroke="red" points="970.66,-204.69 960.1,-205.57 968.91,-211.46 970.66,-204.69"/>
<text text-anchor="middle" x="1280" y="-241" font-family="Times,serif" font-size="10.00" fill="red">1.1.5</text>
<text text-anchor="middle" x="1280" y="-230" font-family="Times,serif" font-size="10.00" fill="red">(latest: 1.1.6)</text>
</g>
<!-- roo_prefs -->
<g id="node17" class="node">
<title>roo_prefs</title>
<polygon fill="plum" stroke="black" points="1518,-401 1450,-401 1450,-363 1518,-363 1518,-401"/>
<text text-anchor="middle" x="1484" y="-385.8" font-family="Times,serif" font-size="14.00">roo_prefs</text>
<text text-anchor="middle" x="1484" y="-370.8" font-family="Times,serif" font-size="14.00">1.2.2</text>
</g>
<!-- roo_prefs&#45;&gt;roo_logging -->
<g id="edge41" class="edge">
<title>roo_prefs&#45;&gt;roo_logging</title>
<path fill="none" stroke="black" d="M1449.64,-378.13C1393.12,-373.15 1277.15,-361.79 1180,-345 1109.17,-332.76 1028.41,-313.36 977.33,-300.42"/>
<polygon fill="black" stroke="black" points="978.08,-297 967.52,-297.92 976.35,-303.78 978.08,-297"/>
</g>
<!-- roo_prefs&#45;&gt;roo_scheduler -->
<g id="edge42" class="edge">
<title>roo_prefs&#45;&gt;roo_scheduler</title>
<path fill="none" stroke="black" d="M1452.4,-362.93C1428.15,-349.86 1393.42,-332.82 1361,-323 1311.81,-308.1 1294.81,-316.33 1240.42,-304.81"/>
<polygon fill="black" stroke="black" points="1241.11,-301.38 1230.59,-302.6 1239.58,-308.21 1241.11,-301.38"/>
</g>
<!-- roo_prefs&#45;&gt;roo_testing -->
<g id="edge40" class="edge">
<title>roo_prefs&#45;&gt;roo_testing</title>
<path fill="none" stroke="red" d="M1495.66,-362.88C1504.92,-347.86 1517.66,-325.69 1526,-305 1535.64,-281.1 1537.64,-274.55 1541,-249 1550.84,-174.24 1526.27,-77.76 1502,-56 1482.89,-38.86 1322.61,-27.41 1239.93,-22.59"/>
<polygon fill="red" stroke="red" points="1239.95,-19.09 1229.77,-22.01 1239.55,-26.07 1239.95,-19.09"/>
<text text-anchor="middle" x="1570" y="-193" font-family="Times,serif" font-size="10.00" fill="red">1.1.7</text>
<text text-anchor="middle" x="1570" y="-182" font-family="Times,serif" font-size="10.00" fill="red">(latest: 1.1.8)</text>
</g>
<!-- roo_quantity&#45;&gt;roo_logging -->
<g id="edge43" class="edge">
<title>roo_quantity&#45;&gt;roo_logging</title>
<path fill="none" stroke="black" d="M1055.69,-362.94C1043.67,-357.49 1030.69,-351.27 1019,-345 999.58,-334.58 978.7,-321.72 961.65,-310.75"/>
<polygon fill="black" stroke="black" points="963.41,-307.72 953.12,-305.22 959.6,-313.59 963.41,-307.72"/>
</g>
<!-- roo_quantity&#45;&gt;roo_time -->
<g id="edge44" class="edge">
<title>roo_quantity&#45;&gt;roo_time</title>
<path fill="none" stroke="red" d="M1094.61,-362.67C1089.95,-337.2 1081.41,-289.67 1075,-249 1069.55,-214.42 1072.35,-205 1064,-171 1060,-154.7 1053.82,-136.99 1048.39,-122.78"/>
<polygon fill="red" stroke="red" points="1051.51,-121.15 1044.6,-113.11 1044.99,-123.7 1051.51,-121.15"/>
<text text-anchor="middle" x="1102" y="-241" font-family="Times,serif" font-size="10.00" fill="red">1.3.2</text>
<text text-anchor="middle" x="1102" y="-230" font-family="Times,serif" font-size="10.00" fill="red">(latest: 1.3.3)</text>
</g>
<!-- roo_scheduler&#45;&gt;roo_collections -->
<g id="edge46" class="edge">
<title>roo_scheduler&#45;&gt;roo_collections</title>
<path fill="none" stroke="black" d="M1137.27,-279.48C1084.06,-273.01 994.57,-261.56 918,-249 867.08,-240.65 855.24,-233.11 804,-227 634.35,-206.76 590.2,-223.91 420,-209 393.72,-206.7 364.78,-203.15 340.07,-199.81"/>
<polygon fill="black" stroke="black" points="340.49,-196.33 330.11,-198.44 339.54,-203.27 340.49,-196.33"/>
</g>
<!-- roo_scheduler&#45;&gt;roo_testing -->
<g id="edge45" class="edge">
<title>roo_scheduler&#45;&gt;roo_testing</title>
<path fill="none" stroke="red" d="M1204.93,-266.81C1220.2,-254.27 1241.84,-237.95 1263,-227 1285.47,-215.37 1302.21,-229.52 1317,-209 1326.88,-195.3 1322.75,-186.88 1317,-171 1311.66,-156.28 1249.27,-85.11 1214.34,-45.96"/>
<polygon fill="red" stroke="red" points="1216.6,-43.25 1207.33,-38.12 1211.39,-47.91 1216.6,-43.25"/>
<text text-anchor="middle" x="1331" y="-145" font-family="Times,serif" font-size="10.00" fill="red">1.1.7</text>
<text text-anchor="middle" x="1331" y="-134" font-family="Times,serif" font-size="10.00" fill="red">(latest: 1.1.8)</text>
</g>
<!-- roo_scheduler&#45;&gt;roo_threads -->
<g id="edge47" class="edge">
<title>roo_scheduler&#45;&gt;roo_threads</title>
<path fill="none" stroke="red" d="M1170.52,-266.99C1158.75,-251.8 1142.15,-231.78 1133,-227 1069.96,-194.09 1043.45,-224.33 974,-209 972.72,-208.72 971.44,-208.42 970.14,-208.1"/>
<polygon fill="red" stroke="red" points="970.71,-204.63 960.14,-205.4 968.88,-211.39 970.71,-204.63"/>
<text text-anchor="middle" x="1181" y="-241" font-family="Times,serif" font-size="10.00" fill="red">1.1.5</text>
<text text-anchor="middle" x="1181" y="-230" font-family="Times,serif" font-size="10.00" fill="red">(latest: 1.1.6)</text>
</g>
<!-- roo_scheduler&#45;&gt;roo_time -->
<g id="edge48" class="edge">
<title>roo_scheduler&#45;&gt;roo_time</title>
<path fill="none" stroke="red" d="M1201.51,-267C1211.17,-254.85 1219.46,-238.93 1210,-227 1188.16,-199.47 1160.8,-230.5 1133,-209 1102.02,-185.04 1118.34,-159.98 1092,-131 1088.02,-126.62 1083.39,-122.53 1078.54,-118.8"/>
<polygon fill="red" stroke="red" points="1080.42,-115.85 1070.25,-112.88 1076.35,-121.54 1080.42,-115.85"/>
<text text-anchor="middle" x="1160" y="-193" font-family="Times,serif" font-size="10.00" fill="red">1.3.2</text>
<text text-anchor="middle" x="1160" y="-182" font-family="Times,serif" font-size="10.00" fill="red">(latest: 1.3.3)</text>
</g>
<!-- roo_threads&#45;&gt;roo_time -->
<g id="edge49" class="edge">
<title>roo_threads&#45;&gt;roo_time</title>
<path fill="none" stroke="black" d="M937.71,-170.88C949.72,-158.98 966.24,-143.38 982,-131 987.31,-126.83 993.1,-122.67 998.86,-118.73"/>
<polygon fill="black" stroke="black" points="1000.85,-121.61 1007.23,-113.15 996.97,-115.78 1000.85,-121.61"/>
</g>
<!-- roo_time&#45;&gt;roo_testing -->
<g id="edge50" class="edge">
<title>roo_time&#45;&gt;roo_testing</title>
<path fill="none" stroke="black" d="M1070.04,-77.34C1091.49,-67.17 1119.8,-53.75 1143.63,-42.45"/>
<polygon fill="black" stroke="black" points="1145.33,-45.52 1152.86,-38.08 1142.33,-39.2 1145.33,-45.52"/>
</g>
<!-- roo_time_ds3231 -->
<g id="node23" class="node">
<title>roo_time_ds3231</title>
<polygon fill="#b1dbab" stroke="black" points="1308,-209 1196,-209 1196,-171 1308,-171 1308,-209"/>
<text text-anchor="middle" x="1252" y="-193.8" font-family="Times,serif" font-size="14.00">roo_time_ds3231</text>
<text text-anchor="middle" x="1252" y="-178.8" font-family="Times,serif" font-size="14.00">1.1.3</text>
</g>
<!-- roo_time_ds3231&#45;&gt;roo_time -->
<g id="edge51" class="edge">
<title>roo_time_ds3231&#45;&gt;roo_time</title>
<path fill="none" stroke="black" d="M1219.12,-170.85C1196.63,-158.79 1165.94,-143.03 1138,-131 1119.16,-122.89 1097.82,-115.09 1079.63,-108.84"/>
<polygon fill="black" stroke="black" points="1080.76,-105.52 1070.16,-105.62 1078.51,-112.15 1080.76,-105.52"/>
</g>
<!-- roo_transceivers&#45;&gt;roo_prefs -->
<g id="edge53" class="edge">
<title>roo_transceivers&#45;&gt;roo_prefs</title>
<path fill="none" stroke="black" d="M1500.56,-437.96C1498.1,-429.8 1495.14,-419.97 1492.4,-410.89"/>
<polygon fill="black" stroke="black" points="1495.69,-409.66 1489.45,-401.09 1488.99,-411.67 1495.69,-409.66"/>
</g>
<!-- roo_transceivers&#45;&gt;roo_testing -->
<g id="edge52" class="edge">
<title>roo_transceivers&#45;&gt;roo_testing</title>
<path fill="none" stroke="red" d="M1523.37,-437.95C1527.95,-432.5 1532.57,-426.28 1536,-420 1540.25,-412.23 1539.51,-409.5 1542,-401 1564.51,-324.12 1555.9,-299.95 1589,-227 1592.97,-218.24 1598.21,-218.2 1601,-209 1620.18,-145.65 1578.8,-125.49 1536,-75 1528.07,-65.65 1527.12,-61.17 1516,-56 1468.09,-33.73 1318.02,-24.81 1239.69,-21.6"/>
<polygon fill="red" stroke="red" points="1239.72,-18.1 1229.59,-21.21 1239.44,-25.1 1239.72,-18.1"/>
<text text-anchor="middle" x="1616" y="-241" font-family="Times,serif" font-size="10.00" fill="red">1.1.7</text>
<text text-anchor="middle" x="1616" y="-230" font-family="Times,serif" font-size="10.00" fill="red">(latest: 1.1.8)</text>
</g>
<!-- roo_transceivers&#45;&gt;roo_threads -->
<g id="edge54" class="edge">
<title>roo_transceivers&#45;&gt;roo_threads</title>
<path fill="none" stroke="red" d="M1452.73,-438.37C1378.37,-412.94 1240.08,-362.64 1129,-305 1072.54,-275.7 1065.41,-256.39 1009,-227 996.51,-220.49 982.57,-214.36 969.5,-209.06"/>
<polygon fill="red" stroke="red" points="970.75,-205.79 960.17,-205.36 968.17,-212.3 970.75,-205.79"/>
<text text-anchor="middle" x="1238" y="-337" font-family="Times,serif" font-size="10.00" fill="red">1.1.5</text>
<text text-anchor="middle" x="1238" y="-326" font-family="Times,serif" font-size="10.00" fill="red">(latest: 1.1.6)</text>
</g>
<!-- roo_transceivers&#45;&gt;roo_time -->
<g id="edge55" class="edge">
<title>roo_transceivers&#45;&gt;roo_time</title>
<path fill="none" stroke="red" d="M1515.49,-437.99C1524.17,-419.13 1534.59,-388.72 1527,-363 1518.04,-332.66 1389.72,-146.24 1362,-131 1314.6,-104.95 1157.72,-97.73 1080.59,-95.75"/>
<polygon fill="red" stroke="red" points="1080.33,-92.24 1070.25,-95.5 1080.17,-99.24 1080.33,-92.24"/>
<text text-anchor="middle" x="1520" y="-289" font-family="Times,serif" font-size="10.00" fill="red">1.3.2</text>
<text text-anchor="middle" x="1520" y="-278" font-family="Times,serif" font-size="10.00" fill="red">(latest: 1.3.3)</text>
</g>
<!-- roo_transport -->
<g id="node25" class="node">
<title>roo_transport</title>
<polygon fill="plum" stroke="black" points="513.5,-476 424.5,-476 424.5,-438 513.5,-438 513.5,-476"/>
<text text-anchor="middle" x="469" y="-460.8" font-family="Times,serif" font-size="14.00">roo_transport</text>
<text text-anchor="middle" x="469" y="-445.8" font-family="Times,serif" font-size="14.00">1.0.1</text>
</g>
<!-- roo_transport&#45;&gt;roo_collections -->
<g id="edge57" class="edge">
<title>roo_transport&#45;&gt;roo_collections</title>
<path fill="none" stroke="black" d="M451.53,-437.73C441.85,-427.29 429.83,-413.77 420,-401 363.47,-327.54 357,-303.74 305,-227 302.91,-223.92 300.71,-220.71 298.52,-217.52"/>
<polygon fill="black" stroke="black" points="301.37,-215.49 292.8,-209.26 295.61,-219.47 301.37,-215.49"/>
</g>
<!-- roo_transport&#45;&gt;roo_io -->
<g id="edge58" class="edge">
<title>roo_transport&#45;&gt;roo_io</title>
<path fill="none" stroke="black" d="M465.79,-437.96C464.35,-429.88 462.62,-420.18 461.02,-411.18"/>
<polygon fill="black" stroke="black" points="464.42,-410.32 459.22,-401.09 457.53,-411.55 464.42,-410.32"/>
</g>
<!-- roo_transport&#45;&gt;roo_testing -->
<g id="edge56" class="edge">
<title>roo_transport&#45;&gt;roo_testing</title>
<path fill="none" stroke="red" d="M478.73,-437.74C483.75,-427.29 489.36,-413.77 492,-401 507.65,-325.26 464.64,-298.55 494,-227 537.46,-121.07 594.68,-114.9 702,-75 782.01,-45.25 1035.1,-28.43 1142.29,-22.48"/>
<polygon fill="red" stroke="red" points="1142.7,-25.97 1152.5,-21.93 1142.32,-18.98 1142.7,-25.97"/>
<text text-anchor="middle" x="521" y="-241" font-family="Times,serif" font-size="10.00" fill="red">1.1.7</text>
<text text-anchor="middle" x="521" y="-230" font-family="Times,serif" font-size="10.00" fill="red">(latest: 1.1.8)</text>
</g>
<!-- roo_transport&#45;&gt;roo_threads -->
<g id="edge59" class="edge">
<title>roo_transport&#45;&gt;roo_threads</title>
<path fill="none" stroke="red" d="M513.81,-446.07C548.93,-437.21 598.32,-422.32 638,-401 747.51,-342.16 754.07,-296.71 857,-227 863.45,-222.63 870.47,-218.27 877.4,-214.17"/>
<polygon fill="red" stroke="red" points="879.18,-217.18 886.07,-209.13 875.67,-211.12 879.18,-217.18"/>
<text text-anchor="middle" x="771" y="-337" font-family="Times,serif" font-size="10.00" fill="red">1.1.5</text>
<text text-anchor="middle" x="771" y="-326" font-family="Times,serif" font-size="10.00" fill="red">(latest: 1.1.6)</text>
</g>
<!-- roo_wifi -->
<g id="node26" class="node">
<title>roo_wifi</title>
<polygon fill="plum" stroke="black" points="1794.5,-476 1731.5,-476 1731.5,-438 1794.5,-438 1794.5,-476"/>
<text text-anchor="middle" x="1763" y="-460.8" font-family="Times,serif" font-size="14.00">roo_wifi</text>
<text text-anchor="middle" x="1763" y="-445.8" font-family="Times,serif" font-size="14.00">1.1.1</text>
</g>
<!-- roo_wifi&#45;&gt;roo_prefs -->
<g id="edge61" class="edge">
<title>roo_wifi&#45;&gt;roo_prefs</title>
<path fill="none" stroke="black" d="M1731.27,-447.7C1681.42,-434.65 1584.62,-409.33 1528.05,-394.53"/>
<polygon fill="black" stroke="black" points="1528.87,-391.12 1518.31,-391.98 1527.1,-397.9 1528.87,-391.12"/>
</g>
<!-- roo_wifi&#45;&gt;roo_testing -->
<g id="edge60" class="edge">
<title>roo_wifi&#45;&gt;roo_testing</title>
<path fill="none" stroke="red" d="M1759.49,-437.78C1756.97,-423.05 1754,-401.77 1754,-383 1754,-383 1754,-383 1754,-93 1754,-73.4 1746.9,-65.93 1730,-56 1688.36,-31.54 1364.84,-23.14 1239.96,-20.79"/>
<polygon fill="red" stroke="red" points="1239.97,-17.29 1229.91,-20.6 1239.84,-24.28 1239.97,-17.29"/>
<text text-anchor="middle" x="1781" y="-241" font-family="Times,serif" font-size="10.00" fill="red">1.1.7</text>
<text text-anchor="middle" x="1781" y="-230" font-family="Times,serif" font-size="10.00" fill="red">(latest: 1.1.8)</text>
</g>
<!-- roo_windows&#45;&gt;roo_icons -->
<g id="edge64" class="edge">
<title>roo_windows&#45;&gt;roo_icons</title>
<path fill="none" stroke="black" d="M426.81,-591.4C387.26,-578.63 330.14,-560.18 290.73,-547.45"/>
<polygon fill="black" stroke="black" points="291.71,-544.09 281.12,-544.34 289.56,-550.75 291.71,-544.09"/>
</g>
<!-- roo_windows&#45;&gt;roo_locale -->
<g id="edge63" class="edge">
<title>roo_windows&#45;&gt;roo_locale</title>
<path fill="none" stroke="black" d="M426.82,-604.36C344.11,-600.87 171.72,-591.24 116,-570 108.09,-566.99 100.31,-562.42 93.3,-557.51"/>
<polygon fill="black" stroke="black" points="94.97,-554.39 84.87,-551.19 90.78,-559.99 94.97,-554.39"/>
</g>
<!-- roo_windows&#45;&gt;roo_scheduler -->
<g id="edge65" class="edge">
<title>roo_windows&#45;&gt;roo_scheduler</title>
<path fill="none" stroke="black" d="M517,-606.75C677.88,-608.37 1220.17,-604.09 1319,-476 1350.48,-435.2 1314.45,-362.04 1276,-323 1272.93,-319.88 1257.67,-313.52 1240.44,-307.01"/>
<polygon fill="black" stroke="black" points="1241.33,-303.6 1230.73,-303.39 1238.88,-310.16 1241.33,-303.6"/>
</g>
<!-- roo_windows&#45;&gt;roo_testing -->
<g id="edge62" class="edge">
<title>roo_windows&#45;&gt;roo_testing</title>
<path fill="none" stroke="red" d="M426.99,-601.42C359.76,-593.83 237.24,-576.86 202,-551 117.64,-489.09 115.04,-446.09 88,-345 81.34,-320.09 87,-312.78 87,-287 87,-287 87,-287 87,-93 87,-40.43 9.55,-77.12 295,-56 617.68,-32.13 1006.98,-23.29 1142.05,-20.81"/>
<polygon fill="red" stroke="red" points="1142.15,-24.31 1152.08,-20.63 1142.02,-17.31 1142.15,-24.31"/>
<text text-anchor="middle" x="115" y="-337" font-family="Times,serif" font-size="10.00" fill="red">1.1.7</text>
<text text-anchor="middle" x="115" y="-326" font-family="Times,serif" font-size="10.00" fill="red">(latest: 1.1.8)</text>
</g>
<!-- roo_windows&#45;&gt;roo_time -->
<g id="edge66" class="edge">
<title>roo_windows&#45;&gt;roo_time</title>
<path fill="none" stroke="red" d="M479.42,-587.84C512.25,-507.59 643.54,-188.01 659,-171 683.88,-143.62 696.76,-142.26 732,-131 821.83,-102.29 933.13,-96.06 993.35,-94.96"/>
<polygon fill="red" stroke="red" points="993.68,-98.46 1003.63,-94.82 993.58,-91.46 993.68,-98.46"/>
<text text-anchor="middle" x="599" y="-385" font-family="Times,serif" font-size="10.00" fill="red">1.3.2</text>
<text text-anchor="middle" x="599" y="-374" font-family="Times,serif" font-size="10.00" fill="red">(latest: 1.3.3)</text>
</g>
<!-- roo_windows_transceivers -->
<g id="node28" class="node">
<title>roo_windows_transceivers</title>
<polygon fill="plum" stroke="black" points="1586.5,-701 1425.5,-701 1425.5,-663 1586.5,-663 1586.5,-701"/>
<text text-anchor="middle" x="1506" y="-685.8" font-family="Times,serif" font-size="14.00">roo_windows_transceivers</text>
<text text-anchor="middle" x="1506" y="-670.8" font-family="Times,serif" font-size="14.00">1.0.0</text>
</g>
<!-- roo_windows_transceivers&#45;&gt;roo_testing -->
<g id="edge67" class="edge">
<title>roo_windows_transceivers&#45;&gt;roo_testing</title>
<path fill="none" stroke="black" d="M1586.7,-666.26C1641.1,-653.94 1703,-634.17 1703,-608 1703,-608 1703,-608 1703,-456 1703,-359.38 1716,-335.62 1716,-239 1716,-239 1716,-239 1716,-93 1716,-45.18 1369.85,-26.89 1239.69,-21.7"/>
<polygon fill="black" stroke="black" points="1239.73,-18.2 1229.6,-21.31 1239.46,-25.19 1239.73,-18.2"/>
</g>
<!-- roo_windows_transceivers&#45;&gt;roo_transceivers -->
<g id="edge68" class="edge">
<title>roo_windows_transceivers&#45;&gt;roo_transceivers</title>
<path fill="none" stroke="black" d="M1506,-662.75C1506,-623.94 1506,-532.97 1506,-486.47"/>
<polygon fill="black" stroke="black" points="1509.5,-486.19 1506,-476.19 1502.5,-486.19 1509.5,-486.19"/>
</g>
<!-- roo_windows_transceivers&#45;&gt;roo_windows -->
<g id="edge69" class="edge">
<title>roo_windows_transceivers&#45;&gt;roo_windows</title>
<path fill="none" stroke="black" d="M1425.29,-675.3C1223.15,-661.03 699.03,-624.03 527.35,-611.91"/>
<polygon fill="black" stroke="black" points="527.49,-608.41 517.27,-611.2 527,-615.39 527.49,-608.41"/>
</g>
<!-- roo_windows_wifi -->
<g id="node29" class="node">
<title>roo_windows_wifi</title>
<polygon fill="plum" stroke="black" points="1822.5,-701 1703.5,-701 1703.5,-663 1822.5,-663 1822.5,-701"/>
<text text-anchor="middle" x="1763" y="-685.8" font-family="Times,serif" font-size="14.00">roo_windows_wifi</text>
<text text-anchor="middle" x="1763" y="-670.8" font-family="Times,serif" font-size="14.00">1.1.2</text>
</g>
<!-- roo_windows_wifi&#45;&gt;roo_testing -->
<g id="edge70" class="edge">
<title>roo_windows_wifi&#45;&gt;roo_testing</title>
<path fill="none" stroke="red" d="M1789.84,-662.91C1805.82,-649.8 1823,-630.47 1823,-608 1823,-608 1823,-608 1823,-93 1823,-34.35 1387.93,-22.77 1239.75,-20.53"/>
<polygon fill="red" stroke="red" points="1239.63,-17.03 1229.58,-20.38 1239.53,-24.02 1239.63,-17.03"/>
<text text-anchor="middle" x="1850" y="-385" font-family="Times,serif" font-size="10.00" fill="red">1.1.7</text>
<text text-anchor="middle" x="1850" y="-374" font-family="Times,serif" font-size="10.00" fill="red">(latest: 1.1.8)</text>
</g>
<!-- roo_windows_wifi&#45;&gt;roo_wifi -->
<g id="edge71" class="edge">
<title>roo_windows_wifi&#45;&gt;roo_wifi</title>
<path fill="none" stroke="black" d="M1763,-662.75C1763,-623.94 1763,-532.97 1763,-486.47"/>
<polygon fill="black" stroke="black" points="1766.5,-486.19 1763,-476.19 1759.5,-486.19 1766.5,-486.19"/>
</g>
<!-- roo_windows_wifi&#45;&gt;roo_windows -->
<g id="edge72" class="edge">
<title>roo_windows_wifi&#45;&gt;roo_windows</title>
<path fill="none" stroke="black" d="M1703.18,-673.69C1671.38,-670.03 1631.61,-665.79 1596,-663 1186.23,-630.92 690.86,-614.42 527.32,-609.56"/>
<polygon fill="black" stroke="black" points="527.13,-606.05 517.03,-609.26 526.93,-613.05 527.13,-606.05"/>
</g>
</g>
</svg>
