<?xml version="1.0" encoding="UTF-8" standalone="no"?>
<!DOCTYPE svg PUBLIC "-//W3C//DTD SVG 1.1//EN"
 "http://www.w3.org/Graphics/SVG/1.1/DTD/svg11.dtd">
<!-- Generated by graphviz version 2.42.4 (0)
 -->
<!-- Title: dependencies Pages: 1 -->
<svg width="831pt" height="746pt"
 viewBox="0.00 0.00 831.00 746.00" xmlns="http://www.w3.org/2000/svg" xmlns:xlink="http://www.w3.org/1999/xlink">
<g id="graph0" class="graph" transform="scale(1 1) rotate(0) translate(4 742)">
<title>dependencies</title>
<polygon fill="white" stroke="transparent" points="-4,4 -4,-742 827,-742 827,4 -4,4"/>
<!-- roo_backport -->
<g id="node1" class="node">
<title>roo_backport</title>
<polygon fill="#b1dbab" stroke="black" points="551,-188 441,-188 441,-150 551,-150 551,-188"/>
<text text-anchor="middle" x="496" y="-172.8" font-family="Times,serif" font-size="14.00">roo_backport</text>
<text text-anchor="middle" x="496" y="-157.8" font-family="Times,serif" font-size="14.00">1.2.1</text>
</g>
<!-- roo_blink -->
<g id="node2" class="node">
<title>roo_blink</title>
<polygon fill="#b1dbab" stroke="black" points="150,-434 68,-434 68,-396 150,-396 150,-434"/>
<text text-anchor="middle" x="109" y="-418.8" font-family="Times,serif" font-size="14.00">roo_blink</text>
<text text-anchor="middle" x="109" y="-403.8" font-family="Times,serif" font-size="14.00">1.0.5</text>
</g>
<!-- roo_logging -->
<g id="node12" class="node">
<title>roo_logging</title>
<polygon fill="#b1dbab" stroke="black" points="433,-263 333,-263 333,-225 433,-225 433,-263"/>
<text text-anchor="middle" x="383" y="-247.8" font-family="Times,serif" font-size="14.00">roo_logging</text>
<text text-anchor="middle" x="383" y="-232.8" font-family="Times,serif" font-size="14.00">1.5.3</text>
</g>
<!-- roo_blink&#45;&gt;roo_logging -->
<g id="edge1" class="edge">
<title>roo_blink&#45;&gt;roo_logging</title>
<path fill="none" stroke="black" d="M123.38,-395.96C143.75,-371.41 183.21,-327.41 225,-300 254.7,-280.53 292.07,-267.11 323.01,-258.4"/>
<polygon fill="black" stroke="black" points="324.08,-261.74 332.81,-255.74 322.24,-254.98 324.08,-261.74"/>
</g>
<!-- roo_scheduler -->
<g id="node16" class="node">
<title>roo_scheduler</title>
<polygon fill="#b1dbab" stroke="black" points="377,-338 261,-338 261,-300 377,-300 377,-338"/>
<text text-anchor="middle" x="319" y="-322.8" font-family="Times,serif" font-size="14.00">roo_scheduler</text>
<text text-anchor="middle" x="319" y="-307.8" font-family="Times,serif" font-size="14.00">2.1.7</text>
</g>
<!-- roo_blink&#45;&gt;roo_scheduler -->
<g id="edge2" class="edge">
<title>roo_blink&#45;&gt;roo_scheduler</title>
<path fill="none" stroke="black" d="M149.49,-395.88C183.63,-380.6 232.61,-358.67 269.16,-342.31"/>
<polygon fill="black" stroke="black" points="270.94,-345.35 278.63,-338.07 268.08,-338.96 270.94,-345.35"/>
</g>
<!-- roo_collections -->
<g id="node3" class="node">
<title>roo_collections</title>
<polygon fill="#b1dbab" stroke="black" points="677,-263 555,-263 555,-225 677,-225 677,-263"/>
<text text-anchor="middle" x="616" y="-247.8" font-family="Times,serif" font-size="14.00">roo_collections</text>
<text text-anchor="middle" x="616" y="-232.8" font-family="Times,serif" font-size="14.00">1.4.1</text>
</g>
<!-- roo_collections&#45;&gt;roo_backport -->
<g id="edge3" class="edge">
<title>roo_collections&#45;&gt;roo_backport</title>
<path fill="none" stroke="black" d="M586.34,-224.96C570.76,-215.48 551.48,-203.75 534.74,-193.57"/>
<polygon fill="black" stroke="black" points="536.1,-190.3 525.74,-188.09 532.46,-196.28 536.1,-190.3"/>
</g>
<!-- roo_comms -->
<g id="node4" class="node">
<title>roo_comms</title>
<polygon fill="plum" stroke="red" points="385.5,-642 288.5,-642 288.5,-604 385.5,-604 385.5,-642"/>
<text text-anchor="middle" x="337" y="-626.8" font-family="Times,serif" font-size="14.00">roo_comms</text>
<text text-anchor="middle" x="337" y="-611.8" font-family="Times,serif" font-size="14.00">1.1.3</text>
</g>
<!-- roo_comms&#45;&gt;roo_blink -->
<g id="edge4" class="edge">
<title>roo_comms&#45;&gt;roo_blink</title>
<path fill="none" stroke="red" d="M288.14,-615.41C237.88,-605.86 161.52,-583.08 122,-530 103.68,-505.39 102.7,-469.14 104.82,-444.15"/>
<polygon fill="red" stroke="red" points="108.3,-444.52 105.88,-434.2 101.34,-443.78 108.3,-444.52"/>
<text text-anchor="middle" x="155" y="-514" font-family="Times,serif" font-size="10.00" fill="red">1.0.4</text>
<text text-anchor="middle" x="155" y="-503" font-family="Times,serif" font-size="10.00" fill="red">(latest: 1.0.5)</text>
</g>
<!-- roo_control -->
<g id="node5" class="node">
<title>roo_control</title>
<polygon fill="#b1dbab" stroke="black" points="366.5,-434 269.5,-434 269.5,-396 366.5,-396 366.5,-434"/>
<text text-anchor="middle" x="318" y="-418.8" font-family="Times,serif" font-size="14.00">roo_control</text>
<text text-anchor="middle" x="318" y="-403.8" font-family="Times,serif" font-size="14.00">1.2.4</text>
</g>
<!-- roo_comms&#45;&gt;roo_control -->
<g id="edge5" class="edge">
<title>roo_comms&#45;&gt;roo_control</title>
<path fill="none" stroke="red" d="M339.58,-603.8C342.7,-578.55 346.85,-531.54 341,-492 338.58,-475.65 333.38,-457.94 328.54,-443.74"/>
<polygon fill="red" stroke="red" points="331.76,-442.34 325.12,-434.08 325.16,-444.68 331.76,-442.34"/>
<text text-anchor="middle" x="377" y="-514" font-family="Times,serif" font-size="10.00" fill="red">1.2.3</text>
<text text-anchor="middle" x="377" y="-503" font-family="Times,serif" font-size="10.00" fill="red">(latest: 1.2.4)</text>
</g>
<!-- roo_io -->
<g id="node10" class="node">
<title>roo_io</title>
<polygon fill="#b1dbab" stroke="black" points="579.5,-338 520.5,-338 520.5,-300 579.5,-300 579.5,-338"/>
<text text-anchor="middle" x="550" y="-322.8" font-family="Times,serif" font-size="14.00">roo_io</text>
<text text-anchor="middle" x="550" y="-307.8" font-family="Times,serif" font-size="14.00">2.1.4</text>
</g>
<!-- roo_comms&#45;&gt;roo_io -->
<g id="edge6" class="edge">
<title>roo_comms&#45;&gt;roo_io</title>
<path fill="none" stroke="red" d="M353.19,-603.77C369.17,-585.52 394.04,-556.43 414,-530 439.26,-496.55 436.33,-480.57 467,-452 478.66,-441.14 487.3,-445.8 498,-434 520.5,-409.18 534.75,-372.97 542.53,-348.05"/>
<polygon fill="red" stroke="red" points="545.98,-348.71 545.47,-338.13 539.27,-346.72 545.98,-348.71"/>
<text text-anchor="middle" x="500" y="-466" font-family="Times,serif" font-size="10.00" fill="red">2.1.1</text>
<text text-anchor="middle" x="500" y="-455" font-family="Times,serif" font-size="10.00" fill="red">(latest: 2.1.4)</text>
</g>
<!-- roo_transceivers -->
<g id="node21" class="node">
<title>roo_transceivers</title>
<polygon fill="khaki" stroke="red" points="332.5,-530 197.5,-530 197.5,-492 332.5,-492 332.5,-530"/>
<text text-anchor="middle" x="265" y="-514.8" font-family="Times,serif" font-size="14.00">roo_transceivers</text>
<text text-anchor="middle" x="265" y="-499.8" font-family="Times,serif" font-size="14.00">1.1.4</text>
</g>
<!-- roo_comms&#45;&gt;roo_transceivers -->
<g id="edge7" class="edge">
<title>roo_comms&#45;&gt;roo_transceivers</title>
<path fill="none" stroke="black" d="M325.11,-603.84C313.49,-586.08 295.67,-558.85 282.44,-538.65"/>
<polygon fill="black" stroke="black" points="285.31,-536.64 276.91,-530.19 279.46,-540.48 285.31,-536.64"/>
</g>
<!-- roo_quantity -->
<g id="node15" class="node">
<title>roo_quantity</title>
<polygon fill="#b1dbab" stroke="black" points="502.5,-338 395.5,-338 395.5,-300 502.5,-300 502.5,-338"/>
<text text-anchor="middle" x="449" y="-322.8" font-family="Times,serif" font-size="14.00">roo_quantity</text>
<text text-anchor="middle" x="449" y="-307.8" font-family="Times,serif" font-size="14.00">1.1.7</text>
</g>
<!-- roo_control&#45;&gt;roo_quantity -->
<g id="edge8" class="edge">
<title>roo_control&#45;&gt;roo_quantity</title>
<path fill="none" stroke="black" d="M343.26,-395.88C363.83,-381.12 393.04,-360.15 415.55,-344"/>
<polygon fill="black" stroke="black" points="417.74,-346.74 423.82,-338.07 413.65,-341.05 417.74,-346.74"/>
</g>
<!-- roo_control&#45;&gt;roo_scheduler -->
<g id="edge9" class="edge">
<title>roo_control&#45;&gt;roo_scheduler</title>
<path fill="none" stroke="black" d="M318.19,-395.88C318.34,-382.35 318.54,-363.62 318.7,-348.15"/>
<polygon fill="black" stroke="black" points="322.2,-348.11 318.81,-338.07 315.2,-348.03 322.2,-348.11"/>
</g>
<!-- roo_dashboard -->
<g id="node6" class="node">
<title>roo_dashboard</title>
<polygon fill="khaki" stroke="red" points="652,-738 530,-738 530,-700 652,-700 652,-738"/>
<text text-anchor="middle" x="591" y="-722.8" font-family="Times,serif" font-size="14.00">roo_dashboard</text>
<text text-anchor="middle" x="591" y="-707.8" font-family="Times,serif" font-size="14.00">1.0.1</text>
</g>
<!-- roo_windows -->
<g id="node24" class="node">
<title>roo_windows</title>
<polygon fill="plum" stroke="red" points="645.5,-642 536.5,-642 536.5,-604 645.5,-604 645.5,-642"/>
<text text-anchor="middle" x="591" y="-626.8" font-family="Times,serif" font-size="14.00">roo_windows</text>
<text text-anchor="middle" x="591" y="-611.8" font-family="Times,serif" font-size="14.00">1.4.2</text>
</g>
<!-- roo_dashboard&#45;&gt;roo_windows -->
<g id="edge10" class="edge">
<title>roo_dashboard&#45;&gt;roo_windows</title>
<path fill="none" stroke="red" d="M591,-699.88C591,-686.35 591,-667.62 591,-652.15"/>
<polygon fill="red" stroke="red" points="594.5,-652.07 591,-642.07 587.5,-652.07 594.5,-652.07"/>
<text text-anchor="middle" x="624" y="-674" font-family="Times,serif" font-size="10.00" fill="red">1.4.1</text>
<text text-anchor="middle" x="624" y="-663" font-family="Times,serif" font-size="10.00" fill="red">(latest: 1.4.2)</text>
</g>
<!-- roo_display -->
<g id="node7" class="node">
<title>roo_display</title>
<polygon fill="plum" stroke="red" points="813,-434 715,-434 715,-396 813,-396 813,-434"/>
<text text-anchor="middle" x="764" y="-418.8" font-family="Times,serif" font-size="14.00">roo_display</text>
<text text-anchor="middle" x="764" y="-403.8" font-family="Times,serif" font-size="14.00">2.3.2</text>
</g>
<!-- roo_display&#45;&gt;roo_collections -->
<g id="edge11" class="edge">
<title>roo_display&#45;&gt;roo_collections</title>
<path fill="none" stroke="red" d="M756.77,-395.73C746.61,-371.7 726.23,-329.12 699,-300 687.77,-287.99 673.41,-277.3 659.82,-268.62"/>
<polygon fill="red" stroke="red" points="661.38,-265.48 651.03,-263.22 657.71,-271.44 661.38,-265.48"/>
<text text-anchor="middle" x="759" y="-322" font-family="Times,serif" font-size="10.00" fill="red">1.4.0</text>
<text text-anchor="middle" x="759" y="-311" font-family="Times,serif" font-size="10.00" fill="red">(latest: 1.4.1)</text>
</g>
<!-- roo_display&#45;&gt;roo_io -->
<g id="edge12" class="edge">
<title>roo_display&#45;&gt;roo_io</title>
<path fill="none" stroke="red" d="M722.99,-395.99C684.28,-378.98 626.66,-353.67 588.72,-337.01"/>
<polygon fill="red" stroke="red" points="590.08,-333.78 579.52,-332.97 587.27,-340.19 590.08,-333.78"/>
<text text-anchor="middle" x="709" y="-370" font-family="Times,serif" font-size="10.00" fill="red">2.1.2</text>
<text text-anchor="middle" x="709" y="-359" font-family="Times,serif" font-size="10.00" fill="red">(latest: 2.1.4)</text>
</g>
<!-- roo_flags -->
<g id="node8" class="node">
<title>roo_flags</title>
<polygon fill="#b1dbab" stroke="black" points="423,-188 343,-188 343,-150 423,-150 423,-188"/>
<text text-anchor="middle" x="383" y="-172.8" font-family="Times,serif" font-size="14.00">roo_flags</text>
<text text-anchor="middle" x="383" y="-157.8" font-family="Times,serif" font-size="14.00">1.2.1</text>
</g>
<!-- roo_icons -->
<g id="node9" class="node">
<title>roo_icons</title>
<polygon fill="plum" stroke="red" points="788.5,-530 705.5,-530 705.5,-492 788.5,-492 788.5,-530"/>
<text text-anchor="middle" x="747" y="-514.8" font-family="Times,serif" font-size="14.00">roo_icons</text>
<text text-anchor="middle" x="747" y="-499.8" font-family="Times,serif" font-size="14.00">1.2.1</text>
</g>
<!-- roo_icons&#45;&gt;roo_display -->
<g id="edge13" class="edge">
<title>roo_icons&#45;&gt;roo_display</title>
<path fill="none" stroke="red" d="M750.28,-491.88C752.72,-478.35 756.11,-459.62 758.91,-444.15"/>
<polygon fill="red" stroke="red" points="762.4,-444.53 760.73,-434.07 755.51,-443.29 762.4,-444.53"/>
<text text-anchor="middle" x="790" y="-466" font-family="Times,serif" font-size="10.00" fill="red">2.3.1</text>
<text text-anchor="middle" x="790" y="-455" font-family="Times,serif" font-size="10.00" fill="red">(latest: 2.3.2)</text>
</g>
<!-- roo_io&#45;&gt;roo_logging -->
<g id="edge14" class="edge">
<title>roo_io&#45;&gt;roo_logging</title>
<path fill="none" stroke="black" d="M520.23,-304.16C517.12,-302.74 514,-301.34 511,-300 486.14,-288.93 458.42,-276.96 435.14,-267.03"/>
<polygon fill="black" stroke="black" points="436.36,-263.75 425.79,-263.05 433.62,-270.19 436.36,-263.75"/>
</g>
<!-- roo_locale -->
<g id="node11" class="node">
<title>roo_locale</title>
<polygon fill="#b1dbab" stroke="black" points="671,-530 583,-530 583,-492 671,-492 671,-530"/>
<text text-anchor="middle" x="627" y="-514.8" font-family="Times,serif" font-size="14.00">roo_locale</text>
<text text-anchor="middle" x="627" y="-499.8" font-family="Times,serif" font-size="14.00">1.1.1</text>
</g>
<!-- roo_logging&#45;&gt;roo_backport -->
<g id="edge15" class="edge">
<title>roo_logging&#45;&gt;roo_backport</title>
<path fill="none" stroke="black" d="M410.93,-224.96C425.6,-215.48 443.76,-203.75 459.52,-193.57"/>
<polygon fill="black" stroke="black" points="461.5,-196.46 468,-188.09 457.7,-190.58 461.5,-196.46"/>
</g>
<!-- roo_logging&#45;&gt;roo_flags -->
<g id="edge16" class="edge">
<title>roo_logging&#45;&gt;roo_flags</title>
<path fill="none" stroke="black" d="M383,-224.96C383,-216.88 383,-207.18 383,-198.18"/>
<polygon fill="black" stroke="black" points="386.5,-198.09 383,-188.09 379.5,-198.09 386.5,-198.09"/>
</g>
<!-- roo_threads -->
<g id="node18" class="node">
<title>roo_threads</title>
<polygon fill="#b1dbab" stroke="black" points="324.5,-188 223.5,-188 223.5,-150 324.5,-150 324.5,-188"/>
<text text-anchor="middle" x="274" y="-172.8" font-family="Times,serif" font-size="14.00">roo_threads</text>
<text text-anchor="middle" x="274" y="-157.8" font-family="Times,serif" font-size="14.00">1.2.1</text>
</g>
<!-- roo_logging&#45;&gt;roo_threads -->
<g id="edge17" class="edge">
<title>roo_logging&#45;&gt;roo_threads</title>
<path fill="none" stroke="black" d="M356.06,-224.96C342.04,-215.57 324.72,-203.97 309.61,-193.85"/>
<polygon fill="black" stroke="black" points="311.27,-190.75 301.01,-188.09 307.37,-196.56 311.27,-190.75"/>
</g>
<!-- roo_onewire -->
<g id="node13" class="node">
<title>roo_onewire</title>
<polygon fill="#b1dbab" stroke="black" points="489,-434 385,-434 385,-396 489,-396 489,-434"/>
<text text-anchor="middle" x="437" y="-418.8" font-family="Times,serif" font-size="14.00">roo_onewire</text>
<text text-anchor="middle" x="437" y="-403.8" font-family="Times,serif" font-size="14.00">2.0.8</text>
</g>
<!-- roo_onewire&#45;&gt;roo_quantity -->
<g id="edge19" class="edge">
<title>roo_onewire&#45;&gt;roo_quantity</title>
<path fill="none" stroke="black" d="M439.31,-395.88C441.04,-382.35 443.43,-363.62 445.41,-348.15"/>
<polygon fill="black" stroke="black" points="448.9,-348.43 446.69,-338.07 441.96,-347.54 448.9,-348.43"/>
</g>
<!-- roo_onewire&#45;&gt;roo_scheduler -->
<g id="edge18" class="edge">
<title>roo_onewire&#45;&gt;roo_scheduler</title>
<path fill="none" stroke="black" d="M414.25,-395.88C395.88,-381.25 369.87,-360.52 349.67,-344.43"/>
<polygon fill="black" stroke="black" points="351.68,-341.56 341.68,-338.07 347.32,-347.04 351.68,-341.56"/>
</g>
<!-- roo_prefs -->
<g id="node14" class="node">
<title>roo_prefs</title>
<polygon fill="#b1dbab" stroke="black" points="251.5,-434 168.5,-434 168.5,-396 251.5,-396 251.5,-434"/>
<text text-anchor="middle" x="210" y="-418.8" font-family="Times,serif" font-size="14.00">roo_prefs</text>
<text text-anchor="middle" x="210" y="-403.8" font-family="Times,serif" font-size="14.00">1.2.8</text>
</g>
<!-- roo_prefs&#45;&gt;roo_logging -->
<g id="edge20" class="edge">
<title>roo_prefs&#45;&gt;roo_logging</title>
<path fill="none" stroke="black" d="M212.16,-395.84C216,-371.15 226.2,-326.98 252,-300 271.04,-280.09 298.4,-267.09 323.19,-258.75"/>
<polygon fill="black" stroke="black" points="324.43,-262.03 332.91,-255.67 322.32,-255.36 324.43,-262.03"/>
</g>
<!-- roo_prefs&#45;&gt;roo_scheduler -->
<g id="edge21" class="edge">
<title>roo_prefs&#45;&gt;roo_scheduler</title>
<path fill="none" stroke="black" d="M248.86,-395.93C257.93,-390.81 267.2,-384.76 275,-378 285.37,-369.01 294.86,-357.22 302.35,-346.61"/>
<polygon fill="black" stroke="black" points="305.43,-348.3 308.15,-338.06 299.64,-344.37 305.43,-348.3"/>
</g>
<!-- roo_quantity&#45;&gt;roo_logging -->
<g id="edge22" class="edge">
<title>roo_quantity&#45;&gt;roo_logging</title>
<path fill="none" stroke="black" d="M432.69,-299.96C424.67,-291.09 414.88,-280.26 406.11,-270.56"/>
<polygon fill="black" stroke="black" points="408.66,-268.16 399.36,-263.09 403.47,-272.86 408.66,-268.16"/>
</g>
<!-- roo_scheduler&#45;&gt;roo_collections -->
<g id="edge23" class="edge">
<title>roo_scheduler&#45;&gt;roo_collections</title>
<path fill="none" stroke="black" d="M377.08,-302.29C380.09,-301.51 383.08,-300.74 386,-300 439.2,-286.5 499.56,-272.1 545.1,-261.42"/>
<polygon fill="black" stroke="black" points="545.93,-264.82 554.87,-259.13 544.34,-258 545.93,-264.82"/>
</g>
<!-- roo_scheduler&#45;&gt;roo_threads -->
<g id="edge24" class="edge">
<title>roo_scheduler&#45;&gt;roo_threads</title>
<path fill="none" stroke="black" d="M313.48,-299.85C305.76,-274.44 291.64,-228.03 282.55,-198.12"/>
<polygon fill="black" stroke="black" points="285.82,-196.85 279.56,-188.3 279.12,-198.88 285.82,-196.85"/>
</g>
<!-- roo_testing -->
<g id="node17" class="node">
<title>roo_testing</title>
<polygon fill="#b1dbab" stroke="black" points="504.5,-38 407.5,-38 407.5,0 504.5,0 504.5,-38"/>
<text text-anchor="middle" x="456" y="-22.8" font-family="Times,serif" font-size="14.00">roo_testing</text>
<text text-anchor="middle" x="456" y="-7.8" font-family="Times,serif" font-size="14.00">1.2.1</text>
</g>
<!-- roo_time -->
<g id="node19" class="node">
<title>roo_time</title>
<polygon fill="#b1dbab" stroke="black" points="495.5,-113 416.5,-113 416.5,-75 495.5,-75 495.5,-113"/>
<text text-anchor="middle" x="456" y="-97.8" font-family="Times,serif" font-size="14.00">roo_time</text>
<text text-anchor="middle" x="456" y="-82.8" font-family="Times,serif" font-size="14.00">1.4.1</text>
</g>
<!-- roo_threads&#45;&gt;roo_time -->
<g id="edge25" class="edge">
<title>roo_threads&#45;&gt;roo_time</title>
<path fill="none" stroke="black" d="M318.99,-149.96C345.73,-139.23 379.67,-125.62 407.07,-114.62"/>
<polygon fill="black" stroke="black" points="408.5,-117.83 416.47,-110.85 405.89,-111.33 408.5,-117.83"/>
</g>
<!-- roo_time&#45;&gt;roo_testing -->
<g id="edge26" class="edge">
<title>roo_time&#45;&gt;roo_testing</title>
<path fill="none" stroke="black" d="M456,-74.96C456,-66.88 456,-57.18 456,-48.18"/>
<polygon fill="black" stroke="black" points="459.5,-48.09 456,-38.09 452.5,-48.09 459.5,-48.09"/>
</g>
<!-- roo_time_ds3231 -->
<g id="node20" class="node">
<title>roo_time_ds3231</title>
<polygon fill="#b1dbab" stroke="black" points="707,-188 569,-188 569,-150 707,-150 707,-188"/>
<text text-anchor="middle" x="638" y="-172.8" font-family="Times,serif" font-size="14.00">roo_time_ds3231</text>
<text text-anchor="middle" x="638" y="-157.8" font-family="Times,serif" font-size="14.00">1.1.5</text>
</g>
<!-- roo_time_ds3231&#45;&gt;roo_time -->
<g id="edge27" class="edge">
<title>roo_time_ds3231&#45;&gt;roo_time</title>
<path fill="none" stroke="black" d="M593.01,-149.96C566.27,-139.23 532.33,-125.62 504.93,-114.62"/>
<polygon fill="black" stroke="black" points="506.11,-111.33 495.53,-110.85 503.5,-117.83 506.11,-111.33"/>
</g>
<!-- roo_transceivers&#45;&gt;roo_prefs -->
<g id="edge28" class="edge">
<title>roo_transceivers&#45;&gt;roo_prefs</title>
<path fill="none" stroke="red" d="M254.4,-491.88C246.25,-477.96 234.89,-458.53 225.69,-442.82"/>
<polygon fill="red" stroke="red" points="228.64,-440.93 220.57,-434.07 222.6,-444.47 228.64,-440.93"/>
<text text-anchor="middle" x="276" y="-466" font-family="Times,serif" font-size="10.00" fill="red">1.2.7</text>
<text text-anchor="middle" x="276" y="-455" font-family="Times,serif" font-size="10.00" fill="red">(latest: 1.2.8)</text>
</g>
<!-- roo_transport -->
<g id="node22" class="node">
<title>roo_transport</title>
<polygon fill="#b1dbab" stroke="red" points="697,-434 583,-434 583,-396 697,-396 697,-434"/>
<text text-anchor="middle" x="640" y="-418.8" font-family="Times,serif" font-size="14.00">roo_transport</text>
<text text-anchor="middle" x="640" y="-403.8" font-family="Times,serif" font-size="14.00">1.1.1</text>
</g>
<!-- roo_transport&#45;&gt;roo_collections -->
<g id="edge29" class="edge">
<title>roo_transport&#45;&gt;roo_collections</title>
<path fill="none" stroke="black" d="M688.16,-395.97C695.28,-391.21 701.67,-385.3 706,-378 710.99,-369.59 709.27,-365.22 706,-356 693.97,-322.05 666.64,-290.91 645.23,-270.31"/>
<polygon fill="black" stroke="black" points="647.35,-267.49 637.65,-263.21 642.56,-272.6 647.35,-267.49"/>
</g>
<!-- roo_transport&#45;&gt;roo_io -->
<g id="edge30" class="edge">
<title>roo_transport&#45;&gt;roo_io</title>
<path fill="none" stroke="red" d="M582.81,-402.13C570.36,-396.82 558.64,-389.13 551,-378 545.12,-369.44 543.81,-358.36 544.35,-348.18"/>
<polygon fill="red" stroke="red" points="547.85,-348.36 545.47,-338.04 540.9,-347.6 547.85,-348.36"/>
<text text-anchor="middle" x="584" y="-370" font-family="Times,serif" font-size="10.00" fill="red">2.1.3</text>
<text text-anchor="middle" x="584" y="-359" font-family="Times,serif" font-size="10.00" fill="red">(latest: 2.1.4)</text>
</g>
<!-- roo_wifi -->
<g id="node23" class="node">
<title>roo_wifi</title>
<polygon fill="plum" stroke="red" points="72,-586 0,-586 0,-548 72,-548 72,-586"/>
<text text-anchor="middle" x="36" y="-570.8" font-family="Times,serif" font-size="14.00">roo_wifi</text>
<text text-anchor="middle" x="36" y="-555.8" font-family="Times,serif" font-size="14.00">1.1.3</text>
</g>
<!-- roo_wifi&#45;&gt;roo_prefs -->
<g id="edge31" class="edge">
<title>roo_wifi&#45;&gt;roo_prefs</title>
<path fill="none" stroke="red" d="M26.72,-547.72C20.03,-531.72 13.94,-508.51 25,-492 29.01,-486.01 105.64,-455.82 159,-435.34"/>
<polygon fill="red" stroke="red" points="160.25,-438.61 168.34,-431.77 157.75,-432.08 160.25,-438.61"/>
<text text-anchor="middle" x="58" y="-514" font-family="Times,serif" font-size="10.00" fill="red">1.2.7</text>
<text text-anchor="middle" x="58" y="-503" font-family="Times,serif" font-size="10.00" fill="red">(latest: 1.2.8)</text>
</g>
<!-- roo_windows&#45;&gt;roo_icons -->
<g id="edge33" class="edge">
<title>roo_windows&#45;&gt;roo_icons</title>
<path fill="none" stroke="black" d="M616.76,-603.84C643.15,-585.23 684.29,-556.22 713.26,-535.79"/>
<polygon fill="black" stroke="black" points="715.31,-538.63 721.46,-530.01 711.27,-532.91 715.31,-538.63"/>
</g>
<!-- roo_windows&#45;&gt;roo_locale -->
<g id="edge32" class="edge">
<title>roo_windows&#45;&gt;roo_locale</title>
<path fill="none" stroke="black" d="M596.94,-603.84C602.65,-586.4 611.35,-559.82 617.92,-539.74"/>
<polygon fill="black" stroke="black" points="621.26,-540.78 621.05,-530.19 614.61,-538.61 621.26,-540.78"/>
</g>
<!-- roo_windows&#45;&gt;roo_scheduler -->
<g id="edge34" class="edge">
<title>roo_windows&#45;&gt;roo_scheduler</title>
<path fill="none" stroke="red" d="M589.07,-603.83C583.5,-560.73 563.33,-451.8 498,-396 479.4,-380.12 424.53,-357.87 380.4,-341.55"/>
<polygon fill="red" stroke="red" points="381.47,-338.22 370.87,-338.06 379.06,-344.79 381.47,-338.22"/>
<text text-anchor="middle" x="587" y="-466" font-family="Times,serif" font-size="10.00" fill="red">2.1.6</text>
<text text-anchor="middle" x="587" y="-455" font-family="Times,serif" font-size="10.00" fill="red">(latest: 2.1.7)</text>
</g>
<!-- roo_windows_wifi -->
<g id="node25" class="node">
<title>roo_windows_wifi</title>
<polygon fill="khaki" stroke="red" points="383.5,-738 242.5,-738 242.5,-700 383.5,-700 383.5,-738"/>
<text text-anchor="middle" x="313" y="-722.8" font-family="Times,serif" font-size="14.00">roo_windows_wifi</text>
<text text-anchor="middle" x="313" y="-707.8" font-family="Times,serif" font-size="14.00">1.1.3</text>
</g>
<!-- roo_windows_wifi&#45;&gt;roo_wifi -->
<g id="edge35" class="edge">
<title>roo_windows_wifi&#45;&gt;roo_wifi</title>
<path fill="none" stroke="black" d="M279.59,-699.91C229.15,-672.6 133.62,-620.86 78.37,-590.94"/>
<polygon fill="black" stroke="black" points="79.99,-587.84 69.53,-586.16 76.66,-594 79.99,-587.84"/>
</g>
<!-- roo_windows_wifi&#45;&gt;roo_windows -->
<g id="edge36" class="edge">
<title>roo_windows_wifi&#45;&gt;roo_windows</title>
<path fill="none" stroke="black" d="M366.27,-699.99C412.39,-684.39 479.16,-661.82 527.93,-645.33"/>
<polygon fill="black" stroke="black" points="529.08,-648.63 537.43,-642.11 526.84,-642 529.08,-648.63"/>
</g>
</g>
</svg>
