<?xml version="1.0" encoding="UTF-8" standalone="no"?>
<!DOCTYPE svg PUBLIC "-//W3C//DTD SVG 1.1//EN"
 "http://www.w3.org/Graphics/SVG/1.1/DTD/svg11.dtd">
<!-- Generated by graphviz version 2.42.4 (0)
 -->
<!-- Title: dependencies Pages: 1 -->
<svg width="2434pt" height="751pt"
 viewBox="0.00 0.00 2434.00 751.00" xmlns="http://www.w3.org/2000/svg" xmlns:xlink="http://www.w3.org/1999/xlink">
<g id="graph0" class="graph" transform="scale(1 1) rotate(0) translate(4 747)">
<title>dependencies</title>
<polygon fill="white" stroke="transparent" points="-4,4 -4,-747 2430,-747 2430,4 -4,4"/>
<!-- roo_backport -->
<g id="node1" class="node">
<title>roo_backport</title>
<polygon fill="#b1dbab" stroke="black" points="1971,-113 1861,-113 1861,-75 1971,-75 1971,-113"/>
<text text-anchor="middle" x="1916" y="-97.8" font-family="Times,serif" font-size="14.00">roo_backport</text>
<text text-anchor="middle" x="1916" y="-82.8" font-family="Times,serif" font-size="14.00">1.2.0</text>
</g>
<!-- roo_blink -->
<g id="node2" class="node">
<title>roo_blink</title>
<polygon fill="plum" stroke="black" points="1422,-380 1340,-380 1340,-342 1422,-342 1422,-380"/>
<text text-anchor="middle" x="1381" y="-364.8" font-family="Times,serif" font-size="14.00">roo_blink</text>
<text text-anchor="middle" x="1381" y="-349.8" font-family="Times,serif" font-size="14.00">1.0.3</text>
</g>
<!-- roo_logging -->
<g id="node12" class="node">
<title>roo_logging</title>
<polygon fill="#b1dbab" stroke="black" points="1142,-284 1042,-284 1042,-246 1142,-246 1142,-284"/>
<text text-anchor="middle" x="1092" y="-268.8" font-family="Times,serif" font-size="14.00">roo_logging</text>
<text text-anchor="middle" x="1092" y="-253.8" font-family="Times,serif" font-size="14.00">1.5.1</text>
</g>
<!-- roo_blink&#45;&gt;roo_logging -->
<g id="edge1" class="edge">
<title>roo_blink&#45;&gt;roo_logging</title>
<path fill="none" stroke="red" d="M1339.84,-345.35C1336.52,-344.21 1333.2,-343.08 1330,-342 1269.61,-321.71 1200.17,-299.68 1151.94,-284.59"/>
<polygon fill="red" stroke="red" points="1152.88,-281.22 1142.29,-281.57 1150.79,-287.9 1152.88,-281.22"/>
<text text-anchor="middle" x="1305" y="-316" font-family="Times,serif" font-size="10.00" fill="red">1.5.0</text>
<text text-anchor="middle" x="1305" y="-305" font-family="Times,serif" font-size="10.00" fill="red">(latest: 1.5.1)</text>
</g>
<!-- roo_scheduler -->
<g id="node16" class="node">
<title>roo_scheduler</title>
<polygon fill="#b1dbab" stroke="black" points="1763,-284 1647,-284 1647,-246 1763,-246 1763,-284"/>
<text text-anchor="middle" x="1705" y="-268.8" font-family="Times,serif" font-size="14.00">roo_scheduler</text>
<text text-anchor="middle" x="1705" y="-253.8" font-family="Times,serif" font-size="14.00">2.1.6</text>
</g>
<!-- roo_blink&#45;&gt;roo_scheduler -->
<g id="edge2" class="edge">
<title>roo_blink&#45;&gt;roo_scheduler</title>
<path fill="none" stroke="black" d="M1422.09,-346.35C1426.77,-344.85 1431.48,-343.38 1436,-342 1504.07,-321.26 1582.41,-299.34 1636.92,-284.41"/>
<polygon fill="black" stroke="black" points="1638.09,-287.71 1646.82,-281.7 1636.25,-280.96 1638.09,-287.71"/>
</g>
<!-- roo_collections -->
<g id="node3" class="node">
<title>roo_collections</title>
<polygon fill="#b1dbab" stroke="black" points="1977,-188 1855,-188 1855,-150 1977,-150 1977,-188"/>
<text text-anchor="middle" x="1916" y="-172.8" font-family="Times,serif" font-size="14.00">roo_collections</text>
<text text-anchor="middle" x="1916" y="-157.8" font-family="Times,serif" font-size="14.00">1.4.0</text>
</g>
<!-- roo_collections&#45;&gt;roo_backport -->
<g id="edge3" class="edge">
<title>roo_collections&#45;&gt;roo_backport</title>
<path fill="none" stroke="black" d="M1916,-149.96C1916,-141.88 1916,-132.18 1916,-123.18"/>
<polygon fill="black" stroke="black" points="1919.5,-123.09 1916,-113.09 1912.5,-123.09 1919.5,-123.09"/>
</g>
<!-- roo_comms -->
<g id="node4" class="node">
<title>roo_comms</title>
<polygon fill="plum" stroke="black" points="1094.5,-572 997.5,-572 997.5,-534 1094.5,-534 1094.5,-572"/>
<text text-anchor="middle" x="1046" y="-556.8" font-family="Times,serif" font-size="14.00">roo_comms</text>
<text text-anchor="middle" x="1046" y="-541.8" font-family="Times,serif" font-size="14.00">1.1.2</text>
</g>
<!-- roo_comms&#45;&gt;roo_blink -->
<g id="edge5" class="edge">
<title>roo_comms&#45;&gt;roo_blink</title>
<path fill="none" stroke="red" d="M1094.57,-542.67C1160.97,-527.61 1280.24,-492.06 1354,-420 1362.43,-411.77 1368.51,-400.39 1372.74,-389.9"/>
<polygon fill="red" stroke="red" points="1376.12,-390.83 1376.24,-380.24 1369.54,-388.45 1376.12,-390.83"/>
<text text-anchor="middle" x="1364" y="-460" font-family="Times,serif" font-size="10.00" fill="red">1.0.2</text>
<text text-anchor="middle" x="1364" y="-449" font-family="Times,serif" font-size="10.00" fill="red">(latest: 1.0.3)</text>
</g>
<!-- roo_comms&#45;&gt;roo_collections -->
<g id="edge6" class="edge">
<title>roo_comms&#45;&gt;roo_collections</title>
<path fill="none" stroke="red" d="M1094.76,-551.56C1270.72,-549.49 1865.63,-537.9 1921,-476 1926.67,-469.66 1916.58,-393.38 1916,-380 1913.21,-315.1 1914.3,-238.82 1915.23,-198.44"/>
<polygon fill="red" stroke="red" points="1918.73,-198.35 1915.47,-188.27 1911.73,-198.18 1918.73,-198.35"/>
<text text-anchor="middle" x="1949" y="-364" font-family="Times,serif" font-size="10.00" fill="red">1.3.2</text>
<text text-anchor="middle" x="1949" y="-353" font-family="Times,serif" font-size="10.00" fill="red">(latest: 1.4.0)</text>
</g>
<!-- roo_control -->
<g id="node5" class="node">
<title>roo_control</title>
<polygon fill="plum" stroke="black" points="1549.5,-476 1452.5,-476 1452.5,-438 1549.5,-438 1549.5,-476"/>
<text text-anchor="middle" x="1501" y="-460.8" font-family="Times,serif" font-size="14.00">roo_control</text>
<text text-anchor="middle" x="1501" y="-445.8" font-family="Times,serif" font-size="14.00">1.2.2</text>
</g>
<!-- roo_comms&#45;&gt;roo_control -->
<g id="edge7" class="edge">
<title>roo_comms&#45;&gt;roo_control</title>
<path fill="none" stroke="black" d="M1094.58,-552.02C1160.82,-550.88 1282.63,-544.59 1382,-516 1410.15,-507.9 1439.76,-493.49 1462.41,-481.06"/>
<polygon fill="black" stroke="black" points="1464.33,-484 1471.35,-476.06 1460.91,-477.89 1464.33,-484"/>
</g>
<!-- roo_io -->
<g id="node10" class="node">
<title>roo_io</title>
<polygon fill="#b1dbab" stroke="black" points="801.5,-380 742.5,-380 742.5,-342 801.5,-342 801.5,-380"/>
<text text-anchor="middle" x="772" y="-364.8" font-family="Times,serif" font-size="14.00">roo_io</text>
<text text-anchor="middle" x="772" y="-349.8" font-family="Times,serif" font-size="14.00">2.1.1</text>
</g>
<!-- roo_comms&#45;&gt;roo_io -->
<g id="edge8" class="edge">
<title>roo_comms&#45;&gt;roo_io</title>
<path fill="none" stroke="red" d="M997.39,-542.61C918.75,-526.94 770.87,-495.26 756,-476 737.03,-451.42 746.98,-414.68 757.73,-389.6"/>
<polygon fill="red" stroke="red" points="761.02,-390.83 761.99,-380.28 754.65,-387.92 761.02,-390.83"/>
<text text-anchor="middle" x="789" y="-460" font-family="Times,serif" font-size="10.00" fill="red">2.0.3</text>
<text text-anchor="middle" x="789" y="-449" font-family="Times,serif" font-size="10.00" fill="red">(latest: 2.1.1)</text>
</g>
<!-- roo_comms&#45;&gt;roo_logging -->
<g id="edge9" class="edge">
<title>roo_comms&#45;&gt;roo_logging</title>
<path fill="none" stroke="red" d="M1044.05,-533.82C1041.38,-504.84 1037.79,-446.5 1046,-398 1052.32,-360.66 1068.03,-319.79 1079.33,-293.57"/>
<polygon fill="red" stroke="red" points="1082.6,-294.84 1083.42,-284.28 1076.19,-292.02 1082.6,-294.84"/>
<text text-anchor="middle" x="1079" y="-412" font-family="Times,serif" font-size="10.00" fill="red">1.4.3</text>
<text text-anchor="middle" x="1079" y="-401" font-family="Times,serif" font-size="10.00" fill="red">(latest: 1.5.1)</text>
</g>
<!-- roo_prefs -->
<g id="node14" class="node">
<title>roo_prefs</title>
<polygon fill="#b1dbab" stroke="black" points="1765.5,-380 1682.5,-380 1682.5,-342 1765.5,-342 1765.5,-380"/>
<text text-anchor="middle" x="1724" y="-364.8" font-family="Times,serif" font-size="14.00">roo_prefs</text>
<text text-anchor="middle" x="1724" y="-349.8" font-family="Times,serif" font-size="14.00">1.2.7</text>
</g>
<!-- roo_comms&#45;&gt;roo_prefs -->
<g id="edge10" class="edge">
<title>roo_comms&#45;&gt;roo_prefs</title>
<path fill="none" stroke="red" d="M1094.79,-550.27C1166.9,-547.04 1305.92,-538.3 1422,-516 1484.29,-504.04 1504.74,-508.86 1559,-476 1600.14,-451.09 1594.11,-424.87 1634,-398 1635,-397.33 1653.21,-390.01 1672.99,-382.16"/>
<polygon fill="red" stroke="red" points="1674.43,-385.35 1682.44,-378.4 1671.85,-378.84 1674.43,-385.35"/>
<text text-anchor="middle" x="1629" y="-460" font-family="Times,serif" font-size="10.00" fill="red">1.2.3</text>
<text text-anchor="middle" x="1629" y="-449" font-family="Times,serif" font-size="10.00" fill="red">(latest: 1.2.7)</text>
</g>
<!-- roo_comms&#45;&gt;roo_scheduler -->
<g id="edge11" class="edge">
<title>roo_comms&#45;&gt;roo_scheduler</title>
<path fill="none" stroke="red" d="M1094.54,-550.23C1176.04,-546.78 1345.36,-537.5 1487,-516 1567.59,-503.77 1589.84,-505.08 1666,-476 1698.34,-463.65 1703.69,-454.73 1734,-438 1748.63,-429.92 1757.1,-433.46 1767,-420 1777.75,-405.4 1773.21,-398.04 1775,-380 1776.66,-363.19 1781.14,-357.73 1775,-342 1767.29,-322.26 1751.8,-304.56 1737.34,-291.21"/>
<polygon fill="red" stroke="red" points="1739.28,-288.26 1729.47,-284.26 1734.65,-293.5 1739.28,-288.26"/>
<text text-anchor="middle" x="1807" y="-412" font-family="Times,serif" font-size="10.00" fill="red">2.1.5</text>
<text text-anchor="middle" x="1807" y="-401" font-family="Times,serif" font-size="10.00" fill="red">(latest: 2.1.6)</text>
</g>
<!-- roo_testing -->
<g id="node17" class="node">
<title>roo_testing</title>
<polygon fill="#b1dbab" stroke="black" points="844.5,-38 747.5,-38 747.5,0 844.5,0 844.5,-38"/>
<text text-anchor="middle" x="796" y="-22.8" font-family="Times,serif" font-size="14.00">roo_testing</text>
<text text-anchor="middle" x="796" y="-7.8" font-family="Times,serif" font-size="14.00">1.2.0</text>
</g>
<!-- roo_comms&#45;&gt;roo_testing -->
<g id="edge4" class="edge">
<title>roo_comms&#45;&gt;roo_testing</title>
<path fill="none" stroke="red" d="M997.22,-549.37C869.56,-542.41 533.89,-523.5 511,-516 479.48,-505.68 473.28,-497.47 448,-476 418.73,-451.14 218,-256.4 218,-218 218,-218 218,-218 218,-93 218,-41.08 589.81,-25.49 737.02,-21.35"/>
<polygon fill="red" stroke="red" points="737.32,-24.84 747.22,-21.07 737.13,-17.84 737.32,-24.84"/>
<text text-anchor="middle" x="294" y="-268" font-family="Times,serif" font-size="10.00" fill="red">1.1.8</text>
<text text-anchor="middle" x="294" y="-257" font-family="Times,serif" font-size="10.00" fill="red">(latest: 1.2.0)</text>
</g>
<!-- roo_threads -->
<g id="node18" class="node">
<title>roo_threads</title>
<polygon fill="#b1dbab" stroke="black" points="611.5,-188 510.5,-188 510.5,-150 611.5,-150 611.5,-188"/>
<text text-anchor="middle" x="561" y="-172.8" font-family="Times,serif" font-size="14.00">roo_threads</text>
<text text-anchor="middle" x="561" y="-157.8" font-family="Times,serif" font-size="14.00">1.2.0</text>
</g>
<!-- roo_comms&#45;&gt;roo_threads -->
<g id="edge12" class="edge">
<title>roo_comms&#45;&gt;roo_threads</title>
<path fill="none" stroke="red" d="M997.48,-551.89C881.69,-550.57 593.93,-540.7 528,-476 451.8,-401.22 514.65,-256.76 545.92,-196.95"/>
<polygon fill="red" stroke="red" points="549.02,-198.57 550.64,-188.1 542.84,-195.27 549.02,-198.57"/>
<text text-anchor="middle" x="528" y="-364" font-family="Times,serif" font-size="10.00" fill="red">1.1.6</text>
<text text-anchor="middle" x="528" y="-353" font-family="Times,serif" font-size="10.00" fill="red">(latest: 1.2.0)</text>
</g>
<!-- roo_time -->
<g id="node19" class="node">
<title>roo_time</title>
<polygon fill="#b1dbab" stroke="black" points="498.5,-113 419.5,-113 419.5,-75 498.5,-75 498.5,-113"/>
<text text-anchor="middle" x="459" y="-97.8" font-family="Times,serif" font-size="14.00">roo_time</text>
<text text-anchor="middle" x="459" y="-82.8" font-family="Times,serif" font-size="14.00">1.4.0</text>
</g>
<!-- roo_comms&#45;&gt;roo_time -->
<g id="edge13" class="edge">
<title>roo_comms&#45;&gt;roo_time</title>
<path fill="none" stroke="red" d="M997.35,-550.05C880.93,-545.14 592.88,-531.58 552,-516 478.63,-488.03 374.04,-350.28 364,-324 335.57,-249.59 397.9,-163.08 434.62,-120.86"/>
<polygon fill="red" stroke="red" points="437.34,-123.06 441.37,-113.26 432.11,-118.41 437.34,-123.06"/>
<text text-anchor="middle" x="397" y="-316" font-family="Times,serif" font-size="10.00" fill="red">1.3.3</text>
<text text-anchor="middle" x="397" y="-305" font-family="Times,serif" font-size="10.00" fill="red">(latest: 1.4.0)</text>
</g>
<!-- roo_transceivers -->
<g id="node21" class="node">
<title>roo_transceivers</title>
<polygon fill="plum" stroke="black" points="672.5,-476 537.5,-476 537.5,-438 672.5,-438 672.5,-476"/>
<text text-anchor="middle" x="605" y="-460.8" font-family="Times,serif" font-size="14.00">roo_transceivers</text>
<text text-anchor="middle" x="605" y="-445.8" font-family="Times,serif" font-size="14.00">1.1.3</text>
</g>
<!-- roo_comms&#45;&gt;roo_transceivers -->
<g id="edge14" class="edge">
<title>roo_comms&#45;&gt;roo_transceivers</title>
<path fill="none" stroke="black" d="M997.48,-552.35C945.61,-551.07 861.91,-544.22 796,-516 781.45,-509.77 782.31,-500.76 768,-494 741.52,-481.48 710.53,-473.23 682.73,-467.84"/>
<polygon fill="black" stroke="black" points="683.12,-464.35 672.65,-465.98 681.85,-471.23 683.12,-464.35"/>
</g>
<!-- roo_control&#45;&gt;roo_logging -->
<g id="edge16" class="edge">
<title>roo_control&#45;&gt;roo_logging</title>
<path fill="none" stroke="red" d="M1494.06,-437.74C1483.79,-412.93 1462.32,-368.63 1431,-342 1397.96,-313.91 1383.65,-314.1 1342,-302 1278.77,-283.63 1203.71,-274.43 1152.44,-269.95"/>
<polygon fill="red" stroke="red" points="1152.46,-266.44 1142.2,-269.1 1151.87,-273.42 1152.46,-266.44"/>
<text text-anchor="middle" x="1495" y="-364" font-family="Times,serif" font-size="10.00" fill="red">1.4.3</text>
<text text-anchor="middle" x="1495" y="-353" font-family="Times,serif" font-size="10.00" fill="red">(latest: 1.5.1)</text>
</g>
<!-- roo_quantity -->
<g id="node15" class="node">
<title>roo_quantity</title>
<polygon fill="#b1dbab" stroke="black" points="1321.5,-380 1214.5,-380 1214.5,-342 1321.5,-342 1321.5,-380"/>
<text text-anchor="middle" x="1268" y="-364.8" font-family="Times,serif" font-size="14.00">roo_quantity</text>
<text text-anchor="middle" x="1268" y="-349.8" font-family="Times,serif" font-size="14.00">1.1.5</text>
</g>
<!-- roo_control&#45;&gt;roo_quantity -->
<g id="edge17" class="edge">
<title>roo_control&#45;&gt;roo_quantity</title>
<path fill="none" stroke="red" d="M1452.32,-441.39C1447.51,-440.15 1442.67,-439 1438,-438 1383.11,-426.26 1361.51,-448.23 1313,-420 1300.27,-412.59 1289.87,-400.06 1282.28,-388.53"/>
<polygon fill="red" stroke="red" points="1285.26,-386.69 1277.04,-380.01 1279.3,-390.36 1285.26,-386.69"/>
<text text-anchor="middle" x="1346" y="-412" font-family="Times,serif" font-size="10.00" fill="red">1.1.3</text>
<text text-anchor="middle" x="1346" y="-401" font-family="Times,serif" font-size="10.00" fill="red">(latest: 1.1.5)</text>
</g>
<!-- roo_control&#45;&gt;roo_scheduler -->
<g id="edge18" class="edge">
<title>roo_control&#45;&gt;roo_scheduler</title>
<path fill="none" stroke="red" d="M1541.99,-437.98C1550.58,-432.98 1559.11,-426.97 1566,-420 1593.68,-391.99 1582.63,-372.11 1608,-342 1624.93,-321.9 1647.94,-303.6 1667.3,-289.99"/>
<polygon fill="red" stroke="red" points="1669.37,-292.81 1675.63,-284.26 1665.41,-287.05 1669.37,-292.81"/>
<text text-anchor="middle" x="1641" y="-364" font-family="Times,serif" font-size="10.00" fill="red">2.1.5</text>
<text text-anchor="middle" x="1641" y="-353" font-family="Times,serif" font-size="10.00" fill="red">(latest: 2.1.6)</text>
</g>
<!-- roo_control&#45;&gt;roo_testing -->
<g id="edge15" class="edge">
<title>roo_control&#45;&gt;roo_testing</title>
<path fill="none" stroke="red" d="M1517.98,-437.78C1532.82,-419.9 1552,-391.15 1552,-362 1552,-362 1552,-362 1552,-93 1552,-23.06 1032.81,-18.91 854.95,-19.54"/>
<polygon fill="red" stroke="red" points="854.72,-16.04 844.73,-19.58 854.75,-23.04 854.72,-16.04"/>
<text text-anchor="middle" x="1585" y="-220" font-family="Times,serif" font-size="10.00" fill="red">1.1.8</text>
<text text-anchor="middle" x="1585" y="-209" font-family="Times,serif" font-size="10.00" fill="red">(latest: 1.2.0)</text>
</g>
<!-- roo_dashboard -->
<g id="node6" class="node">
<title>roo_dashboard</title>
<polygon fill="plum" stroke="black" points="122,-743 0,-743 0,-705 122,-705 122,-743"/>
<text text-anchor="middle" x="61" y="-727.8" font-family="Times,serif" font-size="14.00">roo_dashboard</text>
<text text-anchor="middle" x="61" y="-712.8" font-family="Times,serif" font-size="14.00">1.0.1</text>
</g>
<!-- roo_dashboard&#45;&gt;roo_testing -->
<g id="edge19" class="edge">
<title>roo_dashboard&#45;&gt;roo_testing</title>
<path fill="none" stroke="red" d="M44.91,-704.9C34.17,-690.92 22,-670.55 22,-650 22,-650 22,-650 22,-93 22,-21.21 556.54,-18.33 737.18,-19.4"/>
<polygon fill="red" stroke="red" points="737.27,-22.9 747.29,-19.47 737.31,-15.9 737.27,-22.9"/>
<text text-anchor="middle" x="55" y="-364" font-family="Times,serif" font-size="10.00" fill="red">1.1.7</text>
<text text-anchor="middle" x="55" y="-353" font-family="Times,serif" font-size="10.00" fill="red">(latest: 1.2.0)</text>
</g>
<!-- roo_windows -->
<g id="node24" class="node">
<title>roo_windows</title>
<polygon fill="plum" stroke="black" points="1814.5,-668 1705.5,-668 1705.5,-630 1814.5,-630 1814.5,-668"/>
<text text-anchor="middle" x="1760" y="-652.8" font-family="Times,serif" font-size="14.00">roo_windows</text>
<text text-anchor="middle" x="1760" y="-637.8" font-family="Times,serif" font-size="14.00">1.4.1</text>
</g>
<!-- roo_dashboard&#45;&gt;roo_windows -->
<g id="edge20" class="edge">
<title>roo_dashboard&#45;&gt;roo_windows</title>
<path fill="none" stroke="black" d="M122.22,-720.37C385.97,-709.04 1424.09,-664.43 1695.04,-652.79"/>
<polygon fill="black" stroke="black" points="1695.26,-656.28 1705.1,-652.36 1694.96,-649.29 1695.26,-656.28"/>
</g>
<!-- roo_display -->
<g id="node7" class="node">
<title>roo_display</title>
<polygon fill="plum" stroke="black" points="2078,-476 1980,-476 1980,-438 2078,-438 2078,-476"/>
<text text-anchor="middle" x="2029" y="-460.8" font-family="Times,serif" font-size="14.00">roo_display</text>
<text text-anchor="middle" x="2029" y="-445.8" font-family="Times,serif" font-size="14.00">2.3.1</text>
</g>
<!-- roo_display&#45;&gt;roo_backport -->
<g id="edge22" class="edge">
<title>roo_display&#45;&gt;roo_backport</title>
<path fill="none" stroke="red" d="M2031.68,-437.8C2038.14,-387.11 2049.65,-241.98 1986,-150 1977.79,-138.14 1966.26,-127.61 1954.92,-119.03"/>
<polygon fill="red" stroke="red" points="1956.91,-116.15 1946.75,-113.13 1952.81,-121.82 1956.91,-116.15"/>
<text text-anchor="middle" x="2065" y="-268" font-family="Times,serif" font-size="10.00" fill="red">1.1.1</text>
<text text-anchor="middle" x="2065" y="-257" font-family="Times,serif" font-size="10.00" fill="red">(latest: 1.2.0)</text>
</g>
<!-- roo_display&#45;&gt;roo_collections -->
<g id="edge23" class="edge">
<title>roo_display&#45;&gt;roo_collections</title>
<path fill="none" stroke="red" d="M2021.82,-437.71C2019.62,-432.04 2017.19,-425.77 2015,-420 2001.85,-385.43 2005.98,-373.12 1986,-342 1979.89,-332.48 1973.9,-333.65 1968,-324 1939.27,-276.98 1948.44,-257.92 1930,-206 1929.03,-203.27 1927.99,-200.45 1926.93,-197.63"/>
<polygon fill="red" stroke="red" points="1930.18,-196.32 1923.33,-188.24 1923.65,-198.83 1930.18,-196.32"/>
<text text-anchor="middle" x="2001" y="-316" font-family="Times,serif" font-size="10.00" fill="red">1.3.2</text>
<text text-anchor="middle" x="2001" y="-305" font-family="Times,serif" font-size="10.00" fill="red">(latest: 1.4.0)</text>
</g>
<!-- roo_display&#45;&gt;roo_io -->
<g id="edge24" class="edge">
<title>roo_display&#45;&gt;roo_io</title>
<path fill="none" stroke="red" d="M1979.83,-446.25C1963.4,-443.25 1944.96,-440.18 1928,-438 1827.62,-425.11 1801.09,-435.01 1701,-420 1656.43,-413.31 1646.73,-403.52 1602,-398 1305.47,-361.43 1228.04,-400.93 930,-380 889.67,-377.17 843.78,-371.69 811.88,-367.51"/>
<polygon fill="red" stroke="red" points="812.01,-364 801.63,-366.15 811.09,-370.94 812.01,-364"/>
<text text-anchor="middle" x="1734" y="-412" font-family="Times,serif" font-size="10.00" fill="red">2.0.2</text>
<text text-anchor="middle" x="1734" y="-401" font-family="Times,serif" font-size="10.00" fill="red">(latest: 2.1.1)</text>
</g>
<!-- roo_display&#45;&gt;roo_testing -->
<g id="edge21" class="edge">
<title>roo_display&#45;&gt;roo_testing</title>
<path fill="none" stroke="red" d="M2078.18,-449.65C2096.28,-444.66 2115.03,-435.78 2126,-420 2131.58,-411.97 2126.76,-407.75 2126,-398 2113.68,-240.94 2118.35,-150.36 1980,-75 1880.77,-20.95 1080.27,-19.16 854.87,-19.74"/>
<polygon fill="red" stroke="red" points="854.56,-16.24 844.57,-19.77 854.58,-23.24 854.56,-16.24"/>
<text text-anchor="middle" x="2139" y="-220" font-family="Times,serif" font-size="10.00" fill="red">1.1.7</text>
<text text-anchor="middle" x="2139" y="-209" font-family="Times,serif" font-size="10.00" fill="red">(latest: 1.2.0)</text>
</g>
<!-- roo_flags -->
<g id="node8" class="node">
<title>roo_flags</title>
<polygon fill="#b1dbab" stroke="black" points="942,-188 862,-188 862,-150 942,-150 942,-188"/>
<text text-anchor="middle" x="902" y="-172.8" font-family="Times,serif" font-size="14.00">roo_flags</text>
<text text-anchor="middle" x="902" y="-157.8" font-family="Times,serif" font-size="14.00">1.2.0</text>
</g>
<!-- roo_icons -->
<g id="node9" class="node">
<title>roo_icons</title>
<polygon fill="plum" stroke="black" points="2070.5,-572 1987.5,-572 1987.5,-534 2070.5,-534 2070.5,-572"/>
<text text-anchor="middle" x="2029" y="-556.8" font-family="Times,serif" font-size="14.00">roo_icons</text>
<text text-anchor="middle" x="2029" y="-541.8" font-family="Times,serif" font-size="14.00">1.2.1</text>
</g>
<!-- roo_icons&#45;&gt;roo_display -->
<g id="edge26" class="edge">
<title>roo_icons&#45;&gt;roo_display</title>
<path fill="none" stroke="black" d="M2029,-533.88C2029,-520.35 2029,-501.62 2029,-486.15"/>
<polygon fill="black" stroke="black" points="2032.5,-486.07 2029,-476.07 2025.5,-486.07 2032.5,-486.07"/>
</g>
<!-- roo_icons&#45;&gt;roo_testing -->
<g id="edge25" class="edge">
<title>roo_icons&#45;&gt;roo_testing</title>
<path fill="none" stroke="red" d="M2050.45,-533.94C2090.86,-498.48 2177.57,-415.21 2215,-324 2233.02,-280.09 2228,-265.46 2228,-218 2228,-218 2228,-218 2228,-93 2228,-23.1 1125.51,-19.66 855.26,-19.87"/>
<polygon fill="red" stroke="red" points="854.87,-16.37 844.88,-19.88 854.88,-23.37 854.87,-16.37"/>
<text text-anchor="middle" x="2261" y="-268" font-family="Times,serif" font-size="10.00" fill="red">1.1.7</text>
<text text-anchor="middle" x="2261" y="-257" font-family="Times,serif" font-size="10.00" fill="red">(latest: 1.2.0)</text>
</g>
<!-- roo_io&#45;&gt;roo_logging -->
<g id="edge27" class="edge">
<title>roo_io&#45;&gt;roo_logging</title>
<path fill="none" stroke="black" d="M801.92,-350.95C820.67,-344.67 844.99,-335.39 865,-324 878.75,-316.17 878.57,-308.49 893,-302 936.99,-282.23 991.06,-273.31 1031.74,-269.29"/>
<polygon fill="black" stroke="black" points="1032.13,-272.77 1041.77,-268.37 1031.5,-265.8 1032.13,-272.77"/>
</g>
<!-- roo_locale -->
<g id="node11" class="node">
<title>roo_locale</title>
<polygon fill="#b1dbab" stroke="black" points="673,-572 585,-572 585,-534 673,-534 673,-572"/>
<text text-anchor="middle" x="629" y="-556.8" font-family="Times,serif" font-size="14.00">roo_locale</text>
<text text-anchor="middle" x="629" y="-541.8" font-family="Times,serif" font-size="14.00">1.1.1</text>
</g>
<!-- roo_logging&#45;&gt;roo_backport -->
<g id="edge28" class="edge">
<title>roo_logging&#45;&gt;roo_backport</title>
<path fill="none" stroke="black" d="M1142.3,-253.68C1284.8,-224.46 1691.12,-141.12 1850.61,-108.41"/>
<polygon fill="black" stroke="black" points="1851.66,-111.77 1860.75,-106.33 1850.25,-104.91 1851.66,-111.77"/>
</g>
<!-- roo_logging&#45;&gt;roo_flags -->
<g id="edge29" class="edge">
<title>roo_logging&#45;&gt;roo_flags</title>
<path fill="none" stroke="black" d="M1055.37,-245.88C1024.61,-230.66 980.54,-208.85 947.52,-192.52"/>
<polygon fill="black" stroke="black" points="949.04,-189.37 938.52,-188.07 945.93,-195.64 949.04,-189.37"/>
</g>
<!-- roo_logging&#45;&gt;roo_threads -->
<g id="edge30" class="edge">
<title>roo_logging&#45;&gt;roo_threads</title>
<path fill="none" stroke="black" d="M1041.6,-248.54C995.55,-235.06 925.34,-216.13 863,-206 759.66,-189.2 728.85,-206.53 621.48,-187.8"/>
<polygon fill="black" stroke="black" points="622.01,-184.34 611.55,-186.01 620.77,-191.23 622.01,-184.34"/>
</g>
<!-- roo_onewire -->
<g id="node13" class="node">
<title>roo_onewire</title>
<polygon fill="plum" stroke="black" points="1217,-476 1113,-476 1113,-438 1217,-438 1217,-476"/>
<text text-anchor="middle" x="1165" y="-460.8" font-family="Times,serif" font-size="14.00">roo_onewire</text>
<text text-anchor="middle" x="1165" y="-445.8" font-family="Times,serif" font-size="14.00">2.0.6</text>
</g>
<!-- roo_onewire&#45;&gt;roo_logging -->
<g id="edge31" class="edge">
<title>roo_onewire&#45;&gt;roo_logging</title>
<path fill="none" stroke="red" d="M1146.27,-437.86C1132.69,-423.5 1115.17,-402.24 1106,-380 1094.59,-352.34 1091.75,-317.95 1091.35,-294.22"/>
<polygon fill="red" stroke="red" points="1094.85,-294.11 1091.31,-284.12 1087.85,-294.13 1094.85,-294.11"/>
<text text-anchor="middle" x="1139" y="-364" font-family="Times,serif" font-size="10.00" fill="red">1.5.0</text>
<text text-anchor="middle" x="1139" y="-353" font-family="Times,serif" font-size="10.00" fill="red">(latest: 1.5.1)</text>
</g>
<!-- roo_onewire&#45;&gt;roo_quantity -->
<g id="edge33" class="edge">
<title>roo_onewire&#45;&gt;roo_quantity</title>
<path fill="none" stroke="red" d="M1172.45,-437.74C1178.23,-425.32 1187.25,-409.19 1199,-398 1203.93,-393.31 1209.6,-389.06 1215.51,-385.28"/>
<polygon fill="red" stroke="red" points="1217.49,-388.18 1224.3,-380.06 1213.92,-382.16 1217.49,-388.18"/>
<text text-anchor="middle" x="1232" y="-412" font-family="Times,serif" font-size="10.00" fill="red">1.1.4</text>
<text text-anchor="middle" x="1232" y="-401" font-family="Times,serif" font-size="10.00" fill="red">(latest: 1.1.5)</text>
</g>
<!-- roo_onewire&#45;&gt;roo_scheduler -->
<g id="edge32" class="edge">
<title>roo_onewire&#45;&gt;roo_scheduler</title>
<path fill="none" stroke="black" d="M1165.5,-437.81C1167.29,-411.81 1174.8,-364.65 1205,-342 1271.89,-291.84 1515.98,-274.25 1636.6,-268.53"/>
<polygon fill="black" stroke="black" points="1636.99,-272.02 1646.82,-268.06 1636.67,-265.02 1636.99,-272.02"/>
</g>
<!-- roo_prefs&#45;&gt;roo_logging -->
<g id="edge34" class="edge">
<title>roo_prefs&#45;&gt;roo_logging</title>
<path fill="none" stroke="black" d="M1682.25,-346.03C1677.47,-344.59 1672.64,-343.22 1668,-342 1581.99,-319.47 1559.94,-315.1 1472,-302 1359.63,-285.26 1227.35,-274.8 1152.22,-269.71"/>
<polygon fill="black" stroke="black" points="1152.21,-266.2 1142,-269.03 1151.75,-273.19 1152.21,-266.2"/>
</g>
<!-- roo_prefs&#45;&gt;roo_scheduler -->
<g id="edge35" class="edge">
<title>roo_prefs&#45;&gt;roo_scheduler</title>
<path fill="none" stroke="black" d="M1720.34,-341.88C1717.6,-328.35 1713.82,-309.62 1710.69,-294.15"/>
<polygon fill="black" stroke="black" points="1714.06,-293.18 1708.65,-284.07 1707.2,-294.56 1714.06,-293.18"/>
</g>
<!-- roo_quantity&#45;&gt;roo_logging -->
<g id="edge36" class="edge">
<title>roo_quantity&#45;&gt;roo_logging</title>
<path fill="none" stroke="black" d="M1214.46,-354.96C1187.45,-350.3 1155.35,-341.31 1131,-324 1119.95,-316.15 1111.12,-304.1 1104.67,-293.02"/>
<polygon fill="black" stroke="black" points="1107.66,-291.18 1099.82,-284.05 1101.5,-294.51 1107.66,-291.18"/>
</g>
<!-- roo_scheduler&#45;&gt;roo_collections -->
<g id="edge37" class="edge">
<title>roo_scheduler&#45;&gt;roo_collections</title>
<path fill="none" stroke="black" d="M1745.68,-245.88C1779.98,-230.6 1829.2,-208.67 1865.92,-192.31"/>
<polygon fill="black" stroke="black" points="1867.73,-195.34 1875.44,-188.07 1864.88,-188.94 1867.73,-195.34"/>
</g>
<!-- roo_scheduler&#45;&gt;roo_threads -->
<g id="edge38" class="edge">
<title>roo_scheduler&#45;&gt;roo_threads</title>
<path fill="none" stroke="black" d="M1646.89,-259.51C1515.94,-249.45 1187.77,-224.53 913,-206 786.44,-197.47 750.73,-210.18 621.43,-187.8"/>
<polygon fill="black" stroke="black" points="622,-184.35 611.54,-186.05 620.78,-191.24 622,-184.35"/>
</g>
<!-- roo_threads&#45;&gt;roo_time -->
<g id="edge39" class="edge">
<title>roo_threads&#45;&gt;roo_time</title>
<path fill="none" stroke="black" d="M535.79,-149.96C522.79,-140.65 506.76,-129.18 492.72,-119.13"/>
<polygon fill="black" stroke="black" points="494.45,-116.06 484.28,-113.09 490.37,-121.76 494.45,-116.06"/>
</g>
<!-- roo_time&#45;&gt;roo_testing -->
<g id="edge40" class="edge">
<title>roo_time&#45;&gt;roo_testing</title>
<path fill="none" stroke="black" d="M498.65,-84.41C557.57,-71.65 668.61,-47.59 737.07,-32.77"/>
<polygon fill="black" stroke="black" points="738.23,-36.1 747.26,-30.56 736.74,-29.25 738.23,-36.1"/>
</g>
<!-- roo_time_ds3231 -->
<g id="node20" class="node">
<title>roo_time_ds3231</title>
<polygon fill="#b1dbab" stroke="black" points="768,-188 630,-188 630,-150 768,-150 768,-188"/>
<text text-anchor="middle" x="699" y="-172.8" font-family="Times,serif" font-size="14.00">roo_time_ds3231</text>
<text text-anchor="middle" x="699" y="-157.8" font-family="Times,serif" font-size="14.00">1.1.4</text>
</g>
<!-- roo_time_ds3231&#45;&gt;roo_time -->
<g id="edge41" class="edge">
<title>roo_time_ds3231&#45;&gt;roo_time</title>
<path fill="none" stroke="black" d="M639.67,-149.96C599.28,-137.67 546.44,-121.6 508.35,-110.01"/>
<polygon fill="black" stroke="black" points="509.1,-106.58 498.51,-107.02 507.06,-113.28 509.1,-106.58"/>
</g>
<!-- roo_transceivers&#45;&gt;roo_collections -->
<g id="edge43" class="edge">
<title>roo_transceivers&#45;&gt;roo_collections</title>
<path fill="none" stroke="red" d="M608.4,-437.96C615.74,-401.09 634.18,-319.13 656,-302 738.81,-236.97 1015.52,-219.09 1120,-206 1385.82,-172.71 1704.97,-169.18 1844.66,-169.44"/>
<polygon fill="red" stroke="red" points="1844.79,-172.94 1854.8,-169.47 1844.81,-165.94 1844.79,-172.94"/>
<text text-anchor="middle" x="689" y="-316" font-family="Times,serif" font-size="10.00" fill="red">1.3.2</text>
<text text-anchor="middle" x="689" y="-305" font-family="Times,serif" font-size="10.00" fill="red">(latest: 1.4.0)</text>
</g>
<!-- roo_transceivers&#45;&gt;roo_logging -->
<g id="edge44" class="edge">
<title>roo_transceivers&#45;&gt;roo_logging</title>
<path fill="none" stroke="red" d="M615.84,-437.78C619.15,-432.11 622.77,-425.82 626,-420 644.98,-385.74 634.74,-364.2 667,-342 722.68,-303.68 752.8,-341.8 818,-324 841.42,-317.6 844.71,-308.87 868,-302 922.26,-285.99 986.15,-276.61 1031.78,-271.46"/>
<polygon fill="red" stroke="red" points="1032.25,-274.93 1041.81,-270.37 1031.49,-267.98 1032.25,-274.93"/>
<text text-anchor="middle" x="700" y="-364" font-family="Times,serif" font-size="10.00" fill="red">1.4.3</text>
<text text-anchor="middle" x="700" y="-353" font-family="Times,serif" font-size="10.00" fill="red">(latest: 1.5.1)</text>
</g>
<!-- roo_transceivers&#45;&gt;roo_prefs -->
<g id="edge45" class="edge">
<title>roo_transceivers&#45;&gt;roo_prefs</title>
<path fill="none" stroke="red" d="M672.73,-444.37C689.75,-441.86 708,-439.5 725,-438 1014.65,-412.39 1089.21,-443.97 1379,-420 1383.04,-419.67 1664.05,-380.9 1668,-380 1669.46,-379.67 1670.94,-379.31 1672.43,-378.94"/>
<polygon fill="red" stroke="red" points="1673.58,-382.25 1682.33,-376.27 1671.76,-375.5 1673.58,-382.25"/>
<text text-anchor="middle" x="1565" y="-412" font-family="Times,serif" font-size="10.00" fill="red">1.2.3</text>
<text text-anchor="middle" x="1565" y="-401" font-family="Times,serif" font-size="10.00" fill="red">(latest: 1.2.7)</text>
</g>
<!-- roo_transceivers&#45;&gt;roo_testing -->
<g id="edge42" class="edge">
<title>roo_transceivers&#45;&gt;roo_testing</title>
<path fill="none" stroke="red" d="M537.38,-443.95C516.53,-438.51 494.05,-430.8 475,-420 452.57,-407.29 448.49,-400.61 433,-380 421.56,-364.78 360.21,-245.99 354,-228 339.7,-186.55 316.48,-170.26 336,-131 354.37,-94.07 371.93,-90.86 410,-75 519.29,-29.48 659.41,-20.49 737.23,-19.36"/>
<polygon fill="red" stroke="red" points="737.36,-22.86 747.33,-19.25 737.29,-15.86 737.36,-22.86"/>
<text text-anchor="middle" x="387" y="-220" font-family="Times,serif" font-size="10.00" fill="red">1.1.8</text>
<text text-anchor="middle" x="387" y="-209" font-family="Times,serif" font-size="10.00" fill="red">(latest: 1.2.0)</text>
</g>
<!-- roo_transceivers&#45;&gt;roo_threads -->
<g id="edge46" class="edge">
<title>roo_transceivers&#45;&gt;roo_threads</title>
<path fill="none" stroke="red" d="M599.17,-437.86C591.33,-412.63 577.61,-365.36 571,-324 564.04,-280.45 561.9,-229.24 561.25,-198.22"/>
<polygon fill="red" stroke="red" points="564.75,-198.08 561.08,-188.14 557.75,-198.2 564.75,-198.08"/>
<text text-anchor="middle" x="604" y="-316" font-family="Times,serif" font-size="10.00" fill="red">1.1.6</text>
<text text-anchor="middle" x="604" y="-305" font-family="Times,serif" font-size="10.00" fill="red">(latest: 1.2.0)</text>
</g>
<!-- roo_transceivers&#45;&gt;roo_time -->
<g id="edge47" class="edge">
<title>roo_transceivers&#45;&gt;roo_time</title>
<path fill="none" stroke="red" d="M547.91,-438C517.6,-425.87 481.81,-407.08 458,-380 437.39,-356.56 434,-345.21 434,-314 434,-314 434,-314 434,-168 434,-152.26 439.27,-135.59 444.96,-122.16"/>
<polygon fill="red" stroke="red" points="448.17,-123.57 449.12,-113.02 441.8,-120.67 448.17,-123.57"/>
<text text-anchor="middle" x="467" y="-268" font-family="Times,serif" font-size="10.00" fill="red">1.3.3</text>
<text text-anchor="middle" x="467" y="-257" font-family="Times,serif" font-size="10.00" fill="red">(latest: 1.4.0)</text>
</g>
<!-- roo_transport -->
<g id="node22" class="node">
<title>roo_transport</title>
<polygon fill="plum" stroke="black" points="945,-476 831,-476 831,-438 945,-438 945,-476"/>
<text text-anchor="middle" x="888" y="-460.8" font-family="Times,serif" font-size="14.00">roo_transport</text>
<text text-anchor="middle" x="888" y="-445.8" font-family="Times,serif" font-size="14.00">1.0.2</text>
</g>
<!-- roo_transport&#45;&gt;roo_collections -->
<g id="edge49" class="edge">
<title>roo_transport&#45;&gt;roo_collections</title>
<path fill="none" stroke="red" d="M890.61,-437.8C896.26,-399.4 909.77,-312.72 918,-302 952.63,-256.92 978.2,-261.14 1033,-246 1185.49,-203.88 1662.73,-180.39 1844.62,-172.78"/>
<polygon fill="red" stroke="red" points="1845.03,-176.26 1854.87,-172.35 1844.74,-169.27 1845.03,-176.26"/>
<text text-anchor="middle" x="951" y="-316" font-family="Times,serif" font-size="10.00" fill="red">1.3.2</text>
<text text-anchor="middle" x="951" y="-305" font-family="Times,serif" font-size="10.00" fill="red">(latest: 1.4.0)</text>
</g>
<!-- roo_transport&#45;&gt;roo_io -->
<g id="edge50" class="edge">
<title>roo_transport&#45;&gt;roo_io</title>
<path fill="none" stroke="red" d="M830.9,-441.3C803.99,-433.8 776.89,-425.19 773,-420 766.78,-411.68 765.41,-400.65 765.99,-390.44"/>
<polygon fill="red" stroke="red" points="769.5,-390.59 767.18,-380.25 762.54,-389.77 769.5,-390.59"/>
<text text-anchor="middle" x="806" y="-412" font-family="Times,serif" font-size="10.00" fill="red">2.0.3</text>
<text text-anchor="middle" x="806" y="-401" font-family="Times,serif" font-size="10.00" fill="red">(latest: 2.1.1)</text>
</g>
<!-- roo_transport&#45;&gt;roo_logging -->
<g id="edge51" class="edge">
<title>roo_transport&#45;&gt;roo_logging</title>
<path fill="none" stroke="red" d="M905.32,-437.89C910.3,-432.34 915.57,-426.08 920,-420 943.7,-387.47 937.71,-370.63 966,-342 987.83,-319.91 1017.34,-301.66 1042.31,-288.59"/>
<polygon fill="red" stroke="red" points="1043.97,-291.67 1051.29,-284.01 1040.79,-285.43 1043.97,-291.67"/>
<text text-anchor="middle" x="999" y="-364" font-family="Times,serif" font-size="10.00" fill="red">1.4.3</text>
<text text-anchor="middle" x="999" y="-353" font-family="Times,serif" font-size="10.00" fill="red">(latest: 1.5.1)</text>
</g>
<!-- roo_transport&#45;&gt;roo_testing -->
<g id="edge48" class="edge">
<title>roo_transport&#45;&gt;roo_testing</title>
<path fill="none" stroke="red" d="M884.16,-437.82C869.83,-369.89 819.34,-130.61 801.94,-48.17"/>
<polygon fill="red" stroke="red" points="805.34,-47.32 799.85,-38.26 798.49,-48.76 805.34,-47.32"/>
<text text-anchor="middle" x="873" y="-220" font-family="Times,serif" font-size="10.00" fill="red">1.1.8</text>
<text text-anchor="middle" x="873" y="-209" font-family="Times,serif" font-size="10.00" fill="red">(latest: 1.2.0)</text>
</g>
<!-- roo_transport&#45;&gt;roo_threads -->
<g id="edge52" class="edge">
<title>roo_transport&#45;&gt;roo_threads</title>
<path fill="none" stroke="red" d="M876.34,-437.55C856.91,-407 819.12,-348.63 810,-342 787.14,-325.37 773.46,-338.17 749,-324 736.76,-316.91 736.64,-311.32 726,-302 681.21,-262.8 626.92,-220.27 593.16,-194.37"/>
<polygon fill="red" stroke="red" points="595.1,-191.45 585.04,-188.16 590.85,-197.01 595.1,-191.45"/>
<text text-anchor="middle" x="782" y="-316" font-family="Times,serif" font-size="10.00" fill="red">1.1.6</text>
<text text-anchor="middle" x="782" y="-305" font-family="Times,serif" font-size="10.00" fill="red">(latest: 1.2.0)</text>
</g>
<!-- roo_wifi -->
<g id="node23" class="node">
<title>roo_wifi</title>
<polygon fill="plum" stroke="black" points="2379,-476 2307,-476 2307,-438 2379,-438 2379,-476"/>
<text text-anchor="middle" x="2343" y="-460.8" font-family="Times,serif" font-size="14.00">roo_wifi</text>
<text text-anchor="middle" x="2343" y="-445.8" font-family="Times,serif" font-size="14.00">1.1.2</text>
</g>
<!-- roo_wifi&#45;&gt;roo_collections -->
<g id="edge54" class="edge">
<title>roo_wifi&#45;&gt;roo_collections</title>
<path fill="none" stroke="red" d="M2320.72,-437.89C2290.53,-413.07 2235.3,-366.68 2191,-324 2156.81,-291.06 2157.42,-272.47 2118,-246 2076.54,-218.16 2059.74,-223.58 2013,-206 2000.54,-201.31 1987.16,-196.32 1974.45,-191.6"/>
<polygon fill="red" stroke="red" points="1975.47,-188.25 1964.88,-188.05 1973.04,-194.81 1975.47,-188.25"/>
<text text-anchor="middle" x="2224" y="-316" font-family="Times,serif" font-size="10.00" fill="red">1.3.2</text>
<text text-anchor="middle" x="2224" y="-305" font-family="Times,serif" font-size="10.00" fill="red">(latest: 1.4.0)</text>
</g>
<!-- roo_wifi&#45;&gt;roo_prefs -->
<g id="edge55" class="edge">
<title>roo_wifi&#45;&gt;roo_prefs</title>
<path fill="none" stroke="red" d="M2306.59,-450.47C2201.58,-434.52 1897.91,-388.41 1775.77,-369.86"/>
<polygon fill="red" stroke="red" points="1775.98,-366.35 1765.57,-368.31 1774.93,-373.27 1775.98,-366.35"/>
<text text-anchor="middle" x="2121" y="-412" font-family="Times,serif" font-size="10.00" fill="red">1.2.3</text>
<text text-anchor="middle" x="2121" y="-401" font-family="Times,serif" font-size="10.00" fill="red">(latest: 1.2.7)</text>
</g>
<!-- roo_wifi&#45;&gt;roo_testing -->
<g id="edge53" class="edge">
<title>roo_wifi&#45;&gt;roo_testing</title>
<path fill="none" stroke="red" d="M2348.29,-437.8C2353.28,-419 2360,-388.7 2360,-362 2360,-362 2360,-362 2360,-93 2360,-73.4 2353.11,-65.56 2336,-56 2270.3,-19.31 1129.41,-19.31 855,-19.84"/>
<polygon fill="red" stroke="red" points="854.84,-16.34 844.85,-19.86 854.86,-23.34 854.84,-16.34"/>
<text text-anchor="middle" x="2393" y="-220" font-family="Times,serif" font-size="10.00" fill="red">1.1.8</text>
<text text-anchor="middle" x="2393" y="-209" font-family="Times,serif" font-size="10.00" fill="red">(latest: 1.2.0)</text>
</g>
<!-- roo_windows&#45;&gt;roo_collections -->
<g id="edge57" class="edge">
<title>roo_windows&#45;&gt;roo_collections</title>
<path fill="none" stroke="red" d="M1814.73,-639.72C1918.74,-622.62 2137.85,-579.62 2174,-516 2188.42,-490.62 2198.86,-469.2 2158,-398 2118.57,-329.3 2078.4,-338.59 2021,-284 2004.69,-268.49 1964.87,-224.58 1939.22,-196"/>
<polygon fill="red" stroke="red" points="1941.67,-193.5 1932.39,-188.38 1936.46,-198.17 1941.67,-193.5"/>
<text text-anchor="middle" x="2202" y="-412" font-family="Times,serif" font-size="10.00" fill="red">1.3.2</text>
<text text-anchor="middle" x="2202" y="-401" font-family="Times,serif" font-size="10.00" fill="red">(latest: 1.4.0)</text>
</g>
<!-- roo_windows&#45;&gt;roo_icons -->
<g id="edge60" class="edge">
<title>roo_windows&#45;&gt;roo_icons</title>
<path fill="none" stroke="black" d="M1814.56,-630.98C1832.87,-625.13 1853.37,-618.43 1872,-612 1907.44,-599.76 1947.04,-585.13 1977.61,-573.62"/>
<polygon fill="black" stroke="black" points="1979.07,-576.81 1987.19,-570 1976.6,-570.26 1979.07,-576.81"/>
</g>
<!-- roo_windows&#45;&gt;roo_io -->
<g id="edge61" class="edge">
<title>roo_windows&#45;&gt;roo_io</title>
<path fill="none" stroke="red" d="M1705.25,-645.36C1500.24,-634.9 786.49,-593.13 724,-516 693.58,-478.45 725.99,-421.54 750.34,-388.44"/>
<polygon fill="red" stroke="red" points="753.36,-390.25 756.62,-380.17 747.79,-386.01 753.36,-390.25"/>
<text text-anchor="middle" x="757" y="-508" font-family="Times,serif" font-size="10.00" fill="red">2.0.2</text>
<text text-anchor="middle" x="757" y="-497" font-family="Times,serif" font-size="10.00" fill="red">(latest: 2.1.1)</text>
</g>
<!-- roo_windows&#45;&gt;roo_locale -->
<g id="edge58" class="edge">
<title>roo_windows&#45;&gt;roo_locale</title>
<path fill="none" stroke="black" d="M1705.46,-647.28C1493.52,-644.34 734.05,-632.42 687,-612 671.4,-605.23 657.73,-592.15 647.59,-580.12"/>
<polygon fill="black" stroke="black" points="650.12,-577.69 641.15,-572.06 644.65,-582.06 650.12,-577.69"/>
</g>
<!-- roo_windows&#45;&gt;roo_logging -->
<g id="edge59" class="edge">
<title>roo_windows&#45;&gt;roo_logging</title>
<path fill="none" stroke="red" d="M1759.3,-629.98C1758.02,-588.66 1756.51,-484.04 1770,-398 1773.87,-373.31 1791.08,-361.13 1775,-342 1735.21,-294.66 1311.91,-274.15 1152.38,-268.06"/>
<polygon fill="red" stroke="red" points="1152.38,-264.56 1142.26,-267.68 1152.12,-271.56 1152.38,-264.56"/>
<text text-anchor="middle" x="1797" y="-460" font-family="Times,serif" font-size="10.00" fill="red">1.4.2</text>
<text text-anchor="middle" x="1797" y="-449" font-family="Times,serif" font-size="10.00" fill="red">(latest: 1.5.1)</text>
</g>
<!-- roo_windows&#45;&gt;roo_scheduler -->
<g id="edge62" class="edge">
<title>roo_windows&#45;&gt;roo_scheduler</title>
<path fill="none" stroke="red" d="M1774.5,-629.8C1805.53,-588.55 1873.25,-484.78 1844,-398 1826.88,-347.21 1811.65,-336.94 1771,-302 1765.75,-297.48 1759.83,-293.29 1753.76,-289.49"/>
<polygon fill="red" stroke="red" points="1755.2,-286.27 1744.81,-284.19 1751.63,-292.3 1755.2,-286.27"/>
<text text-anchor="middle" x="1884" y="-460" font-family="Times,serif" font-size="10.00" fill="red">2.1.4</text>
<text text-anchor="middle" x="1884" y="-449" font-family="Times,serif" font-size="10.00" fill="red">(latest: 2.1.6)</text>
</g>
<!-- roo_windows&#45;&gt;roo_testing -->
<g id="edge56" class="edge">
<title>roo_windows&#45;&gt;roo_testing</title>
<path fill="none" stroke="red" d="M1814.56,-643.8C1947.81,-632.82 2279,-600.82 2279,-554 2279,-554 2279,-554 2279,-360 2279,-334.22 2269.93,-325.73 2280,-302 2284.42,-291.59 2291.92,-293.54 2298,-284 2314.77,-257.67 2322,-249.21 2322,-218 2322,-218 2322,-218 2322,-93 2322,-18.16 1135.62,-18.54 854.99,-19.68"/>
<polygon fill="red" stroke="red" points="854.6,-16.18 844.62,-19.73 854.63,-23.18 854.6,-16.18"/>
<text text-anchor="middle" x="2313" y="-316" font-family="Times,serif" font-size="10.00" fill="red">1.1.7</text>
<text text-anchor="middle" x="2313" y="-305" font-family="Times,serif" font-size="10.00" fill="red">(latest: 1.2.0)</text>
</g>
<!-- roo_windows&#45;&gt;roo_time -->
<g id="edge63" class="edge">
<title>roo_windows&#45;&gt;roo_time</title>
<path fill="none" stroke="red" d="M1705.4,-647.57C1432.14,-645.06 226,-629.71 226,-554 226,-554 226,-554 226,-408 226,-384.56 323.84,-248.04 336,-228 357,-193.4 355.61,-179.8 383,-150 393.66,-138.41 407.11,-127.72 419.72,-118.92"/>
<polygon fill="red" stroke="red" points="421.95,-121.64 428.27,-113.14 418.02,-115.84 421.95,-121.64"/>
<text text-anchor="middle" x="293" y="-364" font-family="Times,serif" font-size="10.00" fill="red">1.3.2</text>
<text text-anchor="middle" x="293" y="-353" font-family="Times,serif" font-size="10.00" fill="red">(latest: 1.4.0)</text>
</g>
<!-- roo_windows_wifi -->
<g id="node25" class="node">
<title>roo_windows_wifi</title>
<polygon fill="plum" stroke="black" points="1830.5,-743 1689.5,-743 1689.5,-705 1830.5,-705 1830.5,-743"/>
<text text-anchor="middle" x="1760" y="-727.8" font-family="Times,serif" font-size="14.00">roo_windows_wifi</text>
<text text-anchor="middle" x="1760" y="-712.8" font-family="Times,serif" font-size="14.00">1.1.2</text>
</g>
<!-- roo_windows_wifi&#45;&gt;roo_testing -->
<g id="edge64" class="edge">
<title>roo_windows_wifi&#45;&gt;roo_testing</title>
<path fill="none" stroke="red" d="M1689.44,-721.72C1375.86,-715.83 124,-689.79 124,-650 124,-650 124,-650 124,-93 124,-31.6 573.1,-21.8 737.02,-20.27"/>
<polygon fill="red" stroke="red" points="737.43,-23.77 747.4,-20.18 737.37,-16.77 737.43,-23.77"/>
<text text-anchor="middle" x="157" y="-364" font-family="Times,serif" font-size="10.00" fill="red">1.1.7</text>
<text text-anchor="middle" x="157" y="-353" font-family="Times,serif" font-size="10.00" fill="red">(latest: 1.2.0)</text>
</g>
<!-- roo_windows_wifi&#45;&gt;roo_wifi -->
<g id="edge65" class="edge">
<title>roo_windows_wifi&#45;&gt;roo_wifi</title>
<path fill="none" stroke="red" d="M1830.62,-717.02C1959.41,-704.73 2225.45,-672.58 2293,-612 2329.13,-579.6 2339.27,-520.86 2342.04,-486.05"/>
<polygon fill="red" stroke="red" points="2345.53,-486.27 2342.68,-476.06 2338.55,-485.82 2345.53,-486.27"/>
<text text-anchor="middle" x="2344" y="-604" font-family="Times,serif" font-size="10.00" fill="red">1.1.1</text>
<text text-anchor="middle" x="2344" y="-593" font-family="Times,serif" font-size="10.00" fill="red">(latest: 1.1.2)</text>
</g>
<!-- roo_windows_wifi&#45;&gt;roo_windows -->
<g id="edge66" class="edge">
<title>roo_windows_wifi&#45;&gt;roo_windows</title>
<path fill="none" stroke="black" d="M1760,-704.96C1760,-696.88 1760,-687.18 1760,-678.18"/>
<polygon fill="black" stroke="black" points="1763.5,-678.09 1760,-668.09 1756.5,-678.09 1763.5,-678.09"/>
</g>
</g>
</svg>
