<?xml version="1.0" encoding="UTF-8" standalone="no"?>
<!DOCTYPE svg PUBLIC "-//W3C//DTD SVG 1.1//EN"
 "http://www.w3.org/Graphics/SVG/1.1/DTD/svg11.dtd">
<!-- Generated by graphviz version 2.42.4 (0)
 -->
<!-- Title: dependencies Pages: 1 -->
<svg width="1097pt" height="793pt"
 viewBox="0.00 0.00 1096.50 793.00" xmlns="http://www.w3.org/2000/svg" xmlns:xlink="http://www.w3.org/1999/xlink">
<g id="graph0" class="graph" transform="scale(1 1) rotate(0) translate(4 789)">
<title>dependencies</title>
<polygon fill="white" stroke="transparent" points="-4,4 -4,-789 1092.5,-789 1092.5,4 -4,4"/>
<!-- roo_backport -->
<g id="node1" class="node">
<title>roo_backport</title>
<polygon fill="#b1dbab" stroke="black" points="527,-230 417,-230 417,-192 527,-192 527,-230"/>
<text text-anchor="middle" x="472" y="-214.8" font-family="Times,serif" font-size="14.00">roo_backport</text>
<text text-anchor="middle" x="472" y="-199.8" font-family="Times,serif" font-size="14.00">1.2.2</text>
</g>
<!-- roo_blink -->
<g id="node2" class="node">
<title>roo_blink</title>
<polygon fill="#b1dbab" stroke="black" points="973,-593 891,-593 891,-555 973,-555 973,-593"/>
<text text-anchor="middle" x="932" y="-577.8" font-family="Times,serif" font-size="14.00">roo_blink</text>
<text text-anchor="middle" x="932" y="-562.8" font-family="Times,serif" font-size="14.00">1.0.6</text>
</g>
<!-- roo_logging -->
<g id="node13" class="node">
<title>roo_logging</title>
<polygon fill="#b1dbab" stroke="red" points="779,-326 679,-326 679,-288 779,-288 779,-326"/>
<text text-anchor="middle" x="729" y="-310.8" font-family="Times,serif" font-size="14.00">roo_logging</text>
<text text-anchor="middle" x="729" y="-295.8" font-family="Times,serif" font-size="14.00">1.5.5</text>
</g>
<!-- roo_blink&#45;&gt;roo_logging -->
<g id="edge1" class="edge">
<title>roo_blink&#45;&gt;roo_logging</title>
<path fill="none" stroke="black" d="M932.18,-554.62C931.71,-531.21 928.47,-490.07 913,-459 883.62,-399.99 819.42,-355.89 775.19,-331.03"/>
<polygon fill="black" stroke="black" points="776.8,-327.93 766.36,-326.17 773.43,-334.06 776.8,-327.93"/>
</g>
<!-- roo_scheduler -->
<g id="node19" class="node">
<title>roo_scheduler</title>
<polygon fill="#b1dbab" stroke="black" points="426,-497 310,-497 310,-459 426,-459 426,-497"/>
<text text-anchor="middle" x="368" y="-481.8" font-family="Times,serif" font-size="14.00">roo_scheduler</text>
<text text-anchor="middle" x="368" y="-466.8" font-family="Times,serif" font-size="14.00">2.1.9</text>
</g>
<!-- roo_blink&#45;&gt;roo_scheduler -->
<g id="edge2" class="edge">
<title>roo_blink&#45;&gt;roo_scheduler</title>
<path fill="none" stroke="black" d="M890.74,-557.38C887.8,-556.51 884.87,-555.7 882,-555 752.62,-523.38 717.12,-531.88 585,-515 518.83,-506.55 501.51,-509.56 436,-497 435.9,-496.98 435.8,-496.96 435.7,-496.94"/>
<polygon fill="black" stroke="black" points="436.62,-493.56 426.12,-494.95 435.2,-500.41 436.62,-493.56"/>
</g>
<!-- roo_collections -->
<g id="node3" class="node">
<title>roo_collections</title>
<polygon fill="#b1dbab" stroke="black" points="468,-401 346,-401 346,-363 468,-363 468,-401"/>
<text text-anchor="middle" x="407" y="-385.8" font-family="Times,serif" font-size="14.00">roo_collections</text>
<text text-anchor="middle" x="407" y="-370.8" font-family="Times,serif" font-size="14.00">1.4.3</text>
</g>
<!-- roo_collections&#45;&gt;roo_backport -->
<g id="edge3" class="edge">
<title>roo_collections&#45;&gt;roo_backport</title>
<path fill="none" stroke="black" d="M413.96,-362.91C425.31,-333.39 447.91,-274.63 461.31,-239.78"/>
<polygon fill="black" stroke="black" points="464.67,-240.8 465,-230.21 458.14,-238.29 464.67,-240.8"/>
</g>
<!-- roo_comms -->
<g id="node4" class="node">
<title>roo_comms</title>
<polygon fill="plum" stroke="red" points="821.5,-785 724.5,-785 724.5,-747 821.5,-747 821.5,-785"/>
<text text-anchor="middle" x="773" y="-769.8" font-family="Times,serif" font-size="14.00">roo_comms</text>
<text text-anchor="middle" x="773" y="-754.8" font-family="Times,serif" font-size="14.00">1.1.3</text>
</g>
<!-- roo_comms&#45;&gt;roo_blink -->
<g id="edge4" class="edge">
<title>roo_comms&#45;&gt;roo_blink</title>
<path fill="none" stroke="red" d="M788.25,-746.78C816.62,-712.88 877.61,-640 910.28,-600.95"/>
<polygon fill="red" stroke="red" points="913.07,-603.08 916.8,-593.16 907.7,-598.59 913.07,-603.08"/>
<text text-anchor="middle" x="901" y="-673" font-family="Times,serif" font-size="10.00" fill="red">1.0.4</text>
<text text-anchor="middle" x="901" y="-662" font-family="Times,serif" font-size="10.00" fill="red">(latest: 1.0.6)</text>
</g>
<!-- roo_control -->
<g id="node5" class="node">
<title>roo_control</title>
<polygon fill="#b1dbab" stroke="black" points="1088.5,-593 991.5,-593 991.5,-555 1088.5,-555 1088.5,-593"/>
<text text-anchor="middle" x="1040" y="-577.8" font-family="Times,serif" font-size="14.00">roo_control</text>
<text text-anchor="middle" x="1040" y="-562.8" font-family="Times,serif" font-size="14.00">1.2.5</text>
</g>
<!-- roo_comms&#45;&gt;roo_control -->
<g id="edge5" class="edge">
<title>roo_comms&#45;&gt;roo_control</title>
<path fill="none" stroke="red" d="M821.69,-748.63C856.14,-735.65 902.36,-715.33 938,-689 971.63,-664.16 1002.47,-626.75 1021.24,-601.64"/>
<polygon fill="red" stroke="red" points="1024.26,-603.44 1027.36,-593.3 1018.62,-599.29 1024.26,-603.44"/>
<text text-anchor="middle" x="1012" y="-673" font-family="Times,serif" font-size="10.00" fill="red">1.2.3</text>
<text text-anchor="middle" x="1012" y="-662" font-family="Times,serif" font-size="10.00" fill="red">(latest: 1.2.5)</text>
</g>
<!-- roo_io -->
<g id="node11" class="node">
<title>roo_io</title>
<polygon fill="#b1dbab" stroke="red" points="689.5,-401 630.5,-401 630.5,-363 689.5,-363 689.5,-401"/>
<text text-anchor="middle" x="660" y="-385.8" font-family="Times,serif" font-size="14.00">roo_io</text>
<text text-anchor="middle" x="660" y="-370.8" font-family="Times,serif" font-size="14.00">2.1.5</text>
</g>
<!-- roo_comms&#45;&gt;roo_io -->
<g id="edge6" class="edge">
<title>roo_comms&#45;&gt;roo_io</title>
<path fill="none" stroke="red" d="M761.44,-746.85C742.84,-716.45 707.06,-652.71 694,-593 681.18,-534.35 728.48,-516.43 711,-459 705.44,-440.75 693.88,-422.9 683.16,-409.09"/>
<polygon fill="red" stroke="red" points="685.67,-406.62 676.67,-401.04 680.23,-411.02 685.67,-406.62"/>
<text text-anchor="middle" x="727" y="-577" font-family="Times,serif" font-size="10.00" fill="red">2.1.1</text>
<text text-anchor="middle" x="727" y="-566" font-family="Times,serif" font-size="10.00" fill="red">(latest: 2.1.5)</text>
</g>
<!-- roo_transceivers -->
<g id="node24" class="node">
<title>roo_transceivers</title>
<polygon fill="plum" stroke="red" points="523.5,-689 388.5,-689 388.5,-651 523.5,-651 523.5,-689"/>
<text text-anchor="middle" x="456" y="-673.8" font-family="Times,serif" font-size="14.00">roo_transceivers</text>
<text text-anchor="middle" x="456" y="-658.8" font-family="Times,serif" font-size="14.00">1.1.4</text>
</g>
<!-- roo_comms&#45;&gt;roo_transceivers -->
<g id="edge7" class="edge">
<title>roo_comms&#45;&gt;roo_transceivers</title>
<path fill="none" stroke="black" d="M724.32,-750.74C707.84,-745.03 689.67,-737.71 674,-729 660.17,-721.31 660.5,-713.34 646,-707 602.13,-687.83 584.94,-697.48 533.55,-688.9"/>
<polygon fill="black" stroke="black" points="534.01,-685.43 523.55,-687.08 532.76,-692.32 534.01,-685.43"/>
</g>
<!-- roo_quantity -->
<g id="node18" class="node">
<title>roo_quantity</title>
<polygon fill="#b1dbab" stroke="black" points="903.5,-497 796.5,-497 796.5,-459 903.5,-459 903.5,-497"/>
<text text-anchor="middle" x="850" y="-481.8" font-family="Times,serif" font-size="14.00">roo_quantity</text>
<text text-anchor="middle" x="850" y="-466.8" font-family="Times,serif" font-size="14.00">1.1.8</text>
</g>
<!-- roo_control&#45;&gt;roo_quantity -->
<g id="edge8" class="edge">
<title>roo_control&#45;&gt;roo_quantity</title>
<path fill="none" stroke="black" d="M1003.37,-554.88C972.61,-539.66 928.54,-517.85 895.52,-501.52"/>
<polygon fill="black" stroke="black" points="897.04,-498.37 886.52,-497.07 893.93,-504.64 897.04,-498.37"/>
</g>
<!-- roo_control&#45;&gt;roo_scheduler -->
<g id="edge9" class="edge">
<title>roo_control&#45;&gt;roo_scheduler</title>
<path fill="none" stroke="black" d="M991.42,-557.31C988.24,-556.47 985.09,-555.69 982,-555 859.36,-527.39 827.02,-528.14 702,-515 584.16,-502.61 552.92,-516.25 436,-497 435.9,-496.98 435.8,-496.97 435.69,-496.95"/>
<polygon fill="black" stroke="black" points="436.55,-493.55 426.08,-495.16 435.27,-500.43 436.55,-493.55"/>
</g>
<!-- roo_dashboard -->
<g id="node6" class="node">
<title>roo_dashboard</title>
<polygon fill="plum" stroke="red" points="267,-785 145,-785 145,-747 267,-747 267,-785"/>
<text text-anchor="middle" x="206" y="-769.8" font-family="Times,serif" font-size="14.00">roo_dashboard</text>
<text text-anchor="middle" x="206" y="-754.8" font-family="Times,serif" font-size="14.00">1.0.1</text>
</g>
<!-- roo_windows -->
<g id="node27" class="node">
<title>roo_windows</title>
<polygon fill="khaki" stroke="red" points="350.5,-689 241.5,-689 241.5,-651 350.5,-651 350.5,-689"/>
<text text-anchor="middle" x="296" y="-673.8" font-family="Times,serif" font-size="14.00">roo_windows</text>
<text text-anchor="middle" x="296" y="-658.8" font-family="Times,serif" font-size="14.00">1.4.2</text>
</g>
<!-- roo_dashboard&#45;&gt;roo_windows -->
<g id="edge10" class="edge">
<title>roo_dashboard&#45;&gt;roo_windows</title>
<path fill="none" stroke="red" d="M209.38,-746.76C212.46,-734.36 218.09,-718.22 228,-707 232.12,-702.33 236.99,-698.17 242.21,-694.49"/>
<polygon fill="red" stroke="red" points="244.1,-697.44 250.62,-689.09 240.32,-691.54 244.1,-697.44"/>
<text text-anchor="middle" x="261" y="-721" font-family="Times,serif" font-size="10.00" fill="red">1.4.1</text>
<text text-anchor="middle" x="261" y="-710" font-family="Times,serif" font-size="10.00" fill="red">(latest: 1.4.2)</text>
</g>
<!-- roo_display -->
<g id="node7" class="node">
<title>roo_display</title>
<polygon fill="#b1dbab" stroke="black" points="292,-497 194,-497 194,-459 292,-459 292,-497"/>
<text text-anchor="middle" x="243" y="-481.8" font-family="Times,serif" font-size="14.00">roo_display</text>
<text text-anchor="middle" x="243" y="-466.8" font-family="Times,serif" font-size="14.00">3.0.2</text>
</g>
<!-- roo_display&#45;&gt;roo_collections -->
<g id="edge11" class="edge">
<title>roo_display&#45;&gt;roo_collections</title>
<path fill="none" stroke="black" d="M274.62,-458.88C300.83,-443.86 338.24,-422.41 366.61,-406.15"/>
<polygon fill="black" stroke="black" points="368.54,-409.08 375.48,-401.07 365.06,-403 368.54,-409.08"/>
</g>
<!-- roo_display&#45;&gt;roo_io -->
<g id="edge12" class="edge">
<title>roo_display&#45;&gt;roo_io</title>
<path fill="none" stroke="black" d="M292.18,-460.95C295.15,-460.23 298.1,-459.57 301,-459 391.18,-441.28 419.07,-467.72 507,-441 526.41,-435.1 528.36,-427.01 547,-419 570.79,-408.78 598.47,-399.92 620.48,-393.54"/>
<polygon fill="black" stroke="black" points="621.5,-396.89 630.16,-390.79 619.59,-390.16 621.5,-396.89"/>
</g>
<!-- roo_flags -->
<g id="node8" class="node">
<title>roo_flags</title>
<polygon fill="#b1dbab" stroke="black" points="768,-230 688,-230 688,-192 768,-192 768,-230"/>
<text text-anchor="middle" x="728" y="-214.8" font-family="Times,serif" font-size="14.00">roo_flags</text>
<text text-anchor="middle" x="728" y="-199.8" font-family="Times,serif" font-size="14.00">1.2.3</text>
</g>
<!-- roo_fonts_basic -->
<g id="node9" class="node">
<title>roo_fonts_basic</title>
<polygon fill="#b1dbab" stroke="red" points="126,-593 0,-593 0,-555 126,-555 126,-593"/>
<text text-anchor="middle" x="63" y="-577.8" font-family="Times,serif" font-size="14.00">roo_fonts_basic</text>
<text text-anchor="middle" x="63" y="-562.8" font-family="Times,serif" font-size="14.00">1.0.1</text>
</g>
<!-- roo_fonts_basic&#45;&gt;roo_display -->
<g id="edge13" class="edge">
<title>roo_fonts_basic&#45;&gt;roo_display</title>
<path fill="none" stroke="red" d="M97.71,-554.88C126.72,-539.73 168.24,-518.04 199.47,-501.73"/>
<polygon fill="red" stroke="red" points="201.16,-504.8 208.4,-497.07 197.92,-498.6 201.16,-504.8"/>
<text text-anchor="middle" x="203" y="-529" font-family="Times,serif" font-size="10.00" fill="red">3.0.1</text>
<text text-anchor="middle" x="203" y="-518" font-family="Times,serif" font-size="10.00" fill="red">(latest: 3.0.2)</text>
</g>
<!-- roo_icons -->
<g id="node10" class="node">
<title>roo_icons</title>
<polygon fill="#b1dbab" stroke="black" points="333.5,-593 250.5,-593 250.5,-555 333.5,-555 333.5,-593"/>
<text text-anchor="middle" x="292" y="-577.8" font-family="Times,serif" font-size="14.00">roo_icons</text>
<text text-anchor="middle" x="292" y="-562.8" font-family="Times,serif" font-size="14.00">1.2.2</text>
</g>
<!-- roo_icons&#45;&gt;roo_display -->
<g id="edge14" class="edge">
<title>roo_icons&#45;&gt;roo_display</title>
<path fill="none" stroke="black" d="M282.55,-554.88C275.37,-541.09 265.36,-521.9 257.21,-506.26"/>
<polygon fill="black" stroke="black" points="260.14,-504.32 252.42,-497.07 253.94,-507.55 260.14,-504.32"/>
</g>
<!-- roo_io&#45;&gt;roo_logging -->
<g id="edge15" class="edge">
<title>roo_io&#45;&gt;roo_logging</title>
<path fill="none" stroke="black" d="M677.06,-362.96C685.43,-354.09 695.67,-343.26 704.84,-333.56"/>
<polygon fill="black" stroke="black" points="707.58,-335.76 711.9,-326.09 702.49,-330.95 707.58,-335.76"/>
</g>
<!-- roo_locale -->
<g id="node12" class="node">
<title>roo_locale</title>
<polygon fill="#b1dbab" stroke="black" points="232,-593 144,-593 144,-555 232,-555 232,-593"/>
<text text-anchor="middle" x="188" y="-577.8" font-family="Times,serif" font-size="14.00">roo_locale</text>
<text text-anchor="middle" x="188" y="-562.8" font-family="Times,serif" font-size="14.00">1.1.2</text>
</g>
<!-- roo_logging&#45;&gt;roo_backport -->
<g id="edge16" class="edge">
<title>roo_logging&#45;&gt;roo_backport</title>
<path fill="none" stroke="black" d="M709.45,-287.83C692.01,-271.79 668.41,-250.55 663,-248 617.8,-226.67 601.07,-239.49 552,-230 547.27,-229.09 542.39,-228.1 537.49,-227.07"/>
<polygon fill="black" stroke="black" points="537.94,-223.59 527.43,-224.93 536.48,-230.44 537.94,-223.59"/>
</g>
<!-- roo_logging&#45;&gt;roo_flags -->
<g id="edge17" class="edge">
<title>roo_logging&#45;&gt;roo_flags</title>
<path fill="none" stroke="black" d="M728.81,-287.88C728.66,-274.35 728.46,-255.62 728.3,-240.15"/>
<polygon fill="black" stroke="black" points="731.8,-240.03 728.19,-230.07 724.8,-240.11 731.8,-240.03"/>
</g>
<!-- roo_threads -->
<g id="node21" class="node">
<title>roo_threads</title>
<polygon fill="#b1dbab" stroke="red" points="661.5,-230 560.5,-230 560.5,-192 661.5,-192 661.5,-230"/>
<text text-anchor="middle" x="611" y="-214.8" font-family="Times,serif" font-size="14.00">roo_threads</text>
<text text-anchor="middle" x="611" y="-199.8" font-family="Times,serif" font-size="14.00">1.2.3</text>
</g>
<!-- roo_logging&#45;&gt;roo_threads -->
<g id="edge18" class="edge">
<title>roo_logging&#45;&gt;roo_threads</title>
<path fill="none" stroke="black" d="M719.87,-287.86C712.84,-275.34 702.1,-259.03 689,-248 683.27,-243.18 676.79,-238.87 670.08,-235.04"/>
<polygon fill="black" stroke="black" points="671.3,-231.73 660.82,-230.14 668.02,-237.91 671.3,-231.73"/>
</g>
<!-- roo_monitoring -->
<g id="node14" class="node">
<title>roo_monitoring</title>
<polygon fill="plum" stroke="red" points="569.5,-497 444.5,-497 444.5,-459 569.5,-459 569.5,-497"/>
<text text-anchor="middle" x="507" y="-481.8" font-family="Times,serif" font-size="14.00">roo_monitoring</text>
<text text-anchor="middle" x="507" y="-466.8" font-family="Times,serif" font-size="14.00">1.0.0</text>
</g>
<!-- roo_monitoring&#45;&gt;roo_collections -->
<g id="edge19" class="edge">
<title>roo_monitoring&#45;&gt;roo_collections</title>
<path fill="none" stroke="red" d="M485.94,-458.91C479.47,-453.25 472.38,-446.93 466,-441 454.65,-430.46 442.4,-418.51 432.01,-408.2"/>
<polygon fill="red" stroke="red" points="434.37,-405.62 424.82,-401.04 429.43,-410.57 434.37,-405.62"/>
<text text-anchor="middle" x="499" y="-433" font-family="Times,serif" font-size="10.00" fill="red">1.4.1</text>
<text text-anchor="middle" x="499" y="-422" font-family="Times,serif" font-size="10.00" fill="red">(latest: 1.4.3)</text>
</g>
<!-- roo_monitoring&#45;&gt;roo_io -->
<g id="edge20" class="edge">
<title>roo_monitoring&#45;&gt;roo_io</title>
<path fill="none" stroke="red" d="M527.4,-458.85C541.75,-446.64 561.75,-430.7 581,-419 593.54,-411.38 607.97,-404.35 621.04,-398.56"/>
<polygon fill="red" stroke="red" points="622.47,-401.75 630.26,-394.57 619.7,-395.32 622.47,-401.75"/>
<text text-anchor="middle" x="614" y="-433" font-family="Times,serif" font-size="10.00" fill="red">2.1.4</text>
<text text-anchor="middle" x="614" y="-422" font-family="Times,serif" font-size="10.00" fill="red">(latest: 2.1.5)</text>
</g>
<!-- roo_onewire -->
<g id="node15" class="node">
<title>roo_onewire</title>
<polygon fill="#b1dbab" stroke="black" points="873,-593 769,-593 769,-555 873,-555 873,-593"/>
<text text-anchor="middle" x="821" y="-577.8" font-family="Times,serif" font-size="14.00">roo_onewire</text>
<text text-anchor="middle" x="821" y="-562.8" font-family="Times,serif" font-size="14.00">2.0.9</text>
</g>
<!-- roo_onewire&#45;&gt;roo_quantity -->
<g id="edge22" class="edge">
<title>roo_onewire&#45;&gt;roo_quantity</title>
<path fill="none" stroke="black" d="M826.59,-554.88C830.8,-541.22 836.65,-522.26 841.45,-506.71"/>
<polygon fill="black" stroke="black" points="844.82,-507.66 844.43,-497.07 838.13,-505.59 844.82,-507.66"/>
</g>
<!-- roo_onewire&#45;&gt;roo_scheduler -->
<g id="edge21" class="edge">
<title>roo_onewire&#45;&gt;roo_scheduler</title>
<path fill="none" stroke="black" d="M768.91,-558.14C764.22,-557 759.54,-555.93 755,-555 698.73,-543.42 683.59,-546.89 627,-537 541.57,-522.06 520.39,-516.99 436,-497 435.9,-496.98 435.8,-496.95 435.7,-496.93"/>
<polygon fill="black" stroke="black" points="436.73,-493.58 426.19,-494.62 435.08,-500.38 436.73,-493.58"/>
</g>
<!-- roo_powersafefs -->
<g id="node16" class="node">
<title>roo_powersafefs</title>
<polygon fill="plum" stroke="red" points="660.5,-326 527.5,-326 527.5,-288 660.5,-288 660.5,-326"/>
<text text-anchor="middle" x="594" y="-310.8" font-family="Times,serif" font-size="14.00">roo_powersafefs</text>
<text text-anchor="middle" x="594" y="-295.8" font-family="Times,serif" font-size="14.00">1.0.0</text>
</g>
<!-- roo_powersafefs&#45;&gt;roo_threads -->
<g id="edge23" class="edge">
<title>roo_powersafefs&#45;&gt;roo_threads</title>
<path fill="none" stroke="red" d="M597.28,-287.88C599.72,-274.35 603.11,-255.62 605.91,-240.15"/>
<polygon fill="red" stroke="red" points="609.4,-240.53 607.73,-230.07 602.51,-239.29 609.4,-240.53"/>
<text text-anchor="middle" x="637" y="-262" font-family="Times,serif" font-size="10.00" fill="red">1.2.1</text>
<text text-anchor="middle" x="637" y="-251" font-family="Times,serif" font-size="10.00" fill="red">(latest: 1.2.3)</text>
</g>
<!-- roo_prefs -->
<g id="node17" class="node">
<title>roo_prefs</title>
<polygon fill="#b1dbab" stroke="black" points="574.5,-593 491.5,-593 491.5,-555 574.5,-555 574.5,-593"/>
<text text-anchor="middle" x="533" y="-577.8" font-family="Times,serif" font-size="14.00">roo_prefs</text>
<text text-anchor="middle" x="533" y="-562.8" font-family="Times,serif" font-size="14.00">1.2.9</text>
</g>
<!-- roo_prefs&#45;&gt;roo_logging -->
<g id="edge24" class="edge">
<title>roo_prefs&#45;&gt;roo_logging</title>
<path fill="none" stroke="black" d="M574.86,-563.21C613.77,-552.39 671.5,-531.71 711,-497 732.7,-477.93 736.4,-468.87 744,-441 753.65,-405.62 745.7,-363.31 738.18,-336.06"/>
<polygon fill="black" stroke="black" points="741.52,-335.02 735.36,-326.4 734.81,-336.98 741.52,-335.02"/>
</g>
<!-- roo_prefs&#45;&gt;roo_scheduler -->
<g id="edge25" class="edge">
<title>roo_prefs&#45;&gt;roo_scheduler</title>
<path fill="none" stroke="black" d="M501.19,-554.88C474.82,-539.86 437.18,-518.41 408.64,-502.15"/>
<polygon fill="black" stroke="black" points="410.14,-498.98 399.72,-497.07 406.67,-505.06 410.14,-498.98"/>
</g>
<!-- roo_quantity&#45;&gt;roo_logging -->
<g id="edge26" class="edge">
<title>roo_quantity&#45;&gt;roo_logging</title>
<path fill="none" stroke="black" d="M844.07,-458.95C834.43,-431.68 813.24,-379.38 782,-344 778.27,-339.78 773.95,-335.82 769.4,-332.18"/>
<polygon fill="black" stroke="black" points="771.19,-329.15 761.08,-326 767.02,-334.77 771.19,-329.15"/>
</g>
<!-- roo_scheduler&#45;&gt;roo_collections -->
<g id="edge27" class="edge">
<title>roo_scheduler&#45;&gt;roo_collections</title>
<path fill="none" stroke="black" d="M373.99,-458.76C377.93,-447.23 383.38,-432.09 389,-419 390.23,-416.14 391.57,-413.18 392.96,-410.25"/>
<polygon fill="black" stroke="black" points="396.18,-411.64 397.43,-401.12 389.89,-408.57 396.18,-411.64"/>
</g>
<!-- roo_scheduler&#45;&gt;roo_threads -->
<g id="edge28" class="edge">
<title>roo_scheduler&#45;&gt;roo_threads</title>
<path fill="none" stroke="black" d="M426.1,-461.35C452.01,-453.88 477.72,-445.59 482,-441 529.74,-389.86 481.91,-347.32 519,-288 532.14,-266.98 553.1,-249 571.7,-235.82"/>
<polygon fill="black" stroke="black" points="573.77,-238.64 580.04,-230.11 569.81,-232.87 573.77,-238.64"/>
</g>
<!-- roo_testing -->
<g id="node20" class="node">
<title>roo_testing</title>
<polygon fill="#b1dbab" stroke="black" points="781.5,-38 684.5,-38 684.5,0 781.5,0 781.5,-38"/>
<text text-anchor="middle" x="733" y="-22.8" font-family="Times,serif" font-size="14.00">roo_testing</text>
<text text-anchor="middle" x="733" y="-7.8" font-family="Times,serif" font-size="14.00">1.3.4</text>
</g>
<!-- roo_time -->
<g id="node22" class="node">
<title>roo_time</title>
<polygon fill="#b1dbab" stroke="red" points="772.5,-134 693.5,-134 693.5,-96 772.5,-96 772.5,-134"/>
<text text-anchor="middle" x="733" y="-118.8" font-family="Times,serif" font-size="14.00">roo_time</text>
<text text-anchor="middle" x="733" y="-103.8" font-family="Times,serif" font-size="14.00">1.4.3</text>
</g>
<!-- roo_threads&#45;&gt;roo_time -->
<g id="edge29" class="edge">
<title>roo_threads&#45;&gt;roo_time</title>
<path fill="none" stroke="black" d="M634.52,-191.88C653.59,-177.18 680.65,-156.34 701.57,-140.21"/>
<polygon fill="black" stroke="black" points="703.76,-142.94 709.55,-134.07 699.49,-137.4 703.76,-142.94"/>
</g>
<!-- roo_time&#45;&gt;roo_testing -->
<g id="edge30" class="edge">
<title>roo_time&#45;&gt;roo_testing</title>
<path fill="none" stroke="red" d="M733,-95.88C733,-82.35 733,-63.62 733,-48.15"/>
<polygon fill="red" stroke="red" points="736.5,-48.07 733,-38.07 729.5,-48.07 736.5,-48.07"/>
<text text-anchor="middle" x="766" y="-70" font-family="Times,serif" font-size="10.00" fill="red">1.3.2</text>
<text text-anchor="middle" x="766" y="-59" font-family="Times,serif" font-size="10.00" fill="red">(latest: 1.3.4)</text>
</g>
<!-- roo_time_ds3231 -->
<g id="node23" class="node">
<title>roo_time_ds3231</title>
<polygon fill="plum" stroke="red" points="924,-230 786,-230 786,-192 924,-192 924,-230"/>
<text text-anchor="middle" x="855" y="-214.8" font-family="Times,serif" font-size="14.00">roo_time_ds3231</text>
<text text-anchor="middle" x="855" y="-199.8" font-family="Times,serif" font-size="14.00">1.1.5</text>
</g>
<!-- roo_time_ds3231&#45;&gt;roo_time -->
<g id="edge31" class="edge">
<title>roo_time_ds3231&#45;&gt;roo_time</title>
<path fill="none" stroke="red" d="M831.48,-191.88C812.41,-177.18 785.35,-156.34 764.43,-140.21"/>
<polygon fill="red" stroke="red" points="766.51,-137.4 756.45,-134.07 762.24,-142.94 766.51,-137.4"/>
<text text-anchor="middle" x="837" y="-166" font-family="Times,serif" font-size="10.00" fill="red">1.4.1</text>
<text text-anchor="middle" x="837" y="-155" font-family="Times,serif" font-size="10.00" fill="red">(latest: 1.4.3)</text>
</g>
<!-- roo_transceivers&#45;&gt;roo_prefs -->
<g id="edge32" class="edge">
<title>roo_transceivers&#45;&gt;roo_prefs</title>
<path fill="none" stroke="red" d="M460.93,-650.85C464.9,-638.65 471.41,-622.71 481,-611 484.48,-606.75 488.58,-602.79 492.93,-599.17"/>
<polygon fill="red" stroke="red" points="495.15,-601.88 500.95,-593.01 490.89,-596.32 495.15,-601.88"/>
<text text-anchor="middle" x="514" y="-625" font-family="Times,serif" font-size="10.00" fill="red">1.2.7</text>
<text text-anchor="middle" x="514" y="-614" font-family="Times,serif" font-size="10.00" fill="red">(latest: 1.2.9)</text>
</g>
<!-- roo_transport -->
<g id="node25" class="node">
<title>roo_transport</title>
<polygon fill="#b1dbab" stroke="black" points="702,-497 588,-497 588,-459 702,-459 702,-497"/>
<text text-anchor="middle" x="645" y="-481.8" font-family="Times,serif" font-size="14.00">roo_transport</text>
<text text-anchor="middle" x="645" y="-466.8" font-family="Times,serif" font-size="14.00">1.1.2</text>
</g>
<!-- roo_transport&#45;&gt;roo_collections -->
<g id="edge33" class="edge">
<title>roo_transport&#45;&gt;roo_collections</title>
<path fill="none" stroke="black" d="M642.22,-458.75C639.25,-445.67 633.19,-428.71 621,-419 599.3,-401.72 531.76,-392.41 478.29,-387.61"/>
<polygon fill="black" stroke="black" points="478.4,-384.11 468.14,-386.74 477.81,-391.09 478.4,-384.11"/>
</g>
<!-- roo_transport&#45;&gt;roo_io -->
<g id="edge34" class="edge">
<title>roo_transport&#45;&gt;roo_io</title>
<path fill="none" stroke="black" d="M647.89,-458.88C650.05,-445.35 653.04,-426.62 655.51,-411.15"/>
<polygon fill="black" stroke="black" points="659,-411.5 657.12,-401.07 652.08,-410.39 659,-411.5"/>
</g>
<!-- roo_wifi -->
<g id="node26" class="node">
<title>roo_wifi</title>
<polygon fill="#b1dbab" stroke="black" points="614,-689 542,-689 542,-651 614,-651 614,-689"/>
<text text-anchor="middle" x="578" y="-673.8" font-family="Times,serif" font-size="14.00">roo_wifi</text>
<text text-anchor="middle" x="578" y="-658.8" font-family="Times,serif" font-size="14.00">1.1.4</text>
</g>
<!-- roo_wifi&#45;&gt;roo_prefs -->
<g id="edge35" class="edge">
<title>roo_wifi&#45;&gt;roo_prefs</title>
<path fill="none" stroke="black" d="M569.32,-650.88C562.72,-637.09 553.54,-617.9 546.05,-602.26"/>
<polygon fill="black" stroke="black" points="549.12,-600.58 541.65,-593.07 542.81,-603.6 549.12,-600.58"/>
</g>
<!-- roo_windows&#45;&gt;roo_icons -->
<g id="edge37" class="edge">
<title>roo_windows&#45;&gt;roo_icons</title>
<path fill="none" stroke="red" d="M292.97,-650.74C292.16,-645.07 291.4,-638.79 291,-633 290.33,-623.29 290.31,-612.65 290.54,-603.16"/>
<polygon fill="red" stroke="red" points="294.04,-603.16 290.89,-593.05 287.05,-602.92 294.04,-603.16"/>
<text text-anchor="middle" x="324" y="-625" font-family="Times,serif" font-size="10.00" fill="red">1.2.1</text>
<text text-anchor="middle" x="324" y="-614" font-family="Times,serif" font-size="10.00" fill="red">(latest: 1.2.2)</text>
</g>
<!-- roo_windows&#45;&gt;roo_locale -->
<g id="edge36" class="edge">
<title>roo_windows&#45;&gt;roo_locale</title>
<path fill="none" stroke="red" d="M247.25,-650.93C237.87,-646.04 228.61,-640.09 221,-633 211.92,-624.53 204.66,-612.99 199.28,-602.43"/>
<polygon fill="red" stroke="red" points="202.32,-600.66 194.88,-593.12 195.99,-603.66 202.32,-600.66"/>
<text text-anchor="middle" x="254" y="-625" font-family="Times,serif" font-size="10.00" fill="red">1.1.1</text>
<text text-anchor="middle" x="254" y="-614" font-family="Times,serif" font-size="10.00" fill="red">(latest: 1.1.2)</text>
</g>
<!-- roo_windows&#45;&gt;roo_scheduler -->
<g id="edge38" class="edge">
<title>roo_windows&#45;&gt;roo_scheduler</title>
<path fill="none" stroke="red" d="M338.94,-650.98C346.04,-646.15 352.53,-640.21 357,-633 380.71,-594.71 378.04,-540.35 373.4,-507.51"/>
<polygon fill="red" stroke="red" points="376.8,-506.58 371.78,-497.24 369.88,-507.67 376.8,-506.58"/>
<text text-anchor="middle" x="409" y="-577" font-family="Times,serif" font-size="10.00" fill="red">2.1.6</text>
<text text-anchor="middle" x="409" y="-566" font-family="Times,serif" font-size="10.00" fill="red">(latest: 2.1.9)</text>
</g>
<!-- roo_windows_transceivers -->
<g id="node28" class="node">
<title>roo_windows_transceivers</title>
<polygon fill="plum" stroke="red" points="489,-785 285,-785 285,-747 489,-747 489,-785"/>
<text text-anchor="middle" x="387" y="-769.8" font-family="Times,serif" font-size="14.00">roo_windows_transceivers</text>
<text text-anchor="middle" x="387" y="-754.8" font-family="Times,serif" font-size="14.00">1.0.0</text>
</g>
<!-- roo_windows_transceivers&#45;&gt;roo_transceivers -->
<g id="edge39" class="edge">
<title>roo_windows_transceivers&#45;&gt;roo_transceivers</title>
<path fill="none" stroke="red" d="M400.3,-746.88C410.61,-732.83 425.05,-713.17 436.63,-697.38"/>
<polygon fill="red" stroke="red" points="439.64,-699.2 442.74,-689.07 434,-695.06 439.64,-699.2"/>
<text text-anchor="middle" x="460" y="-721" font-family="Times,serif" font-size="10.00" fill="red">1.1.3</text>
<text text-anchor="middle" x="460" y="-710" font-family="Times,serif" font-size="10.00" fill="red">(latest: 1.1.4)</text>
</g>
<!-- roo_windows_transceivers&#45;&gt;roo_windows -->
<g id="edge40" class="edge">
<title>roo_windows_transceivers&#45;&gt;roo_windows</title>
<path fill="none" stroke="red" d="M364.61,-746.96C358.09,-741.4 351.09,-735.13 345,-729 335.11,-719.04 324.96,-707.32 316.49,-697.04"/>
<polygon fill="red" stroke="red" points="319.11,-694.71 310.09,-689.16 313.68,-699.13 319.11,-694.71"/>
<text text-anchor="middle" x="378" y="-721" font-family="Times,serif" font-size="10.00" fill="red">1.4.1</text>
<text text-anchor="middle" x="378" y="-710" font-family="Times,serif" font-size="10.00" fill="red">(latest: 1.4.2)</text>
</g>
<!-- roo_windows_wifi -->
<g id="node29" class="node">
<title>roo_windows_wifi</title>
<polygon fill="plum" stroke="red" points="648.5,-785 507.5,-785 507.5,-747 648.5,-747 648.5,-785"/>
<text text-anchor="middle" x="578" y="-769.8" font-family="Times,serif" font-size="14.00">roo_windows_wifi</text>
<text text-anchor="middle" x="578" y="-754.8" font-family="Times,serif" font-size="14.00">1.1.3</text>
</g>
<!-- roo_windows_wifi&#45;&gt;roo_wifi -->
<g id="edge41" class="edge">
<title>roo_windows_wifi&#45;&gt;roo_wifi</title>
<path fill="none" stroke="red" d="M578,-746.88C578,-733.35 578,-714.62 578,-699.15"/>
<polygon fill="red" stroke="red" points="581.5,-699.07 578,-689.07 574.5,-699.07 581.5,-699.07"/>
<text text-anchor="middle" x="611" y="-721" font-family="Times,serif" font-size="10.00" fill="red">1.1.3</text>
<text text-anchor="middle" x="611" y="-710" font-family="Times,serif" font-size="10.00" fill="red">(latest: 1.1.4)</text>
</g>
<!-- roo_windows_wifi&#45;&gt;roo_windows -->
<g id="edge42" class="edge">
<title>roo_windows_wifi&#45;&gt;roo_windows</title>
<path fill="none" stroke="black" d="M558.3,-746.81C542.81,-733.58 520.06,-716.4 497,-707 448.28,-687.14 431.74,-698.52 380,-689 373.74,-687.85 367.24,-686.58 360.74,-685.27"/>
<polygon fill="black" stroke="black" points="361.08,-681.77 350.58,-683.18 359.67,-688.62 361.08,-681.77"/>
</g>
</g>
</svg>
