<?xml version="1.0" encoding="UTF-8" standalone="no"?>
<!DOCTYPE svg PUBLIC "-//W3C//DTD SVG 1.1//EN"
 "http://www.w3.org/Graphics/SVG/1.1/DTD/svg11.dtd">
<!-- Generated by graphviz version 2.42.4 (0)
 -->
<!-- Title: dependencies Pages: 1 -->
<svg width="1060pt" height="793pt"
 viewBox="0.00 0.00 1059.50 793.00" xmlns="http://www.w3.org/2000/svg" xmlns:xlink="http://www.w3.org/1999/xlink">
<g id="graph0" class="graph" transform="scale(1 1) rotate(0) translate(4 789)">
<title>dependencies</title>
<polygon fill="white" stroke="transparent" points="-4,4 -4,-789 1055.5,-789 1055.5,4 -4,4"/>
<!-- roo_backport -->
<g id="node1" class="node">
<title>roo_backport</title>
<polygon fill="#b1dbab" stroke="black" points="609,-209 520,-209 520,-171 609,-171 609,-209"/>
<text text-anchor="middle" x="564.5" y="-193.8" font-family="Times,serif" font-size="14.00">roo_backport</text>
<text text-anchor="middle" x="564.5" y="-178.8" font-family="Times,serif" font-size="14.00">1.2.2</text>
</g>
<!-- roo_blink -->
<g id="node2" class="node">
<title>roo_blink</title>
<polygon fill="#b1dbab" stroke="red" points="271,-593 202,-593 202,-555 271,-555 271,-593"/>
<text text-anchor="middle" x="236.5" y="-577.8" font-family="Times,serif" font-size="14.00">roo_blink</text>
<text text-anchor="middle" x="236.5" y="-562.8" font-family="Times,serif" font-size="14.00">1.0.6</text>
</g>
<!-- roo_logging -->
<g id="node16" class="node">
<title>roo_logging</title>
<polygon fill="khaki" stroke="red" points="435,-305 352,-305 352,-267 435,-267 435,-305"/>
<text text-anchor="middle" x="393.5" y="-289.8" font-family="Times,serif" font-size="14.00">roo_logging</text>
<text text-anchor="middle" x="393.5" y="-274.8" font-family="Times,serif" font-size="14.00">1.5.5</text>
</g>
<!-- roo_blink&#45;&gt;roo_logging -->
<g id="edge1" class="edge">
<title>roo_blink&#45;&gt;roo_logging</title>
<path fill="none" stroke="black" d="M236.94,-554.82C238.11,-531.61 242.23,-490.7 256.5,-459 283.13,-399.87 334.75,-343.47 366.46,-312.22"/>
<polygon fill="black" stroke="black" points="368.95,-314.68 373.68,-305.2 364.07,-309.66 368.95,-314.68"/>
</g>
<!-- roo_scheduler -->
<g id="node22" class="node">
<title>roo_scheduler</title>
<polygon fill="#b1dbab" stroke="red" points="359,-497 266,-497 266,-459 359,-459 359,-497"/>
<text text-anchor="middle" x="312.5" y="-481.8" font-family="Times,serif" font-size="14.00">roo_scheduler</text>
<text text-anchor="middle" x="312.5" y="-466.8" font-family="Times,serif" font-size="14.00">2.1.9</text>
</g>
<!-- roo_blink&#45;&gt;roo_scheduler -->
<g id="edge2" class="edge">
<title>roo_blink&#45;&gt;roo_scheduler</title>
<path fill="none" stroke="black" d="M258.12,-554.87C264.06,-549.42 270.3,-543.22 275.5,-537 283.48,-527.46 291.09,-516.09 297.31,-505.95"/>
<polygon fill="black" stroke="black" points="300.49,-507.45 302.6,-497.07 294.47,-503.87 300.49,-507.45"/>
</g>
<!-- roo_collections -->
<g id="node3" class="node">
<title>roo_collections</title>
<polygon fill="#b1dbab" stroke="black" points="658.5,-401 558.5,-401 558.5,-363 658.5,-363 658.5,-401"/>
<text text-anchor="middle" x="608.5" y="-385.8" font-family="Times,serif" font-size="14.00">roo_collections</text>
<text text-anchor="middle" x="608.5" y="-370.8" font-family="Times,serif" font-size="14.00">1.4.3</text>
</g>
<!-- roo_collections&#45;&gt;roo_backport -->
<g id="edge3" class="edge">
<title>roo_collections&#45;&gt;roo_backport</title>
<path fill="none" stroke="black" d="M604.28,-362.78C596.56,-329.44 580.11,-258.43 570.97,-218.94"/>
<polygon fill="black" stroke="black" points="574.37,-218.12 568.71,-209.16 567.55,-219.69 574.37,-218.12"/>
</g>
<!-- roo_comms -->
<g id="node4" class="node">
<title>roo_comms</title>
<polygon fill="#b1dbab" stroke="red" points="219.5,-785 137.5,-785 137.5,-747 219.5,-747 219.5,-785"/>
<text text-anchor="middle" x="178.5" y="-769.8" font-family="Times,serif" font-size="14.00">roo_comms</text>
<text text-anchor="middle" x="178.5" y="-754.8" font-family="Times,serif" font-size="14.00">1.1.4</text>
</g>
<!-- roo_comms&#45;&gt;roo_blink -->
<g id="edge4" class="edge">
<title>roo_comms&#45;&gt;roo_blink</title>
<path fill="none" stroke="black" d="M179.79,-746.82C181.81,-723.96 186.66,-683.76 197.5,-651 203.16,-633.91 212.22,-615.93 220.19,-601.76"/>
<polygon fill="black" stroke="black" points="223.25,-603.45 225.22,-593.04 217.19,-599.95 223.25,-603.45"/>
</g>
<!-- roo_control -->
<g id="node5" class="node">
<title>roo_control</title>
<polygon fill="#b1dbab" stroke="red" points="183.5,-593 103.5,-593 103.5,-555 183.5,-555 183.5,-593"/>
<text text-anchor="middle" x="143.5" y="-577.8" font-family="Times,serif" font-size="14.00">roo_control</text>
<text text-anchor="middle" x="143.5" y="-562.8" font-family="Times,serif" font-size="14.00">1.2.5</text>
</g>
<!-- roo_comms&#45;&gt;roo_control -->
<g id="edge5" class="edge">
<title>roo_comms&#45;&gt;roo_control</title>
<path fill="none" stroke="black" d="M168.49,-746.76C165.82,-741.21 163.21,-734.98 161.5,-729 149.31,-686.4 145.35,-634.92 144.08,-603.59"/>
<polygon fill="black" stroke="black" points="147.57,-603.27 143.74,-593.39 140.58,-603.51 147.57,-603.27"/>
</g>
<!-- roo_io -->
<g id="node13" class="node">
<title>roo_io</title>
<polygon fill="#b1dbab" stroke="red" points="508.5,-401 454.5,-401 454.5,-363 508.5,-363 508.5,-401"/>
<text text-anchor="middle" x="481.5" y="-385.8" font-family="Times,serif" font-size="14.00">roo_io</text>
<text text-anchor="middle" x="481.5" y="-370.8" font-family="Times,serif" font-size="14.00">2.1.6</text>
</g>
<!-- roo_comms&#45;&gt;roo_io -->
<g id="edge6" class="edge">
<title>roo_comms&#45;&gt;roo_io</title>
<path fill="none" stroke="red" d="M219.82,-751.28C225.71,-749.65 231.72,-748.16 237.5,-747 276.91,-739.1 387.19,-755.41 417.5,-729 437.49,-711.58 431.5,-697.52 431.5,-671 431.5,-671 431.5,-671 431.5,-477 431.5,-452.06 445.39,-427.3 458.53,-409.45"/>
<polygon fill="red" stroke="red" points="461.5,-411.33 464.85,-401.28 455.96,-407.05 461.5,-411.33"/>
<text text-anchor="middle" x="458.5" y="-577" font-family="Times,serif" font-size="10.00" fill="red">2.1.5</text>
<text text-anchor="middle" x="458.5" y="-566" font-family="Times,serif" font-size="10.00" fill="red">(latest: 2.1.6)</text>
</g>
<!-- roo_transceivers -->
<g id="node27" class="node">
<title>roo_transceivers</title>
<polygon fill="#b1dbab" stroke="red" points="312.5,-689 206.5,-689 206.5,-651 312.5,-651 312.5,-689"/>
<text text-anchor="middle" x="259.5" y="-673.8" font-family="Times,serif" font-size="14.00">roo_transceivers</text>
<text text-anchor="middle" x="259.5" y="-658.8" font-family="Times,serif" font-size="14.00">1.1.6</text>
</g>
<!-- roo_comms&#45;&gt;roo_transceivers -->
<g id="edge7" class="edge">
<title>roo_comms&#45;&gt;roo_transceivers</title>
<path fill="none" stroke="red" d="M188.55,-746.78C195.58,-734.84 205.62,-719.23 216.5,-707 219.89,-703.19 223.7,-699.43 227.6,-695.86"/>
<polygon fill="red" stroke="red" points="229.92,-698.48 235.16,-689.26 225.32,-693.2 229.92,-698.48"/>
<text text-anchor="middle" x="243.5" y="-721" font-family="Times,serif" font-size="10.00" fill="red">1.1.5</text>
<text text-anchor="middle" x="243.5" y="-710" font-family="Times,serif" font-size="10.00" fill="red">(latest: 1.1.6)</text>
</g>
<!-- roo_quantity -->
<g id="node21" class="node">
<title>roo_quantity</title>
<polygon fill="#b1dbab" stroke="red" points="186.5,-497 100.5,-497 100.5,-459 186.5,-459 186.5,-497"/>
<text text-anchor="middle" x="143.5" y="-481.8" font-family="Times,serif" font-size="14.00">roo_quantity</text>
<text text-anchor="middle" x="143.5" y="-466.8" font-family="Times,serif" font-size="14.00">1.1.8</text>
</g>
<!-- roo_control&#45;&gt;roo_quantity -->
<g id="edge8" class="edge">
<title>roo_control&#45;&gt;roo_quantity</title>
<path fill="none" stroke="black" d="M143.5,-554.88C143.5,-541.35 143.5,-522.62 143.5,-507.15"/>
<polygon fill="black" stroke="black" points="147,-507.07 143.5,-497.07 140,-507.07 147,-507.07"/>
</g>
<!-- roo_control&#45;&gt;roo_scheduler -->
<g id="edge9" class="edge">
<title>roo_control&#45;&gt;roo_scheduler</title>
<path fill="none" stroke="black" d="M176.08,-554.88C203.21,-539.79 241.97,-518.23 271.26,-501.94"/>
<polygon fill="black" stroke="black" points="272.98,-504.99 280.02,-497.07 269.57,-498.87 272.98,-504.99"/>
</g>
<!-- roo_dashboard -->
<g id="node6" class="node">
<title>roo_dashboard</title>
<polygon fill="khaki" stroke="red" points="667,-785 570,-785 570,-747 667,-747 667,-785"/>
<text text-anchor="middle" x="618.5" y="-769.8" font-family="Times,serif" font-size="14.00">roo_dashboard</text>
<text text-anchor="middle" x="618.5" y="-754.8" font-family="Times,serif" font-size="14.00">1.0.1</text>
</g>
<!-- roo_windows -->
<g id="node30" class="node">
<title>roo_windows</title>
<polygon fill="#b1dbab" stroke="red" points="644.5,-689 554.5,-689 554.5,-651 644.5,-651 644.5,-689"/>
<text text-anchor="middle" x="599.5" y="-673.8" font-family="Times,serif" font-size="14.00">roo_windows</text>
<text text-anchor="middle" x="599.5" y="-658.8" font-family="Times,serif" font-size="14.00">1.5.0</text>
</g>
<!-- roo_dashboard&#45;&gt;roo_windows -->
<g id="edge10" class="edge">
<title>roo_dashboard&#45;&gt;roo_windows</title>
<path fill="none" stroke="red" d="M614.84,-746.88C612.1,-733.35 608.32,-714.62 605.19,-699.15"/>
<polygon fill="red" stroke="red" points="608.56,-698.18 603.15,-689.07 601.7,-699.56 608.56,-698.18"/>
<text text-anchor="middle" x="638.5" y="-721" font-family="Times,serif" font-size="10.00" fill="red">1.4.1</text>
<text text-anchor="middle" x="638.5" y="-710" font-family="Times,serif" font-size="10.00" fill="red">(latest: 1.5.0)</text>
</g>
<!-- roo_display -->
<g id="node7" class="node">
<title>roo_display</title>
<polygon fill="plum" stroke="black" points="670.5,-497 590.5,-497 590.5,-459 670.5,-459 670.5,-497"/>
<text text-anchor="middle" x="630.5" y="-481.8" font-family="Times,serif" font-size="14.00">roo_display</text>
<text text-anchor="middle" x="630.5" y="-466.8" font-family="Times,serif" font-size="14.00">3.0.4</text>
</g>
<!-- roo_display&#45;&gt;roo_collections -->
<g id="edge11" class="edge">
<title>roo_display&#45;&gt;roo_collections</title>
<path fill="none" stroke="black" d="M627.58,-458.86C625.61,-447.37 622.77,-432.23 619.5,-419 618.85,-416.35 618.12,-413.62 617.35,-410.89"/>
<polygon fill="black" stroke="black" points="620.68,-409.8 614.49,-401.21 613.96,-411.79 620.68,-409.8"/>
</g>
<!-- roo_display&#45;&gt;roo_io -->
<g id="edge12" class="edge">
<title>roo_display&#45;&gt;roo_io</title>
<path fill="none" stroke="black" d="M590.24,-463.99C559.14,-453.91 521.25,-441.57 520.5,-441 509.76,-432.88 501.01,-420.91 494.53,-409.94"/>
<polygon fill="black" stroke="black" points="497.54,-408.14 489.64,-401.08 491.41,-411.52 497.54,-408.14"/>
</g>
<!-- roo_display_lvgl -->
<g id="node8" class="node">
<title>roo_display_lvgl</title>
<polygon fill="khaki" stroke="red" points="959.5,-593 851.5,-593 851.5,-555 959.5,-555 959.5,-593"/>
<text text-anchor="middle" x="905.5" y="-577.8" font-family="Times,serif" font-size="14.00">roo_display_lvgl</text>
<text text-anchor="middle" x="905.5" y="-562.8" font-family="Times,serif" font-size="14.00">1.0.0</text>
</g>
<!-- roo_display_lvgl&#45;&gt;roo_display -->
<g id="edge13" class="edge">
<title>roo_display_lvgl&#45;&gt;roo_display</title>
<path fill="none" stroke="red" d="M882.76,-554.73C864.97,-541.46 839.06,-524.27 813.5,-515 759.88,-495.55 739.87,-509.82 680.53,-496.87"/>
<polygon fill="red" stroke="red" points="681.19,-493.43 670.66,-494.54 679.59,-500.24 681.19,-493.43"/>
<text text-anchor="middle" x="883.5" y="-529" font-family="Times,serif" font-size="10.00" fill="red">3.0.3</text>
<text text-anchor="middle" x="883.5" y="-518" font-family="Times,serif" font-size="10.00" fill="red">(latest: 3.0.4)</text>
</g>
<!-- roo_flags -->
<g id="node9" class="node">
<title>roo_flags</title>
<polygon fill="#b1dbab" stroke="black" points="456.5,-209 388.5,-209 388.5,-171 456.5,-171 456.5,-209"/>
<text text-anchor="middle" x="422.5" y="-193.8" font-family="Times,serif" font-size="14.00">roo_flags</text>
<text text-anchor="middle" x="422.5" y="-178.8" font-family="Times,serif" font-size="14.00">1.2.3</text>
</g>
<!-- roo_fonts_basic -->
<g id="node10" class="node">
<title>roo_fonts_basic</title>
<polygon fill="#b1dbab" stroke="red" points="607,-593 504,-593 504,-555 607,-555 607,-593"/>
<text text-anchor="middle" x="555.5" y="-577.8" font-family="Times,serif" font-size="14.00">roo_fonts_basic</text>
<text text-anchor="middle" x="555.5" y="-562.8" font-family="Times,serif" font-size="14.00">1.0.2</text>
</g>
<!-- roo_fonts_basic&#45;&gt;roo_display -->
<g id="edge14" class="edge">
<title>roo_fonts_basic&#45;&gt;roo_display</title>
<path fill="none" stroke="red" d="M566.84,-554.93C574.47,-543.19 585.02,-527.76 595.5,-515 598.38,-511.49 601.53,-507.93 604.73,-504.47"/>
<polygon fill="red" stroke="red" points="607.36,-506.79 611.72,-497.13 602.29,-501.96 607.36,-506.79"/>
<text text-anchor="middle" x="622.5" y="-529" font-family="Times,serif" font-size="10.00" fill="red">3.0.2</text>
<text text-anchor="middle" x="622.5" y="-518" font-family="Times,serif" font-size="10.00" fill="red">(latest: 3.0.4)</text>
</g>
<!-- roo_fonts_material -->
<g id="node11" class="node">
<title>roo_fonts_material</title>
<polygon fill="#b1dbab" stroke="red" points="745.5,-593 625.5,-593 625.5,-555 745.5,-555 745.5,-593"/>
<text text-anchor="middle" x="685.5" y="-577.8" font-family="Times,serif" font-size="14.00">roo_fonts_material</text>
<text text-anchor="middle" x="685.5" y="-562.8" font-family="Times,serif" font-size="14.00">1.0.0</text>
</g>
<!-- roo_fonts_material&#45;&gt;roo_display -->
<g id="edge15" class="edge">
<title>roo_fonts_material&#45;&gt;roo_display</title>
<path fill="none" stroke="red" d="M674.9,-554.88C666.75,-540.96 655.39,-521.53 646.19,-505.82"/>
<polygon fill="red" stroke="red" points="649.14,-503.93 641.07,-497.07 643.1,-507.47 649.14,-503.93"/>
<text text-anchor="middle" x="690.5" y="-529" font-family="Times,serif" font-size="10.00" fill="red">3.0.2</text>
<text text-anchor="middle" x="690.5" y="-518" font-family="Times,serif" font-size="10.00" fill="red">(latest: 3.0.4)</text>
</g>
<!-- roo_icons -->
<g id="node12" class="node">
<title>roo_icons</title>
<polygon fill="#b1dbab" stroke="red" points="833.5,-593 763.5,-593 763.5,-555 833.5,-555 833.5,-593"/>
<text text-anchor="middle" x="798.5" y="-577.8" font-family="Times,serif" font-size="14.00">roo_icons</text>
<text text-anchor="middle" x="798.5" y="-562.8" font-family="Times,serif" font-size="14.00">1.2.2</text>
</g>
<!-- roo_icons&#45;&gt;roo_display -->
<g id="edge16" class="edge">
<title>roo_icons&#45;&gt;roo_display</title>
<path fill="none" stroke="red" d="M777.66,-554.86C762.75,-542.5 741.79,-526.38 721.5,-515 713.75,-510.65 697.13,-503.85 680.19,-497.32"/>
<polygon fill="red" stroke="red" points="681.39,-494.03 670.8,-493.73 678.9,-500.57 681.39,-494.03"/>
<text text-anchor="middle" x="782.5" y="-529" font-family="Times,serif" font-size="10.00" fill="red">3.0.2</text>
<text text-anchor="middle" x="782.5" y="-518" font-family="Times,serif" font-size="10.00" fill="red">(latest: 3.0.4)</text>
</g>
<!-- roo_io&#45;&gt;roo_logging -->
<g id="edge17" class="edge">
<title>roo_io&#45;&gt;roo_logging</title>
<path fill="none" stroke="black" d="M464.53,-362.88C451.14,-348.57 432.3,-328.44 417.38,-312.51"/>
<polygon fill="black" stroke="black" points="419.8,-309.98 410.42,-305.07 414.69,-314.76 419.8,-309.98"/>
</g>
<!-- roo_io_sdfat -->
<g id="node14" class="node">
<title>roo_io_sdfat</title>
<polygon fill="plum" stroke="black" points="770,-785 685,-785 685,-747 770,-747 770,-785"/>
<text text-anchor="middle" x="727.5" y="-769.8" font-family="Times,serif" font-size="14.00">roo_io_sdfat</text>
<text text-anchor="middle" x="727.5" y="-754.8" font-family="Times,serif" font-size="14.00">1.0.0</text>
</g>
<!-- roo_locale -->
<g id="node15" class="node">
<title>roo_locale</title>
<polygon fill="#b1dbab" stroke="black" points="1051.5,-593 977.5,-593 977.5,-555 1051.5,-555 1051.5,-593"/>
<text text-anchor="middle" x="1014.5" y="-577.8" font-family="Times,serif" font-size="14.00">roo_locale</text>
<text text-anchor="middle" x="1014.5" y="-562.8" font-family="Times,serif" font-size="14.00">1.1.2</text>
</g>
<!-- roo_logging&#45;&gt;roo_backport -->
<g id="edge18" class="edge">
<title>roo_logging&#45;&gt;roo_backport</title>
<path fill="none" stroke="black" d="M426.47,-266.88C453.91,-251.79 493.14,-230.23 522.77,-213.94"/>
<polygon fill="black" stroke="black" points="524.55,-216.95 531.63,-209.07 521.18,-210.82 524.55,-216.95"/>
</g>
<!-- roo_logging&#45;&gt;roo_flags -->
<g id="edge19" class="edge">
<title>roo_logging&#45;&gt;roo_flags</title>
<path fill="none" stroke="black" d="M401.7,-266.9C404.08,-261.24 406.57,-254.92 408.5,-249 411.64,-239.38 414.42,-228.66 416.66,-219.08"/>
<polygon fill="black" stroke="black" points="420.1,-219.76 418.87,-209.23 413.27,-218.22 420.1,-219.76"/>
</g>
<!-- roo_threads -->
<g id="node24" class="node">
<title>roo_threads</title>
<polygon fill="#b1dbab" stroke="black" points="316.5,-209 236.5,-209 236.5,-171 316.5,-171 316.5,-209"/>
<text text-anchor="middle" x="276.5" y="-193.8" font-family="Times,serif" font-size="14.00">roo_threads</text>
<text text-anchor="middle" x="276.5" y="-178.8" font-family="Times,serif" font-size="14.00">1.2.4</text>
</g>
<!-- roo_logging&#45;&gt;roo_threads -->
<g id="edge20" class="edge">
<title>roo_logging&#45;&gt;roo_threads</title>
<path fill="none" stroke="red" d="M370.58,-266.98C363.91,-261.42 356.74,-255.15 350.5,-249 341.29,-239.93 341.22,-235.51 331.5,-227 326.71,-222.81 321.4,-218.73 316.01,-214.92"/>
<polygon fill="red" stroke="red" points="317.8,-211.91 307.57,-209.18 313.87,-217.7 317.8,-211.91"/>
<text text-anchor="middle" x="377.5" y="-241" font-family="Times,serif" font-size="10.00" fill="red">1.2.3</text>
<text text-anchor="middle" x="377.5" y="-230" font-family="Times,serif" font-size="10.00" fill="red">(latest: 1.2.4)</text>
</g>
<!-- roo_monitoring -->
<g id="node17" class="node">
<title>roo_monitoring</title>
<polygon fill="#b1dbab" stroke="red" points="565.5,-497 463.5,-497 463.5,-459 565.5,-459 565.5,-497"/>
<text text-anchor="middle" x="514.5" y="-481.8" font-family="Times,serif" font-size="14.00">roo_monitoring</text>
<text text-anchor="middle" x="514.5" y="-466.8" font-family="Times,serif" font-size="14.00">1.1.1</text>
</g>
<!-- roo_monitoring&#45;&gt;roo_collections -->
<g id="edge21" class="edge">
<title>roo_monitoring&#45;&gt;roo_collections</title>
<path fill="none" stroke="black" d="M565.75,-462.25C576.53,-457.06 586.92,-450.14 594.5,-441 601.44,-432.63 605.05,-421.37 606.88,-410.99"/>
<polygon fill="black" stroke="black" points="610.35,-411.43 608.18,-401.06 603.41,-410.52 610.35,-411.43"/>
</g>
<!-- roo_monitoring&#45;&gt;roo_io -->
<g id="edge22" class="edge">
<title>roo_monitoring&#45;&gt;roo_io</title>
<path fill="none" stroke="black" d="M503.73,-458.73C500.76,-453.17 497.75,-446.95 495.5,-441 491.9,-431.46 489,-420.69 486.79,-411.04"/>
<polygon fill="black" stroke="black" points="490.18,-410.16 484.67,-401.12 483.34,-411.63 490.18,-410.16"/>
</g>
<!-- roo_onewire -->
<g id="node18" class="node">
<title>roo_onewire</title>
<polygon fill="#b1dbab" stroke="red" points="85,-593 0,-593 0,-555 85,-555 85,-593"/>
<text text-anchor="middle" x="42.5" y="-577.8" font-family="Times,serif" font-size="14.00">roo_onewire</text>
<text text-anchor="middle" x="42.5" y="-562.8" font-family="Times,serif" font-size="14.00">2.0.9</text>
</g>
<!-- roo_onewire&#45;&gt;roo_quantity -->
<g id="edge24" class="edge">
<title>roo_onewire&#45;&gt;roo_quantity</title>
<path fill="none" stroke="black" d="M55.76,-554.92C65.04,-542.9 78.13,-527.14 91.5,-515 95.98,-510.93 100.94,-506.95 105.96,-503.2"/>
<polygon fill="black" stroke="black" points="108.32,-505.81 114.41,-497.14 104.24,-500.13 108.32,-505.81"/>
</g>
<!-- roo_onewire&#45;&gt;roo_scheduler -->
<g id="edge23" class="edge">
<title>roo_onewire&#45;&gt;roo_scheduler</title>
<path fill="none" stroke="black" d="M85.28,-558.11C131.52,-542.01 205.41,-516.28 256.3,-498.57"/>
<polygon fill="black" stroke="black" points="257.55,-501.84 265.84,-495.24 255.25,-495.23 257.55,-501.84"/>
</g>
<!-- roo_powersafefs -->
<g id="node19" class="node">
<title>roo_powersafefs</title>
<polygon fill="khaki" stroke="red" points="330,-305 223,-305 223,-267 330,-267 330,-305"/>
<text text-anchor="middle" x="276.5" y="-289.8" font-family="Times,serif" font-size="14.00">roo_powersafefs</text>
<text text-anchor="middle" x="276.5" y="-274.8" font-family="Times,serif" font-size="14.00">1.0.0</text>
</g>
<!-- roo_powersafefs&#45;&gt;roo_threads -->
<g id="edge25" class="edge">
<title>roo_powersafefs&#45;&gt;roo_threads</title>
<path fill="none" stroke="red" d="M276.5,-266.88C276.5,-253.35 276.5,-234.62 276.5,-219.15"/>
<polygon fill="red" stroke="red" points="280,-219.07 276.5,-209.07 273,-219.07 280,-219.07"/>
<text text-anchor="middle" x="303.5" y="-241" font-family="Times,serif" font-size="10.00" fill="red">1.2.1</text>
<text text-anchor="middle" x="303.5" y="-230" font-family="Times,serif" font-size="10.00" fill="red">(latest: 1.2.4)</text>
</g>
<!-- roo_prefs -->
<g id="node20" class="node">
<title>roo_prefs</title>
<polygon fill="khaki" stroke="red" points="357.5,-593 289.5,-593 289.5,-555 357.5,-555 357.5,-593"/>
<text text-anchor="middle" x="323.5" y="-577.8" font-family="Times,serif" font-size="14.00">roo_prefs</text>
<text text-anchor="middle" x="323.5" y="-562.8" font-family="Times,serif" font-size="14.00">1.2.10</text>
</g>
<!-- roo_prefs&#45;&gt;roo_logging -->
<g id="edge26" class="edge">
<title>roo_prefs&#45;&gt;roo_logging</title>
<path fill="none" stroke="black" d="M336.76,-554.95C346.92,-540.15 360.37,-518.25 367.5,-497 388.49,-434.5 392.83,-356.43 393.55,-315.33"/>
<polygon fill="black" stroke="black" points="397.05,-315.27 393.66,-305.23 390.05,-315.19 397.05,-315.27"/>
</g>
<!-- roo_prefs&#45;&gt;roo_scheduler -->
<g id="edge27" class="edge">
<title>roo_prefs&#45;&gt;roo_scheduler</title>
<path fill="none" stroke="black" d="M321.38,-554.88C319.8,-541.35 317.6,-522.62 315.79,-507.15"/>
<polygon fill="black" stroke="black" points="319.25,-506.59 314.61,-497.07 312.3,-507.41 319.25,-506.59"/>
</g>
<!-- roo_quantity&#45;&gt;roo_logging -->
<g id="edge28" class="edge">
<title>roo_quantity&#45;&gt;roo_logging</title>
<path fill="none" stroke="black" d="M157.1,-458.96C184.93,-422.48 248.2,-341.81 277.5,-323 301.29,-307.73 311.51,-313.4 338.5,-305 339.71,-304.62 340.94,-304.24 342.18,-303.85"/>
<polygon fill="black" stroke="black" points="343.33,-307.16 351.8,-300.79 341.21,-300.49 343.33,-307.16"/>
</g>
<!-- roo_scheduler&#45;&gt;roo_collections -->
<g id="edge29" class="edge">
<title>roo_scheduler&#45;&gt;roo_collections</title>
<path fill="none" stroke="black" d="M359.08,-462.21C410.3,-445.94 492.75,-419.76 548.71,-401.99"/>
<polygon fill="black" stroke="black" points="550.02,-405.24 558.49,-398.88 547.9,-398.57 550.02,-405.24"/>
</g>
<!-- roo_scheduler&#45;&gt;roo_threads -->
<g id="edge30" class="edge">
<title>roo_scheduler&#45;&gt;roo_threads</title>
<path fill="none" stroke="red" d="M297.68,-458.86C274.33,-428.98 229.96,-366.58 213.5,-305 209.14,-288.68 207.77,-282.89 213.5,-267 220.47,-247.68 234.71,-229.8 247.9,-216.24"/>
<polygon fill="red" stroke="red" points="250.4,-218.69 255.06,-209.17 245.48,-213.7 250.4,-218.69"/>
<text text-anchor="middle" x="254.5" y="-337" font-family="Times,serif" font-size="10.00" fill="red">1.2.3</text>
<text text-anchor="middle" x="254.5" y="-326" font-family="Times,serif" font-size="10.00" fill="red">(latest: 1.2.4)</text>
</g>
<!-- roo_testing -->
<g id="node23" class="node">
<title>roo_testing</title>
<polygon fill="#b1dbab" stroke="black" points="235,-38 158,-38 158,0 235,0 235,-38"/>
<text text-anchor="middle" x="196.5" y="-22.8" font-family="Times,serif" font-size="14.00">roo_testing</text>
<text text-anchor="middle" x="196.5" y="-7.8" font-family="Times,serif" font-size="14.00">1.3.5</text>
</g>
<!-- roo_time -->
<g id="node25" class="node">
<title>roo_time</title>
<polygon fill="#b1dbab" stroke="black" points="229.5,-113 163.5,-113 163.5,-75 229.5,-75 229.5,-113"/>
<text text-anchor="middle" x="196.5" y="-97.8" font-family="Times,serif" font-size="14.00">roo_time</text>
<text text-anchor="middle" x="196.5" y="-82.8" font-family="Times,serif" font-size="14.00">1.4.4</text>
</g>
<!-- roo_threads&#45;&gt;roo_time -->
<g id="edge31" class="edge">
<title>roo_threads&#45;&gt;roo_time</title>
<path fill="none" stroke="black" d="M266.8,-170.76C259.99,-158.81 250.22,-143.2 239.5,-131 236.13,-127.17 232.34,-123.39 228.44,-119.82"/>
<polygon fill="black" stroke="black" points="230.72,-117.16 220.89,-113.22 226.12,-122.44 230.72,-117.16"/>
</g>
<!-- roo_time&#45;&gt;roo_testing -->
<g id="edge32" class="edge">
<title>roo_time&#45;&gt;roo_testing</title>
<path fill="none" stroke="black" d="M196.5,-74.96C196.5,-66.88 196.5,-57.18 196.5,-48.18"/>
<polygon fill="black" stroke="black" points="200,-48.09 196.5,-38.09 193,-48.09 200,-48.09"/>
</g>
<!-- roo_time_ds3231 -->
<g id="node26" class="node">
<title>roo_time_ds3231</title>
<polygon fill="#b1dbab" stroke="red" points="218.5,-209 106.5,-209 106.5,-171 218.5,-171 218.5,-209"/>
<text text-anchor="middle" x="162.5" y="-193.8" font-family="Times,serif" font-size="14.00">roo_time_ds3231</text>
<text text-anchor="middle" x="162.5" y="-178.8" font-family="Times,serif" font-size="14.00">1.1.6</text>
</g>
<!-- roo_time_ds3231&#45;&gt;roo_time -->
<g id="edge33" class="edge">
<title>roo_time_ds3231&#45;&gt;roo_time</title>
<path fill="none" stroke="red" d="M169.06,-170.88C173.99,-157.22 180.85,-138.26 186.48,-122.71"/>
<polygon fill="red" stroke="red" points="189.85,-123.66 189.96,-113.07 183.27,-121.28 189.85,-123.66"/>
<text text-anchor="middle" x="210.5" y="-145" font-family="Times,serif" font-size="10.00" fill="red">1.4.3</text>
<text text-anchor="middle" x="210.5" y="-134" font-family="Times,serif" font-size="10.00" fill="red">(latest: 1.4.4)</text>
</g>
<!-- roo_transceivers&#45;&gt;roo_prefs -->
<g id="edge34" class="edge">
<title>roo_transceivers&#45;&gt;roo_prefs</title>
<path fill="none" stroke="black" d="M271.84,-650.88C281.4,-636.83 294.79,-617.17 305.54,-601.38"/>
<polygon fill="black" stroke="black" points="308.46,-603.3 311.2,-593.07 302.68,-599.36 308.46,-603.3"/>
</g>
<!-- roo_transport -->
<g id="node28" class="node">
<title>roo_transport</title>
<polygon fill="#b1dbab" stroke="red" points="778,-497 689,-497 689,-459 778,-459 778,-497"/>
<text text-anchor="middle" x="733.5" y="-481.8" font-family="Times,serif" font-size="14.00">roo_transport</text>
<text text-anchor="middle" x="733.5" y="-466.8" font-family="Times,serif" font-size="14.00">1.1.2</text>
</g>
<!-- roo_transport&#45;&gt;roo_collections -->
<g id="edge35" class="edge">
<title>roo_transport&#45;&gt;roo_collections</title>
<path fill="none" stroke="black" d="M709.4,-458.88C689.86,-444.18 662.14,-423.34 640.7,-407.21"/>
<polygon fill="black" stroke="black" points="642.62,-404.28 632.53,-401.07 638.42,-409.88 642.62,-404.28"/>
</g>
<!-- roo_transport&#45;&gt;roo_io -->
<g id="edge36" class="edge">
<title>roo_transport&#45;&gt;roo_io</title>
<path fill="none" stroke="red" d="M688.81,-461.75C685.67,-460.79 682.54,-459.86 679.5,-459 645.68,-449.43 635.65,-452.66 602.5,-441 573.01,-430.63 541.19,-415.19 517.59,-402.85"/>
<polygon fill="red" stroke="red" points="519.12,-399.7 508.65,-398.12 515.85,-405.89 519.12,-399.7"/>
<text text-anchor="middle" x="629.5" y="-433" font-family="Times,serif" font-size="10.00" fill="red">2.1.5</text>
<text text-anchor="middle" x="629.5" y="-422" font-family="Times,serif" font-size="10.00" fill="red">(latest: 2.1.6)</text>
</g>
<!-- roo_wifi -->
<g id="node29" class="node">
<title>roo_wifi</title>
<polygon fill="khaki" stroke="red" points="394,-689 331,-689 331,-651 394,-651 394,-689"/>
<text text-anchor="middle" x="362.5" y="-673.8" font-family="Times,serif" font-size="14.00">roo_wifi</text>
<text text-anchor="middle" x="362.5" y="-658.8" font-family="Times,serif" font-size="14.00">1.1.4</text>
</g>
<!-- roo_wifi&#45;&gt;roo_prefs -->
<g id="edge37" class="edge">
<title>roo_wifi&#45;&gt;roo_prefs</title>
<path fill="none" stroke="red" d="M354.98,-650.88C349.32,-637.22 341.45,-618.26 335,-602.71"/>
<polygon fill="red" stroke="red" points="338.06,-600.96 331,-593.07 331.6,-603.65 338.06,-600.96"/>
<text text-anchor="middle" x="376" y="-625" font-family="Times,serif" font-size="10.00" fill="red">1.2.9</text>
<text text-anchor="middle" x="376" y="-614" font-family="Times,serif" font-size="10.00" fill="red">(latest: 1.2.10)</text>
</g>
<!-- roo_windows&#45;&gt;roo_fonts_basic -->
<g id="edge38" class="edge">
<title>roo_windows&#45;&gt;roo_fonts_basic</title>
<path fill="none" stroke="black" d="M591.02,-650.88C584.56,-637.09 575.58,-617.9 568.26,-602.26"/>
<polygon fill="black" stroke="black" points="571.37,-600.64 563.96,-593.07 565.03,-603.61 571.37,-600.64"/>
</g>
<!-- roo_windows&#45;&gt;roo_fonts_material -->
<g id="edge39" class="edge">
<title>roo_windows&#45;&gt;roo_fonts_material</title>
<path fill="none" stroke="black" d="M616.08,-650.88C629.17,-636.57 647.59,-616.44 662.16,-600.51"/>
<polygon fill="black" stroke="black" points="664.8,-602.81 668.97,-593.07 659.64,-598.08 664.8,-602.81"/>
</g>
<!-- roo_windows&#45;&gt;roo_icons -->
<g id="edge41" class="edge">
<title>roo_windows&#45;&gt;roo_icons</title>
<path fill="none" stroke="black" d="M637.87,-650.88C671.01,-635.22 718.92,-612.59 753.79,-596.12"/>
<polygon fill="black" stroke="black" points="755.71,-599.09 763.25,-591.65 752.72,-592.76 755.71,-599.09"/>
</g>
<!-- roo_windows&#45;&gt;roo_locale -->
<g id="edge40" class="edge">
<title>roo_windows&#45;&gt;roo_locale</title>
<path fill="none" stroke="black" d="M644.69,-662.23C713.02,-651.45 846.61,-628.22 967.49,-593.06"/>
<polygon fill="black" stroke="black" points="968.67,-596.36 977.28,-590.18 966.7,-589.64 968.67,-596.36"/>
</g>
<!-- roo_windows&#45;&gt;roo_scheduler -->
<g id="edge42" class="edge">
<title>roo_windows&#45;&gt;roo_scheduler</title>
<path fill="none" stroke="black" d="M554.21,-657.63C513.66,-645.95 453.93,-624.93 409.5,-593 376.09,-568.99 346.9,-531.07 329.49,-505.63"/>
<polygon fill="black" stroke="black" points="332.32,-503.56 323.84,-497.2 326.5,-507.45 332.32,-503.56"/>
</g>
<!-- roo_windows_transceivers -->
<g id="node31" class="node">
<title>roo_windows_transceivers</title>
<polygon fill="khaki" stroke="red" points="408,-785 247,-785 247,-747 408,-747 408,-785"/>
<text text-anchor="middle" x="327.5" y="-769.8" font-family="Times,serif" font-size="14.00">roo_windows_transceivers</text>
<text text-anchor="middle" x="327.5" y="-754.8" font-family="Times,serif" font-size="14.00">1.0.0</text>
</g>
<!-- roo_windows_transceivers&#45;&gt;roo_transceivers -->
<g id="edge43" class="edge">
<title>roo_windows_transceivers&#45;&gt;roo_transceivers</title>
<path fill="none" stroke="red" d="M303.31,-746.71C297.32,-741.43 291.27,-735.37 286.5,-729 279.59,-719.77 273.84,-708.49 269.45,-698.34"/>
<polygon fill="red" stroke="red" points="272.68,-696.99 265.66,-689.05 266.2,-699.63 272.68,-696.99"/>
<text text-anchor="middle" x="313.5" y="-721" font-family="Times,serif" font-size="10.00" fill="red">1.1.3</text>
<text text-anchor="middle" x="313.5" y="-710" font-family="Times,serif" font-size="10.00" fill="red">(latest: 1.1.6)</text>
</g>
<!-- roo_windows_transceivers&#45;&gt;roo_windows -->
<g id="edge44" class="edge">
<title>roo_windows_transceivers&#45;&gt;roo_windows</title>
<path fill="none" stroke="red" d="M400.48,-746.99C414.84,-742.11 429.48,-736.16 442.5,-729 455.76,-721.71 455.11,-714.06 468.5,-707 491.96,-694.63 520.08,-686.18 544.25,-680.6"/>
<polygon fill="red" stroke="red" points="545.32,-683.94 554.33,-678.38 543.82,-677.11 545.32,-683.94"/>
<text text-anchor="middle" x="495.5" y="-721" font-family="Times,serif" font-size="10.00" fill="red">1.4.1</text>
<text text-anchor="middle" x="495.5" y="-710" font-family="Times,serif" font-size="10.00" fill="red">(latest: 1.5.0)</text>
</g>
<!-- roo_windows_wifi -->
<g id="node32" class="node">
<title>roo_windows_wifi</title>
<polygon fill="khaki" stroke="red" points="550,-785 431,-785 431,-747 550,-747 550,-785"/>
<text text-anchor="middle" x="490.5" y="-769.8" font-family="Times,serif" font-size="14.00">roo_windows_wifi</text>
<text text-anchor="middle" x="490.5" y="-754.8" font-family="Times,serif" font-size="14.00">1.1.3</text>
</g>
<!-- roo_windows_wifi&#45;&gt;roo_wifi -->
<g id="edge45" class="edge">
<title>roo_windows_wifi&#45;&gt;roo_wifi</title>
<path fill="none" stroke="red" d="M430.73,-748.27C412.48,-742.25 395.41,-735.36 388.5,-729 379.83,-721.01 373.86,-709.59 369.86,-698.99"/>
<polygon fill="red" stroke="red" points="373.09,-697.59 366.6,-689.22 366.45,-699.81 373.09,-697.59"/>
<text text-anchor="middle" x="415.5" y="-721" font-family="Times,serif" font-size="10.00" fill="red">1.1.3</text>
<text text-anchor="middle" x="415.5" y="-710" font-family="Times,serif" font-size="10.00" fill="red">(latest: 1.1.4)</text>
</g>
<!-- roo_windows_wifi&#45;&gt;roo_windows -->
<g id="edge46" class="edge">
<title>roo_windows_wifi&#45;&gt;roo_windows</title>
<path fill="none" stroke="red" d="M507.65,-746.75C519.08,-734.94 534.67,-719.5 549.5,-707 554.16,-703.07 559.23,-699.1 564.29,-695.31"/>
<polygon fill="red" stroke="red" points="566.72,-697.87 572.72,-689.14 562.58,-692.22 566.72,-697.87"/>
<text text-anchor="middle" x="576.5" y="-721" font-family="Times,serif" font-size="10.00" fill="red">1.4.2</text>
<text text-anchor="middle" x="576.5" y="-710" font-family="Times,serif" font-size="10.00" fill="red">(latest: 1.5.0)</text>
</g>
</g>
</svg>
