<?xml version="1.0" encoding="UTF-8" standalone="no"?>
<!DOCTYPE svg PUBLIC "-//W3C//DTD SVG 1.1//EN"
 "http://www.w3.org/Graphics/SVG/1.1/DTD/svg11.dtd">
<!-- Generated by graphviz version 2.42.4 (0)
 -->
<!-- Title: dependencies Pages: 1 -->
<svg width="832pt" height="751pt"
 viewBox="0.00 0.00 831.50 751.00" xmlns="http://www.w3.org/2000/svg" xmlns:xlink="http://www.w3.org/1999/xlink">
<g id="graph0" class="graph" transform="scale(1 1) rotate(0) translate(4 747)">
<title>dependencies</title>
<polygon fill="white" stroke="transparent" points="-4,4 -4,-747 827.5,-747 827.5,4 -4,4"/>
<!-- roo_backport -->
<g id="node1" class="node">
<title>roo_backport</title>
<polygon fill="#b1dbab" stroke="black" points="500.5,-209 411.5,-209 411.5,-171 500.5,-171 500.5,-209"/>
<text text-anchor="middle" x="456" y="-193.8" font-family="Times,serif" font-size="14.00">roo_backport</text>
<text text-anchor="middle" x="456" y="-178.8" font-family="Times,serif" font-size="14.00">1.2.0</text>
</g>
<!-- roo_blink -->
<g id="node2" class="node">
<title>roo_blink</title>
<polygon fill="#b1dbab" stroke="red" points="167.5,-572 98.5,-572 98.5,-534 167.5,-534 167.5,-572"/>
<text text-anchor="middle" x="133" y="-556.8" font-family="Times,serif" font-size="14.00">roo_blink</text>
<text text-anchor="middle" x="133" y="-541.8" font-family="Times,serif" font-size="14.00">1.0.4</text>
</g>
<!-- roo_logging -->
<g id="node13" class="node">
<title>roo_logging</title>
<polygon fill="khaki" stroke="red" points="336.5,-305 253.5,-305 253.5,-267 336.5,-267 336.5,-305"/>
<text text-anchor="middle" x="295" y="-289.8" font-family="Times,serif" font-size="14.00">roo_logging</text>
<text text-anchor="middle" x="295" y="-274.8" font-family="Times,serif" font-size="14.00">1.5.2</text>
</g>
<!-- roo_blink&#45;&gt;roo_logging -->
<g id="edge1" class="edge">
<title>roo_blink&#45;&gt;roo_logging</title>
<path fill="none" stroke="red" d="M139.23,-533.99C147.53,-510.98 163.35,-470.26 182,-438 209.11,-391.1 248.38,-341.75 272.76,-312.71"/>
<polygon fill="red" stroke="red" points="275.44,-314.97 279.22,-305.08 270.09,-310.45 275.44,-314.97"/>
<text text-anchor="middle" x="234" y="-412" font-family="Times,serif" font-size="10.00" fill="red">1.5.1</text>
<text text-anchor="middle" x="234" y="-401" font-family="Times,serif" font-size="10.00" fill="red">(latest: 1.5.2)</text>
</g>
<!-- roo_scheduler -->
<g id="node19" class="node">
<title>roo_scheduler</title>
<polygon fill="#b1dbab" stroke="red" points="284.5,-476 191.5,-476 191.5,-438 284.5,-438 284.5,-476"/>
<text text-anchor="middle" x="238" y="-460.8" font-family="Times,serif" font-size="14.00">roo_scheduler</text>
<text text-anchor="middle" x="238" y="-445.8" font-family="Times,serif" font-size="14.00">2.1.6</text>
</g>
<!-- roo_blink&#45;&gt;roo_scheduler -->
<g id="edge2" class="edge">
<title>roo_blink&#45;&gt;roo_scheduler</title>
<path fill="none" stroke="black" d="M151.35,-533.86C163.29,-522.24 179.32,-506.96 194,-494 198.16,-490.33 202.62,-486.53 207.04,-482.84"/>
<polygon fill="black" stroke="black" points="209.41,-485.43 214.89,-476.37 204.95,-480.03 209.41,-485.43"/>
</g>
<!-- roo_collections -->
<g id="node3" class="node">
<title>roo_collections</title>
<polygon fill="#b1dbab" stroke="black" points="566,-380 466,-380 466,-342 566,-342 566,-380"/>
<text text-anchor="middle" x="516" y="-364.8" font-family="Times,serif" font-size="14.00">roo_collections</text>
<text text-anchor="middle" x="516" y="-349.8" font-family="Times,serif" font-size="14.00">1.4.0</text>
</g>
<!-- roo_collections&#45;&gt;roo_backport -->
<g id="edge3" class="edge">
<title>roo_collections&#45;&gt;roo_backport</title>
<path fill="none" stroke="black" d="M509.58,-341.91C499.1,-312.39 478.24,-253.63 465.86,-218.78"/>
<polygon fill="black" stroke="black" points="469.11,-217.46 462.47,-209.21 462.51,-219.81 469.11,-217.46"/>
</g>
<!-- roo_comms -->
<g id="node4" class="node">
<title>roo_comms</title>
<polygon fill="#b1dbab" stroke="red" points="260,-743 178,-743 178,-705 260,-705 260,-743"/>
<text text-anchor="middle" x="219" y="-727.8" font-family="Times,serif" font-size="14.00">roo_comms</text>
<text text-anchor="middle" x="219" y="-712.8" font-family="Times,serif" font-size="14.00">1.1.3</text>
</g>
<!-- roo_comms&#45;&gt;roo_blink -->
<g id="edge4" class="edge">
<title>roo_comms&#45;&gt;roo_blink</title>
<path fill="none" stroke="black" d="M209.8,-704.91C194.71,-675.26 164.61,-616.12 146.91,-581.33"/>
<polygon fill="black" stroke="black" points="149.92,-579.54 142.27,-572.21 143.68,-582.71 149.92,-579.54"/>
</g>
<!-- roo_control -->
<g id="node5" class="node">
<title>roo_control</title>
<polygon fill="#b1dbab" stroke="red" points="80,-572 0,-572 0,-534 80,-534 80,-572"/>
<text text-anchor="middle" x="40" y="-556.8" font-family="Times,serif" font-size="14.00">roo_control</text>
<text text-anchor="middle" x="40" y="-541.8" font-family="Times,serif" font-size="14.00">1.2.3</text>
</g>
<!-- roo_comms&#45;&gt;roo_control -->
<g id="edge5" class="edge">
<title>roo_comms&#45;&gt;roo_control</title>
<path fill="none" stroke="black" d="M199.84,-704.91C167.76,-674.63 103.11,-613.58 66.62,-579.14"/>
<polygon fill="black" stroke="black" points="68.96,-576.53 59.29,-572.21 64.16,-581.62 68.96,-576.53"/>
</g>
<!-- roo_io -->
<g id="node10" class="node">
<title>roo_io</title>
<polygon fill="khaki" stroke="red" points="416,-380 362,-380 362,-342 416,-342 416,-380"/>
<text text-anchor="middle" x="389" y="-364.8" font-family="Times,serif" font-size="14.00">roo_io</text>
<text text-anchor="middle" x="389" y="-349.8" font-family="Times,serif" font-size="14.00">2.1.2</text>
</g>
<!-- roo_comms&#45;&gt;roo_io -->
<g id="edge6" class="edge">
<title>roo_comms&#45;&gt;roo_io</title>
<path fill="none" stroke="red" d="M227.66,-704.6C255.52,-645.46 342.87,-459.96 376.04,-389.51"/>
<polygon fill="red" stroke="red" points="379.26,-390.9 380.35,-380.36 372.93,-387.92 379.26,-390.9"/>
<text text-anchor="middle" x="335" y="-556" font-family="Times,serif" font-size="10.00" fill="red">2.1.1</text>
<text text-anchor="middle" x="335" y="-545" font-family="Times,serif" font-size="10.00" fill="red">(latest: 2.1.2)</text>
</g>
<!-- roo_transceivers -->
<g id="node24" class="node">
<title>roo_transceivers</title>
<polygon fill="#b1dbab" stroke="red" points="441,-647 335,-647 335,-609 441,-609 441,-647"/>
<text text-anchor="middle" x="388" y="-631.8" font-family="Times,serif" font-size="14.00">roo_transceivers</text>
<text text-anchor="middle" x="388" y="-616.8" font-family="Times,serif" font-size="14.00">1.1.4</text>
</g>
<!-- roo_comms&#45;&gt;roo_transceivers -->
<g id="edge7" class="edge">
<title>roo_comms&#45;&gt;roo_transceivers</title>
<path fill="none" stroke="black" d="M260.25,-712.3C279.46,-706.36 302.17,-697.94 321,-687 336.28,-678.12 351.33,-665.54 363.29,-654.36"/>
<polygon fill="black" stroke="black" points="365.88,-656.72 370.67,-647.27 361.03,-651.67 365.88,-656.72"/>
</g>
<!-- roo_quantity -->
<g id="node18" class="node">
<title>roo_quantity</title>
<polygon fill="#b1dbab" stroke="black" points="102,-476 16,-476 16,-438 102,-438 102,-476"/>
<text text-anchor="middle" x="59" y="-460.8" font-family="Times,serif" font-size="14.00">roo_quantity</text>
<text text-anchor="middle" x="59" y="-445.8" font-family="Times,serif" font-size="14.00">1.1.6</text>
</g>
<!-- roo_control&#45;&gt;roo_quantity -->
<g id="edge8" class="edge">
<title>roo_control&#45;&gt;roo_quantity</title>
<path fill="none" stroke="red" d="M43.66,-533.88C46.4,-520.35 50.18,-501.62 53.31,-486.15"/>
<polygon fill="red" stroke="red" points="56.8,-486.56 55.35,-476.07 49.94,-485.18 56.8,-486.56"/>
<text text-anchor="middle" x="79" y="-508" font-family="Times,serif" font-size="10.00" fill="red">1.1.5</text>
<text text-anchor="middle" x="79" y="-497" font-family="Times,serif" font-size="10.00" fill="red">(latest: 1.1.6)</text>
</g>
<!-- roo_control&#45;&gt;roo_scheduler -->
<g id="edge9" class="edge">
<title>roo_control&#45;&gt;roo_scheduler</title>
<path fill="none" stroke="black" d="M78.18,-533.88C110.22,-518.66 156.16,-496.85 190.56,-480.52"/>
<polygon fill="black" stroke="black" points="192.41,-483.52 199.94,-476.07 189.41,-477.2 192.41,-483.52"/>
</g>
<!-- roo_dashboard -->
<g id="node6" class="node">
<title>roo_dashboard</title>
<polygon fill="plum" stroke="red" points="720.5,-743 623.5,-743 623.5,-705 720.5,-705 720.5,-743"/>
<text text-anchor="middle" x="672" y="-727.8" font-family="Times,serif" font-size="14.00">roo_dashboard</text>
<text text-anchor="middle" x="672" y="-712.8" font-family="Times,serif" font-size="14.00">1.0.1</text>
</g>
<!-- roo_windows -->
<g id="node27" class="node">
<title>roo_windows</title>
<polygon fill="#b1dbab" stroke="red" points="633,-647 543,-647 543,-609 633,-609 633,-647"/>
<text text-anchor="middle" x="588" y="-631.8" font-family="Times,serif" font-size="14.00">roo_windows</text>
<text text-anchor="middle" x="588" y="-616.8" font-family="Times,serif" font-size="14.00">1.4.2</text>
</g>
<!-- roo_dashboard&#45;&gt;roo_windows -->
<g id="edge10" class="edge">
<title>roo_dashboard&#45;&gt;roo_windows</title>
<path fill="none" stroke="red" d="M655.8,-704.88C643.14,-690.7 625.36,-670.81 611.18,-654.94"/>
<polygon fill="red" stroke="red" points="613.42,-652.19 604.15,-647.07 608.2,-656.86 613.42,-652.19"/>
<text text-anchor="middle" x="664" y="-679" font-family="Times,serif" font-size="10.00" fill="red">1.4.1</text>
<text text-anchor="middle" x="664" y="-668" font-family="Times,serif" font-size="10.00" fill="red">(latest: 1.4.2)</text>
</g>
<!-- roo_display -->
<g id="node7" class="node">
<title>roo_display</title>
<polygon fill="khaki" stroke="red" points="567,-476 487,-476 487,-438 567,-438 567,-476"/>
<text text-anchor="middle" x="527" y="-460.8" font-family="Times,serif" font-size="14.00">roo_display</text>
<text text-anchor="middle" x="527" y="-445.8" font-family="Times,serif" font-size="14.00">2.3.2</text>
</g>
<!-- roo_display&#45;&gt;roo_collections -->
<g id="edge11" class="edge">
<title>roo_display&#45;&gt;roo_collections</title>
<path fill="none" stroke="black" d="M528.37,-437.87C528.9,-426.38 528.98,-411.25 527,-398 526.6,-395.31 526.03,-392.53 525.37,-389.78"/>
<polygon fill="black" stroke="black" points="528.72,-388.76 522.67,-380.07 521.98,-390.64 528.72,-388.76"/>
</g>
<!-- roo_display&#45;&gt;roo_io -->
<g id="edge12" class="edge">
<title>roo_display&#45;&gt;roo_io</title>
<path fill="none" stroke="black" d="M486.82,-441.55C459.67,-431.76 428.65,-420.51 428,-420 417.47,-411.76 408.78,-399.88 402.3,-389.01"/>
<polygon fill="black" stroke="black" points="405.32,-387.23 397.38,-380.22 399.21,-390.65 405.32,-387.23"/>
</g>
<!-- roo_flags -->
<g id="node8" class="node">
<title>roo_flags</title>
<polygon fill="#b1dbab" stroke="black" points="329,-209 261,-209 261,-171 329,-171 329,-209"/>
<text text-anchor="middle" x="295" y="-193.8" font-family="Times,serif" font-size="14.00">roo_flags</text>
<text text-anchor="middle" x="295" y="-178.8" font-family="Times,serif" font-size="14.00">1.2.0</text>
</g>
<!-- roo_icons -->
<g id="node9" class="node">
<title>roo_icons</title>
<polygon fill="#b1dbab" stroke="red" points="573,-572 503,-572 503,-534 573,-534 573,-572"/>
<text text-anchor="middle" x="538" y="-556.8" font-family="Times,serif" font-size="14.00">roo_icons</text>
<text text-anchor="middle" x="538" y="-541.8" font-family="Times,serif" font-size="14.00">1.2.1</text>
</g>
<!-- roo_icons&#45;&gt;roo_display -->
<g id="edge13" class="edge">
<title>roo_icons&#45;&gt;roo_display</title>
<path fill="none" stroke="red" d="M535.88,-533.88C534.3,-520.35 532.1,-501.62 530.29,-486.15"/>
<polygon fill="red" stroke="red" points="533.75,-485.59 529.11,-476.07 526.8,-486.41 533.75,-485.59"/>
<text text-anchor="middle" x="560" y="-508" font-family="Times,serif" font-size="10.00" fill="red">2.3.1</text>
<text text-anchor="middle" x="560" y="-497" font-family="Times,serif" font-size="10.00" fill="red">(latest: 2.3.2)</text>
</g>
<!-- roo_io&#45;&gt;roo_logging -->
<g id="edge14" class="edge">
<title>roo_io&#45;&gt;roo_logging</title>
<path fill="none" stroke="black" d="M365.76,-341.96C353.9,-332.74 339.3,-321.4 326.44,-311.42"/>
<polygon fill="black" stroke="black" points="328.34,-308.46 318.29,-305.09 324.05,-313.99 328.34,-308.46"/>
</g>
<!-- roo_io_sdfat -->
<g id="node11" class="node">
<title>roo_io_sdfat</title>
<polygon fill="plum" stroke="black" points="823.5,-743 738.5,-743 738.5,-705 823.5,-705 823.5,-743"/>
<text text-anchor="middle" x="781" y="-727.8" font-family="Times,serif" font-size="14.00">roo_io_sdfat</text>
<text text-anchor="middle" x="781" y="-712.8" font-family="Times,serif" font-size="14.00">1.0.0</text>
</g>
<!-- roo_locale -->
<g id="node12" class="node">
<title>roo_locale</title>
<polygon fill="#b1dbab" stroke="black" points="665,-572 591,-572 591,-534 665,-534 665,-572"/>
<text text-anchor="middle" x="628" y="-556.8" font-family="Times,serif" font-size="14.00">roo_locale</text>
<text text-anchor="middle" x="628" y="-541.8" font-family="Times,serif" font-size="14.00">1.1.1</text>
</g>
<!-- roo_logging&#45;&gt;roo_backport -->
<g id="edge15" class="edge">
<title>roo_logging&#45;&gt;roo_backport</title>
<path fill="none" stroke="black" d="M326.04,-266.88C351.77,-251.86 388.5,-230.41 416.35,-214.15"/>
<polygon fill="black" stroke="black" points="418.18,-217.13 425.05,-209.07 414.65,-211.09 418.18,-217.13"/>
</g>
<!-- roo_logging&#45;&gt;roo_flags -->
<g id="edge16" class="edge">
<title>roo_logging&#45;&gt;roo_flags</title>
<path fill="none" stroke="black" d="M295,-266.88C295,-253.35 295,-234.62 295,-219.15"/>
<polygon fill="black" stroke="black" points="298.5,-219.07 295,-209.07 291.5,-219.07 298.5,-219.07"/>
</g>
<!-- roo_threads -->
<g id="node21" class="node">
<title>roo_threads</title>
<polygon fill="khaki" stroke="red" points="222,-209 142,-209 142,-171 222,-171 222,-209"/>
<text text-anchor="middle" x="182" y="-193.8" font-family="Times,serif" font-size="14.00">roo_threads</text>
<text text-anchor="middle" x="182" y="-178.8" font-family="Times,serif" font-size="14.00">1.2.0</text>
</g>
<!-- roo_logging&#45;&gt;roo_threads -->
<g id="edge17" class="edge">
<title>roo_logging&#45;&gt;roo_threads</title>
<path fill="none" stroke="black" d="M279.95,-266.84C269.45,-254.78 254.74,-239.01 240,-227 234.69,-222.67 228.82,-218.47 222.92,-214.55"/>
<polygon fill="black" stroke="black" points="224.62,-211.47 214.31,-209.02 220.84,-217.37 224.62,-211.47"/>
</g>
<!-- roo_monitoring -->
<g id="node14" class="node">
<title>roo_monitoring</title>
<polygon fill="khaki" stroke="red" points="687,-476 585,-476 585,-438 687,-438 687,-476"/>
<text text-anchor="middle" x="636" y="-460.8" font-family="Times,serif" font-size="14.00">roo_monitoring</text>
<text text-anchor="middle" x="636" y="-445.8" font-family="Times,serif" font-size="14.00">1.0.0</text>
</g>
<!-- roo_monitoring&#45;&gt;roo_collections -->
<g id="edge18" class="edge">
<title>roo_monitoring&#45;&gt;roo_collections</title>
<path fill="none" stroke="red" d="M612.86,-437.88C594.19,-423.25 567.73,-402.52 547.19,-386.43"/>
<polygon fill="red" stroke="red" points="549.1,-383.48 539.07,-380.07 544.78,-388.99 549.1,-383.48"/>
<text text-anchor="middle" x="613" y="-412" font-family="Times,serif" font-size="10.00" fill="red">1.3.2</text>
<text text-anchor="middle" x="613" y="-401" font-family="Times,serif" font-size="10.00" fill="red">(latest: 1.4.0)</text>
</g>
<!-- roo_monitoring&#45;&gt;roo_io -->
<g id="edge19" class="edge">
<title>roo_monitoring&#45;&gt;roo_io</title>
<path fill="none" stroke="red" d="M584.97,-440.55C581.94,-439.68 578.93,-438.82 576,-438 545.48,-429.45 536.71,-431.05 507,-420 478.79,-409.51 448.34,-394.44 425.44,-382.29"/>
<polygon fill="red" stroke="red" points="426.9,-379.1 416.43,-377.46 423.59,-385.27 426.9,-379.1"/>
<text text-anchor="middle" x="534" y="-412" font-family="Times,serif" font-size="10.00" fill="red">2.0.3</text>
<text text-anchor="middle" x="534" y="-401" font-family="Times,serif" font-size="10.00" fill="red">(latest: 2.1.2)</text>
</g>
<!-- roo_onewire -->
<g id="node15" class="node">
<title>roo_onewire</title>
<polygon fill="#b1dbab" stroke="red" points="270.5,-572 185.5,-572 185.5,-534 270.5,-534 270.5,-572"/>
<text text-anchor="middle" x="228" y="-556.8" font-family="Times,serif" font-size="14.00">roo_onewire</text>
<text text-anchor="middle" x="228" y="-541.8" font-family="Times,serif" font-size="14.00">2.0.7</text>
</g>
<!-- roo_onewire&#45;&gt;roo_quantity -->
<g id="edge21" class="edge">
<title>roo_onewire&#45;&gt;roo_quantity</title>
<path fill="none" stroke="red" d="M195.42,-533.88C168.29,-518.79 129.53,-497.23 100.24,-480.94"/>
<polygon fill="red" stroke="red" points="101.93,-477.87 91.48,-476.07 98.52,-483.99 101.93,-477.87"/>
<text text-anchor="middle" x="186" y="-508" font-family="Times,serif" font-size="10.00" fill="red">1.1.5</text>
<text text-anchor="middle" x="186" y="-497" font-family="Times,serif" font-size="10.00" fill="red">(latest: 1.1.6)</text>
</g>
<!-- roo_onewire&#45;&gt;roo_scheduler -->
<g id="edge20" class="edge">
<title>roo_onewire&#45;&gt;roo_scheduler</title>
<path fill="none" stroke="black" d="M254.82,-533.64C260.16,-528.6 265.04,-522.66 268,-516 271.98,-507.07 271.33,-503.19 268,-494 266.8,-490.69 265.15,-487.46 263.23,-484.4"/>
<polygon fill="black" stroke="black" points="265.99,-482.24 257.28,-476.21 260.33,-486.36 265.99,-482.24"/>
</g>
<!-- roo_powersafefs -->
<g id="node16" class="node">
<title>roo_powersafefs</title>
<polygon fill="plum" stroke="red" points="235.5,-305 128.5,-305 128.5,-267 235.5,-267 235.5,-305"/>
<text text-anchor="middle" x="182" y="-289.8" font-family="Times,serif" font-size="14.00">roo_powersafefs</text>
<text text-anchor="middle" x="182" y="-274.8" font-family="Times,serif" font-size="14.00">1.0.0</text>
</g>
<!-- roo_powersafefs&#45;&gt;roo_threads -->
<g id="edge22" class="edge">
<title>roo_powersafefs&#45;&gt;roo_threads</title>
<path fill="none" stroke="red" d="M182,-266.88C182,-253.35 182,-234.62 182,-219.15"/>
<polygon fill="red" stroke="red" points="185.5,-219.07 182,-209.07 178.5,-219.07 185.5,-219.07"/>
<text text-anchor="middle" x="209" y="-241" font-family="Times,serif" font-size="10.00" fill="red">1.1.6</text>
<text text-anchor="middle" x="209" y="-230" font-family="Times,serif" font-size="10.00" fill="red">(latest: 1.2.0)</text>
</g>
<!-- roo_prefs -->
<g id="node17" class="node">
<title>roo_prefs</title>
<polygon fill="#b1dbab" stroke="red" points="447,-572 379,-572 379,-534 447,-534 447,-572"/>
<text text-anchor="middle" x="413" y="-556.8" font-family="Times,serif" font-size="14.00">roo_prefs</text>
<text text-anchor="middle" x="413" y="-541.8" font-family="Times,serif" font-size="14.00">1.2.7</text>
</g>
<!-- roo_prefs&#45;&gt;roo_logging -->
<g id="edge23" class="edge">
<title>roo_prefs&#45;&gt;roo_logging</title>
<path fill="none" stroke="red" d="M402.7,-533.91C393.96,-518.53 381.11,-495.84 370,-476 356.11,-451.18 350.41,-446.06 339,-420 323.52,-384.64 310.32,-342 302.53,-314.7"/>
<polygon fill="red" stroke="red" points="305.89,-313.71 299.81,-305.03 299.15,-315.61 305.89,-313.71"/>
<text text-anchor="middle" x="366" y="-412" font-family="Times,serif" font-size="10.00" fill="red">1.5.1</text>
<text text-anchor="middle" x="366" y="-401" font-family="Times,serif" font-size="10.00" fill="red">(latest: 1.5.2)</text>
</g>
<!-- roo_prefs&#45;&gt;roo_scheduler -->
<g id="edge24" class="edge">
<title>roo_prefs&#45;&gt;roo_scheduler</title>
<path fill="none" stroke="black" d="M379.26,-533.88C351.17,-518.79 311.03,-497.23 280.71,-480.94"/>
<polygon fill="black" stroke="black" points="282.1,-477.72 271.64,-476.07 278.79,-483.88 282.1,-477.72"/>
</g>
<!-- roo_quantity&#45;&gt;roo_logging -->
<g id="edge25" class="edge">
<title>roo_quantity&#45;&gt;roo_logging</title>
<path fill="none" stroke="black" d="M64.53,-437.95C74.51,-408.68 98.43,-351.29 140,-323 176.36,-298.26 196.06,-314.5 243.55,-304.65"/>
<polygon fill="black" stroke="black" points="244.5,-308.02 253.43,-302.31 242.89,-301.21 244.5,-308.02"/>
</g>
<!-- roo_scheduler&#45;&gt;roo_collections -->
<g id="edge26" class="edge">
<title>roo_scheduler&#45;&gt;roo_collections</title>
<path fill="none" stroke="black" d="M284.53,-440.27C331.58,-424.36 404.49,-399.7 455.89,-382.32"/>
<polygon fill="black" stroke="black" points="457.2,-385.58 465.55,-379.06 454.96,-378.95 457.2,-385.58"/>
</g>
<!-- roo_scheduler&#45;&gt;roo_threads -->
<g id="edge27" class="edge">
<title>roo_scheduler&#45;&gt;roo_threads</title>
<path fill="none" stroke="black" d="M221.14,-437.82C190.86,-404.71 129.47,-335.2 119,-305 113.47,-289.04 113.27,-282.89 119,-267 125.97,-247.68 140.21,-229.8 153.4,-216.24"/>
<polygon fill="black" stroke="black" points="155.9,-218.69 160.56,-209.17 150.98,-213.7 155.9,-218.69"/>
</g>
<!-- roo_testing -->
<g id="node20" class="node">
<title>roo_testing</title>
<polygon fill="#b1dbab" stroke="black" points="118.5,-38 41.5,-38 41.5,0 118.5,0 118.5,-38"/>
<text text-anchor="middle" x="80" y="-22.8" font-family="Times,serif" font-size="14.00">roo_testing</text>
<text text-anchor="middle" x="80" y="-7.8" font-family="Times,serif" font-size="14.00">1.2.1</text>
</g>
<!-- roo_time -->
<g id="node22" class="node">
<title>roo_time</title>
<polygon fill="plum" stroke="red" points="113,-134 47,-134 47,-96 113,-96 113,-134"/>
<text text-anchor="middle" x="80" y="-118.8" font-family="Times,serif" font-size="14.00">roo_time</text>
<text text-anchor="middle" x="80" y="-103.8" font-family="Times,serif" font-size="14.00">1.4.0</text>
</g>
<!-- roo_threads&#45;&gt;roo_time -->
<g id="edge28" class="edge">
<title>roo_threads&#45;&gt;roo_time</title>
<path fill="none" stroke="black" d="M156.79,-170.96C143.79,-161.65 127.76,-150.18 113.72,-140.13"/>
<polygon fill="black" stroke="black" points="115.45,-137.06 105.28,-134.09 111.37,-142.76 115.45,-137.06"/>
</g>
<!-- roo_time&#45;&gt;roo_testing -->
<g id="edge29" class="edge">
<title>roo_time&#45;&gt;roo_testing</title>
<path fill="none" stroke="red" d="M80,-95.88C80,-82.35 80,-63.62 80,-48.15"/>
<polygon fill="red" stroke="red" points="83.5,-48.07 80,-38.07 76.5,-48.07 83.5,-48.07"/>
<text text-anchor="middle" x="107" y="-70" font-family="Times,serif" font-size="10.00" fill="red">1.2.0</text>
<text text-anchor="middle" x="107" y="-59" font-family="Times,serif" font-size="10.00" fill="red">(latest: 1.2.1)</text>
</g>
<!-- roo_time_ds3231 -->
<g id="node23" class="node">
<title>roo_time_ds3231</title>
<polygon fill="#b1dbab" stroke="red" points="124,-209 12,-209 12,-171 124,-171 124,-209"/>
<text text-anchor="middle" x="68" y="-193.8" font-family="Times,serif" font-size="14.00">roo_time_ds3231</text>
<text text-anchor="middle" x="68" y="-178.8" font-family="Times,serif" font-size="14.00">1.1.4</text>
</g>
<!-- roo_time_ds3231&#45;&gt;roo_time -->
<g id="edge30" class="edge">
<title>roo_time_ds3231&#45;&gt;roo_time</title>
<path fill="none" stroke="black" d="M70.97,-170.96C72.29,-162.88 73.89,-153.18 75.37,-144.18"/>
<polygon fill="black" stroke="black" points="78.86,-144.53 77.03,-134.09 71.95,-143.39 78.86,-144.53"/>
</g>
<!-- roo_transceivers&#45;&gt;roo_prefs -->
<g id="edge31" class="edge">
<title>roo_transceivers&#45;&gt;roo_prefs</title>
<path fill="none" stroke="black" d="M394.18,-608.96C397,-600.71 400.41,-590.75 403.55,-581.6"/>
<polygon fill="black" stroke="black" points="406.88,-582.68 406.8,-572.09 400.25,-580.42 406.88,-582.68"/>
</g>
<!-- roo_transport -->
<g id="node25" class="node">
<title>roo_transport</title>
<polygon fill="khaki" stroke="red" points="468.5,-476 379.5,-476 379.5,-438 468.5,-438 468.5,-476"/>
<text text-anchor="middle" x="424" y="-460.8" font-family="Times,serif" font-size="14.00">roo_transport</text>
<text text-anchor="middle" x="424" y="-445.8" font-family="Times,serif" font-size="14.00">1.1.0</text>
</g>
<!-- roo_transport&#45;&gt;roo_collections -->
<g id="edge32" class="edge">
<title>roo_transport&#45;&gt;roo_collections</title>
<path fill="none" stroke="black" d="M468.63,-439.34C483.28,-433.06 497.08,-425.99 502,-420 508.9,-411.6 512.5,-400.33 514.34,-389.96"/>
<polygon fill="black" stroke="black" points="517.81,-390.4 515.65,-380.03 510.87,-389.49 517.81,-390.4"/>
</g>
<!-- roo_transport&#45;&gt;roo_io -->
<g id="edge33" class="edge">
<title>roo_transport&#45;&gt;roo_io</title>
<path fill="none" stroke="black" d="M412.03,-437.84C408.75,-432.28 405.43,-426.04 403,-420 399.2,-410.54 396.25,-399.79 394.06,-390.13"/>
<polygon fill="black" stroke="black" points="397.45,-389.26 391.98,-380.19 390.6,-390.69 397.45,-389.26"/>
</g>
<!-- roo_wifi -->
<g id="node26" class="node">
<title>roo_wifi</title>
<polygon fill="#b1dbab" stroke="red" points="522.5,-647 459.5,-647 459.5,-609 522.5,-609 522.5,-647"/>
<text text-anchor="middle" x="491" y="-631.8" font-family="Times,serif" font-size="14.00">roo_wifi</text>
<text text-anchor="middle" x="491" y="-616.8" font-family="Times,serif" font-size="14.00">1.1.3</text>
</g>
<!-- roo_wifi&#45;&gt;roo_prefs -->
<g id="edge34" class="edge">
<title>roo_wifi&#45;&gt;roo_prefs</title>
<path fill="none" stroke="black" d="M471.72,-608.96C462.06,-599.92 450.22,-588.83 439.7,-578.99"/>
<polygon fill="black" stroke="black" points="442.02,-576.37 432.33,-572.09 437.24,-581.48 442.02,-576.37"/>
</g>
<!-- roo_windows&#45;&gt;roo_icons -->
<g id="edge36" class="edge">
<title>roo_windows&#45;&gt;roo_icons</title>
<path fill="none" stroke="black" d="M575.64,-608.96C569.75,-600.36 562.59,-589.9 556.1,-580.43"/>
<polygon fill="black" stroke="black" points="558.93,-578.36 550.39,-572.09 553.15,-582.32 558.93,-578.36"/>
</g>
<!-- roo_windows&#45;&gt;roo_locale -->
<g id="edge35" class="edge">
<title>roo_windows&#45;&gt;roo_locale</title>
<path fill="none" stroke="black" d="M597.89,-608.96C602.5,-600.53 608.09,-590.33 613.2,-581.01"/>
<polygon fill="black" stroke="black" points="616.35,-582.54 618.09,-572.09 610.21,-579.18 616.35,-582.54"/>
</g>
<!-- roo_windows&#45;&gt;roo_scheduler -->
<g id="edge37" class="edge">
<title>roo_windows&#45;&gt;roo_scheduler</title>
<path fill="none" stroke="black" d="M552.26,-608.91C534.1,-599.03 512.11,-585.98 494,-572 475.09,-557.41 476.23,-546.7 456,-534 405.71,-502.44 340.63,-481.96 294.71,-470.3"/>
<polygon fill="black" stroke="black" points="295.47,-466.88 284.93,-467.87 293.79,-473.68 295.47,-466.88"/>
</g>
<!-- roo_windows_transceivers -->
<g id="node28" class="node">
<title>roo_windows_transceivers</title>
<polygon fill="khaki" stroke="red" points="468.5,-743 307.5,-743 307.5,-705 468.5,-705 468.5,-743"/>
<text text-anchor="middle" x="388" y="-727.8" font-family="Times,serif" font-size="14.00">roo_windows_transceivers</text>
<text text-anchor="middle" x="388" y="-712.8" font-family="Times,serif" font-size="14.00">1.0.0</text>
</g>
<!-- roo_windows_transceivers&#45;&gt;roo_transceivers -->
<g id="edge38" class="edge">
<title>roo_windows_transceivers&#45;&gt;roo_transceivers</title>
<path fill="none" stroke="red" d="M388,-704.88C388,-691.35 388,-672.62 388,-657.15"/>
<polygon fill="red" stroke="red" points="391.5,-657.07 388,-647.07 384.5,-657.07 391.5,-657.07"/>
<text text-anchor="middle" x="415" y="-679" font-family="Times,serif" font-size="10.00" fill="red">1.1.3</text>
<text text-anchor="middle" x="415" y="-668" font-family="Times,serif" font-size="10.00" fill="red">(latest: 1.1.4)</text>
</g>
<!-- roo_windows_transceivers&#45;&gt;roo_windows -->
<g id="edge39" class="edge">
<title>roo_windows_transceivers&#45;&gt;roo_windows</title>
<path fill="none" stroke="red" d="M426.56,-704.88C458.93,-689.66 505.33,-667.85 540.08,-651.52"/>
<polygon fill="red" stroke="red" points="541.99,-654.49 549.56,-647.07 539.02,-648.15 541.99,-654.49"/>
<text text-anchor="middle" x="532" y="-679" font-family="Times,serif" font-size="10.00" fill="red">1.4.1</text>
<text text-anchor="middle" x="532" y="-668" font-family="Times,serif" font-size="10.00" fill="red">(latest: 1.4.2)</text>
</g>
<!-- roo_windows_wifi -->
<g id="node29" class="node">
<title>roo_windows_wifi</title>
<polygon fill="plum" stroke="red" points="605.5,-743 486.5,-743 486.5,-705 605.5,-705 605.5,-743"/>
<text text-anchor="middle" x="546" y="-727.8" font-family="Times,serif" font-size="14.00">roo_windows_wifi</text>
<text text-anchor="middle" x="546" y="-712.8" font-family="Times,serif" font-size="14.00">1.1.3</text>
</g>
<!-- roo_windows_wifi&#45;&gt;roo_wifi -->
<g id="edge40" class="edge">
<title>roo_windows_wifi&#45;&gt;roo_wifi</title>
<path fill="none" stroke="black" d="M517.93,-704.97C511.84,-699.85 506.03,-693.79 502,-687 496.73,-678.14 493.91,-667.28 492.42,-657.37"/>
<polygon fill="black" stroke="black" points="495.86,-656.67 491.27,-647.12 488.9,-657.45 495.86,-656.67"/>
</g>
<!-- roo_windows_wifi&#45;&gt;roo_windows -->
<g id="edge41" class="edge">
<title>roo_windows_wifi&#45;&gt;roo_windows</title>
<path fill="none" stroke="black" d="M564.1,-704.8C568.58,-699.43 572.96,-693.3 576,-687 580.43,-677.82 583.23,-667.05 584.99,-657.3"/>
<polygon fill="black" stroke="black" points="588.48,-657.66 586.53,-647.24 581.56,-656.6 588.48,-657.66"/>
</g>
</g>
</svg>
