<?xml version="1.0" encoding="UTF-8" standalone="no"?>
<!DOCTYPE svg PUBLIC "-//W3C//DTD SVG 1.1//EN"
 "http://www.w3.org/Graphics/SVG/1.1/DTD/svg11.dtd">
<!-- Generated by graphviz version 2.42.4 (0)
 -->
<!-- Title: dependencies Pages: 1 -->
<svg width="1246pt" height="814pt"
 viewBox="0.00 0.00 1245.50 814.00" xmlns="http://www.w3.org/2000/svg" xmlns:xlink="http://www.w3.org/1999/xlink">
<g id="graph0" class="graph" transform="scale(1 1) rotate(0) translate(4 810)">
<title>dependencies</title>
<polygon fill="white" stroke="transparent" points="-4,4 -4,-810 1241.5,-810 1241.5,4 -4,4"/>
<!-- roo_backport -->
<g id="node1" class="node">
<title>roo_backport</title>
<polygon fill="#b1dbab" stroke="black" points="545,-230 435,-230 435,-192 545,-192 545,-230"/>
<text text-anchor="middle" x="490" y="-214.8" font-family="Times,serif" font-size="14.00">roo_backport</text>
<text text-anchor="middle" x="490" y="-199.8" font-family="Times,serif" font-size="14.00">1.2.2</text>
</g>
<!-- roo_blink -->
<g id="node2" class="node">
<title>roo_blink</title>
<polygon fill="#b1dbab" stroke="red" points="192,-614 110,-614 110,-576 192,-576 192,-614"/>
<text text-anchor="middle" x="151" y="-598.8" font-family="Times,serif" font-size="14.00">roo_blink</text>
<text text-anchor="middle" x="151" y="-583.8" font-family="Times,serif" font-size="14.00">1.0.6</text>
</g>
<!-- roo_logging -->
<g id="node16" class="node">
<title>roo_logging</title>
<polygon fill="#b1dbab" stroke="red" points="399,-326 299,-326 299,-288 399,-288 399,-326"/>
<text text-anchor="middle" x="349" y="-310.8" font-family="Times,serif" font-size="14.00">roo_logging</text>
<text text-anchor="middle" x="349" y="-295.8" font-family="Times,serif" font-size="14.00">1.5.7</text>
</g>
<!-- roo_blink&#45;&gt;roo_logging -->
<g id="edge1" class="edge">
<title>roo_blink&#45;&gt;roo_logging</title>
<path fill="none" stroke="red" d="M154.56,-575.63C161.04,-545.38 176.88,-484.05 206,-440 235.25,-395.76 282.4,-356.14 314.49,-332.11"/>
<polygon fill="red" stroke="red" points="316.74,-334.81 322.71,-326.05 312.59,-329.17 316.74,-334.81"/>
<text text-anchor="middle" x="239" y="-454" font-family="Times,serif" font-size="10.00" fill="red">1.5.5</text>
<text text-anchor="middle" x="239" y="-443" font-family="Times,serif" font-size="10.00" fill="red">(latest: 1.5.7)</text>
</g>
<!-- roo_scheduler -->
<g id="node22" class="node">
<title>roo_scheduler</title>
<polygon fill="#b1dbab" stroke="red" points="394,-518 278,-518 278,-480 394,-480 394,-518"/>
<text text-anchor="middle" x="336" y="-502.8" font-family="Times,serif" font-size="14.00">roo_scheduler</text>
<text text-anchor="middle" x="336" y="-487.8" font-family="Times,serif" font-size="14.00">2.1.9</text>
</g>
<!-- roo_blink&#45;&gt;roo_scheduler -->
<g id="edge2" class="edge">
<title>roo_blink&#45;&gt;roo_scheduler</title>
<path fill="none" stroke="black" d="M186.67,-575.88C216.49,-560.73 259.16,-539.04 291.27,-522.73"/>
<polygon fill="black" stroke="black" points="293.11,-525.72 300.44,-518.07 289.94,-519.48 293.11,-525.72"/>
</g>
<!-- roo_collections -->
<g id="node3" class="node">
<title>roo_collections</title>
<polygon fill="#b1dbab" stroke="black" points="785,-422 663,-422 663,-384 785,-384 785,-422"/>
<text text-anchor="middle" x="724" y="-406.8" font-family="Times,serif" font-size="14.00">roo_collections</text>
<text text-anchor="middle" x="724" y="-391.8" font-family="Times,serif" font-size="14.00">1.4.3</text>
</g>
<!-- roo_collections&#45;&gt;roo_backport -->
<g id="edge3" class="edge">
<title>roo_collections&#45;&gt;roo_backport</title>
<path fill="none" stroke="black" d="M701.56,-383.78C659.28,-349.45 567.79,-275.16 520.17,-236.5"/>
<polygon fill="black" stroke="black" points="522.34,-233.75 512.37,-230.16 517.93,-239.18 522.34,-233.75"/>
</g>
<!-- roo_comms -->
<g id="node4" class="node">
<title>roo_comms</title>
<polygon fill="#b1dbab" stroke="red" points="297.5,-806 200.5,-806 200.5,-768 297.5,-768 297.5,-806"/>
<text text-anchor="middle" x="249" y="-790.8" font-family="Times,serif" font-size="14.00">roo_comms</text>
<text text-anchor="middle" x="249" y="-775.8" font-family="Times,serif" font-size="14.00">1.1.4</text>
</g>
<!-- roo_comms&#45;&gt;roo_blink -->
<g id="edge4" class="edge">
<title>roo_comms&#45;&gt;roo_blink</title>
<path fill="none" stroke="black" d="M237.75,-767.57C222.59,-742.39 195.18,-695.6 175,-654 170.27,-644.25 165.59,-633.32 161.64,-623.6"/>
<polygon fill="black" stroke="black" points="164.77,-622 157.81,-614.01 158.27,-624.6 164.77,-622"/>
</g>
<!-- roo_control -->
<g id="node5" class="node">
<title>roo_control</title>
<polygon fill="#b1dbab" stroke="red" points="408.5,-614 311.5,-614 311.5,-576 408.5,-576 408.5,-614"/>
<text text-anchor="middle" x="360" y="-598.8" font-family="Times,serif" font-size="14.00">roo_control</text>
<text text-anchor="middle" x="360" y="-583.8" font-family="Times,serif" font-size="14.00">1.2.5</text>
</g>
<!-- roo_comms&#45;&gt;roo_control -->
<g id="edge5" class="edge">
<title>roo_comms&#45;&gt;roo_control</title>
<path fill="none" stroke="black" d="M267.66,-767.8C290.91,-743.94 330.01,-699.74 350,-654 354.06,-644.72 356.47,-633.93 357.91,-624.19"/>
<polygon fill="black" stroke="black" points="361.39,-624.5 359.11,-614.15 354.44,-623.66 361.39,-624.5"/>
</g>
<!-- roo_io -->
<g id="node14" class="node">
<title>roo_io</title>
<polygon fill="#b1dbab" stroke="black" points="601.5,-422 542.5,-422 542.5,-384 601.5,-384 601.5,-422"/>
<text text-anchor="middle" x="572" y="-406.8" font-family="Times,serif" font-size="14.00">roo_io</text>
<text text-anchor="middle" x="572" y="-391.8" font-family="Times,serif" font-size="14.00">2.2.1</text>
</g>
<!-- roo_comms&#45;&gt;roo_io -->
<g id="edge6" class="edge">
<title>roo_comms&#45;&gt;roo_io</title>
<path fill="none" stroke="red" d="M200.34,-786C134.72,-783.15 26,-767.1 26,-692 26,-692 26,-692 26,-498 26,-402.2 371.82,-438.41 490,-422 503.92,-420.07 518.99,-417.04 532.36,-414.01"/>
<polygon fill="red" stroke="red" points="533.27,-417.39 542.21,-411.71 531.68,-410.57 533.27,-417.39"/>
<text text-anchor="middle" x="59" y="-598" font-family="Times,serif" font-size="10.00" fill="red">2.1.5</text>
<text text-anchor="middle" x="59" y="-587" font-family="Times,serif" font-size="10.00" fill="red">(latest: 2.2.1)</text>
</g>
<!-- roo_transceivers -->
<g id="node27" class="node">
<title>roo_transceivers</title>
<polygon fill="khaki" stroke="red" points="617.5,-710 482.5,-710 482.5,-672 617.5,-672 617.5,-710"/>
<text text-anchor="middle" x="550" y="-694.8" font-family="Times,serif" font-size="14.00">roo_transceivers</text>
<text text-anchor="middle" x="550" y="-679.8" font-family="Times,serif" font-size="14.00">1.1.6</text>
</g>
<!-- roo_comms&#45;&gt;roo_transceivers -->
<g id="edge7" class="edge">
<title>roo_comms&#45;&gt;roo_transceivers</title>
<path fill="none" stroke="red" d="M297.5,-778.95C322.14,-773.74 351.7,-764.88 375,-750 385.89,-743.05 382.93,-734.66 394,-728 422.45,-710.9 435.76,-716.91 472.52,-709.91"/>
<polygon fill="red" stroke="red" points="473.34,-713.31 482.4,-707.83 471.89,-706.47 473.34,-713.31"/>
<text text-anchor="middle" x="427" y="-742" font-family="Times,serif" font-size="10.00" fill="red">1.1.5</text>
<text text-anchor="middle" x="427" y="-731" font-family="Times,serif" font-size="10.00" fill="red">(latest: 1.1.6)</text>
</g>
<!-- roo_quantity -->
<g id="node21" class="node">
<title>roo_quantity</title>
<polygon fill="#b1dbab" stroke="red" points="519.5,-518 412.5,-518 412.5,-480 519.5,-480 519.5,-518"/>
<text text-anchor="middle" x="466" y="-502.8" font-family="Times,serif" font-size="14.00">roo_quantity</text>
<text text-anchor="middle" x="466" y="-487.8" font-family="Times,serif" font-size="14.00">1.1.8</text>
</g>
<!-- roo_control&#45;&gt;roo_quantity -->
<g id="edge8" class="edge">
<title>roo_control&#45;&gt;roo_quantity</title>
<path fill="none" stroke="black" d="M380.44,-575.88C396.72,-561.44 419.68,-541.07 437.72,-525.07"/>
<polygon fill="black" stroke="black" points="440.47,-527.32 445.62,-518.07 435.82,-522.08 440.47,-527.32"/>
</g>
<!-- roo_control&#45;&gt;roo_scheduler -->
<g id="edge9" class="edge">
<title>roo_control&#45;&gt;roo_scheduler</title>
<path fill="none" stroke="black" d="M355.37,-575.88C351.92,-562.35 347.14,-543.62 343.19,-528.15"/>
<polygon fill="black" stroke="black" points="346.48,-526.89 340.61,-518.07 339.7,-528.62 346.48,-526.89"/>
</g>
<!-- roo_dashboard -->
<g id="node6" class="node">
<title>roo_dashboard</title>
<polygon fill="khaki" stroke="red" points="919,-806 797,-806 797,-768 919,-768 919,-806"/>
<text text-anchor="middle" x="858" y="-790.8" font-family="Times,serif" font-size="14.00">roo_dashboard</text>
<text text-anchor="middle" x="858" y="-775.8" font-family="Times,serif" font-size="14.00">1.0.1</text>
</g>
<!-- roo_windows -->
<g id="node30" class="node">
<title>roo_windows</title>
<polygon fill="plum" stroke="red" points="911.5,-710 802.5,-710 802.5,-672 911.5,-672 911.5,-710"/>
<text text-anchor="middle" x="857" y="-694.8" font-family="Times,serif" font-size="14.00">roo_windows</text>
<text text-anchor="middle" x="857" y="-679.8" font-family="Times,serif" font-size="14.00">1.5.0</text>
</g>
<!-- roo_dashboard&#45;&gt;roo_windows -->
<g id="edge10" class="edge">
<title>roo_dashboard&#45;&gt;roo_windows</title>
<path fill="none" stroke="red" d="M857.81,-767.88C857.66,-754.35 857.46,-735.62 857.3,-720.15"/>
<polygon fill="red" stroke="red" points="860.8,-720.03 857.19,-710.07 853.8,-720.11 860.8,-720.03"/>
<text text-anchor="middle" x="890" y="-742" font-family="Times,serif" font-size="10.00" fill="red">1.4.1</text>
<text text-anchor="middle" x="890" y="-731" font-family="Times,serif" font-size="10.00" fill="red">(latest: 1.5.0)</text>
</g>
<!-- roo_display -->
<g id="node7" class="node">
<title>roo_display</title>
<polygon fill="plum" stroke="red" points="932,-518 834,-518 834,-480 932,-480 932,-518"/>
<text text-anchor="middle" x="883" y="-502.8" font-family="Times,serif" font-size="14.00">roo_display</text>
<text text-anchor="middle" x="883" y="-487.8" font-family="Times,serif" font-size="14.00">3.1.1</text>
</g>
<!-- roo_display&#45;&gt;roo_collections -->
<g id="edge11" class="edge">
<title>roo_display&#45;&gt;roo_collections</title>
<path fill="none" stroke="black" d="M880.9,-479.83C878.47,-466.97 873.24,-450.25 862,-440 843.75,-423.36 818.77,-414.22 795.08,-409.26"/>
<polygon fill="black" stroke="black" points="795.5,-405.78 785.02,-407.39 794.21,-412.66 795.5,-405.78"/>
</g>
<!-- roo_display&#45;&gt;roo_io -->
<g id="edge12" class="edge">
<title>roo_display&#45;&gt;roo_io</title>
<path fill="none" stroke="red" d="M837.06,-479.97C796.61,-464.15 742.52,-443.18 732,-440 726.19,-438.24 657.07,-422.84 611.6,-412.76"/>
<polygon fill="red" stroke="red" points="612.25,-409.32 601.73,-410.57 610.73,-416.15 612.25,-409.32"/>
<text text-anchor="middle" x="821" y="-454" font-family="Times,serif" font-size="10.00" fill="red">2.2.0</text>
<text text-anchor="middle" x="821" y="-443" font-family="Times,serif" font-size="10.00" fill="red">(latest: 2.2.1)</text>
</g>
<!-- roo_display_3_1_1 -->
<g id="node8" class="node">
<title>roo_display_3_1_1</title>
<polygon fill="mistyrose" stroke="red" points="815.5,-518 670.5,-518 670.5,-480 815.5,-480 815.5,-518"/>
<text text-anchor="middle" x="743" y="-502.8" font-family="Times,serif" font-size="14.00">roo_display_3_1_1</text>
<text text-anchor="middle" x="743" y="-487.8" font-family="Times,serif" font-size="14.00">3.1.1</text>
</g>
<!-- roo_display_3_1_1&#45;&gt;roo_collections -->
<g id="edge13" class="edge">
<title>roo_display_3_1_1&#45;&gt;roo_collections</title>
<path fill="none" stroke="black" d="M739.73,-479.94C737.61,-468.48 734.75,-453.35 732,-440 731.48,-437.48 730.93,-434.86 730.36,-432.23"/>
<polygon fill="black" stroke="black" points="733.74,-431.31 728.18,-422.29 726.9,-432.81 733.74,-431.31"/>
</g>
<!-- roo_display_3_1_1&#45;&gt;roo_io -->
<g id="edge14" class="edge">
<title>roo_display_3_1_1&#45;&gt;roo_io</title>
<path fill="none" stroke="red" d="M699.11,-479.97C686.91,-474.56 673.78,-468.36 662,-462 643.1,-451.79 622.91,-438.97 606.46,-427.99"/>
<polygon fill="red" stroke="red" points="607.98,-424.79 597.74,-422.1 604.07,-430.59 607.98,-424.79"/>
<text text-anchor="middle" x="695" y="-454" font-family="Times,serif" font-size="10.00" fill="red">2.2.0</text>
<text text-anchor="middle" x="695" y="-443" font-family="Times,serif" font-size="10.00" fill="red">(latest: 2.2.1)</text>
</g>
<!-- roo_display_lvgl -->
<g id="node9" class="node">
<title>roo_display_lvgl</title>
<polygon fill="khaki" stroke="red" points="819.5,-614 688.5,-614 688.5,-576 819.5,-576 819.5,-614"/>
<text text-anchor="middle" x="754" y="-598.8" font-family="Times,serif" font-size="14.00">roo_display_lvgl</text>
<text text-anchor="middle" x="754" y="-583.8" font-family="Times,serif" font-size="14.00">1.0.0</text>
</g>
<!-- roo_display_lvgl&#45;&gt;roo_display -->
<g id="edge15" class="edge">
<title>roo_display_lvgl&#45;&gt;roo_display</title>
<path fill="none" stroke="red" d="M778.87,-575.88C799.13,-561.12 827.9,-540.15 850.06,-524"/>
<polygon fill="red" stroke="red" points="852.18,-526.79 858.2,-518.07 848.06,-521.13 852.18,-526.79"/>
<text text-anchor="middle" x="863" y="-550" font-family="Times,serif" font-size="10.00" fill="red">3.0.3</text>
<text text-anchor="middle" x="863" y="-539" font-family="Times,serif" font-size="10.00" fill="red">(latest: 3.1.1)</text>
</g>
<!-- roo_flags -->
<g id="node10" class="node">
<title>roo_flags</title>
<polygon fill="#b1dbab" stroke="black" points="389,-230 309,-230 309,-192 389,-192 389,-230"/>
<text text-anchor="middle" x="349" y="-214.8" font-family="Times,serif" font-size="14.00">roo_flags</text>
<text text-anchor="middle" x="349" y="-199.8" font-family="Times,serif" font-size="14.00">1.2.3</text>
</g>
<!-- roo_fonts_basic -->
<g id="node11" class="node">
<title>roo_fonts_basic</title>
<polygon fill="#b1dbab" stroke="red" points="1070,-614 944,-614 944,-576 1070,-576 1070,-614"/>
<text text-anchor="middle" x="1007" y="-598.8" font-family="Times,serif" font-size="14.00">roo_fonts_basic</text>
<text text-anchor="middle" x="1007" y="-583.8" font-family="Times,serif" font-size="14.00">1.0.2</text>
</g>
<!-- roo_fonts_basic&#45;&gt;roo_display -->
<g id="edge16" class="edge">
<title>roo_fonts_basic&#45;&gt;roo_display</title>
<path fill="none" stroke="red" d="M983.09,-575.88C963.71,-561.18 936.21,-540.34 914.94,-524.21"/>
<polygon fill="red" stroke="red" points="916.92,-521.32 906.84,-518.07 912.69,-526.9 916.92,-521.32"/>
<text text-anchor="middle" x="989" y="-550" font-family="Times,serif" font-size="10.00" fill="red">3.0.2</text>
<text text-anchor="middle" x="989" y="-539" font-family="Times,serif" font-size="10.00" fill="red">(latest: 3.1.1)</text>
</g>
<!-- roo_fonts_material -->
<g id="node12" class="node">
<title>roo_fonts_material</title>
<polygon fill="#b1dbab" stroke="red" points="1237.5,-614 1088.5,-614 1088.5,-576 1237.5,-576 1237.5,-614"/>
<text text-anchor="middle" x="1163" y="-598.8" font-family="Times,serif" font-size="14.00">roo_fonts_material</text>
<text text-anchor="middle" x="1163" y="-583.8" font-family="Times,serif" font-size="14.00">1.0.0</text>
</g>
<!-- roo_fonts_material&#45;&gt;roo_display -->
<g id="edge17" class="edge">
<title>roo_fonts_material&#45;&gt;roo_display</title>
<path fill="none" stroke="red" d="M1125.63,-575.91C1098.49,-563.33 1060.61,-546.92 1026,-536 989.59,-524.51 978.96,-527.58 942,-518 941.9,-517.97 941.8,-517.95 941.7,-517.92"/>
<polygon fill="red" stroke="red" points="942.73,-514.58 932.17,-515.34 940.9,-521.33 942.73,-514.58"/>
<text text-anchor="middle" x="1116" y="-550" font-family="Times,serif" font-size="10.00" fill="red">3.0.2</text>
<text text-anchor="middle" x="1116" y="-539" font-family="Times,serif" font-size="10.00" fill="red">(latest: 3.1.1)</text>
</g>
<!-- roo_icons -->
<g id="node13" class="node">
<title>roo_icons</title>
<polygon fill="khaki" stroke="red" points="670.5,-614 587.5,-614 587.5,-576 670.5,-576 670.5,-614"/>
<text text-anchor="middle" x="629" y="-598.8" font-family="Times,serif" font-size="14.00">roo_icons</text>
<text text-anchor="middle" x="629" y="-583.8" font-family="Times,serif" font-size="14.00">1.2.2</text>
</g>
<!-- roo_icons&#45;&gt;roo_display -->
<g id="edge18" class="edge">
<title>roo_icons&#45;&gt;roo_display</title>
<path fill="none" stroke="red" d="M656.98,-575.83C677.96,-562.96 707.8,-546.24 736,-536 771.19,-523.23 784.04,-527.26 823.9,-518.07"/>
<polygon fill="red" stroke="red" points="824.85,-521.44 833.74,-515.66 823.19,-514.64 824.85,-521.44"/>
<text text-anchor="middle" x="769" y="-550" font-family="Times,serif" font-size="10.00" fill="red">3.0.2</text>
<text text-anchor="middle" x="769" y="-539" font-family="Times,serif" font-size="10.00" fill="red">(latest: 3.1.1)</text>
</g>
<!-- roo_io&#45;&gt;roo_logging -->
<g id="edge19" class="edge">
<title>roo_io&#45;&gt;roo_logging</title>
<path fill="none" stroke="black" d="M542.39,-389.52C506.4,-374.35 445.06,-348.49 401.11,-329.96"/>
<polygon fill="black" stroke="black" points="402.31,-326.67 391.73,-326.01 399.59,-333.12 402.31,-326.67"/>
</g>
<!-- roo_locale -->
<g id="node15" class="node">
<title>roo_locale</title>
<polygon fill="#b1dbab" stroke="black" points="926,-614 838,-614 838,-576 926,-576 926,-614"/>
<text text-anchor="middle" x="882" y="-598.8" font-family="Times,serif" font-size="14.00">roo_locale</text>
<text text-anchor="middle" x="882" y="-583.8" font-family="Times,serif" font-size="14.00">1.1.2</text>
</g>
<!-- roo_logging&#45;&gt;roo_backport -->
<g id="edge20" class="edge">
<title>roo_logging&#45;&gt;roo_backport</title>
<path fill="none" stroke="black" d="M376.19,-287.88C398.42,-273.05 430.05,-251.97 454.32,-235.79"/>
<polygon fill="black" stroke="black" points="456.52,-238.53 462.9,-230.07 452.64,-232.7 456.52,-238.53"/>
</g>
<!-- roo_logging&#45;&gt;roo_flags -->
<g id="edge21" class="edge">
<title>roo_logging&#45;&gt;roo_flags</title>
<path fill="none" stroke="black" d="M349,-287.88C349,-274.35 349,-255.62 349,-240.15"/>
<polygon fill="black" stroke="black" points="352.5,-240.07 349,-230.07 345.5,-240.07 352.5,-240.07"/>
</g>
<!-- roo_threads -->
<g id="node24" class="node">
<title>roo_threads</title>
<polygon fill="#b1dbab" stroke="red" points="257.5,-230 156.5,-230 156.5,-192 257.5,-192 257.5,-230"/>
<text text-anchor="middle" x="207" y="-214.8" font-family="Times,serif" font-size="14.00">roo_threads</text>
<text text-anchor="middle" x="207" y="-199.8" font-family="Times,serif" font-size="14.00">1.2.5</text>
</g>
<!-- roo_logging&#45;&gt;roo_threads -->
<g id="edge22" class="edge">
<title>roo_logging&#45;&gt;roo_threads</title>
<path fill="none" stroke="black" d="M328.74,-287.82C314.76,-275.76 295.44,-259.99 277,-248 269.92,-243.4 262.18,-238.92 254.5,-234.77"/>
<polygon fill="black" stroke="black" points="256.05,-231.63 245.57,-230.07 252.79,-237.82 256.05,-231.63"/>
</g>
<!-- roo_monitoring -->
<g id="node17" class="node">
<title>roo_monitoring</title>
<polygon fill="#b1dbab" stroke="red" points="1075.5,-518 950.5,-518 950.5,-480 1075.5,-480 1075.5,-518"/>
<text text-anchor="middle" x="1013" y="-502.8" font-family="Times,serif" font-size="14.00">roo_monitoring</text>
<text text-anchor="middle" x="1013" y="-487.8" font-family="Times,serif" font-size="14.00">1.1.1</text>
</g>
<!-- roo_monitoring&#45;&gt;roo_collections -->
<g id="edge23" class="edge">
<title>roo_monitoring&#45;&gt;roo_collections</title>
<path fill="none" stroke="black" d="M1011.68,-479.99C1009.71,-466.85 1004.87,-449.71 993,-440 963.59,-415.93 864.43,-407.9 795.1,-405.25"/>
<polygon fill="black" stroke="black" points="795.22,-401.75 785.1,-404.9 794.97,-408.75 795.22,-401.75"/>
</g>
<!-- roo_monitoring&#45;&gt;roo_io -->
<g id="edge24" class="edge">
<title>roo_monitoring&#45;&gt;roo_io</title>
<path fill="none" stroke="red" d="M968.7,-479.9C930.95,-464.76 879.51,-444.88 858,-440 769.24,-419.87 743.97,-435.79 654,-422 640.11,-419.87 625.05,-416.79 611.67,-413.78"/>
<polygon fill="red" stroke="red" points="612.35,-410.35 601.82,-411.51 610.77,-417.17 612.35,-410.35"/>
<text text-anchor="middle" x="952" y="-454" font-family="Times,serif" font-size="10.00" fill="red">2.1.6</text>
<text text-anchor="middle" x="952" y="-443" font-family="Times,serif" font-size="10.00" fill="red">(latest: 2.2.1)</text>
</g>
<!-- roo_onewire -->
<g id="node18" class="node">
<title>roo_onewire</title>
<polygon fill="#b1dbab" stroke="red" points="569,-614 465,-614 465,-576 569,-576 569,-614"/>
<text text-anchor="middle" x="517" y="-598.8" font-family="Times,serif" font-size="14.00">roo_onewire</text>
<text text-anchor="middle" x="517" y="-583.8" font-family="Times,serif" font-size="14.00">2.0.9</text>
</g>
<!-- roo_onewire&#45;&gt;roo_quantity -->
<g id="edge26" class="edge">
<title>roo_onewire&#45;&gt;roo_quantity</title>
<path fill="none" stroke="black" d="M514.83,-575.81C512.81,-563.88 509.02,-548.28 502,-536 499.99,-532.47 497.53,-529.06 494.87,-525.82"/>
<polygon fill="black" stroke="black" points="497.24,-523.23 487.93,-518.19 492.07,-527.94 497.24,-523.23"/>
</g>
<!-- roo_onewire&#45;&gt;roo_scheduler -->
<g id="edge25" class="edge">
<title>roo_onewire&#45;&gt;roo_scheduler</title>
<path fill="none" stroke="black" d="M500.36,-575.78C487.87,-563.07 469.75,-546.54 451,-536 442.18,-531.04 423.63,-524.7 403.94,-518.72"/>
<polygon fill="black" stroke="black" points="404.81,-515.32 394.22,-515.82 402.81,-522.03 404.81,-515.32"/>
</g>
<!-- roo_powersafefs -->
<g id="node19" class="node">
<title>roo_powersafefs</title>
<polygon fill="khaki" stroke="red" points="273.5,-326 140.5,-326 140.5,-288 273.5,-288 273.5,-326"/>
<text text-anchor="middle" x="207" y="-310.8" font-family="Times,serif" font-size="14.00">roo_powersafefs</text>
<text text-anchor="middle" x="207" y="-295.8" font-family="Times,serif" font-size="14.00">1.0.1</text>
</g>
<!-- roo_powersafefs&#45;&gt;roo_threads -->
<g id="edge27" class="edge">
<title>roo_powersafefs&#45;&gt;roo_threads</title>
<path fill="none" stroke="red" d="M207,-287.88C207,-274.35 207,-255.62 207,-240.15"/>
<polygon fill="red" stroke="red" points="210.5,-240.07 207,-230.07 203.5,-240.07 210.5,-240.07"/>
<text text-anchor="middle" x="240" y="-262" font-family="Times,serif" font-size="10.00" fill="red">1.2.3</text>
<text text-anchor="middle" x="240" y="-251" font-family="Times,serif" font-size="10.00" fill="red">(latest: 1.2.5)</text>
</g>
<!-- roo_prefs -->
<g id="node20" class="node">
<title>roo_prefs</title>
<polygon fill="#b1dbab" stroke="red" points="293.5,-614 210.5,-614 210.5,-576 293.5,-576 293.5,-614"/>
<text text-anchor="middle" x="252" y="-598.8" font-family="Times,serif" font-size="14.00">roo_prefs</text>
<text text-anchor="middle" x="252" y="-583.8" font-family="Times,serif" font-size="14.00">1.2.11</text>
</g>
<!-- roo_prefs&#45;&gt;roo_logging -->
<g id="edge28" class="edge">
<title>roo_prefs&#45;&gt;roo_logging</title>
<path fill="none" stroke="red" d="M253.09,-575.88C254.83,-553.09 259.1,-512.96 269,-480 285.03,-426.6 314.84,-368.61 333.2,-335.45"/>
<polygon fill="red" stroke="red" points="336.45,-336.82 338.28,-326.39 330.34,-333.4 336.45,-336.82"/>
<text text-anchor="middle" x="316" y="-454" font-family="Times,serif" font-size="10.00" fill="red">1.5.6</text>
<text text-anchor="middle" x="316" y="-443" font-family="Times,serif" font-size="10.00" fill="red">(latest: 1.5.7)</text>
</g>
<!-- roo_prefs&#45;&gt;roo_scheduler -->
<g id="edge29" class="edge">
<title>roo_prefs&#45;&gt;roo_scheduler</title>
<path fill="none" stroke="black" d="M268.2,-575.88C280.86,-561.7 298.64,-541.81 312.82,-525.94"/>
<polygon fill="black" stroke="black" points="315.8,-527.86 319.85,-518.07 310.58,-523.19 315.8,-527.86"/>
</g>
<!-- roo_quantity&#45;&gt;roo_logging -->
<g id="edge30" class="edge">
<title>roo_quantity&#45;&gt;roo_logging</title>
<path fill="none" stroke="red" d="M454.78,-479.78C434.08,-446.16 389.78,-374.22 365.59,-334.94"/>
<polygon fill="red" stroke="red" points="368.41,-332.84 360.18,-326.16 362.45,-336.51 368.41,-332.84"/>
<text text-anchor="middle" x="453" y="-406" font-family="Times,serif" font-size="10.00" fill="red">1.5.5</text>
<text text-anchor="middle" x="453" y="-395" font-family="Times,serif" font-size="10.00" fill="red">(latest: 1.5.7)</text>
</g>
<!-- roo_scheduler&#45;&gt;roo_collections -->
<g id="edge31" class="edge">
<title>roo_scheduler&#45;&gt;roo_collections</title>
<path fill="none" stroke="black" d="M394.1,-480.78C436.11,-468.61 494.31,-452.35 546,-440 581.02,-431.63 620.21,-423.57 652.89,-417.2"/>
<polygon fill="black" stroke="black" points="653.65,-420.62 662.81,-415.28 652.32,-413.74 653.65,-420.62"/>
</g>
<!-- roo_scheduler&#45;&gt;roo_threads -->
<g id="edge32" class="edge">
<title>roo_scheduler&#45;&gt;roo_threads</title>
<path fill="none" stroke="red" d="M277.59,-492.65C227.85,-487.14 161.03,-477.21 139,-462 97.97,-433.69 94.38,-414.02 81,-366 65.65,-310.9 122.87,-262.64 165.21,-235.44"/>
<polygon fill="red" stroke="red" points="167.1,-238.39 173.72,-230.12 163.39,-232.45 167.1,-238.39"/>
<text text-anchor="middle" x="114" y="-358" font-family="Times,serif" font-size="10.00" fill="red">1.2.3</text>
<text text-anchor="middle" x="114" y="-347" font-family="Times,serif" font-size="10.00" fill="red">(latest: 1.2.5)</text>
</g>
<!-- roo_testing -->
<g id="node23" class="node">
<title>roo_testing</title>
<polygon fill="#b1dbab" stroke="black" points="157.5,-38 60.5,-38 60.5,0 157.5,0 157.5,-38"/>
<text text-anchor="middle" x="109" y="-22.8" font-family="Times,serif" font-size="14.00">roo_testing</text>
<text text-anchor="middle" x="109" y="-7.8" font-family="Times,serif" font-size="14.00">1.3.6</text>
</g>
<!-- roo_time -->
<g id="node25" class="node">
<title>roo_time</title>
<polygon fill="#b1dbab" stroke="red" points="148.5,-134 69.5,-134 69.5,-96 148.5,-96 148.5,-134"/>
<text text-anchor="middle" x="109" y="-118.8" font-family="Times,serif" font-size="14.00">roo_time</text>
<text text-anchor="middle" x="109" y="-103.8" font-family="Times,serif" font-size="14.00">1.4.4</text>
</g>
<!-- roo_threads&#45;&gt;roo_time -->
<g id="edge33" class="edge">
<title>roo_threads&#45;&gt;roo_time</title>
<path fill="none" stroke="black" d="M195.49,-191.74C187.33,-179.64 175.61,-163.86 163,-152 158.58,-147.85 153.64,-143.85 148.58,-140.12"/>
<polygon fill="black" stroke="black" points="150.24,-137.01 140.04,-134.13 146.22,-142.74 150.24,-137.01"/>
</g>
<!-- roo_time&#45;&gt;roo_testing -->
<g id="edge34" class="edge">
<title>roo_time&#45;&gt;roo_testing</title>
<path fill="none" stroke="red" d="M109,-95.88C109,-82.35 109,-63.62 109,-48.15"/>
<polygon fill="red" stroke="red" points="112.5,-48.07 109,-38.07 105.5,-48.07 112.5,-48.07"/>
<text text-anchor="middle" x="142" y="-70" font-family="Times,serif" font-size="10.00" fill="red">1.3.5</text>
<text text-anchor="middle" x="142" y="-59" font-family="Times,serif" font-size="10.00" fill="red">(latest: 1.3.6)</text>
</g>
<!-- roo_time_ds3231 -->
<g id="node26" class="node">
<title>roo_time_ds3231</title>
<polygon fill="#b1dbab" stroke="red" points="138,-230 0,-230 0,-192 138,-192 138,-230"/>
<text text-anchor="middle" x="69" y="-214.8" font-family="Times,serif" font-size="14.00">roo_time_ds3231</text>
<text text-anchor="middle" x="69" y="-199.8" font-family="Times,serif" font-size="14.00">1.1.6</text>
</g>
<!-- roo_time_ds3231&#45;&gt;roo_time -->
<g id="edge35" class="edge">
<title>roo_time_ds3231&#45;&gt;roo_time</title>
<path fill="none" stroke="red" d="M76.71,-191.88C82.52,-178.22 90.59,-159.26 97.21,-143.71"/>
<polygon fill="red" stroke="red" points="100.62,-144.64 101.31,-134.07 94.18,-141.9 100.62,-144.64"/>
<text text-anchor="middle" x="126" y="-166" font-family="Times,serif" font-size="10.00" fill="red">1.4.3</text>
<text text-anchor="middle" x="126" y="-155" font-family="Times,serif" font-size="10.00" fill="red">(latest: 1.4.4)</text>
</g>
<!-- roo_transceivers&#45;&gt;roo_prefs -->
<g id="edge36" class="edge">
<title>roo_transceivers&#45;&gt;roo_prefs</title>
<path fill="none" stroke="red" d="M482.46,-673.88C479.27,-673.22 476.1,-672.59 473,-672 419.16,-661.75 402.7,-672.19 351,-654 327.64,-645.78 303.62,-631.87 285.09,-619.73"/>
<polygon fill="red" stroke="red" points="286.98,-616.78 276.73,-614.13 283.09,-622.6 286.98,-616.78"/>
<text text-anchor="middle" x="387" y="-646" font-family="Times,serif" font-size="10.00" fill="red">1.2.10</text>
<text text-anchor="middle" x="387" y="-635" font-family="Times,serif" font-size="10.00" fill="red">(latest: 1.2.11)</text>
</g>
<!-- roo_transport -->
<g id="node28" class="node">
<title>roo_transport</title>
<polygon fill="#b1dbab" stroke="red" points="652,-518 538,-518 538,-480 652,-480 652,-518"/>
<text text-anchor="middle" x="595" y="-502.8" font-family="Times,serif" font-size="14.00">roo_transport</text>
<text text-anchor="middle" x="595" y="-487.8" font-family="Times,serif" font-size="14.00">1.1.2</text>
</g>
<!-- roo_transport&#45;&gt;roo_collections -->
<g id="edge37" class="edge">
<title>roo_transport&#45;&gt;roo_collections</title>
<path fill="none" stroke="black" d="M607.66,-479.98C617.11,-467.52 630.95,-451.23 646,-440 652.47,-435.17 659.7,-430.78 667.06,-426.84"/>
<polygon fill="black" stroke="black" points="669.08,-429.75 676.43,-422.12 665.92,-423.5 669.08,-429.75"/>
</g>
<!-- roo_transport&#45;&gt;roo_io -->
<g id="edge38" class="edge">
<title>roo_transport&#45;&gt;roo_io</title>
<path fill="none" stroke="red" d="M566.2,-479.97C560.46,-474.91 555.21,-468.88 552,-462 547.42,-452.2 549.62,-441.05 553.95,-431.16"/>
<polygon fill="red" stroke="red" points="557.12,-432.64 558.59,-422.15 550.9,-429.44 557.12,-432.64"/>
<text text-anchor="middle" x="585" y="-454" font-family="Times,serif" font-size="10.00" fill="red">2.1.5</text>
<text text-anchor="middle" x="585" y="-443" font-family="Times,serif" font-size="10.00" fill="red">(latest: 2.2.1)</text>
</g>
<!-- roo_wifi -->
<g id="node29" class="node">
<title>roo_wifi</title>
<polygon fill="khaki" stroke="red" points="464,-710 392,-710 392,-672 464,-672 464,-710"/>
<text text-anchor="middle" x="428" y="-694.8" font-family="Times,serif" font-size="14.00">roo_wifi</text>
<text text-anchor="middle" x="428" y="-679.8" font-family="Times,serif" font-size="14.00">1.1.4</text>
</g>
<!-- roo_wifi&#45;&gt;roo_prefs -->
<g id="edge39" class="edge">
<title>roo_wifi&#45;&gt;roo_prefs</title>
<path fill="none" stroke="red" d="M391.9,-690.21C330.44,-689.72 209.56,-684.74 183,-654 171.31,-640.46 183.81,-627.45 201.23,-617.2"/>
<polygon fill="red" stroke="red" points="202.97,-620.24 210.1,-612.39 199.64,-614.08 202.97,-620.24"/>
<text text-anchor="middle" x="219" y="-646" font-family="Times,serif" font-size="10.00" fill="red">1.2.9</text>
<text text-anchor="middle" x="219" y="-635" font-family="Times,serif" font-size="10.00" fill="red">(latest: 1.2.11)</text>
</g>
<!-- roo_windows&#45;&gt;roo_fonts_basic -->
<g id="edge40" class="edge">
<title>roo_windows&#45;&gt;roo_fonts_basic</title>
<path fill="none" stroke="black" d="M885.92,-671.88C909.68,-656.99 943.52,-635.78 969.38,-619.57"/>
<polygon fill="black" stroke="black" points="971.55,-622.34 978.17,-614.07 967.84,-616.41 971.55,-622.34"/>
</g>
<!-- roo_windows&#45;&gt;roo_fonts_material -->
<g id="edge41" class="edge">
<title>roo_windows&#45;&gt;roo_fonts_material</title>
<path fill="none" stroke="black" d="M911.71,-673.19C962.87,-657.48 1039.47,-633.95 1094.64,-617"/>
<polygon fill="black" stroke="black" points="1095.8,-620.3 1104.34,-614.02 1093.75,-613.61 1095.8,-620.3"/>
</g>
<!-- roo_windows&#45;&gt;roo_icons -->
<g id="edge43" class="edge">
<title>roo_windows&#45;&gt;roo_icons</title>
<path fill="none" stroke="black" d="M813.31,-671.99C775.24,-656.29 720.02,-633.52 679.95,-617.01"/>
<polygon fill="black" stroke="black" points="681.2,-613.74 670.62,-613.16 678.53,-620.21 681.2,-613.74"/>
</g>
<!-- roo_windows&#45;&gt;roo_locale -->
<g id="edge42" class="edge">
<title>roo_windows&#45;&gt;roo_locale</title>
<path fill="none" stroke="black" d="M862.81,-671.75C864.55,-666.08 866.42,-659.8 868,-654 870.67,-644.24 873.34,-633.48 875.62,-623.91"/>
<polygon fill="black" stroke="black" points="879.04,-624.63 877.92,-614.1 872.23,-623.03 879.04,-624.63"/>
</g>
<!-- roo_windows&#45;&gt;roo_scheduler -->
<g id="edge44" class="edge">
<title>roo_windows&#45;&gt;roo_scheduler</title>
<path fill="none" stroke="black" d="M802.21,-689.46C721.85,-686.57 569.3,-672.96 456,-614 434.53,-602.83 434.49,-592.72 417,-576 399.03,-558.82 378.62,-539.67 362.79,-524.89"/>
<polygon fill="black" stroke="black" points="365.11,-522.28 355.41,-518.02 360.34,-527.4 365.11,-522.28"/>
</g>
<!-- roo_windows_transceivers -->
<g id="node31" class="node">
<title>roo_windows_transceivers</title>
<polygon fill="plum" stroke="red" points="779,-806 575,-806 575,-768 779,-768 779,-806"/>
<text text-anchor="middle" x="677" y="-790.8" font-family="Times,serif" font-size="14.00">roo_windows_transceivers</text>
<text text-anchor="middle" x="677" y="-775.8" font-family="Times,serif" font-size="14.00">1.0.0</text>
</g>
<!-- roo_windows_transceivers&#45;&gt;roo_transceivers -->
<g id="edge45" class="edge">
<title>roo_windows_transceivers&#45;&gt;roo_transceivers</title>
<path fill="none" stroke="black" d="M672.89,-767.8C669.15,-755.08 662.43,-738.56 651,-728 643.95,-721.48 635.64,-716.13 626.86,-711.74"/>
<polygon fill="black" stroke="black" points="628.13,-708.47 617.58,-707.5 625.22,-714.84 628.13,-708.47"/>
</g>
<!-- roo_windows_transceivers&#45;&gt;roo_windows -->
<g id="edge46" class="edge">
<title>roo_windows_transceivers&#45;&gt;roo_windows</title>
<path fill="none" stroke="red" d="M711.14,-767.88C732.84,-756.4 761.53,-741.26 787,-728 795.28,-723.69 804.12,-719.12 812.64,-714.73"/>
<polygon fill="red" stroke="red" points="814.42,-717.75 821.71,-710.06 811.22,-711.52 814.42,-717.75"/>
<text text-anchor="middle" x="820" y="-742" font-family="Times,serif" font-size="10.00" fill="red">1.4.2</text>
<text text-anchor="middle" x="820" y="-731" font-family="Times,serif" font-size="10.00" fill="red">(latest: 1.5.0)</text>
</g>
<!-- roo_windows_wifi -->
<g id="node32" class="node">
<title>roo_windows_wifi</title>
<polygon fill="khaki" stroke="red" points="556.5,-806 415.5,-806 415.5,-768 556.5,-768 556.5,-806"/>
<text text-anchor="middle" x="486" y="-790.8" font-family="Times,serif" font-size="14.00">roo_windows_wifi</text>
<text text-anchor="middle" x="486" y="-775.8" font-family="Times,serif" font-size="14.00">1.1.3</text>
</g>
<!-- roo_windows_wifi&#45;&gt;roo_wifi -->
<g id="edge47" class="edge">
<title>roo_windows_wifi&#45;&gt;roo_wifi</title>
<path fill="none" stroke="red" d="M481.27,-767.82C477.66,-755.9 471.95,-740.3 464,-728 461.68,-724.41 458.95,-720.89 456.05,-717.54"/>
<polygon fill="red" stroke="red" points="458.47,-715.01 449.08,-710.1 453.36,-719.79 458.47,-715.01"/>
<text text-anchor="middle" x="508" y="-742" font-family="Times,serif" font-size="10.00" fill="red">1.1.3</text>
<text text-anchor="middle" x="508" y="-731" font-family="Times,serif" font-size="10.00" fill="red">(latest: 1.1.4)</text>
</g>
<!-- roo_windows_wifi&#45;&gt;roo_windows -->
<g id="edge48" class="edge">
<title>roo_windows_wifi&#45;&gt;roo_windows</title>
<path fill="none" stroke="red" d="M540.65,-767.98C578.86,-755.75 631.22,-739.74 678,-728 715.64,-718.55 758.21,-709.91 792.39,-703.46"/>
<polygon fill="red" stroke="red" points="793.07,-706.89 802.26,-701.62 791.78,-700.01 793.07,-706.89"/>
<text text-anchor="middle" x="711" y="-742" font-family="Times,serif" font-size="10.00" fill="red">1.4.2</text>
<text text-anchor="middle" x="711" y="-731" font-family="Times,serif" font-size="10.00" fill="red">(latest: 1.5.0)</text>
</g>
</g>
</svg>
