<?xml version="1.0" encoding="UTF-8" standalone="no"?>
<!DOCTYPE svg PUBLIC "-//W3C//DTD SVG 1.1//EN"
 "http://www.w3.org/Graphics/SVG/1.1/DTD/svg11.dtd">
<!-- Generated by graphviz version 2.42.4 (0)
 -->
<!-- Title: dependencies Pages: 1 -->
<svg width="1088pt" height="730pt"
 viewBox="0.00 0.00 1087.50 730.00" xmlns="http://www.w3.org/2000/svg" xmlns:xlink="http://www.w3.org/1999/xlink">
<g id="graph0" class="graph" transform="scale(1 1) rotate(0) translate(4 726)">
<title>dependencies</title>
<polygon fill="white" stroke="transparent" points="-4,4 -4,-726 1083.5,-726 1083.5,4 -4,4"/>
<!-- roo_backport -->
<g id="node1" class="node">
<title>roo_backport</title>
<polygon fill="#b1dbab" stroke="black" points="583.5,-209 473.5,-209 473.5,-171 583.5,-171 583.5,-209"/>
<text text-anchor="middle" x="528.5" y="-193.8" font-family="Times,serif" font-size="14.00">roo_backport</text>
<text text-anchor="middle" x="528.5" y="-178.8" font-family="Times,serif" font-size="14.00">1.2.2</text>
</g>
<!-- roo_blink -->
<g id="node2" class="node">
<title>roo_blink</title>
<polygon fill="#b1dbab" stroke="black" points="1079.5,-530 997.5,-530 997.5,-492 1079.5,-492 1079.5,-530"/>
<text text-anchor="middle" x="1038.5" y="-514.8" font-family="Times,serif" font-size="14.00">roo_blink</text>
<text text-anchor="middle" x="1038.5" y="-499.8" font-family="Times,serif" font-size="14.00">1.0.6</text>
</g>
<!-- roo_logging -->
<g id="node14" class="node">
<title>roo_logging</title>
<polygon fill="khaki" stroke="red" points="873.5,-284 773.5,-284 773.5,-246 873.5,-246 873.5,-284"/>
<text text-anchor="middle" x="823.5" y="-268.8" font-family="Times,serif" font-size="14.00">roo_logging</text>
<text text-anchor="middle" x="823.5" y="-253.8" font-family="Times,serif" font-size="14.00">1.5.5</text>
</g>
<!-- roo_blink&#45;&gt;roo_logging -->
<g id="edge1" class="edge">
<title>roo_blink&#45;&gt;roo_logging</title>
<path fill="none" stroke="black" d="M1022.34,-491.66C984.5,-448.72 890.07,-341.55 846.36,-291.95"/>
<polygon fill="black" stroke="black" points="848.79,-289.41 839.55,-284.22 843.54,-294.04 848.79,-289.41"/>
</g>
<!-- roo_scheduler -->
<g id="node20" class="node">
<title>roo_scheduler</title>
<polygon fill="#b1dbab" stroke="black" points="704.5,-455 588.5,-455 588.5,-417 704.5,-417 704.5,-455"/>
<text text-anchor="middle" x="646.5" y="-439.8" font-family="Times,serif" font-size="14.00">roo_scheduler</text>
<text text-anchor="middle" x="646.5" y="-424.8" font-family="Times,serif" font-size="14.00">2.1.9</text>
</g>
<!-- roo_blink&#45;&gt;roo_scheduler -->
<g id="edge2" class="edge">
<title>roo_blink&#45;&gt;roo_scheduler</title>
<path fill="none" stroke="black" d="M997.24,-494.38C994.3,-493.51 991.37,-492.7 988.5,-492 869.14,-462.8 835.02,-478.99 714.5,-455 714.4,-454.98 714.3,-454.96 714.2,-454.94"/>
<polygon fill="black" stroke="black" points="715.14,-451.56 704.63,-452.9 713.68,-458.41 715.14,-451.56"/>
</g>
<!-- roo_collections -->
<g id="node3" class="node">
<title>roo_collections</title>
<polygon fill="#b1dbab" stroke="black" points="433.5,-359 311.5,-359 311.5,-321 433.5,-321 433.5,-359"/>
<text text-anchor="middle" x="372.5" y="-343.8" font-family="Times,serif" font-size="14.00">roo_collections</text>
<text text-anchor="middle" x="372.5" y="-328.8" font-family="Times,serif" font-size="14.00">1.4.3</text>
</g>
<!-- roo_collections&#45;&gt;roo_backport -->
<g id="edge3" class="edge">
<title>roo_collections&#45;&gt;roo_backport</title>
<path fill="none" stroke="black" d="M391.63,-320.85C419.23,-294.67 470.35,-246.17 501.7,-216.43"/>
<polygon fill="black" stroke="black" points="504.37,-218.72 509.21,-209.3 499.55,-213.64 504.37,-218.72"/>
</g>
<!-- roo_comms -->
<g id="node4" class="node">
<title>roo_comms</title>
<polygon fill="#b1dbab" stroke="red" points="928,-722 831,-722 831,-684 928,-684 928,-722"/>
<text text-anchor="middle" x="879.5" y="-706.8" font-family="Times,serif" font-size="14.00">roo_comms</text>
<text text-anchor="middle" x="879.5" y="-691.8" font-family="Times,serif" font-size="14.00">1.1.4</text>
</g>
<!-- roo_comms&#45;&gt;roo_blink -->
<g id="edge4" class="edge">
<title>roo_comms&#45;&gt;roo_blink</title>
<path fill="none" stroke="black" d="M909.54,-683.91C917.13,-678.63 924.97,-672.52 931.5,-666 970.71,-626.85 1005.08,-571.69 1023.71,-539.11"/>
<polygon fill="black" stroke="black" points="1026.9,-540.59 1028.76,-530.16 1020.8,-537.15 1026.9,-540.59"/>
</g>
<!-- roo_control -->
<g id="node5" class="node">
<title>roo_control</title>
<polygon fill="#b1dbab" stroke="black" points="979,-530 882,-530 882,-492 979,-492 979,-530"/>
<text text-anchor="middle" x="930.5" y="-514.8" font-family="Times,serif" font-size="14.00">roo_control</text>
<text text-anchor="middle" x="930.5" y="-499.8" font-family="Times,serif" font-size="14.00">1.2.5</text>
</g>
<!-- roo_comms&#45;&gt;roo_control -->
<g id="edge5" class="edge">
<title>roo_comms&#45;&gt;roo_control</title>
<path fill="none" stroke="black" d="M900.81,-683.96C905.76,-678.68 910.47,-672.55 913.5,-666 932.38,-625.21 933.85,-572.05 932.6,-540.05"/>
<polygon fill="black" stroke="black" points="936.1,-539.87 932.09,-530.06 929.11,-540.23 936.1,-539.87"/>
</g>
<!-- roo_io -->
<g id="node12" class="node">
<title>roo_io</title>
<polygon fill="#b1dbab" stroke="black" points="511,-359 452,-359 452,-321 511,-321 511,-359"/>
<text text-anchor="middle" x="481.5" y="-343.8" font-family="Times,serif" font-size="14.00">roo_io</text>
<text text-anchor="middle" x="481.5" y="-328.8" font-family="Times,serif" font-size="14.00">2.1.6</text>
</g>
<!-- roo_comms&#45;&gt;roo_io -->
<g id="edge6" class="edge">
<title>roo_comms&#45;&gt;roo_io</title>
<path fill="none" stroke="red" d="M830.57,-692.67C784.38,-682.13 714.76,-661.61 663.5,-626 617.89,-594.31 611.91,-577.72 583.5,-530 546.05,-467.1 564.73,-436.8 522.5,-377 519.85,-373.24 516.72,-369.61 513.41,-366.2"/>
<polygon fill="red" stroke="red" points="515.6,-363.46 505.94,-359.11 510.78,-368.54 515.6,-363.46"/>
<text text-anchor="middle" x="616.5" y="-514" font-family="Times,serif" font-size="10.00" fill="red">2.1.5</text>
<text text-anchor="middle" x="616.5" y="-503" font-family="Times,serif" font-size="10.00" fill="red">(latest: 2.1.6)</text>
</g>
<!-- roo_transceivers -->
<g id="node25" class="node">
<title>roo_transceivers</title>
<polygon fill="#b1dbab" stroke="black" points="898,-626 763,-626 763,-588 898,-588 898,-626"/>
<text text-anchor="middle" x="830.5" y="-610.8" font-family="Times,serif" font-size="14.00">roo_transceivers</text>
<text text-anchor="middle" x="830.5" y="-595.8" font-family="Times,serif" font-size="14.00">1.1.6</text>
</g>
<!-- roo_comms&#45;&gt;roo_transceivers -->
<g id="edge7" class="edge">
<title>roo_comms&#45;&gt;roo_transceivers</title>
<path fill="none" stroke="red" d="M860.52,-683.78C855.74,-678.42 850.98,-672.29 847.5,-666 842.37,-656.74 838.64,-645.76 836.01,-635.86"/>
<polygon fill="red" stroke="red" points="839.39,-634.96 833.65,-626.06 832.58,-636.6 839.39,-634.96"/>
<text text-anchor="middle" x="880.5" y="-658" font-family="Times,serif" font-size="10.00" fill="red">1.1.5</text>
<text text-anchor="middle" x="880.5" y="-647" font-family="Times,serif" font-size="10.00" fill="red">(latest: 1.1.6)</text>
</g>
<!-- roo_quantity -->
<g id="node19" class="node">
<title>roo_quantity</title>
<polygon fill="#b1dbab" stroke="black" points="830,-455 723,-455 723,-417 830,-417 830,-455"/>
<text text-anchor="middle" x="776.5" y="-439.8" font-family="Times,serif" font-size="14.00">roo_quantity</text>
<text text-anchor="middle" x="776.5" y="-424.8" font-family="Times,serif" font-size="14.00">1.1.8</text>
</g>
<!-- roo_control&#45;&gt;roo_quantity -->
<g id="edge8" class="edge">
<title>roo_control&#45;&gt;roo_quantity</title>
<path fill="none" stroke="black" d="M892.43,-491.96C871.7,-482.13 845.86,-469.88 823.84,-459.44"/>
<polygon fill="black" stroke="black" points="825.2,-456.21 814.66,-455.09 822.2,-462.54 825.2,-456.21"/>
</g>
<!-- roo_control&#45;&gt;roo_scheduler -->
<g id="edge9" class="edge">
<title>roo_control&#45;&gt;roo_scheduler</title>
<path fill="none" stroke="black" d="M881.76,-494.33C878.97,-493.52 876.2,-492.74 873.5,-492 803.52,-472.84 784.91,-472.51 714.5,-455 714.4,-454.98 714.3,-454.95 714.2,-454.93"/>
<polygon fill="black" stroke="black" points="715.26,-451.58 704.71,-452.53 713.55,-458.37 715.26,-451.58"/>
</g>
<!-- roo_dashboard -->
<g id="node6" class="node">
<title>roo_dashboard</title>
<polygon fill="khaki" stroke="red" points="332.5,-722 210.5,-722 210.5,-684 332.5,-684 332.5,-722"/>
<text text-anchor="middle" x="271.5" y="-706.8" font-family="Times,serif" font-size="14.00">roo_dashboard</text>
<text text-anchor="middle" x="271.5" y="-691.8" font-family="Times,serif" font-size="14.00">1.0.1</text>
</g>
<!-- roo_windows -->
<g id="node28" class="node">
<title>roo_windows</title>
<polygon fill="#b1dbab" stroke="black" points="408,-626 299,-626 299,-588 408,-588 408,-626"/>
<text text-anchor="middle" x="353.5" y="-610.8" font-family="Times,serif" font-size="14.00">roo_windows</text>
<text text-anchor="middle" x="353.5" y="-595.8" font-family="Times,serif" font-size="14.00">1.5.0</text>
</g>
<!-- roo_dashboard&#45;&gt;roo_windows -->
<g id="edge10" class="edge">
<title>roo_dashboard&#45;&gt;roo_windows</title>
<path fill="none" stroke="red" d="M271.69,-683.86C272.68,-671.5 275.76,-655.37 284.5,-644 287.95,-639.51 292.11,-635.53 296.67,-632.01"/>
<polygon fill="red" stroke="red" points="298.95,-634.69 305.22,-626.16 295,-628.91 298.95,-634.69"/>
<text text-anchor="middle" x="317.5" y="-658" font-family="Times,serif" font-size="10.00" fill="red">1.4.1</text>
<text text-anchor="middle" x="317.5" y="-647" font-family="Times,serif" font-size="10.00" fill="red">(latest: 1.5.0)</text>
</g>
<!-- roo_display -->
<g id="node7" class="node">
<title>roo_display</title>
<polygon fill="khaki" stroke="red" points="365.5,-455 267.5,-455 267.5,-417 365.5,-417 365.5,-455"/>
<text text-anchor="middle" x="316.5" y="-439.8" font-family="Times,serif" font-size="14.00">roo_display</text>
<text text-anchor="middle" x="316.5" y="-424.8" font-family="Times,serif" font-size="14.00">3.0.2</text>
</g>
<!-- roo_display&#45;&gt;roo_collections -->
<g id="edge11" class="edge">
<title>roo_display&#45;&gt;roo_collections</title>
<path fill="none" stroke="black" d="M302.83,-416.76C295.67,-404.8 289.83,-389.2 297.5,-377 300.31,-372.53 303.85,-368.6 307.85,-365.15"/>
<polygon fill="black" stroke="black" points="310.09,-367.86 316.04,-359.1 305.92,-362.23 310.09,-367.86"/>
</g>
<!-- roo_display&#45;&gt;roo_io -->
<g id="edge12" class="edge">
<title>roo_display&#45;&gt;roo_io</title>
<path fill="none" stroke="red" d="M332.21,-416.92C344.25,-404.09 361.91,-387.38 380.5,-377 405.55,-363.01 415.62,-369.04 442.5,-359 442.6,-358.96 442.69,-358.93 442.79,-358.89"/>
<polygon fill="red" stroke="red" points="443.92,-362.21 451.88,-355.23 441.3,-355.72 443.92,-362.21"/>
<text text-anchor="middle" x="413.5" y="-391" font-family="Times,serif" font-size="10.00" fill="red">2.1.5</text>
<text text-anchor="middle" x="413.5" y="-380" font-family="Times,serif" font-size="10.00" fill="red">(latest: 2.1.6)</text>
</g>
<!-- roo_flags -->
<g id="node8" class="node">
<title>roo_flags</title>
<polygon fill="#b1dbab" stroke="black" points="856.5,-209 776.5,-209 776.5,-171 856.5,-171 856.5,-209"/>
<text text-anchor="middle" x="816.5" y="-193.8" font-family="Times,serif" font-size="14.00">roo_flags</text>
<text text-anchor="middle" x="816.5" y="-178.8" font-family="Times,serif" font-size="14.00">1.2.3</text>
</g>
<!-- roo_fonts_basic -->
<g id="node9" class="node">
<title>roo_fonts_basic</title>
<polygon fill="#b1dbab" stroke="black" points="394.5,-530 268.5,-530 268.5,-492 394.5,-492 394.5,-530"/>
<text text-anchor="middle" x="331.5" y="-514.8" font-family="Times,serif" font-size="14.00">roo_fonts_basic</text>
<text text-anchor="middle" x="331.5" y="-499.8" font-family="Times,serif" font-size="14.00">1.0.2</text>
</g>
<!-- roo_fonts_basic&#45;&gt;roo_display -->
<g id="edge13" class="edge">
<title>roo_fonts_basic&#45;&gt;roo_display</title>
<path fill="none" stroke="black" d="M327.79,-491.96C326.12,-483.8 324.1,-473.97 322.23,-464.89"/>
<polygon fill="black" stroke="black" points="325.66,-464.18 320.22,-455.09 318.8,-465.59 325.66,-464.18"/>
</g>
<!-- roo_fonts_material -->
<g id="node10" class="node">
<title>roo_fonts_material</title>
<polygon fill="plum" stroke="black" points="250,-530 101,-530 101,-492 250,-492 250,-530"/>
<text text-anchor="middle" x="175.5" y="-514.8" font-family="Times,serif" font-size="14.00">roo_fonts_material</text>
<text text-anchor="middle" x="175.5" y="-499.8" font-family="Times,serif" font-size="14.00">1.0.0</text>
</g>
<!-- roo_fonts_material&#45;&gt;roo_display -->
<g id="edge14" class="edge">
<title>roo_fonts_material&#45;&gt;roo_display</title>
<path fill="none" stroke="black" d="M210.35,-491.96C229.17,-482.22 252.57,-470.1 272.61,-459.72"/>
<polygon fill="black" stroke="black" points="274.29,-462.8 281.56,-455.09 271.07,-456.58 274.29,-462.8"/>
</g>
<!-- roo_icons -->
<g id="node11" class="node">
<title>roo_icons</title>
<polygon fill="#b1dbab" stroke="black" points="83,-530 0,-530 0,-492 83,-492 83,-530"/>
<text text-anchor="middle" x="41.5" y="-514.8" font-family="Times,serif" font-size="14.00">roo_icons</text>
<text text-anchor="middle" x="41.5" y="-499.8" font-family="Times,serif" font-size="14.00">1.2.2</text>
</g>
<!-- roo_icons&#45;&gt;roo_display -->
<g id="edge15" class="edge">
<title>roo_icons&#45;&gt;roo_display</title>
<path fill="none" stroke="black" d="M83.11,-494.58C85.94,-493.67 88.75,-492.8 91.5,-492 164.09,-470.93 184.41,-474.27 257.5,-455 257.6,-454.97 257.7,-454.95 257.8,-454.92"/>
<polygon fill="black" stroke="black" points="258.61,-458.33 267.33,-452.31 256.76,-451.58 258.61,-458.33"/>
</g>
<!-- roo_io&#45;&gt;roo_logging -->
<g id="edge16" class="edge">
<title>roo_io&#45;&gt;roo_logging</title>
<path fill="none" stroke="black" d="M511.05,-334.3C561.12,-326.11 665.91,-308.01 763.65,-284.09"/>
<polygon fill="black" stroke="black" points="764.52,-287.48 773.39,-281.68 762.84,-280.68 764.52,-287.48"/>
</g>
<!-- roo_locale -->
<g id="node13" class="node">
<title>roo_locale</title>
<polygon fill="#b1dbab" stroke="black" points="500.5,-530 412.5,-530 412.5,-492 500.5,-492 500.5,-530"/>
<text text-anchor="middle" x="456.5" y="-514.8" font-family="Times,serif" font-size="14.00">roo_locale</text>
<text text-anchor="middle" x="456.5" y="-499.8" font-family="Times,serif" font-size="14.00">1.1.2</text>
</g>
<!-- roo_logging&#45;&gt;roo_backport -->
<g id="edge17" class="edge">
<title>roo_logging&#45;&gt;roo_backport</title>
<path fill="none" stroke="black" d="M773.35,-248.45C770.36,-247.6 767.4,-246.78 764.5,-246 707.04,-230.56 641.03,-215.39 593.46,-204.91"/>
<polygon fill="black" stroke="black" points="594.12,-201.47 583.6,-202.74 592.62,-208.31 594.12,-201.47"/>
</g>
<!-- roo_logging&#45;&gt;roo_flags -->
<g id="edge18" class="edge">
<title>roo_logging&#45;&gt;roo_flags</title>
<path fill="none" stroke="black" d="M821.77,-245.96C821,-237.88 820.06,-228.18 819.2,-219.18"/>
<polygon fill="black" stroke="black" points="822.67,-218.71 818.23,-209.09 815.71,-219.38 822.67,-218.71"/>
</g>
<!-- roo_threads -->
<g id="node22" class="node">
<title>roo_threads</title>
<polygon fill="#b1dbab" stroke="red" points="745,-209 644,-209 644,-171 745,-171 745,-209"/>
<text text-anchor="middle" x="694.5" y="-193.8" font-family="Times,serif" font-size="14.00">roo_threads</text>
<text text-anchor="middle" x="694.5" y="-178.8" font-family="Times,serif" font-size="14.00">1.2.3</text>
</g>
<!-- roo_logging&#45;&gt;roo_threads -->
<g id="edge19" class="edge">
<title>roo_logging&#45;&gt;roo_threads</title>
<path fill="none" stroke="black" d="M791.61,-245.96C774.71,-236.39 753.76,-224.53 735.64,-214.28"/>
<polygon fill="black" stroke="black" points="736.89,-210.97 726.47,-209.09 733.45,-217.06 736.89,-210.97"/>
</g>
<!-- roo_monitoring -->
<g id="node15" class="node">
<title>roo_monitoring</title>
<polygon fill="#b1dbab" stroke="black" points="249,-455 124,-455 124,-417 249,-417 249,-455"/>
<text text-anchor="middle" x="186.5" y="-439.8" font-family="Times,serif" font-size="14.00">roo_monitoring</text>
<text text-anchor="middle" x="186.5" y="-424.8" font-family="Times,serif" font-size="14.00">1.1.1</text>
</g>
<!-- roo_monitoring&#45;&gt;roo_collections -->
<g id="edge20" class="edge">
<title>roo_monitoring&#45;&gt;roo_collections</title>
<path fill="none" stroke="black" d="M196.47,-416.93C204.54,-403.93 217.09,-387.01 232.5,-377 253.03,-363.66 278.25,-355.26 301.6,-349.98"/>
<polygon fill="black" stroke="black" points="302.41,-353.38 311.47,-347.89 300.96,-346.53 302.41,-353.38"/>
</g>
<!-- roo_monitoring&#45;&gt;roo_io -->
<g id="edge21" class="edge">
<title>roo_monitoring&#45;&gt;roo_io</title>
<path fill="none" stroke="black" d="M230.95,-416.98C263.17,-404.44 308.01,-388.05 348.5,-377 389.54,-365.8 402,-372.01 442.5,-359 442.6,-358.97 442.7,-358.94 442.79,-358.91"/>
<polygon fill="black" stroke="black" points="443.81,-362.26 451.99,-355.52 441.39,-355.69 443.81,-362.26"/>
</g>
<!-- roo_onewire -->
<g id="node16" class="node">
<title>roo_onewire</title>
<polygon fill="#b1dbab" stroke="black" points="762.5,-530 658.5,-530 658.5,-492 762.5,-492 762.5,-530"/>
<text text-anchor="middle" x="710.5" y="-514.8" font-family="Times,serif" font-size="14.00">roo_onewire</text>
<text text-anchor="middle" x="710.5" y="-499.8" font-family="Times,serif" font-size="14.00">2.0.9</text>
</g>
<!-- roo_onewire&#45;&gt;roo_quantity -->
<g id="edge23" class="edge">
<title>roo_onewire&#45;&gt;roo_quantity</title>
<path fill="none" stroke="black" d="M726.81,-491.96C734.83,-483.09 744.62,-472.26 753.39,-462.56"/>
<polygon fill="black" stroke="black" points="756.03,-464.86 760.14,-455.09 750.84,-460.16 756.03,-464.86"/>
</g>
<!-- roo_onewire&#45;&gt;roo_scheduler -->
<g id="edge22" class="edge">
<title>roo_onewire&#45;&gt;roo_scheduler</title>
<path fill="none" stroke="black" d="M694.68,-491.96C686.99,-483.18 677.6,-472.48 669.17,-462.85"/>
<polygon fill="black" stroke="black" points="671.58,-460.3 662.36,-455.09 666.32,-464.92 671.58,-460.3"/>
</g>
<!-- roo_powersafefs -->
<g id="node17" class="node">
<title>roo_powersafefs</title>
<polygon fill="khaki" stroke="black" points="755,-284 622,-284 622,-246 755,-246 755,-284"/>
<text text-anchor="middle" x="688.5" y="-268.8" font-family="Times,serif" font-size="14.00">roo_powersafefs</text>
<text text-anchor="middle" x="688.5" y="-253.8" font-family="Times,serif" font-size="14.00">1.0.1</text>
</g>
<!-- roo_powersafefs&#45;&gt;roo_threads -->
<g id="edge24" class="edge">
<title>roo_powersafefs&#45;&gt;roo_threads</title>
<path fill="none" stroke="black" d="M689.98,-245.96C690.65,-237.88 691.44,-228.18 692.18,-219.18"/>
<polygon fill="black" stroke="black" points="695.68,-219.34 693.01,-209.09 688.71,-218.77 695.68,-219.34"/>
</g>
<!-- roo_prefs -->
<g id="node18" class="node">
<title>roo_prefs</title>
<polygon fill="#b1dbab" stroke="black" points="864,-530 781,-530 781,-492 864,-492 864,-530"/>
<text text-anchor="middle" x="822.5" y="-514.8" font-family="Times,serif" font-size="14.00">roo_prefs</text>
<text text-anchor="middle" x="822.5" y="-499.8" font-family="Times,serif" font-size="14.00">1.2.10</text>
</g>
<!-- roo_prefs&#45;&gt;roo_logging -->
<g id="edge25" class="edge">
<title>roo_prefs&#45;&gt;roo_logging</title>
<path fill="none" stroke="black" d="M829.57,-491.99C833.34,-481.4 837.59,-467.65 839.5,-455 848.07,-398.25 837.55,-331.16 829.97,-294.12"/>
<polygon fill="black" stroke="black" points="833.33,-293.13 827.83,-284.07 826.49,-294.58 833.33,-293.13"/>
</g>
<!-- roo_prefs&#45;&gt;roo_scheduler -->
<g id="edge26" class="edge">
<title>roo_prefs&#45;&gt;roo_scheduler</title>
<path fill="none" stroke="black" d="M780.79,-492.7C756.44,-482.6 725.47,-469.76 699.41,-458.95"/>
<polygon fill="black" stroke="black" points="700.63,-455.66 690.06,-455.07 697.95,-462.13 700.63,-455.66"/>
</g>
<!-- roo_quantity&#45;&gt;roo_logging -->
<g id="edge27" class="edge">
<title>roo_quantity&#45;&gt;roo_logging</title>
<path fill="none" stroke="black" d="M781.53,-416.91C789.71,-387.51 805.94,-329.13 815.65,-294.23"/>
<polygon fill="black" stroke="black" points="819.13,-294.78 818.44,-284.21 812.38,-292.91 819.13,-294.78"/>
</g>
<!-- roo_scheduler&#45;&gt;roo_collections -->
<g id="edge28" class="edge">
<title>roo_scheduler&#45;&gt;roo_collections</title>
<path fill="none" stroke="black" d="M588.36,-427.7C538.63,-420.88 471.29,-410.11 446.5,-399 428.57,-390.96 411.14,-377.66 397.71,-365.82"/>
<polygon fill="black" stroke="black" points="400.04,-363.21 390.28,-359.07 395.33,-368.39 400.04,-363.21"/>
</g>
<!-- roo_scheduler&#45;&gt;roo_threads -->
<g id="edge29" class="edge">
<title>roo_scheduler&#45;&gt;roo_threads</title>
<path fill="none" stroke="black" d="M636.16,-416.89C617.62,-381.79 583.33,-302.96 613.5,-246 620.29,-233.19 631.54,-222.81 643.54,-214.66"/>
<polygon fill="black" stroke="black" points="645.75,-217.41 652.35,-209.12 642.02,-211.48 645.75,-217.41"/>
</g>
<!-- roo_testing -->
<g id="node21" class="node">
<title>roo_testing</title>
<polygon fill="#b1dbab" stroke="black" points="929,-38 832,-38 832,0 929,0 929,-38"/>
<text text-anchor="middle" x="880.5" y="-22.8" font-family="Times,serif" font-size="14.00">roo_testing</text>
<text text-anchor="middle" x="880.5" y="-7.8" font-family="Times,serif" font-size="14.00">1.3.4</text>
</g>
<!-- roo_time -->
<g id="node23" class="node">
<title>roo_time</title>
<polygon fill="#b1dbab" stroke="red" points="920,-134 841,-134 841,-96 920,-96 920,-134"/>
<text text-anchor="middle" x="880.5" y="-118.8" font-family="Times,serif" font-size="14.00">roo_time</text>
<text text-anchor="middle" x="880.5" y="-103.8" font-family="Times,serif" font-size="14.00">1.4.3</text>
</g>
<!-- roo_threads&#45;&gt;roo_time -->
<g id="edge30" class="edge">
<title>roo_threads&#45;&gt;roo_time</title>
<path fill="none" stroke="black" d="M740.48,-170.96C768,-160.15 802.98,-146.43 831.09,-135.39"/>
<polygon fill="black" stroke="black" points="832.69,-138.52 840.72,-131.61 830.14,-132.01 832.69,-138.52"/>
</g>
<!-- roo_time&#45;&gt;roo_testing -->
<g id="edge31" class="edge">
<title>roo_time&#45;&gt;roo_testing</title>
<path fill="none" stroke="red" d="M880.5,-95.88C880.5,-82.35 880.5,-63.62 880.5,-48.15"/>
<polygon fill="red" stroke="red" points="884,-48.07 880.5,-38.07 877,-48.07 884,-48.07"/>
<text text-anchor="middle" x="913.5" y="-70" font-family="Times,serif" font-size="10.00" fill="red">1.3.2</text>
<text text-anchor="middle" x="913.5" y="-59" font-family="Times,serif" font-size="10.00" fill="red">(latest: 1.3.4)</text>
</g>
<!-- roo_time_ds3231 -->
<g id="node24" class="node">
<title>roo_time_ds3231</title>
<polygon fill="#b1dbab" stroke="black" points="1012.5,-209 874.5,-209 874.5,-171 1012.5,-171 1012.5,-209"/>
<text text-anchor="middle" x="943.5" y="-193.8" font-family="Times,serif" font-size="14.00">roo_time_ds3231</text>
<text text-anchor="middle" x="943.5" y="-178.8" font-family="Times,serif" font-size="14.00">1.1.6</text>
</g>
<!-- roo_time_ds3231&#45;&gt;roo_time -->
<g id="edge32" class="edge">
<title>roo_time_ds3231&#45;&gt;roo_time</title>
<path fill="none" stroke="black" d="M927.93,-170.96C920.35,-162.18 911.12,-151.48 902.81,-141.85"/>
<polygon fill="black" stroke="black" points="905.3,-139.37 896.11,-134.09 900,-143.95 905.3,-139.37"/>
</g>
<!-- roo_transceivers&#45;&gt;roo_prefs -->
<g id="edge33" class="edge">
<title>roo_transceivers&#45;&gt;roo_prefs</title>
<path fill="none" stroke="black" d="M828.96,-587.88C827.81,-574.35 826.21,-555.62 824.9,-540.15"/>
<polygon fill="black" stroke="black" points="828.37,-539.74 824.04,-530.07 821.4,-540.33 828.37,-539.74"/>
</g>
<!-- roo_transport -->
<g id="node26" class="node">
<title>roo_transport</title>
<polygon fill="#b1dbab" stroke="red" points="503.5,-455 389.5,-455 389.5,-417 503.5,-417 503.5,-455"/>
<text text-anchor="middle" x="446.5" y="-439.8" font-family="Times,serif" font-size="14.00">roo_transport</text>
<text text-anchor="middle" x="446.5" y="-424.8" font-family="Times,serif" font-size="14.00">1.1.2</text>
</g>
<!-- roo_transport&#45;&gt;roo_collections -->
<g id="edge34" class="edge">
<title>roo_transport&#45;&gt;roo_collections</title>
<path fill="none" stroke="black" d="M427.67,-416.9C422.24,-411.35 416.44,-405.09 411.5,-399 403.52,-389.16 395.56,-377.7 388.93,-367.58"/>
<polygon fill="black" stroke="black" points="391.83,-365.62 383.48,-359.1 385.95,-369.4 391.83,-365.62"/>
</g>
<!-- roo_transport&#45;&gt;roo_io -->
<g id="edge35" class="edge">
<title>roo_transport&#45;&gt;roo_io</title>
<path fill="none" stroke="red" d="M447.59,-416.93C448.78,-405.2 451.27,-389.76 456.5,-377 457.77,-373.9 459.34,-370.81 461.07,-367.8"/>
<polygon fill="red" stroke="red" points="464.16,-369.47 466.61,-359.16 458.27,-365.69 464.16,-369.47"/>
<text text-anchor="middle" x="489.5" y="-391" font-family="Times,serif" font-size="10.00" fill="red">2.1.5</text>
<text text-anchor="middle" x="489.5" y="-380" font-family="Times,serif" font-size="10.00" fill="red">(latest: 2.1.6)</text>
</g>
<!-- roo_wifi -->
<g id="node27" class="node">
<title>roo_wifi</title>
<polygon fill="khaki" stroke="red" points="744.5,-626 672.5,-626 672.5,-588 744.5,-588 744.5,-626"/>
<text text-anchor="middle" x="708.5" y="-610.8" font-family="Times,serif" font-size="14.00">roo_wifi</text>
<text text-anchor="middle" x="708.5" y="-595.8" font-family="Times,serif" font-size="14.00">1.1.4</text>
</g>
<!-- roo_wifi&#45;&gt;roo_prefs -->
<g id="edge36" class="edge">
<title>roo_wifi&#45;&gt;roo_prefs</title>
<path fill="none" stroke="red" d="M718.04,-587.97C725.34,-575.51 736.37,-559.21 749.5,-548 756.21,-542.27 764,-537.19 771.93,-532.78"/>
<polygon fill="red" stroke="red" points="773.66,-535.83 780.91,-528.1 770.42,-529.63 773.66,-535.83"/>
<text text-anchor="middle" x="785.5" y="-562" font-family="Times,serif" font-size="10.00" fill="red">1.2.9</text>
<text text-anchor="middle" x="785.5" y="-551" font-family="Times,serif" font-size="10.00" fill="red">(latest: 1.2.10)</text>
</g>
<!-- roo_windows&#45;&gt;roo_fonts_basic -->
<g id="edge37" class="edge">
<title>roo_windows&#45;&gt;roo_fonts_basic</title>
<path fill="none" stroke="black" d="M349.26,-587.88C346.09,-574.35 341.71,-555.62 338.09,-540.15"/>
<polygon fill="black" stroke="black" points="341.42,-539.01 335.73,-530.07 334.6,-540.6 341.42,-539.01"/>
</g>
<!-- roo_windows&#45;&gt;roo_fonts_material -->
<g id="edge38" class="edge">
<title>roo_windows&#45;&gt;roo_fonts_material</title>
<path fill="none" stroke="black" d="M319.18,-587.88C290.62,-572.79 249.78,-551.23 218.94,-534.94"/>
<polygon fill="black" stroke="black" points="220.19,-531.64 209.71,-530.07 216.92,-537.83 220.19,-531.64"/>
</g>
<!-- roo_windows&#45;&gt;roo_icons -->
<g id="edge40" class="edge">
<title>roo_windows&#45;&gt;roo_icons</title>
<path fill="none" stroke="black" d="M298.75,-591.2C247.71,-577.17 169.32,-554.98 92.96,-530.39"/>
<polygon fill="black" stroke="black" points="93.77,-526.98 83.17,-527.23 91.61,-533.64 93.77,-526.98"/>
</g>
<!-- roo_windows&#45;&gt;roo_locale -->
<g id="edge39" class="edge">
<title>roo_windows&#45;&gt;roo_locale</title>
<path fill="none" stroke="black" d="M373.36,-587.88C389.18,-573.44 411.49,-553.07 429.02,-537.07"/>
<polygon fill="black" stroke="black" points="431.67,-539.39 436.7,-530.07 426.96,-534.22 431.67,-539.39"/>
</g>
<!-- roo_windows&#45;&gt;roo_scheduler -->
<g id="edge41" class="edge">
<title>roo_windows&#45;&gt;roo_scheduler</title>
<path fill="none" stroke="black" d="M408.09,-602.81C464.2,-596.8 550.96,-579.52 606.5,-530 625.47,-513.09 635.77,-485.62 641.14,-464.91"/>
<polygon fill="black" stroke="black" points="644.57,-465.61 643.46,-455.07 637.76,-464 644.57,-465.61"/>
</g>
<!-- roo_windows_transceivers -->
<g id="node29" class="node">
<title>roo_windows_transceivers</title>
<polygon fill="khaki" stroke="red" points="718.5,-722 514.5,-722 514.5,-684 718.5,-684 718.5,-722"/>
<text text-anchor="middle" x="616.5" y="-706.8" font-family="Times,serif" font-size="14.00">roo_windows_transceivers</text>
<text text-anchor="middle" x="616.5" y="-691.8" font-family="Times,serif" font-size="14.00">1.0.0</text>
</g>
<!-- roo_windows_transceivers&#45;&gt;roo_transceivers -->
<g id="edge42" class="edge">
<title>roo_windows_transceivers&#45;&gt;roo_transceivers</title>
<path fill="none" stroke="black" d="M657.51,-683.99C692.42,-668.65 742.7,-646.57 780.06,-630.15"/>
<polygon fill="black" stroke="black" points="781.52,-633.34 789.27,-626.11 778.7,-626.93 781.52,-633.34"/>
</g>
<!-- roo_windows_transceivers&#45;&gt;roo_windows -->
<g id="edge43" class="edge">
<title>roo_windows_transceivers&#45;&gt;roo_windows</title>
<path fill="none" stroke="red" d="M590.47,-683.89C570.92,-671.06 543.06,-654.35 516.5,-644 485.2,-631.81 448.84,-623.28 418.4,-617.59"/>
<polygon fill="red" stroke="red" points="418.79,-614.1 408.33,-615.77 417.54,-620.99 418.79,-614.1"/>
<text text-anchor="middle" x="592.5" y="-658" font-family="Times,serif" font-size="10.00" fill="red">1.4.2</text>
<text text-anchor="middle" x="592.5" y="-647" font-family="Times,serif" font-size="10.00" fill="red">(latest: 1.5.0)</text>
</g>
<!-- roo_windows_wifi -->
<g id="node30" class="node">
<title>roo_windows_wifi</title>
<polygon fill="khaki" stroke="red" points="494,-722 353,-722 353,-684 494,-684 494,-722"/>
<text text-anchor="middle" x="423.5" y="-706.8" font-family="Times,serif" font-size="14.00">roo_windows_wifi</text>
<text text-anchor="middle" x="423.5" y="-691.8" font-family="Times,serif" font-size="14.00">1.1.3</text>
</g>
<!-- roo_windows_wifi&#45;&gt;roo_wifi -->
<g id="edge44" class="edge">
<title>roo_windows_wifi&#45;&gt;roo_wifi</title>
<path fill="none" stroke="red" d="M425.81,-683.94C428.48,-670.77 434.22,-653.62 446.5,-644 479.08,-618.45 595.79,-611.04 661.92,-608.88"/>
<polygon fill="red" stroke="red" points="662.19,-612.37 672.08,-608.58 661.98,-605.38 662.19,-612.37"/>
<text text-anchor="middle" x="479.5" y="-658" font-family="Times,serif" font-size="10.00" fill="red">1.1.3</text>
<text text-anchor="middle" x="479.5" y="-647" font-family="Times,serif" font-size="10.00" fill="red">(latest: 1.1.4)</text>
</g>
<!-- roo_windows_wifi&#45;&gt;roo_windows -->
<g id="edge45" class="edge">
<title>roo_windows_wifi&#45;&gt;roo_windows</title>
<path fill="none" stroke="red" d="M380.24,-683.85C372.99,-679.03 366.28,-673.13 361.5,-666 355.7,-657.35 353.26,-646.34 352.42,-636.24"/>
<polygon fill="red" stroke="red" points="355.92,-636.05 352.05,-626.18 348.92,-636.31 355.92,-636.05"/>
<text text-anchor="middle" x="394.5" y="-658" font-family="Times,serif" font-size="10.00" fill="red">1.4.2</text>
<text text-anchor="middle" x="394.5" y="-647" font-family="Times,serif" font-size="10.00" fill="red">(latest: 1.5.0)</text>
</g>
</g>
</svg>
