<?xml version="1.0" encoding="UTF-8" standalone="no"?>
<!DOCTYPE svg PUBLIC "-//W3C//DTD SVG 1.1//EN"
 "http://www.w3.org/Graphics/SVG/1.1/DTD/svg11.dtd">
<!-- Generated by graphviz version 2.42.4 (0)
 -->
<!-- Title: dependencies Pages: 1 -->
<svg width="884pt" height="793pt"
 viewBox="0.00 0.00 884.00 793.00" xmlns="http://www.w3.org/2000/svg" xmlns:xlink="http://www.w3.org/1999/xlink">
<g id="graph0" class="graph" transform="scale(1 1) rotate(0) translate(4 789)">
<title>dependencies</title>
<polygon fill="white" stroke="transparent" points="-4,4 -4,-789 880,-789 880,4 -4,4"/>
<!-- roo_backport -->
<g id="node1" class="node">
<title>roo_backport</title>
<polygon fill="#b1dbab" stroke="black" points="556,-209 446,-209 446,-171 556,-171 556,-209"/>
<text text-anchor="middle" x="501" y="-193.8" font-family="Times,serif" font-size="14.00">roo_backport</text>
<text text-anchor="middle" x="501" y="-178.8" font-family="Times,serif" font-size="14.00">1.2.2</text>
</g>
<!-- roo_blink -->
<g id="node2" class="node">
<title>roo_blink</title>
<polygon fill="plum" stroke="red" points="220,-593 138,-593 138,-555 220,-555 220,-593"/>
<text text-anchor="middle" x="179" y="-577.8" font-family="Times,serif" font-size="14.00">roo_blink</text>
<text text-anchor="middle" x="179" y="-562.8" font-family="Times,serif" font-size="14.00">1.0.5</text>
</g>
<!-- roo_logging -->
<g id="node12" class="node">
<title>roo_logging</title>
<polygon fill="#b1dbab" stroke="black" points="392,-305 292,-305 292,-267 392,-267 392,-305"/>
<text text-anchor="middle" x="342" y="-289.8" font-family="Times,serif" font-size="14.00">roo_logging</text>
<text text-anchor="middle" x="342" y="-274.8" font-family="Times,serif" font-size="14.00">1.5.4</text>
</g>
<!-- roo_blink&#45;&gt;roo_logging -->
<g id="edge1" class="edge">
<title>roo_blink&#45;&gt;roo_logging</title>
<path fill="none" stroke="red" d="M184.59,-554.65C191.94,-531.63 205.93,-491.25 223,-459 252,-404.2 295.25,-345.99 320.85,-313.29"/>
<polygon fill="red" stroke="red" points="323.82,-315.18 327.26,-305.16 318.32,-310.84 323.82,-315.18"/>
<text text-anchor="middle" x="278" y="-433" font-family="Times,serif" font-size="10.00" fill="red">1.5.3</text>
<text text-anchor="middle" x="278" y="-422" font-family="Times,serif" font-size="10.00" fill="red">(latest: 1.5.4)</text>
</g>
<!-- roo_scheduler -->
<g id="node18" class="node">
<title>roo_scheduler</title>
<polygon fill="plum" stroke="red" points="348,-497 232,-497 232,-459 348,-459 348,-497"/>
<text text-anchor="middle" x="290" y="-481.8" font-family="Times,serif" font-size="14.00">roo_scheduler</text>
<text text-anchor="middle" x="290" y="-466.8" font-family="Times,serif" font-size="14.00">2.1.7</text>
</g>
<!-- roo_blink&#45;&gt;roo_scheduler -->
<g id="edge2" class="edge">
<title>roo_blink&#45;&gt;roo_scheduler</title>
<path fill="none" stroke="black" d="M203.69,-554.69C210.98,-549.13 218.89,-542.92 226,-537 238.54,-526.55 251.99,-514.49 263.31,-504.09"/>
<polygon fill="black" stroke="black" points="265.8,-506.56 270.76,-497.2 261.05,-501.42 265.8,-506.56"/>
</g>
<!-- roo_collections -->
<g id="node3" class="node">
<title>roo_collections</title>
<polygon fill="plum" stroke="red" points="700,-401 578,-401 578,-363 700,-363 700,-401"/>
<text text-anchor="middle" x="639" y="-385.8" font-family="Times,serif" font-size="14.00">roo_collections</text>
<text text-anchor="middle" x="639" y="-370.8" font-family="Times,serif" font-size="14.00">1.4.1</text>
</g>
<!-- roo_collections&#45;&gt;roo_backport -->
<g id="edge3" class="edge">
<title>roo_collections&#45;&gt;roo_backport</title>
<path fill="none" stroke="red" d="M625.77,-362.78C601.25,-329.02 548.65,-256.61 520.21,-217.45"/>
<polygon fill="red" stroke="red" points="522.9,-215.2 514.19,-209.16 517.24,-219.31 522.9,-215.2"/>
<text text-anchor="middle" x="617" y="-289" font-family="Times,serif" font-size="10.00" fill="red">1.2.1</text>
<text text-anchor="middle" x="617" y="-278" font-family="Times,serif" font-size="10.00" fill="red">(latest: 1.2.2)</text>
</g>
<!-- roo_comms -->
<g id="node4" class="node">
<title>roo_comms</title>
<polygon fill="plum" stroke="red" points="343.5,-785 246.5,-785 246.5,-747 343.5,-747 343.5,-785"/>
<text text-anchor="middle" x="295" y="-769.8" font-family="Times,serif" font-size="14.00">roo_comms</text>
<text text-anchor="middle" x="295" y="-754.8" font-family="Times,serif" font-size="14.00">1.1.3</text>
</g>
<!-- roo_comms&#45;&gt;roo_blink -->
<g id="edge4" class="edge">
<title>roo_comms&#45;&gt;roo_blink</title>
<path fill="none" stroke="red" d="M283.88,-746.78C263.35,-713.16 219.43,-641.22 195.45,-601.94"/>
<polygon fill="red" stroke="red" points="198.29,-599.87 190.09,-593.16 192.31,-603.52 198.29,-599.87"/>
<text text-anchor="middle" x="282" y="-673" font-family="Times,serif" font-size="10.00" fill="red">1.0.4</text>
<text text-anchor="middle" x="282" y="-662" font-family="Times,serif" font-size="10.00" fill="red">(latest: 1.0.5)</text>
</g>
<!-- roo_control -->
<g id="node5" class="node">
<title>roo_control</title>
<polygon fill="plum" stroke="red" points="119.5,-593 22.5,-593 22.5,-555 119.5,-555 119.5,-593"/>
<text text-anchor="middle" x="71" y="-577.8" font-family="Times,serif" font-size="14.00">roo_control</text>
<text text-anchor="middle" x="71" y="-562.8" font-family="Times,serif" font-size="14.00">1.2.4</text>
</g>
<!-- roo_comms&#45;&gt;roo_control -->
<g id="edge5" class="edge">
<title>roo_comms&#45;&gt;roo_control</title>
<path fill="none" stroke="red" d="M250.94,-746.87C221.98,-733.59 184.34,-713.62 156,-689 126.79,-663.62 101.48,-626.58 86.25,-601.68"/>
<polygon fill="red" stroke="red" points="89.25,-599.87 81.1,-593.09 83.24,-603.47 89.25,-599.87"/>
<text text-anchor="middle" x="189" y="-673" font-family="Times,serif" font-size="10.00" fill="red">1.2.3</text>
<text text-anchor="middle" x="189" y="-662" font-family="Times,serif" font-size="10.00" fill="red">(latest: 1.2.4)</text>
</g>
<!-- roo_io -->
<g id="node10" class="node">
<title>roo_io</title>
<polygon fill="plum" stroke="red" points="473.5,-401 414.5,-401 414.5,-363 473.5,-363 473.5,-401"/>
<text text-anchor="middle" x="444" y="-385.8" font-family="Times,serif" font-size="14.00">roo_io</text>
<text text-anchor="middle" x="444" y="-370.8" font-family="Times,serif" font-size="14.00">2.1.4</text>
</g>
<!-- roo_comms&#45;&gt;roo_io -->
<g id="edge6" class="edge">
<title>roo_comms&#45;&gt;roo_io</title>
<path fill="none" stroke="red" d="M325.91,-746.79C349.5,-730.32 378,-703.66 378,-671 378,-671 378,-671 378,-525 378,-481.34 403.98,-436.56 423.34,-409.26"/>
<polygon fill="red" stroke="red" points="426.28,-411.18 429.35,-401.04 420.63,-407.05 426.28,-411.18"/>
<text text-anchor="middle" x="411" y="-577" font-family="Times,serif" font-size="10.00" fill="red">2.1.1</text>
<text text-anchor="middle" x="411" y="-566" font-family="Times,serif" font-size="10.00" fill="red">(latest: 2.1.4)</text>
</g>
<!-- roo_transceivers -->
<g id="node23" class="node">
<title>roo_transceivers</title>
<polygon fill="plum" stroke="red" points="541.5,-689 406.5,-689 406.5,-651 541.5,-651 541.5,-689"/>
<text text-anchor="middle" x="474" y="-673.8" font-family="Times,serif" font-size="14.00">roo_transceivers</text>
<text text-anchor="middle" x="474" y="-658.8" font-family="Times,serif" font-size="14.00">1.1.4</text>
</g>
<!-- roo_comms&#45;&gt;roo_transceivers -->
<g id="edge7" class="edge">
<title>roo_comms&#45;&gt;roo_transceivers</title>
<path fill="none" stroke="black" d="M343.93,-749.64C359.66,-743.97 376.91,-736.96 392,-729 409.92,-719.55 428.47,-706.72 443.38,-695.54"/>
<polygon fill="black" stroke="black" points="445.88,-698.03 451.71,-689.18 441.63,-692.47 445.88,-698.03"/>
</g>
<!-- roo_quantity -->
<g id="node17" class="node">
<title>roo_quantity</title>
<polygon fill="plum" stroke="red" points="161.5,-497 54.5,-497 54.5,-459 161.5,-459 161.5,-497"/>
<text text-anchor="middle" x="108" y="-481.8" font-family="Times,serif" font-size="14.00">roo_quantity</text>
<text text-anchor="middle" x="108" y="-466.8" font-family="Times,serif" font-size="14.00">1.1.7</text>
</g>
<!-- roo_control&#45;&gt;roo_quantity -->
<g id="edge8" class="edge">
<title>roo_control&#45;&gt;roo_quantity</title>
<path fill="none" stroke="black" d="M78.13,-554.88C83.51,-541.22 90.97,-522.26 97.09,-506.71"/>
<polygon fill="black" stroke="black" points="100.48,-507.66 100.89,-497.07 93.97,-505.09 100.48,-507.66"/>
</g>
<!-- roo_control&#45;&gt;roo_scheduler -->
<g id="edge9" class="edge">
<title>roo_control&#45;&gt;roo_scheduler</title>
<path fill="none" stroke="black" d="M112.97,-554.99C148.69,-539.65 200.15,-517.57 238.38,-501.15"/>
<polygon fill="black" stroke="black" points="239.99,-504.27 247.8,-497.11 237.23,-497.84 239.99,-504.27"/>
</g>
<!-- roo_dashboard -->
<g id="node6" class="node">
<title>roo_dashboard</title>
<polygon fill="khaki" stroke="red" points="876,-785 754,-785 754,-747 876,-747 876,-785"/>
<text text-anchor="middle" x="815" y="-769.8" font-family="Times,serif" font-size="14.00">roo_dashboard</text>
<text text-anchor="middle" x="815" y="-754.8" font-family="Times,serif" font-size="14.00">1.0.1</text>
</g>
<!-- roo_windows -->
<g id="node26" class="node">
<title>roo_windows</title>
<polygon fill="plum" stroke="red" points="765.5,-689 656.5,-689 656.5,-651 765.5,-651 765.5,-689"/>
<text text-anchor="middle" x="711" y="-673.8" font-family="Times,serif" font-size="14.00">roo_windows</text>
<text text-anchor="middle" x="711" y="-658.8" font-family="Times,serif" font-size="14.00">1.4.2</text>
</g>
<!-- roo_dashboard&#45;&gt;roo_windows -->
<g id="edge10" class="edge">
<title>roo_dashboard&#45;&gt;roo_windows</title>
<path fill="none" stroke="red" d="M794.95,-746.88C778.98,-732.44 756.44,-712.07 738.74,-696.07"/>
<polygon fill="red" stroke="red" points="740.76,-693.18 730.99,-689.07 736.06,-698.37 740.76,-693.18"/>
<text text-anchor="middle" x="805" y="-721" font-family="Times,serif" font-size="10.00" fill="red">1.4.1</text>
<text text-anchor="middle" x="805" y="-710" font-family="Times,serif" font-size="10.00" fill="red">(latest: 1.4.2)</text>
</g>
<!-- roo_display -->
<g id="node7" class="node">
<title>roo_display</title>
<polygon fill="plum" stroke="red" points="674,-497 576,-497 576,-459 674,-459 674,-497"/>
<text text-anchor="middle" x="625" y="-481.8" font-family="Times,serif" font-size="14.00">roo_display</text>
<text text-anchor="middle" x="625" y="-466.8" font-family="Times,serif" font-size="14.00">2.3.2</text>
</g>
<!-- roo_display&#45;&gt;roo_collections -->
<g id="edge11" class="edge">
<title>roo_display&#45;&gt;roo_collections</title>
<path fill="none" stroke="red" d="M640.84,-458.72C644.58,-453.36 648.04,-447.24 650,-441 653.05,-431.27 652.07,-420.35 649.73,-410.63"/>
<polygon fill="red" stroke="red" points="653.09,-409.64 646.91,-401.03 646.37,-411.61 653.09,-409.64"/>
<text text-anchor="middle" x="684" y="-433" font-family="Times,serif" font-size="10.00" fill="red">1.4.0</text>
<text text-anchor="middle" x="684" y="-422" font-family="Times,serif" font-size="10.00" fill="red">(latest: 1.4.1)</text>
</g>
<!-- roo_display&#45;&gt;roo_io -->
<g id="edge12" class="edge">
<title>roo_display&#45;&gt;roo_io</title>
<path fill="none" stroke="red" d="M575.6,-461.44C561.61,-456 546.73,-449.16 534,-441 522.09,-433.37 522.45,-427.31 511,-419 502.26,-412.65 492.25,-406.68 482.69,-401.5"/>
<polygon fill="red" stroke="red" points="484.2,-398.33 473.72,-396.78 480.94,-404.53 484.2,-398.33"/>
<text text-anchor="middle" x="567" y="-433" font-family="Times,serif" font-size="10.00" fill="red">2.1.2</text>
<text text-anchor="middle" x="567" y="-422" font-family="Times,serif" font-size="10.00" fill="red">(latest: 2.1.4)</text>
</g>
<!-- roo_flags -->
<g id="node8" class="node">
<title>roo_flags</title>
<polygon fill="#b1dbab" stroke="black" points="382,-209 302,-209 302,-171 382,-171 382,-209"/>
<text text-anchor="middle" x="342" y="-193.8" font-family="Times,serif" font-size="14.00">roo_flags</text>
<text text-anchor="middle" x="342" y="-178.8" font-family="Times,serif" font-size="14.00">1.2.2</text>
</g>
<!-- roo_icons -->
<g id="node9" class="node">
<title>roo_icons</title>
<polygon fill="plum" stroke="red" points="752.5,-593 669.5,-593 669.5,-555 752.5,-555 752.5,-593"/>
<text text-anchor="middle" x="711" y="-577.8" font-family="Times,serif" font-size="14.00">roo_icons</text>
<text text-anchor="middle" x="711" y="-562.8" font-family="Times,serif" font-size="14.00">1.2.1</text>
</g>
<!-- roo_icons&#45;&gt;roo_display -->
<g id="edge13" class="edge">
<title>roo_icons&#45;&gt;roo_display</title>
<path fill="none" stroke="red" d="M694.42,-554.88C681.33,-540.57 662.91,-520.44 648.34,-504.51"/>
<polygon fill="red" stroke="red" points="650.86,-502.08 641.53,-497.07 645.7,-506.81 650.86,-502.08"/>
<text text-anchor="middle" x="708" y="-529" font-family="Times,serif" font-size="10.00" fill="red">2.3.1</text>
<text text-anchor="middle" x="708" y="-518" font-family="Times,serif" font-size="10.00" fill="red">(latest: 2.3.2)</text>
</g>
<!-- roo_io&#45;&gt;roo_logging -->
<g id="edge14" class="edge">
<title>roo_io&#45;&gt;roo_logging</title>
<path fill="none" stroke="red" d="M424.33,-362.88C408.67,-348.44 386.57,-328.07 369.21,-312.07"/>
<polygon fill="red" stroke="red" points="371.33,-309.27 361.61,-305.07 366.59,-314.42 371.33,-309.27"/>
<text text-anchor="middle" x="436" y="-337" font-family="Times,serif" font-size="10.00" fill="red">1.5.3</text>
<text text-anchor="middle" x="436" y="-326" font-family="Times,serif" font-size="10.00" fill="red">(latest: 1.5.4)</text>
</g>
<!-- roo_locale -->
<g id="node11" class="node">
<title>roo_locale</title>
<polygon fill="plum" stroke="black" points="859,-593 771,-593 771,-555 859,-555 859,-593"/>
<text text-anchor="middle" x="815" y="-577.8" font-family="Times,serif" font-size="14.00">roo_locale</text>
<text text-anchor="middle" x="815" y="-562.8" font-family="Times,serif" font-size="14.00">1.1.1</text>
</g>
<!-- roo_logging&#45;&gt;roo_backport -->
<g id="edge15" class="edge">
<title>roo_logging&#45;&gt;roo_backport</title>
<path fill="none" stroke="black" d="M372.66,-266.88C397.95,-251.92 434.02,-230.6 461.48,-214.36"/>
<polygon fill="black" stroke="black" points="463.61,-217.17 470.44,-209.07 460.05,-211.14 463.61,-217.17"/>
</g>
<!-- roo_logging&#45;&gt;roo_flags -->
<g id="edge16" class="edge">
<title>roo_logging&#45;&gt;roo_flags</title>
<path fill="none" stroke="black" d="M342,-266.88C342,-253.35 342,-234.62 342,-219.15"/>
<polygon fill="black" stroke="black" points="345.5,-219.07 342,-209.07 338.5,-219.07 345.5,-219.07"/>
</g>
<!-- roo_threads -->
<g id="node20" class="node">
<title>roo_threads</title>
<polygon fill="#b1dbab" stroke="black" points="257.5,-209 156.5,-209 156.5,-171 257.5,-171 257.5,-209"/>
<text text-anchor="middle" x="207" y="-193.8" font-family="Times,serif" font-size="14.00">roo_threads</text>
<text text-anchor="middle" x="207" y="-178.8" font-family="Times,serif" font-size="14.00">1.2.2</text>
</g>
<!-- roo_logging&#45;&gt;roo_threads -->
<g id="edge17" class="edge">
<title>roo_logging&#45;&gt;roo_threads</title>
<path fill="none" stroke="black" d="M324.27,-266.92C311.75,-254.75 294.2,-238.82 277,-227 270.35,-222.43 263.04,-218.05 255.73,-214.02"/>
<polygon fill="black" stroke="black" points="256.99,-210.73 246.52,-209.12 253.7,-216.91 256.99,-210.73"/>
</g>
<!-- roo_monitoring -->
<g id="node13" class="node">
<title>roo_monitoring</title>
<polygon fill="plum" stroke="red" points="817.5,-497 692.5,-497 692.5,-459 817.5,-459 817.5,-497"/>
<text text-anchor="middle" x="755" y="-481.8" font-family="Times,serif" font-size="14.00">roo_monitoring</text>
<text text-anchor="middle" x="755" y="-466.8" font-family="Times,serif" font-size="14.00">1.0.0</text>
</g>
<!-- roo_monitoring&#45;&gt;roo_collections -->
<g id="edge18" class="edge">
<title>roo_monitoring&#45;&gt;roo_collections</title>
<path fill="none" stroke="black" d="M747.9,-458.76C742.23,-446.19 733.21,-429.86 721,-419 715.49,-414.1 709.21,-409.78 702.63,-405.99"/>
<polygon fill="black" stroke="black" points="703.98,-402.75 693.51,-401.15 700.7,-408.93 703.98,-402.75"/>
</g>
<!-- roo_monitoring&#45;&gt;roo_io -->
<g id="edge19" class="edge">
<title>roo_monitoring&#45;&gt;roo_io</title>
<path fill="none" stroke="black" d="M695.67,-458.92C679.42,-453.56 661.9,-447.4 646,-441 624.98,-432.54 621.39,-426.48 600,-419 561.29,-405.46 515.39,-395.57 483.44,-389.62"/>
<polygon fill="black" stroke="black" points="484.05,-386.17 473.58,-387.83 482.79,-393.06 484.05,-386.17"/>
</g>
<!-- roo_onewire -->
<g id="node14" class="node">
<title>roo_onewire</title>
<polygon fill="plum" stroke="red" points="342,-593 238,-593 238,-555 342,-555 342,-593"/>
<text text-anchor="middle" x="290" y="-577.8" font-family="Times,serif" font-size="14.00">roo_onewire</text>
<text text-anchor="middle" x="290" y="-562.8" font-family="Times,serif" font-size="14.00">2.0.8</text>
</g>
<!-- roo_onewire&#45;&gt;roo_quantity -->
<g id="edge21" class="edge">
<title>roo_onewire&#45;&gt;roo_quantity</title>
<path fill="none" stroke="black" d="M254.91,-554.88C225.58,-539.73 183.59,-518.04 152.01,-501.73"/>
<polygon fill="black" stroke="black" points="153.47,-498.55 142.98,-497.07 150.26,-504.77 153.47,-498.55"/>
</g>
<!-- roo_onewire&#45;&gt;roo_scheduler -->
<g id="edge20" class="edge">
<title>roo_onewire&#45;&gt;roo_scheduler</title>
<path fill="none" stroke="black" d="M290,-554.88C290,-541.35 290,-522.62 290,-507.15"/>
<polygon fill="black" stroke="black" points="293.5,-507.07 290,-497.07 286.5,-507.07 293.5,-507.07"/>
</g>
<!-- roo_powersafefs -->
<g id="node15" class="node">
<title>roo_powersafefs</title>
<polygon fill="plum" stroke="red" points="273.5,-305 140.5,-305 140.5,-267 273.5,-267 273.5,-305"/>
<text text-anchor="middle" x="207" y="-289.8" font-family="Times,serif" font-size="14.00">roo_powersafefs</text>
<text text-anchor="middle" x="207" y="-274.8" font-family="Times,serif" font-size="14.00">1.0.0</text>
</g>
<!-- roo_powersafefs&#45;&gt;roo_threads -->
<g id="edge22" class="edge">
<title>roo_powersafefs&#45;&gt;roo_threads</title>
<path fill="none" stroke="red" d="M207,-266.88C207,-253.35 207,-234.62 207,-219.15"/>
<polygon fill="red" stroke="red" points="210.5,-219.07 207,-209.07 203.5,-219.07 210.5,-219.07"/>
<text text-anchor="middle" x="240" y="-241" font-family="Times,serif" font-size="10.00" fill="red">1.2.1</text>
<text text-anchor="middle" x="240" y="-230" font-family="Times,serif" font-size="10.00" fill="red">(latest: 1.2.2)</text>
</g>
<!-- roo_prefs -->
<g id="node16" class="node">
<title>roo_prefs</title>
<polygon fill="plum" stroke="red" points="545.5,-593 462.5,-593 462.5,-555 545.5,-555 545.5,-593"/>
<text text-anchor="middle" x="504" y="-577.8" font-family="Times,serif" font-size="14.00">roo_prefs</text>
<text text-anchor="middle" x="504" y="-562.8" font-family="Times,serif" font-size="14.00">1.2.8</text>
</g>
<!-- roo_prefs&#45;&gt;roo_logging -->
<g id="edge23" class="edge">
<title>roo_prefs&#45;&gt;roo_logging</title>
<path fill="none" stroke="red" d="M477.58,-554.93C446.53,-532.18 395.95,-490.08 370,-441 348.77,-400.86 343.33,-347.5 342.11,-315.29"/>
<polygon fill="red" stroke="red" points="345.6,-315.13 341.84,-305.22 338.61,-315.31 345.6,-315.13"/>
<text text-anchor="middle" x="403" y="-433" font-family="Times,serif" font-size="10.00" fill="red">1.5.3</text>
<text text-anchor="middle" x="403" y="-422" font-family="Times,serif" font-size="10.00" fill="red">(latest: 1.5.4)</text>
</g>
<!-- roo_prefs&#45;&gt;roo_scheduler -->
<g id="edge24" class="edge">
<title>roo_prefs&#45;&gt;roo_scheduler</title>
<path fill="none" stroke="black" d="M462.27,-556.09C447.88,-550.16 431.69,-543.39 417,-537 390.61,-525.52 361.38,-512.21 337.62,-501.24"/>
<polygon fill="black" stroke="black" points="339.01,-498.03 328.47,-497 336.07,-504.38 339.01,-498.03"/>
</g>
<!-- roo_quantity&#45;&gt;roo_logging -->
<g id="edge25" class="edge">
<title>roo_quantity&#45;&gt;roo_logging</title>
<path fill="none" stroke="red" d="M115.05,-458.98C125.2,-434.85 145.83,-391.75 174,-363 198.01,-338.5 209,-337.67 240,-323 253.38,-316.67 268.19,-310.82 282.28,-305.76"/>
<polygon fill="red" stroke="red" points="283.61,-309.01 291.89,-302.39 281.29,-302.4 283.61,-309.01"/>
<text text-anchor="middle" x="207" y="-385" font-family="Times,serif" font-size="10.00" fill="red">1.5.3</text>
<text text-anchor="middle" x="207" y="-374" font-family="Times,serif" font-size="10.00" fill="red">(latest: 1.5.4)</text>
</g>
<!-- roo_scheduler&#45;&gt;roo_collections -->
<g id="edge26" class="edge">
<title>roo_scheduler&#45;&gt;roo_collections</title>
<path fill="none" stroke="black" d="M332.84,-458.87C368.33,-444.05 416.06,-424.67 436,-419 479.08,-406.76 528.53,-397.89 567.84,-392.01"/>
<polygon fill="black" stroke="black" points="568.48,-395.46 577.87,-390.54 567.47,-388.53 568.48,-395.46"/>
</g>
<!-- roo_scheduler&#45;&gt;roo_threads -->
<g id="edge27" class="edge">
<title>roo_scheduler&#45;&gt;roo_threads</title>
<path fill="none" stroke="red" d="M281.17,-458.74C275.09,-446.93 266.43,-431.48 257,-419 235.98,-391.16 227.77,-386.51 202,-363 171.9,-335.53 148.46,-341.81 131,-305 115.43,-272.18 145.48,-237.95 172.26,-215.67"/>
<polygon fill="red" stroke="red" points="174.79,-218.14 180.41,-209.16 170.42,-212.67 174.79,-218.14"/>
<text text-anchor="middle" x="210" y="-337" font-family="Times,serif" font-size="10.00" fill="red">1.2.1</text>
<text text-anchor="middle" x="210" y="-326" font-family="Times,serif" font-size="10.00" fill="red">(latest: 1.2.2)</text>
</g>
<!-- roo_testing -->
<g id="node19" class="node">
<title>roo_testing</title>
<polygon fill="#b1dbab" stroke="black" points="157.5,-38 60.5,-38 60.5,0 157.5,0 157.5,-38"/>
<text text-anchor="middle" x="109" y="-22.8" font-family="Times,serif" font-size="14.00">roo_testing</text>
<text text-anchor="middle" x="109" y="-7.8" font-family="Times,serif" font-size="14.00">1.3.1</text>
</g>
<!-- roo_time -->
<g id="node21" class="node">
<title>roo_time</title>
<polygon fill="#b1dbab" stroke="black" points="148.5,-113 69.5,-113 69.5,-75 148.5,-75 148.5,-113"/>
<text text-anchor="middle" x="109" y="-97.8" font-family="Times,serif" font-size="14.00">roo_time</text>
<text text-anchor="middle" x="109" y="-82.8" font-family="Times,serif" font-size="14.00">1.4.2</text>
</g>
<!-- roo_threads&#45;&gt;roo_time -->
<g id="edge28" class="edge">
<title>roo_threads&#45;&gt;roo_time</title>
<path fill="none" stroke="black" d="M195.49,-170.74C187.33,-158.64 175.61,-142.86 163,-131 158.58,-126.85 153.64,-122.85 148.58,-119.12"/>
<polygon fill="black" stroke="black" points="150.24,-116.01 140.04,-113.13 146.22,-121.74 150.24,-116.01"/>
</g>
<!-- roo_time&#45;&gt;roo_testing -->
<g id="edge29" class="edge">
<title>roo_time&#45;&gt;roo_testing</title>
<path fill="none" stroke="black" d="M109,-74.96C109,-66.88 109,-57.18 109,-48.18"/>
<polygon fill="black" stroke="black" points="112.5,-48.09 109,-38.09 105.5,-48.09 112.5,-48.09"/>
</g>
<!-- roo_time_ds3231 -->
<g id="node22" class="node">
<title>roo_time_ds3231</title>
<polygon fill="plum" stroke="red" points="138,-209 0,-209 0,-171 138,-171 138,-209"/>
<text text-anchor="middle" x="69" y="-193.8" font-family="Times,serif" font-size="14.00">roo_time_ds3231</text>
<text text-anchor="middle" x="69" y="-178.8" font-family="Times,serif" font-size="14.00">1.1.5</text>
</g>
<!-- roo_time_ds3231&#45;&gt;roo_time -->
<g id="edge30" class="edge">
<title>roo_time_ds3231&#45;&gt;roo_time</title>
<path fill="none" stroke="red" d="M76.71,-170.88C82.52,-157.22 90.59,-138.26 97.21,-122.71"/>
<polygon fill="red" stroke="red" points="100.62,-123.64 101.31,-113.07 94.18,-120.9 100.62,-123.64"/>
<text text-anchor="middle" x="126" y="-145" font-family="Times,serif" font-size="10.00" fill="red">1.4.1</text>
<text text-anchor="middle" x="126" y="-134" font-family="Times,serif" font-size="10.00" fill="red">(latest: 1.4.2)</text>
</g>
<!-- roo_transceivers&#45;&gt;roo_prefs -->
<g id="edge31" class="edge">
<title>roo_transceivers&#45;&gt;roo_prefs</title>
<path fill="none" stroke="red" d="M432.73,-650.88C426.02,-646.06 419.98,-640.15 416,-633 411.25,-624.46 410.55,-619.12 416,-611 418.51,-607.27 434.83,-600.18 452.76,-593.28"/>
<polygon fill="red" stroke="red" points="454.09,-596.52 462.21,-589.71 451.62,-589.97 454.09,-596.52"/>
<text text-anchor="middle" x="449" y="-625" font-family="Times,serif" font-size="10.00" fill="red">1.2.7</text>
<text text-anchor="middle" x="449" y="-614" font-family="Times,serif" font-size="10.00" fill="red">(latest: 1.2.8)</text>
</g>
<!-- roo_transport -->
<g id="node24" class="node">
<title>roo_transport</title>
<polygon fill="plum" stroke="red" points="558,-497 444,-497 444,-459 558,-459 558,-497"/>
<text text-anchor="middle" x="501" y="-481.8" font-family="Times,serif" font-size="14.00">roo_transport</text>
<text text-anchor="middle" x="501" y="-466.8" font-family="Times,serif" font-size="14.00">1.1.1</text>
</g>
<!-- roo_transport&#45;&gt;roo_collections -->
<g id="edge32" class="edge">
<title>roo_transport&#45;&gt;roo_collections</title>
<path fill="none" stroke="black" d="M558.13,-460.47C577.13,-454.21 595.39,-447.12 603,-441 613.07,-432.9 621.1,-421.18 626.99,-410.39"/>
<polygon fill="black" stroke="black" points="630.22,-411.76 631.62,-401.26 623.97,-408.59 630.22,-411.76"/>
</g>
<!-- roo_transport&#45;&gt;roo_io -->
<g id="edge33" class="edge">
<title>roo_transport&#45;&gt;roo_io</title>
<path fill="none" stroke="red" d="M461.51,-458.8C454.91,-453.96 448.94,-448.07 445,-441 440.07,-432.15 438.86,-421.3 439.21,-411.38"/>
<polygon fill="red" stroke="red" points="442.72,-411.4 440.09,-401.13 435.74,-410.79 442.72,-411.4"/>
<text text-anchor="middle" x="478" y="-433" font-family="Times,serif" font-size="10.00" fill="red">2.1.3</text>
<text text-anchor="middle" x="478" y="-422" font-family="Times,serif" font-size="10.00" fill="red">(latest: 2.1.4)</text>
</g>
<!-- roo_wifi -->
<g id="node25" class="node">
<title>roo_wifi</title>
<polygon fill="plum" stroke="red" points="632,-689 560,-689 560,-651 632,-651 632,-689"/>
<text text-anchor="middle" x="596" y="-673.8" font-family="Times,serif" font-size="14.00">roo_wifi</text>
<text text-anchor="middle" x="596" y="-658.8" font-family="Times,serif" font-size="14.00">1.1.3</text>
</g>
<!-- roo_wifi&#45;&gt;roo_prefs -->
<g id="edge34" class="edge">
<title>roo_wifi&#45;&gt;roo_prefs</title>
<path fill="none" stroke="red" d="M559.9,-654.85C534.59,-644.9 505.22,-633.32 505,-633 499.09,-624.46 497.78,-613.38 498.32,-603.2"/>
<polygon fill="red" stroke="red" points="501.82,-603.38 499.44,-593.06 494.86,-602.61 501.82,-603.38"/>
<text text-anchor="middle" x="538" y="-625" font-family="Times,serif" font-size="10.00" fill="red">1.2.7</text>
<text text-anchor="middle" x="538" y="-614" font-family="Times,serif" font-size="10.00" fill="red">(latest: 1.2.8)</text>
</g>
<!-- roo_windows&#45;&gt;roo_icons -->
<g id="edge36" class="edge">
<title>roo_windows&#45;&gt;roo_icons</title>
<path fill="none" stroke="black" d="M711,-650.88C711,-637.35 711,-618.62 711,-603.15"/>
<polygon fill="black" stroke="black" points="714.5,-603.07 711,-593.07 707.5,-603.07 714.5,-603.07"/>
</g>
<!-- roo_windows&#45;&gt;roo_locale -->
<g id="edge35" class="edge">
<title>roo_windows&#45;&gt;roo_locale</title>
<path fill="none" stroke="black" d="M731.05,-650.88C747.02,-636.44 769.56,-616.07 787.26,-600.07"/>
<polygon fill="black" stroke="black" points="789.94,-602.37 795.01,-593.07 785.24,-597.18 789.94,-602.37"/>
</g>
<!-- roo_windows&#45;&gt;roo_scheduler -->
<g id="edge37" class="edge">
<title>roo_windows&#45;&gt;roo_scheduler</title>
<path fill="none" stroke="red" d="M680.49,-650.96C656.52,-636.33 622.69,-614.66 595,-593 575.43,-577.69 575.64,-567.21 554,-555 492.42,-520.24 413.61,-500.25 358.19,-489.58"/>
<polygon fill="red" stroke="red" points="358.59,-486.1 348.12,-487.7 357.31,-492.98 358.59,-486.1"/>
<text text-anchor="middle" x="628" y="-577" font-family="Times,serif" font-size="10.00" fill="red">2.1.6</text>
<text text-anchor="middle" x="628" y="-566" font-family="Times,serif" font-size="10.00" fill="red">(latest: 2.1.7)</text>
</g>
<!-- roo_windows_transceivers -->
<g id="node27" class="node">
<title>roo_windows_transceivers</title>
<polygon fill="plum" stroke="red" points="576,-785 372,-785 372,-747 576,-747 576,-785"/>
<text text-anchor="middle" x="474" y="-769.8" font-family="Times,serif" font-size="14.00">roo_windows_transceivers</text>
<text text-anchor="middle" x="474" y="-754.8" font-family="Times,serif" font-size="14.00">1.0.0</text>
</g>
<!-- roo_windows_transceivers&#45;&gt;roo_transceivers -->
<g id="edge38" class="edge">
<title>roo_windows_transceivers&#45;&gt;roo_transceivers</title>
<path fill="none" stroke="red" d="M474,-746.88C474,-733.35 474,-714.62 474,-699.15"/>
<polygon fill="red" stroke="red" points="477.5,-699.07 474,-689.07 470.5,-699.07 477.5,-699.07"/>
<text text-anchor="middle" x="507" y="-721" font-family="Times,serif" font-size="10.00" fill="red">1.1.3</text>
<text text-anchor="middle" x="507" y="-710" font-family="Times,serif" font-size="10.00" fill="red">(latest: 1.1.4)</text>
</g>
<!-- roo_windows_transceivers&#45;&gt;roo_windows -->
<g id="edge39" class="edge">
<title>roo_windows_transceivers&#45;&gt;roo_windows</title>
<path fill="none" stroke="red" d="M519.42,-746.99C558.32,-731.56 614.47,-709.29 655.93,-692.84"/>
<polygon fill="red" stroke="red" points="657.33,-696.05 665.33,-689.11 654.75,-689.55 657.33,-696.05"/>
<text text-anchor="middle" x="646" y="-721" font-family="Times,serif" font-size="10.00" fill="red">1.4.1</text>
<text text-anchor="middle" x="646" y="-710" font-family="Times,serif" font-size="10.00" fill="red">(latest: 1.4.2)</text>
</g>
<!-- roo_windows_wifi -->
<g id="node28" class="node">
<title>roo_windows_wifi</title>
<polygon fill="plum" stroke="red" points="735.5,-785 594.5,-785 594.5,-747 735.5,-747 735.5,-785"/>
<text text-anchor="middle" x="665" y="-769.8" font-family="Times,serif" font-size="14.00">roo_windows_wifi</text>
<text text-anchor="middle" x="665" y="-754.8" font-family="Times,serif" font-size="14.00">1.1.3</text>
</g>
<!-- roo_windows_wifi&#45;&gt;roo_wifi -->
<g id="edge40" class="edge">
<title>roo_windows_wifi&#45;&gt;roo_wifi</title>
<path fill="none" stroke="black" d="M629.81,-746.99C622.74,-741.99 615.96,-735.98 611,-729 604.83,-720.32 601.19,-709.3 599.05,-699.2"/>
<polygon fill="black" stroke="black" points="602.47,-698.41 597.32,-689.15 595.57,-699.6 602.47,-698.41"/>
</g>
<!-- roo_windows_wifi&#45;&gt;roo_windows -->
<g id="edge41" class="edge">
<title>roo_windows_wifi&#45;&gt;roo_windows</title>
<path fill="none" stroke="black" d="M684.18,-746.89C688.96,-741.53 693.67,-735.37 697,-729 701.79,-719.83 704.98,-708.99 707.08,-699.17"/>
<polygon fill="black" stroke="black" points="710.57,-699.53 708.96,-689.06 703.69,-698.25 710.57,-699.53"/>
</g>
</g>
</svg>
