<?xml version="1.0" encoding="UTF-8" standalone="no"?>
<!DOCTYPE svg PUBLIC "-//W3C//DTD SVG 1.1//EN"
 "http://www.w3.org/Graphics/SVG/1.1/DTD/svg11.dtd">
<!-- Generated by graphviz version 2.42.4 (0)
 -->
<!-- Title: dependencies Pages: 1 -->
<svg width="854pt" height="772pt"
 viewBox="0.00 0.00 853.50 772.00" xmlns="http://www.w3.org/2000/svg" xmlns:xlink="http://www.w3.org/1999/xlink">
<g id="graph0" class="graph" transform="scale(1 1) rotate(0) translate(4 768)">
<title>dependencies</title>
<polygon fill="white" stroke="transparent" points="-4,4 -4,-768 849.5,-768 849.5,4 -4,4"/>
<!-- roo_backport -->
<g id="node1" class="node">
<title>roo_backport</title>
<polygon fill="#b1dbab" stroke="black" points="470.5,-209 381.5,-209 381.5,-171 470.5,-171 470.5,-209"/>
<text text-anchor="middle" x="426" y="-193.8" font-family="Times,serif" font-size="14.00">roo_backport</text>
<text text-anchor="middle" x="426" y="-178.8" font-family="Times,serif" font-size="14.00">1.2.0</text>
</g>
<!-- roo_blink -->
<g id="node2" class="node">
<title>roo_blink</title>
<polygon fill="#b1dbab" stroke="red" points="189.5,-593 120.5,-593 120.5,-555 189.5,-555 189.5,-593"/>
<text text-anchor="middle" x="155" y="-577.8" font-family="Times,serif" font-size="14.00">roo_blink</text>
<text text-anchor="middle" x="155" y="-562.8" font-family="Times,serif" font-size="14.00">1.0.4</text>
</g>
<!-- roo_logging -->
<g id="node13" class="node">
<title>roo_logging</title>
<polygon fill="khaki" stroke="red" points="324.5,-305 241.5,-305 241.5,-267 324.5,-267 324.5,-305"/>
<text text-anchor="middle" x="283" y="-289.8" font-family="Times,serif" font-size="14.00">roo_logging</text>
<text text-anchor="middle" x="283" y="-274.8" font-family="Times,serif" font-size="14.00">1.5.2</text>
</g>
<!-- roo_blink&#45;&gt;roo_logging -->
<g id="edge1" class="edge">
<title>roo_blink&#45;&gt;roo_logging</title>
<path fill="none" stroke="red" d="M159.47,-554.97C167.03,-525.72 183.61,-466.4 205,-419 222.23,-380.8 247.77,-339.66 264.88,-313.65"/>
<polygon fill="red" stroke="red" points="267.94,-315.37 270.55,-305.1 262.11,-311.5 267.94,-315.37"/>
<text text-anchor="middle" x="232" y="-433" font-family="Times,serif" font-size="10.00" fill="red">1.5.1</text>
<text text-anchor="middle" x="232" y="-422" font-family="Times,serif" font-size="10.00" fill="red">(latest: 1.5.2)</text>
</g>
<!-- roo_scheduler -->
<g id="node19" class="node">
<title>roo_scheduler</title>
<polygon fill="#b1dbab" stroke="red" points="303.5,-497 210.5,-497 210.5,-459 303.5,-459 303.5,-497"/>
<text text-anchor="middle" x="257" y="-481.8" font-family="Times,serif" font-size="14.00">roo_scheduler</text>
<text text-anchor="middle" x="257" y="-466.8" font-family="Times,serif" font-size="14.00">2.1.6</text>
</g>
<!-- roo_blink&#45;&gt;roo_scheduler -->
<g id="edge2" class="edge">
<title>roo_blink&#45;&gt;roo_scheduler</title>
<path fill="none" stroke="black" d="M173.78,-554.78C185.75,-543.25 201.65,-528.11 216,-515 219.92,-511.42 224.09,-507.68 228.21,-504.02"/>
<polygon fill="black" stroke="black" points="230.81,-506.39 236,-497.16 226.18,-501.14 230.81,-506.39"/>
</g>
<!-- roo_collections -->
<g id="node3" class="node">
<title>roo_collections</title>
<polygon fill="#b1dbab" stroke="black" points="577,-401 477,-401 477,-363 577,-363 577,-401"/>
<text text-anchor="middle" x="527" y="-385.8" font-family="Times,serif" font-size="14.00">roo_collections</text>
<text text-anchor="middle" x="527" y="-370.8" font-family="Times,serif" font-size="14.00">1.4.0</text>
</g>
<!-- roo_collections&#45;&gt;roo_backport -->
<g id="edge3" class="edge">
<title>roo_collections&#45;&gt;roo_backport</title>
<path fill="none" stroke="black" d="M517.32,-362.78C499.52,-329.3 461.52,-257.82 440.59,-218.44"/>
<polygon fill="black" stroke="black" points="443.44,-216.35 435.65,-209.16 437.26,-219.64 443.44,-216.35"/>
</g>
<!-- roo_comms -->
<g id="node4" class="node">
<title>roo_comms</title>
<polygon fill="#b1dbab" stroke="red" points="282,-764 200,-764 200,-726 282,-726 282,-764"/>
<text text-anchor="middle" x="241" y="-748.8" font-family="Times,serif" font-size="14.00">roo_comms</text>
<text text-anchor="middle" x="241" y="-733.8" font-family="Times,serif" font-size="14.00">1.1.3</text>
</g>
<!-- roo_comms&#45;&gt;roo_blink -->
<g id="edge4" class="edge">
<title>roo_comms&#45;&gt;roo_blink</title>
<path fill="none" stroke="black" d="M231.8,-725.91C216.71,-696.26 186.61,-637.12 168.91,-602.33"/>
<polygon fill="black" stroke="black" points="171.92,-600.54 164.27,-593.21 165.68,-603.71 171.92,-600.54"/>
</g>
<!-- roo_control -->
<g id="node5" class="node">
<title>roo_control</title>
<polygon fill="#b1dbab" stroke="red" points="102,-593 22,-593 22,-555 102,-555 102,-593"/>
<text text-anchor="middle" x="62" y="-577.8" font-family="Times,serif" font-size="14.00">roo_control</text>
<text text-anchor="middle" x="62" y="-562.8" font-family="Times,serif" font-size="14.00">1.2.3</text>
</g>
<!-- roo_comms&#45;&gt;roo_control -->
<g id="edge5" class="edge">
<title>roo_comms&#45;&gt;roo_control</title>
<path fill="none" stroke="black" d="M221.84,-725.91C189.76,-695.63 125.11,-634.58 88.62,-600.14"/>
<polygon fill="black" stroke="black" points="90.96,-597.53 81.29,-593.21 86.16,-602.62 90.96,-597.53"/>
</g>
<!-- roo_io -->
<g id="node10" class="node">
<title>roo_io</title>
<polygon fill="khaki" stroke="red" points="427,-401 373,-401 373,-363 427,-363 427,-401"/>
<text text-anchor="middle" x="400" y="-385.8" font-family="Times,serif" font-size="14.00">roo_io</text>
<text text-anchor="middle" x="400" y="-370.8" font-family="Times,serif" font-size="14.00">2.1.2</text>
</g>
<!-- roo_comms&#45;&gt;roo_io -->
<g id="edge6" class="edge">
<title>roo_comms&#45;&gt;roo_io</title>
<path fill="none" stroke="red" d="M249.1,-725.6C275.15,-666.46 356.85,-480.96 387.88,-410.51"/>
<polygon fill="red" stroke="red" points="391.09,-411.92 391.91,-401.36 384.68,-409.1 391.09,-411.92"/>
<text text-anchor="middle" x="352" y="-577" font-family="Times,serif" font-size="10.00" fill="red">2.1.1</text>
<text text-anchor="middle" x="352" y="-566" font-family="Times,serif" font-size="10.00" fill="red">(latest: 2.1.2)</text>
</g>
<!-- roo_transceivers -->
<g id="node24" class="node">
<title>roo_transceivers</title>
<polygon fill="#b1dbab" stroke="red" points="463,-668 357,-668 357,-630 463,-630 463,-668"/>
<text text-anchor="middle" x="410" y="-652.8" font-family="Times,serif" font-size="14.00">roo_transceivers</text>
<text text-anchor="middle" x="410" y="-637.8" font-family="Times,serif" font-size="14.00">1.1.4</text>
</g>
<!-- roo_comms&#45;&gt;roo_transceivers -->
<g id="edge7" class="edge">
<title>roo_comms&#45;&gt;roo_transceivers</title>
<path fill="none" stroke="black" d="M282.25,-733.3C301.46,-727.36 324.17,-718.94 343,-708 358.28,-699.12 373.33,-686.54 385.29,-675.36"/>
<polygon fill="black" stroke="black" points="387.88,-677.72 392.67,-668.27 383.03,-672.67 387.88,-677.72"/>
</g>
<!-- roo_quantity -->
<g id="node18" class="node">
<title>roo_quantity</title>
<polygon fill="#b1dbab" stroke="red" points="124,-497 38,-497 38,-459 124,-459 124,-497"/>
<text text-anchor="middle" x="81" y="-481.8" font-family="Times,serif" font-size="14.00">roo_quantity</text>
<text text-anchor="middle" x="81" y="-466.8" font-family="Times,serif" font-size="14.00">1.1.6</text>
</g>
<!-- roo_control&#45;&gt;roo_quantity -->
<g id="edge8" class="edge">
<title>roo_control&#45;&gt;roo_quantity</title>
<path fill="none" stroke="red" d="M65.66,-554.88C68.4,-541.35 72.18,-522.62 75.31,-507.15"/>
<polygon fill="red" stroke="red" points="78.8,-507.56 77.35,-497.07 71.94,-506.18 78.8,-507.56"/>
<text text-anchor="middle" x="101" y="-529" font-family="Times,serif" font-size="10.00" fill="red">1.1.5</text>
<text text-anchor="middle" x="101" y="-518" font-family="Times,serif" font-size="10.00" fill="red">(latest: 1.1.6)</text>
</g>
<!-- roo_control&#45;&gt;roo_scheduler -->
<g id="edge9" class="edge">
<title>roo_control&#45;&gt;roo_scheduler</title>
<path fill="none" stroke="black" d="M99.6,-554.88C131.16,-539.66 176.4,-517.85 210.28,-501.52"/>
<polygon fill="black" stroke="black" points="212.03,-504.56 219.52,-497.07 208.99,-498.26 212.03,-504.56"/>
</g>
<!-- roo_dashboard -->
<g id="node6" class="node">
<title>roo_dashboard</title>
<polygon fill="plum" stroke="red" points="742.5,-764 645.5,-764 645.5,-726 742.5,-726 742.5,-764"/>
<text text-anchor="middle" x="694" y="-748.8" font-family="Times,serif" font-size="14.00">roo_dashboard</text>
<text text-anchor="middle" x="694" y="-733.8" font-family="Times,serif" font-size="14.00">1.0.1</text>
</g>
<!-- roo_windows -->
<g id="node27" class="node">
<title>roo_windows</title>
<polygon fill="#b1dbab" stroke="red" points="655,-668 565,-668 565,-630 655,-630 655,-668"/>
<text text-anchor="middle" x="610" y="-652.8" font-family="Times,serif" font-size="14.00">roo_windows</text>
<text text-anchor="middle" x="610" y="-637.8" font-family="Times,serif" font-size="14.00">1.4.2</text>
</g>
<!-- roo_dashboard&#45;&gt;roo_windows -->
<g id="edge10" class="edge">
<title>roo_dashboard&#45;&gt;roo_windows</title>
<path fill="none" stroke="red" d="M677.8,-725.88C665.14,-711.7 647.36,-691.81 633.18,-675.94"/>
<polygon fill="red" stroke="red" points="635.42,-673.19 626.15,-668.07 630.2,-677.86 635.42,-673.19"/>
<text text-anchor="middle" x="686" y="-700" font-family="Times,serif" font-size="10.00" fill="red">1.4.1</text>
<text text-anchor="middle" x="686" y="-689" font-family="Times,serif" font-size="10.00" fill="red">(latest: 1.4.2)</text>
</g>
<!-- roo_display -->
<g id="node7" class="node">
<title>roo_display</title>
<polygon fill="khaki" stroke="red" points="586,-497 506,-497 506,-459 586,-459 586,-497"/>
<text text-anchor="middle" x="546" y="-481.8" font-family="Times,serif" font-size="14.00">roo_display</text>
<text text-anchor="middle" x="546" y="-466.8" font-family="Times,serif" font-size="14.00">2.3.2</text>
</g>
<!-- roo_display&#45;&gt;roo_collections -->
<g id="edge11" class="edge">
<title>roo_display&#45;&gt;roo_collections</title>
<path fill="none" stroke="black" d="M544.25,-458.84C542.95,-447.34 540.91,-432.2 538,-419 537.41,-416.34 536.73,-413.59 535.99,-410.85"/>
<polygon fill="black" stroke="black" points="539.32,-409.79 533.17,-401.16 532.6,-411.74 539.32,-409.79"/>
</g>
<!-- roo_display&#45;&gt;roo_io -->
<g id="edge12" class="edge">
<title>roo_display&#45;&gt;roo_io</title>
<path fill="none" stroke="black" d="M505.93,-462.42C502.58,-461.24 499.23,-460.09 496,-459 470.83,-450.5 460.27,-456.92 439,-441 428.22,-432.94 419.46,-420.97 412.99,-410"/>
<polygon fill="black" stroke="black" points="416,-408.19 408.11,-401.12 409.86,-411.57 416,-408.19"/>
</g>
<!-- roo_flags -->
<g id="node8" class="node">
<title>roo_flags</title>
<polygon fill="#b1dbab" stroke="black" points="358,-209 290,-209 290,-171 358,-171 358,-209"/>
<text text-anchor="middle" x="324" y="-193.8" font-family="Times,serif" font-size="14.00">roo_flags</text>
<text text-anchor="middle" x="324" y="-178.8" font-family="Times,serif" font-size="14.00">1.2.1</text>
</g>
<!-- roo_icons -->
<g id="node9" class="node">
<title>roo_icons</title>
<polygon fill="#b1dbab" stroke="red" points="595,-593 525,-593 525,-555 595,-555 595,-593"/>
<text text-anchor="middle" x="560" y="-577.8" font-family="Times,serif" font-size="14.00">roo_icons</text>
<text text-anchor="middle" x="560" y="-562.8" font-family="Times,serif" font-size="14.00">1.2.1</text>
</g>
<!-- roo_icons&#45;&gt;roo_display -->
<g id="edge13" class="edge">
<title>roo_icons&#45;&gt;roo_display</title>
<path fill="none" stroke="red" d="M557.3,-554.88C555.29,-541.35 552.5,-522.62 550.19,-507.15"/>
<polygon fill="red" stroke="red" points="553.63,-506.44 548.69,-497.07 546.7,-507.48 553.63,-506.44"/>
<text text-anchor="middle" x="581" y="-529" font-family="Times,serif" font-size="10.00" fill="red">2.3.1</text>
<text text-anchor="middle" x="581" y="-518" font-family="Times,serif" font-size="10.00" fill="red">(latest: 2.3.2)</text>
</g>
<!-- roo_io&#45;&gt;roo_logging -->
<g id="edge14" class="edge">
<title>roo_io&#45;&gt;roo_logging</title>
<path fill="none" stroke="black" d="M377.44,-362.88C359.23,-348.25 333.44,-327.52 313.41,-311.43"/>
<polygon fill="black" stroke="black" points="315.48,-308.6 305.49,-305.07 311.09,-314.06 315.48,-308.6"/>
</g>
<!-- roo_io_sdfat -->
<g id="node11" class="node">
<title>roo_io_sdfat</title>
<polygon fill="plum" stroke="black" points="845.5,-764 760.5,-764 760.5,-726 845.5,-726 845.5,-764"/>
<text text-anchor="middle" x="803" y="-748.8" font-family="Times,serif" font-size="14.00">roo_io_sdfat</text>
<text text-anchor="middle" x="803" y="-733.8" font-family="Times,serif" font-size="14.00">1.0.0</text>
</g>
<!-- roo_locale -->
<g id="node12" class="node">
<title>roo_locale</title>
<polygon fill="#b1dbab" stroke="black" points="687,-593 613,-593 613,-555 687,-555 687,-593"/>
<text text-anchor="middle" x="650" y="-577.8" font-family="Times,serif" font-size="14.00">roo_locale</text>
<text text-anchor="middle" x="650" y="-562.8" font-family="Times,serif" font-size="14.00">1.1.1</text>
</g>
<!-- roo_logging&#45;&gt;roo_backport -->
<g id="edge15" class="edge">
<title>roo_logging&#45;&gt;roo_backport</title>
<path fill="none" stroke="black" d="M324.52,-271.47C339.22,-265.7 355.46,-258.17 369,-249 382.17,-240.08 394.79,-227.78 404.79,-216.8"/>
<polygon fill="black" stroke="black" points="407.58,-218.92 411.58,-209.11 402.34,-214.29 407.58,-218.92"/>
</g>
<!-- roo_logging&#45;&gt;roo_flags -->
<g id="edge16" class="edge">
<title>roo_logging&#45;&gt;roo_flags</title>
<path fill="none" stroke="red" d="M293.11,-266.9C296.12,-261.24 299.32,-254.93 302,-249 306.41,-239.24 310.71,-228.31 314.33,-218.59"/>
<polygon fill="red" stroke="red" points="317.68,-219.59 317.82,-209 311.11,-217.2 317.68,-219.59"/>
<text text-anchor="middle" x="338" y="-241" font-family="Times,serif" font-size="10.00" fill="red">1.2.0</text>
<text text-anchor="middle" x="338" y="-230" font-family="Times,serif" font-size="10.00" fill="red">(latest: 1.2.1)</text>
</g>
<!-- roo_threads -->
<g id="node21" class="node">
<title>roo_threads</title>
<polygon fill="#b1dbab" stroke="black" points="210,-209 130,-209 130,-171 210,-171 210,-209"/>
<text text-anchor="middle" x="170" y="-193.8" font-family="Times,serif" font-size="14.00">roo_threads</text>
<text text-anchor="middle" x="170" y="-178.8" font-family="Times,serif" font-size="14.00">1.2.1</text>
</g>
<!-- roo_logging&#45;&gt;roo_threads -->
<g id="edge17" class="edge">
<title>roo_logging&#45;&gt;roo_threads</title>
<path fill="none" stroke="red" d="M262.35,-266.74C256.3,-261.18 249.77,-254.96 244,-249 235.02,-239.71 234.72,-235.51 225,-227 220.21,-222.81 214.9,-218.73 209.51,-214.92"/>
<polygon fill="red" stroke="red" points="211.3,-211.91 201.07,-209.18 207.37,-217.7 211.3,-211.91"/>
<text text-anchor="middle" x="271" y="-241" font-family="Times,serif" font-size="10.00" fill="red">1.2.0</text>
<text text-anchor="middle" x="271" y="-230" font-family="Times,serif" font-size="10.00" fill="red">(latest: 1.2.1)</text>
</g>
<!-- roo_monitoring -->
<g id="node14" class="node">
<title>roo_monitoring</title>
<polygon fill="khaki" stroke="red" points="706,-497 604,-497 604,-459 706,-459 706,-497"/>
<text text-anchor="middle" x="655" y="-481.8" font-family="Times,serif" font-size="14.00">roo_monitoring</text>
<text text-anchor="middle" x="655" y="-466.8" font-family="Times,serif" font-size="14.00">1.0.0</text>
</g>
<!-- roo_monitoring&#45;&gt;roo_collections -->
<g id="edge18" class="edge">
<title>roo_monitoring&#45;&gt;roo_collections</title>
<path fill="none" stroke="red" d="M630.32,-458.88C610.22,-444.12 581.68,-423.15 559.68,-407"/>
<polygon fill="red" stroke="red" points="561.74,-404.17 551.6,-401.07 557.59,-409.81 561.74,-404.17"/>
<text text-anchor="middle" x="629" y="-433" font-family="Times,serif" font-size="10.00" fill="red">1.3.2</text>
<text text-anchor="middle" x="629" y="-422" font-family="Times,serif" font-size="10.00" fill="red">(latest: 1.4.0)</text>
</g>
<!-- roo_monitoring&#45;&gt;roo_io -->
<g id="edge19" class="edge">
<title>roo_monitoring&#45;&gt;roo_io</title>
<path fill="none" stroke="red" d="M603.99,-461.5C600.95,-460.64 597.94,-459.8 595,-459 562.33,-450.13 552.88,-452.38 521,-441 491.56,-430.49 459.74,-415.07 436.12,-402.76"/>
<polygon fill="red" stroke="red" points="437.65,-399.61 427.17,-398.05 434.39,-405.81 437.65,-399.61"/>
<text text-anchor="middle" x="548" y="-433" font-family="Times,serif" font-size="10.00" fill="red">2.0.3</text>
<text text-anchor="middle" x="548" y="-422" font-family="Times,serif" font-size="10.00" fill="red">(latest: 2.1.2)</text>
</g>
<!-- roo_onewire -->
<g id="node15" class="node">
<title>roo_onewire</title>
<polygon fill="#b1dbab" stroke="red" points="292.5,-593 207.5,-593 207.5,-555 292.5,-555 292.5,-593"/>
<text text-anchor="middle" x="250" y="-577.8" font-family="Times,serif" font-size="14.00">roo_onewire</text>
<text text-anchor="middle" x="250" y="-562.8" font-family="Times,serif" font-size="14.00">2.0.7</text>
</g>
<!-- roo_onewire&#45;&gt;roo_quantity -->
<g id="edge21" class="edge">
<title>roo_onewire&#45;&gt;roo_quantity</title>
<path fill="none" stroke="red" d="M217.42,-554.88C190.29,-539.79 151.53,-518.23 122.24,-501.94"/>
<polygon fill="red" stroke="red" points="123.93,-498.87 113.48,-497.07 120.52,-504.99 123.93,-498.87"/>
<text text-anchor="middle" x="208" y="-529" font-family="Times,serif" font-size="10.00" fill="red">1.1.5</text>
<text text-anchor="middle" x="208" y="-518" font-family="Times,serif" font-size="10.00" fill="red">(latest: 1.1.6)</text>
</g>
<!-- roo_onewire&#45;&gt;roo_scheduler -->
<g id="edge20" class="edge">
<title>roo_onewire&#45;&gt;roo_scheduler</title>
<path fill="none" stroke="black" d="M276.82,-554.64C282.16,-549.6 287.04,-543.66 290,-537 293.98,-528.07 293.54,-524.11 290,-515 288.7,-511.66 286.93,-508.44 284.88,-505.39"/>
<polygon fill="black" stroke="black" points="287.45,-503 278.52,-497.31 281.95,-507.33 287.45,-503"/>
</g>
<!-- roo_powersafefs -->
<g id="node16" class="node">
<title>roo_powersafefs</title>
<polygon fill="plum" stroke="red" points="223.5,-305 116.5,-305 116.5,-267 223.5,-267 223.5,-305"/>
<text text-anchor="middle" x="170" y="-289.8" font-family="Times,serif" font-size="14.00">roo_powersafefs</text>
<text text-anchor="middle" x="170" y="-274.8" font-family="Times,serif" font-size="14.00">1.0.0</text>
</g>
<!-- roo_powersafefs&#45;&gt;roo_threads -->
<g id="edge22" class="edge">
<title>roo_powersafefs&#45;&gt;roo_threads</title>
<path fill="none" stroke="red" d="M170,-266.88C170,-253.35 170,-234.62 170,-219.15"/>
<polygon fill="red" stroke="red" points="173.5,-219.07 170,-209.07 166.5,-219.07 173.5,-219.07"/>
<text text-anchor="middle" x="197" y="-241" font-family="Times,serif" font-size="10.00" fill="red">1.1.6</text>
<text text-anchor="middle" x="197" y="-230" font-family="Times,serif" font-size="10.00" fill="red">(latest: 1.2.1)</text>
</g>
<!-- roo_prefs -->
<g id="node17" class="node">
<title>roo_prefs</title>
<polygon fill="#b1dbab" stroke="red" points="469,-593 401,-593 401,-555 469,-555 469,-593"/>
<text text-anchor="middle" x="435" y="-577.8" font-family="Times,serif" font-size="14.00">roo_prefs</text>
<text text-anchor="middle" x="435" y="-562.8" font-family="Times,serif" font-size="14.00">1.2.7</text>
</g>
<!-- roo_prefs&#45;&gt;roo_logging -->
<g id="edge23" class="edge">
<title>roo_prefs&#45;&gt;roo_logging</title>
<path fill="none" stroke="red" d="M421.71,-554.82C403.84,-529.92 371.7,-483.45 349,-441 326.1,-398.18 305,-345.72 293.09,-314.4"/>
<polygon fill="red" stroke="red" points="296.36,-313.14 289.56,-305.02 289.81,-315.61 296.36,-313.14"/>
<text text-anchor="middle" x="376" y="-433" font-family="Times,serif" font-size="10.00" fill="red">1.5.1</text>
<text text-anchor="middle" x="376" y="-422" font-family="Times,serif" font-size="10.00" fill="red">(latest: 1.5.2)</text>
</g>
<!-- roo_prefs&#45;&gt;roo_scheduler -->
<g id="edge24" class="edge">
<title>roo_prefs&#45;&gt;roo_scheduler</title>
<path fill="none" stroke="black" d="M400.68,-554.88C372.12,-539.79 331.28,-518.23 300.44,-501.94"/>
<polygon fill="black" stroke="black" points="301.69,-498.64 291.21,-497.07 298.42,-504.83 301.69,-498.64"/>
</g>
<!-- roo_quantity&#45;&gt;roo_logging -->
<g id="edge25" class="edge">
<title>roo_quantity&#45;&gt;roo_logging</title>
<path fill="none" stroke="black" d="M87.46,-458.93C99.83,-426.87 129.89,-359.93 177,-323 195.19,-308.74 205.43,-312.26 231.72,-304.8"/>
<polygon fill="black" stroke="black" points="232.78,-308.14 241.28,-301.81 230.69,-301.46 232.78,-308.14"/>
</g>
<!-- roo_scheduler&#45;&gt;roo_collections -->
<g id="edge26" class="edge">
<title>roo_scheduler&#45;&gt;roo_collections</title>
<path fill="none" stroke="black" d="M303.72,-460.73C349,-444.97 417.88,-420.99 467.15,-403.84"/>
<polygon fill="black" stroke="black" points="468.44,-407.1 476.73,-400.5 466.13,-400.48 468.44,-407.1"/>
</g>
<!-- roo_scheduler&#45;&gt;roo_threads -->
<g id="edge27" class="edge">
<title>roo_scheduler&#45;&gt;roo_threads</title>
<path fill="none" stroke="red" d="M241.5,-458.94C231.65,-447.48 218.6,-432.34 207,-419 162.77,-368.14 130.74,-368.08 107,-305 101.05,-289.19 101.27,-282.89 107,-267 113.97,-247.68 128.21,-229.8 141.4,-216.24"/>
<polygon fill="red" stroke="red" points="143.9,-218.69 148.56,-209.17 138.98,-213.7 143.9,-218.69"/>
<text text-anchor="middle" x="156" y="-337" font-family="Times,serif" font-size="10.00" fill="red">1.2.0</text>
<text text-anchor="middle" x="156" y="-326" font-family="Times,serif" font-size="10.00" fill="red">(latest: 1.2.1)</text>
</g>
<!-- roo_testing -->
<g id="node20" class="node">
<title>roo_testing</title>
<polygon fill="#b1dbab" stroke="black" points="128.5,-38 51.5,-38 51.5,0 128.5,0 128.5,-38"/>
<text text-anchor="middle" x="90" y="-22.8" font-family="Times,serif" font-size="14.00">roo_testing</text>
<text text-anchor="middle" x="90" y="-7.8" font-family="Times,serif" font-size="14.00">1.2.1</text>
</g>
<!-- roo_time -->
<g id="node22" class="node">
<title>roo_time</title>
<polygon fill="#b1dbab" stroke="black" points="123,-113 57,-113 57,-75 123,-75 123,-113"/>
<text text-anchor="middle" x="90" y="-97.8" font-family="Times,serif" font-size="14.00">roo_time</text>
<text text-anchor="middle" x="90" y="-82.8" font-family="Times,serif" font-size="14.00">1.4.1</text>
</g>
<!-- roo_threads&#45;&gt;roo_time -->
<g id="edge28" class="edge">
<title>roo_threads&#45;&gt;roo_time</title>
<path fill="none" stroke="black" d="M160.3,-170.76C153.49,-158.81 143.72,-143.2 133,-131 129.63,-127.17 125.84,-123.39 121.94,-119.82"/>
<polygon fill="black" stroke="black" points="124.22,-117.16 114.39,-113.22 119.62,-122.44 124.22,-117.16"/>
</g>
<!-- roo_time&#45;&gt;roo_testing -->
<g id="edge29" class="edge">
<title>roo_time&#45;&gt;roo_testing</title>
<path fill="none" stroke="black" d="M90,-74.96C90,-66.88 90,-57.18 90,-48.18"/>
<polygon fill="black" stroke="black" points="93.5,-48.09 90,-38.09 86.5,-48.09 93.5,-48.09"/>
</g>
<!-- roo_time_ds3231 -->
<g id="node23" class="node">
<title>roo_time_ds3231</title>
<polygon fill="#b1dbab" stroke="red" points="112,-209 0,-209 0,-171 112,-171 112,-209"/>
<text text-anchor="middle" x="56" y="-193.8" font-family="Times,serif" font-size="14.00">roo_time_ds3231</text>
<text text-anchor="middle" x="56" y="-178.8" font-family="Times,serif" font-size="14.00">1.1.4</text>
</g>
<!-- roo_time_ds3231&#45;&gt;roo_time -->
<g id="edge30" class="edge">
<title>roo_time_ds3231&#45;&gt;roo_time</title>
<path fill="none" stroke="red" d="M62.56,-170.88C67.49,-157.22 74.35,-138.26 79.98,-122.71"/>
<polygon fill="red" stroke="red" points="83.35,-123.66 83.46,-113.07 76.77,-121.28 83.35,-123.66"/>
<text text-anchor="middle" x="104" y="-145" font-family="Times,serif" font-size="10.00" fill="red">1.4.0</text>
<text text-anchor="middle" x="104" y="-134" font-family="Times,serif" font-size="10.00" fill="red">(latest: 1.4.1)</text>
</g>
<!-- roo_transceivers&#45;&gt;roo_prefs -->
<g id="edge31" class="edge">
<title>roo_transceivers&#45;&gt;roo_prefs</title>
<path fill="none" stroke="black" d="M416.18,-629.96C419,-621.71 422.41,-611.75 425.55,-602.6"/>
<polygon fill="black" stroke="black" points="428.88,-603.68 428.8,-593.09 422.25,-601.42 428.88,-603.68"/>
</g>
<!-- roo_transport -->
<g id="node25" class="node">
<title>roo_transport</title>
<polygon fill="khaki" stroke="red" points="487.5,-497 398.5,-497 398.5,-459 487.5,-459 487.5,-497"/>
<text text-anchor="middle" x="443" y="-481.8" font-family="Times,serif" font-size="14.00">roo_transport</text>
<text text-anchor="middle" x="443" y="-466.8" font-family="Times,serif" font-size="14.00">1.1.0</text>
</g>
<!-- roo_transport&#45;&gt;roo_collections -->
<g id="edge32" class="edge">
<title>roo_transport&#45;&gt;roo_collections</title>
<path fill="none" stroke="black" d="M487.55,-461.34C497.11,-456.16 506.33,-449.49 513,-441 519.61,-432.6 523.16,-421.55 525.05,-411.35"/>
<polygon fill="black" stroke="black" points="528.55,-411.57 526.48,-401.18 521.62,-410.6 528.55,-411.57"/>
</g>
<!-- roo_transport&#45;&gt;roo_io -->
<g id="edge33" class="edge">
<title>roo_transport&#45;&gt;roo_io</title>
<path fill="none" stroke="black" d="M425.65,-458.65C421.32,-453.29 417.05,-447.19 414,-441 409.46,-431.79 406.34,-421.01 404.22,-411.26"/>
<polygon fill="black" stroke="black" points="407.61,-410.37 402.29,-401.21 400.74,-411.7 407.61,-410.37"/>
</g>
<!-- roo_wifi -->
<g id="node26" class="node">
<title>roo_wifi</title>
<polygon fill="#b1dbab" stroke="red" points="544.5,-668 481.5,-668 481.5,-630 544.5,-630 544.5,-668"/>
<text text-anchor="middle" x="513" y="-652.8" font-family="Times,serif" font-size="14.00">roo_wifi</text>
<text text-anchor="middle" x="513" y="-637.8" font-family="Times,serif" font-size="14.00">1.1.3</text>
</g>
<!-- roo_wifi&#45;&gt;roo_prefs -->
<g id="edge34" class="edge">
<title>roo_wifi&#45;&gt;roo_prefs</title>
<path fill="none" stroke="black" d="M493.72,-629.96C484.06,-620.92 472.22,-609.83 461.7,-599.99"/>
<polygon fill="black" stroke="black" points="464.02,-597.37 454.33,-593.09 459.24,-602.48 464.02,-597.37"/>
</g>
<!-- roo_windows&#45;&gt;roo_icons -->
<g id="edge36" class="edge">
<title>roo_windows&#45;&gt;roo_icons</title>
<path fill="none" stroke="black" d="M597.64,-629.96C591.75,-621.36 584.59,-610.9 578.1,-601.43"/>
<polygon fill="black" stroke="black" points="580.93,-599.36 572.39,-593.09 575.15,-603.32 580.93,-599.36"/>
</g>
<!-- roo_windows&#45;&gt;roo_locale -->
<g id="edge35" class="edge">
<title>roo_windows&#45;&gt;roo_locale</title>
<path fill="none" stroke="black" d="M619.89,-629.96C624.5,-621.53 630.09,-611.33 635.2,-602.01"/>
<polygon fill="black" stroke="black" points="638.35,-603.54 640.09,-593.09 632.21,-600.18 638.35,-603.54"/>
</g>
<!-- roo_windows&#45;&gt;roo_scheduler -->
<g id="edge37" class="edge">
<title>roo_windows&#45;&gt;roo_scheduler</title>
<path fill="none" stroke="black" d="M574.26,-629.91C556.1,-620.03 534.11,-606.98 516,-593 497.09,-578.41 498.26,-567.65 478,-555 426.7,-522.96 360.22,-502.47 313.62,-490.93"/>
<polygon fill="black" stroke="black" points="314.24,-487.48 303.7,-488.54 312.6,-494.29 314.24,-487.48"/>
</g>
<!-- roo_windows_transceivers -->
<g id="node28" class="node">
<title>roo_windows_transceivers</title>
<polygon fill="khaki" stroke="red" points="490.5,-764 329.5,-764 329.5,-726 490.5,-726 490.5,-764"/>
<text text-anchor="middle" x="410" y="-748.8" font-family="Times,serif" font-size="14.00">roo_windows_transceivers</text>
<text text-anchor="middle" x="410" y="-733.8" font-family="Times,serif" font-size="14.00">1.0.0</text>
</g>
<!-- roo_windows_transceivers&#45;&gt;roo_transceivers -->
<g id="edge38" class="edge">
<title>roo_windows_transceivers&#45;&gt;roo_transceivers</title>
<path fill="none" stroke="red" d="M410,-725.88C410,-712.35 410,-693.62 410,-678.15"/>
<polygon fill="red" stroke="red" points="413.5,-678.07 410,-668.07 406.5,-678.07 413.5,-678.07"/>
<text text-anchor="middle" x="437" y="-700" font-family="Times,serif" font-size="10.00" fill="red">1.1.3</text>
<text text-anchor="middle" x="437" y="-689" font-family="Times,serif" font-size="10.00" fill="red">(latest: 1.1.4)</text>
</g>
<!-- roo_windows_transceivers&#45;&gt;roo_windows -->
<g id="edge39" class="edge">
<title>roo_windows_transceivers&#45;&gt;roo_windows</title>
<path fill="none" stroke="red" d="M448.56,-725.88C480.93,-710.66 527.33,-688.85 562.08,-672.52"/>
<polygon fill="red" stroke="red" points="563.99,-675.49 571.56,-668.07 561.02,-669.15 563.99,-675.49"/>
<text text-anchor="middle" x="554" y="-700" font-family="Times,serif" font-size="10.00" fill="red">1.4.1</text>
<text text-anchor="middle" x="554" y="-689" font-family="Times,serif" font-size="10.00" fill="red">(latest: 1.4.2)</text>
</g>
<!-- roo_windows_wifi -->
<g id="node29" class="node">
<title>roo_windows_wifi</title>
<polygon fill="plum" stroke="red" points="627.5,-764 508.5,-764 508.5,-726 627.5,-726 627.5,-764"/>
<text text-anchor="middle" x="568" y="-748.8" font-family="Times,serif" font-size="14.00">roo_windows_wifi</text>
<text text-anchor="middle" x="568" y="-733.8" font-family="Times,serif" font-size="14.00">1.1.3</text>
</g>
<!-- roo_windows_wifi&#45;&gt;roo_wifi -->
<g id="edge40" class="edge">
<title>roo_windows_wifi&#45;&gt;roo_wifi</title>
<path fill="none" stroke="black" d="M539.93,-725.97C533.84,-720.85 528.03,-714.79 524,-708 518.73,-699.14 515.91,-688.28 514.42,-678.37"/>
<polygon fill="black" stroke="black" points="517.86,-677.67 513.27,-668.12 510.9,-678.45 517.86,-677.67"/>
</g>
<!-- roo_windows_wifi&#45;&gt;roo_windows -->
<g id="edge41" class="edge">
<title>roo_windows_wifi&#45;&gt;roo_windows</title>
<path fill="none" stroke="black" d="M586.1,-725.8C590.58,-720.43 594.96,-714.3 598,-708 602.43,-698.82 605.23,-688.05 606.99,-678.3"/>
<polygon fill="black" stroke="black" points="610.48,-678.66 608.53,-668.24 603.56,-677.6 610.48,-678.66"/>
</g>
</g>
</svg>
