<?xml version="1.0" encoding="UTF-8" standalone="no"?>
<!DOCTYPE svg PUBLIC "-//W3C//DTD SVG 1.1//EN"
 "http://www.w3.org/Graphics/SVG/1.1/DTD/svg11.dtd">
<!-- Generated by graphviz version 2.42.4 (0)
 -->
<!-- Title: dependencies Pages: 1 -->
<svg width="1088pt" height="751pt"
 viewBox="0.00 0.00 1087.50 751.00" xmlns="http://www.w3.org/2000/svg" xmlns:xlink="http://www.w3.org/1999/xlink">
<g id="graph0" class="graph" transform="scale(1 1) rotate(0) translate(4 747)">
<title>dependencies</title>
<polygon fill="white" stroke="transparent" points="-4,4 -4,-747 1083.5,-747 1083.5,4 -4,4"/>
<!-- roo_backport -->
<g id="node1" class="node">
<title>roo_backport</title>
<polygon fill="#b1dbab" stroke="black" points="568,-209 458,-209 458,-171 568,-171 568,-209"/>
<text text-anchor="middle" x="513" y="-193.8" font-family="Times,serif" font-size="14.00">roo_backport</text>
<text text-anchor="middle" x="513" y="-178.8" font-family="Times,serif" font-size="14.00">1.2.2</text>
</g>
<!-- roo_blink -->
<g id="node2" class="node">
<title>roo_blink</title>
<polygon fill="#b1dbab" stroke="black" points="964,-551 882,-551 882,-513 964,-513 964,-551"/>
<text text-anchor="middle" x="923" y="-535.8" font-family="Times,serif" font-size="14.00">roo_blink</text>
<text text-anchor="middle" x="923" y="-520.8" font-family="Times,serif" font-size="14.00">1.0.6</text>
</g>
<!-- roo_logging -->
<g id="node13" class="node">
<title>roo_logging</title>
<polygon fill="#b1dbab" stroke="red" points="820,-305 720,-305 720,-267 820,-267 820,-305"/>
<text text-anchor="middle" x="770" y="-289.8" font-family="Times,serif" font-size="14.00">roo_logging</text>
<text text-anchor="middle" x="770" y="-274.8" font-family="Times,serif" font-size="14.00">1.5.5</text>
</g>
<!-- roo_blink&#45;&gt;roo_logging -->
<g id="edge1" class="edge">
<title>roo_blink&#45;&gt;roo_logging</title>
<path fill="none" stroke="black" d="M925.73,-512.95C928.41,-489.53 930.17,-448.01 915,-417 892.2,-370.38 844.61,-332.93 810.16,-310.42"/>
<polygon fill="black" stroke="black" points="812.02,-307.45 801.71,-305.02 808.25,-313.35 812.02,-307.45"/>
</g>
<!-- roo_scheduler -->
<g id="node19" class="node">
<title>roo_scheduler</title>
<polygon fill="#b1dbab" stroke="black" points="428,-455 312,-455 312,-417 428,-417 428,-455"/>
<text text-anchor="middle" x="370" y="-439.8" font-family="Times,serif" font-size="14.00">roo_scheduler</text>
<text text-anchor="middle" x="370" y="-424.8" font-family="Times,serif" font-size="14.00">2.1.9</text>
</g>
<!-- roo_blink&#45;&gt;roo_scheduler -->
<g id="edge2" class="edge">
<title>roo_blink&#45;&gt;roo_scheduler</title>
<path fill="none" stroke="black" d="M881.73,-515.4C878.8,-514.52 875.87,-513.71 873,-513 747.1,-481.98 712.57,-489.82 584,-473 519.17,-464.52 502.19,-467.39 438,-455 437.9,-454.98 437.8,-454.96 437.7,-454.94"/>
<polygon fill="black" stroke="black" points="438.62,-451.56 428.12,-452.94 437.19,-458.41 438.62,-451.56"/>
</g>
<!-- roo_collections -->
<g id="node3" class="node">
<title>roo_collections</title>
<polygon fill="#b1dbab" stroke="black" points="512,-380 390,-380 390,-342 512,-342 512,-380"/>
<text text-anchor="middle" x="451" y="-364.8" font-family="Times,serif" font-size="14.00">roo_collections</text>
<text text-anchor="middle" x="451" y="-349.8" font-family="Times,serif" font-size="14.00">1.4.3</text>
</g>
<!-- roo_collections&#45;&gt;roo_backport -->
<g id="edge3" class="edge">
<title>roo_collections&#45;&gt;roo_backport</title>
<path fill="none" stroke="black" d="M457.64,-341.91C468.47,-312.39 490.02,-253.63 502.81,-218.78"/>
<polygon fill="black" stroke="black" points="506.16,-219.81 506.32,-209.21 499.59,-217.39 506.16,-219.81"/>
</g>
<!-- roo_comms -->
<g id="node4" class="node">
<title>roo_comms</title>
<polygon fill="#b1dbab" stroke="red" points="837.5,-743 740.5,-743 740.5,-705 837.5,-705 837.5,-743"/>
<text text-anchor="middle" x="789" y="-727.8" font-family="Times,serif" font-size="14.00">roo_comms</text>
<text text-anchor="middle" x="789" y="-712.8" font-family="Times,serif" font-size="14.00">1.1.4</text>
</g>
<!-- roo_comms&#45;&gt;roo_blink -->
<g id="edge4" class="edge">
<title>roo_comms&#45;&gt;roo_blink</title>
<path fill="none" stroke="black" d="M801.85,-704.78C825.66,-671.02 876.73,-598.61 904.35,-559.45"/>
<polygon fill="black" stroke="black" points="907.29,-561.35 910.19,-551.16 901.57,-557.32 907.29,-561.35"/>
</g>
<!-- roo_control -->
<g id="node5" class="node">
<title>roo_control</title>
<polygon fill="#b1dbab" stroke="black" points="1079.5,-551 982.5,-551 982.5,-513 1079.5,-513 1079.5,-551"/>
<text text-anchor="middle" x="1031" y="-535.8" font-family="Times,serif" font-size="14.00">roo_control</text>
<text text-anchor="middle" x="1031" y="-520.8" font-family="Times,serif" font-size="14.00">1.2.5</text>
</g>
<!-- roo_comms&#45;&gt;roo_control -->
<g id="edge5" class="edge">
<title>roo_comms&#45;&gt;roo_control</title>
<path fill="none" stroke="black" d="M812.96,-704.75C820.37,-699.09 828.54,-692.81 836,-687 894.25,-641.69 961.72,-588.17 1000.08,-557.65"/>
<polygon fill="black" stroke="black" points="1002.63,-560.1 1008.27,-551.13 998.27,-554.62 1002.63,-560.1"/>
</g>
<!-- roo_io -->
<g id="node11" class="node">
<title>roo_io</title>
<polygon fill="#b1dbab" stroke="red" points="676.5,-380 617.5,-380 617.5,-342 676.5,-342 676.5,-380"/>
<text text-anchor="middle" x="647" y="-364.8" font-family="Times,serif" font-size="14.00">roo_io</text>
<text text-anchor="middle" x="647" y="-349.8" font-family="Times,serif" font-size="14.00">2.1.5</text>
</g>
<!-- roo_comms&#45;&gt;roo_io -->
<g id="edge6" class="edge">
<title>roo_comms&#45;&gt;roo_io</title>
<path fill="none" stroke="black" d="M769.7,-704.8C753.17,-687.17 732,-658.77 732,-629 732,-629 732,-629 732,-435 732,-408.67 708.24,-389.78 685.84,-377.82"/>
<polygon fill="black" stroke="black" points="687.24,-374.6 676.73,-373.26 684.11,-380.86 687.24,-374.6"/>
</g>
<!-- roo_transceivers -->
<g id="node24" class="node">
<title>roo_transceivers</title>
<polygon fill="#b1dbab" stroke="black" points="505.5,-647 370.5,-647 370.5,-609 505.5,-609 505.5,-647"/>
<text text-anchor="middle" x="438" y="-631.8" font-family="Times,serif" font-size="14.00">roo_transceivers</text>
<text text-anchor="middle" x="438" y="-616.8" font-family="Times,serif" font-size="14.00">1.1.6</text>
</g>
<!-- roo_comms&#45;&gt;roo_transceivers -->
<g id="edge7" class="edge">
<title>roo_comms&#45;&gt;roo_transceivers</title>
<path fill="none" stroke="red" d="M740.26,-716.12C713.08,-710.86 679.31,-701.9 652,-687 639.3,-680.07 641.03,-671.29 628,-665 584.89,-644.18 567.03,-655.29 515.56,-646.89"/>
<polygon fill="red" stroke="red" points="516.01,-643.41 505.55,-645.08 514.77,-650.3 516.01,-643.41"/>
<text text-anchor="middle" x="685" y="-679" font-family="Times,serif" font-size="10.00" fill="red">1.1.5</text>
<text text-anchor="middle" x="685" y="-668" font-family="Times,serif" font-size="10.00" fill="red">(latest: 1.1.6)</text>
</g>
<!-- roo_quantity -->
<g id="node18" class="node">
<title>roo_quantity</title>
<polygon fill="#b1dbab" stroke="black" points="905.5,-455 798.5,-455 798.5,-417 905.5,-417 905.5,-455"/>
<text text-anchor="middle" x="852" y="-439.8" font-family="Times,serif" font-size="14.00">roo_quantity</text>
<text text-anchor="middle" x="852" y="-424.8" font-family="Times,serif" font-size="14.00">1.1.8</text>
</g>
<!-- roo_control&#45;&gt;roo_quantity -->
<g id="edge8" class="edge">
<title>roo_control&#45;&gt;roo_quantity</title>
<path fill="none" stroke="black" d="M996.49,-512.88C967.64,-497.73 926.34,-476.04 895.28,-459.73"/>
<polygon fill="black" stroke="black" points="896.89,-456.62 886.41,-455.07 893.63,-462.82 896.89,-456.62"/>
</g>
<!-- roo_control&#45;&gt;roo_scheduler -->
<g id="edge9" class="edge">
<title>roo_control&#45;&gt;roo_scheduler</title>
<path fill="none" stroke="black" d="M982.42,-515.32C979.24,-514.48 976.08,-513.7 973,-513 852.54,-485.72 820.8,-486.16 698,-473 582.83,-460.65 552.28,-473.91 438,-455 437.9,-454.98 437.8,-454.97 437.69,-454.95"/>
<polygon fill="black" stroke="black" points="438.55,-451.55 428.08,-453.15 437.27,-458.43 438.55,-451.55"/>
</g>
<!-- roo_dashboard -->
<g id="node6" class="node">
<title>roo_dashboard</title>
<polygon fill="plum" stroke="red" points="249,-743 127,-743 127,-705 249,-705 249,-743"/>
<text text-anchor="middle" x="188" y="-727.8" font-family="Times,serif" font-size="14.00">roo_dashboard</text>
<text text-anchor="middle" x="188" y="-712.8" font-family="Times,serif" font-size="14.00">1.0.1</text>
</g>
<!-- roo_windows -->
<g id="node27" class="node">
<title>roo_windows</title>
<polygon fill="khaki" stroke="red" points="349.5,-647 240.5,-647 240.5,-609 349.5,-609 349.5,-647"/>
<text text-anchor="middle" x="295" y="-631.8" font-family="Times,serif" font-size="14.00">roo_windows</text>
<text text-anchor="middle" x="295" y="-616.8" font-family="Times,serif" font-size="14.00">1.4.2</text>
</g>
<!-- roo_dashboard&#45;&gt;roo_windows -->
<g id="edge10" class="edge">
<title>roo_dashboard&#45;&gt;roo_windows</title>
<path fill="none" stroke="red" d="M203.11,-704.74C213.44,-692.79 227.8,-677.18 242,-665 246.82,-660.87 252.13,-656.79 257.46,-652.94"/>
<polygon fill="red" stroke="red" points="259.61,-655.71 265.81,-647.12 255.6,-649.97 259.61,-655.71"/>
<text text-anchor="middle" x="275" y="-679" font-family="Times,serif" font-size="10.00" fill="red">1.4.1</text>
<text text-anchor="middle" x="275" y="-668" font-family="Times,serif" font-size="10.00" fill="red">(latest: 1.4.2)</text>
</g>
<!-- roo_display -->
<g id="node7" class="node">
<title>roo_display</title>
<polygon fill="khaki" stroke="black" points="294,-455 196,-455 196,-417 294,-417 294,-455"/>
<text text-anchor="middle" x="245" y="-439.8" font-family="Times,serif" font-size="14.00">roo_display</text>
<text text-anchor="middle" x="245" y="-424.8" font-family="Times,serif" font-size="14.00">3.0.2</text>
</g>
<!-- roo_display&#45;&gt;roo_collections -->
<g id="edge11" class="edge">
<title>roo_display&#45;&gt;roo_collections</title>
<path fill="none" stroke="black" d="M294.08,-417.61C322.97,-407.37 359.73,-394.34 390.41,-383.47"/>
<polygon fill="black" stroke="black" points="391.89,-386.66 400.14,-380.02 389.55,-380.06 391.89,-386.66"/>
</g>
<!-- roo_display&#45;&gt;roo_io -->
<g id="edge12" class="edge">
<title>roo_display&#45;&gt;roo_io</title>
<path fill="none" stroke="black" d="M294.23,-419.2C297.19,-418.41 300.13,-417.67 303,-417 360.3,-403.6 529.26,-378.79 607.01,-367.66"/>
<polygon fill="black" stroke="black" points="607.95,-371.06 617.36,-366.18 606.96,-364.13 607.95,-371.06"/>
</g>
<!-- roo_flags -->
<g id="node8" class="node">
<title>roo_flags</title>
<polygon fill="#b1dbab" stroke="black" points="809,-209 729,-209 729,-171 809,-171 809,-209"/>
<text text-anchor="middle" x="769" y="-193.8" font-family="Times,serif" font-size="14.00">roo_flags</text>
<text text-anchor="middle" x="769" y="-178.8" font-family="Times,serif" font-size="14.00">1.2.3</text>
</g>
<!-- roo_fonts_basic -->
<g id="node9" class="node">
<title>roo_fonts_basic</title>
<polygon fill="#b1dbab" stroke="red" points="126,-551 0,-551 0,-513 126,-513 126,-551"/>
<text text-anchor="middle" x="63" y="-535.8" font-family="Times,serif" font-size="14.00">roo_fonts_basic</text>
<text text-anchor="middle" x="63" y="-520.8" font-family="Times,serif" font-size="14.00">1.0.1</text>
</g>
<!-- roo_fonts_basic&#45;&gt;roo_display -->
<g id="edge13" class="edge">
<title>roo_fonts_basic&#45;&gt;roo_display</title>
<path fill="none" stroke="red" d="M98.09,-512.88C127.42,-497.73 169.41,-476.04 200.99,-459.73"/>
<polygon fill="red" stroke="red" points="202.74,-462.77 210.02,-455.07 199.53,-456.55 202.74,-462.77"/>
<text text-anchor="middle" x="204" y="-487" font-family="Times,serif" font-size="10.00" fill="red">3.0.1</text>
<text text-anchor="middle" x="204" y="-476" font-family="Times,serif" font-size="10.00" fill="red">(latest: 3.0.2)</text>
</g>
<!-- roo_icons -->
<g id="node10" class="node">
<title>roo_icons</title>
<polygon fill="#b1dbab" stroke="black" points="333.5,-551 250.5,-551 250.5,-513 333.5,-513 333.5,-551"/>
<text text-anchor="middle" x="292" y="-535.8" font-family="Times,serif" font-size="14.00">roo_icons</text>
<text text-anchor="middle" x="292" y="-520.8" font-family="Times,serif" font-size="14.00">1.2.2</text>
</g>
<!-- roo_icons&#45;&gt;roo_display -->
<g id="edge14" class="edge">
<title>roo_icons&#45;&gt;roo_display</title>
<path fill="none" stroke="black" d="M282.94,-512.88C276.05,-499.09 266.45,-479.9 258.63,-464.26"/>
<polygon fill="black" stroke="black" points="261.64,-462.45 254.03,-455.07 255.38,-465.58 261.64,-462.45"/>
</g>
<!-- roo_io&#45;&gt;roo_logging -->
<g id="edge15" class="edge">
<title>roo_io&#45;&gt;roo_logging</title>
<path fill="none" stroke="black" d="M676.77,-342.33C693,-332.7 713.28,-320.66 730.78,-310.27"/>
<polygon fill="black" stroke="black" points="732.83,-313.13 739.64,-305.02 729.26,-307.11 732.83,-313.13"/>
</g>
<!-- roo_locale -->
<g id="node12" class="node">
<title>roo_locale</title>
<polygon fill="#b1dbab" stroke="black" points="232,-551 144,-551 144,-513 232,-513 232,-551"/>
<text text-anchor="middle" x="188" y="-535.8" font-family="Times,serif" font-size="14.00">roo_locale</text>
<text text-anchor="middle" x="188" y="-520.8" font-family="Times,serif" font-size="14.00">1.1.2</text>
</g>
<!-- roo_logging&#45;&gt;roo_backport -->
<g id="edge16" class="edge">
<title>roo_logging&#45;&gt;roo_backport</title>
<path fill="none" stroke="black" d="M750.45,-266.83C733.01,-250.79 709.41,-229.55 704,-227 658.8,-205.67 642.07,-218.49 593,-209 588.27,-208.09 583.39,-207.1 578.49,-206.07"/>
<polygon fill="black" stroke="black" points="578.94,-202.59 568.43,-203.93 577.48,-209.44 578.94,-202.59"/>
</g>
<!-- roo_logging&#45;&gt;roo_flags -->
<g id="edge17" class="edge">
<title>roo_logging&#45;&gt;roo_flags</title>
<path fill="none" stroke="black" d="M769.81,-266.88C769.66,-253.35 769.46,-234.62 769.3,-219.15"/>
<polygon fill="black" stroke="black" points="772.8,-219.03 769.19,-209.07 765.8,-219.11 772.8,-219.03"/>
</g>
<!-- roo_threads -->
<g id="node21" class="node">
<title>roo_threads</title>
<polygon fill="#b1dbab" stroke="red" points="702.5,-209 601.5,-209 601.5,-171 702.5,-171 702.5,-209"/>
<text text-anchor="middle" x="652" y="-193.8" font-family="Times,serif" font-size="14.00">roo_threads</text>
<text text-anchor="middle" x="652" y="-178.8" font-family="Times,serif" font-size="14.00">1.2.3</text>
</g>
<!-- roo_logging&#45;&gt;roo_threads -->
<g id="edge18" class="edge">
<title>roo_logging&#45;&gt;roo_threads</title>
<path fill="none" stroke="black" d="M760.87,-266.86C753.84,-254.34 743.1,-238.03 730,-227 724.27,-222.18 717.79,-217.87 711.08,-214.04"/>
<polygon fill="black" stroke="black" points="712.3,-210.73 701.82,-209.14 709.02,-216.91 712.3,-210.73"/>
</g>
<!-- roo_monitoring -->
<g id="node14" class="node">
<title>roo_monitoring</title>
<polygon fill="#b1dbab" stroke="black" points="571.5,-455 446.5,-455 446.5,-417 571.5,-417 571.5,-455"/>
<text text-anchor="middle" x="509" y="-439.8" font-family="Times,serif" font-size="14.00">roo_monitoring</text>
<text text-anchor="middle" x="509" y="-424.8" font-family="Times,serif" font-size="14.00">1.1.0</text>
</g>
<!-- roo_monitoring&#45;&gt;roo_collections -->
<g id="edge19" class="edge">
<title>roo_monitoring&#45;&gt;roo_collections</title>
<path fill="none" stroke="black" d="M494.66,-416.96C487.76,-408.27 479.36,-397.69 471.77,-388.14"/>
<polygon fill="black" stroke="black" points="474.33,-385.74 465.37,-380.09 468.85,-390.1 474.33,-385.74"/>
</g>
<!-- roo_monitoring&#45;&gt;roo_io -->
<g id="edge20" class="edge">
<title>roo_monitoring&#45;&gt;roo_io</title>
<path fill="none" stroke="black" d="M546.17,-416.83C557.42,-411.23 569.76,-404.95 581,-399 589.97,-394.25 599.53,-389 608.52,-383.98"/>
<polygon fill="black" stroke="black" points="610.26,-387.01 617.27,-379.06 606.83,-380.91 610.26,-387.01"/>
</g>
<!-- roo_onewire -->
<g id="node15" class="node">
<title>roo_onewire</title>
<polygon fill="#b1dbab" stroke="black" points="864,-551 760,-551 760,-513 864,-513 864,-551"/>
<text text-anchor="middle" x="812" y="-535.8" font-family="Times,serif" font-size="14.00">roo_onewire</text>
<text text-anchor="middle" x="812" y="-520.8" font-family="Times,serif" font-size="14.00">2.0.9</text>
</g>
<!-- roo_onewire&#45;&gt;roo_quantity -->
<g id="edge22" class="edge">
<title>roo_onewire&#45;&gt;roo_quantity</title>
<path fill="none" stroke="black" d="M819.71,-512.88C825.52,-499.22 833.59,-480.26 840.21,-464.71"/>
<polygon fill="black" stroke="black" points="843.62,-465.64 844.31,-455.07 837.18,-462.9 843.62,-465.64"/>
</g>
<!-- roo_onewire&#45;&gt;roo_scheduler -->
<g id="edge21" class="edge">
<title>roo_onewire&#45;&gt;roo_scheduler</title>
<path fill="none" stroke="black" d="M759.76,-521.38C687.27,-507.81 552.2,-481.69 438,-455 437.9,-454.98 437.8,-454.95 437.7,-454.93"/>
<polygon fill="black" stroke="black" points="438.72,-451.58 428.18,-452.64 437.09,-458.38 438.72,-451.58"/>
</g>
<!-- roo_powersafefs -->
<g id="node16" class="node">
<title>roo_powersafefs</title>
<polygon fill="plum" stroke="red" points="701.5,-305 568.5,-305 568.5,-267 701.5,-267 701.5,-305"/>
<text text-anchor="middle" x="635" y="-289.8" font-family="Times,serif" font-size="14.00">roo_powersafefs</text>
<text text-anchor="middle" x="635" y="-274.8" font-family="Times,serif" font-size="14.00">1.0.0</text>
</g>
<!-- roo_powersafefs&#45;&gt;roo_threads -->
<g id="edge23" class="edge">
<title>roo_powersafefs&#45;&gt;roo_threads</title>
<path fill="none" stroke="red" d="M638.28,-266.88C640.72,-253.35 644.11,-234.62 646.91,-219.15"/>
<polygon fill="red" stroke="red" points="650.4,-219.53 648.73,-209.07 643.51,-218.29 650.4,-219.53"/>
<text text-anchor="middle" x="678" y="-241" font-family="Times,serif" font-size="10.00" fill="red">1.2.1</text>
<text text-anchor="middle" x="678" y="-230" font-family="Times,serif" font-size="10.00" fill="red">(latest: 1.2.3)</text>
</g>
<!-- roo_prefs -->
<g id="node17" class="node">
<title>roo_prefs</title>
<polygon fill="#b1dbab" stroke="black" points="570.5,-551 487.5,-551 487.5,-513 570.5,-513 570.5,-551"/>
<text text-anchor="middle" x="529" y="-535.8" font-family="Times,serif" font-size="14.00">roo_prefs</text>
<text text-anchor="middle" x="529" y="-520.8" font-family="Times,serif" font-size="14.00">1.2.10</text>
</g>
<!-- roo_prefs&#45;&gt;roo_logging -->
<g id="edge24" class="edge">
<title>roo_prefs&#45;&gt;roo_logging</title>
<path fill="none" stroke="black" d="M570.74,-521.95C610.96,-511.49 671.64,-490.92 713,-455 753.96,-419.44 765.54,-353.3 768.78,-315.48"/>
<polygon fill="black" stroke="black" points="772.29,-315.39 769.51,-305.16 765.31,-314.89 772.29,-315.39"/>
</g>
<!-- roo_prefs&#45;&gt;roo_scheduler -->
<g id="edge25" class="edge">
<title>roo_prefs&#45;&gt;roo_scheduler</title>
<path fill="none" stroke="black" d="M498.34,-512.88C473.05,-497.92 436.98,-476.6 409.52,-460.36"/>
<polygon fill="black" stroke="black" points="410.95,-457.14 400.56,-455.07 407.39,-463.17 410.95,-457.14"/>
</g>
<!-- roo_quantity&#45;&gt;roo_logging -->
<g id="edge26" class="edge">
<title>roo_quantity&#45;&gt;roo_logging</title>
<path fill="none" stroke="black" d="M841.95,-416.85C827.74,-391.22 801.7,-344.22 785.15,-314.34"/>
<polygon fill="black" stroke="black" points="788.04,-312.35 780.14,-305.3 781.92,-315.74 788.04,-312.35"/>
</g>
<!-- roo_scheduler&#45;&gt;roo_collections -->
<g id="edge27" class="edge">
<title>roo_scheduler&#45;&gt;roo_collections</title>
<path fill="none" stroke="black" d="M390.02,-416.96C400.05,-407.92 412.35,-396.83 423.27,-386.99"/>
<polygon fill="black" stroke="black" points="425.84,-389.39 430.93,-380.09 421.16,-384.19 425.84,-389.39"/>
</g>
<!-- roo_scheduler&#45;&gt;roo_threads -->
<g id="edge28" class="edge">
<title>roo_scheduler&#45;&gt;roo_threads</title>
<path fill="none" stroke="black" d="M428.07,-419.47C464.68,-408.64 507.5,-393.73 521,-380 558.25,-342.11 529.72,-310.66 560,-267 574.23,-246.48 595.46,-228.43 613.94,-215.08"/>
<polygon fill="black" stroke="black" points="616.02,-217.89 622.2,-209.29 612,-212.16 616.02,-217.89"/>
</g>
<!-- roo_testing -->
<g id="node20" class="node">
<title>roo_testing</title>
<polygon fill="#b1dbab" stroke="black" points="822.5,-38 725.5,-38 725.5,0 822.5,0 822.5,-38"/>
<text text-anchor="middle" x="774" y="-22.8" font-family="Times,serif" font-size="14.00">roo_testing</text>
<text text-anchor="middle" x="774" y="-7.8" font-family="Times,serif" font-size="14.00">1.3.4</text>
</g>
<!-- roo_time -->
<g id="node22" class="node">
<title>roo_time</title>
<polygon fill="#b1dbab" stroke="red" points="813.5,-134 734.5,-134 734.5,-96 813.5,-96 813.5,-134"/>
<text text-anchor="middle" x="774" y="-118.8" font-family="Times,serif" font-size="14.00">roo_time</text>
<text text-anchor="middle" x="774" y="-103.8" font-family="Times,serif" font-size="14.00">1.4.3</text>
</g>
<!-- roo_threads&#45;&gt;roo_time -->
<g id="edge29" class="edge">
<title>roo_threads&#45;&gt;roo_time</title>
<path fill="none" stroke="black" d="M682.16,-170.96C698.14,-161.39 717.96,-149.53 735.09,-139.28"/>
<polygon fill="black" stroke="black" points="736.98,-142.23 743.77,-134.09 733.39,-136.22 736.98,-142.23"/>
</g>
<!-- roo_time&#45;&gt;roo_testing -->
<g id="edge30" class="edge">
<title>roo_time&#45;&gt;roo_testing</title>
<path fill="none" stroke="red" d="M774,-95.88C774,-82.35 774,-63.62 774,-48.15"/>
<polygon fill="red" stroke="red" points="777.5,-48.07 774,-38.07 770.5,-48.07 777.5,-48.07"/>
<text text-anchor="middle" x="807" y="-70" font-family="Times,serif" font-size="10.00" fill="red">1.3.2</text>
<text text-anchor="middle" x="807" y="-59" font-family="Times,serif" font-size="10.00" fill="red">(latest: 1.3.4)</text>
</g>
<!-- roo_time_ds3231 -->
<g id="node23" class="node">
<title>roo_time_ds3231</title>
<polygon fill="#b1dbab" stroke="black" points="965,-209 827,-209 827,-171 965,-171 965,-209"/>
<text text-anchor="middle" x="896" y="-193.8" font-family="Times,serif" font-size="14.00">roo_time_ds3231</text>
<text text-anchor="middle" x="896" y="-178.8" font-family="Times,serif" font-size="14.00">1.1.6</text>
</g>
<!-- roo_time_ds3231&#45;&gt;roo_time -->
<g id="edge31" class="edge">
<title>roo_time_ds3231&#45;&gt;roo_time</title>
<path fill="none" stroke="black" d="M865.84,-170.96C849.86,-161.39 830.04,-149.53 812.91,-139.28"/>
<polygon fill="black" stroke="black" points="814.61,-136.22 804.23,-134.09 811.02,-142.23 814.61,-136.22"/>
</g>
<!-- roo_transceivers&#45;&gt;roo_prefs -->
<g id="edge32" class="edge">
<title>roo_transceivers&#45;&gt;roo_prefs</title>
<path fill="none" stroke="black" d="M455.55,-608.88C469.39,-594.57 488.88,-574.44 504.31,-558.51"/>
<polygon fill="black" stroke="black" points="507.07,-560.69 511.51,-551.07 502.04,-555.82 507.07,-560.69"/>
</g>
<!-- roo_transport -->
<g id="node25" class="node">
<title>roo_transport</title>
<polygon fill="#b1dbab" stroke="black" points="704,-455 590,-455 590,-417 704,-417 704,-455"/>
<text text-anchor="middle" x="647" y="-439.8" font-family="Times,serif" font-size="14.00">roo_transport</text>
<text text-anchor="middle" x="647" y="-424.8" font-family="Times,serif" font-size="14.00">1.1.2</text>
</g>
<!-- roo_transport&#45;&gt;roo_collections -->
<g id="edge33" class="edge">
<title>roo_transport&#45;&gt;roo_collections</title>
<path fill="none" stroke="black" d="M598.55,-416.96C571.46,-406.86 537.51,-394.22 509.01,-383.61"/>
<polygon fill="black" stroke="black" points="510.16,-380.3 499.57,-380.09 507.72,-386.86 510.16,-380.3"/>
</g>
<!-- roo_transport&#45;&gt;roo_io -->
<g id="edge34" class="edge">
<title>roo_transport&#45;&gt;roo_io</title>
<path fill="none" stroke="black" d="M647,-416.96C647,-408.88 647,-399.18 647,-390.18"/>
<polygon fill="black" stroke="black" points="650.5,-390.09 647,-380.09 643.5,-390.09 650.5,-390.09"/>
</g>
<!-- roo_wifi -->
<g id="node26" class="node">
<title>roo_wifi</title>
<polygon fill="khaki" stroke="red" points="596,-647 524,-647 524,-609 596,-609 596,-647"/>
<text text-anchor="middle" x="560" y="-631.8" font-family="Times,serif" font-size="14.00">roo_wifi</text>
<text text-anchor="middle" x="560" y="-616.8" font-family="Times,serif" font-size="14.00">1.1.4</text>
</g>
<!-- roo_wifi&#45;&gt;roo_prefs -->
<g id="edge35" class="edge">
<title>roo_wifi&#45;&gt;roo_prefs</title>
<path fill="none" stroke="red" d="M554.02,-608.88C549.52,-595.22 543.27,-576.26 538.14,-560.71"/>
<polygon fill="red" stroke="red" points="541.41,-559.47 534.96,-551.07 534.77,-561.66 541.41,-559.47"/>
<text text-anchor="middle" x="583" y="-583" font-family="Times,serif" font-size="10.00" fill="red">1.2.9</text>
<text text-anchor="middle" x="583" y="-572" font-family="Times,serif" font-size="10.00" fill="red">(latest: 1.2.10)</text>
</g>
<!-- roo_windows&#45;&gt;roo_icons -->
<g id="edge37" class="edge">
<title>roo_windows&#45;&gt;roo_icons</title>
<path fill="none" stroke="red" d="M292.57,-608.72C291.93,-603.05 291.32,-596.78 291,-591 290.46,-581.28 290.47,-570.64 290.69,-561.15"/>
<polygon fill="red" stroke="red" points="294.2,-561.15 291.02,-551.04 287.2,-560.92 294.2,-561.15"/>
<text text-anchor="middle" x="324" y="-583" font-family="Times,serif" font-size="10.00" fill="red">1.2.1</text>
<text text-anchor="middle" x="324" y="-572" font-family="Times,serif" font-size="10.00" fill="red">(latest: 1.2.2)</text>
</g>
<!-- roo_windows&#45;&gt;roo_locale -->
<g id="edge36" class="edge">
<title>roo_windows&#45;&gt;roo_locale</title>
<path fill="none" stroke="red" d="M245.78,-608.81C236.54,-603.95 227.45,-598.04 220,-591 211.04,-582.53 203.97,-570.99 198.79,-560.43"/>
<polygon fill="red" stroke="red" points="201.88,-558.77 194.55,-551.12 195.51,-561.67 201.88,-558.77"/>
<text text-anchor="middle" x="253" y="-583" font-family="Times,serif" font-size="10.00" fill="red">1.1.1</text>
<text text-anchor="middle" x="253" y="-572" font-family="Times,serif" font-size="10.00" fill="red">(latest: 1.1.2)</text>
</g>
<!-- roo_windows&#45;&gt;roo_scheduler -->
<g id="edge38" class="edge">
<title>roo_windows&#45;&gt;roo_scheduler</title>
<path fill="none" stroke="red" d="M338.87,-608.84C345.98,-604.04 352.47,-598.15 357,-591 381.12,-552.91 379.18,-498.49 375,-465.58"/>
<polygon fill="red" stroke="red" points="378.41,-464.7 373.53,-455.29 371.48,-465.69 378.41,-464.7"/>
<text text-anchor="middle" x="410" y="-535" font-family="Times,serif" font-size="10.00" fill="red">2.1.6</text>
<text text-anchor="middle" x="410" y="-524" font-family="Times,serif" font-size="10.00" fill="red">(latest: 2.1.9)</text>
</g>
<!-- roo_windows_transceivers -->
<g id="node28" class="node">
<title>roo_windows_transceivers</title>
<polygon fill="plum" stroke="red" points="471,-743 267,-743 267,-705 471,-705 471,-743"/>
<text text-anchor="middle" x="369" y="-727.8" font-family="Times,serif" font-size="14.00">roo_windows_transceivers</text>
<text text-anchor="middle" x="369" y="-712.8" font-family="Times,serif" font-size="14.00">1.0.0</text>
</g>
<!-- roo_windows_transceivers&#45;&gt;roo_transceivers -->
<g id="edge39" class="edge">
<title>roo_windows_transceivers&#45;&gt;roo_transceivers</title>
<path fill="none" stroke="red" d="M382.3,-704.88C392.61,-690.83 407.05,-671.17 418.63,-655.38"/>
<polygon fill="red" stroke="red" points="421.64,-657.2 424.74,-647.07 416,-653.06 421.64,-657.2"/>
<text text-anchor="middle" x="442" y="-679" font-family="Times,serif" font-size="10.00" fill="red">1.1.3</text>
<text text-anchor="middle" x="442" y="-668" font-family="Times,serif" font-size="10.00" fill="red">(latest: 1.1.6)</text>
</g>
<!-- roo_windows_transceivers&#45;&gt;roo_windows -->
<g id="edge40" class="edge">
<title>roo_windows_transceivers&#45;&gt;roo_windows</title>
<path fill="none" stroke="red" d="M344.93,-704.93C338.66,-699.57 332.21,-693.41 327,-687 319.39,-677.64 312.64,-666.22 307.33,-655.99"/>
<polygon fill="red" stroke="red" points="310.46,-654.42 302.87,-647.03 304.19,-657.54 310.46,-654.42"/>
<text text-anchor="middle" x="360" y="-679" font-family="Times,serif" font-size="10.00" fill="red">1.4.1</text>
<text text-anchor="middle" x="360" y="-668" font-family="Times,serif" font-size="10.00" fill="red">(latest: 1.4.2)</text>
</g>
<!-- roo_windows_wifi -->
<g id="node29" class="node">
<title>roo_windows_wifi</title>
<polygon fill="plum" stroke="red" points="630.5,-743 489.5,-743 489.5,-705 630.5,-705 630.5,-743"/>
<text text-anchor="middle" x="560" y="-727.8" font-family="Times,serif" font-size="14.00">roo_windows_wifi</text>
<text text-anchor="middle" x="560" y="-712.8" font-family="Times,serif" font-size="14.00">1.1.3</text>
</g>
<!-- roo_windows_wifi&#45;&gt;roo_wifi -->
<g id="edge41" class="edge">
<title>roo_windows_wifi&#45;&gt;roo_wifi</title>
<path fill="none" stroke="red" d="M560,-704.88C560,-691.35 560,-672.62 560,-657.15"/>
<polygon fill="red" stroke="red" points="563.5,-657.07 560,-647.07 556.5,-657.07 563.5,-657.07"/>
<text text-anchor="middle" x="593" y="-679" font-family="Times,serif" font-size="10.00" fill="red">1.1.3</text>
<text text-anchor="middle" x="593" y="-668" font-family="Times,serif" font-size="10.00" fill="red">(latest: 1.1.4)</text>
</g>
<!-- roo_windows_wifi&#45;&gt;roo_windows -->
<g id="edge42" class="edge">
<title>roo_windows_wifi&#45;&gt;roo_windows</title>
<path fill="none" stroke="black" d="M540.3,-704.81C524.81,-691.58 502.06,-674.4 479,-665 430.28,-645.14 413.48,-657.84 362,-647 361.25,-646.84 360.49,-646.68 359.73,-646.52"/>
<polygon fill="black" stroke="black" points="360.26,-643.04 349.73,-644.23 358.7,-649.87 360.26,-643.04"/>
</g>
</g>
</svg>
