<?xml version="1.0" encoding="UTF-8" standalone="no"?>
<!DOCTYPE svg PUBLIC "-//W3C//DTD SVG 1.1//EN"
 "http://www.w3.org/Graphics/SVG/1.1/DTD/svg11.dtd">
<!-- Generated by graphviz version 2.42.4 (0)
 -->
<!-- Title: dependencies Pages: 1 -->
<svg width="850pt" height="772pt"
 viewBox="0.00 0.00 849.50 772.00" xmlns="http://www.w3.org/2000/svg" xmlns:xlink="http://www.w3.org/1999/xlink">
<g id="graph0" class="graph" transform="scale(1 1) rotate(0) translate(4 768)">
<title>dependencies</title>
<polygon fill="white" stroke="transparent" points="-4,4 -4,-768 845.5,-768 845.5,4 -4,4"/>
<!-- roo_backport -->
<g id="node1" class="node">
<title>roo_backport</title>
<polygon fill="#b1dbab" stroke="black" points="476.5,-209 387.5,-209 387.5,-171 476.5,-171 476.5,-209"/>
<text text-anchor="middle" x="432" y="-193.8" font-family="Times,serif" font-size="14.00">roo_backport</text>
<text text-anchor="middle" x="432" y="-178.8" font-family="Times,serif" font-size="14.00">1.2.1</text>
</g>
<!-- roo_blink -->
<g id="node2" class="node">
<title>roo_blink</title>
<polygon fill="#b1dbab" stroke="red" points="185.5,-593 116.5,-593 116.5,-555 185.5,-555 185.5,-593"/>
<text text-anchor="middle" x="151" y="-577.8" font-family="Times,serif" font-size="14.00">roo_blink</text>
<text text-anchor="middle" x="151" y="-562.8" font-family="Times,serif" font-size="14.00">1.0.4</text>
</g>
<!-- roo_logging -->
<g id="node13" class="node">
<title>roo_logging</title>
<polygon fill="#b1dbab" stroke="black" points="324.5,-305 241.5,-305 241.5,-267 324.5,-267 324.5,-305"/>
<text text-anchor="middle" x="283" y="-289.8" font-family="Times,serif" font-size="14.00">roo_logging</text>
<text text-anchor="middle" x="283" y="-274.8" font-family="Times,serif" font-size="14.00">1.5.3</text>
</g>
<!-- roo_blink&#45;&gt;roo_logging -->
<g id="edge1" class="edge">
<title>roo_blink&#45;&gt;roo_logging</title>
<path fill="none" stroke="red" d="M151.68,-554.62C153.38,-524.87 159.31,-464.88 180,-419 184.17,-409.76 188.22,-409.33 194,-401 217.2,-367.55 215.75,-354.11 242,-323 245.12,-319.3 248.63,-315.65 252.24,-312.17"/>
<polygon fill="red" stroke="red" points="254.72,-314.64 259.72,-305.31 249.99,-309.48 254.72,-314.64"/>
<text text-anchor="middle" x="207" y="-433" font-family="Times,serif" font-size="10.00" fill="red">1.5.1</text>
<text text-anchor="middle" x="207" y="-422" font-family="Times,serif" font-size="10.00" fill="red">(latest: 1.5.3)</text>
</g>
<!-- roo_scheduler -->
<g id="node19" class="node">
<title>roo_scheduler</title>
<polygon fill="#b1dbab" stroke="red" points="296.5,-497 203.5,-497 203.5,-459 296.5,-459 296.5,-497"/>
<text text-anchor="middle" x="250" y="-481.8" font-family="Times,serif" font-size="14.00">roo_scheduler</text>
<text text-anchor="middle" x="250" y="-466.8" font-family="Times,serif" font-size="14.00">2.1.6</text>
</g>
<!-- roo_blink&#45;&gt;roo_scheduler -->
<g id="edge2" class="edge">
<title>roo_blink&#45;&gt;roo_scheduler</title>
<path fill="none" stroke="black" d="M169.95,-554.96C181.99,-543.51 197.9,-528.38 212,-515 215.6,-511.58 219.39,-507.98 223.14,-504.44"/>
<polygon fill="black" stroke="black" points="225.81,-506.73 230.66,-497.31 221,-501.64 225.81,-506.73"/>
</g>
<!-- roo_collections -->
<g id="node3" class="node">
<title>roo_collections</title>
<polygon fill="#b1dbab" stroke="black" points="612,-401 512,-401 512,-363 612,-363 612,-401"/>
<text text-anchor="middle" x="562" y="-385.8" font-family="Times,serif" font-size="14.00">roo_collections</text>
<text text-anchor="middle" x="562" y="-370.8" font-family="Times,serif" font-size="14.00">1.4.1</text>
</g>
<!-- roo_collections&#45;&gt;roo_backport -->
<g id="edge3" class="edge">
<title>roo_collections&#45;&gt;roo_backport</title>
<path fill="none" stroke="black" d="M549.54,-362.78C526.43,-329.02 476.89,-256.61 450.1,-217.45"/>
<polygon fill="black" stroke="black" points="452.96,-215.44 444.43,-209.16 447.19,-219.39 452.96,-215.44"/>
</g>
<!-- roo_comms -->
<g id="node4" class="node">
<title>roo_comms</title>
<polygon fill="#b1dbab" stroke="red" points="278,-764 196,-764 196,-726 278,-726 278,-764"/>
<text text-anchor="middle" x="237" y="-748.8" font-family="Times,serif" font-size="14.00">roo_comms</text>
<text text-anchor="middle" x="237" y="-733.8" font-family="Times,serif" font-size="14.00">1.1.3</text>
</g>
<!-- roo_comms&#45;&gt;roo_blink -->
<g id="edge4" class="edge">
<title>roo_comms&#45;&gt;roo_blink</title>
<path fill="none" stroke="black" d="M227.8,-725.91C212.71,-696.26 182.61,-637.12 164.91,-602.33"/>
<polygon fill="black" stroke="black" points="167.92,-600.54 160.27,-593.21 161.68,-603.71 167.92,-600.54"/>
</g>
<!-- roo_control -->
<g id="node5" class="node">
<title>roo_control</title>
<polygon fill="#b1dbab" stroke="red" points="98,-593 18,-593 18,-555 98,-555 98,-593"/>
<text text-anchor="middle" x="58" y="-577.8" font-family="Times,serif" font-size="14.00">roo_control</text>
<text text-anchor="middle" x="58" y="-562.8" font-family="Times,serif" font-size="14.00">1.2.3</text>
</g>
<!-- roo_comms&#45;&gt;roo_control -->
<g id="edge5" class="edge">
<title>roo_comms&#45;&gt;roo_control</title>
<path fill="none" stroke="black" d="M217.84,-725.91C185.76,-695.63 121.11,-634.58 84.62,-600.14"/>
<polygon fill="black" stroke="black" points="86.96,-597.53 77.29,-593.21 82.16,-602.62 86.96,-597.53"/>
</g>
<!-- roo_io -->
<g id="node10" class="node">
<title>roo_io</title>
<polygon fill="plum" stroke="red" points="454,-401 400,-401 400,-363 454,-363 454,-401"/>
<text text-anchor="middle" x="427" y="-385.8" font-family="Times,serif" font-size="14.00">roo_io</text>
<text text-anchor="middle" x="427" y="-370.8" font-family="Times,serif" font-size="14.00">2.1.2</text>
</g>
<!-- roo_comms&#45;&gt;roo_io -->
<g id="edge6" class="edge">
<title>roo_comms&#45;&gt;roo_io</title>
<path fill="none" stroke="red" d="M270.27,-725.92C295.19,-709.69 325,-683.31 325,-650 325,-650 325,-650 325,-477 325,-450.48 321.72,-439.12 339,-419 351.86,-404.03 371.89,-395.19 389.6,-390.02"/>
<polygon fill="red" stroke="red" points="390.9,-393.3 399.69,-387.38 389.13,-386.53 390.9,-393.3"/>
<text text-anchor="middle" x="352" y="-577" font-family="Times,serif" font-size="10.00" fill="red">2.1.1</text>
<text text-anchor="middle" x="352" y="-566" font-family="Times,serif" font-size="10.00" fill="red">(latest: 2.1.2)</text>
</g>
<!-- roo_transceivers -->
<g id="node24" class="node">
<title>roo_transceivers</title>
<polygon fill="#b1dbab" stroke="red" points="459,-668 353,-668 353,-630 459,-630 459,-668"/>
<text text-anchor="middle" x="406" y="-652.8" font-family="Times,serif" font-size="14.00">roo_transceivers</text>
<text text-anchor="middle" x="406" y="-637.8" font-family="Times,serif" font-size="14.00">1.1.4</text>
</g>
<!-- roo_comms&#45;&gt;roo_transceivers -->
<g id="edge7" class="edge">
<title>roo_comms&#45;&gt;roo_transceivers</title>
<path fill="none" stroke="black" d="M278.25,-733.3C297.46,-727.36 320.17,-718.94 339,-708 354.28,-699.12 369.33,-686.54 381.29,-675.36"/>
<polygon fill="black" stroke="black" points="383.88,-677.72 388.67,-668.27 379.03,-672.67 383.88,-677.72"/>
</g>
<!-- roo_quantity -->
<g id="node18" class="node">
<title>roo_quantity</title>
<polygon fill="#b1dbab" stroke="red" points="120,-497 34,-497 34,-459 120,-459 120,-497"/>
<text text-anchor="middle" x="77" y="-481.8" font-family="Times,serif" font-size="14.00">roo_quantity</text>
<text text-anchor="middle" x="77" y="-466.8" font-family="Times,serif" font-size="14.00">1.1.6</text>
</g>
<!-- roo_control&#45;&gt;roo_quantity -->
<g id="edge8" class="edge">
<title>roo_control&#45;&gt;roo_quantity</title>
<path fill="none" stroke="red" d="M61.66,-554.88C64.4,-541.35 68.18,-522.62 71.31,-507.15"/>
<polygon fill="red" stroke="red" points="74.8,-507.56 73.35,-497.07 67.94,-506.18 74.8,-507.56"/>
<text text-anchor="middle" x="97" y="-529" font-family="Times,serif" font-size="10.00" fill="red">1.1.5</text>
<text text-anchor="middle" x="97" y="-518" font-family="Times,serif" font-size="10.00" fill="red">(latest: 1.1.6)</text>
</g>
<!-- roo_control&#45;&gt;roo_scheduler -->
<g id="edge9" class="edge">
<title>roo_control&#45;&gt;roo_scheduler</title>
<path fill="none" stroke="black" d="M95.02,-554.88C126.1,-539.66 170.64,-517.85 204,-501.52"/>
<polygon fill="black" stroke="black" points="205.65,-504.61 213.09,-497.07 202.57,-498.32 205.65,-504.61"/>
</g>
<!-- roo_dashboard -->
<g id="node6" class="node">
<title>roo_dashboard</title>
<polygon fill="plum" stroke="red" points="738.5,-764 641.5,-764 641.5,-726 738.5,-726 738.5,-764"/>
<text text-anchor="middle" x="690" y="-748.8" font-family="Times,serif" font-size="14.00">roo_dashboard</text>
<text text-anchor="middle" x="690" y="-733.8" font-family="Times,serif" font-size="14.00">1.0.1</text>
</g>
<!-- roo_windows -->
<g id="node27" class="node">
<title>roo_windows</title>
<polygon fill="#b1dbab" stroke="red" points="651,-668 561,-668 561,-630 651,-630 651,-668"/>
<text text-anchor="middle" x="606" y="-652.8" font-family="Times,serif" font-size="14.00">roo_windows</text>
<text text-anchor="middle" x="606" y="-637.8" font-family="Times,serif" font-size="14.00">1.4.2</text>
</g>
<!-- roo_dashboard&#45;&gt;roo_windows -->
<g id="edge10" class="edge">
<title>roo_dashboard&#45;&gt;roo_windows</title>
<path fill="none" stroke="red" d="M673.8,-725.88C661.14,-711.7 643.36,-691.81 629.18,-675.94"/>
<polygon fill="red" stroke="red" points="631.42,-673.19 622.15,-668.07 626.2,-677.86 631.42,-673.19"/>
<text text-anchor="middle" x="682" y="-700" font-family="Times,serif" font-size="10.00" fill="red">1.4.1</text>
<text text-anchor="middle" x="682" y="-689" font-family="Times,serif" font-size="10.00" fill="red">(latest: 1.4.2)</text>
</g>
<!-- roo_display -->
<g id="node7" class="node">
<title>roo_display</title>
<polygon fill="khaki" stroke="red" points="634,-497 554,-497 554,-459 634,-459 634,-497"/>
<text text-anchor="middle" x="594" y="-481.8" font-family="Times,serif" font-size="14.00">roo_display</text>
<text text-anchor="middle" x="594" y="-466.8" font-family="Times,serif" font-size="14.00">2.3.2</text>
</g>
<!-- roo_display&#45;&gt;roo_collections -->
<g id="edge11" class="edge">
<title>roo_display&#45;&gt;roo_collections</title>
<path fill="none" stroke="red" d="M609.22,-459C617.18,-447.29 623.95,-431.86 617,-419 614.77,-414.88 611.84,-411.15 608.5,-407.8"/>
<polygon fill="red" stroke="red" points="610.49,-404.9 600.62,-401.06 605.94,-410.22 610.49,-404.9"/>
<text text-anchor="middle" x="646" y="-433" font-family="Times,serif" font-size="10.00" fill="red">1.4.0</text>
<text text-anchor="middle" x="646" y="-422" font-family="Times,serif" font-size="10.00" fill="red">(latest: 1.4.1)</text>
</g>
<!-- roo_display&#45;&gt;roo_io -->
<g id="edge12" class="edge">
<title>roo_display&#45;&gt;roo_io</title>
<path fill="none" stroke="black" d="M553.67,-467.14C518.93,-458.41 473.27,-446.26 466,-441 455.1,-433.11 446.32,-421.16 439.87,-410.16"/>
<polygon fill="black" stroke="black" points="442.87,-408.35 435.01,-401.25 436.73,-411.71 442.87,-408.35"/>
</g>
<!-- roo_flags -->
<g id="node8" class="node">
<title>roo_flags</title>
<polygon fill="#b1dbab" stroke="black" points="317,-209 249,-209 249,-171 317,-171 317,-209"/>
<text text-anchor="middle" x="283" y="-193.8" font-family="Times,serif" font-size="14.00">roo_flags</text>
<text text-anchor="middle" x="283" y="-178.8" font-family="Times,serif" font-size="14.00">1.2.1</text>
</g>
<!-- roo_icons -->
<g id="node9" class="node">
<title>roo_icons</title>
<polygon fill="#b1dbab" stroke="red" points="629,-593 559,-593 559,-555 629,-555 629,-593"/>
<text text-anchor="middle" x="594" y="-577.8" font-family="Times,serif" font-size="14.00">roo_icons</text>
<text text-anchor="middle" x="594" y="-562.8" font-family="Times,serif" font-size="14.00">1.2.1</text>
</g>
<!-- roo_icons&#45;&gt;roo_display -->
<g id="edge13" class="edge">
<title>roo_icons&#45;&gt;roo_display</title>
<path fill="none" stroke="red" d="M594,-554.88C594,-541.35 594,-522.62 594,-507.15"/>
<polygon fill="red" stroke="red" points="597.5,-507.07 594,-497.07 590.5,-507.07 597.5,-507.07"/>
<text text-anchor="middle" x="621" y="-529" font-family="Times,serif" font-size="10.00" fill="red">2.3.1</text>
<text text-anchor="middle" x="621" y="-518" font-family="Times,serif" font-size="10.00" fill="red">(latest: 2.3.2)</text>
</g>
<!-- roo_io&#45;&gt;roo_logging -->
<g id="edge14" class="edge">
<title>roo_io&#45;&gt;roo_logging</title>
<path fill="none" stroke="red" d="M399.91,-363.32C377.18,-348.48 344.49,-327.14 319.45,-310.8"/>
<polygon fill="red" stroke="red" points="321.23,-307.78 310.95,-305.24 317.41,-313.64 321.23,-307.78"/>
<text text-anchor="middle" x="395" y="-337" font-family="Times,serif" font-size="10.00" fill="red">1.5.2</text>
<text text-anchor="middle" x="395" y="-326" font-family="Times,serif" font-size="10.00" fill="red">(latest: 1.5.3)</text>
</g>
<!-- roo_io_sdfat -->
<g id="node11" class="node">
<title>roo_io_sdfat</title>
<polygon fill="plum" stroke="black" points="841.5,-764 756.5,-764 756.5,-726 841.5,-726 841.5,-764"/>
<text text-anchor="middle" x="799" y="-748.8" font-family="Times,serif" font-size="14.00">roo_io_sdfat</text>
<text text-anchor="middle" x="799" y="-733.8" font-family="Times,serif" font-size="14.00">1.0.0</text>
</g>
<!-- roo_locale -->
<g id="node12" class="node">
<title>roo_locale</title>
<polygon fill="#b1dbab" stroke="black" points="721,-593 647,-593 647,-555 721,-555 721,-593"/>
<text text-anchor="middle" x="684" y="-577.8" font-family="Times,serif" font-size="14.00">roo_locale</text>
<text text-anchor="middle" x="684" y="-562.8" font-family="Times,serif" font-size="14.00">1.1.1</text>
</g>
<!-- roo_logging&#45;&gt;roo_backport -->
<g id="edge15" class="edge">
<title>roo_logging&#45;&gt;roo_backport</title>
<path fill="none" stroke="black" d="M311.73,-266.88C335.33,-251.99 368.94,-230.78 394.63,-214.57"/>
<polygon fill="black" stroke="black" points="396.77,-217.36 403.36,-209.07 393.03,-211.44 396.77,-217.36"/>
</g>
<!-- roo_logging&#45;&gt;roo_flags -->
<g id="edge16" class="edge">
<title>roo_logging&#45;&gt;roo_flags</title>
<path fill="none" stroke="black" d="M283,-266.88C283,-253.35 283,-234.62 283,-219.15"/>
<polygon fill="black" stroke="black" points="286.5,-219.07 283,-209.07 279.5,-219.07 286.5,-219.07"/>
</g>
<!-- roo_threads -->
<g id="node21" class="node">
<title>roo_threads</title>
<polygon fill="#b1dbab" stroke="black" points="210,-209 130,-209 130,-171 210,-171 210,-209"/>
<text text-anchor="middle" x="170" y="-193.8" font-family="Times,serif" font-size="14.00">roo_threads</text>
<text text-anchor="middle" x="170" y="-178.8" font-family="Times,serif" font-size="14.00">1.2.1</text>
</g>
<!-- roo_logging&#45;&gt;roo_threads -->
<g id="edge17" class="edge">
<title>roo_logging&#45;&gt;roo_threads</title>
<path fill="none" stroke="black" d="M267.95,-266.84C257.45,-254.78 242.74,-239.01 228,-227 222.69,-222.67 216.82,-218.47 210.92,-214.55"/>
<polygon fill="black" stroke="black" points="212.62,-211.47 202.31,-209.02 208.84,-217.37 212.62,-211.47"/>
</g>
<!-- roo_monitoring -->
<g id="node14" class="node">
<title>roo_monitoring</title>
<polygon fill="khaki" stroke="red" points="760,-497 658,-497 658,-459 760,-459 760,-497"/>
<text text-anchor="middle" x="709" y="-481.8" font-family="Times,serif" font-size="14.00">roo_monitoring</text>
<text text-anchor="middle" x="709" y="-466.8" font-family="Times,serif" font-size="14.00">1.0.0</text>
</g>
<!-- roo_monitoring&#45;&gt;roo_collections -->
<g id="edge18" class="edge">
<title>roo_monitoring&#45;&gt;roo_collections</title>
<path fill="none" stroke="red" d="M703.14,-458.89C698.11,-446.05 689.65,-429.33 677,-419 661.34,-406.21 641.11,-397.94 622,-392.61"/>
<polygon fill="red" stroke="red" points="622.69,-389.17 612.14,-390.08 620.95,-395.96 622.69,-389.17"/>
<text text-anchor="middle" x="720" y="-433" font-family="Times,serif" font-size="10.00" fill="red">1.3.2</text>
<text text-anchor="middle" x="720" y="-422" font-family="Times,serif" font-size="10.00" fill="red">(latest: 1.4.1)</text>
</g>
<!-- roo_monitoring&#45;&gt;roo_io -->
<g id="edge19" class="edge">
<title>roo_monitoring&#45;&gt;roo_io</title>
<path fill="none" stroke="red" d="M657.66,-462.17C652.73,-461 647.78,-459.91 643,-459 572.28,-445.49 545.7,-474.56 482,-441 470.57,-434.98 471.8,-428.46 463,-419 459.71,-415.46 456.19,-411.8 452.68,-408.22"/>
<polygon fill="red" stroke="red" points="455.11,-405.69 445.58,-401.06 450.14,-410.62 455.11,-405.69"/>
<text text-anchor="middle" x="509" y="-433" font-family="Times,serif" font-size="10.00" fill="red">2.0.3</text>
<text text-anchor="middle" x="509" y="-422" font-family="Times,serif" font-size="10.00" fill="red">(latest: 2.1.2)</text>
</g>
<!-- roo_onewire -->
<g id="node15" class="node">
<title>roo_onewire</title>
<polygon fill="#b1dbab" stroke="red" points="288.5,-593 203.5,-593 203.5,-555 288.5,-555 288.5,-593"/>
<text text-anchor="middle" x="246" y="-577.8" font-family="Times,serif" font-size="14.00">roo_onewire</text>
<text text-anchor="middle" x="246" y="-562.8" font-family="Times,serif" font-size="14.00">2.0.7</text>
</g>
<!-- roo_onewire&#45;&gt;roo_quantity -->
<g id="edge21" class="edge">
<title>roo_onewire&#45;&gt;roo_quantity</title>
<path fill="none" stroke="red" d="M213.42,-554.88C186.29,-539.79 147.53,-518.23 118.24,-501.94"/>
<polygon fill="red" stroke="red" points="119.93,-498.87 109.48,-497.07 116.52,-504.99 119.93,-498.87"/>
<text text-anchor="middle" x="204" y="-529" font-family="Times,serif" font-size="10.00" fill="red">1.1.5</text>
<text text-anchor="middle" x="204" y="-518" font-family="Times,serif" font-size="10.00" fill="red">(latest: 1.1.6)</text>
</g>
<!-- roo_onewire&#45;&gt;roo_scheduler -->
<g id="edge20" class="edge">
<title>roo_onewire&#45;&gt;roo_scheduler</title>
<path fill="none" stroke="black" d="M272.82,-554.64C278.16,-549.6 283.04,-543.66 286,-537 289.98,-528.07 289.74,-524.03 286,-515 284.48,-511.34 282.39,-507.85 279.98,-504.6"/>
<polygon fill="black" stroke="black" points="282.62,-502.3 273.44,-497.01 277.31,-506.87 282.62,-502.3"/>
</g>
<!-- roo_powersafefs -->
<g id="node16" class="node">
<title>roo_powersafefs</title>
<polygon fill="plum" stroke="red" points="223.5,-305 116.5,-305 116.5,-267 223.5,-267 223.5,-305"/>
<text text-anchor="middle" x="170" y="-289.8" font-family="Times,serif" font-size="14.00">roo_powersafefs</text>
<text text-anchor="middle" x="170" y="-274.8" font-family="Times,serif" font-size="14.00">1.0.0</text>
</g>
<!-- roo_powersafefs&#45;&gt;roo_threads -->
<g id="edge22" class="edge">
<title>roo_powersafefs&#45;&gt;roo_threads</title>
<path fill="none" stroke="red" d="M170,-266.88C170,-253.35 170,-234.62 170,-219.15"/>
<polygon fill="red" stroke="red" points="173.5,-219.07 170,-209.07 166.5,-219.07 173.5,-219.07"/>
<text text-anchor="middle" x="197" y="-241" font-family="Times,serif" font-size="10.00" fill="red">1.1.6</text>
<text text-anchor="middle" x="197" y="-230" font-family="Times,serif" font-size="10.00" fill="red">(latest: 1.2.1)</text>
</g>
<!-- roo_prefs -->
<g id="node17" class="node">
<title>roo_prefs</title>
<polygon fill="#b1dbab" stroke="red" points="465,-593 397,-593 397,-555 465,-555 465,-593"/>
<text text-anchor="middle" x="431" y="-577.8" font-family="Times,serif" font-size="14.00">roo_prefs</text>
<text text-anchor="middle" x="431" y="-562.8" font-family="Times,serif" font-size="14.00">1.2.7</text>
</g>
<!-- roo_prefs&#45;&gt;roo_logging -->
<g id="edge23" class="edge">
<title>roo_prefs&#45;&gt;roo_logging</title>
<path fill="none" stroke="red" d="M411.63,-554.92C387.12,-532.18 343.46,-492.1 305,-459 295.42,-450.76 288.41,-452.42 283,-441 263.87,-400.63 269.71,-347.34 276.08,-315.2"/>
<polygon fill="red" stroke="red" points="279.56,-315.68 278.22,-305.17 272.71,-314.21 279.56,-315.68"/>
<text text-anchor="middle" x="310" y="-433" font-family="Times,serif" font-size="10.00" fill="red">1.5.1</text>
<text text-anchor="middle" x="310" y="-422" font-family="Times,serif" font-size="10.00" fill="red">(latest: 1.5.3)</text>
</g>
<!-- roo_prefs&#45;&gt;roo_scheduler -->
<g id="edge24" class="edge">
<title>roo_prefs&#45;&gt;roo_scheduler</title>
<path fill="none" stroke="black" d="M396.96,-555.32C367.78,-540.17 325.58,-518.25 293.88,-501.79"/>
<polygon fill="black" stroke="black" points="295.3,-498.58 284.82,-497.08 292.08,-504.8 295.3,-498.58"/>
</g>
<!-- roo_quantity&#45;&gt;roo_logging -->
<g id="edge25" class="edge">
<title>roo_quantity&#45;&gt;roo_logging</title>
<path fill="none" stroke="red" d="M84.1,-458.93C94.07,-435.11 113.93,-392.78 140,-363 159.67,-340.53 167.95,-337.61 194,-323 205.82,-316.37 219.1,-310.33 231.73,-305.16"/>
<polygon fill="red" stroke="red" points="233.23,-308.33 241.23,-301.38 230.64,-301.83 233.23,-308.33"/>
<text text-anchor="middle" x="167" y="-385" font-family="Times,serif" font-size="10.00" fill="red">1.5.2</text>
<text text-anchor="middle" x="167" y="-374" font-family="Times,serif" font-size="10.00" fill="red">(latest: 1.5.3)</text>
</g>
<!-- roo_scheduler&#45;&gt;roo_collections -->
<g id="edge26" class="edge">
<title>roo_scheduler&#45;&gt;roo_collections</title>
<path fill="none" stroke="red" d="M293.57,-458.93C324.34,-446.6 366.75,-430.49 405,-419 436.5,-409.54 472.21,-401.17 501.59,-394.89"/>
<polygon fill="red" stroke="red" points="502.65,-398.25 511.71,-392.76 501.2,-391.4 502.65,-398.25"/>
<text text-anchor="middle" x="432" y="-433" font-family="Times,serif" font-size="10.00" fill="red">1.4.0</text>
<text text-anchor="middle" x="432" y="-422" font-family="Times,serif" font-size="10.00" fill="red">(latest: 1.4.1)</text>
</g>
<!-- roo_scheduler&#45;&gt;roo_threads -->
<g id="edge27" class="edge">
<title>roo_scheduler&#45;&gt;roo_threads</title>
<path fill="none" stroke="red" d="M235.47,-458.91C226.22,-447.43 213.97,-432.3 203,-419 182.33,-393.93 176.93,-387.85 156,-363 134.26,-337.19 118.59,-336.69 107,-305 101.2,-289.14 101.27,-282.89 107,-267 113.97,-247.68 128.21,-229.8 141.4,-216.24"/>
<polygon fill="red" stroke="red" points="143.9,-218.69 148.56,-209.17 138.98,-213.7 143.9,-218.69"/>
<text text-anchor="middle" x="165" y="-337" font-family="Times,serif" font-size="10.00" fill="red">1.2.0</text>
<text text-anchor="middle" x="165" y="-326" font-family="Times,serif" font-size="10.00" fill="red">(latest: 1.2.1)</text>
</g>
<!-- roo_testing -->
<g id="node20" class="node">
<title>roo_testing</title>
<polygon fill="#b1dbab" stroke="black" points="128.5,-38 51.5,-38 51.5,0 128.5,0 128.5,-38"/>
<text text-anchor="middle" x="90" y="-22.8" font-family="Times,serif" font-size="14.00">roo_testing</text>
<text text-anchor="middle" x="90" y="-7.8" font-family="Times,serif" font-size="14.00">1.2.1</text>
</g>
<!-- roo_time -->
<g id="node22" class="node">
<title>roo_time</title>
<polygon fill="#b1dbab" stroke="black" points="123,-113 57,-113 57,-75 123,-75 123,-113"/>
<text text-anchor="middle" x="90" y="-97.8" font-family="Times,serif" font-size="14.00">roo_time</text>
<text text-anchor="middle" x="90" y="-82.8" font-family="Times,serif" font-size="14.00">1.4.1</text>
</g>
<!-- roo_threads&#45;&gt;roo_time -->
<g id="edge28" class="edge">
<title>roo_threads&#45;&gt;roo_time</title>
<path fill="none" stroke="black" d="M160.3,-170.76C153.49,-158.81 143.72,-143.2 133,-131 129.63,-127.17 125.84,-123.39 121.94,-119.82"/>
<polygon fill="black" stroke="black" points="124.22,-117.16 114.39,-113.22 119.62,-122.44 124.22,-117.16"/>
</g>
<!-- roo_time&#45;&gt;roo_testing -->
<g id="edge29" class="edge">
<title>roo_time&#45;&gt;roo_testing</title>
<path fill="none" stroke="black" d="M90,-74.96C90,-66.88 90,-57.18 90,-48.18"/>
<polygon fill="black" stroke="black" points="93.5,-48.09 90,-38.09 86.5,-48.09 93.5,-48.09"/>
</g>
<!-- roo_time_ds3231 -->
<g id="node23" class="node">
<title>roo_time_ds3231</title>
<polygon fill="#b1dbab" stroke="red" points="112,-209 0,-209 0,-171 112,-171 112,-209"/>
<text text-anchor="middle" x="56" y="-193.8" font-family="Times,serif" font-size="14.00">roo_time_ds3231</text>
<text text-anchor="middle" x="56" y="-178.8" font-family="Times,serif" font-size="14.00">1.1.4</text>
</g>
<!-- roo_time_ds3231&#45;&gt;roo_time -->
<g id="edge30" class="edge">
<title>roo_time_ds3231&#45;&gt;roo_time</title>
<path fill="none" stroke="red" d="M62.56,-170.88C67.49,-157.22 74.35,-138.26 79.98,-122.71"/>
<polygon fill="red" stroke="red" points="83.35,-123.66 83.46,-113.07 76.77,-121.28 83.35,-123.66"/>
<text text-anchor="middle" x="104" y="-145" font-family="Times,serif" font-size="10.00" fill="red">1.4.0</text>
<text text-anchor="middle" x="104" y="-134" font-family="Times,serif" font-size="10.00" fill="red">(latest: 1.4.1)</text>
</g>
<!-- roo_transceivers&#45;&gt;roo_prefs -->
<g id="edge31" class="edge">
<title>roo_transceivers&#45;&gt;roo_prefs</title>
<path fill="none" stroke="black" d="M412.18,-629.96C415,-621.71 418.41,-611.75 421.55,-602.6"/>
<polygon fill="black" stroke="black" points="424.88,-603.68 424.8,-593.09 418.25,-601.42 424.88,-603.68"/>
</g>
<!-- roo_transport -->
<g id="node25" class="node">
<title>roo_transport</title>
<polygon fill="khaki" stroke="red" points="511.5,-497 422.5,-497 422.5,-459 511.5,-459 511.5,-497"/>
<text text-anchor="middle" x="467" y="-481.8" font-family="Times,serif" font-size="14.00">roo_transport</text>
<text text-anchor="middle" x="467" y="-466.8" font-family="Times,serif" font-size="14.00">1.1.0</text>
</g>
<!-- roo_transport&#45;&gt;roo_collections -->
<g id="edge32" class="edge">
<title>roo_transport&#45;&gt;roo_collections</title>
<path fill="none" stroke="red" d="M511.53,-461.6C521.92,-456.35 532.21,-449.58 540,-441 547.6,-432.63 552.67,-421.37 556,-411"/>
<polygon fill="red" stroke="red" points="559.46,-411.63 558.79,-401.06 552.72,-409.75 559.46,-411.63"/>
<text text-anchor="middle" x="580" y="-433" font-family="Times,serif" font-size="10.00" fill="red">1.4.0</text>
<text text-anchor="middle" x="580" y="-422" font-family="Times,serif" font-size="10.00" fill="red">(latest: 1.4.1)</text>
</g>
<!-- roo_transport&#45;&gt;roo_io -->
<g id="edge33" class="edge">
<title>roo_transport&#45;&gt;roo_io</title>
<path fill="none" stroke="black" d="M451.77,-458.8C447.79,-453.34 443.84,-447.16 441,-441 436.71,-431.67 433.64,-420.87 431.49,-411.13"/>
<polygon fill="black" stroke="black" points="434.88,-410.24 429.51,-401.11 428.02,-411.6 434.88,-410.24"/>
</g>
<!-- roo_wifi -->
<g id="node26" class="node">
<title>roo_wifi</title>
<polygon fill="#b1dbab" stroke="red" points="540.5,-668 477.5,-668 477.5,-630 540.5,-630 540.5,-668"/>
<text text-anchor="middle" x="509" y="-652.8" font-family="Times,serif" font-size="14.00">roo_wifi</text>
<text text-anchor="middle" x="509" y="-637.8" font-family="Times,serif" font-size="14.00">1.1.3</text>
</g>
<!-- roo_wifi&#45;&gt;roo_prefs -->
<g id="edge34" class="edge">
<title>roo_wifi&#45;&gt;roo_prefs</title>
<path fill="none" stroke="black" d="M489.72,-629.96C480.06,-620.92 468.22,-609.83 457.7,-599.99"/>
<polygon fill="black" stroke="black" points="460.02,-597.37 450.33,-593.09 455.24,-602.48 460.02,-597.37"/>
</g>
<!-- roo_windows&#45;&gt;roo_icons -->
<g id="edge36" class="edge">
<title>roo_windows&#45;&gt;roo_icons</title>
<path fill="none" stroke="black" d="M603.03,-629.96C601.71,-621.88 600.11,-612.18 598.63,-603.18"/>
<polygon fill="black" stroke="black" points="602.05,-602.39 596.97,-593.09 595.14,-603.53 602.05,-602.39"/>
</g>
<!-- roo_windows&#45;&gt;roo_locale -->
<g id="edge35" class="edge">
<title>roo_windows&#45;&gt;roo_locale</title>
<path fill="none" stroke="black" d="M625.28,-629.96C634.94,-620.92 646.78,-609.83 657.3,-599.99"/>
<polygon fill="black" stroke="black" points="659.76,-602.48 664.67,-593.09 654.98,-597.37 659.76,-602.48"/>
</g>
<!-- roo_windows&#45;&gt;roo_scheduler -->
<g id="edge37" class="edge">
<title>roo_windows&#45;&gt;roo_scheduler</title>
<path fill="none" stroke="black" d="M584.36,-629.79C559.19,-609.33 515.73,-576.22 474,-555 419.61,-527.34 352.89,-506.18 306.48,-493.3"/>
<polygon fill="black" stroke="black" points="307.17,-489.86 296.6,-490.6 305.32,-496.61 307.17,-489.86"/>
</g>
<!-- roo_windows_transceivers -->
<g id="node28" class="node">
<title>roo_windows_transceivers</title>
<polygon fill="khaki" stroke="red" points="486.5,-764 325.5,-764 325.5,-726 486.5,-726 486.5,-764"/>
<text text-anchor="middle" x="406" y="-748.8" font-family="Times,serif" font-size="14.00">roo_windows_transceivers</text>
<text text-anchor="middle" x="406" y="-733.8" font-family="Times,serif" font-size="14.00">1.0.0</text>
</g>
<!-- roo_windows_transceivers&#45;&gt;roo_transceivers -->
<g id="edge38" class="edge">
<title>roo_windows_transceivers&#45;&gt;roo_transceivers</title>
<path fill="none" stroke="red" d="M406,-725.88C406,-712.35 406,-693.62 406,-678.15"/>
<polygon fill="red" stroke="red" points="409.5,-678.07 406,-668.07 402.5,-678.07 409.5,-678.07"/>
<text text-anchor="middle" x="433" y="-700" font-family="Times,serif" font-size="10.00" fill="red">1.1.3</text>
<text text-anchor="middle" x="433" y="-689" font-family="Times,serif" font-size="10.00" fill="red">(latest: 1.1.4)</text>
</g>
<!-- roo_windows_transceivers&#45;&gt;roo_windows -->
<g id="edge39" class="edge">
<title>roo_windows_transceivers&#45;&gt;roo_windows</title>
<path fill="none" stroke="red" d="M444.56,-725.88C476.93,-710.66 523.33,-688.85 558.08,-672.52"/>
<polygon fill="red" stroke="red" points="559.99,-675.49 567.56,-668.07 557.02,-669.15 559.99,-675.49"/>
<text text-anchor="middle" x="551" y="-700" font-family="Times,serif" font-size="10.00" fill="red">1.4.1</text>
<text text-anchor="middle" x="551" y="-689" font-family="Times,serif" font-size="10.00" fill="red">(latest: 1.4.2)</text>
</g>
<!-- roo_windows_wifi -->
<g id="node29" class="node">
<title>roo_windows_wifi</title>
<polygon fill="plum" stroke="red" points="623.5,-764 504.5,-764 504.5,-726 623.5,-726 623.5,-764"/>
<text text-anchor="middle" x="564" y="-748.8" font-family="Times,serif" font-size="14.00">roo_windows_wifi</text>
<text text-anchor="middle" x="564" y="-733.8" font-family="Times,serif" font-size="14.00">1.1.3</text>
</g>
<!-- roo_windows_wifi&#45;&gt;roo_wifi -->
<g id="edge40" class="edge">
<title>roo_windows_wifi&#45;&gt;roo_wifi</title>
<path fill="none" stroke="black" d="M535.93,-725.97C529.84,-720.85 524.03,-714.79 520,-708 514.73,-699.14 511.91,-688.28 510.42,-678.37"/>
<polygon fill="black" stroke="black" points="513.86,-677.67 509.27,-668.12 506.9,-678.45 513.86,-677.67"/>
</g>
<!-- roo_windows_wifi&#45;&gt;roo_windows -->
<g id="edge41" class="edge">
<title>roo_windows_wifi&#45;&gt;roo_windows</title>
<path fill="none" stroke="black" d="M582.1,-725.8C586.58,-720.43 590.96,-714.3 594,-708 598.43,-698.82 601.23,-688.05 602.99,-678.3"/>
<polygon fill="black" stroke="black" points="606.48,-678.66 604.53,-668.24 599.56,-677.6 606.48,-678.66"/>
</g>
</g>
</svg>
