<?xml version="1.0" encoding="UTF-8" standalone="no"?>
<!DOCTYPE svg PUBLIC "-//W3C//DTD SVG 1.1//EN"
 "http://www.w3.org/Graphics/SVG/1.1/DTD/svg11.dtd">
<!-- Generated by graphviz version 2.42.4 (0)
 -->
<!-- Title: dependencies Pages: 1 -->
<svg width="1283pt" height="730pt"
 viewBox="0.00 0.00 1283.00 730.00" xmlns="http://www.w3.org/2000/svg" xmlns:xlink="http://www.w3.org/1999/xlink">
<g id="graph0" class="graph" transform="scale(1 1) rotate(0) translate(4 726)">
<title>dependencies</title>
<polygon fill="white" stroke="transparent" points="-4,4 -4,-726 1279,-726 1279,4 -4,4"/>
<!-- roo_backport -->
<g id="node1" class="node">
<title>roo_backport</title>
<polygon fill="#b1dbab" stroke="black" points="747,-263 658,-263 658,-225 747,-225 747,-263"/>
<text text-anchor="middle" x="702.5" y="-247.8" font-family="Times,serif" font-size="14.00">roo_backport</text>
<text text-anchor="middle" x="702.5" y="-232.8" font-family="Times,serif" font-size="14.00">1.1.1</text>
</g>
<!-- roo_blink -->
<g id="node2" class="node">
<title>roo_blink</title>
<polygon fill="#b1dbab" stroke="black" points="194,-530 125,-530 125,-492 194,-492 194,-530"/>
<text text-anchor="middle" x="159.5" y="-514.8" font-family="Times,serif" font-size="14.00">roo_blink</text>
<text text-anchor="middle" x="159.5" y="-499.8" font-family="Times,serif" font-size="14.00">1.0.1</text>
</g>
<!-- roo_logging -->
<g id="node14" class="node">
<title>roo_logging</title>
<polygon fill="#b1dbab" stroke="black" points="407,-263 324,-263 324,-225 407,-225 407,-263"/>
<text text-anchor="middle" x="365.5" y="-247.8" font-family="Times,serif" font-size="14.00">roo_logging</text>
<text text-anchor="middle" x="365.5" y="-232.8" font-family="Times,serif" font-size="14.00">1.4.2</text>
</g>
<!-- roo_blink&#45;&gt;roo_logging -->
<g id="edge1" class="edge">
<title>roo_blink&#45;&gt;roo_logging</title>
<path fill="none" stroke="black" d="M172,-491.95C199.51,-452.58 267.88,-356.46 331.5,-281 334.31,-277.67 337.33,-274.25 340.38,-270.91"/>
<polygon fill="black" stroke="black" points="343.19,-273.02 347.44,-263.32 338.07,-268.25 343.19,-273.02"/>
</g>
<!-- roo_scheduler -->
<g id="node20" class="node">
<title>roo_scheduler</title>
<polygon fill="#b1dbab" stroke="black" points="520,-434 427,-434 427,-396 520,-396 520,-434"/>
<text text-anchor="middle" x="473.5" y="-418.8" font-family="Times,serif" font-size="14.00">roo_scheduler</text>
<text text-anchor="middle" x="473.5" y="-403.8" font-family="Times,serif" font-size="14.00">2.1.4</text>
</g>
<!-- roo_blink&#45;&gt;roo_scheduler -->
<g id="edge2" class="edge">
<title>roo_blink&#45;&gt;roo_scheduler</title>
<path fill="none" stroke="black" d="M194.44,-495.33C197.49,-494.16 200.54,-493.04 203.5,-492 262.96,-471.16 278.56,-467.98 339.5,-452 371.09,-443.72 381.51,-443.44 416.76,-434.07"/>
<polygon fill="black" stroke="black" points="418.11,-437.33 426.84,-431.32 416.27,-430.57 418.11,-437.33"/>
</g>
<!-- roo_collections -->
<g id="node3" class="node">
<title>roo_collections</title>
<polygon fill="#b1dbab" stroke="black" points="877.5,-359 777.5,-359 777.5,-321 877.5,-321 877.5,-359"/>
<text text-anchor="middle" x="827.5" y="-343.8" font-family="Times,serif" font-size="14.00">roo_collections</text>
<text text-anchor="middle" x="827.5" y="-328.8" font-family="Times,serif" font-size="14.00">1.3.2</text>
</g>
<!-- roo_collections&#45;&gt;roo_backport -->
<g id="edge3" class="edge">
<title>roo_collections&#45;&gt;roo_backport</title>
<path fill="none" stroke="black" d="M803.4,-320.88C783.86,-306.18 756.14,-285.34 734.7,-269.21"/>
<polygon fill="black" stroke="black" points="736.62,-266.28 726.53,-263.07 732.42,-271.88 736.62,-266.28"/>
</g>
<!-- roo_comms -->
<g id="node4" class="node">
<title>roo_comms</title>
<polygon fill="#b1dbab" stroke="black" points="363.5,-722 281.5,-722 281.5,-684 363.5,-684 363.5,-722"/>
<text text-anchor="middle" x="322.5" y="-706.8" font-family="Times,serif" font-size="14.00">roo_comms</text>
<text text-anchor="middle" x="322.5" y="-691.8" font-family="Times,serif" font-size="14.00">1.1.1</text>
</g>
<!-- roo_comms&#45;&gt;roo_blink -->
<g id="edge4" class="edge">
<title>roo_comms&#45;&gt;roo_blink</title>
<path fill="none" stroke="black" d="M306.87,-683.78C277.78,-649.88 215.26,-577 181.77,-537.95"/>
<polygon fill="black" stroke="black" points="184.25,-535.47 175.08,-530.16 178.94,-540.03 184.25,-535.47"/>
</g>
<!-- roo_control -->
<g id="node5" class="node">
<title>roo_control</title>
<polygon fill="#b1dbab" stroke="black" points="292.5,-530 212.5,-530 212.5,-492 292.5,-492 292.5,-530"/>
<text text-anchor="middle" x="252.5" y="-514.8" font-family="Times,serif" font-size="14.00">roo_control</text>
<text text-anchor="middle" x="252.5" y="-499.8" font-family="Times,serif" font-size="14.00">1.2.1</text>
</g>
<!-- roo_comms&#45;&gt;roo_control -->
<g id="edge5" class="edge">
<title>roo_comms&#45;&gt;roo_control</title>
<path fill="none" stroke="black" d="M315.79,-683.78C303.48,-650.37 277.23,-579.13 262.7,-539.69"/>
<polygon fill="black" stroke="black" points="265.93,-538.34 259.19,-530.16 259.36,-540.76 265.93,-538.34"/>
</g>
<!-- roo_io -->
<g id="node10" class="node">
<title>roo_io</title>
<polygon fill="#b1dbab" stroke="black" points="729.5,-359 675.5,-359 675.5,-321 729.5,-321 729.5,-359"/>
<text text-anchor="middle" x="702.5" y="-343.8" font-family="Times,serif" font-size="14.00">roo_io</text>
<text text-anchor="middle" x="702.5" y="-328.8" font-family="Times,serif" font-size="14.00">2.0.2</text>
</g>
<!-- roo_comms&#45;&gt;roo_io -->
<g id="edge6" class="edge">
<title>roo_comms&#45;&gt;roo_io</title>
<path fill="none" stroke="black" d="M363.81,-698.44C449.47,-689.91 638.5,-664.66 638.5,-608 638.5,-608 638.5,-608 638.5,-414 638.5,-393.95 652.32,-376.77 667.12,-364.12"/>
<polygon fill="black" stroke="black" points="669.71,-366.53 675.36,-357.57 665.35,-361.05 669.71,-366.53"/>
</g>
<!-- roo_transceivers -->
<g id="node25" class="node">
<title>roo_transceivers</title>
<polygon fill="#b1dbab" stroke="black" points="500.5,-626 394.5,-626 394.5,-588 500.5,-588 500.5,-626"/>
<text text-anchor="middle" x="447.5" y="-610.8" font-family="Times,serif" font-size="14.00">roo_transceivers</text>
<text text-anchor="middle" x="447.5" y="-595.8" font-family="Times,serif" font-size="14.00">1.1.2</text>
</g>
<!-- roo_comms&#45;&gt;roo_transceivers -->
<g id="edge7" class="edge">
<title>roo_comms&#45;&gt;roo_transceivers</title>
<path fill="none" stroke="black" d="M346.6,-683.88C366.14,-669.18 393.86,-648.34 415.3,-632.21"/>
<polygon fill="black" stroke="black" points="417.58,-634.88 423.47,-626.07 413.38,-629.28 417.58,-634.88"/>
</g>
<!-- roo_quantity -->
<g id="node19" class="node">
<title>roo_quantity</title>
<polygon fill="#b1dbab" stroke="black" points="408.5,-434 322.5,-434 322.5,-396 408.5,-396 408.5,-434"/>
<text text-anchor="middle" x="365.5" y="-418.8" font-family="Times,serif" font-size="14.00">roo_quantity</text>
<text text-anchor="middle" x="365.5" y="-403.8" font-family="Times,serif" font-size="14.00">1.1.2</text>
</g>
<!-- roo_control&#45;&gt;roo_quantity -->
<g id="edge8" class="edge">
<title>roo_control&#45;&gt;roo_quantity</title>
<path fill="none" stroke="black" d="M274.29,-491.88C291.8,-477.31 316.57,-456.71 335.88,-440.64"/>
<polygon fill="black" stroke="black" points="338.33,-443.15 343.78,-434.07 333.85,-437.77 338.33,-443.15"/>
</g>
<!-- roo_control&#45;&gt;roo_scheduler -->
<g id="edge9" class="edge">
<title>roo_control&#45;&gt;roo_scheduler</title>
<path fill="none" stroke="black" d="M292.52,-492.98C328.8,-477.55 382.46,-454.72 421.94,-437.93"/>
<polygon fill="black" stroke="black" points="423.31,-441.15 431.14,-434.02 420.57,-434.71 423.31,-441.15"/>
</g>
<!-- roo_dashboard -->
<g id="node6" class="node">
<title>roo_dashboard</title>
<polygon fill="khaki" stroke="black" points="97,-722 0,-722 0,-684 97,-684 97,-722"/>
<text text-anchor="middle" x="48.5" y="-706.8" font-family="Times,serif" font-size="14.00">roo_dashboard</text>
<text text-anchor="middle" x="48.5" y="-691.8" font-family="Times,serif" font-size="14.00">1.0.0</text>
</g>
<!-- roo_testing -->
<g id="node21" class="node">
<title>roo_testing</title>
<polygon fill="#b1dbab" stroke="black" points="1089,-38 1012,-38 1012,0 1089,0 1089,-38"/>
<text text-anchor="middle" x="1050.5" y="-22.8" font-family="Times,serif" font-size="14.00">roo_testing</text>
<text text-anchor="middle" x="1050.5" y="-7.8" font-family="Times,serif" font-size="14.00">1.1.7</text>
</g>
<!-- roo_dashboard&#45;&gt;roo_testing -->
<g id="edge10" class="edge">
<title>roo_dashboard&#45;&gt;roo_testing</title>
<path fill="none" stroke="red" d="M34.98,-683.98C22.7,-665.8 6.5,-636.42 6.5,-608 6.5,-608 6.5,-608 6.5,-93 6.5,-42.47 795.19,-24.63 1001.56,-20.83"/>
<polygon fill="red" stroke="red" points="1001.86,-24.32 1011.79,-20.64 1001.73,-17.32 1001.86,-24.32"/>
<text text-anchor="middle" x="33.5" y="-343" font-family="Times,serif" font-size="10.00" fill="red">1.1.4</text>
<text text-anchor="middle" x="33.5" y="-332" font-family="Times,serif" font-size="10.00" fill="red">(latest: 1.1.7)</text>
</g>
<!-- roo_windows -->
<g id="node28" class="node">
<title>roo_windows</title>
<polygon fill="khaki" stroke="black" points="864.5,-626 774.5,-626 774.5,-588 864.5,-588 864.5,-626"/>
<text text-anchor="middle" x="819.5" y="-610.8" font-family="Times,serif" font-size="14.00">roo_windows</text>
<text text-anchor="middle" x="819.5" y="-595.8" font-family="Times,serif" font-size="14.00">1.4.0</text>
</g>
<!-- roo_dashboard&#45;&gt;roo_windows -->
<g id="edge11" class="edge">
<title>roo_dashboard&#45;&gt;roo_windows</title>
<path fill="none" stroke="black" d="M97.02,-696.08C233.48,-679.45 620.04,-632.32 764.3,-614.73"/>
<polygon fill="black" stroke="black" points="764.76,-618.2 774.26,-613.52 763.91,-611.25 764.76,-618.2"/>
</g>
<!-- roo_display -->
<g id="node7" class="node">
<title>roo_display</title>
<polygon fill="#b1dbab" stroke="black" points="1049.5,-434 969.5,-434 969.5,-396 1049.5,-396 1049.5,-434"/>
<text text-anchor="middle" x="1009.5" y="-418.8" font-family="Times,serif" font-size="14.00">roo_display</text>
<text text-anchor="middle" x="1009.5" y="-403.8" font-family="Times,serif" font-size="14.00">2.3.1</text>
</g>
<!-- roo_display&#45;&gt;roo_collections -->
<g id="edge12" class="edge">
<title>roo_display&#45;&gt;roo_collections</title>
<path fill="none" stroke="black" d="M986.58,-395.84C977.34,-389.19 966.31,-382.06 955.5,-377 934.19,-367.04 909.57,-359.3 887.64,-353.6"/>
<polygon fill="black" stroke="black" points="888.33,-350.16 877.78,-351.12 886.63,-356.95 888.33,-350.16"/>
</g>
<!-- roo_display&#45;&gt;roo_io -->
<g id="edge13" class="edge">
<title>roo_display&#45;&gt;roo_io</title>
<path fill="none" stroke="black" d="M969.29,-405.36C921.35,-394.94 838.86,-376.61 768.5,-359 759.11,-356.65 749.01,-353.97 739.6,-351.41"/>
<polygon fill="black" stroke="black" points="740.3,-347.97 729.73,-348.7 738.44,-354.72 740.3,-347.97"/>
</g>
<!-- roo_flags -->
<g id="node8" class="node">
<title>roo_flags</title>
<polygon fill="#b1dbab" stroke="black" points="359.5,-188 291.5,-188 291.5,-150 359.5,-150 359.5,-188"/>
<text text-anchor="middle" x="325.5" y="-172.8" font-family="Times,serif" font-size="14.00">roo_flags</text>
<text text-anchor="middle" x="325.5" y="-157.8" font-family="Times,serif" font-size="14.00">1.1.1</text>
</g>
<!-- roo_icons -->
<g id="node9" class="node">
<title>roo_icons</title>
<polygon fill="#b1dbab" stroke="black" points="959.5,-530 889.5,-530 889.5,-492 959.5,-492 959.5,-530"/>
<text text-anchor="middle" x="924.5" y="-514.8" font-family="Times,serif" font-size="14.00">roo_icons</text>
<text text-anchor="middle" x="924.5" y="-499.8" font-family="Times,serif" font-size="14.00">1.2.1</text>
</g>
<!-- roo_icons&#45;&gt;roo_display -->
<g id="edge14" class="edge">
<title>roo_icons&#45;&gt;roo_display</title>
<path fill="none" stroke="black" d="M940.89,-491.88C953.82,-477.57 972.03,-457.44 986.43,-441.51"/>
<polygon fill="black" stroke="black" points="989.05,-443.83 993.16,-434.07 983.86,-439.14 989.05,-443.83"/>
</g>
<!-- roo_io&#45;&gt;roo_backport -->
<g id="edge15" class="edge">
<title>roo_io&#45;&gt;roo_backport</title>
<path fill="none" stroke="black" d="M702.5,-320.88C702.5,-307.35 702.5,-288.62 702.5,-273.15"/>
<polygon fill="black" stroke="black" points="706,-273.07 702.5,-263.07 699,-273.07 706,-273.07"/>
</g>
<!-- roo_io&#45;&gt;roo_logging -->
<g id="edge16" class="edge">
<title>roo_io&#45;&gt;roo_logging</title>
<path fill="none" stroke="black" d="M675.49,-331.47C619.4,-315.82 489.5,-279.59 416.91,-259.34"/>
<polygon fill="black" stroke="black" points="417.64,-255.91 407.07,-256.59 415.76,-262.65 417.64,-255.91"/>
</g>
<!-- roo_io_espressif -->
<g id="node11" class="node">
<title>roo_io_espressif</title>
<polygon fill="plum" stroke="black" points="1171.5,-722 1065.5,-722 1065.5,-684 1171.5,-684 1171.5,-722"/>
<text text-anchor="middle" x="1118.5" y="-706.8" font-family="Times,serif" font-size="14.00">roo_io_espressif</text>
<text text-anchor="middle" x="1118.5" y="-691.8" font-family="Times,serif" font-size="14.00">1.0.0</text>
</g>
<!-- roo_io_sdfat -->
<g id="node12" class="node">
<title>roo_io_sdfat</title>
<polygon fill="plum" stroke="black" points="1275,-722 1190,-722 1190,-684 1275,-684 1275,-722"/>
<text text-anchor="middle" x="1232.5" y="-706.8" font-family="Times,serif" font-size="14.00">roo_io_sdfat</text>
<text text-anchor="middle" x="1232.5" y="-691.8" font-family="Times,serif" font-size="14.00">1.0.0</text>
</g>
<!-- roo_locale -->
<g id="node13" class="node">
<title>roo_locale</title>
<polygon fill="khaki" stroke="black" points="833.5,-530 759.5,-530 759.5,-492 833.5,-492 833.5,-530"/>
<text text-anchor="middle" x="796.5" y="-514.8" font-family="Times,serif" font-size="14.00">roo_locale</text>
<text text-anchor="middle" x="796.5" y="-499.8" font-family="Times,serif" font-size="14.00">1.1.0</text>
</g>
<!-- roo_logging&#45;&gt;roo_flags -->
<g id="edge17" class="edge">
<title>roo_logging&#45;&gt;roo_flags</title>
<path fill="none" stroke="black" d="M355.61,-224.96C351,-216.53 345.41,-206.33 340.3,-197.01"/>
<polygon fill="black" stroke="black" points="343.29,-195.18 335.41,-188.09 337.15,-198.54 343.29,-195.18"/>
</g>
<!-- roo_threads -->
<g id="node22" class="node">
<title>roo_threads</title>
<polygon fill="#b1dbab" stroke="black" points="587.5,-188 507.5,-188 507.5,-150 587.5,-150 587.5,-188"/>
<text text-anchor="middle" x="547.5" y="-172.8" font-family="Times,serif" font-size="14.00">roo_threads</text>
<text text-anchor="middle" x="547.5" y="-157.8" font-family="Times,serif" font-size="14.00">1.1.5</text>
</g>
<!-- roo_logging&#45;&gt;roo_threads -->
<g id="edge18" class="edge">
<title>roo_logging&#45;&gt;roo_threads</title>
<path fill="none" stroke="black" d="M407.25,-226.25C434.22,-215.44 469.44,-201.31 497.84,-189.92"/>
<polygon fill="black" stroke="black" points="499.21,-193.14 507.19,-186.17 496.61,-186.64 499.21,-193.14"/>
</g>
<!-- roo_monitoring -->
<g id="node15" class="node">
<title>roo_monitoring</title>
<polygon fill="plum" stroke="black" points="913.5,-434 811.5,-434 811.5,-396 913.5,-396 913.5,-434"/>
<text text-anchor="middle" x="862.5" y="-418.8" font-family="Times,serif" font-size="14.00">roo_monitoring</text>
<text text-anchor="middle" x="862.5" y="-403.8" font-family="Times,serif" font-size="14.00">1.0.0</text>
</g>
<!-- roo_monitoring&#45;&gt;roo_collections -->
<g id="edge19" class="edge">
<title>roo_monitoring&#45;&gt;roo_collections</title>
<path fill="none" stroke="black" d="M853.85,-395.96C849.85,-387.62 845.02,-377.54 840.59,-368.3"/>
<polygon fill="black" stroke="black" points="843.65,-366.59 836.17,-359.09 837.34,-369.62 843.65,-366.59"/>
</g>
<!-- roo_monitoring&#45;&gt;roo_io -->
<g id="edge20" class="edge">
<title>roo_monitoring&#45;&gt;roo_io</title>
<path fill="none" stroke="black" d="M822.95,-395.96C797.18,-384.2 763.82,-368.98 738.74,-357.54"/>
<polygon fill="black" stroke="black" points="740.12,-354.32 729.57,-353.35 737.22,-360.69 740.12,-354.32"/>
</g>
<!-- roo_onewire -->
<g id="node16" class="node">
<title>roo_onewire</title>
<polygon fill="#b1dbab" stroke="black" points="482,-530 397,-530 397,-492 482,-492 482,-530"/>
<text text-anchor="middle" x="439.5" y="-514.8" font-family="Times,serif" font-size="14.00">roo_onewire</text>
<text text-anchor="middle" x="439.5" y="-499.8" font-family="Times,serif" font-size="14.00">2.0.4</text>
</g>
<!-- roo_onewire&#45;&gt;roo_quantity -->
<g id="edge22" class="edge">
<title>roo_onewire&#45;&gt;roo_quantity</title>
<path fill="none" stroke="black" d="M425.23,-491.88C414.07,-477.7 398.41,-457.81 385.92,-441.94"/>
<polygon fill="black" stroke="black" points="388.66,-439.76 379.72,-434.07 383.16,-444.09 388.66,-439.76"/>
</g>
<!-- roo_onewire&#45;&gt;roo_scheduler -->
<g id="edge21" class="edge">
<title>roo_onewire&#45;&gt;roo_scheduler</title>
<path fill="none" stroke="black" d="M448.06,-491.86C450.6,-486.2 453.29,-479.89 455.5,-474 459.12,-464.36 462.6,-453.63 465.52,-444.05"/>
<polygon fill="black" stroke="black" points="468.95,-444.79 468.44,-434.21 462.24,-442.8 468.95,-444.79"/>
</g>
<!-- roo_powersafefs -->
<g id="node17" class="node">
<title>roo_powersafefs</title>
<polygon fill="plum" stroke="black" points="872,-263 765,-263 765,-225 872,-225 872,-263"/>
<text text-anchor="middle" x="818.5" y="-247.8" font-family="Times,serif" font-size="14.00">roo_powersafefs</text>
<text text-anchor="middle" x="818.5" y="-232.8" font-family="Times,serif" font-size="14.00">1.0.0</text>
</g>
<!-- roo_powersafefs&#45;&gt;roo_threads -->
<g id="edge23" class="edge">
<title>roo_powersafefs&#45;&gt;roo_threads</title>
<path fill="none" stroke="black" d="M764.9,-227.61C761.72,-226.72 758.57,-225.84 755.5,-225 701.65,-210.19 639.75,-193.92 597.58,-182.94"/>
<polygon fill="black" stroke="black" points="598.39,-179.54 587.83,-180.41 596.63,-186.31 598.39,-179.54"/>
</g>
<!-- roo_prefs -->
<g id="node18" class="node">
<title>roo_prefs</title>
<polygon fill="#b1dbab" stroke="black" points="378.5,-530 310.5,-530 310.5,-492 378.5,-492 378.5,-530"/>
<text text-anchor="middle" x="344.5" y="-514.8" font-family="Times,serif" font-size="14.00">roo_prefs</text>
<text text-anchor="middle" x="344.5" y="-499.8" font-family="Times,serif" font-size="14.00">1.2.2</text>
</g>
<!-- roo_prefs&#45;&gt;roo_logging -->
<g id="edge24" class="edge">
<title>roo_prefs&#45;&gt;roo_logging</title>
<path fill="none" stroke="black" d="M334.77,-491.88C327.29,-476.86 317.56,-454.7 313.5,-434 302.02,-375.45 330.66,-308.44 349.84,-272.03"/>
<polygon fill="black" stroke="black" points="353.03,-273.49 354.73,-263.03 346.88,-270.15 353.03,-273.49"/>
</g>
<!-- roo_prefs&#45;&gt;roo_scheduler -->
<g id="edge25" class="edge">
<title>roo_prefs&#45;&gt;roo_scheduler</title>
<path fill="none" stroke="black" d="M378.82,-494.93C390.58,-489.11 403.54,-481.93 414.5,-474 427.43,-464.66 440.24,-452.5 450.61,-441.74"/>
<polygon fill="black" stroke="black" points="453.39,-443.89 457.69,-434.21 448.29,-439.09 453.39,-443.89"/>
</g>
<!-- roo_quantity&#45;&gt;roo_logging -->
<g id="edge26" class="edge">
<title>roo_quantity&#45;&gt;roo_logging</title>
<path fill="none" stroke="black" d="M365.5,-395.91C365.5,-366.51 365.5,-308.13 365.5,-273.23"/>
<polygon fill="black" stroke="black" points="369,-273.21 365.5,-263.21 362,-273.21 369,-273.21"/>
</g>
<!-- roo_scheduler&#45;&gt;roo_collections -->
<g id="edge27" class="edge">
<title>roo_scheduler&#45;&gt;roo_collections</title>
<path fill="none" stroke="black" d="M520.32,-399.63C525.09,-398.33 529.88,-397.1 534.5,-396 624.15,-374.71 648,-376.36 738.5,-359 747.81,-357.21 757.65,-355.28 767.27,-353.35"/>
<polygon fill="black" stroke="black" points="768.06,-356.76 777.17,-351.36 766.68,-349.9 768.06,-356.76"/>
</g>
<!-- roo_scheduler&#45;&gt;roo_threads -->
<g id="edge28" class="edge">
<title>roo_scheduler&#45;&gt;roo_threads</title>
<path fill="none" stroke="black" d="M479.06,-395.66C491.92,-353.25 523.79,-248.2 539.06,-197.82"/>
<polygon fill="black" stroke="black" points="542.42,-198.81 541.97,-188.22 535.72,-196.77 542.42,-198.81"/>
</g>
<!-- roo_time -->
<g id="node23" class="node">
<title>roo_time</title>
<polygon fill="#b1dbab" stroke="black" points="495.5,-113 429.5,-113 429.5,-75 495.5,-75 495.5,-113"/>
<text text-anchor="middle" x="462.5" y="-97.8" font-family="Times,serif" font-size="14.00">roo_time</text>
<text text-anchor="middle" x="462.5" y="-82.8" font-family="Times,serif" font-size="14.00">1.3.2</text>
</g>
<!-- roo_threads&#45;&gt;roo_time -->
<g id="edge29" class="edge">
<title>roo_threads&#45;&gt;roo_time</title>
<path fill="none" stroke="black" d="M526.49,-149.96C515.86,-140.83 502.81,-129.62 491.26,-119.7"/>
<polygon fill="black" stroke="black" points="493.43,-116.95 483.56,-113.09 488.87,-122.26 493.43,-116.95"/>
</g>
<!-- roo_time&#45;&gt;roo_testing -->
<g id="edge30" class="edge">
<title>roo_time&#45;&gt;roo_testing</title>
<path fill="none" stroke="black" d="M495.8,-88.87C594.49,-76.61 885.78,-40.45 1001.91,-26.03"/>
<polygon fill="black" stroke="black" points="1002.44,-29.49 1011.93,-24.79 1001.58,-22.55 1002.44,-29.49"/>
</g>
<!-- roo_time_ds3231 -->
<g id="node24" class="node">
<title>roo_time_ds3231</title>
<polygon fill="#b1dbab" stroke="black" points="489.5,-188 377.5,-188 377.5,-150 489.5,-150 489.5,-188"/>
<text text-anchor="middle" x="433.5" y="-172.8" font-family="Times,serif" font-size="14.00">roo_time_ds3231</text>
<text text-anchor="middle" x="433.5" y="-157.8" font-family="Times,serif" font-size="14.00">1.1.2</text>
</g>
<!-- roo_time_ds3231&#45;&gt;roo_time -->
<g id="edge31" class="edge">
<title>roo_time_ds3231&#45;&gt;roo_time</title>
<path fill="none" stroke="black" d="M440.67,-149.96C443.95,-141.71 447.9,-131.75 451.54,-122.6"/>
<polygon fill="black" stroke="black" points="454.87,-123.68 455.31,-113.09 448.37,-121.09 454.87,-123.68"/>
</g>
<!-- roo_transceivers&#45;&gt;roo_prefs -->
<g id="edge32" class="edge">
<title>roo_transceivers&#45;&gt;roo_prefs</title>
<path fill="none" stroke="black" d="M427.64,-587.88C411.82,-573.44 389.51,-553.07 371.98,-537.07"/>
<polygon fill="black" stroke="black" points="374.04,-534.22 364.3,-530.07 369.33,-539.39 374.04,-534.22"/>
</g>
<!-- roo_transport -->
<g id="node26" class="node">
<title>roo_transport</title>
<polygon fill="#b1dbab" stroke="black" points="794,-434 705,-434 705,-396 794,-396 794,-434"/>
<text text-anchor="middle" x="749.5" y="-418.8" font-family="Times,serif" font-size="14.00">roo_transport</text>
<text text-anchor="middle" x="749.5" y="-403.8" font-family="Times,serif" font-size="14.00">1.0.1</text>
</g>
<!-- roo_transport&#45;&gt;roo_collections -->
<g id="edge33" class="edge">
<title>roo_transport&#45;&gt;roo_collections</title>
<path fill="none" stroke="black" d="M768.78,-395.96C778.44,-386.92 790.28,-375.83 800.8,-365.99"/>
<polygon fill="black" stroke="black" points="803.26,-368.48 808.17,-359.09 798.48,-363.37 803.26,-368.48"/>
</g>
<!-- roo_transport&#45;&gt;roo_io -->
<g id="edge34" class="edge">
<title>roo_transport&#45;&gt;roo_io</title>
<path fill="none" stroke="black" d="M737.88,-395.96C732.4,-387.44 725.75,-377.12 719.7,-367.72"/>
<polygon fill="black" stroke="black" points="722.5,-365.6 714.15,-359.09 716.62,-369.39 722.5,-365.6"/>
</g>
<!-- roo_wifi -->
<g id="node27" class="node">
<title>roo_wifi</title>
<polygon fill="#b1dbab" stroke="black" points="376,-626 313,-626 313,-588 376,-588 376,-626"/>
<text text-anchor="middle" x="344.5" y="-610.8" font-family="Times,serif" font-size="14.00">roo_wifi</text>
<text text-anchor="middle" x="344.5" y="-595.8" font-family="Times,serif" font-size="14.00">1.1.1</text>
</g>
<!-- roo_wifi&#45;&gt;roo_prefs -->
<g id="edge35" class="edge">
<title>roo_wifi&#45;&gt;roo_prefs</title>
<path fill="none" stroke="black" d="M344.5,-587.88C344.5,-574.35 344.5,-555.62 344.5,-540.15"/>
<polygon fill="black" stroke="black" points="348,-540.07 344.5,-530.07 341,-540.07 348,-540.07"/>
</g>
<!-- roo_windows&#45;&gt;roo_collections -->
<g id="edge37" class="edge">
<title>roo_windows&#45;&gt;roo_collections</title>
<path fill="none" stroke="red" d="M826.39,-587.52C838.31,-557.1 864.97,-495.53 900.5,-452 908.49,-442.21 917.09,-445.42 922.5,-434 929.73,-418.74 930.94,-410.63 922.5,-396 914.3,-381.78 900.87,-370.9 886.65,-362.73"/>
<polygon fill="red" stroke="red" points="888.2,-359.59 877.73,-357.98 884.92,-365.77 888.2,-359.59"/>
<text text-anchor="middle" x="927.5" y="-466" font-family="Times,serif" font-size="10.00" fill="red">1.3.1</text>
<text text-anchor="middle" x="927.5" y="-455" font-family="Times,serif" font-size="10.00" fill="red">(latest: 1.3.2)</text>
</g>
<!-- roo_windows&#45;&gt;roo_display -->
<g id="edge38" class="edge">
<title>roo_windows&#45;&gt;roo_display</title>
<path fill="none" stroke="red" d="M864.56,-604.17C893.21,-600.74 929.34,-591.94 953.5,-570 989.77,-537.07 1002.58,-478.77 1007.08,-444.12"/>
<polygon fill="red" stroke="red" points="1010.56,-444.52 1008.23,-434.18 1003.61,-443.72 1010.56,-444.52"/>
<text text-anchor="middle" x="1023.5" y="-514" font-family="Times,serif" font-size="10.00" fill="red">2.2.2</text>
<text text-anchor="middle" x="1023.5" y="-503" font-family="Times,serif" font-size="10.00" fill="red">(latest: 2.3.1)</text>
</g>
<!-- roo_windows&#45;&gt;roo_icons -->
<g id="edge41" class="edge">
<title>roo_windows&#45;&gt;roo_icons</title>
<path fill="none" stroke="red" d="M851.2,-587.95C859.46,-582.63 868.12,-576.48 875.5,-570 886.21,-560.6 896.61,-548.8 905.06,-538.3"/>
<polygon fill="red" stroke="red" points="907.97,-540.26 911.38,-530.22 902.46,-535.94 907.97,-540.26"/>
<text text-anchor="middle" x="922.5" y="-562" font-family="Times,serif" font-size="10.00" fill="red">1.2.0</text>
<text text-anchor="middle" x="922.5" y="-551" font-family="Times,serif" font-size="10.00" fill="red">(latest: 1.2.1)</text>
</g>
<!-- roo_windows&#45;&gt;roo_io -->
<g id="edge42" class="edge">
<title>roo_windows&#45;&gt;roo_io</title>
<path fill="none" stroke="red" d="M799.35,-587.87C769.06,-558.96 713.52,-498.99 696.5,-434 690.92,-412.71 692.97,-387.78 696.11,-369.09"/>
<polygon fill="red" stroke="red" points="699.57,-369.63 697.98,-359.15 692.69,-368.33 699.57,-369.63"/>
<text text-anchor="middle" x="738.5" y="-466" font-family="Times,serif" font-size="10.00" fill="red">2.0.1</text>
<text text-anchor="middle" x="738.5" y="-455" font-family="Times,serif" font-size="10.00" fill="red">(latest: 2.0.2)</text>
</g>
<!-- roo_windows&#45;&gt;roo_locale -->
<g id="edge39" class="edge">
<title>roo_windows&#45;&gt;roo_locale</title>
<path fill="none" stroke="black" d="M815.07,-587.88C811.76,-574.35 807.17,-555.62 803.39,-540.15"/>
<polygon fill="black" stroke="black" points="806.7,-538.95 800.92,-530.07 799.9,-540.61 806.7,-538.95"/>
</g>
<!-- roo_windows&#45;&gt;roo_logging -->
<g id="edge40" class="edge">
<title>roo_windows&#45;&gt;roo_logging</title>
<path fill="none" stroke="red" d="M786.95,-587.91C777.35,-582.36 766.9,-576.1 757.5,-570 696.35,-530.31 683.35,-517.03 624.5,-474 600.39,-456.37 593.51,-453.04 570.5,-434 561.37,-426.45 446.21,-319.81 392.61,-270.13"/>
<polygon fill="red" stroke="red" points="394.88,-267.47 385.17,-263.24 390.12,-272.6 394.88,-267.47"/>
<text text-anchor="middle" x="597.5" y="-418" font-family="Times,serif" font-size="10.00" fill="red">1.4.0</text>
<text text-anchor="middle" x="597.5" y="-407" font-family="Times,serif" font-size="10.00" fill="red">(latest: 1.4.2)</text>
</g>
<!-- roo_windows&#45;&gt;roo_scheduler -->
<g id="edge43" class="edge">
<title>roo_windows&#45;&gt;roo_scheduler</title>
<path fill="none" stroke="red" d="M774.41,-605.39C726.17,-603.31 648.26,-595.78 586.5,-570 558.94,-558.5 551.86,-552.74 532.5,-530 510.28,-503.9 493.46,-468.01 483.58,-443.52"/>
<polygon fill="red" stroke="red" points="486.79,-442.14 479.89,-434.1 480.27,-444.69 486.79,-442.14"/>
<text text-anchor="middle" x="559.5" y="-514" font-family="Times,serif" font-size="10.00" fill="red">2.1.3</text>
<text text-anchor="middle" x="559.5" y="-503" font-family="Times,serif" font-size="10.00" fill="red">(latest: 2.1.4)</text>
</g>
<!-- roo_windows&#45;&gt;roo_testing -->
<g id="edge36" class="edge">
<title>roo_windows&#45;&gt;roo_testing</title>
<path fill="none" stroke="red" d="M864.59,-598.32C926.81,-586.64 1033.7,-562.32 1054.5,-530 1109.11,-445.16 1056.16,-403.79 1051.5,-303 1050.31,-277.25 1050.5,-270.78 1050.5,-245 1050.5,-245 1050.5,-245 1050.5,-93 1050.5,-78.3 1050.5,-61.93 1050.5,-48.43"/>
<polygon fill="red" stroke="red" points="1054,-48.3 1050.5,-38.3 1047,-48.3 1054,-48.3"/>
<text text-anchor="middle" x="1078.5" y="-295" font-family="Times,serif" font-size="10.00" fill="red">1.1.4</text>
<text text-anchor="middle" x="1078.5" y="-284" font-family="Times,serif" font-size="10.00" fill="red">(latest: 1.1.7)</text>
</g>
<!-- roo_windows&#45;&gt;roo_time -->
<g id="edge44" class="edge">
<title>roo_windows&#45;&gt;roo_time</title>
<path fill="none" stroke="red" d="M774.46,-602.82C628.62,-592.28 175.3,-557.64 115.5,-530 104.94,-525.12 96.5,-523.63 96.5,-512 96.5,-512 96.5,-512 96.5,-168 96.5,-102.83 322.51,-95 419.32,-94.64"/>
<polygon fill="red" stroke="red" points="419.38,-98.14 429.37,-94.63 419.37,-91.14 419.38,-98.14"/>
<text text-anchor="middle" x="123.5" y="-343" font-family="Times,serif" font-size="10.00" fill="red">1.3.0</text>
<text text-anchor="middle" x="123.5" y="-332" font-family="Times,serif" font-size="10.00" fill="red">(latest: 1.3.2)</text>
</g>
<!-- roo_windows_transceivers -->
<g id="node29" class="node">
<title>roo_windows_transceivers</title>
<polygon fill="plum" stroke="black" points="1047,-722 886,-722 886,-684 1047,-684 1047,-722"/>
<text text-anchor="middle" x="966.5" y="-706.8" font-family="Times,serif" font-size="14.00">roo_windows_transceivers</text>
<text text-anchor="middle" x="966.5" y="-691.8" font-family="Times,serif" font-size="14.00">1.0.0</text>
</g>
<!-- roo_windows_transceivers&#45;&gt;roo_testing -->
<g id="edge45" class="edge">
<title>roo_windows_transceivers&#45;&gt;roo_testing</title>
<path fill="none" stroke="red" d="M1047.24,-685.39C1087.77,-676.92 1129.21,-667.98 1133.5,-666 1172.09,-648.21 1209.5,-650.49 1209.5,-608 1209.5,-608 1209.5,-608 1209.5,-93 1209.5,-43.9 1146.11,-27.7 1099.38,-22.43"/>
<polygon fill="red" stroke="red" points="1099.69,-18.94 1089.4,-21.44 1099,-25.91 1099.69,-18.94"/>
<text text-anchor="middle" x="1236.5" y="-343" font-family="Times,serif" font-size="10.00" fill="red">1.1.4</text>
<text text-anchor="middle" x="1236.5" y="-332" font-family="Times,serif" font-size="10.00" fill="red">(latest: 1.1.7)</text>
</g>
<!-- roo_windows_transceivers&#45;&gt;roo_transceivers -->
<g id="edge46" class="edge">
<title>roo_windows_transceivers&#45;&gt;roo_transceivers</title>
<path fill="none" stroke="red" d="M885.99,-685.62C883.12,-685.07 880.29,-684.53 877.5,-684 747.23,-659.32 594.27,-632.89 510.41,-618.62"/>
<polygon fill="red" stroke="red" points="510.98,-615.17 500.54,-616.94 509.81,-622.07 510.98,-615.17"/>
<text text-anchor="middle" x="797.5" y="-658" font-family="Times,serif" font-size="10.00" fill="red">1.1.1</text>
<text text-anchor="middle" x="797.5" y="-647" font-family="Times,serif" font-size="10.00" fill="red">(latest: 1.1.2)</text>
</g>
<!-- roo_windows_transceivers&#45;&gt;roo_windows -->
<g id="edge47" class="edge">
<title>roo_windows_transceivers&#45;&gt;roo_windows</title>
<path fill="none" stroke="black" d="M938.16,-683.88C914.87,-668.99 881.71,-647.78 856.37,-631.57"/>
<polygon fill="black" stroke="black" points="858.07,-628.51 847.76,-626.07 854.3,-634.4 858.07,-628.51"/>
</g>
<!-- roo_windows_wifi -->
<g id="node30" class="node">
<title>roo_windows_wifi</title>
<polygon fill="khaki" stroke="black" points="868,-722 749,-722 749,-684 868,-684 868,-722"/>
<text text-anchor="middle" x="808.5" y="-706.8" font-family="Times,serif" font-size="14.00">roo_windows_wifi</text>
<text text-anchor="middle" x="808.5" y="-691.8" font-family="Times,serif" font-size="14.00">1.1.1</text>
</g>
<!-- roo_windows_wifi&#45;&gt;roo_testing -->
<g id="edge48" class="edge">
<title>roo_windows_wifi&#45;&gt;roo_testing</title>
<path fill="none" stroke="red" d="M868.1,-685.52C958.4,-660.33 1119.5,-614.5 1119.5,-608 1119.5,-608 1119.5,-608 1119.5,-93 1119.5,-73.1 1105.79,-56.44 1090.59,-44.08"/>
<polygon fill="red" stroke="red" points="1092.66,-41.25 1082.58,-38.01 1088.44,-46.84 1092.66,-41.25"/>
<text text-anchor="middle" x="1146.5" y="-343" font-family="Times,serif" font-size="10.00" fill="red">1.1.4</text>
<text text-anchor="middle" x="1146.5" y="-332" font-family="Times,serif" font-size="10.00" fill="red">(latest: 1.1.7)</text>
</g>
<!-- roo_windows_wifi&#45;&gt;roo_wifi -->
<g id="edge49" class="edge">
<title>roo_windows_wifi&#45;&gt;roo_wifi</title>
<path fill="none" stroke="red" d="M748.96,-695.79C666.12,-686.15 512.01,-664.54 385.5,-626 385.4,-625.97 385.3,-625.94 385.21,-625.91"/>
<polygon fill="red" stroke="red" points="386.6,-622.69 376,-622.71 384.3,-629.3 386.6,-622.69"/>
<text text-anchor="middle" x="573.5" y="-658" font-family="Times,serif" font-size="10.00" fill="red">1.1.0</text>
<text text-anchor="middle" x="573.5" y="-647" font-family="Times,serif" font-size="10.00" fill="red">(latest: 1.1.1)</text>
</g>
<!-- roo_windows_wifi&#45;&gt;roo_windows -->
<g id="edge50" class="edge">
<title>roo_windows_wifi&#45;&gt;roo_windows</title>
<path fill="none" stroke="black" d="M821,-683.71C824.07,-678.25 826.92,-672.09 828.5,-666 831,-656.37 830.28,-645.64 828.43,-636.06"/>
<polygon fill="black" stroke="black" points="831.81,-635.13 826.09,-626.22 825,-636.75 831.81,-635.13"/>
</g>
</g>
</svg>
