<?xml version="1.0" encoding="UTF-8" standalone="no"?>
<!DOCTYPE svg PUBLIC "-//W3C//DTD SVG 1.1//EN"
 "http://www.w3.org/Graphics/SVG/1.1/DTD/svg11.dtd">
<!-- Generated by graphviz version 2.42.4 (0)
 -->
<!-- Title: dependencies Pages: 1 -->
<svg width="1171pt" height="746pt"
 viewBox="0.00 0.00 1171.00 746.00" xmlns="http://www.w3.org/2000/svg" xmlns:xlink="http://www.w3.org/1999/xlink">
<g id="graph0" class="graph" transform="scale(1 1) rotate(0) translate(4 742)">
<title>dependencies</title>
<polygon fill="white" stroke="transparent" points="-4,4 -4,-742 1167,-742 1167,4 -4,4"/>
<!-- roo_backport -->
<g id="node1" class="node">
<title>roo_backport</title>
<polygon fill="#b1dbab" stroke="black" points="652.5,-38 542.5,-38 542.5,0 652.5,0 652.5,-38"/>
<text text-anchor="middle" x="597.5" y="-22.8" font-family="Times,serif" font-size="14.00">roo_backport</text>
<text text-anchor="middle" x="597.5" y="-7.8" font-family="Times,serif" font-size="14.00">1.2.4</text>
</g>
<!-- roo_blink -->
<g id="node2" class="node">
<title>roo_blink</title>
<polygon fill="#b1dbab" stroke="red" points="183.5,-455 101.5,-455 101.5,-417 183.5,-417 183.5,-455"/>
<text text-anchor="middle" x="142.5" y="-439.8" font-family="Times,serif" font-size="14.00">roo_blink</text>
<text text-anchor="middle" x="142.5" y="-424.8" font-family="Times,serif" font-size="14.00">1.1.0</text>
</g>
<!-- roo_logging -->
<g id="node15" class="node">
<title>roo_logging</title>
<polygon fill="#b1dbab" stroke="red" points="409.5,-305 309.5,-305 309.5,-267 409.5,-267 409.5,-305"/>
<text text-anchor="middle" x="359.5" y="-289.8" font-family="Times,serif" font-size="14.00">roo_logging</text>
<text text-anchor="middle" x="359.5" y="-274.8" font-family="Times,serif" font-size="14.00">1.5.10</text>
</g>
<!-- roo_blink&#45;&gt;roo_logging -->
<g id="edge1" class="edge">
<title>roo_blink&#45;&gt;roo_logging</title>
<path fill="none" stroke="black" d="M143,-416.63C144.57,-395.72 150.32,-361.88 170.5,-342 211.12,-301.99 239.84,-319.9 299.47,-305.06"/>
<polygon fill="black" stroke="black" points="300.58,-308.39 309.31,-302.38 298.74,-301.63 300.58,-308.39"/>
</g>
<!-- roo_scheduler -->
<g id="node21" class="node">
<title>roo_scheduler</title>
<polygon fill="#b1dbab" stroke="red" points="295.5,-380 179.5,-380 179.5,-342 295.5,-342 295.5,-380"/>
<text text-anchor="middle" x="237.5" y="-364.8" font-family="Times,serif" font-size="14.00">roo_scheduler</text>
<text text-anchor="middle" x="237.5" y="-349.8" font-family="Times,serif" font-size="14.00">2.2.0</text>
</g>
<!-- roo_blink&#45;&gt;roo_scheduler -->
<g id="edge2" class="edge">
<title>roo_blink&#45;&gt;roo_scheduler</title>
<path fill="none" stroke="black" d="M165.98,-416.96C177.97,-407.74 192.73,-396.4 205.72,-386.42"/>
<polygon fill="black" stroke="black" points="208.16,-388.96 213.96,-380.09 203.9,-383.41 208.16,-388.96"/>
</g>
<!-- roo_collections -->
<g id="node3" class="node">
<title>roo_collections</title>
<polygon fill="#b1dbab" stroke="red" points="795.5,-305 673.5,-305 673.5,-267 795.5,-267 795.5,-305"/>
<text text-anchor="middle" x="734.5" y="-289.8" font-family="Times,serif" font-size="14.00">roo_collections</text>
<text text-anchor="middle" x="734.5" y="-274.8" font-family="Times,serif" font-size="14.00">1.4.7</text>
</g>
<!-- roo_collections&#45;&gt;roo_backport -->
<g id="edge4" class="edge">
<title>roo_collections&#45;&gt;roo_backport</title>
<path fill="none" stroke="black" d="M731.33,-266.7C722.3,-215.31 696.2,-72.38 682.5,-56 676.82,-49.21 669.64,-43.68 661.86,-39.17"/>
<polygon fill="black" stroke="black" points="663.37,-36.01 652.88,-34.51 660.14,-42.22 663.37,-36.01"/>
</g>
<!-- roo_testing -->
<g id="node22" class="node">
<title>roo_testing</title>
<polygon fill="#b1dbab" stroke="black" points="775,-38 678,-38 678,0 775,0 775,-38"/>
<text text-anchor="middle" x="726.5" y="-22.8" font-family="Times,serif" font-size="14.00">roo_testing</text>
<text text-anchor="middle" x="726.5" y="-7.8" font-family="Times,serif" font-size="14.00">2.1.3</text>
</g>
<!-- roo_collections&#45;&gt;roo_testing -->
<g id="edge3" class="edge">
<title>roo_collections&#45;&gt;roo_testing</title>
<path fill="none" stroke="red" d="M733.95,-266.79C732.58,-221.4 729.01,-103.01 727.36,-48.38"/>
<polygon fill="red" stroke="red" points="730.85,-48.23 727.05,-38.34 723.86,-48.44 730.85,-48.23"/>
<text text-anchor="middle" x="763.5" y="-166" font-family="Times,serif" font-size="10.00" fill="red">2.1.2</text>
<text text-anchor="middle" x="763.5" y="-155" font-family="Times,serif" font-size="10.00" fill="red">(latest: 2.1.3)</text>
</g>
<!-- roo_comms -->
<g id="node4" class="node">
<title>roo_comms</title>
<polygon fill="#b1dbab" stroke="red" points="376,-663 279,-663 279,-625 376,-625 376,-663"/>
<text text-anchor="middle" x="327.5" y="-647.8" font-family="Times,serif" font-size="14.00">roo_comms</text>
<text text-anchor="middle" x="327.5" y="-632.8" font-family="Times,serif" font-size="14.00">1.1.6</text>
</g>
<!-- roo_comms&#45;&gt;roo_blink -->
<g id="edge5" class="edge">
<title>roo_comms&#45;&gt;roo_blink</title>
<path fill="none" stroke="black" d="M310.63,-624.66C306.05,-619.21 301.31,-613.06 297.5,-607 273.02,-568.12 284.16,-548.08 254.5,-513 236.23,-491.39 210.37,-473.3 188.1,-460.19"/>
<polygon fill="black" stroke="black" points="189.55,-456.99 179.13,-455.06 186.07,-463.06 189.55,-456.99"/>
</g>
<!-- roo_control -->
<g id="node5" class="node">
<title>roo_control</title>
<polygon fill="#b1dbab" stroke="red" points="459,-455 362,-455 362,-417 459,-417 459,-455"/>
<text text-anchor="middle" x="410.5" y="-439.8" font-family="Times,serif" font-size="14.00">roo_control</text>
<text text-anchor="middle" x="410.5" y="-424.8" font-family="Times,serif" font-size="14.00">1.2.7</text>
</g>
<!-- roo_comms&#45;&gt;roo_control -->
<g id="edge6" class="edge">
<title>roo_comms&#45;&gt;roo_control</title>
<path fill="none" stroke="black" d="M334.87,-624.72C349.45,-588.53 382.07,-507.56 399.32,-464.76"/>
<polygon fill="black" stroke="black" points="402.66,-465.82 403.15,-455.24 396.17,-463.21 402.66,-465.82"/>
</g>
<!-- roo_io -->
<g id="node13" class="node">
<title>roo_io</title>
<polygon fill="#b1dbab" stroke="red" points="660,-380 601,-380 601,-342 660,-342 660,-380"/>
<text text-anchor="middle" x="630.5" y="-364.8" font-family="Times,serif" font-size="14.00">roo_io</text>
<text text-anchor="middle" x="630.5" y="-349.8" font-family="Times,serif" font-size="14.00">2.3.0</text>
</g>
<!-- roo_comms&#45;&gt;roo_io -->
<g id="edge7" class="edge">
<title>roo_comms&#45;&gt;roo_io</title>
<path fill="none" stroke="black" d="M346.11,-624.73C351.54,-619.17 357.39,-612.95 362.5,-607 397.03,-566.82 464.97,-449.89 506.5,-417 531.79,-396.97 565.53,-382.63 591.42,-373.62"/>
<polygon fill="black" stroke="black" points="592.56,-376.93 600.93,-370.43 590.34,-370.29 592.56,-376.93"/>
</g>
<!-- roo_transceivers -->
<g id="node26" class="node">
<title>roo_transceivers</title>
<polygon fill="#b1dbab" stroke="red" points="245,-551 110,-551 110,-513 245,-513 245,-551"/>
<text text-anchor="middle" x="177.5" y="-535.8" font-family="Times,serif" font-size="14.00">roo_transceivers</text>
<text text-anchor="middle" x="177.5" y="-520.8" font-family="Times,serif" font-size="14.00">1.2.0</text>
</g>
<!-- roo_comms&#45;&gt;roo_transceivers -->
<g id="edge8" class="edge">
<title>roo_comms&#45;&gt;roo_transceivers</title>
<path fill="none" stroke="black" d="M289.46,-624.98C279.42,-619.66 268.8,-613.51 259.5,-607 238.84,-592.55 217.77,-573.42 202.16,-558.23"/>
<polygon fill="black" stroke="black" points="204.54,-555.66 194.97,-551.13 199.63,-560.64 204.54,-555.66"/>
</g>
<!-- roo_quantity -->
<g id="node20" class="node">
<title>roo_quantity</title>
<polygon fill="#b1dbab" stroke="red" points="421,-380 314,-380 314,-342 421,-342 421,-380"/>
<text text-anchor="middle" x="367.5" y="-364.8" font-family="Times,serif" font-size="14.00">roo_quantity</text>
<text text-anchor="middle" x="367.5" y="-349.8" font-family="Times,serif" font-size="14.00">1.1.10</text>
</g>
<!-- roo_control&#45;&gt;roo_quantity -->
<g id="edge9" class="edge">
<title>roo_control&#45;&gt;roo_quantity</title>
<path fill="none" stroke="black" d="M399.87,-416.96C394.86,-408.44 388.77,-398.12 383.24,-388.72"/>
<polygon fill="black" stroke="black" points="386.25,-386.93 378.16,-380.09 380.22,-390.48 386.25,-386.93"/>
</g>
<!-- roo_control&#45;&gt;roo_scheduler -->
<g id="edge10" class="edge">
<title>roo_control&#45;&gt;roo_scheduler</title>
<path fill="none" stroke="black" d="M367.74,-416.96C344.14,-407 314.64,-394.55 289.69,-384.02"/>
<polygon fill="black" stroke="black" points="290.95,-380.75 280.37,-380.09 288.22,-387.2 290.95,-380.75"/>
</g>
<!-- roo_dashboard -->
<g id="node6" class="node">
<title>roo_dashboard</title>
<polygon fill="#b1dbab" stroke="red" points="618.5,-738 496.5,-738 496.5,-700 618.5,-700 618.5,-738"/>
<text text-anchor="middle" x="557.5" y="-722.8" font-family="Times,serif" font-size="14.00">roo_dashboard</text>
<text text-anchor="middle" x="557.5" y="-707.8" font-family="Times,serif" font-size="14.00">1.0.2</text>
</g>
<!-- roo_windows -->
<g id="node29" class="node">
<title>roo_windows</title>
<polygon fill="plum" stroke="red" points="612,-663 503,-663 503,-625 612,-625 612,-663"/>
<text text-anchor="middle" x="557.5" y="-647.8" font-family="Times,serif" font-size="14.00">roo_windows</text>
<text text-anchor="middle" x="557.5" y="-632.8" font-family="Times,serif" font-size="14.00">1.7.0</text>
</g>
<!-- roo_dashboard&#45;&gt;roo_windows -->
<g id="edge11" class="edge">
<title>roo_dashboard&#45;&gt;roo_windows</title>
<path fill="none" stroke="black" d="M557.5,-699.96C557.5,-691.88 557.5,-682.18 557.5,-673.18"/>
<polygon fill="black" stroke="black" points="561,-673.09 557.5,-663.09 554,-673.09 561,-673.09"/>
</g>
<!-- roo_display -->
<g id="node7" class="node">
<title>roo_display</title>
<polygon fill="#b1dbab" stroke="red" points="1045.5,-455 947.5,-455 947.5,-417 1045.5,-417 1045.5,-455"/>
<text text-anchor="middle" x="996.5" y="-439.8" font-family="Times,serif" font-size="14.00">roo_display</text>
<text text-anchor="middle" x="996.5" y="-424.8" font-family="Times,serif" font-size="14.00">3.3.0</text>
</g>
<!-- roo_display&#45;&gt;roo_collections -->
<g id="edge12" class="edge">
<title>roo_display&#45;&gt;roo_collections</title>
<path fill="none" stroke="black" d="M964.37,-416.85C916.81,-389.98 827.66,-339.63 775.46,-310.14"/>
<polygon fill="black" stroke="black" points="776.91,-306.94 766.48,-305.06 773.46,-313.03 776.91,-306.94"/>
</g>
<!-- roo_display&#45;&gt;roo_io -->
<g id="edge13" class="edge">
<title>roo_display&#45;&gt;roo_io</title>
<path fill="none" stroke="black" d="M947.26,-419.26C944.3,-418.46 941.37,-417.7 938.5,-417 843.16,-393.79 729,-375.95 670.06,-367.46"/>
<polygon fill="black" stroke="black" points="670.45,-363.98 660.06,-366.03 669.46,-370.91 670.45,-363.98"/>
</g>
<!-- roo_display_lvgl -->
<g id="node8" class="node">
<title>roo_display_lvgl</title>
<polygon fill="khaki" stroke="red" points="917,-551 786,-551 786,-513 917,-513 917,-551"/>
<text text-anchor="middle" x="851.5" y="-535.8" font-family="Times,serif" font-size="14.00">roo_display_lvgl</text>
<text text-anchor="middle" x="851.5" y="-520.8" font-family="Times,serif" font-size="14.00">1.0.0</text>
</g>
<!-- roo_display_lvgl&#45;&gt;roo_display -->
<g id="edge14" class="edge">
<title>roo_display_lvgl&#45;&gt;roo_display</title>
<path fill="none" stroke="red" d="M872.72,-512.9C887.33,-500.86 907.47,-485.11 926.5,-473 933.71,-468.41 941.57,-463.92 949.34,-459.75"/>
<polygon fill="red" stroke="red" points="951.14,-462.75 958.37,-455.01 947.89,-456.55 951.14,-462.75"/>
<text text-anchor="middle" x="959.5" y="-487" font-family="Times,serif" font-size="10.00" fill="red">3.0.3</text>
<text text-anchor="middle" x="959.5" y="-476" font-family="Times,serif" font-size="10.00" fill="red">(latest: 3.3.0)</text>
</g>
<!-- roo_flags -->
<g id="node9" class="node">
<title>roo_flags</title>
<polygon fill="#b1dbab" stroke="black" points="399.5,-230 319.5,-230 319.5,-192 399.5,-192 399.5,-230"/>
<text text-anchor="middle" x="359.5" y="-214.8" font-family="Times,serif" font-size="14.00">roo_flags</text>
<text text-anchor="middle" x="359.5" y="-199.8" font-family="Times,serif" font-size="14.00">1.2.5</text>
</g>
<!-- roo_fonts_basic -->
<g id="node10" class="node">
<title>roo_fonts_basic</title>
<polygon fill="#b1dbab" stroke="red" points="1061.5,-551 935.5,-551 935.5,-513 1061.5,-513 1061.5,-551"/>
<text text-anchor="middle" x="998.5" y="-535.8" font-family="Times,serif" font-size="14.00">roo_fonts_basic</text>
<text text-anchor="middle" x="998.5" y="-520.8" font-family="Times,serif" font-size="14.00">1.0.5</text>
</g>
<!-- roo_fonts_basic&#45;&gt;roo_display -->
<g id="edge15" class="edge">
<title>roo_fonts_basic&#45;&gt;roo_display</title>
<path fill="none" stroke="black" d="M998.11,-512.88C997.83,-499.35 997.43,-480.62 997.1,-465.15"/>
<polygon fill="black" stroke="black" points="1000.6,-464.99 996.88,-455.07 993.6,-465.14 1000.6,-464.99"/>
</g>
<!-- roo_fonts_material -->
<g id="node11" class="node">
<title>roo_fonts_material</title>
<polygon fill="#b1dbab" stroke="red" points="768,-551 619,-551 619,-513 768,-513 768,-551"/>
<text text-anchor="middle" x="693.5" y="-535.8" font-family="Times,serif" font-size="14.00">roo_fonts_material</text>
<text text-anchor="middle" x="693.5" y="-520.8" font-family="Times,serif" font-size="14.00">1.1.2</text>
</g>
<!-- roo_fonts_material&#45;&gt;roo_display -->
<g id="edge16" class="edge">
<title>roo_fonts_material&#45;&gt;roo_display</title>
<path fill="none" stroke="black" d="M751.56,-512.99C804.95,-496.43 883.72,-471.99 937.43,-455.33"/>
<polygon fill="black" stroke="black" points="938.64,-458.62 947.15,-452.31 936.56,-451.93 938.64,-458.62"/>
</g>
<!-- roo_icons -->
<g id="node12" class="node">
<title>roo_icons</title>
<polygon fill="#b1dbab" stroke="red" points="1163,-551 1080,-551 1080,-513 1163,-513 1163,-551"/>
<text text-anchor="middle" x="1121.5" y="-535.8" font-family="Times,serif" font-size="14.00">roo_icons</text>
<text text-anchor="middle" x="1121.5" y="-520.8" font-family="Times,serif" font-size="14.00">1.2.5</text>
</g>
<!-- roo_icons&#45;&gt;roo_display -->
<g id="edge17" class="edge">
<title>roo_icons&#45;&gt;roo_display</title>
<path fill="none" stroke="black" d="M1097.4,-512.88C1077.86,-498.18 1050.14,-477.34 1028.7,-461.21"/>
<polygon fill="black" stroke="black" points="1030.62,-458.28 1020.53,-455.07 1026.42,-463.88 1030.62,-458.28"/>
</g>
<!-- roo_io&#45;&gt;roo_logging -->
<g id="edge18" class="edge">
<title>roo_io&#45;&gt;roo_logging</title>
<path fill="none" stroke="black" d="M600.98,-352.05C557.63,-340.37 475.79,-318.33 419.5,-303.16"/>
<polygon fill="black" stroke="black" points="420.21,-299.73 409.65,-300.51 418.39,-306.49 420.21,-299.73"/>
</g>
<!-- roo_locale -->
<g id="node14" class="node">
<title>roo_locale</title>
<polygon fill="#b1dbab" stroke="black" points="601.5,-551 513.5,-551 513.5,-513 601.5,-513 601.5,-551"/>
<text text-anchor="middle" x="557.5" y="-535.8" font-family="Times,serif" font-size="14.00">roo_locale</text>
<text text-anchor="middle" x="557.5" y="-520.8" font-family="Times,serif" font-size="14.00">1.1.4</text>
</g>
<!-- roo_logging&#45;&gt;roo_flags -->
<g id="edge19" class="edge">
<title>roo_logging&#45;&gt;roo_flags</title>
<path fill="none" stroke="black" d="M359.5,-266.96C359.5,-258.88 359.5,-249.18 359.5,-240.18"/>
<polygon fill="black" stroke="black" points="363,-240.09 359.5,-230.09 356,-240.09 363,-240.09"/>
</g>
<!-- roo_threads -->
<g id="node23" class="node">
<title>roo_threads</title>
<polygon fill="#b1dbab" stroke="red" points="288,-230 187,-230 187,-192 288,-192 288,-230"/>
<text text-anchor="middle" x="237.5" y="-214.8" font-family="Times,serif" font-size="14.00">roo_threads</text>
<text text-anchor="middle" x="237.5" y="-199.8" font-family="Times,serif" font-size="14.00">1.2.8</text>
</g>
<!-- roo_logging&#45;&gt;roo_threads -->
<g id="edge20" class="edge">
<title>roo_logging&#45;&gt;roo_threads</title>
<path fill="none" stroke="black" d="M329.34,-266.96C313.36,-257.39 293.54,-245.53 276.41,-235.28"/>
<polygon fill="black" stroke="black" points="278.11,-232.22 267.73,-230.09 274.52,-238.23 278.11,-232.22"/>
</g>
<!-- roo_monitoring -->
<g id="node16" class="node">
<title>roo_monitoring</title>
<polygon fill="#b1dbab" stroke="red" points="797,-455 672,-455 672,-417 797,-417 797,-455"/>
<text text-anchor="middle" x="734.5" y="-439.8" font-family="Times,serif" font-size="14.00">roo_monitoring</text>
<text text-anchor="middle" x="734.5" y="-424.8" font-family="Times,serif" font-size="14.00">1.1.4</text>
</g>
<!-- roo_monitoring&#45;&gt;roo_collections -->
<g id="edge21" class="edge">
<title>roo_monitoring&#45;&gt;roo_collections</title>
<path fill="none" stroke="black" d="M734.5,-416.85C734.5,-391.55 734.5,-345.43 734.5,-315.52"/>
<polygon fill="black" stroke="black" points="738,-315.3 734.5,-305.3 731,-315.3 738,-315.3"/>
</g>
<!-- roo_monitoring&#45;&gt;roo_io -->
<g id="edge22" class="edge">
<title>roo_monitoring&#45;&gt;roo_io</title>
<path fill="none" stroke="black" d="M708.79,-416.96C695.42,-407.57 678.89,-395.97 664.48,-385.85"/>
<polygon fill="black" stroke="black" points="666.47,-382.97 656.27,-380.09 662.45,-388.7 666.47,-382.97"/>
</g>
<!-- roo_onewire -->
<g id="node17" class="node">
<title>roo_onewire</title>
<polygon fill="#b1dbab" stroke="red" points="343.5,-455 239.5,-455 239.5,-417 343.5,-417 343.5,-455"/>
<text text-anchor="middle" x="291.5" y="-439.8" font-family="Times,serif" font-size="14.00">roo_onewire</text>
<text text-anchor="middle" x="291.5" y="-424.8" font-family="Times,serif" font-size="14.00">2.0.12</text>
</g>
<!-- roo_onewire&#45;&gt;roo_quantity -->
<g id="edge24" class="edge">
<title>roo_onewire&#45;&gt;roo_quantity</title>
<path fill="none" stroke="black" d="M310.29,-416.96C319.6,-408.01 331.01,-397.05 341.18,-387.28"/>
<polygon fill="black" stroke="black" points="343.88,-389.54 348.67,-380.09 339.03,-384.49 343.88,-389.54"/>
</g>
<!-- roo_onewire&#45;&gt;roo_scheduler -->
<g id="edge23" class="edge">
<title>roo_onewire&#45;&gt;roo_scheduler</title>
<path fill="none" stroke="black" d="M278.15,-416.96C271.73,-408.27 263.9,-397.69 256.84,-388.14"/>
<polygon fill="black" stroke="black" points="259.64,-386.05 250.88,-380.09 254.02,-390.21 259.64,-386.05"/>
</g>
<!-- roo_powersafefs -->
<g id="node18" class="node">
<title>roo_powersafefs</title>
<polygon fill="#b1dbab" stroke="red" points="291,-305 158,-305 158,-267 291,-267 291,-305"/>
<text text-anchor="middle" x="224.5" y="-289.8" font-family="Times,serif" font-size="14.00">roo_powersafefs</text>
<text text-anchor="middle" x="224.5" y="-274.8" font-family="Times,serif" font-size="14.00">1.0.2</text>
</g>
<!-- roo_powersafefs&#45;&gt;roo_threads -->
<g id="edge25" class="edge">
<title>roo_powersafefs&#45;&gt;roo_threads</title>
<path fill="none" stroke="black" d="M227.71,-266.96C229.15,-258.88 230.88,-249.18 232.48,-240.18"/>
<polygon fill="black" stroke="black" points="235.97,-240.55 234.28,-230.09 229.08,-239.32 235.97,-240.55"/>
</g>
<!-- roo_prefs -->
<g id="node19" class="node">
<title>roo_prefs</title>
<polygon fill="#b1dbab" stroke="black" points="83,-455 0,-455 0,-417 83,-417 83,-455"/>
<text text-anchor="middle" x="41.5" y="-439.8" font-family="Times,serif" font-size="14.00">roo_prefs</text>
<text text-anchor="middle" x="41.5" y="-424.8" font-family="Times,serif" font-size="14.00">1.4.0</text>
</g>
<!-- roo_prefs&#45;&gt;roo_logging -->
<g id="edge26" class="edge">
<title>roo_prefs&#45;&gt;roo_logging</title>
<path fill="none" stroke="black" d="M58.27,-416.95C77.89,-396.65 112.09,-363.68 146.5,-342 203.38,-306.16 229.56,-319.66 299.28,-305.03"/>
<polygon fill="black" stroke="black" points="300.41,-308.37 309.41,-302.78 298.89,-301.53 300.41,-308.37"/>
</g>
<!-- roo_prefs&#45;&gt;roo_scheduler -->
<g id="edge27" class="edge">
<title>roo_prefs&#45;&gt;roo_scheduler</title>
<path fill="none" stroke="black" d="M83.07,-419.52C111.17,-409.05 148.68,-395.08 179.68,-383.53"/>
<polygon fill="black" stroke="black" points="180.93,-386.8 189.08,-380.03 178.49,-380.24 180.93,-386.8"/>
</g>
<!-- roo_quantity&#45;&gt;roo_logging -->
<g id="edge28" class="edge">
<title>roo_quantity&#45;&gt;roo_logging</title>
<path fill="none" stroke="black" d="M365.52,-341.96C364.64,-333.88 363.57,-324.18 362.59,-315.18"/>
<polygon fill="black" stroke="black" points="366.05,-314.65 361.48,-305.09 359.09,-315.41 366.05,-314.65"/>
</g>
<!-- roo_scheduler&#45;&gt;roo_collections -->
<g id="edge29" class="edge">
<title>roo_scheduler&#45;&gt;roo_collections</title>
<path fill="none" stroke="black" d="M295.62,-344.08C298.95,-343.33 302.26,-342.63 305.5,-342 430.31,-317.59 577.75,-301.41 663.24,-293.25"/>
<polygon fill="black" stroke="black" points="663.73,-296.72 673.35,-292.29 663.07,-289.75 663.73,-296.72"/>
</g>
<!-- roo_scheduler&#45;&gt;roo_threads -->
<g id="edge30" class="edge">
<title>roo_scheduler&#45;&gt;roo_threads</title>
<path fill="none" stroke="black" d="M189.42,-341.8C173.48,-333.2 157.52,-321.18 148.5,-305 140.28,-290.25 140.28,-281.75 148.5,-267 155.83,-253.85 167.74,-243.45 180.5,-235.4"/>
<polygon fill="black" stroke="black" points="182.55,-238.26 189.42,-230.2 179.02,-232.21 182.55,-238.26"/>
</g>
<!-- roo_time -->
<g id="node24" class="node">
<title>roo_time</title>
<polygon fill="#b1dbab" stroke="red" points="622,-134 543,-134 543,-96 622,-96 622,-134"/>
<text text-anchor="middle" x="582.5" y="-118.8" font-family="Times,serif" font-size="14.00">roo_time</text>
<text text-anchor="middle" x="582.5" y="-103.8" font-family="Times,serif" font-size="14.00">2.0.0</text>
</g>
<!-- roo_threads&#45;&gt;roo_time -->
<g id="edge31" class="edge">
<title>roo_threads&#45;&gt;roo_time</title>
<path fill="none" stroke="black" d="M288.04,-196.23C353.68,-178.35 467.57,-147.31 532.8,-129.54"/>
<polygon fill="black" stroke="black" points="534.11,-132.81 542.84,-126.81 532.27,-126.06 534.11,-132.81"/>
</g>
<!-- roo_time&#45;&gt;roo_backport -->
<g id="edge33" class="edge">
<title>roo_time&#45;&gt;roo_backport</title>
<path fill="none" stroke="black" d="M585.39,-95.88C587.55,-82.35 590.54,-63.62 593.01,-48.15"/>
<polygon fill="black" stroke="black" points="596.5,-48.5 594.62,-38.07 589.58,-47.39 596.5,-48.5"/>
</g>
<!-- roo_time&#45;&gt;roo_testing -->
<g id="edge32" class="edge">
<title>roo_time&#45;&gt;roo_testing</title>
<path fill="none" stroke="red" d="M602.71,-95.76C616.68,-83.66 636,-67.88 654.5,-56 661.68,-51.39 669.54,-46.92 677.34,-42.8"/>
<polygon fill="red" stroke="red" points="679.13,-45.82 686.42,-38.14 675.93,-39.59 679.13,-45.82"/>
<text text-anchor="middle" x="687.5" y="-70" font-family="Times,serif" font-size="10.00" fill="red">2.1.2</text>
<text text-anchor="middle" x="687.5" y="-59" font-family="Times,serif" font-size="10.00" fill="red">(latest: 2.1.3)</text>
</g>
<!-- roo_time_ds3231 -->
<g id="node25" class="node">
<title>roo_time_ds3231</title>
<polygon fill="#b1dbab" stroke="red" points="653.5,-455 515.5,-455 515.5,-417 653.5,-417 653.5,-455"/>
<text text-anchor="middle" x="584.5" y="-439.8" font-family="Times,serif" font-size="14.00">roo_time_ds3231</text>
<text text-anchor="middle" x="584.5" y="-424.8" font-family="Times,serif" font-size="14.00">2.0.0</text>
</g>
<!-- roo_time_ds3231&#45;&gt;roo_io -->
<g id="edge34" class="edge">
<title>roo_time_ds3231&#45;&gt;roo_io</title>
<path fill="none" stroke="black" d="M595.87,-416.96C601.23,-408.44 607.74,-398.12 613.66,-388.72"/>
<polygon fill="black" stroke="black" points="616.73,-390.42 619.1,-380.09 610.81,-386.68 616.73,-390.42"/>
</g>
<!-- roo_transceivers&#45;&gt;roo_prefs -->
<g id="edge35" class="edge">
<title>roo_transceivers&#45;&gt;roo_prefs</title>
<path fill="none" stroke="red" d="M151.28,-512.88C129.83,-498.05 99.33,-476.97 75.92,-460.79"/>
<polygon fill="red" stroke="red" points="77.86,-457.88 67.64,-455.07 73.88,-463.63 77.86,-457.88"/>
<text text-anchor="middle" x="155.5" y="-487" font-family="Times,serif" font-size="10.00" fill="red">1.3.2</text>
<text text-anchor="middle" x="155.5" y="-476" font-family="Times,serif" font-size="10.00" fill="red">(latest: 1.4.0)</text>
</g>
<!-- roo_transport -->
<g id="node27" class="node">
<title>roo_transport</title>
<polygon fill="#b1dbab" stroke="red" points="929.5,-455 815.5,-455 815.5,-417 929.5,-417 929.5,-455"/>
<text text-anchor="middle" x="872.5" y="-439.8" font-family="Times,serif" font-size="14.00">roo_transport</text>
<text text-anchor="middle" x="872.5" y="-424.8" font-family="Times,serif" font-size="14.00">1.2.0</text>
</g>
<!-- roo_transport&#45;&gt;roo_collections -->
<g id="edge36" class="edge">
<title>roo_transport&#45;&gt;roo_collections</title>
<path fill="none" stroke="black" d="M855.58,-416.85C831.27,-390.78 786.33,-342.58 758.56,-312.81"/>
<polygon fill="black" stroke="black" points="760.94,-310.22 751.56,-305.3 755.82,-315 760.94,-310.22"/>
</g>
<!-- roo_transport&#45;&gt;roo_io -->
<g id="edge37" class="edge">
<title>roo_transport&#45;&gt;roo_io</title>
<path fill="none" stroke="black" d="M815.46,-417.79C770.72,-404.3 709.62,-385.87 670.11,-373.95"/>
<polygon fill="black" stroke="black" points="670.89,-370.53 660.3,-370.99 668.87,-377.23 670.89,-370.53"/>
</g>
<!-- roo_wifi -->
<g id="node28" class="node">
<title>roo_wifi</title>
<polygon fill="plum" stroke="red" points="105.5,-607 33.5,-607 33.5,-569 105.5,-569 105.5,-607"/>
<text text-anchor="middle" x="69.5" y="-591.8" font-family="Times,serif" font-size="14.00">roo_wifi</text>
<text text-anchor="middle" x="69.5" y="-576.8" font-family="Times,serif" font-size="14.00">1.1.6</text>
</g>
<!-- roo_wifi&#45;&gt;roo_prefs -->
<g id="edge38" class="edge">
<title>roo_wifi&#45;&gt;roo_prefs</title>
<path fill="none" stroke="red" d="M46.7,-568.89C41.75,-563.7 37.19,-557.62 34.5,-551 23.26,-523.31 27.68,-488.72 33.22,-464.94"/>
<polygon fill="red" stroke="red" points="36.63,-465.71 35.7,-455.16 29.85,-463.99 36.63,-465.71"/>
<text text-anchor="middle" x="67.5" y="-535" font-family="Times,serif" font-size="10.00" fill="red">1.3.2</text>
<text text-anchor="middle" x="67.5" y="-524" font-family="Times,serif" font-size="10.00" fill="red">(latest: 1.4.0)</text>
</g>
<!-- roo_windows&#45;&gt;roo_fonts_basic -->
<g id="edge39" class="edge">
<title>roo_windows&#45;&gt;roo_fonts_basic</title>
<path fill="none" stroke="black" d="M612.21,-629.37C682.28,-611.91 807.78,-580.64 925.39,-551.28"/>
<polygon fill="black" stroke="black" points="926.43,-554.62 935.28,-548.81 924.73,-547.83 926.43,-554.62"/>
</g>
<!-- roo_windows&#45;&gt;roo_fonts_material -->
<g id="edge40" class="edge">
<title>roo_windows&#45;&gt;roo_fonts_material</title>
<path fill="none" stroke="black" d="M579.96,-624.84C602.7,-606.44 638.01,-577.88 663.21,-557.5"/>
<polygon fill="black" stroke="black" points="665.43,-560.2 671.01,-551.19 661.03,-554.76 665.43,-560.2"/>
</g>
<!-- roo_windows&#45;&gt;roo_icons -->
<g id="edge42" class="edge">
<title>roo_windows&#45;&gt;roo_icons</title>
<path fill="none" stroke="black" d="M612.14,-636.51C704.94,-624.77 899.09,-597.1 1070.22,-550.87"/>
<polygon fill="black" stroke="black" points="1071.18,-554.23 1079.9,-548.22 1069.34,-547.48 1071.18,-554.23"/>
</g>
<!-- roo_windows&#45;&gt;roo_locale -->
<g id="edge41" class="edge">
<title>roo_windows&#45;&gt;roo_locale</title>
<path fill="none" stroke="black" d="M557.5,-624.84C557.5,-607.56 557.5,-581.31 557.5,-561.29"/>
<polygon fill="black" stroke="black" points="561,-561.19 557.5,-551.19 554,-561.19 561,-561.19"/>
</g>
<!-- roo_windows&#45;&gt;roo_scheduler -->
<g id="edge43" class="edge">
<title>roo_windows&#45;&gt;roo_scheduler</title>
<path fill="none" stroke="black" d="M514.85,-624.93C433.7,-589.6 262.31,-509.98 230.5,-455 219.16,-435.4 222.3,-409.46 227.48,-389.95"/>
<polygon fill="black" stroke="black" points="230.91,-390.72 230.4,-380.13 224.2,-388.72 230.91,-390.72"/>
</g>
<!-- roo_windows_transceivers -->
<g id="node30" class="node">
<title>roo_windows_transceivers</title>
<polygon fill="#b1dbab" stroke="black" points="469.5,-738 265.5,-738 265.5,-700 469.5,-700 469.5,-738"/>
<text text-anchor="middle" x="367.5" y="-722.8" font-family="Times,serif" font-size="14.00">roo_windows_transceivers</text>
<text text-anchor="middle" x="367.5" y="-707.8" font-family="Times,serif" font-size="14.00">1.0.0</text>
</g>
<!-- roo_windows_transceivers&#45;&gt;roo_transceivers -->
<g id="edge44" class="edge">
<title>roo_windows_transceivers&#45;&gt;roo_transceivers</title>
<path fill="none" stroke="black" d="M328.19,-699.83C292.43,-681.34 240.74,-649.39 210.5,-607 200.41,-592.86 192.38,-575.14 186.76,-560.58"/>
<polygon fill="black" stroke="black" points="190.01,-559.27 183.27,-551.1 183.44,-561.69 190.01,-559.27"/>
</g>
<!-- roo_windows_transceivers&#45;&gt;roo_windows -->
<g id="edge45" class="edge">
<title>roo_windows_transceivers&#45;&gt;roo_windows</title>
<path fill="none" stroke="black" d="M414.47,-699.96C440.61,-689.91 473.35,-677.33 500.9,-666.74"/>
<polygon fill="black" stroke="black" points="502.34,-669.94 510.42,-663.09 499.83,-663.41 502.34,-669.94"/>
</g>
<!-- roo_windows_wifi -->
<g id="node31" class="node">
<title>roo_windows_wifi</title>
<polygon fill="plum" stroke="red" points="230,-738 89,-738 89,-700 230,-700 230,-738"/>
<text text-anchor="middle" x="159.5" y="-722.8" font-family="Times,serif" font-size="14.00">roo_windows_wifi</text>
<text text-anchor="middle" x="159.5" y="-707.8" font-family="Times,serif" font-size="14.00">1.1.4</text>
</g>
<!-- roo_windows_wifi&#45;&gt;roo_wifi -->
<g id="edge46" class="edge">
<title>roo_windows_wifi&#45;&gt;roo_wifi</title>
<path fill="none" stroke="black" d="M146.8,-699.79C131.45,-677.8 105.52,-640.63 87.97,-615.47"/>
<polygon fill="black" stroke="black" points="90.73,-613.31 82.14,-607.12 84.99,-617.32 90.73,-613.31"/>
</g>
<!-- roo_windows_wifi&#45;&gt;roo_windows -->
<g id="edge47" class="edge">
<title>roo_windows_wifi&#45;&gt;roo_windows</title>
<path fill="none" stroke="black" d="M230.22,-704.85C239.07,-703.22 247.99,-701.57 256.5,-700 338.03,-684.99 432.02,-667.84 492.98,-656.74"/>
<polygon fill="black" stroke="black" points="493.63,-660.18 502.84,-654.94 492.38,-653.29 493.63,-660.18"/>
</g>
</g>
</svg>
