<?xml version="1.0" encoding="UTF-8" standalone="no"?>
<!DOCTYPE svg PUBLIC "-//W3C//DTD SVG 1.1//EN"
 "http://www.w3.org/Graphics/SVG/1.1/DTD/svg11.dtd">
<!-- Generated by graphviz version 2.42.4 (0)
 -->
<!-- Title: dependencies Pages: 1 -->
<svg width="1238pt" height="814pt"
 viewBox="0.00 0.00 1238.00 814.00" xmlns="http://www.w3.org/2000/svg" xmlns:xlink="http://www.w3.org/1999/xlink">
<g id="graph0" class="graph" transform="scale(1 1) rotate(0) translate(4 810)">
<title>dependencies</title>
<polygon fill="white" stroke="transparent" points="-4,4 -4,-810 1234,-810 1234,4 -4,4"/>
<!-- roo_backport -->
<g id="node1" class="node">
<title>roo_backport</title>
<polygon fill="#b1dbab" stroke="black" points="708,-230 598,-230 598,-192 708,-192 708,-230"/>
<text text-anchor="middle" x="653" y="-214.8" font-family="Times,serif" font-size="14.00">roo_backport</text>
<text text-anchor="middle" x="653" y="-199.8" font-family="Times,serif" font-size="14.00">1.2.2</text>
</g>
<!-- roo_blink -->
<g id="node2" class="node">
<title>roo_blink</title>
<polygon fill="#b1dbab" stroke="red" points="320,-614 238,-614 238,-576 320,-576 320,-614"/>
<text text-anchor="middle" x="279" y="-598.8" font-family="Times,serif" font-size="14.00">roo_blink</text>
<text text-anchor="middle" x="279" y="-583.8" font-family="Times,serif" font-size="14.00">1.0.6</text>
</g>
<!-- roo_logging -->
<g id="node15" class="node">
<title>roo_logging</title>
<polygon fill="#b1dbab" stroke="red" points="519,-326 419,-326 419,-288 519,-288 519,-326"/>
<text text-anchor="middle" x="469" y="-310.8" font-family="Times,serif" font-size="14.00">roo_logging</text>
<text text-anchor="middle" x="469" y="-295.8" font-family="Times,serif" font-size="14.00">1.5.7</text>
</g>
<!-- roo_blink&#45;&gt;roo_logging -->
<g id="edge1" class="edge">
<title>roo_blink&#45;&gt;roo_logging</title>
<path fill="none" stroke="red" d="M278.7,-575.97C279.02,-552.57 282.07,-511.07 298,-480 315.68,-445.52 396.32,-371.72 440.26,-332.95"/>
<polygon fill="red" stroke="red" points="442.81,-335.37 448.01,-326.14 438.19,-330.11 442.81,-335.37"/>
<text text-anchor="middle" x="362" y="-454" font-family="Times,serif" font-size="10.00" fill="red">1.5.5</text>
<text text-anchor="middle" x="362" y="-443" font-family="Times,serif" font-size="10.00" fill="red">(latest: 1.5.7)</text>
</g>
<!-- roo_scheduler -->
<g id="node21" class="node">
<title>roo_scheduler</title>
<polygon fill="#b1dbab" stroke="red" points="423,-518 307,-518 307,-480 423,-480 423,-518"/>
<text text-anchor="middle" x="365" y="-502.8" font-family="Times,serif" font-size="14.00">roo_scheduler</text>
<text text-anchor="middle" x="365" y="-487.8" font-family="Times,serif" font-size="14.00">2.1.9</text>
</g>
<!-- roo_blink&#45;&gt;roo_scheduler -->
<g id="edge2" class="edge">
<title>roo_blink&#45;&gt;roo_scheduler</title>
<path fill="none" stroke="black" d="M309.93,-575.86C317.34,-570.67 324.88,-564.6 331,-558 339.39,-548.96 346.64,-537.5 352.27,-527.16"/>
<polygon fill="black" stroke="black" points="355.48,-528.57 356.97,-518.08 349.26,-525.35 355.48,-528.57"/>
</g>
<!-- roo_collections -->
<g id="node3" class="node">
<title>roo_collections</title>
<polygon fill="khaki" stroke="black" points="938,-422 816,-422 816,-384 938,-384 938,-422"/>
<text text-anchor="middle" x="877" y="-406.8" font-family="Times,serif" font-size="14.00">roo_collections</text>
<text text-anchor="middle" x="877" y="-391.8" font-family="Times,serif" font-size="14.00">1.4.4</text>
</g>
<!-- roo_collections&#45;&gt;roo_backport -->
<g id="edge3" class="edge">
<title>roo_collections&#45;&gt;roo_backport</title>
<path fill="none" stroke="black" d="M855.52,-383.78C815.13,-349.52 727.83,-275.47 682.17,-236.74"/>
<polygon fill="black" stroke="black" points="684.3,-233.96 674.41,-230.16 679.78,-239.3 684.3,-233.96"/>
</g>
<!-- roo_comms -->
<g id="node4" class="node">
<title>roo_comms</title>
<polygon fill="#b1dbab" stroke="red" points="261.5,-806 164.5,-806 164.5,-768 261.5,-768 261.5,-806"/>
<text text-anchor="middle" x="213" y="-790.8" font-family="Times,serif" font-size="14.00">roo_comms</text>
<text text-anchor="middle" x="213" y="-775.8" font-family="Times,serif" font-size="14.00">1.1.4</text>
</g>
<!-- roo_comms&#45;&gt;roo_blink -->
<g id="edge4" class="edge">
<title>roo_comms&#45;&gt;roo_blink</title>
<path fill="none" stroke="black" d="M213.87,-767.67C215.46,-744.66 219.86,-704.31 232,-672 238.6,-654.44 249.45,-636.52 259.06,-622.49"/>
<polygon fill="black" stroke="black" points="261.94,-624.48 264.84,-614.29 256.22,-620.45 261.94,-624.48"/>
</g>
<!-- roo_control -->
<g id="node5" class="node">
<title>roo_control</title>
<polygon fill="khaki" stroke="red" points="219.5,-614 122.5,-614 122.5,-576 219.5,-576 219.5,-614"/>
<text text-anchor="middle" x="171" y="-598.8" font-family="Times,serif" font-size="14.00">roo_control</text>
<text text-anchor="middle" x="171" y="-583.8" font-family="Times,serif" font-size="14.00">1.2.5</text>
</g>
<!-- roo_comms&#45;&gt;roo_control -->
<g id="edge5" class="edge">
<title>roo_comms&#45;&gt;roo_control</title>
<path fill="none" stroke="black" d="M205.19,-767.92C202.96,-762.26 200.68,-755.94 199,-750 186.84,-706.96 178.74,-655.6 174.51,-624.42"/>
<polygon fill="black" stroke="black" points="177.95,-623.73 173.17,-614.27 171.01,-624.65 177.95,-623.73"/>
</g>
<!-- roo_io -->
<g id="node13" class="node">
<title>roo_io</title>
<polygon fill="#b1dbab" stroke="black" points="647.5,-422 588.5,-422 588.5,-384 647.5,-384 647.5,-422"/>
<text text-anchor="middle" x="618" y="-406.8" font-family="Times,serif" font-size="14.00">roo_io</text>
<text text-anchor="middle" x="618" y="-391.8" font-family="Times,serif" font-size="14.00">2.2.4</text>
</g>
<!-- roo_comms&#45;&gt;roo_io -->
<g id="edge6" class="edge">
<title>roo_comms&#45;&gt;roo_io</title>
<path fill="none" stroke="red" d="M261.54,-770.1C264.72,-769.32 267.9,-768.61 271,-768 317.19,-758.97 446.3,-780.66 482,-750 502.12,-732.72 496,-718.52 496,-692 496,-692 496,-692 496,-498 496,-471.48 492.06,-459.53 510,-440 527.39,-421.07 554.99,-412.08 577.94,-407.82"/>
<polygon fill="red" stroke="red" points="578.79,-411.23 588.1,-406.17 577.67,-404.32 578.79,-411.23"/>
<text text-anchor="middle" x="529" y="-598" font-family="Times,serif" font-size="10.00" fill="red">2.1.5</text>
<text text-anchor="middle" x="529" y="-587" font-family="Times,serif" font-size="10.00" fill="red">(latest: 2.2.4)</text>
</g>
<!-- roo_transceivers -->
<g id="node26" class="node">
<title>roo_transceivers</title>
<polygon fill="khaki" stroke="red" points="376.5,-710 241.5,-710 241.5,-672 376.5,-672 376.5,-710"/>
<text text-anchor="middle" x="309" y="-694.8" font-family="Times,serif" font-size="14.00">roo_transceivers</text>
<text text-anchor="middle" x="309" y="-679.8" font-family="Times,serif" font-size="14.00">1.1.6</text>
</g>
<!-- roo_comms&#45;&gt;roo_transceivers -->
<g id="edge7" class="edge">
<title>roo_comms&#45;&gt;roo_transceivers</title>
<path fill="none" stroke="red" d="M229.84,-767.91C240.8,-756.31 255.51,-741.03 269,-728 272.77,-724.36 276.8,-720.59 280.81,-716.92"/>
<polygon fill="red" stroke="red" points="283.34,-719.35 288.4,-710.04 278.64,-714.16 283.34,-719.35"/>
<text text-anchor="middle" x="302" y="-742" font-family="Times,serif" font-size="10.00" fill="red">1.1.5</text>
<text text-anchor="middle" x="302" y="-731" font-family="Times,serif" font-size="10.00" fill="red">(latest: 1.1.6)</text>
</g>
<!-- roo_quantity -->
<g id="node20" class="node">
<title>roo_quantity</title>
<polygon fill="#b1dbab" stroke="red" points="224.5,-518 117.5,-518 117.5,-480 224.5,-480 224.5,-518"/>
<text text-anchor="middle" x="171" y="-502.8" font-family="Times,serif" font-size="14.00">roo_quantity</text>
<text text-anchor="middle" x="171" y="-487.8" font-family="Times,serif" font-size="14.00">1.1.8</text>
</g>
<!-- roo_control&#45;&gt;roo_quantity -->
<g id="edge8" class="edge">
<title>roo_control&#45;&gt;roo_quantity</title>
<path fill="none" stroke="black" d="M171,-575.88C171,-562.35 171,-543.62 171,-528.15"/>
<polygon fill="black" stroke="black" points="174.5,-528.07 171,-518.07 167.5,-528.07 174.5,-528.07"/>
</g>
<!-- roo_control&#45;&gt;roo_scheduler -->
<g id="edge9" class="edge">
<title>roo_control&#45;&gt;roo_scheduler</title>
<path fill="none" stroke="black" d="M208.41,-575.88C239.81,-560.66 284.81,-538.85 318.52,-522.52"/>
<polygon fill="black" stroke="black" points="320.24,-525.58 327.71,-518.07 317.18,-519.28 320.24,-525.58"/>
</g>
<!-- roo_dashboard -->
<g id="node6" class="node">
<title>roo_dashboard</title>
<polygon fill="khaki" stroke="red" points="784,-806 662,-806 662,-768 784,-768 784,-806"/>
<text text-anchor="middle" x="723" y="-790.8" font-family="Times,serif" font-size="14.00">roo_dashboard</text>
<text text-anchor="middle" x="723" y="-775.8" font-family="Times,serif" font-size="14.00">1.0.1</text>
</g>
<!-- roo_windows -->
<g id="node29" class="node">
<title>roo_windows</title>
<polygon fill="plum" stroke="red" points="750.5,-710 641.5,-710 641.5,-672 750.5,-672 750.5,-710"/>
<text text-anchor="middle" x="696" y="-694.8" font-family="Times,serif" font-size="14.00">roo_windows</text>
<text text-anchor="middle" x="696" y="-679.8" font-family="Times,serif" font-size="14.00">1.6.0</text>
</g>
<!-- roo_dashboard&#45;&gt;roo_windows -->
<g id="edge10" class="edge">
<title>roo_dashboard&#45;&gt;roo_windows</title>
<path fill="none" stroke="red" d="M717.79,-767.88C713.87,-754.22 708.43,-735.26 703.96,-719.71"/>
<polygon fill="red" stroke="red" points="707.31,-718.71 701.19,-710.07 700.59,-720.65 707.31,-718.71"/>
<text text-anchor="middle" x="745" y="-742" font-family="Times,serif" font-size="10.00" fill="red">1.4.1</text>
<text text-anchor="middle" x="745" y="-731" font-family="Times,serif" font-size="10.00" fill="red">(latest: 1.6.0)</text>
</g>
<!-- roo_display -->
<g id="node7" class="node">
<title>roo_display</title>
<polygon fill="khaki" stroke="red" points="850,-518 752,-518 752,-480 850,-480 850,-518"/>
<text text-anchor="middle" x="801" y="-502.8" font-family="Times,serif" font-size="14.00">roo_display</text>
<text text-anchor="middle" x="801" y="-487.8" font-family="Times,serif" font-size="14.00">3.1.2</text>
</g>
<!-- roo_display&#45;&gt;roo_collections -->
<g id="edge11" class="edge">
<title>roo_display&#45;&gt;roo_collections</title>
<path fill="none" stroke="black" d="M850.17,-483C867.14,-476.75 883.14,-469.27 888,-462 893.89,-453.18 893.23,-442.01 890.34,-431.84"/>
<polygon fill="black" stroke="black" points="893.52,-430.36 886.87,-422.11 886.93,-432.71 893.52,-430.36"/>
</g>
<!-- roo_display&#45;&gt;roo_io -->
<g id="edge12" class="edge">
<title>roo_display&#45;&gt;roo_io</title>
<path fill="none" stroke="red" d="M751.95,-483.13C737.23,-477.6 721.44,-470.55 708,-462 696.06,-454.41 696.45,-448.31 685,-440 676.26,-433.65 666.25,-427.68 656.69,-422.5"/>
<polygon fill="red" stroke="red" points="658.2,-419.33 647.72,-417.78 654.94,-425.53 658.2,-419.33"/>
<text text-anchor="middle" x="741" y="-454" font-family="Times,serif" font-size="10.00" fill="red">2.2.3</text>
<text text-anchor="middle" x="741" y="-443" font-family="Times,serif" font-size="10.00" fill="red">(latest: 2.2.4)</text>
</g>
<!-- roo_display_lvgl -->
<g id="node8" class="node">
<title>roo_display_lvgl</title>
<polygon fill="khaki" stroke="red" points="1123.5,-614 992.5,-614 992.5,-576 1123.5,-576 1123.5,-614"/>
<text text-anchor="middle" x="1058" y="-598.8" font-family="Times,serif" font-size="14.00">roo_display_lvgl</text>
<text text-anchor="middle" x="1058" y="-583.8" font-family="Times,serif" font-size="14.00">1.0.0</text>
</g>
<!-- roo_display_lvgl&#45;&gt;roo_display -->
<g id="edge13" class="edge">
<title>roo_display_lvgl&#45;&gt;roo_display</title>
<path fill="none" stroke="red" d="M1008.75,-575.99C966.25,-560.44 904.77,-537.96 859.72,-521.48"/>
<polygon fill="red" stroke="red" points="860.68,-518.1 850.08,-517.95 858.27,-524.67 860.68,-518.1"/>
<text text-anchor="middle" x="986" y="-550" font-family="Times,serif" font-size="10.00" fill="red">3.0.3</text>
<text text-anchor="middle" x="986" y="-539" font-family="Times,serif" font-size="10.00" fill="red">(latest: 3.1.2)</text>
</g>
<!-- roo_flags -->
<g id="node9" class="node">
<title>roo_flags</title>
<polygon fill="#b1dbab" stroke="black" points="509,-230 429,-230 429,-192 509,-192 509,-230"/>
<text text-anchor="middle" x="469" y="-214.8" font-family="Times,serif" font-size="14.00">roo_flags</text>
<text text-anchor="middle" x="469" y="-199.8" font-family="Times,serif" font-size="14.00">1.2.3</text>
</g>
<!-- roo_fonts_basic -->
<g id="node10" class="node">
<title>roo_fonts_basic</title>
<polygon fill="khaki" stroke="red" points="706,-614 580,-614 580,-576 706,-576 706,-614"/>
<text text-anchor="middle" x="643" y="-598.8" font-family="Times,serif" font-size="14.00">roo_fonts_basic</text>
<text text-anchor="middle" x="643" y="-583.8" font-family="Times,serif" font-size="14.00">1.0.2</text>
</g>
<!-- roo_fonts_basic&#45;&gt;roo_display -->
<g id="edge14" class="edge">
<title>roo_fonts_basic&#45;&gt;roo_display</title>
<path fill="none" stroke="red" d="M668.37,-575.92C685.46,-564.04 708.68,-548.45 730,-536 737.72,-531.49 746.07,-526.97 754.23,-522.72"/>
<polygon fill="red" stroke="red" points="756.03,-525.73 763.34,-518.05 752.84,-519.5 756.03,-525.73"/>
<text text-anchor="middle" x="763" y="-550" font-family="Times,serif" font-size="10.00" fill="red">3.0.2</text>
<text text-anchor="middle" x="763" y="-539" font-family="Times,serif" font-size="10.00" fill="red">(latest: 3.1.2)</text>
</g>
<!-- roo_fonts_material -->
<g id="node11" class="node">
<title>roo_fonts_material</title>
<polygon fill="khaki" stroke="red" points="873.5,-614 724.5,-614 724.5,-576 873.5,-576 873.5,-614"/>
<text text-anchor="middle" x="799" y="-598.8" font-family="Times,serif" font-size="14.00">roo_fonts_material</text>
<text text-anchor="middle" x="799" y="-583.8" font-family="Times,serif" font-size="14.00">1.0.0</text>
</g>
<!-- roo_fonts_material&#45;&gt;roo_display -->
<g id="edge15" class="edge">
<title>roo_fonts_material&#45;&gt;roo_display</title>
<path fill="none" stroke="red" d="M799.39,-575.88C799.67,-562.35 800.07,-543.62 800.4,-528.15"/>
<polygon fill="red" stroke="red" points="803.9,-528.14 800.62,-518.07 796.9,-527.99 803.9,-528.14"/>
<text text-anchor="middle" x="834" y="-550" font-family="Times,serif" font-size="10.00" fill="red">3.0.2</text>
<text text-anchor="middle" x="834" y="-539" font-family="Times,serif" font-size="10.00" fill="red">(latest: 3.1.2)</text>
</g>
<!-- roo_icons -->
<g id="node12" class="node">
<title>roo_icons</title>
<polygon fill="#b1dbab" stroke="black" points="974.5,-614 891.5,-614 891.5,-576 974.5,-576 974.5,-614"/>
<text text-anchor="middle" x="933" y="-598.8" font-family="Times,serif" font-size="14.00">roo_icons</text>
<text text-anchor="middle" x="933" y="-583.8" font-family="Times,serif" font-size="14.00">1.2.3</text>
</g>
<!-- roo_icons&#45;&gt;roo_display -->
<g id="edge16" class="edge">
<title>roo_icons&#45;&gt;roo_display</title>
<path fill="none" stroke="black" d="M916.23,-575.86C904.35,-563.65 887.63,-547.71 871,-536 864.48,-531.41 857.29,-527.04 850.09,-523.03"/>
<polygon fill="black" stroke="black" points="851.46,-519.79 840.99,-518.15 848.15,-525.96 851.46,-519.79"/>
</g>
<!-- roo_io&#45;&gt;roo_logging -->
<g id="edge17" class="edge">
<title>roo_io&#45;&gt;roo_logging</title>
<path fill="none" stroke="black" d="M589.27,-383.88C565.67,-368.99 532.06,-347.78 506.37,-331.57"/>
<polygon fill="black" stroke="black" points="507.97,-328.44 497.64,-326.07 504.23,-334.36 507.97,-328.44"/>
</g>
<!-- roo_locale -->
<g id="node14" class="node">
<title>roo_locale</title>
<polygon fill="#b1dbab" stroke="black" points="1230,-614 1142,-614 1142,-576 1230,-576 1230,-614"/>
<text text-anchor="middle" x="1186" y="-598.8" font-family="Times,serif" font-size="14.00">roo_locale</text>
<text text-anchor="middle" x="1186" y="-583.8" font-family="Times,serif" font-size="14.00">1.1.2</text>
</g>
<!-- roo_logging&#45;&gt;roo_backport -->
<g id="edge18" class="edge">
<title>roo_logging&#45;&gt;roo_backport</title>
<path fill="none" stroke="black" d="M504.48,-287.88C534.13,-272.73 576.58,-251.04 608.51,-234.73"/>
<polygon fill="black" stroke="black" points="610.32,-237.73 617.63,-230.07 607.13,-231.5 610.32,-237.73"/>
</g>
<!-- roo_logging&#45;&gt;roo_flags -->
<g id="edge19" class="edge">
<title>roo_logging&#45;&gt;roo_flags</title>
<path fill="none" stroke="black" d="M469,-287.88C469,-274.35 469,-255.62 469,-240.15"/>
<polygon fill="black" stroke="black" points="472.5,-240.07 469,-230.07 465.5,-240.07 472.5,-240.07"/>
</g>
<!-- roo_threads -->
<g id="node23" class="node">
<title>roo_threads</title>
<polygon fill="#b1dbab" stroke="red" points="384.5,-230 283.5,-230 283.5,-192 384.5,-192 384.5,-230"/>
<text text-anchor="middle" x="334" y="-214.8" font-family="Times,serif" font-size="14.00">roo_threads</text>
<text text-anchor="middle" x="334" y="-199.8" font-family="Times,serif" font-size="14.00">1.2.5</text>
</g>
<!-- roo_logging&#45;&gt;roo_threads -->
<g id="edge20" class="edge">
<title>roo_logging&#45;&gt;roo_threads</title>
<path fill="none" stroke="black" d="M451.27,-287.92C438.75,-275.75 421.2,-259.82 404,-248 397.35,-243.43 390.04,-239.05 382.73,-235.02"/>
<polygon fill="black" stroke="black" points="383.99,-231.73 373.52,-230.12 380.7,-237.91 383.99,-231.73"/>
</g>
<!-- roo_monitoring -->
<g id="node16" class="node">
<title>roo_monitoring</title>
<polygon fill="#b1dbab" stroke="red" points="706.5,-518 581.5,-518 581.5,-480 706.5,-480 706.5,-518"/>
<text text-anchor="middle" x="644" y="-502.8" font-family="Times,serif" font-size="14.00">roo_monitoring</text>
<text text-anchor="middle" x="644" y="-487.8" font-family="Times,serif" font-size="14.00">1.1.2</text>
</g>
<!-- roo_monitoring&#45;&gt;roo_collections -->
<g id="edge21" class="edge">
<title>roo_monitoring&#45;&gt;roo_collections</title>
<path fill="none" stroke="black" d="M706.53,-486.33C718.62,-484.16 731.19,-481.96 743,-480 769.6,-475.59 843.11,-480.21 863,-462 871.28,-454.42 875.06,-442.86 876.66,-432.06"/>
<polygon fill="black" stroke="black" points="880.15,-432.36 877.61,-422.08 873.18,-431.7 880.15,-432.36"/>
</g>
<!-- roo_monitoring&#45;&gt;roo_io -->
<g id="edge22" class="edge">
<title>roo_monitoring&#45;&gt;roo_io</title>
<path fill="none" stroke="red" d="M628.23,-479.7C624.49,-474.33 621.01,-468.23 619,-462 615.99,-452.67 615.12,-442.05 615.21,-432.46"/>
<polygon fill="red" stroke="red" points="618.72,-432.35 615.64,-422.21 611.72,-432.05 618.72,-432.35"/>
<text text-anchor="middle" x="652" y="-454" font-family="Times,serif" font-size="10.00" fill="red">2.2.3</text>
<text text-anchor="middle" x="652" y="-443" font-family="Times,serif" font-size="10.00" fill="red">(latest: 2.2.4)</text>
</g>
<!-- roo_onewire -->
<g id="node17" class="node">
<title>roo_onewire</title>
<polygon fill="#b1dbab" stroke="red" points="104,-614 0,-614 0,-576 104,-576 104,-614"/>
<text text-anchor="middle" x="52" y="-598.8" font-family="Times,serif" font-size="14.00">roo_onewire</text>
<text text-anchor="middle" x="52" y="-583.8" font-family="Times,serif" font-size="14.00">2.0.9</text>
</g>
<!-- roo_onewire&#45;&gt;roo_quantity -->
<g id="edge24" class="edge">
<title>roo_onewire&#45;&gt;roo_quantity</title>
<path fill="none" stroke="black" d="M70,-575.86C82.22,-563.96 99,-548.36 115,-536 120.41,-531.82 126.31,-527.65 132.18,-523.71"/>
<polygon fill="black" stroke="black" points="134.25,-526.54 140.7,-518.13 130.42,-520.68 134.25,-526.54"/>
</g>
<!-- roo_onewire&#45;&gt;roo_scheduler -->
<g id="edge23" class="edge">
<title>roo_onewire&#45;&gt;roo_scheduler</title>
<path fill="none" stroke="black" d="M104.04,-578.37C156.95,-562.48 239.18,-537.78 297.17,-520.37"/>
<polygon fill="black" stroke="black" points="298.41,-523.65 306.98,-517.42 296.4,-516.95 298.41,-523.65"/>
</g>
<!-- roo_powersafefs -->
<g id="node18" class="node">
<title>roo_powersafefs</title>
<polygon fill="khaki" stroke="red" points="400.5,-326 267.5,-326 267.5,-288 400.5,-288 400.5,-326"/>
<text text-anchor="middle" x="334" y="-310.8" font-family="Times,serif" font-size="14.00">roo_powersafefs</text>
<text text-anchor="middle" x="334" y="-295.8" font-family="Times,serif" font-size="14.00">1.0.1</text>
</g>
<!-- roo_powersafefs&#45;&gt;roo_threads -->
<g id="edge25" class="edge">
<title>roo_powersafefs&#45;&gt;roo_threads</title>
<path fill="none" stroke="red" d="M334,-287.88C334,-274.35 334,-255.62 334,-240.15"/>
<polygon fill="red" stroke="red" points="337.5,-240.07 334,-230.07 330.5,-240.07 337.5,-240.07"/>
<text text-anchor="middle" x="367" y="-262" font-family="Times,serif" font-size="10.00" fill="red">1.2.3</text>
<text text-anchor="middle" x="367" y="-251" font-family="Times,serif" font-size="10.00" fill="red">(latest: 1.2.5)</text>
</g>
<!-- roo_prefs -->
<g id="node19" class="node">
<title>roo_prefs</title>
<polygon fill="#b1dbab" stroke="black" points="421.5,-614 338.5,-614 338.5,-576 421.5,-576 421.5,-614"/>
<text text-anchor="middle" x="380" y="-598.8" font-family="Times,serif" font-size="14.00">roo_prefs</text>
<text text-anchor="middle" x="380" y="-583.8" font-family="Times,serif" font-size="14.00">1.3.0</text>
</g>
<!-- roo_prefs&#45;&gt;roo_logging -->
<g id="edge26" class="edge">
<title>roo_prefs&#45;&gt;roo_logging</title>
<path fill="none" stroke="black" d="M395.67,-575.93C407.51,-561.29 423.19,-539.61 432,-518 457.15,-456.32 465.23,-377.61 467.8,-336.28"/>
<polygon fill="black" stroke="black" points="471.31,-336.31 468.37,-326.13 464.32,-335.92 471.31,-336.31"/>
</g>
<!-- roo_prefs&#45;&gt;roo_scheduler -->
<g id="edge27" class="edge">
<title>roo_prefs&#45;&gt;roo_scheduler</title>
<path fill="none" stroke="black" d="M377.11,-575.88C374.95,-562.35 371.96,-543.62 369.49,-528.15"/>
<polygon fill="black" stroke="black" points="372.92,-527.39 367.88,-518.07 366,-528.5 372.92,-527.39"/>
</g>
<!-- roo_quantity&#45;&gt;roo_logging -->
<g id="edge28" class="edge">
<title>roo_quantity&#45;&gt;roo_logging</title>
<path fill="none" stroke="red" d="M184.92,-479.91C203.83,-456.09 239.49,-413.73 276,-384 288.06,-374.18 292.7,-374.05 306,-366 322.04,-356.29 324.77,-351.4 342,-344 370.33,-331.84 379.34,-334.43 409,-326 409.1,-325.97 409.2,-325.94 409.3,-325.91"/>
<polygon fill="red" stroke="red" points="410.3,-329.27 418.94,-323.14 408.36,-322.54 410.3,-329.27"/>
<text text-anchor="middle" x="309" y="-406" font-family="Times,serif" font-size="10.00" fill="red">1.5.5</text>
<text text-anchor="middle" x="309" y="-395" font-family="Times,serif" font-size="10.00" fill="red">(latest: 1.5.7)</text>
</g>
<!-- roo_scheduler&#45;&gt;roo_collections -->
<g id="edge29" class="edge">
<title>roo_scheduler&#45;&gt;roo_collections</title>
<path fill="none" stroke="red" d="M412.31,-479.94C448.42,-466.87 499.68,-449.83 546,-440 593.97,-429.81 723.76,-417.32 805.83,-410.05"/>
<polygon fill="red" stroke="red" points="806.19,-413.53 815.84,-409.16 805.57,-406.55 806.19,-413.53"/>
<text text-anchor="middle" x="579" y="-454" font-family="Times,serif" font-size="10.00" fill="red">1.4.3</text>
<text text-anchor="middle" x="579" y="-443" font-family="Times,serif" font-size="10.00" fill="red">(latest: 1.4.4)</text>
</g>
<!-- roo_scheduler&#45;&gt;roo_threads -->
<g id="edge30" class="edge">
<title>roo_scheduler&#45;&gt;roo_threads</title>
<path fill="none" stroke="red" d="M360.71,-479.88C357.53,-468.12 352.61,-452.69 346,-440 331.63,-412.41 323,-408.63 304,-384 283.91,-357.95 268.82,-357.07 258,-326 252.44,-310.05 251.54,-303.6 258,-288 266.45,-267.59 283.34,-249.81 299.05,-236.59"/>
<polygon fill="red" stroke="red" points="301.51,-239.1 307.11,-230.1 297.12,-233.64 301.51,-239.1"/>
<text text-anchor="middle" x="321" y="-358" font-family="Times,serif" font-size="10.00" fill="red">1.2.3</text>
<text text-anchor="middle" x="321" y="-347" font-family="Times,serif" font-size="10.00" fill="red">(latest: 1.2.5)</text>
</g>
<!-- roo_testing -->
<g id="node22" class="node">
<title>roo_testing</title>
<polygon fill="#b1dbab" stroke="black" points="284.5,-38 187.5,-38 187.5,0 284.5,0 284.5,-38"/>
<text text-anchor="middle" x="236" y="-22.8" font-family="Times,serif" font-size="14.00">roo_testing</text>
<text text-anchor="middle" x="236" y="-7.8" font-family="Times,serif" font-size="14.00">1.3.6</text>
</g>
<!-- roo_time -->
<g id="node24" class="node">
<title>roo_time</title>
<polygon fill="#b1dbab" stroke="red" points="275.5,-134 196.5,-134 196.5,-96 275.5,-96 275.5,-134"/>
<text text-anchor="middle" x="236" y="-118.8" font-family="Times,serif" font-size="14.00">roo_time</text>
<text text-anchor="middle" x="236" y="-103.8" font-family="Times,serif" font-size="14.00">1.4.4</text>
</g>
<!-- roo_threads&#45;&gt;roo_time -->
<g id="edge31" class="edge">
<title>roo_threads&#45;&gt;roo_time</title>
<path fill="none" stroke="black" d="M322.49,-191.74C314.33,-179.64 302.61,-163.86 290,-152 285.58,-147.85 280.64,-143.85 275.58,-140.12"/>
<polygon fill="black" stroke="black" points="277.24,-137.01 267.04,-134.13 273.22,-142.74 277.24,-137.01"/>
</g>
<!-- roo_time&#45;&gt;roo_testing -->
<g id="edge32" class="edge">
<title>roo_time&#45;&gt;roo_testing</title>
<path fill="none" stroke="red" d="M236,-95.88C236,-82.35 236,-63.62 236,-48.15"/>
<polygon fill="red" stroke="red" points="239.5,-48.07 236,-38.07 232.5,-48.07 239.5,-48.07"/>
<text text-anchor="middle" x="269" y="-70" font-family="Times,serif" font-size="10.00" fill="red">1.3.5</text>
<text text-anchor="middle" x="269" y="-59" font-family="Times,serif" font-size="10.00" fill="red">(latest: 1.3.6)</text>
</g>
<!-- roo_time_ds3231 -->
<g id="node25" class="node">
<title>roo_time_ds3231</title>
<polygon fill="#b1dbab" stroke="red" points="265,-230 127,-230 127,-192 265,-192 265,-230"/>
<text text-anchor="middle" x="196" y="-214.8" font-family="Times,serif" font-size="14.00">roo_time_ds3231</text>
<text text-anchor="middle" x="196" y="-199.8" font-family="Times,serif" font-size="14.00">1.1.6</text>
</g>
<!-- roo_time_ds3231&#45;&gt;roo_time -->
<g id="edge33" class="edge">
<title>roo_time_ds3231&#45;&gt;roo_time</title>
<path fill="none" stroke="red" d="M203.71,-191.88C209.52,-178.22 217.59,-159.26 224.21,-143.71"/>
<polygon fill="red" stroke="red" points="227.62,-144.64 228.31,-134.07 221.18,-141.9 227.62,-144.64"/>
<text text-anchor="middle" x="253" y="-166" font-family="Times,serif" font-size="10.00" fill="red">1.4.3</text>
<text text-anchor="middle" x="253" y="-155" font-family="Times,serif" font-size="10.00" fill="red">(latest: 1.4.4)</text>
</g>
<!-- roo_transceivers&#45;&gt;roo_prefs -->
<g id="edge34" class="edge">
<title>roo_transceivers&#45;&gt;roo_prefs</title>
<path fill="none" stroke="red" d="M312.98,-671.93C316.32,-659.76 322.01,-643.83 331,-632 334.11,-627.9 337.82,-624.06 341.78,-620.52"/>
<polygon fill="red" stroke="red" points="344.09,-623.16 349.61,-614.12 339.65,-617.74 344.09,-623.16"/>
<text text-anchor="middle" x="364" y="-646" font-family="Times,serif" font-size="10.00" fill="red">1.2.10</text>
<text text-anchor="middle" x="364" y="-635" font-family="Times,serif" font-size="10.00" fill="red">(latest: 1.3.0)</text>
</g>
<!-- roo_transport -->
<g id="node27" class="node">
<title>roo_transport</title>
<polygon fill="khaki" stroke="red" points="984,-518 870,-518 870,-480 984,-480 984,-518"/>
<text text-anchor="middle" x="927" y="-502.8" font-family="Times,serif" font-size="14.00">roo_transport</text>
<text text-anchor="middle" x="927" y="-487.8" font-family="Times,serif" font-size="14.00">1.1.3</text>
</g>
<!-- roo_transport&#45;&gt;roo_collections -->
<g id="edge35" class="edge">
<title>roo_transport&#45;&gt;roo_collections</title>
<path fill="none" stroke="black" d="M925.2,-479.81C923.41,-467.89 919.89,-452.29 913,-440 911.01,-436.46 908.58,-433.03 905.93,-429.78"/>
<polygon fill="black" stroke="black" points="908.31,-427.2 899,-422.15 903.12,-431.9 908.31,-427.2"/>
</g>
<!-- roo_transport&#45;&gt;roo_io -->
<g id="edge36" class="edge">
<title>roo_transport&#45;&gt;roo_io</title>
<path fill="none" stroke="red" d="M884.01,-479.91C853.64,-467.58 811.78,-451.46 774,-440 735.05,-428.18 689.61,-418.1 657.86,-411.64"/>
<polygon fill="red" stroke="red" points="658.13,-408.13 647.64,-409.59 656.76,-414.99 658.13,-408.13"/>
<text text-anchor="middle" x="871" y="-454" font-family="Times,serif" font-size="10.00" fill="red">2.2.3</text>
<text text-anchor="middle" x="871" y="-443" font-family="Times,serif" font-size="10.00" fill="red">(latest: 2.2.4)</text>
</g>
<!-- roo_wifi -->
<g id="node28" class="node">
<title>roo_wifi</title>
<polygon fill="khaki" stroke="red" points="467,-710 395,-710 395,-672 467,-672 467,-710"/>
<text text-anchor="middle" x="431" y="-694.8" font-family="Times,serif" font-size="14.00">roo_wifi</text>
<text text-anchor="middle" x="431" y="-679.8" font-family="Times,serif" font-size="14.00">1.1.4</text>
</g>
<!-- roo_wifi&#45;&gt;roo_prefs -->
<g id="edge37" class="edge">
<title>roo_wifi&#45;&gt;roo_prefs</title>
<path fill="none" stroke="red" d="M421.17,-671.88C413.69,-658.09 403.27,-638.9 394.79,-623.26"/>
<polygon fill="red" stroke="red" points="397.65,-621.19 389.8,-614.07 391.5,-624.53 397.65,-621.19"/>
<text text-anchor="middle" x="444" y="-646" font-family="Times,serif" font-size="10.00" fill="red">1.2.9</text>
<text text-anchor="middle" x="444" y="-635" font-family="Times,serif" font-size="10.00" fill="red">(latest: 1.3.0)</text>
</g>
<!-- roo_windows&#45;&gt;roo_fonts_basic -->
<g id="edge38" class="edge">
<title>roo_windows&#45;&gt;roo_fonts_basic</title>
<path fill="none" stroke="black" d="M685.78,-671.88C677.94,-657.96 666.98,-638.53 658.12,-622.82"/>
<polygon fill="black" stroke="black" points="661.15,-621.06 653.19,-614.07 655.05,-624.5 661.15,-621.06"/>
</g>
<!-- roo_windows&#45;&gt;roo_fonts_material -->
<g id="edge39" class="edge">
<title>roo_windows&#45;&gt;roo_fonts_material</title>
<path fill="none" stroke="black" d="M715.86,-671.88C731.68,-657.44 753.99,-637.07 771.52,-621.07"/>
<polygon fill="black" stroke="black" points="774.17,-623.39 779.2,-614.07 769.46,-618.22 774.17,-623.39"/>
</g>
<!-- roo_windows&#45;&gt;roo_icons -->
<g id="edge41" class="edge">
<title>roo_windows&#45;&gt;roo_icons</title>
<path fill="none" stroke="black" d="M741.42,-671.99C781.57,-656.06 840.09,-632.85 881.87,-616.28"/>
<polygon fill="black" stroke="black" points="883.31,-619.47 891.31,-612.53 880.73,-612.97 883.31,-619.47"/>
</g>
<!-- roo_windows&#45;&gt;roo_locale -->
<g id="edge40" class="edge">
<title>roo_windows&#45;&gt;roo_locale</title>
<path fill="none" stroke="black" d="M750.74,-683.26C832.19,-672.62 990.09,-649.66 1132.14,-614.02"/>
<polygon fill="black" stroke="black" points="1133.08,-617.4 1141.91,-611.55 1131.35,-610.61 1133.08,-617.4"/>
</g>
<!-- roo_windows&#45;&gt;roo_scheduler -->
<g id="edge42" class="edge">
<title>roo_windows&#45;&gt;roo_scheduler</title>
<path fill="none" stroke="black" d="M641.22,-678.97C594.2,-667.76 526,-647.24 474,-614 454.49,-601.53 413.2,-555.79 387.41,-526.18"/>
<polygon fill="black" stroke="black" points="389.77,-523.56 380.58,-518.29 384.48,-528.14 389.77,-523.56"/>
</g>
<!-- roo_windows_transceivers -->
<g id="node30" class="node">
<title>roo_windows_transceivers</title>
<polygon fill="plum" stroke="red" points="484,-806 280,-806 280,-768 484,-768 484,-806"/>
<text text-anchor="middle" x="382" y="-790.8" font-family="Times,serif" font-size="14.00">roo_windows_transceivers</text>
<text text-anchor="middle" x="382" y="-775.8" font-family="Times,serif" font-size="14.00">1.0.0</text>
</g>
<!-- roo_windows_transceivers&#45;&gt;roo_transceivers -->
<g id="edge43" class="edge">
<title>roo_windows_transceivers&#45;&gt;roo_transceivers</title>
<path fill="none" stroke="black" d="M367.92,-767.88C357.02,-753.83 341.75,-734.17 329.49,-718.38"/>
<polygon fill="black" stroke="black" points="331.93,-715.82 323.03,-710.07 326.4,-720.11 331.93,-715.82"/>
</g>
<!-- roo_windows_transceivers&#45;&gt;roo_windows -->
<g id="edge44" class="edge">
<title>roo_windows_transceivers&#45;&gt;roo_windows</title>
<path fill="none" stroke="red" d="M461.24,-767.91C477.7,-762.99 494.69,-757.04 510,-750 526.01,-742.63 526.83,-735.02 543,-728 570.87,-715.9 603.43,-707.52 631.34,-701.91"/>
<polygon fill="red" stroke="red" points="632.24,-705.3 641.39,-699.96 630.91,-698.43 632.24,-705.3"/>
<text text-anchor="middle" x="576" y="-742" font-family="Times,serif" font-size="10.00" fill="red">1.4.2</text>
<text text-anchor="middle" x="576" y="-731" font-family="Times,serif" font-size="10.00" fill="red">(latest: 1.6.0)</text>
</g>
<!-- roo_windows_wifi -->
<g id="node31" class="node">
<title>roo_windows_wifi</title>
<polygon fill="khaki" stroke="red" points="643.5,-806 502.5,-806 502.5,-768 643.5,-768 643.5,-806"/>
<text text-anchor="middle" x="573" y="-790.8" font-family="Times,serif" font-size="14.00">roo_windows_wifi</text>
<text text-anchor="middle" x="573" y="-775.8" font-family="Times,serif" font-size="14.00">1.1.3</text>
</g>
<!-- roo_windows_wifi&#45;&gt;roo_wifi -->
<g id="edge45" class="edge">
<title>roo_windows_wifi&#45;&gt;roo_wifi</title>
<path fill="none" stroke="red" d="M502.4,-769.34C475.22,-762.33 449.54,-754.72 445,-750 437.4,-742.11 433.69,-730.84 431.95,-720.33"/>
<polygon fill="red" stroke="red" points="435.41,-719.77 430.8,-710.23 428.46,-720.56 435.41,-719.77"/>
<text text-anchor="middle" x="478" y="-742" font-family="Times,serif" font-size="10.00" fill="red">1.1.3</text>
<text text-anchor="middle" x="478" y="-731" font-family="Times,serif" font-size="10.00" fill="red">(latest: 1.1.4)</text>
</g>
<!-- roo_windows_wifi&#45;&gt;roo_windows -->
<g id="edge46" class="edge">
<title>roo_windows_wifi&#45;&gt;roo_windows</title>
<path fill="none" stroke="red" d="M591.6,-767.83C604.21,-755.92 621.53,-740.32 638,-728 643.61,-723.8 649.73,-719.63 655.81,-715.68"/>
<polygon fill="red" stroke="red" points="658.06,-718.4 664.64,-710.09 654.32,-712.48 658.06,-718.4"/>
<text text-anchor="middle" x="671" y="-742" font-family="Times,serif" font-size="10.00" fill="red">1.4.2</text>
<text text-anchor="middle" x="671" y="-731" font-family="Times,serif" font-size="10.00" fill="red">(latest: 1.6.0)</text>
</g>
</g>
</svg>
