<?xml version="1.0" encoding="UTF-8" standalone="no"?>
<!DOCTYPE svg PUBLIC "-//W3C//DTD SVG 1.1//EN"
 "http://www.w3.org/Graphics/SVG/1.1/DTD/svg11.dtd">
<!-- Generated by graphviz version 2.42.4 (0)
 -->
<!-- Title: dependencies Pages: 1 -->
<svg width="999pt" height="746pt"
 viewBox="0.00 0.00 998.99 746.00" xmlns="http://www.w3.org/2000/svg" xmlns:xlink="http://www.w3.org/1999/xlink">
<g id="graph0" class="graph" transform="scale(1 1) rotate(0) translate(4 742)">
<title>dependencies</title>
<polygon fill="white" stroke="transparent" points="-4,4 -4,-742 994.99,-742 994.99,4 -4,4"/>
<!-- roo_backport -->
<g id="node1" class="node">
<title>roo_backport</title>
<polygon fill="#b1dbab" stroke="black" points="611.99,-188 501.99,-188 501.99,-150 611.99,-150 611.99,-188"/>
<text text-anchor="middle" x="556.99" y="-172.8" font-family="Times,serif" font-size="14.00">roo_backport</text>
<text text-anchor="middle" x="556.99" y="-157.8" font-family="Times,serif" font-size="14.00">1.2.1</text>
</g>
<!-- roo_blink -->
<g id="node2" class="node">
<title>roo_blink</title>
<polygon fill="#b1dbab" stroke="black" points="279.99,-434 197.99,-434 197.99,-396 279.99,-396 279.99,-434"/>
<text text-anchor="middle" x="238.99" y="-418.8" font-family="Times,serif" font-size="14.00">roo_blink</text>
<text text-anchor="middle" x="238.99" y="-403.8" font-family="Times,serif" font-size="14.00">1.0.5</text>
</g>
<!-- roo_logging -->
<g id="node12" class="node">
<title>roo_logging</title>
<polygon fill="khaki" stroke="black" points="449.99,-263 349.99,-263 349.99,-225 449.99,-225 449.99,-263"/>
<text text-anchor="middle" x="399.99" y="-247.8" font-family="Times,serif" font-size="14.00">roo_logging</text>
<text text-anchor="middle" x="399.99" y="-232.8" font-family="Times,serif" font-size="14.00">1.5.3</text>
</g>
<!-- roo_blink&#45;&gt;roo_logging -->
<g id="edge1" class="edge">
<title>roo_blink&#45;&gt;roo_logging</title>
<path fill="none" stroke="black" d="M241.48,-395.98C245.72,-371.44 256.53,-327.45 281.99,-300 297.72,-283.04 319.72,-270.85 340.48,-262.33"/>
<polygon fill="black" stroke="black" points="341.85,-265.55 349.9,-258.67 339.31,-259.03 341.85,-265.55"/>
</g>
<!-- roo_scheduler -->
<g id="node17" class="node">
<title>roo_scheduler</title>
<polygon fill="#b1dbab" stroke="black" points="406.99,-338 290.99,-338 290.99,-300 406.99,-300 406.99,-338"/>
<text text-anchor="middle" x="348.99" y="-322.8" font-family="Times,serif" font-size="14.00">roo_scheduler</text>
<text text-anchor="middle" x="348.99" y="-307.8" font-family="Times,serif" font-size="14.00">2.1.7</text>
</g>
<!-- roo_blink&#45;&gt;roo_scheduler -->
<g id="edge2" class="edge">
<title>roo_blink&#45;&gt;roo_scheduler</title>
<path fill="none" stroke="black" d="M279.47,-395.95C288.7,-390.86 298.1,-384.82 305.99,-378 316.29,-369.1 325.59,-357.31 332.88,-346.69"/>
<polygon fill="black" stroke="black" points="335.94,-348.41 338.51,-338.13 330.09,-344.56 335.94,-348.41"/>
</g>
<!-- roo_collections -->
<g id="node3" class="node">
<title>roo_collections</title>
<polygon fill="#b1dbab" stroke="black" points="701.99,-263 579.99,-263 579.99,-225 701.99,-225 701.99,-263"/>
<text text-anchor="middle" x="640.99" y="-247.8" font-family="Times,serif" font-size="14.00">roo_collections</text>
<text text-anchor="middle" x="640.99" y="-232.8" font-family="Times,serif" font-size="14.00">1.4.1</text>
</g>
<!-- roo_collections&#45;&gt;roo_backport -->
<g id="edge3" class="edge">
<title>roo_collections&#45;&gt;roo_backport</title>
<path fill="none" stroke="black" d="M620.23,-224.96C609.73,-215.83 596.82,-204.62 585.42,-194.7"/>
<polygon fill="black" stroke="black" points="587.65,-192.01 577.81,-188.09 583.06,-197.29 587.65,-192.01"/>
</g>
<!-- roo_comms -->
<g id="node4" class="node">
<title>roo_comms</title>
<polygon fill="plum" stroke="red" points="352.49,-642 255.49,-642 255.49,-604 352.49,-604 352.49,-642"/>
<text text-anchor="middle" x="303.99" y="-626.8" font-family="Times,serif" font-size="14.00">roo_comms</text>
<text text-anchor="middle" x="303.99" y="-611.8" font-family="Times,serif" font-size="14.00">1.1.3</text>
</g>
<!-- roo_comms&#45;&gt;roo_blink -->
<g id="edge4" class="edge">
<title>roo_comms&#45;&gt;roo_blink</title>
<path fill="none" stroke="red" d="M291.52,-603.88C279.84,-585.96 262.87,-557.32 253.99,-530 244.83,-501.81 241.25,-467.97 239.86,-444.52"/>
<polygon fill="red" stroke="red" points="243.34,-444.04 239.35,-434.22 236.35,-444.38 243.34,-444.04"/>
<text text-anchor="middle" x="286.99" y="-514" font-family="Times,serif" font-size="10.00" fill="red">1.0.4</text>
<text text-anchor="middle" x="286.99" y="-503" font-family="Times,serif" font-size="10.00" fill="red">(latest: 1.0.5)</text>
</g>
<!-- roo_control -->
<g id="node5" class="node">
<title>roo_control</title>
<polygon fill="#b1dbab" stroke="black" points="395.49,-434 298.49,-434 298.49,-396 395.49,-396 395.49,-434"/>
<text text-anchor="middle" x="346.99" y="-418.8" font-family="Times,serif" font-size="14.00">roo_control</text>
<text text-anchor="middle" x="346.99" y="-403.8" font-family="Times,serif" font-size="14.00">1.2.4</text>
</g>
<!-- roo_comms&#45;&gt;roo_control -->
<g id="edge5" class="edge">
<title>roo_comms&#45;&gt;roo_control</title>
<path fill="none" stroke="red" d="M307.81,-603.72C315.33,-567.68 332.12,-487.25 341.08,-444.3"/>
<polygon fill="red" stroke="red" points="344.57,-444.74 343.18,-434.24 337.71,-443.31 344.57,-444.74"/>
<text text-anchor="middle" x="363.99" y="-514" font-family="Times,serif" font-size="10.00" fill="red">1.2.3</text>
<text text-anchor="middle" x="363.99" y="-503" font-family="Times,serif" font-size="10.00" fill="red">(latest: 1.2.4)</text>
</g>
<!-- roo_io -->
<g id="node10" class="node">
<title>roo_io</title>
<polygon fill="khaki" stroke="black" points="612.49,-338 553.49,-338 553.49,-300 612.49,-300 612.49,-338"/>
<text text-anchor="middle" x="582.99" y="-322.8" font-family="Times,serif" font-size="14.00">roo_io</text>
<text text-anchor="middle" x="582.99" y="-307.8" font-family="Times,serif" font-size="14.00">2.1.4</text>
</g>
<!-- roo_comms&#45;&gt;roo_io -->
<g id="edge6" class="edge">
<title>roo_comms&#45;&gt;roo_io</title>
<path fill="none" stroke="red" d="M323.46,-603.82C343.15,-585.37 374.39,-555.91 400.99,-530 436.11,-495.79 437.77,-478.54 478.99,-452 498.15,-439.67 510.11,-449.3 526.99,-434 552.4,-410.96 567.61,-373.82 575.63,-348.23"/>
<polygon fill="red" stroke="red" points="579.06,-348.96 578.54,-338.38 572.35,-346.98 579.06,-348.96"/>
<text text-anchor="middle" x="511.99" y="-466" font-family="Times,serif" font-size="10.00" fill="red">2.1.1</text>
<text text-anchor="middle" x="511.99" y="-455" font-family="Times,serif" font-size="10.00" fill="red">(latest: 2.1.4)</text>
</g>
<!-- roo_transceivers -->
<g id="node22" class="node">
<title>roo_transceivers</title>
<polygon fill="khaki" stroke="red" points="216.49,-530 81.49,-530 81.49,-492 216.49,-492 216.49,-530"/>
<text text-anchor="middle" x="148.99" y="-514.8" font-family="Times,serif" font-size="14.00">roo_transceivers</text>
<text text-anchor="middle" x="148.99" y="-499.8" font-family="Times,serif" font-size="14.00">1.1.4</text>
</g>
<!-- roo_comms&#45;&gt;roo_transceivers -->
<g id="edge7" class="edge">
<title>roo_comms&#45;&gt;roo_transceivers</title>
<path fill="none" stroke="black" d="M268.54,-603.9C258.75,-598.49 248.27,-592.31 238.99,-586 216.94,-571.01 193.74,-551.84 176.41,-536.77"/>
<polygon fill="black" stroke="black" points="178.71,-534.13 168.89,-530.16 174.09,-539.39 178.71,-534.13"/>
</g>
<!-- roo_quantity -->
<g id="node16" class="node">
<title>roo_quantity</title>
<polygon fill="#b1dbab" stroke="black" points="532.49,-338 425.49,-338 425.49,-300 532.49,-300 532.49,-338"/>
<text text-anchor="middle" x="478.99" y="-322.8" font-family="Times,serif" font-size="14.00">roo_quantity</text>
<text text-anchor="middle" x="478.99" y="-307.8" font-family="Times,serif" font-size="14.00">1.1.7</text>
</g>
<!-- roo_control&#45;&gt;roo_quantity -->
<g id="edge8" class="edge">
<title>roo_control&#45;&gt;roo_quantity</title>
<path fill="none" stroke="black" d="M372.44,-395.88C393.17,-381.12 422.61,-360.15 445.29,-344"/>
<polygon fill="black" stroke="black" points="447.5,-346.72 453.62,-338.07 443.44,-341.02 447.5,-346.72"/>
</g>
<!-- roo_control&#45;&gt;roo_scheduler -->
<g id="edge9" class="edge">
<title>roo_control&#45;&gt;roo_scheduler</title>
<path fill="none" stroke="black" d="M347.38,-395.88C347.66,-382.35 348.06,-363.62 348.39,-348.15"/>
<polygon fill="black" stroke="black" points="351.89,-348.14 348.61,-338.07 344.89,-347.99 351.89,-348.14"/>
</g>
<!-- roo_dashboard -->
<g id="node6" class="node">
<title>roo_dashboard</title>
<polygon fill="khaki" stroke="red" points="630.99,-738 508.99,-738 508.99,-700 630.99,-700 630.99,-738"/>
<text text-anchor="middle" x="569.99" y="-722.8" font-family="Times,serif" font-size="14.00">roo_dashboard</text>
<text text-anchor="middle" x="569.99" y="-707.8" font-family="Times,serif" font-size="14.00">1.0.1</text>
</g>
<!-- roo_windows -->
<g id="node25" class="node">
<title>roo_windows</title>
<polygon fill="plum" stroke="red" points="624.49,-642 515.49,-642 515.49,-604 624.49,-604 624.49,-642"/>
<text text-anchor="middle" x="569.99" y="-626.8" font-family="Times,serif" font-size="14.00">roo_windows</text>
<text text-anchor="middle" x="569.99" y="-611.8" font-family="Times,serif" font-size="14.00">1.4.2</text>
</g>
<!-- roo_dashboard&#45;&gt;roo_windows -->
<g id="edge10" class="edge">
<title>roo_dashboard&#45;&gt;roo_windows</title>
<path fill="none" stroke="red" d="M569.99,-699.88C569.99,-686.35 569.99,-667.62 569.99,-652.15"/>
<polygon fill="red" stroke="red" points="573.49,-652.07 569.99,-642.07 566.49,-652.07 573.49,-652.07"/>
<text text-anchor="middle" x="602.99" y="-674" font-family="Times,serif" font-size="10.00" fill="red">1.4.1</text>
<text text-anchor="middle" x="602.99" y="-663" font-family="Times,serif" font-size="10.00" fill="red">(latest: 1.4.2)</text>
</g>
<!-- roo_display -->
<g id="node7" class="node">
<title>roo_display</title>
<polygon fill="plum" stroke="red" points="853.99,-434 755.99,-434 755.99,-396 853.99,-396 853.99,-434"/>
<text text-anchor="middle" x="804.99" y="-418.8" font-family="Times,serif" font-size="14.00">roo_display</text>
<text text-anchor="middle" x="804.99" y="-403.8" font-family="Times,serif" font-size="14.00">2.3.2</text>
</g>
<!-- roo_display&#45;&gt;roo_collections -->
<g id="edge11" class="edge">
<title>roo_display&#45;&gt;roo_collections</title>
<path fill="none" stroke="red" d="M821.4,-395.99C829.99,-384.27 837.34,-368.85 829.99,-356 804.68,-311.79 754.16,-283.46 711.71,-266.5"/>
<polygon fill="red" stroke="red" points="712.82,-263.17 702.23,-262.84 710.3,-269.7 712.82,-263.17"/>
<text text-anchor="middle" x="849.99" y="-322" font-family="Times,serif" font-size="10.00" fill="red">1.4.0</text>
<text text-anchor="middle" x="849.99" y="-311" font-family="Times,serif" font-size="10.00" fill="red">(latest: 1.4.1)</text>
</g>
<!-- roo_display&#45;&gt;roo_io -->
<g id="edge12" class="edge">
<title>roo_display&#45;&gt;roo_io</title>
<path fill="none" stroke="red" d="M755.69,-398.49C752.75,-397.63 749.83,-396.8 746.99,-396 715.23,-387.11 705.32,-390.96 674.99,-378 654.14,-369.09 632.61,-355.78 615.63,-344.16"/>
<polygon fill="red" stroke="red" points="617.39,-341.12 607.19,-338.27 613.38,-346.86 617.39,-341.12"/>
<text text-anchor="middle" x="707.99" y="-370" font-family="Times,serif" font-size="10.00" fill="red">2.1.2</text>
<text text-anchor="middle" x="707.99" y="-359" font-family="Times,serif" font-size="10.00" fill="red">(latest: 2.1.4)</text>
</g>
<!-- roo_flags -->
<g id="node8" class="node">
<title>roo_flags</title>
<polygon fill="#b1dbab" stroke="black" points="439.99,-188 359.99,-188 359.99,-150 439.99,-150 439.99,-188"/>
<text text-anchor="middle" x="399.99" y="-172.8" font-family="Times,serif" font-size="14.00">roo_flags</text>
<text text-anchor="middle" x="399.99" y="-157.8" font-family="Times,serif" font-size="14.00">1.2.1</text>
</g>
<!-- roo_icons -->
<g id="node9" class="node">
<title>roo_icons</title>
<polygon fill="plum" stroke="red" points="657.49,-530 574.49,-530 574.49,-492 657.49,-492 657.49,-530"/>
<text text-anchor="middle" x="615.99" y="-514.8" font-family="Times,serif" font-size="14.00">roo_icons</text>
<text text-anchor="middle" x="615.99" y="-499.8" font-family="Times,serif" font-size="14.00">1.2.1</text>
</g>
<!-- roo_icons&#45;&gt;roo_display -->
<g id="edge13" class="edge">
<title>roo_icons&#45;&gt;roo_display</title>
<path fill="none" stroke="red" d="M652.43,-491.88C682.89,-476.73 726.49,-455.04 759.29,-438.73"/>
<polygon fill="red" stroke="red" points="761.27,-441.66 768.66,-434.07 758.15,-435.39 761.27,-441.66"/>
<text text-anchor="middle" x="759.99" y="-466" font-family="Times,serif" font-size="10.00" fill="red">2.3.1</text>
<text text-anchor="middle" x="759.99" y="-455" font-family="Times,serif" font-size="10.00" fill="red">(latest: 2.3.2)</text>
</g>
<!-- roo_io&#45;&gt;roo_logging -->
<g id="edge14" class="edge">
<title>roo_io&#45;&gt;roo_logging</title>
<path fill="none" stroke="black" d="M553.21,-305.1C549.12,-303.36 544.96,-301.62 540.99,-300 513.5,-288.75 482.79,-276.71 457.06,-266.77"/>
<polygon fill="black" stroke="black" points="458.06,-263.4 447.47,-263.07 455.54,-269.93 458.06,-263.4"/>
</g>
<!-- roo_locale -->
<g id="node11" class="node">
<title>roo_locale</title>
<polygon fill="#b1dbab" stroke="black" points="763.99,-530 675.99,-530 675.99,-492 763.99,-492 763.99,-530"/>
<text text-anchor="middle" x="719.99" y="-514.8" font-family="Times,serif" font-size="14.00">roo_locale</text>
<text text-anchor="middle" x="719.99" y="-499.8" font-family="Times,serif" font-size="14.00">1.1.1</text>
</g>
<!-- roo_logging&#45;&gt;roo_backport -->
<g id="edge15" class="edge">
<title>roo_logging&#45;&gt;roo_backport</title>
<path fill="none" stroke="black" d="M438.8,-224.96C459.93,-215.13 486.28,-202.88 508.73,-192.44"/>
<polygon fill="black" stroke="black" points="510.49,-195.48 518.08,-188.09 507.54,-189.13 510.49,-195.48"/>
</g>
<!-- roo_logging&#45;&gt;roo_flags -->
<g id="edge16" class="edge">
<title>roo_logging&#45;&gt;roo_flags</title>
<path fill="none" stroke="black" d="M399.99,-224.96C399.99,-216.88 399.99,-207.18 399.99,-198.18"/>
<polygon fill="black" stroke="black" points="403.49,-198.09 399.99,-188.09 396.49,-198.09 403.49,-198.09"/>
</g>
<!-- roo_threads -->
<g id="node19" class="node">
<title>roo_threads</title>
<polygon fill="#b1dbab" stroke="black" points="327.49,-188 226.49,-188 226.49,-150 327.49,-150 327.49,-188"/>
<text text-anchor="middle" x="276.99" y="-172.8" font-family="Times,serif" font-size="14.00">roo_threads</text>
<text text-anchor="middle" x="276.99" y="-157.8" font-family="Times,serif" font-size="14.00">1.2.1</text>
</g>
<!-- roo_logging&#45;&gt;roo_threads -->
<g id="edge17" class="edge">
<title>roo_logging&#45;&gt;roo_threads</title>
<path fill="none" stroke="black" d="M369.59,-224.96C353.47,-215.39 333.49,-203.53 316.22,-193.28"/>
<polygon fill="black" stroke="black" points="317.86,-190.18 307.47,-188.09 314.29,-196.2 317.86,-190.18"/>
</g>
<!-- roo_monitoring -->
<g id="node13" class="node">
<title>roo_monitoring</title>
<polygon fill="plum" stroke="black" points="737.49,-434 612.49,-434 612.49,-396 737.49,-396 737.49,-434"/>
<text text-anchor="middle" x="674.99" y="-418.8" font-family="Times,serif" font-size="14.00">roo_monitoring</text>
<text text-anchor="middle" x="674.99" y="-403.8" font-family="Times,serif" font-size="14.00">1.0.0</text>
</g>
<!-- roo_monitoring&#45;&gt;roo_collections -->
<g id="edge18" class="edge">
<title>roo_monitoring&#45;&gt;roo_collections</title>
<path fill="none" stroke="black" d="M663.11,-395.96C659.98,-390.41 656.93,-384.14 654.99,-378 643.94,-343.01 641.2,-300.54 640.72,-273.16"/>
<polygon fill="black" stroke="black" points="644.22,-273.07 640.63,-263.1 637.22,-273.13 644.22,-273.07"/>
</g>
<!-- roo_monitoring&#45;&gt;roo_io -->
<g id="edge19" class="edge">
<title>roo_monitoring&#45;&gt;roo_io</title>
<path fill="none" stroke="black" d="M648.01,-395.82C640.84,-390.45 633.34,-384.32 626.99,-378 617.4,-368.46 608.14,-356.76 600.6,-346.37"/>
<polygon fill="black" stroke="black" points="603.34,-344.18 594.72,-338.03 597.62,-348.22 603.34,-344.18"/>
</g>
<!-- roo_onewire -->
<g id="node14" class="node">
<title>roo_onewire</title>
<polygon fill="#b1dbab" stroke="black" points="517.99,-434 413.99,-434 413.99,-396 517.99,-396 517.99,-434"/>
<text text-anchor="middle" x="465.99" y="-418.8" font-family="Times,serif" font-size="14.00">roo_onewire</text>
<text text-anchor="middle" x="465.99" y="-403.8" font-family="Times,serif" font-size="14.00">2.0.8</text>
</g>
<!-- roo_onewire&#45;&gt;roo_quantity -->
<g id="edge21" class="edge">
<title>roo_onewire&#45;&gt;roo_quantity</title>
<path fill="none" stroke="black" d="M468.5,-395.88C470.37,-382.35 472.96,-363.62 475.1,-348.15"/>
<polygon fill="black" stroke="black" points="478.59,-348.45 476.49,-338.07 471.66,-347.49 478.59,-348.45"/>
</g>
<!-- roo_onewire&#45;&gt;roo_scheduler -->
<g id="edge20" class="edge">
<title>roo_onewire&#45;&gt;roo_scheduler</title>
<path fill="none" stroke="black" d="M443.43,-395.88C425.22,-381.25 399.43,-360.52 379.4,-344.43"/>
<polygon fill="black" stroke="black" points="381.47,-341.6 371.48,-338.07 377.08,-347.06 381.47,-341.6"/>
</g>
<!-- roo_prefs -->
<g id="node15" class="node">
<title>roo_prefs</title>
<polygon fill="#b1dbab" stroke="black" points="179.49,-434 96.49,-434 96.49,-396 179.49,-396 179.49,-434"/>
<text text-anchor="middle" x="137.99" y="-418.8" font-family="Times,serif" font-size="14.00">roo_prefs</text>
<text text-anchor="middle" x="137.99" y="-403.8" font-family="Times,serif" font-size="14.00">1.2.8</text>
</g>
<!-- roo_prefs&#45;&gt;roo_logging -->
<g id="edge22" class="edge">
<title>roo_prefs&#45;&gt;roo_logging</title>
<path fill="none" stroke="black" d="M152.91,-395.6C173.63,-371.03 213.3,-327.44 254.99,-300 273.47,-287.84 280.37,-289 300.99,-281 313.63,-276.1 327.24,-271.01 340.21,-266.27"/>
<polygon fill="black" stroke="black" points="341.78,-269.42 349.98,-262.71 339.38,-262.85 341.78,-269.42"/>
</g>
<!-- roo_prefs&#45;&gt;roo_scheduler -->
<g id="edge23" class="edge">
<title>roo_prefs&#45;&gt;roo_scheduler</title>
<path fill="none" stroke="black" d="M178.67,-395.88C212.97,-380.6 262.19,-358.67 298.91,-342.31"/>
<polygon fill="black" stroke="black" points="300.72,-345.34 308.43,-338.07 297.87,-338.94 300.72,-345.34"/>
</g>
<!-- roo_quantity&#45;&gt;roo_logging -->
<g id="edge24" class="edge">
<title>roo_quantity&#45;&gt;roo_logging</title>
<path fill="none" stroke="black" d="M459.46,-299.96C449.68,-290.92 437.69,-279.83 427.03,-269.99"/>
<polygon fill="black" stroke="black" points="429.29,-267.31 419.57,-263.09 424.54,-272.45 429.29,-267.31"/>
</g>
<!-- roo_scheduler&#45;&gt;roo_collections -->
<g id="edge25" class="edge">
<title>roo_scheduler&#45;&gt;roo_collections</title>
<path fill="none" stroke="black" d="M407.07,-302.31C410.09,-301.52 413.07,-300.75 415.99,-300 467.41,-286.81 525.63,-272.6 569.97,-261.92"/>
<polygon fill="black" stroke="black" points="570.87,-265.31 579.78,-259.57 569.24,-258.5 570.87,-265.31"/>
</g>
<!-- roo_scheduler&#45;&gt;roo_threads -->
<g id="edge26" class="edge">
<title>roo_scheduler&#45;&gt;roo_threads</title>
<path fill="none" stroke="black" d="M340.16,-299.85C327.69,-274.22 304.83,-227.22 290.29,-197.34"/>
<polygon fill="black" stroke="black" points="293.41,-195.76 285.89,-188.3 287.12,-198.82 293.41,-195.76"/>
</g>
<!-- roo_testing -->
<g id="node18" class="node">
<title>roo_testing</title>
<polygon fill="khaki" stroke="black" points="199.49,-38 102.49,-38 102.49,0 199.49,0 199.49,-38"/>
<text text-anchor="middle" x="150.99" y="-22.8" font-family="Times,serif" font-size="14.00">roo_testing</text>
<text text-anchor="middle" x="150.99" y="-7.8" font-family="Times,serif" font-size="14.00">1.2.1</text>
</g>
<!-- roo_time -->
<g id="node20" class="node">
<title>roo_time</title>
<polygon fill="#b1dbab" stroke="black" points="190.49,-113 111.49,-113 111.49,-75 190.49,-75 190.49,-113"/>
<text text-anchor="middle" x="150.99" y="-97.8" font-family="Times,serif" font-size="14.00">roo_time</text>
<text text-anchor="middle" x="150.99" y="-82.8" font-family="Times,serif" font-size="14.00">1.4.1</text>
</g>
<!-- roo_threads&#45;&gt;roo_time -->
<g id="edge27" class="edge">
<title>roo_threads&#45;&gt;roo_time</title>
<path fill="none" stroke="black" d="M245.84,-149.96C229.34,-140.39 208.87,-128.53 191.18,-118.28"/>
<polygon fill="black" stroke="black" points="192.62,-115.08 182.22,-113.09 189.11,-121.13 192.62,-115.08"/>
</g>
<!-- roo_time&#45;&gt;roo_testing -->
<g id="edge28" class="edge">
<title>roo_time&#45;&gt;roo_testing</title>
<path fill="none" stroke="black" d="M150.99,-74.96C150.99,-66.88 150.99,-57.18 150.99,-48.18"/>
<polygon fill="black" stroke="black" points="154.49,-48.09 150.99,-38.09 147.49,-48.09 154.49,-48.09"/>
</g>
<!-- roo_time_ds3231 -->
<g id="node21" class="node">
<title>roo_time_ds3231</title>
<polygon fill="#b1dbab" stroke="black" points="207.99,-188 69.99,-188 69.99,-150 207.99,-150 207.99,-188"/>
<text text-anchor="middle" x="138.99" y="-172.8" font-family="Times,serif" font-size="14.00">roo_time_ds3231</text>
<text text-anchor="middle" x="138.99" y="-157.8" font-family="Times,serif" font-size="14.00">1.1.5</text>
</g>
<!-- roo_time_ds3231&#45;&gt;roo_time -->
<g id="edge29" class="edge">
<title>roo_time_ds3231&#45;&gt;roo_time</title>
<path fill="none" stroke="black" d="M141.96,-149.96C143.28,-141.88 144.88,-132.18 146.36,-123.18"/>
<polygon fill="black" stroke="black" points="149.85,-123.53 148.02,-113.09 142.94,-122.39 149.85,-123.53"/>
</g>
<!-- roo_transceivers&#45;&gt;roo_prefs -->
<g id="edge30" class="edge">
<title>roo_transceivers&#45;&gt;roo_prefs</title>
<path fill="none" stroke="red" d="M146.87,-491.88C145.29,-478.35 143.1,-459.62 141.29,-444.15"/>
<polygon fill="red" stroke="red" points="144.74,-443.59 140.11,-434.07 137.79,-444.41 144.74,-443.59"/>
<text text-anchor="middle" x="177.99" y="-466" font-family="Times,serif" font-size="10.00" fill="red">1.2.7</text>
<text text-anchor="middle" x="177.99" y="-455" font-family="Times,serif" font-size="10.00" fill="red">(latest: 1.2.8)</text>
</g>
<!-- roo_transport -->
<g id="node23" class="node">
<title>roo_transport</title>
<polygon fill="plum" stroke="red" points="990.99,-434 876.99,-434 876.99,-396 990.99,-396 990.99,-434"/>
<text text-anchor="middle" x="933.99" y="-418.8" font-family="Times,serif" font-size="14.00">roo_transport</text>
<text text-anchor="middle" x="933.99" y="-403.8" font-family="Times,serif" font-size="14.00">1.1.1</text>
</g>
<!-- roo_transport&#45;&gt;roo_collections -->
<g id="edge31" class="edge">
<title>roo_transport&#45;&gt;roo_collections</title>
<path fill="none" stroke="black" d="M931.75,-395.96C927.6,-370.58 916.3,-324.68 886.99,-300 860.91,-278.04 775.43,-262.43 712.53,-253.59"/>
<polygon fill="black" stroke="black" points="712.64,-250.07 702.25,-252.17 711.68,-257 712.64,-250.07"/>
</g>
<!-- roo_transport&#45;&gt;roo_io -->
<g id="edge32" class="edge">
<title>roo_transport&#45;&gt;roo_io</title>
<path fill="none" stroke="red" d="M877.7,-395.98C839.35,-383.98 787.34,-368.23 740.99,-356 700.86,-345.41 654.51,-335.07 622.43,-328.21"/>
<polygon fill="red" stroke="red" points="623.06,-324.76 612.55,-326.11 621.6,-331.61 623.06,-324.76"/>
<text text-anchor="middle" x="847.99" y="-370" font-family="Times,serif" font-size="10.00" fill="red">2.1.3</text>
<text text-anchor="middle" x="847.99" y="-359" font-family="Times,serif" font-size="10.00" fill="red">(latest: 2.1.4)</text>
</g>
<!-- roo_wifi -->
<g id="node24" class="node">
<title>roo_wifi</title>
<polygon fill="plum" stroke="red" points="83.99,-586 11.99,-586 11.99,-548 83.99,-548 83.99,-586"/>
<text text-anchor="middle" x="47.99" y="-570.8" font-family="Times,serif" font-size="14.00">roo_wifi</text>
<text text-anchor="middle" x="47.99" y="-555.8" font-family="Times,serif" font-size="14.00">1.1.3</text>
</g>
<!-- roo_wifi&#45;&gt;roo_prefs -->
<g id="edge33" class="edge">
<title>roo_wifi&#45;&gt;roo_prefs</title>
<path fill="none" stroke="red" d="M19.85,-547.86C14.24,-542.81 9.12,-536.81 5.99,-530 -1.07,-514.66 -2.46,-506.62 5.99,-492 23.29,-462.07 57.34,-442.89 86.53,-431.29"/>
<polygon fill="red" stroke="red" points="88.08,-434.44 96.21,-427.64 85.61,-427.89 88.08,-434.44"/>
<text text-anchor="middle" x="38.99" y="-514" font-family="Times,serif" font-size="10.00" fill="red">1.2.7</text>
<text text-anchor="middle" x="38.99" y="-503" font-family="Times,serif" font-size="10.00" fill="red">(latest: 1.2.8)</text>
</g>
<!-- roo_windows&#45;&gt;roo_icons -->
<g id="edge35" class="edge">
<title>roo_windows&#45;&gt;roo_icons</title>
<path fill="none" stroke="black" d="M577.59,-603.84C584.91,-586.32 596.09,-559.58 604.51,-539.47"/>
<polygon fill="black" stroke="black" points="607.75,-540.77 608.38,-530.19 601.3,-538.07 607.75,-540.77"/>
</g>
<!-- roo_windows&#45;&gt;roo_locale -->
<g id="edge34" class="edge">
<title>roo_windows&#45;&gt;roo_locale</title>
<path fill="none" stroke="black" d="M594.76,-603.84C620.02,-585.31 659.36,-556.46 687.19,-536.05"/>
<polygon fill="black" stroke="black" points="689.44,-538.74 695.43,-530.01 685.3,-533.1 689.44,-538.74"/>
</g>
<!-- roo_windows&#45;&gt;roo_scheduler -->
<g id="edge36" class="edge">
<title>roo_windows&#45;&gt;roo_scheduler</title>
<path fill="none" stroke="red" d="M568.72,-603.87C565.03,-556.09 552.91,-428.2 526.99,-396 512.22,-377.65 460.23,-356.6 416.23,-341.32"/>
<polygon fill="red" stroke="red" points="417.28,-337.98 406.69,-338.05 415.01,-344.6 417.28,-337.98"/>
<text text-anchor="middle" x="585.99" y="-466" font-family="Times,serif" font-size="10.00" fill="red">2.1.6</text>
<text text-anchor="middle" x="585.99" y="-455" font-family="Times,serif" font-size="10.00" fill="red">(latest: 2.1.7)</text>
</g>
<!-- roo_windows_wifi -->
<g id="node26" class="node">
<title>roo_windows_wifi</title>
<polygon fill="khaki" stroke="red" points="263.49,-738 122.49,-738 122.49,-700 263.49,-700 263.49,-738"/>
<text text-anchor="middle" x="192.99" y="-722.8" font-family="Times,serif" font-size="14.00">roo_windows_wifi</text>
<text text-anchor="middle" x="192.99" y="-707.8" font-family="Times,serif" font-size="14.00">1.1.3</text>
</g>
<!-- roo_windows_wifi&#45;&gt;roo_wifi -->
<g id="edge37" class="edge">
<title>roo_windows_wifi&#45;&gt;roo_wifi</title>
<path fill="none" stroke="black" d="M175.5,-699.91C149.81,-673.33 101.76,-623.62 72.54,-593.4"/>
<polygon fill="black" stroke="black" points="75.01,-590.91 65.54,-586.16 69.98,-595.78 75.01,-590.91"/>
</g>
<!-- roo_windows_wifi&#45;&gt;roo_windows -->
<g id="edge38" class="edge">
<title>roo_windows_wifi&#45;&gt;roo_windows</title>
<path fill="none" stroke="black" d="M263.9,-700.32C333.29,-683.02 438.06,-656.89 505.25,-640.14"/>
<polygon fill="black" stroke="black" points="506.44,-643.45 515.29,-637.64 504.74,-636.66 506.44,-643.45"/>
</g>
</g>
</svg>
