<?xml version="1.0" encoding="UTF-8" standalone="no"?>
<!DOCTYPE svg PUBLIC "-//W3C//DTD SVG 1.1//EN"
 "http://www.w3.org/Graphics/SVG/1.1/DTD/svg11.dtd">
<!-- Generated by graphviz version 2.42.4 (0)
 -->
<!-- Title: dependencies Pages: 1 -->
<svg width="1075pt" height="793pt"
 viewBox="0.00 0.00 1074.50 793.00" xmlns="http://www.w3.org/2000/svg" xmlns:xlink="http://www.w3.org/1999/xlink">
<g id="graph0" class="graph" transform="scale(1 1) rotate(0) translate(4 789)">
<title>dependencies</title>
<polygon fill="white" stroke="transparent" points="-4,4 -4,-789 1070.5,-789 1070.5,4 -4,4"/>
<!-- roo_backport -->
<g id="node1" class="node">
<title>roo_backport</title>
<polygon fill="#b1dbab" stroke="black" points="556,-230 446,-230 446,-192 556,-192 556,-230"/>
<text text-anchor="middle" x="501" y="-214.8" font-family="Times,serif" font-size="14.00">roo_backport</text>
<text text-anchor="middle" x="501" y="-199.8" font-family="Times,serif" font-size="14.00">1.2.2</text>
</g>
<!-- roo_blink -->
<g id="node2" class="node">
<title>roo_blink</title>
<polygon fill="plum" stroke="red" points="951,-593 869,-593 869,-555 951,-555 951,-593"/>
<text text-anchor="middle" x="910" y="-577.8" font-family="Times,serif" font-size="14.00">roo_blink</text>
<text text-anchor="middle" x="910" y="-562.8" font-family="Times,serif" font-size="14.00">1.0.5</text>
</g>
<!-- roo_logging -->
<g id="node13" class="node">
<title>roo_logging</title>
<polygon fill="#b1dbab" stroke="red" points="808,-326 708,-326 708,-288 808,-288 808,-326"/>
<text text-anchor="middle" x="758" y="-310.8" font-family="Times,serif" font-size="14.00">roo_logging</text>
<text text-anchor="middle" x="758" y="-295.8" font-family="Times,serif" font-size="14.00">1.5.5</text>
</g>
<!-- roo_blink&#45;&gt;roo_logging -->
<g id="edge1" class="edge">
<title>roo_blink&#45;&gt;roo_logging</title>
<path fill="none" stroke="red" d="M940.57,-554.8C946.4,-549.81 951.71,-543.85 955,-537 959.24,-528.19 958.2,-524.24 955,-515 926.47,-432.51 844.11,-365.63 795.38,-331.87"/>
<polygon fill="red" stroke="red" points="797.22,-328.89 786.99,-326.15 793.28,-334.68 797.22,-328.89"/>
<text text-anchor="middle" x="946" y="-433" font-family="Times,serif" font-size="10.00" fill="red">1.5.3</text>
<text text-anchor="middle" x="946" y="-422" font-family="Times,serif" font-size="10.00" fill="red">(latest: 1.5.5)</text>
</g>
<!-- roo_scheduler -->
<g id="node19" class="node">
<title>roo_scheduler</title>
<polygon fill="#b1dbab" stroke="black" points="424,-497 308,-497 308,-459 424,-459 424,-497"/>
<text text-anchor="middle" x="366" y="-481.8" font-family="Times,serif" font-size="14.00">roo_scheduler</text>
<text text-anchor="middle" x="366" y="-466.8" font-family="Times,serif" font-size="14.00">2.1.9</text>
</g>
<!-- roo_blink&#45;&gt;roo_scheduler -->
<g id="edge2" class="edge">
<title>roo_blink&#45;&gt;roo_scheduler</title>
<path fill="none" stroke="red" d="M868.74,-557.38C865.8,-556.5 862.87,-555.7 860,-555 800.76,-540.59 784.33,-545.8 724,-537 662.54,-528.04 647.52,-523.54 586,-515 518.62,-505.64 500.82,-509.74 434,-497 433.9,-496.98 433.8,-496.96 433.7,-496.94"/>
<polygon fill="red" stroke="red" points="434.62,-493.56 424.11,-494.96 433.2,-500.41 434.62,-493.56"/>
<text text-anchor="middle" x="757" y="-529" font-family="Times,serif" font-size="10.00" fill="red">2.1.7</text>
<text text-anchor="middle" x="757" y="-518" font-family="Times,serif" font-size="10.00" fill="red">(latest: 2.1.9)</text>
</g>
<!-- roo_collections -->
<g id="node3" class="node">
<title>roo_collections</title>
<polygon fill="#b1dbab" stroke="black" points="472,-401 350,-401 350,-363 472,-363 472,-401"/>
<text text-anchor="middle" x="411" y="-385.8" font-family="Times,serif" font-size="14.00">roo_collections</text>
<text text-anchor="middle" x="411" y="-370.8" font-family="Times,serif" font-size="14.00">1.4.3</text>
</g>
<!-- roo_collections&#45;&gt;roo_backport -->
<g id="edge3" class="edge">
<title>roo_collections&#45;&gt;roo_backport</title>
<path fill="none" stroke="black" d="M420.63,-362.91C436.42,-333.26 467.92,-274.12 486.44,-239.33"/>
<polygon fill="black" stroke="black" points="489.69,-240.68 491.3,-230.21 483.51,-237.39 489.69,-240.68"/>
</g>
<!-- roo_comms -->
<g id="node4" class="node">
<title>roo_comms</title>
<polygon fill="plum" stroke="red" points="761.5,-785 664.5,-785 664.5,-747 761.5,-747 761.5,-785"/>
<text text-anchor="middle" x="713" y="-769.8" font-family="Times,serif" font-size="14.00">roo_comms</text>
<text text-anchor="middle" x="713" y="-754.8" font-family="Times,serif" font-size="14.00">1.1.3</text>
</g>
<!-- roo_comms&#45;&gt;roo_blink -->
<g id="edge4" class="edge">
<title>roo_comms&#45;&gt;roo_blink</title>
<path fill="none" stroke="red" d="M731.89,-746.78C767.19,-712.74 843.24,-639.39 883.6,-600.47"/>
<polygon fill="red" stroke="red" points="886.4,-602.62 891.17,-593.16 881.54,-597.59 886.4,-602.62"/>
<text text-anchor="middle" x="864" y="-673" font-family="Times,serif" font-size="10.00" fill="red">1.0.4</text>
<text text-anchor="middle" x="864" y="-662" font-family="Times,serif" font-size="10.00" fill="red">(latest: 1.0.5)</text>
</g>
<!-- roo_control -->
<g id="node5" class="node">
<title>roo_control</title>
<polygon fill="plum" stroke="red" points="1066.5,-593 969.5,-593 969.5,-555 1066.5,-555 1066.5,-593"/>
<text text-anchor="middle" x="1018" y="-577.8" font-family="Times,serif" font-size="14.00">roo_control</text>
<text text-anchor="middle" x="1018" y="-562.8" font-family="Times,serif" font-size="14.00">1.2.4</text>
</g>
<!-- roo_comms&#45;&gt;roo_control -->
<g id="edge5" class="edge">
<title>roo_comms&#45;&gt;roo_control</title>
<path fill="none" stroke="red" d="M761.76,-750.49C800.52,-737.69 855.16,-716.75 898,-689 936.3,-664.19 973.26,-626.29 995.81,-601.09"/>
<polygon fill="red" stroke="red" points="998.61,-603.2 1002.6,-593.39 993.36,-598.57 998.61,-603.2"/>
<text text-anchor="middle" x="978" y="-673" font-family="Times,serif" font-size="10.00" fill="red">1.2.3</text>
<text text-anchor="middle" x="978" y="-662" font-family="Times,serif" font-size="10.00" fill="red">(latest: 1.2.4)</text>
</g>
<!-- roo_io -->
<g id="node11" class="node">
<title>roo_io</title>
<polygon fill="#b1dbab" stroke="red" points="693.5,-401 634.5,-401 634.5,-363 693.5,-363 693.5,-401"/>
<text text-anchor="middle" x="664" y="-385.8" font-family="Times,serif" font-size="14.00">roo_io</text>
<text text-anchor="middle" x="664" y="-370.8" font-family="Times,serif" font-size="14.00">2.1.5</text>
</g>
<!-- roo_comms&#45;&gt;roo_io -->
<g id="edge6" class="edge">
<title>roo_comms&#45;&gt;roo_io</title>
<path fill="none" stroke="red" d="M707.21,-746.92C697.59,-715.86 678.72,-650.16 672,-593 670.03,-576.23 667.27,-571.21 672,-555 676.28,-540.32 704.72,-511.68 709,-497 713.73,-480.79 713.46,-475.29 709,-459 704.15,-441.29 693.99,-423.51 684.55,-409.61"/>
<polygon fill="red" stroke="red" points="687.14,-407.22 678.51,-401.08 681.43,-411.26 687.14,-407.22"/>
<text text-anchor="middle" x="705" y="-577" font-family="Times,serif" font-size="10.00" fill="red">2.1.1</text>
<text text-anchor="middle" x="705" y="-566" font-family="Times,serif" font-size="10.00" fill="red">(latest: 2.1.5)</text>
</g>
<!-- roo_transceivers -->
<g id="node24" class="node">
<title>roo_transceivers</title>
<polygon fill="plum" stroke="red" points="516.5,-689 381.5,-689 381.5,-651 516.5,-651 516.5,-689"/>
<text text-anchor="middle" x="449" y="-673.8" font-family="Times,serif" font-size="14.00">roo_transceivers</text>
<text text-anchor="middle" x="449" y="-658.8" font-family="Times,serif" font-size="14.00">1.1.4</text>
</g>
<!-- roo_comms&#45;&gt;roo_transceivers -->
<g id="edge7" class="edge">
<title>roo_comms&#45;&gt;roo_transceivers</title>
<path fill="none" stroke="black" d="M664.43,-747.37C632.5,-735.81 589.8,-720.41 552,-707 538.64,-702.26 524.29,-697.21 510.67,-692.45"/>
<polygon fill="black" stroke="black" points="511.5,-689.03 500.9,-689.03 509.19,-695.64 511.5,-689.03"/>
</g>
<!-- roo_quantity -->
<g id="node18" class="node">
<title>roo_quantity</title>
<polygon fill="#b1dbab" stroke="black" points="901.5,-497 794.5,-497 794.5,-459 901.5,-459 901.5,-497"/>
<text text-anchor="middle" x="848" y="-481.8" font-family="Times,serif" font-size="14.00">roo_quantity</text>
<text text-anchor="middle" x="848" y="-466.8" font-family="Times,serif" font-size="14.00">1.1.8</text>
</g>
<!-- roo_control&#45;&gt;roo_quantity -->
<g id="edge8" class="edge">
<title>roo_control&#45;&gt;roo_quantity</title>
<path fill="none" stroke="red" d="M1003.15,-554.79C991.92,-542.07 975.5,-525.54 958,-515 943.75,-506.41 927.21,-499.61 911.35,-494.34"/>
<polygon fill="red" stroke="red" points="912.18,-490.93 901.59,-491.26 910.07,-497.61 912.18,-490.93"/>
<text text-anchor="middle" x="1017" y="-529" font-family="Times,serif" font-size="10.00" fill="red">1.1.7</text>
<text text-anchor="middle" x="1017" y="-518" font-family="Times,serif" font-size="10.00" fill="red">(latest: 1.1.8)</text>
</g>
<!-- roo_control&#45;&gt;roo_scheduler -->
<g id="edge9" class="edge">
<title>roo_control&#45;&gt;roo_scheduler</title>
<path fill="none" stroke="red" d="M969.32,-557.68C966.17,-556.75 963.05,-555.85 960,-555 928.24,-546.11 916.7,-553.25 888,-537 875.97,-530.19 878.66,-520.56 866,-515 822.01,-495.7 481.5,-504.19 434,-497 433.9,-496.98 433.8,-496.97 433.69,-496.95"/>
<polygon fill="red" stroke="red" points="434.52,-493.55 424.06,-495.26 433.31,-500.44 434.52,-493.55"/>
<text text-anchor="middle" x="921" y="-529" font-family="Times,serif" font-size="10.00" fill="red">2.1.7</text>
<text text-anchor="middle" x="921" y="-518" font-family="Times,serif" font-size="10.00" fill="red">(latest: 2.1.9)</text>
</g>
<!-- roo_dashboard -->
<g id="node6" class="node">
<title>roo_dashboard</title>
<polygon fill="plum" stroke="red" points="260,-785 138,-785 138,-747 260,-747 260,-785"/>
<text text-anchor="middle" x="199" y="-769.8" font-family="Times,serif" font-size="14.00">roo_dashboard</text>
<text text-anchor="middle" x="199" y="-754.8" font-family="Times,serif" font-size="14.00">1.0.1</text>
</g>
<!-- roo_windows -->
<g id="node27" class="node">
<title>roo_windows</title>
<polygon fill="plum" stroke="red" points="360.5,-689 251.5,-689 251.5,-651 360.5,-651 360.5,-689"/>
<text text-anchor="middle" x="306" y="-673.8" font-family="Times,serif" font-size="14.00">roo_windows</text>
<text text-anchor="middle" x="306" y="-658.8" font-family="Times,serif" font-size="14.00">1.4.2</text>
</g>
<!-- roo_dashboard&#45;&gt;roo_windows -->
<g id="edge10" class="edge">
<title>roo_dashboard&#45;&gt;roo_windows</title>
<path fill="none" stroke="red" d="M214.48,-746.81C225.05,-734.89 239.67,-719.28 254,-707 258.81,-702.87 264.1,-698.78 269.41,-694.9"/>
<polygon fill="red" stroke="red" points="271.55,-697.67 277.69,-689.04 267.5,-691.96 271.55,-697.67"/>
<text text-anchor="middle" x="287" y="-721" font-family="Times,serif" font-size="10.00" fill="red">1.4.1</text>
<text text-anchor="middle" x="287" y="-710" font-family="Times,serif" font-size="10.00" fill="red">(latest: 1.4.2)</text>
</g>
<!-- roo_display -->
<g id="node7" class="node">
<title>roo_display</title>
<polygon fill="#b1dbab" stroke="black" points="290,-497 192,-497 192,-459 290,-459 290,-497"/>
<text text-anchor="middle" x="241" y="-481.8" font-family="Times,serif" font-size="14.00">roo_display</text>
<text text-anchor="middle" x="241" y="-466.8" font-family="Times,serif" font-size="14.00">3.0.2</text>
</g>
<!-- roo_display&#45;&gt;roo_collections -->
<g id="edge11" class="edge">
<title>roo_display&#45;&gt;roo_collections</title>
<path fill="none" stroke="black" d="M273.78,-458.88C301.06,-443.79 340.06,-422.23 369.51,-405.94"/>
<polygon fill="black" stroke="black" points="371.27,-408.97 378.32,-401.07 367.88,-402.84 371.27,-408.97"/>
</g>
<!-- roo_display&#45;&gt;roo_io -->
<g id="edge12" class="edge">
<title>roo_display&#45;&gt;roo_io</title>
<path fill="none" stroke="black" d="M290.18,-460.95C293.15,-460.22 296.1,-459.57 299,-459 391.81,-440.88 421.33,-471.01 511,-441 528.42,-435.17 529.29,-426.64 546,-419 571.11,-407.52 600.86,-398.48 624.2,-392.32"/>
<polygon fill="black" stroke="black" points="625.29,-395.66 634.11,-389.78 623.55,-388.87 625.29,-395.66"/>
</g>
<!-- roo_flags -->
<g id="node8" class="node">
<title>roo_flags</title>
<polygon fill="#b1dbab" stroke="black" points="797,-230 717,-230 717,-192 797,-192 797,-230"/>
<text text-anchor="middle" x="757" y="-214.8" font-family="Times,serif" font-size="14.00">roo_flags</text>
<text text-anchor="middle" x="757" y="-199.8" font-family="Times,serif" font-size="14.00">1.2.3</text>
</g>
<!-- roo_fonts_basic -->
<g id="node9" class="node">
<title>roo_fonts_basic</title>
<polygon fill="#b1dbab" stroke="red" points="126,-593 0,-593 0,-555 126,-555 126,-593"/>
<text text-anchor="middle" x="63" y="-577.8" font-family="Times,serif" font-size="14.00">roo_fonts_basic</text>
<text text-anchor="middle" x="63" y="-562.8" font-family="Times,serif" font-size="14.00">1.0.1</text>
</g>
<!-- roo_fonts_basic&#45;&gt;roo_display -->
<g id="edge13" class="edge">
<title>roo_fonts_basic&#45;&gt;roo_display</title>
<path fill="none" stroke="red" d="M97.32,-554.88C125.88,-539.79 166.72,-518.23 197.56,-501.94"/>
<polygon fill="red" stroke="red" points="199.58,-504.83 206.79,-497.07 196.31,-498.64 199.58,-504.83"/>
<text text-anchor="middle" x="201" y="-529" font-family="Times,serif" font-size="10.00" fill="red">3.0.1</text>
<text text-anchor="middle" x="201" y="-518" font-family="Times,serif" font-size="10.00" fill="red">(latest: 3.0.2)</text>
</g>
<!-- roo_icons -->
<g id="node10" class="node">
<title>roo_icons</title>
<polygon fill="khaki" stroke="red" points="333.5,-593 250.5,-593 250.5,-555 333.5,-555 333.5,-593"/>
<text text-anchor="middle" x="292" y="-577.8" font-family="Times,serif" font-size="14.00">roo_icons</text>
<text text-anchor="middle" x="292" y="-562.8" font-family="Times,serif" font-size="14.00">1.2.1</text>
</g>
<!-- roo_icons&#45;&gt;roo_display -->
<g id="edge14" class="edge">
<title>roo_icons&#45;&gt;roo_display</title>
<path fill="none" stroke="red" d="M282.17,-554.88C274.69,-541.09 264.27,-521.9 255.79,-506.26"/>
<polygon fill="red" stroke="red" points="258.65,-504.19 250.8,-497.07 252.5,-507.53 258.65,-504.19"/>
<text text-anchor="middle" x="305" y="-529" font-family="Times,serif" font-size="10.00" fill="red">2.3.1</text>
<text text-anchor="middle" x="305" y="-518" font-family="Times,serif" font-size="10.00" fill="red">(latest: 3.0.2)</text>
</g>
<!-- roo_io&#45;&gt;roo_logging -->
<g id="edge15" class="edge">
<title>roo_io&#45;&gt;roo_logging</title>
<path fill="none" stroke="black" d="M687.24,-362.96C699.1,-353.74 713.7,-342.4 726.56,-332.42"/>
<polygon fill="black" stroke="black" points="728.95,-334.99 734.71,-326.09 724.66,-329.46 728.95,-334.99"/>
</g>
<!-- roo_locale -->
<g id="node12" class="node">
<title>roo_locale</title>
<polygon fill="khaki" stroke="black" points="232,-593 144,-593 144,-555 232,-555 232,-593"/>
<text text-anchor="middle" x="188" y="-577.8" font-family="Times,serif" font-size="14.00">roo_locale</text>
<text text-anchor="middle" x="188" y="-562.8" font-family="Times,serif" font-size="14.00">1.1.1</text>
</g>
<!-- roo_logging&#45;&gt;roo_backport -->
<g id="edge16" class="edge">
<title>roo_logging&#45;&gt;roo_backport</title>
<path fill="none" stroke="black" d="M738.45,-287.83C721.01,-271.79 697.41,-250.55 692,-248 646.8,-226.67 630.07,-239.49 581,-230 576.27,-229.09 571.39,-228.1 566.49,-227.07"/>
<polygon fill="black" stroke="black" points="566.94,-223.59 556.43,-224.93 565.48,-230.44 566.94,-223.59"/>
</g>
<!-- roo_logging&#45;&gt;roo_flags -->
<g id="edge17" class="edge">
<title>roo_logging&#45;&gt;roo_flags</title>
<path fill="none" stroke="black" d="M757.81,-287.88C757.66,-274.35 757.46,-255.62 757.3,-240.15"/>
<polygon fill="black" stroke="black" points="760.8,-240.03 757.19,-230.07 753.8,-240.11 760.8,-240.03"/>
</g>
<!-- roo_threads -->
<g id="node21" class="node">
<title>roo_threads</title>
<polygon fill="#b1dbab" stroke="red" points="690.5,-230 589.5,-230 589.5,-192 690.5,-192 690.5,-230"/>
<text text-anchor="middle" x="640" y="-214.8" font-family="Times,serif" font-size="14.00">roo_threads</text>
<text text-anchor="middle" x="640" y="-199.8" font-family="Times,serif" font-size="14.00">1.2.3</text>
</g>
<!-- roo_logging&#45;&gt;roo_threads -->
<g id="edge18" class="edge">
<title>roo_logging&#45;&gt;roo_threads</title>
<path fill="none" stroke="black" d="M748.87,-287.86C741.84,-275.34 731.1,-259.03 718,-248 712.27,-243.18 705.79,-238.87 699.08,-235.04"/>
<polygon fill="black" stroke="black" points="700.3,-231.73 689.82,-230.14 697.02,-237.91 700.3,-231.73"/>
</g>
<!-- roo_monitoring -->
<g id="node14" class="node">
<title>roo_monitoring</title>
<polygon fill="plum" stroke="red" points="567.5,-497 442.5,-497 442.5,-459 567.5,-459 567.5,-497"/>
<text text-anchor="middle" x="505" y="-481.8" font-family="Times,serif" font-size="14.00">roo_monitoring</text>
<text text-anchor="middle" x="505" y="-466.8" font-family="Times,serif" font-size="14.00">1.0.0</text>
</g>
<!-- roo_monitoring&#45;&gt;roo_collections -->
<g id="edge19" class="edge">
<title>roo_monitoring&#45;&gt;roo_collections</title>
<path fill="none" stroke="red" d="M486.88,-458.88C472.57,-444.57 452.44,-424.44 436.51,-408.51"/>
<polygon fill="red" stroke="red" points="438.61,-405.66 429.07,-401.07 433.66,-410.61 438.61,-405.66"/>
<text text-anchor="middle" x="499" y="-433" font-family="Times,serif" font-size="10.00" fill="red">1.4.1</text>
<text text-anchor="middle" x="499" y="-422" font-family="Times,serif" font-size="10.00" fill="red">(latest: 1.4.3)</text>
</g>
<!-- roo_monitoring&#45;&gt;roo_io -->
<g id="edge20" class="edge">
<title>roo_monitoring&#45;&gt;roo_io</title>
<path fill="none" stroke="red" d="M525.96,-458.78C540.7,-446.54 561.24,-430.59 581,-419 594.76,-410.93 610.66,-403.59 624.85,-397.68"/>
<polygon fill="red" stroke="red" points="626.4,-400.83 634.34,-393.83 623.76,-394.35 626.4,-400.83"/>
<text text-anchor="middle" x="614" y="-433" font-family="Times,serif" font-size="10.00" fill="red">2.1.4</text>
<text text-anchor="middle" x="614" y="-422" font-family="Times,serif" font-size="10.00" fill="red">(latest: 2.1.5)</text>
</g>
<!-- roo_onewire -->
<g id="node15" class="node">
<title>roo_onewire</title>
<polygon fill="plum" stroke="red" points="851,-593 747,-593 747,-555 851,-555 851,-593"/>
<text text-anchor="middle" x="799" y="-577.8" font-family="Times,serif" font-size="14.00">roo_onewire</text>
<text text-anchor="middle" x="799" y="-562.8" font-family="Times,serif" font-size="14.00">2.0.8</text>
</g>
<!-- roo_onewire&#45;&gt;roo_quantity -->
<g id="edge22" class="edge">
<title>roo_onewire&#45;&gt;roo_quantity</title>
<path fill="none" stroke="red" d="M795.35,-554.76C793.88,-542.8 793.77,-527.2 800,-515 801.97,-511.14 804.57,-507.58 807.54,-504.33"/>
<polygon fill="red" stroke="red" points="810.13,-506.7 815.03,-497.31 805.34,-501.6 810.13,-506.7"/>
<text text-anchor="middle" x="833" y="-529" font-family="Times,serif" font-size="10.00" fill="red">1.1.7</text>
<text text-anchor="middle" x="833" y="-518" font-family="Times,serif" font-size="10.00" fill="red">(latest: 1.1.8)</text>
</g>
<!-- roo_onewire&#45;&gt;roo_scheduler -->
<g id="edge21" class="edge">
<title>roo_onewire&#45;&gt;roo_scheduler</title>
<path fill="none" stroke="red" d="M746.96,-557.87C742.26,-556.79 737.56,-555.81 733,-555 639.45,-538.43 612.67,-557.94 520,-537 500.37,-532.56 455.69,-515.44 419.49,-500.94"/>
<polygon fill="red" stroke="red" points="420.59,-497.61 410.01,-497.12 417.98,-504.1 420.59,-497.61"/>
<text text-anchor="middle" x="553" y="-529" font-family="Times,serif" font-size="10.00" fill="red">2.1.7</text>
<text text-anchor="middle" x="553" y="-518" font-family="Times,serif" font-size="10.00" fill="red">(latest: 2.1.9)</text>
</g>
<!-- roo_powersafefs -->
<g id="node16" class="node">
<title>roo_powersafefs</title>
<polygon fill="plum" stroke="red" points="689.5,-326 556.5,-326 556.5,-288 689.5,-288 689.5,-326"/>
<text text-anchor="middle" x="623" y="-310.8" font-family="Times,serif" font-size="14.00">roo_powersafefs</text>
<text text-anchor="middle" x="623" y="-295.8" font-family="Times,serif" font-size="14.00">1.0.0</text>
</g>
<!-- roo_powersafefs&#45;&gt;roo_threads -->
<g id="edge23" class="edge">
<title>roo_powersafefs&#45;&gt;roo_threads</title>
<path fill="none" stroke="red" d="M626.28,-287.88C628.72,-274.35 632.11,-255.62 634.91,-240.15"/>
<polygon fill="red" stroke="red" points="638.4,-240.53 636.73,-230.07 631.51,-239.29 638.4,-240.53"/>
<text text-anchor="middle" x="666" y="-262" font-family="Times,serif" font-size="10.00" fill="red">1.2.1</text>
<text text-anchor="middle" x="666" y="-251" font-family="Times,serif" font-size="10.00" fill="red">(latest: 1.2.3)</text>
</g>
<!-- roo_prefs -->
<g id="node17" class="node">
<title>roo_prefs</title>
<polygon fill="#b1dbab" stroke="black" points="549.5,-593 466.5,-593 466.5,-555 549.5,-555 549.5,-593"/>
<text text-anchor="middle" x="508" y="-577.8" font-family="Times,serif" font-size="14.00">roo_prefs</text>
<text text-anchor="middle" x="508" y="-562.8" font-family="Times,serif" font-size="14.00">1.2.9</text>
</g>
<!-- roo_prefs&#45;&gt;roo_logging -->
<g id="edge24" class="edge">
<title>roo_prefs&#45;&gt;roo_logging</title>
<path fill="none" stroke="black" d="M549.6,-567.21C618.83,-557.51 750.33,-538.89 752,-537 801.65,-480.99 781.54,-383.58 767.41,-335.9"/>
<polygon fill="black" stroke="black" points="770.72,-334.76 764.42,-326.24 764.03,-336.83 770.72,-334.76"/>
</g>
<!-- roo_prefs&#45;&gt;roo_scheduler -->
<g id="edge25" class="edge">
<title>roo_prefs&#45;&gt;roo_scheduler</title>
<path fill="none" stroke="black" d="M480.62,-554.88C458.23,-540.05 426.38,-518.97 401.93,-502.79"/>
<polygon fill="black" stroke="black" points="403.57,-499.67 393.29,-497.07 399.7,-505.51 403.57,-499.67"/>
</g>
<!-- roo_quantity&#45;&gt;roo_logging -->
<g id="edge26" class="edge">
<title>roo_quantity&#45;&gt;roo_logging</title>
<path fill="none" stroke="black" d="M839.19,-458.7C826.62,-432.84 802.56,-384.27 780,-344 778.35,-341.06 776.59,-338.01 774.8,-335"/>
<polygon fill="black" stroke="black" points="777.63,-332.91 769.46,-326.16 771.63,-336.53 777.63,-332.91"/>
</g>
<!-- roo_scheduler&#45;&gt;roo_collections -->
<g id="edge27" class="edge">
<title>roo_scheduler&#45;&gt;roo_collections</title>
<path fill="none" stroke="black" d="M374.26,-458.91C379.54,-447.44 386.58,-432.3 393,-419 394.35,-416.2 395.78,-413.28 397.22,-410.37"/>
<polygon fill="black" stroke="black" points="400.42,-411.78 401.74,-401.27 394.16,-408.66 400.42,-411.78"/>
</g>
<!-- roo_scheduler&#45;&gt;roo_threads -->
<g id="edge28" class="edge">
<title>roo_scheduler&#45;&gt;roo_threads</title>
<path fill="none" stroke="black" d="M424.07,-460.76C453.43,-452.34 483.43,-443.34 486,-441 540.25,-391.6 504.62,-347.17 548,-288 562.87,-267.72 584.33,-249.58 602.78,-236.11"/>
<polygon fill="black" stroke="black" points="604.89,-238.91 611.01,-230.26 600.83,-233.2 604.89,-238.91"/>
</g>
<!-- roo_testing -->
<g id="node20" class="node">
<title>roo_testing</title>
<polygon fill="#b1dbab" stroke="black" points="810.5,-38 713.5,-38 713.5,0 810.5,0 810.5,-38"/>
<text text-anchor="middle" x="762" y="-22.8" font-family="Times,serif" font-size="14.00">roo_testing</text>
<text text-anchor="middle" x="762" y="-7.8" font-family="Times,serif" font-size="14.00">1.3.4</text>
</g>
<!-- roo_time -->
<g id="node22" class="node">
<title>roo_time</title>
<polygon fill="#b1dbab" stroke="red" points="801.5,-134 722.5,-134 722.5,-96 801.5,-96 801.5,-134"/>
<text text-anchor="middle" x="762" y="-118.8" font-family="Times,serif" font-size="14.00">roo_time</text>
<text text-anchor="middle" x="762" y="-103.8" font-family="Times,serif" font-size="14.00">1.4.3</text>
</g>
<!-- roo_threads&#45;&gt;roo_time -->
<g id="edge29" class="edge">
<title>roo_threads&#45;&gt;roo_time</title>
<path fill="none" stroke="black" d="M663.52,-191.88C682.59,-177.18 709.65,-156.34 730.57,-140.21"/>
<polygon fill="black" stroke="black" points="732.76,-142.94 738.55,-134.07 728.49,-137.4 732.76,-142.94"/>
</g>
<!-- roo_time&#45;&gt;roo_testing -->
<g id="edge30" class="edge">
<title>roo_time&#45;&gt;roo_testing</title>
<path fill="none" stroke="red" d="M762,-95.88C762,-82.35 762,-63.62 762,-48.15"/>
<polygon fill="red" stroke="red" points="765.5,-48.07 762,-38.07 758.5,-48.07 765.5,-48.07"/>
<text text-anchor="middle" x="795" y="-70" font-family="Times,serif" font-size="10.00" fill="red">1.3.2</text>
<text text-anchor="middle" x="795" y="-59" font-family="Times,serif" font-size="10.00" fill="red">(latest: 1.3.4)</text>
</g>
<!-- roo_time_ds3231 -->
<g id="node23" class="node">
<title>roo_time_ds3231</title>
<polygon fill="plum" stroke="red" points="953,-230 815,-230 815,-192 953,-192 953,-230"/>
<text text-anchor="middle" x="884" y="-214.8" font-family="Times,serif" font-size="14.00">roo_time_ds3231</text>
<text text-anchor="middle" x="884" y="-199.8" font-family="Times,serif" font-size="14.00">1.1.5</text>
</g>
<!-- roo_time_ds3231&#45;&gt;roo_time -->
<g id="edge31" class="edge">
<title>roo_time_ds3231&#45;&gt;roo_time</title>
<path fill="none" stroke="red" d="M860.48,-191.88C841.41,-177.18 814.35,-156.34 793.43,-140.21"/>
<polygon fill="red" stroke="red" points="795.51,-137.4 785.45,-134.07 791.24,-142.94 795.51,-137.4"/>
<text text-anchor="middle" x="866" y="-166" font-family="Times,serif" font-size="10.00" fill="red">1.4.1</text>
<text text-anchor="middle" x="866" y="-155" font-family="Times,serif" font-size="10.00" fill="red">(latest: 1.4.3)</text>
</g>
<!-- roo_transceivers&#45;&gt;roo_prefs -->
<g id="edge32" class="edge">
<title>roo_transceivers&#45;&gt;roo_prefs</title>
<path fill="none" stroke="red" d="M454.93,-650.93C459.26,-639.05 465.8,-623.46 474,-611 476.22,-607.62 478.78,-604.27 481.46,-601.05"/>
<polygon fill="red" stroke="red" points="484.27,-603.16 488.31,-593.37 479.04,-598.51 484.27,-603.16"/>
<text text-anchor="middle" x="507" y="-625" font-family="Times,serif" font-size="10.00" fill="red">1.2.7</text>
<text text-anchor="middle" x="507" y="-614" font-family="Times,serif" font-size="10.00" fill="red">(latest: 1.2.9)</text>
</g>
<!-- roo_transport -->
<g id="node25" class="node">
<title>roo_transport</title>
<polygon fill="#b1dbab" stroke="black" points="700,-497 586,-497 586,-459 700,-459 700,-497"/>
<text text-anchor="middle" x="643" y="-481.8" font-family="Times,serif" font-size="14.00">roo_transport</text>
<text text-anchor="middle" x="643" y="-466.8" font-family="Times,serif" font-size="14.00">1.1.2</text>
</g>
<!-- roo_transport&#45;&gt;roo_collections -->
<g id="edge33" class="edge">
<title>roo_transport&#45;&gt;roo_collections</title>
<path fill="none" stroke="black" d="M642.21,-458.87C640.64,-445.86 636.35,-428.92 625,-419 604.05,-400.69 536.01,-391.52 482.21,-387.04"/>
<polygon fill="black" stroke="black" points="482.25,-383.54 472.01,-386.24 481.7,-390.51 482.25,-383.54"/>
</g>
<!-- roo_transport&#45;&gt;roo_io -->
<g id="edge34" class="edge">
<title>roo_transport&#45;&gt;roo_io</title>
<path fill="none" stroke="black" d="M647.05,-458.88C650.07,-445.35 654.26,-426.62 657.71,-411.15"/>
<polygon fill="black" stroke="black" points="661.2,-411.59 659.96,-401.07 654.37,-410.06 661.2,-411.59"/>
</g>
<!-- roo_wifi -->
<g id="node26" class="node">
<title>roo_wifi</title>
<polygon fill="plum" stroke="red" points="607,-689 535,-689 535,-651 607,-651 607,-689"/>
<text text-anchor="middle" x="571" y="-673.8" font-family="Times,serif" font-size="14.00">roo_wifi</text>
<text text-anchor="middle" x="571" y="-658.8" font-family="Times,serif" font-size="14.00">1.1.3</text>
</g>
<!-- roo_wifi&#45;&gt;roo_prefs -->
<g id="edge35" class="edge">
<title>roo_wifi&#45;&gt;roo_prefs</title>
<path fill="none" stroke="red" d="M562.68,-650.85C556.95,-639.08 548.81,-623.64 540,-611 537.7,-607.7 535.13,-604.37 532.48,-601.13"/>
<polygon fill="red" stroke="red" points="534.99,-598.68 525.82,-593.36 529.67,-603.23 534.99,-598.68"/>
<text text-anchor="middle" x="586" y="-625" font-family="Times,serif" font-size="10.00" fill="red">1.2.7</text>
<text text-anchor="middle" x="586" y="-614" font-family="Times,serif" font-size="10.00" fill="red">(latest: 1.2.9)</text>
</g>
<!-- roo_windows&#45;&gt;roo_icons -->
<g id="edge37" class="edge">
<title>roo_windows&#45;&gt;roo_icons</title>
<path fill="none" stroke="black" d="M303.3,-650.88C301.29,-637.35 298.5,-618.62 296.19,-603.15"/>
<polygon fill="black" stroke="black" points="299.63,-602.44 294.69,-593.07 292.7,-603.48 299.63,-602.44"/>
</g>
<!-- roo_windows&#45;&gt;roo_locale -->
<g id="edge36" class="edge">
<title>roo_windows&#45;&gt;roo_locale</title>
<path fill="none" stroke="black" d="M283.25,-650.88C264.88,-636.25 238.87,-615.52 218.67,-599.43"/>
<polygon fill="black" stroke="black" points="220.68,-596.56 210.68,-593.07 216.32,-602.04 220.68,-596.56"/>
</g>
<!-- roo_windows&#45;&gt;roo_scheduler -->
<g id="edge38" class="edge">
<title>roo_windows&#45;&gt;roo_scheduler</title>
<path fill="none" stroke="red" d="M316.13,-650.77C324.15,-635.68 335.1,-613.48 342,-593 351.63,-564.41 358.19,-530.44 361.98,-507.06"/>
<polygon fill="red" stroke="red" points="365.45,-507.54 363.53,-497.12 358.53,-506.46 365.45,-507.54"/>
<text text-anchor="middle" x="386" y="-577" font-family="Times,serif" font-size="10.00" fill="red">2.1.6</text>
<text text-anchor="middle" x="386" y="-566" font-family="Times,serif" font-size="10.00" fill="red">(latest: 2.1.9)</text>
</g>
<!-- roo_windows_transceivers -->
<g id="node28" class="node">
<title>roo_windows_transceivers</title>
<polygon fill="plum" stroke="red" points="482,-785 278,-785 278,-747 482,-747 482,-785"/>
<text text-anchor="middle" x="380" y="-769.8" font-family="Times,serif" font-size="14.00">roo_windows_transceivers</text>
<text text-anchor="middle" x="380" y="-754.8" font-family="Times,serif" font-size="14.00">1.0.0</text>
</g>
<!-- roo_windows_transceivers&#45;&gt;roo_transceivers -->
<g id="edge39" class="edge">
<title>roo_windows_transceivers&#45;&gt;roo_transceivers</title>
<path fill="none" stroke="red" d="M393.3,-746.88C403.61,-732.83 418.05,-713.17 429.63,-697.38"/>
<polygon fill="red" stroke="red" points="432.64,-699.2 435.74,-689.07 427,-695.06 432.64,-699.2"/>
<text text-anchor="middle" x="453" y="-721" font-family="Times,serif" font-size="10.00" fill="red">1.1.3</text>
<text text-anchor="middle" x="453" y="-710" font-family="Times,serif" font-size="10.00" fill="red">(latest: 1.1.4)</text>
</g>
<!-- roo_windows_transceivers&#45;&gt;roo_windows -->
<g id="edge40" class="edge">
<title>roo_windows_transceivers&#45;&gt;roo_windows</title>
<path fill="none" stroke="red" d="M355.93,-746.93C349.66,-741.57 343.21,-735.41 338,-729 330.39,-719.64 323.64,-708.22 318.33,-697.99"/>
<polygon fill="red" stroke="red" points="321.46,-696.42 313.87,-689.03 315.19,-699.54 321.46,-696.42"/>
<text text-anchor="middle" x="371" y="-721" font-family="Times,serif" font-size="10.00" fill="red">1.4.1</text>
<text text-anchor="middle" x="371" y="-710" font-family="Times,serif" font-size="10.00" fill="red">(latest: 1.4.2)</text>
</g>
<!-- roo_windows_wifi -->
<g id="node29" class="node">
<title>roo_windows_wifi</title>
<polygon fill="plum" stroke="red" points="641.5,-785 500.5,-785 500.5,-747 641.5,-747 641.5,-785"/>
<text text-anchor="middle" x="571" y="-769.8" font-family="Times,serif" font-size="14.00">roo_windows_wifi</text>
<text text-anchor="middle" x="571" y="-754.8" font-family="Times,serif" font-size="14.00">1.1.3</text>
</g>
<!-- roo_windows_wifi&#45;&gt;roo_wifi -->
<g id="edge41" class="edge">
<title>roo_windows_wifi&#45;&gt;roo_wifi</title>
<path fill="none" stroke="black" d="M571,-746.88C571,-733.35 571,-714.62 571,-699.15"/>
<polygon fill="black" stroke="black" points="574.5,-699.07 571,-689.07 567.5,-699.07 574.5,-699.07"/>
</g>
<!-- roo_windows_wifi&#45;&gt;roo_windows -->
<g id="edge42" class="edge">
<title>roo_windows_wifi&#45;&gt;roo_windows</title>
<path fill="none" stroke="black" d="M551.3,-746.81C535.81,-733.58 513.06,-716.4 490,-707 441.28,-687.14 424.48,-699.84 373,-689 372.25,-688.84 371.49,-688.68 370.73,-688.52"/>
<polygon fill="black" stroke="black" points="371.26,-685.04 360.73,-686.23 369.7,-691.87 371.26,-685.04"/>
</g>
</g>
</svg>
