<?xml version="1.0" encoding="UTF-8" standalone="no"?>
<!DOCTYPE svg PUBLIC "-//W3C//DTD SVG 1.1//EN"
 "http://www.w3.org/Graphics/SVG/1.1/DTD/svg11.dtd">
<!-- Generated by graphviz version 2.42.4 (0)
 -->
<!-- Title: dependencies Pages: 1 -->
<svg width="1088pt" height="751pt"
 viewBox="0.00 0.00 1087.50 751.00" xmlns="http://www.w3.org/2000/svg" xmlns:xlink="http://www.w3.org/1999/xlink">
<g id="graph0" class="graph" transform="scale(1 1) rotate(0) translate(4 747)">
<title>dependencies</title>
<polygon fill="white" stroke="transparent" points="-4,4 -4,-747 1083.5,-747 1083.5,4 -4,4"/>
<!-- roo_backport -->
<g id="node1" class="node">
<title>roo_backport</title>
<polygon fill="#b1dbab" stroke="black" points="620.5,-209 510.5,-209 510.5,-171 620.5,-171 620.5,-209"/>
<text text-anchor="middle" x="565.5" y="-193.8" font-family="Times,serif" font-size="14.00">roo_backport</text>
<text text-anchor="middle" x="565.5" y="-178.8" font-family="Times,serif" font-size="14.00">1.2.2</text>
</g>
<!-- roo_blink -->
<g id="node2" class="node">
<title>roo_blink</title>
<polygon fill="#b1dbab" stroke="red" points="1079.5,-551 997.5,-551 997.5,-513 1079.5,-513 1079.5,-551"/>
<text text-anchor="middle" x="1038.5" y="-535.8" font-family="Times,serif" font-size="14.00">roo_blink</text>
<text text-anchor="middle" x="1038.5" y="-520.8" font-family="Times,serif" font-size="14.00">1.0.6</text>
</g>
<!-- roo_logging -->
<g id="node14" class="node">
<title>roo_logging</title>
<polygon fill="khaki" stroke="red" points="878.5,-284 778.5,-284 778.5,-246 878.5,-246 878.5,-284"/>
<text text-anchor="middle" x="828.5" y="-268.8" font-family="Times,serif" font-size="14.00">roo_logging</text>
<text text-anchor="middle" x="828.5" y="-253.8" font-family="Times,serif" font-size="14.00">1.5.5</text>
</g>
<!-- roo_blink&#45;&gt;roo_logging -->
<g id="edge1" class="edge">
<title>roo_blink&#45;&gt;roo_logging</title>
<path fill="none" stroke="black" d="M1024.07,-512.79C987.65,-466.83 891.93,-346.04 849.39,-292.36"/>
<polygon fill="black" stroke="black" points="851.99,-290.01 843.04,-284.34 846.5,-294.35 851.99,-290.01"/>
</g>
<!-- roo_scheduler -->
<g id="node20" class="node">
<title>roo_scheduler</title>
<polygon fill="#b1dbab" stroke="red" points="704.5,-455 588.5,-455 588.5,-417 704.5,-417 704.5,-455"/>
<text text-anchor="middle" x="646.5" y="-439.8" font-family="Times,serif" font-size="14.00">roo_scheduler</text>
<text text-anchor="middle" x="646.5" y="-424.8" font-family="Times,serif" font-size="14.00">2.1.9</text>
</g>
<!-- roo_blink&#45;&gt;roo_scheduler -->
<g id="edge2" class="edge">
<title>roo_blink&#45;&gt;roo_scheduler</title>
<path fill="none" stroke="black" d="M997.44,-515.72C994.43,-514.75 991.43,-513.83 988.5,-513 868.77,-478.95 835.59,-483.82 714.5,-455 714.4,-454.98 714.3,-454.95 714.2,-454.93"/>
<polygon fill="black" stroke="black" points="715.23,-451.58 704.69,-452.61 713.58,-458.38 715.23,-451.58"/>
</g>
<!-- roo_collections -->
<g id="node3" class="node">
<title>roo_collections</title>
<polygon fill="#b1dbab" stroke="black" points="431.5,-359 309.5,-359 309.5,-321 431.5,-321 431.5,-359"/>
<text text-anchor="middle" x="370.5" y="-343.8" font-family="Times,serif" font-size="14.00">roo_collections</text>
<text text-anchor="middle" x="370.5" y="-328.8" font-family="Times,serif" font-size="14.00">1.4.3</text>
</g>
<!-- roo_collections&#45;&gt;roo_backport -->
<g id="edge3" class="edge">
<title>roo_collections&#45;&gt;roo_backport</title>
<path fill="none" stroke="black" d="M394.41,-320.85C429.3,-294.37 494.24,-245.08 533.3,-215.44"/>
<polygon fill="black" stroke="black" points="535.85,-217.9 541.7,-209.06 531.62,-212.32 535.85,-217.9"/>
</g>
<!-- roo_comms -->
<g id="node4" class="node">
<title>roo_comms</title>
<polygon fill="#b1dbab" stroke="red" points="929,-743 832,-743 832,-705 929,-705 929,-743"/>
<text text-anchor="middle" x="880.5" y="-727.8" font-family="Times,serif" font-size="14.00">roo_comms</text>
<text text-anchor="middle" x="880.5" y="-712.8" font-family="Times,serif" font-size="14.00">1.1.4</text>
</g>
<!-- roo_comms&#45;&gt;roo_blink -->
<g id="edge4" class="edge">
<title>roo_comms&#45;&gt;roo_blink</title>
<path fill="none" stroke="black" d="M907,-704.85C914.02,-699.48 921.34,-693.34 927.5,-687 966.37,-646.98 1002.37,-592.54 1022.3,-560.26"/>
<polygon fill="black" stroke="black" points="1025.5,-561.74 1027.72,-551.38 1019.52,-558.09 1025.5,-561.74"/>
</g>
<!-- roo_control -->
<g id="node5" class="node">
<title>roo_control</title>
<polygon fill="#b1dbab" stroke="red" points="979,-551 882,-551 882,-513 979,-513 979,-551"/>
<text text-anchor="middle" x="930.5" y="-535.8" font-family="Times,serif" font-size="14.00">roo_control</text>
<text text-anchor="middle" x="930.5" y="-520.8" font-family="Times,serif" font-size="14.00">1.2.5</text>
</g>
<!-- roo_comms&#45;&gt;roo_control -->
<g id="edge5" class="edge">
<title>roo_comms&#45;&gt;roo_control</title>
<path fill="none" stroke="black" d="M898.91,-704.94C903.39,-699.58 907.7,-693.41 910.5,-687 928.36,-646.12 931.49,-593.74 931.47,-561.81"/>
<polygon fill="black" stroke="black" points="934.96,-561.38 931.35,-551.42 927.96,-561.46 934.96,-561.38"/>
</g>
<!-- roo_io -->
<g id="node12" class="node">
<title>roo_io</title>
<polygon fill="#b1dbab" stroke="red" points="509,-359 450,-359 450,-321 509,-321 509,-359"/>
<text text-anchor="middle" x="479.5" y="-343.8" font-family="Times,serif" font-size="14.00">roo_io</text>
<text text-anchor="middle" x="479.5" y="-328.8" font-family="Times,serif" font-size="14.00">2.1.6</text>
</g>
<!-- roo_comms&#45;&gt;roo_io -->
<g id="edge6" class="edge">
<title>roo_comms&#45;&gt;roo_io</title>
<path fill="none" stroke="red" d="M831.76,-714.72C784.12,-704.79 711.27,-684.57 658.5,-647 614.39,-615.6 609.47,-598.51 583.5,-551 544.2,-479.09 569.14,-444.38 522.5,-377 519.87,-373.2 516.74,-369.58 513.39,-366.19"/>
<polygon fill="red" stroke="red" points="515.52,-363.4 505.79,-359.19 510.77,-368.54 515.52,-363.4"/>
<text text-anchor="middle" x="616.5" y="-535" font-family="Times,serif" font-size="10.00" fill="red">2.1.5</text>
<text text-anchor="middle" x="616.5" y="-524" font-family="Times,serif" font-size="10.00" fill="red">(latest: 2.1.6)</text>
</g>
<!-- roo_transceivers -->
<g id="node25" class="node">
<title>roo_transceivers</title>
<polygon fill="#b1dbab" stroke="red" points="893,-647 758,-647 758,-609 893,-609 893,-647"/>
<text text-anchor="middle" x="825.5" y="-631.8" font-family="Times,serif" font-size="14.00">roo_transceivers</text>
<text text-anchor="middle" x="825.5" y="-616.8" font-family="Times,serif" font-size="14.00">1.1.6</text>
</g>
<!-- roo_comms&#45;&gt;roo_transceivers -->
<g id="edge7" class="edge">
<title>roo_comms&#45;&gt;roo_transceivers</title>
<path fill="none" stroke="red" d="M858.85,-704.65C853.6,-699.38 848.39,-693.33 844.5,-687 838.9,-677.89 834.76,-666.94 831.81,-657.03"/>
<polygon fill="red" stroke="red" points="835.13,-655.93 829.14,-647.19 828.38,-657.76 835.13,-655.93"/>
<text text-anchor="middle" x="877.5" y="-679" font-family="Times,serif" font-size="10.00" fill="red">1.1.5</text>
<text text-anchor="middle" x="877.5" y="-668" font-family="Times,serif" font-size="10.00" fill="red">(latest: 1.1.6)</text>
</g>
<!-- roo_quantity -->
<g id="node19" class="node">
<title>roo_quantity</title>
<polygon fill="#b1dbab" stroke="black" points="830,-455 723,-455 723,-417 830,-417 830,-455"/>
<text text-anchor="middle" x="776.5" y="-439.8" font-family="Times,serif" font-size="14.00">roo_quantity</text>
<text text-anchor="middle" x="776.5" y="-424.8" font-family="Times,serif" font-size="14.00">1.1.8</text>
</g>
<!-- roo_control&#45;&gt;roo_quantity -->
<g id="edge8" class="edge">
<title>roo_control&#45;&gt;roo_quantity</title>
<path fill="none" stroke="black" d="M900.81,-512.88C876.31,-497.92 841.37,-476.6 814.78,-460.36"/>
<polygon fill="black" stroke="black" points="816.46,-457.29 806.1,-455.07 812.81,-463.27 816.46,-457.29"/>
</g>
<!-- roo_control&#45;&gt;roo_scheduler -->
<g id="edge9" class="edge">
<title>roo_control&#45;&gt;roo_scheduler</title>
<path fill="none" stroke="black" d="M882,-515.66C879.12,-514.76 876.27,-513.87 873.5,-513 847.74,-504.94 841.16,-503.38 815.5,-495 779.56,-483.26 739.53,-469.55 707.45,-458.41"/>
<polygon fill="black" stroke="black" points="708.36,-455.02 697.77,-455.04 706.06,-461.63 708.36,-455.02"/>
</g>
<!-- roo_dashboard -->
<g id="node6" class="node">
<title>roo_dashboard</title>
<polygon fill="khaki" stroke="red" points="327.5,-743 205.5,-743 205.5,-705 327.5,-705 327.5,-743"/>
<text text-anchor="middle" x="266.5" y="-727.8" font-family="Times,serif" font-size="14.00">roo_dashboard</text>
<text text-anchor="middle" x="266.5" y="-712.8" font-family="Times,serif" font-size="14.00">1.0.1</text>
</g>
<!-- roo_windows -->
<g id="node28" class="node">
<title>roo_windows</title>
<polygon fill="#b1dbab" stroke="red" points="406,-647 297,-647 297,-609 406,-609 406,-647"/>
<text text-anchor="middle" x="351.5" y="-631.8" font-family="Times,serif" font-size="14.00">roo_windows</text>
<text text-anchor="middle" x="351.5" y="-616.8" font-family="Times,serif" font-size="14.00">1.5.0</text>
</g>
<!-- roo_dashboard&#45;&gt;roo_windows -->
<g id="edge10" class="edge">
<title>roo_dashboard&#45;&gt;roo_windows</title>
<path fill="none" stroke="red" d="M267,-704.81C268.21,-692.42 271.57,-676.29 280.5,-665 284.18,-660.35 288.62,-656.24 293.47,-652.63"/>
<polygon fill="red" stroke="red" points="295.54,-655.46 301.94,-647.02 291.67,-649.63 295.54,-655.46"/>
<text text-anchor="middle" x="313.5" y="-679" font-family="Times,serif" font-size="10.00" fill="red">1.4.1</text>
<text text-anchor="middle" x="313.5" y="-668" font-family="Times,serif" font-size="10.00" fill="red">(latest: 1.5.0)</text>
</g>
<!-- roo_display -->
<g id="node7" class="node">
<title>roo_display</title>
<polygon fill="#b1dbab" stroke="black" points="376.5,-455 278.5,-455 278.5,-417 376.5,-417 376.5,-455"/>
<text text-anchor="middle" x="327.5" y="-439.8" font-family="Times,serif" font-size="14.00">roo_display</text>
<text text-anchor="middle" x="327.5" y="-424.8" font-family="Times,serif" font-size="14.00">3.0.3</text>
</g>
<!-- roo_display&#45;&gt;roo_collections -->
<g id="edge11" class="edge">
<title>roo_display&#45;&gt;roo_collections</title>
<path fill="none" stroke="black" d="M330.23,-416.82C332.47,-405.04 336.3,-389.6 342.5,-377 344.13,-373.68 346.1,-370.37 348.23,-367.18"/>
<polygon fill="black" stroke="black" points="351.07,-369.23 354.12,-359.08 345.41,-365.11 351.07,-369.23"/>
</g>
<!-- roo_display&#45;&gt;roo_io -->
<g id="edge12" class="edge">
<title>roo_display&#45;&gt;roo_io</title>
<path fill="none" stroke="black" d="M356.81,-416.88C380.99,-401.92 415.47,-380.6 441.72,-364.36"/>
<polygon fill="black" stroke="black" points="443.62,-367.31 450.28,-359.07 439.94,-361.35 443.62,-367.31"/>
</g>
<!-- roo_flags -->
<g id="node8" class="node">
<title>roo_flags</title>
<polygon fill="#b1dbab" stroke="black" points="861.5,-209 781.5,-209 781.5,-171 861.5,-171 861.5,-209"/>
<text text-anchor="middle" x="821.5" y="-193.8" font-family="Times,serif" font-size="14.00">roo_flags</text>
<text text-anchor="middle" x="821.5" y="-178.8" font-family="Times,serif" font-size="14.00">1.2.3</text>
</g>
<!-- roo_fonts_basic -->
<g id="node9" class="node">
<title>roo_fonts_basic</title>
<polygon fill="#b1dbab" stroke="red" points="394.5,-551 268.5,-551 268.5,-513 394.5,-513 394.5,-551"/>
<text text-anchor="middle" x="331.5" y="-535.8" font-family="Times,serif" font-size="14.00">roo_fonts_basic</text>
<text text-anchor="middle" x="331.5" y="-520.8" font-family="Times,serif" font-size="14.00">1.0.2</text>
</g>
<!-- roo_fonts_basic&#45;&gt;roo_display -->
<g id="edge13" class="edge">
<title>roo_fonts_basic&#45;&gt;roo_display</title>
<path fill="none" stroke="red" d="M330.73,-512.88C330.15,-499.35 329.36,-480.62 328.7,-465.15"/>
<polygon fill="red" stroke="red" points="332.19,-464.91 328.27,-455.07 325.2,-465.21 332.19,-464.91"/>
<text text-anchor="middle" x="363.5" y="-487" font-family="Times,serif" font-size="10.00" fill="red">3.0.2</text>
<text text-anchor="middle" x="363.5" y="-476" font-family="Times,serif" font-size="10.00" fill="red">(latest: 3.0.3)</text>
</g>
<!-- roo_fonts_material -->
<g id="node10" class="node">
<title>roo_fonts_material</title>
<polygon fill="#b1dbab" stroke="red" points="250,-551 101,-551 101,-513 250,-513 250,-551"/>
<text text-anchor="middle" x="175.5" y="-535.8" font-family="Times,serif" font-size="14.00">roo_fonts_material</text>
<text text-anchor="middle" x="175.5" y="-520.8" font-family="Times,serif" font-size="14.00">1.0.0</text>
</g>
<!-- roo_fonts_material&#45;&gt;roo_display -->
<g id="edge14" class="edge">
<title>roo_fonts_material&#45;&gt;roo_display</title>
<path fill="none" stroke="red" d="M199.99,-512.96C216.48,-501.09 238.9,-485.51 259.5,-473 266.8,-468.57 274.7,-464.1 282.45,-459.89"/>
<polygon fill="red" stroke="red" points="284.25,-462.9 291.42,-455.1 280.95,-456.73 284.25,-462.9"/>
<text text-anchor="middle" x="292.5" y="-487" font-family="Times,serif" font-size="10.00" fill="red">3.0.2</text>
<text text-anchor="middle" x="292.5" y="-476" font-family="Times,serif" font-size="10.00" fill="red">(latest: 3.0.3)</text>
</g>
<!-- roo_icons -->
<g id="node11" class="node">
<title>roo_icons</title>
<polygon fill="#b1dbab" stroke="red" points="83,-551 0,-551 0,-513 83,-513 83,-551"/>
<text text-anchor="middle" x="41.5" y="-535.8" font-family="Times,serif" font-size="14.00">roo_icons</text>
<text text-anchor="middle" x="41.5" y="-520.8" font-family="Times,serif" font-size="14.00">1.2.2</text>
</g>
<!-- roo_icons&#45;&gt;roo_display -->
<g id="edge15" class="edge">
<title>roo_icons&#45;&gt;roo_display</title>
<path fill="none" stroke="red" d="M71.44,-512.86C94.25,-499.83 126.86,-482.89 157.5,-473 205.06,-457.65 219.82,-466.32 268.5,-455 268.6,-454.98 268.7,-454.95 268.8,-454.93"/>
<polygon fill="red" stroke="red" points="269.53,-458.36 278.38,-452.53 267.83,-451.57 269.53,-458.36"/>
<text text-anchor="middle" x="190.5" y="-487" font-family="Times,serif" font-size="10.00" fill="red">3.0.2</text>
<text text-anchor="middle" x="190.5" y="-476" font-family="Times,serif" font-size="10.00" fill="red">(latest: 3.0.3)</text>
</g>
<!-- roo_io&#45;&gt;roo_logging -->
<g id="edge16" class="edge">
<title>roo_io&#45;&gt;roo_logging</title>
<path fill="none" stroke="black" d="M509.37,-334.44C560.51,-326.38 668.23,-308.4 768.41,-284.14"/>
<polygon fill="black" stroke="black" points="769.51,-287.47 778.39,-281.69 767.85,-280.67 769.51,-287.47"/>
</g>
<!-- roo_locale -->
<g id="node13" class="node">
<title>roo_locale</title>
<polygon fill="#b1dbab" stroke="black" points="500.5,-551 412.5,-551 412.5,-513 500.5,-513 500.5,-551"/>
<text text-anchor="middle" x="456.5" y="-535.8" font-family="Times,serif" font-size="14.00">roo_locale</text>
<text text-anchor="middle" x="456.5" y="-520.8" font-family="Times,serif" font-size="14.00">1.1.2</text>
</g>
<!-- roo_logging&#45;&gt;roo_backport -->
<g id="edge17" class="edge">
<title>roo_logging&#45;&gt;roo_backport</title>
<path fill="none" stroke="black" d="M778.32,-248.57C775.34,-247.69 772.38,-246.83 769.5,-246 723.09,-232.67 670.46,-218.5 630.29,-207.89"/>
<polygon fill="black" stroke="black" points="631.18,-204.5 620.62,-205.34 629.39,-211.27 631.18,-204.5"/>
</g>
<!-- roo_logging&#45;&gt;roo_flags -->
<g id="edge18" class="edge">
<title>roo_logging&#45;&gt;roo_flags</title>
<path fill="none" stroke="black" d="M826.77,-245.96C826,-237.88 825.06,-228.18 824.2,-219.18"/>
<polygon fill="black" stroke="black" points="827.67,-218.71 823.23,-209.09 820.71,-219.38 827.67,-218.71"/>
</g>
<!-- roo_threads -->
<g id="node22" class="node">
<title>roo_threads</title>
<polygon fill="#b1dbab" stroke="red" points="750,-209 649,-209 649,-171 750,-171 750,-209"/>
<text text-anchor="middle" x="699.5" y="-193.8" font-family="Times,serif" font-size="14.00">roo_threads</text>
<text text-anchor="middle" x="699.5" y="-178.8" font-family="Times,serif" font-size="14.00">1.2.3</text>
</g>
<!-- roo_logging&#45;&gt;roo_threads -->
<g id="edge19" class="edge">
<title>roo_logging&#45;&gt;roo_threads</title>
<path fill="none" stroke="black" d="M796.61,-245.96C779.71,-236.39 758.76,-224.53 740.64,-214.28"/>
<polygon fill="black" stroke="black" points="741.89,-210.97 731.47,-209.09 738.45,-217.06 741.89,-210.97"/>
</g>
<!-- roo_monitoring -->
<g id="node15" class="node">
<title>roo_monitoring</title>
<polygon fill="#b1dbab" stroke="red" points="260,-455 135,-455 135,-417 260,-417 260,-455"/>
<text text-anchor="middle" x="197.5" y="-439.8" font-family="Times,serif" font-size="14.00">roo_monitoring</text>
<text text-anchor="middle" x="197.5" y="-424.8" font-family="Times,serif" font-size="14.00">1.1.1</text>
</g>
<!-- roo_monitoring&#45;&gt;roo_collections -->
<g id="edge20" class="edge">
<title>roo_monitoring&#45;&gt;roo_collections</title>
<path fill="none" stroke="black" d="M216.37,-416.83C230.2,-404.29 249.89,-387.98 269.5,-377 279.01,-371.67 289.46,-366.9 299.92,-362.71"/>
<polygon fill="black" stroke="black" points="301.42,-365.88 309.5,-359.02 298.91,-359.35 301.42,-365.88"/>
</g>
<!-- roo_monitoring&#45;&gt;roo_io -->
<g id="edge21" class="edge">
<title>roo_monitoring&#45;&gt;roo_io</title>
<path fill="none" stroke="black" d="M256.58,-416.96C322.75,-396.68 423.07,-365.71 440.5,-359 440.6,-358.96 440.69,-358.93 440.79,-358.89"/>
<polygon fill="black" stroke="black" points="441.94,-362.2 449.86,-355.16 439.28,-355.72 441.94,-362.2"/>
</g>
<!-- roo_onewire -->
<g id="node16" class="node">
<title>roo_onewire</title>
<polygon fill="#b1dbab" stroke="red" points="762.5,-551 658.5,-551 658.5,-513 762.5,-513 762.5,-551"/>
<text text-anchor="middle" x="710.5" y="-535.8" font-family="Times,serif" font-size="14.00">roo_onewire</text>
<text text-anchor="middle" x="710.5" y="-520.8" font-family="Times,serif" font-size="14.00">2.0.9</text>
</g>
<!-- roo_onewire&#45;&gt;roo_quantity -->
<g id="edge23" class="edge">
<title>roo_onewire&#45;&gt;roo_quantity</title>
<path fill="none" stroke="black" d="M723.23,-512.88C733.09,-498.83 746.89,-479.17 757.98,-463.38"/>
<polygon fill="black" stroke="black" points="760.93,-465.26 763.81,-455.07 755.2,-461.24 760.93,-465.26"/>
</g>
<!-- roo_onewire&#45;&gt;roo_scheduler -->
<g id="edge22" class="edge">
<title>roo_onewire&#45;&gt;roo_scheduler</title>
<path fill="none" stroke="black" d="M698.16,-512.88C688.6,-498.83 675.21,-479.17 664.46,-463.38"/>
<polygon fill="black" stroke="black" points="667.32,-461.36 658.8,-455.07 661.54,-465.3 667.32,-461.36"/>
</g>
<!-- roo_powersafefs -->
<g id="node17" class="node">
<title>roo_powersafefs</title>
<polygon fill="khaki" stroke="red" points="760,-284 627,-284 627,-246 760,-246 760,-284"/>
<text text-anchor="middle" x="693.5" y="-268.8" font-family="Times,serif" font-size="14.00">roo_powersafefs</text>
<text text-anchor="middle" x="693.5" y="-253.8" font-family="Times,serif" font-size="14.00">1.0.1</text>
</g>
<!-- roo_powersafefs&#45;&gt;roo_threads -->
<g id="edge24" class="edge">
<title>roo_powersafefs&#45;&gt;roo_threads</title>
<path fill="none" stroke="black" d="M694.98,-245.96C695.65,-237.88 696.44,-228.18 697.18,-219.18"/>
<polygon fill="black" stroke="black" points="700.68,-219.34 698.01,-209.09 693.71,-218.77 700.68,-219.34"/>
</g>
<!-- roo_prefs -->
<g id="node18" class="node">
<title>roo_prefs</title>
<polygon fill="#b1dbab" stroke="red" points="864,-551 781,-551 781,-513 864,-513 864,-551"/>
<text text-anchor="middle" x="822.5" y="-535.8" font-family="Times,serif" font-size="14.00">roo_prefs</text>
<text text-anchor="middle" x="822.5" y="-520.8" font-family="Times,serif" font-size="14.00">1.2.10</text>
</g>
<!-- roo_prefs&#45;&gt;roo_logging -->
<g id="edge25" class="edge">
<title>roo_prefs&#45;&gt;roo_logging</title>
<path fill="none" stroke="black" d="M827.77,-512.76C831.89,-497.48 837.29,-475.02 839.5,-455 845.79,-398.06 838.42,-331.04 833.07,-294.07"/>
<polygon fill="black" stroke="black" points="836.51,-293.4 831.56,-284.03 829.59,-294.44 836.51,-293.4"/>
</g>
<!-- roo_prefs&#45;&gt;roo_scheduler -->
<g id="edge26" class="edge">
<title>roo_prefs&#45;&gt;roo_scheduler</title>
<path fill="none" stroke="black" d="M788.57,-512.88C760.32,-497.79 719.95,-476.23 689.45,-459.94"/>
<polygon fill="black" stroke="black" points="690.8,-456.69 680.33,-455.07 687.5,-462.87 690.8,-456.69"/>
</g>
<!-- roo_quantity&#45;&gt;roo_logging -->
<g id="edge27" class="edge">
<title>roo_quantity&#45;&gt;roo_logging</title>
<path fill="none" stroke="black" d="M782.06,-416.91C791.15,-387.39 809.23,-328.63 819.95,-293.78"/>
<polygon fill="black" stroke="black" points="823.3,-294.8 822.9,-284.21 816.61,-292.74 823.3,-294.8"/>
</g>
<!-- roo_scheduler&#45;&gt;roo_collections -->
<g id="edge28" class="edge">
<title>roo_scheduler&#45;&gt;roo_collections</title>
<path fill="none" stroke="black" d="M588.04,-427.38C538.95,-420.42 473.02,-409.64 448.5,-399 429.87,-390.91 411.51,-377.6 397.29,-365.78"/>
<polygon fill="black" stroke="black" points="399.3,-362.88 389.43,-359.03 394.74,-368.2 399.3,-362.88"/>
</g>
<!-- roo_scheduler&#45;&gt;roo_threads -->
<g id="edge29" class="edge">
<title>roo_scheduler&#45;&gt;roo_threads</title>
<path fill="none" stroke="black" d="M636.94,-416.85C619.83,-381.67 588.45,-302.72 618.5,-246 625.29,-233.19 636.54,-222.81 648.54,-214.66"/>
<polygon fill="black" stroke="black" points="650.75,-217.41 657.35,-209.12 647.02,-211.48 650.75,-217.41"/>
</g>
<!-- roo_testing -->
<g id="node21" class="node">
<title>roo_testing</title>
<polygon fill="#b1dbab" stroke="black" points="872,-38 775,-38 775,0 872,0 872,-38"/>
<text text-anchor="middle" x="823.5" y="-22.8" font-family="Times,serif" font-size="14.00">roo_testing</text>
<text text-anchor="middle" x="823.5" y="-7.8" font-family="Times,serif" font-size="14.00">1.3.5</text>
</g>
<!-- roo_time -->
<g id="node23" class="node">
<title>roo_time</title>
<polygon fill="#b1dbab" stroke="red" points="863,-134 784,-134 784,-96 863,-96 863,-134"/>
<text text-anchor="middle" x="823.5" y="-118.8" font-family="Times,serif" font-size="14.00">roo_time</text>
<text text-anchor="middle" x="823.5" y="-103.8" font-family="Times,serif" font-size="14.00">1.4.3</text>
</g>
<!-- roo_threads&#45;&gt;roo_time -->
<g id="edge30" class="edge">
<title>roo_threads&#45;&gt;roo_time</title>
<path fill="none" stroke="black" d="M730.15,-170.96C746.4,-161.39 766.54,-149.53 783.95,-139.28"/>
<polygon fill="black" stroke="black" points="785.93,-142.18 792.77,-134.09 782.38,-136.15 785.93,-142.18"/>
</g>
<!-- roo_time&#45;&gt;roo_testing -->
<g id="edge31" class="edge">
<title>roo_time&#45;&gt;roo_testing</title>
<path fill="none" stroke="red" d="M823.5,-95.88C823.5,-82.35 823.5,-63.62 823.5,-48.15"/>
<polygon fill="red" stroke="red" points="827,-48.07 823.5,-38.07 820,-48.07 827,-48.07"/>
<text text-anchor="middle" x="856.5" y="-70" font-family="Times,serif" font-size="10.00" fill="red">1.3.2</text>
<text text-anchor="middle" x="856.5" y="-59" font-family="Times,serif" font-size="10.00" fill="red">(latest: 1.3.5)</text>
</g>
<!-- roo_time_ds3231 -->
<g id="node24" class="node">
<title>roo_time_ds3231</title>
<polygon fill="#b1dbab" stroke="red" points="1017.5,-209 879.5,-209 879.5,-171 1017.5,-171 1017.5,-209"/>
<text text-anchor="middle" x="948.5" y="-193.8" font-family="Times,serif" font-size="14.00">roo_time_ds3231</text>
<text text-anchor="middle" x="948.5" y="-178.8" font-family="Times,serif" font-size="14.00">1.1.6</text>
</g>
<!-- roo_time_ds3231&#45;&gt;roo_time -->
<g id="edge32" class="edge">
<title>roo_time_ds3231&#45;&gt;roo_time</title>
<path fill="none" stroke="black" d="M917.6,-170.96C901.22,-161.39 880.92,-149.53 863.37,-139.28"/>
<polygon fill="black" stroke="black" points="864.88,-136.11 854.48,-134.09 861.35,-142.16 864.88,-136.11"/>
</g>
<!-- roo_transceivers&#45;&gt;roo_prefs -->
<g id="edge33" class="edge">
<title>roo_transceivers&#45;&gt;roo_prefs</title>
<path fill="none" stroke="black" d="M824.92,-608.88C824.49,-595.35 823.89,-576.62 823.4,-561.15"/>
<polygon fill="black" stroke="black" points="826.89,-560.95 823.08,-551.07 819.9,-561.18 826.89,-560.95"/>
</g>
<!-- roo_transport -->
<g id="node26" class="node">
<title>roo_transport</title>
<polygon fill="#b1dbab" stroke="red" points="508.5,-455 394.5,-455 394.5,-417 508.5,-417 508.5,-455"/>
<text text-anchor="middle" x="451.5" y="-439.8" font-family="Times,serif" font-size="14.00">roo_transport</text>
<text text-anchor="middle" x="451.5" y="-424.8" font-family="Times,serif" font-size="14.00">1.1.2</text>
</g>
<!-- roo_transport&#45;&gt;roo_collections -->
<g id="edge34" class="edge">
<title>roo_transport&#45;&gt;roo_collections</title>
<path fill="none" stroke="black" d="M424.76,-416.72C418.04,-411.44 411.15,-405.38 405.5,-399 397.32,-389.77 389.97,-378.36 384.14,-368.12"/>
<polygon fill="black" stroke="black" points="387.1,-366.23 379.23,-359.13 380.95,-369.58 387.1,-366.23"/>
</g>
<!-- roo_transport&#45;&gt;roo_io -->
<g id="edge35" class="edge">
<title>roo_transport&#45;&gt;roo_io</title>
<path fill="none" stroke="red" d="M450.86,-416.78C450.98,-405.11 452.15,-389.82 456.5,-377 457.52,-374.01 458.83,-371.01 460.32,-368.1"/>
<polygon fill="red" stroke="red" points="463.5,-369.58 465.5,-359.18 457.45,-366.07 463.5,-369.58"/>
<text text-anchor="middle" x="489.5" y="-391" font-family="Times,serif" font-size="10.00" fill="red">2.1.5</text>
<text text-anchor="middle" x="489.5" y="-380" font-family="Times,serif" font-size="10.00" fill="red">(latest: 2.1.6)</text>
</g>
<!-- roo_wifi -->
<g id="node27" class="node">
<title>roo_wifi</title>
<polygon fill="khaki" stroke="red" points="739.5,-647 667.5,-647 667.5,-609 739.5,-609 739.5,-647"/>
<text text-anchor="middle" x="703.5" y="-631.8" font-family="Times,serif" font-size="14.00">roo_wifi</text>
<text text-anchor="middle" x="703.5" y="-616.8" font-family="Times,serif" font-size="14.00">1.1.4</text>
</g>
<!-- roo_wifi&#45;&gt;roo_prefs -->
<g id="edge36" class="edge">
<title>roo_wifi&#45;&gt;roo_prefs</title>
<path fill="none" stroke="red" d="M713.97,-608.96C721.92,-596.49 733.79,-580.19 747.5,-569 754.73,-563.1 763.09,-557.88 771.55,-553.38"/>
<polygon fill="red" stroke="red" points="773.35,-556.39 780.71,-548.78 770.21,-550.14 773.35,-556.39"/>
<text text-anchor="middle" x="783.5" y="-583" font-family="Times,serif" font-size="10.00" fill="red">1.2.9</text>
<text text-anchor="middle" x="783.5" y="-572" font-family="Times,serif" font-size="10.00" fill="red">(latest: 1.2.10)</text>
</g>
<!-- roo_windows&#45;&gt;roo_fonts_basic -->
<g id="edge37" class="edge">
<title>roo_windows&#45;&gt;roo_fonts_basic</title>
<path fill="none" stroke="black" d="M347.64,-608.88C344.77,-595.35 340.78,-576.62 337.49,-561.15"/>
<polygon fill="black" stroke="black" points="340.85,-560.12 335.34,-551.07 334,-561.58 340.85,-560.12"/>
</g>
<!-- roo_windows&#45;&gt;roo_fonts_material -->
<g id="edge38" class="edge">
<title>roo_windows&#45;&gt;roo_fonts_material</title>
<path fill="none" stroke="black" d="M317.57,-608.88C289.32,-593.79 248.95,-572.23 218.45,-555.94"/>
<polygon fill="black" stroke="black" points="219.8,-552.69 209.33,-551.07 216.5,-558.87 219.8,-552.69"/>
</g>
<!-- roo_windows&#45;&gt;roo_icons -->
<g id="edge40" class="edge">
<title>roo_windows&#45;&gt;roo_icons</title>
<path fill="none" stroke="black" d="M296.92,-612.1C246.27,-598.03 168.62,-575.86 92.88,-551.37"/>
<polygon fill="black" stroke="black" points="93.77,-547.98 83.18,-548.22 91.6,-554.64 93.77,-547.98"/>
</g>
<!-- roo_windows&#45;&gt;roo_locale -->
<g id="edge39" class="edge">
<title>roo_windows&#45;&gt;roo_locale</title>
<path fill="none" stroke="black" d="M371.75,-608.88C387.87,-594.44 410.62,-574.07 428.49,-558.07"/>
<polygon fill="black" stroke="black" points="431.2,-560.35 436.32,-551.07 426.53,-555.13 431.2,-560.35"/>
</g>
<!-- roo_windows&#45;&gt;roo_scheduler -->
<g id="edge41" class="edge">
<title>roo_windows&#45;&gt;roo_scheduler</title>
<path fill="none" stroke="black" d="M406.17,-624.79C463.25,-619.61 551.92,-603.04 606.5,-551 630.25,-528.36 639.91,-490.82 643.83,-465.04"/>
<polygon fill="black" stroke="black" points="647.3,-465.5 645.15,-455.13 640.36,-464.58 647.3,-465.5"/>
</g>
<!-- roo_windows_transceivers -->
<g id="node29" class="node">
<title>roo_windows_transceivers</title>
<polygon fill="khaki" stroke="red" points="713.5,-743 509.5,-743 509.5,-705 713.5,-705 713.5,-743"/>
<text text-anchor="middle" x="611.5" y="-727.8" font-family="Times,serif" font-size="14.00">roo_windows_transceivers</text>
<text text-anchor="middle" x="611.5" y="-712.8" font-family="Times,serif" font-size="14.00">1.0.0</text>
</g>
<!-- roo_windows_transceivers&#45;&gt;roo_transceivers -->
<g id="edge42" class="edge">
<title>roo_windows_transceivers&#45;&gt;roo_transceivers</title>
<path fill="none" stroke="black" d="M652.51,-704.99C687.42,-689.65 737.7,-667.57 775.06,-651.15"/>
<polygon fill="black" stroke="black" points="776.52,-654.34 784.27,-647.11 773.7,-647.93 776.52,-654.34"/>
</g>
<!-- roo_windows_transceivers&#45;&gt;roo_windows -->
<g id="edge43" class="edge">
<title>roo_windows_transceivers&#45;&gt;roo_windows</title>
<path fill="none" stroke="red" d="M585.46,-704.92C565.9,-692.11 538.03,-675.4 511.5,-665 481.01,-653.05 445.63,-644.58 415.9,-638.86"/>
<polygon fill="red" stroke="red" points="416.52,-635.42 406.05,-637.03 415.24,-642.3 416.52,-635.42"/>
<text text-anchor="middle" x="586.5" y="-679" font-family="Times,serif" font-size="10.00" fill="red">1.4.2</text>
<text text-anchor="middle" x="586.5" y="-668" font-family="Times,serif" font-size="10.00" fill="red">(latest: 1.5.0)</text>
</g>
<!-- roo_windows_wifi -->
<g id="node30" class="node">
<title>roo_windows_wifi</title>
<polygon fill="khaki" stroke="red" points="489,-743 348,-743 348,-705 489,-705 489,-743"/>
<text text-anchor="middle" x="418.5" y="-727.8" font-family="Times,serif" font-size="14.00">roo_windows_wifi</text>
<text text-anchor="middle" x="418.5" y="-712.8" font-family="Times,serif" font-size="14.00">1.1.3</text>
</g>
<!-- roo_windows_wifi&#45;&gt;roo_wifi -->
<g id="edge44" class="edge">
<title>roo_windows_wifi&#45;&gt;roo_wifi</title>
<path fill="none" stroke="red" d="M420.81,-704.94C423.48,-691.77 429.22,-674.62 441.5,-665 474.08,-639.45 590.79,-632.04 656.92,-629.88"/>
<polygon fill="red" stroke="red" points="657.19,-633.37 667.08,-629.58 656.98,-626.38 657.19,-633.37"/>
<text text-anchor="middle" x="474.5" y="-679" font-family="Times,serif" font-size="10.00" fill="red">1.1.3</text>
<text text-anchor="middle" x="474.5" y="-668" font-family="Times,serif" font-size="10.00" fill="red">(latest: 1.1.4)</text>
</g>
<!-- roo_windows_wifi&#45;&gt;roo_windows -->
<g id="edge45" class="edge">
<title>roo_windows_wifi&#45;&gt;roo_windows</title>
<path fill="none" stroke="red" d="M374.64,-704.83C367.53,-700.04 361.03,-694.15 356.5,-687 350.95,-678.26 349.05,-667.23 348.75,-657.14"/>
<polygon fill="red" stroke="red" points="352.25,-657.17 348.95,-647.1 345.25,-657.03 352.25,-657.17"/>
<text text-anchor="middle" x="389.5" y="-679" font-family="Times,serif" font-size="10.00" fill="red">1.4.2</text>
<text text-anchor="middle" x="389.5" y="-668" font-family="Times,serif" font-size="10.00" fill="red">(latest: 1.5.0)</text>
</g>
</g>
</svg>
