<?xml version="1.0" encoding="UTF-8" standalone="no"?>
<!DOCTYPE svg PUBLIC "-//W3C//DTD SVG 1.1//EN"
 "http://www.w3.org/Graphics/SVG/1.1/DTD/svg11.dtd">
<!-- Generated by graphviz version 2.42.4 (0)
 -->
<!-- Title: dependencies Pages: 1 -->
<svg width="805pt" height="767pt"
 viewBox="0.00 0.00 805.00 767.00" xmlns="http://www.w3.org/2000/svg" xmlns:xlink="http://www.w3.org/1999/xlink">
<g id="graph0" class="graph" transform="scale(1 1) rotate(0) translate(4 763)">
<title>dependencies</title>
<polygon fill="white" stroke="transparent" points="-4,4 -4,-763 801,-763 801,4 -4,4"/>
<!-- roo_backport -->
<g id="node1" class="node">
<title>roo_backport</title>
<polygon fill="#b1dbab" stroke="black" points="482,-188 372,-188 372,-150 482,-150 482,-188"/>
<text text-anchor="middle" x="427" y="-172.8" font-family="Times,serif" font-size="14.00">roo_backport</text>
<text text-anchor="middle" x="427" y="-157.8" font-family="Times,serif" font-size="14.00">1.2.0</text>
</g>
<!-- roo_blink -->
<g id="node2" class="node">
<title>roo_blink</title>
<polygon fill="plum" stroke="red" points="82,-455 0,-455 0,-417 82,-417 82,-455"/>
<text text-anchor="middle" x="41" y="-439.8" font-family="Times,serif" font-size="14.00">roo_blink</text>
<text text-anchor="middle" x="41" y="-424.8" font-family="Times,serif" font-size="14.00">1.0.4</text>
</g>
<!-- roo_logging -->
<g id="node12" class="node">
<title>roo_logging</title>
<polygon fill="#b1dbab" stroke="black" points="364,-263 264,-263 264,-225 364,-225 364,-263"/>
<text text-anchor="middle" x="314" y="-247.8" font-family="Times,serif" font-size="14.00">roo_logging</text>
<text text-anchor="middle" x="314" y="-232.8" font-family="Times,serif" font-size="14.00">1.5.2</text>
</g>
<!-- roo_blink&#45;&gt;roo_logging -->
<g id="edge1" class="edge">
<title>roo_blink&#45;&gt;roo_logging</title>
<path fill="none" stroke="red" d="M39.57,-416.64C38.67,-392.13 40.71,-348.6 63,-321 108.69,-264.45 195.02,-248.88 253.53,-245.16"/>
<polygon fill="red" stroke="red" points="253.95,-248.65 263.75,-244.62 253.58,-241.66 253.95,-248.65"/>
<text text-anchor="middle" x="96" y="-343" font-family="Times,serif" font-size="10.00" fill="red">1.5.1</text>
<text text-anchor="middle" x="96" y="-332" font-family="Times,serif" font-size="10.00" fill="red">(latest: 1.5.2)</text>
</g>
<!-- roo_scheduler -->
<g id="node16" class="node">
<title>roo_scheduler</title>
<polygon fill="#b1dbab" stroke="black" points="336,-359 220,-359 220,-321 336,-321 336,-359"/>
<text text-anchor="middle" x="278" y="-343.8" font-family="Times,serif" font-size="14.00">roo_scheduler</text>
<text text-anchor="middle" x="278" y="-328.8" font-family="Times,serif" font-size="14.00">2.1.6</text>
</g>
<!-- roo_blink&#45;&gt;roo_scheduler -->
<g id="edge2" class="edge">
<title>roo_blink&#45;&gt;roo_scheduler</title>
<path fill="none" stroke="black" d="M82.01,-418.73C120.93,-403.3 179.72,-379.98 222.75,-362.91"/>
<polygon fill="black" stroke="black" points="224.23,-366.09 232.23,-359.15 221.65,-359.59 224.23,-366.09"/>
</g>
<!-- roo_collections -->
<g id="node3" class="node">
<title>roo_collections</title>
<polygon fill="#b1dbab" stroke="black" points="628,-263 506,-263 506,-225 628,-225 628,-263"/>
<text text-anchor="middle" x="567" y="-247.8" font-family="Times,serif" font-size="14.00">roo_collections</text>
<text text-anchor="middle" x="567" y="-232.8" font-family="Times,serif" font-size="14.00">1.4.0</text>
</g>
<!-- roo_collections&#45;&gt;roo_backport -->
<g id="edge3" class="edge">
<title>roo_collections&#45;&gt;roo_backport</title>
<path fill="none" stroke="black" d="M532.39,-224.96C513.72,-215.22 490.47,-203.1 470.57,-192.72"/>
<polygon fill="black" stroke="black" points="472.18,-189.61 461.69,-188.09 468.94,-195.82 472.18,-189.61"/>
</g>
<!-- roo_comms -->
<g id="node4" class="node">
<title>roo_comms</title>
<polygon fill="plum" stroke="red" points="401.5,-663 304.5,-663 304.5,-625 401.5,-625 401.5,-663"/>
<text text-anchor="middle" x="353" y="-647.8" font-family="Times,serif" font-size="14.00">roo_comms</text>
<text text-anchor="middle" x="353" y="-632.8" font-family="Times,serif" font-size="14.00">1.1.3</text>
</g>
<!-- roo_comms&#45;&gt;roo_blink -->
<g id="edge4" class="edge">
<title>roo_comms&#45;&gt;roo_blink</title>
<path fill="none" stroke="black" d="M316.17,-624.9C281.65,-607.44 229.05,-579.51 186,-551 143.72,-523 98.26,-486.02 69.73,-461.88"/>
<polygon fill="black" stroke="black" points="71.68,-458.94 61.8,-455.13 67.15,-464.27 71.68,-458.94"/>
</g>
<!-- roo_control -->
<g id="node5" class="node">
<title>roo_control</title>
<polygon fill="plum" stroke="red" points="298.5,-455 201.5,-455 201.5,-417 298.5,-417 298.5,-455"/>
<text text-anchor="middle" x="250" y="-439.8" font-family="Times,serif" font-size="14.00">roo_control</text>
<text text-anchor="middle" x="250" y="-424.8" font-family="Times,serif" font-size="14.00">1.2.3</text>
</g>
<!-- roo_comms&#45;&gt;roo_control -->
<g id="edge5" class="edge">
<title>roo_comms&#45;&gt;roo_control</title>
<path fill="none" stroke="black" d="M355.07,-624.98C357.25,-598.73 358.07,-549.14 339,-513 327.83,-491.84 308.11,-474.07 290.07,-461.05"/>
<polygon fill="black" stroke="black" points="291.61,-457.85 281.39,-455.04 287.62,-463.61 291.61,-457.85"/>
</g>
<!-- roo_io -->
<g id="node10" class="node">
<title>roo_io</title>
<polygon fill="plum" stroke="red" points="538.5,-359 479.5,-359 479.5,-321 538.5,-321 538.5,-359"/>
<text text-anchor="middle" x="509" y="-343.8" font-family="Times,serif" font-size="14.00">roo_io</text>
<text text-anchor="middle" x="509" y="-328.8" font-family="Times,serif" font-size="14.00">2.1.1</text>
</g>
<!-- roo_comms&#45;&gt;roo_io -->
<g id="edge6" class="edge">
<title>roo_comms&#45;&gt;roo_io</title>
<path fill="none" stroke="black" d="M362.52,-624.56C389.02,-573.26 463.71,-428.67 494.97,-368.16"/>
<polygon fill="black" stroke="black" points="498.12,-369.69 499.6,-359.2 491.9,-366.47 498.12,-369.69"/>
</g>
<!-- roo_transceivers -->
<g id="node21" class="node">
<title>roo_transceivers</title>
<polygon fill="plum" stroke="red" points="330.5,-551 195.5,-551 195.5,-513 330.5,-513 330.5,-551"/>
<text text-anchor="middle" x="263" y="-535.8" font-family="Times,serif" font-size="14.00">roo_transceivers</text>
<text text-anchor="middle" x="263" y="-520.8" font-family="Times,serif" font-size="14.00">1.1.4</text>
</g>
<!-- roo_comms&#45;&gt;roo_transceivers -->
<g id="edge7" class="edge">
<title>roo_comms&#45;&gt;roo_transceivers</title>
<path fill="none" stroke="black" d="M338.14,-624.84C323.48,-606.92 300.93,-579.36 284.36,-559.1"/>
<polygon fill="black" stroke="black" points="286.93,-556.71 277.88,-551.19 281.51,-561.15 286.93,-556.71"/>
</g>
<!-- roo_quantity -->
<g id="node15" class="node">
<title>roo_quantity</title>
<polygon fill="#b1dbab" stroke="black" points="461.5,-359 354.5,-359 354.5,-321 461.5,-321 461.5,-359"/>
<text text-anchor="middle" x="408" y="-343.8" font-family="Times,serif" font-size="14.00">roo_quantity</text>
<text text-anchor="middle" x="408" y="-328.8" font-family="Times,serif" font-size="14.00">1.1.6</text>
</g>
<!-- roo_control&#45;&gt;roo_quantity -->
<g id="edge8" class="edge">
<title>roo_control&#45;&gt;roo_quantity</title>
<path fill="none" stroke="red" d="M266.82,-416.87C279.19,-404.36 296.94,-388.05 315,-377 324.27,-371.33 334.59,-366.27 344.88,-361.87"/>
<polygon fill="red" stroke="red" points="346.37,-365.05 354.3,-358.02 343.72,-358.57 346.37,-365.05"/>
<text text-anchor="middle" x="348" y="-391" font-family="Times,serif" font-size="10.00" fill="red">1.1.5</text>
<text text-anchor="middle" x="348" y="-380" font-family="Times,serif" font-size="10.00" fill="red">(latest: 1.1.6)</text>
</g>
<!-- roo_control&#45;&gt;roo_scheduler -->
<g id="edge9" class="edge">
<title>roo_control&#45;&gt;roo_scheduler</title>
<path fill="none" stroke="black" d="M238.61,-416.92C232.74,-405.18 227.96,-389.74 234,-377 235.76,-373.29 238.1,-369.84 240.8,-366.66"/>
<polygon fill="black" stroke="black" points="243.53,-368.87 248.1,-359.31 238.57,-363.94 243.53,-368.87"/>
</g>
<!-- roo_dashboard -->
<g id="node6" class="node">
<title>roo_dashboard</title>
<polygon fill="plum" stroke="red" points="568,-759 446,-759 446,-721 568,-721 568,-759"/>
<text text-anchor="middle" x="507" y="-743.8" font-family="Times,serif" font-size="14.00">roo_dashboard</text>
<text text-anchor="middle" x="507" y="-728.8" font-family="Times,serif" font-size="14.00">1.0.1</text>
</g>
<!-- roo_windows -->
<g id="node24" class="node">
<title>roo_windows</title>
<polygon fill="plum" stroke="red" points="561.5,-663 452.5,-663 452.5,-625 561.5,-625 561.5,-663"/>
<text text-anchor="middle" x="507" y="-647.8" font-family="Times,serif" font-size="14.00">roo_windows</text>
<text text-anchor="middle" x="507" y="-632.8" font-family="Times,serif" font-size="14.00">1.4.1</text>
</g>
<!-- roo_dashboard&#45;&gt;roo_windows -->
<g id="edge10" class="edge">
<title>roo_dashboard&#45;&gt;roo_windows</title>
<path fill="none" stroke="black" d="M507,-720.88C507,-707.35 507,-688.62 507,-673.15"/>
<polygon fill="black" stroke="black" points="510.5,-673.07 507,-663.07 503.5,-673.07 510.5,-673.07"/>
</g>
<!-- roo_display -->
<g id="node7" class="node">
<title>roo_display</title>
<polygon fill="plum" stroke="red" points="745,-455 647,-455 647,-417 745,-417 745,-455"/>
<text text-anchor="middle" x="696" y="-439.8" font-family="Times,serif" font-size="14.00">roo_display</text>
<text text-anchor="middle" x="696" y="-424.8" font-family="Times,serif" font-size="14.00">2.3.1</text>
</g>
<!-- roo_display&#45;&gt;roo_collections -->
<g id="edge11" class="edge">
<title>roo_display&#45;&gt;roo_collections</title>
<path fill="none" stroke="red" d="M708.58,-416.65C723.13,-392.91 742.84,-351.04 724,-321 704.98,-290.66 670.02,-272.13 637.92,-260.98"/>
<polygon fill="red" stroke="red" points="638.66,-257.54 628.07,-257.75 636.48,-264.19 638.66,-257.54"/>
<text text-anchor="middle" x="764" y="-343" font-family="Times,serif" font-size="10.00" fill="red">1.3.2</text>
<text text-anchor="middle" x="764" y="-332" font-family="Times,serif" font-size="10.00" fill="red">(latest: 1.4.0)</text>
</g>
<!-- roo_display&#45;&gt;roo_io -->
<g id="edge12" class="edge">
<title>roo_display&#45;&gt;roo_io</title>
<path fill="none" stroke="red" d="M659.94,-416.88C627.87,-400.75 581.08,-377.23 548.12,-360.66"/>
<polygon fill="red" stroke="red" points="549.29,-357.34 538.79,-355.97 546.15,-363.59 549.29,-357.34"/>
<text text-anchor="middle" x="652" y="-391" font-family="Times,serif" font-size="10.00" fill="red">2.0.2</text>
<text text-anchor="middle" x="652" y="-380" font-family="Times,serif" font-size="10.00" fill="red">(latest: 2.1.1)</text>
</g>
<!-- roo_flags -->
<g id="node8" class="node">
<title>roo_flags</title>
<polygon fill="#b1dbab" stroke="black" points="354,-188 274,-188 274,-150 354,-150 354,-188"/>
<text text-anchor="middle" x="314" y="-172.8" font-family="Times,serif" font-size="14.00">roo_flags</text>
<text text-anchor="middle" x="314" y="-157.8" font-family="Times,serif" font-size="14.00">1.2.0</text>
</g>
<!-- roo_icons -->
<g id="node9" class="node">
<title>roo_icons</title>
<polygon fill="plum" stroke="red" points="720.5,-551 637.5,-551 637.5,-513 720.5,-513 720.5,-551"/>
<text text-anchor="middle" x="679" y="-535.8" font-family="Times,serif" font-size="14.00">roo_icons</text>
<text text-anchor="middle" x="679" y="-520.8" font-family="Times,serif" font-size="14.00">1.2.1</text>
</g>
<!-- roo_icons&#45;&gt;roo_display -->
<g id="edge13" class="edge">
<title>roo_icons&#45;&gt;roo_display</title>
<path fill="none" stroke="black" d="M682.28,-512.88C684.72,-499.35 688.11,-480.62 690.91,-465.15"/>
<polygon fill="black" stroke="black" points="694.4,-465.53 692.73,-455.07 687.51,-464.29 694.4,-465.53"/>
</g>
<!-- roo_io&#45;&gt;roo_logging -->
<g id="edge14" class="edge">
<title>roo_io&#45;&gt;roo_logging</title>
<path fill="none" stroke="red" d="M479.38,-324.72C447.85,-309.52 397.52,-285.26 360.66,-267.49"/>
<polygon fill="red" stroke="red" points="362.12,-264.31 351.6,-263.12 359.08,-270.62 362.12,-264.31"/>
<text text-anchor="middle" x="462" y="-295" font-family="Times,serif" font-size="10.00" fill="red">1.5.1</text>
<text text-anchor="middle" x="462" y="-284" font-family="Times,serif" font-size="10.00" fill="red">(latest: 1.5.2)</text>
</g>
<!-- roo_locale -->
<g id="node11" class="node">
<title>roo_locale</title>
<polygon fill="#b1dbab" stroke="black" points="603,-551 515,-551 515,-513 603,-513 603,-551"/>
<text text-anchor="middle" x="559" y="-535.8" font-family="Times,serif" font-size="14.00">roo_locale</text>
<text text-anchor="middle" x="559" y="-520.8" font-family="Times,serif" font-size="14.00">1.1.1</text>
</g>
<!-- roo_logging&#45;&gt;roo_backport -->
<g id="edge15" class="edge">
<title>roo_logging&#45;&gt;roo_backport</title>
<path fill="none" stroke="black" d="M341.93,-224.96C356.6,-215.48 374.76,-203.75 390.52,-193.57"/>
<polygon fill="black" stroke="black" points="392.5,-196.46 399,-188.09 388.7,-190.58 392.5,-196.46"/>
</g>
<!-- roo_logging&#45;&gt;roo_flags -->
<g id="edge16" class="edge">
<title>roo_logging&#45;&gt;roo_flags</title>
<path fill="none" stroke="black" d="M314,-224.96C314,-216.88 314,-207.18 314,-198.18"/>
<polygon fill="black" stroke="black" points="317.5,-198.09 314,-188.09 310.5,-198.09 317.5,-198.09"/>
</g>
<!-- roo_threads -->
<g id="node18" class="node">
<title>roo_threads</title>
<polygon fill="#b1dbab" stroke="black" points="255.5,-188 154.5,-188 154.5,-150 255.5,-150 255.5,-188"/>
<text text-anchor="middle" x="205" y="-172.8" font-family="Times,serif" font-size="14.00">roo_threads</text>
<text text-anchor="middle" x="205" y="-157.8" font-family="Times,serif" font-size="14.00">1.2.0</text>
</g>
<!-- roo_logging&#45;&gt;roo_threads -->
<g id="edge17" class="edge">
<title>roo_logging&#45;&gt;roo_threads</title>
<path fill="none" stroke="black" d="M287.06,-224.96C273.04,-215.57 255.72,-203.97 240.61,-193.85"/>
<polygon fill="black" stroke="black" points="242.27,-190.75 232.01,-188.09 238.37,-196.56 242.27,-190.75"/>
</g>
<!-- roo_onewire -->
<g id="node13" class="node">
<title>roo_onewire</title>
<polygon fill="plum" stroke="red" points="421,-455 317,-455 317,-417 421,-417 421,-455"/>
<text text-anchor="middle" x="369" y="-439.8" font-family="Times,serif" font-size="14.00">roo_onewire</text>
<text text-anchor="middle" x="369" y="-424.8" font-family="Times,serif" font-size="14.00">2.0.7</text>
</g>
<!-- roo_onewire&#45;&gt;roo_quantity -->
<g id="edge19" class="edge">
<title>roo_onewire&#45;&gt;roo_quantity</title>
<path fill="none" stroke="red" d="M376.45,-416.97C381.18,-405.52 387.44,-390.39 393,-377 394.12,-374.3 395.29,-371.49 396.46,-368.69"/>
<polygon fill="red" stroke="red" points="399.75,-369.89 400.36,-359.31 393.28,-367.2 399.75,-369.89"/>
<text text-anchor="middle" x="426" y="-391" font-family="Times,serif" font-size="10.00" fill="red">1.1.5</text>
<text text-anchor="middle" x="426" y="-380" font-family="Times,serif" font-size="10.00" fill="red">(latest: 1.1.6)</text>
</g>
<!-- roo_onewire&#45;&gt;roo_scheduler -->
<g id="edge18" class="edge">
<title>roo_onewire&#45;&gt;roo_scheduler</title>
<path fill="none" stroke="black" d="M354.91,-416.84C345.48,-405.07 332.54,-389.63 320,-377 316.29,-373.26 312.24,-369.47 308.17,-365.83"/>
<polygon fill="black" stroke="black" points="310.23,-362.98 300.39,-359.04 305.63,-368.26 310.23,-362.98"/>
</g>
<!-- roo_prefs -->
<g id="node14" class="node">
<title>roo_prefs</title>
<polygon fill="plum" stroke="red" points="183.5,-455 100.5,-455 100.5,-417 183.5,-417 183.5,-455"/>
<text text-anchor="middle" x="142" y="-439.8" font-family="Times,serif" font-size="14.00">roo_prefs</text>
<text text-anchor="middle" x="142" y="-424.8" font-family="Times,serif" font-size="14.00">1.2.7</text>
</g>
<!-- roo_prefs&#45;&gt;roo_logging -->
<g id="edge20" class="edge">
<title>roo_prefs&#45;&gt;roo_logging</title>
<path fill="none" stroke="red" d="M136.95,-416.65C131.45,-392.52 125.8,-349.84 145,-321 169.3,-284.49 215.64,-265.32 253.66,-255.36"/>
<polygon fill="red" stroke="red" points="254.75,-258.7 263.63,-252.91 253.08,-251.9 254.75,-258.7"/>
<text text-anchor="middle" x="178" y="-343" font-family="Times,serif" font-size="10.00" fill="red">1.5.1</text>
<text text-anchor="middle" x="178" y="-332" font-family="Times,serif" font-size="10.00" fill="red">(latest: 1.5.2)</text>
</g>
<!-- roo_prefs&#45;&gt;roo_scheduler -->
<g id="edge21" class="edge">
<title>roo_prefs&#45;&gt;roo_scheduler</title>
<path fill="none" stroke="black" d="M168.22,-416.88C189.67,-402.05 220.17,-380.97 243.58,-364.79"/>
<polygon fill="black" stroke="black" points="245.62,-367.63 251.86,-359.07 241.64,-361.88 245.62,-367.63"/>
</g>
<!-- roo_quantity&#45;&gt;roo_logging -->
<g id="edge22" class="edge">
<title>roo_quantity&#45;&gt;roo_logging</title>
<path fill="none" stroke="black" d="M389.88,-320.88C375.57,-306.57 355.44,-286.44 339.51,-270.51"/>
<polygon fill="black" stroke="black" points="341.61,-267.66 332.07,-263.07 336.66,-272.61 341.61,-267.66"/>
</g>
<!-- roo_scheduler&#45;&gt;roo_collections -->
<g id="edge23" class="edge">
<title>roo_scheduler&#45;&gt;roo_collections</title>
<path fill="none" stroke="black" d="M307.69,-320.92C329.92,-308.09 361.46,-291.38 391,-281 424.6,-269.19 463.24,-260.75 495.74,-255.03"/>
<polygon fill="black" stroke="black" points="496.35,-258.48 505.62,-253.34 495.17,-251.58 496.35,-258.48"/>
</g>
<!-- roo_scheduler&#45;&gt;roo_threads -->
<g id="edge24" class="edge">
<title>roo_scheduler&#45;&gt;roo_threads</title>
<path fill="none" stroke="black" d="M270.19,-320.91C257.43,-291.39 232.05,-232.63 217,-197.78"/>
<polygon fill="black" stroke="black" points="220.04,-196 212.87,-188.21 213.62,-198.78 220.04,-196"/>
</g>
<!-- roo_testing -->
<g id="node17" class="node">
<title>roo_testing</title>
<polygon fill="#b1dbab" stroke="black" points="519.5,-38 422.5,-38 422.5,0 519.5,0 519.5,-38"/>
<text text-anchor="middle" x="471" y="-22.8" font-family="Times,serif" font-size="14.00">roo_testing</text>
<text text-anchor="middle" x="471" y="-7.8" font-family="Times,serif" font-size="14.00">1.2.0</text>
</g>
<!-- roo_time -->
<g id="node19" class="node">
<title>roo_time</title>
<polygon fill="#b1dbab" stroke="black" points="510.5,-113 431.5,-113 431.5,-75 510.5,-75 510.5,-113"/>
<text text-anchor="middle" x="471" y="-97.8" font-family="Times,serif" font-size="14.00">roo_time</text>
<text text-anchor="middle" x="471" y="-82.8" font-family="Times,serif" font-size="14.00">1.4.0</text>
</g>
<!-- roo_threads&#45;&gt;roo_time -->
<g id="edge25" class="edge">
<title>roo_threads&#45;&gt;roo_time</title>
<path fill="none" stroke="black" d="M255.71,-152.67C258.85,-151.76 261.97,-150.86 265,-150 318.3,-134.89 379.68,-118.65 421.49,-107.77"/>
<polygon fill="black" stroke="black" points="422.61,-111.09 431.41,-105.19 420.85,-104.32 422.61,-111.09"/>
</g>
<!-- roo_time&#45;&gt;roo_testing -->
<g id="edge26" class="edge">
<title>roo_time&#45;&gt;roo_testing</title>
<path fill="none" stroke="black" d="M471,-74.96C471,-66.88 471,-57.18 471,-48.18"/>
<polygon fill="black" stroke="black" points="474.5,-48.09 471,-38.09 467.5,-48.09 474.5,-48.09"/>
</g>
<!-- roo_time_ds3231 -->
<g id="node20" class="node">
<title>roo_time_ds3231</title>
<polygon fill="#b1dbab" stroke="black" points="638,-188 500,-188 500,-150 638,-150 638,-188"/>
<text text-anchor="middle" x="569" y="-172.8" font-family="Times,serif" font-size="14.00">roo_time_ds3231</text>
<text text-anchor="middle" x="569" y="-157.8" font-family="Times,serif" font-size="14.00">1.1.4</text>
</g>
<!-- roo_time_ds3231&#45;&gt;roo_time -->
<g id="edge27" class="edge">
<title>roo_time_ds3231&#45;&gt;roo_time</title>
<path fill="none" stroke="black" d="M544.78,-149.96C532.29,-140.65 516.89,-129.18 503.4,-119.13"/>
<polygon fill="black" stroke="black" points="505.4,-116.26 495.29,-113.09 501.21,-121.87 505.4,-116.26"/>
</g>
<!-- roo_transceivers&#45;&gt;roo_prefs -->
<g id="edge28" class="edge">
<title>roo_transceivers&#45;&gt;roo_prefs</title>
<path fill="none" stroke="black" d="M239.67,-512.88C220.75,-498.18 193.92,-477.34 173.17,-461.21"/>
<polygon fill="black" stroke="black" points="175.3,-458.44 165.26,-455.07 171.01,-463.97 175.3,-458.44"/>
</g>
<!-- roo_transport -->
<g id="node22" class="node">
<title>roo_transport</title>
<polygon fill="plum" stroke="red" points="629,-455 515,-455 515,-417 629,-417 629,-455"/>
<text text-anchor="middle" x="572" y="-439.8" font-family="Times,serif" font-size="14.00">roo_transport</text>
<text text-anchor="middle" x="572" y="-424.8" font-family="Times,serif" font-size="14.00">1.0.2</text>
</g>
<!-- roo_transport&#45;&gt;roo_collections -->
<g id="edge29" class="edge">
<title>roo_transport&#45;&gt;roo_collections</title>
<path fill="none" stroke="red" d="M629.18,-417.87C644.25,-412.14 657.57,-405.55 662,-399 667.48,-390.9 665,-386.31 662,-377 648.55,-335.29 616.49,-295.64 593.33,-270.88"/>
<polygon fill="red" stroke="red" points="595.6,-268.19 586.16,-263.38 590.54,-273.03 595.6,-268.19"/>
<text text-anchor="middle" x="687" y="-343" font-family="Times,serif" font-size="10.00" fill="red">1.3.2</text>
<text text-anchor="middle" x="687" y="-332" font-family="Times,serif" font-size="10.00" fill="red">(latest: 1.4.0)</text>
</g>
<!-- roo_transport&#45;&gt;roo_io -->
<g id="edge30" class="edge">
<title>roo_transport&#45;&gt;roo_io</title>
<path fill="none" stroke="red" d="M524.55,-416.85C517.54,-412.1 511.26,-406.22 507,-399 501.8,-390.17 501.04,-379.21 502.03,-369.2"/>
<polygon fill="red" stroke="red" points="505.5,-369.65 503.56,-359.24 498.58,-368.59 505.5,-369.65"/>
<text text-anchor="middle" x="540" y="-391" font-family="Times,serif" font-size="10.00" fill="red">2.0.3</text>
<text text-anchor="middle" x="540" y="-380" font-family="Times,serif" font-size="10.00" fill="red">(latest: 2.1.1)</text>
</g>
<!-- roo_wifi -->
<g id="node23" class="node">
<title>roo_wifi</title>
<polygon fill="#b1dbab" stroke="black" points="152,-607 80,-607 80,-569 152,-569 152,-607"/>
<text text-anchor="middle" x="116" y="-591.8" font-family="Times,serif" font-size="14.00">roo_wifi</text>
<text text-anchor="middle" x="116" y="-576.8" font-family="Times,serif" font-size="14.00">1.1.3</text>
</g>
<!-- roo_wifi&#45;&gt;roo_prefs -->
<g id="edge31" class="edge">
<title>roo_wifi&#45;&gt;roo_prefs</title>
<path fill="none" stroke="black" d="M119.14,-568.91C123.61,-543.12 131.85,-495.55 137.12,-465.14"/>
<polygon fill="black" stroke="black" points="140.59,-465.61 138.85,-455.16 133.7,-464.41 140.59,-465.61"/>
</g>
<!-- roo_windows&#45;&gt;roo_icons -->
<g id="edge33" class="edge">
<title>roo_windows&#45;&gt;roo_icons</title>
<path fill="none" stroke="black" d="M535.4,-624.84C564.62,-606.15 610.25,-576.97 642.21,-556.53"/>
<polygon fill="black" stroke="black" points="644.3,-559.34 650.84,-551.01 640.53,-553.45 644.3,-559.34"/>
</g>
<!-- roo_windows&#45;&gt;roo_locale -->
<g id="edge32" class="edge">
<title>roo_windows&#45;&gt;roo_locale</title>
<path fill="none" stroke="black" d="M515.59,-624.84C523.87,-607.32 536.51,-580.58 546.02,-560.47"/>
<polygon fill="black" stroke="black" points="549.29,-561.73 550.4,-551.19 542.96,-558.74 549.29,-561.73"/>
</g>
<!-- roo_windows&#45;&gt;roo_scheduler -->
<g id="edge34" class="edge">
<title>roo_windows&#45;&gt;roo_scheduler</title>
<path fill="none" stroke="red" d="M505.95,-624.76C502.55,-582.46 488.36,-476.75 430,-417 413.79,-400.4 401.95,-408.97 381,-399 363.73,-390.78 360.62,-386.47 344,-377 336.5,-372.73 328.47,-368.26 320.69,-363.98"/>
<polygon fill="red" stroke="red" points="322.16,-360.8 311.71,-359.07 318.8,-366.94 322.16,-360.8"/>
<text text-anchor="middle" x="511" y="-487" font-family="Times,serif" font-size="10.00" fill="red">2.1.4</text>
<text text-anchor="middle" x="511" y="-476" font-family="Times,serif" font-size="10.00" fill="red">(latest: 2.1.6)</text>
</g>
<!-- roo_windows_wifi -->
<g id="node25" class="node">
<title>roo_windows_wifi</title>
<polygon fill="plum" stroke="red" points="347.5,-759 206.5,-759 206.5,-721 347.5,-721 347.5,-759"/>
<text text-anchor="middle" x="277" y="-743.8" font-family="Times,serif" font-size="14.00">roo_windows_wifi</text>
<text text-anchor="middle" x="277" y="-728.8" font-family="Times,serif" font-size="14.00">1.1.2</text>
</g>
<!-- roo_windows_wifi&#45;&gt;roo_wifi -->
<g id="edge35" class="edge">
<title>roo_windows_wifi&#45;&gt;roo_wifi</title>
<path fill="none" stroke="red" d="M257.58,-720.91C228.93,-694.22 175.25,-644.2 142.85,-614.01"/>
<polygon fill="red" stroke="red" points="145.19,-611.41 135.49,-607.16 140.42,-616.54 145.19,-611.41"/>
<text text-anchor="middle" x="270" y="-695" font-family="Times,serif" font-size="10.00" fill="red">1.1.1</text>
<text text-anchor="middle" x="270" y="-684" font-family="Times,serif" font-size="10.00" fill="red">(latest: 1.1.3)</text>
</g>
<!-- roo_windows_wifi&#45;&gt;roo_windows -->
<g id="edge36" class="edge">
<title>roo_windows_wifi&#45;&gt;roo_windows</title>
<path fill="none" stroke="black" d="M321.07,-720.99C358.75,-705.59 413.09,-683.38 453.3,-666.95"/>
<polygon fill="black" stroke="black" points="454.75,-670.14 462.68,-663.11 452.1,-663.66 454.75,-670.14"/>
</g>
</g>
</svg>
