<?xml version="1.0" encoding="UTF-8" standalone="no"?>
<!DOCTYPE svg PUBLIC "-//W3C//DTD SVG 1.1//EN"
 "http://www.w3.org/Graphics/SVG/1.1/DTD/svg11.dtd">
<!-- Generated by graphviz version 2.42.4 (0)
 -->
<!-- Title: dependencies Pages: 1 -->
<svg width="1909pt" height="709pt"
 viewBox="0.00 0.00 1909.00 709.00" xmlns="http://www.w3.org/2000/svg" xmlns:xlink="http://www.w3.org/1999/xlink">
<g id="graph0" class="graph" transform="scale(1 1) rotate(0) translate(4 705)">
<title>dependencies</title>
<polygon fill="white" stroke="transparent" points="-4,4 -4,-705 1905,-705 1905,4 -4,4"/>
<!-- roo_backport -->
<g id="node1" class="node">
<title>roo_backport</title>
<polygon fill="#b1dbab" stroke="black" points="1555.5,-113 1466.5,-113 1466.5,-75 1555.5,-75 1555.5,-113"/>
<text text-anchor="middle" x="1511" y="-97.8" font-family="Times,serif" font-size="14.00">roo_backport</text>
<text text-anchor="middle" x="1511" y="-82.8" font-family="Times,serif" font-size="14.00">1.1.1</text>
</g>
<!-- roo_blink -->
<g id="node2" class="node">
<title>roo_blink</title>
<polygon fill="plum" stroke="black" points="1111.5,-401 1042.5,-401 1042.5,-363 1111.5,-363 1111.5,-401"/>
<text text-anchor="middle" x="1077" y="-385.8" font-family="Times,serif" font-size="14.00">roo_blink</text>
<text text-anchor="middle" x="1077" y="-370.8" font-family="Times,serif" font-size="14.00">1.0.1</text>
</g>
<!-- roo_logging -->
<g id="node13" class="node">
<title>roo_logging</title>
<polygon fill="plum" stroke="black" points="1006.5,-305 923.5,-305 923.5,-267 1006.5,-267 1006.5,-305"/>
<text text-anchor="middle" x="965" y="-289.8" font-family="Times,serif" font-size="14.00">roo_logging</text>
<text text-anchor="middle" x="965" y="-274.8" font-family="Times,serif" font-size="14.00">1.4.2</text>
</g>
<!-- roo_blink&#45;&gt;roo_logging -->
<g id="edge2" class="edge">
<title>roo_blink&#45;&gt;roo_logging</title>
<path fill="none" stroke="black" d="M1055.41,-362.88C1038.05,-348.31 1013.5,-327.71 994.36,-311.64"/>
<polygon fill="black" stroke="black" points="996.44,-308.82 986.53,-305.07 991.94,-314.18 996.44,-308.82"/>
</g>
<!-- roo_scheduler -->
<g id="node19" class="node">
<title>roo_scheduler</title>
<polygon fill="plum" stroke="black" points="750.5,-305 657.5,-305 657.5,-267 750.5,-267 750.5,-305"/>
<text text-anchor="middle" x="704" y="-289.8" font-family="Times,serif" font-size="14.00">roo_scheduler</text>
<text text-anchor="middle" x="704" y="-274.8" font-family="Times,serif" font-size="14.00">2.1.4</text>
</g>
<!-- roo_blink&#45;&gt;roo_scheduler -->
<g id="edge3" class="edge">
<title>roo_blink&#45;&gt;roo_scheduler</title>
<path fill="none" stroke="black" d="M1042.17,-376.48C1001.46,-370.82 932.23,-360 874,-345 835.38,-335.05 792.93,-320.57 760.1,-308.57"/>
<polygon fill="black" stroke="black" points="761.27,-305.27 750.68,-305.09 758.85,-311.83 761.27,-305.27"/>
</g>
<!-- roo_testing -->
<g id="node20" class="node">
<title>roo_testing</title>
<polygon fill="#b1dbab" stroke="black" points="863.5,-38 786.5,-38 786.5,0 863.5,0 863.5,-38"/>
<text text-anchor="middle" x="825" y="-22.8" font-family="Times,serif" font-size="14.00">roo_testing</text>
<text text-anchor="middle" x="825" y="-7.8" font-family="Times,serif" font-size="14.00">1.1.8</text>
</g>
<!-- roo_blink&#45;&gt;roo_testing -->
<g id="edge1" class="edge">
<title>roo_blink&#45;&gt;roo_testing</title>
<path fill="none" stroke="red" d="M1087.3,-362.95C1100.77,-338.19 1123.62,-291.88 1132,-249 1142.32,-196.2 1138.89,-172.79 1105,-131 1047.28,-59.83 937.37,-34.08 873.78,-24.92"/>
<polygon fill="red" stroke="red" points="873.98,-21.42 863.6,-23.54 873.04,-28.35 873.98,-21.42"/>
<text text-anchor="middle" x="1165" y="-193" font-family="Times,serif" font-size="10.00" fill="red">1.1.7</text>
<text text-anchor="middle" x="1165" y="-182" font-family="Times,serif" font-size="10.00" fill="red">(latest: 1.1.8)</text>
</g>
<!-- roo_time -->
<g id="node22" class="node">
<title>roo_time</title>
<polygon fill="#b1dbab" stroke="black" points="858,-113 792,-113 792,-75 858,-75 858,-113"/>
<text text-anchor="middle" x="825" y="-97.8" font-family="Times,serif" font-size="14.00">roo_time</text>
<text text-anchor="middle" x="825" y="-82.8" font-family="Times,serif" font-size="14.00">1.3.3</text>
</g>
<!-- roo_blink&#45;&gt;roo_time -->
<g id="edge4" class="edge">
<title>roo_blink&#45;&gt;roo_time</title>
<path fill="none" stroke="red" d="M1077.82,-362.81C1079.5,-317.35 1081.39,-200.34 1058,-171 1034.19,-141.12 929.1,-115.76 868.5,-103.28"/>
<polygon fill="red" stroke="red" points="868.95,-99.8 858.45,-101.25 867.56,-106.66 868.95,-99.8"/>
<text text-anchor="middle" x="1104" y="-241" font-family="Times,serif" font-size="10.00" fill="red">1.3.2</text>
<text text-anchor="middle" x="1104" y="-230" font-family="Times,serif" font-size="10.00" fill="red">(latest: 1.3.3)</text>
</g>
<!-- roo_collections -->
<g id="node3" class="node">
<title>roo_collections</title>
<polygon fill="#b1dbab" stroke="black" points="1613,-209 1513,-209 1513,-171 1613,-171 1613,-209"/>
<text text-anchor="middle" x="1563" y="-193.8" font-family="Times,serif" font-size="14.00">roo_collections</text>
<text text-anchor="middle" x="1563" y="-178.8" font-family="Times,serif" font-size="14.00">1.3.2</text>
</g>
<!-- roo_collections&#45;&gt;roo_backport -->
<g id="edge5" class="edge">
<title>roo_collections&#45;&gt;roo_backport</title>
<path fill="none" stroke="black" d="M1552.97,-170.88C1545.28,-156.96 1534.53,-137.53 1525.84,-121.82"/>
<polygon fill="black" stroke="black" points="1528.9,-120.12 1521,-113.07 1522.77,-123.51 1528.9,-120.12"/>
</g>
<!-- roo_comms -->
<g id="node4" class="node">
<title>roo_comms</title>
<polygon fill="plum" stroke="black" points="1064,-551 982,-551 982,-513 1064,-513 1064,-551"/>
<text text-anchor="middle" x="1023" y="-535.8" font-family="Times,serif" font-size="14.00">roo_comms</text>
<text text-anchor="middle" x="1023" y="-520.8" font-family="Times,serif" font-size="14.00">1.1.1</text>
</g>
<!-- roo_comms&#45;&gt;roo_blink -->
<g id="edge7" class="edge">
<title>roo_comms&#45;&gt;roo_blink</title>
<path fill="none" stroke="black" d="M1029.62,-512.85C1038.93,-487.33 1055.98,-440.62 1066.88,-410.73"/>
<polygon fill="black" stroke="black" points="1070.18,-411.89 1070.32,-401.3 1063.61,-409.49 1070.18,-411.89"/>
</g>
<!-- roo_control -->
<g id="node5" class="node">
<title>roo_control</title>
<polygon fill="plum" stroke="black" points="867,-476 787,-476 787,-438 867,-438 867,-476"/>
<text text-anchor="middle" x="827" y="-460.8" font-family="Times,serif" font-size="14.00">roo_control</text>
<text text-anchor="middle" x="827" y="-445.8" font-family="Times,serif" font-size="14.00">1.2.1</text>
</g>
<!-- roo_comms&#45;&gt;roo_control -->
<g id="edge8" class="edge">
<title>roo_comms&#45;&gt;roo_control</title>
<path fill="none" stroke="black" d="M981.96,-524.37C953.14,-518.8 914.17,-509.41 882,-495 874,-491.42 865.89,-486.69 858.44,-481.81"/>
<polygon fill="black" stroke="black" points="860.29,-478.84 850.05,-476.09 856.34,-484.62 860.29,-478.84"/>
</g>
<!-- roo_io -->
<g id="node10" class="node">
<title>roo_io</title>
<polygon fill="plum" stroke="black" points="1477,-401 1423,-401 1423,-363 1477,-363 1477,-401"/>
<text text-anchor="middle" x="1450" y="-385.8" font-family="Times,serif" font-size="14.00">roo_io</text>
<text text-anchor="middle" x="1450" y="-370.8" font-family="Times,serif" font-size="14.00">2.0.2</text>
</g>
<!-- roo_comms&#45;&gt;roo_io -->
<g id="edge9" class="edge">
<title>roo_comms&#45;&gt;roo_io</title>
<path fill="none" stroke="black" d="M1064.2,-531.43C1157.68,-531.49 1381.83,-526.26 1434,-476 1450.98,-459.64 1453.93,-432.29 1453.25,-411.47"/>
<polygon fill="black" stroke="black" points="1456.73,-411.03 1452.62,-401.27 1449.74,-411.46 1456.73,-411.03"/>
</g>
<!-- roo_comms&#45;&gt;roo_testing -->
<g id="edge6" class="edge">
<title>roo_comms&#45;&gt;roo_testing</title>
<path fill="none" stroke="red" d="M1064.09,-523.38C1122.65,-510.08 1228.1,-476.47 1274,-401 1292.86,-369.98 1285.99,-322.86 1251,-227 1222.22,-148.17 1210.86,-118.34 1139,-75 1095.15,-48.56 950.63,-31.6 873.89,-24.24"/>
<polygon fill="red" stroke="red" points="873.81,-20.72 863.53,-23.26 873.15,-27.69 873.81,-20.72"/>
<text text-anchor="middle" x="1303" y="-289" font-family="Times,serif" font-size="10.00" fill="red">1.1.7</text>
<text text-anchor="middle" x="1303" y="-278" font-family="Times,serif" font-size="10.00" fill="red">(latest: 1.1.8)</text>
</g>
<!-- roo_comms&#45;&gt;roo_time -->
<g id="edge10" class="edge">
<title>roo_comms&#45;&gt;roo_time</title>
<path fill="none" stroke="red" d="M1013.94,-512.98C994.86,-474.87 949.39,-383.18 914,-305 898.45,-270.66 856.81,-171.25 836.48,-122.55"/>
<polygon fill="red" stroke="red" points="839.68,-121.12 832.6,-113.24 833.22,-123.82 839.68,-121.12"/>
<text text-anchor="middle" x="960" y="-337" font-family="Times,serif" font-size="10.00" fill="red">1.3.2</text>
<text text-anchor="middle" x="960" y="-326" font-family="Times,serif" font-size="10.00" fill="red">(latest: 1.3.3)</text>
</g>
<!-- roo_transceivers -->
<g id="node24" class="node">
<title>roo_transceivers</title>
<polygon fill="plum" stroke="black" points="362,-476 256,-476 256,-438 362,-438 362,-476"/>
<text text-anchor="middle" x="309" y="-460.8" font-family="Times,serif" font-size="14.00">roo_transceivers</text>
<text text-anchor="middle" x="309" y="-445.8" font-family="Times,serif" font-size="14.00">1.1.2</text>
</g>
<!-- roo_comms&#45;&gt;roo_transceivers -->
<g id="edge11" class="edge">
<title>roo_comms&#45;&gt;roo_transceivers</title>
<path fill="none" stroke="black" d="M981.79,-526.79C862.45,-514.58 515.99,-479.16 372.44,-464.49"/>
<polygon fill="black" stroke="black" points="372.77,-461 362.46,-463.47 372.06,-467.97 372.77,-461"/>
</g>
<!-- roo_quantity -->
<g id="node18" class="node">
<title>roo_quantity</title>
<polygon fill="plum" stroke="black" points="868,-401 782,-401 782,-363 868,-363 868,-401"/>
<text text-anchor="middle" x="825" y="-385.8" font-family="Times,serif" font-size="14.00">roo_quantity</text>
<text text-anchor="middle" x="825" y="-370.8" font-family="Times,serif" font-size="14.00">1.1.2</text>
</g>
<!-- roo_control&#45;&gt;roo_quantity -->
<g id="edge13" class="edge">
<title>roo_control&#45;&gt;roo_quantity</title>
<path fill="none" stroke="black" d="M826.51,-437.96C826.28,-429.88 826.02,-420.18 825.77,-411.18"/>
<polygon fill="black" stroke="black" points="829.27,-410.99 825.5,-401.09 822.27,-411.18 829.27,-410.99"/>
</g>
<!-- roo_control&#45;&gt;roo_scheduler -->
<g id="edge14" class="edge">
<title>roo_control&#45;&gt;roo_scheduler</title>
<path fill="none" stroke="black" d="M807.11,-437.91C796.37,-427.63 783.26,-414.21 773,-401 751.33,-373.09 730.96,-337.91 718.05,-314.06"/>
<polygon fill="black" stroke="black" points="721.12,-312.38 713.32,-305.21 714.94,-315.68 721.12,-312.38"/>
</g>
<!-- roo_control&#45;&gt;roo_testing -->
<g id="edge12" class="edge">
<title>roo_control&#45;&gt;roo_testing</title>
<path fill="none" stroke="red" d="M867.26,-453.2C938.29,-447.51 1081.97,-432.37 1120,-401 1203.05,-332.49 1242.44,-268.13 1196,-171 1138.78,-51.33 960.86,-26.16 873.87,-21.11"/>
<polygon fill="red" stroke="red" points="873.9,-17.6 863.73,-20.58 873.54,-24.59 873.9,-17.6"/>
<text text-anchor="middle" x="1243" y="-241" font-family="Times,serif" font-size="10.00" fill="red">1.1.7</text>
<text text-anchor="middle" x="1243" y="-230" font-family="Times,serif" font-size="10.00" fill="red">(latest: 1.1.8)</text>
</g>
<!-- roo_dashboard -->
<g id="node6" class="node">
<title>roo_dashboard</title>
<polygon fill="plum" stroke="black" points="1584.5,-701 1487.5,-701 1487.5,-663 1584.5,-663 1584.5,-701"/>
<text text-anchor="middle" x="1536" y="-685.8" font-family="Times,serif" font-size="14.00">roo_dashboard</text>
<text text-anchor="middle" x="1536" y="-670.8" font-family="Times,serif" font-size="14.00">1.0.1</text>
</g>
<!-- roo_dashboard&#45;&gt;roo_testing -->
<g id="edge15" class="edge">
<title>roo_dashboard&#45;&gt;roo_testing</title>
<path fill="none" stroke="red" d="M1584.73,-665.28C1587.52,-664.49 1590.29,-663.72 1593,-663 1648.82,-648.18 1847,-665.75 1847,-608 1847,-608 1847,-608 1847,-93 1847,-43.58 1076.64,-24.95 873.58,-20.89"/>
<polygon fill="red" stroke="red" points="873.57,-17.39 863.51,-20.7 873.44,-24.39 873.57,-17.39"/>
<text text-anchor="middle" x="1874" y="-385" font-family="Times,serif" font-size="10.00" fill="red">1.1.7</text>
<text text-anchor="middle" x="1874" y="-374" font-family="Times,serif" font-size="10.00" fill="red">(latest: 1.1.8)</text>
</g>
<!-- roo_windows -->
<g id="node27" class="node">
<title>roo_windows</title>
<polygon fill="plum" stroke="black" points="1045,-626 955,-626 955,-588 1045,-588 1045,-626"/>
<text text-anchor="middle" x="1000" y="-610.8" font-family="Times,serif" font-size="14.00">roo_windows</text>
<text text-anchor="middle" x="1000" y="-595.8" font-family="Times,serif" font-size="14.00">1.4.1</text>
</g>
<!-- roo_dashboard&#45;&gt;roo_windows -->
<g id="edge16" class="edge">
<title>roo_dashboard&#45;&gt;roo_windows</title>
<path fill="none" stroke="black" d="M1487.49,-674.39C1387.86,-660.82 1160.72,-629.89 1055.45,-615.55"/>
<polygon fill="black" stroke="black" points="1055.73,-612.06 1045.35,-614.18 1054.79,-618.99 1055.73,-612.06"/>
</g>
<!-- roo_display -->
<g id="node7" class="node">
<title>roo_display</title>
<polygon fill="plum" stroke="black" points="1671,-476 1591,-476 1591,-438 1671,-438 1671,-476"/>
<text text-anchor="middle" x="1631" y="-460.8" font-family="Times,serif" font-size="14.00">roo_display</text>
<text text-anchor="middle" x="1631" y="-445.8" font-family="Times,serif" font-size="14.00">2.3.1</text>
</g>
<!-- roo_display&#45;&gt;roo_collections -->
<g id="edge18" class="edge">
<title>roo_display&#45;&gt;roo_collections</title>
<path fill="none" stroke="black" d="M1626.33,-437.79C1614.66,-392.31 1584.17,-273.52 1570.19,-219.04"/>
<polygon fill="black" stroke="black" points="1573.58,-218.16 1567.71,-209.34 1566.8,-219.9 1573.58,-218.16"/>
</g>
<!-- roo_display&#45;&gt;roo_io -->
<g id="edge19" class="edge">
<title>roo_display&#45;&gt;roo_io</title>
<path fill="none" stroke="black" d="M1590.83,-439.8C1559.63,-427.22 1516.73,-409.91 1486.5,-397.72"/>
<polygon fill="black" stroke="black" points="1487.74,-394.45 1477.16,-393.95 1485.12,-400.94 1487.74,-394.45"/>
</g>
<!-- roo_display&#45;&gt;roo_testing -->
<g id="edge17" class="edge">
<title>roo_display&#45;&gt;roo_testing</title>
<path fill="none" stroke="red" d="M1660.84,-437.84C1677.92,-424.96 1696,-405.91 1696,-383 1696,-383 1696,-383 1696,-93 1696,-51.41 1057.16,-27.52 873.71,-21.51"/>
<polygon fill="red" stroke="red" points="873.66,-18.01 863.55,-21.18 873.43,-25 873.66,-18.01"/>
<text text-anchor="middle" x="1723" y="-241" font-family="Times,serif" font-size="10.00" fill="red">1.1.7</text>
<text text-anchor="middle" x="1723" y="-230" font-family="Times,serif" font-size="10.00" fill="red">(latest: 1.1.8)</text>
</g>
<!-- roo_flags -->
<g id="node8" class="node">
<title>roo_flags</title>
<polygon fill="#b1dbab" stroke="black" points="1049,-209 981,-209 981,-171 1049,-171 1049,-209"/>
<text text-anchor="middle" x="1015" y="-193.8" font-family="Times,serif" font-size="14.00">roo_flags</text>
<text text-anchor="middle" x="1015" y="-178.8" font-family="Times,serif" font-size="14.00">1.1.1</text>
</g>
<!-- roo_icons -->
<g id="node9" class="node">
<title>roo_icons</title>
<polygon fill="plum" stroke="black" points="1530,-551 1460,-551 1460,-513 1530,-513 1530,-551"/>
<text text-anchor="middle" x="1495" y="-535.8" font-family="Times,serif" font-size="14.00">roo_icons</text>
<text text-anchor="middle" x="1495" y="-520.8" font-family="Times,serif" font-size="14.00">1.2.1</text>
</g>
<!-- roo_icons&#45;&gt;roo_display -->
<g id="edge21" class="edge">
<title>roo_icons&#45;&gt;roo_display</title>
<path fill="none" stroke="black" d="M1528.62,-512.96C1546.68,-503.26 1569.14,-491.21 1588.41,-480.86"/>
<polygon fill="black" stroke="black" points="1590.14,-483.9 1597.3,-476.09 1586.83,-477.74 1590.14,-483.9"/>
</g>
<!-- roo_icons&#45;&gt;roo_testing -->
<g id="edge20" class="edge">
<title>roo_icons&#45;&gt;roo_testing</title>
<path fill="none" stroke="red" d="M1530.37,-516C1533.27,-514.93 1536.17,-513.92 1539,-513 1588.17,-497.06 1765,-509.69 1765,-458 1765,-458 1765,-458 1765,-93 1765,-47.85 1066.43,-26.29 873.72,-21.21"/>
<polygon fill="red" stroke="red" points="873.69,-17.7 863.6,-20.94 873.51,-24.7 873.69,-17.7"/>
<text text-anchor="middle" x="1792" y="-289" font-family="Times,serif" font-size="10.00" fill="red">1.1.7</text>
<text text-anchor="middle" x="1792" y="-278" font-family="Times,serif" font-size="10.00" fill="red">(latest: 1.1.8)</text>
</g>
<!-- roo_io&#45;&gt;roo_backport -->
<g id="edge23" class="edge">
<title>roo_io&#45;&gt;roo_backport</title>
<path fill="none" stroke="black" d="M1453.91,-362.67C1464.28,-314.04 1492.56,-181.47 1504.99,-123.16"/>
<polygon fill="black" stroke="black" points="1508.46,-123.68 1507.12,-113.17 1501.61,-122.22 1508.46,-123.68"/>
</g>
<!-- roo_io&#45;&gt;roo_logging -->
<g id="edge24" class="edge">
<title>roo_io&#45;&gt;roo_logging</title>
<path fill="none" stroke="black" d="M1422.89,-375.74C1344.97,-360.64 1119.46,-316.94 1016.89,-297.06"/>
<polygon fill="black" stroke="black" points="1017.25,-293.56 1006.77,-295.1 1015.92,-300.43 1017.25,-293.56"/>
</g>
<!-- roo_io&#45;&gt;roo_testing -->
<g id="edge22" class="edge">
<title>roo_io&#45;&gt;roo_testing</title>
<path fill="none" stroke="red" d="M1448.33,-362.63C1442.24,-299.98 1419,-96.36 1371,-56 1333.43,-24.41 1000.61,-20.36 873.79,-19.98"/>
<polygon fill="red" stroke="red" points="873.6,-16.48 863.59,-19.95 873.58,-23.48 873.6,-16.48"/>
<text text-anchor="middle" x="1454" y="-193" font-family="Times,serif" font-size="10.00" fill="red">1.1.7</text>
<text text-anchor="middle" x="1454" y="-182" font-family="Times,serif" font-size="10.00" fill="red">(latest: 1.1.8)</text>
</g>
<!-- roo_io_sdfat -->
<g id="node11" class="node">
<title>roo_io_sdfat</title>
<polygon fill="plum" stroke="black" points="1687.5,-701 1602.5,-701 1602.5,-663 1687.5,-663 1687.5,-701"/>
<text text-anchor="middle" x="1645" y="-685.8" font-family="Times,serif" font-size="14.00">roo_io_sdfat</text>
<text text-anchor="middle" x="1645" y="-670.8" font-family="Times,serif" font-size="14.00">1.0.0</text>
</g>
<!-- roo_locale -->
<g id="node12" class="node">
<title>roo_locale</title>
<polygon fill="#b1dbab" stroke="black" points="1622,-551 1548,-551 1548,-513 1622,-513 1622,-551"/>
<text text-anchor="middle" x="1585" y="-535.8" font-family="Times,serif" font-size="14.00">roo_locale</text>
<text text-anchor="middle" x="1585" y="-520.8" font-family="Times,serif" font-size="14.00">1.1.1</text>
</g>
<!-- roo_logging&#45;&gt;roo_flags -->
<g id="edge26" class="edge">
<title>roo_logging&#45;&gt;roo_flags</title>
<path fill="none" stroke="black" d="M974.64,-266.88C981.97,-253.09 992.18,-233.9 1000.5,-218.26"/>
<polygon fill="black" stroke="black" points="1003.78,-219.54 1005.39,-209.07 997.6,-216.25 1003.78,-219.54"/>
</g>
<!-- roo_logging&#45;&gt;roo_testing -->
<g id="edge25" class="edge">
<title>roo_logging&#45;&gt;roo_testing</title>
<path fill="none" stroke="red" d="M998.29,-266.83C1032.59,-245.57 1078.37,-208.48 1058,-171 1019.02,-99.29 929.66,-56.38 873.63,-35.54"/>
<polygon fill="red" stroke="red" points="874.51,-32.14 863.91,-32.03 872.13,-38.72 874.51,-32.14"/>
<text text-anchor="middle" x="1074" y="-145" font-family="Times,serif" font-size="10.00" fill="red">1.1.7</text>
<text text-anchor="middle" x="1074" y="-134" font-family="Times,serif" font-size="10.00" fill="red">(latest: 1.1.8)</text>
</g>
<!-- roo_threads -->
<g id="node21" class="node">
<title>roo_threads</title>
<polygon fill="plum" stroke="black" points="577,-209 497,-209 497,-171 577,-171 577,-209"/>
<text text-anchor="middle" x="537" y="-193.8" font-family="Times,serif" font-size="14.00">roo_threads</text>
<text text-anchor="middle" x="537" y="-178.8" font-family="Times,serif" font-size="14.00">1.1.5</text>
</g>
<!-- roo_logging&#45;&gt;roo_threads -->
<g id="edge28" class="edge">
<title>roo_logging&#45;&gt;roo_threads</title>
<path fill="none" stroke="black" d="M923.28,-278.79C854.73,-268.13 714,-244.28 587.1,-209.1"/>
<polygon fill="black" stroke="black" points="587.79,-205.66 577.21,-206.33 585.9,-212.4 587.79,-205.66"/>
</g>
<!-- roo_logging&#45;&gt;roo_time -->
<g id="edge27" class="edge">
<title>roo_logging&#45;&gt;roo_time</title>
<path fill="none" stroke="red" d="M953.24,-266.79C943.5,-251.53 929.46,-229.07 918,-209 898.58,-174.99 902.96,-160.32 877,-131 873.32,-126.84 869.05,-122.91 864.59,-119.3"/>
<polygon fill="red" stroke="red" points="866.5,-116.36 856.41,-113.13 862.29,-121.95 866.5,-116.36"/>
<text text-anchor="middle" x="945" y="-193" font-family="Times,serif" font-size="10.00" fill="red">1.3.2</text>
<text text-anchor="middle" x="945" y="-182" font-family="Times,serif" font-size="10.00" fill="red">(latest: 1.3.3)</text>
</g>
<!-- roo_monitoring -->
<g id="node14" class="node">
<title>roo_monitoring</title>
<polygon fill="plum" stroke="black" points="1425,-476 1323,-476 1323,-438 1425,-438 1425,-476"/>
<text text-anchor="middle" x="1374" y="-460.8" font-family="Times,serif" font-size="14.00">roo_monitoring</text>
<text text-anchor="middle" x="1374" y="-445.8" font-family="Times,serif" font-size="14.00">1.0.0</text>
</g>
<!-- roo_monitoring&#45;&gt;roo_collections -->
<g id="edge30" class="edge">
<title>roo_monitoring&#45;&gt;roo_collections</title>
<path fill="none" stroke="black" d="M1425.04,-440.49C1446.3,-431.81 1469.77,-419.03 1486,-401 1498.66,-386.93 1536.69,-272.52 1554.11,-218.74"/>
<polygon fill="black" stroke="black" points="1557.47,-219.74 1557.21,-209.14 1550.8,-217.59 1557.47,-219.74"/>
</g>
<!-- roo_monitoring&#45;&gt;roo_io -->
<g id="edge31" class="edge">
<title>roo_monitoring&#45;&gt;roo_io</title>
<path fill="none" stroke="black" d="M1392.79,-437.96C1402.1,-429.01 1413.51,-418.05 1423.68,-408.28"/>
<polygon fill="black" stroke="black" points="1426.38,-410.54 1431.17,-401.09 1421.53,-405.49 1426.38,-410.54"/>
</g>
<!-- roo_monitoring&#45;&gt;roo_testing -->
<g id="edge29" class="edge">
<title>roo_monitoring&#45;&gt;roo_testing</title>
<path fill="none" stroke="black" d="M1379.12,-437.88C1395.82,-374.54 1441.53,-161.18 1333,-56 1300.49,-24.5 994.93,-20.36 873.96,-19.96"/>
<polygon fill="black" stroke="black" points="873.88,-16.46 863.87,-19.94 873.86,-23.46 873.88,-16.46"/>
</g>
<!-- roo_onewire -->
<g id="node15" class="node">
<title>roo_onewire</title>
<polygon fill="plum" stroke="black" points="675.5,-476 590.5,-476 590.5,-438 675.5,-438 675.5,-476"/>
<text text-anchor="middle" x="633" y="-460.8" font-family="Times,serif" font-size="14.00">roo_onewire</text>
<text text-anchor="middle" x="633" y="-445.8" font-family="Times,serif" font-size="14.00">2.0.4</text>
</g>
<!-- roo_onewire&#45;&gt;roo_quantity -->
<g id="edge34" class="edge">
<title>roo_onewire&#45;&gt;roo_quantity</title>
<path fill="none" stroke="black" d="M675.61,-439.8C704.12,-428.96 741.85,-414.62 772.25,-403.06"/>
<polygon fill="black" stroke="black" points="773.74,-406.23 781.84,-399.41 771.25,-399.69 773.74,-406.23"/>
</g>
<!-- roo_onewire&#45;&gt;roo_scheduler -->
<g id="edge33" class="edge">
<title>roo_onewire&#45;&gt;roo_scheduler</title>
<path fill="none" stroke="black" d="M640.6,-437.91C653,-408.39 677.69,-349.63 692.33,-314.78"/>
<polygon fill="black" stroke="black" points="695.7,-315.79 696.35,-305.21 689.25,-313.08 695.7,-315.79"/>
</g>
<!-- roo_onewire&#45;&gt;roo_testing -->
<g id="edge32" class="edge">
<title>roo_onewire&#45;&gt;roo_testing</title>
<path fill="none" stroke="red" d="M590.26,-452.6C521.19,-446.3 389.2,-430.67 354,-401 291.68,-348.46 282.73,-307.43 296,-227 308.46,-151.47 310.44,-112.82 377,-75 444.28,-36.77 674.42,-24.79 776.06,-21.31"/>
<polygon fill="red" stroke="red" points="776.48,-24.8 786.36,-20.98 776.25,-17.81 776.48,-24.8"/>
<text text-anchor="middle" x="323" y="-241" font-family="Times,serif" font-size="10.00" fill="red">1.1.7</text>
<text text-anchor="middle" x="323" y="-230" font-family="Times,serif" font-size="10.00" fill="red">(latest: 1.1.8)</text>
</g>
<!-- roo_powersafefs -->
<g id="node16" class="node">
<title>roo_powersafefs</title>
<polygon fill="plum" stroke="black" points="572.5,-305 465.5,-305 465.5,-267 572.5,-267 572.5,-305"/>
<text text-anchor="middle" x="519" y="-289.8" font-family="Times,serif" font-size="14.00">roo_powersafefs</text>
<text text-anchor="middle" x="519" y="-274.8" font-family="Times,serif" font-size="14.00">1.0.0</text>
</g>
<!-- roo_powersafefs&#45;&gt;roo_testing -->
<g id="edge35" class="edge">
<title>roo_powersafefs&#45;&gt;roo_testing</title>
<path fill="none" stroke="black" d="M506.28,-266.97C496.67,-252.18 484.26,-230.28 479,-209 464.21,-149.13 467.55,-114.39 515,-75 553.96,-42.65 698.92,-28.32 776.02,-22.87"/>
<polygon fill="black" stroke="black" points="776.7,-26.33 786.44,-22.16 776.22,-19.35 776.7,-26.33"/>
</g>
<!-- roo_powersafefs&#45;&gt;roo_threads -->
<g id="edge36" class="edge">
<title>roo_powersafefs&#45;&gt;roo_threads</title>
<path fill="none" stroke="black" d="M522.47,-266.88C525.06,-253.35 528.65,-234.62 531.61,-219.15"/>
<polygon fill="black" stroke="black" points="535.1,-219.55 533.54,-209.07 528.22,-218.23 535.1,-219.55"/>
</g>
<!-- roo_prefs -->
<g id="node17" class="node">
<title>roo_prefs</title>
<polygon fill="plum" stroke="black" points="431,-401 363,-401 363,-363 431,-363 431,-401"/>
<text text-anchor="middle" x="397" y="-385.8" font-family="Times,serif" font-size="14.00">roo_prefs</text>
<text text-anchor="middle" x="397" y="-370.8" font-family="Times,serif" font-size="14.00">1.2.2</text>
</g>
<!-- roo_prefs&#45;&gt;roo_logging -->
<g id="edge38" class="edge">
<title>roo_prefs&#45;&gt;roo_logging</title>
<path fill="none" stroke="black" d="M431.25,-375.33C527.17,-359.46 798.9,-314.49 913.26,-295.56"/>
<polygon fill="black" stroke="black" points="913.89,-299.01 923.18,-293.92 912.74,-292.1 913.89,-299.01"/>
</g>
<!-- roo_prefs&#45;&gt;roo_scheduler -->
<g id="edge39" class="edge">
<title>roo_prefs&#45;&gt;roo_scheduler</title>
<path fill="none" stroke="black" d="M431.03,-370.58C483.34,-354.56 584.09,-323.71 647.48,-304.31"/>
<polygon fill="black" stroke="black" points="648.78,-307.57 657.32,-301.29 646.73,-300.87 648.78,-307.57"/>
</g>
<!-- roo_prefs&#45;&gt;roo_testing -->
<g id="edge37" class="edge">
<title>roo_prefs&#45;&gt;roo_testing</title>
<path fill="none" stroke="red" d="M390.1,-362.76C384.48,-347.48 376.58,-325.01 371,-305 361.46,-270.82 374.47,-255.98 354,-227 345.25,-214.61 332.37,-222.26 325,-209 316.79,-194.24 316.83,-185.78 325,-171 363.85,-100.75 404.41,-107.07 478,-75 577.73,-31.55 706.91,-21.94 776.11,-20.12"/>
<polygon fill="red" stroke="red" points="776.36,-23.61 786.28,-19.89 776.21,-16.61 776.36,-23.61"/>
<text text-anchor="middle" x="352" y="-193" font-family="Times,serif" font-size="10.00" fill="red">1.1.7</text>
<text text-anchor="middle" x="352" y="-182" font-family="Times,serif" font-size="10.00" fill="red">(latest: 1.1.8)</text>
</g>
<!-- roo_quantity&#45;&gt;roo_logging -->
<g id="edge40" class="edge">
<title>roo_quantity&#45;&gt;roo_logging</title>
<path fill="none" stroke="black" d="M836.64,-362.97C845.57,-350.34 858.91,-333.84 874,-323 885.88,-314.46 900.06,-307.6 913.66,-302.24"/>
<polygon fill="black" stroke="black" points="915.26,-305.38 923.41,-298.61 912.81,-298.82 915.26,-305.38"/>
</g>
<!-- roo_quantity&#45;&gt;roo_time -->
<g id="edge41" class="edge">
<title>roo_quantity&#45;&gt;roo_time</title>
<path fill="none" stroke="red" d="M825,-362.67C825,-314.14 825,-182.02 825,-123.52"/>
<polygon fill="red" stroke="red" points="828.5,-123.17 825,-113.17 821.5,-123.17 828.5,-123.17"/>
<text text-anchor="middle" x="852" y="-241" font-family="Times,serif" font-size="10.00" fill="red">1.3.2</text>
<text text-anchor="middle" x="852" y="-230" font-family="Times,serif" font-size="10.00" fill="red">(latest: 1.3.3)</text>
</g>
<!-- roo_scheduler&#45;&gt;roo_collections -->
<g id="edge43" class="edge">
<title>roo_scheduler&#45;&gt;roo_collections</title>
<path fill="none" stroke="black" d="M750.68,-280.6C793.21,-276.68 857.79,-270.97 914,-267 1057.42,-256.86 1094.19,-265.62 1237,-249 1330.36,-238.13 1437.45,-217.49 1502.64,-203.99"/>
<polygon fill="black" stroke="black" points="1503.66,-207.35 1512.74,-201.89 1502.23,-200.5 1503.66,-207.35"/>
</g>
<!-- roo_scheduler&#45;&gt;roo_testing -->
<g id="edge42" class="edge">
<title>roo_scheduler&#45;&gt;roo_testing</title>
<path fill="none" stroke="red" d="M657.37,-275.18C600.06,-262.05 507.93,-237.14 488,-209 478.24,-195.22 483.96,-187.4 488,-171 517.27,-52.26 690.02,-26.64 776.18,-21.29"/>
<polygon fill="red" stroke="red" points="776.45,-24.78 786.24,-20.73 776.07,-17.79 776.45,-24.78"/>
<text text-anchor="middle" x="533" y="-145" font-family="Times,serif" font-size="10.00" fill="red">1.1.7</text>
<text text-anchor="middle" x="533" y="-134" font-family="Times,serif" font-size="10.00" fill="red">(latest: 1.1.8)</text>
</g>
<!-- roo_scheduler&#45;&gt;roo_threads -->
<g id="edge44" class="edge">
<title>roo_scheduler&#45;&gt;roo_threads</title>
<path fill="none" stroke="black" d="M671.8,-266.88C645.12,-251.86 607.02,-230.41 578.13,-214.15"/>
<polygon fill="black" stroke="black" points="579.53,-210.92 569.1,-209.07 576.1,-217.02 579.53,-210.92"/>
</g>
<!-- roo_scheduler&#45;&gt;roo_time -->
<g id="edge45" class="edge">
<title>roo_scheduler&#45;&gt;roo_time</title>
<path fill="none" stroke="red" d="M710.55,-266.76C719.33,-243.51 736.23,-202.53 757,-171 769,-152.79 785.2,-134.5 798.77,-120.44"/>
<polygon fill="red" stroke="red" points="801.49,-122.67 806,-113.08 796.5,-117.76 801.49,-122.67"/>
<text text-anchor="middle" x="784" y="-193" font-family="Times,serif" font-size="10.00" fill="red">1.3.2</text>
<text text-anchor="middle" x="784" y="-182" font-family="Times,serif" font-size="10.00" fill="red">(latest: 1.3.3)</text>
</g>
<!-- roo_threads&#45;&gt;roo_testing -->
<g id="edge46" class="edge">
<title>roo_threads&#45;&gt;roo_testing</title>
<path fill="none" stroke="red" d="M550.86,-170.81C560.98,-158.43 575.57,-142.3 591,-131 649.5,-88.17 727.14,-55.25 776.6,-36.76"/>
<polygon fill="red" stroke="red" points="777.94,-40 786.11,-33.25 775.51,-33.43 777.94,-40"/>
<text text-anchor="middle" x="713" y="-97" font-family="Times,serif" font-size="10.00" fill="red">1.1.7</text>
<text text-anchor="middle" x="713" y="-86" font-family="Times,serif" font-size="10.00" fill="red">(latest: 1.1.8)</text>
</g>
<!-- roo_threads&#45;&gt;roo_time -->
<g id="edge47" class="edge">
<title>roo_threads&#45;&gt;roo_time</title>
<path fill="none" stroke="red" d="M562.82,-170.96C582.56,-157.99 610.9,-141.07 638,-131 685.31,-113.42 742.69,-104.01 781.31,-99.27"/>
<polygon fill="red" stroke="red" points="782.15,-102.7 791.68,-98.06 781.34,-95.74 782.15,-102.7"/>
<text text-anchor="middle" x="665" y="-145" font-family="Times,serif" font-size="10.00" fill="red">1.3.2</text>
<text text-anchor="middle" x="665" y="-134" font-family="Times,serif" font-size="10.00" fill="red">(latest: 1.3.3)</text>
</g>
<!-- roo_time&#45;&gt;roo_testing -->
<g id="edge48" class="edge">
<title>roo_time&#45;&gt;roo_testing</title>
<path fill="none" stroke="black" d="M825,-74.96C825,-66.88 825,-57.18 825,-48.18"/>
<polygon fill="black" stroke="black" points="828.5,-48.09 825,-38.09 821.5,-48.09 828.5,-48.09"/>
</g>
<!-- roo_time_ds3231 -->
<g id="node23" class="node">
<title>roo_time_ds3231</title>
<polygon fill="#b1dbab" stroke="black" points="707,-209 595,-209 595,-171 707,-171 707,-209"/>
<text text-anchor="middle" x="651" y="-193.8" font-family="Times,serif" font-size="14.00">roo_time_ds3231</text>
<text text-anchor="middle" x="651" y="-178.8" font-family="Times,serif" font-size="14.00">1.1.3</text>
</g>
<!-- roo_time_ds3231&#45;&gt;roo_time -->
<g id="edge49" class="edge">
<title>roo_time_ds3231&#45;&gt;roo_time</title>
<path fill="none" stroke="black" d="M672.08,-170.76C687.18,-158.36 708.4,-142.23 729,-131 745.59,-121.96 764.93,-114.22 781.89,-108.27"/>
<polygon fill="black" stroke="black" points="783.22,-111.51 791.56,-104.97 780.96,-104.88 783.22,-111.51"/>
</g>
<!-- roo_transceivers&#45;&gt;roo_prefs -->
<g id="edge51" class="edge">
<title>roo_transceivers&#45;&gt;roo_prefs</title>
<path fill="none" stroke="black" d="M330.75,-437.96C341.75,-428.83 355.27,-417.62 367.22,-407.7"/>
<polygon fill="black" stroke="black" points="369.73,-410.17 375.19,-401.09 365.26,-404.78 369.73,-410.17"/>
</g>
<!-- roo_transceivers&#45;&gt;roo_testing -->
<g id="edge50" class="edge">
<title>roo_transceivers&#45;&gt;roo_testing</title>
<path fill="none" stroke="red" d="M300.05,-437.75C283.25,-402.37 247.58,-321.58 235,-249 220.06,-162.81 255.3,-125.11 327,-75 398.75,-24.86 665.47,-19.56 776.27,-19.59"/>
<polygon fill="red" stroke="red" points="776.48,-23.09 786.49,-19.61 776.5,-16.09 776.48,-23.09"/>
<text text-anchor="middle" x="262" y="-241" font-family="Times,serif" font-size="10.00" fill="red">1.1.7</text>
<text text-anchor="middle" x="262" y="-230" font-family="Times,serif" font-size="10.00" fill="red">(latest: 1.1.8)</text>
</g>
<!-- roo_transceivers&#45;&gt;roo_time -->
<g id="edge52" class="edge">
<title>roo_transceivers&#45;&gt;roo_time</title>
<path fill="none" stroke="red" d="M312.54,-437.88C324.89,-380.27 371.96,-200.94 491,-131 539.6,-102.45 688.23,-121.14 744,-113 756.36,-111.2 769.64,-108.55 781.8,-105.84"/>
<polygon fill="red" stroke="red" points="782.75,-109.21 791.71,-103.56 781.18,-102.39 782.75,-109.21"/>
<text text-anchor="middle" x="399" y="-289" font-family="Times,serif" font-size="10.00" fill="red">1.3.2</text>
<text text-anchor="middle" x="399" y="-278" font-family="Times,serif" font-size="10.00" fill="red">(latest: 1.3.3)</text>
</g>
<!-- roo_transport -->
<g id="node25" class="node">
<title>roo_transport</title>
<polygon fill="plum" stroke="black" points="1572.5,-476 1483.5,-476 1483.5,-438 1572.5,-438 1572.5,-476"/>
<text text-anchor="middle" x="1528" y="-460.8" font-family="Times,serif" font-size="14.00">roo_transport</text>
<text text-anchor="middle" x="1528" y="-445.8" font-family="Times,serif" font-size="14.00">1.0.1</text>
</g>
<!-- roo_transport&#45;&gt;roo_collections -->
<g id="edge54" class="edge">
<title>roo_transport&#45;&gt;roo_collections</title>
<path fill="none" stroke="black" d="M1530.41,-437.79C1536.4,-392.4 1552.04,-274.01 1559.25,-219.38"/>
<polygon fill="black" stroke="black" points="1562.74,-219.71 1560.58,-209.34 1555.8,-218.8 1562.74,-219.71"/>
</g>
<!-- roo_transport&#45;&gt;roo_io -->
<g id="edge55" class="edge">
<title>roo_transport&#45;&gt;roo_io</title>
<path fill="none" stroke="black" d="M1508.72,-437.96C1499.06,-428.92 1487.22,-417.83 1476.7,-407.99"/>
<polygon fill="black" stroke="black" points="1479.02,-405.37 1469.33,-401.09 1474.24,-410.48 1479.02,-405.37"/>
</g>
<!-- roo_transport&#45;&gt;roo_testing -->
<g id="edge53" class="edge">
<title>roo_transport&#45;&gt;roo_testing</title>
<path fill="none" stroke="red" d="M1538.19,-437.94C1541.2,-432.28 1544.39,-425.95 1547,-420 1587,-328.87 1605.09,-307.08 1622,-209 1633.03,-145.05 1618.75,-109.85 1564,-75 1505.98,-38.07 1029.27,-24.46 873.81,-20.98"/>
<polygon fill="red" stroke="red" points="873.69,-17.48 863.62,-20.75 873.54,-24.47 873.69,-17.48"/>
<text text-anchor="middle" x="1646" y="-241" font-family="Times,serif" font-size="10.00" fill="red">1.1.7</text>
<text text-anchor="middle" x="1646" y="-230" font-family="Times,serif" font-size="10.00" fill="red">(latest: 1.1.8)</text>
</g>
<!-- roo_wifi -->
<g id="node26" class="node">
<title>roo_wifi</title>
<polygon fill="plum" stroke="black" points="173.5,-476 110.5,-476 110.5,-438 173.5,-438 173.5,-476"/>
<text text-anchor="middle" x="142" y="-460.8" font-family="Times,serif" font-size="14.00">roo_wifi</text>
<text text-anchor="middle" x="142" y="-445.8" font-family="Times,serif" font-size="14.00">1.1.1</text>
</g>
<!-- roo_wifi&#45;&gt;roo_prefs -->
<g id="edge57" class="edge">
<title>roo_wifi&#45;&gt;roo_prefs</title>
<path fill="none" stroke="black" d="M173.52,-446.98C218.62,-434.07 301.74,-410.27 352.92,-395.62"/>
<polygon fill="black" stroke="black" points="354.05,-398.94 362.7,-392.82 352.13,-392.21 354.05,-398.94"/>
</g>
<!-- roo_wifi&#45;&gt;roo_testing -->
<g id="edge56" class="edge">
<title>roo_wifi&#45;&gt;roo_testing</title>
<path fill="none" stroke="red" d="M133.31,-437.85C127.16,-423.35 120,-402.33 120,-383 120,-383 120,-383 120,-93 120,-63.54 147.07,-65.37 175,-56 286.23,-18.67 644.6,-18.21 776.06,-19.37"/>
<polygon fill="red" stroke="red" points="776.2,-22.87 786.23,-19.47 776.27,-15.87 776.2,-22.87"/>
<text text-anchor="middle" x="147" y="-241" font-family="Times,serif" font-size="10.00" fill="red">1.1.7</text>
<text text-anchor="middle" x="147" y="-230" font-family="Times,serif" font-size="10.00" fill="red">(latest: 1.1.8)</text>
</g>
<!-- roo_windows&#45;&gt;roo_icons -->
<g id="edge60" class="edge">
<title>roo_windows&#45;&gt;roo_icons</title>
<path fill="none" stroke="black" d="M1045.24,-599.33C1139.44,-585.44 1355.69,-553.54 1449.83,-539.66"/>
<polygon fill="black" stroke="black" points="1450.51,-543.1 1459.89,-538.18 1449.49,-536.17 1450.51,-543.1"/>
</g>
<!-- roo_windows&#45;&gt;roo_locale -->
<g id="edge59" class="edge">
<title>roo_windows&#45;&gt;roo_locale</title>
<path fill="none" stroke="black" d="M1045.06,-605.5C1136.85,-603.62 1351.84,-594.72 1537.91,-550.89"/>
<polygon fill="black" stroke="black" points="1538.96,-554.24 1547.87,-548.5 1537.33,-547.43 1538.96,-554.24"/>
</g>
<!-- roo_windows&#45;&gt;roo_scheduler -->
<g id="edge61" class="edge">
<title>roo_windows&#45;&gt;roo_scheduler</title>
<path fill="none" stroke="black" d="M954.72,-604.17C871.8,-599.59 704,-584.01 704,-533 704,-533 704,-533 704,-381 704,-358.9 704,-333.88 704,-315.21"/>
<polygon fill="black" stroke="black" points="707.5,-315.02 704,-305.02 700.5,-315.02 707.5,-315.02"/>
</g>
<!-- roo_windows&#45;&gt;roo_testing -->
<g id="edge58" class="edge">
<title>roo_windows&#45;&gt;roo_testing</title>
<path fill="none" stroke="red" d="M954.91,-604.59C808.51,-599.06 349.94,-574.11 247,-476 183.39,-415.38 189,-374.87 189,-287 189,-287 189,-287 189,-93 189,-33.98 626.82,-22.65 775.94,-20.5"/>
<polygon fill="red" stroke="red" points="776.22,-23.99 786.17,-20.36 776.13,-16.99 776.22,-23.99"/>
<text text-anchor="middle" x="217" y="-337" font-family="Times,serif" font-size="10.00" fill="red">1.1.7</text>
<text text-anchor="middle" x="217" y="-326" font-family="Times,serif" font-size="10.00" fill="red">(latest: 1.1.8)</text>
</g>
<!-- roo_windows&#45;&gt;roo_time -->
<g id="edge62" class="edge">
<title>roo_windows&#45;&gt;roo_time</title>
<path fill="none" stroke="red" d="M1045.05,-599.62C1106.76,-589.59 1210,-567.64 1210,-533 1210,-533 1210,-533 1210,-419 1210,-308.6 1280.84,-241.64 1196,-171 1162.05,-142.73 1147.57,-142.83 1105,-131 1023.37,-108.32 924.32,-99.85 868.59,-96.75"/>
<polygon fill="red" stroke="red" points="868.54,-93.24 858.37,-96.21 868.17,-100.23 868.54,-93.24"/>
<text text-anchor="middle" x="1243" y="-385" font-family="Times,serif" font-size="10.00" fill="red">1.3.2</text>
<text text-anchor="middle" x="1243" y="-374" font-family="Times,serif" font-size="10.00" fill="red">(latest: 1.3.3)</text>
</g>
<!-- roo_windows_transceivers -->
<g id="node28" class="node">
<title>roo_windows_transceivers</title>
<polygon fill="plum" stroke="black" points="389.5,-701 228.5,-701 228.5,-663 389.5,-663 389.5,-701"/>
<text text-anchor="middle" x="309" y="-685.8" font-family="Times,serif" font-size="14.00">roo_windows_transceivers</text>
<text text-anchor="middle" x="309" y="-670.8" font-family="Times,serif" font-size="14.00">1.0.0</text>
</g>
<!-- roo_windows_transceivers&#45;&gt;roo_testing -->
<g id="edge63" class="edge">
<title>roo_windows_transceivers&#45;&gt;roo_testing</title>
<path fill="none" stroke="black" d="M266.84,-662.89C201.19,-631.53 82,-560.48 82,-458 82,-458 82,-458 82,-93 82,-23.05 610.39,-19.16 775.99,-19.66"/>
<polygon fill="black" stroke="black" points="776.35,-23.16 786.36,-19.7 776.37,-16.16 776.35,-23.16"/>
</g>
<!-- roo_windows_transceivers&#45;&gt;roo_transceivers -->
<g id="edge64" class="edge">
<title>roo_windows_transceivers&#45;&gt;roo_transceivers</title>
<path fill="none" stroke="black" d="M309,-662.75C309,-623.94 309,-532.97 309,-486.47"/>
<polygon fill="black" stroke="black" points="312.5,-486.19 309,-476.19 305.5,-486.19 312.5,-486.19"/>
</g>
<!-- roo_windows_transceivers&#45;&gt;roo_windows -->
<g id="edge65" class="edge">
<title>roo_windows_transceivers&#45;&gt;roo_windows</title>
<path fill="none" stroke="black" d="M389.62,-672.48C531.62,-657.48 822.82,-626.72 944.57,-613.86"/>
<polygon fill="black" stroke="black" points="945.2,-617.31 954.78,-612.78 944.46,-610.35 945.2,-617.31"/>
</g>
<!-- roo_windows_wifi -->
<g id="node29" class="node">
<title>roo_windows_wifi</title>
<polygon fill="plum" stroke="black" points="166.5,-701 47.5,-701 47.5,-663 166.5,-663 166.5,-701"/>
<text text-anchor="middle" x="107" y="-685.8" font-family="Times,serif" font-size="14.00">roo_windows_wifi</text>
<text text-anchor="middle" x="107" y="-670.8" font-family="Times,serif" font-size="14.00">1.1.2</text>
</g>
<!-- roo_windows_wifi&#45;&gt;roo_testing -->
<g id="edge66" class="edge">
<title>roo_windows_wifi&#45;&gt;roo_testing</title>
<path fill="none" stroke="red" d="M47.24,-663.36C22.73,-652.12 0,-634.54 0,-608 0,-608 0,-608 0,-93 0,-91.52 136.82,-56.79 142,-56 377.6,-19.91 663.66,-18.28 776.19,-19.26"/>
<polygon fill="red" stroke="red" points="776.18,-22.76 786.21,-19.36 776.25,-15.76 776.18,-22.76"/>
<text text-anchor="middle" x="27" y="-385" font-family="Times,serif" font-size="10.00" fill="red">1.1.7</text>
<text text-anchor="middle" x="27" y="-374" font-family="Times,serif" font-size="10.00" fill="red">(latest: 1.1.8)</text>
</g>
<!-- roo_windows_wifi&#45;&gt;roo_wifi -->
<g id="edge67" class="edge">
<title>roo_windows_wifi&#45;&gt;roo_wifi</title>
<path fill="none" stroke="black" d="M109.86,-662.75C115.97,-623.86 130.29,-532.59 137.58,-486.17"/>
<polygon fill="black" stroke="black" points="141.05,-486.61 139.15,-476.19 134.14,-485.52 141.05,-486.61"/>
</g>
<!-- roo_windows_wifi&#45;&gt;roo_windows -->
<g id="edge68" class="edge">
<title>roo_windows_wifi&#45;&gt;roo_windows</title>
<path fill="none" stroke="black" d="M166.73,-670.39C183.59,-667.67 201.98,-664.96 219,-663 490.21,-631.72 816.61,-615.67 944.65,-610.2"/>
<polygon fill="black" stroke="black" points="945.12,-613.69 954.97,-609.77 944.83,-606.69 945.12,-613.69"/>
</g>
</g>
</svg>
