<?xml version="1.0" encoding="UTF-8" standalone="no"?>
<!DOCTYPE svg PUBLIC "-//W3C//DTD SVG 1.1//EN"
 "http://www.w3.org/Graphics/SVG/1.1/DTD/svg11.dtd">
<!-- Generated by graphviz version 2.42.4 (0)
 -->
<!-- Title: dependencies Pages: 1 -->
<svg width="844pt" height="772pt"
 viewBox="0.00 0.00 843.50 772.00" xmlns="http://www.w3.org/2000/svg" xmlns:xlink="http://www.w3.org/1999/xlink">
<g id="graph0" class="graph" transform="scale(1 1) rotate(0) translate(4 768)">
<title>dependencies</title>
<polygon fill="white" stroke="transparent" points="-4,4 -4,-768 839.5,-768 839.5,4 -4,4"/>
<!-- roo_backport -->
<g id="node1" class="node">
<title>roo_backport</title>
<polygon fill="#b1dbab" stroke="black" points="462.5,-209 373.5,-209 373.5,-171 462.5,-171 462.5,-209"/>
<text text-anchor="middle" x="418" y="-193.8" font-family="Times,serif" font-size="14.00">roo_backport</text>
<text text-anchor="middle" x="418" y="-178.8" font-family="Times,serif" font-size="14.00">1.2.1</text>
</g>
<!-- roo_blink -->
<g id="node2" class="node">
<title>roo_blink</title>
<polygon fill="#b1dbab" stroke="black" points="179.5,-593 110.5,-593 110.5,-555 179.5,-555 179.5,-593"/>
<text text-anchor="middle" x="145" y="-577.8" font-family="Times,serif" font-size="14.00">roo_blink</text>
<text text-anchor="middle" x="145" y="-562.8" font-family="Times,serif" font-size="14.00">1.0.5</text>
</g>
<!-- roo_logging -->
<g id="node13" class="node">
<title>roo_logging</title>
<polygon fill="#b1dbab" stroke="black" points="324.5,-305 241.5,-305 241.5,-267 324.5,-267 324.5,-305"/>
<text text-anchor="middle" x="283" y="-289.8" font-family="Times,serif" font-size="14.00">roo_logging</text>
<text text-anchor="middle" x="283" y="-274.8" font-family="Times,serif" font-size="14.00">1.5.3</text>
</g>
<!-- roo_blink&#45;&gt;roo_logging -->
<g id="edge1" class="edge">
<title>roo_blink&#45;&gt;roo_logging</title>
<path fill="none" stroke="black" d="M148.01,-554.69C155.93,-510.94 180.66,-398.4 236,-323 238.89,-319.06 242.32,-315.35 246,-311.91"/>
<polygon fill="black" stroke="black" points="248.47,-314.41 253.8,-305.25 243.92,-309.08 248.47,-314.41"/>
</g>
<!-- roo_scheduler -->
<g id="node19" class="node">
<title>roo_scheduler</title>
<polygon fill="#b1dbab" stroke="black" points="290.5,-497 197.5,-497 197.5,-459 290.5,-459 290.5,-497"/>
<text text-anchor="middle" x="244" y="-481.8" font-family="Times,serif" font-size="14.00">roo_scheduler</text>
<text text-anchor="middle" x="244" y="-466.8" font-family="Times,serif" font-size="14.00">2.1.7</text>
</g>
<!-- roo_blink&#45;&gt;roo_scheduler -->
<g id="edge2" class="edge">
<title>roo_blink&#45;&gt;roo_scheduler</title>
<path fill="none" stroke="black" d="M164.09,-554.88C179.29,-540.44 200.74,-520.07 217.59,-504.07"/>
<polygon fill="black" stroke="black" points="220.13,-506.49 224.97,-497.07 215.31,-501.42 220.13,-506.49"/>
</g>
<!-- roo_collections -->
<g id="node3" class="node">
<title>roo_collections</title>
<polygon fill="#b1dbab" stroke="black" points="554,-401 454,-401 454,-363 554,-363 554,-401"/>
<text text-anchor="middle" x="504" y="-385.8" font-family="Times,serif" font-size="14.00">roo_collections</text>
<text text-anchor="middle" x="504" y="-370.8" font-family="Times,serif" font-size="14.00">1.4.1</text>
</g>
<!-- roo_collections&#45;&gt;roo_backport -->
<g id="edge3" class="edge">
<title>roo_collections&#45;&gt;roo_backport</title>
<path fill="none" stroke="black" d="M495.75,-362.78C480.6,-329.3 448.25,-257.82 430.42,-218.44"/>
<polygon fill="black" stroke="black" points="433.53,-216.83 426.22,-209.16 427.16,-219.72 433.53,-216.83"/>
</g>
<!-- roo_comms -->
<g id="node4" class="node">
<title>roo_comms</title>
<polygon fill="#b1dbab" stroke="red" points="290,-764 208,-764 208,-726 290,-726 290,-764"/>
<text text-anchor="middle" x="249" y="-748.8" font-family="Times,serif" font-size="14.00">roo_comms</text>
<text text-anchor="middle" x="249" y="-733.8" font-family="Times,serif" font-size="14.00">1.1.3</text>
</g>
<!-- roo_comms&#45;&gt;roo_blink -->
<g id="edge4" class="edge">
<title>roo_comms&#45;&gt;roo_blink</title>
<path fill="none" stroke="red" d="M237.87,-725.91C219.54,-696.13 182.92,-636.62 161.55,-601.89"/>
<polygon fill="red" stroke="red" points="164.43,-599.89 156.21,-593.21 158.47,-603.56 164.43,-599.89"/>
<text text-anchor="middle" x="230" y="-652" font-family="Times,serif" font-size="10.00" fill="red">1.0.4</text>
<text text-anchor="middle" x="230" y="-641" font-family="Times,serif" font-size="10.00" fill="red">(latest: 1.0.5)</text>
</g>
<!-- roo_control -->
<g id="node5" class="node">
<title>roo_control</title>
<polygon fill="#b1dbab" stroke="black" points="92,-593 12,-593 12,-555 92,-555 92,-593"/>
<text text-anchor="middle" x="52" y="-577.8" font-family="Times,serif" font-size="14.00">roo_control</text>
<text text-anchor="middle" x="52" y="-562.8" font-family="Times,serif" font-size="14.00">1.2.4</text>
</g>
<!-- roo_comms&#45;&gt;roo_control -->
<g id="edge5" class="edge">
<title>roo_comms&#45;&gt;roo_control</title>
<path fill="none" stroke="red" d="M210.59,-726C183.97,-712.38 148.65,-691.97 122,-668 100.37,-648.55 80.93,-621.57 68.06,-601.67"/>
<polygon fill="red" stroke="red" points="70.93,-599.66 62.62,-593.08 65.01,-603.41 70.93,-599.66"/>
<text text-anchor="middle" x="149" y="-652" font-family="Times,serif" font-size="10.00" fill="red">1.2.3</text>
<text text-anchor="middle" x="149" y="-641" font-family="Times,serif" font-size="10.00" fill="red">(latest: 1.2.4)</text>
</g>
<!-- roo_io -->
<g id="node10" class="node">
<title>roo_io</title>
<polygon fill="plum" stroke="red" points="396,-401 342,-401 342,-363 396,-363 396,-401"/>
<text text-anchor="middle" x="369" y="-385.8" font-family="Times,serif" font-size="14.00">roo_io</text>
<text text-anchor="middle" x="369" y="-370.8" font-family="Times,serif" font-size="14.00">2.1.2</text>
</g>
<!-- roo_comms&#45;&gt;roo_io -->
<g id="edge6" class="edge">
<title>roo_comms&#45;&gt;roo_io</title>
<path fill="none" stroke="red" d="M273.88,-725.71C294,-708.63 319,-681.13 319,-650 319,-650 319,-650 319,-477 319,-452.06 332.89,-427.3 346.03,-409.45"/>
<polygon fill="red" stroke="red" points="349,-411.33 352.35,-401.28 343.46,-407.05 349,-411.33"/>
<text text-anchor="middle" x="346" y="-577" font-family="Times,serif" font-size="10.00" fill="red">2.1.1</text>
<text text-anchor="middle" x="346" y="-566" font-family="Times,serif" font-size="10.00" fill="red">(latest: 2.1.2)</text>
</g>
<!-- roo_transceivers -->
<g id="node24" class="node">
<title>roo_transceivers</title>
<polygon fill="#b1dbab" stroke="red" points="453,-668 347,-668 347,-630 453,-630 453,-668"/>
<text text-anchor="middle" x="400" y="-652.8" font-family="Times,serif" font-size="14.00">roo_transceivers</text>
<text text-anchor="middle" x="400" y="-637.8" font-family="Times,serif" font-size="14.00">1.1.4</text>
</g>
<!-- roo_comms&#45;&gt;roo_transceivers -->
<g id="edge7" class="edge">
<title>roo_comms&#45;&gt;roo_transceivers</title>
<path fill="none" stroke="black" d="M290.01,-729.39C304.11,-723.6 319.69,-716.33 333,-708 347.87,-698.69 362.79,-686.17 374.76,-675.14"/>
<polygon fill="black" stroke="black" points="377.29,-677.57 382.17,-668.16 372.49,-672.47 377.29,-677.57"/>
</g>
<!-- roo_quantity -->
<g id="node18" class="node">
<title>roo_quantity</title>
<polygon fill="#b1dbab" stroke="black" points="117,-497 31,-497 31,-459 117,-459 117,-497"/>
<text text-anchor="middle" x="74" y="-481.8" font-family="Times,serif" font-size="14.00">roo_quantity</text>
<text text-anchor="middle" x="74" y="-466.8" font-family="Times,serif" font-size="14.00">1.1.7</text>
</g>
<!-- roo_control&#45;&gt;roo_quantity -->
<g id="edge8" class="edge">
<title>roo_control&#45;&gt;roo_quantity</title>
<path fill="none" stroke="black" d="M56.24,-554.88C59.41,-541.35 63.79,-522.62 67.41,-507.15"/>
<polygon fill="black" stroke="black" points="70.9,-507.6 69.77,-497.07 64.08,-506.01 70.9,-507.6"/>
</g>
<!-- roo_control&#45;&gt;roo_scheduler -->
<g id="edge9" class="edge">
<title>roo_control&#45;&gt;roo_scheduler</title>
<path fill="none" stroke="black" d="M89.02,-554.88C120.1,-539.66 164.64,-517.85 198,-501.52"/>
<polygon fill="black" stroke="black" points="199.65,-504.61 207.09,-497.07 196.57,-498.32 199.65,-504.61"/>
</g>
<!-- roo_dashboard -->
<g id="node6" class="node">
<title>roo_dashboard</title>
<polygon fill="plum" stroke="red" points="732.5,-764 635.5,-764 635.5,-726 732.5,-726 732.5,-764"/>
<text text-anchor="middle" x="684" y="-748.8" font-family="Times,serif" font-size="14.00">roo_dashboard</text>
<text text-anchor="middle" x="684" y="-733.8" font-family="Times,serif" font-size="14.00">1.0.1</text>
</g>
<!-- roo_windows -->
<g id="node27" class="node">
<title>roo_windows</title>
<polygon fill="#b1dbab" stroke="red" points="648,-668 558,-668 558,-630 648,-630 648,-668"/>
<text text-anchor="middle" x="603" y="-652.8" font-family="Times,serif" font-size="14.00">roo_windows</text>
<text text-anchor="middle" x="603" y="-637.8" font-family="Times,serif" font-size="14.00">1.4.2</text>
</g>
<!-- roo_dashboard&#45;&gt;roo_windows -->
<g id="edge10" class="edge">
<title>roo_dashboard&#45;&gt;roo_windows</title>
<path fill="none" stroke="red" d="M668.38,-725.88C656.17,-711.7 639.02,-691.81 625.36,-675.94"/>
<polygon fill="red" stroke="red" points="627.75,-673.36 618.57,-668.07 622.45,-677.93 627.75,-673.36"/>
<text text-anchor="middle" x="677" y="-700" font-family="Times,serif" font-size="10.00" fill="red">1.4.1</text>
<text text-anchor="middle" x="677" y="-689" font-family="Times,serif" font-size="10.00" fill="red">(latest: 1.4.2)</text>
</g>
<!-- roo_display -->
<g id="node7" class="node">
<title>roo_display</title>
<polygon fill="khaki" stroke="red" points="589,-497 509,-497 509,-459 589,-459 589,-497"/>
<text text-anchor="middle" x="549" y="-481.8" font-family="Times,serif" font-size="14.00">roo_display</text>
<text text-anchor="middle" x="549" y="-466.8" font-family="Times,serif" font-size="14.00">2.3.2</text>
</g>
<!-- roo_display&#45;&gt;roo_collections -->
<g id="edge11" class="edge">
<title>roo_display&#45;&gt;roo_collections</title>
<path fill="none" stroke="red" d="M557.89,-458.77C562.37,-446.83 565.61,-431.22 559,-419 556.77,-414.88 553.84,-411.15 550.5,-407.8"/>
<polygon fill="red" stroke="red" points="552.49,-404.9 542.62,-401.06 547.94,-410.22 552.49,-404.9"/>
<text text-anchor="middle" x="589" y="-433" font-family="Times,serif" font-size="10.00" fill="red">1.4.0</text>
<text text-anchor="middle" x="589" y="-422" font-family="Times,serif" font-size="10.00" fill="red">(latest: 1.4.1)</text>
</g>
<!-- roo_display&#45;&gt;roo_io -->
<g id="edge12" class="edge">
<title>roo_display&#45;&gt;roo_io</title>
<path fill="none" stroke="black" d="M508.76,-463.01C504.14,-461.58 499.49,-460.21 495,-459 456.87,-448.74 440.78,-463.01 408,-441 396.75,-433.44 387.89,-421.43 381.48,-410.3"/>
<polygon fill="black" stroke="black" points="384.46,-408.45 376.67,-401.27 378.28,-411.74 384.46,-408.45"/>
</g>
<!-- roo_flags -->
<g id="node8" class="node">
<title>roo_flags</title>
<polygon fill="#b1dbab" stroke="black" points="317,-209 249,-209 249,-171 317,-171 317,-209"/>
<text text-anchor="middle" x="283" y="-193.8" font-family="Times,serif" font-size="14.00">roo_flags</text>
<text text-anchor="middle" x="283" y="-178.8" font-family="Times,serif" font-size="14.00">1.2.1</text>
</g>
<!-- roo_icons -->
<g id="node9" class="node">
<title>roo_icons</title>
<polygon fill="#b1dbab" stroke="red" points="637,-593 567,-593 567,-555 637,-555 637,-593"/>
<text text-anchor="middle" x="602" y="-577.8" font-family="Times,serif" font-size="14.00">roo_icons</text>
<text text-anchor="middle" x="602" y="-562.8" font-family="Times,serif" font-size="14.00">1.2.1</text>
</g>
<!-- roo_icons&#45;&gt;roo_display -->
<g id="edge13" class="edge">
<title>roo_icons&#45;&gt;roo_display</title>
<path fill="none" stroke="red" d="M591.78,-554.88C583.94,-540.96 572.98,-521.53 564.12,-505.82"/>
<polygon fill="red" stroke="red" points="567.15,-504.06 559.19,-497.07 561.05,-507.5 567.15,-504.06"/>
<text text-anchor="middle" x="607" y="-529" font-family="Times,serif" font-size="10.00" fill="red">2.3.1</text>
<text text-anchor="middle" x="607" y="-518" font-family="Times,serif" font-size="10.00" fill="red">(latest: 2.3.2)</text>
</g>
<!-- roo_io&#45;&gt;roo_logging -->
<g id="edge14" class="edge">
<title>roo_io&#45;&gt;roo_logging</title>
<path fill="none" stroke="red" d="M352.42,-362.88C339.33,-348.57 320.91,-328.44 306.34,-312.51"/>
<polygon fill="red" stroke="red" points="308.86,-310.08 299.53,-305.07 303.7,-314.81 308.86,-310.08"/>
<text text-anchor="middle" x="361" y="-337" font-family="Times,serif" font-size="10.00" fill="red">1.5.2</text>
<text text-anchor="middle" x="361" y="-326" font-family="Times,serif" font-size="10.00" fill="red">(latest: 1.5.3)</text>
</g>
<!-- roo_io_sdfat -->
<g id="node11" class="node">
<title>roo_io_sdfat</title>
<polygon fill="plum" stroke="black" points="835.5,-764 750.5,-764 750.5,-726 835.5,-726 835.5,-764"/>
<text text-anchor="middle" x="793" y="-748.8" font-family="Times,serif" font-size="14.00">roo_io_sdfat</text>
<text text-anchor="middle" x="793" y="-733.8" font-family="Times,serif" font-size="14.00">1.0.0</text>
</g>
<!-- roo_locale -->
<g id="node12" class="node">
<title>roo_locale</title>
<polygon fill="#b1dbab" stroke="black" points="729,-593 655,-593 655,-555 729,-555 729,-593"/>
<text text-anchor="middle" x="692" y="-577.8" font-family="Times,serif" font-size="14.00">roo_locale</text>
<text text-anchor="middle" x="692" y="-562.8" font-family="Times,serif" font-size="14.00">1.1.1</text>
</g>
<!-- roo_logging&#45;&gt;roo_backport -->
<g id="edge15" class="edge">
<title>roo_logging&#45;&gt;roo_backport</title>
<path fill="none" stroke="black" d="M309.03,-266.88C330.32,-252.05 360.6,-230.97 383.84,-214.79"/>
<polygon fill="black" stroke="black" points="385.84,-217.66 392.05,-209.07 381.84,-211.91 385.84,-217.66"/>
</g>
<!-- roo_logging&#45;&gt;roo_flags -->
<g id="edge16" class="edge">
<title>roo_logging&#45;&gt;roo_flags</title>
<path fill="none" stroke="black" d="M283,-266.88C283,-253.35 283,-234.62 283,-219.15"/>
<polygon fill="black" stroke="black" points="286.5,-219.07 283,-209.07 279.5,-219.07 286.5,-219.07"/>
</g>
<!-- roo_threads -->
<g id="node21" class="node">
<title>roo_threads</title>
<polygon fill="#b1dbab" stroke="black" points="210,-209 130,-209 130,-171 210,-171 210,-209"/>
<text text-anchor="middle" x="170" y="-193.8" font-family="Times,serif" font-size="14.00">roo_threads</text>
<text text-anchor="middle" x="170" y="-178.8" font-family="Times,serif" font-size="14.00">1.2.1</text>
</g>
<!-- roo_logging&#45;&gt;roo_threads -->
<g id="edge17" class="edge">
<title>roo_logging&#45;&gt;roo_threads</title>
<path fill="none" stroke="black" d="M267.95,-266.84C257.45,-254.78 242.74,-239.01 228,-227 222.69,-222.67 216.82,-218.47 210.92,-214.55"/>
<polygon fill="black" stroke="black" points="212.62,-211.47 202.31,-209.02 208.84,-217.37 212.62,-211.47"/>
</g>
<!-- roo_monitoring -->
<g id="node14" class="node">
<title>roo_monitoring</title>
<polygon fill="khaki" stroke="red" points="709,-497 607,-497 607,-459 709,-459 709,-497"/>
<text text-anchor="middle" x="658" y="-481.8" font-family="Times,serif" font-size="14.00">roo_monitoring</text>
<text text-anchor="middle" x="658" y="-466.8" font-family="Times,serif" font-size="14.00">1.0.0</text>
</g>
<!-- roo_monitoring&#45;&gt;roo_collections -->
<g id="edge18" class="edge">
<title>roo_monitoring&#45;&gt;roo_collections</title>
<path fill="none" stroke="red" d="M650.23,-458.86C643.85,-446.01 633.65,-429.29 620,-419 603.72,-406.73 583.2,-398.6 563.96,-393.22"/>
<polygon fill="red" stroke="red" points="564.61,-389.77 554.05,-390.66 562.85,-396.55 564.61,-389.77"/>
<text text-anchor="middle" x="666" y="-433" font-family="Times,serif" font-size="10.00" fill="red">1.3.2</text>
<text text-anchor="middle" x="666" y="-422" font-family="Times,serif" font-size="10.00" fill="red">(latest: 1.4.1)</text>
</g>
<!-- roo_monitoring&#45;&gt;roo_io -->
<g id="edge19" class="edge">
<title>roo_monitoring&#45;&gt;roo_io</title>
<path fill="none" stroke="red" d="M606.77,-460.94C603.82,-460.23 600.88,-459.58 598,-459 521.76,-443.76 492.93,-476.95 424,-441 412.55,-435.03 413.8,-428.46 405,-419 401.71,-415.46 398.19,-411.8 394.68,-408.22"/>
<polygon fill="red" stroke="red" points="397.11,-405.69 387.58,-401.06 392.14,-410.62 397.11,-405.69"/>
<text text-anchor="middle" x="451" y="-433" font-family="Times,serif" font-size="10.00" fill="red">2.0.3</text>
<text text-anchor="middle" x="451" y="-422" font-family="Times,serif" font-size="10.00" fill="red">(latest: 2.1.2)</text>
</g>
<!-- roo_onewire -->
<g id="node15" class="node">
<title>roo_onewire</title>
<polygon fill="#b1dbab" stroke="black" points="282.5,-593 197.5,-593 197.5,-555 282.5,-555 282.5,-593"/>
<text text-anchor="middle" x="240" y="-577.8" font-family="Times,serif" font-size="14.00">roo_onewire</text>
<text text-anchor="middle" x="240" y="-562.8" font-family="Times,serif" font-size="14.00">2.0.8</text>
</g>
<!-- roo_onewire&#45;&gt;roo_quantity -->
<g id="edge21" class="edge">
<title>roo_onewire&#45;&gt;roo_quantity</title>
<path fill="none" stroke="black" d="M207.99,-554.88C181.47,-539.86 143.6,-518.41 114.88,-502.15"/>
<polygon fill="black" stroke="black" points="116.33,-498.95 105.91,-497.07 112.89,-505.04 116.33,-498.95"/>
</g>
<!-- roo_onewire&#45;&gt;roo_scheduler -->
<g id="edge20" class="edge">
<title>roo_onewire&#45;&gt;roo_scheduler</title>
<path fill="none" stroke="black" d="M240.77,-554.88C241.35,-541.35 242.14,-522.62 242.8,-507.15"/>
<polygon fill="black" stroke="black" points="246.3,-507.21 243.23,-497.07 239.31,-506.91 246.3,-507.21"/>
</g>
<!-- roo_powersafefs -->
<g id="node16" class="node">
<title>roo_powersafefs</title>
<polygon fill="plum" stroke="red" points="223.5,-305 116.5,-305 116.5,-267 223.5,-267 223.5,-305"/>
<text text-anchor="middle" x="170" y="-289.8" font-family="Times,serif" font-size="14.00">roo_powersafefs</text>
<text text-anchor="middle" x="170" y="-274.8" font-family="Times,serif" font-size="14.00">1.0.0</text>
</g>
<!-- roo_powersafefs&#45;&gt;roo_threads -->
<g id="edge22" class="edge">
<title>roo_powersafefs&#45;&gt;roo_threads</title>
<path fill="none" stroke="red" d="M170,-266.88C170,-253.35 170,-234.62 170,-219.15"/>
<polygon fill="red" stroke="red" points="173.5,-219.07 170,-209.07 166.5,-219.07 173.5,-219.07"/>
<text text-anchor="middle" x="197" y="-241" font-family="Times,serif" font-size="10.00" fill="red">1.1.6</text>
<text text-anchor="middle" x="197" y="-230" font-family="Times,serif" font-size="10.00" fill="red">(latest: 1.2.1)</text>
</g>
<!-- roo_prefs -->
<g id="node17" class="node">
<title>roo_prefs</title>
<polygon fill="#b1dbab" stroke="red" points="459,-593 391,-593 391,-555 459,-555 459,-593"/>
<text text-anchor="middle" x="425" y="-577.8" font-family="Times,serif" font-size="14.00">roo_prefs</text>
<text text-anchor="middle" x="425" y="-562.8" font-family="Times,serif" font-size="14.00">1.2.7</text>
</g>
<!-- roo_prefs&#45;&gt;roo_logging -->
<g id="edge23" class="edge">
<title>roo_prefs&#45;&gt;roo_logging</title>
<path fill="none" stroke="red" d="M422.19,-554.81C419.68,-542.74 415.09,-526.97 407,-515 392.4,-493.41 329.61,-463.23 316,-441 292.01,-401.83 285.29,-347.74 283.51,-315.19"/>
<polygon fill="red" stroke="red" points="287,-314.87 283.08,-305.03 280.01,-315.17 287,-314.87"/>
<text text-anchor="middle" x="343" y="-433" font-family="Times,serif" font-size="10.00" fill="red">1.5.1</text>
<text text-anchor="middle" x="343" y="-422" font-family="Times,serif" font-size="10.00" fill="red">(latest: 1.5.3)</text>
</g>
<!-- roo_prefs&#45;&gt;roo_scheduler -->
<g id="edge24" class="edge">
<title>roo_prefs&#45;&gt;roo_scheduler</title>
<path fill="none" stroke="red" d="M390.85,-556.15C378.85,-550.17 365.3,-543.34 353,-537 331.03,-525.66 306.73,-512.77 286.66,-502.02"/>
<polygon fill="red" stroke="red" points="288.23,-498.89 277.76,-497.25 284.92,-505.06 288.23,-498.89"/>
<text text-anchor="middle" x="380" y="-529" font-family="Times,serif" font-size="10.00" fill="red">2.1.6</text>
<text text-anchor="middle" x="380" y="-518" font-family="Times,serif" font-size="10.00" fill="red">(latest: 2.1.7)</text>
</g>
<!-- roo_quantity&#45;&gt;roo_logging -->
<g id="edge25" class="edge">
<title>roo_quantity&#45;&gt;roo_logging</title>
<path fill="none" stroke="black" d="M79.57,-458.94C90.51,-426.59 117.9,-358.79 165,-323 187.34,-306.02 200.12,-312.61 231.48,-304.78"/>
<polygon fill="black" stroke="black" points="232.66,-308.08 241.34,-302 230.76,-301.34 232.66,-308.08"/>
</g>
<!-- roo_scheduler&#45;&gt;roo_collections -->
<g id="edge26" class="edge">
<title>roo_scheduler&#45;&gt;roo_collections</title>
<path fill="none" stroke="black" d="M290.78,-460.09C333.78,-444.54 397.73,-421.42 444.37,-404.56"/>
<polygon fill="black" stroke="black" points="445.83,-407.75 454.05,-401.06 443.45,-401.17 445.83,-407.75"/>
</g>
<!-- roo_scheduler&#45;&gt;roo_threads -->
<g id="edge27" class="edge">
<title>roo_scheduler&#45;&gt;roo_threads</title>
<path fill="none" stroke="black" d="M222.29,-458.87C189.83,-430.18 129.99,-370.77 107,-305 101.43,-289.06 101.27,-282.89 107,-267 113.97,-247.68 128.21,-229.8 141.4,-216.24"/>
<polygon fill="black" stroke="black" points="143.9,-218.69 148.56,-209.17 138.98,-213.7 143.9,-218.69"/>
</g>
<!-- roo_testing -->
<g id="node20" class="node">
<title>roo_testing</title>
<polygon fill="#b1dbab" stroke="black" points="128.5,-38 51.5,-38 51.5,0 128.5,0 128.5,-38"/>
<text text-anchor="middle" x="90" y="-22.8" font-family="Times,serif" font-size="14.00">roo_testing</text>
<text text-anchor="middle" x="90" y="-7.8" font-family="Times,serif" font-size="14.00">1.2.1</text>
</g>
<!-- roo_time -->
<g id="node22" class="node">
<title>roo_time</title>
<polygon fill="#b1dbab" stroke="black" points="123,-113 57,-113 57,-75 123,-75 123,-113"/>
<text text-anchor="middle" x="90" y="-97.8" font-family="Times,serif" font-size="14.00">roo_time</text>
<text text-anchor="middle" x="90" y="-82.8" font-family="Times,serif" font-size="14.00">1.4.1</text>
</g>
<!-- roo_threads&#45;&gt;roo_time -->
<g id="edge28" class="edge">
<title>roo_threads&#45;&gt;roo_time</title>
<path fill="none" stroke="black" d="M160.3,-170.76C153.49,-158.81 143.72,-143.2 133,-131 129.63,-127.17 125.84,-123.39 121.94,-119.82"/>
<polygon fill="black" stroke="black" points="124.22,-117.16 114.39,-113.22 119.62,-122.44 124.22,-117.16"/>
</g>
<!-- roo_time&#45;&gt;roo_testing -->
<g id="edge29" class="edge">
<title>roo_time&#45;&gt;roo_testing</title>
<path fill="none" stroke="black" d="M90,-74.96C90,-66.88 90,-57.18 90,-48.18"/>
<polygon fill="black" stroke="black" points="93.5,-48.09 90,-38.09 86.5,-48.09 93.5,-48.09"/>
</g>
<!-- roo_time_ds3231 -->
<g id="node23" class="node">
<title>roo_time_ds3231</title>
<polygon fill="#b1dbab" stroke="red" points="112,-209 0,-209 0,-171 112,-171 112,-209"/>
<text text-anchor="middle" x="56" y="-193.8" font-family="Times,serif" font-size="14.00">roo_time_ds3231</text>
<text text-anchor="middle" x="56" y="-178.8" font-family="Times,serif" font-size="14.00">1.1.4</text>
</g>
<!-- roo_time_ds3231&#45;&gt;roo_time -->
<g id="edge30" class="edge">
<title>roo_time_ds3231&#45;&gt;roo_time</title>
<path fill="none" stroke="red" d="M62.56,-170.88C67.49,-157.22 74.35,-138.26 79.98,-122.71"/>
<polygon fill="red" stroke="red" points="83.35,-123.66 83.46,-113.07 76.77,-121.28 83.35,-123.66"/>
<text text-anchor="middle" x="104" y="-145" font-family="Times,serif" font-size="10.00" fill="red">1.4.0</text>
<text text-anchor="middle" x="104" y="-134" font-family="Times,serif" font-size="10.00" fill="red">(latest: 1.4.1)</text>
</g>
<!-- roo_transceivers&#45;&gt;roo_prefs -->
<g id="edge31" class="edge">
<title>roo_transceivers&#45;&gt;roo_prefs</title>
<path fill="none" stroke="black" d="M406.18,-629.96C409,-621.71 412.41,-611.75 415.55,-602.6"/>
<polygon fill="black" stroke="black" points="418.88,-603.68 418.8,-593.09 412.25,-601.42 418.88,-603.68"/>
</g>
<!-- roo_transport -->
<g id="node25" class="node">
<title>roo_transport</title>
<polygon fill="khaki" stroke="red" points="486.5,-497 397.5,-497 397.5,-459 486.5,-459 486.5,-497"/>
<text text-anchor="middle" x="442" y="-481.8" font-family="Times,serif" font-size="14.00">roo_transport</text>
<text text-anchor="middle" x="442" y="-466.8" font-family="Times,serif" font-size="14.00">1.1.0</text>
</g>
<!-- roo_transport&#45;&gt;roo_collections -->
<g id="edge32" class="edge">
<title>roo_transport&#45;&gt;roo_collections</title>
<path fill="none" stroke="red" d="M465.9,-458.85C471.74,-453.58 477.57,-447.48 482,-441 488.25,-431.87 493.03,-420.72 496.51,-410.65"/>
<polygon fill="red" stroke="red" points="499.86,-411.64 499.56,-401.05 493.19,-409.52 499.86,-411.64"/>
<text text-anchor="middle" x="519" y="-433" font-family="Times,serif" font-size="10.00" fill="red">1.4.0</text>
<text text-anchor="middle" x="519" y="-422" font-family="Times,serif" font-size="10.00" fill="red">(latest: 1.4.1)</text>
</g>
<!-- roo_transport&#45;&gt;roo_io -->
<g id="edge33" class="edge">
<title>roo_transport&#45;&gt;roo_io</title>
<path fill="none" stroke="black" d="M402.57,-458.96C395.17,-454.05 388.16,-448.08 383,-441 376.75,-432.43 373.26,-421.43 371.32,-411.32"/>
<polygon fill="black" stroke="black" points="374.76,-410.62 369.81,-401.25 367.83,-411.65 374.76,-410.62"/>
</g>
<!-- roo_wifi -->
<g id="node26" class="node">
<title>roo_wifi</title>
<polygon fill="#b1dbab" stroke="red" points="534.5,-668 471.5,-668 471.5,-630 534.5,-630 534.5,-668"/>
<text text-anchor="middle" x="503" y="-652.8" font-family="Times,serif" font-size="14.00">roo_wifi</text>
<text text-anchor="middle" x="503" y="-637.8" font-family="Times,serif" font-size="14.00">1.1.3</text>
</g>
<!-- roo_wifi&#45;&gt;roo_prefs -->
<g id="edge34" class="edge">
<title>roo_wifi&#45;&gt;roo_prefs</title>
<path fill="none" stroke="black" d="M483.72,-629.96C474.06,-620.92 462.22,-609.83 451.7,-599.99"/>
<polygon fill="black" stroke="black" points="454.02,-597.37 444.33,-593.09 449.24,-602.48 454.02,-597.37"/>
</g>
<!-- roo_windows&#45;&gt;roo_icons -->
<g id="edge36" class="edge">
<title>roo_windows&#45;&gt;roo_icons</title>
<path fill="none" stroke="black" d="M602.75,-629.96C602.64,-621.88 602.51,-612.18 602.39,-603.18"/>
<polygon fill="black" stroke="black" points="605.88,-603.04 602.25,-593.09 598.89,-603.14 605.88,-603.04"/>
</g>
<!-- roo_windows&#45;&gt;roo_locale -->
<g id="edge35" class="edge">
<title>roo_windows&#45;&gt;roo_locale</title>
<path fill="none" stroke="black" d="M625,-629.96C636.13,-620.83 649.8,-609.62 661.88,-599.7"/>
<polygon fill="black" stroke="black" points="664.43,-602.14 669.94,-593.09 659.99,-596.73 664.43,-602.14"/>
</g>
<!-- roo_windows&#45;&gt;roo_scheduler -->
<g id="edge37" class="edge">
<title>roo_windows&#45;&gt;roo_scheduler</title>
<path fill="none" stroke="red" d="M564.17,-629.93C545.18,-620.23 522.49,-607.34 504,-593 485.62,-578.74 485.61,-570.2 468,-555 444.57,-534.78 439.36,-527.4 411,-515 375.9,-499.66 333.72,-490.63 300.53,-485.46"/>
<polygon fill="red" stroke="red" points="300.94,-481.98 290.54,-483.97 299.91,-488.9 300.94,-481.98"/>
<text text-anchor="middle" x="531" y="-577" font-family="Times,serif" font-size="10.00" fill="red">2.1.6</text>
<text text-anchor="middle" x="531" y="-566" font-family="Times,serif" font-size="10.00" fill="red">(latest: 2.1.7)</text>
</g>
<!-- roo_windows_transceivers -->
<g id="node28" class="node">
<title>roo_windows_transceivers</title>
<polygon fill="khaki" stroke="red" points="480.5,-764 319.5,-764 319.5,-726 480.5,-726 480.5,-764"/>
<text text-anchor="middle" x="400" y="-748.8" font-family="Times,serif" font-size="14.00">roo_windows_transceivers</text>
<text text-anchor="middle" x="400" y="-733.8" font-family="Times,serif" font-size="14.00">1.0.0</text>
</g>
<!-- roo_windows_transceivers&#45;&gt;roo_transceivers -->
<g id="edge38" class="edge">
<title>roo_windows_transceivers&#45;&gt;roo_transceivers</title>
<path fill="none" stroke="red" d="M400,-725.88C400,-712.35 400,-693.62 400,-678.15"/>
<polygon fill="red" stroke="red" points="403.5,-678.07 400,-668.07 396.5,-678.07 403.5,-678.07"/>
<text text-anchor="middle" x="427" y="-700" font-family="Times,serif" font-size="10.00" fill="red">1.1.3</text>
<text text-anchor="middle" x="427" y="-689" font-family="Times,serif" font-size="10.00" fill="red">(latest: 1.1.4)</text>
</g>
<!-- roo_windows_transceivers&#45;&gt;roo_windows -->
<g id="edge39" class="edge">
<title>roo_windows_transceivers&#45;&gt;roo_windows</title>
<path fill="none" stroke="red" d="M439.14,-725.88C472.14,-710.6 519.49,-688.67 554.82,-672.31"/>
<polygon fill="red" stroke="red" points="556.38,-675.45 563.98,-668.07 553.43,-669.09 556.38,-675.45"/>
<text text-anchor="middle" x="546" y="-700" font-family="Times,serif" font-size="10.00" fill="red">1.4.1</text>
<text text-anchor="middle" x="546" y="-689" font-family="Times,serif" font-size="10.00" fill="red">(latest: 1.4.2)</text>
</g>
<!-- roo_windows_wifi -->
<g id="node29" class="node">
<title>roo_windows_wifi</title>
<polygon fill="plum" stroke="red" points="617.5,-764 498.5,-764 498.5,-726 617.5,-726 617.5,-764"/>
<text text-anchor="middle" x="558" y="-748.8" font-family="Times,serif" font-size="14.00">roo_windows_wifi</text>
<text text-anchor="middle" x="558" y="-733.8" font-family="Times,serif" font-size="14.00">1.1.3</text>
</g>
<!-- roo_windows_wifi&#45;&gt;roo_wifi -->
<g id="edge40" class="edge">
<title>roo_windows_wifi&#45;&gt;roo_wifi</title>
<path fill="none" stroke="black" d="M531.35,-725.69C525.54,-720.57 519.96,-714.58 516,-708 510.59,-699.01 507.43,-688.01 505.58,-678.02"/>
<polygon fill="black" stroke="black" points="509.04,-677.46 504.09,-668.09 502.12,-678.5 509.04,-677.46"/>
</g>
<!-- roo_windows_wifi&#45;&gt;roo_windows -->
<g id="edge41" class="edge">
<title>roo_windows_wifi&#45;&gt;roo_windows</title>
<path fill="none" stroke="black" d="M577.25,-725.93C582.03,-720.56 586.72,-714.4 590,-708 594.7,-698.83 597.71,-687.98 599.64,-678.17"/>
<polygon fill="black" stroke="black" points="603.13,-678.49 601.33,-668.05 596.23,-677.34 603.13,-678.49"/>
</g>
</g>
</svg>
