<?xml version="1.0" encoding="UTF-8" standalone="no"?>
<!DOCTYPE svg PUBLIC "-//W3C//DTD SVG 1.1//EN"
 "http://www.w3.org/Graphics/SVG/1.1/DTD/svg11.dtd">
<!-- Generated by graphviz version 2.42.4 (0)
 -->
<!-- Title: dependencies Pages: 1 -->
<svg width="1905pt" height="730pt"
 viewBox="0.00 0.00 1904.50 730.00" xmlns="http://www.w3.org/2000/svg" xmlns:xlink="http://www.w3.org/1999/xlink">
<g id="graph0" class="graph" transform="scale(1 1) rotate(0) translate(4 726)">
<title>dependencies</title>
<polygon fill="white" stroke="transparent" points="-4,4 -4,-726 1900.5,-726 1900.5,4 -4,4"/>
<!-- roo_backport -->
<g id="node1" class="node">
<title>roo_backport</title>
<polygon fill="#b1dbab" stroke="black" points="1301.5,-113 1212.5,-113 1212.5,-75 1301.5,-75 1301.5,-113"/>
<text text-anchor="middle" x="1257" y="-97.8" font-family="Times,serif" font-size="14.00">roo_backport</text>
<text text-anchor="middle" x="1257" y="-82.8" font-family="Times,serif" font-size="14.00">1.1.1</text>
</g>
<!-- roo_blink -->
<g id="node2" class="node">
<title>roo_blink</title>
<polygon fill="#b1dbab" stroke="black" points="615.5,-380 546.5,-380 546.5,-342 615.5,-342 615.5,-380"/>
<text text-anchor="middle" x="581" y="-364.8" font-family="Times,serif" font-size="14.00">roo_blink</text>
<text text-anchor="middle" x="581" y="-349.8" font-family="Times,serif" font-size="14.00">1.0.2</text>
</g>
<!-- roo_logging -->
<g id="node13" class="node">
<title>roo_logging</title>
<polygon fill="#b1dbab" stroke="black" points="618.5,-284 535.5,-284 535.5,-246 618.5,-246 618.5,-284"/>
<text text-anchor="middle" x="577" y="-268.8" font-family="Times,serif" font-size="14.00">roo_logging</text>
<text text-anchor="middle" x="577" y="-253.8" font-family="Times,serif" font-size="14.00">1.4.3</text>
</g>
<!-- roo_blink&#45;&gt;roo_logging -->
<g id="edge1" class="edge">
<title>roo_blink&#45;&gt;roo_logging</title>
<path fill="none" stroke="black" d="M580.23,-341.88C579.65,-328.35 578.86,-309.62 578.2,-294.15"/>
<polygon fill="black" stroke="black" points="581.69,-293.91 577.77,-284.07 574.7,-294.21 581.69,-293.91"/>
</g>
<!-- roo_scheduler -->
<g id="node19" class="node">
<title>roo_scheduler</title>
<polygon fill="#b1dbab" stroke="black" points="879.5,-284 786.5,-284 786.5,-246 879.5,-246 879.5,-284"/>
<text text-anchor="middle" x="833" y="-268.8" font-family="Times,serif" font-size="14.00">roo_scheduler</text>
<text text-anchor="middle" x="833" y="-253.8" font-family="Times,serif" font-size="14.00">2.1.5</text>
</g>
<!-- roo_blink&#45;&gt;roo_scheduler -->
<g id="edge2" class="edge">
<title>roo_blink&#45;&gt;roo_scheduler</title>
<path fill="none" stroke="black" d="M594.39,-341.89C605.34,-328.52 622.08,-311.13 641,-302 693.5,-276.67 715.81,-295.47 776.31,-284.03"/>
<polygon fill="black" stroke="black" points="777.29,-287.4 786.36,-281.92 775.85,-280.55 777.29,-287.4"/>
</g>
<!-- roo_collections -->
<g id="node3" class="node">
<title>roo_collections</title>
<polygon fill="#b1dbab" stroke="black" points="1475,-188 1375,-188 1375,-150 1475,-150 1475,-188"/>
<text text-anchor="middle" x="1425" y="-172.8" font-family="Times,serif" font-size="14.00">roo_collections</text>
<text text-anchor="middle" x="1425" y="-157.8" font-family="Times,serif" font-size="14.00">1.3.2</text>
</g>
<!-- roo_collections&#45;&gt;roo_backport -->
<g id="edge3" class="edge">
<title>roo_collections&#45;&gt;roo_backport</title>
<path fill="none" stroke="black" d="M1383.47,-149.96C1360.65,-140.04 1332.16,-127.66 1308,-117.16"/>
<polygon fill="black" stroke="black" points="1309.2,-113.87 1298.63,-113.09 1306.41,-120.29 1309.2,-113.87"/>
</g>
<!-- roo_comms -->
<g id="node4" class="node">
<title>roo_comms</title>
<polygon fill="plum" stroke="black" points="825,-572 743,-572 743,-534 825,-534 825,-572"/>
<text text-anchor="middle" x="784" y="-556.8" font-family="Times,serif" font-size="14.00">roo_comms</text>
<text text-anchor="middle" x="784" y="-541.8" font-family="Times,serif" font-size="14.00">1.1.1</text>
</g>
<!-- roo_comms&#45;&gt;roo_blink -->
<g id="edge5" class="edge">
<title>roo_comms&#45;&gt;roo_blink</title>
<path fill="none" stroke="red" d="M742.89,-536.91C739.89,-535.9 736.9,-534.92 734,-534 640.44,-504.47 580.57,-553.96 521,-476 499.59,-447.98 527.32,-411.22 551.78,-387.13"/>
<polygon fill="red" stroke="red" points="554.36,-389.5 559.2,-380.08 549.54,-384.42 554.36,-389.5"/>
<text text-anchor="middle" x="548" y="-460" font-family="Times,serif" font-size="10.00" fill="red">1.0.1</text>
<text text-anchor="middle" x="548" y="-449" font-family="Times,serif" font-size="10.00" fill="red">(latest: 1.0.2)</text>
</g>
<!-- roo_comms&#45;&gt;roo_collections -->
<g id="edge6" class="edge">
<title>roo_comms&#45;&gt;roo_collections</title>
<path fill="none" stroke="black" d="M825.23,-544.29C893.12,-531.88 1032.78,-507.48 1152,-494 1180.88,-490.73 1388.81,-492.12 1413,-476 1499.03,-418.64 1454.07,-349.22 1448,-246 1446.95,-228.16 1449.15,-223.11 1444,-206 1443.11,-203.05 1441.97,-200.06 1440.7,-197.13"/>
<polygon fill="black" stroke="black" points="1443.82,-195.55 1436.29,-188.1 1437.53,-198.62 1443.82,-195.55"/>
</g>
<!-- roo_control -->
<g id="node5" class="node">
<title>roo_control</title>
<polygon fill="plum" stroke="black" points="382,-476 302,-476 302,-438 382,-438 382,-476"/>
<text text-anchor="middle" x="342" y="-460.8" font-family="Times,serif" font-size="14.00">roo_control</text>
<text text-anchor="middle" x="342" y="-445.8" font-family="Times,serif" font-size="14.00">1.2.1</text>
</g>
<!-- roo_comms&#45;&gt;roo_control -->
<g id="edge7" class="edge">
<title>roo_comms&#45;&gt;roo_control</title>
<path fill="none" stroke="black" d="M742.78,-536.19C739.83,-535.36 736.89,-534.62 734,-534 630.7,-511.91 600.16,-538.74 497,-516 460.16,-507.88 420.34,-492.83 390.29,-480.1"/>
<polygon fill="black" stroke="black" points="391.46,-476.79 380.89,-476.06 388.69,-483.23 391.46,-476.79"/>
</g>
<!-- roo_io -->
<g id="node10" class="node">
<title>roo_io</title>
<polygon fill="#b1dbab" stroke="black" points="1158,-380 1104,-380 1104,-342 1158,-342 1158,-380"/>
<text text-anchor="middle" x="1131" y="-364.8" font-family="Times,serif" font-size="14.00">roo_io</text>
<text text-anchor="middle" x="1131" y="-349.8" font-family="Times,serif" font-size="14.00">2.0.3</text>
</g>
<!-- roo_comms&#45;&gt;roo_io -->
<g id="edge8" class="edge">
<title>roo_comms&#45;&gt;roo_io</title>
<path fill="none" stroke="red" d="M825.22,-547.63C870.99,-542.11 941.3,-531.43 963,-516 995.8,-492.67 979.9,-465.8 1009,-438 1021.36,-426.19 1028.66,-429.32 1043,-420 1056.27,-411.37 1057.97,-406.98 1071,-398 1078.71,-392.69 1087.22,-387.31 1095.35,-382.38"/>
<polygon fill="red" stroke="red" points="1097.17,-385.38 1103.96,-377.25 1093.58,-379.36 1097.17,-385.38"/>
<text text-anchor="middle" x="1036" y="-460" font-family="Times,serif" font-size="10.00" fill="red">2.0.2</text>
<text text-anchor="middle" x="1036" y="-449" font-family="Times,serif" font-size="10.00" fill="red">(latest: 2.0.3)</text>
</g>
<!-- roo_comms&#45;&gt;roo_logging -->
<g id="edge9" class="edge">
<title>roo_comms&#45;&gt;roo_logging</title>
<path fill="none" stroke="red" d="M742.79,-536.13C739.84,-535.32 736.89,-534.59 734,-534 637.16,-514.2 366.01,-542.63 293,-476 232.58,-420.85 281.55,-341.84 353,-302 381.74,-285.97 468.4,-275.53 525.12,-270.21"/>
<polygon fill="red" stroke="red" points="525.7,-273.67 535.34,-269.28 525.07,-266.7 525.7,-273.67"/>
<text text-anchor="middle" x="295" y="-412" font-family="Times,serif" font-size="10.00" fill="red">1.4.2</text>
<text text-anchor="middle" x="295" y="-401" font-family="Times,serif" font-size="10.00" fill="red">(latest: 1.4.3)</text>
</g>
<!-- roo_prefs -->
<g id="node17" class="node">
<title>roo_prefs</title>
<polygon fill="#b1dbab" stroke="black" points="792,-380 724,-380 724,-342 792,-342 792,-380"/>
<text text-anchor="middle" x="758" y="-364.8" font-family="Times,serif" font-size="14.00">roo_prefs</text>
<text text-anchor="middle" x="758" y="-349.8" font-family="Times,serif" font-size="14.00">1.2.3</text>
</g>
<!-- roo_comms&#45;&gt;roo_prefs -->
<g id="edge10" class="edge">
<title>roo_comms&#45;&gt;roo_prefs</title>
<path fill="none" stroke="red" d="M803.91,-533.88C808.42,-528.6 812.59,-522.5 815,-516 818.4,-506.83 816.11,-503.71 815,-494 812.09,-468.62 811.39,-461.76 802,-438 795.24,-420.9 785.09,-403.05 776.24,-388.95"/>
<polygon fill="red" stroke="red" points="779.01,-386.79 770.66,-380.27 773.12,-390.57 779.01,-386.79"/>
<text text-anchor="middle" x="839" y="-460" font-family="Times,serif" font-size="10.00" fill="red">1.2.2</text>
<text text-anchor="middle" x="839" y="-449" font-family="Times,serif" font-size="10.00" fill="red">(latest: 1.2.3)</text>
</g>
<!-- roo_comms&#45;&gt;roo_scheduler -->
<g id="edge11" class="edge">
<title>roo_comms&#45;&gt;roo_scheduler</title>
<path fill="none" stroke="red" d="M807.72,-533.74C814.69,-528.18 822.25,-521.96 829,-516 848.07,-499.14 854.48,-496.18 870,-476 894.27,-444.45 889.1,-429.05 914,-398 921.48,-388.67 929.13,-390.92 934,-380 940.87,-364.57 941.54,-357.11 934,-342 922.78,-319.51 901.37,-301.93 881.15,-289.37"/>
<polygon fill="red" stroke="red" points="882.68,-286.2 872.29,-284.12 879.11,-292.23 882.68,-286.2"/>
<text text-anchor="middle" x="941" y="-412" font-family="Times,serif" font-size="10.00" fill="red">2.1.4</text>
<text text-anchor="middle" x="941" y="-401" font-family="Times,serif" font-size="10.00" fill="red">(latest: 2.1.5)</text>
</g>
<!-- roo_testing -->
<g id="node20" class="node">
<title>roo_testing</title>
<polygon fill="#b1dbab" stroke="black" points="1489.5,-38 1412.5,-38 1412.5,0 1489.5,0 1489.5,-38"/>
<text text-anchor="middle" x="1451" y="-22.8" font-family="Times,serif" font-size="14.00">roo_testing</text>
<text text-anchor="middle" x="1451" y="-7.8" font-family="Times,serif" font-size="14.00">1.1.8</text>
</g>
<!-- roo_comms&#45;&gt;roo_testing -->
<g id="edge4" class="edge">
<title>roo_comms&#45;&gt;roo_testing</title>
<path fill="none" stroke="red" d="M742.8,-536.07C739.85,-535.27 736.9,-534.56 734,-534 683.46,-524.17 318.17,-536.62 271,-516 141.78,-459.51 162,-359.03 162,-218 162,-218 162,-218 162,-93 162,-29.67 1166.82,-21.26 1402.13,-20.16"/>
<polygon fill="red" stroke="red" points="1402.44,-23.66 1412.42,-20.12 1402.41,-16.66 1402.44,-23.66"/>
<text text-anchor="middle" x="189" y="-268" font-family="Times,serif" font-size="10.00" fill="red">1.1.7</text>
<text text-anchor="middle" x="189" y="-257" font-family="Times,serif" font-size="10.00" fill="red">(latest: 1.1.8)</text>
</g>
<!-- roo_threads -->
<g id="node21" class="node">
<title>roo_threads</title>
<polygon fill="#b1dbab" stroke="black" points="861,-188 781,-188 781,-150 861,-150 861,-188"/>
<text text-anchor="middle" x="821" y="-172.8" font-family="Times,serif" font-size="14.00">roo_threads</text>
<text text-anchor="middle" x="821" y="-157.8" font-family="Times,serif" font-size="14.00">1.1.6</text>
</g>
<!-- roo_comms&#45;&gt;roo_threads -->
<g id="edge12" class="edge">
<title>roo_comms&#45;&gt;roo_threads</title>
<path fill="none" stroke="red" d="M825.09,-536.53C880.91,-512.82 977.46,-461.51 1010,-380 1042.79,-297.88 935.68,-227.28 869.44,-192.7"/>
<polygon fill="red" stroke="red" points="870.88,-189.5 860.38,-188.06 867.69,-195.73 870.88,-189.5"/>
<text text-anchor="middle" x="1043" y="-364" font-family="Times,serif" font-size="10.00" fill="red">1.1.5</text>
<text text-anchor="middle" x="1043" y="-353" font-family="Times,serif" font-size="10.00" fill="red">(latest: 1.1.6)</text>
</g>
<!-- roo_time -->
<g id="node22" class="node">
<title>roo_time</title>
<polygon fill="#b1dbab" stroke="black" points="735,-113 669,-113 669,-75 735,-75 735,-113"/>
<text text-anchor="middle" x="702" y="-97.8" font-family="Times,serif" font-size="14.00">roo_time</text>
<text text-anchor="middle" x="702" y="-82.8" font-family="Times,serif" font-size="14.00">1.3.3</text>
</g>
<!-- roo_comms&#45;&gt;roo_time -->
<g id="edge13" class="edge">
<title>roo_comms&#45;&gt;roo_time</title>
<path fill="none" stroke="red" d="M742.8,-536.08C739.85,-535.28 736.9,-534.57 734,-534 643.43,-516.16 406.14,-546.44 319,-516 227.18,-483.93 229.39,-420.03 214,-324 212.45,-314.35 211.83,-311.53 214,-302 216.62,-290.47 250.84,-213.48 260,-206 379.25,-108.57 572.66,-95.13 658.54,-94.28"/>
<polygon fill="red" stroke="red" points="658.72,-97.78 668.71,-94.24 658.69,-90.78 658.72,-97.78"/>
<text text-anchor="middle" x="241" y="-316" font-family="Times,serif" font-size="10.00" fill="red">1.3.2</text>
<text text-anchor="middle" x="241" y="-305" font-family="Times,serif" font-size="10.00" fill="red">(latest: 1.3.3)</text>
</g>
<!-- roo_transceivers -->
<g id="node24" class="node">
<title>roo_transceivers</title>
<polygon fill="#b1dbab" stroke="black" points="793,-476 687,-476 687,-438 793,-438 793,-476"/>
<text text-anchor="middle" x="740" y="-460.8" font-family="Times,serif" font-size="14.00">roo_transceivers</text>
<text text-anchor="middle" x="740" y="-445.8" font-family="Times,serif" font-size="14.00">1.1.3</text>
</g>
<!-- roo_comms&#45;&gt;roo_transceivers -->
<g id="edge14" class="edge">
<title>roo_comms&#45;&gt;roo_transceivers</title>
<path fill="none" stroke="red" d="M771.25,-533.77C767.67,-528.21 763.95,-521.99 761,-516 756.29,-506.45 752.07,-495.56 748.67,-485.82"/>
<polygon fill="red" stroke="red" points="751.94,-484.56 745.44,-476.19 745.3,-486.79 751.94,-484.56"/>
<text text-anchor="middle" x="788" y="-508" font-family="Times,serif" font-size="10.00" fill="red">1.1.2</text>
<text text-anchor="middle" x="788" y="-497" font-family="Times,serif" font-size="10.00" fill="red">(latest: 1.1.3)</text>
</g>
<!-- roo_control&#45;&gt;roo_logging -->
<g id="edge16" class="edge">
<title>roo_control&#45;&gt;roo_logging</title>
<path fill="none" stroke="red" d="M335.76,-437.81C328.65,-413.48 320.49,-370.16 341,-342 383,-284.36 469.49,-269.49 525.29,-266.18"/>
<polygon fill="red" stroke="red" points="525.52,-269.67 535.33,-265.69 525.17,-262.68 525.52,-269.67"/>
<text text-anchor="middle" x="368" y="-364" font-family="Times,serif" font-size="10.00" fill="red">1.4.2</text>
<text text-anchor="middle" x="368" y="-353" font-family="Times,serif" font-size="10.00" fill="red">(latest: 1.4.3)</text>
</g>
<!-- roo_quantity -->
<g id="node18" class="node">
<title>roo_quantity</title>
<polygon fill="#b1dbab" stroke="black" points="490,-380 404,-380 404,-342 490,-342 490,-380"/>
<text text-anchor="middle" x="447" y="-364.8" font-family="Times,serif" font-size="14.00">roo_quantity</text>
<text text-anchor="middle" x="447" y="-349.8" font-family="Times,serif" font-size="14.00">1.1.3</text>
</g>
<!-- roo_control&#45;&gt;roo_quantity -->
<g id="edge17" class="edge">
<title>roo_control&#45;&gt;roo_quantity</title>
<path fill="none" stroke="red" d="M362.25,-437.88C378.37,-423.44 401.12,-403.07 418.99,-387.07"/>
<polygon fill="red" stroke="red" points="421.7,-389.35 426.82,-380.07 417.03,-384.13 421.7,-389.35"/>
<text text-anchor="middle" x="430" y="-412" font-family="Times,serif" font-size="10.00" fill="red">1.1.2</text>
<text text-anchor="middle" x="430" y="-401" font-family="Times,serif" font-size="10.00" fill="red">(latest: 1.1.3)</text>
</g>
<!-- roo_control&#45;&gt;roo_scheduler -->
<g id="edge18" class="edge">
<title>roo_control&#45;&gt;roo_scheduler</title>
<path fill="none" stroke="red" d="M382.29,-442.73C387.56,-441.09 392.9,-439.47 398,-438 498.06,-409.17 535.22,-432.76 625,-380 645.06,-368.21 641.99,-355.41 661,-342 680.72,-328.09 735.01,-304.91 777.38,-287.79"/>
<polygon fill="red" stroke="red" points="778.79,-291 786.77,-284.02 776.18,-284.5 778.79,-291"/>
<text text-anchor="middle" x="688" y="-364" font-family="Times,serif" font-size="10.00" fill="red">2.1.4</text>
<text text-anchor="middle" x="688" y="-353" font-family="Times,serif" font-size="10.00" fill="red">(latest: 2.1.5)</text>
</g>
<!-- roo_control&#45;&gt;roo_testing -->
<g id="edge15" class="edge">
<title>roo_control&#45;&gt;roo_testing</title>
<path fill="none" stroke="red" d="M334.02,-437.82C325.15,-414.97 313.37,-374.78 324,-342 330.77,-321.11 338.04,-318.07 353,-302 468.64,-177.81 498.05,-125.66 660,-75 799.53,-31.35 1252.05,-22.27 1402.13,-20.44"/>
<polygon fill="red" stroke="red" points="1402.45,-23.94 1412.4,-20.33 1402.36,-16.94 1402.45,-23.94"/>
<text text-anchor="middle" x="467" y="-220" font-family="Times,serif" font-size="10.00" fill="red">1.1.7</text>
<text text-anchor="middle" x="467" y="-209" font-family="Times,serif" font-size="10.00" fill="red">(latest: 1.1.8)</text>
</g>
<!-- roo_dashboard -->
<g id="node6" class="node">
<title>roo_dashboard</title>
<polygon fill="plum" stroke="black" points="140.5,-722 43.5,-722 43.5,-684 140.5,-684 140.5,-722"/>
<text text-anchor="middle" x="92" y="-706.8" font-family="Times,serif" font-size="14.00">roo_dashboard</text>
<text text-anchor="middle" x="92" y="-691.8" font-family="Times,serif" font-size="14.00">1.0.1</text>
</g>
<!-- roo_dashboard&#45;&gt;roo_testing -->
<g id="edge19" class="edge">
<title>roo_dashboard&#45;&gt;roo_testing</title>
<path fill="none" stroke="red" d="M43.84,-683.96C21.58,-672.2 0,-654.28 0,-629 0,-629 0,-629 0,-93 0,-21.2 1148.22,-19.37 1401.82,-19.85"/>
<polygon fill="red" stroke="red" points="1402.18,-23.35 1412.19,-19.87 1402.2,-16.35 1402.18,-23.35"/>
<text text-anchor="middle" x="27" y="-364" font-family="Times,serif" font-size="10.00" fill="red">1.1.7</text>
<text text-anchor="middle" x="27" y="-353" font-family="Times,serif" font-size="10.00" fill="red">(latest: 1.1.8)</text>
</g>
<!-- roo_windows -->
<g id="node27" class="node">
<title>roo_windows</title>
<polygon fill="plum" stroke="black" points="943,-647 853,-647 853,-609 943,-609 943,-647"/>
<text text-anchor="middle" x="898" y="-631.8" font-family="Times,serif" font-size="14.00">roo_windows</text>
<text text-anchor="middle" x="898" y="-616.8" font-family="Times,serif" font-size="14.00">1.4.1</text>
</g>
<!-- roo_dashboard&#45;&gt;roo_windows -->
<g id="edge20" class="edge">
<title>roo_dashboard&#45;&gt;roo_windows</title>
<path fill="none" stroke="black" d="M140.6,-697.6C282.03,-684.79 692.76,-647.59 842.53,-634.02"/>
<polygon fill="black" stroke="black" points="843.21,-637.48 852.85,-633.09 842.58,-630.51 843.21,-637.48"/>
</g>
<!-- roo_display -->
<g id="node7" class="node">
<title>roo_display</title>
<polygon fill="plum" stroke="black" points="1541,-476 1461,-476 1461,-438 1541,-438 1541,-476"/>
<text text-anchor="middle" x="1501" y="-460.8" font-family="Times,serif" font-size="14.00">roo_display</text>
<text text-anchor="middle" x="1501" y="-445.8" font-family="Times,serif" font-size="14.00">2.3.1</text>
</g>
<!-- roo_display&#45;&gt;roo_collections -->
<g id="edge22" class="edge">
<title>roo_display&#45;&gt;roo_collections</title>
<path fill="none" stroke="black" d="M1504.15,-437.79C1510.69,-394.26 1521.67,-282.16 1477,-206 1474.56,-201.84 1471.42,-198.05 1467.91,-194.62"/>
<polygon fill="black" stroke="black" points="1470.13,-191.91 1460.24,-188.09 1465.59,-197.24 1470.13,-191.91"/>
</g>
<!-- roo_display&#45;&gt;roo_io -->
<g id="edge23" class="edge">
<title>roo_display&#45;&gt;roo_io</title>
<path fill="none" stroke="red" d="M1460.84,-446.94C1445.88,-443.79 1428.72,-440.43 1413,-438 1337.92,-426.37 1312.87,-449.86 1243,-420 1229.08,-414.05 1229.91,-405.9 1217,-398 1201.68,-388.62 1183.48,-380.61 1167.78,-374.54"/>
<polygon fill="red" stroke="red" points="1168.97,-371.25 1158.38,-371.02 1166.51,-377.8 1168.97,-371.25"/>
<text text-anchor="middle" x="1270" y="-412" font-family="Times,serif" font-size="10.00" fill="red">2.0.2</text>
<text text-anchor="middle" x="1270" y="-401" font-family="Times,serif" font-size="10.00" fill="red">(latest: 2.0.3)</text>
</g>
<!-- roo_display&#45;&gt;roo_testing -->
<g id="edge21" class="edge">
<title>roo_display&#45;&gt;roo_testing</title>
<path fill="none" stroke="red" d="M1512.99,-438C1516.13,-432.44 1519.15,-426.16 1521,-420 1526.11,-402.92 1523.33,-397.82 1524,-380 1525.88,-329.81 1525.81,-225.86 1522,-206 1510.71,-147.2 1482.19,-82.82 1464.93,-47.33"/>
<polygon fill="red" stroke="red" points="1467.95,-45.53 1460.38,-38.11 1461.67,-48.63 1467.95,-45.53"/>
<text text-anchor="middle" x="1550" y="-220" font-family="Times,serif" font-size="10.00" fill="red">1.1.7</text>
<text text-anchor="middle" x="1550" y="-209" font-family="Times,serif" font-size="10.00" fill="red">(latest: 1.1.8)</text>
</g>
<!-- roo_flags -->
<g id="node8" class="node">
<title>roo_flags</title>
<polygon fill="#b1dbab" stroke="black" points="611,-188 543,-188 543,-150 611,-150 611,-188"/>
<text text-anchor="middle" x="577" y="-172.8" font-family="Times,serif" font-size="14.00">roo_flags</text>
<text text-anchor="middle" x="577" y="-157.8" font-family="Times,serif" font-size="14.00">1.1.1</text>
</g>
<!-- roo_icons -->
<g id="node9" class="node">
<title>roo_icons</title>
<polygon fill="plum" stroke="black" points="1536,-572 1466,-572 1466,-534 1536,-534 1536,-572"/>
<text text-anchor="middle" x="1501" y="-556.8" font-family="Times,serif" font-size="14.00">roo_icons</text>
<text text-anchor="middle" x="1501" y="-541.8" font-family="Times,serif" font-size="14.00">1.2.1</text>
</g>
<!-- roo_icons&#45;&gt;roo_display -->
<g id="edge25" class="edge">
<title>roo_icons&#45;&gt;roo_display</title>
<path fill="none" stroke="black" d="M1501,-533.88C1501,-520.35 1501,-501.62 1501,-486.15"/>
<polygon fill="black" stroke="black" points="1504.5,-486.07 1501,-476.07 1497.5,-486.07 1504.5,-486.07"/>
</g>
<!-- roo_icons&#45;&gt;roo_testing -->
<g id="edge24" class="edge">
<title>roo_icons&#45;&gt;roo_testing</title>
<path fill="none" stroke="red" d="M1516.03,-533.9C1527.34,-519.23 1542.17,-497.54 1550,-476 1591.25,-362.47 1614.34,-322.1 1581,-206 1562.28,-140.8 1509.92,-79.15 1477.65,-45.78"/>
<polygon fill="red" stroke="red" points="1479.82,-42.99 1470.31,-38.32 1474.82,-47.9 1479.82,-42.99"/>
<text text-anchor="middle" x="1623" y="-268" font-family="Times,serif" font-size="10.00" fill="red">1.1.7</text>
<text text-anchor="middle" x="1623" y="-257" font-family="Times,serif" font-size="10.00" fill="red">(latest: 1.1.8)</text>
</g>
<!-- roo_io&#45;&gt;roo_backport -->
<g id="edge26" class="edge">
<title>roo_io&#45;&gt;roo_backport</title>
<path fill="none" stroke="black" d="M1158.21,-359.36C1184.19,-357.15 1222.22,-349.42 1242,-324 1287.84,-265.1 1274.62,-169.77 1264.24,-122.88"/>
<polygon fill="black" stroke="black" points="1267.64,-122.05 1261.95,-113.1 1260.82,-123.64 1267.64,-122.05"/>
</g>
<!-- roo_io&#45;&gt;roo_logging -->
<g id="edge27" class="edge">
<title>roo_io&#45;&gt;roo_logging</title>
<path fill="none" stroke="black" d="M1103.6,-346.72C1099.13,-344.92 1094.49,-343.26 1090,-342 901.38,-288.98 845.77,-319.03 653,-284 645.03,-282.55 636.65,-280.8 628.47,-278.97"/>
<polygon fill="black" stroke="black" points="629.18,-275.54 618.65,-276.7 627.6,-282.36 629.18,-275.54"/>
</g>
<!-- roo_io_sdfat -->
<g id="node11" class="node">
<title>roo_io_sdfat</title>
<polygon fill="plum" stroke="black" points="1896.5,-722 1811.5,-722 1811.5,-684 1896.5,-684 1896.5,-722"/>
<text text-anchor="middle" x="1854" y="-706.8" font-family="Times,serif" font-size="14.00">roo_io_sdfat</text>
<text text-anchor="middle" x="1854" y="-691.8" font-family="Times,serif" font-size="14.00">1.0.0</text>
</g>
<!-- roo_locale -->
<g id="node12" class="node">
<title>roo_locale</title>
<polygon fill="#b1dbab" stroke="black" points="725,-572 651,-572 651,-534 725,-534 725,-572"/>
<text text-anchor="middle" x="688" y="-556.8" font-family="Times,serif" font-size="14.00">roo_locale</text>
<text text-anchor="middle" x="688" y="-541.8" font-family="Times,serif" font-size="14.00">1.1.1</text>
</g>
<!-- roo_logging&#45;&gt;roo_flags -->
<g id="edge28" class="edge">
<title>roo_logging&#45;&gt;roo_flags</title>
<path fill="none" stroke="black" d="M577,-245.88C577,-232.35 577,-213.62 577,-198.15"/>
<polygon fill="black" stroke="black" points="580.5,-198.07 577,-188.07 573.5,-198.07 580.5,-198.07"/>
</g>
<!-- roo_logging&#45;&gt;roo_threads -->
<g id="edge29" class="edge">
<title>roo_logging&#45;&gt;roo_threads</title>
<path fill="none" stroke="black" d="M618.67,-247.95C660.89,-231.68 726.24,-206.51 771.17,-189.19"/>
<polygon fill="black" stroke="black" points="772.65,-192.38 780.72,-185.52 770.13,-185.85 772.65,-192.38"/>
</g>
<!-- roo_monitoring -->
<g id="node14" class="node">
<title>roo_monitoring</title>
<polygon fill="plum" stroke="black" points="1404,-476 1302,-476 1302,-438 1404,-438 1404,-476"/>
<text text-anchor="middle" x="1353" y="-460.8" font-family="Times,serif" font-size="14.00">roo_monitoring</text>
<text text-anchor="middle" x="1353" y="-445.8" font-family="Times,serif" font-size="14.00">1.0.0</text>
</g>
<!-- roo_monitoring&#45;&gt;roo_collections -->
<g id="edge30" class="edge">
<title>roo_monitoring&#45;&gt;roo_collections</title>
<path fill="none" stroke="black" d="M1404.01,-438.99C1411.96,-434.1 1419.14,-427.88 1424,-420 1446.37,-383.74 1435.01,-256.04 1428.51,-198.49"/>
<polygon fill="black" stroke="black" points="1431.95,-197.81 1427.32,-188.28 1425,-198.62 1431.95,-197.81"/>
</g>
<!-- roo_monitoring&#45;&gt;roo_io -->
<g id="edge31" class="edge">
<title>roo_monitoring&#45;&gt;roo_io</title>
<path fill="none" stroke="black" d="M1301.88,-440.24C1299.22,-439.47 1296.58,-438.72 1294,-438 1262.64,-429.25 1252.92,-432.84 1223,-420 1202.17,-411.06 1180.64,-397.75 1163.65,-386.13"/>
<polygon fill="black" stroke="black" points="1165.41,-383.09 1155.21,-380.24 1161.41,-388.83 1165.41,-383.09"/>
</g>
<!-- roo_onewire -->
<g id="node15" class="node">
<title>roo_onewire</title>
<polygon fill="#b1dbab" stroke="black" points="668.5,-476 583.5,-476 583.5,-438 668.5,-438 668.5,-476"/>
<text text-anchor="middle" x="626" y="-460.8" font-family="Times,serif" font-size="14.00">roo_onewire</text>
<text text-anchor="middle" x="626" y="-445.8" font-family="Times,serif" font-size="14.00">2.0.5</text>
</g>
<!-- roo_onewire&#45;&gt;roo_quantity -->
<g id="edge33" class="edge">
<title>roo_onewire&#45;&gt;roo_quantity</title>
<path fill="none" stroke="black" d="M591.49,-437.88C562.64,-422.73 521.34,-401.04 490.28,-384.73"/>
<polygon fill="black" stroke="black" points="491.89,-381.62 481.41,-380.07 488.63,-387.82 491.89,-381.62"/>
</g>
<!-- roo_onewire&#45;&gt;roo_scheduler -->
<g id="edge32" class="edge">
<title>roo_onewire&#45;&gt;roo_scheduler</title>
<path fill="none" stroke="black" d="M668.85,-439.62C717.61,-420.64 791.75,-390.61 801,-380 821.93,-356.01 829.25,-319.32 831.76,-294.08"/>
<polygon fill="black" stroke="black" points="835.26,-294.28 832.57,-284.04 828.28,-293.72 835.26,-294.28"/>
</g>
<!-- roo_powersafefs -->
<g id="node16" class="node">
<title>roo_powersafefs</title>
<polygon fill="plum" stroke="black" points="768.5,-284 661.5,-284 661.5,-246 768.5,-246 768.5,-284"/>
<text text-anchor="middle" x="715" y="-268.8" font-family="Times,serif" font-size="14.00">roo_powersafefs</text>
<text text-anchor="middle" x="715" y="-253.8" font-family="Times,serif" font-size="14.00">1.0.0</text>
</g>
<!-- roo_powersafefs&#45;&gt;roo_threads -->
<g id="edge34" class="edge">
<title>roo_powersafefs&#45;&gt;roo_threads</title>
<path fill="none" stroke="black" d="M735.44,-245.88C751.72,-231.44 774.68,-211.07 792.72,-195.07"/>
<polygon fill="black" stroke="black" points="795.47,-197.32 800.62,-188.07 790.82,-192.08 795.47,-197.32"/>
</g>
<!-- roo_prefs&#45;&gt;roo_logging -->
<g id="edge35" class="edge">
<title>roo_prefs&#45;&gt;roo_logging</title>
<path fill="none" stroke="black" d="M723.96,-342.32C694.78,-327.17 652.58,-305.25 620.88,-288.79"/>
<polygon fill="black" stroke="black" points="622.3,-285.58 611.82,-284.08 619.08,-291.8 622.3,-285.58"/>
</g>
<!-- roo_prefs&#45;&gt;roo_scheduler -->
<g id="edge36" class="edge">
<title>roo_prefs&#45;&gt;roo_scheduler</title>
<path fill="none" stroke="black" d="M772.46,-341.88C783.77,-327.7 799.64,-307.81 812.3,-291.94"/>
<polygon fill="black" stroke="black" points="815.08,-294.07 818.58,-284.07 809.61,-289.7 815.08,-294.07"/>
</g>
<!-- roo_quantity&#45;&gt;roo_logging -->
<g id="edge37" class="edge">
<title>roo_quantity&#45;&gt;roo_logging</title>
<path fill="none" stroke="black" d="M461.87,-341.94C472.66,-329.61 488.1,-313.5 504,-302 510.91,-297 518.63,-292.36 526.38,-288.18"/>
<polygon fill="black" stroke="black" points="528.17,-291.19 535.45,-283.5 524.96,-284.97 528.17,-291.19"/>
</g>
<!-- roo_scheduler&#45;&gt;roo_collections -->
<g id="edge38" class="edge">
<title>roo_scheduler&#45;&gt;roo_collections</title>
<path fill="none" stroke="black" d="M879.95,-256.55C986.51,-239.63 1246.55,-198.34 1364.75,-179.57"/>
<polygon fill="black" stroke="black" points="1365.39,-183.01 1374.72,-177.98 1364.29,-176.1 1365.39,-183.01"/>
</g>
<!-- roo_scheduler&#45;&gt;roo_threads -->
<g id="edge39" class="edge">
<title>roo_scheduler&#45;&gt;roo_threads</title>
<path fill="none" stroke="black" d="M830.69,-245.88C828.96,-232.35 826.57,-213.62 824.59,-198.15"/>
<polygon fill="black" stroke="black" points="828.04,-197.54 823.31,-188.07 821.1,-198.43 828.04,-197.54"/>
</g>
<!-- roo_threads&#45;&gt;roo_time -->
<g id="edge40" class="edge">
<title>roo_threads&#45;&gt;roo_time</title>
<path fill="none" stroke="black" d="M791.58,-149.96C776.14,-140.48 757.02,-128.75 740.42,-118.57"/>
<polygon fill="black" stroke="black" points="741.84,-115.34 731.49,-113.09 738.18,-121.3 741.84,-115.34"/>
</g>
<!-- roo_time&#45;&gt;roo_testing -->
<g id="edge41" class="edge">
<title>roo_time&#45;&gt;roo_testing</title>
<path fill="none" stroke="black" d="M735.15,-89.77C854.19,-78.17 1260.51,-38.57 1401.97,-24.78"/>
<polygon fill="black" stroke="black" points="1402.47,-28.25 1412.08,-23.79 1401.79,-21.28 1402.47,-28.25"/>
</g>
<!-- roo_time_ds3231 -->
<g id="node23" class="node">
<title>roo_time_ds3231</title>
<polygon fill="#b1dbab" stroke="black" points="758,-188 646,-188 646,-150 758,-150 758,-188"/>
<text text-anchor="middle" x="702" y="-172.8" font-family="Times,serif" font-size="14.00">roo_time_ds3231</text>
<text text-anchor="middle" x="702" y="-157.8" font-family="Times,serif" font-size="14.00">1.1.3</text>
</g>
<!-- roo_time_ds3231&#45;&gt;roo_time -->
<g id="edge42" class="edge">
<title>roo_time_ds3231&#45;&gt;roo_time</title>
<path fill="none" stroke="black" d="M702,-149.96C702,-141.88 702,-132.18 702,-123.18"/>
<polygon fill="black" stroke="black" points="705.5,-123.09 702,-113.09 698.5,-123.09 705.5,-123.09"/>
</g>
<!-- roo_transceivers&#45;&gt;roo_prefs -->
<g id="edge43" class="edge">
<title>roo_transceivers&#45;&gt;roo_prefs</title>
<path fill="none" stroke="black" d="M743.47,-437.88C746.06,-424.35 749.65,-405.62 752.61,-390.15"/>
<polygon fill="black" stroke="black" points="756.1,-390.55 754.54,-380.07 749.22,-389.23 756.1,-390.55"/>
</g>
<!-- roo_transport -->
<g id="node25" class="node">
<title>roo_transport</title>
<polygon fill="plum" stroke="black" points="1284.5,-476 1195.5,-476 1195.5,-438 1284.5,-438 1284.5,-476"/>
<text text-anchor="middle" x="1240" y="-460.8" font-family="Times,serif" font-size="14.00">roo_transport</text>
<text text-anchor="middle" x="1240" y="-445.8" font-family="Times,serif" font-size="14.00">1.0.1</text>
</g>
<!-- roo_transport&#45;&gt;roo_collections -->
<g id="edge45" class="edge">
<title>roo_transport&#45;&gt;roo_collections</title>
<path fill="none" stroke="black" d="M1284.67,-440.27C1287.47,-439.46 1290.27,-438.69 1293,-438 1316.16,-432.14 1382.66,-437.43 1399,-420 1413.92,-404.08 1421.4,-260.46 1423.95,-198.38"/>
<polygon fill="black" stroke="black" points="1427.46,-198.25 1424.36,-188.12 1420.47,-197.97 1427.46,-198.25"/>
</g>
<!-- roo_transport&#45;&gt;roo_io -->
<g id="edge46" class="edge">
<title>roo_transport&#45;&gt;roo_io</title>
<path fill="none" stroke="red" d="M1195.26,-442.22C1190.45,-440.78 1185.63,-439.35 1181,-438 1152.22,-429.63 1134.15,-443.86 1116,-420 1109.3,-411.19 1110.76,-399.68 1114.76,-389.24"/>
<polygon fill="red" stroke="red" points="1117.98,-390.61 1118.98,-380.06 1111.62,-387.68 1117.98,-390.61"/>
<text text-anchor="middle" x="1143" y="-412" font-family="Times,serif" font-size="10.00" fill="red">2.0.2</text>
<text text-anchor="middle" x="1143" y="-401" font-family="Times,serif" font-size="10.00" fill="red">(latest: 2.0.3)</text>
</g>
<!-- roo_transport&#45;&gt;roo_logging -->
<g id="edge47" class="edge">
<title>roo_transport&#45;&gt;roo_logging</title>
<path fill="none" stroke="red" d="M1195.12,-444.44C1139.04,-429.9 1040.2,-403.92 956,-380 838.43,-346.59 701.26,-304.57 628.49,-282.04"/>
<polygon fill="red" stroke="red" points="629.25,-278.61 618.66,-278.99 627.17,-285.29 629.25,-278.61"/>
<text text-anchor="middle" x="983" y="-364" font-family="Times,serif" font-size="10.00" fill="red">1.4.2</text>
<text text-anchor="middle" x="983" y="-353" font-family="Times,serif" font-size="10.00" fill="red">(latest: 1.4.3)</text>
</g>
<!-- roo_transport&#45;&gt;roo_testing -->
<g id="edge44" class="edge">
<title>roo_transport&#45;&gt;roo_testing</title>
<path fill="none" stroke="red" d="M1284.71,-440.43C1287.51,-439.58 1290.29,-438.76 1293,-438 1328.51,-428.06 1350.92,-448.77 1374,-420 1449.12,-326.35 1329.68,-264.43 1366,-150 1378.68,-110.05 1407.3,-70.69 1427.82,-45.93"/>
<polygon fill="red" stroke="red" points="1430.65,-48.01 1434.44,-38.11 1425.31,-43.48 1430.65,-48.01"/>
<text text-anchor="middle" x="1389" y="-220" font-family="Times,serif" font-size="10.00" fill="red">1.1.7</text>
<text text-anchor="middle" x="1389" y="-209" font-family="Times,serif" font-size="10.00" fill="red">(latest: 1.1.8)</text>
</g>
<!-- roo_transport&#45;&gt;roo_threads -->
<g id="edge48" class="edge">
<title>roo_transport&#45;&gt;roo_threads</title>
<path fill="none" stroke="red" d="M1225.86,-437.97C1221.6,-432.31 1216.99,-425.98 1213,-420 1146.06,-319.63 1151.81,-263.96 1046,-206 1016.77,-189.99 928.53,-179.46 871.63,-174.13"/>
<polygon fill="red" stroke="red" points="871.67,-170.62 861.39,-173.19 871.03,-177.59 871.67,-170.62"/>
<text text-anchor="middle" x="1185" y="-316" font-family="Times,serif" font-size="10.00" fill="red">1.1.5</text>
<text text-anchor="middle" x="1185" y="-305" font-family="Times,serif" font-size="10.00" fill="red">(latest: 1.1.6)</text>
</g>
<!-- roo_wifi -->
<g id="node26" class="node">
<title>roo_wifi</title>
<polygon fill="plum" stroke="black" points="1765.5,-476 1702.5,-476 1702.5,-438 1765.5,-438 1765.5,-476"/>
<text text-anchor="middle" x="1734" y="-460.8" font-family="Times,serif" font-size="14.00">roo_wifi</text>
<text text-anchor="middle" x="1734" y="-445.8" font-family="Times,serif" font-size="14.00">1.1.1</text>
</g>
<!-- roo_wifi&#45;&gt;roo_collections -->
<g id="edge50" class="edge">
<title>roo_wifi&#45;&gt;roo_collections</title>
<path fill="none" stroke="black" d="M1720.42,-437.95C1686.52,-393.83 1593.84,-278.79 1496,-206 1489.68,-201.3 1482.67,-196.91 1475.57,-192.93"/>
<polygon fill="black" stroke="black" points="1477.05,-189.75 1466.58,-188.1 1473.74,-195.92 1477.05,-189.75"/>
</g>
<!-- roo_wifi&#45;&gt;roo_prefs -->
<g id="edge51" class="edge">
<title>roo_wifi&#45;&gt;roo_prefs</title>
<path fill="none" stroke="red" d="M1702.31,-450.77C1630.44,-439.14 1449.5,-411.12 1297,-398 1096.25,-380.73 1043.97,-404.72 844,-380 830.25,-378.3 815.43,-375.54 802.03,-372.69"/>
<polygon fill="red" stroke="red" points="802.62,-369.23 792.1,-370.5 801.11,-376.07 802.62,-369.23"/>
<text text-anchor="middle" x="1516" y="-412" font-family="Times,serif" font-size="10.00" fill="red">1.2.2</text>
<text text-anchor="middle" x="1516" y="-401" font-family="Times,serif" font-size="10.00" fill="red">(latest: 1.2.3)</text>
</g>
<!-- roo_wifi&#45;&gt;roo_testing -->
<g id="edge49" class="edge">
<title>roo_wifi&#45;&gt;roo_testing</title>
<path fill="none" stroke="red" d="M1736.8,-437.68C1739.44,-418.77 1743,-388.39 1743,-362 1743,-362 1743,-362 1743,-93 1743,-73.4 1735.56,-66.49 1719,-56 1683.56,-33.56 1567.02,-24.91 1499.87,-21.73"/>
<polygon fill="red" stroke="red" points="1499.68,-18.22 1489.53,-21.26 1499.36,-25.21 1499.68,-18.22"/>
<text text-anchor="middle" x="1770" y="-220" font-family="Times,serif" font-size="10.00" fill="red">1.1.7</text>
<text text-anchor="middle" x="1770" y="-209" font-family="Times,serif" font-size="10.00" fill="red">(latest: 1.1.8)</text>
</g>
<!-- roo_windows&#45;&gt;roo_icons -->
<g id="edge55" class="edge">
<title>roo_windows&#45;&gt;roo_icons</title>
<path fill="none" stroke="black" d="M943.32,-621.51C1055.28,-607.96 1343.9,-573.02 1455.76,-559.48"/>
<polygon fill="black" stroke="black" points="1456.2,-562.95 1465.71,-558.27 1455.36,-556 1456.2,-562.95"/>
</g>
<!-- roo_windows&#45;&gt;roo_io -->
<g id="edge56" class="edge">
<title>roo_windows&#45;&gt;roo_io</title>
<path fill="none" stroke="red" d="M943.41,-624.01C995.24,-619.73 1075.85,-610.15 1099,-591 1153.51,-545.89 1180.2,-498.19 1143,-438 1133.6,-422.78 1116.4,-435.22 1107,-420 1101.02,-410.32 1103.91,-398.89 1109.43,-388.74"/>
<polygon fill="red" stroke="red" points="1112.42,-390.56 1114.8,-380.24 1106.5,-386.82 1112.42,-390.56"/>
<text text-anchor="middle" x="1187" y="-508" font-family="Times,serif" font-size="10.00" fill="red">2.0.2</text>
<text text-anchor="middle" x="1187" y="-497" font-family="Times,serif" font-size="10.00" fill="red">(latest: 2.0.3)</text>
</g>
<!-- roo_windows&#45;&gt;roo_locale -->
<g id="edge53" class="edge">
<title>roo_windows&#45;&gt;roo_locale</title>
<path fill="none" stroke="black" d="M852.9,-612.54C821.96,-602.47 779.8,-588.45 734.5,-572.11"/>
<polygon fill="black" stroke="black" points="735.69,-568.82 725.1,-568.7 733.31,-575.4 735.69,-568.82"/>
</g>
<!-- roo_windows&#45;&gt;roo_logging -->
<g id="edge54" class="edge">
<title>roo_windows&#45;&gt;roo_logging</title>
<path fill="none" stroke="red" d="M852.61,-620.94C800.65,-613.16 713.49,-597.53 642,-572 554.02,-540.58 503.69,-555.73 455,-476 446.2,-461.59 449.62,-454.01 455,-438 465.32,-407.33 480.08,-406.25 499,-380 520.26,-350.5 543.7,-315.95 559.28,-292.69"/>
<polygon fill="red" stroke="red" points="562.2,-294.61 564.84,-284.36 556.38,-290.73 562.2,-294.61"/>
<text text-anchor="middle" x="482" y="-460" font-family="Times,serif" font-size="10.00" fill="red">1.4.2</text>
<text text-anchor="middle" x="482" y="-449" font-family="Times,serif" font-size="10.00" fill="red">(latest: 1.4.3)</text>
</g>
<!-- roo_windows&#45;&gt;roo_scheduler -->
<g id="edge57" class="edge">
<title>roo_windows&#45;&gt;roo_scheduler</title>
<path fill="none" stroke="red" d="M935.78,-608.84C993.62,-578.26 1094.33,-512.48 1063,-438 1060.91,-433.02 928.53,-304.94 924,-302 913.32,-295.07 901.09,-289.11 889.13,-284.15"/>
<polygon fill="red" stroke="red" points="890.23,-280.81 879.64,-280.38 887.65,-287.32 890.23,-280.81"/>
<text text-anchor="middle" x="1095" y="-460" font-family="Times,serif" font-size="10.00" fill="red">2.1.4</text>
<text text-anchor="middle" x="1095" y="-449" font-family="Times,serif" font-size="10.00" fill="red">(latest: 2.1.5)</text>
</g>
<!-- roo_windows&#45;&gt;roo_testing -->
<g id="edge52" class="edge">
<title>roo_windows&#45;&gt;roo_testing</title>
<path fill="none" stroke="red" d="M943.08,-627.52C1108.69,-628.84 1674,-627.92 1674,-554 1674,-554 1674,-554 1674,-360 1674,-334.22 1670.38,-327.36 1675,-302 1682.1,-263 1705,-257.64 1705,-218 1705,-218 1705,-218 1705,-93 1705,-50.71 1573.31,-31.48 1499.58,-24.02"/>
<polygon fill="red" stroke="red" points="1499.87,-20.53 1489.58,-23.04 1499.19,-27.5 1499.87,-20.53"/>
<text text-anchor="middle" x="1702" y="-316" font-family="Times,serif" font-size="10.00" fill="red">1.1.7</text>
<text text-anchor="middle" x="1702" y="-305" font-family="Times,serif" font-size="10.00" fill="red">(latest: 1.1.8)</text>
</g>
<!-- roo_windows&#45;&gt;roo_time -->
<g id="edge58" class="edge">
<title>roo_windows&#45;&gt;roo_time</title>
<path fill="none" stroke="red" d="M852.83,-625.31C682.67,-618.63 90,-592.6 90,-554 90,-554 90,-554 90,-408 90,-265.33 148.37,-202.57 281,-150 343.47,-125.24 614.64,-114.62 625,-113 636.11,-111.26 648,-108.8 659.02,-106.24"/>
<polygon fill="red" stroke="red" points="659.95,-109.62 668.86,-103.89 658.32,-102.81 659.95,-109.62"/>
<text text-anchor="middle" x="122" y="-364" font-family="Times,serif" font-size="10.00" fill="red">1.3.2</text>
<text text-anchor="middle" x="122" y="-353" font-family="Times,serif" font-size="10.00" fill="red">(latest: 1.3.3)</text>
</g>
<!-- roo_windows_transceivers -->
<g id="node28" class="node">
<title>roo_windows_transceivers</title>
<polygon fill="plum" stroke="black" points="580.5,-722 419.5,-722 419.5,-684 580.5,-684 580.5,-722"/>
<text text-anchor="middle" x="500" y="-706.8" font-family="Times,serif" font-size="14.00">roo_windows_transceivers</text>
<text text-anchor="middle" x="500" y="-691.8" font-family="Times,serif" font-size="14.00">1.0.0</text>
</g>
<!-- roo_windows_transceivers&#45;&gt;roo_transceivers -->
<g id="edge59" class="edge">
<title>roo_windows_transceivers&#45;&gt;roo_transceivers</title>
<path fill="none" stroke="black" d="M513.38,-683.77C537.33,-651.72 589.9,-583.95 642,-534 661.63,-515.18 685.75,-496.43 705.14,-482.26"/>
<polygon fill="black" stroke="black" points="707.36,-484.98 713.41,-476.29 703.26,-479.31 707.36,-484.98"/>
</g>
<!-- roo_windows_transceivers&#45;&gt;roo_windows -->
<g id="edge60" class="edge">
<title>roo_windows_transceivers&#45;&gt;roo_windows</title>
<path fill="none" stroke="black" d="M580.54,-687.23C658.54,-672.92 774.7,-651.62 842.76,-639.13"/>
<polygon fill="black" stroke="black" points="843.64,-642.53 852.85,-637.28 842.38,-635.64 843.64,-642.53"/>
</g>
<!-- roo_windows_wifi -->
<g id="node29" class="node">
<title>roo_windows_wifi</title>
<polygon fill="plum" stroke="black" points="1793.5,-722 1674.5,-722 1674.5,-684 1793.5,-684 1793.5,-722"/>
<text text-anchor="middle" x="1734" y="-706.8" font-family="Times,serif" font-size="14.00">roo_windows_wifi</text>
<text text-anchor="middle" x="1734" y="-691.8" font-family="Times,serif" font-size="14.00">1.1.2</text>
</g>
<!-- roo_windows_wifi&#45;&gt;roo_testing -->
<g id="edge61" class="edge">
<title>roo_windows_wifi&#45;&gt;roo_testing</title>
<path fill="none" stroke="red" d="M1772.09,-683.88C1791.89,-671.56 1812,-653.11 1812,-629 1812,-629 1812,-629 1812,-93 1812,-30.01 1598.16,-20.74 1499.65,-19.81"/>
<polygon fill="red" stroke="red" points="1499.66,-16.31 1489.63,-19.74 1499.61,-23.31 1499.66,-16.31"/>
<text text-anchor="middle" x="1839" y="-364" font-family="Times,serif" font-size="10.00" fill="red">1.1.7</text>
<text text-anchor="middle" x="1839" y="-353" font-family="Times,serif" font-size="10.00" fill="red">(latest: 1.1.8)</text>
</g>
<!-- roo_windows_wifi&#45;&gt;roo_wifi -->
<g id="edge62" class="edge">
<title>roo_windows_wifi&#45;&gt;roo_wifi</title>
<path fill="none" stroke="black" d="M1734,-683.66C1734,-641.43 1734,-537.07 1734,-486.45"/>
<polygon fill="black" stroke="black" points="1737.5,-486.22 1734,-476.22 1730.5,-486.22 1737.5,-486.22"/>
</g>
<!-- roo_windows_wifi&#45;&gt;roo_windows -->
<g id="edge63" class="edge">
<title>roo_windows_wifi&#45;&gt;roo_windows</title>
<path fill="none" stroke="black" d="M1674.21,-696.78C1518.93,-683.22 1104.44,-647.03 953.75,-633.87"/>
<polygon fill="black" stroke="black" points="953.63,-630.34 943.36,-632.96 953.02,-637.32 953.63,-630.34"/>
</g>
</g>
</svg>
