<?xml version="1.0" encoding="UTF-8" standalone="no"?>
<!DOCTYPE svg PUBLIC "-//W3C//DTD SVG 1.1//EN"
 "http://www.w3.org/Graphics/SVG/1.1/DTD/svg11.dtd">
<!-- Generated by graphviz version 2.42.4 (0)
 -->
<!-- Title: dependencies Pages: 1 -->
<svg width="896pt" height="814pt"
 viewBox="0.00 0.00 895.50 814.00" xmlns="http://www.w3.org/2000/svg" xmlns:xlink="http://www.w3.org/1999/xlink">
<g id="graph0" class="graph" transform="scale(1 1) rotate(0) translate(4 810)">
<title>dependencies</title>
<polygon fill="white" stroke="transparent" points="-4,4 -4,-810 891.5,-810 891.5,4 -4,4"/>
<!-- roo_backport -->
<g id="node1" class="node">
<title>roo_backport</title>
<polygon fill="#b1dbab" stroke="black" points="571,-230 461,-230 461,-192 571,-192 571,-230"/>
<text text-anchor="middle" x="516" y="-214.8" font-family="Times,serif" font-size="14.00">roo_backport</text>
<text text-anchor="middle" x="516" y="-199.8" font-family="Times,serif" font-size="14.00">1.2.2</text>
</g>
<!-- roo_blink -->
<g id="node2" class="node">
<title>roo_blink</title>
<polygon fill="plum" stroke="red" points="228,-614 146,-614 146,-576 228,-576 228,-614"/>
<text text-anchor="middle" x="187" y="-598.8" font-family="Times,serif" font-size="14.00">roo_blink</text>
<text text-anchor="middle" x="187" y="-583.8" font-family="Times,serif" font-size="14.00">1.0.5</text>
</g>
<!-- roo_logging -->
<g id="node12" class="node">
<title>roo_logging</title>
<polygon fill="#b1dbab" stroke="red" points="392,-326 292,-326 292,-288 392,-288 392,-326"/>
<text text-anchor="middle" x="342" y="-310.8" font-family="Times,serif" font-size="14.00">roo_logging</text>
<text text-anchor="middle" x="342" y="-295.8" font-family="Times,serif" font-size="14.00">1.5.5</text>
</g>
<!-- roo_blink&#45;&gt;roo_logging -->
<g id="edge1" class="edge">
<title>roo_blink&#45;&gt;roo_logging</title>
<path fill="none" stroke="red" d="M186.57,-575.93C186.65,-545.59 190.39,-483.44 217,-440 223.78,-428.93 231.22,-431.56 240,-422 268.02,-391.49 262.24,-373.8 291,-344 295.05,-339.8 299.65,-335.78 304.39,-332.04"/>
<polygon fill="red" stroke="red" points="306.51,-334.83 312.43,-326.04 302.32,-329.22 306.51,-334.83"/>
<text text-anchor="middle" x="250" y="-454" font-family="Times,serif" font-size="10.00" fill="red">1.5.3</text>
<text text-anchor="middle" x="250" y="-443" font-family="Times,serif" font-size="10.00" fill="red">(latest: 1.5.5)</text>
</g>
<!-- roo_scheduler -->
<g id="node18" class="node">
<title>roo_scheduler</title>
<polygon fill="plum" stroke="red" points="356,-518 240,-518 240,-480 356,-480 356,-518"/>
<text text-anchor="middle" x="298" y="-502.8" font-family="Times,serif" font-size="14.00">roo_scheduler</text>
<text text-anchor="middle" x="298" y="-487.8" font-family="Times,serif" font-size="14.00">2.1.7</text>
</g>
<!-- roo_blink&#45;&gt;roo_scheduler -->
<g id="edge2" class="edge">
<title>roo_blink&#45;&gt;roo_scheduler</title>
<path fill="none" stroke="black" d="M209.48,-575.81C216.42,-570.14 224.05,-563.85 231,-558 243.72,-547.29 257.64,-535.29 269.48,-525"/>
<polygon fill="black" stroke="black" points="272.06,-527.39 277.3,-518.18 267.47,-522.11 272.06,-527.39"/>
</g>
<!-- roo_collections -->
<g id="node3" class="node">
<title>roo_collections</title>
<polygon fill="#b1dbab" stroke="black" points="772,-422 650,-422 650,-384 772,-384 772,-422"/>
<text text-anchor="middle" x="711" y="-406.8" font-family="Times,serif" font-size="14.00">roo_collections</text>
<text text-anchor="middle" x="711" y="-391.8" font-family="Times,serif" font-size="14.00">1.4.3</text>
</g>
<!-- roo_collections&#45;&gt;roo_backport -->
<g id="edge3" class="edge">
<title>roo_collections&#45;&gt;roo_backport</title>
<path fill="none" stroke="black" d="M692.3,-383.78C657.36,-349.74 582.08,-276.39 542.14,-237.47"/>
<polygon fill="black" stroke="black" points="544.25,-234.63 534.64,-230.16 539.36,-239.65 544.25,-234.63"/>
</g>
<!-- roo_comms -->
<g id="node4" class="node">
<title>roo_comms</title>
<polygon fill="plum" stroke="red" points="351.5,-806 254.5,-806 254.5,-768 351.5,-768 351.5,-806"/>
<text text-anchor="middle" x="303" y="-790.8" font-family="Times,serif" font-size="14.00">roo_comms</text>
<text text-anchor="middle" x="303" y="-775.8" font-family="Times,serif" font-size="14.00">1.1.3</text>
</g>
<!-- roo_comms&#45;&gt;roo_blink -->
<g id="edge4" class="edge">
<title>roo_comms&#45;&gt;roo_blink</title>
<path fill="none" stroke="red" d="M291.88,-767.78C271.35,-734.16 227.43,-662.22 203.45,-622.94"/>
<polygon fill="red" stroke="red" points="206.29,-620.87 198.09,-614.16 200.31,-624.52 206.29,-620.87"/>
<text text-anchor="middle" x="290" y="-694" font-family="Times,serif" font-size="10.00" fill="red">1.0.4</text>
<text text-anchor="middle" x="290" y="-683" font-family="Times,serif" font-size="10.00" fill="red">(latest: 1.0.5)</text>
</g>
<!-- roo_control -->
<g id="node5" class="node">
<title>roo_control</title>
<polygon fill="plum" stroke="red" points="127.5,-614 30.5,-614 30.5,-576 127.5,-576 127.5,-614"/>
<text text-anchor="middle" x="79" y="-598.8" font-family="Times,serif" font-size="14.00">roo_control</text>
<text text-anchor="middle" x="79" y="-583.8" font-family="Times,serif" font-size="14.00">1.2.4</text>
</g>
<!-- roo_comms&#45;&gt;roo_control -->
<g id="edge5" class="edge">
<title>roo_comms&#45;&gt;roo_control</title>
<path fill="none" stroke="red" d="M258.94,-767.87C229.98,-754.59 192.34,-734.62 164,-710 134.79,-684.62 109.48,-647.58 94.25,-622.68"/>
<polygon fill="red" stroke="red" points="97.25,-620.87 89.1,-614.09 91.24,-624.47 97.25,-620.87"/>
<text text-anchor="middle" x="197" y="-694" font-family="Times,serif" font-size="10.00" fill="red">1.2.3</text>
<text text-anchor="middle" x="197" y="-683" font-family="Times,serif" font-size="10.00" fill="red">(latest: 1.2.4)</text>
</g>
<!-- roo_io -->
<g id="node10" class="node">
<title>roo_io</title>
<polygon fill="#b1dbab" stroke="red" points="537.5,-422 478.5,-422 478.5,-384 537.5,-384 537.5,-422"/>
<text text-anchor="middle" x="508" y="-406.8" font-family="Times,serif" font-size="14.00">roo_io</text>
<text text-anchor="middle" x="508" y="-391.8" font-family="Times,serif" font-size="14.00">2.1.5</text>
</g>
<!-- roo_comms&#45;&gt;roo_io -->
<g id="edge6" class="edge">
<title>roo_comms&#45;&gt;roo_io</title>
<path fill="none" stroke="red" d="M333.91,-767.79C357.5,-751.32 386,-724.66 386,-692 386,-692 386,-692 386,-498 386,-471.48 382.06,-459.53 400,-440 417.39,-421.07 444.99,-412.08 467.94,-407.82"/>
<polygon fill="red" stroke="red" points="468.79,-411.23 478.1,-406.17 467.67,-404.32 468.79,-411.23"/>
<text text-anchor="middle" x="419" y="-598" font-family="Times,serif" font-size="10.00" fill="red">2.1.1</text>
<text text-anchor="middle" x="419" y="-587" font-family="Times,serif" font-size="10.00" fill="red">(latest: 2.1.5)</text>
</g>
<!-- roo_transceivers -->
<g id="node23" class="node">
<title>roo_transceivers</title>
<polygon fill="plum" stroke="red" points="549.5,-710 414.5,-710 414.5,-672 549.5,-672 549.5,-710"/>
<text text-anchor="middle" x="482" y="-694.8" font-family="Times,serif" font-size="14.00">roo_transceivers</text>
<text text-anchor="middle" x="482" y="-679.8" font-family="Times,serif" font-size="14.00">1.1.4</text>
</g>
<!-- roo_comms&#45;&gt;roo_transceivers -->
<g id="edge7" class="edge">
<title>roo_comms&#45;&gt;roo_transceivers</title>
<path fill="none" stroke="black" d="M351.93,-770.64C367.66,-764.97 384.91,-757.96 400,-750 417.92,-740.55 436.47,-727.72 451.38,-716.54"/>
<polygon fill="black" stroke="black" points="453.88,-719.03 459.71,-710.18 449.63,-713.47 453.88,-719.03"/>
</g>
<!-- roo_quantity -->
<g id="node17" class="node">
<title>roo_quantity</title>
<polygon fill="plum" stroke="red" points="162.5,-518 55.5,-518 55.5,-480 162.5,-480 162.5,-518"/>
<text text-anchor="middle" x="109" y="-502.8" font-family="Times,serif" font-size="14.00">roo_quantity</text>
<text text-anchor="middle" x="109" y="-487.8" font-family="Times,serif" font-size="14.00">1.1.7</text>
</g>
<!-- roo_control&#45;&gt;roo_quantity -->
<g id="edge8" class="edge">
<title>roo_control&#45;&gt;roo_quantity</title>
<path fill="none" stroke="black" d="M84.78,-575.88C89.14,-562.22 95.19,-543.26 100.16,-527.71"/>
<polygon fill="black" stroke="black" points="103.53,-528.66 103.23,-518.07 96.86,-526.53 103.53,-528.66"/>
</g>
<!-- roo_control&#45;&gt;roo_scheduler -->
<g id="edge9" class="edge">
<title>roo_control&#45;&gt;roo_scheduler</title>
<path fill="none" stroke="black" d="M120.97,-575.99C156.69,-560.65 208.15,-538.57 246.38,-522.15"/>
<polygon fill="black" stroke="black" points="247.99,-525.27 255.8,-518.11 245.23,-518.84 247.99,-525.27"/>
</g>
<!-- roo_dashboard -->
<g id="node6" class="node">
<title>roo_dashboard</title>
<polygon fill="plum" stroke="red" points="884,-806 762,-806 762,-768 884,-768 884,-806"/>
<text text-anchor="middle" x="823" y="-790.8" font-family="Times,serif" font-size="14.00">roo_dashboard</text>
<text text-anchor="middle" x="823" y="-775.8" font-family="Times,serif" font-size="14.00">1.0.1</text>
</g>
<!-- roo_windows -->
<g id="node26" class="node">
<title>roo_windows</title>
<polygon fill="plum" stroke="red" points="773.5,-710 664.5,-710 664.5,-672 773.5,-672 773.5,-710"/>
<text text-anchor="middle" x="719" y="-694.8" font-family="Times,serif" font-size="14.00">roo_windows</text>
<text text-anchor="middle" x="719" y="-679.8" font-family="Times,serif" font-size="14.00">1.4.2</text>
</g>
<!-- roo_dashboard&#45;&gt;roo_windows -->
<g id="edge10" class="edge">
<title>roo_dashboard&#45;&gt;roo_windows</title>
<path fill="none" stroke="red" d="M802.95,-767.88C786.98,-753.44 764.44,-733.07 746.74,-717.07"/>
<polygon fill="red" stroke="red" points="748.76,-714.18 738.99,-710.07 744.06,-719.37 748.76,-714.18"/>
<text text-anchor="middle" x="813" y="-742" font-family="Times,serif" font-size="10.00" fill="red">1.4.1</text>
<text text-anchor="middle" x="813" y="-731" font-family="Times,serif" font-size="10.00" fill="red">(latest: 1.4.2)</text>
</g>
<!-- roo_display -->
<g id="node7" class="node">
<title>roo_display</title>
<polygon fill="#b1dbab" stroke="black" points="744,-518 646,-518 646,-480 744,-480 744,-518"/>
<text text-anchor="middle" x="695" y="-502.8" font-family="Times,serif" font-size="14.00">roo_display</text>
<text text-anchor="middle" x="695" y="-487.8" font-family="Times,serif" font-size="14.00">3.0.0</text>
</g>
<!-- roo_display&#45;&gt;roo_collections -->
<g id="edge11" class="edge">
<title>roo_display&#45;&gt;roo_collections</title>
<path fill="none" stroke="black" d="M744.2,-481.86C759.54,-475.77 773.6,-468.7 778,-462 783.36,-453.83 783.02,-448.39 778,-440 775.43,-435.69 772.14,-431.87 768.41,-428.49"/>
<polygon fill="black" stroke="black" points="770.26,-425.49 760.21,-422.13 765.97,-431.03 770.26,-425.49"/>
</g>
<!-- roo_display&#45;&gt;roo_io -->
<g id="edge12" class="edge">
<title>roo_display&#45;&gt;roo_io</title>
<path fill="none" stroke="black" d="M645.54,-481.7C631.41,-476.24 616.25,-469.58 603,-462 589.26,-454.14 588.24,-448.67 575,-440 566.04,-434.14 556.04,-428.38 546.55,-423.24"/>
<polygon fill="black" stroke="black" points="548.13,-420.12 537.66,-418.53 544.85,-426.3 548.13,-420.12"/>
</g>
<!-- roo_flags -->
<g id="node8" class="node">
<title>roo_flags</title>
<polygon fill="#b1dbab" stroke="black" points="382,-230 302,-230 302,-192 382,-192 382,-230"/>
<text text-anchor="middle" x="342" y="-214.8" font-family="Times,serif" font-size="14.00">roo_flags</text>
<text text-anchor="middle" x="342" y="-199.8" font-family="Times,serif" font-size="14.00">1.2.3</text>
</g>
<!-- roo_icons -->
<g id="node9" class="node">
<title>roo_icons</title>
<polygon fill="plum" stroke="red" points="760.5,-614 677.5,-614 677.5,-576 760.5,-576 760.5,-614"/>
<text text-anchor="middle" x="719" y="-598.8" font-family="Times,serif" font-size="14.00">roo_icons</text>
<text text-anchor="middle" x="719" y="-583.8" font-family="Times,serif" font-size="14.00">1.2.1</text>
</g>
<!-- roo_icons&#45;&gt;roo_display -->
<g id="edge13" class="edge">
<title>roo_icons&#45;&gt;roo_display</title>
<path fill="none" stroke="red" d="M714.37,-575.88C710.92,-562.35 706.14,-543.62 702.19,-528.15"/>
<polygon fill="red" stroke="red" points="705.48,-526.89 699.61,-518.07 698.7,-528.62 705.48,-526.89"/>
<text text-anchor="middle" x="743" y="-550" font-family="Times,serif" font-size="10.00" fill="red">2.3.1</text>
<text text-anchor="middle" x="743" y="-539" font-family="Times,serif" font-size="10.00" fill="red">(latest: 3.0.0)</text>
</g>
<!-- roo_io&#45;&gt;roo_logging -->
<g id="edge14" class="edge">
<title>roo_io&#45;&gt;roo_logging</title>
<path fill="none" stroke="black" d="M478.32,-385.19C451.7,-370.12 412.39,-347.86 382.81,-331.11"/>
<polygon fill="black" stroke="black" points="384.39,-327.98 373.97,-326.1 380.95,-334.08 384.39,-327.98"/>
</g>
<!-- roo_locale -->
<g id="node11" class="node">
<title>roo_locale</title>
<polygon fill="plum" stroke="black" points="867,-614 779,-614 779,-576 867,-576 867,-614"/>
<text text-anchor="middle" x="823" y="-598.8" font-family="Times,serif" font-size="14.00">roo_locale</text>
<text text-anchor="middle" x="823" y="-583.8" font-family="Times,serif" font-size="14.00">1.1.1</text>
</g>
<!-- roo_logging&#45;&gt;roo_backport -->
<g id="edge15" class="edge">
<title>roo_logging&#45;&gt;roo_backport</title>
<path fill="none" stroke="black" d="M375.55,-287.88C403.47,-272.79 443.39,-251.23 473.54,-234.94"/>
<polygon fill="black" stroke="black" points="475.42,-237.9 482.55,-230.07 472.09,-231.74 475.42,-237.9"/>
</g>
<!-- roo_logging&#45;&gt;roo_flags -->
<g id="edge16" class="edge">
<title>roo_logging&#45;&gt;roo_flags</title>
<path fill="none" stroke="black" d="M342,-287.88C342,-274.35 342,-255.62 342,-240.15"/>
<polygon fill="black" stroke="black" points="345.5,-240.07 342,-230.07 338.5,-240.07 345.5,-240.07"/>
</g>
<!-- roo_threads -->
<g id="node20" class="node">
<title>roo_threads</title>
<polygon fill="#b1dbab" stroke="red" points="257.5,-230 156.5,-230 156.5,-192 257.5,-192 257.5,-230"/>
<text text-anchor="middle" x="207" y="-214.8" font-family="Times,serif" font-size="14.00">roo_threads</text>
<text text-anchor="middle" x="207" y="-199.8" font-family="Times,serif" font-size="14.00">1.2.3</text>
</g>
<!-- roo_logging&#45;&gt;roo_threads -->
<g id="edge17" class="edge">
<title>roo_logging&#45;&gt;roo_threads</title>
<path fill="none" stroke="black" d="M324.27,-287.92C311.75,-275.75 294.2,-259.82 277,-248 270.35,-243.43 263.04,-239.05 255.73,-235.02"/>
<polygon fill="black" stroke="black" points="256.99,-231.73 246.52,-230.12 253.7,-237.91 256.99,-231.73"/>
</g>
<!-- roo_monitoring -->
<g id="node13" class="node">
<title>roo_monitoring</title>
<polygon fill="plum" stroke="red" points="887.5,-518 762.5,-518 762.5,-480 887.5,-480 887.5,-518"/>
<text text-anchor="middle" x="825" y="-502.8" font-family="Times,serif" font-size="14.00">roo_monitoring</text>
<text text-anchor="middle" x="825" y="-487.8" font-family="Times,serif" font-size="14.00">1.0.0</text>
</g>
<!-- roo_monitoring&#45;&gt;roo_collections -->
<g id="edge18" class="edge">
<title>roo_monitoring&#45;&gt;roo_collections</title>
<path fill="none" stroke="red" d="M818.57,-479.75C813.34,-467.19 804.89,-450.86 793,-440 787.63,-435.1 781.49,-430.79 775.04,-427.01"/>
<polygon fill="red" stroke="red" points="776.55,-423.85 766.09,-422.19 773.23,-430.02 776.55,-423.85"/>
<text text-anchor="middle" x="842" y="-454" font-family="Times,serif" font-size="10.00" fill="red">1.4.1</text>
<text text-anchor="middle" x="842" y="-443" font-family="Times,serif" font-size="10.00" fill="red">(latest: 1.4.3)</text>
</g>
<!-- roo_monitoring&#45;&gt;roo_io -->
<g id="edge19" class="edge">
<title>roo_monitoring&#45;&gt;roo_io</title>
<path fill="none" stroke="red" d="M762.26,-481.88C759.14,-481.21 756.04,-480.58 753,-480 693.98,-468.7 671.85,-490.6 619,-462 607.64,-455.85 610.55,-447.46 600,-440 584.2,-428.82 564.45,-420.5 547.31,-414.69"/>
<polygon fill="red" stroke="red" points="548.15,-411.29 537.56,-411.56 546.01,-417.95 548.15,-411.29"/>
<text text-anchor="middle" x="652" y="-454" font-family="Times,serif" font-size="10.00" fill="red">2.1.4</text>
<text text-anchor="middle" x="652" y="-443" font-family="Times,serif" font-size="10.00" fill="red">(latest: 2.1.5)</text>
</g>
<!-- roo_onewire -->
<g id="node14" class="node">
<title>roo_onewire</title>
<polygon fill="plum" stroke="red" points="350,-614 246,-614 246,-576 350,-576 350,-614"/>
<text text-anchor="middle" x="298" y="-598.8" font-family="Times,serif" font-size="14.00">roo_onewire</text>
<text text-anchor="middle" x="298" y="-583.8" font-family="Times,serif" font-size="14.00">2.0.8</text>
</g>
<!-- roo_onewire&#45;&gt;roo_quantity -->
<g id="edge21" class="edge">
<title>roo_onewire&#45;&gt;roo_quantity</title>
<path fill="none" stroke="black" d="M261.56,-575.88C231.1,-560.73 187.5,-539.04 154.7,-522.73"/>
<polygon fill="black" stroke="black" points="155.84,-519.39 145.33,-518.07 152.72,-525.66 155.84,-519.39"/>
</g>
<!-- roo_onewire&#45;&gt;roo_scheduler -->
<g id="edge20" class="edge">
<title>roo_onewire&#45;&gt;roo_scheduler</title>
<path fill="none" stroke="black" d="M298,-575.88C298,-562.35 298,-543.62 298,-528.15"/>
<polygon fill="black" stroke="black" points="301.5,-528.07 298,-518.07 294.5,-528.07 301.5,-528.07"/>
</g>
<!-- roo_powersafefs -->
<g id="node15" class="node">
<title>roo_powersafefs</title>
<polygon fill="plum" stroke="red" points="273.5,-326 140.5,-326 140.5,-288 273.5,-288 273.5,-326"/>
<text text-anchor="middle" x="207" y="-310.8" font-family="Times,serif" font-size="14.00">roo_powersafefs</text>
<text text-anchor="middle" x="207" y="-295.8" font-family="Times,serif" font-size="14.00">1.0.0</text>
</g>
<!-- roo_powersafefs&#45;&gt;roo_threads -->
<g id="edge22" class="edge">
<title>roo_powersafefs&#45;&gt;roo_threads</title>
<path fill="none" stroke="red" d="M207,-287.88C207,-274.35 207,-255.62 207,-240.15"/>
<polygon fill="red" stroke="red" points="210.5,-240.07 207,-230.07 203.5,-240.07 210.5,-240.07"/>
<text text-anchor="middle" x="240" y="-262" font-family="Times,serif" font-size="10.00" fill="red">1.2.1</text>
<text text-anchor="middle" x="240" y="-251" font-family="Times,serif" font-size="10.00" fill="red">(latest: 1.2.3)</text>
</g>
<!-- roo_prefs -->
<g id="node16" class="node">
<title>roo_prefs</title>
<polygon fill="plum" stroke="red" points="553.5,-614 470.5,-614 470.5,-576 553.5,-576 553.5,-614"/>
<text text-anchor="middle" x="512" y="-598.8" font-family="Times,serif" font-size="14.00">roo_prefs</text>
<text text-anchor="middle" x="512" y="-583.8" font-family="Times,serif" font-size="14.00">1.2.8</text>
</g>
<!-- roo_prefs&#45;&gt;roo_logging -->
<g id="edge23" class="edge">
<title>roo_prefs&#45;&gt;roo_logging</title>
<path fill="none" stroke="red" d="M493.05,-575.83C466.39,-551.12 415.42,-506.94 365,-480 342.69,-468.08 325.79,-482.52 311,-462 283.71,-424.14 306.75,-368.09 325.03,-335.08"/>
<polygon fill="red" stroke="red" points="328.29,-336.43 330.25,-326.02 322.23,-332.94 328.29,-336.43"/>
<text text-anchor="middle" x="344" y="-454" font-family="Times,serif" font-size="10.00" fill="red">1.5.3</text>
<text text-anchor="middle" x="344" y="-443" font-family="Times,serif" font-size="10.00" fill="red">(latest: 1.5.5)</text>
</g>
<!-- roo_prefs&#45;&gt;roo_scheduler -->
<g id="edge24" class="edge">
<title>roo_prefs&#45;&gt;roo_scheduler</title>
<path fill="none" stroke="black" d="M470.27,-577.09C455.88,-571.16 439.69,-564.39 425,-558 398.61,-546.52 369.38,-533.21 345.62,-522.24"/>
<polygon fill="black" stroke="black" points="347.01,-519.03 336.47,-518 344.07,-525.38 347.01,-519.03"/>
</g>
<!-- roo_quantity&#45;&gt;roo_logging -->
<g id="edge25" class="edge">
<title>roo_quantity&#45;&gt;roo_logging</title>
<path fill="none" stroke="red" d="M115.88,-479.98C125.79,-455.84 146.03,-412.73 174,-384 197.93,-359.43 209,-358.67 240,-344 253.38,-337.67 268.19,-331.82 282.28,-326.76"/>
<polygon fill="red" stroke="red" points="283.61,-330.01 291.89,-323.39 281.29,-323.4 283.61,-330.01"/>
<text text-anchor="middle" x="207" y="-406" font-family="Times,serif" font-size="10.00" fill="red">1.5.3</text>
<text text-anchor="middle" x="207" y="-395" font-family="Times,serif" font-size="10.00" fill="red">(latest: 1.5.5)</text>
</g>
<!-- roo_scheduler&#45;&gt;roo_collections -->
<g id="edge26" class="edge">
<title>roo_scheduler&#45;&gt;roo_collections</title>
<path fill="none" stroke="red" d="M337.43,-479.9C370.72,-464.88 415.93,-445.18 435,-440 454.32,-434.76 564.27,-421.22 639.42,-412.32"/>
<polygon fill="red" stroke="red" points="640.26,-415.74 649.79,-411.1 639.44,-408.79 640.26,-415.74"/>
<text text-anchor="middle" x="468" y="-454" font-family="Times,serif" font-size="10.00" fill="red">1.4.1</text>
<text text-anchor="middle" x="468" y="-443" font-family="Times,serif" font-size="10.00" fill="red">(latest: 1.4.3)</text>
</g>
<!-- roo_scheduler&#45;&gt;roo_threads -->
<g id="edge27" class="edge">
<title>roo_scheduler&#45;&gt;roo_threads</title>
<path fill="none" stroke="red" d="M286.72,-479.88C279.11,-468.12 268.57,-452.69 258,-440 235.47,-412.96 228.11,-407.61 202,-384 171.78,-356.67 148.46,-362.81 131,-326 115.43,-293.18 145.48,-258.95 172.26,-236.67"/>
<polygon fill="red" stroke="red" points="174.79,-239.14 180.41,-230.16 170.42,-233.67 174.79,-239.14"/>
<text text-anchor="middle" x="209" y="-358" font-family="Times,serif" font-size="10.00" fill="red">1.2.1</text>
<text text-anchor="middle" x="209" y="-347" font-family="Times,serif" font-size="10.00" fill="red">(latest: 1.2.3)</text>
</g>
<!-- roo_testing -->
<g id="node19" class="node">
<title>roo_testing</title>
<polygon fill="#b1dbab" stroke="black" points="157.5,-38 60.5,-38 60.5,0 157.5,0 157.5,-38"/>
<text text-anchor="middle" x="109" y="-22.8" font-family="Times,serif" font-size="14.00">roo_testing</text>
<text text-anchor="middle" x="109" y="-7.8" font-family="Times,serif" font-size="14.00">1.3.3</text>
</g>
<!-- roo_time -->
<g id="node21" class="node">
<title>roo_time</title>
<polygon fill="#b1dbab" stroke="red" points="148.5,-134 69.5,-134 69.5,-96 148.5,-96 148.5,-134"/>
<text text-anchor="middle" x="109" y="-118.8" font-family="Times,serif" font-size="14.00">roo_time</text>
<text text-anchor="middle" x="109" y="-103.8" font-family="Times,serif" font-size="14.00">1.4.3</text>
</g>
<!-- roo_threads&#45;&gt;roo_time -->
<g id="edge28" class="edge">
<title>roo_threads&#45;&gt;roo_time</title>
<path fill="none" stroke="black" d="M195.49,-191.74C187.33,-179.64 175.61,-163.86 163,-152 158.58,-147.85 153.64,-143.85 148.58,-140.12"/>
<polygon fill="black" stroke="black" points="150.24,-137.01 140.04,-134.13 146.22,-142.74 150.24,-137.01"/>
</g>
<!-- roo_time&#45;&gt;roo_testing -->
<g id="edge29" class="edge">
<title>roo_time&#45;&gt;roo_testing</title>
<path fill="none" stroke="red" d="M109,-95.88C109,-82.35 109,-63.62 109,-48.15"/>
<polygon fill="red" stroke="red" points="112.5,-48.07 109,-38.07 105.5,-48.07 112.5,-48.07"/>
<text text-anchor="middle" x="142" y="-70" font-family="Times,serif" font-size="10.00" fill="red">1.3.2</text>
<text text-anchor="middle" x="142" y="-59" font-family="Times,serif" font-size="10.00" fill="red">(latest: 1.3.3)</text>
</g>
<!-- roo_time_ds3231 -->
<g id="node22" class="node">
<title>roo_time_ds3231</title>
<polygon fill="plum" stroke="red" points="138,-230 0,-230 0,-192 138,-192 138,-230"/>
<text text-anchor="middle" x="69" y="-214.8" font-family="Times,serif" font-size="14.00">roo_time_ds3231</text>
<text text-anchor="middle" x="69" y="-199.8" font-family="Times,serif" font-size="14.00">1.1.5</text>
</g>
<!-- roo_time_ds3231&#45;&gt;roo_time -->
<g id="edge30" class="edge">
<title>roo_time_ds3231&#45;&gt;roo_time</title>
<path fill="none" stroke="red" d="M76.71,-191.88C82.52,-178.22 90.59,-159.26 97.21,-143.71"/>
<polygon fill="red" stroke="red" points="100.62,-144.64 101.31,-134.07 94.18,-141.9 100.62,-144.64"/>
<text text-anchor="middle" x="126" y="-166" font-family="Times,serif" font-size="10.00" fill="red">1.4.1</text>
<text text-anchor="middle" x="126" y="-155" font-family="Times,serif" font-size="10.00" fill="red">(latest: 1.4.3)</text>
</g>
<!-- roo_transceivers&#45;&gt;roo_prefs -->
<g id="edge31" class="edge">
<title>roo_transceivers&#45;&gt;roo_prefs</title>
<path fill="none" stroke="red" d="M440.73,-671.88C434.02,-667.06 427.98,-661.15 424,-654 419.25,-645.46 418.55,-640.12 424,-632 426.51,-628.27 442.83,-621.18 460.76,-614.28"/>
<polygon fill="red" stroke="red" points="462.09,-617.52 470.21,-610.71 459.62,-610.97 462.09,-617.52"/>
<text text-anchor="middle" x="457" y="-646" font-family="Times,serif" font-size="10.00" fill="red">1.2.7</text>
<text text-anchor="middle" x="457" y="-635" font-family="Times,serif" font-size="10.00" fill="red">(latest: 1.2.8)</text>
</g>
<!-- roo_transport -->
<g id="node24" class="node">
<title>roo_transport</title>
<polygon fill="plum" stroke="red" points="600,-518 486,-518 486,-480 600,-480 600,-518"/>
<text text-anchor="middle" x="543" y="-502.8" font-family="Times,serif" font-size="14.00">roo_transport</text>
<text text-anchor="middle" x="543" y="-487.8" font-family="Times,serif" font-size="14.00">1.1.1</text>
</g>
<!-- roo_transport&#45;&gt;roo_collections -->
<g id="edge32" class="edge">
<title>roo_transport&#45;&gt;roo_collections</title>
<path fill="none" stroke="red" d="M600.35,-486.51C638.21,-478.48 682.09,-468.12 689,-462 697.67,-454.31 702.94,-442.84 706.14,-432.12"/>
<polygon fill="red" stroke="red" points="709.58,-432.78 708.61,-422.23 702.79,-431.08 709.58,-432.78"/>
<text text-anchor="middle" x="736" y="-454" font-family="Times,serif" font-size="10.00" fill="red">1.4.1</text>
<text text-anchor="middle" x="736" y="-443" font-family="Times,serif" font-size="10.00" fill="red">(latest: 1.4.3)</text>
</g>
<!-- roo_transport&#45;&gt;roo_io -->
<g id="edge33" class="edge">
<title>roo_transport&#45;&gt;roo_io</title>
<path fill="none" stroke="red" d="M520.92,-479.76C516.11,-474.57 511.66,-468.53 509,-462 505.23,-452.75 504.23,-441.97 504.42,-432.23"/>
<polygon fill="red" stroke="red" points="507.92,-432.38 505.02,-422.19 500.93,-431.96 507.92,-432.38"/>
<text text-anchor="middle" x="542" y="-454" font-family="Times,serif" font-size="10.00" fill="red">2.1.3</text>
<text text-anchor="middle" x="542" y="-443" font-family="Times,serif" font-size="10.00" fill="red">(latest: 2.1.5)</text>
</g>
<!-- roo_wifi -->
<g id="node25" class="node">
<title>roo_wifi</title>
<polygon fill="plum" stroke="red" points="640,-710 568,-710 568,-672 640,-672 640,-710"/>
<text text-anchor="middle" x="604" y="-694.8" font-family="Times,serif" font-size="14.00">roo_wifi</text>
<text text-anchor="middle" x="604" y="-679.8" font-family="Times,serif" font-size="14.00">1.1.3</text>
</g>
<!-- roo_wifi&#45;&gt;roo_prefs -->
<g id="edge34" class="edge">
<title>roo_wifi&#45;&gt;roo_prefs</title>
<path fill="none" stroke="red" d="M567.9,-675.85C542.59,-665.9 513.22,-654.32 513,-654 507.09,-645.46 505.78,-634.38 506.32,-624.2"/>
<polygon fill="red" stroke="red" points="509.82,-624.38 507.44,-614.06 502.86,-623.61 509.82,-624.38"/>
<text text-anchor="middle" x="546" y="-646" font-family="Times,serif" font-size="10.00" fill="red">1.2.7</text>
<text text-anchor="middle" x="546" y="-635" font-family="Times,serif" font-size="10.00" fill="red">(latest: 1.2.8)</text>
</g>
<!-- roo_windows&#45;&gt;roo_icons -->
<g id="edge36" class="edge">
<title>roo_windows&#45;&gt;roo_icons</title>
<path fill="none" stroke="black" d="M719,-671.88C719,-658.35 719,-639.62 719,-624.15"/>
<polygon fill="black" stroke="black" points="722.5,-624.07 719,-614.07 715.5,-624.07 722.5,-624.07"/>
</g>
<!-- roo_windows&#45;&gt;roo_locale -->
<g id="edge35" class="edge">
<title>roo_windows&#45;&gt;roo_locale</title>
<path fill="none" stroke="black" d="M739.05,-671.88C755.02,-657.44 777.56,-637.07 795.26,-621.07"/>
<polygon fill="black" stroke="black" points="797.94,-623.37 803.01,-614.07 793.24,-618.18 797.94,-623.37"/>
</g>
<!-- roo_windows&#45;&gt;roo_scheduler -->
<g id="edge37" class="edge">
<title>roo_windows&#45;&gt;roo_scheduler</title>
<path fill="none" stroke="red" d="M687.64,-671.79C663.45,-657.25 629.57,-635.75 602,-614 582.75,-598.81 583.28,-588.18 562,-576 500.63,-540.86 421.79,-520.93 366.3,-510.38"/>
<polygon fill="red" stroke="red" points="366.69,-506.89 356.22,-508.52 365.42,-513.78 366.69,-506.89"/>
<text text-anchor="middle" x="635" y="-598" font-family="Times,serif" font-size="10.00" fill="red">2.1.6</text>
<text text-anchor="middle" x="635" y="-587" font-family="Times,serif" font-size="10.00" fill="red">(latest: 2.1.7)</text>
</g>
<!-- roo_windows_transceivers -->
<g id="node27" class="node">
<title>roo_windows_transceivers</title>
<polygon fill="plum" stroke="red" points="584,-806 380,-806 380,-768 584,-768 584,-806"/>
<text text-anchor="middle" x="482" y="-790.8" font-family="Times,serif" font-size="14.00">roo_windows_transceivers</text>
<text text-anchor="middle" x="482" y="-775.8" font-family="Times,serif" font-size="14.00">1.0.0</text>
</g>
<!-- roo_windows_transceivers&#45;&gt;roo_transceivers -->
<g id="edge38" class="edge">
<title>roo_windows_transceivers&#45;&gt;roo_transceivers</title>
<path fill="none" stroke="red" d="M482,-767.88C482,-754.35 482,-735.62 482,-720.15"/>
<polygon fill="red" stroke="red" points="485.5,-720.07 482,-710.07 478.5,-720.07 485.5,-720.07"/>
<text text-anchor="middle" x="515" y="-742" font-family="Times,serif" font-size="10.00" fill="red">1.1.3</text>
<text text-anchor="middle" x="515" y="-731" font-family="Times,serif" font-size="10.00" fill="red">(latest: 1.1.4)</text>
</g>
<!-- roo_windows_transceivers&#45;&gt;roo_windows -->
<g id="edge39" class="edge">
<title>roo_windows_transceivers&#45;&gt;roo_windows</title>
<path fill="none" stroke="red" d="M527.42,-767.99C566.32,-752.56 622.47,-730.29 663.93,-713.84"/>
<polygon fill="red" stroke="red" points="665.33,-717.05 673.33,-710.11 662.75,-710.55 665.33,-717.05"/>
<text text-anchor="middle" x="655" y="-742" font-family="Times,serif" font-size="10.00" fill="red">1.4.1</text>
<text text-anchor="middle" x="655" y="-731" font-family="Times,serif" font-size="10.00" fill="red">(latest: 1.4.2)</text>
</g>
<!-- roo_windows_wifi -->
<g id="node28" class="node">
<title>roo_windows_wifi</title>
<polygon fill="plum" stroke="red" points="743.5,-806 602.5,-806 602.5,-768 743.5,-768 743.5,-806"/>
<text text-anchor="middle" x="673" y="-790.8" font-family="Times,serif" font-size="14.00">roo_windows_wifi</text>
<text text-anchor="middle" x="673" y="-775.8" font-family="Times,serif" font-size="14.00">1.1.3</text>
</g>
<!-- roo_windows_wifi&#45;&gt;roo_wifi -->
<g id="edge40" class="edge">
<title>roo_windows_wifi&#45;&gt;roo_wifi</title>
<path fill="none" stroke="black" d="M637.81,-767.99C630.74,-762.99 623.96,-756.98 619,-750 612.83,-741.32 609.19,-730.3 607.05,-720.2"/>
<polygon fill="black" stroke="black" points="610.47,-719.41 605.32,-710.15 603.57,-720.6 610.47,-719.41"/>
</g>
<!-- roo_windows_wifi&#45;&gt;roo_windows -->
<g id="edge41" class="edge">
<title>roo_windows_wifi&#45;&gt;roo_windows</title>
<path fill="none" stroke="black" d="M692.18,-767.89C696.96,-762.53 701.67,-756.37 705,-750 709.79,-740.83 712.98,-729.99 715.08,-720.17"/>
<polygon fill="black" stroke="black" points="718.57,-720.53 716.96,-710.06 711.69,-719.25 718.57,-720.53"/>
</g>
</g>
</svg>
