<?xml version="1.0" encoding="UTF-8" standalone="no"?>
<!DOCTYPE svg PUBLIC "-//W3C//DTD SVG 1.1//EN"
 "http://www.w3.org/Graphics/SVG/1.1/DTD/svg11.dtd">
<!-- Generated by graphviz version 2.42.4 (0)
 -->
<!-- Title: dependencies Pages: 1 -->
<svg width="805pt" height="746pt"
 viewBox="0.00 0.00 805.00 746.00" xmlns="http://www.w3.org/2000/svg" xmlns:xlink="http://www.w3.org/1999/xlink">
<g id="graph0" class="graph" transform="scale(1 1) rotate(0) translate(4 742)">
<title>dependencies</title>
<polygon fill="white" stroke="transparent" points="-4,4 -4,-742 801,-742 801,4 -4,4"/>
<!-- roo_backport -->
<g id="node1" class="node">
<title>roo_backport</title>
<polygon fill="#b1dbab" stroke="black" points="455,-188 345,-188 345,-150 455,-150 455,-188"/>
<text text-anchor="middle" x="400" y="-172.8" font-family="Times,serif" font-size="14.00">roo_backport</text>
<text text-anchor="middle" x="400" y="-157.8" font-family="Times,serif" font-size="14.00">1.2.0</text>
</g>
<!-- roo_blink -->
<g id="node2" class="node">
<title>roo_blink</title>
<polygon fill="plum" stroke="red" points="82,-434 0,-434 0,-396 82,-396 82,-434"/>
<text text-anchor="middle" x="41" y="-418.8" font-family="Times,serif" font-size="14.00">roo_blink</text>
<text text-anchor="middle" x="41" y="-403.8" font-family="Times,serif" font-size="14.00">1.0.4</text>
</g>
<!-- roo_logging -->
<g id="node12" class="node">
<title>roo_logging</title>
<polygon fill="#b1dbab" stroke="black" points="337,-263 237,-263 237,-225 337,-225 337,-263"/>
<text text-anchor="middle" x="287" y="-247.8" font-family="Times,serif" font-size="14.00">roo_logging</text>
<text text-anchor="middle" x="287" y="-232.8" font-family="Times,serif" font-size="14.00">1.5.2</text>
</g>
<!-- roo_blink&#45;&gt;roo_logging -->
<g id="edge1" class="edge">
<title>roo_blink&#45;&gt;roo_logging</title>
<path fill="none" stroke="red" d="M38.81,-395.95C36.86,-370.99 37.41,-326.05 62,-300 84.31,-276.37 168.16,-260.65 226.93,-252.27"/>
<polygon fill="red" stroke="red" points="227.44,-255.74 236.86,-250.9 226.48,-248.8 227.44,-255.74"/>
<text text-anchor="middle" x="95" y="-322" font-family="Times,serif" font-size="10.00" fill="red">1.5.1</text>
<text text-anchor="middle" x="95" y="-311" font-family="Times,serif" font-size="10.00" fill="red">(latest: 1.5.2)</text>
</g>
<!-- roo_scheduler -->
<g id="node16" class="node">
<title>roo_scheduler</title>
<polygon fill="#b1dbab" stroke="black" points="336,-338 220,-338 220,-300 336,-300 336,-338"/>
<text text-anchor="middle" x="278" y="-322.8" font-family="Times,serif" font-size="14.00">roo_scheduler</text>
<text text-anchor="middle" x="278" y="-307.8" font-family="Times,serif" font-size="14.00">2.1.6</text>
</g>
<!-- roo_blink&#45;&gt;roo_scheduler -->
<g id="edge2" class="edge">
<title>roo_blink&#45;&gt;roo_scheduler</title>
<path fill="none" stroke="black" d="M82.01,-397.73C120.93,-382.3 179.72,-358.98 222.75,-341.91"/>
<polygon fill="black" stroke="black" points="224.23,-345.09 232.23,-338.15 221.65,-338.59 224.23,-345.09"/>
</g>
<!-- roo_collections -->
<g id="node3" class="node">
<title>roo_collections</title>
<polygon fill="#b1dbab" stroke="black" points="612,-263 490,-263 490,-225 612,-225 612,-263"/>
<text text-anchor="middle" x="551" y="-247.8" font-family="Times,serif" font-size="14.00">roo_collections</text>
<text text-anchor="middle" x="551" y="-232.8" font-family="Times,serif" font-size="14.00">1.4.0</text>
</g>
<!-- roo_collections&#45;&gt;roo_backport -->
<g id="edge3" class="edge">
<title>roo_collections&#45;&gt;roo_backport</title>
<path fill="none" stroke="black" d="M513.67,-224.96C493.44,-215.17 468.24,-202.99 446.71,-192.58"/>
<polygon fill="black" stroke="black" points="447.95,-189.29 437.42,-188.09 444.9,-195.59 447.95,-189.29"/>
</g>
<!-- roo_comms -->
<g id="node4" class="node">
<title>roo_comms</title>
<polygon fill="plum" stroke="red" points="305.5,-642 208.5,-642 208.5,-604 305.5,-604 305.5,-642"/>
<text text-anchor="middle" x="257" y="-626.8" font-family="Times,serif" font-size="14.00">roo_comms</text>
<text text-anchor="middle" x="257" y="-611.8" font-family="Times,serif" font-size="14.00">1.1.3</text>
</g>
<!-- roo_comms&#45;&gt;roo_blink -->
<g id="edge4" class="edge">
<title>roo_comms&#45;&gt;roo_blink</title>
<path fill="none" stroke="black" d="M228.04,-603.86C201.58,-586.57 162.11,-558.95 132,-530 103.71,-502.8 76.33,-466.76 59.12,-442.54"/>
<polygon fill="black" stroke="black" points="61.86,-440.37 53.25,-434.2 56.14,-444.39 61.86,-440.37"/>
</g>
<!-- roo_control -->
<g id="node5" class="node">
<title>roo_control</title>
<polygon fill="plum" stroke="red" points="298.5,-434 201.5,-434 201.5,-396 298.5,-396 298.5,-434"/>
<text text-anchor="middle" x="250" y="-418.8" font-family="Times,serif" font-size="14.00">roo_control</text>
<text text-anchor="middle" x="250" y="-403.8" font-family="Times,serif" font-size="14.00">1.2.3</text>
</g>
<!-- roo_comms&#45;&gt;roo_control -->
<g id="edge5" class="edge">
<title>roo_comms&#45;&gt;roo_control</title>
<path fill="none" stroke="black" d="M265.85,-603.9C277.01,-578.78 293.75,-531.92 285,-492 281.29,-475.05 273.42,-457.38 266.08,-443.34"/>
<polygon fill="black" stroke="black" points="269,-441.37 261.15,-434.26 262.85,-444.71 269,-441.37"/>
</g>
<!-- roo_io -->
<g id="node10" class="node">
<title>roo_io</title>
<polygon fill="#b1dbab" stroke="black" points="538.5,-338 479.5,-338 479.5,-300 538.5,-300 538.5,-338"/>
<text text-anchor="middle" x="509" y="-322.8" font-family="Times,serif" font-size="14.00">roo_io</text>
<text text-anchor="middle" x="509" y="-307.8" font-family="Times,serif" font-size="14.00">2.1.2</text>
</g>
<!-- roo_comms&#45;&gt;roo_io -->
<g id="edge6" class="edge">
<title>roo_comms&#45;&gt;roo_io</title>
<path fill="none" stroke="red" d="M276.16,-603.76C281.75,-598.2 287.75,-591.98 293,-586 342.55,-529.55 338.6,-500.46 396,-452 409.06,-440.97 417.21,-445.35 430,-434 458.11,-409.06 481.3,-372.16 495.13,-347.15"/>
<polygon fill="red" stroke="red" points="498.29,-348.66 499.96,-338.2 492.13,-345.34 498.29,-348.66"/>
<text text-anchor="middle" x="429" y="-466" font-family="Times,serif" font-size="10.00" fill="red">2.1.1</text>
<text text-anchor="middle" x="429" y="-455" font-family="Times,serif" font-size="10.00" fill="red">(latest: 2.1.2)</text>
</g>
<!-- roo_transceivers -->
<g id="node21" class="node">
<title>roo_transceivers</title>
<polygon fill="plum" stroke="red" points="276.5,-530 141.5,-530 141.5,-492 276.5,-492 276.5,-530"/>
<text text-anchor="middle" x="209" y="-514.8" font-family="Times,serif" font-size="14.00">roo_transceivers</text>
<text text-anchor="middle" x="209" y="-499.8" font-family="Times,serif" font-size="14.00">1.1.4</text>
</g>
<!-- roo_comms&#45;&gt;roo_transceivers -->
<g id="edge7" class="edge">
<title>roo_comms&#45;&gt;roo_transceivers</title>
<path fill="none" stroke="black" d="M249.07,-603.84C241.43,-586.32 229.76,-559.58 220.98,-539.47"/>
<polygon fill="black" stroke="black" points="224.15,-537.96 216.94,-530.19 217.73,-540.76 224.15,-537.96"/>
</g>
<!-- roo_quantity -->
<g id="node15" class="node">
<title>roo_quantity</title>
<polygon fill="#b1dbab" stroke="black" points="461.5,-338 354.5,-338 354.5,-300 461.5,-300 461.5,-338"/>
<text text-anchor="middle" x="408" y="-322.8" font-family="Times,serif" font-size="14.00">roo_quantity</text>
<text text-anchor="middle" x="408" y="-307.8" font-family="Times,serif" font-size="14.00">1.1.6</text>
</g>
<!-- roo_control&#45;&gt;roo_quantity -->
<g id="edge8" class="edge">
<title>roo_control&#45;&gt;roo_quantity</title>
<path fill="none" stroke="red" d="M266.82,-395.87C279.19,-383.36 296.94,-367.05 315,-356 324.27,-350.33 334.59,-345.27 344.88,-340.87"/>
<polygon fill="red" stroke="red" points="346.37,-344.05 354.3,-337.02 343.72,-337.57 346.37,-344.05"/>
<text text-anchor="middle" x="348" y="-370" font-family="Times,serif" font-size="10.00" fill="red">1.1.5</text>
<text text-anchor="middle" x="348" y="-359" font-family="Times,serif" font-size="10.00" fill="red">(latest: 1.1.6)</text>
</g>
<!-- roo_control&#45;&gt;roo_scheduler -->
<g id="edge9" class="edge">
<title>roo_control&#45;&gt;roo_scheduler</title>
<path fill="none" stroke="black" d="M238.61,-395.92C232.74,-384.18 227.96,-368.74 234,-356 235.76,-352.29 238.1,-348.84 240.8,-345.66"/>
<polygon fill="black" stroke="black" points="243.53,-347.87 248.1,-338.31 238.57,-342.94 243.53,-347.87"/>
</g>
<!-- roo_dashboard -->
<g id="node6" class="node">
<title>roo_dashboard</title>
<polygon fill="plum" stroke="red" points="584,-738 462,-738 462,-700 584,-700 584,-738"/>
<text text-anchor="middle" x="523" y="-722.8" font-family="Times,serif" font-size="14.00">roo_dashboard</text>
<text text-anchor="middle" x="523" y="-707.8" font-family="Times,serif" font-size="14.00">1.0.1</text>
</g>
<!-- roo_windows -->
<g id="node24" class="node">
<title>roo_windows</title>
<polygon fill="plum" stroke="red" points="577.5,-642 468.5,-642 468.5,-604 577.5,-604 577.5,-642"/>
<text text-anchor="middle" x="523" y="-626.8" font-family="Times,serif" font-size="14.00">roo_windows</text>
<text text-anchor="middle" x="523" y="-611.8" font-family="Times,serif" font-size="14.00">1.4.1</text>
</g>
<!-- roo_dashboard&#45;&gt;roo_windows -->
<g id="edge10" class="edge">
<title>roo_dashboard&#45;&gt;roo_windows</title>
<path fill="none" stroke="black" d="M523,-699.88C523,-686.35 523,-667.62 523,-652.15"/>
<polygon fill="black" stroke="black" points="526.5,-652.07 523,-642.07 519.5,-652.07 526.5,-652.07"/>
</g>
<!-- roo_display -->
<g id="node7" class="node">
<title>roo_display</title>
<polygon fill="plum" stroke="red" points="745,-434 647,-434 647,-396 745,-396 745,-434"/>
<text text-anchor="middle" x="696" y="-418.8" font-family="Times,serif" font-size="14.00">roo_display</text>
<text text-anchor="middle" x="696" y="-403.8" font-family="Times,serif" font-size="14.00">2.3.1</text>
</g>
<!-- roo_display&#45;&gt;roo_collections -->
<g id="edge11" class="edge">
<title>roo_display&#45;&gt;roo_collections</title>
<path fill="none" stroke="red" d="M708.45,-395.61C723.09,-371.44 742.92,-328.71 722,-300 699.17,-268.67 658.19,-254.8 622.07,-248.82"/>
<polygon fill="red" stroke="red" points="622.43,-245.33 612.03,-247.33 621.41,-252.26 622.43,-245.33"/>
<text text-anchor="middle" x="764" y="-322" font-family="Times,serif" font-size="10.00" fill="red">1.3.2</text>
<text text-anchor="middle" x="764" y="-311" font-family="Times,serif" font-size="10.00" fill="red">(latest: 1.4.0)</text>
</g>
<!-- roo_display&#45;&gt;roo_io -->
<g id="edge12" class="edge">
<title>roo_display&#45;&gt;roo_io</title>
<path fill="none" stroke="red" d="M659.94,-395.88C627.87,-379.75 581.08,-356.23 548.12,-339.66"/>
<polygon fill="red" stroke="red" points="549.29,-336.34 538.79,-334.97 546.15,-342.59 549.29,-336.34"/>
<text text-anchor="middle" x="652" y="-370" font-family="Times,serif" font-size="10.00" fill="red">2.0.2</text>
<text text-anchor="middle" x="652" y="-359" font-family="Times,serif" font-size="10.00" fill="red">(latest: 2.1.2)</text>
</g>
<!-- roo_flags -->
<g id="node8" class="node">
<title>roo_flags</title>
<polygon fill="#b1dbab" stroke="black" points="327,-188 247,-188 247,-150 327,-150 327,-188"/>
<text text-anchor="middle" x="287" y="-172.8" font-family="Times,serif" font-size="14.00">roo_flags</text>
<text text-anchor="middle" x="287" y="-157.8" font-family="Times,serif" font-size="14.00">1.2.0</text>
</g>
<!-- roo_icons -->
<g id="node9" class="node">
<title>roo_icons</title>
<polygon fill="plum" stroke="red" points="720.5,-530 637.5,-530 637.5,-492 720.5,-492 720.5,-530"/>
<text text-anchor="middle" x="679" y="-514.8" font-family="Times,serif" font-size="14.00">roo_icons</text>
<text text-anchor="middle" x="679" y="-499.8" font-family="Times,serif" font-size="14.00">1.2.1</text>
</g>
<!-- roo_icons&#45;&gt;roo_display -->
<g id="edge13" class="edge">
<title>roo_icons&#45;&gt;roo_display</title>
<path fill="none" stroke="black" d="M682.28,-491.88C684.72,-478.35 688.11,-459.62 690.91,-444.15"/>
<polygon fill="black" stroke="black" points="694.4,-444.53 692.73,-434.07 687.51,-443.29 694.4,-444.53"/>
</g>
<!-- roo_io&#45;&gt;roo_logging -->
<g id="edge14" class="edge">
<title>roo_io&#45;&gt;roo_logging</title>
<path fill="none" stroke="black" d="M479.37,-303.8C476.23,-302.46 473.07,-301.16 470,-300 429.73,-284.74 383.26,-270.82 347.22,-260.8"/>
<polygon fill="black" stroke="black" points="347.91,-257.36 337.34,-258.08 346.05,-264.11 347.91,-257.36"/>
</g>
<!-- roo_locale -->
<g id="node11" class="node">
<title>roo_locale</title>
<polygon fill="#b1dbab" stroke="black" points="603,-530 515,-530 515,-492 603,-492 603,-530"/>
<text text-anchor="middle" x="559" y="-514.8" font-family="Times,serif" font-size="14.00">roo_locale</text>
<text text-anchor="middle" x="559" y="-499.8" font-family="Times,serif" font-size="14.00">1.1.1</text>
</g>
<!-- roo_logging&#45;&gt;roo_backport -->
<g id="edge15" class="edge">
<title>roo_logging&#45;&gt;roo_backport</title>
<path fill="none" stroke="black" d="M314.93,-224.96C329.6,-215.48 347.76,-203.75 363.52,-193.57"/>
<polygon fill="black" stroke="black" points="365.5,-196.46 372,-188.09 361.7,-190.58 365.5,-196.46"/>
</g>
<!-- roo_logging&#45;&gt;roo_flags -->
<g id="edge16" class="edge">
<title>roo_logging&#45;&gt;roo_flags</title>
<path fill="none" stroke="black" d="M287,-224.96C287,-216.88 287,-207.18 287,-198.18"/>
<polygon fill="black" stroke="black" points="290.5,-198.09 287,-188.09 283.5,-198.09 290.5,-198.09"/>
</g>
<!-- roo_threads -->
<g id="node18" class="node">
<title>roo_threads</title>
<polygon fill="#b1dbab" stroke="black" points="228.5,-188 127.5,-188 127.5,-150 228.5,-150 228.5,-188"/>
<text text-anchor="middle" x="178" y="-172.8" font-family="Times,serif" font-size="14.00">roo_threads</text>
<text text-anchor="middle" x="178" y="-157.8" font-family="Times,serif" font-size="14.00">1.2.0</text>
</g>
<!-- roo_logging&#45;&gt;roo_threads -->
<g id="edge17" class="edge">
<title>roo_logging&#45;&gt;roo_threads</title>
<path fill="none" stroke="black" d="M260.06,-224.96C246.04,-215.57 228.72,-203.97 213.61,-193.85"/>
<polygon fill="black" stroke="black" points="215.27,-190.75 205.01,-188.09 211.37,-196.56 215.27,-190.75"/>
</g>
<!-- roo_onewire -->
<g id="node13" class="node">
<title>roo_onewire</title>
<polygon fill="plum" stroke="red" points="421,-434 317,-434 317,-396 421,-396 421,-434"/>
<text text-anchor="middle" x="369" y="-418.8" font-family="Times,serif" font-size="14.00">roo_onewire</text>
<text text-anchor="middle" x="369" y="-403.8" font-family="Times,serif" font-size="14.00">2.0.7</text>
</g>
<!-- roo_onewire&#45;&gt;roo_quantity -->
<g id="edge19" class="edge">
<title>roo_onewire&#45;&gt;roo_quantity</title>
<path fill="none" stroke="red" d="M376.45,-395.97C381.18,-384.52 387.44,-369.39 393,-356 394.12,-353.3 395.29,-350.49 396.46,-347.69"/>
<polygon fill="red" stroke="red" points="399.75,-348.89 400.36,-338.31 393.28,-346.2 399.75,-348.89"/>
<text text-anchor="middle" x="426" y="-370" font-family="Times,serif" font-size="10.00" fill="red">1.1.5</text>
<text text-anchor="middle" x="426" y="-359" font-family="Times,serif" font-size="10.00" fill="red">(latest: 1.1.6)</text>
</g>
<!-- roo_onewire&#45;&gt;roo_scheduler -->
<g id="edge18" class="edge">
<title>roo_onewire&#45;&gt;roo_scheduler</title>
<path fill="none" stroke="black" d="M354.91,-395.84C345.48,-384.07 332.54,-368.63 320,-356 316.29,-352.26 312.24,-348.47 308.17,-344.83"/>
<polygon fill="black" stroke="black" points="310.23,-341.98 300.39,-338.04 305.63,-347.26 310.23,-341.98"/>
</g>
<!-- roo_prefs -->
<g id="node14" class="node">
<title>roo_prefs</title>
<polygon fill="plum" stroke="red" points="183.5,-434 100.5,-434 100.5,-396 183.5,-396 183.5,-434"/>
<text text-anchor="middle" x="142" y="-418.8" font-family="Times,serif" font-size="14.00">roo_prefs</text>
<text text-anchor="middle" x="142" y="-403.8" font-family="Times,serif" font-size="14.00">1.2.7</text>
</g>
<!-- roo_prefs&#45;&gt;roo_logging -->
<g id="edge20" class="edge">
<title>roo_prefs&#45;&gt;roo_logging</title>
<path fill="none" stroke="red" d="M136.82,-395.9C131.04,-371.69 124.93,-328.49 145,-300 163.74,-273.4 197.29,-259.66 227.07,-252.57"/>
<polygon fill="red" stroke="red" points="227.97,-255.96 237,-250.41 226.48,-249.12 227.97,-255.96"/>
<text text-anchor="middle" x="178" y="-322" font-family="Times,serif" font-size="10.00" fill="red">1.5.1</text>
<text text-anchor="middle" x="178" y="-311" font-family="Times,serif" font-size="10.00" fill="red">(latest: 1.5.2)</text>
</g>
<!-- roo_prefs&#45;&gt;roo_scheduler -->
<g id="edge21" class="edge">
<title>roo_prefs&#45;&gt;roo_scheduler</title>
<path fill="none" stroke="black" d="M168.22,-395.88C189.67,-381.05 220.17,-359.97 243.58,-343.79"/>
<polygon fill="black" stroke="black" points="245.62,-346.63 251.86,-338.07 241.64,-340.88 245.62,-346.63"/>
</g>
<!-- roo_quantity&#45;&gt;roo_logging -->
<g id="edge22" class="edge">
<title>roo_quantity&#45;&gt;roo_logging</title>
<path fill="none" stroke="black" d="M378.09,-299.96C362.24,-290.39 342.58,-278.53 325.59,-268.28"/>
<polygon fill="black" stroke="black" points="327.36,-265.26 316.99,-263.09 323.74,-271.25 327.36,-265.26"/>
</g>
<!-- roo_scheduler&#45;&gt;roo_collections -->
<g id="edge23" class="edge">
<title>roo_scheduler&#45;&gt;roo_collections</title>
<path fill="none" stroke="black" d="M336.1,-302.38C339.11,-301.58 342.09,-300.78 345,-300 389.83,-287.99 440.16,-274.56 479.85,-263.97"/>
<polygon fill="black" stroke="black" points="480.94,-267.3 489.7,-261.34 479.13,-260.54 480.94,-267.3"/>
</g>
<!-- roo_scheduler&#45;&gt;roo_threads -->
<g id="edge24" class="edge">
<title>roo_scheduler&#45;&gt;roo_threads</title>
<path fill="none" stroke="black" d="M259.2,-299.63C249.26,-289.38 237.24,-276.06 228,-263 213.24,-242.13 199.73,-216.4 190.48,-197.3"/>
<polygon fill="black" stroke="black" points="193.63,-195.77 186.17,-188.24 187.3,-198.78 193.63,-195.77"/>
</g>
<!-- roo_testing -->
<g id="node17" class="node">
<title>roo_testing</title>
<polygon fill="#b1dbab" stroke="black" points="408.5,-38 311.5,-38 311.5,0 408.5,0 408.5,-38"/>
<text text-anchor="middle" x="360" y="-22.8" font-family="Times,serif" font-size="14.00">roo_testing</text>
<text text-anchor="middle" x="360" y="-7.8" font-family="Times,serif" font-size="14.00">1.2.0</text>
</g>
<!-- roo_time -->
<g id="node19" class="node">
<title>roo_time</title>
<polygon fill="#b1dbab" stroke="black" points="399.5,-113 320.5,-113 320.5,-75 399.5,-75 399.5,-113"/>
<text text-anchor="middle" x="360" y="-97.8" font-family="Times,serif" font-size="14.00">roo_time</text>
<text text-anchor="middle" x="360" y="-82.8" font-family="Times,serif" font-size="14.00">1.4.0</text>
</g>
<!-- roo_threads&#45;&gt;roo_time -->
<g id="edge25" class="edge">
<title>roo_threads&#45;&gt;roo_time</title>
<path fill="none" stroke="black" d="M222.99,-149.96C249.73,-139.23 283.67,-125.62 311.07,-114.62"/>
<polygon fill="black" stroke="black" points="312.5,-117.83 320.47,-110.85 309.89,-111.33 312.5,-117.83"/>
</g>
<!-- roo_time&#45;&gt;roo_testing -->
<g id="edge26" class="edge">
<title>roo_time&#45;&gt;roo_testing</title>
<path fill="none" stroke="black" d="M360,-74.96C360,-66.88 360,-57.18 360,-48.18"/>
<polygon fill="black" stroke="black" points="363.5,-48.09 360,-38.09 356.5,-48.09 363.5,-48.09"/>
</g>
<!-- roo_time_ds3231 -->
<g id="node20" class="node">
<title>roo_time_ds3231</title>
<polygon fill="#b1dbab" stroke="black" points="611,-188 473,-188 473,-150 611,-150 611,-188"/>
<text text-anchor="middle" x="542" y="-172.8" font-family="Times,serif" font-size="14.00">roo_time_ds3231</text>
<text text-anchor="middle" x="542" y="-157.8" font-family="Times,serif" font-size="14.00">1.1.4</text>
</g>
<!-- roo_time_ds3231&#45;&gt;roo_time -->
<g id="edge27" class="edge">
<title>roo_time_ds3231&#45;&gt;roo_time</title>
<path fill="none" stroke="black" d="M497.01,-149.96C470.27,-139.23 436.33,-125.62 408.93,-114.62"/>
<polygon fill="black" stroke="black" points="410.11,-111.33 399.53,-110.85 407.5,-117.83 410.11,-111.33"/>
</g>
<!-- roo_transceivers&#45;&gt;roo_prefs -->
<g id="edge28" class="edge">
<title>roo_transceivers&#45;&gt;roo_prefs</title>
<path fill="none" stroke="black" d="M196.08,-491.88C186.07,-477.83 172.06,-458.17 160.8,-442.38"/>
<polygon fill="black" stroke="black" points="163.53,-440.18 154.88,-434.07 157.83,-444.24 163.53,-440.18"/>
</g>
<!-- roo_transport -->
<g id="node22" class="node">
<title>roo_transport</title>
<polygon fill="plum" stroke="red" points="629,-434 515,-434 515,-396 629,-396 629,-434"/>
<text text-anchor="middle" x="572" y="-418.8" font-family="Times,serif" font-size="14.00">roo_transport</text>
<text text-anchor="middle" x="572" y="-403.8" font-family="Times,serif" font-size="14.00">1.0.2</text>
</g>
<!-- roo_transport&#45;&gt;roo_collections -->
<g id="edge29" class="edge">
<title>roo_transport&#45;&gt;roo_collections</title>
<path fill="none" stroke="red" d="M629.18,-396.87C644.25,-391.14 657.57,-384.55 662,-378 667.48,-369.9 665.74,-365.03 662,-356 646.94,-319.65 613.56,-288.99 587.32,-269.17"/>
<polygon fill="red" stroke="red" points="589.21,-266.22 579.08,-263.13 585.07,-271.86 589.21,-266.22"/>
<text text-anchor="middle" x="685" y="-322" font-family="Times,serif" font-size="10.00" fill="red">1.3.2</text>
<text text-anchor="middle" x="685" y="-311" font-family="Times,serif" font-size="10.00" fill="red">(latest: 1.4.0)</text>
</g>
<!-- roo_transport&#45;&gt;roo_io -->
<g id="edge30" class="edge">
<title>roo_transport&#45;&gt;roo_io</title>
<path fill="none" stroke="red" d="M524.55,-395.85C517.54,-391.1 511.26,-385.22 507,-378 501.8,-369.17 501.04,-358.21 502.03,-348.2"/>
<polygon fill="red" stroke="red" points="505.5,-348.65 503.56,-338.24 498.58,-347.59 505.5,-348.65"/>
<text text-anchor="middle" x="540" y="-370" font-family="Times,serif" font-size="10.00" fill="red">2.0.3</text>
<text text-anchor="middle" x="540" y="-359" font-family="Times,serif" font-size="10.00" fill="red">(latest: 2.1.2)</text>
</g>
<!-- roo_wifi -->
<g id="node23" class="node">
<title>roo_wifi</title>
<polygon fill="#b1dbab" stroke="black" points="98,-586 26,-586 26,-548 98,-548 98,-586"/>
<text text-anchor="middle" x="62" y="-570.8" font-family="Times,serif" font-size="14.00">roo_wifi</text>
<text text-anchor="middle" x="62" y="-555.8" font-family="Times,serif" font-size="14.00">1.1.3</text>
</g>
<!-- roo_wifi&#45;&gt;roo_prefs -->
<g id="edge31" class="edge">
<title>roo_wifi&#45;&gt;roo_prefs</title>
<path fill="none" stroke="black" d="M71.65,-547.91C85.52,-521.89 111.22,-473.72 127.42,-443.34"/>
<polygon fill="black" stroke="black" points="130.7,-444.63 132.32,-434.16 124.52,-441.33 130.7,-444.63"/>
</g>
<!-- roo_windows&#45;&gt;roo_icons -->
<g id="edge33" class="edge">
<title>roo_windows&#45;&gt;roo_icons</title>
<path fill="none" stroke="black" d="M548.76,-603.84C575.15,-585.23 616.29,-556.22 645.26,-535.79"/>
<polygon fill="black" stroke="black" points="647.31,-538.63 653.46,-530.01 643.27,-532.91 647.31,-538.63"/>
</g>
<!-- roo_windows&#45;&gt;roo_locale -->
<g id="edge32" class="edge">
<title>roo_windows&#45;&gt;roo_locale</title>
<path fill="none" stroke="black" d="M528.94,-603.84C534.65,-586.4 543.35,-559.82 549.92,-539.74"/>
<polygon fill="black" stroke="black" points="553.26,-540.78 553.05,-530.19 546.61,-538.61 553.26,-540.78"/>
</g>
<!-- roo_windows&#45;&gt;roo_scheduler -->
<g id="edge34" class="edge">
<title>roo_windows&#45;&gt;roo_scheduler</title>
<path fill="none" stroke="red" d="M517.93,-603.73C504.05,-554.99 464.17,-423.75 430,-396 411.99,-381.37 401.95,-387.97 381,-378 363.73,-369.78 360.62,-365.47 344,-356 336.5,-351.73 328.47,-347.26 320.69,-342.98"/>
<polygon fill="red" stroke="red" points="322.16,-339.8 311.71,-338.07 318.8,-345.94 322.16,-339.8"/>
<text text-anchor="middle" x="508" y="-466" font-family="Times,serif" font-size="10.00" fill="red">2.1.4</text>
<text text-anchor="middle" x="508" y="-455" font-family="Times,serif" font-size="10.00" fill="red">(latest: 2.1.6)</text>
</g>
<!-- roo_windows_wifi -->
<g id="node25" class="node">
<title>roo_windows_wifi</title>
<polygon fill="plum" stroke="red" points="335.5,-738 194.5,-738 194.5,-700 335.5,-700 335.5,-738"/>
<text text-anchor="middle" x="265" y="-722.8" font-family="Times,serif" font-size="14.00">roo_windows_wifi</text>
<text text-anchor="middle" x="265" y="-707.8" font-family="Times,serif" font-size="14.00">1.1.2</text>
</g>
<!-- roo_windows_wifi&#45;&gt;roo_wifi -->
<g id="edge35" class="edge">
<title>roo_windows_wifi&#45;&gt;roo_wifi</title>
<path fill="none" stroke="red" d="M240.51,-699.91C204.09,-672.99 135.56,-622.35 94.82,-592.25"/>
<polygon fill="red" stroke="red" points="96.7,-589.29 86.57,-586.16 92.54,-594.92 96.7,-589.29"/>
<text text-anchor="middle" x="247" y="-674" font-family="Times,serif" font-size="10.00" fill="red">1.1.1</text>
<text text-anchor="middle" x="247" y="-663" font-family="Times,serif" font-size="10.00" fill="red">(latest: 1.1.3)</text>
</g>
<!-- roo_windows_wifi&#45;&gt;roo_windows -->
<g id="edge36" class="edge">
<title>roo_windows_wifi&#45;&gt;roo_windows</title>
<path fill="none" stroke="black" d="M314.44,-699.99C356.97,-684.49 418.43,-662.1 463.62,-645.64"/>
<polygon fill="black" stroke="black" points="465.09,-648.82 473.29,-642.11 462.69,-642.25 465.09,-648.82"/>
</g>
</g>
</svg>
