<?xml version="1.0" encoding="UTF-8" standalone="no"?>
<!DOCTYPE svg PUBLIC "-//W3C//DTD SVG 1.1//EN"
 "http://www.w3.org/Graphics/SVG/1.1/DTD/svg11.dtd">
<!-- Generated by graphviz version 2.42.4 (0)
 -->
<!-- Title: dependencies Pages: 1 -->
<svg width="1119pt" height="793pt"
 viewBox="0.00 0.00 1118.50 793.00" xmlns="http://www.w3.org/2000/svg" xmlns:xlink="http://www.w3.org/1999/xlink">
<g id="graph0" class="graph" transform="scale(1 1) rotate(0) translate(4 789)">
<title>dependencies</title>
<polygon fill="white" stroke="transparent" points="-4,4 -4,-789 1114.5,-789 1114.5,4 -4,4"/>
<!-- roo_backport -->
<g id="node1" class="node">
<title>roo_backport</title>
<polygon fill="#b1dbab" stroke="black" points="536,-230 426,-230 426,-192 536,-192 536,-230"/>
<text text-anchor="middle" x="481" y="-214.8" font-family="Times,serif" font-size="14.00">roo_backport</text>
<text text-anchor="middle" x="481" y="-199.8" font-family="Times,serif" font-size="14.00">1.2.2</text>
</g>
<!-- roo_blink -->
<g id="node2" class="node">
<title>roo_blink</title>
<polygon fill="#b1dbab" stroke="black" points="995,-593 913,-593 913,-555 995,-555 995,-593"/>
<text text-anchor="middle" x="954" y="-577.8" font-family="Times,serif" font-size="14.00">roo_blink</text>
<text text-anchor="middle" x="954" y="-562.8" font-family="Times,serif" font-size="14.00">1.0.6</text>
</g>
<!-- roo_logging -->
<g id="node13" class="node">
<title>roo_logging</title>
<polygon fill="#b1dbab" stroke="red" points="788,-326 688,-326 688,-288 788,-288 788,-326"/>
<text text-anchor="middle" x="738" y="-310.8" font-family="Times,serif" font-size="14.00">roo_logging</text>
<text text-anchor="middle" x="738" y="-295.8" font-family="Times,serif" font-size="14.00">1.5.5</text>
</g>
<!-- roo_blink&#45;&gt;roo_logging -->
<g id="edge1" class="edge">
<title>roo_blink&#45;&gt;roo_logging</title>
<path fill="none" stroke="black" d="M950.57,-554.97C945.57,-531.58 934.75,-490.08 916,-459 878.33,-396.57 859.53,-384.66 799,-344 792.75,-339.8 786.01,-335.56 779.36,-331.52"/>
<polygon fill="black" stroke="black" points="780.79,-328.3 770.41,-326.18 777.2,-334.31 780.79,-328.3"/>
</g>
<!-- roo_scheduler -->
<g id="node19" class="node">
<title>roo_scheduler</title>
<polygon fill="#b1dbab" stroke="black" points="429,-497 313,-497 313,-459 429,-459 429,-497"/>
<text text-anchor="middle" x="371" y="-481.8" font-family="Times,serif" font-size="14.00">roo_scheduler</text>
<text text-anchor="middle" x="371" y="-466.8" font-family="Times,serif" font-size="14.00">2.1.9</text>
</g>
<!-- roo_blink&#45;&gt;roo_scheduler -->
<g id="edge2" class="edge">
<title>roo_blink&#45;&gt;roo_scheduler</title>
<path fill="none" stroke="black" d="M912.74,-557.37C909.8,-556.49 906.87,-555.69 904,-555 768.96,-522.39 731.89,-531.9 594,-515 525.16,-506.56 507.14,-509.91 439,-497 438.9,-496.98 438.8,-496.96 438.7,-496.94"/>
<polygon fill="black" stroke="black" points="439.61,-493.56 429.11,-494.97 438.2,-500.41 439.61,-493.56"/>
</g>
<!-- roo_collections -->
<g id="node3" class="node">
<title>roo_collections</title>
<polygon fill="#b1dbab" stroke="black" points="477,-401 355,-401 355,-363 477,-363 477,-401"/>
<text text-anchor="middle" x="416" y="-385.8" font-family="Times,serif" font-size="14.00">roo_collections</text>
<text text-anchor="middle" x="416" y="-370.8" font-family="Times,serif" font-size="14.00">1.4.3</text>
</g>
<!-- roo_collections&#45;&gt;roo_backport -->
<g id="edge3" class="edge">
<title>roo_collections&#45;&gt;roo_backport</title>
<path fill="none" stroke="black" d="M422.96,-362.91C434.31,-333.39 456.91,-274.63 470.31,-239.78"/>
<polygon fill="black" stroke="black" points="473.67,-240.8 474,-230.21 467.14,-238.29 473.67,-240.8"/>
</g>
<!-- roo_comms -->
<g id="node4" class="node">
<title>roo_comms</title>
<polygon fill="plum" stroke="red" points="828.5,-785 731.5,-785 731.5,-747 828.5,-747 828.5,-785"/>
<text text-anchor="middle" x="780" y="-769.8" font-family="Times,serif" font-size="14.00">roo_comms</text>
<text text-anchor="middle" x="780" y="-754.8" font-family="Times,serif" font-size="14.00">1.1.3</text>
</g>
<!-- roo_comms&#45;&gt;roo_blink -->
<g id="edge4" class="edge">
<title>roo_comms&#45;&gt;roo_blink</title>
<path fill="none" stroke="red" d="M796.68,-746.78C827.73,-712.88 894.47,-640 930.23,-600.95"/>
<polygon fill="red" stroke="red" points="933.19,-602.9 937.37,-593.16 928.03,-598.17 933.19,-602.9"/>
<text text-anchor="middle" x="917" y="-673" font-family="Times,serif" font-size="10.00" fill="red">1.0.4</text>
<text text-anchor="middle" x="917" y="-662" font-family="Times,serif" font-size="10.00" fill="red">(latest: 1.0.6)</text>
</g>
<!-- roo_control -->
<g id="node5" class="node">
<title>roo_control</title>
<polygon fill="#b1dbab" stroke="black" points="1110.5,-593 1013.5,-593 1013.5,-555 1110.5,-555 1110.5,-593"/>
<text text-anchor="middle" x="1062" y="-577.8" font-family="Times,serif" font-size="14.00">roo_control</text>
<text text-anchor="middle" x="1062" y="-562.8" font-family="Times,serif" font-size="14.00">1.2.5</text>
</g>
<!-- roo_comms&#45;&gt;roo_control -->
<g id="edge5" class="edge">
<title>roo_comms&#45;&gt;roo_control</title>
<path fill="none" stroke="red" d="M828.84,-749.62C865.3,-736.77 915.29,-716.18 954,-689 989.28,-664.23 1022.18,-626.57 1042.18,-601.39"/>
<polygon fill="red" stroke="red" points="1045.05,-603.4 1048.46,-593.36 1039.54,-599.09 1045.05,-603.4"/>
<text text-anchor="middle" x="1030" y="-673" font-family="Times,serif" font-size="10.00" fill="red">1.2.3</text>
<text text-anchor="middle" x="1030" y="-662" font-family="Times,serif" font-size="10.00" fill="red">(latest: 1.2.5)</text>
</g>
<!-- roo_io -->
<g id="node11" class="node">
<title>roo_io</title>
<polygon fill="#b1dbab" stroke="red" points="698.5,-401 639.5,-401 639.5,-363 698.5,-363 698.5,-401"/>
<text text-anchor="middle" x="669" y="-385.8" font-family="Times,serif" font-size="14.00">roo_io</text>
<text text-anchor="middle" x="669" y="-370.8" font-family="Times,serif" font-size="14.00">2.1.5</text>
</g>
<!-- roo_comms&#45;&gt;roo_io -->
<g id="edge6" class="edge">
<title>roo_comms&#45;&gt;roo_io</title>
<path fill="none" stroke="red" d="M770.71,-746.52C755.76,-715.65 726.93,-651.24 716,-593 705.01,-534.46 730.16,-516.33 714,-459 709.02,-441.32 698.85,-423.55 689.43,-409.64"/>
<polygon fill="red" stroke="red" points="692.04,-407.26 683.42,-401.1 686.32,-411.29 692.04,-407.26"/>
<text text-anchor="middle" x="749" y="-577" font-family="Times,serif" font-size="10.00" fill="red">2.1.1</text>
<text text-anchor="middle" x="749" y="-566" font-family="Times,serif" font-size="10.00" fill="red">(latest: 2.1.5)</text>
</g>
<!-- roo_transceivers -->
<g id="node24" class="node">
<title>roo_transceivers</title>
<polygon fill="#b1dbab" stroke="red" points="497.5,-689 362.5,-689 362.5,-651 497.5,-651 497.5,-689"/>
<text text-anchor="middle" x="430" y="-673.8" font-family="Times,serif" font-size="14.00">roo_transceivers</text>
<text text-anchor="middle" x="430" y="-658.8" font-family="Times,serif" font-size="14.00">1.1.5</text>
</g>
<!-- roo_comms&#45;&gt;roo_transceivers -->
<g id="edge7" class="edge">
<title>roo_comms&#45;&gt;roo_transceivers</title>
<path fill="none" stroke="red" d="M731.47,-760.25C700.16,-755.62 659.38,-746.57 627,-729 614.57,-722.25 616.59,-713.45 604,-707 567.57,-688.34 552.02,-696.67 507.52,-688.9"/>
<polygon fill="red" stroke="red" points="508.05,-685.44 497.57,-686.98 506.72,-692.31 508.05,-685.44"/>
<text text-anchor="middle" x="660" y="-721" font-family="Times,serif" font-size="10.00" fill="red">1.1.4</text>
<text text-anchor="middle" x="660" y="-710" font-family="Times,serif" font-size="10.00" fill="red">(latest: 1.1.5)</text>
</g>
<!-- roo_quantity -->
<g id="node18" class="node">
<title>roo_quantity</title>
<polygon fill="#b1dbab" stroke="black" points="906.5,-497 799.5,-497 799.5,-459 906.5,-459 906.5,-497"/>
<text text-anchor="middle" x="853" y="-481.8" font-family="Times,serif" font-size="14.00">roo_quantity</text>
<text text-anchor="middle" x="853" y="-466.8" font-family="Times,serif" font-size="14.00">1.1.8</text>
</g>
<!-- roo_control&#45;&gt;roo_quantity -->
<g id="edge8" class="edge">
<title>roo_control&#45;&gt;roo_quantity</title>
<path fill="none" stroke="black" d="M1021.7,-554.88C987.73,-539.6 938.98,-517.67 902.61,-501.31"/>
<polygon fill="black" stroke="black" points="903.73,-497.98 893.17,-497.07 900.86,-504.36 903.73,-497.98"/>
</g>
<!-- roo_control&#45;&gt;roo_scheduler -->
<g id="edge9" class="edge">
<title>roo_control&#45;&gt;roo_scheduler</title>
<path fill="none" stroke="black" d="M1013.42,-557.3C1010.25,-556.47 1007.09,-555.69 1004,-555 878.74,-527 845.69,-528.03 718,-515 594.38,-502.39 561.64,-516.99 439,-497 438.9,-496.98 438.8,-496.97 438.69,-496.95"/>
<polygon fill="black" stroke="black" points="439.55,-493.55 429.08,-495.17 438.27,-500.43 439.55,-493.55"/>
</g>
<!-- roo_dashboard -->
<g id="node6" class="node">
<title>roo_dashboard</title>
<polygon fill="plum" stroke="red" points="226,-785 104,-785 104,-747 226,-747 226,-785"/>
<text text-anchor="middle" x="165" y="-769.8" font-family="Times,serif" font-size="14.00">roo_dashboard</text>
<text text-anchor="middle" x="165" y="-754.8" font-family="Times,serif" font-size="14.00">1.0.1</text>
</g>
<!-- roo_windows -->
<g id="node27" class="node">
<title>roo_windows</title>
<polygon fill="khaki" stroke="red" points="344.5,-689 235.5,-689 235.5,-651 344.5,-651 344.5,-689"/>
<text text-anchor="middle" x="290" y="-673.8" font-family="Times,serif" font-size="14.00">roo_windows</text>
<text text-anchor="middle" x="290" y="-658.8" font-family="Times,serif" font-size="14.00">1.4.2</text>
</g>
<!-- roo_dashboard&#45;&gt;roo_windows -->
<g id="edge10" class="edge">
<title>roo_dashboard&#45;&gt;roo_windows</title>
<path fill="none" stroke="red" d="M189.1,-746.88C208.64,-732.18 236.36,-711.34 257.8,-695.21"/>
<polygon fill="red" stroke="red" points="260.08,-697.88 265.97,-689.07 255.88,-692.28 260.08,-697.88"/>
<text text-anchor="middle" x="272" y="-721" font-family="Times,serif" font-size="10.00" fill="red">1.4.1</text>
<text text-anchor="middle" x="272" y="-710" font-family="Times,serif" font-size="10.00" fill="red">(latest: 1.4.2)</text>
</g>
<!-- roo_display -->
<g id="node7" class="node">
<title>roo_display</title>
<polygon fill="khaki" stroke="black" points="295,-497 197,-497 197,-459 295,-459 295,-497"/>
<text text-anchor="middle" x="246" y="-481.8" font-family="Times,serif" font-size="14.00">roo_display</text>
<text text-anchor="middle" x="246" y="-466.8" font-family="Times,serif" font-size="14.00">3.0.2</text>
</g>
<!-- roo_display&#45;&gt;roo_collections -->
<g id="edge11" class="edge">
<title>roo_display&#45;&gt;roo_collections</title>
<path fill="none" stroke="black" d="M278.78,-458.88C306.06,-443.79 345.06,-422.23 374.51,-405.94"/>
<polygon fill="black" stroke="black" points="376.27,-408.97 383.32,-401.07 372.88,-402.84 376.27,-408.97"/>
</g>
<!-- roo_display&#45;&gt;roo_io -->
<g id="edge12" class="edge">
<title>roo_display&#45;&gt;roo_io</title>
<path fill="none" stroke="black" d="M295.18,-460.95C298.15,-460.22 301.1,-459.57 304,-459 396.81,-440.88 426.33,-471.01 516,-441 533.42,-435.17 534.29,-426.64 551,-419 576.11,-407.52 605.86,-398.48 629.2,-392.32"/>
<polygon fill="black" stroke="black" points="630.29,-395.66 639.11,-389.78 628.55,-388.87 630.29,-395.66"/>
</g>
<!-- roo_flags -->
<g id="node8" class="node">
<title>roo_flags</title>
<polygon fill="#b1dbab" stroke="black" points="777,-230 697,-230 697,-192 777,-192 777,-230"/>
<text text-anchor="middle" x="737" y="-214.8" font-family="Times,serif" font-size="14.00">roo_flags</text>
<text text-anchor="middle" x="737" y="-199.8" font-family="Times,serif" font-size="14.00">1.2.3</text>
</g>
<!-- roo_fonts_basic -->
<g id="node9" class="node">
<title>roo_fonts_basic</title>
<polygon fill="#b1dbab" stroke="red" points="126,-593 0,-593 0,-555 126,-555 126,-593"/>
<text text-anchor="middle" x="63" y="-577.8" font-family="Times,serif" font-size="14.00">roo_fonts_basic</text>
<text text-anchor="middle" x="63" y="-562.8" font-family="Times,serif" font-size="14.00">1.0.1</text>
</g>
<!-- roo_fonts_basic&#45;&gt;roo_display -->
<g id="edge13" class="edge">
<title>roo_fonts_basic&#45;&gt;roo_display</title>
<path fill="none" stroke="red" d="M98.28,-554.88C127.78,-539.73 169.99,-518.04 201.75,-501.73"/>
<polygon fill="red" stroke="red" points="203.53,-504.75 210.82,-497.07 200.33,-498.52 203.53,-504.75"/>
<text text-anchor="middle" x="204" y="-529" font-family="Times,serif" font-size="10.00" fill="red">3.0.1</text>
<text text-anchor="middle" x="204" y="-518" font-family="Times,serif" font-size="10.00" fill="red">(latest: 3.0.2)</text>
</g>
<!-- roo_icons -->
<g id="node10" class="node">
<title>roo_icons</title>
<polygon fill="#b1dbab" stroke="black" points="333.5,-593 250.5,-593 250.5,-555 333.5,-555 333.5,-593"/>
<text text-anchor="middle" x="292" y="-577.8" font-family="Times,serif" font-size="14.00">roo_icons</text>
<text text-anchor="middle" x="292" y="-562.8" font-family="Times,serif" font-size="14.00">1.2.2</text>
</g>
<!-- roo_icons&#45;&gt;roo_display -->
<g id="edge14" class="edge">
<title>roo_icons&#45;&gt;roo_display</title>
<path fill="none" stroke="black" d="M283.13,-554.88C276.39,-541.09 266.99,-521.9 259.34,-506.26"/>
<polygon fill="black" stroke="black" points="262.38,-504.51 254.84,-497.07 256.09,-507.59 262.38,-504.51"/>
</g>
<!-- roo_io&#45;&gt;roo_logging -->
<g id="edge15" class="edge">
<title>roo_io&#45;&gt;roo_logging</title>
<path fill="none" stroke="black" d="M686.06,-362.96C694.43,-354.09 704.67,-343.26 713.84,-333.56"/>
<polygon fill="black" stroke="black" points="716.58,-335.76 720.9,-326.09 711.49,-330.95 716.58,-335.76"/>
</g>
<!-- roo_locale -->
<g id="node12" class="node">
<title>roo_locale</title>
<polygon fill="#b1dbab" stroke="black" points="232,-593 144,-593 144,-555 232,-555 232,-593"/>
<text text-anchor="middle" x="188" y="-577.8" font-family="Times,serif" font-size="14.00">roo_locale</text>
<text text-anchor="middle" x="188" y="-562.8" font-family="Times,serif" font-size="14.00">1.1.2</text>
</g>
<!-- roo_logging&#45;&gt;roo_backport -->
<g id="edge16" class="edge">
<title>roo_logging&#45;&gt;roo_backport</title>
<path fill="none" stroke="black" d="M718.45,-287.83C701.01,-271.79 677.41,-250.55 672,-248 626.8,-226.67 610.07,-239.49 561,-230 556.27,-229.09 551.39,-228.1 546.49,-227.07"/>
<polygon fill="black" stroke="black" points="546.94,-223.59 536.43,-224.93 545.48,-230.44 546.94,-223.59"/>
</g>
<!-- roo_logging&#45;&gt;roo_flags -->
<g id="edge17" class="edge">
<title>roo_logging&#45;&gt;roo_flags</title>
<path fill="none" stroke="black" d="M737.81,-287.88C737.66,-274.35 737.46,-255.62 737.3,-240.15"/>
<polygon fill="black" stroke="black" points="740.8,-240.03 737.19,-230.07 733.8,-240.11 740.8,-240.03"/>
</g>
<!-- roo_threads -->
<g id="node21" class="node">
<title>roo_threads</title>
<polygon fill="#b1dbab" stroke="red" points="670.5,-230 569.5,-230 569.5,-192 670.5,-192 670.5,-230"/>
<text text-anchor="middle" x="620" y="-214.8" font-family="Times,serif" font-size="14.00">roo_threads</text>
<text text-anchor="middle" x="620" y="-199.8" font-family="Times,serif" font-size="14.00">1.2.3</text>
</g>
<!-- roo_logging&#45;&gt;roo_threads -->
<g id="edge18" class="edge">
<title>roo_logging&#45;&gt;roo_threads</title>
<path fill="none" stroke="black" d="M728.87,-287.86C721.84,-275.34 711.1,-259.03 698,-248 692.27,-243.18 685.79,-238.87 679.08,-235.04"/>
<polygon fill="black" stroke="black" points="680.3,-231.73 669.82,-230.14 677.02,-237.91 680.3,-231.73"/>
</g>
<!-- roo_monitoring -->
<g id="node14" class="node">
<title>roo_monitoring</title>
<polygon fill="plum" stroke="red" points="572.5,-497 447.5,-497 447.5,-459 572.5,-459 572.5,-497"/>
<text text-anchor="middle" x="510" y="-481.8" font-family="Times,serif" font-size="14.00">roo_monitoring</text>
<text text-anchor="middle" x="510" y="-466.8" font-family="Times,serif" font-size="14.00">1.0.0</text>
</g>
<!-- roo_monitoring&#45;&gt;roo_collections -->
<g id="edge19" class="edge">
<title>roo_monitoring&#45;&gt;roo_collections</title>
<path fill="none" stroke="red" d="M491.88,-458.88C477.57,-444.57 457.44,-424.44 441.51,-408.51"/>
<polygon fill="red" stroke="red" points="443.61,-405.66 434.07,-401.07 438.66,-410.61 443.61,-405.66"/>
<text text-anchor="middle" x="504" y="-433" font-family="Times,serif" font-size="10.00" fill="red">1.4.1</text>
<text text-anchor="middle" x="504" y="-422" font-family="Times,serif" font-size="10.00" fill="red">(latest: 1.4.3)</text>
</g>
<!-- roo_monitoring&#45;&gt;roo_io -->
<g id="edge20" class="edge">
<title>roo_monitoring&#45;&gt;roo_io</title>
<path fill="none" stroke="red" d="M530.96,-458.78C545.7,-446.54 566.24,-430.59 586,-419 599.76,-410.93 615.66,-403.59 629.85,-397.68"/>
<polygon fill="red" stroke="red" points="631.4,-400.83 639.34,-393.83 628.76,-394.35 631.4,-400.83"/>
<text text-anchor="middle" x="619" y="-433" font-family="Times,serif" font-size="10.00" fill="red">2.1.4</text>
<text text-anchor="middle" x="619" y="-422" font-family="Times,serif" font-size="10.00" fill="red">(latest: 2.1.5)</text>
</g>
<!-- roo_onewire -->
<g id="node15" class="node">
<title>roo_onewire</title>
<polygon fill="#b1dbab" stroke="black" points="895,-593 791,-593 791,-555 895,-555 895,-593"/>
<text text-anchor="middle" x="843" y="-577.8" font-family="Times,serif" font-size="14.00">roo_onewire</text>
<text text-anchor="middle" x="843" y="-562.8" font-family="Times,serif" font-size="14.00">2.0.9</text>
</g>
<!-- roo_onewire&#45;&gt;roo_quantity -->
<g id="edge22" class="edge">
<title>roo_onewire&#45;&gt;roo_quantity</title>
<path fill="none" stroke="black" d="M844.93,-554.88C846.37,-541.35 848.36,-522.62 850.01,-507.15"/>
<polygon fill="black" stroke="black" points="853.5,-507.38 851.08,-497.07 846.54,-506.64 853.5,-507.38"/>
</g>
<!-- roo_onewire&#45;&gt;roo_scheduler -->
<g id="edge21" class="edge">
<title>roo_onewire&#45;&gt;roo_scheduler</title>
<path fill="none" stroke="black" d="M790.92,-558.09C786.23,-556.96 781.54,-555.91 777,-555 716.36,-542.83 700.03,-547.07 639,-537 549.56,-522.24 527.3,-517.5 439,-497 438.9,-496.98 438.8,-496.95 438.7,-496.93"/>
<polygon fill="black" stroke="black" points="439.72,-493.58 429.18,-494.65 438.09,-500.38 439.72,-493.58"/>
</g>
<!-- roo_powersafefs -->
<g id="node16" class="node">
<title>roo_powersafefs</title>
<polygon fill="plum" stroke="red" points="669.5,-326 536.5,-326 536.5,-288 669.5,-288 669.5,-326"/>
<text text-anchor="middle" x="603" y="-310.8" font-family="Times,serif" font-size="14.00">roo_powersafefs</text>
<text text-anchor="middle" x="603" y="-295.8" font-family="Times,serif" font-size="14.00">1.0.0</text>
</g>
<!-- roo_powersafefs&#45;&gt;roo_threads -->
<g id="edge23" class="edge">
<title>roo_powersafefs&#45;&gt;roo_threads</title>
<path fill="none" stroke="red" d="M606.28,-287.88C608.72,-274.35 612.11,-255.62 614.91,-240.15"/>
<polygon fill="red" stroke="red" points="618.4,-240.53 616.73,-230.07 611.51,-239.29 618.4,-240.53"/>
<text text-anchor="middle" x="646" y="-262" font-family="Times,serif" font-size="10.00" fill="red">1.2.1</text>
<text text-anchor="middle" x="646" y="-251" font-family="Times,serif" font-size="10.00" fill="red">(latest: 1.2.3)</text>
</g>
<!-- roo_prefs -->
<g id="node17" class="node">
<title>roo_prefs</title>
<polygon fill="#b1dbab" stroke="black" points="559.5,-593 476.5,-593 476.5,-555 559.5,-555 559.5,-593"/>
<text text-anchor="middle" x="518" y="-577.8" font-family="Times,serif" font-size="14.00">roo_prefs</text>
<text text-anchor="middle" x="518" y="-562.8" font-family="Times,serif" font-size="14.00">1.2.10</text>
</g>
<!-- roo_prefs&#45;&gt;roo_logging -->
<g id="edge24" class="edge">
<title>roo_prefs&#45;&gt;roo_logging</title>
<path fill="none" stroke="black" d="M559.64,-565.27C602.42,-555.54 668.94,-535.27 714,-497 736.02,-478.3 739.4,-468.87 747,-441 756.62,-405.72 750.94,-363.32 745.17,-336.03"/>
<polygon fill="black" stroke="black" points="748.53,-334.99 742.91,-326.01 741.7,-336.54 748.53,-334.99"/>
</g>
<!-- roo_prefs&#45;&gt;roo_scheduler -->
<g id="edge25" class="edge">
<title>roo_prefs&#45;&gt;roo_scheduler</title>
<path fill="none" stroke="black" d="M489.66,-554.88C466.37,-539.99 433.21,-518.78 407.87,-502.57"/>
<polygon fill="black" stroke="black" points="409.57,-499.51 399.26,-497.07 405.8,-505.4 409.57,-499.51"/>
</g>
<!-- roo_quantity&#45;&gt;roo_logging -->
<g id="edge26" class="edge">
<title>roo_quantity&#45;&gt;roo_logging</title>
<path fill="none" stroke="black" d="M846.65,-458.73C836.6,-431.61 815.06,-380.05 785,-344 781.71,-340.05 777.92,-336.28 773.94,-332.75"/>
<polygon fill="black" stroke="black" points="776.08,-329.99 766.14,-326.31 771.62,-335.38 776.08,-329.99"/>
</g>
<!-- roo_scheduler&#45;&gt;roo_collections -->
<g id="edge27" class="edge">
<title>roo_scheduler&#45;&gt;roo_collections</title>
<path fill="none" stroke="black" d="M379.26,-458.91C384.54,-447.44 391.58,-432.3 398,-419 399.35,-416.2 400.78,-413.28 402.22,-410.37"/>
<polygon fill="black" stroke="black" points="405.42,-411.78 406.74,-401.27 399.16,-408.66 405.42,-411.78"/>
</g>
<!-- roo_scheduler&#45;&gt;roo_threads -->
<g id="edge28" class="edge">
<title>roo_scheduler&#45;&gt;roo_threads</title>
<path fill="none" stroke="black" d="M429.21,-460.89C458.61,-452.53 488.61,-443.53 491,-441 539.11,-390.21 490.91,-347.32 528,-288 541.14,-266.98 562.1,-249 580.7,-235.82"/>
<polygon fill="black" stroke="black" points="582.77,-238.64 589.04,-230.11 578.81,-232.87 582.77,-238.64"/>
</g>
<!-- roo_testing -->
<g id="node20" class="node">
<title>roo_testing</title>
<polygon fill="#b1dbab" stroke="black" points="790.5,-38 693.5,-38 693.5,0 790.5,0 790.5,-38"/>
<text text-anchor="middle" x="742" y="-22.8" font-family="Times,serif" font-size="14.00">roo_testing</text>
<text text-anchor="middle" x="742" y="-7.8" font-family="Times,serif" font-size="14.00">1.3.4</text>
</g>
<!-- roo_time -->
<g id="node22" class="node">
<title>roo_time</title>
<polygon fill="#b1dbab" stroke="red" points="781.5,-134 702.5,-134 702.5,-96 781.5,-96 781.5,-134"/>
<text text-anchor="middle" x="742" y="-118.8" font-family="Times,serif" font-size="14.00">roo_time</text>
<text text-anchor="middle" x="742" y="-103.8" font-family="Times,serif" font-size="14.00">1.4.3</text>
</g>
<!-- roo_threads&#45;&gt;roo_time -->
<g id="edge29" class="edge">
<title>roo_threads&#45;&gt;roo_time</title>
<path fill="none" stroke="black" d="M643.52,-191.88C662.59,-177.18 689.65,-156.34 710.57,-140.21"/>
<polygon fill="black" stroke="black" points="712.76,-142.94 718.55,-134.07 708.49,-137.4 712.76,-142.94"/>
</g>
<!-- roo_time&#45;&gt;roo_testing -->
<g id="edge30" class="edge">
<title>roo_time&#45;&gt;roo_testing</title>
<path fill="none" stroke="red" d="M742,-95.88C742,-82.35 742,-63.62 742,-48.15"/>
<polygon fill="red" stroke="red" points="745.5,-48.07 742,-38.07 738.5,-48.07 745.5,-48.07"/>
<text text-anchor="middle" x="775" y="-70" font-family="Times,serif" font-size="10.00" fill="red">1.3.2</text>
<text text-anchor="middle" x="775" y="-59" font-family="Times,serif" font-size="10.00" fill="red">(latest: 1.3.4)</text>
</g>
<!-- roo_time_ds3231 -->
<g id="node23" class="node">
<title>roo_time_ds3231</title>
<polygon fill="plum" stroke="red" points="933,-230 795,-230 795,-192 933,-192 933,-230"/>
<text text-anchor="middle" x="864" y="-214.8" font-family="Times,serif" font-size="14.00">roo_time_ds3231</text>
<text text-anchor="middle" x="864" y="-199.8" font-family="Times,serif" font-size="14.00">1.1.5</text>
</g>
<!-- roo_time_ds3231&#45;&gt;roo_time -->
<g id="edge31" class="edge">
<title>roo_time_ds3231&#45;&gt;roo_time</title>
<path fill="none" stroke="red" d="M840.48,-191.88C821.41,-177.18 794.35,-156.34 773.43,-140.21"/>
<polygon fill="red" stroke="red" points="775.51,-137.4 765.45,-134.07 771.24,-142.94 775.51,-137.4"/>
<text text-anchor="middle" x="846" y="-166" font-family="Times,serif" font-size="10.00" fill="red">1.4.1</text>
<text text-anchor="middle" x="846" y="-155" font-family="Times,serif" font-size="10.00" fill="red">(latest: 1.4.3)</text>
</g>
<!-- roo_transceivers&#45;&gt;roo_prefs -->
<g id="edge32" class="edge">
<title>roo_transceivers&#45;&gt;roo_prefs</title>
<path fill="none" stroke="red" d="M434.53,-650.85C438.35,-638.49 444.84,-622.36 455,-611 458.98,-606.55 463.65,-602.51 468.61,-598.88"/>
<polygon fill="red" stroke="red" points="470.79,-601.64 477.17,-593.18 466.91,-595.81 470.79,-601.64"/>
<text text-anchor="middle" x="491" y="-625" font-family="Times,serif" font-size="10.00" fill="red">1.2.9</text>
<text text-anchor="middle" x="491" y="-614" font-family="Times,serif" font-size="10.00" fill="red">(latest: 1.2.10)</text>
</g>
<!-- roo_transport -->
<g id="node25" class="node">
<title>roo_transport</title>
<polygon fill="#b1dbab" stroke="black" points="705,-497 591,-497 591,-459 705,-459 705,-497"/>
<text text-anchor="middle" x="648" y="-481.8" font-family="Times,serif" font-size="14.00">roo_transport</text>
<text text-anchor="middle" x="648" y="-466.8" font-family="Times,serif" font-size="14.00">1.1.2</text>
</g>
<!-- roo_transport&#45;&gt;roo_collections -->
<g id="edge33" class="edge">
<title>roo_transport&#45;&gt;roo_collections</title>
<path fill="none" stroke="black" d="M647.21,-458.87C645.64,-445.86 641.35,-428.92 630,-419 609.05,-400.69 541.01,-391.52 487.21,-387.04"/>
<polygon fill="black" stroke="black" points="487.25,-383.54 477.01,-386.24 486.7,-390.51 487.25,-383.54"/>
</g>
<!-- roo_transport&#45;&gt;roo_io -->
<g id="edge34" class="edge">
<title>roo_transport&#45;&gt;roo_io</title>
<path fill="none" stroke="black" d="M652.05,-458.88C655.07,-445.35 659.26,-426.62 662.71,-411.15"/>
<polygon fill="black" stroke="black" points="666.2,-411.59 664.96,-401.07 659.37,-410.06 666.2,-411.59"/>
</g>
<!-- roo_wifi -->
<g id="node26" class="node">
<title>roo_wifi</title>
<polygon fill="khaki" stroke="red" points="588,-689 516,-689 516,-651 588,-651 588,-689"/>
<text text-anchor="middle" x="552" y="-673.8" font-family="Times,serif" font-size="14.00">roo_wifi</text>
<text text-anchor="middle" x="552" y="-658.8" font-family="Times,serif" font-size="14.00">1.1.4</text>
</g>
<!-- roo_wifi&#45;&gt;roo_prefs -->
<g id="edge35" class="edge">
<title>roo_wifi&#45;&gt;roo_prefs</title>
<path fill="none" stroke="red" d="M545.44,-650.88C540.51,-637.22 533.65,-618.26 528.02,-602.71"/>
<polygon fill="red" stroke="red" points="531.23,-601.28 524.54,-593.07 524.65,-603.66 531.23,-601.28"/>
<text text-anchor="middle" x="574" y="-625" font-family="Times,serif" font-size="10.00" fill="red">1.2.9</text>
<text text-anchor="middle" x="574" y="-614" font-family="Times,serif" font-size="10.00" fill="red">(latest: 1.2.10)</text>
</g>
<!-- roo_windows&#45;&gt;roo_icons -->
<g id="edge37" class="edge">
<title>roo_windows&#45;&gt;roo_icons</title>
<path fill="none" stroke="red" d="M290.26,-650.97C290.44,-639.52 290.7,-624.39 291,-611 291.05,-608.57 291.12,-606.06 291.18,-603.53"/>
<polygon fill="red" stroke="red" points="294.68,-603.4 291.45,-593.31 287.69,-603.22 294.68,-603.4"/>
<text text-anchor="middle" x="324" y="-625" font-family="Times,serif" font-size="10.00" fill="red">1.2.1</text>
<text text-anchor="middle" x="324" y="-614" font-family="Times,serif" font-size="10.00" fill="red">(latest: 1.2.2)</text>
</g>
<!-- roo_windows&#45;&gt;roo_locale -->
<g id="edge36" class="edge">
<title>roo_windows&#45;&gt;roo_locale</title>
<path fill="none" stroke="red" d="M245.88,-650.81C237,-645.88 228.2,-639.94 221,-633 212.12,-624.44 204.93,-612.98 199.54,-602.5"/>
<polygon fill="red" stroke="red" points="202.6,-600.77 195.11,-593.27 196.28,-603.8 202.6,-600.77"/>
<text text-anchor="middle" x="254" y="-625" font-family="Times,serif" font-size="10.00" fill="red">1.1.1</text>
<text text-anchor="middle" x="254" y="-614" font-family="Times,serif" font-size="10.00" fill="red">(latest: 1.1.2)</text>
</g>
<!-- roo_windows&#45;&gt;roo_scheduler -->
<g id="edge38" class="edge">
<title>roo_windows&#45;&gt;roo_scheduler</title>
<path fill="none" stroke="red" d="M337.99,-650.96C345.41,-646.18 352.19,-640.27 357,-633 381.98,-595.21 380.12,-540.33 375.94,-507.31"/>
<polygon fill="red" stroke="red" points="379.4,-506.81 374.53,-497.41 372.47,-507.8 379.4,-506.81"/>
<text text-anchor="middle" x="411" y="-577" font-family="Times,serif" font-size="10.00" fill="red">2.1.6</text>
<text text-anchor="middle" x="411" y="-566" font-family="Times,serif" font-size="10.00" fill="red">(latest: 2.1.9)</text>
</g>
<!-- roo_windows_transceivers -->
<g id="node28" class="node">
<title>roo_windows_transceivers</title>
<polygon fill="plum" stroke="red" points="448,-785 244,-785 244,-747 448,-747 448,-785"/>
<text text-anchor="middle" x="346" y="-769.8" font-family="Times,serif" font-size="14.00">roo_windows_transceivers</text>
<text text-anchor="middle" x="346" y="-754.8" font-family="Times,serif" font-size="14.00">1.0.0</text>
</g>
<!-- roo_windows_transceivers&#45;&gt;roo_transceivers -->
<g id="edge39" class="edge">
<title>roo_windows_transceivers&#45;&gt;roo_transceivers</title>
<path fill="none" stroke="red" d="M372.11,-746.95C378.97,-741.59 386.1,-735.42 392,-729 400.63,-719.61 408.63,-708.06 415.04,-697.74"/>
<polygon fill="red" stroke="red" points="418.09,-699.45 420.24,-689.08 412.09,-695.85 418.09,-699.45"/>
<text text-anchor="middle" x="441" y="-721" font-family="Times,serif" font-size="10.00" fill="red">1.1.3</text>
<text text-anchor="middle" x="441" y="-710" font-family="Times,serif" font-size="10.00" fill="red">(latest: 1.1.5)</text>
</g>
<!-- roo_windows_transceivers&#45;&gt;roo_windows -->
<g id="edge40" class="edge">
<title>roo_windows_transceivers&#45;&gt;roo_windows</title>
<path fill="none" stroke="red" d="M335.2,-746.88C326.91,-732.96 315.34,-713.53 305.98,-697.82"/>
<polygon fill="red" stroke="red" points="308.89,-695.87 300.76,-689.07 302.88,-699.45 308.89,-695.87"/>
<text text-anchor="middle" x="357" y="-721" font-family="Times,serif" font-size="10.00" fill="red">1.4.1</text>
<text text-anchor="middle" x="357" y="-710" font-family="Times,serif" font-size="10.00" fill="red">(latest: 1.4.2)</text>
</g>
<!-- roo_windows_wifi -->
<g id="node29" class="node">
<title>roo_windows_wifi</title>
<polygon fill="plum" stroke="red" points="607.5,-785 466.5,-785 466.5,-747 607.5,-747 607.5,-785"/>
<text text-anchor="middle" x="537" y="-769.8" font-family="Times,serif" font-size="14.00">roo_windows_wifi</text>
<text text-anchor="middle" x="537" y="-754.8" font-family="Times,serif" font-size="14.00">1.1.3</text>
</g>
<!-- roo_windows_wifi&#45;&gt;roo_wifi -->
<g id="edge41" class="edge">
<title>roo_windows_wifi&#45;&gt;roo_wifi</title>
<path fill="none" stroke="red" d="M535.68,-746.8C535.25,-735.28 535.42,-720.14 538,-707 538.53,-704.32 539.24,-701.57 540.07,-698.86"/>
<polygon fill="red" stroke="red" points="543.41,-699.9 543.44,-689.31 536.81,-697.57 543.41,-699.9"/>
<text text-anchor="middle" x="571" y="-721" font-family="Times,serif" font-size="10.00" fill="red">1.1.3</text>
<text text-anchor="middle" x="571" y="-710" font-family="Times,serif" font-size="10.00" fill="red">(latest: 1.1.4)</text>
</g>
<!-- roo_windows_wifi&#45;&gt;roo_windows -->
<g id="edge42" class="edge">
<title>roo_windows_wifi&#45;&gt;roo_windows</title>
<path fill="none" stroke="black" d="M523.87,-746.96C513.11,-733.62 496.66,-716.24 478,-707 430.45,-683.45 410.15,-698.83 354.54,-689.03"/>
<polygon fill="black" stroke="black" points="355.01,-685.56 344.52,-687.07 353.66,-692.43 355.01,-685.56"/>
</g>
</g>
</svg>
