<?xml version="1.0" encoding="UTF-8" standalone="no"?>
<!DOCTYPE svg PUBLIC "-//W3C//DTD SVG 1.1//EN"
 "http://www.w3.org/Graphics/SVG/1.1/DTD/svg11.dtd">
<!-- Generated by graphviz version 2.42.4 (0)
 -->
<!-- Title: dependencies Pages: 1 -->
<svg width="1238pt" height="793pt"
 viewBox="0.00 0.00 1238.00 793.00" xmlns="http://www.w3.org/2000/svg" xmlns:xlink="http://www.w3.org/1999/xlink">
<g id="graph0" class="graph" transform="scale(1 1) rotate(0) translate(4 789)">
<title>dependencies</title>
<polygon fill="white" stroke="transparent" points="-4,4 -4,-789 1234,-789 1234,4 -4,4"/>
<!-- roo_backport -->
<g id="node1" class="node">
<title>roo_backport</title>
<polygon fill="#b1dbab" stroke="black" points="666,-209 556,-209 556,-171 666,-171 666,-209"/>
<text text-anchor="middle" x="611" y="-193.8" font-family="Times,serif" font-size="14.00">roo_backport</text>
<text text-anchor="middle" x="611" y="-178.8" font-family="Times,serif" font-size="14.00">1.2.2</text>
</g>
<!-- roo_blink -->
<g id="node2" class="node">
<title>roo_blink</title>
<polygon fill="#b1dbab" stroke="red" points="320,-593 238,-593 238,-555 320,-555 320,-593"/>
<text text-anchor="middle" x="279" y="-577.8" font-family="Times,serif" font-size="14.00">roo_blink</text>
<text text-anchor="middle" x="279" y="-562.8" font-family="Times,serif" font-size="14.00">1.0.6</text>
</g>
<!-- roo_logging -->
<g id="node15" class="node">
<title>roo_logging</title>
<polygon fill="#b1dbab" stroke="black" points="487,-305 387,-305 387,-267 487,-267 487,-305"/>
<text text-anchor="middle" x="437" y="-289.8" font-family="Times,serif" font-size="14.00">roo_logging</text>
<text text-anchor="middle" x="437" y="-274.8" font-family="Times,serif" font-size="14.00">1.5.7</text>
</g>
<!-- roo_blink&#45;&gt;roo_logging -->
<g id="edge1" class="edge">
<title>roo_blink&#45;&gt;roo_logging</title>
<path fill="none" stroke="red" d="M272.7,-554.86C265.74,-531.7 257.09,-490.83 270,-459 284.36,-423.6 364,-350.52 407.91,-312.01"/>
<polygon fill="red" stroke="red" points="410.44,-314.45 415.67,-305.24 405.84,-309.18 410.44,-314.45"/>
<text text-anchor="middle" x="330" y="-433" font-family="Times,serif" font-size="10.00" fill="red">1.5.5</text>
<text text-anchor="middle" x="330" y="-422" font-family="Times,serif" font-size="10.00" fill="red">(latest: 1.5.7)</text>
</g>
<!-- roo_scheduler -->
<g id="node21" class="node">
<title>roo_scheduler</title>
<polygon fill="#b1dbab" stroke="red" points="395,-497 279,-497 279,-459 395,-459 395,-497"/>
<text text-anchor="middle" x="337" y="-481.8" font-family="Times,serif" font-size="14.00">roo_scheduler</text>
<text text-anchor="middle" x="337" y="-466.8" font-family="Times,serif" font-size="14.00">2.1.9</text>
</g>
<!-- roo_blink&#45;&gt;roo_scheduler -->
<g id="edge2" class="edge">
<title>roo_blink&#45;&gt;roo_scheduler</title>
<path fill="none" stroke="black" d="M290.79,-554.74C294.42,-549.08 298.4,-542.8 302,-537 308.32,-526.83 315.15,-515.57 321.08,-505.7"/>
<polygon fill="black" stroke="black" points="324.1,-507.48 326.24,-497.1 318.1,-503.88 324.1,-507.48"/>
</g>
<!-- roo_collections -->
<g id="node3" class="node">
<title>roo_collections</title>
<polygon fill="#b1dbab" stroke="black" points="880,-401 758,-401 758,-363 880,-363 880,-401"/>
<text text-anchor="middle" x="819" y="-385.8" font-family="Times,serif" font-size="14.00">roo_collections</text>
<text text-anchor="middle" x="819" y="-370.8" font-family="Times,serif" font-size="14.00">1.4.3</text>
</g>
<!-- roo_collections&#45;&gt;roo_backport -->
<g id="edge3" class="edge">
<title>roo_collections&#45;&gt;roo_backport</title>
<path fill="none" stroke="black" d="M799.06,-362.78C761.63,-328.59 680.82,-254.78 638.35,-215.98"/>
<polygon fill="black" stroke="black" points="640.63,-213.32 630.88,-209.16 635.91,-218.49 640.63,-213.32"/>
</g>
<!-- roo_comms -->
<g id="node4" class="node">
<title>roo_comms</title>
<polygon fill="#b1dbab" stroke="red" points="260.5,-785 163.5,-785 163.5,-747 260.5,-747 260.5,-785"/>
<text text-anchor="middle" x="212" y="-769.8" font-family="Times,serif" font-size="14.00">roo_comms</text>
<text text-anchor="middle" x="212" y="-754.8" font-family="Times,serif" font-size="14.00">1.1.4</text>
</g>
<!-- roo_comms&#45;&gt;roo_blink -->
<g id="edge4" class="edge">
<title>roo_comms&#45;&gt;roo_blink</title>
<path fill="none" stroke="black" d="M212.82,-746.65C214.36,-723.62 218.71,-683.25 231,-651 237.72,-633.37 248.8,-615.44 258.62,-601.43"/>
<polygon fill="black" stroke="black" points="261.51,-603.4 264.52,-593.25 255.84,-599.31 261.51,-603.4"/>
</g>
<!-- roo_control -->
<g id="node5" class="node">
<title>roo_control</title>
<polygon fill="#b1dbab" stroke="red" points="219.5,-593 122.5,-593 122.5,-555 219.5,-555 219.5,-593"/>
<text text-anchor="middle" x="171" y="-577.8" font-family="Times,serif" font-size="14.00">roo_control</text>
<text text-anchor="middle" x="171" y="-562.8" font-family="Times,serif" font-size="14.00">1.2.5</text>
</g>
<!-- roo_comms&#45;&gt;roo_control -->
<g id="edge5" class="edge">
<title>roo_comms&#45;&gt;roo_control</title>
<path fill="none" stroke="black" d="M204.17,-746.92C201.93,-741.26 199.66,-734.94 198,-729 185.99,-685.97 178.26,-634.61 174.27,-603.42"/>
<polygon fill="black" stroke="black" points="177.72,-602.77 173.02,-593.28 170.77,-603.63 177.72,-602.77"/>
</g>
<!-- roo_io -->
<g id="node13" class="node">
<title>roo_io</title>
<polygon fill="#b1dbab" stroke="black" points="589.5,-401 530.5,-401 530.5,-363 589.5,-363 589.5,-401"/>
<text text-anchor="middle" x="560" y="-385.8" font-family="Times,serif" font-size="14.00">roo_io</text>
<text text-anchor="middle" x="560" y="-370.8" font-family="Times,serif" font-size="14.00">2.1.7</text>
</g>
<!-- roo_comms&#45;&gt;roo_io -->
<g id="edge6" class="edge">
<title>roo_comms&#45;&gt;roo_io</title>
<path fill="none" stroke="red" d="M260.54,-749.1C263.72,-748.32 266.9,-747.61 270,-747 316.4,-737.94 447.8,-761.64 482,-729 538.43,-675.14 487.94,-631.12 505,-555 516.65,-503.02 537.07,-444.26 549.48,-410.63"/>
<polygon fill="red" stroke="red" points="552.84,-411.63 553.05,-401.03 546.28,-409.18 552.84,-411.63"/>
<text text-anchor="middle" x="538" y="-577" font-family="Times,serif" font-size="10.00" fill="red">2.1.5</text>
<text text-anchor="middle" x="538" y="-566" font-family="Times,serif" font-size="10.00" fill="red">(latest: 2.1.7)</text>
</g>
<!-- roo_transceivers -->
<g id="node26" class="node">
<title>roo_transceivers</title>
<polygon fill="#b1dbab" stroke="red" points="375.5,-689 240.5,-689 240.5,-651 375.5,-651 375.5,-689"/>
<text text-anchor="middle" x="308" y="-673.8" font-family="Times,serif" font-size="14.00">roo_transceivers</text>
<text text-anchor="middle" x="308" y="-658.8" font-family="Times,serif" font-size="14.00">1.1.6</text>
</g>
<!-- roo_comms&#45;&gt;roo_transceivers -->
<g id="edge7" class="edge">
<title>roo_comms&#45;&gt;roo_transceivers</title>
<path fill="none" stroke="red" d="M228.84,-746.91C239.8,-735.31 254.51,-720.03 268,-707 271.77,-703.36 275.8,-699.59 279.81,-695.92"/>
<polygon fill="red" stroke="red" points="282.34,-698.35 287.4,-689.04 277.64,-693.16 282.34,-698.35"/>
<text text-anchor="middle" x="301" y="-721" font-family="Times,serif" font-size="10.00" fill="red">1.1.5</text>
<text text-anchor="middle" x="301" y="-710" font-family="Times,serif" font-size="10.00" fill="red">(latest: 1.1.6)</text>
</g>
<!-- roo_quantity -->
<g id="node20" class="node">
<title>roo_quantity</title>
<polygon fill="#b1dbab" stroke="red" points="222.5,-497 115.5,-497 115.5,-459 222.5,-459 222.5,-497"/>
<text text-anchor="middle" x="169" y="-481.8" font-family="Times,serif" font-size="14.00">roo_quantity</text>
<text text-anchor="middle" x="169" y="-466.8" font-family="Times,serif" font-size="14.00">1.1.8</text>
</g>
<!-- roo_control&#45;&gt;roo_quantity -->
<g id="edge8" class="edge">
<title>roo_control&#45;&gt;roo_quantity</title>
<path fill="none" stroke="black" d="M170.61,-554.88C170.33,-541.35 169.93,-522.62 169.6,-507.15"/>
<polygon fill="black" stroke="black" points="173.1,-506.99 169.38,-497.07 166.1,-507.14 173.1,-506.99"/>
</g>
<!-- roo_control&#45;&gt;roo_scheduler -->
<g id="edge9" class="edge">
<title>roo_control&#45;&gt;roo_scheduler</title>
<path fill="none" stroke="black" d="M203.01,-554.88C229.53,-539.86 267.4,-518.41 296.12,-502.15"/>
<polygon fill="black" stroke="black" points="298.11,-505.04 305.09,-497.07 294.67,-498.95 298.11,-505.04"/>
</g>
<!-- roo_dashboard -->
<g id="node6" class="node">
<title>roo_dashboard</title>
<polygon fill="khaki" stroke="red" points="783,-785 661,-785 661,-747 783,-747 783,-785"/>
<text text-anchor="middle" x="722" y="-769.8" font-family="Times,serif" font-size="14.00">roo_dashboard</text>
<text text-anchor="middle" x="722" y="-754.8" font-family="Times,serif" font-size="14.00">1.0.1</text>
</g>
<!-- roo_windows -->
<g id="node29" class="node">
<title>roo_windows</title>
<polygon fill="#b1dbab" stroke="red" points="756.5,-689 647.5,-689 647.5,-651 756.5,-651 756.5,-689"/>
<text text-anchor="middle" x="702" y="-673.8" font-family="Times,serif" font-size="14.00">roo_windows</text>
<text text-anchor="middle" x="702" y="-658.8" font-family="Times,serif" font-size="14.00">1.5.0</text>
</g>
<!-- roo_dashboard&#45;&gt;roo_windows -->
<g id="edge10" class="edge">
<title>roo_dashboard&#45;&gt;roo_windows</title>
<path fill="none" stroke="red" d="M718.14,-746.88C715.27,-733.35 711.28,-714.62 707.99,-699.15"/>
<polygon fill="red" stroke="red" points="711.35,-698.12 705.84,-689.07 704.5,-699.58 711.35,-698.12"/>
<text text-anchor="middle" x="747" y="-721" font-family="Times,serif" font-size="10.00" fill="red">1.4.1</text>
<text text-anchor="middle" x="747" y="-710" font-family="Times,serif" font-size="10.00" fill="red">(latest: 1.5.0)</text>
</g>
<!-- roo_display -->
<g id="node7" class="node">
<title>roo_display</title>
<polygon fill="plum" stroke="red" points="830,-497 732,-497 732,-459 830,-459 830,-497"/>
<text text-anchor="middle" x="781" y="-481.8" font-family="Times,serif" font-size="14.00">roo_display</text>
<text text-anchor="middle" x="781" y="-466.8" font-family="Times,serif" font-size="14.00">3.0.4</text>
</g>
<!-- roo_display&#45;&gt;roo_collections -->
<g id="edge11" class="edge">
<title>roo_display&#45;&gt;roo_collections</title>
<path fill="none" stroke="black" d="M814.73,-458.85C820.89,-453.92 826.47,-447.97 830,-441 834.72,-431.67 833.93,-420.57 831.28,-410.59"/>
<polygon fill="black" stroke="black" points="834.6,-409.48 828.13,-401.09 827.95,-411.68 834.6,-409.48"/>
</g>
<!-- roo_display&#45;&gt;roo_io -->
<g id="edge12" class="edge">
<title>roo_display&#45;&gt;roo_io</title>
<path fill="none" stroke="red" d="M731.79,-469.46C706.21,-464.1 675.14,-455.25 650,-441 637.69,-434.02 638.45,-427.31 627,-419 618.26,-412.65 608.25,-406.68 598.69,-401.5"/>
<polygon fill="red" stroke="red" points="600.2,-398.33 589.72,-396.78 596.94,-404.53 600.2,-398.33"/>
<text text-anchor="middle" x="683" y="-433" font-family="Times,serif" font-size="10.00" fill="red">2.1.6</text>
<text text-anchor="middle" x="683" y="-422" font-family="Times,serif" font-size="10.00" fill="red">(latest: 2.1.7)</text>
</g>
<!-- roo_display_lvgl -->
<g id="node8" class="node">
<title>roo_display_lvgl</title>
<polygon fill="plum" stroke="red" points="1123.5,-593 992.5,-593 992.5,-555 1123.5,-555 1123.5,-593"/>
<text text-anchor="middle" x="1058" y="-577.8" font-family="Times,serif" font-size="14.00">roo_display_lvgl</text>
<text text-anchor="middle" x="1058" y="-562.8" font-family="Times,serif" font-size="14.00">1.0.0</text>
</g>
<!-- roo_display_lvgl&#45;&gt;roo_display -->
<g id="edge13" class="edge">
<title>roo_display_lvgl&#45;&gt;roo_display</title>
<path fill="none" stroke="red" d="M1034.39,-554.83C1015.96,-541.61 989.18,-524.44 963,-515 913.48,-497.14 895.31,-507.94 840.17,-496.98"/>
<polygon fill="red" stroke="red" points="840.73,-493.52 830.22,-494.85 839.26,-500.37 840.73,-493.52"/>
<text text-anchor="middle" x="1040" y="-529" font-family="Times,serif" font-size="10.00" fill="red">3.0.3</text>
<text text-anchor="middle" x="1040" y="-518" font-family="Times,serif" font-size="10.00" fill="red">(latest: 3.0.4)</text>
</g>
<!-- roo_flags -->
<g id="node9" class="node">
<title>roo_flags</title>
<polygon fill="#b1dbab" stroke="black" points="477,-209 397,-209 397,-171 477,-171 477,-209"/>
<text text-anchor="middle" x="437" y="-193.8" font-family="Times,serif" font-size="14.00">roo_flags</text>
<text text-anchor="middle" x="437" y="-178.8" font-family="Times,serif" font-size="14.00">1.2.3</text>
</g>
<!-- roo_fonts_basic -->
<g id="node10" class="node">
<title>roo_fonts_basic</title>
<polygon fill="#b1dbab" stroke="red" points="706,-593 580,-593 580,-555 706,-555 706,-593"/>
<text text-anchor="middle" x="643" y="-577.8" font-family="Times,serif" font-size="14.00">roo_fonts_basic</text>
<text text-anchor="middle" x="643" y="-562.8" font-family="Times,serif" font-size="14.00">1.0.2</text>
</g>
<!-- roo_fonts_basic&#45;&gt;roo_display -->
<g id="edge14" class="edge">
<title>roo_fonts_basic&#45;&gt;roo_display</title>
<path fill="none" stroke="red" d="M665.07,-554.98C679.95,-543.12 700.23,-527.54 719,-515 725.48,-510.67 732.49,-506.31 739.39,-502.19"/>
<polygon fill="red" stroke="red" points="741.18,-505.2 748.03,-497.12 737.63,-499.16 741.18,-505.2"/>
<text text-anchor="middle" x="752" y="-529" font-family="Times,serif" font-size="10.00" fill="red">3.0.2</text>
<text text-anchor="middle" x="752" y="-518" font-family="Times,serif" font-size="10.00" fill="red">(latest: 3.0.4)</text>
</g>
<!-- roo_fonts_material -->
<g id="node11" class="node">
<title>roo_fonts_material</title>
<polygon fill="#b1dbab" stroke="red" points="873.5,-593 724.5,-593 724.5,-555 873.5,-555 873.5,-593"/>
<text text-anchor="middle" x="799" y="-577.8" font-family="Times,serif" font-size="14.00">roo_fonts_material</text>
<text text-anchor="middle" x="799" y="-562.8" font-family="Times,serif" font-size="14.00">1.0.0</text>
</g>
<!-- roo_fonts_material&#45;&gt;roo_display -->
<g id="edge15" class="edge">
<title>roo_fonts_material&#45;&gt;roo_display</title>
<path fill="none" stroke="red" d="M795.53,-554.88C792.94,-541.35 789.35,-522.62 786.39,-507.15"/>
<polygon fill="red" stroke="red" points="789.78,-506.23 784.46,-497.07 782.9,-507.55 789.78,-506.23"/>
<text text-anchor="middle" x="825" y="-529" font-family="Times,serif" font-size="10.00" fill="red">3.0.2</text>
<text text-anchor="middle" x="825" y="-518" font-family="Times,serif" font-size="10.00" fill="red">(latest: 3.0.4)</text>
</g>
<!-- roo_icons -->
<g id="node12" class="node">
<title>roo_icons</title>
<polygon fill="#b1dbab" stroke="red" points="974.5,-593 891.5,-593 891.5,-555 974.5,-555 974.5,-593"/>
<text text-anchor="middle" x="933" y="-577.8" font-family="Times,serif" font-size="14.00">roo_icons</text>
<text text-anchor="middle" x="933" y="-562.8" font-family="Times,serif" font-size="14.00">1.2.2</text>
</g>
<!-- roo_icons&#45;&gt;roo_display -->
<g id="edge16" class="edge">
<title>roo_icons&#45;&gt;roo_display</title>
<path fill="none" stroke="red" d="M913.87,-554.99C900.16,-542.7 880.84,-526.59 862,-515 854.11,-510.14 845.45,-505.58 836.81,-501.44"/>
<polygon fill="red" stroke="red" points="838.04,-498.15 827.5,-497.12 835.1,-504.5 838.04,-498.15"/>
<text text-anchor="middle" x="926" y="-529" font-family="Times,serif" font-size="10.00" fill="red">3.0.2</text>
<text text-anchor="middle" x="926" y="-518" font-family="Times,serif" font-size="10.00" fill="red">(latest: 3.0.4)</text>
</g>
<!-- roo_io&#45;&gt;roo_logging -->
<g id="edge17" class="edge">
<title>roo_io&#45;&gt;roo_logging</title>
<path fill="none" stroke="black" d="M536.28,-362.88C517.06,-348.18 489.78,-327.34 468.68,-311.21"/>
<polygon fill="black" stroke="black" points="470.71,-308.36 460.64,-305.07 466.46,-313.92 470.71,-308.36"/>
</g>
<!-- roo_locale -->
<g id="node14" class="node">
<title>roo_locale</title>
<polygon fill="#b1dbab" stroke="black" points="1230,-593 1142,-593 1142,-555 1230,-555 1230,-593"/>
<text text-anchor="middle" x="1186" y="-577.8" font-family="Times,serif" font-size="14.00">roo_locale</text>
<text text-anchor="middle" x="1186" y="-562.8" font-family="Times,serif" font-size="14.00">1.1.2</text>
</g>
<!-- roo_logging&#45;&gt;roo_backport -->
<g id="edge18" class="edge">
<title>roo_logging&#45;&gt;roo_backport</title>
<path fill="none" stroke="black" d="M470.55,-266.88C498.47,-251.79 538.39,-230.23 568.54,-213.94"/>
<polygon fill="black" stroke="black" points="570.42,-216.9 577.55,-209.07 567.09,-210.74 570.42,-216.9"/>
</g>
<!-- roo_logging&#45;&gt;roo_flags -->
<g id="edge19" class="edge">
<title>roo_logging&#45;&gt;roo_flags</title>
<path fill="none" stroke="black" d="M437,-266.88C437,-253.35 437,-234.62 437,-219.15"/>
<polygon fill="black" stroke="black" points="440.5,-219.07 437,-209.07 433.5,-219.07 440.5,-219.07"/>
</g>
<!-- roo_threads -->
<g id="node23" class="node">
<title>roo_threads</title>
<polygon fill="#b1dbab" stroke="black" points="352.5,-209 251.5,-209 251.5,-171 352.5,-171 352.5,-209"/>
<text text-anchor="middle" x="302" y="-193.8" font-family="Times,serif" font-size="14.00">roo_threads</text>
<text text-anchor="middle" x="302" y="-178.8" font-family="Times,serif" font-size="14.00">1.2.5</text>
</g>
<!-- roo_logging&#45;&gt;roo_threads -->
<g id="edge20" class="edge">
<title>roo_logging&#45;&gt;roo_threads</title>
<path fill="none" stroke="black" d="M419.27,-266.92C406.75,-254.75 389.2,-238.82 372,-227 365.35,-222.43 358.04,-218.05 350.73,-214.02"/>
<polygon fill="black" stroke="black" points="351.99,-210.73 341.52,-209.12 348.7,-216.91 351.99,-210.73"/>
</g>
<!-- roo_monitoring -->
<g id="node16" class="node">
<title>roo_monitoring</title>
<polygon fill="#b1dbab" stroke="red" points="672.5,-497 547.5,-497 547.5,-459 672.5,-459 672.5,-497"/>
<text text-anchor="middle" x="610" y="-481.8" font-family="Times,serif" font-size="14.00">roo_monitoring</text>
<text text-anchor="middle" x="610" y="-466.8" font-family="Times,serif" font-size="14.00">1.1.1</text>
</g>
<!-- roo_monitoring&#45;&gt;roo_collections -->
<g id="edge21" class="edge">
<title>roo_monitoring&#45;&gt;roo_collections</title>
<path fill="none" stroke="black" d="M672.73,-467.1C727.86,-458.13 800.09,-445.65 805,-441 813.01,-433.41 816.78,-422.1 818.45,-411.48"/>
<polygon fill="black" stroke="black" points="821.96,-411.55 819.5,-401.24 815,-410.83 821.96,-411.55"/>
</g>
<!-- roo_monitoring&#45;&gt;roo_io -->
<g id="edge22" class="edge">
<title>roo_monitoring&#45;&gt;roo_io</title>
<path fill="none" stroke="red" d="M576.36,-458.81C570.2,-453.87 564.59,-447.94 561,-441 556.35,-432 555.2,-421.12 555.51,-411.22"/>
<polygon fill="red" stroke="red" points="559.02,-411.25 556.34,-401 552.05,-410.69 559.02,-411.25"/>
<text text-anchor="middle" x="594" y="-433" font-family="Times,serif" font-size="10.00" fill="red">2.1.6</text>
<text text-anchor="middle" x="594" y="-422" font-family="Times,serif" font-size="10.00" fill="red">(latest: 2.1.7)</text>
</g>
<!-- roo_onewire -->
<g id="node17" class="node">
<title>roo_onewire</title>
<polygon fill="#b1dbab" stroke="red" points="104,-593 0,-593 0,-555 104,-555 104,-593"/>
<text text-anchor="middle" x="52" y="-577.8" font-family="Times,serif" font-size="14.00">roo_onewire</text>
<text text-anchor="middle" x="52" y="-562.8" font-family="Times,serif" font-size="14.00">2.0.9</text>
</g>
<!-- roo_onewire&#45;&gt;roo_quantity -->
<g id="edge24" class="edge">
<title>roo_onewire&#45;&gt;roo_quantity</title>
<path fill="none" stroke="black" d="M63.03,-554.77C71.22,-542.37 83.31,-526.24 97,-515 102.72,-510.31 109.15,-506.01 115.76,-502.16"/>
<polygon fill="black" stroke="black" points="117.75,-505.06 124.82,-497.17 114.37,-498.93 117.75,-505.06"/>
</g>
<!-- roo_onewire&#45;&gt;roo_scheduler -->
<g id="edge23" class="edge">
<title>roo_onewire&#45;&gt;roo_scheduler</title>
<path fill="none" stroke="black" d="M104.27,-555.76C151.68,-540.12 221.71,-517.03 272.56,-500.25"/>
<polygon fill="black" stroke="black" points="273.74,-503.55 282.14,-497.09 271.55,-496.9 273.74,-503.55"/>
</g>
<!-- roo_powersafefs -->
<g id="node18" class="node">
<title>roo_powersafefs</title>
<polygon fill="khaki" stroke="red" points="368.5,-305 235.5,-305 235.5,-267 368.5,-267 368.5,-305"/>
<text text-anchor="middle" x="302" y="-289.8" font-family="Times,serif" font-size="14.00">roo_powersafefs</text>
<text text-anchor="middle" x="302" y="-274.8" font-family="Times,serif" font-size="14.00">1.0.1</text>
</g>
<!-- roo_powersafefs&#45;&gt;roo_threads -->
<g id="edge25" class="edge">
<title>roo_powersafefs&#45;&gt;roo_threads</title>
<path fill="none" stroke="red" d="M302,-266.88C302,-253.35 302,-234.62 302,-219.15"/>
<polygon fill="red" stroke="red" points="305.5,-219.07 302,-209.07 298.5,-219.07 305.5,-219.07"/>
<text text-anchor="middle" x="335" y="-241" font-family="Times,serif" font-size="10.00" fill="red">1.2.3</text>
<text text-anchor="middle" x="335" y="-230" font-family="Times,serif" font-size="10.00" fill="red">(latest: 1.2.5)</text>
</g>
<!-- roo_prefs -->
<g id="node19" class="node">
<title>roo_prefs</title>
<polygon fill="#b1dbab" stroke="red" points="421.5,-593 338.5,-593 338.5,-555 421.5,-555 421.5,-593"/>
<text text-anchor="middle" x="380" y="-577.8" font-family="Times,serif" font-size="14.00">roo_prefs</text>
<text text-anchor="middle" x="380" y="-562.8" font-family="Times,serif" font-size="14.00">1.2.11</text>
</g>
<!-- roo_prefs&#45;&gt;roo_logging -->
<g id="edge26" class="edge">
<title>roo_prefs&#45;&gt;roo_logging</title>
<path fill="none" stroke="red" d="M386.6,-554.79C391.93,-539.52 399.28,-517.07 404,-497 419.12,-432.69 429.23,-355.64 433.94,-315.11"/>
<polygon fill="red" stroke="red" points="437.42,-315.49 435.08,-305.15 430.47,-314.69 437.42,-315.49"/>
<text text-anchor="middle" x="453" y="-433" font-family="Times,serif" font-size="10.00" fill="red">1.5.6</text>
<text text-anchor="middle" x="453" y="-422" font-family="Times,serif" font-size="10.00" fill="red">(latest: 1.5.7)</text>
</g>
<!-- roo_prefs&#45;&gt;roo_scheduler -->
<g id="edge27" class="edge">
<title>roo_prefs&#45;&gt;roo_scheduler</title>
<path fill="none" stroke="black" d="M371.71,-554.88C365.4,-541.09 356.62,-521.9 349.47,-506.26"/>
<polygon fill="black" stroke="black" points="352.61,-504.71 345.27,-497.07 346.24,-507.62 352.61,-504.71"/>
</g>
<!-- roo_quantity&#45;&gt;roo_logging -->
<g id="edge28" class="edge">
<title>roo_quantity&#45;&gt;roo_logging</title>
<path fill="none" stroke="red" d="M178.16,-458.64C190.86,-434.51 215.73,-391.82 246,-363 249.11,-360.04 308.06,-324.7 312,-323 339.52,-311.12 348.2,-313.31 377,-305 377.1,-304.97 377.2,-304.94 377.3,-304.91"/>
<polygon fill="red" stroke="red" points="378.31,-308.26 386.93,-302.11 376.35,-301.54 378.31,-308.26"/>
<text text-anchor="middle" x="279" y="-385" font-family="Times,serif" font-size="10.00" fill="red">1.5.5</text>
<text text-anchor="middle" x="279" y="-374" font-family="Times,serif" font-size="10.00" fill="red">(latest: 1.5.7)</text>
</g>
<!-- roo_scheduler&#45;&gt;roo_collections -->
<g id="edge29" class="edge">
<title>roo_scheduler&#45;&gt;roo_collections</title>
<path fill="none" stroke="black" d="M395.19,-465.08C424.19,-458.71 459.67,-450.28 491,-441 518.63,-432.82 524.01,-425.85 552,-419 617.3,-403.01 693.45,-393.63 747.67,-388.47"/>
<polygon fill="black" stroke="black" points="748.24,-391.94 757.87,-387.53 747.59,-384.97 748.24,-391.94"/>
</g>
<!-- roo_scheduler&#45;&gt;roo_threads -->
<g id="edge30" class="edge">
<title>roo_scheduler&#45;&gt;roo_threads</title>
<path fill="none" stroke="red" d="M332.8,-458.83C329.66,-447.05 324.75,-431.61 318,-419 303.07,-391.09 293.87,-387.64 274,-363 253,-336.95 237.34,-336.48 226,-305 220.28,-289.11 219.54,-282.6 226,-267 234.45,-246.59 251.34,-228.81 267.05,-215.59"/>
<polygon fill="red" stroke="red" points="269.51,-218.1 275.11,-209.1 265.12,-212.64 269.51,-218.1"/>
<text text-anchor="middle" x="290" y="-337" font-family="Times,serif" font-size="10.00" fill="red">1.2.3</text>
<text text-anchor="middle" x="290" y="-326" font-family="Times,serif" font-size="10.00" fill="red">(latest: 1.2.5)</text>
</g>
<!-- roo_testing -->
<g id="node22" class="node">
<title>roo_testing</title>
<polygon fill="#b1dbab" stroke="black" points="252.5,-38 155.5,-38 155.5,0 252.5,0 252.5,-38"/>
<text text-anchor="middle" x="204" y="-22.8" font-family="Times,serif" font-size="14.00">roo_testing</text>
<text text-anchor="middle" x="204" y="-7.8" font-family="Times,serif" font-size="14.00">1.3.5</text>
</g>
<!-- roo_time -->
<g id="node24" class="node">
<title>roo_time</title>
<polygon fill="#b1dbab" stroke="black" points="243.5,-113 164.5,-113 164.5,-75 243.5,-75 243.5,-113"/>
<text text-anchor="middle" x="204" y="-97.8" font-family="Times,serif" font-size="14.00">roo_time</text>
<text text-anchor="middle" x="204" y="-82.8" font-family="Times,serif" font-size="14.00">1.4.4</text>
</g>
<!-- roo_threads&#45;&gt;roo_time -->
<g id="edge31" class="edge">
<title>roo_threads&#45;&gt;roo_time</title>
<path fill="none" stroke="black" d="M290.49,-170.74C282.33,-158.64 270.61,-142.86 258,-131 253.58,-126.85 248.64,-122.85 243.58,-119.12"/>
<polygon fill="black" stroke="black" points="245.24,-116.01 235.04,-113.13 241.22,-121.74 245.24,-116.01"/>
</g>
<!-- roo_time&#45;&gt;roo_testing -->
<g id="edge32" class="edge">
<title>roo_time&#45;&gt;roo_testing</title>
<path fill="none" stroke="black" d="M204,-74.96C204,-66.88 204,-57.18 204,-48.18"/>
<polygon fill="black" stroke="black" points="207.5,-48.09 204,-38.09 200.5,-48.09 207.5,-48.09"/>
</g>
<!-- roo_time_ds3231 -->
<g id="node25" class="node">
<title>roo_time_ds3231</title>
<polygon fill="#b1dbab" stroke="red" points="233,-209 95,-209 95,-171 233,-171 233,-209"/>
<text text-anchor="middle" x="164" y="-193.8" font-family="Times,serif" font-size="14.00">roo_time_ds3231</text>
<text text-anchor="middle" x="164" y="-178.8" font-family="Times,serif" font-size="14.00">1.1.6</text>
</g>
<!-- roo_time_ds3231&#45;&gt;roo_time -->
<g id="edge33" class="edge">
<title>roo_time_ds3231&#45;&gt;roo_time</title>
<path fill="none" stroke="red" d="M171.71,-170.88C177.52,-157.22 185.59,-138.26 192.21,-122.71"/>
<polygon fill="red" stroke="red" points="195.62,-123.64 196.31,-113.07 189.18,-120.9 195.62,-123.64"/>
<text text-anchor="middle" x="221" y="-145" font-family="Times,serif" font-size="10.00" fill="red">1.4.3</text>
<text text-anchor="middle" x="221" y="-134" font-family="Times,serif" font-size="10.00" fill="red">(latest: 1.4.4)</text>
</g>
<!-- roo_transceivers&#45;&gt;roo_prefs -->
<g id="edge34" class="edge">
<title>roo_transceivers&#45;&gt;roo_prefs</title>
<path fill="none" stroke="red" d="M309.62,-650.79C311.48,-638.56 315.46,-622.61 324,-611 327.13,-606.75 330.93,-602.86 335.05,-599.35"/>
<polygon fill="red" stroke="red" points="337.47,-601.91 343.31,-593.07 333.23,-596.34 337.47,-601.91"/>
<text text-anchor="middle" x="360" y="-625" font-family="Times,serif" font-size="10.00" fill="red">1.2.10</text>
<text text-anchor="middle" x="360" y="-614" font-family="Times,serif" font-size="10.00" fill="red">(latest: 1.2.11)</text>
</g>
<!-- roo_transport -->
<g id="node27" class="node">
<title>roo_transport</title>
<polygon fill="#b1dbab" stroke="red" points="962,-497 848,-497 848,-459 962,-459 962,-497"/>
<text text-anchor="middle" x="905" y="-481.8" font-family="Times,serif" font-size="14.00">roo_transport</text>
<text text-anchor="middle" x="905" y="-466.8" font-family="Times,serif" font-size="14.00">1.1.2</text>
</g>
<!-- roo_transport&#45;&gt;roo_collections -->
<g id="edge35" class="edge">
<title>roo_transport&#45;&gt;roo_collections</title>
<path fill="none" stroke="black" d="M888.42,-458.88C875.33,-444.57 856.91,-424.44 842.34,-408.51"/>
<polygon fill="black" stroke="black" points="844.86,-406.08 835.53,-401.07 839.7,-410.81 844.86,-406.08"/>
</g>
<!-- roo_transport&#45;&gt;roo_io -->
<g id="edge36" class="edge">
<title>roo_transport&#45;&gt;roo_io</title>
<path fill="none" stroke="red" d="M847.87,-460.08C827.95,-454.12 805.47,-447.33 785,-441 754.25,-431.49 747.04,-427.51 716,-419 676.75,-408.23 631.35,-398 599.69,-391.22"/>
<polygon fill="red" stroke="red" points="600.02,-387.71 589.51,-389.06 598.56,-394.56 600.02,-387.71"/>
<text text-anchor="middle" x="818" y="-433" font-family="Times,serif" font-size="10.00" fill="red">2.1.5</text>
<text text-anchor="middle" x="818" y="-422" font-family="Times,serif" font-size="10.00" fill="red">(latest: 2.1.7)</text>
</g>
<!-- roo_wifi -->
<g id="node28" class="node">
<title>roo_wifi</title>
<polygon fill="khaki" stroke="red" points="466,-689 394,-689 394,-651 466,-651 466,-689"/>
<text text-anchor="middle" x="430" y="-673.8" font-family="Times,serif" font-size="14.00">roo_wifi</text>
<text text-anchor="middle" x="430" y="-658.8" font-family="Times,serif" font-size="14.00">1.1.4</text>
</g>
<!-- roo_wifi&#45;&gt;roo_prefs -->
<g id="edge37" class="edge">
<title>roo_wifi&#45;&gt;roo_prefs</title>
<path fill="none" stroke="red" d="M419.72,-650.74C416.57,-645.08 413.11,-638.8 410,-633 404.6,-622.93 398.8,-611.8 393.76,-602"/>
<polygon fill="red" stroke="red" points="396.87,-600.4 389.19,-593.1 390.64,-603.59 396.87,-600.4"/>
<text text-anchor="middle" x="446" y="-625" font-family="Times,serif" font-size="10.00" fill="red">1.2.9</text>
<text text-anchor="middle" x="446" y="-614" font-family="Times,serif" font-size="10.00" fill="red">(latest: 1.2.11)</text>
</g>
<!-- roo_windows&#45;&gt;roo_fonts_basic -->
<g id="edge38" class="edge">
<title>roo_windows&#45;&gt;roo_fonts_basic</title>
<path fill="none" stroke="black" d="M690.62,-650.88C681.89,-636.96 669.7,-617.53 659.83,-601.82"/>
<polygon fill="black" stroke="black" points="662.62,-599.68 654.34,-593.07 656.69,-603.4 662.62,-599.68"/>
</g>
<!-- roo_windows&#45;&gt;roo_fonts_material -->
<g id="edge39" class="edge">
<title>roo_windows&#45;&gt;roo_fonts_material</title>
<path fill="none" stroke="black" d="M720.7,-650.88C735.6,-636.44 756.62,-616.07 773.12,-600.07"/>
<polygon fill="black" stroke="black" points="775.61,-602.54 780.35,-593.07 770.74,-597.51 775.61,-602.54"/>
</g>
<!-- roo_windows&#45;&gt;roo_icons -->
<g id="edge41" class="edge">
<title>roo_windows&#45;&gt;roo_icons</title>
<path fill="none" stroke="black" d="M746.27,-650.99C784.95,-635.24 841.14,-612.38 881.76,-595.85"/>
<polygon fill="black" stroke="black" points="883.27,-599.01 891.22,-592 880.64,-592.53 883.27,-599.01"/>
</g>
<!-- roo_windows&#45;&gt;roo_locale -->
<g id="edge40" class="edge">
<title>roo_windows&#45;&gt;roo_locale</title>
<path fill="none" stroke="black" d="M756.66,-662.09C837.12,-651.33 992.12,-628.31 1131.87,-593.1"/>
<polygon fill="black" stroke="black" points="1133.08,-596.4 1141.91,-590.54 1131.35,-589.62 1133.08,-596.4"/>
</g>
<!-- roo_windows&#45;&gt;roo_scheduler -->
<g id="edge42" class="edge">
<title>roo_windows&#45;&gt;roo_scheduler</title>
<path fill="none" stroke="black" d="M647.45,-657.2C599.63,-645.4 529.31,-624.45 474,-593 451.54,-580.23 449.78,-571.62 430,-555 409.37,-537.67 385.87,-518.47 367.66,-503.71"/>
<polygon fill="black" stroke="black" points="369.67,-500.83 359.69,-497.26 365.26,-506.27 369.67,-500.83"/>
</g>
<!-- roo_windows_transceivers -->
<g id="node30" class="node">
<title>roo_windows_transceivers</title>
<polygon fill="khaki" stroke="red" points="483,-785 279,-785 279,-747 483,-747 483,-785"/>
<text text-anchor="middle" x="381" y="-769.8" font-family="Times,serif" font-size="14.00">roo_windows_transceivers</text>
<text text-anchor="middle" x="381" y="-754.8" font-family="Times,serif" font-size="14.00">1.0.0</text>
</g>
<!-- roo_windows_transceivers&#45;&gt;roo_transceivers -->
<g id="edge43" class="edge">
<title>roo_windows_transceivers&#45;&gt;roo_transceivers</title>
<path fill="none" stroke="black" d="M366.92,-746.88C356.02,-732.83 340.75,-713.17 328.49,-697.38"/>
<polygon fill="black" stroke="black" points="330.93,-694.82 322.03,-689.07 325.4,-699.11 330.93,-694.82"/>
</g>
<!-- roo_windows_transceivers&#45;&gt;roo_windows -->
<g id="edge44" class="edge">
<title>roo_windows_transceivers&#45;&gt;roo_windows</title>
<path fill="none" stroke="red" d="M460.45,-746.9C477.15,-741.97 494.42,-736.02 510,-729 526.41,-721.61 527.42,-714 544,-707 573.45,-694.58 607.88,-686.09 637.06,-680.49"/>
<polygon fill="red" stroke="red" points="637.95,-683.89 647.15,-678.63 636.68,-677.01 637.95,-683.89"/>
<text text-anchor="middle" x="577" y="-721" font-family="Times,serif" font-size="10.00" fill="red">1.4.2</text>
<text text-anchor="middle" x="577" y="-710" font-family="Times,serif" font-size="10.00" fill="red">(latest: 1.5.0)</text>
</g>
<!-- roo_windows_wifi -->
<g id="node31" class="node">
<title>roo_windows_wifi</title>
<polygon fill="khaki" stroke="red" points="642.5,-785 501.5,-785 501.5,-747 642.5,-747 642.5,-785"/>
<text text-anchor="middle" x="572" y="-769.8" font-family="Times,serif" font-size="14.00">roo_windows_wifi</text>
<text text-anchor="middle" x="572" y="-754.8" font-family="Times,serif" font-size="14.00">1.1.3</text>
</g>
<!-- roo_windows_wifi&#45;&gt;roo_wifi -->
<g id="edge45" class="edge">
<title>roo_windows_wifi&#45;&gt;roo_wifi</title>
<path fill="none" stroke="red" d="M501.15,-747.84C474.94,-740.91 450.46,-733.5 446,-729 438.22,-721.15 434.14,-709.89 432.03,-699.38"/>
<polygon fill="red" stroke="red" points="435.46,-698.63 430.51,-689.26 428.54,-699.67 435.46,-698.63"/>
<text text-anchor="middle" x="479" y="-721" font-family="Times,serif" font-size="10.00" fill="red">1.1.3</text>
<text text-anchor="middle" x="479" y="-710" font-family="Times,serif" font-size="10.00" fill="red">(latest: 1.1.4)</text>
</g>
<!-- roo_windows_wifi&#45;&gt;roo_windows -->
<g id="edge46" class="edge">
<title>roo_windows_wifi&#45;&gt;roo_windows</title>
<path fill="none" stroke="red" d="M591.82,-746.82C605.24,-734.9 623.63,-719.3 641,-707 647.07,-702.7 653.68,-698.42 660.23,-694.4"/>
<polygon fill="red" stroke="red" points="662.31,-697.23 669.08,-689.08 658.7,-691.23 662.31,-697.23"/>
<text text-anchor="middle" x="674" y="-721" font-family="Times,serif" font-size="10.00" fill="red">1.4.2</text>
<text text-anchor="middle" x="674" y="-710" font-family="Times,serif" font-size="10.00" fill="red">(latest: 1.5.0)</text>
</g>
</g>
</svg>
