<?xml version="1.0" encoding="UTF-8" standalone="no"?>
<!DOCTYPE svg PUBLIC "-//W3C//DTD SVG 1.1//EN"
 "http://www.w3.org/Graphics/SVG/1.1/DTD/svg11.dtd">
<!-- Generated by graphviz version 2.42.4 (0)
 -->
<!-- Title: dependencies Pages: 1 -->
<svg width="1238pt" height="814pt"
 viewBox="0.00 0.00 1238.00 814.00" xmlns="http://www.w3.org/2000/svg" xmlns:xlink="http://www.w3.org/1999/xlink">
<g id="graph0" class="graph" transform="scale(1 1) rotate(0) translate(4 810)">
<title>dependencies</title>
<polygon fill="white" stroke="transparent" points="-4,4 -4,-810 1234,-810 1234,4 -4,4"/>
<!-- roo_backport -->
<g id="node1" class="node">
<title>roo_backport</title>
<polygon fill="#b1dbab" stroke="black" points="666,-230 556,-230 556,-192 666,-192 666,-230"/>
<text text-anchor="middle" x="611" y="-214.8" font-family="Times,serif" font-size="14.00">roo_backport</text>
<text text-anchor="middle" x="611" y="-199.8" font-family="Times,serif" font-size="14.00">1.2.2</text>
</g>
<!-- roo_blink -->
<g id="node2" class="node">
<title>roo_blink</title>
<polygon fill="#b1dbab" stroke="red" points="320,-614 238,-614 238,-576 320,-576 320,-614"/>
<text text-anchor="middle" x="279" y="-598.8" font-family="Times,serif" font-size="14.00">roo_blink</text>
<text text-anchor="middle" x="279" y="-583.8" font-family="Times,serif" font-size="14.00">1.0.6</text>
</g>
<!-- roo_logging -->
<g id="node15" class="node">
<title>roo_logging</title>
<polygon fill="#b1dbab" stroke="red" points="487,-326 387,-326 387,-288 487,-288 487,-326"/>
<text text-anchor="middle" x="437" y="-310.8" font-family="Times,serif" font-size="14.00">roo_logging</text>
<text text-anchor="middle" x="437" y="-295.8" font-family="Times,serif" font-size="14.00">1.5.7</text>
</g>
<!-- roo_blink&#45;&gt;roo_logging -->
<g id="edge1" class="edge">
<title>roo_blink&#45;&gt;roo_logging</title>
<path fill="none" stroke="red" d="M272.7,-575.86C265.74,-552.7 257.09,-511.83 270,-480 284.36,-444.6 364,-371.52 407.91,-333.01"/>
<polygon fill="red" stroke="red" points="410.44,-335.45 415.67,-326.24 405.84,-330.18 410.44,-335.45"/>
<text text-anchor="middle" x="330" y="-454" font-family="Times,serif" font-size="10.00" fill="red">1.5.5</text>
<text text-anchor="middle" x="330" y="-443" font-family="Times,serif" font-size="10.00" fill="red">(latest: 1.5.7)</text>
</g>
<!-- roo_scheduler -->
<g id="node21" class="node">
<title>roo_scheduler</title>
<polygon fill="#b1dbab" stroke="red" points="395,-518 279,-518 279,-480 395,-480 395,-518"/>
<text text-anchor="middle" x="337" y="-502.8" font-family="Times,serif" font-size="14.00">roo_scheduler</text>
<text text-anchor="middle" x="337" y="-487.8" font-family="Times,serif" font-size="14.00">2.1.9</text>
</g>
<!-- roo_blink&#45;&gt;roo_scheduler -->
<g id="edge2" class="edge">
<title>roo_blink&#45;&gt;roo_scheduler</title>
<path fill="none" stroke="black" d="M290.79,-575.74C294.42,-570.08 298.4,-563.8 302,-558 308.32,-547.83 315.15,-536.57 321.08,-526.7"/>
<polygon fill="black" stroke="black" points="324.1,-528.48 326.24,-518.1 318.1,-524.88 324.1,-528.48"/>
</g>
<!-- roo_collections -->
<g id="node3" class="node">
<title>roo_collections</title>
<polygon fill="#b1dbab" stroke="black" points="880,-422 758,-422 758,-384 880,-384 880,-422"/>
<text text-anchor="middle" x="819" y="-406.8" font-family="Times,serif" font-size="14.00">roo_collections</text>
<text text-anchor="middle" x="819" y="-391.8" font-family="Times,serif" font-size="14.00">1.4.3</text>
</g>
<!-- roo_collections&#45;&gt;roo_backport -->
<g id="edge3" class="edge">
<title>roo_collections&#45;&gt;roo_backport</title>
<path fill="none" stroke="black" d="M799.06,-383.78C761.63,-349.59 680.82,-275.78 638.35,-236.98"/>
<polygon fill="black" stroke="black" points="640.63,-234.32 630.88,-230.16 635.91,-239.49 640.63,-234.32"/>
</g>
<!-- roo_comms -->
<g id="node4" class="node">
<title>roo_comms</title>
<polygon fill="#b1dbab" stroke="red" points="260.5,-806 163.5,-806 163.5,-768 260.5,-768 260.5,-806"/>
<text text-anchor="middle" x="212" y="-790.8" font-family="Times,serif" font-size="14.00">roo_comms</text>
<text text-anchor="middle" x="212" y="-775.8" font-family="Times,serif" font-size="14.00">1.1.4</text>
</g>
<!-- roo_comms&#45;&gt;roo_blink -->
<g id="edge4" class="edge">
<title>roo_comms&#45;&gt;roo_blink</title>
<path fill="none" stroke="black" d="M212.82,-767.65C214.36,-744.62 218.71,-704.25 231,-672 237.72,-654.37 248.8,-636.44 258.62,-622.43"/>
<polygon fill="black" stroke="black" points="261.51,-624.4 264.52,-614.25 255.84,-620.31 261.51,-624.4"/>
</g>
<!-- roo_control -->
<g id="node5" class="node">
<title>roo_control</title>
<polygon fill="#b1dbab" stroke="red" points="219.5,-614 122.5,-614 122.5,-576 219.5,-576 219.5,-614"/>
<text text-anchor="middle" x="171" y="-598.8" font-family="Times,serif" font-size="14.00">roo_control</text>
<text text-anchor="middle" x="171" y="-583.8" font-family="Times,serif" font-size="14.00">1.2.5</text>
</g>
<!-- roo_comms&#45;&gt;roo_control -->
<g id="edge5" class="edge">
<title>roo_comms&#45;&gt;roo_control</title>
<path fill="none" stroke="black" d="M204.17,-767.92C201.93,-762.26 199.66,-755.94 198,-750 185.99,-706.97 178.26,-655.61 174.27,-624.42"/>
<polygon fill="black" stroke="black" points="177.72,-623.77 173.02,-614.28 170.77,-624.63 177.72,-623.77"/>
</g>
<!-- roo_io -->
<g id="node13" class="node">
<title>roo_io</title>
<polygon fill="#b1dbab" stroke="red" points="589.5,-422 530.5,-422 530.5,-384 589.5,-384 589.5,-422"/>
<text text-anchor="middle" x="560" y="-406.8" font-family="Times,serif" font-size="14.00">roo_io</text>
<text text-anchor="middle" x="560" y="-391.8" font-family="Times,serif" font-size="14.00">2.2.0</text>
</g>
<!-- roo_comms&#45;&gt;roo_io -->
<g id="edge6" class="edge">
<title>roo_comms&#45;&gt;roo_io</title>
<path fill="none" stroke="red" d="M260.54,-770.1C263.72,-769.32 266.9,-768.61 270,-768 316.4,-758.94 447.8,-782.64 482,-750 538.43,-696.14 487.94,-652.12 505,-576 516.65,-524.02 537.07,-465.26 549.48,-431.63"/>
<polygon fill="red" stroke="red" points="552.84,-432.63 553.05,-422.03 546.28,-430.18 552.84,-432.63"/>
<text text-anchor="middle" x="538" y="-598" font-family="Times,serif" font-size="10.00" fill="red">2.1.5</text>
<text text-anchor="middle" x="538" y="-587" font-family="Times,serif" font-size="10.00" fill="red">(latest: 2.2.0)</text>
</g>
<!-- roo_transceivers -->
<g id="node26" class="node">
<title>roo_transceivers</title>
<polygon fill="#b1dbab" stroke="red" points="375.5,-710 240.5,-710 240.5,-672 375.5,-672 375.5,-710"/>
<text text-anchor="middle" x="308" y="-694.8" font-family="Times,serif" font-size="14.00">roo_transceivers</text>
<text text-anchor="middle" x="308" y="-679.8" font-family="Times,serif" font-size="14.00">1.1.6</text>
</g>
<!-- roo_comms&#45;&gt;roo_transceivers -->
<g id="edge7" class="edge">
<title>roo_comms&#45;&gt;roo_transceivers</title>
<path fill="none" stroke="red" d="M228.84,-767.91C239.8,-756.31 254.51,-741.03 268,-728 271.77,-724.36 275.8,-720.59 279.81,-716.92"/>
<polygon fill="red" stroke="red" points="282.34,-719.35 287.4,-710.04 277.64,-714.16 282.34,-719.35"/>
<text text-anchor="middle" x="301" y="-742" font-family="Times,serif" font-size="10.00" fill="red">1.1.5</text>
<text text-anchor="middle" x="301" y="-731" font-family="Times,serif" font-size="10.00" fill="red">(latest: 1.1.6)</text>
</g>
<!-- roo_quantity -->
<g id="node20" class="node">
<title>roo_quantity</title>
<polygon fill="#b1dbab" stroke="red" points="222.5,-518 115.5,-518 115.5,-480 222.5,-480 222.5,-518"/>
<text text-anchor="middle" x="169" y="-502.8" font-family="Times,serif" font-size="14.00">roo_quantity</text>
<text text-anchor="middle" x="169" y="-487.8" font-family="Times,serif" font-size="14.00">1.1.8</text>
</g>
<!-- roo_control&#45;&gt;roo_quantity -->
<g id="edge8" class="edge">
<title>roo_control&#45;&gt;roo_quantity</title>
<path fill="none" stroke="black" d="M170.61,-575.88C170.33,-562.35 169.93,-543.62 169.6,-528.15"/>
<polygon fill="black" stroke="black" points="173.1,-527.99 169.38,-518.07 166.1,-528.14 173.1,-527.99"/>
</g>
<!-- roo_control&#45;&gt;roo_scheduler -->
<g id="edge9" class="edge">
<title>roo_control&#45;&gt;roo_scheduler</title>
<path fill="none" stroke="black" d="M203.01,-575.88C229.53,-560.86 267.4,-539.41 296.12,-523.15"/>
<polygon fill="black" stroke="black" points="298.11,-526.04 305.09,-518.07 294.67,-519.95 298.11,-526.04"/>
</g>
<!-- roo_dashboard -->
<g id="node6" class="node">
<title>roo_dashboard</title>
<polygon fill="khaki" stroke="red" points="783,-806 661,-806 661,-768 783,-768 783,-806"/>
<text text-anchor="middle" x="722" y="-790.8" font-family="Times,serif" font-size="14.00">roo_dashboard</text>
<text text-anchor="middle" x="722" y="-775.8" font-family="Times,serif" font-size="14.00">1.0.1</text>
</g>
<!-- roo_windows -->
<g id="node29" class="node">
<title>roo_windows</title>
<polygon fill="khaki" stroke="red" points="756.5,-710 647.5,-710 647.5,-672 756.5,-672 756.5,-710"/>
<text text-anchor="middle" x="702" y="-694.8" font-family="Times,serif" font-size="14.00">roo_windows</text>
<text text-anchor="middle" x="702" y="-679.8" font-family="Times,serif" font-size="14.00">1.5.0</text>
</g>
<!-- roo_dashboard&#45;&gt;roo_windows -->
<g id="edge10" class="edge">
<title>roo_dashboard&#45;&gt;roo_windows</title>
<path fill="none" stroke="red" d="M718.14,-767.88C715.27,-754.35 711.28,-735.62 707.99,-720.15"/>
<polygon fill="red" stroke="red" points="711.35,-719.12 705.84,-710.07 704.5,-720.58 711.35,-719.12"/>
<text text-anchor="middle" x="747" y="-742" font-family="Times,serif" font-size="10.00" fill="red">1.4.1</text>
<text text-anchor="middle" x="747" y="-731" font-family="Times,serif" font-size="10.00" fill="red">(latest: 1.5.0)</text>
</g>
<!-- roo_display -->
<g id="node7" class="node">
<title>roo_display</title>
<polygon fill="khaki" stroke="red" points="830,-518 732,-518 732,-480 830,-480 830,-518"/>
<text text-anchor="middle" x="781" y="-502.8" font-family="Times,serif" font-size="14.00">roo_display</text>
<text text-anchor="middle" x="781" y="-487.8" font-family="Times,serif" font-size="14.00">3.0.4</text>
</g>
<!-- roo_display&#45;&gt;roo_collections -->
<g id="edge11" class="edge">
<title>roo_display&#45;&gt;roo_collections</title>
<path fill="none" stroke="black" d="M814.73,-479.85C820.89,-474.92 826.47,-468.97 830,-462 834.72,-452.67 833.93,-441.57 831.28,-431.59"/>
<polygon fill="black" stroke="black" points="834.6,-430.48 828.13,-422.09 827.95,-432.68 834.6,-430.48"/>
</g>
<!-- roo_display&#45;&gt;roo_io -->
<g id="edge12" class="edge">
<title>roo_display&#45;&gt;roo_io</title>
<path fill="none" stroke="red" d="M731.79,-490.46C706.21,-485.1 675.14,-476.25 650,-462 637.69,-455.02 638.45,-448.31 627,-440 618.26,-433.65 608.25,-427.68 598.69,-422.5"/>
<polygon fill="red" stroke="red" points="600.2,-419.33 589.72,-417.78 596.94,-425.53 600.2,-419.33"/>
<text text-anchor="middle" x="683" y="-454" font-family="Times,serif" font-size="10.00" fill="red">2.1.6</text>
<text text-anchor="middle" x="683" y="-443" font-family="Times,serif" font-size="10.00" fill="red">(latest: 2.2.0)</text>
</g>
<!-- roo_display_lvgl -->
<g id="node8" class="node">
<title>roo_display_lvgl</title>
<polygon fill="khaki" stroke="red" points="1123.5,-614 992.5,-614 992.5,-576 1123.5,-576 1123.5,-614"/>
<text text-anchor="middle" x="1058" y="-598.8" font-family="Times,serif" font-size="14.00">roo_display_lvgl</text>
<text text-anchor="middle" x="1058" y="-583.8" font-family="Times,serif" font-size="14.00">1.0.0</text>
</g>
<!-- roo_display_lvgl&#45;&gt;roo_display -->
<g id="edge13" class="edge">
<title>roo_display_lvgl&#45;&gt;roo_display</title>
<path fill="none" stroke="red" d="M1034.39,-575.83C1015.96,-562.61 989.18,-545.44 963,-536 913.48,-518.14 895.31,-528.94 840.17,-517.98"/>
<polygon fill="red" stroke="red" points="840.73,-514.52 830.22,-515.85 839.26,-521.37 840.73,-514.52"/>
<text text-anchor="middle" x="1040" y="-550" font-family="Times,serif" font-size="10.00" fill="red">3.0.3</text>
<text text-anchor="middle" x="1040" y="-539" font-family="Times,serif" font-size="10.00" fill="red">(latest: 3.0.4)</text>
</g>
<!-- roo_flags -->
<g id="node9" class="node">
<title>roo_flags</title>
<polygon fill="#b1dbab" stroke="black" points="477,-230 397,-230 397,-192 477,-192 477,-230"/>
<text text-anchor="middle" x="437" y="-214.8" font-family="Times,serif" font-size="14.00">roo_flags</text>
<text text-anchor="middle" x="437" y="-199.8" font-family="Times,serif" font-size="14.00">1.2.3</text>
</g>
<!-- roo_fonts_basic -->
<g id="node10" class="node">
<title>roo_fonts_basic</title>
<polygon fill="#b1dbab" stroke="red" points="706,-614 580,-614 580,-576 706,-576 706,-614"/>
<text text-anchor="middle" x="643" y="-598.8" font-family="Times,serif" font-size="14.00">roo_fonts_basic</text>
<text text-anchor="middle" x="643" y="-583.8" font-family="Times,serif" font-size="14.00">1.0.2</text>
</g>
<!-- roo_fonts_basic&#45;&gt;roo_display -->
<g id="edge14" class="edge">
<title>roo_fonts_basic&#45;&gt;roo_display</title>
<path fill="none" stroke="red" d="M665.07,-575.98C679.95,-564.12 700.23,-548.54 719,-536 725.48,-531.67 732.49,-527.31 739.39,-523.19"/>
<polygon fill="red" stroke="red" points="741.18,-526.2 748.03,-518.12 737.63,-520.16 741.18,-526.2"/>
<text text-anchor="middle" x="752" y="-550" font-family="Times,serif" font-size="10.00" fill="red">3.0.2</text>
<text text-anchor="middle" x="752" y="-539" font-family="Times,serif" font-size="10.00" fill="red">(latest: 3.0.4)</text>
</g>
<!-- roo_fonts_material -->
<g id="node11" class="node">
<title>roo_fonts_material</title>
<polygon fill="#b1dbab" stroke="red" points="873.5,-614 724.5,-614 724.5,-576 873.5,-576 873.5,-614"/>
<text text-anchor="middle" x="799" y="-598.8" font-family="Times,serif" font-size="14.00">roo_fonts_material</text>
<text text-anchor="middle" x="799" y="-583.8" font-family="Times,serif" font-size="14.00">1.0.0</text>
</g>
<!-- roo_fonts_material&#45;&gt;roo_display -->
<g id="edge15" class="edge">
<title>roo_fonts_material&#45;&gt;roo_display</title>
<path fill="none" stroke="red" d="M795.53,-575.88C792.94,-562.35 789.35,-543.62 786.39,-528.15"/>
<polygon fill="red" stroke="red" points="789.78,-527.23 784.46,-518.07 782.9,-528.55 789.78,-527.23"/>
<text text-anchor="middle" x="825" y="-550" font-family="Times,serif" font-size="10.00" fill="red">3.0.2</text>
<text text-anchor="middle" x="825" y="-539" font-family="Times,serif" font-size="10.00" fill="red">(latest: 3.0.4)</text>
</g>
<!-- roo_icons -->
<g id="node12" class="node">
<title>roo_icons</title>
<polygon fill="#b1dbab" stroke="red" points="974.5,-614 891.5,-614 891.5,-576 974.5,-576 974.5,-614"/>
<text text-anchor="middle" x="933" y="-598.8" font-family="Times,serif" font-size="14.00">roo_icons</text>
<text text-anchor="middle" x="933" y="-583.8" font-family="Times,serif" font-size="14.00">1.2.2</text>
</g>
<!-- roo_icons&#45;&gt;roo_display -->
<g id="edge16" class="edge">
<title>roo_icons&#45;&gt;roo_display</title>
<path fill="none" stroke="red" d="M913.87,-575.99C900.16,-563.7 880.84,-547.59 862,-536 854.11,-531.14 845.45,-526.58 836.81,-522.44"/>
<polygon fill="red" stroke="red" points="838.04,-519.15 827.5,-518.12 835.1,-525.5 838.04,-519.15"/>
<text text-anchor="middle" x="926" y="-550" font-family="Times,serif" font-size="10.00" fill="red">3.0.2</text>
<text text-anchor="middle" x="926" y="-539" font-family="Times,serif" font-size="10.00" fill="red">(latest: 3.0.4)</text>
</g>
<!-- roo_io&#45;&gt;roo_logging -->
<g id="edge17" class="edge">
<title>roo_io&#45;&gt;roo_logging</title>
<path fill="none" stroke="black" d="M536.28,-383.88C517.06,-369.18 489.78,-348.34 468.68,-332.21"/>
<polygon fill="black" stroke="black" points="470.71,-329.36 460.64,-326.07 466.46,-334.92 470.71,-329.36"/>
</g>
<!-- roo_locale -->
<g id="node14" class="node">
<title>roo_locale</title>
<polygon fill="#b1dbab" stroke="black" points="1230,-614 1142,-614 1142,-576 1230,-576 1230,-614"/>
<text text-anchor="middle" x="1186" y="-598.8" font-family="Times,serif" font-size="14.00">roo_locale</text>
<text text-anchor="middle" x="1186" y="-583.8" font-family="Times,serif" font-size="14.00">1.1.2</text>
</g>
<!-- roo_logging&#45;&gt;roo_backport -->
<g id="edge18" class="edge">
<title>roo_logging&#45;&gt;roo_backport</title>
<path fill="none" stroke="black" d="M470.55,-287.88C498.47,-272.79 538.39,-251.23 568.54,-234.94"/>
<polygon fill="black" stroke="black" points="570.42,-237.9 577.55,-230.07 567.09,-231.74 570.42,-237.9"/>
</g>
<!-- roo_logging&#45;&gt;roo_flags -->
<g id="edge19" class="edge">
<title>roo_logging&#45;&gt;roo_flags</title>
<path fill="none" stroke="black" d="M437,-287.88C437,-274.35 437,-255.62 437,-240.15"/>
<polygon fill="black" stroke="black" points="440.5,-240.07 437,-230.07 433.5,-240.07 440.5,-240.07"/>
</g>
<!-- roo_threads -->
<g id="node23" class="node">
<title>roo_threads</title>
<polygon fill="#b1dbab" stroke="red" points="352.5,-230 251.5,-230 251.5,-192 352.5,-192 352.5,-230"/>
<text text-anchor="middle" x="302" y="-214.8" font-family="Times,serif" font-size="14.00">roo_threads</text>
<text text-anchor="middle" x="302" y="-199.8" font-family="Times,serif" font-size="14.00">1.2.5</text>
</g>
<!-- roo_logging&#45;&gt;roo_threads -->
<g id="edge20" class="edge">
<title>roo_logging&#45;&gt;roo_threads</title>
<path fill="none" stroke="black" d="M419.27,-287.92C406.75,-275.75 389.2,-259.82 372,-248 365.35,-243.43 358.04,-239.05 350.73,-235.02"/>
<polygon fill="black" stroke="black" points="351.99,-231.73 341.52,-230.12 348.7,-237.91 351.99,-231.73"/>
</g>
<!-- roo_monitoring -->
<g id="node16" class="node">
<title>roo_monitoring</title>
<polygon fill="#b1dbab" stroke="red" points="672.5,-518 547.5,-518 547.5,-480 672.5,-480 672.5,-518"/>
<text text-anchor="middle" x="610" y="-502.8" font-family="Times,serif" font-size="14.00">roo_monitoring</text>
<text text-anchor="middle" x="610" y="-487.8" font-family="Times,serif" font-size="14.00">1.1.1</text>
</g>
<!-- roo_monitoring&#45;&gt;roo_collections -->
<g id="edge21" class="edge">
<title>roo_monitoring&#45;&gt;roo_collections</title>
<path fill="none" stroke="black" d="M672.73,-488.1C727.86,-479.13 800.09,-466.65 805,-462 813.01,-454.41 816.78,-443.1 818.45,-432.48"/>
<polygon fill="black" stroke="black" points="821.96,-432.55 819.5,-422.24 815,-431.83 821.96,-432.55"/>
</g>
<!-- roo_monitoring&#45;&gt;roo_io -->
<g id="edge22" class="edge">
<title>roo_monitoring&#45;&gt;roo_io</title>
<path fill="none" stroke="red" d="M576.36,-479.81C570.2,-474.87 564.59,-468.94 561,-462 556.35,-453 555.2,-442.12 555.51,-432.22"/>
<polygon fill="red" stroke="red" points="559.02,-432.25 556.34,-422 552.05,-431.69 559.02,-432.25"/>
<text text-anchor="middle" x="594" y="-454" font-family="Times,serif" font-size="10.00" fill="red">2.1.6</text>
<text text-anchor="middle" x="594" y="-443" font-family="Times,serif" font-size="10.00" fill="red">(latest: 2.2.0)</text>
</g>
<!-- roo_onewire -->
<g id="node17" class="node">
<title>roo_onewire</title>
<polygon fill="#b1dbab" stroke="red" points="104,-614 0,-614 0,-576 104,-576 104,-614"/>
<text text-anchor="middle" x="52" y="-598.8" font-family="Times,serif" font-size="14.00">roo_onewire</text>
<text text-anchor="middle" x="52" y="-583.8" font-family="Times,serif" font-size="14.00">2.0.9</text>
</g>
<!-- roo_onewire&#45;&gt;roo_quantity -->
<g id="edge24" class="edge">
<title>roo_onewire&#45;&gt;roo_quantity</title>
<path fill="none" stroke="black" d="M63.03,-575.77C71.22,-563.37 83.31,-547.24 97,-536 102.72,-531.31 109.15,-527.01 115.76,-523.16"/>
<polygon fill="black" stroke="black" points="117.75,-526.06 124.82,-518.17 114.37,-519.93 117.75,-526.06"/>
</g>
<!-- roo_onewire&#45;&gt;roo_scheduler -->
<g id="edge23" class="edge">
<title>roo_onewire&#45;&gt;roo_scheduler</title>
<path fill="none" stroke="black" d="M104.27,-576.76C151.68,-561.12 221.71,-538.03 272.56,-521.25"/>
<polygon fill="black" stroke="black" points="273.74,-524.55 282.14,-518.09 271.55,-517.9 273.74,-524.55"/>
</g>
<!-- roo_powersafefs -->
<g id="node18" class="node">
<title>roo_powersafefs</title>
<polygon fill="khaki" stroke="red" points="368.5,-326 235.5,-326 235.5,-288 368.5,-288 368.5,-326"/>
<text text-anchor="middle" x="302" y="-310.8" font-family="Times,serif" font-size="14.00">roo_powersafefs</text>
<text text-anchor="middle" x="302" y="-295.8" font-family="Times,serif" font-size="14.00">1.0.1</text>
</g>
<!-- roo_powersafefs&#45;&gt;roo_threads -->
<g id="edge25" class="edge">
<title>roo_powersafefs&#45;&gt;roo_threads</title>
<path fill="none" stroke="red" d="M302,-287.88C302,-274.35 302,-255.62 302,-240.15"/>
<polygon fill="red" stroke="red" points="305.5,-240.07 302,-230.07 298.5,-240.07 305.5,-240.07"/>
<text text-anchor="middle" x="335" y="-262" font-family="Times,serif" font-size="10.00" fill="red">1.2.3</text>
<text text-anchor="middle" x="335" y="-251" font-family="Times,serif" font-size="10.00" fill="red">(latest: 1.2.5)</text>
</g>
<!-- roo_prefs -->
<g id="node19" class="node">
<title>roo_prefs</title>
<polygon fill="#b1dbab" stroke="red" points="421.5,-614 338.5,-614 338.5,-576 421.5,-576 421.5,-614"/>
<text text-anchor="middle" x="380" y="-598.8" font-family="Times,serif" font-size="14.00">roo_prefs</text>
<text text-anchor="middle" x="380" y="-583.8" font-family="Times,serif" font-size="14.00">1.2.11</text>
</g>
<!-- roo_prefs&#45;&gt;roo_logging -->
<g id="edge26" class="edge">
<title>roo_prefs&#45;&gt;roo_logging</title>
<path fill="none" stroke="red" d="M386.6,-575.79C391.93,-560.52 399.28,-538.07 404,-518 419.12,-453.69 429.23,-376.64 433.94,-336.11"/>
<polygon fill="red" stroke="red" points="437.42,-336.49 435.08,-326.15 430.47,-335.69 437.42,-336.49"/>
<text text-anchor="middle" x="453" y="-454" font-family="Times,serif" font-size="10.00" fill="red">1.5.6</text>
<text text-anchor="middle" x="453" y="-443" font-family="Times,serif" font-size="10.00" fill="red">(latest: 1.5.7)</text>
</g>
<!-- roo_prefs&#45;&gt;roo_scheduler -->
<g id="edge27" class="edge">
<title>roo_prefs&#45;&gt;roo_scheduler</title>
<path fill="none" stroke="black" d="M371.71,-575.88C365.4,-562.09 356.62,-542.9 349.47,-527.26"/>
<polygon fill="black" stroke="black" points="352.61,-525.71 345.27,-518.07 346.24,-528.62 352.61,-525.71"/>
</g>
<!-- roo_quantity&#45;&gt;roo_logging -->
<g id="edge28" class="edge">
<title>roo_quantity&#45;&gt;roo_logging</title>
<path fill="none" stroke="red" d="M178.16,-479.64C190.86,-455.51 215.73,-412.82 246,-384 249.11,-381.04 308.06,-345.7 312,-344 339.52,-332.12 348.2,-334.31 377,-326 377.1,-325.97 377.2,-325.94 377.3,-325.91"/>
<polygon fill="red" stroke="red" points="378.31,-329.26 386.93,-323.11 376.35,-322.54 378.31,-329.26"/>
<text text-anchor="middle" x="279" y="-406" font-family="Times,serif" font-size="10.00" fill="red">1.5.5</text>
<text text-anchor="middle" x="279" y="-395" font-family="Times,serif" font-size="10.00" fill="red">(latest: 1.5.7)</text>
</g>
<!-- roo_scheduler&#45;&gt;roo_collections -->
<g id="edge29" class="edge">
<title>roo_scheduler&#45;&gt;roo_collections</title>
<path fill="none" stroke="black" d="M395.19,-486.08C424.19,-479.71 459.67,-471.28 491,-462 518.63,-453.82 524.01,-446.85 552,-440 617.3,-424.01 693.45,-414.63 747.67,-409.47"/>
<polygon fill="black" stroke="black" points="748.24,-412.94 757.87,-408.53 747.59,-405.97 748.24,-412.94"/>
</g>
<!-- roo_scheduler&#45;&gt;roo_threads -->
<g id="edge30" class="edge">
<title>roo_scheduler&#45;&gt;roo_threads</title>
<path fill="none" stroke="red" d="M332.8,-479.83C329.66,-468.05 324.75,-452.61 318,-440 303.07,-412.09 293.87,-408.64 274,-384 253,-357.95 237.34,-357.48 226,-326 220.28,-310.11 219.54,-303.6 226,-288 234.45,-267.59 251.34,-249.81 267.05,-236.59"/>
<polygon fill="red" stroke="red" points="269.51,-239.1 275.11,-230.1 265.12,-233.64 269.51,-239.1"/>
<text text-anchor="middle" x="290" y="-358" font-family="Times,serif" font-size="10.00" fill="red">1.2.3</text>
<text text-anchor="middle" x="290" y="-347" font-family="Times,serif" font-size="10.00" fill="red">(latest: 1.2.5)</text>
</g>
<!-- roo_testing -->
<g id="node22" class="node">
<title>roo_testing</title>
<polygon fill="#b1dbab" stroke="black" points="252.5,-38 155.5,-38 155.5,0 252.5,0 252.5,-38"/>
<text text-anchor="middle" x="204" y="-22.8" font-family="Times,serif" font-size="14.00">roo_testing</text>
<text text-anchor="middle" x="204" y="-7.8" font-family="Times,serif" font-size="14.00">1.3.6</text>
</g>
<!-- roo_time -->
<g id="node24" class="node">
<title>roo_time</title>
<polygon fill="#b1dbab" stroke="red" points="243.5,-134 164.5,-134 164.5,-96 243.5,-96 243.5,-134"/>
<text text-anchor="middle" x="204" y="-118.8" font-family="Times,serif" font-size="14.00">roo_time</text>
<text text-anchor="middle" x="204" y="-103.8" font-family="Times,serif" font-size="14.00">1.4.4</text>
</g>
<!-- roo_threads&#45;&gt;roo_time -->
<g id="edge31" class="edge">
<title>roo_threads&#45;&gt;roo_time</title>
<path fill="none" stroke="black" d="M290.49,-191.74C282.33,-179.64 270.61,-163.86 258,-152 253.58,-147.85 248.64,-143.85 243.58,-140.12"/>
<polygon fill="black" stroke="black" points="245.24,-137.01 235.04,-134.13 241.22,-142.74 245.24,-137.01"/>
</g>
<!-- roo_time&#45;&gt;roo_testing -->
<g id="edge32" class="edge">
<title>roo_time&#45;&gt;roo_testing</title>
<path fill="none" stroke="red" d="M204,-95.88C204,-82.35 204,-63.62 204,-48.15"/>
<polygon fill="red" stroke="red" points="207.5,-48.07 204,-38.07 200.5,-48.07 207.5,-48.07"/>
<text text-anchor="middle" x="237" y="-70" font-family="Times,serif" font-size="10.00" fill="red">1.3.5</text>
<text text-anchor="middle" x="237" y="-59" font-family="Times,serif" font-size="10.00" fill="red">(latest: 1.3.6)</text>
</g>
<!-- roo_time_ds3231 -->
<g id="node25" class="node">
<title>roo_time_ds3231</title>
<polygon fill="#b1dbab" stroke="red" points="233,-230 95,-230 95,-192 233,-192 233,-230"/>
<text text-anchor="middle" x="164" y="-214.8" font-family="Times,serif" font-size="14.00">roo_time_ds3231</text>
<text text-anchor="middle" x="164" y="-199.8" font-family="Times,serif" font-size="14.00">1.1.6</text>
</g>
<!-- roo_time_ds3231&#45;&gt;roo_time -->
<g id="edge33" class="edge">
<title>roo_time_ds3231&#45;&gt;roo_time</title>
<path fill="none" stroke="red" d="M171.71,-191.88C177.52,-178.22 185.59,-159.26 192.21,-143.71"/>
<polygon fill="red" stroke="red" points="195.62,-144.64 196.31,-134.07 189.18,-141.9 195.62,-144.64"/>
<text text-anchor="middle" x="221" y="-166" font-family="Times,serif" font-size="10.00" fill="red">1.4.3</text>
<text text-anchor="middle" x="221" y="-155" font-family="Times,serif" font-size="10.00" fill="red">(latest: 1.4.4)</text>
</g>
<!-- roo_transceivers&#45;&gt;roo_prefs -->
<g id="edge34" class="edge">
<title>roo_transceivers&#45;&gt;roo_prefs</title>
<path fill="none" stroke="red" d="M309.62,-671.79C311.48,-659.56 315.46,-643.61 324,-632 327.13,-627.75 330.93,-623.86 335.05,-620.35"/>
<polygon fill="red" stroke="red" points="337.47,-622.91 343.31,-614.07 333.23,-617.34 337.47,-622.91"/>
<text text-anchor="middle" x="360" y="-646" font-family="Times,serif" font-size="10.00" fill="red">1.2.10</text>
<text text-anchor="middle" x="360" y="-635" font-family="Times,serif" font-size="10.00" fill="red">(latest: 1.2.11)</text>
</g>
<!-- roo_transport -->
<g id="node27" class="node">
<title>roo_transport</title>
<polygon fill="#b1dbab" stroke="red" points="962,-518 848,-518 848,-480 962,-480 962,-518"/>
<text text-anchor="middle" x="905" y="-502.8" font-family="Times,serif" font-size="14.00">roo_transport</text>
<text text-anchor="middle" x="905" y="-487.8" font-family="Times,serif" font-size="14.00">1.1.2</text>
</g>
<!-- roo_transport&#45;&gt;roo_collections -->
<g id="edge35" class="edge">
<title>roo_transport&#45;&gt;roo_collections</title>
<path fill="none" stroke="black" d="M888.42,-479.88C875.33,-465.57 856.91,-445.44 842.34,-429.51"/>
<polygon fill="black" stroke="black" points="844.86,-427.08 835.53,-422.07 839.7,-431.81 844.86,-427.08"/>
</g>
<!-- roo_transport&#45;&gt;roo_io -->
<g id="edge36" class="edge">
<title>roo_transport&#45;&gt;roo_io</title>
<path fill="none" stroke="red" d="M847.87,-481.08C827.95,-475.12 805.47,-468.33 785,-462 754.25,-452.49 747.04,-448.51 716,-440 676.75,-429.23 631.35,-419 599.69,-412.22"/>
<polygon fill="red" stroke="red" points="600.02,-408.71 589.51,-410.06 598.56,-415.56 600.02,-408.71"/>
<text text-anchor="middle" x="818" y="-454" font-family="Times,serif" font-size="10.00" fill="red">2.1.5</text>
<text text-anchor="middle" x="818" y="-443" font-family="Times,serif" font-size="10.00" fill="red">(latest: 2.2.0)</text>
</g>
<!-- roo_wifi -->
<g id="node28" class="node">
<title>roo_wifi</title>
<polygon fill="khaki" stroke="red" points="466,-710 394,-710 394,-672 466,-672 466,-710"/>
<text text-anchor="middle" x="430" y="-694.8" font-family="Times,serif" font-size="14.00">roo_wifi</text>
<text text-anchor="middle" x="430" y="-679.8" font-family="Times,serif" font-size="14.00">1.1.4</text>
</g>
<!-- roo_wifi&#45;&gt;roo_prefs -->
<g id="edge37" class="edge">
<title>roo_wifi&#45;&gt;roo_prefs</title>
<path fill="none" stroke="red" d="M419.72,-671.74C416.57,-666.08 413.11,-659.8 410,-654 404.6,-643.93 398.8,-632.8 393.76,-623"/>
<polygon fill="red" stroke="red" points="396.87,-621.4 389.19,-614.1 390.64,-624.59 396.87,-621.4"/>
<text text-anchor="middle" x="446" y="-646" font-family="Times,serif" font-size="10.00" fill="red">1.2.9</text>
<text text-anchor="middle" x="446" y="-635" font-family="Times,serif" font-size="10.00" fill="red">(latest: 1.2.11)</text>
</g>
<!-- roo_windows&#45;&gt;roo_fonts_basic -->
<g id="edge38" class="edge">
<title>roo_windows&#45;&gt;roo_fonts_basic</title>
<path fill="none" stroke="black" d="M690.62,-671.88C681.89,-657.96 669.7,-638.53 659.83,-622.82"/>
<polygon fill="black" stroke="black" points="662.62,-620.68 654.34,-614.07 656.69,-624.4 662.62,-620.68"/>
</g>
<!-- roo_windows&#45;&gt;roo_fonts_material -->
<g id="edge39" class="edge">
<title>roo_windows&#45;&gt;roo_fonts_material</title>
<path fill="none" stroke="black" d="M720.7,-671.88C735.6,-657.44 756.62,-637.07 773.12,-621.07"/>
<polygon fill="black" stroke="black" points="775.61,-623.54 780.35,-614.07 770.74,-618.51 775.61,-623.54"/>
</g>
<!-- roo_windows&#45;&gt;roo_icons -->
<g id="edge41" class="edge">
<title>roo_windows&#45;&gt;roo_icons</title>
<path fill="none" stroke="black" d="M746.27,-671.99C784.95,-656.24 841.14,-633.38 881.76,-616.85"/>
<polygon fill="black" stroke="black" points="883.27,-620.01 891.22,-613 880.64,-613.53 883.27,-620.01"/>
</g>
<!-- roo_windows&#45;&gt;roo_locale -->
<g id="edge40" class="edge">
<title>roo_windows&#45;&gt;roo_locale</title>
<path fill="none" stroke="black" d="M756.66,-683.09C837.12,-672.33 992.12,-649.31 1131.87,-614.1"/>
<polygon fill="black" stroke="black" points="1133.08,-617.4 1141.91,-611.54 1131.35,-610.62 1133.08,-617.4"/>
</g>
<!-- roo_windows&#45;&gt;roo_scheduler -->
<g id="edge42" class="edge">
<title>roo_windows&#45;&gt;roo_scheduler</title>
<path fill="none" stroke="black" d="M647.45,-678.2C599.63,-666.4 529.31,-645.45 474,-614 451.54,-601.23 449.78,-592.62 430,-576 409.37,-558.67 385.87,-539.47 367.66,-524.71"/>
<polygon fill="black" stroke="black" points="369.67,-521.83 359.69,-518.26 365.26,-527.27 369.67,-521.83"/>
</g>
<!-- roo_windows_transceivers -->
<g id="node30" class="node">
<title>roo_windows_transceivers</title>
<polygon fill="plum" stroke="red" points="483,-806 279,-806 279,-768 483,-768 483,-806"/>
<text text-anchor="middle" x="381" y="-790.8" font-family="Times,serif" font-size="14.00">roo_windows_transceivers</text>
<text text-anchor="middle" x="381" y="-775.8" font-family="Times,serif" font-size="14.00">1.0.0</text>
</g>
<!-- roo_windows_transceivers&#45;&gt;roo_transceivers -->
<g id="edge43" class="edge">
<title>roo_windows_transceivers&#45;&gt;roo_transceivers</title>
<path fill="none" stroke="black" d="M366.92,-767.88C356.02,-753.83 340.75,-734.17 328.49,-718.38"/>
<polygon fill="black" stroke="black" points="330.93,-715.82 322.03,-710.07 325.4,-720.11 330.93,-715.82"/>
</g>
<!-- roo_windows_transceivers&#45;&gt;roo_windows -->
<g id="edge44" class="edge">
<title>roo_windows_transceivers&#45;&gt;roo_windows</title>
<path fill="none" stroke="red" d="M460.45,-767.9C477.15,-762.97 494.42,-757.02 510,-750 526.41,-742.61 527.42,-735 544,-728 573.45,-715.58 607.88,-707.09 637.06,-701.49"/>
<polygon fill="red" stroke="red" points="637.95,-704.89 647.15,-699.63 636.68,-698.01 637.95,-704.89"/>
<text text-anchor="middle" x="577" y="-742" font-family="Times,serif" font-size="10.00" fill="red">1.4.2</text>
<text text-anchor="middle" x="577" y="-731" font-family="Times,serif" font-size="10.00" fill="red">(latest: 1.5.0)</text>
</g>
<!-- roo_windows_wifi -->
<g id="node31" class="node">
<title>roo_windows_wifi</title>
<polygon fill="khaki" stroke="red" points="642.5,-806 501.5,-806 501.5,-768 642.5,-768 642.5,-806"/>
<text text-anchor="middle" x="572" y="-790.8" font-family="Times,serif" font-size="14.00">roo_windows_wifi</text>
<text text-anchor="middle" x="572" y="-775.8" font-family="Times,serif" font-size="14.00">1.1.3</text>
</g>
<!-- roo_windows_wifi&#45;&gt;roo_wifi -->
<g id="edge45" class="edge">
<title>roo_windows_wifi&#45;&gt;roo_wifi</title>
<path fill="none" stroke="red" d="M501.15,-768.84C474.94,-761.91 450.46,-754.5 446,-750 438.22,-742.15 434.14,-730.89 432.03,-720.38"/>
<polygon fill="red" stroke="red" points="435.46,-719.63 430.51,-710.26 428.54,-720.67 435.46,-719.63"/>
<text text-anchor="middle" x="479" y="-742" font-family="Times,serif" font-size="10.00" fill="red">1.1.3</text>
<text text-anchor="middle" x="479" y="-731" font-family="Times,serif" font-size="10.00" fill="red">(latest: 1.1.4)</text>
</g>
<!-- roo_windows_wifi&#45;&gt;roo_windows -->
<g id="edge46" class="edge">
<title>roo_windows_wifi&#45;&gt;roo_windows</title>
<path fill="none" stroke="red" d="M591.82,-767.82C605.24,-755.9 623.63,-740.3 641,-728 647.07,-723.7 653.68,-719.42 660.23,-715.4"/>
<polygon fill="red" stroke="red" points="662.31,-718.23 669.08,-710.08 658.7,-712.23 662.31,-718.23"/>
<text text-anchor="middle" x="674" y="-742" font-family="Times,serif" font-size="10.00" fill="red">1.4.2</text>
<text text-anchor="middle" x="674" y="-731" font-family="Times,serif" font-size="10.00" fill="red">(latest: 1.5.0)</text>
</g>
</g>
</svg>
