<?xml version="1.0" encoding="UTF-8" standalone="no"?>
<!DOCTYPE svg PUBLIC "-//W3C//DTD SVG 1.1//EN"
 "http://www.w3.org/Graphics/SVG/1.1/DTD/svg11.dtd">
<!-- Generated by graphviz version 2.42.4 (0)
 -->
<!-- Title: dependencies Pages: 1 -->
<svg width="1091pt" height="793pt"
 viewBox="0.00 0.00 1090.50 793.00" xmlns="http://www.w3.org/2000/svg" xmlns:xlink="http://www.w3.org/1999/xlink">
<g id="graph0" class="graph" transform="scale(1 1) rotate(0) translate(4 789)">
<title>dependencies</title>
<polygon fill="white" stroke="transparent" points="-4,4 -4,-789 1086.5,-789 1086.5,4 -4,4"/>
<!-- roo_backport -->
<g id="node1" class="node">
<title>roo_backport</title>
<polygon fill="#b1dbab" stroke="black" points="527,-230 417,-230 417,-192 527,-192 527,-230"/>
<text text-anchor="middle" x="472" y="-214.8" font-family="Times,serif" font-size="14.00">roo_backport</text>
<text text-anchor="middle" x="472" y="-199.8" font-family="Times,serif" font-size="14.00">1.2.2</text>
</g>
<!-- roo_blink -->
<g id="node2" class="node">
<title>roo_blink</title>
<polygon fill="#b1dbab" stroke="black" points="967,-593 885,-593 885,-555 967,-555 967,-593"/>
<text text-anchor="middle" x="926" y="-577.8" font-family="Times,serif" font-size="14.00">roo_blink</text>
<text text-anchor="middle" x="926" y="-562.8" font-family="Times,serif" font-size="14.00">1.0.6</text>
</g>
<!-- roo_logging -->
<g id="node13" class="node">
<title>roo_logging</title>
<polygon fill="#b1dbab" stroke="red" points="779,-326 679,-326 679,-288 779,-288 779,-326"/>
<text text-anchor="middle" x="729" y="-310.8" font-family="Times,serif" font-size="14.00">roo_logging</text>
<text text-anchor="middle" x="729" y="-295.8" font-family="Times,serif" font-size="14.00">1.5.5</text>
</g>
<!-- roo_blink&#45;&gt;roo_logging -->
<g id="edge1" class="edge">
<title>roo_blink&#45;&gt;roo_logging</title>
<path fill="none" stroke="black" d="M926.21,-554.61C925.76,-531.18 922.55,-490.03 907,-459 877.93,-400.99 815.59,-356.48 772.97,-331.27"/>
<polygon fill="black" stroke="black" points="774.61,-328.17 764.2,-326.19 771.1,-334.23 774.61,-328.17"/>
</g>
<!-- roo_scheduler -->
<g id="node19" class="node">
<title>roo_scheduler</title>
<polygon fill="#b1dbab" stroke="black" points="420,-497 304,-497 304,-459 420,-459 420,-497"/>
<text text-anchor="middle" x="362" y="-481.8" font-family="Times,serif" font-size="14.00">roo_scheduler</text>
<text text-anchor="middle" x="362" y="-466.8" font-family="Times,serif" font-size="14.00">2.1.9</text>
</g>
<!-- roo_blink&#45;&gt;roo_scheduler -->
<g id="edge2" class="edge">
<title>roo_blink&#45;&gt;roo_scheduler</title>
<path fill="none" stroke="black" d="M884.73,-557.4C881.8,-556.52 878.87,-555.71 876,-555 750.1,-523.98 715.64,-531.27 587,-515 517.32,-506.18 499.02,-510.02 430,-497 429.9,-496.98 429.8,-496.96 429.7,-496.94"/>
<polygon fill="black" stroke="black" points="430.61,-493.56 420.11,-494.97 429.2,-500.41 430.61,-493.56"/>
</g>
<!-- roo_collections -->
<g id="node3" class="node">
<title>roo_collections</title>
<polygon fill="#b1dbab" stroke="black" points="468,-401 346,-401 346,-363 468,-363 468,-401"/>
<text text-anchor="middle" x="407" y="-385.8" font-family="Times,serif" font-size="14.00">roo_collections</text>
<text text-anchor="middle" x="407" y="-370.8" font-family="Times,serif" font-size="14.00">1.4.3</text>
</g>
<!-- roo_collections&#45;&gt;roo_backport -->
<g id="edge3" class="edge">
<title>roo_collections&#45;&gt;roo_backport</title>
<path fill="none" stroke="black" d="M413.96,-362.91C425.31,-333.39 447.91,-274.63 461.31,-239.78"/>
<polygon fill="black" stroke="black" points="464.67,-240.8 465,-230.21 458.14,-238.29 464.67,-240.8"/>
</g>
<!-- roo_comms -->
<g id="node4" class="node">
<title>roo_comms</title>
<polygon fill="plum" stroke="red" points="776.5,-785 679.5,-785 679.5,-747 776.5,-747 776.5,-785"/>
<text text-anchor="middle" x="728" y="-769.8" font-family="Times,serif" font-size="14.00">roo_comms</text>
<text text-anchor="middle" x="728" y="-754.8" font-family="Times,serif" font-size="14.00">1.1.3</text>
</g>
<!-- roo_comms&#45;&gt;roo_blink -->
<g id="edge4" class="edge">
<title>roo_comms&#45;&gt;roo_blink</title>
<path fill="none" stroke="red" d="M746.99,-746.78C782.54,-712.66 859.22,-639.08 899.71,-600.22"/>
<polygon fill="red" stroke="red" points="902.28,-602.61 907.07,-593.16 897.43,-597.56 902.28,-602.61"/>
<text text-anchor="middle" x="879" y="-673" font-family="Times,serif" font-size="10.00" fill="red">1.0.4</text>
<text text-anchor="middle" x="879" y="-662" font-family="Times,serif" font-size="10.00" fill="red">(latest: 1.0.6)</text>
</g>
<!-- roo_control -->
<g id="node5" class="node">
<title>roo_control</title>
<polygon fill="#b1dbab" stroke="black" points="1082.5,-593 985.5,-593 985.5,-555 1082.5,-555 1082.5,-593"/>
<text text-anchor="middle" x="1034" y="-577.8" font-family="Times,serif" font-size="14.00">roo_control</text>
<text text-anchor="middle" x="1034" y="-562.8" font-family="Times,serif" font-size="14.00">1.2.5</text>
</g>
<!-- roo_comms&#45;&gt;roo_control -->
<g id="edge5" class="edge">
<title>roo_comms&#45;&gt;roo_control</title>
<path fill="none" stroke="red" d="M776.63,-750.67C815.62,-737.91 870.79,-716.93 914,-689 952.33,-664.23 989.28,-626.32 1011.82,-601.1"/>
<polygon fill="red" stroke="red" points="1014.62,-603.21 1018.61,-593.4 1009.37,-598.58 1014.62,-603.21"/>
<text text-anchor="middle" x="994" y="-673" font-family="Times,serif" font-size="10.00" fill="red">1.2.3</text>
<text text-anchor="middle" x="994" y="-662" font-family="Times,serif" font-size="10.00" fill="red">(latest: 1.2.5)</text>
</g>
<!-- roo_io -->
<g id="node11" class="node">
<title>roo_io</title>
<polygon fill="#b1dbab" stroke="red" points="689.5,-401 630.5,-401 630.5,-363 689.5,-363 689.5,-401"/>
<text text-anchor="middle" x="660" y="-385.8" font-family="Times,serif" font-size="14.00">roo_io</text>
<text text-anchor="middle" x="660" y="-370.8" font-family="Times,serif" font-size="14.00">2.1.5</text>
</g>
<!-- roo_comms&#45;&gt;roo_io -->
<g id="edge6" class="edge">
<title>roo_comms&#45;&gt;roo_io</title>
<path fill="none" stroke="red" d="M722.35,-746.91C712.96,-715.83 694.55,-650.11 688,-593 686.07,-576.22 685.6,-571.72 688,-555 694.16,-512.11 716.44,-500.79 705,-459 700.15,-441.29 689.99,-423.51 680.55,-409.61"/>
<polygon fill="red" stroke="red" points="683.14,-407.22 674.51,-401.08 677.43,-411.26 683.14,-407.22"/>
<text text-anchor="middle" x="721" y="-577" font-family="Times,serif" font-size="10.00" fill="red">2.1.1</text>
<text text-anchor="middle" x="721" y="-566" font-family="Times,serif" font-size="10.00" fill="red">(latest: 2.1.5)</text>
</g>
<!-- roo_transceivers -->
<g id="node24" class="node">
<title>roo_transceivers</title>
<polygon fill="plum" stroke="red" points="530.5,-689 395.5,-689 395.5,-651 530.5,-651 530.5,-689"/>
<text text-anchor="middle" x="463" y="-673.8" font-family="Times,serif" font-size="14.00">roo_transceivers</text>
<text text-anchor="middle" x="463" y="-658.8" font-family="Times,serif" font-size="14.00">1.1.4</text>
</g>
<!-- roo_comms&#45;&gt;roo_transceivers -->
<g id="edge7" class="edge">
<title>roo_comms&#45;&gt;roo_transceivers</title>
<path fill="none" stroke="black" d="M679.48,-747.52C647.31,-735.96 604.16,-720.5 566,-707 552.64,-702.27 538.28,-697.23 524.66,-692.47"/>
<polygon fill="black" stroke="black" points="525.49,-689.05 514.9,-689.05 523.18,-695.66 525.49,-689.05"/>
</g>
<!-- roo_quantity -->
<g id="node18" class="node">
<title>roo_quantity</title>
<polygon fill="#b1dbab" stroke="black" points="897.5,-497 790.5,-497 790.5,-459 897.5,-459 897.5,-497"/>
<text text-anchor="middle" x="844" y="-481.8" font-family="Times,serif" font-size="14.00">roo_quantity</text>
<text text-anchor="middle" x="844" y="-466.8" font-family="Times,serif" font-size="14.00">1.1.8</text>
</g>
<!-- roo_control&#45;&gt;roo_quantity -->
<g id="edge8" class="edge">
<title>roo_control&#45;&gt;roo_quantity</title>
<path fill="none" stroke="black" d="M997.37,-554.88C966.61,-539.66 922.54,-517.85 889.52,-501.52"/>
<polygon fill="black" stroke="black" points="891.04,-498.37 880.52,-497.07 887.93,-504.64 891.04,-498.37"/>
</g>
<!-- roo_control&#45;&gt;roo_scheduler -->
<g id="edge9" class="edge">
<title>roo_control&#45;&gt;roo_scheduler</title>
<path fill="none" stroke="black" d="M985.42,-557.32C982.24,-556.48 979.08,-555.7 976,-555 855.54,-527.72 823.82,-527.99 701,-515 580.96,-502.3 549.12,-516.53 430,-497 429.9,-496.98 429.8,-496.97 429.69,-496.95"/>
<polygon fill="black" stroke="black" points="430.55,-493.55 420.08,-495.16 429.27,-500.43 430.55,-493.55"/>
</g>
<!-- roo_dashboard -->
<g id="node6" class="node">
<title>roo_dashboard</title>
<polygon fill="plum" stroke="red" points="274,-785 152,-785 152,-747 274,-747 274,-785"/>
<text text-anchor="middle" x="213" y="-769.8" font-family="Times,serif" font-size="14.00">roo_dashboard</text>
<text text-anchor="middle" x="213" y="-754.8" font-family="Times,serif" font-size="14.00">1.0.1</text>
</g>
<!-- roo_windows -->
<g id="node27" class="node">
<title>roo_windows</title>
<polygon fill="khaki" stroke="red" points="366.5,-689 257.5,-689 257.5,-651 366.5,-651 366.5,-689"/>
<text text-anchor="middle" x="312" y="-673.8" font-family="Times,serif" font-size="14.00">roo_windows</text>
<text text-anchor="middle" x="312" y="-658.8" font-family="Times,serif" font-size="14.00">1.4.2</text>
</g>
<!-- roo_dashboard&#45;&gt;roo_windows -->
<g id="edge10" class="edge">
<title>roo_dashboard&#45;&gt;roo_windows</title>
<path fill="none" stroke="red" d="M228.27,-746.76C238.49,-734.96 252.49,-719.51 266,-707 270.09,-703.21 274.55,-699.39 279.02,-695.72"/>
<polygon fill="red" stroke="red" points="281.4,-698.3 287.03,-689.33 277.03,-692.83 281.4,-698.3"/>
<text text-anchor="middle" x="299" y="-721" font-family="Times,serif" font-size="10.00" fill="red">1.4.1</text>
<text text-anchor="middle" x="299" y="-710" font-family="Times,serif" font-size="10.00" fill="red">(latest: 1.4.2)</text>
</g>
<!-- roo_display -->
<g id="node7" class="node">
<title>roo_display</title>
<polygon fill="#b1dbab" stroke="black" points="286,-497 188,-497 188,-459 286,-459 286,-497"/>
<text text-anchor="middle" x="237" y="-481.8" font-family="Times,serif" font-size="14.00">roo_display</text>
<text text-anchor="middle" x="237" y="-466.8" font-family="Times,serif" font-size="14.00">3.0.2</text>
</g>
<!-- roo_display&#45;&gt;roo_collections -->
<g id="edge11" class="edge">
<title>roo_display&#45;&gt;roo_collections</title>
<path fill="none" stroke="black" d="M269.78,-458.88C297.06,-443.79 336.06,-422.23 365.51,-405.94"/>
<polygon fill="black" stroke="black" points="367.27,-408.97 374.32,-401.07 363.88,-402.84 367.27,-408.97"/>
</g>
<!-- roo_display&#45;&gt;roo_io -->
<g id="edge12" class="edge">
<title>roo_display&#45;&gt;roo_io</title>
<path fill="none" stroke="black" d="M286.18,-460.95C289.15,-460.22 292.1,-459.57 295,-459 387.81,-440.88 417.33,-471.01 507,-441 524.42,-435.17 525.29,-426.64 542,-419 567.11,-407.52 596.86,-398.48 620.2,-392.32"/>
<polygon fill="black" stroke="black" points="621.29,-395.66 630.11,-389.78 619.55,-388.87 621.29,-395.66"/>
</g>
<!-- roo_flags -->
<g id="node8" class="node">
<title>roo_flags</title>
<polygon fill="#b1dbab" stroke="black" points="768,-230 688,-230 688,-192 768,-192 768,-230"/>
<text text-anchor="middle" x="728" y="-214.8" font-family="Times,serif" font-size="14.00">roo_flags</text>
<text text-anchor="middle" x="728" y="-199.8" font-family="Times,serif" font-size="14.00">1.2.3</text>
</g>
<!-- roo_fonts_basic -->
<g id="node9" class="node">
<title>roo_fonts_basic</title>
<polygon fill="#b1dbab" stroke="red" points="126,-593 0,-593 0,-555 126,-555 126,-593"/>
<text text-anchor="middle" x="63" y="-577.8" font-family="Times,serif" font-size="14.00">roo_fonts_basic</text>
<text text-anchor="middle" x="63" y="-562.8" font-family="Times,serif" font-size="14.00">1.0.1</text>
</g>
<!-- roo_fonts_basic&#45;&gt;roo_display -->
<g id="edge13" class="edge">
<title>roo_fonts_basic&#45;&gt;roo_display</title>
<path fill="none" stroke="red" d="M96.55,-554.88C124.47,-539.79 164.39,-518.23 194.54,-501.94"/>
<polygon fill="red" stroke="red" points="196.42,-504.9 203.55,-497.07 193.09,-498.74 196.42,-504.9"/>
<text text-anchor="middle" x="199" y="-529" font-family="Times,serif" font-size="10.00" fill="red">3.0.1</text>
<text text-anchor="middle" x="199" y="-518" font-family="Times,serif" font-size="10.00" fill="red">(latest: 3.0.2)</text>
</g>
<!-- roo_icons -->
<g id="node10" class="node">
<title>roo_icons</title>
<polygon fill="#b1dbab" stroke="black" points="333.5,-593 250.5,-593 250.5,-555 333.5,-555 333.5,-593"/>
<text text-anchor="middle" x="292" y="-577.8" font-family="Times,serif" font-size="14.00">roo_icons</text>
<text text-anchor="middle" x="292" y="-562.8" font-family="Times,serif" font-size="14.00">1.2.2</text>
</g>
<!-- roo_icons&#45;&gt;roo_display -->
<g id="edge14" class="edge">
<title>roo_icons&#45;&gt;roo_display</title>
<path fill="none" stroke="black" d="M281.4,-554.88C273.25,-540.96 261.89,-521.53 252.69,-505.82"/>
<polygon fill="black" stroke="black" points="255.64,-503.93 247.57,-497.07 249.6,-507.47 255.64,-503.93"/>
</g>
<!-- roo_io&#45;&gt;roo_logging -->
<g id="edge15" class="edge">
<title>roo_io&#45;&gt;roo_logging</title>
<path fill="none" stroke="black" d="M677.06,-362.96C685.43,-354.09 695.67,-343.26 704.84,-333.56"/>
<polygon fill="black" stroke="black" points="707.58,-335.76 711.9,-326.09 702.49,-330.95 707.58,-335.76"/>
</g>
<!-- roo_locale -->
<g id="node12" class="node">
<title>roo_locale</title>
<polygon fill="#b1dbab" stroke="black" points="232,-593 144,-593 144,-555 232,-555 232,-593"/>
<text text-anchor="middle" x="188" y="-577.8" font-family="Times,serif" font-size="14.00">roo_locale</text>
<text text-anchor="middle" x="188" y="-562.8" font-family="Times,serif" font-size="14.00">1.1.2</text>
</g>
<!-- roo_logging&#45;&gt;roo_backport -->
<g id="edge16" class="edge">
<title>roo_logging&#45;&gt;roo_backport</title>
<path fill="none" stroke="black" d="M709.45,-287.83C692.01,-271.79 668.41,-250.55 663,-248 617.8,-226.67 601.07,-239.49 552,-230 547.27,-229.09 542.39,-228.1 537.49,-227.07"/>
<polygon fill="black" stroke="black" points="537.94,-223.59 527.43,-224.93 536.48,-230.44 537.94,-223.59"/>
</g>
<!-- roo_logging&#45;&gt;roo_flags -->
<g id="edge17" class="edge">
<title>roo_logging&#45;&gt;roo_flags</title>
<path fill="none" stroke="black" d="M728.81,-287.88C728.66,-274.35 728.46,-255.62 728.3,-240.15"/>
<polygon fill="black" stroke="black" points="731.8,-240.03 728.19,-230.07 724.8,-240.11 731.8,-240.03"/>
</g>
<!-- roo_threads -->
<g id="node21" class="node">
<title>roo_threads</title>
<polygon fill="#b1dbab" stroke="red" points="661.5,-230 560.5,-230 560.5,-192 661.5,-192 661.5,-230"/>
<text text-anchor="middle" x="611" y="-214.8" font-family="Times,serif" font-size="14.00">roo_threads</text>
<text text-anchor="middle" x="611" y="-199.8" font-family="Times,serif" font-size="14.00">1.2.3</text>
</g>
<!-- roo_logging&#45;&gt;roo_threads -->
<g id="edge18" class="edge">
<title>roo_logging&#45;&gt;roo_threads</title>
<path fill="none" stroke="black" d="M719.87,-287.86C712.84,-275.34 702.1,-259.03 689,-248 683.27,-243.18 676.79,-238.87 670.08,-235.04"/>
<polygon fill="black" stroke="black" points="671.3,-231.73 660.82,-230.14 668.02,-237.91 671.3,-231.73"/>
</g>
<!-- roo_monitoring -->
<g id="node14" class="node">
<title>roo_monitoring</title>
<polygon fill="plum" stroke="red" points="563.5,-497 438.5,-497 438.5,-459 563.5,-459 563.5,-497"/>
<text text-anchor="middle" x="501" y="-481.8" font-family="Times,serif" font-size="14.00">roo_monitoring</text>
<text text-anchor="middle" x="501" y="-466.8" font-family="Times,serif" font-size="14.00">1.0.0</text>
</g>
<!-- roo_monitoring&#45;&gt;roo_collections -->
<g id="edge19" class="edge">
<title>roo_monitoring&#45;&gt;roo_collections</title>
<path fill="none" stroke="red" d="M482.88,-458.88C468.57,-444.57 448.44,-424.44 432.51,-408.51"/>
<polygon fill="red" stroke="red" points="434.61,-405.66 425.07,-401.07 429.66,-410.61 434.61,-405.66"/>
<text text-anchor="middle" x="495" y="-433" font-family="Times,serif" font-size="10.00" fill="red">1.4.1</text>
<text text-anchor="middle" x="495" y="-422" font-family="Times,serif" font-size="10.00" fill="red">(latest: 1.4.3)</text>
</g>
<!-- roo_monitoring&#45;&gt;roo_io -->
<g id="edge20" class="edge">
<title>roo_monitoring&#45;&gt;roo_io</title>
<path fill="none" stroke="red" d="M521.96,-458.78C536.7,-446.54 557.24,-430.59 577,-419 590.76,-410.93 606.66,-403.59 620.85,-397.68"/>
<polygon fill="red" stroke="red" points="622.4,-400.83 630.34,-393.83 619.76,-394.35 622.4,-400.83"/>
<text text-anchor="middle" x="610" y="-433" font-family="Times,serif" font-size="10.00" fill="red">2.1.4</text>
<text text-anchor="middle" x="610" y="-422" font-family="Times,serif" font-size="10.00" fill="red">(latest: 2.1.5)</text>
</g>
<!-- roo_onewire -->
<g id="node15" class="node">
<title>roo_onewire</title>
<polygon fill="#b1dbab" stroke="black" points="867,-593 763,-593 763,-555 867,-555 867,-593"/>
<text text-anchor="middle" x="815" y="-577.8" font-family="Times,serif" font-size="14.00">roo_onewire</text>
<text text-anchor="middle" x="815" y="-562.8" font-family="Times,serif" font-size="14.00">2.0.9</text>
</g>
<!-- roo_onewire&#45;&gt;roo_quantity -->
<g id="edge22" class="edge">
<title>roo_onewire&#45;&gt;roo_quantity</title>
<path fill="none" stroke="black" d="M820.59,-554.88C824.8,-541.22 830.65,-522.26 835.45,-506.71"/>
<polygon fill="black" stroke="black" points="838.82,-507.66 838.43,-497.07 832.13,-505.59 838.82,-507.66"/>
</g>
<!-- roo_onewire&#45;&gt;roo_scheduler -->
<g id="edge21" class="edge">
<title>roo_onewire&#45;&gt;roo_scheduler</title>
<path fill="none" stroke="black" d="M762.89,-558.21C758.21,-557.06 753.53,-555.97 749,-555 697.97,-544.12 684.38,-546.05 633,-537 542.44,-521.06 519.6,-517.67 430,-497 429.9,-496.98 429.8,-496.95 429.7,-496.93"/>
<polygon fill="black" stroke="black" points="430.72,-493.57 420.18,-494.66 429.09,-500.38 430.72,-493.57"/>
</g>
<!-- roo_powersafefs -->
<g id="node16" class="node">
<title>roo_powersafefs</title>
<polygon fill="plum" stroke="red" points="660.5,-326 527.5,-326 527.5,-288 660.5,-288 660.5,-326"/>
<text text-anchor="middle" x="594" y="-310.8" font-family="Times,serif" font-size="14.00">roo_powersafefs</text>
<text text-anchor="middle" x="594" y="-295.8" font-family="Times,serif" font-size="14.00">1.0.0</text>
</g>
<!-- roo_powersafefs&#45;&gt;roo_threads -->
<g id="edge23" class="edge">
<title>roo_powersafefs&#45;&gt;roo_threads</title>
<path fill="none" stroke="red" d="M597.28,-287.88C599.72,-274.35 603.11,-255.62 605.91,-240.15"/>
<polygon fill="red" stroke="red" points="609.4,-240.53 607.73,-230.07 602.51,-239.29 609.4,-240.53"/>
<text text-anchor="middle" x="637" y="-262" font-family="Times,serif" font-size="10.00" fill="red">1.2.1</text>
<text text-anchor="middle" x="637" y="-251" font-family="Times,serif" font-size="10.00" fill="red">(latest: 1.2.3)</text>
</g>
<!-- roo_prefs -->
<g id="node17" class="node">
<title>roo_prefs</title>
<polygon fill="#b1dbab" stroke="black" points="549.5,-593 466.5,-593 466.5,-555 549.5,-555 549.5,-593"/>
<text text-anchor="middle" x="508" y="-577.8" font-family="Times,serif" font-size="14.00">roo_prefs</text>
<text text-anchor="middle" x="508" y="-562.8" font-family="Times,serif" font-size="14.00">1.2.9</text>
</g>
<!-- roo_prefs&#45;&gt;roo_logging -->
<g id="edge24" class="edge">
<title>roo_prefs&#45;&gt;roo_logging</title>
<path fill="none" stroke="black" d="M549.86,-565.32C592.85,-555.64 659.7,-535.4 705,-497 727.03,-478.32 730.4,-468.87 738,-441 747.62,-405.72 741.94,-363.32 736.17,-336.03"/>
<polygon fill="black" stroke="black" points="739.53,-334.99 733.91,-326.01 732.7,-336.54 739.53,-334.99"/>
</g>
<!-- roo_prefs&#45;&gt;roo_scheduler -->
<g id="edge25" class="edge">
<title>roo_prefs&#45;&gt;roo_scheduler</title>
<path fill="none" stroke="black" d="M479.85,-554.88C456.72,-539.99 423.79,-518.78 398.62,-502.57"/>
<polygon fill="black" stroke="black" points="400.37,-499.54 390.06,-497.07 396.58,-505.42 400.37,-499.54"/>
</g>
<!-- roo_quantity&#45;&gt;roo_logging -->
<g id="edge26" class="edge">
<title>roo_quantity&#45;&gt;roo_logging</title>
<path fill="none" stroke="black" d="M837.65,-458.73C827.6,-431.61 806.06,-380.05 776,-344 772.71,-340.05 768.92,-336.28 764.94,-332.75"/>
<polygon fill="black" stroke="black" points="767.08,-329.99 757.14,-326.31 762.62,-335.38 767.08,-329.99"/>
</g>
<!-- roo_scheduler&#45;&gt;roo_collections -->
<g id="edge27" class="edge">
<title>roo_scheduler&#45;&gt;roo_collections</title>
<path fill="none" stroke="black" d="M370.26,-458.91C375.54,-447.44 382.58,-432.3 389,-419 390.35,-416.2 391.78,-413.28 393.22,-410.37"/>
<polygon fill="black" stroke="black" points="396.42,-411.78 397.74,-401.27 390.16,-408.66 396.42,-411.78"/>
</g>
<!-- roo_scheduler&#45;&gt;roo_threads -->
<g id="edge28" class="edge">
<title>roo_scheduler&#45;&gt;roo_threads</title>
<path fill="none" stroke="black" d="M420.21,-460.89C449.61,-452.53 479.61,-443.53 482,-441 530.11,-390.21 481.91,-347.32 519,-288 532.14,-266.98 553.1,-249 571.7,-235.82"/>
<polygon fill="black" stroke="black" points="573.77,-238.64 580.04,-230.11 569.81,-232.87 573.77,-238.64"/>
</g>
<!-- roo_testing -->
<g id="node20" class="node">
<title>roo_testing</title>
<polygon fill="#b1dbab" stroke="black" points="781.5,-38 684.5,-38 684.5,0 781.5,0 781.5,-38"/>
<text text-anchor="middle" x="733" y="-22.8" font-family="Times,serif" font-size="14.00">roo_testing</text>
<text text-anchor="middle" x="733" y="-7.8" font-family="Times,serif" font-size="14.00">1.3.4</text>
</g>
<!-- roo_time -->
<g id="node22" class="node">
<title>roo_time</title>
<polygon fill="#b1dbab" stroke="red" points="772.5,-134 693.5,-134 693.5,-96 772.5,-96 772.5,-134"/>
<text text-anchor="middle" x="733" y="-118.8" font-family="Times,serif" font-size="14.00">roo_time</text>
<text text-anchor="middle" x="733" y="-103.8" font-family="Times,serif" font-size="14.00">1.4.3</text>
</g>
<!-- roo_threads&#45;&gt;roo_time -->
<g id="edge29" class="edge">
<title>roo_threads&#45;&gt;roo_time</title>
<path fill="none" stroke="black" d="M634.52,-191.88C653.59,-177.18 680.65,-156.34 701.57,-140.21"/>
<polygon fill="black" stroke="black" points="703.76,-142.94 709.55,-134.07 699.49,-137.4 703.76,-142.94"/>
</g>
<!-- roo_time&#45;&gt;roo_testing -->
<g id="edge30" class="edge">
<title>roo_time&#45;&gt;roo_testing</title>
<path fill="none" stroke="red" d="M733,-95.88C733,-82.35 733,-63.62 733,-48.15"/>
<polygon fill="red" stroke="red" points="736.5,-48.07 733,-38.07 729.5,-48.07 736.5,-48.07"/>
<text text-anchor="middle" x="766" y="-70" font-family="Times,serif" font-size="10.00" fill="red">1.3.2</text>
<text text-anchor="middle" x="766" y="-59" font-family="Times,serif" font-size="10.00" fill="red">(latest: 1.3.4)</text>
</g>
<!-- roo_time_ds3231 -->
<g id="node23" class="node">
<title>roo_time_ds3231</title>
<polygon fill="plum" stroke="red" points="924,-230 786,-230 786,-192 924,-192 924,-230"/>
<text text-anchor="middle" x="855" y="-214.8" font-family="Times,serif" font-size="14.00">roo_time_ds3231</text>
<text text-anchor="middle" x="855" y="-199.8" font-family="Times,serif" font-size="14.00">1.1.5</text>
</g>
<!-- roo_time_ds3231&#45;&gt;roo_time -->
<g id="edge31" class="edge">
<title>roo_time_ds3231&#45;&gt;roo_time</title>
<path fill="none" stroke="red" d="M831.48,-191.88C812.41,-177.18 785.35,-156.34 764.43,-140.21"/>
<polygon fill="red" stroke="red" points="766.51,-137.4 756.45,-134.07 762.24,-142.94 766.51,-137.4"/>
<text text-anchor="middle" x="837" y="-166" font-family="Times,serif" font-size="10.00" fill="red">1.4.1</text>
<text text-anchor="middle" x="837" y="-155" font-family="Times,serif" font-size="10.00" fill="red">(latest: 1.4.3)</text>
</g>
<!-- roo_transceivers&#45;&gt;roo_prefs -->
<g id="edge32" class="edge">
<title>roo_transceivers&#45;&gt;roo_prefs</title>
<path fill="none" stroke="red" d="M470.31,-650.76C475.07,-639.23 481.56,-624.09 488,-611 489.45,-608.05 491.03,-605 492.64,-601.97"/>
<polygon fill="red" stroke="red" points="495.75,-603.58 497.47,-593.13 489.6,-600.23 495.75,-603.58"/>
<text text-anchor="middle" x="521" y="-625" font-family="Times,serif" font-size="10.00" fill="red">1.2.7</text>
<text text-anchor="middle" x="521" y="-614" font-family="Times,serif" font-size="10.00" fill="red">(latest: 1.2.9)</text>
</g>
<!-- roo_transport -->
<g id="node25" class="node">
<title>roo_transport</title>
<polygon fill="#b1dbab" stroke="black" points="696,-497 582,-497 582,-459 696,-459 696,-497"/>
<text text-anchor="middle" x="639" y="-481.8" font-family="Times,serif" font-size="14.00">roo_transport</text>
<text text-anchor="middle" x="639" y="-466.8" font-family="Times,serif" font-size="14.00">1.1.2</text>
</g>
<!-- roo_transport&#45;&gt;roo_collections -->
<g id="edge33" class="edge">
<title>roo_transport&#45;&gt;roo_collections</title>
<path fill="none" stroke="black" d="M638.21,-458.87C636.64,-445.86 632.35,-428.92 621,-419 600.05,-400.69 532.01,-391.52 478.21,-387.04"/>
<polygon fill="black" stroke="black" points="478.25,-383.54 468.01,-386.24 477.7,-390.51 478.25,-383.54"/>
</g>
<!-- roo_transport&#45;&gt;roo_io -->
<g id="edge34" class="edge">
<title>roo_transport&#45;&gt;roo_io</title>
<path fill="none" stroke="black" d="M643.05,-458.88C646.07,-445.35 650.26,-426.62 653.71,-411.15"/>
<polygon fill="black" stroke="black" points="657.2,-411.59 655.96,-401.07 650.37,-410.06 657.2,-411.59"/>
</g>
<!-- roo_wifi -->
<g id="node26" class="node">
<title>roo_wifi</title>
<polygon fill="plum" stroke="red" points="621,-689 549,-689 549,-651 621,-651 621,-689"/>
<text text-anchor="middle" x="585" y="-673.8" font-family="Times,serif" font-size="14.00">roo_wifi</text>
<text text-anchor="middle" x="585" y="-658.8" font-family="Times,serif" font-size="14.00">1.1.3</text>
</g>
<!-- roo_wifi&#45;&gt;roo_prefs -->
<g id="edge35" class="edge">
<title>roo_wifi&#45;&gt;roo_prefs</title>
<path fill="none" stroke="red" d="M577.65,-650.82C572.23,-638.74 564.06,-622.98 554,-611 550.66,-607.03 546.82,-603.2 542.81,-599.63"/>
<polygon fill="red" stroke="red" points="544.89,-596.81 534.97,-593.08 540.4,-602.18 544.89,-596.81"/>
<text text-anchor="middle" x="601" y="-625" font-family="Times,serif" font-size="10.00" fill="red">1.2.7</text>
<text text-anchor="middle" x="601" y="-614" font-family="Times,serif" font-size="10.00" fill="red">(latest: 1.2.9)</text>
</g>
<!-- roo_windows&#45;&gt;roo_icons -->
<g id="edge37" class="edge">
<title>roo_windows&#45;&gt;roo_icons</title>
<path fill="none" stroke="red" d="M298.89,-650.78C295.66,-645.32 292.66,-639.15 291,-633 288.44,-623.53 287.97,-612.88 288.38,-603.31"/>
<polygon fill="red" stroke="red" points="291.88,-603.32 289.14,-593.09 284.9,-602.8 291.88,-603.32"/>
<text text-anchor="middle" x="324" y="-625" font-family="Times,serif" font-size="10.00" fill="red">1.2.1</text>
<text text-anchor="middle" x="324" y="-614" font-family="Times,serif" font-size="10.00" fill="red">(latest: 1.2.2)</text>
</g>
<!-- roo_windows&#45;&gt;roo_locale -->
<g id="edge36" class="edge">
<title>roo_windows&#45;&gt;roo_locale</title>
<path fill="none" stroke="red" d="M257.21,-655.14C243.65,-649.83 229.89,-642.64 219,-633 209.77,-624.83 202.81,-613.24 197.85,-602.56"/>
<polygon fill="red" stroke="red" points="200.98,-600.97 193.85,-593.14 194.54,-603.71 200.98,-600.97"/>
<text text-anchor="middle" x="252" y="-625" font-family="Times,serif" font-size="10.00" fill="red">1.1.1</text>
<text text-anchor="middle" x="252" y="-614" font-family="Times,serif" font-size="10.00" fill="red">(latest: 1.1.2)</text>
</g>
<!-- roo_windows&#45;&gt;roo_scheduler -->
<g id="edge38" class="edge">
<title>roo_windows&#45;&gt;roo_scheduler</title>
<path fill="none" stroke="red" d="M342.41,-650.72C348.25,-645.73 353.6,-639.8 357,-633 377.02,-593.03 373.03,-539.62 367.85,-507.35"/>
<polygon fill="red" stroke="red" points="371.26,-506.51 366.08,-497.27 364.36,-507.72 371.26,-506.51"/>
<text text-anchor="middle" x="405" y="-577" font-family="Times,serif" font-size="10.00" fill="red">2.1.6</text>
<text text-anchor="middle" x="405" y="-566" font-family="Times,serif" font-size="10.00" fill="red">(latest: 2.1.9)</text>
</g>
<!-- roo_windows_transceivers -->
<g id="node28" class="node">
<title>roo_windows_transceivers</title>
<polygon fill="plum" stroke="red" points="496,-785 292,-785 292,-747 496,-747 496,-785"/>
<text text-anchor="middle" x="394" y="-769.8" font-family="Times,serif" font-size="14.00">roo_windows_transceivers</text>
<text text-anchor="middle" x="394" y="-754.8" font-family="Times,serif" font-size="14.00">1.0.0</text>
</g>
<!-- roo_windows_transceivers&#45;&gt;roo_transceivers -->
<g id="edge39" class="edge">
<title>roo_windows_transceivers&#45;&gt;roo_transceivers</title>
<path fill="none" stroke="red" d="M407.3,-746.88C417.61,-732.83 432.05,-713.17 443.63,-697.38"/>
<polygon fill="red" stroke="red" points="446.64,-699.2 449.74,-689.07 441,-695.06 446.64,-699.2"/>
<text text-anchor="middle" x="467" y="-721" font-family="Times,serif" font-size="10.00" fill="red">1.1.3</text>
<text text-anchor="middle" x="467" y="-710" font-family="Times,serif" font-size="10.00" fill="red">(latest: 1.1.4)</text>
</g>
<!-- roo_windows_transceivers&#45;&gt;roo_windows -->
<g id="edge40" class="edge">
<title>roo_windows_transceivers&#45;&gt;roo_windows</title>
<path fill="none" stroke="red" d="M370.78,-746.95C364.38,-741.5 357.65,-735.28 352,-729 343.39,-719.44 335.1,-707.94 328.33,-697.71"/>
<polygon fill="red" stroke="red" points="331.15,-695.64 322.79,-689.14 325.27,-699.44 331.15,-695.64"/>
<text text-anchor="middle" x="385" y="-721" font-family="Times,serif" font-size="10.00" fill="red">1.4.1</text>
<text text-anchor="middle" x="385" y="-710" font-family="Times,serif" font-size="10.00" fill="red">(latest: 1.4.2)</text>
</g>
<!-- roo_windows_wifi -->
<g id="node29" class="node">
<title>roo_windows_wifi</title>
<polygon fill="plum" stroke="red" points="655.5,-785 514.5,-785 514.5,-747 655.5,-747 655.5,-785"/>
<text text-anchor="middle" x="585" y="-769.8" font-family="Times,serif" font-size="14.00">roo_windows_wifi</text>
<text text-anchor="middle" x="585" y="-754.8" font-family="Times,serif" font-size="14.00">1.1.3</text>
</g>
<!-- roo_windows_wifi&#45;&gt;roo_wifi -->
<g id="edge41" class="edge">
<title>roo_windows_wifi&#45;&gt;roo_wifi</title>
<path fill="none" stroke="black" d="M585,-746.88C585,-733.35 585,-714.62 585,-699.15"/>
<polygon fill="black" stroke="black" points="588.5,-699.07 585,-689.07 581.5,-699.07 588.5,-699.07"/>
</g>
<!-- roo_windows_wifi&#45;&gt;roo_windows -->
<g id="edge42" class="edge">
<title>roo_windows_wifi&#45;&gt;roo_windows</title>
<path fill="none" stroke="black" d="M565.3,-746.81C549.81,-733.58 527.06,-716.4 504,-707 455.28,-687.14 438.62,-699.15 387,-689 383.61,-688.33 380.15,-687.62 376.65,-686.87"/>
<polygon fill="black" stroke="black" points="377.29,-683.43 366.77,-684.7 375.79,-690.27 377.29,-683.43"/>
</g>
</g>
</svg>
