<?xml version="1.0" encoding="UTF-8" standalone="no"?>
<!DOCTYPE svg PUBLIC "-//W3C//DTD SVG 1.1//EN"
 "http://www.w3.org/Graphics/SVG/1.1/DTD/svg11.dtd">
<!-- Generated by graphviz version 2.42.4 (0)
 -->
<!-- Title: dependencies Pages: 1 -->
<svg width="1453pt" height="730pt"
 viewBox="0.00 0.00 1453.00 730.00" xmlns="http://www.w3.org/2000/svg" xmlns:xlink="http://www.w3.org/1999/xlink">
<g id="graph0" class="graph" transform="scale(1 1) rotate(0) translate(4 726)">
<title>dependencies</title>
<polygon fill="white" stroke="transparent" points="-4,4 -4,-726 1449,-726 1449,4 -4,4"/>
<!-- roo_backport -->
<g id="node1" class="node">
<title>roo_backport</title>
<polygon fill="#b1dbab" stroke="black" points="1198.5,-134 1109.5,-134 1109.5,-96 1198.5,-96 1198.5,-134"/>
<text text-anchor="middle" x="1154" y="-118.8" font-family="Times,serif" font-size="14.00">roo_backport</text>
<text text-anchor="middle" x="1154" y="-103.8" font-family="Times,serif" font-size="14.00">1.1.1</text>
</g>
<!-- roo_blink -->
<g id="node2" class="node">
<title>roo_blink</title>
<polygon fill="plum" stroke="black" points="845.5,-422 776.5,-422 776.5,-384 845.5,-384 845.5,-422"/>
<text text-anchor="middle" x="811" y="-406.8" font-family="Times,serif" font-size="14.00">roo_blink</text>
<text text-anchor="middle" x="811" y="-391.8" font-family="Times,serif" font-size="14.00">1.0.1</text>
</g>
<!-- roo_logging -->
<g id="node13" class="node">
<title>roo_logging</title>
<polygon fill="plum" stroke="black" points="663.5,-326 580.5,-326 580.5,-288 663.5,-288 663.5,-326"/>
<text text-anchor="middle" x="622" y="-310.8" font-family="Times,serif" font-size="14.00">roo_logging</text>
<text text-anchor="middle" x="622" y="-295.8" font-family="Times,serif" font-size="14.00">1.4.2</text>
</g>
<!-- roo_blink&#45;&gt;roo_logging -->
<g id="edge2" class="edge">
<title>roo_blink&#45;&gt;roo_logging</title>
<path fill="none" stroke="black" d="M776.33,-384.76C745.75,-369.55 700.95,-347.27 667.49,-330.63"/>
<polygon fill="black" stroke="black" points="668.89,-327.41 658.38,-326.09 665.77,-333.68 668.89,-327.41"/>
</g>
<!-- roo_scheduler -->
<g id="node19" class="node">
<title>roo_scheduler</title>
<polygon fill="plum" stroke="black" points="813.5,-326 720.5,-326 720.5,-288 813.5,-288 813.5,-326"/>
<text text-anchor="middle" x="767" y="-310.8" font-family="Times,serif" font-size="14.00">roo_scheduler</text>
<text text-anchor="middle" x="767" y="-295.8" font-family="Times,serif" font-size="14.00">2.1.4</text>
</g>
<!-- roo_blink&#45;&gt;roo_scheduler -->
<g id="edge3" class="edge">
<title>roo_blink&#45;&gt;roo_scheduler</title>
<path fill="none" stroke="black" d="M807,-383.91C804.02,-372.17 799.36,-356.73 793,-344 791.44,-340.87 789.61,-337.72 787.66,-334.65"/>
<polygon fill="black" stroke="black" points="790.51,-332.61 781.98,-326.32 784.73,-336.55 790.51,-332.61"/>
</g>
<!-- roo_testing -->
<g id="node20" class="node">
<title>roo_testing</title>
<polygon fill="#b1dbab" stroke="black" points="680.5,-38 603.5,-38 603.5,0 680.5,0 680.5,-38"/>
<text text-anchor="middle" x="642" y="-22.8" font-family="Times,serif" font-size="14.00">roo_testing</text>
<text text-anchor="middle" x="642" y="-7.8" font-family="Times,serif" font-size="14.00">1.1.8</text>
</g>
<!-- roo_blink&#45;&gt;roo_testing -->
<g id="edge1" class="edge">
<title>roo_blink&#45;&gt;roo_testing</title>
<path fill="none" stroke="red" d="M815.87,-383.94C828.97,-334.23 863.13,-196.19 851,-152 837.86,-104.15 833.98,-85.38 794,-56 764.13,-34.05 722.81,-25.27 690.8,-21.86"/>
<polygon fill="red" stroke="red" points="691.04,-18.37 680.76,-20.94 690.39,-25.34 691.04,-18.37"/>
<text text-anchor="middle" x="881" y="-214" font-family="Times,serif" font-size="10.00" fill="red">1.1.7</text>
<text text-anchor="middle" x="881" y="-203" font-family="Times,serif" font-size="10.00" fill="red">(latest: 1.1.8)</text>
</g>
<!-- roo_collections -->
<g id="node3" class="node">
<title>roo_collections</title>
<polygon fill="#b1dbab" stroke="black" points="1256,-230 1156,-230 1156,-192 1256,-192 1256,-230"/>
<text text-anchor="middle" x="1206" y="-214.8" font-family="Times,serif" font-size="14.00">roo_collections</text>
<text text-anchor="middle" x="1206" y="-199.8" font-family="Times,serif" font-size="14.00">1.3.2</text>
</g>
<!-- roo_collections&#45;&gt;roo_backport -->
<g id="edge4" class="edge">
<title>roo_collections&#45;&gt;roo_backport</title>
<path fill="none" stroke="black" d="M1195.97,-191.88C1188.28,-177.96 1177.53,-158.53 1168.84,-142.82"/>
<polygon fill="black" stroke="black" points="1171.9,-141.12 1164,-134.07 1165.77,-144.51 1171.9,-141.12"/>
</g>
<!-- roo_comms -->
<g id="node4" class="node">
<title>roo_comms</title>
<polygon fill="plum" stroke="black" points="743,-572 661,-572 661,-534 743,-534 743,-572"/>
<text text-anchor="middle" x="702" y="-556.8" font-family="Times,serif" font-size="14.00">roo_comms</text>
<text text-anchor="middle" x="702" y="-541.8" font-family="Times,serif" font-size="14.00">1.1.1</text>
</g>
<!-- roo_comms&#45;&gt;roo_blink -->
<g id="edge6" class="edge">
<title>roo_comms&#45;&gt;roo_blink</title>
<path fill="none" stroke="black" d="M719.53,-533.78C729.22,-523.35 741.24,-509.82 751,-497 767.3,-475.58 783.72,-449.76 795.26,-430.76"/>
<polygon fill="black" stroke="black" points="798.35,-432.41 800.51,-422.03 792.35,-428.8 798.35,-432.41"/>
</g>
<!-- roo_control -->
<g id="node5" class="node">
<title>roo_control</title>
<polygon fill="plum" stroke="black" points="742,-497 662,-497 662,-459 742,-459 742,-497"/>
<text text-anchor="middle" x="702" y="-481.8" font-family="Times,serif" font-size="14.00">roo_control</text>
<text text-anchor="middle" x="702" y="-466.8" font-family="Times,serif" font-size="14.00">1.2.1</text>
</g>
<!-- roo_comms&#45;&gt;roo_control -->
<g id="edge7" class="edge">
<title>roo_comms&#45;&gt;roo_control</title>
<path fill="none" stroke="black" d="M702,-533.96C702,-525.88 702,-516.18 702,-507.18"/>
<polygon fill="black" stroke="black" points="705.5,-507.09 702,-497.09 698.5,-507.09 705.5,-507.09"/>
</g>
<!-- roo_io -->
<g id="node10" class="node">
<title>roo_io</title>
<polygon fill="plum" stroke="black" points="1126,-422 1072,-422 1072,-384 1126,-384 1126,-422"/>
<text text-anchor="middle" x="1099" y="-406.8" font-family="Times,serif" font-size="14.00">roo_io</text>
<text text-anchor="middle" x="1099" y="-391.8" font-family="Times,serif" font-size="14.00">2.0.2</text>
</g>
<!-- roo_comms&#45;&gt;roo_io -->
<g id="edge8" class="edge">
<title>roo_comms&#45;&gt;roo_io</title>
<path fill="none" stroke="black" d="M743.36,-536.58C821.29,-507.53 988.65,-445.14 1062.6,-417.57"/>
<polygon fill="black" stroke="black" points="1063.83,-420.85 1071.97,-414.07 1061.38,-414.29 1063.83,-420.85"/>
</g>
<!-- roo_comms&#45;&gt;roo_testing -->
<g id="edge5" class="edge">
<title>roo_comms&#45;&gt;roo_testing</title>
<path fill="none" stroke="red" d="M660.73,-549.84C555.89,-541.76 281.26,-503.74 191,-326 156.28,-257.63 177.59,-220.45 263,-96 278.14,-73.94 283.53,-66.84 308,-56 357.82,-33.93 512.86,-24.9 592.97,-21.63"/>
<polygon fill="red" stroke="red" points="593.44,-25.11 603.3,-21.22 593.17,-18.12 593.44,-25.11"/>
<text text-anchor="middle" x="218" y="-310" font-family="Times,serif" font-size="10.00" fill="red">1.1.7</text>
<text text-anchor="middle" x="218" y="-299" font-family="Times,serif" font-size="10.00" fill="red">(latest: 1.1.8)</text>
</g>
<!-- roo_transceivers -->
<g id="node24" class="node">
<title>roo_transceivers</title>
<polygon fill="plum" stroke="black" points="540,-497 434,-497 434,-459 540,-459 540,-497"/>
<text text-anchor="middle" x="487" y="-481.8" font-family="Times,serif" font-size="14.00">roo_transceivers</text>
<text text-anchor="middle" x="487" y="-466.8" font-family="Times,serif" font-size="14.00">1.1.2</text>
</g>
<!-- roo_comms&#45;&gt;roo_transceivers -->
<g id="edge9" class="edge">
<title>roo_comms&#45;&gt;roo_transceivers</title>
<path fill="none" stroke="black" d="M660.8,-538.01C629.48,-527.38 585.85,-512.56 550.13,-500.44"/>
<polygon fill="black" stroke="black" points="550.88,-496.99 540.29,-497.09 548.63,-503.62 550.88,-496.99"/>
</g>
<!-- roo_quantity -->
<g id="node18" class="node">
<title>roo_quantity</title>
<polygon fill="#b1dbab" stroke="black" points="644,-422 558,-422 558,-384 644,-384 644,-422"/>
<text text-anchor="middle" x="601" y="-406.8" font-family="Times,serif" font-size="14.00">roo_quantity</text>
<text text-anchor="middle" x="601" y="-391.8" font-family="Times,serif" font-size="14.00">1.1.2</text>
</g>
<!-- roo_control&#45;&gt;roo_quantity -->
<g id="edge11" class="edge">
<title>roo_control&#45;&gt;roo_quantity</title>
<path fill="none" stroke="black" d="M677.03,-458.96C664.17,-449.65 648.3,-438.18 634.39,-428.13"/>
<polygon fill="black" stroke="black" points="636.18,-425.11 626.03,-422.09 632.08,-430.78 636.18,-425.11"/>
</g>
<!-- roo_control&#45;&gt;roo_scheduler -->
<g id="edge12" class="edge">
<title>roo_control&#45;&gt;roo_scheduler</title>
<path fill="none" stroke="black" d="M709.42,-458.7C713.73,-448.02 719.23,-434.27 724,-422 735.41,-392.63 748.1,-358.84 756.72,-335.72"/>
<polygon fill="black" stroke="black" points="760.05,-336.8 760.26,-326.21 753.49,-334.36 760.05,-336.8"/>
</g>
<!-- roo_control&#45;&gt;roo_testing -->
<g id="edge10" class="edge">
<title>roo_control&#45;&gt;roo_testing</title>
<path fill="none" stroke="red" d="M701.46,-458.87C700.77,-425.03 700.69,-350.06 711,-288 721.2,-226.64 763.07,-211.2 744,-152 730.24,-109.28 695.76,-69.91 670.69,-45.49"/>
<polygon fill="red" stroke="red" points="672.9,-42.76 663.25,-38.4 668.08,-47.83 672.9,-42.76"/>
<text text-anchor="middle" x="751" y="-262" font-family="Times,serif" font-size="10.00" fill="red">1.1.7</text>
<text text-anchor="middle" x="751" y="-251" font-family="Times,serif" font-size="10.00" fill="red">(latest: 1.1.8)</text>
</g>
<!-- roo_dashboard -->
<g id="node6" class="node">
<title>roo_dashboard</title>
<polygon fill="plum" stroke="black" points="1275.5,-722 1178.5,-722 1178.5,-684 1275.5,-684 1275.5,-722"/>
<text text-anchor="middle" x="1227" y="-706.8" font-family="Times,serif" font-size="14.00">roo_dashboard</text>
<text text-anchor="middle" x="1227" y="-691.8" font-family="Times,serif" font-size="14.00">1.0.1</text>
</g>
<!-- roo_dashboard&#45;&gt;roo_testing -->
<g id="edge13" class="edge">
<title>roo_dashboard&#45;&gt;roo_testing</title>
<path fill="none" stroke="red" d="M1275.76,-685.28C1324.1,-667.98 1391,-641.74 1391,-629 1391,-629 1391,-629 1391,-114 1391,-43.23 857.74,-24.96 691.13,-20.98"/>
<polygon fill="red" stroke="red" points="690.77,-17.47 680.69,-20.74 690.61,-24.47 690.77,-17.47"/>
<text text-anchor="middle" x="1418" y="-406" font-family="Times,serif" font-size="10.00" fill="red">1.1.7</text>
<text text-anchor="middle" x="1418" y="-395" font-family="Times,serif" font-size="10.00" fill="red">(latest: 1.1.8)</text>
</g>
<!-- roo_windows -->
<g id="node27" class="node">
<title>roo_windows</title>
<polygon fill="plum" stroke="black" points="916,-647 826,-647 826,-609 916,-609 916,-647"/>
<text text-anchor="middle" x="871" y="-631.8" font-family="Times,serif" font-size="14.00">roo_windows</text>
<text text-anchor="middle" x="871" y="-616.8" font-family="Times,serif" font-size="14.00">1.4.1</text>
</g>
<!-- roo_dashboard&#45;&gt;roo_windows -->
<g id="edge14" class="edge">
<title>roo_dashboard&#45;&gt;roo_windows</title>
<path fill="none" stroke="black" d="M1178.25,-692C1112.27,-678.47 994.9,-654.41 925.89,-640.26"/>
<polygon fill="black" stroke="black" points="926.58,-636.82 916.08,-638.24 925.17,-643.68 926.58,-636.82"/>
</g>
<!-- roo_display -->
<g id="node7" class="node">
<title>roo_display</title>
<polygon fill="plum" stroke="black" points="1111,-497 1031,-497 1031,-459 1111,-459 1111,-497"/>
<text text-anchor="middle" x="1071" y="-481.8" font-family="Times,serif" font-size="14.00">roo_display</text>
<text text-anchor="middle" x="1071" y="-466.8" font-family="Times,serif" font-size="14.00">2.3.1</text>
</g>
<!-- roo_display&#45;&gt;roo_collections -->
<g id="edge16" class="edge">
<title>roo_display&#45;&gt;roo_collections</title>
<path fill="none" stroke="black" d="M1098.31,-458.78C1110.98,-449.14 1125.33,-436.33 1135,-422 1155.55,-391.54 1184.94,-289.71 1198.55,-239.91"/>
<polygon fill="black" stroke="black" points="1201.97,-240.68 1201.21,-230.12 1195.21,-238.85 1201.97,-240.68"/>
</g>
<!-- roo_display&#45;&gt;roo_io -->
<g id="edge17" class="edge">
<title>roo_display&#45;&gt;roo_io</title>
<path fill="none" stroke="black" d="M1077.92,-458.96C1081.08,-450.71 1084.9,-440.75 1088.42,-431.6"/>
<polygon fill="black" stroke="black" points="1091.75,-432.68 1092.06,-422.09 1085.21,-430.17 1091.75,-432.68"/>
</g>
<!-- roo_display&#45;&gt;roo_testing -->
<g id="edge15" class="edge">
<title>roo_display&#45;&gt;roo_testing</title>
<path fill="none" stroke="red" d="M1066.79,-458.83C1058.77,-424.92 1040.3,-349.84 1020,-288 1017.32,-279.84 1015.3,-278.27 1013,-270 987.16,-177 1046.39,-122.04 976,-56 955.61,-36.88 778.46,-26.21 690.76,-22.05"/>
<polygon fill="red" stroke="red" points="690.68,-18.55 680.53,-21.58 690.35,-25.54 690.68,-18.55"/>
<text text-anchor="middle" x="1040" y="-262" font-family="Times,serif" font-size="10.00" fill="red">1.1.7</text>
<text text-anchor="middle" x="1040" y="-251" font-family="Times,serif" font-size="10.00" fill="red">(latest: 1.1.8)</text>
</g>
<!-- roo_flags -->
<g id="node8" class="node">
<title>roo_flags</title>
<polygon fill="#b1dbab" stroke="black" points="692,-230 624,-230 624,-192 692,-192 692,-230"/>
<text text-anchor="middle" x="658" y="-214.8" font-family="Times,serif" font-size="14.00">roo_flags</text>
<text text-anchor="middle" x="658" y="-199.8" font-family="Times,serif" font-size="14.00">1.1.1</text>
</g>
<!-- roo_icons -->
<g id="node9" class="node">
<title>roo_icons</title>
<polygon fill="plum" stroke="black" points="1045,-572 975,-572 975,-534 1045,-534 1045,-572"/>
<text text-anchor="middle" x="1010" y="-556.8" font-family="Times,serif" font-size="14.00">roo_icons</text>
<text text-anchor="middle" x="1010" y="-541.8" font-family="Times,serif" font-size="14.00">1.2.1</text>
</g>
<!-- roo_icons&#45;&gt;roo_display -->
<g id="edge19" class="edge">
<title>roo_icons&#45;&gt;roo_display</title>
<path fill="none" stroke="black" d="M1025.08,-533.96C1032.41,-525.18 1041.36,-514.48 1049.4,-504.85"/>
<polygon fill="black" stroke="black" points="1052.16,-507.01 1055.88,-497.09 1046.79,-502.52 1052.16,-507.01"/>
</g>
<!-- roo_icons&#45;&gt;roo_testing -->
<g id="edge18" class="edge">
<title>roo_icons&#45;&gt;roo_testing</title>
<path fill="none" stroke="red" d="M1008.3,-533.77C1004.51,-497.05 993.84,-411.9 971,-344 968.15,-335.52 964.05,-334.71 962,-326 955.26,-297.45 962,-289.33 962,-260 962,-260 962,-260 962,-114 962,-86.1 960.21,-72.88 938,-56 900.24,-27.31 764.88,-21.25 690.99,-20.12"/>
<polygon fill="red" stroke="red" points="690.6,-16.61 680.55,-19.98 690.51,-23.61 690.6,-16.61"/>
<text text-anchor="middle" x="989" y="-310" font-family="Times,serif" font-size="10.00" fill="red">1.1.7</text>
<text text-anchor="middle" x="989" y="-299" font-family="Times,serif" font-size="10.00" fill="red">(latest: 1.1.8)</text>
</g>
<!-- roo_io&#45;&gt;roo_backport -->
<g id="edge21" class="edge">
<title>roo_io&#45;&gt;roo_backport</title>
<path fill="none" stroke="black" d="M1102.52,-383.67C1111.88,-335.04 1137.37,-202.47 1148.58,-144.16"/>
<polygon fill="black" stroke="black" points="1152.05,-144.65 1150.51,-134.17 1145.18,-143.33 1152.05,-144.65"/>
</g>
<!-- roo_io&#45;&gt;roo_logging -->
<g id="edge22" class="edge">
<title>roo_io&#45;&gt;roo_logging</title>
<path fill="none" stroke="black" d="M1071.8,-385.81C1047.18,-372.04 1009.45,-353.1 974,-344 860.52,-314.86 827.11,-341.65 711,-326 698.92,-324.37 686.01,-322.08 673.88,-319.68"/>
<polygon fill="black" stroke="black" points="674.41,-316.22 663.91,-317.65 673.01,-323.08 674.41,-316.22"/>
</g>
<!-- roo_io&#45;&gt;roo_testing -->
<g id="edge20" class="edge">
<title>roo_io&#45;&gt;roo_testing</title>
<path fill="none" stroke="red" d="M1095.79,-383.79C1083.61,-315.62 1039.61,-78.16 1014,-56 990.06,-35.29 786.38,-25.23 690.95,-21.62"/>
<polygon fill="red" stroke="red" points="690.82,-18.12 680.7,-21.24 690.56,-25.11 690.82,-18.12"/>
<text text-anchor="middle" x="1093" y="-214" font-family="Times,serif" font-size="10.00" fill="red">1.1.7</text>
<text text-anchor="middle" x="1093" y="-203" font-family="Times,serif" font-size="10.00" fill="red">(latest: 1.1.8)</text>
</g>
<!-- roo_io_sdfat -->
<g id="node11" class="node">
<title>roo_io_sdfat</title>
<polygon fill="plum" stroke="black" points="1378.5,-722 1293.5,-722 1293.5,-684 1378.5,-684 1378.5,-722"/>
<text text-anchor="middle" x="1336" y="-706.8" font-family="Times,serif" font-size="14.00">roo_io_sdfat</text>
<text text-anchor="middle" x="1336" y="-691.8" font-family="Times,serif" font-size="14.00">1.0.0</text>
</g>
<!-- roo_locale -->
<g id="node12" class="node">
<title>roo_locale</title>
<polygon fill="#b1dbab" stroke="black" points="843,-572 769,-572 769,-534 843,-534 843,-572"/>
<text text-anchor="middle" x="806" y="-556.8" font-family="Times,serif" font-size="14.00">roo_locale</text>
<text text-anchor="middle" x="806" y="-541.8" font-family="Times,serif" font-size="14.00">1.1.1</text>
</g>
<!-- roo_logging&#45;&gt;roo_flags -->
<g id="edge24" class="edge">
<title>roo_logging&#45;&gt;roo_flags</title>
<path fill="none" stroke="black" d="M628.94,-287.88C634.17,-274.22 641.43,-255.26 647.39,-239.71"/>
<polygon fill="black" stroke="black" points="650.77,-240.66 651.08,-230.07 644.24,-238.16 650.77,-240.66"/>
</g>
<!-- roo_logging&#45;&gt;roo_testing -->
<g id="edge23" class="edge">
<title>roo_logging&#45;&gt;roo_testing</title>
<path fill="none" stroke="red" d="M650.32,-287.85C668.56,-274.36 690.72,-254.17 701,-230 707.61,-214.46 705.57,-208.26 701,-192 698.46,-182.97 693.65,-182.64 690,-174 676.07,-141.03 680.64,-130.17 670,-96 664.99,-79.9 658.53,-62.21 653.08,-47.95"/>
<polygon fill="red" stroke="red" points="656.19,-46.31 649.32,-38.25 649.66,-48.84 656.19,-46.31"/>
<text text-anchor="middle" x="717" y="-166" font-family="Times,serif" font-size="10.00" fill="red">1.1.7</text>
<text text-anchor="middle" x="717" y="-155" font-family="Times,serif" font-size="10.00" fill="red">(latest: 1.1.8)</text>
</g>
<!-- roo_threads -->
<g id="node21" class="node">
<title>roo_threads</title>
<polygon fill="plum" stroke="black" points="606,-230 526,-230 526,-192 606,-192 606,-230"/>
<text text-anchor="middle" x="566" y="-214.8" font-family="Times,serif" font-size="14.00">roo_threads</text>
<text text-anchor="middle" x="566" y="-199.8" font-family="Times,serif" font-size="14.00">1.1.5</text>
</g>
<!-- roo_logging&#45;&gt;roo_threads -->
<g id="edge25" class="edge">
<title>roo_logging&#45;&gt;roo_threads</title>
<path fill="none" stroke="black" d="M611.2,-287.88C602.91,-273.96 591.34,-254.53 581.98,-238.82"/>
<polygon fill="black" stroke="black" points="584.89,-236.87 576.76,-230.07 578.88,-240.45 584.89,-236.87"/>
</g>
<!-- roo_monitoring -->
<g id="node14" class="node">
<title>roo_monitoring</title>
<polygon fill="plum" stroke="black" points="1242,-497 1140,-497 1140,-459 1242,-459 1242,-497"/>
<text text-anchor="middle" x="1191" y="-481.8" font-family="Times,serif" font-size="14.00">roo_monitoring</text>
<text text-anchor="middle" x="1191" y="-466.8" font-family="Times,serif" font-size="14.00">1.0.0</text>
</g>
<!-- roo_monitoring&#45;&gt;roo_collections -->
<g id="edge27" class="edge">
<title>roo_monitoring&#45;&gt;roo_collections</title>
<path fill="none" stroke="black" d="M1192.03,-458.79C1194.6,-413.4 1201.3,-295.01 1204.39,-240.38"/>
<polygon fill="black" stroke="black" points="1207.89,-240.52 1204.96,-230.34 1200.9,-240.13 1207.89,-240.52"/>
</g>
<!-- roo_monitoring&#45;&gt;roo_io -->
<g id="edge28" class="edge">
<title>roo_monitoring&#45;&gt;roo_io</title>
<path fill="none" stroke="black" d="M1168.26,-458.96C1156.65,-449.74 1142.35,-438.4 1129.77,-428.42"/>
<polygon fill="black" stroke="black" points="1131.81,-425.56 1121.8,-422.09 1127.46,-431.05 1131.81,-425.56"/>
</g>
<!-- roo_monitoring&#45;&gt;roo_testing -->
<g id="edge26" class="edge">
<title>roo_monitoring&#45;&gt;roo_testing</title>
<path fill="none" stroke="black" d="M1202.38,-458.93C1229.38,-413.79 1292.99,-292.46 1265,-192 1251.62,-143.98 1247.34,-125.28 1207,-96 1124.99,-36.47 812.65,-23.55 690.95,-20.76"/>
<polygon fill="black" stroke="black" points="690.88,-17.26 680.81,-20.54 690.73,-24.26 690.88,-17.26"/>
</g>
<!-- roo_onewire -->
<g id="node15" class="node">
<title>roo_onewire</title>
<polygon fill="plum" stroke="black" points="643.5,-497 558.5,-497 558.5,-459 643.5,-459 643.5,-497"/>
<text text-anchor="middle" x="601" y="-481.8" font-family="Times,serif" font-size="14.00">roo_onewire</text>
<text text-anchor="middle" x="601" y="-466.8" font-family="Times,serif" font-size="14.00">2.0.4</text>
</g>
<!-- roo_onewire&#45;&gt;roo_quantity -->
<g id="edge31" class="edge">
<title>roo_onewire&#45;&gt;roo_quantity</title>
<path fill="none" stroke="black" d="M601,-458.96C601,-450.88 601,-441.18 601,-432.18"/>
<polygon fill="black" stroke="black" points="604.5,-432.09 601,-422.09 597.5,-432.09 604.5,-432.09"/>
</g>
<!-- roo_onewire&#45;&gt;roo_scheduler -->
<g id="edge30" class="edge">
<title>roo_onewire&#45;&gt;roo_scheduler</title>
<path fill="none" stroke="black" d="M618.76,-458.91C648.39,-428.75 707.97,-368.09 741.88,-333.57"/>
<polygon fill="black" stroke="black" points="744.6,-335.8 749.11,-326.21 739.61,-330.89 744.6,-335.8"/>
</g>
<!-- roo_onewire&#45;&gt;roo_testing -->
<g id="edge29" class="edge">
<title>roo_onewire&#45;&gt;roo_testing</title>
<path fill="none" stroke="red" d="M558.14,-462.13C514.09,-446.8 451.21,-424.75 446,-422 344.76,-368.52 289.84,-372.09 238,-270 233.57,-261.28 236.01,-257.57 238,-248 258.09,-151.27 259.76,-96.21 350,-56 392.41,-37.1 521.86,-26.89 593.33,-22.56"/>
<polygon fill="red" stroke="red" points="593.66,-26.04 603.43,-21.96 593.24,-19.06 593.66,-26.04"/>
<text text-anchor="middle" x="265" y="-262" font-family="Times,serif" font-size="10.00" fill="red">1.1.7</text>
<text text-anchor="middle" x="265" y="-251" font-family="Times,serif" font-size="10.00" fill="red">(latest: 1.1.8)</text>
</g>
<!-- roo_powersafefs -->
<g id="node16" class="node">
<title>roo_powersafefs</title>
<polygon fill="plum" stroke="black" points="562.5,-326 455.5,-326 455.5,-288 562.5,-288 562.5,-326"/>
<text text-anchor="middle" x="509" y="-310.8" font-family="Times,serif" font-size="14.00">roo_powersafefs</text>
<text text-anchor="middle" x="509" y="-295.8" font-family="Times,serif" font-size="14.00">1.0.0</text>
</g>
<!-- roo_powersafefs&#45;&gt;roo_testing -->
<g id="edge32" class="edge">
<title>roo_powersafefs&#45;&gt;roo_testing</title>
<path fill="none" stroke="black" d="M455.17,-295.96C418.35,-285.99 372.17,-266.65 349,-230 327.63,-196.19 369.79,-115.71 380,-96 390.22,-76.27 390.95,-67.44 410,-56 440.08,-37.94 534.63,-27.89 593.33,-23.24"/>
<polygon fill="black" stroke="black" points="593.79,-26.72 603.49,-22.46 593.26,-19.74 593.79,-26.72"/>
</g>
<!-- roo_powersafefs&#45;&gt;roo_threads -->
<g id="edge33" class="edge">
<title>roo_powersafefs&#45;&gt;roo_threads</title>
<path fill="none" stroke="black" d="M519.99,-287.88C528.43,-273.96 540.21,-254.53 549.74,-238.82"/>
<polygon fill="black" stroke="black" points="552.85,-240.43 555.04,-230.07 546.87,-236.8 552.85,-240.43"/>
</g>
<!-- roo_prefs -->
<g id="node17" class="node">
<title>roo_prefs</title>
<polygon fill="plum" stroke="black" points="523,-422 455,-422 455,-384 523,-384 523,-422"/>
<text text-anchor="middle" x="489" y="-406.8" font-family="Times,serif" font-size="14.00">roo_prefs</text>
<text text-anchor="middle" x="489" y="-391.8" font-family="Times,serif" font-size="14.00">1.2.2</text>
</g>
<!-- roo_prefs&#45;&gt;roo_logging -->
<g id="edge35" class="edge">
<title>roo_prefs&#45;&gt;roo_logging</title>
<path fill="none" stroke="black" d="M514.64,-383.88C535.53,-369.12 565.19,-348.15 588.04,-332"/>
<polygon fill="black" stroke="black" points="590.29,-334.7 596.43,-326.07 586.25,-328.98 590.29,-334.7"/>
</g>
<!-- roo_prefs&#45;&gt;roo_scheduler -->
<g id="edge36" class="edge">
<title>roo_prefs&#45;&gt;roo_scheduler</title>
<path fill="none" stroke="black" d="M523.09,-390.47C569.73,-374.7 654.05,-346.19 710.28,-327.18"/>
<polygon fill="black" stroke="black" points="711.74,-330.38 720.1,-323.86 709.5,-323.75 711.74,-330.38"/>
</g>
<!-- roo_prefs&#45;&gt;roo_testing -->
<g id="edge34" class="edge">
<title>roo_prefs&#45;&gt;roo_testing</title>
<path fill="none" stroke="red" d="M454.79,-385.26C406.64,-359.52 320.86,-305.23 286,-230 278.9,-214.68 280.77,-208.06 286,-192 309.14,-120.91 320.89,-94.46 385,-56 419.13,-35.53 528.54,-26.17 593.08,-22.33"/>
<polygon fill="red" stroke="red" points="593.64,-25.8 603.43,-21.74 593.24,-18.82 593.64,-25.8"/>
<text text-anchor="middle" x="313" y="-214" font-family="Times,serif" font-size="10.00" fill="red">1.1.7</text>
<text text-anchor="middle" x="313" y="-203" font-family="Times,serif" font-size="10.00" fill="red">(latest: 1.1.8)</text>
</g>
<!-- roo_quantity&#45;&gt;roo_logging -->
<g id="edge37" class="edge">
<title>roo_quantity&#45;&gt;roo_logging</title>
<path fill="none" stroke="black" d="M605.05,-383.88C608.07,-370.35 612.26,-351.62 615.71,-336.15"/>
<polygon fill="black" stroke="black" points="619.2,-336.59 617.96,-326.07 612.37,-335.06 619.2,-336.59"/>
</g>
<!-- roo_scheduler&#45;&gt;roo_collections -->
<g id="edge39" class="edge">
<title>roo_scheduler&#45;&gt;roo_collections</title>
<path fill="none" stroke="black" d="M813.51,-301.5C882.55,-294.59 1008.75,-281.01 1053,-270 1088.7,-261.12 1127.42,-246.39 1156.99,-233.99"/>
<polygon fill="black" stroke="black" points="1158.41,-237.19 1166.25,-230.06 1155.67,-230.74 1158.41,-237.19"/>
</g>
<!-- roo_scheduler&#45;&gt;roo_testing -->
<g id="edge38" class="edge">
<title>roo_scheduler&#45;&gt;roo_testing</title>
<path fill="none" stroke="red" d="M776.23,-287.76C778.6,-282.2 780.8,-275.98 782,-270 783.92,-260.41 782.25,-257.77 782,-248 779.78,-162.58 825.49,-122.64 772,-56 761.68,-43.15 723.41,-33.54 691.04,-27.5"/>
<polygon fill="red" stroke="red" points="691.24,-23.98 680.78,-25.67 690.01,-30.87 691.24,-23.98"/>
<text text-anchor="middle" x="822" y="-166" font-family="Times,serif" font-size="10.00" fill="red">1.1.7</text>
<text text-anchor="middle" x="822" y="-155" font-family="Times,serif" font-size="10.00" fill="red">(latest: 1.1.8)</text>
</g>
<!-- roo_scheduler&#45;&gt;roo_threads -->
<g id="edge40" class="edge">
<title>roo_scheduler&#45;&gt;roo_threads</title>
<path fill="none" stroke="black" d="M728.25,-287.88C695.57,-272.6 648.68,-250.67 613.71,-234.31"/>
<polygon fill="black" stroke="black" points="615.18,-231.13 604.64,-230.07 612.21,-237.48 615.18,-231.13"/>
</g>
<!-- roo_threads&#45;&gt;roo_testing -->
<g id="edge41" class="edge">
<title>roo_threads&#45;&gt;roo_testing</title>
<path fill="none" stroke="red" d="M573.29,-191.78C586.65,-158.37 615.15,-87.13 630.92,-47.69"/>
<polygon fill="red" stroke="red" points="634.27,-48.75 634.73,-38.16 627.77,-46.15 634.27,-48.75"/>
<text text-anchor="middle" x="639" y="-118" font-family="Times,serif" font-size="10.00" fill="red">1.1.7</text>
<text text-anchor="middle" x="639" y="-107" font-family="Times,serif" font-size="10.00" fill="red">(latest: 1.1.8)</text>
</g>
<!-- roo_time -->
<g id="node22" class="node">
<title>roo_time</title>
<polygon fill="plum" stroke="black" points="521,-134 455,-134 455,-96 521,-96 521,-134"/>
<text text-anchor="middle" x="488" y="-118.8" font-family="Times,serif" font-size="14.00">roo_time</text>
<text text-anchor="middle" x="488" y="-103.8" font-family="Times,serif" font-size="14.00">1.3.2</text>
</g>
<!-- roo_threads&#45;&gt;roo_time -->
<g id="edge42" class="edge">
<title>roo_threads&#45;&gt;roo_time</title>
<path fill="none" stroke="black" d="M550.96,-191.88C539.2,-177.7 522.69,-157.81 509.53,-141.94"/>
<polygon fill="black" stroke="black" points="512.07,-139.53 502.99,-134.07 506.69,-144 512.07,-139.53"/>
</g>
<!-- roo_time&#45;&gt;roo_testing -->
<g id="edge43" class="edge">
<title>roo_time&#45;&gt;roo_testing</title>
<path fill="none" stroke="red" d="M479.52,-95.89C475.05,-83.39 472.12,-67.08 481,-56 494.9,-38.65 551.12,-29.11 593.24,-24.28"/>
<polygon fill="red" stroke="red" points="593.78,-27.74 603.34,-23.18 593.02,-20.78 593.78,-27.74"/>
<text text-anchor="middle" x="508" y="-70" font-family="Times,serif" font-size="10.00" fill="red">1.1.7</text>
<text text-anchor="middle" x="508" y="-59" font-family="Times,serif" font-size="10.00" fill="red">(latest: 1.1.8)</text>
</g>
<!-- roo_time_ds3231 -->
<g id="node23" class="node">
<title>roo_time_ds3231</title>
<polygon fill="plum" stroke="black" points="470,-230 358,-230 358,-192 470,-192 470,-230"/>
<text text-anchor="middle" x="414" y="-214.8" font-family="Times,serif" font-size="14.00">roo_time_ds3231</text>
<text text-anchor="middle" x="414" y="-199.8" font-family="Times,serif" font-size="14.00">1.1.2</text>
</g>
<!-- roo_time_ds3231&#45;&gt;roo_testing -->
<g id="edge44" class="edge">
<title>roo_time_ds3231&#45;&gt;roo_testing</title>
<path fill="none" stroke="red" d="M403.22,-192C390.55,-168.26 373.46,-126.01 392,-96 413.31,-61.52 526.67,-38.15 593.2,-27.17"/>
<polygon fill="red" stroke="red" points="594.14,-30.57 603.46,-25.52 593.03,-23.66 594.14,-30.57"/>
<text text-anchor="middle" x="419" y="-118" font-family="Times,serif" font-size="10.00" fill="red">1.1.7</text>
<text text-anchor="middle" x="419" y="-107" font-family="Times,serif" font-size="10.00" fill="red">(latest: 1.1.8)</text>
</g>
<!-- roo_time_ds3231&#45;&gt;roo_time -->
<g id="edge45" class="edge">
<title>roo_time_ds3231&#45;&gt;roo_time</title>
<path fill="none" stroke="black" d="M428.27,-191.88C439.43,-177.7 455.09,-157.81 467.58,-141.94"/>
<polygon fill="black" stroke="black" points="470.34,-144.09 473.78,-134.07 464.84,-139.76 470.34,-144.09"/>
</g>
<!-- roo_transceivers&#45;&gt;roo_prefs -->
<g id="edge47" class="edge">
<title>roo_transceivers&#45;&gt;roo_prefs</title>
<path fill="none" stroke="black" d="M487.49,-458.96C487.72,-450.88 487.98,-441.18 488.23,-432.18"/>
<polygon fill="black" stroke="black" points="491.73,-432.18 488.5,-422.09 484.73,-431.99 491.73,-432.18"/>
</g>
<!-- roo_transceivers&#45;&gt;roo_testing -->
<g id="edge46" class="edge">
<title>roo_transceivers&#45;&gt;roo_testing</title>
<path fill="none" stroke="red" d="M468.82,-458.9C460.1,-448.93 450.57,-435.79 446,-422 427.25,-365.47 427.62,-344.65 446,-288 455.02,-260.18 572.93,-108.03 621.4,-46.17"/>
<polygon fill="red" stroke="red" points="624.35,-48.09 627.76,-38.06 618.84,-43.77 624.35,-48.09"/>
<text text-anchor="middle" x="497" y="-262" font-family="Times,serif" font-size="10.00" fill="red">1.1.7</text>
<text text-anchor="middle" x="497" y="-251" font-family="Times,serif" font-size="10.00" fill="red">(latest: 1.1.8)</text>
</g>
<!-- roo_transport -->
<g id="node25" class="node">
<title>roo_transport</title>
<polygon fill="plum" stroke="black" points="1349.5,-497 1260.5,-497 1260.5,-459 1349.5,-459 1349.5,-497"/>
<text text-anchor="middle" x="1305" y="-481.8" font-family="Times,serif" font-size="14.00">roo_transport</text>
<text text-anchor="middle" x="1305" y="-466.8" font-family="Times,serif" font-size="14.00">1.0.1</text>
</g>
<!-- roo_transport&#45;&gt;roo_collections -->
<g id="edge49" class="edge">
<title>roo_transport&#45;&gt;roo_collections</title>
<path fill="none" stroke="black" d="M1298.2,-458.79C1281.2,-413.31 1236.83,-294.52 1216.47,-240.04"/>
<polygon fill="black" stroke="black" points="1219.63,-238.48 1212.85,-230.34 1213.07,-240.93 1219.63,-238.48"/>
</g>
<!-- roo_transport&#45;&gt;roo_io -->
<g id="edge50" class="edge">
<title>roo_transport&#45;&gt;roo_io</title>
<path fill="none" stroke="black" d="M1260.3,-461.16C1223.14,-447.99 1170.89,-429.48 1136.04,-417.13"/>
<polygon fill="black" stroke="black" points="1136.85,-413.7 1126.26,-413.66 1134.51,-420.3 1136.85,-413.7"/>
</g>
<!-- roo_transport&#45;&gt;roo_testing -->
<g id="edge48" class="edge">
<title>roo_transport&#45;&gt;roo_testing</title>
<path fill="none" stroke="red" d="M1311.62,-458.97C1316.39,-444.36 1322,-423.13 1322,-404 1322,-404 1322,-404 1322,-114 1322,-50.22 846.46,-27.37 690.73,-21.61"/>
<polygon fill="red" stroke="red" points="690.63,-18.1 680.51,-21.23 690.37,-25.09 690.63,-18.1"/>
<text text-anchor="middle" x="1349" y="-262" font-family="Times,serif" font-size="10.00" fill="red">1.1.7</text>
<text text-anchor="middle" x="1349" y="-251" font-family="Times,serif" font-size="10.00" fill="red">(latest: 1.1.8)</text>
</g>
<!-- roo_wifi -->
<g id="node26" class="node">
<title>roo_wifi</title>
<polygon fill="plum" stroke="black" points="173.5,-497 110.5,-497 110.5,-459 173.5,-459 173.5,-497"/>
<text text-anchor="middle" x="142" y="-481.8" font-family="Times,serif" font-size="14.00">roo_wifi</text>
<text text-anchor="middle" x="142" y="-466.8" font-family="Times,serif" font-size="14.00">1.1.1</text>
</g>
<!-- roo_wifi&#45;&gt;roo_prefs -->
<g id="edge52" class="edge">
<title>roo_wifi&#45;&gt;roo_prefs</title>
<path fill="none" stroke="black" d="M173.71,-470.33C235.9,-457.24 373.98,-428.2 444.97,-413.26"/>
<polygon fill="black" stroke="black" points="445.88,-416.65 454.94,-411.17 444.44,-409.8 445.88,-416.65"/>
</g>
<!-- roo_wifi&#45;&gt;roo_testing -->
<g id="edge51" class="edge">
<title>roo_wifi&#45;&gt;roo_testing</title>
<path fill="none" stroke="red" d="M133.31,-458.85C127.16,-444.35 120,-423.33 120,-404 120,-404 120,-404 120,-114 120,-84.98 125.78,-71.98 150,-56 186.39,-31.99 476.11,-23.4 593.18,-20.89"/>
<polygon fill="red" stroke="red" points="593.37,-24.39 603.3,-20.68 593.23,-17.39 593.37,-24.39"/>
<text text-anchor="middle" x="147" y="-262" font-family="Times,serif" font-size="10.00" fill="red">1.1.7</text>
<text text-anchor="middle" x="147" y="-251" font-family="Times,serif" font-size="10.00" fill="red">(latest: 1.1.8)</text>
</g>
<!-- roo_windows&#45;&gt;roo_icons -->
<g id="edge55" class="edge">
<title>roo_windows&#45;&gt;roo_icons</title>
<path fill="none" stroke="black" d="M916.03,-611.69C930.76,-605.98 946.93,-598.94 961,-591 967.51,-587.33 974.13,-582.89 980.31,-578.38"/>
<polygon fill="black" stroke="black" points="982.55,-581.08 988.42,-572.26 978.33,-575.49 982.55,-581.08"/>
</g>
<!-- roo_windows&#45;&gt;roo_locale -->
<g id="edge54" class="edge">
<title>roo_windows&#45;&gt;roo_locale</title>
<path fill="none" stroke="black" d="M854.93,-608.96C847.04,-600.09 837.4,-589.26 828.76,-579.56"/>
<polygon fill="black" stroke="black" points="831.37,-577.23 822.11,-572.09 826.14,-581.89 831.37,-577.23"/>
</g>
<!-- roo_windows&#45;&gt;roo_scheduler -->
<g id="edge56" class="edge">
<title>roo_windows&#45;&gt;roo_scheduler</title>
<path fill="none" stroke="black" d="M873.99,-608.82C880.03,-566.85 890.19,-460.91 854,-384 844.02,-362.79 825.02,-345.11 807.31,-332.15"/>
<polygon fill="black" stroke="black" points="808.97,-329.04 798.77,-326.17 804.96,-334.77 808.97,-329.04"/>
</g>
<!-- roo_windows&#45;&gt;roo_testing -->
<g id="edge53" class="edge">
<title>roo_windows&#45;&gt;roo_testing</title>
<path fill="none" stroke="red" d="M882.68,-608.89C885.81,-603.34 888.9,-597.08 891,-591 893.79,-582.92 893.13,-580.5 894,-572 898.29,-529.96 921.19,-232.75 910,-192 890.88,-122.34 882.69,-93.59 821,-56 781.54,-31.95 728.97,-23.62 691.02,-20.9"/>
<polygon fill="red" stroke="red" points="690.92,-17.39 680.72,-20.27 690.49,-24.38 690.92,-17.39"/>
<text text-anchor="middle" x="937" y="-358" font-family="Times,serif" font-size="10.00" fill="red">1.1.7</text>
<text text-anchor="middle" x="937" y="-347" font-family="Times,serif" font-size="10.00" fill="red">(latest: 1.1.8)</text>
</g>
<!-- roo_windows_transceivers -->
<g id="node28" class="node">
<title>roo_windows_transceivers</title>
<polygon fill="plum" stroke="black" points="567.5,-722 406.5,-722 406.5,-684 567.5,-684 567.5,-722"/>
<text text-anchor="middle" x="487" y="-706.8" font-family="Times,serif" font-size="14.00">roo_windows_transceivers</text>
<text text-anchor="middle" x="487" y="-691.8" font-family="Times,serif" font-size="14.00">1.0.0</text>
</g>
<!-- roo_windows_transceivers&#45;&gt;roo_testing -->
<g id="edge57" class="edge">
<title>roo_windows_transceivers&#45;&gt;roo_testing</title>
<path fill="none" stroke="black" d="M406.02,-699.73C287.83,-691.61 82,-657.21 82,-516 82,-516 82,-516 82,-114 82,-82.17 96.17,-71.45 124,-56 164.4,-33.58 472.34,-23.98 593.37,-21.05"/>
<polygon fill="black" stroke="black" points="593.55,-24.54 603.46,-20.81 593.38,-17.55 593.55,-24.54"/>
</g>
<!-- roo_windows_transceivers&#45;&gt;roo_transceivers -->
<g id="edge58" class="edge">
<title>roo_windows_transceivers&#45;&gt;roo_transceivers</title>
<path fill="none" stroke="black" d="M487,-683.75C487,-644.94 487,-553.97 487,-507.47"/>
<polygon fill="black" stroke="black" points="490.5,-507.19 487,-497.19 483.5,-507.19 490.5,-507.19"/>
</g>
<!-- roo_windows_transceivers&#45;&gt;roo_windows -->
<g id="edge59" class="edge">
<title>roo_windows_transceivers&#45;&gt;roo_windows</title>
<path fill="none" stroke="black" d="M567.97,-686.61C642.43,-672.45 750.84,-651.84 815.79,-639.5"/>
<polygon fill="black" stroke="black" points="816.66,-642.89 825.83,-637.59 815.35,-636.02 816.66,-642.89"/>
</g>
<!-- roo_windows_wifi -->
<g id="node29" class="node">
<title>roo_windows_wifi</title>
<polygon fill="plum" stroke="black" points="179.5,-722 60.5,-722 60.5,-684 179.5,-684 179.5,-722"/>
<text text-anchor="middle" x="120" y="-706.8" font-family="Times,serif" font-size="14.00">roo_windows_wifi</text>
<text text-anchor="middle" x="120" y="-691.8" font-family="Times,serif" font-size="14.00">1.1.2</text>
</g>
<!-- roo_windows_wifi&#45;&gt;roo_testing -->
<g id="edge60" class="edge">
<title>roo_windows_wifi&#45;&gt;roo_testing</title>
<path fill="none" stroke="red" d="M60.35,-689.03C30.23,-678.61 0,-660.34 0,-629 0,-629 0,-629 0,-114 0,-66.41 44.81,-70.91 90,-56 182.73,-25.39 476.47,-20.7 593.35,-20.06"/>
<polygon fill="red" stroke="red" points="593.45,-23.56 603.43,-20.01 593.42,-16.56 593.45,-23.56"/>
<text text-anchor="middle" x="27" y="-406" font-family="Times,serif" font-size="10.00" fill="red">1.1.7</text>
<text text-anchor="middle" x="27" y="-395" font-family="Times,serif" font-size="10.00" fill="red">(latest: 1.1.8)</text>
</g>
<!-- roo_windows_wifi&#45;&gt;roo_wifi -->
<g id="edge61" class="edge">
<title>roo_windows_wifi&#45;&gt;roo_wifi</title>
<path fill="none" stroke="black" d="M121.8,-683.75C125.64,-644.86 134.64,-553.59 139.22,-507.17"/>
<polygon fill="black" stroke="black" points="142.71,-507.48 140.21,-497.19 135.74,-506.8 142.71,-507.48"/>
</g>
<!-- roo_windows_wifi&#45;&gt;roo_windows -->
<g id="edge62" class="edge">
<title>roo_windows_wifi&#45;&gt;roo_windows</title>
<path fill="none" stroke="black" d="M179.56,-696.21C321.4,-682.42 677.61,-647.8 815.38,-634.41"/>
<polygon fill="black" stroke="black" points="816.09,-637.85 825.7,-633.4 815.41,-630.89 816.09,-637.85"/>
</g>
</g>
</svg>
