<?xml version="1.0" encoding="UTF-8" standalone="no"?>
<!DOCTYPE svg PUBLIC "-//W3C//DTD SVG 1.1//EN"
 "http://www.w3.org/Graphics/SVG/1.1/DTD/svg11.dtd">
<!-- Generated by graphviz version 2.42.4 (0)
 -->
<!-- Title: dependencies Pages: 1 -->
<svg width="1134pt" height="751pt"
 viewBox="0.00 0.00 1134.00 751.00" xmlns="http://www.w3.org/2000/svg" xmlns:xlink="http://www.w3.org/1999/xlink">
<g id="graph0" class="graph" transform="scale(1 1) rotate(0) translate(4 747)">
<title>dependencies</title>
<polygon fill="white" stroke="transparent" points="-4,4 -4,-747 1130,-747 1130,4 -4,4"/>
<!-- roo_backport -->
<g id="node1" class="node">
<title>roo_backport</title>
<polygon fill="khaki" stroke="black" points="539.5,-284 450.5,-284 450.5,-246 539.5,-246 539.5,-284"/>
<text text-anchor="middle" x="495" y="-268.8" font-family="Times,serif" font-size="14.00">roo_backport</text>
<text text-anchor="middle" x="495" y="-253.8" font-family="Times,serif" font-size="14.00">1.1.1</text>
</g>
<!-- roo_blink -->
<g id="node2" class="node">
<title>roo_blink</title>
<polygon fill="#b1dbab" stroke="black" points="755.5,-572 686.5,-572 686.5,-534 755.5,-534 755.5,-572"/>
<text text-anchor="middle" x="721" y="-556.8" font-family="Times,serif" font-size="14.00">roo_blink</text>
<text text-anchor="middle" x="721" y="-541.8" font-family="Times,serif" font-size="14.00">1.0.2</text>
</g>
<!-- roo_logging -->
<g id="node13" class="node">
<title>roo_logging</title>
<polygon fill="khaki" stroke="black" points="743.5,-284 660.5,-284 660.5,-246 743.5,-246 743.5,-284"/>
<text text-anchor="middle" x="702" y="-268.8" font-family="Times,serif" font-size="14.00">roo_logging</text>
<text text-anchor="middle" x="702" y="-253.8" font-family="Times,serif" font-size="14.00">1.4.3</text>
</g>
<!-- roo_blink&#45;&gt;roo_logging -->
<g id="edge1" class="edge">
<title>roo_blink&#45;&gt;roo_logging</title>
<path fill="none" stroke="black" d="M719.78,-533.67C716.55,-485.04 707.74,-352.47 703.87,-294.16"/>
<polygon fill="black" stroke="black" points="707.36,-293.92 703.21,-284.17 700.38,-294.38 707.36,-293.92"/>
</g>
<!-- roo_scheduler -->
<g id="node19" class="node">
<title>roo_scheduler</title>
<polygon fill="#b1dbab" stroke="black" points="842.5,-476 749.5,-476 749.5,-438 842.5,-438 842.5,-476"/>
<text text-anchor="middle" x="796" y="-460.8" font-family="Times,serif" font-size="14.00">roo_scheduler</text>
<text text-anchor="middle" x="796" y="-445.8" font-family="Times,serif" font-size="14.00">2.1.5</text>
</g>
<!-- roo_blink&#45;&gt;roo_scheduler -->
<g id="edge2" class="edge">
<title>roo_blink&#45;&gt;roo_scheduler</title>
<path fill="none" stroke="black" d="M735.46,-533.88C746.77,-519.7 762.64,-499.81 775.3,-483.94"/>
<polygon fill="black" stroke="black" points="778.08,-486.07 781.58,-476.07 772.61,-481.7 778.08,-486.07"/>
</g>
<!-- roo_collections -->
<g id="node3" class="node">
<title>roo_collections</title>
<polygon fill="khaki" stroke="black" points="504,-380 404,-380 404,-342 504,-342 504,-380"/>
<text text-anchor="middle" x="454" y="-364.8" font-family="Times,serif" font-size="14.00">roo_collections</text>
<text text-anchor="middle" x="454" y="-349.8" font-family="Times,serif" font-size="14.00">1.3.2</text>
</g>
<!-- roo_collections&#45;&gt;roo_backport -->
<g id="edge3" class="edge">
<title>roo_collections&#45;&gt;roo_backport</title>
<path fill="none" stroke="black" d="M461.91,-341.88C467.92,-328.09 476.29,-308.9 483.11,-293.26"/>
<polygon fill="black" stroke="black" points="486.33,-294.63 487.12,-284.07 479.91,-291.84 486.33,-294.63"/>
</g>
<!-- roo_comms -->
<g id="node4" class="node">
<title>roo_comms</title>
<polygon fill="#b1dbab" stroke="black" points="780,-743 698,-743 698,-705 780,-705 780,-743"/>
<text text-anchor="middle" x="739" y="-727.8" font-family="Times,serif" font-size="14.00">roo_comms</text>
<text text-anchor="middle" x="739" y="-712.8" font-family="Times,serif" font-size="14.00">1.1.2</text>
</g>
<!-- roo_comms&#45;&gt;roo_blink -->
<g id="edge4" class="edge">
<title>roo_comms&#45;&gt;roo_blink</title>
<path fill="none" stroke="black" d="M737.07,-704.91C733.94,-675.51 727.72,-617.13 724.01,-582.23"/>
<polygon fill="black" stroke="black" points="727.48,-581.78 722.94,-572.21 720.52,-582.53 727.48,-581.78"/>
</g>
<!-- roo_control -->
<g id="node5" class="node">
<title>roo_control</title>
<polygon fill="#b1dbab" stroke="black" points="1044,-572 964,-572 964,-534 1044,-534 1044,-572"/>
<text text-anchor="middle" x="1004" y="-556.8" font-family="Times,serif" font-size="14.00">roo_control</text>
<text text-anchor="middle" x="1004" y="-541.8" font-family="Times,serif" font-size="14.00">1.2.2</text>
</g>
<!-- roo_comms&#45;&gt;roo_control -->
<g id="edge5" class="edge">
<title>roo_comms&#45;&gt;roo_control</title>
<path fill="none" stroke="black" d="M772.12,-704.97C797.41,-690.59 832.62,-669.24 861,-647 880.05,-632.07 880.44,-623.25 900,-609 916.87,-596.71 936.85,-585.47 954.76,-576.4"/>
<polygon fill="black" stroke="black" points="956.5,-579.44 963.91,-571.86 953.39,-573.17 956.5,-579.44"/>
</g>
<!-- roo_io -->
<g id="node10" class="node">
<title>roo_io</title>
<polygon fill="khaki" stroke="black" points="576,-380 522,-380 522,-342 576,-342 576,-380"/>
<text text-anchor="middle" x="549" y="-364.8" font-family="Times,serif" font-size="14.00">roo_io</text>
<text text-anchor="middle" x="549" y="-349.8" font-family="Times,serif" font-size="14.00">2.0.3</text>
</g>
<!-- roo_comms&#45;&gt;roo_io -->
<g id="edge6" class="edge">
<title>roo_comms&#45;&gt;roo_io</title>
<path fill="none" stroke="black" d="M730,-704.9C716.55,-677.05 691.35,-621.7 678,-572 662.4,-513.91 690.62,-489.17 659,-438 641.8,-410.16 610.18,-389.93 585.24,-377.38"/>
<polygon fill="black" stroke="black" points="586.58,-374.14 576.05,-372.94 583.54,-380.44 586.58,-374.14"/>
</g>
<!-- roo_transceivers -->
<g id="node24" class="node">
<title>roo_transceivers</title>
<polygon fill="#b1dbab" stroke="black" points="852,-647 746,-647 746,-609 852,-609 852,-647"/>
<text text-anchor="middle" x="799" y="-631.8" font-family="Times,serif" font-size="14.00">roo_transceivers</text>
<text text-anchor="middle" x="799" y="-616.8" font-family="Times,serif" font-size="14.00">1.1.3</text>
</g>
<!-- roo_comms&#45;&gt;roo_transceivers -->
<g id="edge7" class="edge">
<title>roo_comms&#45;&gt;roo_transceivers</title>
<path fill="none" stroke="black" d="M750.57,-704.88C759.45,-690.96 771.85,-671.53 781.88,-655.82"/>
<polygon fill="black" stroke="black" points="785.04,-657.38 787.47,-647.07 779.14,-653.61 785.04,-657.38"/>
</g>
<!-- roo_quantity -->
<g id="node18" class="node">
<title>roo_quantity</title>
<polygon fill="#b1dbab" stroke="black" points="989,-476 903,-476 903,-438 989,-438 989,-476"/>
<text text-anchor="middle" x="946" y="-460.8" font-family="Times,serif" font-size="14.00">roo_quantity</text>
<text text-anchor="middle" x="946" y="-445.8" font-family="Times,serif" font-size="14.00">1.1.3</text>
</g>
<!-- roo_control&#45;&gt;roo_quantity -->
<g id="edge8" class="edge">
<title>roo_control&#45;&gt;roo_quantity</title>
<path fill="none" stroke="black" d="M992.82,-533.88C984.23,-519.96 972.24,-500.53 962.55,-484.82"/>
<polygon fill="black" stroke="black" points="965.38,-482.74 957.15,-476.07 959.42,-486.42 965.38,-482.74"/>
</g>
<!-- roo_control&#45;&gt;roo_scheduler -->
<g id="edge9" class="edge">
<title>roo_control&#45;&gt;roo_scheduler</title>
<path fill="none" stroke="black" d="M963.9,-533.88C930.08,-518.6 881.56,-496.67 845.37,-480.31"/>
<polygon fill="black" stroke="black" points="846.54,-477 835.98,-476.07 843.65,-483.38 846.54,-477"/>
</g>
<!-- roo_dashboard -->
<g id="node6" class="node">
<title>roo_dashboard</title>
<polygon fill="plum" stroke="black" points="216.5,-743 119.5,-743 119.5,-705 216.5,-705 216.5,-743"/>
<text text-anchor="middle" x="168" y="-727.8" font-family="Times,serif" font-size="14.00">roo_dashboard</text>
<text text-anchor="middle" x="168" y="-712.8" font-family="Times,serif" font-size="14.00">1.0.1</text>
</g>
<!-- roo_testing -->
<g id="node20" class="node">
<title>roo_testing</title>
<polygon fill="khaki" stroke="black" points="231.5,-38 154.5,-38 154.5,0 231.5,0 231.5,-38"/>
<text text-anchor="middle" x="193" y="-22.8" font-family="Times,serif" font-size="14.00">roo_testing</text>
<text text-anchor="middle" x="193" y="-7.8" font-family="Times,serif" font-size="14.00">1.1.8</text>
</g>
<!-- roo_dashboard&#45;&gt;roo_testing -->
<g id="edge10" class="edge">
<title>roo_dashboard&#45;&gt;roo_testing</title>
<path fill="none" stroke="red" d="M119.41,-716.72C69.79,-707.25 0,-684.15 0,-629 0,-629 0,-629 0,-93 0,-62.16 87.29,-39.79 144.46,-28.44"/>
<polygon fill="red" stroke="red" points="145.25,-31.85 154.41,-26.51 143.92,-24.98 145.25,-31.85"/>
<text text-anchor="middle" x="27" y="-364" font-family="Times,serif" font-size="10.00" fill="red">1.1.7</text>
<text text-anchor="middle" x="27" y="-353" font-family="Times,serif" font-size="10.00" fill="red">(latest: 1.1.8)</text>
</g>
<!-- roo_windows -->
<g id="node27" class="node">
<title>roo_windows</title>
<polygon fill="khaki" stroke="black" points="459,-647 369,-647 369,-609 459,-609 459,-647"/>
<text text-anchor="middle" x="414" y="-631.8" font-family="Times,serif" font-size="14.00">roo_windows</text>
<text text-anchor="middle" x="414" y="-616.8" font-family="Times,serif" font-size="14.00">1.4.1</text>
</g>
<!-- roo_dashboard&#45;&gt;roo_windows -->
<g id="edge11" class="edge">
<title>roo_dashboard&#45;&gt;roo_windows</title>
<path fill="none" stroke="black" d="M215.14,-704.99C256.26,-689.28 315.93,-666.48 359.17,-649.95"/>
<polygon fill="black" stroke="black" points="360.59,-653.16 368.68,-646.32 358.09,-646.62 360.59,-653.16"/>
</g>
<!-- roo_display -->
<g id="node7" class="node">
<title>roo_display</title>
<polygon fill="khaki" stroke="black" points="299,-476 219,-476 219,-438 299,-438 299,-476"/>
<text text-anchor="middle" x="259" y="-460.8" font-family="Times,serif" font-size="14.00">roo_display</text>
<text text-anchor="middle" x="259" y="-445.8" font-family="Times,serif" font-size="14.00">2.3.1</text>
</g>
<!-- roo_display&#45;&gt;roo_collections -->
<g id="edge13" class="edge">
<title>roo_display&#45;&gt;roo_collections</title>
<path fill="none" stroke="black" d="M273.75,-437.78C285.11,-424.89 301.9,-408.15 320,-398 342.61,-385.31 369.89,-376.93 393.92,-371.48"/>
<polygon fill="black" stroke="black" points="394.96,-374.83 404,-369.31 393.49,-367.99 394.96,-374.83"/>
</g>
<!-- roo_display&#45;&gt;roo_io -->
<g id="edge14" class="edge">
<title>roo_display&#45;&gt;roo_io</title>
<path fill="none" stroke="red" d="M291.4,-437.88C316.27,-424.78 351.84,-407.73 385,-398 437.22,-382.67 456.14,-395.55 512.15,-379.64"/>
<polygon fill="red" stroke="red" points="513.3,-382.95 521.86,-376.71 511.28,-376.25 513.3,-382.95"/>
<text text-anchor="middle" x="412" y="-412" font-family="Times,serif" font-size="10.00" fill="red">2.0.2</text>
<text text-anchor="middle" x="412" y="-401" font-family="Times,serif" font-size="10.00" fill="red">(latest: 2.0.3)</text>
</g>
<!-- roo_display&#45;&gt;roo_testing -->
<g id="edge12" class="edge">
<title>roo_display&#45;&gt;roo_testing</title>
<path fill="none" stroke="red" d="M257.88,-437.78C256.38,-415.24 253.4,-375.69 249,-342 234.71,-232.58 209.82,-103.59 198.67,-47.9"/>
<polygon fill="red" stroke="red" points="202.1,-47.19 196.7,-38.07 195.24,-48.57 202.1,-47.19"/>
<text text-anchor="middle" x="259" y="-220" font-family="Times,serif" font-size="10.00" fill="red">1.1.7</text>
<text text-anchor="middle" x="259" y="-209" font-family="Times,serif" font-size="10.00" fill="red">(latest: 1.1.8)</text>
</g>
<!-- roo_flags -->
<g id="node8" class="node">
<title>roo_flags</title>
<polygon fill="khaki" stroke="black" points="523,-188 455,-188 455,-150 523,-150 523,-188"/>
<text text-anchor="middle" x="489" y="-172.8" font-family="Times,serif" font-size="14.00">roo_flags</text>
<text text-anchor="middle" x="489" y="-157.8" font-family="Times,serif" font-size="14.00">1.1.1</text>
</g>
<!-- roo_icons -->
<g id="node9" class="node">
<title>roo_icons</title>
<polygon fill="khaki" stroke="black" points="180,-572 110,-572 110,-534 180,-534 180,-572"/>
<text text-anchor="middle" x="145" y="-556.8" font-family="Times,serif" font-size="14.00">roo_icons</text>
<text text-anchor="middle" x="145" y="-541.8" font-family="Times,serif" font-size="14.00">1.2.1</text>
</g>
<!-- roo_icons&#45;&gt;roo_display -->
<g id="edge16" class="edge">
<title>roo_icons&#45;&gt;roo_display</title>
<path fill="none" stroke="black" d="M166.98,-533.88C184.64,-519.31 209.63,-498.71 229.11,-482.64"/>
<polygon fill="black" stroke="black" points="231.6,-485.13 237.09,-476.07 227.15,-479.73 231.6,-485.13"/>
</g>
<!-- roo_icons&#45;&gt;roo_testing -->
<g id="edge15" class="edge">
<title>roo_icons&#45;&gt;roo_testing</title>
<path fill="none" stroke="red" d="M145.64,-533.93C147.19,-488.77 151,-367.31 151,-266 151,-266 151,-266 151,-93 151,-75.97 159.7,-59.32 169.17,-46.24"/>
<polygon fill="red" stroke="red" points="172.06,-48.23 175.43,-38.18 166.53,-43.93 172.06,-48.23"/>
<text text-anchor="middle" x="178" y="-268" font-family="Times,serif" font-size="10.00" fill="red">1.1.7</text>
<text text-anchor="middle" x="178" y="-257" font-family="Times,serif" font-size="10.00" fill="red">(latest: 1.1.8)</text>
</g>
<!-- roo_io&#45;&gt;roo_backport -->
<g id="edge17" class="edge">
<title>roo_io&#45;&gt;roo_backport</title>
<path fill="none" stroke="black" d="M538.59,-341.88C530.59,-327.96 519.43,-308.53 510.41,-292.82"/>
<polygon fill="black" stroke="black" points="513.4,-291 505.38,-284.07 507.33,-294.48 513.4,-291"/>
</g>
<!-- roo_io&#45;&gt;roo_logging -->
<g id="edge18" class="edge">
<title>roo_io&#45;&gt;roo_logging</title>
<path fill="none" stroke="black" d="M573.46,-341.92C589.94,-330.04 612.36,-314.45 633,-302 640.4,-297.54 648.41,-293.06 656.27,-288.85"/>
<polygon fill="black" stroke="black" points="658.16,-291.81 665.37,-284.04 654.89,-285.62 658.16,-291.81"/>
</g>
<!-- roo_io_sdfat -->
<g id="node11" class="node">
<title>roo_io_sdfat</title>
<polygon fill="plum" stroke="black" points="1102.5,-743 1017.5,-743 1017.5,-705 1102.5,-705 1102.5,-743"/>
<text text-anchor="middle" x="1060" y="-727.8" font-family="Times,serif" font-size="14.00">roo_io_sdfat</text>
<text text-anchor="middle" x="1060" y="-712.8" font-family="Times,serif" font-size="14.00">1.0.0</text>
</g>
<!-- roo_locale -->
<g id="node12" class="node">
<title>roo_locale</title>
<polygon fill="#b1dbab" stroke="black" points="483,-572 409,-572 409,-534 483,-534 483,-572"/>
<text text-anchor="middle" x="446" y="-556.8" font-family="Times,serif" font-size="14.00">roo_locale</text>
<text text-anchor="middle" x="446" y="-541.8" font-family="Times,serif" font-size="14.00">1.1.1</text>
</g>
<!-- roo_logging&#45;&gt;roo_flags -->
<g id="edge19" class="edge">
<title>roo_logging&#45;&gt;roo_flags</title>
<path fill="none" stroke="black" d="M661.18,-245.99C624.21,-229.67 569.91,-205.71 532.22,-189.07"/>
<polygon fill="black" stroke="black" points="533.57,-185.84 523.01,-185.01 530.75,-192.25 533.57,-185.84"/>
</g>
<!-- roo_threads -->
<g id="node21" class="node">
<title>roo_threads</title>
<polygon fill="khaki" stroke="black" points="820,-188 740,-188 740,-150 820,-150 820,-188"/>
<text text-anchor="middle" x="780" y="-172.8" font-family="Times,serif" font-size="14.00">roo_threads</text>
<text text-anchor="middle" x="780" y="-157.8" font-family="Times,serif" font-size="14.00">1.1.6</text>
</g>
<!-- roo_logging&#45;&gt;roo_threads -->
<g id="edge20" class="edge">
<title>roo_logging&#45;&gt;roo_threads</title>
<path fill="none" stroke="black" d="M717.04,-245.88C728.8,-231.7 745.31,-211.81 758.47,-195.94"/>
<polygon fill="black" stroke="black" points="761.31,-198 765.01,-188.07 755.93,-193.53 761.31,-198"/>
</g>
<!-- roo_monitoring -->
<g id="node14" class="node">
<title>roo_monitoring</title>
<polygon fill="khaki" stroke="black" points="419,-476 317,-476 317,-438 419,-438 419,-476"/>
<text text-anchor="middle" x="368" y="-460.8" font-family="Times,serif" font-size="14.00">roo_monitoring</text>
<text text-anchor="middle" x="368" y="-445.8" font-family="Times,serif" font-size="14.00">1.0.0</text>
</g>
<!-- roo_monitoring&#45;&gt;roo_collections -->
<g id="edge21" class="edge">
<title>roo_monitoring&#45;&gt;roo_collections</title>
<path fill="none" stroke="black" d="M384.58,-437.88C397.67,-423.57 416.09,-403.44 430.66,-387.51"/>
<polygon fill="black" stroke="black" points="433.3,-389.81 437.47,-380.07 428.14,-385.08 433.3,-389.81"/>
</g>
<!-- roo_monitoring&#45;&gt;roo_io -->
<g id="edge22" class="edge">
<title>roo_monitoring&#45;&gt;roo_io</title>
<path fill="none" stroke="black" d="M402.9,-437.88C434.5,-421.46 480.87,-397.38 512.86,-380.77"/>
<polygon fill="black" stroke="black" points="514.62,-383.8 521.88,-376.09 511.39,-377.59 514.62,-383.8"/>
</g>
<!-- roo_onewire -->
<g id="node15" class="node">
<title>roo_onewire</title>
<polygon fill="#b1dbab" stroke="black" points="945.5,-572 860.5,-572 860.5,-534 945.5,-534 945.5,-572"/>
<text text-anchor="middle" x="903" y="-556.8" font-family="Times,serif" font-size="14.00">roo_onewire</text>
<text text-anchor="middle" x="903" y="-541.8" font-family="Times,serif" font-size="14.00">2.0.5</text>
</g>
<!-- roo_onewire&#45;&gt;roo_quantity -->
<g id="edge24" class="edge">
<title>roo_onewire&#45;&gt;roo_quantity</title>
<path fill="none" stroke="black" d="M911.29,-533.88C917.6,-520.09 926.38,-500.9 933.53,-485.26"/>
<polygon fill="black" stroke="black" points="936.76,-486.62 937.73,-476.07 930.39,-483.71 936.76,-486.62"/>
</g>
<!-- roo_onewire&#45;&gt;roo_scheduler -->
<g id="edge23" class="edge">
<title>roo_onewire&#45;&gt;roo_scheduler</title>
<path fill="none" stroke="black" d="M882.37,-533.88C865.94,-519.44 842.75,-499.07 824.54,-483.07"/>
<polygon fill="black" stroke="black" points="826.39,-480.04 816.57,-476.07 821.77,-485.3 826.39,-480.04"/>
</g>
<!-- roo_powersafefs -->
<g id="node16" class="node">
<title>roo_powersafefs</title>
<polygon fill="plum" stroke="black" points="868.5,-284 761.5,-284 761.5,-246 868.5,-246 868.5,-284"/>
<text text-anchor="middle" x="815" y="-268.8" font-family="Times,serif" font-size="14.00">roo_powersafefs</text>
<text text-anchor="middle" x="815" y="-253.8" font-family="Times,serif" font-size="14.00">1.0.0</text>
</g>
<!-- roo_powersafefs&#45;&gt;roo_threads -->
<g id="edge25" class="edge">
<title>roo_powersafefs&#45;&gt;roo_threads</title>
<path fill="none" stroke="black" d="M808.25,-245.88C803.17,-232.22 796.11,-213.26 790.32,-197.71"/>
<polygon fill="black" stroke="black" points="793.5,-196.22 786.73,-188.07 786.94,-198.66 793.5,-196.22"/>
</g>
<!-- roo_prefs -->
<g id="node17" class="node">
<title>roo_prefs</title>
<polygon fill="#b1dbab" stroke="black" points="842,-572 774,-572 774,-534 842,-534 842,-572"/>
<text text-anchor="middle" x="808" y="-556.8" font-family="Times,serif" font-size="14.00">roo_prefs</text>
<text text-anchor="middle" x="808" y="-541.8" font-family="Times,serif" font-size="14.00">1.2.3</text>
</g>
<!-- roo_prefs&#45;&gt;roo_logging -->
<g id="edge26" class="edge">
<title>roo_prefs&#45;&gt;roo_logging</title>
<path fill="none" stroke="black" d="M823.54,-533.88C840.82,-511.42 864.73,-471.97 852,-438 828.54,-375.4 770.84,-320.59 734.23,-290.51"/>
<polygon fill="black" stroke="black" points="736.28,-287.67 726.3,-284.11 731.89,-293.12 736.28,-287.67"/>
</g>
<!-- roo_prefs&#45;&gt;roo_scheduler -->
<g id="edge27" class="edge">
<title>roo_prefs&#45;&gt;roo_scheduler</title>
<path fill="none" stroke="black" d="M805.69,-533.88C803.96,-520.35 801.57,-501.62 799.59,-486.15"/>
<polygon fill="black" stroke="black" points="803.04,-485.54 798.31,-476.07 796.1,-486.43 803.04,-485.54"/>
</g>
<!-- roo_quantity&#45;&gt;roo_logging -->
<g id="edge28" class="edge">
<title>roo_quantity&#45;&gt;roo_logging</title>
<path fill="none" stroke="black" d="M944.56,-437.81C940.91,-404.93 928.24,-335.87 885,-302 863.56,-285.2 794.21,-289.97 753.48,-283.43"/>
<polygon fill="black" stroke="black" points="754.03,-279.97 743.54,-281.44 752.66,-286.83 754.03,-279.97"/>
</g>
<!-- roo_scheduler&#45;&gt;roo_collections -->
<g id="edge29" class="edge">
<title>roo_scheduler&#45;&gt;roo_collections</title>
<path fill="none" stroke="black" d="M749.29,-443.97C695.06,-429.89 602.67,-405.55 513.87,-380.21"/>
<polygon fill="black" stroke="black" points="514.75,-376.82 504.18,-377.43 512.83,-383.55 514.75,-376.82"/>
</g>
<!-- roo_scheduler&#45;&gt;roo_threads -->
<g id="edge30" class="edge">
<title>roo_scheduler&#45;&gt;roo_threads</title>
<path fill="none" stroke="black" d="M824.87,-437.96C863.03,-411.57 923.8,-359.31 909,-302 896.75,-254.58 853.15,-216.73 819.99,-193.93"/>
<polygon fill="black" stroke="black" points="821.64,-190.82 811.38,-188.18 817.76,-196.64 821.64,-190.82"/>
</g>
<!-- roo_time -->
<g id="node22" class="node">
<title>roo_time</title>
<polygon fill="khaki" stroke="black" points="485,-113 419,-113 419,-75 485,-75 485,-113"/>
<text text-anchor="middle" x="452" y="-97.8" font-family="Times,serif" font-size="14.00">roo_time</text>
<text text-anchor="middle" x="452" y="-82.8" font-family="Times,serif" font-size="14.00">1.3.3</text>
</g>
<!-- roo_threads&#45;&gt;roo_time -->
<g id="edge31" class="edge">
<title>roo_threads&#45;&gt;roo_time</title>
<path fill="none" stroke="black" d="M739.78,-159.05C677.72,-145.24 559.11,-118.84 495.26,-104.63"/>
<polygon fill="black" stroke="black" points="495.64,-101.13 485.12,-102.37 494.12,-107.96 495.64,-101.13"/>
</g>
<!-- roo_time&#45;&gt;roo_testing -->
<g id="edge32" class="edge">
<title>roo_time&#45;&gt;roo_testing</title>
<path fill="none" stroke="black" d="M418.93,-83.68C373.97,-71.01 293.21,-48.24 241.41,-33.64"/>
<polygon fill="black" stroke="black" points="242.35,-30.27 231.77,-30.93 240.45,-37.01 242.35,-30.27"/>
</g>
<!-- roo_time_ds3231 -->
<g id="node23" class="node">
<title>roo_time_ds3231</title>
<polygon fill="#b1dbab" stroke="black" points="653,-188 541,-188 541,-150 653,-150 653,-188"/>
<text text-anchor="middle" x="597" y="-172.8" font-family="Times,serif" font-size="14.00">roo_time_ds3231</text>
<text text-anchor="middle" x="597" y="-157.8" font-family="Times,serif" font-size="14.00">1.1.3</text>
</g>
<!-- roo_time_ds3231&#45;&gt;roo_time -->
<g id="edge33" class="edge">
<title>roo_time_ds3231&#45;&gt;roo_time</title>
<path fill="none" stroke="black" d="M561.16,-149.96C540.99,-139.8 515.7,-127.07 494.54,-116.41"/>
<polygon fill="black" stroke="black" points="495.95,-113.21 485.44,-111.84 492.8,-119.46 495.95,-113.21"/>
</g>
<!-- roo_transceivers&#45;&gt;roo_prefs -->
<g id="edge34" class="edge">
<title>roo_transceivers&#45;&gt;roo_prefs</title>
<path fill="none" stroke="black" d="M801.22,-608.96C802.22,-600.88 803.42,-591.18 804.53,-582.18"/>
<polygon fill="black" stroke="black" points="808.02,-582.44 805.77,-572.09 801.07,-581.59 808.02,-582.44"/>
</g>
<!-- roo_transport -->
<g id="node25" class="node">
<title>roo_transport</title>
<polygon fill="plum" stroke="black" points="526.5,-476 437.5,-476 437.5,-438 526.5,-438 526.5,-476"/>
<text text-anchor="middle" x="482" y="-460.8" font-family="Times,serif" font-size="14.00">roo_transport</text>
<text text-anchor="middle" x="482" y="-445.8" font-family="Times,serif" font-size="14.00">1.0.2</text>
</g>
<!-- roo_transport&#45;&gt;roo_collections -->
<g id="edge35" class="edge">
<title>roo_transport&#45;&gt;roo_collections</title>
<path fill="none" stroke="black" d="M476.6,-437.88C472.53,-424.22 466.89,-405.26 462.25,-389.71"/>
<polygon fill="black" stroke="black" points="465.59,-388.65 459.38,-380.07 458.88,-390.65 465.59,-388.65"/>
</g>
<!-- roo_transport&#45;&gt;roo_io -->
<g id="edge36" class="edge">
<title>roo_transport&#45;&gt;roo_io</title>
<path fill="none" stroke="black" d="M494.92,-437.88C504.93,-423.83 518.94,-404.17 530.2,-388.38"/>
<polygon fill="black" stroke="black" points="533.17,-390.24 536.12,-380.07 527.47,-386.18 533.17,-390.24"/>
</g>
<!-- roo_wifi -->
<g id="node26" class="node">
<title>roo_wifi</title>
<polygon fill="#b1dbab" stroke="black" points="971.5,-647 908.5,-647 908.5,-609 971.5,-609 971.5,-647"/>
<text text-anchor="middle" x="940" y="-631.8" font-family="Times,serif" font-size="14.00">roo_wifi</text>
<text text-anchor="middle" x="940" y="-616.8" font-family="Times,serif" font-size="14.00">1.1.2</text>
</g>
<!-- roo_wifi&#45;&gt;roo_prefs -->
<g id="edge37" class="edge">
<title>roo_wifi&#45;&gt;roo_prefs</title>
<path fill="none" stroke="black" d="M908.38,-609.51C890.74,-599.76 868.54,-587.48 849.51,-576.96"/>
<polygon fill="black" stroke="black" points="851.18,-573.88 840.74,-572.11 847.79,-580.01 851.18,-573.88"/>
</g>
<!-- roo_windows&#45;&gt;roo_icons -->
<g id="edge41" class="edge">
<title>roo_windows&#45;&gt;roo_icons</title>
<path fill="none" stroke="black" d="M368.84,-625.91C323.08,-623.39 251.11,-615.45 194,-591 186.56,-587.81 179.22,-583.26 172.58,-578.44"/>
<polygon fill="black" stroke="black" points="174.64,-575.6 164.58,-572.26 170.36,-581.14 174.64,-575.6"/>
</g>
<!-- roo_windows&#45;&gt;roo_io -->
<g id="edge42" class="edge">
<title>roo_windows&#45;&gt;roo_io</title>
<path fill="none" stroke="red" d="M404.5,-608.99C395.4,-589.02 385.09,-556.63 400,-534 435.92,-479.47 495.81,-528.24 535,-476 553.43,-451.44 554.75,-415.17 552.88,-390.17"/>
<polygon fill="red" stroke="red" points="556.36,-389.83 551.92,-380.22 549.4,-390.5 556.36,-389.83"/>
<text text-anchor="middle" x="541" y="-508" font-family="Times,serif" font-size="10.00" fill="red">2.0.2</text>
<text text-anchor="middle" x="541" y="-497" font-family="Times,serif" font-size="10.00" fill="red">(latest: 2.0.3)</text>
</g>
<!-- roo_windows&#45;&gt;roo_locale -->
<g id="edge39" class="edge">
<title>roo_windows&#45;&gt;roo_locale</title>
<path fill="none" stroke="black" d="M421.91,-608.96C425.56,-600.62 429.98,-590.54 434.03,-581.3"/>
<polygon fill="black" stroke="black" points="437.26,-582.65 438.07,-572.09 430.85,-579.84 437.26,-582.65"/>
</g>
<!-- roo_windows&#45;&gt;roo_logging -->
<g id="edge40" class="edge">
<title>roo_windows&#45;&gt;roo_logging</title>
<path fill="none" stroke="red" d="M459.26,-623.48C497.79,-618.19 552.26,-604.99 587,-572 628.9,-532.21 676.89,-362.15 694.79,-294.21"/>
<polygon fill="red" stroke="red" points="698.25,-294.77 697.39,-284.21 691.48,-293.01 698.25,-294.77"/>
<text text-anchor="middle" x="678" y="-460" font-family="Times,serif" font-size="10.00" fill="red">1.4.2</text>
<text text-anchor="middle" x="678" y="-449" font-family="Times,serif" font-size="10.00" fill="red">(latest: 1.4.3)</text>
</g>
<!-- roo_windows&#45;&gt;roo_scheduler -->
<g id="edge43" class="edge">
<title>roo_windows&#45;&gt;roo_scheduler</title>
<path fill="none" stroke="red" d="M454.65,-608.99C496.95,-590.25 565.11,-560.05 624,-534 664.93,-515.89 711.36,-495.38 745.65,-480.23"/>
<polygon fill="red" stroke="red" points="747.25,-483.35 754.99,-476.11 744.43,-476.95 747.25,-483.35"/>
<text text-anchor="middle" x="651" y="-556" font-family="Times,serif" font-size="10.00" fill="red">2.1.4</text>
<text text-anchor="middle" x="651" y="-545" font-family="Times,serif" font-size="10.00" fill="red">(latest: 2.1.5)</text>
</g>
<!-- roo_windows&#45;&gt;roo_testing -->
<g id="edge38" class="edge">
<title>roo_windows&#45;&gt;roo_testing</title>
<path fill="none" stroke="red" d="M368.88,-626.41C278.1,-623.99 82,-612.06 82,-554 82,-554 82,-554 82,-93 82,-60.84 114.92,-42.06 144.9,-31.62"/>
<polygon fill="red" stroke="red" points="146.05,-34.93 154.49,-28.52 143.9,-28.27 146.05,-34.93"/>
<text text-anchor="middle" x="109" y="-316" font-family="Times,serif" font-size="10.00" fill="red">1.1.7</text>
<text text-anchor="middle" x="109" y="-305" font-family="Times,serif" font-size="10.00" fill="red">(latest: 1.1.8)</text>
</g>
<!-- roo_windows&#45;&gt;roo_time -->
<g id="edge44" class="edge">
<title>roo_windows&#45;&gt;roo_time</title>
<path fill="none" stroke="red" d="M374.38,-608.96C327.34,-585.38 250.19,-539.47 210,-476 177.82,-425.18 178.78,-400.9 191,-342 197.7,-309.74 227.82,-230.35 250,-206 294.06,-157.63 364.24,-125.77 409.2,-109.06"/>
<polygon fill="red" stroke="red" points="410.46,-112.32 418.67,-105.62 408.07,-105.74 410.46,-112.32"/>
<text text-anchor="middle" x="218" y="-364" font-family="Times,serif" font-size="10.00" fill="red">1.3.2</text>
<text text-anchor="middle" x="218" y="-353" font-family="Times,serif" font-size="10.00" fill="red">(latest: 1.3.3)</text>
</g>
<!-- roo_windows_transceivers -->
<g id="node28" class="node">
<title>roo_windows_transceivers</title>
<polygon fill="khaki" stroke="black" points="645.5,-743 484.5,-743 484.5,-705 645.5,-705 645.5,-743"/>
<text text-anchor="middle" x="565" y="-727.8" font-family="Times,serif" font-size="14.00">roo_windows_transceivers</text>
<text text-anchor="middle" x="565" y="-712.8" font-family="Times,serif" font-size="14.00">1.0.0</text>
</g>
<!-- roo_windows_transceivers&#45;&gt;roo_transceivers -->
<g id="edge45" class="edge">
<title>roo_windows_transceivers&#45;&gt;roo_transceivers</title>
<path fill="none" stroke="black" d="M609.84,-704.99C648.25,-689.56 703.69,-667.29 744.63,-650.84"/>
<polygon fill="black" stroke="black" points="745.94,-654.09 753.91,-647.11 743.33,-647.59 745.94,-654.09"/>
</g>
<!-- roo_windows_transceivers&#45;&gt;roo_windows -->
<g id="edge46" class="edge">
<title>roo_windows_transceivers&#45;&gt;roo_windows</title>
<path fill="none" stroke="black" d="M535.89,-704.88C511.86,-689.92 477.61,-668.6 451.53,-652.36"/>
<polygon fill="black" stroke="black" points="453.36,-649.38 443.02,-647.07 449.66,-655.32 453.36,-649.38"/>
</g>
<!-- roo_windows_wifi -->
<g id="node29" class="node">
<title>roo_windows_wifi</title>
<polygon fill="plum" stroke="black" points="999.5,-743 880.5,-743 880.5,-705 999.5,-705 999.5,-743"/>
<text text-anchor="middle" x="940" y="-727.8" font-family="Times,serif" font-size="14.00">roo_windows_wifi</text>
<text text-anchor="middle" x="940" y="-712.8" font-family="Times,serif" font-size="14.00">1.1.2</text>
</g>
<!-- roo_windows_wifi&#45;&gt;roo_testing -->
<g id="edge47" class="edge">
<title>roo_windows_wifi&#45;&gt;roo_testing</title>
<path fill="none" stroke="red" d="M999.82,-705.62C1034.75,-691.4 1072,-667.26 1072,-629 1072,-629 1072,-629 1072,-93 1072,-51.01 426.57,-27.38 241.85,-21.48"/>
<polygon fill="red" stroke="red" points="241.72,-17.97 231.62,-21.15 241.5,-24.97 241.72,-17.97"/>
<text text-anchor="middle" x="1099" y="-364" font-family="Times,serif" font-size="10.00" fill="red">1.1.7</text>
<text text-anchor="middle" x="1099" y="-353" font-family="Times,serif" font-size="10.00" fill="red">(latest: 1.1.8)</text>
</g>
<!-- roo_windows_wifi&#45;&gt;roo_wifi -->
<g id="edge48" class="edge">
<title>roo_windows_wifi&#45;&gt;roo_wifi</title>
<path fill="none" stroke="red" d="M940,-704.88C940,-691.35 940,-672.62 940,-657.15"/>
<polygon fill="red" stroke="red" points="943.5,-657.07 940,-647.07 936.5,-657.07 943.5,-657.07"/>
<text text-anchor="middle" x="967" y="-679" font-family="Times,serif" font-size="10.00" fill="red">1.1.1</text>
<text text-anchor="middle" x="967" y="-668" font-family="Times,serif" font-size="10.00" fill="red">(latest: 1.1.2)</text>
</g>
<!-- roo_windows_wifi&#45;&gt;roo_windows -->
<g id="edge49" class="edge">
<title>roo_windows_wifi&#45;&gt;roo_windows</title>
<path fill="none" stroke="black" d="M880.43,-712.35C777.71,-694 568.74,-656.65 469.16,-638.86"/>
<polygon fill="black" stroke="black" points="469.75,-635.41 459.29,-637.09 468.52,-642.3 469.75,-635.41"/>
</g>
</g>
</svg>
