<?xml version="1.0" encoding="UTF-8" standalone="no"?>
<!DOCTYPE svg PUBLIC "-//W3C//DTD SVG 1.1//EN"
 "http://www.w3.org/Graphics/SVG/1.1/DTD/svg11.dtd">
<!-- Generated by graphviz version 2.42.4 (0)
 -->
<!-- Title: dependencies Pages: 1 -->
<svg width="1086pt" height="772pt"
 viewBox="0.00 0.00 1085.50 772.00" xmlns="http://www.w3.org/2000/svg" xmlns:xlink="http://www.w3.org/1999/xlink">
<g id="graph0" class="graph" transform="scale(1 1) rotate(0) translate(4 768)">
<title>dependencies</title>
<polygon fill="white" stroke="transparent" points="-4,4 -4,-768 1081.5,-768 1081.5,4 -4,4"/>
<!-- roo_backport -->
<g id="node1" class="node">
<title>roo_backport</title>
<polygon fill="#b1dbab" stroke="black" points="543,-209 433,-209 433,-171 543,-171 543,-209"/>
<text text-anchor="middle" x="488" y="-193.8" font-family="Times,serif" font-size="14.00">roo_backport</text>
<text text-anchor="middle" x="488" y="-178.8" font-family="Times,serif" font-size="14.00">1.2.2</text>
</g>
<!-- roo_blink -->
<g id="node2" class="node">
<title>roo_blink</title>
<polygon fill="#b1dbab" stroke="black" points="962,-572 880,-572 880,-534 962,-534 962,-572"/>
<text text-anchor="middle" x="921" y="-556.8" font-family="Times,serif" font-size="14.00">roo_blink</text>
<text text-anchor="middle" x="921" y="-541.8" font-family="Times,serif" font-size="14.00">1.0.6</text>
</g>
<!-- roo_logging -->
<g id="node13" class="node">
<title>roo_logging</title>
<polygon fill="#b1dbab" stroke="red" points="795,-305 695,-305 695,-267 795,-267 795,-305"/>
<text text-anchor="middle" x="745" y="-289.8" font-family="Times,serif" font-size="14.00">roo_logging</text>
<text text-anchor="middle" x="745" y="-274.8" font-family="Times,serif" font-size="14.00">1.5.5</text>
</g>
<!-- roo_blink&#45;&gt;roo_logging -->
<g id="edge1" class="edge">
<title>roo_blink&#45;&gt;roo_logging</title>
<path fill="none" stroke="black" d="M923.43,-533.7C925.72,-510.39 926.99,-469.34 913,-438 887.39,-380.61 828.02,-335.91 787.18,-310.49"/>
<polygon fill="black" stroke="black" points="788.87,-307.42 778.51,-305.21 785.23,-313.4 788.87,-307.42"/>
</g>
<!-- roo_scheduler -->
<g id="node19" class="node">
<title>roo_scheduler</title>
<polygon fill="#b1dbab" stroke="black" points="426,-476 310,-476 310,-438 426,-438 426,-476"/>
<text text-anchor="middle" x="368" y="-460.8" font-family="Times,serif" font-size="14.00">roo_scheduler</text>
<text text-anchor="middle" x="368" y="-445.8" font-family="Times,serif" font-size="14.00">2.1.9</text>
</g>
<!-- roo_blink&#45;&gt;roo_scheduler -->
<g id="edge2" class="edge">
<title>roo_blink&#45;&gt;roo_scheduler</title>
<path fill="none" stroke="black" d="M879.73,-536.4C876.8,-535.52 873.87,-534.71 871,-534 745.1,-502.98 710.57,-510.82 582,-494 517.17,-485.52 500.19,-488.39 436,-476 435.9,-475.98 435.8,-475.96 435.7,-475.94"/>
<polygon fill="black" stroke="black" points="436.62,-472.56 426.12,-473.94 435.19,-479.41 436.62,-472.56"/>
</g>
<!-- roo_collections -->
<g id="node3" class="node">
<title>roo_collections</title>
<polygon fill="#b1dbab" stroke="black" points="472,-380 350,-380 350,-342 472,-342 472,-380"/>
<text text-anchor="middle" x="411" y="-364.8" font-family="Times,serif" font-size="14.00">roo_collections</text>
<text text-anchor="middle" x="411" y="-349.8" font-family="Times,serif" font-size="14.00">1.4.3</text>
</g>
<!-- roo_collections&#45;&gt;roo_backport -->
<g id="edge3" class="edge">
<title>roo_collections&#45;&gt;roo_backport</title>
<path fill="none" stroke="black" d="M419.24,-341.91C432.75,-312.26 459.69,-253.12 475.55,-218.33"/>
<polygon fill="black" stroke="black" points="478.74,-219.76 479.7,-209.21 472.37,-216.86 478.74,-219.76"/>
</g>
<!-- roo_comms -->
<g id="node4" class="node">
<title>roo_comms</title>
<polygon fill="#b1dbab" stroke="red" points="835.5,-764 738.5,-764 738.5,-726 835.5,-726 835.5,-764"/>
<text text-anchor="middle" x="787" y="-748.8" font-family="Times,serif" font-size="14.00">roo_comms</text>
<text text-anchor="middle" x="787" y="-733.8" font-family="Times,serif" font-size="14.00">1.1.4</text>
</g>
<!-- roo_comms&#45;&gt;roo_blink -->
<g id="edge4" class="edge">
<title>roo_comms&#45;&gt;roo_blink</title>
<path fill="none" stroke="black" d="M799.85,-725.78C823.66,-692.02 874.73,-619.61 902.35,-580.45"/>
<polygon fill="black" stroke="black" points="905.29,-582.35 908.19,-572.16 899.57,-578.32 905.29,-582.35"/>
</g>
<!-- roo_control -->
<g id="node5" class="node">
<title>roo_control</title>
<polygon fill="#b1dbab" stroke="black" points="1077.5,-572 980.5,-572 980.5,-534 1077.5,-534 1077.5,-572"/>
<text text-anchor="middle" x="1029" y="-556.8" font-family="Times,serif" font-size="14.00">roo_control</text>
<text text-anchor="middle" x="1029" y="-541.8" font-family="Times,serif" font-size="14.00">1.2.5</text>
</g>
<!-- roo_comms&#45;&gt;roo_control -->
<g id="edge5" class="edge">
<title>roo_comms&#45;&gt;roo_control</title>
<path fill="none" stroke="black" d="M810.96,-725.75C818.37,-720.09 826.54,-713.81 834,-708 892.25,-662.69 959.72,-609.17 998.08,-578.65"/>
<polygon fill="black" stroke="black" points="1000.63,-581.1 1006.27,-572.13 996.27,-575.62 1000.63,-581.1"/>
</g>
<!-- roo_io -->
<g id="node11" class="node">
<title>roo_io</title>
<polygon fill="#b1dbab" stroke="red" points="693.5,-380 634.5,-380 634.5,-342 693.5,-342 693.5,-380"/>
<text text-anchor="middle" x="664" y="-364.8" font-family="Times,serif" font-size="14.00">roo_io</text>
<text text-anchor="middle" x="664" y="-349.8" font-family="Times,serif" font-size="14.00">2.1.5</text>
</g>
<!-- roo_comms&#45;&gt;roo_io -->
<g id="edge6" class="edge">
<title>roo_comms&#45;&gt;roo_io</title>
<path fill="none" stroke="black" d="M767.7,-725.8C751.17,-708.17 730,-679.77 730,-650 730,-650 730,-650 730,-456 730,-429.13 711.71,-404.5 694.39,-387.2"/>
<polygon fill="black" stroke="black" points="696.74,-384.61 687.08,-380.25 691.92,-389.68 696.74,-384.61"/>
</g>
<!-- roo_transceivers -->
<g id="node24" class="node">
<title>roo_transceivers</title>
<polygon fill="#b1dbab" stroke="black" points="503.5,-668 368.5,-668 368.5,-630 503.5,-630 503.5,-668"/>
<text text-anchor="middle" x="436" y="-652.8" font-family="Times,serif" font-size="14.00">roo_transceivers</text>
<text text-anchor="middle" x="436" y="-637.8" font-family="Times,serif" font-size="14.00">1.1.6</text>
</g>
<!-- roo_comms&#45;&gt;roo_transceivers -->
<g id="edge7" class="edge">
<title>roo_comms&#45;&gt;roo_transceivers</title>
<path fill="none" stroke="red" d="M738.26,-737.12C711.08,-731.86 677.31,-722.9 650,-708 637.3,-701.07 639.03,-692.29 626,-686 582.89,-665.18 565.03,-676.29 513.56,-667.89"/>
<polygon fill="red" stroke="red" points="514.01,-664.41 503.55,-666.08 512.77,-671.3 514.01,-664.41"/>
<text text-anchor="middle" x="683" y="-700" font-family="Times,serif" font-size="10.00" fill="red">1.1.5</text>
<text text-anchor="middle" x="683" y="-689" font-family="Times,serif" font-size="10.00" fill="red">(latest: 1.1.6)</text>
</g>
<!-- roo_quantity -->
<g id="node18" class="node">
<title>roo_quantity</title>
<polygon fill="#b1dbab" stroke="black" points="903.5,-476 796.5,-476 796.5,-438 903.5,-438 903.5,-476"/>
<text text-anchor="middle" x="850" y="-460.8" font-family="Times,serif" font-size="14.00">roo_quantity</text>
<text text-anchor="middle" x="850" y="-445.8" font-family="Times,serif" font-size="14.00">1.1.8</text>
</g>
<!-- roo_control&#45;&gt;roo_quantity -->
<g id="edge8" class="edge">
<title>roo_control&#45;&gt;roo_quantity</title>
<path fill="none" stroke="black" d="M994.49,-533.88C965.64,-518.73 924.34,-497.04 893.28,-480.73"/>
<polygon fill="black" stroke="black" points="894.89,-477.62 884.41,-476.07 891.63,-483.82 894.89,-477.62"/>
</g>
<!-- roo_control&#45;&gt;roo_scheduler -->
<g id="edge9" class="edge">
<title>roo_control&#45;&gt;roo_scheduler</title>
<path fill="none" stroke="black" d="M980.42,-536.32C977.24,-535.48 974.08,-534.7 971,-534 850.54,-506.72 818.8,-507.16 696,-494 580.83,-481.65 550.28,-494.91 436,-476 435.9,-475.98 435.8,-475.97 435.69,-475.95"/>
<polygon fill="black" stroke="black" points="436.55,-472.55 426.08,-474.15 435.27,-479.43 436.55,-472.55"/>
</g>
<!-- roo_dashboard -->
<g id="node6" class="node">
<title>roo_dashboard</title>
<polygon fill="plum" stroke="red" points="247,-764 125,-764 125,-726 247,-726 247,-764"/>
<text text-anchor="middle" x="186" y="-748.8" font-family="Times,serif" font-size="14.00">roo_dashboard</text>
<text text-anchor="middle" x="186" y="-733.8" font-family="Times,serif" font-size="14.00">1.0.1</text>
</g>
<!-- roo_windows -->
<g id="node27" class="node">
<title>roo_windows</title>
<polygon fill="khaki" stroke="red" points="349.5,-668 240.5,-668 240.5,-630 349.5,-630 349.5,-668"/>
<text text-anchor="middle" x="295" y="-652.8" font-family="Times,serif" font-size="14.00">roo_windows</text>
<text text-anchor="middle" x="295" y="-637.8" font-family="Times,serif" font-size="14.00">1.4.2</text>
</g>
<!-- roo_dashboard&#45;&gt;roo_windows -->
<g id="edge10" class="edge">
<title>roo_dashboard&#45;&gt;roo_windows</title>
<path fill="none" stroke="red" d="M201.78,-725.8C212.54,-713.86 227.44,-698.26 242,-686 246.91,-681.86 252.31,-677.76 257.72,-673.89"/>
<polygon fill="red" stroke="red" points="259.94,-676.6 266.16,-668.02 255.95,-670.85 259.94,-676.6"/>
<text text-anchor="middle" x="275" y="-700" font-family="Times,serif" font-size="10.00" fill="red">1.4.1</text>
<text text-anchor="middle" x="275" y="-689" font-family="Times,serif" font-size="10.00" fill="red">(latest: 1.4.2)</text>
</g>
<!-- roo_display -->
<g id="node7" class="node">
<title>roo_display</title>
<polygon fill="khaki" stroke="black" points="292,-476 194,-476 194,-438 292,-438 292,-476"/>
<text text-anchor="middle" x="243" y="-460.8" font-family="Times,serif" font-size="14.00">roo_display</text>
<text text-anchor="middle" x="243" y="-445.8" font-family="Times,serif" font-size="14.00">3.0.2</text>
</g>
<!-- roo_display&#45;&gt;roo_collections -->
<g id="edge11" class="edge">
<title>roo_display&#45;&gt;roo_collections</title>
<path fill="none" stroke="black" d="M275.39,-437.88C302.24,-422.86 340.56,-401.41 369.62,-385.15"/>
<polygon fill="black" stroke="black" points="371.69,-388.01 378.71,-380.07 368.27,-381.9 371.69,-388.01"/>
</g>
<!-- roo_display&#45;&gt;roo_io -->
<g id="edge12" class="edge">
<title>roo_display&#45;&gt;roo_io</title>
<path fill="none" stroke="black" d="M292.18,-439.95C295.15,-439.23 298.1,-438.57 301,-438 392.93,-420.01 421.99,-449.2 511,-420 528.82,-414.15 529.91,-405.71 547,-398 571.98,-386.74 601.47,-377.69 624.6,-371.48"/>
<polygon fill="black" stroke="black" points="625.62,-374.83 634.41,-368.91 623.85,-368.06 625.62,-374.83"/>
</g>
<!-- roo_flags -->
<g id="node8" class="node">
<title>roo_flags</title>
<polygon fill="#b1dbab" stroke="black" points="784,-209 704,-209 704,-171 784,-171 784,-209"/>
<text text-anchor="middle" x="744" y="-193.8" font-family="Times,serif" font-size="14.00">roo_flags</text>
<text text-anchor="middle" x="744" y="-178.8" font-family="Times,serif" font-size="14.00">1.2.3</text>
</g>
<!-- roo_fonts_basic -->
<g id="node9" class="node">
<title>roo_fonts_basic</title>
<polygon fill="#b1dbab" stroke="red" points="126,-572 0,-572 0,-534 126,-534 126,-572"/>
<text text-anchor="middle" x="63" y="-556.8" font-family="Times,serif" font-size="14.00">roo_fonts_basic</text>
<text text-anchor="middle" x="63" y="-541.8" font-family="Times,serif" font-size="14.00">1.0.1</text>
</g>
<!-- roo_fonts_basic&#45;&gt;roo_display -->
<g id="edge13" class="edge">
<title>roo_fonts_basic&#45;&gt;roo_display</title>
<path fill="none" stroke="red" d="M97.71,-533.88C126.72,-518.73 168.24,-497.04 199.47,-480.73"/>
<polygon fill="red" stroke="red" points="201.16,-483.8 208.4,-476.07 197.92,-477.6 201.16,-483.8"/>
<text text-anchor="middle" x="203" y="-508" font-family="Times,serif" font-size="10.00" fill="red">3.0.1</text>
<text text-anchor="middle" x="203" y="-497" font-family="Times,serif" font-size="10.00" fill="red">(latest: 3.0.2)</text>
</g>
<!-- roo_icons -->
<g id="node10" class="node">
<title>roo_icons</title>
<polygon fill="#b1dbab" stroke="black" points="333.5,-572 250.5,-572 250.5,-534 333.5,-534 333.5,-572"/>
<text text-anchor="middle" x="292" y="-556.8" font-family="Times,serif" font-size="14.00">roo_icons</text>
<text text-anchor="middle" x="292" y="-541.8" font-family="Times,serif" font-size="14.00">1.2.2</text>
</g>
<!-- roo_icons&#45;&gt;roo_display -->
<g id="edge14" class="edge">
<title>roo_icons&#45;&gt;roo_display</title>
<path fill="none" stroke="black" d="M282.55,-533.88C275.37,-520.09 265.36,-500.9 257.21,-485.26"/>
<polygon fill="black" stroke="black" points="260.14,-483.32 252.42,-476.07 253.94,-486.55 260.14,-483.32"/>
</g>
<!-- roo_io&#45;&gt;roo_logging -->
<g id="edge15" class="edge">
<title>roo_io&#45;&gt;roo_logging</title>
<path fill="none" stroke="black" d="M684.02,-341.96C694.05,-332.92 706.35,-321.83 717.27,-311.99"/>
<polygon fill="black" stroke="black" points="719.84,-314.39 724.93,-305.09 715.16,-309.19 719.84,-314.39"/>
</g>
<!-- roo_locale -->
<g id="node12" class="node">
<title>roo_locale</title>
<polygon fill="#b1dbab" stroke="black" points="232,-572 144,-572 144,-534 232,-534 232,-572"/>
<text text-anchor="middle" x="188" y="-556.8" font-family="Times,serif" font-size="14.00">roo_locale</text>
<text text-anchor="middle" x="188" y="-541.8" font-family="Times,serif" font-size="14.00">1.1.2</text>
</g>
<!-- roo_logging&#45;&gt;roo_backport -->
<g id="edge16" class="edge">
<title>roo_logging&#45;&gt;roo_backport</title>
<path fill="none" stroke="black" d="M725.45,-266.83C708.01,-250.79 684.41,-229.55 679,-227 633.8,-205.67 617.07,-218.49 568,-209 563.27,-208.09 558.39,-207.1 553.49,-206.07"/>
<polygon fill="black" stroke="black" points="553.94,-202.59 543.43,-203.93 552.48,-209.44 553.94,-202.59"/>
</g>
<!-- roo_logging&#45;&gt;roo_flags -->
<g id="edge17" class="edge">
<title>roo_logging&#45;&gt;roo_flags</title>
<path fill="none" stroke="black" d="M744.81,-266.88C744.66,-253.35 744.46,-234.62 744.3,-219.15"/>
<polygon fill="black" stroke="black" points="747.8,-219.03 744.19,-209.07 740.8,-219.11 747.8,-219.03"/>
</g>
<!-- roo_threads -->
<g id="node21" class="node">
<title>roo_threads</title>
<polygon fill="#b1dbab" stroke="red" points="677.5,-209 576.5,-209 576.5,-171 677.5,-171 677.5,-209"/>
<text text-anchor="middle" x="627" y="-193.8" font-family="Times,serif" font-size="14.00">roo_threads</text>
<text text-anchor="middle" x="627" y="-178.8" font-family="Times,serif" font-size="14.00">1.2.3</text>
</g>
<!-- roo_logging&#45;&gt;roo_threads -->
<g id="edge18" class="edge">
<title>roo_logging&#45;&gt;roo_threads</title>
<path fill="none" stroke="black" d="M735.87,-266.86C728.84,-254.34 718.1,-238.03 705,-227 699.27,-222.18 692.79,-217.87 686.08,-214.04"/>
<polygon fill="black" stroke="black" points="687.3,-210.73 676.82,-209.14 684.02,-216.91 687.3,-210.73"/>
</g>
<!-- roo_monitoring -->
<g id="node14" class="node">
<title>roo_monitoring</title>
<polygon fill="plum" stroke="red" points="569.5,-476 444.5,-476 444.5,-438 569.5,-438 569.5,-476"/>
<text text-anchor="middle" x="507" y="-460.8" font-family="Times,serif" font-size="14.00">roo_monitoring</text>
<text text-anchor="middle" x="507" y="-445.8" font-family="Times,serif" font-size="14.00">1.0.0</text>
</g>
<!-- roo_monitoring&#45;&gt;roo_collections -->
<g id="edge19" class="edge">
<title>roo_monitoring&#45;&gt;roo_collections</title>
<path fill="none" stroke="red" d="M488.16,-437.7C482.33,-432.04 475.89,-425.77 470,-420 459.01,-409.25 446.9,-397.35 436.52,-387.14"/>
<polygon fill="red" stroke="red" points="438.9,-384.57 429.31,-380.05 433.99,-389.56 438.9,-384.57"/>
<text text-anchor="middle" x="503" y="-412" font-family="Times,serif" font-size="10.00" fill="red">1.4.1</text>
<text text-anchor="middle" x="503" y="-401" font-family="Times,serif" font-size="10.00" fill="red">(latest: 1.4.3)</text>
</g>
<!-- roo_monitoring&#45;&gt;roo_io -->
<g id="edge20" class="edge">
<title>roo_monitoring&#45;&gt;roo_io</title>
<path fill="none" stroke="red" d="M527.67,-437.79C542.2,-425.55 562.47,-409.6 582,-398 595.47,-390 611.04,-382.72 624.96,-376.84"/>
<polygon fill="red" stroke="red" points="626.39,-380.04 634.3,-372.99 623.72,-373.56 626.39,-380.04"/>
<text text-anchor="middle" x="615" y="-412" font-family="Times,serif" font-size="10.00" fill="red">2.1.4</text>
<text text-anchor="middle" x="615" y="-401" font-family="Times,serif" font-size="10.00" fill="red">(latest: 2.1.5)</text>
</g>
<!-- roo_onewire -->
<g id="node15" class="node">
<title>roo_onewire</title>
<polygon fill="#b1dbab" stroke="black" points="862,-572 758,-572 758,-534 862,-534 862,-572"/>
<text text-anchor="middle" x="810" y="-556.8" font-family="Times,serif" font-size="14.00">roo_onewire</text>
<text text-anchor="middle" x="810" y="-541.8" font-family="Times,serif" font-size="14.00">2.0.9</text>
</g>
<!-- roo_onewire&#45;&gt;roo_quantity -->
<g id="edge22" class="edge">
<title>roo_onewire&#45;&gt;roo_quantity</title>
<path fill="none" stroke="black" d="M817.71,-533.88C823.52,-520.22 831.59,-501.26 838.21,-485.71"/>
<polygon fill="black" stroke="black" points="841.62,-486.64 842.31,-476.07 835.18,-483.9 841.62,-486.64"/>
</g>
<!-- roo_onewire&#45;&gt;roo_scheduler -->
<g id="edge21" class="edge">
<title>roo_onewire&#45;&gt;roo_scheduler</title>
<path fill="none" stroke="black" d="M757.76,-542.38C685.27,-528.81 550.2,-502.69 436,-476 435.9,-475.98 435.8,-475.95 435.7,-475.93"/>
<polygon fill="black" stroke="black" points="436.72,-472.58 426.18,-473.64 435.09,-479.38 436.72,-472.58"/>
</g>
<!-- roo_powersafefs -->
<g id="node16" class="node">
<title>roo_powersafefs</title>
<polygon fill="plum" stroke="red" points="676.5,-305 543.5,-305 543.5,-267 676.5,-267 676.5,-305"/>
<text text-anchor="middle" x="610" y="-289.8" font-family="Times,serif" font-size="14.00">roo_powersafefs</text>
<text text-anchor="middle" x="610" y="-274.8" font-family="Times,serif" font-size="14.00">1.0.0</text>
</g>
<!-- roo_powersafefs&#45;&gt;roo_threads -->
<g id="edge23" class="edge">
<title>roo_powersafefs&#45;&gt;roo_threads</title>
<path fill="none" stroke="red" d="M613.28,-266.88C615.72,-253.35 619.11,-234.62 621.91,-219.15"/>
<polygon fill="red" stroke="red" points="625.4,-219.53 623.73,-209.07 618.51,-218.29 625.4,-219.53"/>
<text text-anchor="middle" x="653" y="-241" font-family="Times,serif" font-size="10.00" fill="red">1.2.1</text>
<text text-anchor="middle" x="653" y="-230" font-family="Times,serif" font-size="10.00" fill="red">(latest: 1.2.3)</text>
</g>
<!-- roo_prefs -->
<g id="node17" class="node">
<title>roo_prefs</title>
<polygon fill="#b1dbab" stroke="black" points="571.5,-572 488.5,-572 488.5,-534 571.5,-534 571.5,-572"/>
<text text-anchor="middle" x="530" y="-556.8" font-family="Times,serif" font-size="14.00">roo_prefs</text>
<text text-anchor="middle" x="530" y="-541.8" font-family="Times,serif" font-size="14.00">1.2.10</text>
</g>
<!-- roo_prefs&#45;&gt;roo_logging -->
<g id="edge24" class="edge">
<title>roo_prefs&#45;&gt;roo_logging</title>
<path fill="none" stroke="black" d="M571.81,-542.59C611.38,-531.94 670.57,-511.31 711,-476 756.74,-436.05 754.6,-357.27 749.56,-315.14"/>
<polygon fill="black" stroke="black" points="753.01,-314.47 748.21,-305.02 746.07,-315.4 753.01,-314.47"/>
</g>
<!-- roo_prefs&#45;&gt;roo_scheduler -->
<g id="edge25" class="edge">
<title>roo_prefs&#45;&gt;roo_scheduler</title>
<path fill="none" stroke="black" d="M498.76,-533.88C472.88,-518.86 435.92,-497.41 407.9,-481.15"/>
<polygon fill="black" stroke="black" points="409.55,-478.06 399.14,-476.07 406.03,-484.11 409.55,-478.06"/>
</g>
<!-- roo_quantity&#45;&gt;roo_logging -->
<g id="edge26" class="edge">
<title>roo_quantity&#45;&gt;roo_logging</title>
<path fill="none" stroke="black" d="M842.91,-437.72C832.08,-411.05 809.72,-360.56 782,-323 779.43,-319.51 776.5,-316.06 773.45,-312.75"/>
<polygon fill="black" stroke="black" points="775.71,-310.05 766.22,-305.34 770.7,-314.94 775.71,-310.05"/>
</g>
<!-- roo_scheduler&#45;&gt;roo_collections -->
<g id="edge27" class="edge">
<title>roo_scheduler&#45;&gt;roo_collections</title>
<path fill="none" stroke="black" d="M375.51,-437.86C380.34,-426.36 386.85,-411.22 393,-398 394.31,-395.18 395.71,-392.25 397.13,-389.33"/>
<polygon fill="black" stroke="black" points="400.34,-390.73 401.64,-380.22 394.07,-387.63 400.34,-390.73"/>
</g>
<!-- roo_scheduler&#45;&gt;roo_threads -->
<g id="edge28" class="edge">
<title>roo_scheduler&#45;&gt;roo_threads</title>
<path fill="none" stroke="black" d="M426.19,-439.51C454.75,-431.2 483.59,-422.38 486,-420 536.84,-369.86 494.97,-326.13 535,-267 549,-246.32 570.21,-228.27 588.74,-214.95"/>
<polygon fill="black" stroke="black" points="590.83,-217.76 597.03,-209.17 586.83,-212.02 590.83,-217.76"/>
</g>
<!-- roo_testing -->
<g id="node20" class="node">
<title>roo_testing</title>
<polygon fill="#b1dbab" stroke="black" points="797.5,-38 700.5,-38 700.5,0 797.5,0 797.5,-38"/>
<text text-anchor="middle" x="749" y="-22.8" font-family="Times,serif" font-size="14.00">roo_testing</text>
<text text-anchor="middle" x="749" y="-7.8" font-family="Times,serif" font-size="14.00">1.3.4</text>
</g>
<!-- roo_time -->
<g id="node22" class="node">
<title>roo_time</title>
<polygon fill="#b1dbab" stroke="red" points="788.5,-134 709.5,-134 709.5,-96 788.5,-96 788.5,-134"/>
<text text-anchor="middle" x="749" y="-118.8" font-family="Times,serif" font-size="14.00">roo_time</text>
<text text-anchor="middle" x="749" y="-103.8" font-family="Times,serif" font-size="14.00">1.4.3</text>
</g>
<!-- roo_threads&#45;&gt;roo_time -->
<g id="edge29" class="edge">
<title>roo_threads&#45;&gt;roo_time</title>
<path fill="none" stroke="black" d="M657.16,-170.96C673.14,-161.39 692.96,-149.53 710.09,-139.28"/>
<polygon fill="black" stroke="black" points="711.98,-142.23 718.77,-134.09 708.39,-136.22 711.98,-142.23"/>
</g>
<!-- roo_time&#45;&gt;roo_testing -->
<g id="edge30" class="edge">
<title>roo_time&#45;&gt;roo_testing</title>
<path fill="none" stroke="red" d="M749,-95.88C749,-82.35 749,-63.62 749,-48.15"/>
<polygon fill="red" stroke="red" points="752.5,-48.07 749,-38.07 745.5,-48.07 752.5,-48.07"/>
<text text-anchor="middle" x="782" y="-70" font-family="Times,serif" font-size="10.00" fill="red">1.3.2</text>
<text text-anchor="middle" x="782" y="-59" font-family="Times,serif" font-size="10.00" fill="red">(latest: 1.3.4)</text>
</g>
<!-- roo_time_ds3231 -->
<g id="node23" class="node">
<title>roo_time_ds3231</title>
<polygon fill="#b1dbab" stroke="black" points="940,-209 802,-209 802,-171 940,-171 940,-209"/>
<text text-anchor="middle" x="871" y="-193.8" font-family="Times,serif" font-size="14.00">roo_time_ds3231</text>
<text text-anchor="middle" x="871" y="-178.8" font-family="Times,serif" font-size="14.00">1.1.6</text>
</g>
<!-- roo_time_ds3231&#45;&gt;roo_time -->
<g id="edge31" class="edge">
<title>roo_time_ds3231&#45;&gt;roo_time</title>
<path fill="none" stroke="black" d="M840.84,-170.96C824.86,-161.39 805.04,-149.53 787.91,-139.28"/>
<polygon fill="black" stroke="black" points="789.61,-136.22 779.23,-134.09 786.02,-142.23 789.61,-136.22"/>
</g>
<!-- roo_transceivers&#45;&gt;roo_prefs -->
<g id="edge32" class="edge">
<title>roo_transceivers&#45;&gt;roo_prefs</title>
<path fill="none" stroke="black" d="M454.12,-629.88C468.43,-615.57 488.56,-595.44 504.49,-579.51"/>
<polygon fill="black" stroke="black" points="507.34,-581.61 511.93,-572.07 502.39,-576.66 507.34,-581.61"/>
</g>
<!-- roo_transport -->
<g id="node25" class="node">
<title>roo_transport</title>
<polygon fill="#b1dbab" stroke="black" points="702,-476 588,-476 588,-438 702,-438 702,-476"/>
<text text-anchor="middle" x="645" y="-460.8" font-family="Times,serif" font-size="14.00">roo_transport</text>
<text text-anchor="middle" x="645" y="-445.8" font-family="Times,serif" font-size="14.00">1.1.2</text>
</g>
<!-- roo_transport&#45;&gt;roo_collections -->
<g id="edge33" class="edge">
<title>roo_transport&#45;&gt;roo_collections</title>
<path fill="none" stroke="black" d="M643.54,-437.83C641.5,-424.79 636.62,-407.84 625,-398 603.8,-380.04 535.99,-370.83 482.32,-366.24"/>
<polygon fill="black" stroke="black" points="482.38,-362.74 472.13,-365.41 481.82,-369.71 482.38,-362.74"/>
</g>
<!-- roo_transport&#45;&gt;roo_io -->
<g id="edge34" class="edge">
<title>roo_transport&#45;&gt;roo_io</title>
<path fill="none" stroke="black" d="M648.66,-437.88C651.4,-424.35 655.18,-405.62 658.31,-390.15"/>
<polygon fill="black" stroke="black" points="661.8,-390.56 660.35,-380.07 654.94,-389.18 661.8,-390.56"/>
</g>
<!-- roo_wifi -->
<g id="node26" class="node">
<title>roo_wifi</title>
<polygon fill="khaki" stroke="red" points="594,-668 522,-668 522,-630 594,-630 594,-668"/>
<text text-anchor="middle" x="558" y="-652.8" font-family="Times,serif" font-size="14.00">roo_wifi</text>
<text text-anchor="middle" x="558" y="-637.8" font-family="Times,serif" font-size="14.00">1.1.4</text>
</g>
<!-- roo_wifi&#45;&gt;roo_prefs -->
<g id="edge35" class="edge">
<title>roo_wifi&#45;&gt;roo_prefs</title>
<path fill="none" stroke="red" d="M552.6,-629.88C548.53,-616.22 542.89,-597.26 538.25,-581.71"/>
<polygon fill="red" stroke="red" points="541.59,-580.65 535.38,-572.07 534.88,-582.65 541.59,-580.65"/>
<text text-anchor="middle" x="582" y="-604" font-family="Times,serif" font-size="10.00" fill="red">1.2.9</text>
<text text-anchor="middle" x="582" y="-593" font-family="Times,serif" font-size="10.00" fill="red">(latest: 1.2.10)</text>
</g>
<!-- roo_windows&#45;&gt;roo_icons -->
<g id="edge37" class="edge">
<title>roo_windows&#45;&gt;roo_icons</title>
<path fill="none" stroke="red" d="M292.57,-629.72C291.93,-624.05 291.32,-617.78 291,-612 290.46,-602.28 290.47,-591.64 290.69,-582.15"/>
<polygon fill="red" stroke="red" points="294.2,-582.15 291.02,-572.04 287.2,-581.92 294.2,-582.15"/>
<text text-anchor="middle" x="324" y="-604" font-family="Times,serif" font-size="10.00" fill="red">1.2.1</text>
<text text-anchor="middle" x="324" y="-593" font-family="Times,serif" font-size="10.00" fill="red">(latest: 1.2.2)</text>
</g>
<!-- roo_windows&#45;&gt;roo_locale -->
<g id="edge36" class="edge">
<title>roo_windows&#45;&gt;roo_locale</title>
<path fill="none" stroke="red" d="M246.9,-629.84C237.64,-624.96 228.5,-619.04 221,-612 211.94,-603.51 204.68,-591.96 199.31,-581.4"/>
<polygon fill="red" stroke="red" points="202.34,-579.64 194.9,-572.1 196.02,-582.64 202.34,-579.64"/>
<text text-anchor="middle" x="254" y="-604" font-family="Times,serif" font-size="10.00" fill="red">1.1.1</text>
<text text-anchor="middle" x="254" y="-593" font-family="Times,serif" font-size="10.00" fill="red">(latest: 1.1.2)</text>
</g>
<!-- roo_windows&#45;&gt;roo_scheduler -->
<g id="edge38" class="edge">
<title>roo_windows&#45;&gt;roo_scheduler</title>
<path fill="none" stroke="red" d="M338.95,-629.89C346.04,-625.09 352.52,-619.18 357,-612 380.85,-573.8 378.13,-519.41 373.45,-486.53"/>
<polygon fill="red" stroke="red" points="376.84,-485.59 371.82,-476.27 369.93,-486.69 376.84,-485.59"/>
<text text-anchor="middle" x="409" y="-556" font-family="Times,serif" font-size="10.00" fill="red">2.1.6</text>
<text text-anchor="middle" x="409" y="-545" font-family="Times,serif" font-size="10.00" fill="red">(latest: 2.1.9)</text>
</g>
<!-- roo_windows_transceivers -->
<g id="node28" class="node">
<title>roo_windows_transceivers</title>
<polygon fill="plum" stroke="red" points="469,-764 265,-764 265,-726 469,-726 469,-764"/>
<text text-anchor="middle" x="367" y="-748.8" font-family="Times,serif" font-size="14.00">roo_windows_transceivers</text>
<text text-anchor="middle" x="367" y="-733.8" font-family="Times,serif" font-size="14.00">1.0.0</text>
</g>
<!-- roo_windows_transceivers&#45;&gt;roo_transceivers -->
<g id="edge39" class="edge">
<title>roo_windows_transceivers&#45;&gt;roo_transceivers</title>
<path fill="none" stroke="red" d="M380.3,-725.88C390.61,-711.83 405.05,-692.17 416.63,-676.38"/>
<polygon fill="red" stroke="red" points="419.64,-678.2 422.74,-668.07 414,-674.06 419.64,-678.2"/>
<text text-anchor="middle" x="440" y="-700" font-family="Times,serif" font-size="10.00" fill="red">1.1.3</text>
<text text-anchor="middle" x="440" y="-689" font-family="Times,serif" font-size="10.00" fill="red">(latest: 1.1.6)</text>
</g>
<!-- roo_windows_transceivers&#45;&gt;roo_windows -->
<g id="edge40" class="edge">
<title>roo_windows_transceivers&#45;&gt;roo_windows</title>
<path fill="none" stroke="red" d="M342.38,-725.65C336.25,-720.37 330.01,-714.32 325,-708 317.69,-698.77 311.38,-687.49 306.45,-677.34"/>
<polygon fill="red" stroke="red" points="309.54,-675.67 302.17,-668.05 303.18,-678.6 309.54,-675.67"/>
<text text-anchor="middle" x="358" y="-700" font-family="Times,serif" font-size="10.00" fill="red">1.4.1</text>
<text text-anchor="middle" x="358" y="-689" font-family="Times,serif" font-size="10.00" fill="red">(latest: 1.4.2)</text>
</g>
<!-- roo_windows_wifi -->
<g id="node29" class="node">
<title>roo_windows_wifi</title>
<polygon fill="plum" stroke="red" points="628.5,-764 487.5,-764 487.5,-726 628.5,-726 628.5,-764"/>
<text text-anchor="middle" x="558" y="-748.8" font-family="Times,serif" font-size="14.00">roo_windows_wifi</text>
<text text-anchor="middle" x="558" y="-733.8" font-family="Times,serif" font-size="14.00">1.1.3</text>
</g>
<!-- roo_windows_wifi&#45;&gt;roo_wifi -->
<g id="edge41" class="edge">
<title>roo_windows_wifi&#45;&gt;roo_wifi</title>
<path fill="none" stroke="red" d="M558,-725.88C558,-712.35 558,-693.62 558,-678.15"/>
<polygon fill="red" stroke="red" points="561.5,-678.07 558,-668.07 554.5,-678.07 561.5,-678.07"/>
<text text-anchor="middle" x="591" y="-700" font-family="Times,serif" font-size="10.00" fill="red">1.1.3</text>
<text text-anchor="middle" x="591" y="-689" font-family="Times,serif" font-size="10.00" fill="red">(latest: 1.1.4)</text>
</g>
<!-- roo_windows_wifi&#45;&gt;roo_windows -->
<g id="edge42" class="edge">
<title>roo_windows_wifi&#45;&gt;roo_windows</title>
<path fill="none" stroke="black" d="M538.3,-725.8C522.82,-712.56 500.07,-695.39 477,-686 430.64,-667.14 412.88,-677.81 359.68,-667.88"/>
<polygon fill="black" stroke="black" points="360.2,-664.42 349.7,-665.86 358.81,-671.28 360.2,-664.42"/>
</g>
</g>
</svg>
