<?xml version="1.0" encoding="UTF-8" standalone="no"?>
<!DOCTYPE svg PUBLIC "-//W3C//DTD SVG 1.1//EN"
 "http://www.w3.org/Graphics/SVG/1.1/DTD/svg11.dtd">
<!-- Generated by graphviz version 2.42.4 (0)
 -->
<!-- Title: dependencies Pages: 1 -->
<svg width="1093pt" height="814pt"
 viewBox="0.00 0.00 1092.50 814.00" xmlns="http://www.w3.org/2000/svg" xmlns:xlink="http://www.w3.org/1999/xlink">
<g id="graph0" class="graph" transform="scale(1 1) rotate(0) translate(4 810)">
<title>dependencies</title>
<polygon fill="white" stroke="transparent" points="-4,4 -4,-810 1088.5,-810 1088.5,4 -4,4"/>
<!-- roo_backport -->
<g id="node1" class="node">
<title>roo_backport</title>
<polygon fill="#b1dbab" stroke="black" points="512,-230 402,-230 402,-192 512,-192 512,-230"/>
<text text-anchor="middle" x="457" y="-214.8" font-family="Times,serif" font-size="14.00">roo_backport</text>
<text text-anchor="middle" x="457" y="-199.8" font-family="Times,serif" font-size="14.00">1.2.2</text>
</g>
<!-- roo_blink -->
<g id="node2" class="node">
<title>roo_blink</title>
<polygon fill="plum" stroke="red" points="969,-614 887,-614 887,-576 969,-576 969,-614"/>
<text text-anchor="middle" x="928" y="-598.8" font-family="Times,serif" font-size="14.00">roo_blink</text>
<text text-anchor="middle" x="928" y="-583.8" font-family="Times,serif" font-size="14.00">1.0.5</text>
</g>
<!-- roo_logging -->
<g id="node13" class="node">
<title>roo_logging</title>
<polygon fill="#b1dbab" stroke="red" points="768,-326 668,-326 668,-288 768,-288 768,-326"/>
<text text-anchor="middle" x="718" y="-310.8" font-family="Times,serif" font-size="14.00">roo_logging</text>
<text text-anchor="middle" x="718" y="-295.8" font-family="Times,serif" font-size="14.00">1.5.5</text>
</g>
<!-- roo_blink&#45;&gt;roo_logging -->
<g id="edge1" class="edge">
<title>roo_blink&#45;&gt;roo_logging</title>
<path fill="none" stroke="red" d="M929.1,-575.72C930.49,-536.22 928.37,-441.78 882,-384 856.06,-351.67 813.23,-332.47 777.84,-321.46"/>
<polygon fill="red" stroke="red" points="778.66,-318.05 768.08,-318.57 776.67,-324.76 778.66,-318.05"/>
<text text-anchor="middle" x="950" y="-454" font-family="Times,serif" font-size="10.00" fill="red">1.5.3</text>
<text text-anchor="middle" x="950" y="-443" font-family="Times,serif" font-size="10.00" fill="red">(latest: 1.5.5)</text>
</g>
<!-- roo_scheduler -->
<g id="node19" class="node">
<title>roo_scheduler</title>
<polygon fill="khaki" stroke="red" points="411,-518 295,-518 295,-480 411,-480 411,-518"/>
<text text-anchor="middle" x="353" y="-502.8" font-family="Times,serif" font-size="14.00">roo_scheduler</text>
<text text-anchor="middle" x="353" y="-487.8" font-family="Times,serif" font-size="14.00">2.1.7</text>
</g>
<!-- roo_blink&#45;&gt;roo_scheduler -->
<g id="edge2" class="edge">
<title>roo_blink&#45;&gt;roo_scheduler</title>
<path fill="none" stroke="black" d="M886.73,-578.39C883.8,-577.51 880.87,-576.7 878,-576 751.23,-544.83 716.57,-551.93 587,-536 513.34,-526.95 493.97,-531.53 421,-518 420.9,-517.98 420.8,-517.96 420.7,-517.94"/>
<polygon fill="black" stroke="black" points="421.6,-514.56 411.11,-516 420.21,-521.42 421.6,-514.56"/>
</g>
<!-- roo_collections -->
<g id="node3" class="node">
<title>roo_collections</title>
<polygon fill="#b1dbab" stroke="black" points="375,-422 253,-422 253,-384 375,-384 375,-422"/>
<text text-anchor="middle" x="314" y="-406.8" font-family="Times,serif" font-size="14.00">roo_collections</text>
<text text-anchor="middle" x="314" y="-391.8" font-family="Times,serif" font-size="14.00">1.4.3</text>
</g>
<!-- roo_collections&#45;&gt;roo_backport -->
<g id="edge3" class="edge">
<title>roo_collections&#45;&gt;roo_backport</title>
<path fill="none" stroke="black" d="M318.84,-383.68C327.91,-352.41 350.14,-288.19 389,-248 393.45,-243.4 398.61,-239.26 404.07,-235.57"/>
<polygon fill="black" stroke="black" points="406.17,-238.39 412.83,-230.14 402.48,-232.44 406.17,-238.39"/>
</g>
<!-- roo_comms -->
<g id="node4" class="node">
<title>roo_comms</title>
<polygon fill="plum" stroke="red" points="882.5,-806 785.5,-806 785.5,-768 882.5,-768 882.5,-806"/>
<text text-anchor="middle" x="834" y="-790.8" font-family="Times,serif" font-size="14.00">roo_comms</text>
<text text-anchor="middle" x="834" y="-775.8" font-family="Times,serif" font-size="14.00">1.1.3</text>
</g>
<!-- roo_comms&#45;&gt;roo_blink -->
<g id="edge4" class="edge">
<title>roo_comms&#45;&gt;roo_blink</title>
<path fill="none" stroke="red" d="M843.01,-767.78C859.58,-734.3 894.94,-662.82 914.42,-623.44"/>
<polygon fill="red" stroke="red" points="917.72,-624.68 919.01,-614.16 911.44,-621.57 917.72,-624.68"/>
<text text-anchor="middle" x="923" y="-694" font-family="Times,serif" font-size="10.00" fill="red">1.0.4</text>
<text text-anchor="middle" x="923" y="-683" font-family="Times,serif" font-size="10.00" fill="red">(latest: 1.0.5)</text>
</g>
<!-- roo_control -->
<g id="node5" class="node">
<title>roo_control</title>
<polygon fill="plum" stroke="red" points="1084.5,-614 987.5,-614 987.5,-576 1084.5,-576 1084.5,-614"/>
<text text-anchor="middle" x="1036" y="-598.8" font-family="Times,serif" font-size="14.00">roo_control</text>
<text text-anchor="middle" x="1036" y="-583.8" font-family="Times,serif" font-size="14.00">1.2.4</text>
</g>
<!-- roo_comms&#45;&gt;roo_control -->
<g id="edge5" class="edge">
<title>roo_comms&#45;&gt;roo_control</title>
<path fill="none" stroke="red" d="M873.39,-767.97C899.89,-754.54 934.51,-734.36 960,-710 986.68,-684.5 1008.94,-648.03 1022.34,-623.25"/>
<polygon fill="red" stroke="red" points="1025.45,-624.86 1027.03,-614.38 1019.26,-621.58 1025.45,-624.86"/>
<text text-anchor="middle" x="1024" y="-694" font-family="Times,serif" font-size="10.00" fill="red">1.2.3</text>
<text text-anchor="middle" x="1024" y="-683" font-family="Times,serif" font-size="10.00" fill="red">(latest: 1.2.4)</text>
</g>
<!-- roo_io -->
<g id="node11" class="node">
<title>roo_io</title>
<polygon fill="#b1dbab" stroke="red" points="668.5,-422 609.5,-422 609.5,-384 668.5,-384 668.5,-422"/>
<text text-anchor="middle" x="639" y="-406.8" font-family="Times,serif" font-size="14.00">roo_io</text>
<text text-anchor="middle" x="639" y="-391.8" font-family="Times,serif" font-size="14.00">2.1.5</text>
</g>
<!-- roo_comms&#45;&gt;roo_io -->
<g id="edge6" class="edge">
<title>roo_comms&#45;&gt;roo_io</title>
<path fill="none" stroke="red" d="M810.93,-767.89C776.78,-739.45 714.21,-680.62 690,-614 663.49,-541.05 744.62,-506.75 705,-440 698.87,-429.67 688.61,-422.11 677.99,-416.67"/>
<polygon fill="red" stroke="red" points="679.21,-413.38 668.66,-412.42 676.31,-419.75 679.21,-413.38"/>
<text text-anchor="middle" x="723" y="-598" font-family="Times,serif" font-size="10.00" fill="red">2.1.1</text>
<text text-anchor="middle" x="723" y="-587" font-family="Times,serif" font-size="10.00" fill="red">(latest: 2.1.5)</text>
</g>
<!-- roo_transceivers -->
<g id="node24" class="node">
<title>roo_transceivers</title>
<polygon fill="plum" stroke="red" points="549.5,-710 414.5,-710 414.5,-672 549.5,-672 549.5,-710"/>
<text text-anchor="middle" x="482" y="-694.8" font-family="Times,serif" font-size="14.00">roo_transceivers</text>
<text text-anchor="middle" x="482" y="-679.8" font-family="Times,serif" font-size="14.00">1.1.4</text>
</g>
<!-- roo_comms&#45;&gt;roo_transceivers -->
<g id="edge7" class="edge">
<title>roo_comms&#45;&gt;roo_transceivers</title>
<path fill="none" stroke="black" d="M785.49,-776.76C752.01,-770.09 706.57,-760.45 667,-750 625.95,-739.16 580.44,-724.93 544.83,-713.27"/>
<polygon fill="black" stroke="black" points="545.65,-709.85 535.06,-710.05 543.46,-716.5 545.65,-709.85"/>
</g>
<!-- roo_quantity -->
<g id="node18" class="node">
<title>roo_quantity</title>
<polygon fill="plum" stroke="red" points="888.5,-518 781.5,-518 781.5,-480 888.5,-480 888.5,-518"/>
<text text-anchor="middle" x="835" y="-502.8" font-family="Times,serif" font-size="14.00">roo_quantity</text>
<text text-anchor="middle" x="835" y="-487.8" font-family="Times,serif" font-size="14.00">1.1.7</text>
</g>
<!-- roo_control&#45;&gt;roo_quantity -->
<g id="edge8" class="edge">
<title>roo_control&#45;&gt;roo_quantity</title>
<path fill="none" stroke="black" d="M997.25,-575.88C964.57,-560.6 917.68,-538.67 882.71,-522.31"/>
<polygon fill="black" stroke="black" points="884.18,-519.13 873.64,-518.07 881.21,-525.48 884.18,-519.13"/>
</g>
<!-- roo_control&#45;&gt;roo_scheduler -->
<g id="edge9" class="edge">
<title>roo_control&#45;&gt;roo_scheduler</title>
<path fill="none" stroke="black" d="M987.42,-578.31C984.24,-577.48 981.09,-576.7 978,-576 857.11,-548.66 825.28,-548.86 702,-536 577.53,-523.01 544.52,-538.11 421,-518 420.9,-517.98 420.8,-517.97 420.69,-517.95"/>
<polygon fill="black" stroke="black" points="421.55,-514.55 411.08,-516.17 420.27,-521.43 421.55,-514.55"/>
</g>
<!-- roo_dashboard -->
<g id="node6" class="node">
<title>roo_dashboard</title>
<polygon fill="plum" stroke="red" points="293,-806 171,-806 171,-768 293,-768 293,-806"/>
<text text-anchor="middle" x="232" y="-790.8" font-family="Times,serif" font-size="14.00">roo_dashboard</text>
<text text-anchor="middle" x="232" y="-775.8" font-family="Times,serif" font-size="14.00">1.0.1</text>
</g>
<!-- roo_windows -->
<g id="node27" class="node">
<title>roo_windows</title>
<polygon fill="plum" stroke="red" points="385.5,-710 276.5,-710 276.5,-672 385.5,-672 385.5,-710"/>
<text text-anchor="middle" x="331" y="-694.8" font-family="Times,serif" font-size="14.00">roo_windows</text>
<text text-anchor="middle" x="331" y="-679.8" font-family="Times,serif" font-size="14.00">1.4.2</text>
</g>
<!-- roo_dashboard&#45;&gt;roo_windows -->
<g id="edge10" class="edge">
<title>roo_dashboard&#45;&gt;roo_windows</title>
<path fill="none" stroke="red" d="M247.27,-767.76C257.49,-755.96 271.49,-740.51 285,-728 289.09,-724.21 293.55,-720.39 298.02,-716.72"/>
<polygon fill="red" stroke="red" points="300.4,-719.3 306.03,-710.33 296.03,-713.83 300.4,-719.3"/>
<text text-anchor="middle" x="318" y="-742" font-family="Times,serif" font-size="10.00" fill="red">1.4.1</text>
<text text-anchor="middle" x="318" y="-731" font-family="Times,serif" font-size="10.00" fill="red">(latest: 1.4.2)</text>
</g>
<!-- roo_display -->
<g id="node7" class="node">
<title>roo_display</title>
<polygon fill="#b1dbab" stroke="black" points="263,-518 165,-518 165,-480 263,-480 263,-518"/>
<text text-anchor="middle" x="214" y="-502.8" font-family="Times,serif" font-size="14.00">roo_display</text>
<text text-anchor="middle" x="214" y="-487.8" font-family="Times,serif" font-size="14.00">3.0.0</text>
</g>
<!-- roo_display&#45;&gt;roo_collections -->
<g id="edge11" class="edge">
<title>roo_display&#45;&gt;roo_collections</title>
<path fill="none" stroke="black" d="M213.49,-479.89C214.07,-467.38 216.8,-451.07 226,-440 231.04,-433.93 237.27,-428.87 244.07,-424.66"/>
<polygon fill="black" stroke="black" points="245.87,-427.66 252.93,-419.76 242.49,-421.53 245.87,-427.66"/>
</g>
<!-- roo_display&#45;&gt;roo_io -->
<g id="edge12" class="edge">
<title>roo_display&#45;&gt;roo_io</title>
<path fill="none" stroke="black" d="M263.03,-485.01C270.69,-483.19 278.54,-481.45 286,-480 342.39,-469.02 359.49,-480.14 414,-462 433.25,-455.59 434.92,-446.91 454,-440 502.37,-422.48 561.1,-412.9 599.23,-408.12"/>
<polygon fill="black" stroke="black" points="599.9,-411.56 609.41,-406.89 599.06,-404.61 599.9,-411.56"/>
</g>
<!-- roo_flags -->
<g id="node8" class="node">
<title>roo_flags</title>
<polygon fill="#b1dbab" stroke="black" points="757,-230 677,-230 677,-192 757,-192 757,-230"/>
<text text-anchor="middle" x="717" y="-214.8" font-family="Times,serif" font-size="14.00">roo_flags</text>
<text text-anchor="middle" x="717" y="-199.8" font-family="Times,serif" font-size="14.00">1.2.3</text>
</g>
<!-- roo_fonts_basic -->
<g id="node9" class="node">
<title>roo_fonts_basic</title>
<polygon fill="plum" stroke="black" points="126,-614 0,-614 0,-576 126,-576 126,-614"/>
<text text-anchor="middle" x="63" y="-598.8" font-family="Times,serif" font-size="14.00">roo_fonts_basic</text>
<text text-anchor="middle" x="63" y="-583.8" font-family="Times,serif" font-size="14.00">1.0.0</text>
</g>
<!-- roo_fonts_basic&#45;&gt;roo_display -->
<g id="edge13" class="edge">
<title>roo_fonts_basic&#45;&gt;roo_display</title>
<path fill="none" stroke="black" d="M92.11,-575.88C116.14,-560.92 150.39,-539.6 176.47,-523.36"/>
<polygon fill="black" stroke="black" points="178.34,-526.32 184.98,-518.07 174.64,-520.38 178.34,-526.32"/>
</g>
<!-- roo_icons -->
<g id="node10" class="node">
<title>roo_icons</title>
<polygon fill="plum" stroke="red" points="333.5,-614 250.5,-614 250.5,-576 333.5,-576 333.5,-614"/>
<text text-anchor="middle" x="292" y="-598.8" font-family="Times,serif" font-size="14.00">roo_icons</text>
<text text-anchor="middle" x="292" y="-583.8" font-family="Times,serif" font-size="14.00">1.2.1</text>
</g>
<!-- roo_icons&#45;&gt;roo_display -->
<g id="edge14" class="edge">
<title>roo_icons&#45;&gt;roo_display</title>
<path fill="none" stroke="red" d="M276.96,-575.88C265.2,-561.7 248.69,-541.81 235.53,-525.94"/>
<polygon fill="red" stroke="red" points="238.07,-523.53 228.99,-518.07 232.69,-528 238.07,-523.53"/>
<text text-anchor="middle" x="293" y="-550" font-family="Times,serif" font-size="10.00" fill="red">2.3.1</text>
<text text-anchor="middle" x="293" y="-539" font-family="Times,serif" font-size="10.00" fill="red">(latest: 3.0.0)</text>
</g>
<!-- roo_io&#45;&gt;roo_logging -->
<g id="edge15" class="edge">
<title>roo_io&#45;&gt;roo_logging</title>
<path fill="none" stroke="black" d="M654.23,-383.88C666.14,-369.7 682.87,-349.81 696.2,-333.94"/>
<polygon fill="black" stroke="black" points="699.06,-335.98 702.81,-326.07 693.7,-331.47 699.06,-335.98"/>
</g>
<!-- roo_locale -->
<g id="node12" class="node">
<title>roo_locale</title>
<polygon fill="plum" stroke="black" points="232,-614 144,-614 144,-576 232,-576 232,-614"/>
<text text-anchor="middle" x="188" y="-598.8" font-family="Times,serif" font-size="14.00">roo_locale</text>
<text text-anchor="middle" x="188" y="-583.8" font-family="Times,serif" font-size="14.00">1.1.1</text>
</g>
<!-- roo_logging&#45;&gt;roo_backport -->
<g id="edge16" class="edge">
<title>roo_logging&#45;&gt;roo_backport</title>
<path fill="none" stroke="black" d="M698.45,-287.83C681.01,-271.79 657.42,-250.55 652,-248 606.39,-226.52 589.54,-239.35 540,-230 534.25,-228.91 528.28,-227.73 522.3,-226.51"/>
<polygon fill="black" stroke="black" points="522.78,-223.03 512.28,-224.42 521.35,-229.89 522.78,-223.03"/>
</g>
<!-- roo_logging&#45;&gt;roo_flags -->
<g id="edge17" class="edge">
<title>roo_logging&#45;&gt;roo_flags</title>
<path fill="none" stroke="black" d="M717.81,-287.88C717.66,-274.35 717.46,-255.62 717.3,-240.15"/>
<polygon fill="black" stroke="black" points="720.8,-240.03 717.19,-230.07 713.8,-240.11 720.8,-240.03"/>
</g>
<!-- roo_threads -->
<g id="node21" class="node">
<title>roo_threads</title>
<polygon fill="#b1dbab" stroke="red" points="649.5,-230 548.5,-230 548.5,-192 649.5,-192 649.5,-230"/>
<text text-anchor="middle" x="599" y="-214.8" font-family="Times,serif" font-size="14.00">roo_threads</text>
<text text-anchor="middle" x="599" y="-199.8" font-family="Times,serif" font-size="14.00">1.2.3</text>
</g>
<!-- roo_logging&#45;&gt;roo_threads -->
<g id="edge18" class="edge">
<title>roo_logging&#45;&gt;roo_threads</title>
<path fill="none" stroke="black" d="M708.89,-287.84C701.86,-275.31 691.13,-259 678,-248 672.07,-243.03 665.34,-238.61 658.37,-234.71"/>
<polygon fill="black" stroke="black" points="659.95,-231.58 649.46,-230.06 656.7,-237.79 659.95,-231.58"/>
</g>
<!-- roo_monitoring -->
<g id="node14" class="node">
<title>roo_monitoring</title>
<polygon fill="plum" stroke="red" points="554.5,-518 429.5,-518 429.5,-480 554.5,-480 554.5,-518"/>
<text text-anchor="middle" x="492" y="-502.8" font-family="Times,serif" font-size="14.00">roo_monitoring</text>
<text text-anchor="middle" x="492" y="-487.8" font-family="Times,serif" font-size="14.00">1.0.0</text>
</g>
<!-- roo_monitoring&#45;&gt;roo_collections -->
<g id="edge19" class="edge">
<title>roo_monitoring&#45;&gt;roo_collections</title>
<path fill="none" stroke="red" d="M429.24,-480.04C415.29,-475.02 400.83,-468.99 388,-462 371.38,-452.94 354.64,-440.19 341.29,-428.95"/>
<polygon fill="red" stroke="red" points="343.31,-426.07 333.45,-422.2 338.74,-431.38 343.31,-426.07"/>
<text text-anchor="middle" x="421" y="-454" font-family="Times,serif" font-size="10.00" fill="red">1.4.1</text>
<text text-anchor="middle" x="421" y="-443" font-family="Times,serif" font-size="10.00" fill="red">(latest: 1.4.3)</text>
</g>
<!-- roo_monitoring&#45;&gt;roo_io -->
<g id="edge20" class="edge">
<title>roo_monitoring&#45;&gt;roo_io</title>
<path fill="none" stroke="red" d="M472.21,-479.85C461.46,-467.79 452.17,-452.03 462,-440 478.97,-419.23 552.29,-410.14 599.08,-406.4"/>
<polygon fill="red" stroke="red" points="599.49,-409.88 609.2,-405.64 598.97,-402.9 599.49,-409.88"/>
<text text-anchor="middle" x="495" y="-454" font-family="Times,serif" font-size="10.00" fill="red">2.1.4</text>
<text text-anchor="middle" x="495" y="-443" font-family="Times,serif" font-size="10.00" fill="red">(latest: 2.1.5)</text>
</g>
<!-- roo_onewire -->
<g id="node15" class="node">
<title>roo_onewire</title>
<polygon fill="plum" stroke="red" points="869,-614 765,-614 765,-576 869,-576 869,-614"/>
<text text-anchor="middle" x="817" y="-598.8" font-family="Times,serif" font-size="14.00">roo_onewire</text>
<text text-anchor="middle" x="817" y="-583.8" font-family="Times,serif" font-size="14.00">2.0.8</text>
</g>
<!-- roo_onewire&#45;&gt;roo_quantity -->
<g id="edge22" class="edge">
<title>roo_onewire&#45;&gt;roo_quantity</title>
<path fill="none" stroke="black" d="M820.47,-575.88C823.06,-562.35 826.65,-543.62 829.61,-528.15"/>
<polygon fill="black" stroke="black" points="833.1,-528.55 831.54,-518.07 826.22,-527.23 833.1,-528.55"/>
</g>
<!-- roo_onewire&#45;&gt;roo_scheduler -->
<g id="edge21" class="edge">
<title>roo_onewire&#45;&gt;roo_scheduler</title>
<path fill="none" stroke="black" d="M764.89,-579.21C760.21,-578.06 755.53,-576.97 751,-576 700.41,-565.18 686.99,-566.73 636,-558 540.2,-541.59 515.82,-539.34 421,-518 420.9,-517.98 420.8,-517.95 420.7,-517.93"/>
<polygon fill="black" stroke="black" points="421.7,-514.57 411.17,-515.7 420.11,-521.39 421.7,-514.57"/>
</g>
<!-- roo_powersafefs -->
<g id="node16" class="node">
<title>roo_powersafefs</title>
<polygon fill="plum" stroke="red" points="649.5,-326 516.5,-326 516.5,-288 649.5,-288 649.5,-326"/>
<text text-anchor="middle" x="583" y="-310.8" font-family="Times,serif" font-size="14.00">roo_powersafefs</text>
<text text-anchor="middle" x="583" y="-295.8" font-family="Times,serif" font-size="14.00">1.0.0</text>
</g>
<!-- roo_powersafefs&#45;&gt;roo_threads -->
<g id="edge23" class="edge">
<title>roo_powersafefs&#45;&gt;roo_threads</title>
<path fill="none" stroke="red" d="M586.08,-287.88C588.39,-274.35 591.58,-255.62 594.21,-240.15"/>
<polygon fill="red" stroke="red" points="597.7,-240.51 595.92,-230.07 590.8,-239.34 597.7,-240.51"/>
<text text-anchor="middle" x="625" y="-262" font-family="Times,serif" font-size="10.00" fill="red">1.2.1</text>
<text text-anchor="middle" x="625" y="-251" font-family="Times,serif" font-size="10.00" fill="red">(latest: 1.2.3)</text>
</g>
<!-- roo_prefs -->
<g id="node17" class="node">
<title>roo_prefs</title>
<polygon fill="plum" stroke="red" points="549.5,-614 466.5,-614 466.5,-576 549.5,-576 549.5,-614"/>
<text text-anchor="middle" x="508" y="-598.8" font-family="Times,serif" font-size="14.00">roo_prefs</text>
<text text-anchor="middle" x="508" y="-583.8" font-family="Times,serif" font-size="14.00">1.2.8</text>
</g>
<!-- roo_prefs&#45;&gt;roo_logging -->
<g id="edge24" class="edge">
<title>roo_prefs&#45;&gt;roo_logging</title>
<path fill="none" stroke="red" d="M549.67,-585.13C590.59,-574.72 652.99,-554.1 696,-518 718.48,-499.13 722.91,-490.21 731,-462 743.23,-419.36 734.24,-367.57 726.34,-336.23"/>
<polygon fill="red" stroke="red" points="729.69,-335.2 723.74,-326.43 722.92,-336.99 729.69,-335.2"/>
<text text-anchor="middle" x="768" y="-454" font-family="Times,serif" font-size="10.00" fill="red">1.5.3</text>
<text text-anchor="middle" x="768" y="-443" font-family="Times,serif" font-size="10.00" fill="red">(latest: 1.5.5)</text>
</g>
<!-- roo_prefs&#45;&gt;roo_scheduler -->
<g id="edge25" class="edge">
<title>roo_prefs&#45;&gt;roo_scheduler</title>
<path fill="none" stroke="black" d="M478.11,-575.88C453.46,-560.92 418.3,-539.6 391.52,-523.36"/>
<polygon fill="black" stroke="black" points="393.16,-520.26 382.79,-518.07 389.53,-526.25 393.16,-520.26"/>
</g>
<!-- roo_quantity&#45;&gt;roo_logging -->
<g id="edge26" class="edge">
<title>roo_quantity&#45;&gt;roo_logging</title>
<path fill="none" stroke="red" d="M831.54,-479.86C829.02,-468.23 825.15,-452.95 820,-440 801.98,-394.72 799.17,-380.62 767,-344 763.39,-339.89 759.22,-335.96 754.89,-332.32"/>
<polygon fill="red" stroke="red" points="756.99,-329.52 746.97,-326.08 752.66,-335.02 756.99,-329.52"/>
<text text-anchor="middle" x="845" y="-406" font-family="Times,serif" font-size="10.00" fill="red">1.5.3</text>
<text text-anchor="middle" x="845" y="-395" font-family="Times,serif" font-size="10.00" fill="red">(latest: 1.5.5)</text>
</g>
<!-- roo_scheduler&#45;&gt;roo_collections -->
<g id="edge27" class="edge">
<title>roo_scheduler&#45;&gt;roo_collections</title>
<path fill="none" stroke="red" d="M294.9,-483.71C266.71,-476.2 238.04,-467.44 234,-462 223.68,-448.1 233.93,-436.15 250.13,-426.76"/>
<polygon fill="red" stroke="red" points="251.83,-429.83 259.07,-422.1 248.58,-423.62 251.83,-429.83"/>
<text text-anchor="middle" x="267" y="-454" font-family="Times,serif" font-size="10.00" fill="red">1.4.1</text>
<text text-anchor="middle" x="267" y="-443" font-family="Times,serif" font-size="10.00" fill="red">(latest: 1.4.3)</text>
</g>
<!-- roo_scheduler&#45;&gt;roo_threads -->
<g id="edge28" class="edge">
<title>roo_scheduler&#45;&gt;roo_threads</title>
<path fill="none" stroke="red" d="M372.37,-479.94C377.96,-474.39 383.92,-468.12 389,-462 448.83,-389.9 445.01,-357.35 508,-288 525.4,-268.84 547.66,-250.17 565.81,-236.13"/>
<polygon fill="red" stroke="red" points="568,-238.86 573.83,-230.01 563.76,-233.29 568,-238.86"/>
<text text-anchor="middle" x="497" y="-358" font-family="Times,serif" font-size="10.00" fill="red">1.2.1</text>
<text text-anchor="middle" x="497" y="-347" font-family="Times,serif" font-size="10.00" fill="red">(latest: 1.2.3)</text>
</g>
<!-- roo_testing -->
<g id="node20" class="node">
<title>roo_testing</title>
<polygon fill="#b1dbab" stroke="black" points="769.5,-38 672.5,-38 672.5,0 769.5,0 769.5,-38"/>
<text text-anchor="middle" x="721" y="-22.8" font-family="Times,serif" font-size="14.00">roo_testing</text>
<text text-anchor="middle" x="721" y="-7.8" font-family="Times,serif" font-size="14.00">1.3.3</text>
</g>
<!-- roo_time -->
<g id="node22" class="node">
<title>roo_time</title>
<polygon fill="#b1dbab" stroke="red" points="760.5,-134 681.5,-134 681.5,-96 760.5,-96 760.5,-134"/>
<text text-anchor="middle" x="721" y="-118.8" font-family="Times,serif" font-size="14.00">roo_time</text>
<text text-anchor="middle" x="721" y="-103.8" font-family="Times,serif" font-size="14.00">1.4.3</text>
</g>
<!-- roo_threads&#45;&gt;roo_time -->
<g id="edge29" class="edge">
<title>roo_threads&#45;&gt;roo_time</title>
<path fill="none" stroke="black" d="M622.52,-191.88C641.59,-177.18 668.65,-156.34 689.57,-140.21"/>
<polygon fill="black" stroke="black" points="691.76,-142.94 697.55,-134.07 687.49,-137.4 691.76,-142.94"/>
</g>
<!-- roo_time&#45;&gt;roo_testing -->
<g id="edge30" class="edge">
<title>roo_time&#45;&gt;roo_testing</title>
<path fill="none" stroke="red" d="M721,-95.88C721,-82.35 721,-63.62 721,-48.15"/>
<polygon fill="red" stroke="red" points="724.5,-48.07 721,-38.07 717.5,-48.07 724.5,-48.07"/>
<text text-anchor="middle" x="754" y="-70" font-family="Times,serif" font-size="10.00" fill="red">1.3.2</text>
<text text-anchor="middle" x="754" y="-59" font-family="Times,serif" font-size="10.00" fill="red">(latest: 1.3.3)</text>
</g>
<!-- roo_time_ds3231 -->
<g id="node23" class="node">
<title>roo_time_ds3231</title>
<polygon fill="plum" stroke="red" points="913,-230 775,-230 775,-192 913,-192 913,-230"/>
<text text-anchor="middle" x="844" y="-214.8" font-family="Times,serif" font-size="14.00">roo_time_ds3231</text>
<text text-anchor="middle" x="844" y="-199.8" font-family="Times,serif" font-size="14.00">1.1.5</text>
</g>
<!-- roo_time_ds3231&#45;&gt;roo_time -->
<g id="edge31" class="edge">
<title>roo_time_ds3231&#45;&gt;roo_time</title>
<path fill="none" stroke="red" d="M820.28,-191.88C801.06,-177.18 773.78,-156.34 752.68,-140.21"/>
<polygon fill="red" stroke="red" points="754.71,-137.36 744.64,-134.07 750.46,-142.92 754.71,-137.36"/>
<text text-anchor="middle" x="826" y="-166" font-family="Times,serif" font-size="10.00" fill="red">1.4.1</text>
<text text-anchor="middle" x="826" y="-155" font-family="Times,serif" font-size="10.00" fill="red">(latest: 1.4.3)</text>
</g>
<!-- roo_transceivers&#45;&gt;roo_prefs -->
<g id="edge32" class="edge">
<title>roo_transceivers&#45;&gt;roo_prefs</title>
<path fill="none" stroke="red" d="M487.01,-671.88C490.75,-658.35 495.94,-639.62 500.21,-624.15"/>
<polygon fill="red" stroke="red" points="503.71,-624.64 503,-614.07 496.96,-622.77 503.71,-624.64"/>
<text text-anchor="middle" x="530" y="-646" font-family="Times,serif" font-size="10.00" fill="red">1.2.7</text>
<text text-anchor="middle" x="530" y="-635" font-family="Times,serif" font-size="10.00" fill="red">(latest: 1.2.8)</text>
</g>
<!-- roo_transport -->
<g id="node25" class="node">
<title>roo_transport</title>
<polygon fill="plum" stroke="red" points="687,-518 573,-518 573,-480 687,-480 687,-518"/>
<text text-anchor="middle" x="630" y="-502.8" font-family="Times,serif" font-size="14.00">roo_transport</text>
<text text-anchor="middle" x="630" y="-487.8" font-family="Times,serif" font-size="14.00">1.1.1</text>
</g>
<!-- roo_transport&#45;&gt;roo_collections -->
<g id="edge33" class="edge">
<title>roo_transport&#45;&gt;roo_collections</title>
<path fill="none" stroke="red" d="M595.32,-479.95C584.85,-474.34 573.39,-468.04 563,-462 547.12,-452.76 545.17,-446.54 528,-440 482.2,-422.56 427.7,-413.55 385.16,-408.9"/>
<polygon fill="red" stroke="red" points="385.48,-405.42 375.17,-407.87 384.75,-412.38 385.48,-405.42"/>
<text text-anchor="middle" x="596" y="-454" font-family="Times,serif" font-size="10.00" fill="red">1.4.1</text>
<text text-anchor="middle" x="596" y="-443" font-family="Times,serif" font-size="10.00" fill="red">(latest: 1.4.3)</text>
</g>
<!-- roo_transport&#45;&gt;roo_io -->
<g id="edge34" class="edge">
<title>roo_transport&#45;&gt;roo_io</title>
<path fill="none" stroke="red" d="M631.74,-479.88C633.03,-466.35 634.82,-447.62 636.3,-432.15"/>
<polygon fill="red" stroke="red" points="639.8,-432.36 637.27,-422.07 632.83,-431.69 639.8,-432.36"/>
<text text-anchor="middle" x="668" y="-454" font-family="Times,serif" font-size="10.00" fill="red">2.1.3</text>
<text text-anchor="middle" x="668" y="-443" font-family="Times,serif" font-size="10.00" fill="red">(latest: 2.1.5)</text>
</g>
<!-- roo_wifi -->
<g id="node26" class="node">
<title>roo_wifi</title>
<polygon fill="plum" stroke="red" points="640,-710 568,-710 568,-672 640,-672 640,-710"/>
<text text-anchor="middle" x="604" y="-694.8" font-family="Times,serif" font-size="14.00">roo_wifi</text>
<text text-anchor="middle" x="604" y="-679.8" font-family="Times,serif" font-size="14.00">1.1.3</text>
</g>
<!-- roo_wifi&#45;&gt;roo_prefs -->
<g id="edge35" class="edge">
<title>roo_wifi&#45;&gt;roo_prefs</title>
<path fill="none" stroke="red" d="M595.17,-671.75C588.6,-659.49 578.77,-643.54 567,-632 562.5,-627.59 557.37,-623.48 552.05,-619.72"/>
<polygon fill="red" stroke="red" points="553.87,-616.73 543.6,-614.12 550,-622.56 553.87,-616.73"/>
<text text-anchor="middle" x="617" y="-646" font-family="Times,serif" font-size="10.00" fill="red">1.2.7</text>
<text text-anchor="middle" x="617" y="-635" font-family="Times,serif" font-size="10.00" fill="red">(latest: 1.2.8)</text>
</g>
<!-- roo_windows&#45;&gt;roo_icons -->
<g id="edge37" class="edge">
<title>roo_windows&#45;&gt;roo_icons</title>
<path fill="none" stroke="black" d="M323.48,-671.88C317.82,-658.22 309.95,-639.26 303.5,-623.71"/>
<polygon fill="black" stroke="black" points="306.56,-621.96 299.5,-614.07 300.1,-624.65 306.56,-621.96"/>
</g>
<!-- roo_windows&#45;&gt;roo_locale -->
<g id="edge36" class="edge">
<title>roo_windows&#45;&gt;roo_locale</title>
<path fill="none" stroke="black" d="M303.43,-671.88C280.78,-656.99 248.52,-635.78 223.86,-619.57"/>
<polygon fill="black" stroke="black" points="225.77,-616.64 215.49,-614.07 221.92,-622.49 225.77,-616.64"/>
</g>
<!-- roo_windows&#45;&gt;roo_scheduler -->
<g id="edge38" class="edge">
<title>roo_windows&#45;&gt;roo_scheduler</title>
<path fill="none" stroke="red" d="M333.87,-671.91C336.24,-656.53 339.61,-633.85 342,-614 345.51,-584.86 348.63,-551.42 350.64,-528.33"/>
<polygon fill="red" stroke="red" points="354.15,-528.46 351.51,-518.19 347.17,-527.86 354.15,-528.46"/>
<text text-anchor="middle" x="380" y="-598" font-family="Times,serif" font-size="10.00" fill="red">2.1.6</text>
<text text-anchor="middle" x="380" y="-587" font-family="Times,serif" font-size="10.00" fill="red">(latest: 2.1.7)</text>
</g>
<!-- roo_windows_transceivers -->
<g id="node28" class="node">
<title>roo_windows_transceivers</title>
<polygon fill="plum" stroke="red" points="515,-806 311,-806 311,-768 515,-768 515,-806"/>
<text text-anchor="middle" x="413" y="-790.8" font-family="Times,serif" font-size="14.00">roo_windows_transceivers</text>
<text text-anchor="middle" x="413" y="-775.8" font-family="Times,serif" font-size="14.00">1.0.0</text>
</g>
<!-- roo_windows_transceivers&#45;&gt;roo_transceivers -->
<g id="edge39" class="edge">
<title>roo_windows_transceivers&#45;&gt;roo_transceivers</title>
<path fill="none" stroke="red" d="M426.3,-767.88C436.61,-753.83 451.05,-734.17 462.63,-718.38"/>
<polygon fill="red" stroke="red" points="465.64,-720.2 468.74,-710.07 460,-716.06 465.64,-720.2"/>
<text text-anchor="middle" x="487" y="-742" font-family="Times,serif" font-size="10.00" fill="red">1.1.3</text>
<text text-anchor="middle" x="487" y="-731" font-family="Times,serif" font-size="10.00" fill="red">(latest: 1.1.4)</text>
</g>
<!-- roo_windows_transceivers&#45;&gt;roo_windows -->
<g id="edge40" class="edge">
<title>roo_windows_transceivers&#45;&gt;roo_windows</title>
<path fill="none" stroke="red" d="M390.41,-767.84C384.16,-762.39 377.58,-756.2 372,-750 363.32,-740.36 354.85,-728.85 347.89,-718.63"/>
<polygon fill="red" stroke="red" points="350.64,-716.45 342.19,-710.07 344.81,-720.33 350.64,-716.45"/>
<text text-anchor="middle" x="405" y="-742" font-family="Times,serif" font-size="10.00" fill="red">1.4.1</text>
<text text-anchor="middle" x="405" y="-731" font-family="Times,serif" font-size="10.00" fill="red">(latest: 1.4.2)</text>
</g>
<!-- roo_windows_wifi -->
<g id="node29" class="node">
<title>roo_windows_wifi</title>
<polygon fill="plum" stroke="red" points="674.5,-806 533.5,-806 533.5,-768 674.5,-768 674.5,-806"/>
<text text-anchor="middle" x="604" y="-790.8" font-family="Times,serif" font-size="14.00">roo_windows_wifi</text>
<text text-anchor="middle" x="604" y="-775.8" font-family="Times,serif" font-size="14.00">1.1.3</text>
</g>
<!-- roo_windows_wifi&#45;&gt;roo_wifi -->
<g id="edge41" class="edge">
<title>roo_windows_wifi&#45;&gt;roo_wifi</title>
<path fill="none" stroke="black" d="M604,-767.88C604,-754.35 604,-735.62 604,-720.15"/>
<polygon fill="black" stroke="black" points="607.5,-720.07 604,-710.07 600.5,-720.07 607.5,-720.07"/>
</g>
<!-- roo_windows_wifi&#45;&gt;roo_windows -->
<g id="edge42" class="edge">
<title>roo_windows_wifi&#45;&gt;roo_windows</title>
<path fill="none" stroke="black" d="M584.59,-767.79C569.32,-754.54 546.86,-737.36 524,-728 474.5,-707.73 457.48,-720.33 405,-710 401.98,-709.41 398.91,-708.77 395.8,-708.11"/>
<polygon fill="black" stroke="black" points="396.36,-704.65 385.84,-705.91 394.85,-711.48 396.36,-704.65"/>
</g>
</g>
</svg>
