<?xml version="1.0" encoding="UTF-8" standalone="no"?>
<!DOCTYPE svg PUBLIC "-//W3C//DTD SVG 1.1//EN"
 "http://www.w3.org/Graphics/SVG/1.1/DTD/svg11.dtd">
<!-- Generated by graphviz version 2.42.4 (0)
 -->
<!-- Title: dependencies Pages: 1 -->
<svg width="1121pt" height="793pt"
 viewBox="0.00 0.00 1120.50 793.00" xmlns="http://www.w3.org/2000/svg" xmlns:xlink="http://www.w3.org/1999/xlink">
<g id="graph0" class="graph" transform="scale(1 1) rotate(0) translate(4 789)">
<title>dependencies</title>
<polygon fill="white" stroke="transparent" points="-4,4 -4,-789 1116.5,-789 1116.5,4 -4,4"/>
<!-- roo_backport -->
<g id="node1" class="node">
<title>roo_backport</title>
<polygon fill="#b1dbab" stroke="black" points="543,-230 433,-230 433,-192 543,-192 543,-230"/>
<text text-anchor="middle" x="488" y="-214.8" font-family="Times,serif" font-size="14.00">roo_backport</text>
<text text-anchor="middle" x="488" y="-199.8" font-family="Times,serif" font-size="14.00">1.2.2</text>
</g>
<!-- roo_blink -->
<g id="node2" class="node">
<title>roo_blink</title>
<polygon fill="#b1dbab" stroke="black" points="997,-593 915,-593 915,-555 997,-555 997,-593"/>
<text text-anchor="middle" x="956" y="-577.8" font-family="Times,serif" font-size="14.00">roo_blink</text>
<text text-anchor="middle" x="956" y="-562.8" font-family="Times,serif" font-size="14.00">1.0.6</text>
</g>
<!-- roo_logging -->
<g id="node13" class="node">
<title>roo_logging</title>
<polygon fill="#b1dbab" stroke="red" points="795,-326 695,-326 695,-288 795,-288 795,-326"/>
<text text-anchor="middle" x="745" y="-310.8" font-family="Times,serif" font-size="14.00">roo_logging</text>
<text text-anchor="middle" x="745" y="-295.8" font-family="Times,serif" font-size="14.00">1.5.5</text>
</g>
<!-- roo_blink&#45;&gt;roo_logging -->
<g id="edge1" class="edge">
<title>roo_blink&#45;&gt;roo_logging</title>
<path fill="none" stroke="black" d="M952.22,-554.96C946.77,-531.55 935.18,-490.05 916,-459 882.13,-404.18 822.24,-358.05 783.09,-331.71"/>
<polygon fill="black" stroke="black" points="784.85,-328.68 774.58,-326.08 780.99,-334.52 784.85,-328.68"/>
</g>
<!-- roo_scheduler -->
<g id="node19" class="node">
<title>roo_scheduler</title>
<polygon fill="#b1dbab" stroke="black" points="429,-497 313,-497 313,-459 429,-459 429,-497"/>
<text text-anchor="middle" x="371" y="-481.8" font-family="Times,serif" font-size="14.00">roo_scheduler</text>
<text text-anchor="middle" x="371" y="-466.8" font-family="Times,serif" font-size="14.00">2.1.9</text>
</g>
<!-- roo_blink&#45;&gt;roo_scheduler -->
<g id="edge2" class="edge">
<title>roo_blink&#45;&gt;roo_scheduler</title>
<path fill="none" stroke="black" d="M914.74,-557.36C911.8,-556.49 908.87,-555.69 906,-555 769.22,-522.09 731.64,-532.11 592,-515 524.04,-506.67 506.26,-509.79 439,-497 438.9,-496.98 438.8,-496.96 438.7,-496.94"/>
<polygon fill="black" stroke="black" points="439.62,-493.56 429.11,-494.96 438.2,-500.41 439.62,-493.56"/>
</g>
<!-- roo_collections -->
<g id="node3" class="node">
<title>roo_collections</title>
<polygon fill="#b1dbab" stroke="black" points="471,-401 349,-401 349,-363 471,-363 471,-401"/>
<text text-anchor="middle" x="410" y="-385.8" font-family="Times,serif" font-size="14.00">roo_collections</text>
<text text-anchor="middle" x="410" y="-370.8" font-family="Times,serif" font-size="14.00">1.4.3</text>
</g>
<!-- roo_collections&#45;&gt;roo_backport -->
<g id="edge3" class="edge">
<title>roo_collections&#45;&gt;roo_backport</title>
<path fill="none" stroke="black" d="M418.35,-362.91C432.03,-333.26 459.33,-274.12 475.38,-239.33"/>
<polygon fill="black" stroke="black" points="478.58,-240.76 479.59,-230.21 472.23,-237.82 478.58,-240.76"/>
</g>
<!-- roo_comms -->
<g id="node4" class="node">
<title>roo_comms</title>
<polygon fill="plum" stroke="red" points="830.5,-785 733.5,-785 733.5,-747 830.5,-747 830.5,-785"/>
<text text-anchor="middle" x="782" y="-769.8" font-family="Times,serif" font-size="14.00">roo_comms</text>
<text text-anchor="middle" x="782" y="-754.8" font-family="Times,serif" font-size="14.00">1.1.3</text>
</g>
<!-- roo_comms&#45;&gt;roo_blink -->
<g id="edge4" class="edge">
<title>roo_comms&#45;&gt;roo_blink</title>
<path fill="none" stroke="red" d="M798.68,-746.78C829.73,-712.88 896.47,-640 932.23,-600.95"/>
<polygon fill="red" stroke="red" points="935.19,-602.9 939.37,-593.16 930.03,-598.17 935.19,-602.9"/>
<text text-anchor="middle" x="919" y="-673" font-family="Times,serif" font-size="10.00" fill="red">1.0.4</text>
<text text-anchor="middle" x="919" y="-662" font-family="Times,serif" font-size="10.00" fill="red">(latest: 1.0.6)</text>
</g>
<!-- roo_control -->
<g id="node5" class="node">
<title>roo_control</title>
<polygon fill="#b1dbab" stroke="black" points="1112.5,-593 1015.5,-593 1015.5,-555 1112.5,-555 1112.5,-593"/>
<text text-anchor="middle" x="1064" y="-577.8" font-family="Times,serif" font-size="14.00">roo_control</text>
<text text-anchor="middle" x="1064" y="-562.8" font-family="Times,serif" font-size="14.00">1.2.5</text>
</g>
<!-- roo_comms&#45;&gt;roo_control -->
<g id="edge5" class="edge">
<title>roo_comms&#45;&gt;roo_control</title>
<path fill="none" stroke="red" d="M830.84,-749.62C867.3,-736.77 917.29,-716.18 956,-689 991.28,-664.23 1024.18,-626.57 1044.18,-601.39"/>
<polygon fill="red" stroke="red" points="1047.05,-603.4 1050.46,-593.36 1041.54,-599.09 1047.05,-603.4"/>
<text text-anchor="middle" x="1032" y="-673" font-family="Times,serif" font-size="10.00" fill="red">1.2.3</text>
<text text-anchor="middle" x="1032" y="-662" font-family="Times,serif" font-size="10.00" fill="red">(latest: 1.2.5)</text>
</g>
<!-- roo_io -->
<g id="node11" class="node">
<title>roo_io</title>
<polygon fill="#b1dbab" stroke="red" points="692.5,-401 633.5,-401 633.5,-363 692.5,-363 692.5,-401"/>
<text text-anchor="middle" x="663" y="-385.8" font-family="Times,serif" font-size="14.00">roo_io</text>
<text text-anchor="middle" x="663" y="-370.8" font-family="Times,serif" font-size="14.00">2.1.5</text>
</g>
<!-- roo_comms&#45;&gt;roo_io -->
<g id="edge6" class="edge">
<title>roo_comms&#45;&gt;roo_io</title>
<path fill="none" stroke="red" d="M773.05,-746.99C758.31,-716.3 729.43,-651.47 718,-593 706.57,-534.52 732.2,-515.73 714,-459 708.17,-440.83 696.59,-422.99 685.93,-409.16"/>
<polygon fill="red" stroke="red" points="688.46,-406.72 679.48,-401.1 683,-411.09 688.46,-406.72"/>
<text text-anchor="middle" x="751" y="-577" font-family="Times,serif" font-size="10.00" fill="red">2.1.1</text>
<text text-anchor="middle" x="751" y="-566" font-family="Times,serif" font-size="10.00" fill="red">(latest: 2.1.5)</text>
</g>
<!-- roo_transceivers -->
<g id="node24" class="node">
<title>roo_transceivers</title>
<polygon fill="#b1dbab" stroke="black" points="497.5,-689 362.5,-689 362.5,-651 497.5,-651 497.5,-689"/>
<text text-anchor="middle" x="430" y="-673.8" font-family="Times,serif" font-size="14.00">roo_transceivers</text>
<text text-anchor="middle" x="430" y="-658.8" font-family="Times,serif" font-size="14.00">1.1.5</text>
</g>
<!-- roo_comms&#45;&gt;roo_transceivers -->
<g id="edge7" class="edge">
<title>roo_comms&#45;&gt;roo_transceivers</title>
<path fill="none" stroke="red" d="M733.47,-760.25C702.16,-755.62 661.38,-746.57 629,-729 616.57,-722.25 618.6,-713.43 606,-707 568.73,-688 552.87,-696.75 507.4,-688.87"/>
<polygon fill="red" stroke="red" points="508.04,-685.43 497.56,-686.99 506.73,-692.31 508.04,-685.43"/>
<text text-anchor="middle" x="662" y="-721" font-family="Times,serif" font-size="10.00" fill="red">1.1.4</text>
<text text-anchor="middle" x="662" y="-710" font-family="Times,serif" font-size="10.00" fill="red">(latest: 1.1.5)</text>
</g>
<!-- roo_quantity -->
<g id="node18" class="node">
<title>roo_quantity</title>
<polygon fill="#b1dbab" stroke="black" points="906.5,-497 799.5,-497 799.5,-459 906.5,-459 906.5,-497"/>
<text text-anchor="middle" x="853" y="-481.8" font-family="Times,serif" font-size="14.00">roo_quantity</text>
<text text-anchor="middle" x="853" y="-466.8" font-family="Times,serif" font-size="14.00">1.1.8</text>
</g>
<!-- roo_control&#45;&gt;roo_quantity -->
<g id="edge8" class="edge">
<title>roo_control&#45;&gt;roo_quantity</title>
<path fill="none" stroke="black" d="M1023.32,-554.88C989.02,-539.6 939.8,-517.67 903.08,-501.31"/>
<polygon fill="black" stroke="black" points="904.12,-497.94 893.56,-497.07 901.27,-504.34 904.12,-497.94"/>
</g>
<!-- roo_control&#45;&gt;roo_scheduler -->
<g id="edge9" class="edge">
<title>roo_control&#45;&gt;roo_scheduler</title>
<path fill="none" stroke="black" d="M1015.42,-557.29C1012.25,-556.46 1009.09,-555.69 1006,-555 879.43,-526.8 846.01,-528.09 717,-515 593.82,-502.5 561.2,-516.94 439,-497 438.9,-496.98 438.8,-496.97 438.69,-496.95"/>
<polygon fill="black" stroke="black" points="439.55,-493.55 429.08,-495.17 438.27,-500.43 439.55,-493.55"/>
</g>
<!-- roo_dashboard -->
<g id="node6" class="node">
<title>roo_dashboard</title>
<polygon fill="plum" stroke="red" points="228,-785 106,-785 106,-747 228,-747 228,-785"/>
<text text-anchor="middle" x="167" y="-769.8" font-family="Times,serif" font-size="14.00">roo_dashboard</text>
<text text-anchor="middle" x="167" y="-754.8" font-family="Times,serif" font-size="14.00">1.0.1</text>
</g>
<!-- roo_windows -->
<g id="node27" class="node">
<title>roo_windows</title>
<polygon fill="khaki" stroke="red" points="344.5,-689 235.5,-689 235.5,-651 344.5,-651 344.5,-689"/>
<text text-anchor="middle" x="290" y="-673.8" font-family="Times,serif" font-size="14.00">roo_windows</text>
<text text-anchor="middle" x="290" y="-658.8" font-family="Times,serif" font-size="14.00">1.4.2</text>
</g>
<!-- roo_dashboard&#45;&gt;roo_windows -->
<g id="edge10" class="edge">
<title>roo_dashboard&#45;&gt;roo_windows</title>
<path fill="none" stroke="red" d="M187.35,-746.87C200.83,-735.11 219.1,-719.68 236,-707 241.45,-702.91 247.34,-698.75 253.15,-694.77"/>
<polygon fill="red" stroke="red" points="255.22,-697.59 261.56,-689.11 251.31,-691.79 255.22,-697.59"/>
<text text-anchor="middle" x="269" y="-721" font-family="Times,serif" font-size="10.00" fill="red">1.4.1</text>
<text text-anchor="middle" x="269" y="-710" font-family="Times,serif" font-size="10.00" fill="red">(latest: 1.4.2)</text>
</g>
<!-- roo_display -->
<g id="node7" class="node">
<title>roo_display</title>
<polygon fill="#b1dbab" stroke="black" points="295,-497 197,-497 197,-459 295,-459 295,-497"/>
<text text-anchor="middle" x="246" y="-481.8" font-family="Times,serif" font-size="14.00">roo_display</text>
<text text-anchor="middle" x="246" y="-466.8" font-family="Times,serif" font-size="14.00">3.0.2</text>
</g>
<!-- roo_display&#45;&gt;roo_collections -->
<g id="edge11" class="edge">
<title>roo_display&#45;&gt;roo_collections</title>
<path fill="none" stroke="black" d="M277.62,-458.88C303.83,-443.86 341.24,-422.41 369.61,-406.15"/>
<polygon fill="black" stroke="black" points="371.54,-409.08 378.48,-401.07 368.06,-403 371.54,-409.08"/>
</g>
<!-- roo_display&#45;&gt;roo_io -->
<g id="edge12" class="edge">
<title>roo_display&#45;&gt;roo_io</title>
<path fill="none" stroke="black" d="M295.18,-460.95C298.15,-460.23 301.1,-459.57 304,-459 394.18,-441.28 422.07,-467.72 510,-441 529.41,-435.1 531.36,-427.01 550,-419 573.79,-408.78 601.47,-399.92 623.48,-393.54"/>
<polygon fill="black" stroke="black" points="624.5,-396.89 633.16,-390.79 622.59,-390.16 624.5,-396.89"/>
</g>
<!-- roo_flags -->
<g id="node8" class="node">
<title>roo_flags</title>
<polygon fill="#b1dbab" stroke="black" points="784,-230 704,-230 704,-192 784,-192 784,-230"/>
<text text-anchor="middle" x="744" y="-214.8" font-family="Times,serif" font-size="14.00">roo_flags</text>
<text text-anchor="middle" x="744" y="-199.8" font-family="Times,serif" font-size="14.00">1.2.3</text>
</g>
<!-- roo_fonts_basic -->
<g id="node9" class="node">
<title>roo_fonts_basic</title>
<polygon fill="#b1dbab" stroke="red" points="126,-593 0,-593 0,-555 126,-555 126,-593"/>
<text text-anchor="middle" x="63" y="-577.8" font-family="Times,serif" font-size="14.00">roo_fonts_basic</text>
<text text-anchor="middle" x="63" y="-562.8" font-family="Times,serif" font-size="14.00">1.0.1</text>
</g>
<!-- roo_fonts_basic&#45;&gt;roo_display -->
<g id="edge13" class="edge">
<title>roo_fonts_basic&#45;&gt;roo_display</title>
<path fill="none" stroke="red" d="M98.28,-554.88C127.78,-539.73 169.99,-518.04 201.75,-501.73"/>
<polygon fill="red" stroke="red" points="203.53,-504.75 210.82,-497.07 200.33,-498.52 203.53,-504.75"/>
<text text-anchor="middle" x="204" y="-529" font-family="Times,serif" font-size="10.00" fill="red">3.0.1</text>
<text text-anchor="middle" x="204" y="-518" font-family="Times,serif" font-size="10.00" fill="red">(latest: 3.0.2)</text>
</g>
<!-- roo_icons -->
<g id="node10" class="node">
<title>roo_icons</title>
<polygon fill="#b1dbab" stroke="black" points="333.5,-593 250.5,-593 250.5,-555 333.5,-555 333.5,-593"/>
<text text-anchor="middle" x="292" y="-577.8" font-family="Times,serif" font-size="14.00">roo_icons</text>
<text text-anchor="middle" x="292" y="-562.8" font-family="Times,serif" font-size="14.00">1.2.2</text>
</g>
<!-- roo_icons&#45;&gt;roo_display -->
<g id="edge14" class="edge">
<title>roo_icons&#45;&gt;roo_display</title>
<path fill="none" stroke="black" d="M283.13,-554.88C276.39,-541.09 266.99,-521.9 259.34,-506.26"/>
<polygon fill="black" stroke="black" points="262.38,-504.51 254.84,-497.07 256.09,-507.59 262.38,-504.51"/>
</g>
<!-- roo_io&#45;&gt;roo_logging -->
<g id="edge15" class="edge">
<title>roo_io&#45;&gt;roo_logging</title>
<path fill="none" stroke="black" d="M683.27,-362.96C693.42,-353.92 705.87,-342.83 716.93,-332.99"/>
<polygon fill="black" stroke="black" points="719.54,-335.35 724.68,-326.09 714.88,-330.13 719.54,-335.35"/>
</g>
<!-- roo_locale -->
<g id="node12" class="node">
<title>roo_locale</title>
<polygon fill="#b1dbab" stroke="black" points="232,-593 144,-593 144,-555 232,-555 232,-593"/>
<text text-anchor="middle" x="188" y="-577.8" font-family="Times,serif" font-size="14.00">roo_locale</text>
<text text-anchor="middle" x="188" y="-562.8" font-family="Times,serif" font-size="14.00">1.1.2</text>
</g>
<!-- roo_logging&#45;&gt;roo_backport -->
<g id="edge16" class="edge">
<title>roo_logging&#45;&gt;roo_backport</title>
<path fill="none" stroke="black" d="M725.45,-287.83C708.01,-271.79 684.41,-250.55 679,-248 633.8,-226.67 617.07,-239.49 568,-230 563.27,-229.09 558.39,-228.1 553.49,-227.07"/>
<polygon fill="black" stroke="black" points="553.94,-223.59 543.43,-224.93 552.48,-230.44 553.94,-223.59"/>
</g>
<!-- roo_logging&#45;&gt;roo_flags -->
<g id="edge17" class="edge">
<title>roo_logging&#45;&gt;roo_flags</title>
<path fill="none" stroke="black" d="M744.81,-287.88C744.66,-274.35 744.46,-255.62 744.3,-240.15"/>
<polygon fill="black" stroke="black" points="747.8,-240.03 744.19,-230.07 740.8,-240.11 747.8,-240.03"/>
</g>
<!-- roo_threads -->
<g id="node21" class="node">
<title>roo_threads</title>
<polygon fill="#b1dbab" stroke="red" points="677.5,-230 576.5,-230 576.5,-192 677.5,-192 677.5,-230"/>
<text text-anchor="middle" x="627" y="-214.8" font-family="Times,serif" font-size="14.00">roo_threads</text>
<text text-anchor="middle" x="627" y="-199.8" font-family="Times,serif" font-size="14.00">1.2.3</text>
</g>
<!-- roo_logging&#45;&gt;roo_threads -->
<g id="edge18" class="edge">
<title>roo_logging&#45;&gt;roo_threads</title>
<path fill="none" stroke="black" d="M735.87,-287.86C728.84,-275.34 718.1,-259.03 705,-248 699.27,-243.18 692.79,-238.87 686.08,-235.04"/>
<polygon fill="black" stroke="black" points="687.3,-231.73 676.82,-230.14 684.02,-237.91 687.3,-231.73"/>
</g>
<!-- roo_monitoring -->
<g id="node14" class="node">
<title>roo_monitoring</title>
<polygon fill="plum" stroke="red" points="572.5,-497 447.5,-497 447.5,-459 572.5,-459 572.5,-497"/>
<text text-anchor="middle" x="510" y="-481.8" font-family="Times,serif" font-size="14.00">roo_monitoring</text>
<text text-anchor="middle" x="510" y="-466.8" font-family="Times,serif" font-size="14.00">1.0.0</text>
</g>
<!-- roo_monitoring&#45;&gt;roo_collections -->
<g id="edge19" class="edge">
<title>roo_monitoring&#45;&gt;roo_collections</title>
<path fill="none" stroke="red" d="M488.94,-458.91C482.47,-453.25 475.38,-446.93 469,-441 457.65,-430.46 445.4,-418.51 435.01,-408.2"/>
<polygon fill="red" stroke="red" points="437.37,-405.62 427.82,-401.04 432.43,-410.57 437.37,-405.62"/>
<text text-anchor="middle" x="502" y="-433" font-family="Times,serif" font-size="10.00" fill="red">1.4.1</text>
<text text-anchor="middle" x="502" y="-422" font-family="Times,serif" font-size="10.00" fill="red">(latest: 1.4.3)</text>
</g>
<!-- roo_monitoring&#45;&gt;roo_io -->
<g id="edge20" class="edge">
<title>roo_monitoring&#45;&gt;roo_io</title>
<path fill="none" stroke="red" d="M530.4,-458.85C544.75,-446.64 564.75,-430.7 584,-419 596.54,-411.38 610.97,-404.35 624.04,-398.56"/>
<polygon fill="red" stroke="red" points="625.47,-401.75 633.26,-394.57 622.7,-395.32 625.47,-401.75"/>
<text text-anchor="middle" x="617" y="-433" font-family="Times,serif" font-size="10.00" fill="red">2.1.4</text>
<text text-anchor="middle" x="617" y="-422" font-family="Times,serif" font-size="10.00" fill="red">(latest: 2.1.5)</text>
</g>
<!-- roo_onewire -->
<g id="node15" class="node">
<title>roo_onewire</title>
<polygon fill="#b1dbab" stroke="black" points="897,-593 793,-593 793,-555 897,-555 897,-593"/>
<text text-anchor="middle" x="845" y="-577.8" font-family="Times,serif" font-size="14.00">roo_onewire</text>
<text text-anchor="middle" x="845" y="-562.8" font-family="Times,serif" font-size="14.00">2.0.9</text>
</g>
<!-- roo_onewire&#45;&gt;roo_quantity -->
<g id="edge22" class="edge">
<title>roo_onewire&#45;&gt;roo_quantity</title>
<path fill="none" stroke="black" d="M846.54,-554.88C847.69,-541.35 849.29,-522.62 850.6,-507.15"/>
<polygon fill="black" stroke="black" points="854.1,-507.33 851.46,-497.07 847.13,-506.74 854.1,-507.33"/>
</g>
<!-- roo_onewire&#45;&gt;roo_scheduler -->
<g id="edge21" class="edge">
<title>roo_onewire&#45;&gt;roo_scheduler</title>
<path fill="none" stroke="black" d="M792.92,-558.07C788.23,-556.95 783.54,-555.9 779,-555 716.6,-542.6 699.78,-547.31 637,-537 548.41,-522.46 526.43,-517.38 439,-497 438.9,-496.98 438.8,-496.95 438.7,-496.93"/>
<polygon fill="black" stroke="black" points="439.72,-493.58 429.18,-494.64 438.09,-500.38 439.72,-493.58"/>
</g>
<!-- roo_powersafefs -->
<g id="node16" class="node">
<title>roo_powersafefs</title>
<polygon fill="plum" stroke="red" points="676.5,-326 543.5,-326 543.5,-288 676.5,-288 676.5,-326"/>
<text text-anchor="middle" x="610" y="-310.8" font-family="Times,serif" font-size="14.00">roo_powersafefs</text>
<text text-anchor="middle" x="610" y="-295.8" font-family="Times,serif" font-size="14.00">1.0.0</text>
</g>
<!-- roo_powersafefs&#45;&gt;roo_threads -->
<g id="edge23" class="edge">
<title>roo_powersafefs&#45;&gt;roo_threads</title>
<path fill="none" stroke="red" d="M613.28,-287.88C615.72,-274.35 619.11,-255.62 621.91,-240.15"/>
<polygon fill="red" stroke="red" points="625.4,-240.53 623.73,-230.07 618.51,-239.29 625.4,-240.53"/>
<text text-anchor="middle" x="653" y="-262" font-family="Times,serif" font-size="10.00" fill="red">1.2.1</text>
<text text-anchor="middle" x="653" y="-251" font-family="Times,serif" font-size="10.00" fill="red">(latest: 1.2.3)</text>
</g>
<!-- roo_prefs -->
<g id="node17" class="node">
<title>roo_prefs</title>
<polygon fill="#b1dbab" stroke="black" points="565.5,-593 482.5,-593 482.5,-555 565.5,-555 565.5,-593"/>
<text text-anchor="middle" x="524" y="-577.8" font-family="Times,serif" font-size="14.00">roo_prefs</text>
<text text-anchor="middle" x="524" y="-562.8" font-family="Times,serif" font-size="14.00">1.2.9</text>
</g>
<!-- roo_prefs&#45;&gt;roo_logging -->
<g id="edge24" class="edge">
<title>roo_prefs&#45;&gt;roo_logging</title>
<path fill="none" stroke="black" d="M565.53,-564.67C607.04,-554.58 670.74,-534.14 714,-497 735.92,-478.18 739.4,-468.87 747,-441 756.6,-405.79 753.59,-363.37 749.87,-336.06"/>
<polygon fill="black" stroke="black" points="753.32,-335.41 748.39,-326.04 746.39,-336.44 753.32,-335.41"/>
</g>
<!-- roo_prefs&#45;&gt;roo_scheduler -->
<g id="edge25" class="edge">
<title>roo_prefs&#45;&gt;roo_scheduler</title>
<path fill="none" stroke="black" d="M494.5,-554.88C470.16,-539.92 435.45,-518.6 409.03,-502.36"/>
<polygon fill="black" stroke="black" points="410.76,-499.32 400.41,-497.07 407.1,-505.29 410.76,-499.32"/>
</g>
<!-- roo_quantity&#45;&gt;roo_logging -->
<g id="edge26" class="edge">
<title>roo_quantity&#45;&gt;roo_logging</title>
<path fill="none" stroke="black" d="M846.1,-458.58C835.51,-431.73 813.45,-381.01 785,-344 782.09,-340.22 778.75,-336.51 775.27,-333"/>
<polygon fill="black" stroke="black" points="777.68,-330.46 768.01,-326.11 772.86,-335.54 777.68,-330.46"/>
</g>
<!-- roo_scheduler&#45;&gt;roo_collections -->
<g id="edge27" class="edge">
<title>roo_scheduler&#45;&gt;roo_collections</title>
<path fill="none" stroke="black" d="M376.99,-458.76C380.93,-447.23 386.38,-432.09 392,-419 393.23,-416.14 394.57,-413.18 395.96,-410.25"/>
<polygon fill="black" stroke="black" points="399.18,-411.64 400.43,-401.12 392.89,-408.57 399.18,-411.64"/>
</g>
<!-- roo_scheduler&#45;&gt;roo_threads -->
<g id="edge28" class="edge">
<title>roo_scheduler&#45;&gt;roo_threads</title>
<path fill="none" stroke="black" d="M429.27,-461.12C455.04,-453.63 480.56,-445.4 485,-441 535.84,-390.67 494.72,-347.12 535,-288 549.06,-267.36 570.28,-249.31 588.79,-235.98"/>
<polygon fill="black" stroke="black" points="590.88,-238.8 597.08,-230.2 586.87,-233.06 590.88,-238.8"/>
</g>
<!-- roo_testing -->
<g id="node20" class="node">
<title>roo_testing</title>
<polygon fill="#b1dbab" stroke="black" points="797.5,-38 700.5,-38 700.5,0 797.5,0 797.5,-38"/>
<text text-anchor="middle" x="749" y="-22.8" font-family="Times,serif" font-size="14.00">roo_testing</text>
<text text-anchor="middle" x="749" y="-7.8" font-family="Times,serif" font-size="14.00">1.3.4</text>
</g>
<!-- roo_time -->
<g id="node22" class="node">
<title>roo_time</title>
<polygon fill="#b1dbab" stroke="red" points="788.5,-134 709.5,-134 709.5,-96 788.5,-96 788.5,-134"/>
<text text-anchor="middle" x="749" y="-118.8" font-family="Times,serif" font-size="14.00">roo_time</text>
<text text-anchor="middle" x="749" y="-103.8" font-family="Times,serif" font-size="14.00">1.4.3</text>
</g>
<!-- roo_threads&#45;&gt;roo_time -->
<g id="edge29" class="edge">
<title>roo_threads&#45;&gt;roo_time</title>
<path fill="none" stroke="black" d="M650.52,-191.88C669.59,-177.18 696.65,-156.34 717.57,-140.21"/>
<polygon fill="black" stroke="black" points="719.76,-142.94 725.55,-134.07 715.49,-137.4 719.76,-142.94"/>
</g>
<!-- roo_time&#45;&gt;roo_testing -->
<g id="edge30" class="edge">
<title>roo_time&#45;&gt;roo_testing</title>
<path fill="none" stroke="red" d="M749,-95.88C749,-82.35 749,-63.62 749,-48.15"/>
<polygon fill="red" stroke="red" points="752.5,-48.07 749,-38.07 745.5,-48.07 752.5,-48.07"/>
<text text-anchor="middle" x="782" y="-70" font-family="Times,serif" font-size="10.00" fill="red">1.3.2</text>
<text text-anchor="middle" x="782" y="-59" font-family="Times,serif" font-size="10.00" fill="red">(latest: 1.3.4)</text>
</g>
<!-- roo_time_ds3231 -->
<g id="node23" class="node">
<title>roo_time_ds3231</title>
<polygon fill="plum" stroke="red" points="940,-230 802,-230 802,-192 940,-192 940,-230"/>
<text text-anchor="middle" x="871" y="-214.8" font-family="Times,serif" font-size="14.00">roo_time_ds3231</text>
<text text-anchor="middle" x="871" y="-199.8" font-family="Times,serif" font-size="14.00">1.1.5</text>
</g>
<!-- roo_time_ds3231&#45;&gt;roo_time -->
<g id="edge31" class="edge">
<title>roo_time_ds3231&#45;&gt;roo_time</title>
<path fill="none" stroke="red" d="M847.48,-191.88C828.41,-177.18 801.35,-156.34 780.43,-140.21"/>
<polygon fill="red" stroke="red" points="782.51,-137.4 772.45,-134.07 778.24,-142.94 782.51,-137.4"/>
<text text-anchor="middle" x="853" y="-166" font-family="Times,serif" font-size="10.00" fill="red">1.4.1</text>
<text text-anchor="middle" x="853" y="-155" font-family="Times,serif" font-size="10.00" fill="red">(latest: 1.4.3)</text>
</g>
<!-- roo_transceivers&#45;&gt;roo_prefs -->
<g id="edge32" class="edge">
<title>roo_transceivers&#45;&gt;roo_prefs</title>
<path fill="none" stroke="black" d="M448.12,-650.88C462.43,-636.57 482.56,-616.44 498.49,-600.51"/>
<polygon fill="black" stroke="black" points="501.34,-602.61 505.93,-593.07 496.39,-597.66 501.34,-602.61"/>
</g>
<!-- roo_transport -->
<g id="node25" class="node">
<title>roo_transport</title>
<polygon fill="#b1dbab" stroke="black" points="705,-497 591,-497 591,-459 705,-459 705,-497"/>
<text text-anchor="middle" x="648" y="-481.8" font-family="Times,serif" font-size="14.00">roo_transport</text>
<text text-anchor="middle" x="648" y="-466.8" font-family="Times,serif" font-size="14.00">1.1.2</text>
</g>
<!-- roo_transport&#45;&gt;roo_collections -->
<g id="edge33" class="edge">
<title>roo_transport&#45;&gt;roo_collections</title>
<path fill="none" stroke="black" d="M645.22,-458.75C642.25,-445.67 636.19,-428.71 624,-419 602.3,-401.72 534.76,-392.41 481.29,-387.61"/>
<polygon fill="black" stroke="black" points="481.4,-384.11 471.14,-386.74 480.81,-391.09 481.4,-384.11"/>
</g>
<!-- roo_transport&#45;&gt;roo_io -->
<g id="edge34" class="edge">
<title>roo_transport&#45;&gt;roo_io</title>
<path fill="none" stroke="black" d="M650.89,-458.88C653.05,-445.35 656.04,-426.62 658.51,-411.15"/>
<polygon fill="black" stroke="black" points="662,-411.5 660.12,-401.07 655.08,-410.39 662,-411.5"/>
</g>
<!-- roo_wifi -->
<g id="node26" class="node">
<title>roo_wifi</title>
<polygon fill="plum" stroke="black" points="588,-689 516,-689 516,-651 588,-651 588,-689"/>
<text text-anchor="middle" x="552" y="-673.8" font-family="Times,serif" font-size="14.00">roo_wifi</text>
<text text-anchor="middle" x="552" y="-658.8" font-family="Times,serif" font-size="14.00">1.1.4</text>
</g>
<!-- roo_wifi&#45;&gt;roo_prefs -->
<g id="edge35" class="edge">
<title>roo_wifi&#45;&gt;roo_prefs</title>
<path fill="none" stroke="black" d="M546.6,-650.88C542.53,-637.22 536.89,-618.26 532.25,-602.71"/>
<polygon fill="black" stroke="black" points="535.59,-601.65 529.38,-593.07 528.88,-603.65 535.59,-601.65"/>
</g>
<!-- roo_windows&#45;&gt;roo_icons -->
<g id="edge37" class="edge">
<title>roo_windows&#45;&gt;roo_icons</title>
<path fill="none" stroke="red" d="M290.26,-650.97C290.44,-639.52 290.7,-624.39 291,-611 291.05,-608.57 291.12,-606.06 291.18,-603.53"/>
<polygon fill="red" stroke="red" points="294.68,-603.4 291.45,-593.31 287.69,-603.22 294.68,-603.4"/>
<text text-anchor="middle" x="324" y="-625" font-family="Times,serif" font-size="10.00" fill="red">1.2.1</text>
<text text-anchor="middle" x="324" y="-614" font-family="Times,serif" font-size="10.00" fill="red">(latest: 1.2.2)</text>
</g>
<!-- roo_windows&#45;&gt;roo_locale -->
<g id="edge36" class="edge">
<title>roo_windows&#45;&gt;roo_locale</title>
<path fill="none" stroke="red" d="M245.88,-650.81C237,-645.88 228.2,-639.94 221,-633 212.12,-624.44 204.93,-612.98 199.54,-602.5"/>
<polygon fill="red" stroke="red" points="202.6,-600.77 195.11,-593.27 196.28,-603.8 202.6,-600.77"/>
<text text-anchor="middle" x="254" y="-625" font-family="Times,serif" font-size="10.00" fill="red">1.1.1</text>
<text text-anchor="middle" x="254" y="-614" font-family="Times,serif" font-size="10.00" fill="red">(latest: 1.1.2)</text>
</g>
<!-- roo_windows&#45;&gt;roo_scheduler -->
<g id="edge38" class="edge">
<title>roo_windows&#45;&gt;roo_scheduler</title>
<path fill="none" stroke="red" d="M337.99,-650.96C345.41,-646.18 352.19,-640.27 357,-633 381.98,-595.21 380.12,-540.33 375.94,-507.31"/>
<polygon fill="red" stroke="red" points="379.4,-506.81 374.53,-497.41 372.47,-507.8 379.4,-506.81"/>
<text text-anchor="middle" x="411" y="-577" font-family="Times,serif" font-size="10.00" fill="red">2.1.6</text>
<text text-anchor="middle" x="411" y="-566" font-family="Times,serif" font-size="10.00" fill="red">(latest: 2.1.9)</text>
</g>
<!-- roo_windows_transceivers -->
<g id="node28" class="node">
<title>roo_windows_transceivers</title>
<polygon fill="plum" stroke="red" points="450,-785 246,-785 246,-747 450,-747 450,-785"/>
<text text-anchor="middle" x="348" y="-769.8" font-family="Times,serif" font-size="14.00">roo_windows_transceivers</text>
<text text-anchor="middle" x="348" y="-754.8" font-family="Times,serif" font-size="14.00">1.0.0</text>
</g>
<!-- roo_windows_transceivers&#45;&gt;roo_transceivers -->
<g id="edge39" class="edge">
<title>roo_windows_transceivers&#45;&gt;roo_transceivers</title>
<path fill="none" stroke="red" d="M366.13,-746.99C371.66,-741.33 377.67,-735 383,-729 392.01,-718.85 401.51,-707.31 409.59,-697.2"/>
<polygon fill="red" stroke="red" points="412.54,-699.12 416.01,-689.11 407.05,-694.77 412.54,-699.12"/>
<text text-anchor="middle" x="434" y="-721" font-family="Times,serif" font-size="10.00" fill="red">1.1.3</text>
<text text-anchor="middle" x="434" y="-710" font-family="Times,serif" font-size="10.00" fill="red">(latest: 1.1.5)</text>
</g>
<!-- roo_windows_transceivers&#45;&gt;roo_windows -->
<g id="edge40" class="edge">
<title>roo_windows_transceivers&#45;&gt;roo_windows</title>
<path fill="none" stroke="red" d="M330.56,-746.72C325.83,-741.26 320.94,-735.1 317,-729 310.9,-719.55 305.4,-708.5 300.98,-698.6"/>
<polygon fill="red" stroke="red" points="304.1,-696.99 296.94,-689.18 297.67,-699.75 304.1,-696.99"/>
<text text-anchor="middle" x="350" y="-721" font-family="Times,serif" font-size="10.00" fill="red">1.4.1</text>
<text text-anchor="middle" x="350" y="-710" font-family="Times,serif" font-size="10.00" fill="red">(latest: 1.4.2)</text>
</g>
<!-- roo_windows_wifi -->
<g id="node29" class="node">
<title>roo_windows_wifi</title>
<polygon fill="plum" stroke="red" points="609.5,-785 468.5,-785 468.5,-747 609.5,-747 609.5,-785"/>
<text text-anchor="middle" x="539" y="-769.8" font-family="Times,serif" font-size="14.00">roo_windows_wifi</text>
<text text-anchor="middle" x="539" y="-754.8" font-family="Times,serif" font-size="14.00">1.1.3</text>
</g>
<!-- roo_windows_wifi&#45;&gt;roo_wifi -->
<g id="edge41" class="edge">
<title>roo_windows_wifi&#45;&gt;roo_wifi</title>
<path fill="none" stroke="red" d="M537.91,-746.84C537.56,-735.34 537.74,-720.2 540,-707 540.46,-704.29 541.09,-701.51 541.83,-698.76"/>
<polygon fill="red" stroke="red" points="545.22,-699.62 544.79,-689.04 538.52,-697.58 545.22,-699.62"/>
<text text-anchor="middle" x="573" y="-721" font-family="Times,serif" font-size="10.00" fill="red">1.1.3</text>
<text text-anchor="middle" x="573" y="-710" font-family="Times,serif" font-size="10.00" fill="red">(latest: 1.1.4)</text>
</g>
<!-- roo_windows_wifi&#45;&gt;roo_windows -->
<g id="edge42" class="edge">
<title>roo_windows_wifi&#45;&gt;roo_windows</title>
<path fill="none" stroke="black" d="M523.01,-746.74C510.3,-733.48 491.32,-716.29 471,-707 425.48,-686.19 406.96,-698.69 354.38,-689.03"/>
<polygon fill="black" stroke="black" points="355.02,-685.59 344.53,-687.04 353.64,-692.45 355.02,-685.59"/>
</g>
</g>
</svg>
