<?xml version="1.0" encoding="UTF-8" standalone="no"?>
<!DOCTYPE svg PUBLIC "-//W3C//DTD SVG 1.1//EN"
 "http://www.w3.org/Graphics/SVG/1.1/DTD/svg11.dtd">
<!-- Generated by graphviz version 2.42.4 (0)
 -->
<!-- Title: dependencies Pages: 1 -->
<svg width="1506pt" height="788pt"
 viewBox="0.00 0.00 1506.00 788.00" xmlns="http://www.w3.org/2000/svg" xmlns:xlink="http://www.w3.org/1999/xlink">
<g id="graph0" class="graph" transform="scale(1 1) rotate(0) translate(4 784)">
<title>dependencies</title>
<polygon fill="white" stroke="transparent" points="-4,4 -4,-784 1502,-784 1502,4 -4,4"/>
<!-- roo_backport -->
<g id="node1" class="node">
<title>roo_backport</title>
<polygon fill="#b1dbab" stroke="black" points="583,-188 473,-188 473,-150 583,-150 583,-188"/>
<text text-anchor="middle" x="528" y="-172.8" font-family="Times,serif" font-size="14.00">roo_backport</text>
<text text-anchor="middle" x="528" y="-157.8" font-family="Times,serif" font-size="14.00">1.2.0</text>
</g>
<!-- roo_blink -->
<g id="node2" class="node">
<title>roo_blink</title>
<polygon fill="#b1dbab" stroke="black" points="700,-476 618,-476 618,-438 700,-438 700,-476"/>
<text text-anchor="middle" x="659" y="-460.8" font-family="Times,serif" font-size="14.00">roo_blink</text>
<text text-anchor="middle" x="659" y="-445.8" font-family="Times,serif" font-size="14.00">1.0.4</text>
</g>
<!-- roo_logging -->
<g id="node12" class="node">
<title>roo_logging</title>
<polygon fill="#b1dbab" stroke="black" points="1058,-284 958,-284 958,-246 1058,-246 1058,-284"/>
<text text-anchor="middle" x="1008" y="-268.8" font-family="Times,serif" font-size="14.00">roo_logging</text>
<text text-anchor="middle" x="1008" y="-253.8" font-family="Times,serif" font-size="14.00">1.5.1</text>
</g>
<!-- roo_blink&#45;&gt;roo_logging -->
<g id="edge1" class="edge">
<title>roo_blink&#45;&gt;roo_logging</title>
<path fill="none" stroke="black" d="M692.15,-437.95C755.9,-403.25 895.49,-327.25 965.78,-288.98"/>
<polygon fill="black" stroke="black" points="967.71,-291.92 974.82,-284.06 964.36,-285.77 967.71,-291.92"/>
</g>
<!-- roo_scheduler -->
<g id="node16" class="node">
<title>roo_scheduler</title>
<polygon fill="#b1dbab" stroke="black" points="750,-380 634,-380 634,-342 750,-342 750,-380"/>
<text text-anchor="middle" x="692" y="-364.8" font-family="Times,serif" font-size="14.00">roo_scheduler</text>
<text text-anchor="middle" x="692" y="-349.8" font-family="Times,serif" font-size="14.00">2.1.6</text>
</g>
<!-- roo_blink&#45;&gt;roo_scheduler -->
<g id="edge2" class="edge">
<title>roo_blink&#45;&gt;roo_scheduler</title>
<path fill="none" stroke="black" d="M665.36,-437.88C670.16,-424.22 676.81,-405.26 682.27,-389.71"/>
<polygon fill="black" stroke="black" points="685.65,-390.66 685.66,-380.07 679.04,-388.34 685.65,-390.66"/>
</g>
<!-- roo_collections -->
<g id="node3" class="node">
<title>roo_collections</title>
<polygon fill="#b1dbab" stroke="black" points="667,-284 545,-284 545,-246 667,-246 667,-284"/>
<text text-anchor="middle" x="606" y="-268.8" font-family="Times,serif" font-size="14.00">roo_collections</text>
<text text-anchor="middle" x="606" y="-253.8" font-family="Times,serif" font-size="14.00">1.4.0</text>
</g>
<!-- roo_collections&#45;&gt;roo_backport -->
<g id="edge3" class="edge">
<title>roo_collections&#45;&gt;roo_backport</title>
<path fill="none" stroke="black" d="M590.96,-245.88C579.2,-231.7 562.69,-211.81 549.53,-195.94"/>
<polygon fill="black" stroke="black" points="552.07,-193.53 542.99,-188.07 546.69,-198 552.07,-193.53"/>
</g>
<!-- roo_comms -->
<g id="node4" class="node">
<title>roo_comms</title>
<polygon fill="#b1dbab" stroke="black" points="1135.5,-684 1038.5,-684 1038.5,-646 1135.5,-646 1135.5,-684"/>
<text text-anchor="middle" x="1087" y="-668.8" font-family="Times,serif" font-size="14.00">roo_comms</text>
<text text-anchor="middle" x="1087" y="-653.8" font-family="Times,serif" font-size="14.00">1.1.3</text>
</g>
<!-- roo_comms&#45;&gt;roo_blink -->
<g id="edge4" class="edge">
<title>roo_comms&#45;&gt;roo_blink</title>
<path fill="none" stroke="black" d="M1049.39,-645.9C971.24,-608.28 791.44,-521.75 705.89,-480.57"/>
<polygon fill="black" stroke="black" points="707.2,-477.32 696.67,-476.13 704.17,-483.62 707.2,-477.32"/>
</g>
<!-- roo_control -->
<g id="node5" class="node">
<title>roo_control</title>
<polygon fill="#b1dbab" stroke="black" points="1039.5,-476 942.5,-476 942.5,-438 1039.5,-438 1039.5,-476"/>
<text text-anchor="middle" x="991" y="-460.8" font-family="Times,serif" font-size="14.00">roo_control</text>
<text text-anchor="middle" x="991" y="-445.8" font-family="Times,serif" font-size="14.00">1.2.3</text>
</g>
<!-- roo_comms&#45;&gt;roo_control -->
<g id="edge5" class="edge">
<title>roo_comms&#45;&gt;roo_control</title>
<path fill="none" stroke="black" d="M1088.16,-645.98C1089.36,-612.71 1087.53,-540.8 1054,-494 1050.79,-489.52 1046.84,-485.52 1042.49,-481.97"/>
<polygon fill="black" stroke="black" points="1044.46,-479.07 1034.31,-476.04 1040.36,-484.74 1044.46,-479.07"/>
</g>
<!-- roo_io -->
<g id="node10" class="node">
<title>roo_io</title>
<polygon fill="#b1dbab" stroke="black" points="1080.5,-380 1021.5,-380 1021.5,-342 1080.5,-342 1080.5,-380"/>
<text text-anchor="middle" x="1051" y="-364.8" font-family="Times,serif" font-size="14.00">roo_io</text>
<text text-anchor="middle" x="1051" y="-349.8" font-family="Times,serif" font-size="14.00">2.1.1</text>
</g>
<!-- roo_comms&#45;&gt;roo_io -->
<g id="edge6" class="edge">
<title>roo_comms&#45;&gt;roo_io</title>
<path fill="none" stroke="black" d="M1090.03,-645.74C1090.84,-640.07 1091.6,-633.79 1092,-628 1097.83,-543.64 1102.56,-520.02 1082,-438 1077.83,-421.38 1070.74,-403.6 1064.39,-389.43"/>
<polygon fill="black" stroke="black" points="1067.52,-387.86 1060.16,-380.24 1061.17,-390.79 1067.52,-387.86"/>
</g>
<!-- roo_transceivers -->
<g id="node21" class="node">
<title>roo_transceivers</title>
<polygon fill="#b1dbab" stroke="black" points="1269.5,-572 1134.5,-572 1134.5,-534 1269.5,-534 1269.5,-572"/>
<text text-anchor="middle" x="1202" y="-556.8" font-family="Times,serif" font-size="14.00">roo_transceivers</text>
<text text-anchor="middle" x="1202" y="-541.8" font-family="Times,serif" font-size="14.00">1.1.4</text>
</g>
<!-- roo_comms&#45;&gt;roo_transceivers -->
<g id="edge7" class="edge">
<title>roo_comms&#45;&gt;roo_transceivers</title>
<path fill="none" stroke="black" d="M1105.99,-645.84C1124.97,-627.68 1154.3,-599.62 1175.55,-579.3"/>
<polygon fill="black" stroke="black" points="1178.17,-581.63 1182.98,-572.19 1173.34,-576.57 1178.17,-581.63"/>
</g>
<!-- roo_quantity -->
<g id="node15" class="node">
<title>roo_quantity</title>
<polygon fill="#b1dbab" stroke="black" points="1003.5,-380 896.5,-380 896.5,-342 1003.5,-342 1003.5,-380"/>
<text text-anchor="middle" x="950" y="-364.8" font-family="Times,serif" font-size="14.00">roo_quantity</text>
<text text-anchor="middle" x="950" y="-349.8" font-family="Times,serif" font-size="14.00">1.1.5</text>
</g>
<!-- roo_control&#45;&gt;roo_quantity -->
<g id="edge8" class="edge">
<title>roo_control&#45;&gt;roo_quantity</title>
<path fill="none" stroke="black" d="M992.99,-437.92C993.54,-426.05 992.77,-410.45 987,-398 985.31,-394.35 983.08,-390.88 980.54,-387.63"/>
<polygon fill="black" stroke="black" points="983.03,-385.17 973.76,-380.04 977.82,-389.83 983.03,-385.17"/>
</g>
<!-- roo_control&#45;&gt;roo_scheduler -->
<g id="edge9" class="edge">
<title>roo_control&#45;&gt;roo_scheduler</title>
<path fill="none" stroke="black" d="M942.3,-440.69C892.5,-425.03 814.77,-400.6 759.15,-383.11"/>
<polygon fill="black" stroke="black" points="759.97,-379.7 749.38,-380.04 757.87,-386.38 759.97,-379.7"/>
</g>
<!-- roo_dashboard -->
<g id="node6" class="node">
<title>roo_dashboard</title>
<polygon fill="plum" stroke="black" points="122,-780 0,-780 0,-742 122,-742 122,-780"/>
<text text-anchor="middle" x="61" y="-764.8" font-family="Times,serif" font-size="14.00">roo_dashboard</text>
<text text-anchor="middle" x="61" y="-749.8" font-family="Times,serif" font-size="14.00">1.0.1</text>
</g>
<!-- roo_testing -->
<g id="node17" class="node">
<title>roo_testing</title>
<polygon fill="#b1dbab" stroke="black" points="336.5,-38 239.5,-38 239.5,0 336.5,0 336.5,-38"/>
<text text-anchor="middle" x="288" y="-22.8" font-family="Times,serif" font-size="14.00">roo_testing</text>
<text text-anchor="middle" x="288" y="-7.8" font-family="Times,serif" font-size="14.00">1.2.0</text>
</g>
<!-- roo_dashboard&#45;&gt;roo_testing -->
<g id="edge10" class="edge">
<title>roo_dashboard&#45;&gt;roo_testing</title>
<path fill="none" stroke="red" d="M48.45,-741.84C37.04,-723.55 22,-694.09 22,-666 22,-666 22,-666 22,-93 22,-50.38 150.61,-31.73 228.98,-24.33"/>
<polygon fill="red" stroke="red" points="229.57,-27.79 239.21,-23.4 228.94,-20.82 229.57,-27.79"/>
<text text-anchor="middle" x="55" y="-364" font-family="Times,serif" font-size="10.00" fill="red">1.1.7</text>
<text text-anchor="middle" x="55" y="-353" font-family="Times,serif" font-size="10.00" fill="red">(latest: 1.2.0)</text>
</g>
<!-- roo_windows -->
<g id="node24" class="node">
<title>roo_windows</title>
<polygon fill="plum" stroke="black" points="550.5,-684 441.5,-684 441.5,-646 550.5,-646 550.5,-684"/>
<text text-anchor="middle" x="496" y="-668.8" font-family="Times,serif" font-size="14.00">roo_windows</text>
<text text-anchor="middle" x="496" y="-653.8" font-family="Times,serif" font-size="14.00">1.4.1</text>
</g>
<!-- roo_dashboard&#45;&gt;roo_windows -->
<g id="edge11" class="edge">
<title>roo_dashboard&#45;&gt;roo_windows</title>
<path fill="none" stroke="black" d="M122.4,-746.73C204.21,-729.05 348.28,-697.92 431.58,-679.92"/>
<polygon fill="black" stroke="black" points="432.4,-683.33 441.43,-677.79 430.92,-676.48 432.4,-683.33"/>
</g>
<!-- roo_display -->
<g id="node7" class="node">
<title>roo_display</title>
<polygon fill="plum" stroke="black" points="460,-476 362,-476 362,-438 460,-438 460,-476"/>
<text text-anchor="middle" x="411" y="-460.8" font-family="Times,serif" font-size="14.00">roo_display</text>
<text text-anchor="middle" x="411" y="-445.8" font-family="Times,serif" font-size="14.00">2.3.1</text>
</g>
<!-- roo_display&#45;&gt;roo_backport -->
<g id="edge13" class="edge">
<title>roo_display&#45;&gt;roo_backport</title>
<path fill="none" stroke="red" d="M429.49,-437.77C434.12,-432.4 438.7,-426.28 442,-420 467.23,-372 455.64,-353.37 473,-302 485.47,-265.09 503.33,-223.82 515.27,-197.41"/>
<polygon fill="red" stroke="red" points="518.57,-198.61 519.54,-188.06 512.2,-195.71 518.57,-198.61"/>
<text text-anchor="middle" x="506" y="-316" font-family="Times,serif" font-size="10.00" fill="red">1.1.1</text>
<text text-anchor="middle" x="506" y="-305" font-family="Times,serif" font-size="10.00" fill="red">(latest: 1.2.0)</text>
</g>
<!-- roo_display&#45;&gt;roo_collections -->
<g id="edge14" class="edge">
<title>roo_display&#45;&gt;roo_collections</title>
<path fill="none" stroke="red" d="M454.68,-437.92C463.69,-432.96 472.65,-426.98 480,-420 509.19,-392.29 500.95,-373.5 526,-342 540.73,-323.49 559.86,-305.15 575.72,-291.13"/>
<polygon fill="red" stroke="red" points="578.42,-293.42 583.67,-284.21 573.83,-288.13 578.42,-293.42"/>
<text text-anchor="middle" x="559" y="-364" font-family="Times,serif" font-size="10.00" fill="red">1.3.2</text>
<text text-anchor="middle" x="559" y="-353" font-family="Times,serif" font-size="10.00" fill="red">(latest: 1.4.0)</text>
</g>
<!-- roo_display&#45;&gt;roo_io -->
<g id="edge15" class="edge">
<title>roo_display&#45;&gt;roo_io</title>
<path fill="none" stroke="red" d="M460.33,-441.04C464.93,-439.91 469.53,-438.87 474,-438 707.24,-392.48 779.14,-443.93 1011.73,-379.86"/>
<polygon fill="red" stroke="red" points="1012.81,-383.19 1021.5,-377.13 1010.92,-376.45 1012.81,-383.19"/>
<text text-anchor="middle" x="968" y="-412" font-family="Times,serif" font-size="10.00" fill="red">2.0.2</text>
<text text-anchor="middle" x="968" y="-401" font-family="Times,serif" font-size="10.00" fill="red">(latest: 2.1.1)</text>
</g>
<!-- roo_display&#45;&gt;roo_testing -->
<g id="edge12" class="edge">
<title>roo_display&#45;&gt;roo_testing</title>
<path fill="none" stroke="red" d="M411.45,-437.63C411.64,-414.92 410.8,-375.22 404,-342 380.89,-229.11 326.22,-102.47 301.07,-47.7"/>
<polygon fill="red" stroke="red" points="304.11,-45.93 296.74,-38.33 297.76,-48.87 304.11,-45.93"/>
<text text-anchor="middle" x="406" y="-220" font-family="Times,serif" font-size="10.00" fill="red">1.1.7</text>
<text text-anchor="middle" x="406" y="-209" font-family="Times,serif" font-size="10.00" fill="red">(latest: 1.2.0)</text>
</g>
<!-- roo_flags -->
<g id="node8" class="node">
<title>roo_flags</title>
<polygon fill="#b1dbab" stroke="black" points="1048,-188 968,-188 968,-150 1048,-150 1048,-188"/>
<text text-anchor="middle" x="1008" y="-172.8" font-family="Times,serif" font-size="14.00">roo_flags</text>
<text text-anchor="middle" x="1008" y="-157.8" font-family="Times,serif" font-size="14.00">1.2.0</text>
</g>
<!-- roo_icons -->
<g id="node9" class="node">
<title>roo_icons</title>
<polygon fill="plum" stroke="black" points="329.5,-572 246.5,-572 246.5,-534 329.5,-534 329.5,-572"/>
<text text-anchor="middle" x="288" y="-556.8" font-family="Times,serif" font-size="14.00">roo_icons</text>
<text text-anchor="middle" x="288" y="-541.8" font-family="Times,serif" font-size="14.00">1.2.1</text>
</g>
<!-- roo_icons&#45;&gt;roo_display -->
<g id="edge17" class="edge">
<title>roo_icons&#45;&gt;roo_display</title>
<path fill="none" stroke="black" d="M311.72,-533.88C330.94,-519.18 358.22,-498.34 379.32,-482.21"/>
<polygon fill="black" stroke="black" points="381.54,-484.92 387.36,-476.07 377.29,-479.36 381.54,-484.92"/>
</g>
<!-- roo_icons&#45;&gt;roo_testing -->
<g id="edge16" class="edge">
<title>roo_icons&#45;&gt;roo_testing</title>
<path fill="none" stroke="red" d="M288,-533.98C288,-515.06 288,-484.44 288,-458 288,-458 288,-458 288,-93 288,-78.3 288,-61.93 288,-48.43"/>
<polygon fill="red" stroke="red" points="291.5,-48.3 288,-38.3 284.5,-48.3 291.5,-48.3"/>
<text text-anchor="middle" x="321" y="-268" font-family="Times,serif" font-size="10.00" fill="red">1.1.7</text>
<text text-anchor="middle" x="321" y="-257" font-family="Times,serif" font-size="10.00" fill="red">(latest: 1.2.0)</text>
</g>
<!-- roo_io&#45;&gt;roo_logging -->
<g id="edge18" class="edge">
<title>roo_io&#45;&gt;roo_logging</title>
<path fill="none" stroke="black" d="M1048.71,-341.79C1046.73,-329.99 1043.18,-314.55 1037,-302 1035.43,-298.81 1033.53,-295.64 1031.47,-292.59"/>
<polygon fill="black" stroke="black" points="1034.12,-290.29 1025.35,-284.35 1028.5,-294.46 1034.12,-290.29"/>
</g>
<!-- roo_locale -->
<g id="node11" class="node">
<title>roo_locale</title>
<polygon fill="#b1dbab" stroke="black" points="670,-572 582,-572 582,-534 670,-534 670,-572"/>
<text text-anchor="middle" x="626" y="-556.8" font-family="Times,serif" font-size="14.00">roo_locale</text>
<text text-anchor="middle" x="626" y="-541.8" font-family="Times,serif" font-size="14.00">1.1.1</text>
</g>
<!-- roo_logging&#45;&gt;roo_backport -->
<g id="edge19" class="edge">
<title>roo_logging&#45;&gt;roo_backport</title>
<path fill="none" stroke="black" d="M957.74,-256.37C881.07,-244.4 730.18,-219.5 592.93,-188.11"/>
<polygon fill="black" stroke="black" points="593.6,-184.68 583.07,-185.84 592.03,-191.5 593.6,-184.68"/>
</g>
<!-- roo_logging&#45;&gt;roo_flags -->
<g id="edge20" class="edge">
<title>roo_logging&#45;&gt;roo_flags</title>
<path fill="none" stroke="black" d="M1008,-245.88C1008,-232.35 1008,-213.62 1008,-198.15"/>
<polygon fill="black" stroke="black" points="1011.5,-198.07 1008,-188.07 1004.5,-198.07 1011.5,-198.07"/>
</g>
<!-- roo_threads -->
<g id="node18" class="node">
<title>roo_threads</title>
<polygon fill="#b1dbab" stroke="black" points="912.5,-188 811.5,-188 811.5,-150 912.5,-150 912.5,-188"/>
<text text-anchor="middle" x="862" y="-172.8" font-family="Times,serif" font-size="14.00">roo_threads</text>
<text text-anchor="middle" x="862" y="-157.8" font-family="Times,serif" font-size="14.00">1.2.0</text>
</g>
<!-- roo_logging&#45;&gt;roo_threads -->
<g id="edge21" class="edge">
<title>roo_logging&#45;&gt;roo_threads</title>
<path fill="none" stroke="black" d="M979.85,-245.88C956.72,-230.99 923.79,-209.78 898.62,-193.57"/>
<polygon fill="black" stroke="black" points="900.37,-190.54 890.06,-188.07 896.58,-196.42 900.37,-190.54"/>
</g>
<!-- roo_onewire -->
<g id="node13" class="node">
<title>roo_onewire</title>
<polygon fill="#b1dbab" stroke="black" points="924,-476 820,-476 820,-438 924,-438 924,-476"/>
<text text-anchor="middle" x="872" y="-460.8" font-family="Times,serif" font-size="14.00">roo_onewire</text>
<text text-anchor="middle" x="872" y="-445.8" font-family="Times,serif" font-size="14.00">2.0.7</text>
</g>
<!-- roo_onewire&#45;&gt;roo_quantity -->
<g id="edge23" class="edge">
<title>roo_onewire&#45;&gt;roo_quantity</title>
<path fill="none" stroke="black" d="M877.28,-437.86C881.47,-425.65 888.27,-409.71 898,-398 901.51,-393.78 905.63,-389.83 909.99,-386.21"/>
<polygon fill="black" stroke="black" points="912.21,-388.93 918.02,-380.07 907.95,-383.37 912.21,-388.93"/>
</g>
<!-- roo_onewire&#45;&gt;roo_scheduler -->
<g id="edge22" class="edge">
<title>roo_onewire&#45;&gt;roo_scheduler</title>
<path fill="none" stroke="black" d="M837.29,-437.88C808.28,-422.73 766.76,-401.04 735.53,-384.73"/>
<polygon fill="black" stroke="black" points="737.08,-381.6 726.6,-380.07 733.84,-387.8 737.08,-381.6"/>
</g>
<!-- roo_prefs -->
<g id="node14" class="node">
<title>roo_prefs</title>
<polygon fill="#b1dbab" stroke="black" points="1243.5,-476 1160.5,-476 1160.5,-438 1243.5,-438 1243.5,-476"/>
<text text-anchor="middle" x="1202" y="-460.8" font-family="Times,serif" font-size="14.00">roo_prefs</text>
<text text-anchor="middle" x="1202" y="-445.8" font-family="Times,serif" font-size="14.00">1.2.7</text>
</g>
<!-- roo_prefs&#45;&gt;roo_logging -->
<g id="edge24" class="edge">
<title>roo_prefs&#45;&gt;roo_logging</title>
<path fill="none" stroke="black" d="M1204.94,-437.61C1207.78,-413.05 1208.9,-369.47 1187,-342 1157.8,-305.37 1107.68,-286.12 1067.88,-276.17"/>
<polygon fill="black" stroke="black" points="1068.54,-272.73 1058.01,-273.84 1066.93,-279.55 1068.54,-272.73"/>
</g>
<!-- roo_prefs&#45;&gt;roo_scheduler -->
<g id="edge25" class="edge">
<title>roo_prefs&#45;&gt;roo_scheduler</title>
<path fill="none" stroke="black" d="M1160.2,-442.6C1117.75,-429.47 1049.91,-409.75 990,-398 911.93,-382.69 820.99,-372.84 760.3,-367.38"/>
<polygon fill="black" stroke="black" points="760.35,-363.87 750.08,-366.47 759.73,-370.84 760.35,-363.87"/>
</g>
<!-- roo_quantity&#45;&gt;roo_logging -->
<g id="edge26" class="edge">
<title>roo_quantity&#45;&gt;roo_logging</title>
<path fill="none" stroke="black" d="M961.18,-341.88C969.77,-327.96 981.76,-308.53 991.45,-292.82"/>
<polygon fill="black" stroke="black" points="994.58,-294.42 996.85,-284.07 988.62,-290.74 994.58,-294.42"/>
</g>
<!-- roo_scheduler&#45;&gt;roo_collections -->
<g id="edge27" class="edge">
<title>roo_scheduler&#45;&gt;roo_collections</title>
<path fill="none" stroke="black" d="M675.42,-341.88C662.33,-327.57 643.91,-307.44 629.34,-291.51"/>
<polygon fill="black" stroke="black" points="631.86,-289.08 622.53,-284.07 626.7,-293.81 631.86,-289.08"/>
</g>
<!-- roo_scheduler&#45;&gt;roo_threads -->
<g id="edge28" class="edge">
<title>roo_scheduler&#45;&gt;roo_threads</title>
<path fill="none" stroke="black" d="M708.3,-341.78C738.64,-307.88 803.84,-235 838.78,-195.95"/>
<polygon fill="black" stroke="black" points="841.69,-197.95 845.75,-188.16 836.47,-193.28 841.69,-197.95"/>
</g>
<!-- roo_time -->
<g id="node19" class="node">
<title>roo_time</title>
<polygon fill="#b1dbab" stroke="black" points="585.5,-113 506.5,-113 506.5,-75 585.5,-75 585.5,-113"/>
<text text-anchor="middle" x="546" y="-97.8" font-family="Times,serif" font-size="14.00">roo_time</text>
<text text-anchor="middle" x="546" y="-82.8" font-family="Times,serif" font-size="14.00">1.4.0</text>
</g>
<!-- roo_threads&#45;&gt;roo_time -->
<g id="edge29" class="edge">
<title>roo_threads&#45;&gt;roo_time</title>
<path fill="none" stroke="black" d="M811.23,-156.27C751.86,-142.56 654.24,-120 595.44,-106.42"/>
<polygon fill="black" stroke="black" points="596.17,-103 585.64,-104.16 594.6,-109.82 596.17,-103"/>
</g>
<!-- roo_time&#45;&gt;roo_testing -->
<g id="edge30" class="edge">
<title>roo_time&#45;&gt;roo_testing</title>
<path fill="none" stroke="black" d="M506.25,-81.75C463.54,-69.67 395.22,-50.34 346.4,-36.52"/>
<polygon fill="black" stroke="black" points="347.18,-33.11 336.6,-33.75 345.27,-39.84 347.18,-33.11"/>
</g>
<!-- roo_time_ds3231 -->
<g id="node20" class="node">
<title>roo_time_ds3231</title>
<polygon fill="#b1dbab" stroke="black" points="739,-188 601,-188 601,-150 739,-150 739,-188"/>
<text text-anchor="middle" x="670" y="-172.8" font-family="Times,serif" font-size="14.00">roo_time_ds3231</text>
<text text-anchor="middle" x="670" y="-157.8" font-family="Times,serif" font-size="14.00">1.1.4</text>
</g>
<!-- roo_time_ds3231&#45;&gt;roo_time -->
<g id="edge31" class="edge">
<title>roo_time_ds3231&#45;&gt;roo_time</title>
<path fill="none" stroke="black" d="M639.35,-149.96C623.1,-140.39 602.96,-128.53 585.55,-118.28"/>
<polygon fill="black" stroke="black" points="587.12,-115.15 576.73,-113.09 583.57,-121.18 587.12,-115.15"/>
</g>
<!-- roo_transceivers&#45;&gt;roo_prefs -->
<g id="edge32" class="edge">
<title>roo_transceivers&#45;&gt;roo_prefs</title>
<path fill="none" stroke="black" d="M1202,-533.88C1202,-520.35 1202,-501.62 1202,-486.15"/>
<polygon fill="black" stroke="black" points="1205.5,-486.07 1202,-476.07 1198.5,-486.07 1205.5,-486.07"/>
</g>
<!-- roo_transport -->
<g id="node22" class="node">
<title>roo_transport</title>
<polygon fill="plum" stroke="black" points="1376,-476 1262,-476 1262,-438 1376,-438 1376,-476"/>
<text text-anchor="middle" x="1319" y="-460.8" font-family="Times,serif" font-size="14.00">roo_transport</text>
<text text-anchor="middle" x="1319" y="-445.8" font-family="Times,serif" font-size="14.00">1.0.2</text>
</g>
<!-- roo_transport&#45;&gt;roo_collections -->
<g id="edge34" class="edge">
<title>roo_transport&#45;&gt;roo_collections</title>
<path fill="none" stroke="red" d="M1293.29,-437.94C1274.31,-425.29 1247.47,-408.79 1222,-398 1193.61,-385.97 1183.45,-391.89 1155,-380 1124.12,-367.1 1121.52,-353.24 1090,-342 949.11,-291.78 773.42,-274.7 677.2,-268.92"/>
<polygon fill="red" stroke="red" points="677.19,-265.41 667.01,-268.33 676.79,-272.4 677.19,-265.41"/>
<text text-anchor="middle" x="1188" y="-364" font-family="Times,serif" font-size="10.00" fill="red">1.3.2</text>
<text text-anchor="middle" x="1188" y="-353" font-family="Times,serif" font-size="10.00" fill="red">(latest: 1.4.0)</text>
</g>
<!-- roo_transport&#45;&gt;roo_io -->
<g id="edge35" class="edge">
<title>roo_transport&#45;&gt;roo_io</title>
<path fill="none" stroke="red" d="M1261.84,-440.1C1258.85,-439.37 1255.89,-438.66 1253,-438 1210.26,-428.22 1197.28,-434.79 1156,-420 1131.69,-411.29 1106.29,-397.41 1086.57,-385.41"/>
<polygon fill="red" stroke="red" points="1088.27,-382.35 1077.93,-380.05 1084.58,-388.3 1088.27,-382.35"/>
<text text-anchor="middle" x="1189" y="-412" font-family="Times,serif" font-size="10.00" fill="red">2.0.3</text>
<text text-anchor="middle" x="1189" y="-401" font-family="Times,serif" font-size="10.00" fill="red">(latest: 2.1.1)</text>
</g>
<!-- roo_transport&#45;&gt;roo_logging -->
<g id="edge36" class="edge">
<title>roo_transport&#45;&gt;roo_logging</title>
<path fill="none" stroke="red" d="M1306.81,-437.81C1283.73,-404.93 1230.25,-335.88 1167,-302 1136.63,-285.73 1099.19,-276.79 1068.27,-271.89"/>
<polygon fill="red" stroke="red" points="1068.46,-268.38 1058.05,-270.38 1067.43,-275.31 1068.46,-268.38"/>
<text text-anchor="middle" x="1292" y="-364" font-family="Times,serif" font-size="10.00" fill="red">1.4.3</text>
<text text-anchor="middle" x="1292" y="-353" font-family="Times,serif" font-size="10.00" fill="red">(latest: 1.5.1)</text>
</g>
<!-- roo_transport&#45;&gt;roo_testing -->
<g id="edge33" class="edge">
<title>roo_transport&#45;&gt;roo_testing</title>
<path fill="none" stroke="red" d="M1366.92,-437.92C1397.72,-422.84 1432,-397.98 1432,-362 1432,-362 1432,-362 1432,-93 1432,-38.06 580.65,-23.58 346.81,-20.64"/>
<polygon fill="red" stroke="red" points="346.83,-17.14 336.79,-20.52 346.75,-24.14 346.83,-17.14"/>
<text text-anchor="middle" x="1465" y="-220" font-family="Times,serif" font-size="10.00" fill="red">1.1.8</text>
<text text-anchor="middle" x="1465" y="-209" font-family="Times,serif" font-size="10.00" fill="red">(latest: 1.2.0)</text>
</g>
<!-- roo_transport&#45;&gt;roo_threads -->
<g id="edge37" class="edge">
<title>roo_transport&#45;&gt;roo_threads</title>
<path fill="none" stroke="red" d="M1327.18,-437.96C1336.77,-413.81 1349,-370.68 1329,-342 1281.09,-273.29 1037.85,-209.99 922.65,-183.32"/>
<polygon fill="red" stroke="red" points="923.11,-179.84 912.58,-181.01 921.54,-186.66 923.11,-179.84"/>
<text text-anchor="middle" x="1344" y="-316" font-family="Times,serif" font-size="10.00" fill="red">1.1.6</text>
<text text-anchor="middle" x="1344" y="-305" font-family="Times,serif" font-size="10.00" fill="red">(latest: 1.2.0)</text>
</g>
<!-- roo_wifi -->
<g id="node23" class="node">
<title>roo_wifi</title>
<polygon fill="khaki" stroke="black" points="1293,-628 1221,-628 1221,-590 1293,-590 1293,-628"/>
<text text-anchor="middle" x="1257" y="-612.8" font-family="Times,serif" font-size="14.00">roo_wifi</text>
<text text-anchor="middle" x="1257" y="-597.8" font-family="Times,serif" font-size="14.00">1.1.3</text>
</g>
<!-- roo_wifi&#45;&gt;roo_prefs -->
<g id="edge38" class="edge">
<title>roo_wifi&#45;&gt;roo_prefs</title>
<path fill="none" stroke="black" d="M1270.73,-589.85C1274.11,-584.4 1277.25,-578.2 1279,-572 1283.57,-555.74 1285.51,-549.58 1279,-534 1270.42,-513.49 1253.32,-495.7 1237.4,-482.49"/>
<polygon fill="black" stroke="black" points="1239.25,-479.49 1229.24,-476.02 1234.9,-484.98 1239.25,-479.49"/>
</g>
<!-- roo_windows&#45;&gt;roo_collections -->
<g id="edge40" class="edge">
<title>roo_windows&#45;&gt;roo_collections</title>
<path fill="none" stroke="red" d="M493.08,-645.9C487.53,-605.66 479.13,-506.89 517,-438 537.3,-401.07 571.16,-416.62 592,-380 606.95,-353.73 609.1,-318.61 608.37,-294.32"/>
<polygon fill="red" stroke="red" points="611.87,-294.13 607.89,-284.31 604.88,-294.47 611.87,-294.13"/>
<text text-anchor="middle" x="550" y="-460" font-family="Times,serif" font-size="10.00" fill="red">1.3.2</text>
<text text-anchor="middle" x="550" y="-449" font-family="Times,serif" font-size="10.00" fill="red">(latest: 1.4.0)</text>
</g>
<!-- roo_windows&#45;&gt;roo_icons -->
<g id="edge43" class="edge">
<title>roo_windows&#45;&gt;roo_icons</title>
<path fill="none" stroke="black" d="M441.45,-660.17C410.78,-655.89 372.96,-646.88 344,-628 326.17,-616.38 311.84,-597.05 302.13,-581.06"/>
<polygon fill="black" stroke="black" points="305,-579.02 296.96,-572.12 298.94,-582.53 305,-579.02"/>
</g>
<!-- roo_windows&#45;&gt;roo_io -->
<g id="edge44" class="edge">
<title>roo_windows&#45;&gt;roo_io</title>
<path fill="none" stroke="red" d="M550.76,-659.27C596.27,-654.36 662.35,-644.95 718,-628 737.36,-622.1 1037.93,-492.94 1049,-476 1065.58,-450.63 1063.04,-414.82 1058.32,-390.14"/>
<polygon fill="red" stroke="red" points="1061.74,-389.35 1056.22,-380.31 1054.89,-390.82 1061.74,-389.35"/>
<text text-anchor="middle" x="1052" y="-508" font-family="Times,serif" font-size="10.00" fill="red">2.0.2</text>
<text text-anchor="middle" x="1052" y="-497" font-family="Times,serif" font-size="10.00" fill="red">(latest: 2.1.1)</text>
</g>
<!-- roo_windows&#45;&gt;roo_locale -->
<g id="edge41" class="edge">
<title>roo_windows&#45;&gt;roo_locale</title>
<path fill="none" stroke="black" d="M539.78,-645.99C549.57,-640.93 559.56,-634.9 568,-628 584.28,-614.71 598.85,-596.07 609.32,-580.83"/>
<polygon fill="black" stroke="black" points="612.36,-582.57 614.99,-572.31 606.53,-578.69 612.36,-582.57"/>
</g>
<!-- roo_windows&#45;&gt;roo_logging -->
<g id="edge42" class="edge">
<title>roo_windows&#45;&gt;roo_logging</title>
<path fill="none" stroke="red" d="M550.51,-649.24C591.28,-635.54 645.55,-611.24 679,-572 722.07,-521.48 704.86,-490.88 745,-438 799.81,-365.8 818.41,-347.18 897,-302 912.64,-293.01 930.82,-285.92 947.89,-280.49"/>
<polygon fill="red" stroke="red" points="949.23,-283.74 957.79,-277.49 947.2,-277.05 949.23,-283.74"/>
<text text-anchor="middle" x="778" y="-460" font-family="Times,serif" font-size="10.00" fill="red">1.4.2</text>
<text text-anchor="middle" x="778" y="-449" font-family="Times,serif" font-size="10.00" fill="red">(latest: 1.5.1)</text>
</g>
<!-- roo_windows&#45;&gt;roo_scheduler -->
<g id="edge45" class="edge">
<title>roo_windows&#45;&gt;roo_scheduler</title>
<path fill="none" stroke="red" d="M503.98,-645.97C524.92,-599.03 581.71,-474.15 609,-438 623.57,-418.7 643.44,-400.3 660.1,-386.44"/>
<polygon fill="red" stroke="red" points="662.43,-389.05 667.97,-380.02 658.01,-383.62 662.43,-389.05"/>
<text text-anchor="middle" x="609" y="-508" font-family="Times,serif" font-size="10.00" fill="red">2.1.4</text>
<text text-anchor="middle" x="609" y="-497" font-family="Times,serif" font-size="10.00" fill="red">(latest: 2.1.6)</text>
</g>
<!-- roo_windows&#45;&gt;roo_testing -->
<g id="edge39" class="edge">
<title>roo_windows&#45;&gt;roo_testing</title>
<path fill="none" stroke="red" d="M441.09,-660.94C401.66,-657.04 348.09,-648.16 305,-628 259.02,-606.49 218,-604.76 218,-554 218,-554 218,-554 218,-408 218,-370.4 210.55,-361.51 208,-324 206.25,-298.28 207,-291.78 207,-266 207,-266 207,-266 207,-93 207,-72.01 222.19,-55.51 239.41,-43.55"/>
<polygon fill="red" stroke="red" points="241.46,-46.4 247.97,-38.04 237.67,-40.51 241.46,-46.4"/>
<text text-anchor="middle" x="241" y="-316" font-family="Times,serif" font-size="10.00" fill="red">1.1.7</text>
<text text-anchor="middle" x="241" y="-305" font-family="Times,serif" font-size="10.00" fill="red">(latest: 1.2.0)</text>
</g>
<!-- roo_windows&#45;&gt;roo_time -->
<g id="edge46" class="edge">
<title>roo_windows&#45;&gt;roo_time</title>
<path fill="none" stroke="red" d="M476.03,-645.68C427.03,-598.43 306.77,-467.36 334,-342 335.76,-333.89 390.94,-212.59 396,-206 419.84,-174.95 432.59,-173.38 464,-150 478.35,-139.32 494.62,-128.21 508.87,-118.79"/>
<polygon fill="red" stroke="red" points="511,-121.58 517.44,-113.17 507.16,-115.73 511,-121.58"/>
<text text-anchor="middle" x="367" y="-364" font-family="Times,serif" font-size="10.00" fill="red">1.3.2</text>
<text text-anchor="middle" x="367" y="-353" font-family="Times,serif" font-size="10.00" fill="red">(latest: 1.4.0)</text>
</g>
<!-- roo_windows_wifi -->
<g id="node25" class="node">
<title>roo_windows_wifi</title>
<polygon fill="plum" stroke="black" points="566.5,-780 425.5,-780 425.5,-742 566.5,-742 566.5,-780"/>
<text text-anchor="middle" x="496" y="-764.8" font-family="Times,serif" font-size="14.00">roo_windows_wifi</text>
<text text-anchor="middle" x="496" y="-749.8" font-family="Times,serif" font-size="14.00">1.1.2</text>
</g>
<!-- roo_windows_wifi&#45;&gt;roo_testing -->
<g id="edge47" class="edge">
<title>roo_windows_wifi&#45;&gt;roo_testing</title>
<path fill="none" stroke="red" d="M425.15,-756.48C317.22,-749.15 124,-727.45 124,-666 124,-666 124,-666 124,-93 124,-45.53 182.06,-28.7 229.09,-22.86"/>
<polygon fill="red" stroke="red" points="229.68,-26.32 239.24,-21.75 228.92,-19.36 229.68,-26.32"/>
<text text-anchor="middle" x="157" y="-364" font-family="Times,serif" font-size="10.00" fill="red">1.1.7</text>
<text text-anchor="middle" x="157" y="-353" font-family="Times,serif" font-size="10.00" fill="red">(latest: 1.2.0)</text>
</g>
<!-- roo_windows_wifi&#45;&gt;roo_wifi -->
<g id="edge48" class="edge">
<title>roo_windows_wifi&#45;&gt;roo_wifi</title>
<path fill="none" stroke="red" d="M566.53,-755.88C711.88,-746.71 1039.97,-722.36 1145,-684 1175.92,-672.71 1206.82,-651.35 1228.3,-634.47"/>
<polygon fill="red" stroke="red" points="1230.73,-637.01 1236.34,-628.02 1226.35,-631.55 1230.73,-637.01"/>
<text text-anchor="middle" x="1108" y="-716" font-family="Times,serif" font-size="10.00" fill="red">1.1.1</text>
<text text-anchor="middle" x="1108" y="-705" font-family="Times,serif" font-size="10.00" fill="red">(latest: 1.1.3)</text>
</g>
<!-- roo_windows_wifi&#45;&gt;roo_windows -->
<g id="edge49" class="edge">
<title>roo_windows_wifi&#45;&gt;roo_windows</title>
<path fill="none" stroke="black" d="M496,-741.88C496,-728.35 496,-709.62 496,-694.15"/>
<polygon fill="black" stroke="black" points="499.5,-694.07 496,-684.07 492.5,-694.07 499.5,-694.07"/>
</g>
</g>
</svg>
