<?xml version="1.0" encoding="UTF-8" standalone="no"?>
<!DOCTYPE svg PUBLIC "-//W3C//DTD SVG 1.1//EN"
 "http://www.w3.org/Graphics/SVG/1.1/DTD/svg11.dtd">
<!-- Generated by graphviz version 2.42.4 (0)
 -->
<!-- Title: dependencies Pages: 1 -->
<svg width="1614pt" height="788pt"
 viewBox="0.00 0.00 1613.50 788.00" xmlns="http://www.w3.org/2000/svg" xmlns:xlink="http://www.w3.org/1999/xlink">
<g id="graph0" class="graph" transform="scale(1 1) rotate(0) translate(4 784)">
<title>dependencies</title>
<polygon fill="white" stroke="transparent" points="-4,4 -4,-784 1609.5,-784 1609.5,4 -4,4"/>
<!-- roo_backport -->
<g id="node1" class="node">
<title>roo_backport</title>
<polygon fill="#b1dbab" stroke="black" points="1009.5,-188 920.5,-188 920.5,-150 1009.5,-150 1009.5,-188"/>
<text text-anchor="middle" x="965" y="-172.8" font-family="Times,serif" font-size="14.00">roo_backport</text>
<text text-anchor="middle" x="965" y="-157.8" font-family="Times,serif" font-size="14.00">1.1.1</text>
</g>
<!-- roo_blink -->
<g id="node2" class="node">
<title>roo_blink</title>
<polygon fill="#b1dbab" stroke="black" points="294.5,-476 225.5,-476 225.5,-438 294.5,-438 294.5,-476"/>
<text text-anchor="middle" x="260" y="-460.8" font-family="Times,serif" font-size="14.00">roo_blink</text>
<text text-anchor="middle" x="260" y="-445.8" font-family="Times,serif" font-size="14.00">1.0.2</text>
</g>
<!-- roo_logging -->
<g id="node13" class="node">
<title>roo_logging</title>
<polygon fill="#b1dbab" stroke="black" points="456.5,-284 373.5,-284 373.5,-246 456.5,-246 456.5,-284"/>
<text text-anchor="middle" x="415" y="-268.8" font-family="Times,serif" font-size="14.00">roo_logging</text>
<text text-anchor="middle" x="415" y="-253.8" font-family="Times,serif" font-size="14.00">1.4.3</text>
</g>
<!-- roo_blink&#45;&gt;roo_logging -->
<g id="edge1" class="edge">
<title>roo_blink&#45;&gt;roo_logging</title>
<path fill="none" stroke="black" d="M247.41,-437.87C227.18,-406.3 192.98,-340.9 227,-302 246.78,-279.38 331.73,-290.78 361,-284 361.88,-283.8 362.78,-283.58 363.67,-283.36"/>
<polygon fill="black" stroke="black" points="364.62,-286.73 373.36,-280.74 362.79,-279.97 364.62,-286.73"/>
</g>
<!-- roo_scheduler -->
<g id="node19" class="node">
<title>roo_scheduler</title>
<polygon fill="#b1dbab" stroke="black" points="580.5,-380 487.5,-380 487.5,-342 580.5,-342 580.5,-380"/>
<text text-anchor="middle" x="534" y="-364.8" font-family="Times,serif" font-size="14.00">roo_scheduler</text>
<text text-anchor="middle" x="534" y="-349.8" font-family="Times,serif" font-size="14.00">2.1.5</text>
</g>
<!-- roo_blink&#45;&gt;roo_scheduler -->
<g id="edge2" class="edge">
<title>roo_blink&#45;&gt;roo_scheduler</title>
<path fill="none" stroke="black" d="M294.98,-441.44C298.02,-440.25 301.06,-439.09 304,-438 362.74,-416.31 430.97,-394.14 477.77,-379.38"/>
<polygon fill="black" stroke="black" points="478.93,-382.69 487.42,-376.35 476.83,-376.01 478.93,-382.69"/>
</g>
<!-- roo_collections -->
<g id="node3" class="node">
<title>roo_collections</title>
<polygon fill="#b1dbab" stroke="black" points="1082,-284 982,-284 982,-246 1082,-246 1082,-284"/>
<text text-anchor="middle" x="1032" y="-268.8" font-family="Times,serif" font-size="14.00">roo_collections</text>
<text text-anchor="middle" x="1032" y="-253.8" font-family="Times,serif" font-size="14.00">1.3.2</text>
</g>
<!-- roo_collections&#45;&gt;roo_backport -->
<g id="edge3" class="edge">
<title>roo_collections&#45;&gt;roo_backport</title>
<path fill="none" stroke="black" d="M1019.08,-245.88C1009.07,-231.83 995.06,-212.17 983.8,-196.38"/>
<polygon fill="black" stroke="black" points="986.53,-194.18 977.88,-188.07 980.83,-198.24 986.53,-194.18"/>
</g>
<!-- roo_comms -->
<g id="node4" class="node">
<title>roo_comms</title>
<polygon fill="plum" stroke="black" points="357,-684 275,-684 275,-646 357,-646 357,-684"/>
<text text-anchor="middle" x="316" y="-668.8" font-family="Times,serif" font-size="14.00">roo_comms</text>
<text text-anchor="middle" x="316" y="-653.8" font-family="Times,serif" font-size="14.00">1.1.1</text>
</g>
<!-- roo_comms&#45;&gt;roo_blink -->
<g id="edge5" class="edge">
<title>roo_comms&#45;&gt;roo_blink</title>
<path fill="none" stroke="red" d="M278.35,-645.88C251.04,-630.44 216.16,-605.44 200,-572 185.14,-541.24 209.37,-506.61 231.33,-483.67"/>
<polygon fill="red" stroke="red" points="234.04,-485.91 238.63,-476.36 229.09,-480.96 234.04,-485.91"/>
<text text-anchor="middle" x="227" y="-556" font-family="Times,serif" font-size="10.00" fill="red">1.0.1</text>
<text text-anchor="middle" x="227" y="-545" font-family="Times,serif" font-size="10.00" fill="red">(latest: 1.0.2)</text>
</g>
<!-- roo_comms&#45;&gt;roo_collections -->
<g id="edge6" class="edge">
<title>roo_comms&#45;&gt;roo_collections</title>
<path fill="none" stroke="black" d="M357.06,-664.48C419.75,-664.11 542.44,-658.98 641,-628 759.77,-590.67 767.72,-529.69 887,-494 933.36,-480.13 1071.23,-511.6 1104,-476 1152.8,-422.99 1091.93,-335.41 1055.54,-292.02"/>
<polygon fill="black" stroke="black" points="1058.01,-289.52 1048.84,-284.2 1052.69,-294.08 1058.01,-289.52"/>
</g>
<!-- roo_control -->
<g id="node5" class="node">
<title>roo_control</title>
<polygon fill="#b1dbab" stroke="black" points="479,-476 399,-476 399,-438 479,-438 479,-476"/>
<text text-anchor="middle" x="439" y="-460.8" font-family="Times,serif" font-size="14.00">roo_control</text>
<text text-anchor="middle" x="439" y="-445.8" font-family="Times,serif" font-size="14.00">1.2.2</text>
</g>
<!-- roo_comms&#45;&gt;roo_control -->
<g id="edge7" class="edge">
<title>roo_comms&#45;&gt;roo_control</title>
<path fill="none" stroke="red" d="M357.09,-649.04C388.76,-634.85 429.52,-609.97 444,-572 454.59,-544.23 451.05,-509.86 446.31,-486.16"/>
<polygon fill="red" stroke="red" points="449.66,-485.09 444.09,-476.08 442.82,-486.6 449.66,-485.09"/>
<text text-anchor="middle" x="477" y="-556" font-family="Times,serif" font-size="10.00" fill="red">1.2.1</text>
<text text-anchor="middle" x="477" y="-545" font-family="Times,serif" font-size="10.00" fill="red">(latest: 1.2.2)</text>
</g>
<!-- roo_io -->
<g id="node10" class="node">
<title>roo_io</title>
<polygon fill="#b1dbab" stroke="black" points="913,-380 859,-380 859,-342 913,-342 913,-380"/>
<text text-anchor="middle" x="886" y="-364.8" font-family="Times,serif" font-size="14.00">roo_io</text>
<text text-anchor="middle" x="886" y="-349.8" font-family="Times,serif" font-size="14.00">2.0.3</text>
</g>
<!-- roo_comms&#45;&gt;roo_io -->
<g id="edge8" class="edge">
<title>roo_comms&#45;&gt;roo_io</title>
<path fill="none" stroke="red" d="M357.08,-664.66C430.33,-664.95 579.35,-661.3 617,-628 662.94,-587.36 617.91,-546.27 650,-494 669.95,-461.5 682.79,-458.41 715,-438 718.06,-436.06 800.08,-399.84 849.39,-378.11"/>
<polygon fill="red" stroke="red" points="851.05,-381.21 858.79,-373.97 848.22,-374.8 851.05,-381.21"/>
<text text-anchor="middle" x="677" y="-508" font-family="Times,serif" font-size="10.00" fill="red">2.0.2</text>
<text text-anchor="middle" x="677" y="-497" font-family="Times,serif" font-size="10.00" fill="red">(latest: 2.0.3)</text>
</g>
<!-- roo_comms&#45;&gt;roo_logging -->
<g id="edge9" class="edge">
<title>roo_comms&#45;&gt;roo_logging</title>
<path fill="none" stroke="red" d="M274.77,-659.78C251.95,-655.37 224.7,-646.37 207,-628 146.86,-565.58 122.52,-514.64 163,-438 205.27,-357.97 303.37,-308.15 363.95,-283.87"/>
<polygon fill="red" stroke="red" points="365.3,-287.09 373.33,-280.19 362.74,-280.58 365.3,-287.09"/>
<text text-anchor="middle" x="190" y="-460" font-family="Times,serif" font-size="10.00" fill="red">1.4.2</text>
<text text-anchor="middle" x="190" y="-449" font-family="Times,serif" font-size="10.00" fill="red">(latest: 1.4.3)</text>
</g>
<!-- roo_prefs -->
<g id="node17" class="node">
<title>roo_prefs</title>
<polygon fill="#b1dbab" stroke="black" points="381,-476 313,-476 313,-438 381,-438 381,-476"/>
<text text-anchor="middle" x="347" y="-460.8" font-family="Times,serif" font-size="14.00">roo_prefs</text>
<text text-anchor="middle" x="347" y="-445.8" font-family="Times,serif" font-size="14.00">1.2.3</text>
</g>
<!-- roo_comms&#45;&gt;roo_prefs -->
<g id="edge10" class="edge">
<title>roo_comms&#45;&gt;roo_prefs</title>
<path fill="none" stroke="red" d="M356.57,-645.85C363.43,-641.01 369.71,-635.1 374,-628 400.9,-583.46 378.71,-520.86 361.77,-485.37"/>
<polygon fill="red" stroke="red" points="364.76,-483.52 357.18,-476.12 358.49,-486.63 364.76,-483.52"/>
<text text-anchor="middle" x="413" y="-556" font-family="Times,serif" font-size="10.00" fill="red">1.2.2</text>
<text text-anchor="middle" x="413" y="-545" font-family="Times,serif" font-size="10.00" fill="red">(latest: 1.2.3)</text>
</g>
<!-- roo_comms&#45;&gt;roo_scheduler -->
<g id="edge11" class="edge">
<title>roo_comms&#45;&gt;roo_scheduler</title>
<path fill="none" stroke="red" d="M357.27,-661.76C432.37,-657.26 585.15,-645.98 601,-628 620.33,-606.08 579.36,-530.9 577,-516 575.47,-506.34 573.67,-503.19 577,-494 580.55,-484.21 588.45,-485.79 592,-476 597.75,-460.12 597.41,-454 592,-438 585.65,-419.2 572.58,-401.39 560.46,-387.74"/>
<polygon fill="red" stroke="red" points="562.85,-385.17 553.48,-380.21 557.71,-389.92 562.85,-385.17"/>
<text text-anchor="middle" x="604" y="-508" font-family="Times,serif" font-size="10.00" fill="red">2.1.4</text>
<text text-anchor="middle" x="604" y="-497" font-family="Times,serif" font-size="10.00" fill="red">(latest: 2.1.5)</text>
</g>
<!-- roo_testing -->
<g id="node20" class="node">
<title>roo_testing</title>
<polygon fill="#b1dbab" stroke="black" points="1298.5,-38 1221.5,-38 1221.5,0 1298.5,0 1298.5,-38"/>
<text text-anchor="middle" x="1260" y="-22.8" font-family="Times,serif" font-size="14.00">roo_testing</text>
<text text-anchor="middle" x="1260" y="-7.8" font-family="Times,serif" font-size="14.00">1.1.8</text>
</g>
<!-- roo_comms&#45;&gt;roo_testing -->
<g id="edge4" class="edge">
<title>roo_comms&#45;&gt;roo_testing</title>
<path fill="none" stroke="red" d="M274.88,-660.95C215.54,-656.03 109.25,-645.12 75,-628 33.11,-607.07 0,-600.83 0,-554 0,-554 0,-554 0,-93 0,-31.19 979.01,-21.63 1211.09,-20.23"/>
<polygon fill="red" stroke="red" points="1211.28,-23.73 1221.26,-20.17 1211.24,-16.73 1211.28,-23.73"/>
<text text-anchor="middle" x="27" y="-316" font-family="Times,serif" font-size="10.00" fill="red">1.1.7</text>
<text text-anchor="middle" x="27" y="-305" font-family="Times,serif" font-size="10.00" fill="red">(latest: 1.1.8)</text>
</g>
<!-- roo_threads -->
<g id="node21" class="node">
<title>roo_threads</title>
<polygon fill="#b1dbab" stroke="black" points="297,-188 217,-188 217,-150 297,-150 297,-188"/>
<text text-anchor="middle" x="257" y="-172.8" font-family="Times,serif" font-size="14.00">roo_threads</text>
<text text-anchor="middle" x="257" y="-157.8" font-family="Times,serif" font-size="14.00">1.1.6</text>
</g>
<!-- roo_comms&#45;&gt;roo_threads -->
<g id="edge12" class="edge">
<title>roo_comms&#45;&gt;roo_threads</title>
<path fill="none" stroke="red" d="M274.79,-662.96C243.07,-660.16 199.77,-651.8 170,-628 148.27,-610.62 149.12,-598.9 142,-572 99.35,-410.75 140.22,-349.64 225,-206 227,-202.61 229.34,-199.26 231.84,-196.03"/>
<polygon fill="red" stroke="red" points="234.53,-198.27 238.24,-188.35 229.15,-193.79 234.53,-198.27"/>
<text text-anchor="middle" x="158" y="-412" font-family="Times,serif" font-size="10.00" fill="red">1.1.5</text>
<text text-anchor="middle" x="158" y="-401" font-family="Times,serif" font-size="10.00" fill="red">(latest: 1.1.6)</text>
</g>
<!-- roo_time -->
<g id="node22" class="node">
<title>roo_time</title>
<polygon fill="#b1dbab" stroke="black" points="404,-113 338,-113 338,-75 404,-75 404,-113"/>
<text text-anchor="middle" x="371" y="-97.8" font-family="Times,serif" font-size="14.00">roo_time</text>
<text text-anchor="middle" x="371" y="-82.8" font-family="Times,serif" font-size="14.00">1.3.3</text>
</g>
<!-- roo_comms&#45;&gt;roo_time -->
<g id="edge13" class="edge">
<title>roo_comms&#45;&gt;roo_time</title>
<path fill="none" stroke="red" d="M274.94,-663.61C204.7,-660.54 69,-643.07 69,-554 69,-554 69,-554 69,-168 69,-115.43 244.07,-100.59 327.62,-96.51"/>
<polygon fill="red" stroke="red" points="327.99,-99.99 337.82,-96.04 327.67,-93 327.99,-99.99"/>
<text text-anchor="middle" x="96" y="-364" font-family="Times,serif" font-size="10.00" fill="red">1.3.2</text>
<text text-anchor="middle" x="96" y="-353" font-family="Times,serif" font-size="10.00" fill="red">(latest: 1.3.3)</text>
</g>
<!-- roo_transceivers -->
<g id="node24" class="node">
<title>roo_transceivers</title>
<polygon fill="#b1dbab" stroke="black" points="369,-572 263,-572 263,-534 369,-534 369,-572"/>
<text text-anchor="middle" x="316" y="-556.8" font-family="Times,serif" font-size="14.00">roo_transceivers</text>
<text text-anchor="middle" x="316" y="-541.8" font-family="Times,serif" font-size="14.00">1.1.3</text>
</g>
<!-- roo_comms&#45;&gt;roo_transceivers -->
<g id="edge14" class="edge">
<title>roo_comms&#45;&gt;roo_transceivers</title>
<path fill="none" stroke="red" d="M316,-645.84C316,-628.56 316,-602.31 316,-582.29"/>
<polygon fill="red" stroke="red" points="319.5,-582.19 316,-572.19 312.5,-582.19 319.5,-582.19"/>
<text text-anchor="middle" x="343" y="-612" font-family="Times,serif" font-size="10.00" fill="red">1.1.2</text>
<text text-anchor="middle" x="343" y="-601" font-family="Times,serif" font-size="10.00" fill="red">(latest: 1.1.3)</text>
</g>
<!-- roo_quantity -->
<g id="node18" class="node">
<title>roo_quantity</title>
<polygon fill="#b1dbab" stroke="black" points="461,-380 375,-380 375,-342 461,-342 461,-380"/>
<text text-anchor="middle" x="418" y="-364.8" font-family="Times,serif" font-size="14.00">roo_quantity</text>
<text text-anchor="middle" x="418" y="-349.8" font-family="Times,serif" font-size="14.00">1.1.3</text>
</g>
<!-- roo_control&#45;&gt;roo_quantity -->
<g id="edge15" class="edge">
<title>roo_control&#45;&gt;roo_quantity</title>
<path fill="none" stroke="black" d="M434.95,-437.88C431.93,-424.35 427.74,-405.62 424.29,-390.15"/>
<polygon fill="black" stroke="black" points="427.63,-389.06 422.04,-380.07 420.8,-390.59 427.63,-389.06"/>
</g>
<!-- roo_control&#45;&gt;roo_scheduler -->
<g id="edge16" class="edge">
<title>roo_control&#45;&gt;roo_scheduler</title>
<path fill="none" stroke="black" d="M478.35,-437.95C486.78,-432.92 495.19,-426.91 502,-420 510.59,-411.28 517.57,-399.79 522.79,-389.33"/>
<polygon fill="black" stroke="black" points="526.03,-390.68 527.09,-380.13 519.68,-387.71 526.03,-390.68"/>
</g>
<!-- roo_dashboard -->
<g id="node6" class="node">
<title>roo_dashboard</title>
<polygon fill="plum" stroke="black" points="1502.5,-780 1405.5,-780 1405.5,-742 1502.5,-742 1502.5,-780"/>
<text text-anchor="middle" x="1454" y="-764.8" font-family="Times,serif" font-size="14.00">roo_dashboard</text>
<text text-anchor="middle" x="1454" y="-749.8" font-family="Times,serif" font-size="14.00">1.0.1</text>
</g>
<!-- roo_dashboard&#45;&gt;roo_testing -->
<g id="edge17" class="edge">
<title>roo_dashboard&#45;&gt;roo_testing</title>
<path fill="none" stroke="red" d="M1461.15,-741.95C1467.9,-723.25 1477,-693.05 1477,-666 1477,-666 1477,-666 1477,-93 1477,-57.72 1372.67,-36.27 1308.69,-26.43"/>
<polygon fill="red" stroke="red" points="1309.2,-22.97 1298.8,-24.95 1308.17,-29.89 1309.2,-22.97"/>
<text text-anchor="middle" x="1504" y="-364" font-family="Times,serif" font-size="10.00" fill="red">1.1.7</text>
<text text-anchor="middle" x="1504" y="-353" font-family="Times,serif" font-size="10.00" fill="red">(latest: 1.1.8)</text>
</g>
<!-- roo_windows -->
<g id="node27" class="node">
<title>roo_windows</title>
<polygon fill="plum" stroke="black" points="957,-684 867,-684 867,-646 957,-646 957,-684"/>
<text text-anchor="middle" x="912" y="-668.8" font-family="Times,serif" font-size="14.00">roo_windows</text>
<text text-anchor="middle" x="912" y="-653.8" font-family="Times,serif" font-size="14.00">1.4.1</text>
</g>
<!-- roo_dashboard&#45;&gt;roo_windows -->
<g id="edge18" class="edge">
<title>roo_dashboard&#45;&gt;roo_windows</title>
<path fill="none" stroke="black" d="M1405.42,-751.58C1304.61,-734.09 1073.25,-693.97 967.08,-675.55"/>
<polygon fill="black" stroke="black" points="967.66,-672.1 957.2,-673.84 966.46,-679 967.66,-672.1"/>
</g>
<!-- roo_display -->
<g id="node7" class="node">
<title>roo_display</title>
<polygon fill="plum" stroke="black" points="1231,-476 1151,-476 1151,-438 1231,-438 1231,-476"/>
<text text-anchor="middle" x="1191" y="-460.8" font-family="Times,serif" font-size="14.00">roo_display</text>
<text text-anchor="middle" x="1191" y="-445.8" font-family="Times,serif" font-size="14.00">2.3.1</text>
</g>
<!-- roo_display&#45;&gt;roo_collections -->
<g id="edge20" class="edge">
<title>roo_display&#45;&gt;roo_collections</title>
<path fill="none" stroke="black" d="M1183.89,-437.78C1168.15,-397.56 1131.59,-304.52 1129,-302 1118.69,-291.97 1105.34,-284.69 1091.86,-279.43"/>
<polygon fill="black" stroke="black" points="1092.66,-276 1082.07,-275.94 1090.31,-282.59 1092.66,-276"/>
</g>
<!-- roo_display&#45;&gt;roo_io -->
<g id="edge21" class="edge">
<title>roo_display&#45;&gt;roo_io</title>
<path fill="none" stroke="red" d="M1150.81,-443.61C1091.3,-425.27 980.58,-391.15 922.97,-373.4"/>
<polygon fill="red" stroke="red" points="923.78,-369.98 913.2,-370.38 921.72,-376.67 923.78,-369.98"/>
<text text-anchor="middle" x="1092" y="-412" font-family="Times,serif" font-size="10.00" fill="red">2.0.2</text>
<text text-anchor="middle" x="1092" y="-401" font-family="Times,serif" font-size="10.00" fill="red">(latest: 2.0.3)</text>
</g>
<!-- roo_display&#45;&gt;roo_testing -->
<g id="edge19" class="edge">
<title>roo_display&#45;&gt;roo_testing</title>
<path fill="none" stroke="red" d="M1191,-437.98C1191,-419.06 1191,-388.44 1191,-362 1191,-362 1191,-362 1191,-93 1191,-73.1 1204.71,-56.44 1219.91,-44.08"/>
<polygon fill="red" stroke="red" points="1222.06,-46.84 1227.92,-38.01 1217.84,-41.25 1222.06,-46.84"/>
<text text-anchor="middle" x="1218" y="-220" font-family="Times,serif" font-size="10.00" fill="red">1.1.7</text>
<text text-anchor="middle" x="1218" y="-209" font-family="Times,serif" font-size="10.00" fill="red">(latest: 1.1.8)</text>
</g>
<!-- roo_flags -->
<g id="node8" class="node">
<title>roo_flags</title>
<polygon fill="#b1dbab" stroke="black" points="513,-188 445,-188 445,-150 513,-150 513,-188"/>
<text text-anchor="middle" x="479" y="-172.8" font-family="Times,serif" font-size="14.00">roo_flags</text>
<text text-anchor="middle" x="479" y="-157.8" font-family="Times,serif" font-size="14.00">1.1.1</text>
</g>
<!-- roo_icons -->
<g id="node9" class="node">
<title>roo_icons</title>
<polygon fill="plum" stroke="black" points="1357,-572 1287,-572 1287,-534 1357,-534 1357,-572"/>
<text text-anchor="middle" x="1322" y="-556.8" font-family="Times,serif" font-size="14.00">roo_icons</text>
<text text-anchor="middle" x="1322" y="-541.8" font-family="Times,serif" font-size="14.00">1.2.1</text>
</g>
<!-- roo_icons&#45;&gt;roo_display -->
<g id="edge23" class="edge">
<title>roo_icons&#45;&gt;roo_display</title>
<path fill="none" stroke="black" d="M1296.74,-533.88C1276.17,-519.12 1246.96,-498.15 1224.45,-482"/>
<polygon fill="black" stroke="black" points="1226.35,-479.05 1216.18,-476.07 1222.26,-484.74 1226.35,-479.05"/>
</g>
<!-- roo_icons&#45;&gt;roo_testing -->
<g id="edge22" class="edge">
<title>roo_icons&#45;&gt;roo_testing</title>
<path fill="none" stroke="red" d="M1321.88,-533.78C1321.52,-492.49 1320.02,-388.64 1314,-302 1311.4,-264.54 1305,-255.55 1305,-218 1305,-218 1305,-218 1305,-93 1305,-75.78 1295.81,-59.22 1285.74,-46.24"/>
<polygon fill="red" stroke="red" points="1288.18,-43.69 1279.08,-38.25 1282.8,-48.17 1288.18,-43.69"/>
<text text-anchor="middle" x="1339" y="-268" font-family="Times,serif" font-size="10.00" fill="red">1.1.7</text>
<text text-anchor="middle" x="1339" y="-257" font-family="Times,serif" font-size="10.00" fill="red">(latest: 1.1.8)</text>
</g>
<!-- roo_io&#45;&gt;roo_backport -->
<g id="edge24" class="edge">
<title>roo_io&#45;&gt;roo_backport</title>
<path fill="none" stroke="black" d="M893.57,-341.78C907.5,-308.3 937.22,-236.82 953.59,-197.44"/>
<polygon fill="black" stroke="black" points="956.84,-198.74 957.45,-188.16 950.38,-196.05 956.84,-198.74"/>
</g>
<!-- roo_io&#45;&gt;roo_logging -->
<g id="edge25" class="edge">
<title>roo_io&#45;&gt;roo_logging</title>
<path fill="none" stroke="black" d="M858.82,-345.72C831.58,-332.1 788.04,-312.2 748,-302 650.65,-277.2 533.04,-269.48 466.85,-267.08"/>
<polygon fill="black" stroke="black" points="466.79,-263.57 456.68,-266.74 466.56,-270.57 466.79,-263.57"/>
</g>
<!-- roo_io_sdfat -->
<g id="node11" class="node">
<title>roo_io_sdfat</title>
<polygon fill="plum" stroke="black" points="1605.5,-780 1520.5,-780 1520.5,-742 1605.5,-742 1605.5,-780"/>
<text text-anchor="middle" x="1563" y="-764.8" font-family="Times,serif" font-size="14.00">roo_io_sdfat</text>
<text text-anchor="middle" x="1563" y="-749.8" font-family="Times,serif" font-size="14.00">1.0.0</text>
</g>
<!-- roo_locale -->
<g id="node12" class="node">
<title>roo_locale</title>
<polygon fill="#b1dbab" stroke="black" points="949,-572 875,-572 875,-534 949,-534 949,-572"/>
<text text-anchor="middle" x="912" y="-556.8" font-family="Times,serif" font-size="14.00">roo_locale</text>
<text text-anchor="middle" x="912" y="-541.8" font-family="Times,serif" font-size="14.00">1.1.1</text>
</g>
<!-- roo_logging&#45;&gt;roo_flags -->
<g id="edge26" class="edge">
<title>roo_logging&#45;&gt;roo_flags</title>
<path fill="none" stroke="black" d="M427.34,-245.88C436.9,-231.83 450.29,-212.17 461.04,-196.38"/>
<polygon fill="black" stroke="black" points="463.96,-198.3 466.7,-188.07 458.18,-194.36 463.96,-198.3"/>
</g>
<!-- roo_logging&#45;&gt;roo_threads -->
<g id="edge27" class="edge">
<title>roo_logging&#45;&gt;roo_threads</title>
<path fill="none" stroke="black" d="M384.54,-245.88C359.4,-230.92 323.56,-209.6 296.27,-193.36"/>
<polygon fill="black" stroke="black" points="297.75,-190.17 287.37,-188.07 294.18,-196.19 297.75,-190.17"/>
</g>
<!-- roo_monitoring -->
<g id="node14" class="node">
<title>roo_monitoring</title>
<polygon fill="plum" stroke="black" points="987,-476 885,-476 885,-438 987,-438 987,-476"/>
<text text-anchor="middle" x="936" y="-460.8" font-family="Times,serif" font-size="14.00">roo_monitoring</text>
<text text-anchor="middle" x="936" y="-445.8" font-family="Times,serif" font-size="14.00">1.0.0</text>
</g>
<!-- roo_monitoring&#45;&gt;roo_collections -->
<g id="edge28" class="edge">
<title>roo_monitoring&#45;&gt;roo_collections</title>
<path fill="none" stroke="black" d="M979.2,-437.88C986.73,-433.04 993.8,-427.12 999,-420 1013.42,-400.28 1023.79,-333.05 1028.73,-294.25"/>
<polygon fill="black" stroke="black" points="1032.23,-294.48 1029.99,-284.12 1025.29,-293.62 1032.23,-294.48"/>
</g>
<!-- roo_monitoring&#45;&gt;roo_io -->
<g id="edge29" class="edge">
<title>roo_monitoring&#45;&gt;roo_io</title>
<path fill="none" stroke="black" d="M914,-437.85C908.76,-432.58 903.63,-426.48 900,-420 894.94,-410.98 891.7,-400.17 889.62,-390.34"/>
<polygon fill="black" stroke="black" points="893.01,-389.41 887.8,-380.19 886.12,-390.65 893.01,-389.41"/>
</g>
<!-- roo_onewire -->
<g id="node15" class="node">
<title>roo_onewire</title>
<polygon fill="#b1dbab" stroke="black" points="582.5,-476 497.5,-476 497.5,-438 582.5,-438 582.5,-476"/>
<text text-anchor="middle" x="540" y="-460.8" font-family="Times,serif" font-size="14.00">roo_onewire</text>
<text text-anchor="middle" x="540" y="-445.8" font-family="Times,serif" font-size="14.00">2.0.5</text>
</g>
<!-- roo_onewire&#45;&gt;roo_quantity -->
<g id="edge31" class="edge">
<title>roo_onewire&#45;&gt;roo_quantity</title>
<path fill="none" stroke="black" d="M516.48,-437.88C497.41,-423.18 470.35,-402.34 449.43,-386.21"/>
<polygon fill="black" stroke="black" points="451.51,-383.4 441.45,-380.07 447.24,-388.94 451.51,-383.4"/>
</g>
<!-- roo_onewire&#45;&gt;roo_scheduler -->
<g id="edge30" class="edge">
<title>roo_onewire&#45;&gt;roo_scheduler</title>
<path fill="none" stroke="black" d="M538.84,-437.88C537.98,-424.35 536.78,-405.62 535.8,-390.15"/>
<polygon fill="black" stroke="black" points="539.28,-389.83 535.15,-380.07 532.3,-390.27 539.28,-389.83"/>
</g>
<!-- roo_powersafefs -->
<g id="node16" class="node">
<title>roo_powersafefs</title>
<polygon fill="plum" stroke="black" points="351.5,-284 244.5,-284 244.5,-246 351.5,-246 351.5,-284"/>
<text text-anchor="middle" x="298" y="-268.8" font-family="Times,serif" font-size="14.00">roo_powersafefs</text>
<text text-anchor="middle" x="298" y="-253.8" font-family="Times,serif" font-size="14.00">1.0.0</text>
</g>
<!-- roo_powersafefs&#45;&gt;roo_threads -->
<g id="edge32" class="edge">
<title>roo_powersafefs&#45;&gt;roo_threads</title>
<path fill="none" stroke="black" d="M290.09,-245.88C284.08,-232.09 275.71,-212.9 268.89,-197.26"/>
<polygon fill="black" stroke="black" points="272.09,-195.84 264.88,-188.07 265.67,-198.63 272.09,-195.84"/>
</g>
<!-- roo_prefs&#45;&gt;roo_logging -->
<g id="edge33" class="edge">
<title>roo_prefs&#45;&gt;roo_logging</title>
<path fill="none" stroke="black" d="M347.77,-437.63C349.26,-414.59 353.56,-374.19 366,-342 372.84,-324.3 384.15,-306.36 394.18,-292.37"/>
<polygon fill="black" stroke="black" points="397.09,-294.32 400.21,-284.2 391.46,-290.16 397.09,-294.32"/>
</g>
<!-- roo_prefs&#45;&gt;roo_scheduler -->
<g id="edge34" class="edge">
<title>roo_prefs&#45;&gt;roo_scheduler</title>
<path fill="none" stroke="black" d="M381.12,-441.26C384.1,-440.11 387.09,-439.01 390,-438 418.33,-428.19 428.03,-433.09 455,-420 473.04,-411.25 491.22,-398.26 505.58,-386.79"/>
<polygon fill="black" stroke="black" points="508.04,-389.3 513.56,-380.26 503.61,-383.88 508.04,-389.3"/>
</g>
<!-- roo_quantity&#45;&gt;roo_logging -->
<g id="edge35" class="edge">
<title>roo_quantity&#45;&gt;roo_logging</title>
<path fill="none" stroke="black" d="M417.42,-341.88C416.99,-328.35 416.39,-309.62 415.9,-294.15"/>
<polygon fill="black" stroke="black" points="419.39,-293.95 415.58,-284.07 412.4,-294.18 419.39,-293.95"/>
</g>
<!-- roo_scheduler&#45;&gt;roo_collections -->
<g id="edge36" class="edge">
<title>roo_scheduler&#45;&gt;roo_collections</title>
<path fill="none" stroke="black" d="M580.85,-351.16C671.68,-334.01 871.58,-296.28 971.98,-277.33"/>
<polygon fill="black" stroke="black" points="972.79,-280.74 981.96,-275.44 971.49,-273.86 972.79,-280.74"/>
</g>
<!-- roo_scheduler&#45;&gt;roo_threads -->
<g id="edge37" class="edge">
<title>roo_scheduler&#45;&gt;roo_threads</title>
<path fill="none" stroke="black" d="M487.21,-346.66C481.42,-345.06 475.58,-343.48 470,-342 366.41,-314.6 302.02,-368.39 236,-284 216.65,-259.26 228.69,-222.32 241.05,-197.25"/>
<polygon fill="black" stroke="black" points="244.21,-198.75 245.74,-188.27 238.01,-195.51 244.21,-198.75"/>
</g>
<!-- roo_threads&#45;&gt;roo_time -->
<g id="edge38" class="edge">
<title>roo_threads&#45;&gt;roo_time</title>
<path fill="none" stroke="black" d="M285.18,-149.96C299.98,-140.48 318.29,-128.75 334.2,-118.57"/>
<polygon fill="black" stroke="black" points="336.22,-121.43 342.75,-113.09 332.44,-115.54 336.22,-121.43"/>
</g>
<!-- roo_time&#45;&gt;roo_testing -->
<g id="edge39" class="edge">
<title>roo_time&#45;&gt;roo_testing</title>
<path fill="none" stroke="black" d="M404.23,-90.27C539.71,-79.15 1050.81,-37.18 1211.4,-23.99"/>
<polygon fill="black" stroke="black" points="1211.78,-27.47 1221.46,-23.16 1211.21,-20.49 1211.78,-27.47"/>
</g>
<!-- roo_time_ds3231 -->
<g id="node23" class="node">
<title>roo_time_ds3231</title>
<polygon fill="#b1dbab" stroke="black" points="427,-188 315,-188 315,-150 427,-150 427,-188"/>
<text text-anchor="middle" x="371" y="-172.8" font-family="Times,serif" font-size="14.00">roo_time_ds3231</text>
<text text-anchor="middle" x="371" y="-157.8" font-family="Times,serif" font-size="14.00">1.1.3</text>
</g>
<!-- roo_time_ds3231&#45;&gt;roo_time -->
<g id="edge40" class="edge">
<title>roo_time_ds3231&#45;&gt;roo_time</title>
<path fill="none" stroke="black" d="M371,-149.96C371,-141.88 371,-132.18 371,-123.18"/>
<polygon fill="black" stroke="black" points="374.5,-123.09 371,-113.09 367.5,-123.09 374.5,-123.09"/>
</g>
<!-- roo_transceivers&#45;&gt;roo_prefs -->
<g id="edge41" class="edge">
<title>roo_transceivers&#45;&gt;roo_prefs</title>
<path fill="none" stroke="black" d="M321.98,-533.88C326.48,-520.22 332.73,-501.26 337.86,-485.71"/>
<polygon fill="black" stroke="black" points="341.23,-486.66 341.04,-476.07 334.59,-484.47 341.23,-486.66"/>
</g>
<!-- roo_transport -->
<g id="node25" class="node">
<title>roo_transport</title>
<polygon fill="#b1dbab" stroke="black" points="1094.5,-476 1005.5,-476 1005.5,-438 1094.5,-438 1094.5,-476"/>
<text text-anchor="middle" x="1050" y="-460.8" font-family="Times,serif" font-size="14.00">roo_transport</text>
<text text-anchor="middle" x="1050" y="-445.8" font-family="Times,serif" font-size="14.00">1.0.2</text>
</g>
<!-- roo_transport&#45;&gt;roo_collections -->
<g id="edge42" class="edge">
<title>roo_transport&#45;&gt;roo_collections</title>
<path fill="none" stroke="black" d="M1048.27,-437.78C1045.12,-404.52 1038.42,-333.73 1034.67,-294.2"/>
<polygon fill="black" stroke="black" points="1038.15,-293.79 1033.72,-284.16 1031.18,-294.45 1038.15,-293.79"/>
</g>
<!-- roo_transport&#45;&gt;roo_io -->
<g id="edge43" class="edge">
<title>roo_transport&#45;&gt;roo_io</title>
<path fill="none" stroke="black" d="M1005.29,-440.82C1002.15,-439.84 999.03,-438.89 996,-438 964.76,-428.85 951.62,-438.74 925,-420 913.92,-412.19 905.08,-400.16 898.64,-389.07"/>
<polygon fill="black" stroke="black" points="901.62,-387.23 893.8,-380.09 895.46,-390.55 901.62,-387.23"/>
</g>
<!-- roo_wifi -->
<g id="node26" class="node">
<title>roo_wifi</title>
<polygon fill="#b1dbab" stroke="black" points="599.5,-628 536.5,-628 536.5,-590 599.5,-590 599.5,-628"/>
<text text-anchor="middle" x="568" y="-612.8" font-family="Times,serif" font-size="14.00">roo_wifi</text>
<text text-anchor="middle" x="568" y="-597.8" font-family="Times,serif" font-size="14.00">1.1.2</text>
</g>
<!-- roo_wifi&#45;&gt;roo_prefs -->
<g id="edge44" class="edge">
<title>roo_wifi&#45;&gt;roo_prefs</title>
<path fill="none" stroke="black" d="M537.6,-589.9C528.84,-584.39 519.4,-578.16 511,-572 467.79,-540.28 463.74,-523.53 419,-494 410.07,-488.11 400.05,-482.52 390.38,-477.58"/>
<polygon fill="black" stroke="black" points="391.78,-474.37 381.27,-473.06 388.67,-480.64 391.78,-474.37"/>
</g>
<!-- roo_windows&#45;&gt;roo_icons -->
<g id="edge48" class="edge">
<title>roo_windows&#45;&gt;roo_icons</title>
<path fill="none" stroke="black" d="M957.04,-664.24C1041.74,-663.92 1220.88,-659.43 1273,-628 1290.65,-617.36 1303.23,-597.64 1311.22,-581.23"/>
<polygon fill="black" stroke="black" points="1314.45,-582.59 1315.4,-572.04 1308.08,-579.7 1314.45,-582.59"/>
</g>
<!-- roo_windows&#45;&gt;roo_io -->
<g id="edge49" class="edge">
<title>roo_windows&#45;&gt;roo_io</title>
<path fill="none" stroke="red" d="M927.66,-645.69C947.7,-619.91 977.59,-571.85 958,-534 937.48,-494.36 896.52,-515.64 876,-476 862.1,-449.14 868.27,-413.9 875.55,-389.76"/>
<polygon fill="red" stroke="red" points="878.91,-390.74 878.69,-380.15 872.26,-388.57 878.91,-390.74"/>
<text text-anchor="middle" x="969" y="-508" font-family="Times,serif" font-size="10.00" fill="red">2.0.2</text>
<text text-anchor="middle" x="969" y="-497" font-family="Times,serif" font-size="10.00" fill="red">(latest: 2.0.3)</text>
</g>
<!-- roo_windows&#45;&gt;roo_locale -->
<g id="edge46" class="edge">
<title>roo_windows&#45;&gt;roo_locale</title>
<path fill="none" stroke="black" d="M912,-645.84C912,-628.56 912,-602.31 912,-582.29"/>
<polygon fill="black" stroke="black" points="915.5,-582.19 912,-572.19 908.5,-582.19 915.5,-582.19"/>
</g>
<!-- roo_windows&#45;&gt;roo_logging -->
<g id="edge47" class="edge">
<title>roo_windows&#45;&gt;roo_logging</title>
<path fill="none" stroke="red" d="M866.72,-650.52C854.52,-645.12 842.18,-637.78 833,-628 789.4,-581.52 823.26,-542.57 782,-494 771.69,-481.86 764.06,-485.13 751,-476 674.7,-422.66 669.27,-390.81 590,-342 550.68,-317.79 502.3,-297.41 466.38,-283.87"/>
<polygon fill="red" stroke="red" points="467.19,-280.44 456.59,-280.24 464.75,-287 467.19,-280.44"/>
<text text-anchor="middle" x="778" y="-460" font-family="Times,serif" font-size="10.00" fill="red">1.4.2</text>
<text text-anchor="middle" x="778" y="-449" font-family="Times,serif" font-size="10.00" fill="red">(latest: 1.4.3)</text>
</g>
<!-- roo_windows&#45;&gt;roo_scheduler -->
<g id="edge50" class="edge">
<title>roo_windows&#45;&gt;roo_scheduler</title>
<path fill="none" stroke="red" d="M866.84,-657.89C843.29,-652.91 815.09,-643.97 794,-628 737.59,-585.28 755.15,-546.77 708,-494 662.95,-443.58 644.74,-437.67 590,-398 584.34,-393.9 578.23,-389.73 572.2,-385.75"/>
<polygon fill="red" stroke="red" points="573.77,-382.59 563.48,-380.08 569.96,-388.46 573.77,-382.59"/>
<text text-anchor="middle" x="751" y="-508" font-family="Times,serif" font-size="10.00" fill="red">2.1.4</text>
<text text-anchor="middle" x="751" y="-497" font-family="Times,serif" font-size="10.00" fill="red">(latest: 2.1.5)</text>
</g>
<!-- roo_windows&#45;&gt;roo_testing -->
<g id="edge45" class="edge">
<title>roo_windows&#45;&gt;roo_testing</title>
<path fill="none" stroke="red" d="M957.01,-659.3C1050.9,-648.23 1259,-616.64 1259,-554 1259,-554 1259,-554 1256,-312 1256,-215.21 1258.22,-100.38 1259.36,-48.25"/>
<polygon fill="red" stroke="red" points="1262.86,-48.18 1259.58,-38.11 1255.86,-48.03 1262.86,-48.18"/>
<text text-anchor="middle" x="1286" y="-316" font-family="Times,serif" font-size="10.00" fill="red">1.1.7</text>
<text text-anchor="middle" x="1286" y="-305" font-family="Times,serif" font-size="10.00" fill="red">(latest: 1.1.8)</text>
</g>
<!-- roo_windows&#45;&gt;roo_time -->
<g id="edge51" class="edge">
<title>roo_windows&#45;&gt;roo_time</title>
<path fill="none" stroke="red" d="M902.19,-645.63C872.72,-589.79 787,-422.15 787,-362 787,-362 787,-362 787,-168 787,-130.48 521.06,-106.29 414.44,-98.1"/>
<polygon fill="red" stroke="red" points="414.58,-94.6 404.34,-97.34 414.05,-101.58 414.58,-94.6"/>
<text text-anchor="middle" x="815" y="-364" font-family="Times,serif" font-size="10.00" fill="red">1.3.2</text>
<text text-anchor="middle" x="815" y="-353" font-family="Times,serif" font-size="10.00" fill="red">(latest: 1.3.3)</text>
</g>
<!-- roo_windows_transceivers -->
<g id="node28" class="node">
<title>roo_windows_transceivers</title>
<polygon fill="plum" stroke="black" points="479.5,-780 318.5,-780 318.5,-742 479.5,-742 479.5,-780"/>
<text text-anchor="middle" x="399" y="-764.8" font-family="Times,serif" font-size="14.00">roo_windows_transceivers</text>
<text text-anchor="middle" x="399" y="-749.8" font-family="Times,serif" font-size="14.00">1.0.0</text>
</g>
<!-- roo_windows_transceivers&#45;&gt;roo_transceivers -->
<g id="edge52" class="edge">
<title>roo_windows_transceivers&#45;&gt;roo_transceivers</title>
<path fill="none" stroke="black" d="M340.18,-741.96C312.49,-730.18 282.08,-711.72 266,-684 246.31,-650.07 271.65,-606.94 292.86,-579.9"/>
<polygon fill="black" stroke="black" points="295.65,-582.01 299.25,-572.05 290.22,-577.59 295.65,-582.01"/>
</g>
<!-- roo_windows_transceivers&#45;&gt;roo_windows -->
<g id="edge53" class="edge">
<title>roo_windows_transceivers&#45;&gt;roo_windows</title>
<path fill="none" stroke="black" d="M479.76,-752.84C538.19,-746.96 618.86,-737.41 689,-724 746.9,-712.93 812.03,-695.38 856.88,-682.49"/>
<polygon fill="black" stroke="black" points="858.07,-685.79 866.7,-679.65 856.12,-679.07 858.07,-685.79"/>
</g>
<!-- roo_windows_wifi -->
<g id="node29" class="node">
<title>roo_windows_wifi</title>
<polygon fill="plum" stroke="black" points="971.5,-780 852.5,-780 852.5,-742 971.5,-742 971.5,-780"/>
<text text-anchor="middle" x="912" y="-764.8" font-family="Times,serif" font-size="14.00">roo_windows_wifi</text>
<text text-anchor="middle" x="912" y="-749.8" font-family="Times,serif" font-size="14.00">1.1.2</text>
</g>
<!-- roo_windows_wifi&#45;&gt;roo_testing -->
<g id="edge54" class="edge">
<title>roo_windows_wifi&#45;&gt;roo_testing</title>
<path fill="none" stroke="red" d="M971.68,-760.54C1099.25,-760.07 1387,-749.75 1387,-666 1387,-666 1387,-666 1387,-93 1387,-55.34 1344.51,-36.82 1308.68,-27.9"/>
<polygon fill="red" stroke="red" points="1309.32,-24.46 1298.79,-25.63 1307.76,-31.28 1309.32,-24.46"/>
<text text-anchor="middle" x="1414" y="-364" font-family="Times,serif" font-size="10.00" fill="red">1.1.7</text>
<text text-anchor="middle" x="1414" y="-353" font-family="Times,serif" font-size="10.00" fill="red">(latest: 1.1.8)</text>
</g>
<!-- roo_windows_wifi&#45;&gt;roo_wifi -->
<g id="edge55" class="edge">
<title>roo_windows_wifi&#45;&gt;roo_wifi</title>
<path fill="none" stroke="red" d="M870.51,-741.91C804.25,-713.02 675.32,-656.8 609.23,-627.98"/>
<polygon fill="red" stroke="red" points="610.52,-624.72 599.95,-623.93 607.72,-631.14 610.52,-624.72"/>
<text text-anchor="middle" x="851" y="-716" font-family="Times,serif" font-size="10.00" fill="red">1.1.1</text>
<text text-anchor="middle" x="851" y="-705" font-family="Times,serif" font-size="10.00" fill="red">(latest: 1.1.2)</text>
</g>
<!-- roo_windows_wifi&#45;&gt;roo_windows -->
<g id="edge56" class="edge">
<title>roo_windows_wifi&#45;&gt;roo_windows</title>
<path fill="none" stroke="black" d="M912,-741.88C912,-728.35 912,-709.62 912,-694.15"/>
<polygon fill="black" stroke="black" points="915.5,-694.07 912,-684.07 908.5,-694.07 915.5,-694.07"/>
</g>
</g>
</svg>
