<?xml version="1.0" encoding="UTF-8" standalone="no"?>
<!DOCTYPE svg PUBLIC "-//W3C//DTD SVG 1.1//EN"
 "http://www.w3.org/Graphics/SVG/1.1/DTD/svg11.dtd">
<!-- Generated by graphviz version 2.42.4 (0)
 -->
<!-- Title: dependencies Pages: 1 -->
<svg width="858pt" height="772pt"
 viewBox="0.00 0.00 857.50 772.00" xmlns="http://www.w3.org/2000/svg" xmlns:xlink="http://www.w3.org/1999/xlink">
<g id="graph0" class="graph" transform="scale(1 1) rotate(0) translate(4 768)">
<title>dependencies</title>
<polygon fill="white" stroke="transparent" points="-4,4 -4,-768 853.5,-768 853.5,4 -4,4"/>
<!-- roo_backport -->
<g id="node1" class="node">
<title>roo_backport</title>
<polygon fill="#b1dbab" stroke="black" points="431.5,-209 342.5,-209 342.5,-171 431.5,-171 431.5,-209"/>
<text text-anchor="middle" x="387" y="-193.8" font-family="Times,serif" font-size="14.00">roo_backport</text>
<text text-anchor="middle" x="387" y="-178.8" font-family="Times,serif" font-size="14.00">1.2.1</text>
</g>
<!-- roo_blink -->
<g id="node2" class="node">
<title>roo_blink</title>
<polygon fill="#b1dbab" stroke="black" points="193.5,-593 124.5,-593 124.5,-555 193.5,-555 193.5,-593"/>
<text text-anchor="middle" x="159" y="-577.8" font-family="Times,serif" font-size="14.00">roo_blink</text>
<text text-anchor="middle" x="159" y="-562.8" font-family="Times,serif" font-size="14.00">1.0.5</text>
</g>
<!-- roo_logging -->
<g id="node13" class="node">
<title>roo_logging</title>
<polygon fill="#b1dbab" stroke="black" points="324.5,-305 241.5,-305 241.5,-267 324.5,-267 324.5,-305"/>
<text text-anchor="middle" x="283" y="-289.8" font-family="Times,serif" font-size="14.00">roo_logging</text>
<text text-anchor="middle" x="283" y="-274.8" font-family="Times,serif" font-size="14.00">1.5.3</text>
</g>
<!-- roo_blink&#45;&gt;roo_logging -->
<g id="edge1" class="edge">
<title>roo_blink&#45;&gt;roo_logging</title>
<path fill="none" stroke="black" d="M152.81,-554.74C149.79,-543.2 147.49,-528.06 151,-515 172.54,-434.79 229.94,-353.66 261.48,-313.26"/>
<polygon fill="black" stroke="black" points="264.34,-315.29 267.8,-305.28 258.85,-310.95 264.34,-315.29"/>
</g>
<!-- roo_scheduler -->
<g id="node19" class="node">
<title>roo_scheduler</title>
<polygon fill="#b1dbab" stroke="black" points="319.5,-497 226.5,-497 226.5,-459 319.5,-459 319.5,-497"/>
<text text-anchor="middle" x="273" y="-481.8" font-family="Times,serif" font-size="14.00">roo_scheduler</text>
<text text-anchor="middle" x="273" y="-466.8" font-family="Times,serif" font-size="14.00">2.1.7</text>
</g>
<!-- roo_blink&#45;&gt;roo_scheduler -->
<g id="edge2" class="edge">
<title>roo_blink&#45;&gt;roo_scheduler</title>
<path fill="none" stroke="black" d="M193.81,-557.19C204.36,-551.58 215.63,-544.72 225,-537 236.06,-527.88 246.46,-515.93 254.72,-505.25"/>
<polygon fill="black" stroke="black" points="257.68,-507.13 260.87,-497.03 252.08,-502.94 257.68,-507.13"/>
</g>
<!-- roo_collections -->
<g id="node3" class="node">
<title>roo_collections</title>
<polygon fill="#b1dbab" stroke="black" points="583,-401 483,-401 483,-363 583,-363 583,-401"/>
<text text-anchor="middle" x="533" y="-385.8" font-family="Times,serif" font-size="14.00">roo_collections</text>
<text text-anchor="middle" x="533" y="-370.8" font-family="Times,serif" font-size="14.00">1.4.1</text>
</g>
<!-- roo_collections&#45;&gt;roo_backport -->
<g id="edge3" class="edge">
<title>roo_collections&#45;&gt;roo_backport</title>
<path fill="none" stroke="black" d="M519,-362.78C493.06,-329.02 437.41,-256.61 407.32,-217.45"/>
<polygon fill="black" stroke="black" points="409.83,-214.96 400.96,-209.16 404.27,-219.22 409.83,-214.96"/>
</g>
<!-- roo_comms -->
<g id="node4" class="node">
<title>roo_comms</title>
<polygon fill="#b1dbab" stroke="red" points="304,-764 222,-764 222,-726 304,-726 304,-764"/>
<text text-anchor="middle" x="263" y="-748.8" font-family="Times,serif" font-size="14.00">roo_comms</text>
<text text-anchor="middle" x="263" y="-733.8" font-family="Times,serif" font-size="14.00">1.1.3</text>
</g>
<!-- roo_comms&#45;&gt;roo_blink -->
<g id="edge4" class="edge">
<title>roo_comms&#45;&gt;roo_blink</title>
<path fill="none" stroke="red" d="M251.87,-725.91C233.54,-696.13 196.92,-636.62 175.55,-601.89"/>
<polygon fill="red" stroke="red" points="178.43,-599.89 170.21,-593.21 172.47,-603.56 178.43,-599.89"/>
<text text-anchor="middle" x="244" y="-652" font-family="Times,serif" font-size="10.00" fill="red">1.0.4</text>
<text text-anchor="middle" x="244" y="-641" font-family="Times,serif" font-size="10.00" fill="red">(latest: 1.0.5)</text>
</g>
<!-- roo_control -->
<g id="node5" class="node">
<title>roo_control</title>
<polygon fill="#b1dbab" stroke="red" points="106,-593 26,-593 26,-555 106,-555 106,-593"/>
<text text-anchor="middle" x="66" y="-577.8" font-family="Times,serif" font-size="14.00">roo_control</text>
<text text-anchor="middle" x="66" y="-562.8" font-family="Times,serif" font-size="14.00">1.2.3</text>
</g>
<!-- roo_comms&#45;&gt;roo_control -->
<g id="edge5" class="edge">
<title>roo_comms&#45;&gt;roo_control</title>
<path fill="none" stroke="black" d="M241.92,-725.91C206.54,-695.56 135.16,-634.33 95.05,-599.92"/>
<polygon fill="black" stroke="black" points="97.1,-597.07 87.23,-593.21 92.54,-602.38 97.1,-597.07"/>
</g>
<!-- roo_io -->
<g id="node10" class="node">
<title>roo_io</title>
<polygon fill="plum" stroke="red" points="425,-401 371,-401 371,-363 425,-363 425,-401"/>
<text text-anchor="middle" x="398" y="-385.8" font-family="Times,serif" font-size="14.00">roo_io</text>
<text text-anchor="middle" x="398" y="-370.8" font-family="Times,serif" font-size="14.00">2.1.2</text>
</g>
<!-- roo_comms&#45;&gt;roo_io -->
<g id="edge6" class="edge">
<title>roo_comms&#45;&gt;roo_io</title>
<path fill="none" stroke="red" d="M269.54,-725.85C283.53,-687.07 317.53,-593.27 347,-515 360.59,-478.91 376.68,-437.46 387.11,-410.78"/>
<polygon fill="red" stroke="red" points="390.42,-411.91 390.81,-401.33 383.9,-409.36 390.42,-411.91"/>
<text text-anchor="middle" x="359" y="-577" font-family="Times,serif" font-size="10.00" fill="red">2.1.1</text>
<text text-anchor="middle" x="359" y="-566" font-family="Times,serif" font-size="10.00" fill="red">(latest: 2.1.2)</text>
</g>
<!-- roo_transceivers -->
<g id="node24" class="node">
<title>roo_transceivers</title>
<polygon fill="#b1dbab" stroke="red" points="467,-668 361,-668 361,-630 467,-630 467,-668"/>
<text text-anchor="middle" x="414" y="-652.8" font-family="Times,serif" font-size="14.00">roo_transceivers</text>
<text text-anchor="middle" x="414" y="-637.8" font-family="Times,serif" font-size="14.00">1.1.4</text>
</g>
<!-- roo_comms&#45;&gt;roo_transceivers -->
<g id="edge7" class="edge">
<title>roo_comms&#45;&gt;roo_transceivers</title>
<path fill="none" stroke="black" d="M304.01,-729.39C318.11,-723.6 333.69,-716.33 347,-708 361.87,-698.69 376.79,-686.17 388.76,-675.14"/>
<polygon fill="black" stroke="black" points="391.29,-677.57 396.17,-668.16 386.49,-672.47 391.29,-677.57"/>
</g>
<!-- roo_quantity -->
<g id="node18" class="node">
<title>roo_quantity</title>
<polygon fill="#b1dbab" stroke="black" points="109,-497 23,-497 23,-459 109,-459 109,-497"/>
<text text-anchor="middle" x="66" y="-481.8" font-family="Times,serif" font-size="14.00">roo_quantity</text>
<text text-anchor="middle" x="66" y="-466.8" font-family="Times,serif" font-size="14.00">1.1.7</text>
</g>
<!-- roo_control&#45;&gt;roo_quantity -->
<g id="edge8" class="edge">
<title>roo_control&#45;&gt;roo_quantity</title>
<path fill="none" stroke="red" d="M66,-554.88C66,-541.35 66,-522.62 66,-507.15"/>
<polygon fill="red" stroke="red" points="69.5,-507.07 66,-497.07 62.5,-507.07 69.5,-507.07"/>
<text text-anchor="middle" x="93" y="-529" font-family="Times,serif" font-size="10.00" fill="red">1.1.5</text>
<text text-anchor="middle" x="93" y="-518" font-family="Times,serif" font-size="10.00" fill="red">(latest: 1.1.7)</text>
</g>
<!-- roo_control&#45;&gt;roo_scheduler -->
<g id="edge9" class="edge">
<title>roo_control&#45;&gt;roo_scheduler</title>
<path fill="none" stroke="red" d="M93.96,-554.98C113.81,-542.68 141.39,-526.57 167,-515 182.69,-507.91 200.22,-501.41 216.44,-495.95"/>
<polygon fill="red" stroke="red" points="217.93,-499.14 226.33,-492.69 215.74,-492.5 217.93,-499.14"/>
<text text-anchor="middle" x="194" y="-529" font-family="Times,serif" font-size="10.00" fill="red">2.1.6</text>
<text text-anchor="middle" x="194" y="-518" font-family="Times,serif" font-size="10.00" fill="red">(latest: 2.1.7)</text>
</g>
<!-- roo_dashboard -->
<g id="node6" class="node">
<title>roo_dashboard</title>
<polygon fill="plum" stroke="red" points="746.5,-764 649.5,-764 649.5,-726 746.5,-726 746.5,-764"/>
<text text-anchor="middle" x="698" y="-748.8" font-family="Times,serif" font-size="14.00">roo_dashboard</text>
<text text-anchor="middle" x="698" y="-733.8" font-family="Times,serif" font-size="14.00">1.0.1</text>
</g>
<!-- roo_windows -->
<g id="node27" class="node">
<title>roo_windows</title>
<polygon fill="#b1dbab" stroke="red" points="663,-668 573,-668 573,-630 663,-630 663,-668"/>
<text text-anchor="middle" x="618" y="-652.8" font-family="Times,serif" font-size="14.00">roo_windows</text>
<text text-anchor="middle" x="618" y="-637.8" font-family="Times,serif" font-size="14.00">1.4.2</text>
</g>
<!-- roo_dashboard&#45;&gt;roo_windows -->
<g id="edge10" class="edge">
<title>roo_dashboard&#45;&gt;roo_windows</title>
<path fill="none" stroke="red" d="M682.58,-725.88C670.51,-711.7 653.58,-691.81 640.08,-675.94"/>
<polygon fill="red" stroke="red" points="642.52,-673.42 633.38,-668.07 637.19,-677.95 642.52,-673.42"/>
<text text-anchor="middle" x="692" y="-700" font-family="Times,serif" font-size="10.00" fill="red">1.4.1</text>
<text text-anchor="middle" x="692" y="-689" font-family="Times,serif" font-size="10.00" fill="red">(latest: 1.4.2)</text>
</g>
<!-- roo_display -->
<g id="node7" class="node">
<title>roo_display</title>
<polygon fill="khaki" stroke="red" points="618,-497 538,-497 538,-459 618,-459 618,-497"/>
<text text-anchor="middle" x="578" y="-481.8" font-family="Times,serif" font-size="14.00">roo_display</text>
<text text-anchor="middle" x="578" y="-466.8" font-family="Times,serif" font-size="14.00">2.3.2</text>
</g>
<!-- roo_display&#45;&gt;roo_collections -->
<g id="edge11" class="edge">
<title>roo_display&#45;&gt;roo_collections</title>
<path fill="none" stroke="red" d="M586.89,-458.77C591.37,-446.83 594.61,-431.22 588,-419 585.77,-414.88 582.84,-411.15 579.5,-407.8"/>
<polygon fill="red" stroke="red" points="581.49,-404.9 571.62,-401.06 576.94,-410.22 581.49,-404.9"/>
<text text-anchor="middle" x="618" y="-433" font-family="Times,serif" font-size="10.00" fill="red">1.4.0</text>
<text text-anchor="middle" x="618" y="-422" font-family="Times,serif" font-size="10.00" fill="red">(latest: 1.4.1)</text>
</g>
<!-- roo_display&#45;&gt;roo_io -->
<g id="edge12" class="edge">
<title>roo_display&#45;&gt;roo_io</title>
<path fill="none" stroke="black" d="M537.76,-463.01C533.14,-461.58 528.49,-460.21 524,-459 485.87,-448.74 469.78,-463.01 437,-441 425.75,-433.44 416.89,-421.43 410.48,-410.3"/>
<polygon fill="black" stroke="black" points="413.46,-408.45 405.67,-401.27 407.28,-411.74 413.46,-408.45"/>
</g>
<!-- roo_flags -->
<g id="node8" class="node">
<title>roo_flags</title>
<polygon fill="#b1dbab" stroke="black" points="317,-209 249,-209 249,-171 317,-171 317,-209"/>
<text text-anchor="middle" x="283" y="-193.8" font-family="Times,serif" font-size="14.00">roo_flags</text>
<text text-anchor="middle" x="283" y="-178.8" font-family="Times,serif" font-size="14.00">1.2.1</text>
</g>
<!-- roo_icons -->
<g id="node9" class="node">
<title>roo_icons</title>
<polygon fill="#b1dbab" stroke="red" points="651,-593 581,-593 581,-555 651,-555 651,-593"/>
<text text-anchor="middle" x="616" y="-577.8" font-family="Times,serif" font-size="14.00">roo_icons</text>
<text text-anchor="middle" x="616" y="-562.8" font-family="Times,serif" font-size="14.00">1.2.1</text>
</g>
<!-- roo_icons&#45;&gt;roo_display -->
<g id="edge13" class="edge">
<title>roo_icons&#45;&gt;roo_display</title>
<path fill="none" stroke="red" d="M608.67,-554.88C603.15,-541.22 595.49,-522.26 589.2,-506.71"/>
<polygon fill="red" stroke="red" points="592.3,-505.03 585.3,-497.07 585.81,-507.65 592.3,-505.03"/>
<text text-anchor="middle" x="627" y="-529" font-family="Times,serif" font-size="10.00" fill="red">2.3.1</text>
<text text-anchor="middle" x="627" y="-518" font-family="Times,serif" font-size="10.00" fill="red">(latest: 2.3.2)</text>
</g>
<!-- roo_io&#45;&gt;roo_logging -->
<g id="edge14" class="edge">
<title>roo_io&#45;&gt;roo_logging</title>
<path fill="none" stroke="red" d="M370.99,-372.28C355.46,-366.33 336.28,-357.29 322,-345 312.04,-336.43 303.53,-324.73 297.02,-314.09"/>
<polygon fill="red" stroke="red" points="299.87,-312.02 291.83,-305.11 293.81,-315.52 299.87,-312.02"/>
<text text-anchor="middle" x="349" y="-337" font-family="Times,serif" font-size="10.00" fill="red">1.5.2</text>
<text text-anchor="middle" x="349" y="-326" font-family="Times,serif" font-size="10.00" fill="red">(latest: 1.5.3)</text>
</g>
<!-- roo_io_sdfat -->
<g id="node11" class="node">
<title>roo_io_sdfat</title>
<polygon fill="plum" stroke="black" points="849.5,-764 764.5,-764 764.5,-726 849.5,-726 849.5,-764"/>
<text text-anchor="middle" x="807" y="-748.8" font-family="Times,serif" font-size="14.00">roo_io_sdfat</text>
<text text-anchor="middle" x="807" y="-733.8" font-family="Times,serif" font-size="14.00">1.0.0</text>
</g>
<!-- roo_locale -->
<g id="node12" class="node">
<title>roo_locale</title>
<polygon fill="#b1dbab" stroke="black" points="743,-593 669,-593 669,-555 743,-555 743,-593"/>
<text text-anchor="middle" x="706" y="-577.8" font-family="Times,serif" font-size="14.00">roo_locale</text>
<text text-anchor="middle" x="706" y="-562.8" font-family="Times,serif" font-size="14.00">1.1.1</text>
</g>
<!-- roo_logging&#45;&gt;roo_backport -->
<g id="edge15" class="edge">
<title>roo_logging&#45;&gt;roo_backport</title>
<path fill="none" stroke="black" d="M303.05,-266.88C319.02,-252.44 341.56,-232.07 359.26,-216.07"/>
<polygon fill="black" stroke="black" points="361.94,-218.37 367.01,-209.07 357.24,-213.18 361.94,-218.37"/>
</g>
<!-- roo_logging&#45;&gt;roo_flags -->
<g id="edge16" class="edge">
<title>roo_logging&#45;&gt;roo_flags</title>
<path fill="none" stroke="black" d="M283,-266.88C283,-253.35 283,-234.62 283,-219.15"/>
<polygon fill="black" stroke="black" points="286.5,-219.07 283,-209.07 279.5,-219.07 286.5,-219.07"/>
</g>
<!-- roo_threads -->
<g id="node21" class="node">
<title>roo_threads</title>
<polygon fill="#b1dbab" stroke="black" points="210,-209 130,-209 130,-171 210,-171 210,-209"/>
<text text-anchor="middle" x="170" y="-193.8" font-family="Times,serif" font-size="14.00">roo_threads</text>
<text text-anchor="middle" x="170" y="-178.8" font-family="Times,serif" font-size="14.00">1.2.1</text>
</g>
<!-- roo_logging&#45;&gt;roo_threads -->
<g id="edge17" class="edge">
<title>roo_logging&#45;&gt;roo_threads</title>
<path fill="none" stroke="black" d="M267.95,-266.84C257.45,-254.78 242.74,-239.01 228,-227 222.69,-222.67 216.82,-218.47 210.92,-214.55"/>
<polygon fill="black" stroke="black" points="212.62,-211.47 202.31,-209.02 208.84,-217.37 212.62,-211.47"/>
</g>
<!-- roo_monitoring -->
<g id="node14" class="node">
<title>roo_monitoring</title>
<polygon fill="khaki" stroke="red" points="738,-497 636,-497 636,-459 738,-459 738,-497"/>
<text text-anchor="middle" x="687" y="-481.8" font-family="Times,serif" font-size="14.00">roo_monitoring</text>
<text text-anchor="middle" x="687" y="-466.8" font-family="Times,serif" font-size="14.00">1.0.0</text>
</g>
<!-- roo_monitoring&#45;&gt;roo_collections -->
<g id="edge18" class="edge">
<title>roo_monitoring&#45;&gt;roo_collections</title>
<path fill="none" stroke="red" d="M679.23,-458.86C672.85,-446.01 662.65,-429.29 649,-419 632.72,-406.73 612.2,-398.6 592.96,-393.22"/>
<polygon fill="red" stroke="red" points="593.61,-389.77 583.05,-390.66 591.85,-396.55 593.61,-389.77"/>
<text text-anchor="middle" x="695" y="-433" font-family="Times,serif" font-size="10.00" fill="red">1.3.2</text>
<text text-anchor="middle" x="695" y="-422" font-family="Times,serif" font-size="10.00" fill="red">(latest: 1.4.1)</text>
</g>
<!-- roo_monitoring&#45;&gt;roo_io -->
<g id="edge19" class="edge">
<title>roo_monitoring&#45;&gt;roo_io</title>
<path fill="none" stroke="red" d="M635.77,-460.94C632.82,-460.23 629.88,-459.58 627,-459 550.76,-443.76 521.93,-476.95 453,-441 441.55,-435.03 442.8,-428.46 434,-419 430.71,-415.46 427.19,-411.8 423.68,-408.22"/>
<polygon fill="red" stroke="red" points="426.11,-405.69 416.58,-401.06 421.14,-410.62 426.11,-405.69"/>
<text text-anchor="middle" x="480" y="-433" font-family="Times,serif" font-size="10.00" fill="red">2.0.3</text>
<text text-anchor="middle" x="480" y="-422" font-family="Times,serif" font-size="10.00" fill="red">(latest: 2.1.2)</text>
</g>
<!-- roo_onewire -->
<g id="node15" class="node">
<title>roo_onewire</title>
<polygon fill="#b1dbab" stroke="black" points="296.5,-593 211.5,-593 211.5,-555 296.5,-555 296.5,-593"/>
<text text-anchor="middle" x="254" y="-577.8" font-family="Times,serif" font-size="14.00">roo_onewire</text>
<text text-anchor="middle" x="254" y="-562.8" font-family="Times,serif" font-size="14.00">2.0.8</text>
</g>
<!-- roo_onewire&#45;&gt;roo_quantity -->
<g id="edge21" class="edge">
<title>roo_onewire&#45;&gt;roo_quantity</title>
<path fill="none" stroke="black" d="M250.42,-554.9C246.91,-541.9 240.23,-524.97 228,-515 211.48,-501.53 159.94,-491.61 119.38,-485.63"/>
<polygon fill="black" stroke="black" points="119.73,-482.14 109.33,-484.19 118.74,-489.07 119.73,-482.14"/>
</g>
<!-- roo_onewire&#45;&gt;roo_scheduler -->
<g id="edge20" class="edge">
<title>roo_onewire&#45;&gt;roo_scheduler</title>
<path fill="none" stroke="black" d="M267.11,-554.78C270.34,-549.32 273.34,-543.15 275,-537 277.56,-527.53 277.88,-516.87 277.3,-507.3"/>
<polygon fill="black" stroke="black" points="280.76,-506.71 276.33,-497.08 273.79,-507.37 280.76,-506.71"/>
</g>
<!-- roo_powersafefs -->
<g id="node16" class="node">
<title>roo_powersafefs</title>
<polygon fill="plum" stroke="red" points="223.5,-305 116.5,-305 116.5,-267 223.5,-267 223.5,-305"/>
<text text-anchor="middle" x="170" y="-289.8" font-family="Times,serif" font-size="14.00">roo_powersafefs</text>
<text text-anchor="middle" x="170" y="-274.8" font-family="Times,serif" font-size="14.00">1.0.0</text>
</g>
<!-- roo_powersafefs&#45;&gt;roo_threads -->
<g id="edge22" class="edge">
<title>roo_powersafefs&#45;&gt;roo_threads</title>
<path fill="none" stroke="red" d="M170,-266.88C170,-253.35 170,-234.62 170,-219.15"/>
<polygon fill="red" stroke="red" points="173.5,-219.07 170,-209.07 166.5,-219.07 173.5,-219.07"/>
<text text-anchor="middle" x="197" y="-241" font-family="Times,serif" font-size="10.00" fill="red">1.1.6</text>
<text text-anchor="middle" x="197" y="-230" font-family="Times,serif" font-size="10.00" fill="red">(latest: 1.2.1)</text>
</g>
<!-- roo_prefs -->
<g id="node17" class="node">
<title>roo_prefs</title>
<polygon fill="#b1dbab" stroke="red" points="473,-593 405,-593 405,-555 473,-555 473,-593"/>
<text text-anchor="middle" x="439" y="-577.8" font-family="Times,serif" font-size="14.00">roo_prefs</text>
<text text-anchor="middle" x="439" y="-562.8" font-family="Times,serif" font-size="14.00">1.2.7</text>
</g>
<!-- roo_prefs&#45;&gt;roo_logging -->
<g id="edge23" class="edge">
<title>roo_prefs&#45;&gt;roo_logging</title>
<path fill="none" stroke="red" d="M435.78,-554.77C433.1,-542.83 428.49,-527.23 421,-515 396.37,-474.8 372.34,-479.41 345,-441 317.68,-402.61 316.68,-389.07 300,-345 296.35,-335.34 292.99,-324.54 290.24,-314.9"/>
<polygon fill="red" stroke="red" points="293.54,-313.71 287.51,-305 286.8,-315.57 293.54,-313.71"/>
<text text-anchor="middle" x="372" y="-433" font-family="Times,serif" font-size="10.00" fill="red">1.5.1</text>
<text text-anchor="middle" x="372" y="-422" font-family="Times,serif" font-size="10.00" fill="red">(latest: 1.5.3)</text>
</g>
<!-- roo_prefs&#45;&gt;roo_scheduler -->
<g id="edge24" class="edge">
<title>roo_prefs&#45;&gt;roo_scheduler</title>
<path fill="none" stroke="red" d="M404.98,-556.76C392.87,-550.78 379.21,-543.8 367,-537 347.74,-526.27 326.82,-513.48 309.62,-502.65"/>
<polygon fill="red" stroke="red" points="311.31,-499.58 300.99,-497.18 307.57,-505.49 311.31,-499.58"/>
<text text-anchor="middle" x="394" y="-529" font-family="Times,serif" font-size="10.00" fill="red">2.1.6</text>
<text text-anchor="middle" x="394" y="-518" font-family="Times,serif" font-size="10.00" fill="red">(latest: 2.1.7)</text>
</g>
<!-- roo_quantity&#45;&gt;roo_logging -->
<g id="edge25" class="edge">
<title>roo_quantity&#45;&gt;roo_logging</title>
<path fill="none" stroke="black" d="M71.74,-458.84C82.98,-426.33 111.09,-358.28 159,-323 183.7,-304.81 197.59,-312.91 231.71,-304.69"/>
<polygon fill="black" stroke="black" points="232.63,-308.07 241.36,-302.07 230.79,-301.32 232.63,-308.07"/>
</g>
<!-- roo_scheduler&#45;&gt;roo_collections -->
<g id="edge26" class="edge">
<title>roo_scheduler&#45;&gt;roo_collections</title>
<path fill="none" stroke="black" d="M319.78,-460.09C362.78,-444.54 426.73,-421.42 473.37,-404.56"/>
<polygon fill="black" stroke="black" points="474.83,-407.75 483.05,-401.06 472.45,-401.17 474.83,-407.75"/>
</g>
<!-- roo_scheduler&#45;&gt;roo_threads -->
<g id="edge27" class="edge">
<title>roo_scheduler&#45;&gt;roo_threads</title>
<path fill="none" stroke="black" d="M245.19,-458.84C205.68,-431.16 134.97,-374.26 107,-305 94.14,-273.16 118.7,-238.99 140.81,-216.45"/>
<polygon fill="black" stroke="black" points="143.45,-218.76 148.16,-209.27 138.56,-213.76 143.45,-218.76"/>
</g>
<!-- roo_testing -->
<g id="node20" class="node">
<title>roo_testing</title>
<polygon fill="#b1dbab" stroke="black" points="128.5,-38 51.5,-38 51.5,0 128.5,0 128.5,-38"/>
<text text-anchor="middle" x="90" y="-22.8" font-family="Times,serif" font-size="14.00">roo_testing</text>
<text text-anchor="middle" x="90" y="-7.8" font-family="Times,serif" font-size="14.00">1.2.1</text>
</g>
<!-- roo_time -->
<g id="node22" class="node">
<title>roo_time</title>
<polygon fill="#b1dbab" stroke="black" points="123,-113 57,-113 57,-75 123,-75 123,-113"/>
<text text-anchor="middle" x="90" y="-97.8" font-family="Times,serif" font-size="14.00">roo_time</text>
<text text-anchor="middle" x="90" y="-82.8" font-family="Times,serif" font-size="14.00">1.4.1</text>
</g>
<!-- roo_threads&#45;&gt;roo_time -->
<g id="edge28" class="edge">
<title>roo_threads&#45;&gt;roo_time</title>
<path fill="none" stroke="black" d="M160.3,-170.76C153.49,-158.81 143.72,-143.2 133,-131 129.63,-127.17 125.84,-123.39 121.94,-119.82"/>
<polygon fill="black" stroke="black" points="124.22,-117.16 114.39,-113.22 119.62,-122.44 124.22,-117.16"/>
</g>
<!-- roo_time&#45;&gt;roo_testing -->
<g id="edge29" class="edge">
<title>roo_time&#45;&gt;roo_testing</title>
<path fill="none" stroke="black" d="M90,-74.96C90,-66.88 90,-57.18 90,-48.18"/>
<polygon fill="black" stroke="black" points="93.5,-48.09 90,-38.09 86.5,-48.09 93.5,-48.09"/>
</g>
<!-- roo_time_ds3231 -->
<g id="node23" class="node">
<title>roo_time_ds3231</title>
<polygon fill="#b1dbab" stroke="red" points="112,-209 0,-209 0,-171 112,-171 112,-209"/>
<text text-anchor="middle" x="56" y="-193.8" font-family="Times,serif" font-size="14.00">roo_time_ds3231</text>
<text text-anchor="middle" x="56" y="-178.8" font-family="Times,serif" font-size="14.00">1.1.4</text>
</g>
<!-- roo_time_ds3231&#45;&gt;roo_time -->
<g id="edge30" class="edge">
<title>roo_time_ds3231&#45;&gt;roo_time</title>
<path fill="none" stroke="red" d="M62.56,-170.88C67.49,-157.22 74.35,-138.26 79.98,-122.71"/>
<polygon fill="red" stroke="red" points="83.35,-123.66 83.46,-113.07 76.77,-121.28 83.35,-123.66"/>
<text text-anchor="middle" x="104" y="-145" font-family="Times,serif" font-size="10.00" fill="red">1.4.0</text>
<text text-anchor="middle" x="104" y="-134" font-family="Times,serif" font-size="10.00" fill="red">(latest: 1.4.1)</text>
</g>
<!-- roo_transceivers&#45;&gt;roo_prefs -->
<g id="edge31" class="edge">
<title>roo_transceivers&#45;&gt;roo_prefs</title>
<path fill="none" stroke="black" d="M420.18,-629.96C423,-621.71 426.41,-611.75 429.55,-602.6"/>
<polygon fill="black" stroke="black" points="432.88,-603.68 432.8,-593.09 426.25,-601.42 432.88,-603.68"/>
</g>
<!-- roo_transport -->
<g id="node25" class="node">
<title>roo_transport</title>
<polygon fill="khaki" stroke="red" points="515.5,-497 426.5,-497 426.5,-459 515.5,-459 515.5,-497"/>
<text text-anchor="middle" x="471" y="-481.8" font-family="Times,serif" font-size="14.00">roo_transport</text>
<text text-anchor="middle" x="471" y="-466.8" font-family="Times,serif" font-size="14.00">1.1.0</text>
</g>
<!-- roo_transport&#45;&gt;roo_collections -->
<g id="edge32" class="edge">
<title>roo_transport&#45;&gt;roo_collections</title>
<path fill="none" stroke="red" d="M494.9,-458.85C500.74,-453.58 506.57,-447.48 511,-441 517.25,-431.87 522.03,-420.72 525.51,-410.65"/>
<polygon fill="red" stroke="red" points="528.86,-411.64 528.56,-401.05 522.19,-409.52 528.86,-411.64"/>
<text text-anchor="middle" x="548" y="-433" font-family="Times,serif" font-size="10.00" fill="red">1.4.0</text>
<text text-anchor="middle" x="548" y="-422" font-family="Times,serif" font-size="10.00" fill="red">(latest: 1.4.1)</text>
</g>
<!-- roo_transport&#45;&gt;roo_io -->
<g id="edge33" class="edge">
<title>roo_transport&#45;&gt;roo_io</title>
<path fill="none" stroke="black" d="M431.57,-458.96C424.17,-454.05 417.16,-448.08 412,-441 405.75,-432.43 402.26,-421.43 400.32,-411.32"/>
<polygon fill="black" stroke="black" points="403.76,-410.62 398.81,-401.25 396.83,-411.65 403.76,-410.62"/>
</g>
<!-- roo_wifi -->
<g id="node26" class="node">
<title>roo_wifi</title>
<polygon fill="#b1dbab" stroke="red" points="548.5,-668 485.5,-668 485.5,-630 548.5,-630 548.5,-668"/>
<text text-anchor="middle" x="517" y="-652.8" font-family="Times,serif" font-size="14.00">roo_wifi</text>
<text text-anchor="middle" x="517" y="-637.8" font-family="Times,serif" font-size="14.00">1.1.3</text>
</g>
<!-- roo_wifi&#45;&gt;roo_prefs -->
<g id="edge34" class="edge">
<title>roo_wifi&#45;&gt;roo_prefs</title>
<path fill="none" stroke="black" d="M497.72,-629.96C488.06,-620.92 476.22,-609.83 465.7,-599.99"/>
<polygon fill="black" stroke="black" points="468.02,-597.37 458.33,-593.09 463.24,-602.48 468.02,-597.37"/>
</g>
<!-- roo_windows&#45;&gt;roo_icons -->
<g id="edge36" class="edge">
<title>roo_windows&#45;&gt;roo_icons</title>
<path fill="none" stroke="black" d="M617.51,-629.96C617.28,-621.88 617.02,-612.18 616.77,-603.18"/>
<polygon fill="black" stroke="black" points="620.27,-602.99 616.5,-593.09 613.27,-603.18 620.27,-602.99"/>
</g>
<!-- roo_windows&#45;&gt;roo_locale -->
<g id="edge35" class="edge">
<title>roo_windows&#45;&gt;roo_locale</title>
<path fill="none" stroke="black" d="M639.75,-629.96C650.75,-620.83 664.27,-609.62 676.22,-599.7"/>
<polygon fill="black" stroke="black" points="678.73,-602.17 684.19,-593.09 674.26,-596.78 678.73,-602.17"/>
</g>
<!-- roo_windows&#45;&gt;roo_scheduler -->
<g id="edge37" class="edge">
<title>roo_windows&#45;&gt;roo_scheduler</title>
<path fill="none" stroke="red" d="M578.77,-629.99C559.58,-620.31 536.66,-607.41 518,-593 499.59,-578.78 499.61,-570.2 482,-555 458.57,-534.78 453.23,-527.68 425,-515 394.91,-501.48 359.09,-492.68 329.78,-487.17"/>
<polygon fill="red" stroke="red" points="330.17,-483.68 319.71,-485.35 328.93,-490.57 330.17,-483.68"/>
<text text-anchor="middle" x="545" y="-577" font-family="Times,serif" font-size="10.00" fill="red">2.1.6</text>
<text text-anchor="middle" x="545" y="-566" font-family="Times,serif" font-size="10.00" fill="red">(latest: 2.1.7)</text>
</g>
<!-- roo_windows_transceivers -->
<g id="node28" class="node">
<title>roo_windows_transceivers</title>
<polygon fill="khaki" stroke="red" points="494.5,-764 333.5,-764 333.5,-726 494.5,-726 494.5,-764"/>
<text text-anchor="middle" x="414" y="-748.8" font-family="Times,serif" font-size="14.00">roo_windows_transceivers</text>
<text text-anchor="middle" x="414" y="-733.8" font-family="Times,serif" font-size="14.00">1.0.0</text>
</g>
<!-- roo_windows_transceivers&#45;&gt;roo_transceivers -->
<g id="edge38" class="edge">
<title>roo_windows_transceivers&#45;&gt;roo_transceivers</title>
<path fill="none" stroke="red" d="M414,-725.88C414,-712.35 414,-693.62 414,-678.15"/>
<polygon fill="red" stroke="red" points="417.5,-678.07 414,-668.07 410.5,-678.07 417.5,-678.07"/>
<text text-anchor="middle" x="441" y="-700" font-family="Times,serif" font-size="10.00" fill="red">1.1.3</text>
<text text-anchor="middle" x="441" y="-689" font-family="Times,serif" font-size="10.00" fill="red">(latest: 1.1.4)</text>
</g>
<!-- roo_windows_transceivers&#45;&gt;roo_windows -->
<g id="edge39" class="edge">
<title>roo_windows_transceivers&#45;&gt;roo_windows</title>
<path fill="none" stroke="red" d="M453.33,-725.88C486.49,-710.6 534.08,-688.67 569.58,-672.31"/>
<polygon fill="red" stroke="red" points="571.17,-675.43 578.79,-668.07 568.24,-669.07 571.17,-675.43"/>
<text text-anchor="middle" x="561" y="-700" font-family="Times,serif" font-size="10.00" fill="red">1.4.1</text>
<text text-anchor="middle" x="561" y="-689" font-family="Times,serif" font-size="10.00" fill="red">(latest: 1.4.2)</text>
</g>
<!-- roo_windows_wifi -->
<g id="node29" class="node">
<title>roo_windows_wifi</title>
<polygon fill="plum" stroke="red" points="631.5,-764 512.5,-764 512.5,-726 631.5,-726 631.5,-764"/>
<text text-anchor="middle" x="572" y="-748.8" font-family="Times,serif" font-size="14.00">roo_windows_wifi</text>
<text text-anchor="middle" x="572" y="-733.8" font-family="Times,serif" font-size="14.00">1.1.3</text>
</g>
<!-- roo_windows_wifi&#45;&gt;roo_wifi -->
<g id="edge40" class="edge">
<title>roo_windows_wifi&#45;&gt;roo_wifi</title>
<path fill="none" stroke="black" d="M546.49,-725.93C540.67,-720.73 535.02,-714.65 531,-708 525.55,-698.99 522.22,-687.98 520.19,-677.99"/>
<polygon fill="black" stroke="black" points="523.63,-677.35 518.51,-668.07 516.73,-678.52 523.63,-677.35"/>
</g>
<!-- roo_windows_wifi&#45;&gt;roo_windows -->
<g id="edge41" class="edge">
<title>roo_windows_wifi&#45;&gt;roo_windows</title>
<path fill="none" stroke="black" d="M592.21,-725.63C597.02,-720.36 601.7,-714.31 605,-708 609.77,-698.86 612.8,-688.03 614.71,-678.21"/>
<polygon fill="black" stroke="black" points="618.21,-678.52 616.39,-668.08 611.3,-677.38 618.21,-678.52"/>
</g>
</g>
</svg>
