<?xml version="1.0" encoding="UTF-8" standalone="no"?>
<!DOCTYPE svg PUBLIC "-//W3C//DTD SVG 1.1//EN"
 "http://www.w3.org/Graphics/SVG/1.1/DTD/svg11.dtd">
<!-- Generated by graphviz version 2.42.4 (0)
 -->
<!-- Title: dependencies Pages: 1 -->
<svg width="1437pt" height="709pt"
 viewBox="0.00 0.00 1437.15 709.00" xmlns="http://www.w3.org/2000/svg" xmlns:xlink="http://www.w3.org/1999/xlink">
<g id="graph0" class="graph" transform="scale(1 1) rotate(0) translate(4 705)">
<title>dependencies</title>
<polygon fill="white" stroke="transparent" points="-4,4 -4,-705 1433.15,-705 1433.15,4 -4,4"/>
<!-- roo_backport -->
<g id="node1" class="node">
<title>roo_backport</title>
<polygon fill="#b1dbab" stroke="black" points="738.15,-263 649.15,-263 649.15,-225 738.15,-225 738.15,-263"/>
<text text-anchor="middle" x="693.65" y="-247.8" font-family="Times,serif" font-size="14.00">roo_backport</text>
<text text-anchor="middle" x="693.65" y="-232.8" font-family="Times,serif" font-size="14.00">1.1.1</text>
</g>
<!-- roo_blink -->
<g id="node2" class="node">
<title>roo_blink</title>
<polygon fill="#b1dbab" stroke="black" points="299.15,-530 230.15,-530 230.15,-492 299.15,-492 299.15,-530"/>
<text text-anchor="middle" x="264.65" y="-514.8" font-family="Times,serif" font-size="14.00">roo_blink</text>
<text text-anchor="middle" x="264.65" y="-499.8" font-family="Times,serif" font-size="14.00">1.0.1</text>
</g>
<!-- roo_logging -->
<g id="node14" class="node">
<title>roo_logging</title>
<polygon fill="#b1dbab" stroke="black" points="402.15,-263 319.15,-263 319.15,-225 402.15,-225 402.15,-263"/>
<text text-anchor="middle" x="360.65" y="-247.8" font-family="Times,serif" font-size="14.00">roo_logging</text>
<text text-anchor="middle" x="360.65" y="-232.8" font-family="Times,serif" font-size="14.00">1.4.2</text>
</g>
<!-- roo_blink&#45;&gt;roo_logging -->
<g id="edge1" class="edge">
<title>roo_blink&#45;&gt;roo_logging</title>
<path fill="none" stroke="black" d="M249.22,-491.79C232.1,-469.24 208.5,-429.7 221.65,-396 242.6,-342.3 292.59,-296.16 326.54,-269.48"/>
<polygon fill="black" stroke="black" points="329.01,-271.99 334.8,-263.12 324.74,-266.45 329.01,-271.99"/>
</g>
<!-- roo_scheduler -->
<g id="node20" class="node">
<title>roo_scheduler</title>
<polygon fill="#b1dbab" stroke="black" points="324.15,-434 231.15,-434 231.15,-396 324.15,-396 324.15,-434"/>
<text text-anchor="middle" x="277.65" y="-418.8" font-family="Times,serif" font-size="14.00">roo_scheduler</text>
<text text-anchor="middle" x="277.65" y="-403.8" font-family="Times,serif" font-size="14.00">2.1.4</text>
</g>
<!-- roo_blink&#45;&gt;roo_scheduler -->
<g id="edge2" class="edge">
<title>roo_blink&#45;&gt;roo_scheduler</title>
<path fill="none" stroke="black" d="M267.15,-491.88C269.02,-478.35 271.61,-459.62 273.75,-444.15"/>
<polygon fill="black" stroke="black" points="277.24,-444.45 275.15,-434.07 270.31,-443.49 277.24,-444.45"/>
</g>
<!-- roo_collections -->
<g id="node3" class="node">
<title>roo_collections</title>
<polygon fill="#b1dbab" stroke="black" points="743.65,-359 643.65,-359 643.65,-321 743.65,-321 743.65,-359"/>
<text text-anchor="middle" x="693.65" y="-343.8" font-family="Times,serif" font-size="14.00">roo_collections</text>
<text text-anchor="middle" x="693.65" y="-328.8" font-family="Times,serif" font-size="14.00">1.3.2</text>
</g>
<!-- roo_collections&#45;&gt;roo_backport -->
<g id="edge3" class="edge">
<title>roo_collections&#45;&gt;roo_backport</title>
<path fill="none" stroke="black" d="M693.65,-320.88C693.65,-307.35 693.65,-288.62 693.65,-273.15"/>
<polygon fill="black" stroke="black" points="697.15,-273.07 693.65,-263.07 690.15,-273.07 697.15,-273.07"/>
</g>
<!-- roo_comms -->
<g id="node4" class="node">
<title>roo_comms</title>
<polygon fill="#b1dbab" stroke="black" points="243.65,-701 161.65,-701 161.65,-663 243.65,-663 243.65,-701"/>
<text text-anchor="middle" x="202.65" y="-685.8" font-family="Times,serif" font-size="14.00">roo_comms</text>
<text text-anchor="middle" x="202.65" y="-670.8" font-family="Times,serif" font-size="14.00">1.1.1</text>
</g>
<!-- roo_comms&#45;&gt;roo_blink -->
<g id="edge4" class="edge">
<title>roo_comms&#45;&gt;roo_blink</title>
<path fill="none" stroke="black" d="M209.28,-662.91C220.11,-633.39 241.67,-574.63 254.45,-539.78"/>
<polygon fill="black" stroke="black" points="257.81,-540.81 257.97,-530.21 251.24,-538.39 257.81,-540.81"/>
</g>
<!-- roo_control -->
<g id="node5" class="node">
<title>roo_control</title>
<polygon fill="#b1dbab" stroke="black" points="108.65,-530 28.65,-530 28.65,-492 108.65,-492 108.65,-530"/>
<text text-anchor="middle" x="68.65" y="-514.8" font-family="Times,serif" font-size="14.00">roo_control</text>
<text text-anchor="middle" x="68.65" y="-499.8" font-family="Times,serif" font-size="14.00">1.2.1</text>
</g>
<!-- roo_comms&#45;&gt;roo_control -->
<g id="edge5" class="edge">
<title>roo_comms&#45;&gt;roo_control</title>
<path fill="none" stroke="black" d="M188.31,-662.91C164.59,-633.01 117.1,-573.11 89.62,-538.45"/>
<polygon fill="black" stroke="black" points="92.04,-535.87 83.09,-530.21 86.56,-540.22 92.04,-535.87"/>
</g>
<!-- roo_io -->
<g id="node10" class="node">
<title>roo_io</title>
<polygon fill="#b1dbab" stroke="black" points="617.65,-359 563.65,-359 563.65,-321 617.65,-321 617.65,-359"/>
<text text-anchor="middle" x="590.65" y="-343.8" font-family="Times,serif" font-size="14.00">roo_io</text>
<text text-anchor="middle" x="590.65" y="-328.8" font-family="Times,serif" font-size="14.00">2.0.2</text>
</g>
<!-- roo_comms&#45;&gt;roo_io -->
<g id="edge6" class="edge">
<title>roo_comms&#45;&gt;roo_io</title>
<path fill="none" stroke="black" d="M243.91,-674.68C295.42,-665.43 384.87,-644.8 451.65,-605 452.92,-604.24 527.04,-531.35 527.65,-530 552.08,-475.6 514.56,-452.15 534.65,-396 538.81,-384.37 547.04,-374.08 555.94,-365.65"/>
<polygon fill="black" stroke="black" points="558.3,-368.23 563.5,-359 553.68,-362.97 558.3,-368.23"/>
</g>
<!-- roo_transceivers -->
<g id="node25" class="node">
<title>roo_transceivers</title>
<polygon fill="#b1dbab" stroke="black" points="442.65,-605 336.65,-605 336.65,-567 442.65,-567 442.65,-605"/>
<text text-anchor="middle" x="389.65" y="-589.8" font-family="Times,serif" font-size="14.00">roo_transceivers</text>
<text text-anchor="middle" x="389.65" y="-574.8" font-family="Times,serif" font-size="14.00">1.1.2</text>
</g>
<!-- roo_comms&#45;&gt;roo_transceivers -->
<g id="edge7" class="edge">
<title>roo_comms&#45;&gt;roo_transceivers</title>
<path fill="none" stroke="black" d="M238.7,-662.88C268.84,-647.73 311.98,-626.04 344.43,-609.73"/>
<polygon fill="black" stroke="black" points="346.34,-612.69 353.7,-605.07 343.2,-606.43 346.34,-612.69"/>
</g>
<!-- roo_quantity -->
<g id="node19" class="node">
<title>roo_quantity</title>
<polygon fill="#b1dbab" stroke="black" points="170.65,-434 84.65,-434 84.65,-396 170.65,-396 170.65,-434"/>
<text text-anchor="middle" x="127.65" y="-418.8" font-family="Times,serif" font-size="14.00">roo_quantity</text>
<text text-anchor="middle" x="127.65" y="-403.8" font-family="Times,serif" font-size="14.00">1.1.2</text>
</g>
<!-- roo_control&#45;&gt;roo_quantity -->
<g id="edge8" class="edge">
<title>roo_control&#45;&gt;roo_quantity</title>
<path fill="none" stroke="black" d="M80.02,-491.88C88.76,-477.96 100.95,-458.53 110.81,-442.82"/>
<polygon fill="black" stroke="black" points="113.95,-444.4 116.31,-434.07 108.03,-440.68 113.95,-444.4"/>
</g>
<!-- roo_control&#45;&gt;roo_scheduler -->
<g id="edge9" class="edge">
<title>roo_control&#45;&gt;roo_scheduler</title>
<path fill="none" stroke="black" d="M108.94,-491.88C142.92,-476.6 191.67,-454.67 228.04,-438.31"/>
<polygon fill="black" stroke="black" points="229.79,-441.36 237.47,-434.07 226.92,-434.98 229.79,-441.36"/>
</g>
<!-- roo_dashboard -->
<g id="node6" class="node">
<title>roo_dashboard</title>
<polygon fill="khaki" stroke="black" points="593.15,-701 496.15,-701 496.15,-663 593.15,-663 593.15,-701"/>
<text text-anchor="middle" x="544.65" y="-685.8" font-family="Times,serif" font-size="14.00">roo_dashboard</text>
<text text-anchor="middle" x="544.65" y="-670.8" font-family="Times,serif" font-size="14.00">1.0.0</text>
</g>
<!-- roo_testing -->
<g id="node21" class="node">
<title>roo_testing</title>
<polygon fill="#b1dbab" stroke="black" points="1005.15,-38 928.15,-38 928.15,0 1005.15,0 1005.15,-38"/>
<text text-anchor="middle" x="966.65" y="-22.8" font-family="Times,serif" font-size="14.00">roo_testing</text>
<text text-anchor="middle" x="966.65" y="-7.8" font-family="Times,serif" font-size="14.00">1.1.7</text>
</g>
<!-- roo_dashboard&#45;&gt;roo_testing -->
<g id="edge10" class="edge">
<title>roo_dashboard&#45;&gt;roo_testing</title>
<path fill="none" stroke="red" d="M496.07,-681.7C393.27,-680.44 152.28,-662.6 19.65,-530 -1.94,-508.42 0.65,-494.52 0.65,-464 0.65,-464 0.65,-464 0.65,-93 0.65,-46.5 721.66,-25.86 917.86,-21.1"/>
<polygon fill="red" stroke="red" points="917.97,-24.6 927.88,-20.86 917.8,-17.6 917.97,-24.6"/>
<text text-anchor="middle" x="27.65" y="-343" font-family="Times,serif" font-size="10.00" fill="red">1.1.4</text>
<text text-anchor="middle" x="27.65" y="-332" font-family="Times,serif" font-size="10.00" fill="red">(latest: 1.1.7)</text>
</g>
<!-- roo_windows -->
<g id="node28" class="node">
<title>roo_windows</title>
<polygon fill="khaki" stroke="black" points="762.65,-605 672.65,-605 672.65,-567 762.65,-567 762.65,-605"/>
<text text-anchor="middle" x="717.65" y="-589.8" font-family="Times,serif" font-size="14.00">roo_windows</text>
<text text-anchor="middle" x="717.65" y="-574.8" font-family="Times,serif" font-size="14.00">1.4.0</text>
</g>
<!-- roo_dashboard&#45;&gt;roo_windows -->
<g id="edge11" class="edge">
<title>roo_dashboard&#45;&gt;roo_windows</title>
<path fill="none" stroke="black" d="M593.41,-675.56C619.62,-670.77 651.42,-661.8 675.65,-645 687.18,-637.01 696.7,-624.79 703.75,-613.63"/>
<polygon fill="black" stroke="black" points="706.77,-615.39 708.86,-605.01 700.75,-611.82 706.77,-615.39"/>
</g>
<!-- roo_display -->
<g id="node7" class="node">
<title>roo_display</title>
<polygon fill="#b1dbab" stroke="black" points="630.65,-434 550.65,-434 550.65,-396 630.65,-396 630.65,-434"/>
<text text-anchor="middle" x="590.65" y="-418.8" font-family="Times,serif" font-size="14.00">roo_display</text>
<text text-anchor="middle" x="590.65" y="-403.8" font-family="Times,serif" font-size="14.00">2.3.1</text>
</g>
<!-- roo_display&#45;&gt;roo_collections -->
<g id="edge12" class="edge">
<title>roo_display&#45;&gt;roo_collections</title>
<path fill="none" stroke="black" d="M616.11,-395.96C629.23,-386.65 645.41,-375.18 659.6,-365.13"/>
<polygon fill="black" stroke="black" points="661.99,-367.73 668.12,-359.09 657.94,-362.02 661.99,-367.73"/>
</g>
<!-- roo_display&#45;&gt;roo_io -->
<g id="edge13" class="edge">
<title>roo_display&#45;&gt;roo_io</title>
<path fill="none" stroke="black" d="M590.65,-395.96C590.65,-387.88 590.65,-378.18 590.65,-369.18"/>
<polygon fill="black" stroke="black" points="594.15,-369.09 590.65,-359.09 587.15,-369.09 594.15,-369.09"/>
</g>
<!-- roo_flags -->
<g id="node8" class="node">
<title>roo_flags</title>
<polygon fill="#b1dbab" stroke="black" points="391.65,-188 323.65,-188 323.65,-150 391.65,-150 391.65,-188"/>
<text text-anchor="middle" x="357.65" y="-172.8" font-family="Times,serif" font-size="14.00">roo_flags</text>
<text text-anchor="middle" x="357.65" y="-157.8" font-family="Times,serif" font-size="14.00">1.1.1</text>
</g>
<!-- roo_icons -->
<g id="node9" class="node">
<title>roo_icons</title>
<polygon fill="khaki" stroke="black" points="859.65,-530 789.65,-530 789.65,-492 859.65,-492 859.65,-530"/>
<text text-anchor="middle" x="824.65" y="-514.8" font-family="Times,serif" font-size="14.00">roo_icons</text>
<text text-anchor="middle" x="824.65" y="-499.8" font-family="Times,serif" font-size="14.00">1.2.0</text>
</g>
<!-- roo_icons&#45;&gt;roo_display -->
<g id="edge15" class="edge">
<title>roo_icons&#45;&gt;roo_display</title>
<path fill="none" stroke="red" d="M801.07,-491.92C783,-478.93 756.95,-462 731.65,-452 693.31,-436.84 680.38,-445.01 640.65,-434 640.55,-433.97 640.45,-433.94 640.35,-433.92"/>
<polygon fill="red" stroke="red" points="641.45,-430.59 630.87,-431.07 639.44,-437.3 641.45,-430.59"/>
<text text-anchor="middle" x="800.65" y="-466" font-family="Times,serif" font-size="10.00" fill="red">2.2.2</text>
<text text-anchor="middle" x="800.65" y="-455" font-family="Times,serif" font-size="10.00" fill="red">(latest: 2.3.1)</text>
</g>
<!-- roo_icons&#45;&gt;roo_testing -->
<g id="edge14" class="edge">
<title>roo_icons&#45;&gt;roo_testing</title>
<path fill="none" stroke="red" d="M845.64,-491.73C863.28,-474.25 885.65,-446.15 885.65,-416 885.65,-416 885.65,-416 885.65,-291 885.65,-198.43 929.57,-95.24 952.73,-47.27"/>
<polygon fill="red" stroke="red" points="955.93,-48.68 957.2,-38.16 949.65,-45.6 955.93,-48.68"/>
<text text-anchor="middle" x="918.65" y="-247" font-family="Times,serif" font-size="10.00" fill="red">1.1.4</text>
<text text-anchor="middle" x="918.65" y="-236" font-family="Times,serif" font-size="10.00" fill="red">(latest: 1.1.7)</text>
</g>
<!-- roo_io&#45;&gt;roo_backport -->
<g id="edge16" class="edge">
<title>roo_io&#45;&gt;roo_backport</title>
<path fill="none" stroke="black" d="M610.51,-320.88C626.32,-306.44 648.64,-286.07 666.17,-270.07"/>
<polygon fill="black" stroke="black" points="668.82,-272.39 673.85,-263.07 664.1,-267.22 668.82,-272.39"/>
</g>
<!-- roo_io&#45;&gt;roo_logging -->
<g id="edge17" class="edge">
<title>roo_io&#45;&gt;roo_logging</title>
<path fill="none" stroke="black" d="M563.51,-326.19C537.38,-314.02 496.64,-295.49 460.65,-281 444.91,-274.67 427.58,-268.24 411.84,-262.6"/>
<polygon fill="black" stroke="black" points="412.86,-259.25 402.26,-259.21 410.51,-265.85 412.86,-259.25"/>
</g>
<!-- roo_io_espressif -->
<g id="node11" class="node">
<title>roo_io_espressif</title>
<polygon fill="plum" stroke="black" points="1325.65,-701 1219.65,-701 1219.65,-663 1325.65,-663 1325.65,-701"/>
<text text-anchor="middle" x="1272.65" y="-685.8" font-family="Times,serif" font-size="14.00">roo_io_espressif</text>
<text text-anchor="middle" x="1272.65" y="-670.8" font-family="Times,serif" font-size="14.00">1.0.0</text>
</g>
<!-- roo_io_sdfat -->
<g id="node12" class="node">
<title>roo_io_sdfat</title>
<polygon fill="plum" stroke="black" points="1429.15,-701 1344.15,-701 1344.15,-663 1429.15,-663 1429.15,-701"/>
<text text-anchor="middle" x="1386.65" y="-685.8" font-family="Times,serif" font-size="14.00">roo_io_sdfat</text>
<text text-anchor="middle" x="1386.65" y="-670.8" font-family="Times,serif" font-size="14.00">1.0.0</text>
</g>
<!-- roo_locale -->
<g id="node13" class="node">
<title>roo_locale</title>
<polygon fill="khaki" stroke="black" points="681.65,-530 607.65,-530 607.65,-492 681.65,-492 681.65,-530"/>
<text text-anchor="middle" x="644.65" y="-514.8" font-family="Times,serif" font-size="14.00">roo_locale</text>
<text text-anchor="middle" x="644.65" y="-499.8" font-family="Times,serif" font-size="14.00">1.1.0</text>
</g>
<!-- roo_logging&#45;&gt;roo_flags -->
<g id="edge18" class="edge">
<title>roo_logging&#45;&gt;roo_flags</title>
<path fill="none" stroke="black" d="M359.91,-224.96C359.57,-216.88 359.17,-207.18 358.8,-198.18"/>
<polygon fill="black" stroke="black" points="362.3,-197.94 358.39,-188.09 355.3,-198.23 362.3,-197.94"/>
</g>
<!-- roo_threads -->
<g id="node22" class="node">
<title>roo_threads</title>
<polygon fill="#b1dbab" stroke="black" points="619.65,-188 539.65,-188 539.65,-150 619.65,-150 619.65,-188"/>
<text text-anchor="middle" x="579.65" y="-172.8" font-family="Times,serif" font-size="14.00">roo_threads</text>
<text text-anchor="middle" x="579.65" y="-157.8" font-family="Times,serif" font-size="14.00">1.1.5</text>
</g>
<!-- roo_logging&#45;&gt;roo_threads -->
<g id="edge19" class="edge">
<title>roo_logging&#45;&gt;roo_threads</title>
<path fill="none" stroke="black" d="M402.37,-230C434.79,-219.79 481.08,-204.97 530.08,-188.14"/>
<polygon fill="black" stroke="black" points="531.27,-191.43 539.58,-184.86 528.99,-184.81 531.27,-191.43"/>
</g>
<!-- roo_monitoring -->
<g id="node15" class="node">
<title>roo_monitoring</title>
<polygon fill="plum" stroke="black" points="857.65,-434 755.65,-434 755.65,-396 857.65,-396 857.65,-434"/>
<text text-anchor="middle" x="806.65" y="-418.8" font-family="Times,serif" font-size="14.00">roo_monitoring</text>
<text text-anchor="middle" x="806.65" y="-403.8" font-family="Times,serif" font-size="14.00">1.0.0</text>
</g>
<!-- roo_monitoring&#45;&gt;roo_collections -->
<g id="edge20" class="edge">
<title>roo_monitoring&#45;&gt;roo_collections</title>
<path fill="none" stroke="black" d="M778.71,-395.96C764.05,-386.48 745.89,-374.75 730.13,-364.57"/>
<polygon fill="black" stroke="black" points="731.95,-361.58 721.65,-359.09 728.15,-367.46 731.95,-361.58"/>
</g>
<!-- roo_monitoring&#45;&gt;roo_io -->
<g id="edge21" class="edge">
<title>roo_monitoring&#45;&gt;roo_io</title>
<path fill="none" stroke="black" d="M755.64,-398.18C713.48,-385.01 657.04,-367.15 634.65,-359 632.27,-358.14 629.83,-357.22 627.39,-356.28"/>
<polygon fill="black" stroke="black" points="628.57,-352.98 617.98,-352.57 626,-359.49 628.57,-352.98"/>
</g>
<!-- roo_onewire -->
<g id="node16" class="node">
<title>roo_onewire</title>
<polygon fill="#b1dbab" stroke="black" points="212.15,-530 127.15,-530 127.15,-492 212.15,-492 212.15,-530"/>
<text text-anchor="middle" x="169.65" y="-514.8" font-family="Times,serif" font-size="14.00">roo_onewire</text>
<text text-anchor="middle" x="169.65" y="-499.8" font-family="Times,serif" font-size="14.00">2.0.4</text>
</g>
<!-- roo_onewire&#45;&gt;roo_quantity -->
<g id="edge23" class="edge">
<title>roo_onewire&#45;&gt;roo_quantity</title>
<path fill="none" stroke="black" d="M161.55,-491.88C155.39,-478.09 146.81,-458.9 139.83,-443.26"/>
<polygon fill="black" stroke="black" points="142.99,-441.77 135.72,-434.07 136.6,-444.63 142.99,-441.77"/>
</g>
<!-- roo_onewire&#45;&gt;roo_scheduler -->
<g id="edge22" class="edge">
<title>roo_onewire&#45;&gt;roo_scheduler</title>
<path fill="none" stroke="black" d="M190.47,-491.88C207.2,-477.31 230.88,-456.71 249.33,-440.64"/>
<polygon fill="black" stroke="black" points="251.64,-443.27 256.89,-434.07 247.05,-437.99 251.64,-443.27"/>
</g>
<!-- roo_powersafefs -->
<g id="node17" class="node">
<title>roo_powersafefs</title>
<polygon fill="plum" stroke="black" points="631.15,-263 524.15,-263 524.15,-225 631.15,-225 631.15,-263"/>
<text text-anchor="middle" x="577.65" y="-247.8" font-family="Times,serif" font-size="14.00">roo_powersafefs</text>
<text text-anchor="middle" x="577.65" y="-232.8" font-family="Times,serif" font-size="14.00">1.0.0</text>
</g>
<!-- roo_powersafefs&#45;&gt;roo_threads -->
<g id="edge24" class="edge">
<title>roo_powersafefs&#45;&gt;roo_threads</title>
<path fill="none" stroke="black" d="M578.14,-224.96C578.36,-216.88 578.63,-207.18 578.87,-198.18"/>
<polygon fill="black" stroke="black" points="582.38,-198.18 579.15,-188.09 575.38,-197.99 582.38,-198.18"/>
</g>
<!-- roo_prefs -->
<g id="node18" class="node">
<title>roo_prefs</title>
<polygon fill="#b1dbab" stroke="black" points="423.65,-530 355.65,-530 355.65,-492 423.65,-492 423.65,-530"/>
<text text-anchor="middle" x="389.65" y="-514.8" font-family="Times,serif" font-size="14.00">roo_prefs</text>
<text text-anchor="middle" x="389.65" y="-499.8" font-family="Times,serif" font-size="14.00">1.2.2</text>
</g>
<!-- roo_prefs&#45;&gt;roo_logging -->
<g id="edge25" class="edge">
<title>roo_prefs&#45;&gt;roo_logging</title>
<path fill="none" stroke="black" d="M398.75,-491.81C405.76,-476.74 414.86,-454.55 418.65,-434 421.71,-417.39 421.72,-412.61 418.65,-396 410.35,-351.09 389.19,-302.31 374.86,-272.69"/>
<polygon fill="black" stroke="black" points="377.85,-270.84 370.29,-263.42 371.57,-273.93 377.85,-270.84"/>
</g>
<!-- roo_prefs&#45;&gt;roo_scheduler -->
<g id="edge26" class="edge">
<title>roo_prefs&#45;&gt;roo_scheduler</title>
<path fill="none" stroke="black" d="M368.05,-491.88C350.7,-477.31 326.15,-456.71 307.01,-440.64"/>
<polygon fill="black" stroke="black" points="309.08,-437.82 299.18,-434.07 304.58,-443.18 309.08,-437.82"/>
</g>
<!-- roo_quantity&#45;&gt;roo_logging -->
<g id="edge27" class="edge">
<title>roo_quantity&#45;&gt;roo_logging</title>
<path fill="none" stroke="black" d="M138.65,-395.63C156.76,-366.94 195.57,-311.64 242.65,-281 262.57,-268.03 287.4,-259.54 309.14,-254.08"/>
<polygon fill="black" stroke="black" points="309.95,-257.49 318.88,-251.78 308.34,-250.67 309.95,-257.49"/>
</g>
<!-- roo_scheduler&#45;&gt;roo_collections -->
<g id="edge28" class="edge">
<title>roo_scheduler&#45;&gt;roo_collections</title>
<path fill="none" stroke="black" d="M324.41,-399.38C329.19,-398.13 334,-396.98 338.65,-396 464.93,-369.43 500.04,-384.02 626.65,-359 628.85,-358.56 631.1,-358.1 633.36,-357.6"/>
<polygon fill="black" stroke="black" points="634.38,-360.96 643.33,-355.3 632.8,-354.14 634.38,-360.96"/>
</g>
<!-- roo_scheduler&#45;&gt;roo_threads -->
<g id="edge29" class="edge">
<title>roo_scheduler&#45;&gt;roo_threads</title>
<path fill="none" stroke="black" d="M274.57,-395.89C269.31,-358.27 263.25,-271.32 309.65,-225 377.86,-156.91 430.86,-209.84 529.46,-187.89"/>
<polygon fill="black" stroke="black" points="530.58,-191.21 539.46,-185.44 528.91,-184.42 530.58,-191.21"/>
</g>
<!-- roo_time -->
<g id="node23" class="node">
<title>roo_time</title>
<polygon fill="#b1dbab" stroke="black" points="826.65,-113 760.65,-113 760.65,-75 826.65,-75 826.65,-113"/>
<text text-anchor="middle" x="793.65" y="-97.8" font-family="Times,serif" font-size="14.00">roo_time</text>
<text text-anchor="middle" x="793.65" y="-82.8" font-family="Times,serif" font-size="14.00">1.3.2</text>
</g>
<!-- roo_threads&#45;&gt;roo_time -->
<g id="edge30" class="edge">
<title>roo_threads&#45;&gt;roo_time</title>
<path fill="none" stroke="black" d="M619.65,-154.35C656.96,-141.63 712.46,-122.69 750.7,-109.65"/>
<polygon fill="black" stroke="black" points="752.18,-112.84 760.51,-106.3 749.92,-106.22 752.18,-112.84"/>
</g>
<!-- roo_time&#45;&gt;roo_testing -->
<g id="edge31" class="edge">
<title>roo_time&#45;&gt;roo_testing</title>
<path fill="none" stroke="black" d="M827,-78.92C852.94,-67.98 889.28,-52.65 918.39,-40.36"/>
<polygon fill="black" stroke="black" points="920.1,-43.44 927.96,-36.33 917.38,-36.99 920.1,-43.44"/>
</g>
<!-- roo_time_ds3231 -->
<g id="node24" class="node">
<title>roo_time_ds3231</title>
<polygon fill="#b1dbab" stroke="black" points="521.65,-188 409.65,-188 409.65,-150 521.65,-150 521.65,-188"/>
<text text-anchor="middle" x="465.65" y="-172.8" font-family="Times,serif" font-size="14.00">roo_time_ds3231</text>
<text text-anchor="middle" x="465.65" y="-157.8" font-family="Times,serif" font-size="14.00">1.1.2</text>
</g>
<!-- roo_time_ds3231&#45;&gt;roo_time -->
<g id="edge32" class="edge">
<title>roo_time_ds3231&#45;&gt;roo_time</title>
<path fill="none" stroke="black" d="M521.96,-152.17C524.89,-151.42 527.8,-150.69 530.65,-150 607.57,-131.33 698.07,-113.24 750.35,-103.17"/>
<polygon fill="black" stroke="black" points="751.12,-106.59 760.28,-101.27 749.8,-99.71 751.12,-106.59"/>
</g>
<!-- roo_transceivers&#45;&gt;roo_prefs -->
<g id="edge33" class="edge">
<title>roo_transceivers&#45;&gt;roo_prefs</title>
<path fill="none" stroke="black" d="M389.65,-566.96C389.65,-558.88 389.65,-549.18 389.65,-540.18"/>
<polygon fill="black" stroke="black" points="393.15,-540.09 389.65,-530.09 386.15,-540.09 393.15,-540.09"/>
</g>
<!-- roo_transport -->
<g id="node26" class="node">
<title>roo_transport</title>
<polygon fill="#b1dbab" stroke="black" points="738.15,-434 649.15,-434 649.15,-396 738.15,-396 738.15,-434"/>
<text text-anchor="middle" x="693.65" y="-418.8" font-family="Times,serif" font-size="14.00">roo_transport</text>
<text text-anchor="middle" x="693.65" y="-403.8" font-family="Times,serif" font-size="14.00">1.0.1</text>
</g>
<!-- roo_transport&#45;&gt;roo_collections -->
<g id="edge34" class="edge">
<title>roo_transport&#45;&gt;roo_collections</title>
<path fill="none" stroke="black" d="M693.65,-395.96C693.65,-387.88 693.65,-378.18 693.65,-369.18"/>
<polygon fill="black" stroke="black" points="697.15,-369.09 693.65,-359.09 690.15,-369.09 697.15,-369.09"/>
</g>
<!-- roo_transport&#45;&gt;roo_io -->
<g id="edge35" class="edge">
<title>roo_transport&#45;&gt;roo_io</title>
<path fill="none" stroke="black" d="M658.76,-395.93C649.36,-390.57 639.38,-384.41 630.65,-378 625.76,-374.42 620.81,-370.31 616.14,-366.16"/>
<polygon fill="black" stroke="black" points="618.34,-363.43 608.61,-359.24 613.6,-368.58 618.34,-363.43"/>
</g>
<!-- roo_wifi -->
<g id="node27" class="node">
<title>roo_wifi</title>
<polygon fill="#b1dbab" stroke="black" points="563.15,-605 500.15,-605 500.15,-567 563.15,-567 563.15,-605"/>
<text text-anchor="middle" x="531.65" y="-589.8" font-family="Times,serif" font-size="14.00">roo_wifi</text>
<text text-anchor="middle" x="531.65" y="-574.8" font-family="Times,serif" font-size="14.00">1.1.1</text>
</g>
<!-- roo_wifi&#45;&gt;roo_prefs -->
<g id="edge36" class="edge">
<title>roo_wifi&#45;&gt;roo_prefs</title>
<path fill="none" stroke="black" d="M500.13,-568.8C480.33,-558.62 454.51,-545.35 432.82,-534.19"/>
<polygon fill="black" stroke="black" points="434.3,-531.02 423.8,-529.56 431.1,-537.24 434.3,-531.02"/>
</g>
<!-- roo_windows&#45;&gt;roo_collections -->
<g id="edge38" class="edge">
<title>roo_windows&#45;&gt;roo_collections</title>
<path fill="none" stroke="red" d="M762.95,-581.95C798.2,-576.92 844.97,-563.83 868.65,-530 882.24,-510.58 897.98,-437.91 866.65,-396 840.75,-361.36 792.9,-348.05 754.08,-343.16"/>
<polygon fill="red" stroke="red" points="754.23,-339.66 743.91,-342.04 753.47,-346.61 754.23,-339.66"/>
<text text-anchor="middle" x="911.65" y="-466" font-family="Times,serif" font-size="10.00" fill="red">1.3.1</text>
<text text-anchor="middle" x="911.65" y="-455" font-family="Times,serif" font-size="10.00" fill="red">(latest: 1.3.2)</text>
</g>
<!-- roo_windows&#45;&gt;roo_display -->
<g id="edge39" class="edge">
<title>roo_windows&#45;&gt;roo_display</title>
<path fill="none" stroke="red" d="M715.79,-566.77C713.03,-546.89 706.35,-514.87 690.65,-492 675.92,-470.55 653.19,-452.58 633.12,-439.51"/>
<polygon fill="red" stroke="red" points="634.75,-436.4 624.42,-434.03 631.02,-442.32 634.75,-436.4"/>
<text text-anchor="middle" x="734.65" y="-514" font-family="Times,serif" font-size="10.00" fill="red">2.2.2</text>
<text text-anchor="middle" x="734.65" y="-503" font-family="Times,serif" font-size="10.00" fill="red">(latest: 2.3.1)</text>
</g>
<!-- roo_windows&#45;&gt;roo_icons -->
<g id="edge42" class="edge">
<title>roo_windows&#45;&gt;roo_icons</title>
<path fill="none" stroke="black" d="M744.1,-566.96C757.86,-557.57 774.86,-545.97 789.69,-535.85"/>
<polygon fill="black" stroke="black" points="791.84,-538.62 798.13,-530.09 787.9,-532.83 791.84,-538.62"/>
</g>
<!-- roo_windows&#45;&gt;roo_io -->
<g id="edge43" class="edge">
<title>roo_windows&#45;&gt;roo_io</title>
<path fill="none" stroke="red" d="M672.36,-571.4C648.41,-562.51 619.69,-548.98 598.65,-530 561.8,-496.76 554.78,-481.85 541.65,-434 537.18,-417.71 535.64,-411.78 541.65,-396 545.79,-385.11 553.2,-375.01 561.01,-366.51"/>
<polygon fill="red" stroke="red" points="563.7,-368.76 568.22,-359.18 558.71,-363.85 563.7,-368.76"/>
<text text-anchor="middle" x="581.65" y="-466" font-family="Times,serif" font-size="10.00" fill="red">2.0.1</text>
<text text-anchor="middle" x="581.65" y="-455" font-family="Times,serif" font-size="10.00" fill="red">(latest: 2.0.2)</text>
</g>
<!-- roo_windows&#45;&gt;roo_locale -->
<g id="edge40" class="edge">
<title>roo_windows&#45;&gt;roo_locale</title>
<path fill="none" stroke="black" d="M699.6,-566.96C690.65,-558.01 679.69,-547.05 669.92,-537.28"/>
<polygon fill="black" stroke="black" points="672.28,-534.69 662.74,-530.09 667.33,-539.64 672.28,-534.69"/>
</g>
<!-- roo_windows&#45;&gt;roo_logging -->
<g id="edge41" class="edge">
<title>roo_windows&#45;&gt;roo_logging</title>
<path fill="none" stroke="red" d="M672.55,-579.09C574.85,-566.19 351.96,-536.16 346.65,-530 330.14,-510.86 348.85,-341.11 357.12,-273.05"/>
<polygon fill="red" stroke="red" points="360.6,-273.39 358.35,-263.04 353.65,-272.54 360.6,-273.39"/>
<text text-anchor="middle" x="371.65" y="-418" font-family="Times,serif" font-size="10.00" fill="red">1.4.0</text>
<text text-anchor="middle" x="371.65" y="-407" font-family="Times,serif" font-size="10.00" fill="red">(latest: 1.4.2)</text>
</g>
<!-- roo_windows&#45;&gt;roo_scheduler -->
<g id="edge44" class="edge">
<title>roo_windows&#45;&gt;roo_scheduler</title>
<path fill="none" stroke="red" d="M672.42,-575.6C642.02,-568.97 601.17,-559.42 565.65,-549 541.23,-541.84 535.12,-539.81 511.65,-530 502.22,-526.06 389.32,-470.79 323.86,-438.68"/>
<polygon fill="red" stroke="red" points="325.08,-435.38 314.56,-434.12 322,-441.67 325.08,-435.38"/>
<text text-anchor="middle" x="538.65" y="-514" font-family="Times,serif" font-size="10.00" fill="red">2.1.3</text>
<text text-anchor="middle" x="538.65" y="-503" font-family="Times,serif" font-size="10.00" fill="red">(latest: 2.1.4)</text>
</g>
<!-- roo_windows&#45;&gt;roo_testing -->
<g id="edge37" class="edge">
<title>roo_windows&#45;&gt;roo_testing</title>
<path fill="none" stroke="red" d="M762.77,-584.41C853.54,-581.99 1049.65,-570.06 1049.65,-512 1049.65,-512 1049.65,-512 1049.65,-377 1049.65,-351.12 1041.3,-345.73 1033.65,-321 1031.15,-312.94 1029.07,-311.31 1027.65,-303 1023.3,-277.59 1026.65,-270.78 1026.65,-245 1026.65,-245 1026.65,-245 1026.65,-93 1026.65,-74.21 1014.64,-57.62 1001.37,-45.03"/>
<polygon fill="red" stroke="red" points="1003.31,-42.07 993.49,-38.09 998.68,-47.32 1003.31,-42.07"/>
<text text-anchor="middle" x="1054.65" y="-295" font-family="Times,serif" font-size="10.00" fill="red">1.1.4</text>
<text text-anchor="middle" x="1054.65" y="-284" font-family="Times,serif" font-size="10.00" fill="red">(latest: 1.1.7)</text>
</g>
<!-- roo_windows&#45;&gt;roo_time -->
<g id="edge45" class="edge">
<title>roo_windows&#45;&gt;roo_time</title>
<path fill="none" stroke="red" d="M762.84,-579.82C819.88,-570.41 914.03,-544.42 942.65,-474 984.31,-371.47 989.62,-325.67 943.65,-225 921.61,-176.74 871.83,-139.51 835.64,-117.5"/>
<polygon fill="red" stroke="red" points="837.15,-114.32 826.76,-112.23 833.58,-120.34 837.15,-114.32"/>
<text text-anchor="middle" x="1002.65" y="-343" font-family="Times,serif" font-size="10.00" fill="red">1.3.0</text>
<text text-anchor="middle" x="1002.65" y="-332" font-family="Times,serif" font-size="10.00" fill="red">(latest: 1.3.2)</text>
</g>
<!-- roo_windows_transceivers -->
<g id="node29" class="node">
<title>roo_windows_transceivers</title>
<polygon fill="plum" stroke="black" points="1201.15,-701 1040.15,-701 1040.15,-663 1201.15,-663 1201.15,-701"/>
<text text-anchor="middle" x="1120.65" y="-685.8" font-family="Times,serif" font-size="14.00">roo_windows_transceivers</text>
<text text-anchor="middle" x="1120.65" y="-670.8" font-family="Times,serif" font-size="14.00">1.0.0</text>
</g>
<!-- roo_windows_transceivers&#45;&gt;roo_testing -->
<g id="edge46" class="edge">
<title>roo_windows_transceivers&#45;&gt;roo_testing</title>
<path fill="none" stroke="red" d="M1143.38,-662.68C1162.12,-645.37 1185.65,-617.56 1185.65,-587 1185.65,-587 1185.65,-587 1185.65,-93 1185.65,-57.34 1079.79,-35.98 1015.27,-26.27"/>
<polygon fill="red" stroke="red" points="1015.7,-22.8 1005.3,-24.81 1014.68,-29.72 1015.7,-22.8"/>
<text text-anchor="middle" x="1212.65" y="-343" font-family="Times,serif" font-size="10.00" fill="red">1.1.4</text>
<text text-anchor="middle" x="1212.65" y="-332" font-family="Times,serif" font-size="10.00" fill="red">(latest: 1.1.7)</text>
</g>
<!-- roo_windows_transceivers&#45;&gt;roo_transceivers -->
<g id="edge47" class="edge">
<title>roo_windows_transceivers&#45;&gt;roo_transceivers</title>
<path fill="none" stroke="red" d="M1039.9,-672.73C919.85,-660.1 687.32,-634.36 490.65,-605 478.35,-603.16 465.24,-600.99 452.68,-598.8"/>
<polygon fill="red" stroke="red" points="453.21,-595.34 442.76,-597.04 452,-602.23 453.21,-595.34"/>
<text text-anchor="middle" x="809.65" y="-637" font-family="Times,serif" font-size="10.00" fill="red">1.1.1</text>
<text text-anchor="middle" x="809.65" y="-626" font-family="Times,serif" font-size="10.00" fill="red">(latest: 1.1.2)</text>
</g>
<!-- roo_windows_transceivers&#45;&gt;roo_windows -->
<g id="edge48" class="edge">
<title>roo_windows_transceivers&#45;&gt;roo_windows</title>
<path fill="none" stroke="black" d="M1043.42,-662.99C964.13,-644.49 842.71,-616.17 772.67,-599.83"/>
<polygon fill="black" stroke="black" points="773.25,-596.38 762.72,-597.51 771.66,-603.19 773.25,-596.38"/>
</g>
<!-- roo_windows_wifi -->
<g id="node30" class="node">
<title>roo_windows_wifi</title>
<polygon fill="khaki" stroke="black" points="777.15,-701 658.15,-701 658.15,-663 777.15,-663 777.15,-701"/>
<text text-anchor="middle" x="717.65" y="-685.8" font-family="Times,serif" font-size="14.00">roo_windows_wifi</text>
<text text-anchor="middle" x="717.65" y="-670.8" font-family="Times,serif" font-size="14.00">1.1.1</text>
</g>
<!-- roo_windows_wifi&#45;&gt;roo_testing -->
<g id="edge49" class="edge">
<title>roo_windows_wifi&#45;&gt;roo_testing</title>
<path fill="none" stroke="red" d="M777.54,-678.44C884.13,-672.23 1095.65,-651.75 1095.65,-587 1095.65,-587 1095.65,-587 1095.65,-93 1095.65,-54.66 1051.95,-36.22 1015.42,-27.5"/>
<polygon fill="red" stroke="red" points="1015.87,-24.02 1005.35,-25.3 1014.37,-30.86 1015.87,-24.02"/>
<text text-anchor="middle" x="1122.65" y="-343" font-family="Times,serif" font-size="10.00" fill="red">1.1.4</text>
<text text-anchor="middle" x="1122.65" y="-332" font-family="Times,serif" font-size="10.00" fill="red">(latest: 1.1.7)</text>
</g>
<!-- roo_windows_wifi&#45;&gt;roo_wifi -->
<g id="edge50" class="edge">
<title>roo_windows_wifi&#45;&gt;roo_wifi</title>
<path fill="none" stroke="red" d="M657.72,-672.14C610,-664.53 549.87,-653.48 541.65,-645 534.07,-637.19 531.07,-625.84 530.14,-615.24"/>
<polygon fill="red" stroke="red" points="533.64,-614.95 529.82,-605.06 526.64,-615.17 533.64,-614.95"/>
<text text-anchor="middle" x="568.65" y="-637" font-family="Times,serif" font-size="10.00" fill="red">1.1.0</text>
<text text-anchor="middle" x="568.65" y="-626" font-family="Times,serif" font-size="10.00" fill="red">(latest: 1.1.1)</text>
</g>
<!-- roo_windows_wifi&#45;&gt;roo_windows -->
<g id="edge51" class="edge">
<title>roo_windows_wifi&#45;&gt;roo_windows</title>
<path fill="none" stroke="black" d="M717.65,-662.88C717.65,-649.35 717.65,-630.62 717.65,-615.15"/>
<polygon fill="black" stroke="black" points="721.15,-615.07 717.65,-605.07 714.15,-615.07 721.15,-615.07"/>
</g>
</g>
</svg>
