<?xml version="1.0" encoding="UTF-8" standalone="no"?>
<!DOCTYPE svg PUBLIC "-//W3C//DTD SVG 1.1//EN"
 "http://www.w3.org/Graphics/SVG/1.1/DTD/svg11.dtd">
<!-- Generated by graphviz version 2.42.4 (0)
 -->
<!-- Title: dependencies Pages: 1 -->
<svg width="995pt" height="793pt"
 viewBox="0.00 0.00 995.00 793.00" xmlns="http://www.w3.org/2000/svg" xmlns:xlink="http://www.w3.org/1999/xlink">
<g id="graph0" class="graph" transform="scale(1 1) rotate(0) translate(4 789)">
<title>dependencies</title>
<polygon fill="white" stroke="transparent" points="-4,4 -4,-789 991,-789 991,4 -4,4"/>
<!-- roo_backport -->
<g id="node1" class="node">
<title>roo_backport</title>
<polygon fill="#b1dbab" stroke="black" points="571,-209 461,-209 461,-171 571,-171 571,-209"/>
<text text-anchor="middle" x="516" y="-193.8" font-family="Times,serif" font-size="14.00">roo_backport</text>
<text text-anchor="middle" x="516" y="-178.8" font-family="Times,serif" font-size="14.00">1.2.2</text>
</g>
<!-- roo_blink -->
<g id="node2" class="node">
<title>roo_blink</title>
<polygon fill="plum" stroke="red" points="228,-593 146,-593 146,-555 228,-555 228,-593"/>
<text text-anchor="middle" x="187" y="-577.8" font-family="Times,serif" font-size="14.00">roo_blink</text>
<text text-anchor="middle" x="187" y="-562.8" font-family="Times,serif" font-size="14.00">1.0.5</text>
</g>
<!-- roo_logging -->
<g id="node12" class="node">
<title>roo_logging</title>
<polygon fill="#b1dbab" stroke="black" points="392,-305 292,-305 292,-267 392,-267 392,-305"/>
<text text-anchor="middle" x="342" y="-289.8" font-family="Times,serif" font-size="14.00">roo_logging</text>
<text text-anchor="middle" x="342" y="-274.8" font-family="Times,serif" font-size="14.00">1.5.5</text>
</g>
<!-- roo_blink&#45;&gt;roo_logging -->
<g id="edge1" class="edge">
<title>roo_blink&#45;&gt;roo_logging</title>
<path fill="none" stroke="red" d="M186.57,-554.93C186.65,-524.59 190.39,-462.44 217,-419 223.78,-407.93 231.22,-410.56 240,-401 268.02,-370.49 262.24,-352.8 291,-323 295.05,-318.8 299.65,-314.78 304.39,-311.04"/>
<polygon fill="red" stroke="red" points="306.51,-313.83 312.43,-305.04 302.32,-308.22 306.51,-313.83"/>
<text text-anchor="middle" x="250" y="-433" font-family="Times,serif" font-size="10.00" fill="red">1.5.3</text>
<text text-anchor="middle" x="250" y="-422" font-family="Times,serif" font-size="10.00" fill="red">(latest: 1.5.5)</text>
</g>
<!-- roo_scheduler -->
<g id="node18" class="node">
<title>roo_scheduler</title>
<polygon fill="plum" stroke="red" points="356,-497 240,-497 240,-459 356,-459 356,-497"/>
<text text-anchor="middle" x="298" y="-481.8" font-family="Times,serif" font-size="14.00">roo_scheduler</text>
<text text-anchor="middle" x="298" y="-466.8" font-family="Times,serif" font-size="14.00">2.1.7</text>
</g>
<!-- roo_blink&#45;&gt;roo_scheduler -->
<g id="edge2" class="edge">
<title>roo_blink&#45;&gt;roo_scheduler</title>
<path fill="none" stroke="black" d="M209.48,-554.81C216.42,-549.14 224.05,-542.85 231,-537 243.72,-526.29 257.64,-514.29 269.48,-504"/>
<polygon fill="black" stroke="black" points="272.06,-506.39 277.3,-497.18 267.47,-501.11 272.06,-506.39"/>
</g>
<!-- roo_collections -->
<g id="node3" class="node">
<title>roo_collections</title>
<polygon fill="#b1dbab" stroke="black" points="836,-401 714,-401 714,-363 836,-363 836,-401"/>
<text text-anchor="middle" x="775" y="-385.8" font-family="Times,serif" font-size="14.00">roo_collections</text>
<text text-anchor="middle" x="775" y="-370.8" font-family="Times,serif" font-size="14.00">1.4.3</text>
</g>
<!-- roo_collections&#45;&gt;roo_backport -->
<g id="edge3" class="edge">
<title>roo_collections&#45;&gt;roo_backport</title>
<path fill="none" stroke="black" d="M750.17,-362.78C703.27,-328.38 601.68,-253.86 549.07,-215.26"/>
<polygon fill="black" stroke="black" points="550.89,-212.26 540.76,-209.16 546.75,-217.9 550.89,-212.26"/>
</g>
<!-- roo_comms -->
<g id="node4" class="node">
<title>roo_comms</title>
<polygon fill="plum" stroke="red" points="351.5,-785 254.5,-785 254.5,-747 351.5,-747 351.5,-785"/>
<text text-anchor="middle" x="303" y="-769.8" font-family="Times,serif" font-size="14.00">roo_comms</text>
<text text-anchor="middle" x="303" y="-754.8" font-family="Times,serif" font-size="14.00">1.1.3</text>
</g>
<!-- roo_comms&#45;&gt;roo_blink -->
<g id="edge4" class="edge">
<title>roo_comms&#45;&gt;roo_blink</title>
<path fill="none" stroke="red" d="M291.88,-746.78C271.35,-713.16 227.43,-641.22 203.45,-601.94"/>
<polygon fill="red" stroke="red" points="206.29,-599.87 198.09,-593.16 200.31,-603.52 206.29,-599.87"/>
<text text-anchor="middle" x="290" y="-673" font-family="Times,serif" font-size="10.00" fill="red">1.0.4</text>
<text text-anchor="middle" x="290" y="-662" font-family="Times,serif" font-size="10.00" fill="red">(latest: 1.0.5)</text>
</g>
<!-- roo_control -->
<g id="node5" class="node">
<title>roo_control</title>
<polygon fill="plum" stroke="red" points="127.5,-593 30.5,-593 30.5,-555 127.5,-555 127.5,-593"/>
<text text-anchor="middle" x="79" y="-577.8" font-family="Times,serif" font-size="14.00">roo_control</text>
<text text-anchor="middle" x="79" y="-562.8" font-family="Times,serif" font-size="14.00">1.2.4</text>
</g>
<!-- roo_comms&#45;&gt;roo_control -->
<g id="edge5" class="edge">
<title>roo_comms&#45;&gt;roo_control</title>
<path fill="none" stroke="red" d="M258.94,-746.87C229.98,-733.59 192.34,-713.62 164,-689 134.79,-663.62 109.48,-626.58 94.25,-601.68"/>
<polygon fill="red" stroke="red" points="97.25,-599.87 89.1,-593.09 91.24,-603.47 97.25,-599.87"/>
<text text-anchor="middle" x="197" y="-673" font-family="Times,serif" font-size="10.00" fill="red">1.2.3</text>
<text text-anchor="middle" x="197" y="-662" font-family="Times,serif" font-size="10.00" fill="red">(latest: 1.2.4)</text>
</g>
<!-- roo_io -->
<g id="node10" class="node">
<title>roo_io</title>
<polygon fill="khaki" stroke="black" points="537.5,-401 478.5,-401 478.5,-363 537.5,-363 537.5,-401"/>
<text text-anchor="middle" x="508" y="-385.8" font-family="Times,serif" font-size="14.00">roo_io</text>
<text text-anchor="middle" x="508" y="-370.8" font-family="Times,serif" font-size="14.00">2.1.5</text>
</g>
<!-- roo_comms&#45;&gt;roo_io -->
<g id="edge6" class="edge">
<title>roo_comms&#45;&gt;roo_io</title>
<path fill="none" stroke="red" d="M333.91,-746.79C357.5,-730.32 386,-703.66 386,-671 386,-671 386,-671 386,-477 386,-450.48 382.06,-438.53 400,-419 417.39,-400.07 444.99,-391.08 467.94,-386.82"/>
<polygon fill="red" stroke="red" points="468.79,-390.23 478.1,-385.17 467.67,-383.32 468.79,-390.23"/>
<text text-anchor="middle" x="419" y="-577" font-family="Times,serif" font-size="10.00" fill="red">2.1.1</text>
<text text-anchor="middle" x="419" y="-566" font-family="Times,serif" font-size="10.00" fill="red">(latest: 2.1.5)</text>
</g>
<!-- roo_transceivers -->
<g id="node23" class="node">
<title>roo_transceivers</title>
<polygon fill="plum" stroke="red" points="549.5,-689 414.5,-689 414.5,-651 549.5,-651 549.5,-689"/>
<text text-anchor="middle" x="482" y="-673.8" font-family="Times,serif" font-size="14.00">roo_transceivers</text>
<text text-anchor="middle" x="482" y="-658.8" font-family="Times,serif" font-size="14.00">1.1.4</text>
</g>
<!-- roo_comms&#45;&gt;roo_transceivers -->
<g id="edge7" class="edge">
<title>roo_comms&#45;&gt;roo_transceivers</title>
<path fill="none" stroke="black" d="M351.93,-749.64C367.66,-743.97 384.91,-736.96 400,-729 417.92,-719.55 436.47,-706.72 451.38,-695.54"/>
<polygon fill="black" stroke="black" points="453.88,-698.03 459.71,-689.18 449.63,-692.47 453.88,-698.03"/>
</g>
<!-- roo_quantity -->
<g id="node17" class="node">
<title>roo_quantity</title>
<polygon fill="plum" stroke="red" points="162.5,-497 55.5,-497 55.5,-459 162.5,-459 162.5,-497"/>
<text text-anchor="middle" x="109" y="-481.8" font-family="Times,serif" font-size="14.00">roo_quantity</text>
<text text-anchor="middle" x="109" y="-466.8" font-family="Times,serif" font-size="14.00">1.1.7</text>
</g>
<!-- roo_control&#45;&gt;roo_quantity -->
<g id="edge8" class="edge">
<title>roo_control&#45;&gt;roo_quantity</title>
<path fill="none" stroke="black" d="M84.78,-554.88C89.14,-541.22 95.19,-522.26 100.16,-506.71"/>
<polygon fill="black" stroke="black" points="103.53,-507.66 103.23,-497.07 96.86,-505.53 103.53,-507.66"/>
</g>
<!-- roo_control&#45;&gt;roo_scheduler -->
<g id="edge9" class="edge">
<title>roo_control&#45;&gt;roo_scheduler</title>
<path fill="none" stroke="black" d="M120.97,-554.99C156.69,-539.65 208.15,-517.57 246.38,-501.15"/>
<polygon fill="black" stroke="black" points="247.99,-504.27 255.8,-497.11 245.23,-497.84 247.99,-504.27"/>
</g>
<!-- roo_dashboard -->
<g id="node6" class="node">
<title>roo_dashboard</title>
<polygon fill="plum" stroke="red" points="884,-785 762,-785 762,-747 884,-747 884,-785"/>
<text text-anchor="middle" x="823" y="-769.8" font-family="Times,serif" font-size="14.00">roo_dashboard</text>
<text text-anchor="middle" x="823" y="-754.8" font-family="Times,serif" font-size="14.00">1.0.1</text>
</g>
<!-- roo_windows -->
<g id="node26" class="node">
<title>roo_windows</title>
<polygon fill="plum" stroke="red" points="783.5,-689 674.5,-689 674.5,-651 783.5,-651 783.5,-689"/>
<text text-anchor="middle" x="729" y="-673.8" font-family="Times,serif" font-size="14.00">roo_windows</text>
<text text-anchor="middle" x="729" y="-658.8" font-family="Times,serif" font-size="14.00">1.4.2</text>
</g>
<!-- roo_dashboard&#45;&gt;roo_windows -->
<g id="edge10" class="edge">
<title>roo_dashboard&#45;&gt;roo_windows</title>
<path fill="none" stroke="red" d="M804.88,-746.88C790.57,-732.57 770.44,-712.44 754.51,-696.51"/>
<polygon fill="red" stroke="red" points="756.61,-693.66 747.07,-689.07 751.66,-698.61 756.61,-693.66"/>
<text text-anchor="middle" x="818" y="-721" font-family="Times,serif" font-size="10.00" fill="red">1.4.1</text>
<text text-anchor="middle" x="818" y="-710" font-family="Times,serif" font-size="10.00" fill="red">(latest: 1.4.2)</text>
</g>
<!-- roo_display -->
<g id="node7" class="node">
<title>roo_display</title>
<polygon fill="plum" stroke="red" points="797,-497 699,-497 699,-459 797,-459 797,-497"/>
<text text-anchor="middle" x="748" y="-481.8" font-family="Times,serif" font-size="14.00">roo_display</text>
<text text-anchor="middle" x="748" y="-466.8" font-family="Times,serif" font-size="14.00">2.3.2</text>
</g>
<!-- roo_display&#45;&gt;roo_collections -->
<g id="edge11" class="edge">
<title>roo_display&#45;&gt;roo_collections</title>
<path fill="none" stroke="red" d="M797.17,-469.83C814.26,-464.72 831.7,-455.97 842,-441 847.54,-432.94 847.02,-427.39 842,-419 839.43,-414.69 836.14,-410.87 832.41,-407.49"/>
<polygon fill="red" stroke="red" points="834.26,-404.49 824.21,-401.13 829.97,-410.03 834.26,-404.49"/>
<text text-anchor="middle" x="878" y="-433" font-family="Times,serif" font-size="10.00" fill="red">1.4.0</text>
<text text-anchor="middle" x="878" y="-422" font-family="Times,serif" font-size="10.00" fill="red">(latest: 1.4.3)</text>
</g>
<!-- roo_display&#45;&gt;roo_io -->
<g id="edge12" class="edge">
<title>roo_display&#45;&gt;roo_io</title>
<path fill="none" stroke="red" d="M698.7,-471.81C668.24,-467.04 629.15,-457.99 598,-441 585.58,-434.23 586.45,-427.31 575,-419 566.26,-412.65 556.25,-406.68 546.69,-401.5"/>
<polygon fill="red" stroke="red" points="548.2,-398.33 537.72,-396.78 544.94,-404.53 548.2,-398.33"/>
<text text-anchor="middle" x="631" y="-433" font-family="Times,serif" font-size="10.00" fill="red">2.1.2</text>
<text text-anchor="middle" x="631" y="-422" font-family="Times,serif" font-size="10.00" fill="red">(latest: 2.1.5)</text>
</g>
<!-- roo_flags -->
<g id="node8" class="node">
<title>roo_flags</title>
<polygon fill="#b1dbab" stroke="black" points="382,-209 302,-209 302,-171 382,-171 382,-209"/>
<text text-anchor="middle" x="342" y="-193.8" font-family="Times,serif" font-size="14.00">roo_flags</text>
<text text-anchor="middle" x="342" y="-178.8" font-family="Times,serif" font-size="14.00">1.2.3</text>
</g>
<!-- roo_icons -->
<g id="node9" class="node">
<title>roo_icons</title>
<polygon fill="plum" stroke="red" points="789.5,-593 706.5,-593 706.5,-555 789.5,-555 789.5,-593"/>
<text text-anchor="middle" x="748" y="-577.8" font-family="Times,serif" font-size="14.00">roo_icons</text>
<text text-anchor="middle" x="748" y="-562.8" font-family="Times,serif" font-size="14.00">1.2.1</text>
</g>
<!-- roo_icons&#45;&gt;roo_display -->
<g id="edge13" class="edge">
<title>roo_icons&#45;&gt;roo_display</title>
<path fill="none" stroke="red" d="M748,-554.88C748,-541.35 748,-522.62 748,-507.15"/>
<polygon fill="red" stroke="red" points="751.5,-507.07 748,-497.07 744.5,-507.07 751.5,-507.07"/>
<text text-anchor="middle" x="781" y="-529" font-family="Times,serif" font-size="10.00" fill="red">2.3.1</text>
<text text-anchor="middle" x="781" y="-518" font-family="Times,serif" font-size="10.00" fill="red">(latest: 2.3.2)</text>
</g>
<!-- roo_io&#45;&gt;roo_logging -->
<g id="edge14" class="edge">
<title>roo_io&#45;&gt;roo_logging</title>
<path fill="none" stroke="black" d="M478.32,-364.19C451.7,-349.12 412.39,-326.86 382.81,-310.11"/>
<polygon fill="black" stroke="black" points="384.39,-306.98 373.97,-305.1 380.95,-313.08 384.39,-306.98"/>
</g>
<!-- roo_locale -->
<g id="node11" class="node">
<title>roo_locale</title>
<polygon fill="plum" stroke="black" points="896,-593 808,-593 808,-555 896,-555 896,-593"/>
<text text-anchor="middle" x="852" y="-577.8" font-family="Times,serif" font-size="14.00">roo_locale</text>
<text text-anchor="middle" x="852" y="-562.8" font-family="Times,serif" font-size="14.00">1.1.1</text>
</g>
<!-- roo_logging&#45;&gt;roo_backport -->
<g id="edge15" class="edge">
<title>roo_logging&#45;&gt;roo_backport</title>
<path fill="none" stroke="black" d="M375.55,-266.88C403.47,-251.79 443.39,-230.23 473.54,-213.94"/>
<polygon fill="black" stroke="black" points="475.42,-216.9 482.55,-209.07 472.09,-210.74 475.42,-216.9"/>
</g>
<!-- roo_logging&#45;&gt;roo_flags -->
<g id="edge16" class="edge">
<title>roo_logging&#45;&gt;roo_flags</title>
<path fill="none" stroke="black" d="M342,-266.88C342,-253.35 342,-234.62 342,-219.15"/>
<polygon fill="black" stroke="black" points="345.5,-219.07 342,-209.07 338.5,-219.07 345.5,-219.07"/>
</g>
<!-- roo_threads -->
<g id="node20" class="node">
<title>roo_threads</title>
<polygon fill="#b1dbab" stroke="black" points="257.5,-209 156.5,-209 156.5,-171 257.5,-171 257.5,-209"/>
<text text-anchor="middle" x="207" y="-193.8" font-family="Times,serif" font-size="14.00">roo_threads</text>
<text text-anchor="middle" x="207" y="-178.8" font-family="Times,serif" font-size="14.00">1.2.3</text>
</g>
<!-- roo_logging&#45;&gt;roo_threads -->
<g id="edge17" class="edge">
<title>roo_logging&#45;&gt;roo_threads</title>
<path fill="none" stroke="black" d="M324.27,-266.92C311.75,-254.75 294.2,-238.82 277,-227 270.35,-222.43 263.04,-218.05 255.73,-214.02"/>
<polygon fill="black" stroke="black" points="256.99,-210.73 246.52,-209.12 253.7,-216.91 256.99,-210.73"/>
</g>
<!-- roo_monitoring -->
<g id="node13" class="node">
<title>roo_monitoring</title>
<polygon fill="plum" stroke="red" points="977.5,-497 852.5,-497 852.5,-459 977.5,-459 977.5,-497"/>
<text text-anchor="middle" x="915" y="-481.8" font-family="Times,serif" font-size="14.00">roo_monitoring</text>
<text text-anchor="middle" x="915" y="-466.8" font-family="Times,serif" font-size="14.00">1.0.0</text>
</g>
<!-- roo_monitoring&#45;&gt;roo_collections -->
<g id="edge18" class="edge">
<title>roo_monitoring&#45;&gt;roo_collections</title>
<path fill="none" stroke="red" d="M920.32,-458.93C922.83,-446.44 923.64,-430.14 915,-419 906.02,-407.42 876.09,-398.91 846.2,-393.08"/>
<polygon fill="red" stroke="red" points="846.57,-389.59 836.1,-391.21 845.29,-396.47 846.57,-389.59"/>
<text text-anchor="middle" x="954" y="-433" font-family="Times,serif" font-size="10.00" fill="red">1.4.1</text>
<text text-anchor="middle" x="954" y="-422" font-family="Times,serif" font-size="10.00" fill="red">(latest: 1.4.3)</text>
</g>
<!-- roo_monitoring&#45;&gt;roo_io -->
<g id="edge19" class="edge">
<title>roo_monitoring&#45;&gt;roo_io</title>
<path fill="none" stroke="red" d="M852.49,-466.48C837.29,-463.97 821.07,-461.35 806,-459 751.41,-450.5 731.44,-467.58 683,-441 671.67,-434.78 675.06,-425.67 664,-419 628.35,-397.5 581.01,-388.84 547.86,-385.35"/>
<polygon fill="red" stroke="red" points="547.92,-381.84 537.64,-384.39 547.26,-388.81 547.92,-381.84"/>
<text text-anchor="middle" x="716" y="-433" font-family="Times,serif" font-size="10.00" fill="red">2.1.4</text>
<text text-anchor="middle" x="716" y="-422" font-family="Times,serif" font-size="10.00" fill="red">(latest: 2.1.5)</text>
</g>
<!-- roo_onewire -->
<g id="node14" class="node">
<title>roo_onewire</title>
<polygon fill="plum" stroke="red" points="350,-593 246,-593 246,-555 350,-555 350,-593"/>
<text text-anchor="middle" x="298" y="-577.8" font-family="Times,serif" font-size="14.00">roo_onewire</text>
<text text-anchor="middle" x="298" y="-562.8" font-family="Times,serif" font-size="14.00">2.0.8</text>
</g>
<!-- roo_onewire&#45;&gt;roo_quantity -->
<g id="edge21" class="edge">
<title>roo_onewire&#45;&gt;roo_quantity</title>
<path fill="none" stroke="black" d="M261.56,-554.88C231.1,-539.73 187.5,-518.04 154.7,-501.73"/>
<polygon fill="black" stroke="black" points="155.84,-498.39 145.33,-497.07 152.72,-504.66 155.84,-498.39"/>
</g>
<!-- roo_onewire&#45;&gt;roo_scheduler -->
<g id="edge20" class="edge">
<title>roo_onewire&#45;&gt;roo_scheduler</title>
<path fill="none" stroke="black" d="M298,-554.88C298,-541.35 298,-522.62 298,-507.15"/>
<polygon fill="black" stroke="black" points="301.5,-507.07 298,-497.07 294.5,-507.07 301.5,-507.07"/>
</g>
<!-- roo_powersafefs -->
<g id="node15" class="node">
<title>roo_powersafefs</title>
<polygon fill="plum" stroke="red" points="273.5,-305 140.5,-305 140.5,-267 273.5,-267 273.5,-305"/>
<text text-anchor="middle" x="207" y="-289.8" font-family="Times,serif" font-size="14.00">roo_powersafefs</text>
<text text-anchor="middle" x="207" y="-274.8" font-family="Times,serif" font-size="14.00">1.0.0</text>
</g>
<!-- roo_powersafefs&#45;&gt;roo_threads -->
<g id="edge22" class="edge">
<title>roo_powersafefs&#45;&gt;roo_threads</title>
<path fill="none" stroke="red" d="M207,-266.88C207,-253.35 207,-234.62 207,-219.15"/>
<polygon fill="red" stroke="red" points="210.5,-219.07 207,-209.07 203.5,-219.07 210.5,-219.07"/>
<text text-anchor="middle" x="240" y="-241" font-family="Times,serif" font-size="10.00" fill="red">1.2.1</text>
<text text-anchor="middle" x="240" y="-230" font-family="Times,serif" font-size="10.00" fill="red">(latest: 1.2.3)</text>
</g>
<!-- roo_prefs -->
<g id="node16" class="node">
<title>roo_prefs</title>
<polygon fill="plum" stroke="red" points="553.5,-593 470.5,-593 470.5,-555 553.5,-555 553.5,-593"/>
<text text-anchor="middle" x="512" y="-577.8" font-family="Times,serif" font-size="14.00">roo_prefs</text>
<text text-anchor="middle" x="512" y="-562.8" font-family="Times,serif" font-size="14.00">1.2.8</text>
</g>
<!-- roo_prefs&#45;&gt;roo_logging -->
<g id="edge23" class="edge">
<title>roo_prefs&#45;&gt;roo_logging</title>
<path fill="none" stroke="red" d="M493.07,-554.79C466.44,-530.04 415.49,-485.8 365,-459 342.28,-446.94 325.1,-461.82 310,-441 282.46,-403.01 306.31,-346.63 324.97,-313.67"/>
<polygon fill="red" stroke="red" points="328,-315.42 330.05,-305.03 321.96,-311.87 328,-315.42"/>
<text text-anchor="middle" x="343" y="-433" font-family="Times,serif" font-size="10.00" fill="red">1.5.3</text>
<text text-anchor="middle" x="343" y="-422" font-family="Times,serif" font-size="10.00" fill="red">(latest: 1.5.5)</text>
</g>
<!-- roo_prefs&#45;&gt;roo_scheduler -->
<g id="edge24" class="edge">
<title>roo_prefs&#45;&gt;roo_scheduler</title>
<path fill="none" stroke="black" d="M470.27,-556.09C455.88,-550.16 439.69,-543.39 425,-537 398.61,-525.52 369.38,-512.21 345.62,-501.24"/>
<polygon fill="black" stroke="black" points="347.01,-498.03 336.47,-497 344.07,-504.38 347.01,-498.03"/>
</g>
<!-- roo_quantity&#45;&gt;roo_logging -->
<g id="edge25" class="edge">
<title>roo_quantity&#45;&gt;roo_logging</title>
<path fill="none" stroke="red" d="M115.88,-458.98C125.79,-434.84 146.03,-391.73 174,-363 197.93,-338.43 209,-337.67 240,-323 253.38,-316.67 268.19,-310.82 282.28,-305.76"/>
<polygon fill="red" stroke="red" points="283.61,-309.01 291.89,-302.39 281.29,-302.4 283.61,-309.01"/>
<text text-anchor="middle" x="207" y="-385" font-family="Times,serif" font-size="10.00" fill="red">1.5.3</text>
<text text-anchor="middle" x="207" y="-374" font-family="Times,serif" font-size="10.00" fill="red">(latest: 1.5.5)</text>
</g>
<!-- roo_scheduler&#45;&gt;roo_collections -->
<g id="edge26" class="edge">
<title>roo_scheduler&#45;&gt;roo_collections</title>
<path fill="none" stroke="red" d="M336.78,-458.93C369.83,-443.82 414.93,-423.95 434,-419 483.35,-406.18 619.32,-394.4 703.9,-388.01"/>
<polygon fill="red" stroke="red" points="704.24,-391.49 713.95,-387.25 703.72,-384.51 704.24,-391.49"/>
<text text-anchor="middle" x="467" y="-433" font-family="Times,serif" font-size="10.00" fill="red">1.4.1</text>
<text text-anchor="middle" x="467" y="-422" font-family="Times,serif" font-size="10.00" fill="red">(latest: 1.4.3)</text>
</g>
<!-- roo_scheduler&#45;&gt;roo_threads -->
<g id="edge27" class="edge">
<title>roo_scheduler&#45;&gt;roo_threads</title>
<path fill="none" stroke="red" d="M286.72,-458.88C279.11,-447.12 268.57,-431.69 258,-419 235.47,-391.96 228.11,-386.61 202,-363 171.78,-335.67 148.46,-341.81 131,-305 115.43,-272.18 145.48,-237.95 172.26,-215.67"/>
<polygon fill="red" stroke="red" points="174.79,-218.14 180.41,-209.16 170.42,-212.67 174.79,-218.14"/>
<text text-anchor="middle" x="209" y="-337" font-family="Times,serif" font-size="10.00" fill="red">1.2.1</text>
<text text-anchor="middle" x="209" y="-326" font-family="Times,serif" font-size="10.00" fill="red">(latest: 1.2.3)</text>
</g>
<!-- roo_testing -->
<g id="node19" class="node">
<title>roo_testing</title>
<polygon fill="#b1dbab" stroke="black" points="157.5,-38 60.5,-38 60.5,0 157.5,0 157.5,-38"/>
<text text-anchor="middle" x="109" y="-22.8" font-family="Times,serif" font-size="14.00">roo_testing</text>
<text text-anchor="middle" x="109" y="-7.8" font-family="Times,serif" font-size="14.00">1.3.2</text>
</g>
<!-- roo_time -->
<g id="node21" class="node">
<title>roo_time</title>
<polygon fill="#b1dbab" stroke="black" points="148.5,-113 69.5,-113 69.5,-75 148.5,-75 148.5,-113"/>
<text text-anchor="middle" x="109" y="-97.8" font-family="Times,serif" font-size="14.00">roo_time</text>
<text text-anchor="middle" x="109" y="-82.8" font-family="Times,serif" font-size="14.00">1.4.3</text>
</g>
<!-- roo_threads&#45;&gt;roo_time -->
<g id="edge28" class="edge">
<title>roo_threads&#45;&gt;roo_time</title>
<path fill="none" stroke="black" d="M195.49,-170.74C187.33,-158.64 175.61,-142.86 163,-131 158.58,-126.85 153.64,-122.85 148.58,-119.12"/>
<polygon fill="black" stroke="black" points="150.24,-116.01 140.04,-113.13 146.22,-121.74 150.24,-116.01"/>
</g>
<!-- roo_time&#45;&gt;roo_testing -->
<g id="edge29" class="edge">
<title>roo_time&#45;&gt;roo_testing</title>
<path fill="none" stroke="black" d="M109,-74.96C109,-66.88 109,-57.18 109,-48.18"/>
<polygon fill="black" stroke="black" points="112.5,-48.09 109,-38.09 105.5,-48.09 112.5,-48.09"/>
</g>
<!-- roo_time_ds3231 -->
<g id="node22" class="node">
<title>roo_time_ds3231</title>
<polygon fill="plum" stroke="red" points="138,-209 0,-209 0,-171 138,-171 138,-209"/>
<text text-anchor="middle" x="69" y="-193.8" font-family="Times,serif" font-size="14.00">roo_time_ds3231</text>
<text text-anchor="middle" x="69" y="-178.8" font-family="Times,serif" font-size="14.00">1.1.5</text>
</g>
<!-- roo_time_ds3231&#45;&gt;roo_time -->
<g id="edge30" class="edge">
<title>roo_time_ds3231&#45;&gt;roo_time</title>
<path fill="none" stroke="red" d="M76.71,-170.88C82.52,-157.22 90.59,-138.26 97.21,-122.71"/>
<polygon fill="red" stroke="red" points="100.62,-123.64 101.31,-113.07 94.18,-120.9 100.62,-123.64"/>
<text text-anchor="middle" x="126" y="-145" font-family="Times,serif" font-size="10.00" fill="red">1.4.1</text>
<text text-anchor="middle" x="126" y="-134" font-family="Times,serif" font-size="10.00" fill="red">(latest: 1.4.3)</text>
</g>
<!-- roo_transceivers&#45;&gt;roo_prefs -->
<g id="edge31" class="edge">
<title>roo_transceivers&#45;&gt;roo_prefs</title>
<path fill="none" stroke="red" d="M463.27,-650.74C453.79,-639.2 445.67,-624.06 453,-611 455.44,-606.65 458.64,-602.77 462.3,-599.31"/>
<polygon fill="red" stroke="red" points="464.77,-601.81 470.33,-592.8 460.36,-596.37 464.77,-601.81"/>
<text text-anchor="middle" x="486" y="-625" font-family="Times,serif" font-size="10.00" fill="red">1.2.7</text>
<text text-anchor="middle" x="486" y="-614" font-family="Times,serif" font-size="10.00" fill="red">(latest: 1.2.8)</text>
</g>
<!-- roo_transport -->
<g id="node24" class="node">
<title>roo_transport</title>
<polygon fill="plum" stroke="red" points="627,-497 513,-497 513,-459 627,-459 627,-497"/>
<text text-anchor="middle" x="570" y="-481.8" font-family="Times,serif" font-size="14.00">roo_transport</text>
<text text-anchor="middle" x="570" y="-466.8" font-family="Times,serif" font-size="14.00">1.1.1</text>
</g>
<!-- roo_transport&#45;&gt;roo_collections -->
<g id="edge32" class="edge">
<title>roo_transport&#45;&gt;roo_collections</title>
<path fill="none" stroke="red" d="M627.06,-468.62C677.08,-460.81 743.32,-449.17 753,-441 761.92,-433.47 767.23,-421.92 770.39,-411.11"/>
<polygon fill="red" stroke="red" points="773.85,-411.66 772.8,-401.12 767.05,-410.01 773.85,-411.66"/>
<text text-anchor="middle" x="801" y="-433" font-family="Times,serif" font-size="10.00" fill="red">1.4.1</text>
<text text-anchor="middle" x="801" y="-422" font-family="Times,serif" font-size="10.00" fill="red">(latest: 1.4.3)</text>
</g>
<!-- roo_transport&#45;&gt;roo_io -->
<g id="edge33" class="edge">
<title>roo_transport&#45;&gt;roo_io</title>
<path fill="none" stroke="red" d="M526.43,-458.96C519.49,-454.15 513.21,-448.23 509,-441 503.9,-432.24 502.65,-421.41 503.02,-411.49"/>
<polygon fill="red" stroke="red" points="506.53,-411.49 503.95,-401.22 499.56,-410.86 506.53,-411.49"/>
<text text-anchor="middle" x="542" y="-433" font-family="Times,serif" font-size="10.00" fill="red">2.1.3</text>
<text text-anchor="middle" x="542" y="-422" font-family="Times,serif" font-size="10.00" fill="red">(latest: 2.1.5)</text>
</g>
<!-- roo_wifi -->
<g id="node25" class="node">
<title>roo_wifi</title>
<polygon fill="plum" stroke="red" points="640,-689 568,-689 568,-651 640,-651 640,-689"/>
<text text-anchor="middle" x="604" y="-673.8" font-family="Times,serif" font-size="14.00">roo_wifi</text>
<text text-anchor="middle" x="604" y="-658.8" font-family="Times,serif" font-size="14.00">1.1.3</text>
</g>
<!-- roo_wifi&#45;&gt;roo_prefs -->
<g id="edge34" class="edge">
<title>roo_wifi&#45;&gt;roo_prefs</title>
<path fill="none" stroke="red" d="M567.73,-652.53C558.58,-647.2 549.3,-640.66 542,-633 533.68,-624.26 527.09,-612.77 522.24,-602.32"/>
<polygon fill="red" stroke="red" points="525.44,-600.91 518.26,-593.12 519.02,-603.69 525.44,-600.91"/>
<text text-anchor="middle" x="575" y="-625" font-family="Times,serif" font-size="10.00" fill="red">1.2.7</text>
<text text-anchor="middle" x="575" y="-614" font-family="Times,serif" font-size="10.00" fill="red">(latest: 1.2.8)</text>
</g>
<!-- roo_windows&#45;&gt;roo_icons -->
<g id="edge36" class="edge">
<title>roo_windows&#45;&gt;roo_icons</title>
<path fill="none" stroke="black" d="M732.66,-650.88C735.4,-637.35 739.18,-618.62 742.31,-603.15"/>
<polygon fill="black" stroke="black" points="745.8,-603.56 744.35,-593.07 738.94,-602.18 745.8,-603.56"/>
</g>
<!-- roo_windows&#45;&gt;roo_locale -->
<g id="edge35" class="edge">
<title>roo_windows&#45;&gt;roo_locale</title>
<path fill="none" stroke="black" d="M752.72,-650.88C771.94,-636.18 799.22,-615.34 820.32,-599.21"/>
<polygon fill="black" stroke="black" points="822.54,-601.92 828.36,-593.07 818.29,-596.36 822.54,-601.92"/>
</g>
<!-- roo_windows&#45;&gt;roo_scheduler -->
<g id="edge37" class="edge">
<title>roo_windows&#45;&gt;roo_scheduler</title>
<path fill="none" stroke="red" d="M707.43,-650.9C676.86,-626.07 618.38,-581.52 562,-555 498.41,-525.09 420.58,-504.44 365.95,-492.29"/>
<polygon fill="red" stroke="red" points="366.55,-488.84 356.03,-490.12 365.05,-495.68 366.55,-488.84"/>
<text text-anchor="middle" x="660" y="-577" font-family="Times,serif" font-size="10.00" fill="red">2.1.6</text>
<text text-anchor="middle" x="660" y="-566" font-family="Times,serif" font-size="10.00" fill="red">(latest: 2.1.7)</text>
</g>
<!-- roo_windows_transceivers -->
<g id="node27" class="node">
<title>roo_windows_transceivers</title>
<polygon fill="plum" stroke="red" points="584,-785 380,-785 380,-747 584,-747 584,-785"/>
<text text-anchor="middle" x="482" y="-769.8" font-family="Times,serif" font-size="14.00">roo_windows_transceivers</text>
<text text-anchor="middle" x="482" y="-754.8" font-family="Times,serif" font-size="14.00">1.0.0</text>
</g>
<!-- roo_windows_transceivers&#45;&gt;roo_transceivers -->
<g id="edge38" class="edge">
<title>roo_windows_transceivers&#45;&gt;roo_transceivers</title>
<path fill="none" stroke="red" d="M482,-746.88C482,-733.35 482,-714.62 482,-699.15"/>
<polygon fill="red" stroke="red" points="485.5,-699.07 482,-689.07 478.5,-699.07 485.5,-699.07"/>
<text text-anchor="middle" x="515" y="-721" font-family="Times,serif" font-size="10.00" fill="red">1.1.3</text>
<text text-anchor="middle" x="515" y="-710" font-family="Times,serif" font-size="10.00" fill="red">(latest: 1.1.4)</text>
</g>
<!-- roo_windows_transceivers&#45;&gt;roo_windows -->
<g id="edge39" class="edge">
<title>roo_windows_transceivers&#45;&gt;roo_windows</title>
<path fill="none" stroke="red" d="M529.33,-746.99C569.96,-731.52 628.64,-709.19 671.88,-692.74"/>
<polygon fill="red" stroke="red" points="673.31,-695.94 681.41,-689.11 670.82,-689.4 673.31,-695.94"/>
<text text-anchor="middle" x="661" y="-721" font-family="Times,serif" font-size="10.00" fill="red">1.4.1</text>
<text text-anchor="middle" x="661" y="-710" font-family="Times,serif" font-size="10.00" fill="red">(latest: 1.4.2)</text>
</g>
<!-- roo_windows_wifi -->
<g id="node28" class="node">
<title>roo_windows_wifi</title>
<polygon fill="plum" stroke="red" points="743.5,-785 602.5,-785 602.5,-747 743.5,-747 743.5,-785"/>
<text text-anchor="middle" x="673" y="-769.8" font-family="Times,serif" font-size="14.00">roo_windows_wifi</text>
<text text-anchor="middle" x="673" y="-754.8" font-family="Times,serif" font-size="14.00">1.1.3</text>
</g>
<!-- roo_windows_wifi&#45;&gt;roo_wifi -->
<g id="edge40" class="edge">
<title>roo_windows_wifi&#45;&gt;roo_wifi</title>
<path fill="none" stroke="black" d="M640.53,-746.91C633.65,-741.85 626.97,-735.84 622,-729 615.65,-720.27 611.5,-709.24 608.81,-699.15"/>
<polygon fill="black" stroke="black" points="612.15,-698.07 606.49,-689.11 605.33,-699.64 612.15,-698.07"/>
</g>
<!-- roo_windows_wifi&#45;&gt;roo_windows -->
<g id="edge41" class="edge">
<title>roo_windows_wifi&#45;&gt;roo_windows</title>
<path fill="none" stroke="black" d="M693.54,-746.86C698.77,-741.5 704.02,-735.35 708,-729 713.74,-719.84 718.21,-708.88 721.53,-698.98"/>
<polygon fill="black" stroke="black" points="724.96,-699.74 724.58,-689.15 718.28,-697.66 724.96,-699.74"/>
</g>
</g>
</svg>
